G04*
G04 #@! TF.GenerationSoftware,Altium Limited,Altium Designer,19.1.6 (110)*
G04*
G04 Layer_Color=32896*
%FSLAX24Y24*%
%MOIN*%
G70*
G01*
G75*
%ADD14C,0.0079*%
D14*
X38405Y39882D02*
X38195D01*
X38300D01*
Y39567D01*
X38090Y39672D02*
X37880D01*
X38090Y39777D02*
X37880D01*
X37776Y39567D02*
X37671D01*
X37723D01*
Y39882D01*
X37776Y39829D01*
X37513Y39567D02*
Y39619D01*
X37461D01*
Y39567D01*
X37513D01*
X37041Y39882D02*
X37146Y39829D01*
X37251Y39724D01*
Y39619D01*
X37198Y39567D01*
X37093D01*
X37041Y39619D01*
Y39672D01*
X37093Y39724D01*
X37251D01*
X36936Y39567D02*
Y39777D01*
X36883D01*
X36831Y39724D01*
Y39567D01*
Y39724D01*
X36778Y39777D01*
X36726Y39724D01*
Y39567D01*
X36621D02*
Y39777D01*
X36569D01*
X36516Y39724D01*
Y39567D01*
Y39724D01*
X36464Y39777D01*
X36411Y39724D01*
Y39567D01*
X35781Y39882D02*
X35991D01*
Y39567D01*
X35781D01*
X35991Y39724D02*
X35886D01*
X35676Y39777D02*
Y39567D01*
Y39672D01*
X35624Y39724D01*
X35572Y39777D01*
X35519D01*
X35362Y39672D02*
X35152D01*
X35362Y39777D02*
X35152D01*
X34889Y39567D02*
Y39882D01*
X35047Y39724D01*
X34837D01*
X34732Y39567D02*
Y39619D01*
X34679D01*
Y39567D01*
X34732D01*
X34312D02*
Y39882D01*
X34470Y39724D01*
X34260D01*
X33630Y39829D02*
X33682Y39882D01*
X33787D01*
X33840Y39829D01*
Y39619D01*
X33787Y39567D01*
X33682D01*
X33630Y39619D01*
Y39724D01*
X33735D01*
X33315Y39829D02*
X33368Y39882D01*
X33472D01*
X33525Y39829D01*
Y39777D01*
X33472Y39724D01*
X33368D01*
X33315Y39672D01*
Y39619D01*
X33368Y39567D01*
X33472D01*
X33525Y39619D01*
X33210Y39567D02*
Y39882D01*
X33105Y39777D01*
X33000Y39882D01*
Y39567D01*
X32895D02*
X32685Y39777D01*
X32580Y39829D02*
X32528Y39882D01*
X32423D01*
X32370Y39829D01*
Y39777D01*
X32423Y39724D01*
X32475D01*
X32423D01*
X32370Y39672D01*
Y39619D01*
X32423Y39567D01*
X32528D01*
X32580Y39619D01*
X32056Y39829D02*
X32108Y39882D01*
X32213D01*
X32266Y39829D01*
Y39619D01*
X32213Y39567D01*
X32108D01*
X32056Y39619D01*
Y39724D01*
X32161D01*
M02*
