M48
;Layer_Color=9474304
;FILE_FORMAT=2:4
INCH,LZ
;TYPE=PLATED
T1F00S00C0.0118
T2F00S00C0.0157
T3F00S00C0.0380
T4F00S00C0.0390
T5F00S00C0.0433
%
T01
X033533Y030394
X033917
X034291
X038346Y030778
X038858Y030561
X039163Y030738
X025098Y030758
X023504Y030384
X022687Y030925
X021909Y030423
X021309Y031024
X020689Y030659
X020384Y031486
X020689Y032392
X020472Y033159
X021319Y033445
X021781Y032943
X022539Y033002
X025994Y03187
X025837Y038022
X025699Y038661
X02606Y038718
X0275Y038051
X028268Y03814
X029055Y037943
X029764Y038002
X030098Y038287
X030965Y038012
X030679Y037146
X0306Y035571
X030285Y035138
X030344Y034793
X030305Y034429
X03065Y034272
X027579Y037244
X024754Y037264
X023346Y037254
X022421Y040226
X021654Y041348
X02127Y041388
X020276Y041752
X020269Y04252
X020266Y043524
X020315Y044213
X020738Y044439
X020837Y043848
X021407Y043524
X021516Y044449
X0219Y045118
X021526Y045896
X020797Y045915
X020443Y046506
X020354Y045138
X022579Y045748
X022126Y046447
X022057Y04251
Y042106
X022392Y042303
X023878Y040915
X024528Y040906
X027116Y040955
X028967Y040167
X028996Y039085
X029882Y041368
X03064Y041968
X029518Y042451
X029508Y045364
X028593Y044734
X027933Y044941
X027313
X026535Y044911
X025915Y045266
X030581Y046683
X03189Y046585
X033917Y046634
X03372Y045413
X033868Y042372
X034626
X035541Y041624
X035236Y04122
X036309Y040817
X036642Y041132
X03687Y040256
X03686Y039892
X036004Y040463
X035098Y039626
X034085Y040128
X03312Y040492
X032451Y040837
X031889Y04063
X032726Y039813
X032795Y03813
X03313Y036801
X033396Y036358
X032628Y036319
X032992Y035935
X033258Y035463
X032657
X032057Y034951
X031998Y036033
X032175Y036654
X033888Y036801
X033799Y035955
X033839Y034951
X035551Y034921
X035108Y034252
X035089Y033661
X034715Y033583
X034154Y033248
X033406Y033632
X032451Y033652
X032234Y033356
X032864Y03313
X034921Y032844
X036122
X0369Y031969
X037362
X03812Y03126
X039124Y032028
X038888Y033986
X039144Y034449
X038799Y036545
X039075Y036831
X039281Y038159
X038445Y038179
X03875Y038553
X038573Y03938
X03976Y039744
X039892Y039026
X041171Y038484
X041004Y040207
X039793Y041555
Y041968
X040059Y043661
X037542Y044515
X036959Y042539
X032854Y042431
X033287Y041968
X034252Y038396
X034606Y037333
X035571Y037559
X036417Y037057
X036791Y036811
X036191Y036201
X035868Y03885
X037736Y038366
X038297Y037638
X040826Y036555
X040787Y036004
X041457Y035069
X042402
X043346
Y033829
X042402
X041457
Y032549
X042392
X043346
X043299Y036951
X035148Y031624
T02
X036748Y03097
X039665Y030846
X04063Y030837
X041683Y030453
X024537Y031211
X023157Y032528
X023465Y035453
X024941Y034154
X025453Y033701
X026516Y033642
X02623Y035177
X026801Y035187
X026486Y035886
X027904Y042451
X030069Y046319
X034724Y044547
X038573Y043947
X038703Y040335
X034291Y039656
X033711Y038425
X036201Y034656
X036624Y034429
X039665Y033996
X040246Y033819
X039882Y034734
X040876Y034646
X040482Y035246
X041093Y037224
X040837Y032923
X040325Y032205
X039665Y03188
Y032766
X041122Y031713
X032096Y031447
X031457Y03438
X04311Y042264
T03
X038789Y031248
X025915Y031211
Y032589
X02562Y034748
Y035748
X027392Y035738
Y034738
X021939Y034567
Y035567
X020939
Y034567
Y036567
X021939
X024065Y03714
Y03814
X038789Y033248
T04
X042392Y045807
X043392
T05
X02565Y043109
Y044291
X026831
Y043109
X028012
Y044291
X029193
Y043109
X030374
Y044291
X031555
Y043109
X032736
X033917
Y044291
X032736
X039498
X040679
Y043109
X039498
M30
