G04 Layer_Color=8388736*
%FSLAX24Y24*%
%MOIN*%
G70*
G01*
G75*
G04:AMPARAMS|DCode=67|XSize=36mil|YSize=43.8mil|CornerRadius=6.8mil|HoleSize=0mil|Usage=FLASHONLY|Rotation=0.000|XOffset=0mil|YOffset=0mil|HoleType=Round|Shape=RoundedRectangle|*
%AMROUNDEDRECTD67*
21,1,0.0360,0.0302,0,0,0.0*
21,1,0.0224,0.0438,0,0,0.0*
1,1,0.0136,0.0112,-0.0151*
1,1,0.0136,-0.0112,-0.0151*
1,1,0.0136,-0.0112,0.0151*
1,1,0.0136,0.0112,0.0151*
%
%ADD67ROUNDEDRECTD67*%
G04:AMPARAMS|DCode=68|XSize=36mil|YSize=43.8mil|CornerRadius=6.8mil|HoleSize=0mil|Usage=FLASHONLY|Rotation=270.000|XOffset=0mil|YOffset=0mil|HoleType=Round|Shape=RoundedRectangle|*
%AMROUNDEDRECTD68*
21,1,0.0360,0.0302,0,0,270.0*
21,1,0.0224,0.0438,0,0,270.0*
1,1,0.0136,-0.0151,-0.0112*
1,1,0.0136,-0.0151,0.0112*
1,1,0.0136,0.0151,0.0112*
1,1,0.0136,0.0151,-0.0112*
%
%ADD68ROUNDEDRECTD68*%
G04:AMPARAMS|DCode=69|XSize=49mil|YSize=44mil|CornerRadius=5.8mil|HoleSize=0mil|Usage=FLASHONLY|Rotation=90.000|XOffset=0mil|YOffset=0mil|HoleType=Round|Shape=RoundedRectangle|*
%AMROUNDEDRECTD69*
21,1,0.0490,0.0324,0,0,90.0*
21,1,0.0374,0.0440,0,0,90.0*
1,1,0.0116,0.0162,0.0187*
1,1,0.0116,0.0162,-0.0187*
1,1,0.0116,-0.0162,-0.0187*
1,1,0.0116,-0.0162,0.0187*
%
%ADD69ROUNDEDRECTD69*%
G04:AMPARAMS|DCode=70|XSize=49mil|YSize=44mil|CornerRadius=5.8mil|HoleSize=0mil|Usage=FLASHONLY|Rotation=180.000|XOffset=0mil|YOffset=0mil|HoleType=Round|Shape=RoundedRectangle|*
%AMROUNDEDRECTD70*
21,1,0.0490,0.0324,0,0,180.0*
21,1,0.0374,0.0440,0,0,180.0*
1,1,0.0116,-0.0187,0.0162*
1,1,0.0116,0.0187,0.0162*
1,1,0.0116,0.0187,-0.0162*
1,1,0.0116,-0.0187,-0.0162*
%
%ADD70ROUNDEDRECTD70*%
%ADD71O,0.0880X0.0375*%
%ADD72O,0.0887X0.0336*%
G04:AMPARAMS|DCode=73|XSize=134mil|YSize=88.7mil|CornerRadius=24.2mil|HoleSize=0mil|Usage=FLASHONLY|Rotation=270.000|XOffset=0mil|YOffset=0mil|HoleType=Round|Shape=RoundedRectangle|*
%AMROUNDEDRECTD73*
21,1,0.1340,0.0404,0,0,270.0*
21,1,0.0856,0.0887,0,0,270.0*
1,1,0.0484,-0.0202,-0.0428*
1,1,0.0484,-0.0202,0.0428*
1,1,0.0484,0.0202,0.0428*
1,1,0.0484,0.0202,-0.0428*
%
%ADD73ROUNDEDRECTD73*%
%ADD74O,0.0198X0.0710*%
%ADD75O,0.0710X0.0198*%
%ADD76O,0.0375X0.0930*%
G04:AMPARAMS|DCode=77|XSize=118.2mil|YSize=55.2mil|CornerRadius=15.8mil|HoleSize=0mil|Usage=FLASHONLY|Rotation=180.000|XOffset=0mil|YOffset=0mil|HoleType=Round|Shape=RoundedRectangle|*
%AMROUNDEDRECTD77*
21,1,0.1182,0.0236,0,0,180.0*
21,1,0.0866,0.0552,0,0,180.0*
1,1,0.0316,-0.0433,0.0118*
1,1,0.0316,0.0433,0.0118*
1,1,0.0316,0.0433,-0.0118*
1,1,0.0316,-0.0433,-0.0118*
%
%ADD77ROUNDEDRECTD77*%
G04:AMPARAMS|DCode=78|XSize=118.2mil|YSize=55.2mil|CornerRadius=15.8mil|HoleSize=0mil|Usage=FLASHONLY|Rotation=90.000|XOffset=0mil|YOffset=0mil|HoleType=Round|Shape=RoundedRectangle|*
%AMROUNDEDRECTD78*
21,1,0.1182,0.0236,0,0,90.0*
21,1,0.0866,0.0552,0,0,90.0*
1,1,0.0316,0.0118,0.0433*
1,1,0.0316,0.0118,-0.0433*
1,1,0.0316,-0.0118,-0.0433*
1,1,0.0316,-0.0118,0.0433*
%
%ADD78ROUNDEDRECTD78*%
G04:AMPARAMS|DCode=79|XSize=202.9mil|YSize=78.9mil|CornerRadius=21.7mil|HoleSize=0mil|Usage=FLASHONLY|Rotation=0.000|XOffset=0mil|YOffset=0mil|HoleType=Round|Shape=RoundedRectangle|*
%AMROUNDEDRECTD79*
21,1,0.2029,0.0354,0,0,0.0*
21,1,0.1594,0.0789,0,0,0.0*
1,1,0.0434,0.0797,-0.0177*
1,1,0.0434,-0.0797,-0.0177*
1,1,0.0434,-0.0797,0.0177*
1,1,0.0434,0.0797,0.0177*
%
%ADD79ROUNDEDRECTD79*%
G04:AMPARAMS|DCode=80|XSize=98.6mil|YSize=90.7mil|CornerRadius=16.4mil|HoleSize=0mil|Usage=FLASHONLY|Rotation=0.000|XOffset=0mil|YOffset=0mil|HoleType=Round|Shape=RoundedRectangle|*
%AMROUNDEDRECTD80*
21,1,0.0986,0.0579,0,0,0.0*
21,1,0.0657,0.0907,0,0,0.0*
1,1,0.0328,0.0329,-0.0289*
1,1,0.0328,-0.0329,-0.0289*
1,1,0.0328,-0.0329,0.0289*
1,1,0.0328,0.0329,0.0289*
%
%ADD80ROUNDEDRECTD80*%
G04:AMPARAMS|DCode=81|XSize=55.2mil|YSize=82.8mil|CornerRadius=15.8mil|HoleSize=0mil|Usage=FLASHONLY|Rotation=180.000|XOffset=0mil|YOffset=0mil|HoleType=Round|Shape=RoundedRectangle|*
%AMROUNDEDRECTD81*
21,1,0.0552,0.0512,0,0,180.0*
21,1,0.0236,0.0828,0,0,180.0*
1,1,0.0316,-0.0118,0.0256*
1,1,0.0316,0.0118,0.0256*
1,1,0.0316,0.0118,-0.0256*
1,1,0.0316,-0.0118,-0.0256*
%
%ADD81ROUNDEDRECTD81*%
%ADD82O,0.0361X0.0671*%
%ADD83O,0.0671X0.0361*%
G04:AMPARAMS|DCode=84|XSize=59.2mil|YSize=80mil|CornerRadius=6.6mil|HoleSize=0mil|Usage=FLASHONLY|Rotation=90.000|XOffset=0mil|YOffset=0mil|HoleType=Round|Shape=RoundedRectangle|*
%AMROUNDEDRECTD84*
21,1,0.0592,0.0669,0,0,90.0*
21,1,0.0461,0.0800,0,0,90.0*
1,1,0.0131,0.0335,0.0230*
1,1,0.0131,0.0335,-0.0230*
1,1,0.0131,-0.0335,-0.0230*
1,1,0.0131,-0.0335,0.0230*
%
%ADD84ROUNDEDRECTD84*%
G04:AMPARAMS|DCode=85|XSize=94.6mil|YSize=76.9mil|CornerRadius=21.2mil|HoleSize=0mil|Usage=FLASHONLY|Rotation=90.000|XOffset=0mil|YOffset=0mil|HoleType=Round|Shape=RoundedRectangle|*
%AMROUNDEDRECTD85*
21,1,0.0946,0.0344,0,0,90.0*
21,1,0.0522,0.0769,0,0,90.0*
1,1,0.0424,0.0172,0.0261*
1,1,0.0424,0.0172,-0.0261*
1,1,0.0424,-0.0172,-0.0261*
1,1,0.0424,-0.0172,0.0261*
%
%ADD85ROUNDEDRECTD85*%
G04:AMPARAMS|DCode=86|XSize=94.6mil|YSize=76.9mil|CornerRadius=21.2mil|HoleSize=0mil|Usage=FLASHONLY|Rotation=180.000|XOffset=0mil|YOffset=0mil|HoleType=Round|Shape=RoundedRectangle|*
%AMROUNDEDRECTD86*
21,1,0.0946,0.0344,0,0,180.0*
21,1,0.0522,0.0769,0,0,180.0*
1,1,0.0424,-0.0261,0.0172*
1,1,0.0424,0.0261,0.0172*
1,1,0.0424,0.0261,-0.0172*
1,1,0.0424,-0.0261,-0.0172*
%
%ADD86ROUNDEDRECTD86*%
G04:AMPARAMS|DCode=87|XSize=59.2mil|YSize=80mil|CornerRadius=6.6mil|HoleSize=0mil|Usage=FLASHONLY|Rotation=180.000|XOffset=0mil|YOffset=0mil|HoleType=Round|Shape=RoundedRectangle|*
%AMROUNDEDRECTD87*
21,1,0.0592,0.0669,0,0,180.0*
21,1,0.0461,0.0800,0,0,180.0*
1,1,0.0131,-0.0230,0.0335*
1,1,0.0131,0.0230,0.0335*
1,1,0.0131,0.0230,-0.0335*
1,1,0.0131,-0.0230,-0.0335*
%
%ADD87ROUNDEDRECTD87*%
G04:AMPARAMS|DCode=88|XSize=287.5mil|YSize=226.5mil|CornerRadius=14.9mil|HoleSize=0mil|Usage=FLASHONLY|Rotation=270.000|XOffset=0mil|YOffset=0mil|HoleType=Round|Shape=RoundedRectangle|*
%AMROUNDEDRECTD88*
21,1,0.2875,0.1967,0,0,270.0*
21,1,0.2577,0.2265,0,0,270.0*
1,1,0.0299,-0.0983,-0.1288*
1,1,0.0299,-0.0983,0.1288*
1,1,0.0299,0.0983,0.1288*
1,1,0.0299,0.0983,-0.1288*
%
%ADD88ROUNDEDRECTD88*%
%ADD89O,0.0474X0.0926*%
G04:AMPARAMS|DCode=90|XSize=90.7mil|YSize=86.7mil|CornerRadius=23.7mil|HoleSize=0mil|Usage=FLASHONLY|Rotation=90.000|XOffset=0mil|YOffset=0mil|HoleType=Round|Shape=RoundedRectangle|*
%AMROUNDEDRECTD90*
21,1,0.0907,0.0394,0,0,90.0*
21,1,0.0433,0.0867,0,0,90.0*
1,1,0.0474,0.0197,0.0217*
1,1,0.0474,0.0197,-0.0217*
1,1,0.0474,-0.0197,-0.0217*
1,1,0.0474,-0.0197,0.0217*
%
%ADD90ROUNDEDRECTD90*%
%ADD91C,0.1025*%
%ADD92R,0.0680X0.0680*%
%ADD93C,0.0680*%
%ADD94R,0.0680X0.0680*%
%ADD95C,0.0789*%
%ADD96R,0.0789X0.0789*%
%ADD97C,0.1261*%
G36*
X28766Y33522D02*
X28774Y33524D01*
X28845Y33505D01*
X28852Y33500D01*
X28860Y33498D01*
X28919Y33454D01*
X28923Y33447D01*
X28930Y33443D01*
X28969Y33380D01*
X28970Y33372D01*
X28975Y33365D01*
X28989Y33293D01*
X28988Y33289D01*
X28989Y33285D01*
Y30679D01*
X28988Y30676D01*
X28989Y30671D01*
X28975Y30597D01*
X28970Y30590D01*
X28969Y30582D01*
X28928Y30518D01*
X28922Y30513D01*
X28917Y30506D01*
X28856Y30462D01*
X28848Y30460D01*
X28842Y30455D01*
X28769Y30435D01*
X28761Y30436D01*
X28753Y30434D01*
X28678Y30443D01*
X28674Y30445D01*
X28670Y30445D01*
X28540Y30485D01*
X28539Y30486D01*
X28537Y30486D01*
X28386Y30547D01*
X28383Y30549D01*
X28380Y30550D01*
X28240Y30633D01*
X28238Y30636D01*
X28235Y30637D01*
X28110Y30741D01*
X28109Y30742D01*
X28107Y30743D01*
X28103Y30748D01*
X28102Y30749D01*
X28101Y30750D01*
X27952Y30915D01*
X27951Y30918D01*
X27948Y30920D01*
X27822Y31104D01*
X27822Y31107D01*
X27819Y31109D01*
X27719Y31308D01*
X27719Y31311D01*
X27717Y31313D01*
X27644Y31524D01*
X27644Y31527D01*
X27643Y31529D01*
X27598Y31747D01*
X27599Y31750D01*
X27598Y31753D01*
X27583Y31975D01*
X27584Y31978D01*
X27583Y31981D01*
X27598Y32204D01*
X27599Y32206D01*
X27598Y32209D01*
X27643Y32428D01*
X27644Y32430D01*
X27644Y32433D01*
X27717Y32644D01*
X27719Y32646D01*
X27719Y32649D01*
X27819Y32848D01*
X27822Y32850D01*
X27822Y32853D01*
X27948Y33037D01*
X27951Y33039D01*
X27952Y33042D01*
X28101Y33207D01*
X28102Y33208D01*
X28103Y33209D01*
X28105Y33211D01*
X28107Y33212D01*
X28108Y33214D01*
X28234Y33319D01*
X28238Y33320D01*
X28240Y33323D01*
X28381Y33407D01*
X28385Y33408D01*
X28387Y33410D01*
X28540Y33471D01*
X28542Y33471D01*
X28543Y33473D01*
X28677Y33514D01*
X28681Y33514D01*
X28685Y33516D01*
X28758Y33525D01*
X28766Y33522D01*
D02*
G37*
G36*
X25142Y32214D02*
X25238Y32175D01*
X25320Y32111D01*
X25383Y32029D01*
X25423Y31933D01*
X25436Y31831D01*
X25423Y31728D01*
X25383Y31632D01*
X25320Y31550D01*
X25238Y31487D01*
X25142Y31447D01*
X25039Y31434D01*
X24937Y31447D01*
X24841Y31487D01*
X24759Y31550D01*
X24695Y31632D01*
X24656Y31728D01*
X24642Y31831D01*
X24656Y31933D01*
X24695Y32029D01*
X24759Y32111D01*
X24841Y32175D01*
X24937Y32214D01*
X25039Y32228D01*
X25142Y32214D01*
D02*
G37*
G36*
X42790Y45000D02*
X42886Y44960D01*
X42968Y44897D01*
X43031Y44815D01*
X43071Y44719D01*
X43084Y44616D01*
X43071Y44513D01*
X43031Y44418D01*
X42968Y44335D01*
X42886Y44272D01*
X42790Y44233D01*
X42687Y44219D01*
X42584Y44233D01*
X42488Y44272D01*
X42406Y44335D01*
X42343Y44418D01*
X42303Y44513D01*
X42290Y44616D01*
X42303Y44719D01*
X42343Y44815D01*
X42406Y44897D01*
X42488Y44960D01*
X42584Y45000D01*
X42687Y45013D01*
X42790Y45000D01*
D02*
G37*
G36*
X30259Y33514D02*
X30263Y33512D01*
X30267Y33512D01*
X30397Y33472D01*
X30398Y33470D01*
X30400Y33470D01*
X30551Y33410D01*
X30554Y33407D01*
X30557Y33407D01*
X30697Y33324D01*
X30699Y33321D01*
X30702Y33320D01*
X30827Y33216D01*
X30828Y33214D01*
X30830Y33214D01*
X30834Y33209D01*
X30835Y33208D01*
X30836Y33207D01*
X30985Y33041D01*
X30986Y33039D01*
X30989Y33037D01*
X31115Y32853D01*
X31115Y32850D01*
X31118Y32848D01*
X31218Y32649D01*
X31218Y32646D01*
X31220Y32644D01*
X31293Y32433D01*
X31293Y32430D01*
X31294Y32428D01*
X31339Y32209D01*
X31338Y32206D01*
X31339Y32204D01*
X31354Y31981D01*
X31353Y31978D01*
X31354Y31975D01*
X31339Y31753D01*
X31338Y31750D01*
X31339Y31747D01*
X31294Y31529D01*
X31293Y31527D01*
X31293Y31524D01*
X31220Y31313D01*
X31218Y31311D01*
X31218Y31308D01*
X31118Y31109D01*
X31115Y31107D01*
X31115Y31104D01*
X30989Y30920D01*
X30986Y30918D01*
X30985Y30915D01*
X30836Y30750D01*
X30835Y30749D01*
X30834Y30747D01*
X30832Y30745D01*
X30830Y30745D01*
X30829Y30743D01*
X30703Y30638D01*
X30699Y30637D01*
X30697Y30634D01*
X30556Y30550D01*
X30552Y30549D01*
X30550Y30547D01*
X30397Y30485D01*
X30395Y30485D01*
X30394Y30484D01*
X30260Y30442D01*
X30256Y30443D01*
X30252Y30441D01*
X30179Y30432D01*
X30171Y30434D01*
X30163Y30433D01*
X30092Y30452D01*
X30085Y30457D01*
X30077Y30459D01*
X30018Y30502D01*
X30014Y30509D01*
X30007Y30514D01*
X29968Y30576D01*
X29967Y30584D01*
X29962Y30591D01*
X29948Y30663D01*
X29949Y30668D01*
X29948Y30672D01*
Y33277D01*
X29949Y33281D01*
X29948Y33285D01*
X29962Y33360D01*
X29967Y33366D01*
X29968Y33375D01*
X30009Y33439D01*
X30015Y33443D01*
X30020Y33450D01*
X30081Y33495D01*
X30089Y33497D01*
X30095Y33502D01*
X30168Y33521D01*
X30176Y33520D01*
X30184Y33523D01*
X30259Y33514D01*
D02*
G37*
D67*
X36073Y35187D02*
D03*
X36683D02*
D03*
X35571Y44419D02*
D03*
X36181D02*
D03*
X29587Y40207D02*
D03*
X30197D02*
D03*
X27894Y40738D02*
D03*
X28504D02*
D03*
X27756Y40069D02*
D03*
X28366D02*
D03*
X27480Y39390D02*
D03*
X28090D02*
D03*
X38218Y36535D02*
D03*
X37608D02*
D03*
X32215Y41968D02*
D03*
X32825D02*
D03*
X31043Y41978D02*
D03*
X31653D02*
D03*
X25591Y36890D02*
D03*
X26201D02*
D03*
X24065Y41762D02*
D03*
X24675D02*
D03*
D68*
X37274Y35915D02*
D03*
Y35305D02*
D03*
X24321Y34626D02*
D03*
Y34016D02*
D03*
Y35187D02*
D03*
Y35797D02*
D03*
X33091Y31378D02*
D03*
Y31988D02*
D03*
D69*
X36161Y45118D02*
D03*
Y45788D02*
D03*
X35541Y39970D02*
D03*
Y40640D02*
D03*
X28533Y36023D02*
D03*
Y36693D02*
D03*
X28533Y35207D02*
D03*
Y34537D02*
D03*
X23150Y34084D02*
D03*
Y34754D02*
D03*
D70*
X38317Y37195D02*
D03*
X37647D02*
D03*
X34626Y41968D02*
D03*
X33956D02*
D03*
X33219Y41358D02*
D03*
X32549D02*
D03*
X36683Y30384D02*
D03*
X36013D02*
D03*
X27076Y33593D02*
D03*
X27746D02*
D03*
D71*
X36098Y31470D02*
D03*
X33898D02*
D03*
X36098Y30970D02*
D03*
X33898D02*
D03*
X36098Y32470D02*
D03*
Y31970D02*
D03*
X33898D02*
D03*
Y32470D02*
D03*
X23027Y42524D02*
D03*
X20827D02*
D03*
X23027Y42024D02*
D03*
X20827D02*
D03*
X23027Y43524D02*
D03*
Y43024D02*
D03*
X20827D02*
D03*
Y43524D02*
D03*
D72*
X23780Y32528D02*
D03*
Y33028D02*
D03*
Y31028D02*
D03*
Y31528D02*
D03*
Y32028D02*
D03*
D73*
X21417D02*
D03*
D74*
X31880Y34213D02*
D03*
X32077D02*
D03*
X32274D02*
D03*
X32470D02*
D03*
X32667D02*
D03*
X32864D02*
D03*
X33061D02*
D03*
X33258D02*
D03*
X33455D02*
D03*
X33652D02*
D03*
Y37520D02*
D03*
X33455D02*
D03*
X33258D02*
D03*
X33061D02*
D03*
X32864D02*
D03*
X32667D02*
D03*
X32470D02*
D03*
X32274D02*
D03*
X32077D02*
D03*
X31880D02*
D03*
X33848Y34213D02*
D03*
X34045D02*
D03*
Y37520D02*
D03*
X33848D02*
D03*
D75*
X34616Y34783D02*
D03*
Y34980D02*
D03*
Y35177D02*
D03*
Y35374D02*
D03*
Y35571D02*
D03*
Y36161D02*
D03*
Y36358D02*
D03*
Y36555D02*
D03*
Y36752D02*
D03*
Y36949D02*
D03*
Y35768D02*
D03*
Y35965D02*
D03*
X31309Y35571D02*
D03*
Y35374D02*
D03*
Y35177D02*
D03*
Y34980D02*
D03*
Y34783D02*
D03*
Y36949D02*
D03*
Y36752D02*
D03*
Y36555D02*
D03*
Y36358D02*
D03*
Y36161D02*
D03*
Y35965D02*
D03*
Y35768D02*
D03*
D76*
X37220Y41917D02*
D03*
Y38967D02*
D03*
X36220Y41917D02*
D03*
X36720D02*
D03*
X37720D02*
D03*
X36220Y38967D02*
D03*
X36720D02*
D03*
X37720D02*
D03*
D77*
X29852Y41959D02*
D03*
Y40817D02*
D03*
X25531Y41624D02*
D03*
Y40482D02*
D03*
X26772Y41624D02*
D03*
Y40482D02*
D03*
X22579Y40827D02*
D03*
Y39685D02*
D03*
X40718Y41152D02*
D03*
Y42293D02*
D03*
X38898Y41152D02*
D03*
Y42293D02*
D03*
D78*
X28878Y41673D02*
D03*
X27736D02*
D03*
D79*
X42785Y41339D02*
D03*
Y43071D02*
D03*
D80*
X29528Y36476D02*
D03*
Y34902D02*
D03*
D81*
X42126Y38455D02*
D03*
X43386D02*
D03*
D82*
X37542Y45123D02*
D03*
X36742D02*
D03*
X37142Y46033D02*
D03*
X25502Y39670D02*
D03*
X24702D02*
D03*
X25102Y38760D02*
D03*
X26860Y39670D02*
D03*
X26060D02*
D03*
X26460Y38760D02*
D03*
X39360Y39946D02*
D03*
X40160D02*
D03*
X39760Y40856D02*
D03*
D83*
X34660Y41332D02*
D03*
Y40532D02*
D03*
X33750Y40932D02*
D03*
X30979Y40598D02*
D03*
Y41398D02*
D03*
X31889Y40998D02*
D03*
D84*
X20600Y39429D02*
D03*
Y40729D02*
D03*
X21486Y39429D02*
D03*
Y40729D02*
D03*
D85*
X32087Y32323D02*
D03*
Y30709D02*
D03*
D86*
X41713Y40207D02*
D03*
X43327D02*
D03*
D87*
X43396Y37480D02*
D03*
X42096D02*
D03*
D88*
X42402Y33829D02*
D03*
D89*
X43299Y36388D02*
D03*
X41504D02*
D03*
D90*
X22451Y38317D02*
D03*
X20640D02*
D03*
D91*
X42933Y31073D02*
D03*
X21122Y45197D02*
D03*
D92*
X24065Y38140D02*
D03*
X25915Y32589D02*
D03*
X38789Y33248D02*
D03*
X27392Y35738D02*
D03*
X21939Y34567D02*
D03*
X25620Y35748D02*
D03*
D93*
X24065Y37140D02*
D03*
X25915Y31211D02*
D03*
X38789Y31248D02*
D03*
X27392Y34738D02*
D03*
X43392Y45807D02*
D03*
X21939Y35567D02*
D03*
X20939Y34567D02*
D03*
Y35567D02*
D03*
X21939Y36567D02*
D03*
X20939D02*
D03*
X25620Y34748D02*
D03*
D94*
X42392Y45807D02*
D03*
D95*
X39498Y44291D02*
D03*
Y43109D02*
D03*
X40679D02*
D03*
X33917D02*
D03*
X32736D02*
D03*
X30374D02*
D03*
X28012D02*
D03*
X26831D02*
D03*
X31555D02*
D03*
X29193D02*
D03*
X25650D02*
D03*
X32736Y44291D02*
D03*
X30374D02*
D03*
X28012D02*
D03*
X26831D02*
D03*
X31555D02*
D03*
X29193D02*
D03*
X25650D02*
D03*
D96*
X40679D02*
D03*
X33917D02*
D03*
D97*
X40089Y45991D02*
D03*
X33071D02*
D03*
X26496D02*
D03*
M02*
