M48
;Layer_Color=9474304
;FILE_FORMAT=2:4
INCH,LZ
;TYPE=PLATED
T1F00S00C0.0118
T2F00S00C0.0380
T3F00S00C0.0394
T4F00S00C0.0472
%
T01
X031575Y022913
X03253Y023445
X033219Y022736
X03499Y023179
X035128Y024478
X035807Y026201
X036752Y026467
X036467Y027677
X035906Y027638
X035472Y027736
X035236Y028287
X035433Y02872
X035787Y028504
X035758Y029026
X036112Y02878
X036329Y028474
X036673Y028691
X036841Y029114
X036801Y029764
X037618Y029665
X037589Y030344
X038209Y030276
X038199Y029813
X039301Y02938
X039656Y029085
X040059Y029124
X040443Y02914
X041006Y029096
X041329Y028976
X041654Y029016
X04187Y029281
X041467Y030197
X041014Y03065
X041467Y031102
X040551Y031112
X040561Y030197
X042756Y030128
X043386Y031211
X043839Y028179
X04436Y027657
X043947Y027037
X042441Y027923
X04252Y025423
X040866Y025571
X041053Y024488
X041043Y02375
X041417Y022884
X036201Y022677
X037352Y025502
X037904Y025433
X038819Y026299
X038219Y026929
X039429Y026959
X037313Y02747
X036909Y027943
X037283Y028356
X037302Y030866
X036191Y0306
X036142Y030098
X035846Y030049
X034508Y03002
X034114Y030207
X034144Y03063
X034134Y029754
X03437Y029488
X035079Y029262
X035167Y030817
X032028Y030581
X032207Y030079
X031526Y030039
X031535Y028927
X033248Y028848
X033238Y028337
X032766Y028022
Y02752
X033258Y02747
X033967Y027372
X03376Y027913
X034469Y027884
X034724Y027372
X034567Y026339
X033563Y02627
X031486Y026841
X032687Y029724
X038927Y030837
X028691Y031211
X029094Y03001
X029498Y028612
X028829Y027283
X029951Y026535
X030984Y02623
X031004Y025541
X030896Y023514
X030778Y027815
X028573Y02563
X029252Y032313
X028681Y033081
X029222Y034665
X030482Y035246
X03186Y036122
X034094Y035719
X033248Y034469
X033228Y033159
X033711Y032736
X034439Y032766
X034291Y032421
X034035Y032215
X03378Y03189
X033711Y031437
X033278Y031398
X034144Y031378
X034528Y031486
X034596Y031831
X034941Y031791
X03501Y032185
X035512Y032106
X03563Y032392
X035906Y032165
X036339Y032224
X036841Y032234
X036781Y031437
X036378Y031422
X035915Y031535
X037165Y031319
X037539Y031348
X037992Y031358
X037953Y032274
X037913Y032766
X038258Y032707
X038711
X038789Y033474
X039193Y033346
X039144Y03372
X038917Y034085
X038858Y034508
X039006Y034872
X038327Y034941
X037884Y034833
X037835Y034409
Y034085
Y033711
X037913Y033238
X036988Y033346
X037067Y033691
X037352Y033888
X036624Y03312
X036161Y033002
X035768Y032982
X035344Y032992
X034902Y032972
X034783Y033878
X036043Y035295
X038573Y036024
X040689Y034774
X040669Y034173
X040787Y033701
X040581Y033297
X04063Y032864
X040266Y032244
X039754Y032215
X03997Y031791
X039547Y031742
X038917Y031437
X041024Y032234
X041407Y032205
X042923Y033189
X043868Y033297
X044508Y032087
X043435Y031654
X043022Y03435
X043386Y036161
X032244Y032136
T02
X036363Y023553
X037363
X038363
Y024553
X037363
X036363
X039363
Y023553
X040363
Y024553
T03
X036314Y02937
X04533Y029133
Y030315
Y027952
Y026771
Y02559
X02722
Y026771
Y027952
Y029133
Y030315
Y031496
Y032677
Y033858
Y035039
Y03622
X04533
Y035039
Y033858
Y032677
Y031496
T04
X0322Y02435
X033184
X031216
M30
