G04 Layer_Color=8388736*
%FSLAX24Y24*%
%MOIN*%
G70*
G01*
G75*
%ADD78R,0.2803X0.1032*%
%ADD79R,0.0441X0.0402*%
%ADD80R,0.0323X0.0402*%
%ADD81R,0.0402X0.0323*%
%ADD82R,0.0402X0.0441*%
G04:AMPARAMS|DCode=83|XSize=95.3mil|YSize=87.4mil|CornerRadius=14.8mil|HoleSize=0mil|Usage=FLASHONLY|Rotation=270.000|XOffset=0mil|YOffset=0mil|HoleType=Round|Shape=RoundedRectangle|*
%AMROUNDEDRECTD83*
21,1,0.0953,0.0579,0,0,270.0*
21,1,0.0657,0.0874,0,0,270.0*
1,1,0.0295,-0.0289,-0.0329*
1,1,0.0295,-0.0289,0.0329*
1,1,0.0295,0.0289,0.0329*
1,1,0.0295,0.0289,-0.0329*
%
%ADD83ROUNDEDRECTD83*%
%ADD84O,0.0677X0.0165*%
%ADD85O,0.0165X0.0677*%
%ADD86R,0.0598X0.0461*%
%ADD87R,0.0618X0.0500*%
%ADD88O,0.0579X0.0283*%
%ADD89R,0.0461X0.0736*%
%ADD90R,0.0835X0.0441*%
%ADD91O,0.0382X0.0165*%
%ADD92O,0.0165X0.0382*%
G04:AMPARAMS|DCode=93|XSize=87.4mil|YSize=83.5mil|CornerRadius=22mil|HoleSize=0mil|Usage=FLASHONLY|Rotation=270.000|XOffset=0mil|YOffset=0mil|HoleType=Round|Shape=RoundedRectangle|*
%AMROUNDEDRECTD93*
21,1,0.0874,0.0394,0,0,270.0*
21,1,0.0433,0.0835,0,0,270.0*
1,1,0.0441,-0.0197,-0.0217*
1,1,0.0441,-0.0197,0.0217*
1,1,0.0441,0.0197,0.0217*
1,1,0.0441,0.0197,-0.0217*
%
%ADD93ROUNDEDRECTD93*%
%ADD94C,0.0520*%
%ADD95R,0.0756X0.0598*%
%ADD96R,0.0835X0.0835*%
%ADD97R,0.0598X0.0756*%
%ADD98O,0.0618X0.0165*%
%ADD99R,0.0657X0.0776*%
G04:AMPARAMS|DCode=100|XSize=91.3mil|YSize=73.6mil|CornerRadius=19.6mil|HoleSize=0mil|Usage=FLASHONLY|Rotation=270.000|XOffset=0mil|YOffset=0mil|HoleType=Round|Shape=RoundedRectangle|*
%AMROUNDEDRECTD100*
21,1,0.0913,0.0344,0,0,270.0*
21,1,0.0522,0.0736,0,0,270.0*
1,1,0.0392,-0.0172,-0.0261*
1,1,0.0392,-0.0172,0.0261*
1,1,0.0392,0.0172,0.0261*
1,1,0.0392,0.0172,-0.0261*
%
%ADD100ROUNDEDRECTD100*%
%ADD101R,0.0441X0.0441*%
G04:AMPARAMS|DCode=102|XSize=48mil|YSize=28.3mil|CornerRadius=8.3mil|HoleSize=0mil|Usage=FLASHONLY|Rotation=0.000|XOffset=0mil|YOffset=0mil|HoleType=Round|Shape=RoundedRectangle|*
%AMROUNDEDRECTD102*
21,1,0.0480,0.0118,0,0,0.0*
21,1,0.0315,0.0283,0,0,0.0*
1,1,0.0165,0.0157,-0.0059*
1,1,0.0165,-0.0157,-0.0059*
1,1,0.0165,-0.0157,0.0059*
1,1,0.0165,0.0157,0.0059*
%
%ADD102ROUNDEDRECTD102*%
G04:AMPARAMS|DCode=103|XSize=99.2mil|YSize=63.8mil|CornerRadius=17.1mil|HoleSize=0mil|Usage=FLASHONLY|Rotation=0.000|XOffset=0mil|YOffset=0mil|HoleType=Round|Shape=RoundedRectangle|*
%AMROUNDEDRECTD103*
21,1,0.0992,0.0295,0,0,0.0*
21,1,0.0650,0.0638,0,0,0.0*
1,1,0.0343,0.0325,-0.0148*
1,1,0.0343,-0.0325,-0.0148*
1,1,0.0343,-0.0325,0.0148*
1,1,0.0343,0.0325,0.0148*
%
%ADD103ROUNDEDRECTD103*%
%ADD104O,0.0897X0.0343*%
%ADD105O,0.0894X0.0441*%
G04:AMPARAMS|DCode=106|XSize=284.3mil|YSize=223.2mil|CornerRadius=13.3mil|HoleSize=0mil|Usage=FLASHONLY|Rotation=0.000|XOffset=0mil|YOffset=0mil|HoleType=Round|Shape=RoundedRectangle|*
%AMROUNDEDRECTD106*
21,1,0.2843,0.1967,0,0,0.0*
21,1,0.2577,0.2232,0,0,0.0*
1,1,0.0266,0.1288,-0.0983*
1,1,0.0266,-0.1288,-0.0983*
1,1,0.0266,-0.1288,0.0983*
1,1,0.0266,0.1288,0.0983*
%
%ADD106ROUNDEDRECTD106*%
%ADD107R,0.0165X0.0205*%
%ADD108R,0.0205X0.0165*%
%ADD109R,0.2836X0.1064*%
%ADD110C,0.0647*%
%ADD111R,0.0647X0.0647*%
%ADD112C,0.1622*%
%ADD113C,0.3197*%
%ADD114C,0.0756*%
%ADD115R,0.0756X0.0756*%
%ADD116C,0.0677*%
%ADD117R,0.0874X0.0874*%
%ADD118C,0.0874*%
%ADD119R,0.0677X0.0677*%
G36*
X33714Y45337D02*
X33717Y45338D01*
X33784Y45327D01*
X33790Y45324D01*
X33797Y45323D01*
X33858Y45293D01*
X33862Y45287D01*
X33869Y45285D01*
X33916Y45237D01*
X33919Y45230D01*
X33924Y45226D01*
X33955Y45165D01*
X33956Y45158D01*
X33959Y45152D01*
X33970Y45086D01*
X33969Y45082D01*
X33970Y45079D01*
Y43228D01*
X33969Y43225D01*
X33970Y43222D01*
X33959Y43155D01*
X33956Y43149D01*
X33955Y43142D01*
X33924Y43081D01*
X33919Y43077D01*
X33916Y43070D01*
X33869Y43023D01*
X33862Y43020D01*
X33858Y43015D01*
X33797Y42984D01*
X33790Y42983D01*
X33784Y42980D01*
X33717Y42969D01*
X33714Y42970D01*
X33711Y42969D01*
X33651D01*
X33649Y42969D01*
X33646Y42969D01*
X33526Y42981D01*
X33522Y42983D01*
X33518Y42982D01*
X33403Y43017D01*
X33399Y43020D01*
X33395Y43020D01*
X33288Y43077D01*
X33285Y43081D01*
X33281Y43082D01*
X33188Y43159D01*
X33187Y43161D01*
X33185Y43161D01*
X33155Y43192D01*
X33154Y43193D01*
X33153Y43194D01*
X33041Y43322D01*
X33040Y43325D01*
X33037Y43327D01*
X32944Y43469D01*
X32944Y43472D01*
X32941Y43474D01*
X32869Y43628D01*
X32868Y43629D01*
X32867Y43631D01*
X32866Y43634D01*
X32866Y43635D01*
X32865Y43636D01*
X32820Y43777D01*
X32820Y43779D01*
X32819Y43782D01*
X32791Y43927D01*
X32792Y43929D01*
X32791Y43932D01*
X32782Y44079D01*
X32782Y44080D01*
X32782Y44082D01*
X32782Y44213D01*
X32782Y44214D01*
X32782Y44215D01*
X32791Y44371D01*
X32793Y44373D01*
X32792Y44376D01*
X32821Y44529D01*
X32822Y44531D01*
X32822Y44534D01*
X32870Y44683D01*
X32871Y44683D01*
X32871Y44685D01*
X32871Y44685D01*
X32872Y44687D01*
X32872Y44688D01*
X32942Y44836D01*
X32945Y44838D01*
X32945Y44841D01*
X33035Y44978D01*
X33037Y44980D01*
X33038Y44983D01*
X33146Y45106D01*
X33147Y45107D01*
X33148Y45109D01*
X33191Y45152D01*
X33193Y45153D01*
X33194Y45155D01*
X33284Y45229D01*
X33288Y45230D01*
X33291Y45233D01*
X33394Y45288D01*
X33398Y45289D01*
X33402Y45291D01*
X33513Y45325D01*
X33518Y45325D01*
X33522Y45327D01*
X33638Y45338D01*
X33640Y45338D01*
X33642Y45339D01*
X33711D01*
X33714Y45337D01*
D02*
G37*
G36*
X34875Y45338D02*
X34877Y45338D01*
X34997Y45327D01*
X35001Y45324D01*
X35006Y45325D01*
X35121Y45290D01*
X35125Y45287D01*
X35129Y45287D01*
X35235Y45230D01*
X35238Y45226D01*
X35242Y45225D01*
X35336Y45148D01*
X35337Y45146D01*
X35339Y45146D01*
X35369Y45116D01*
X35369Y45114D01*
X35371Y45113D01*
X35483Y44985D01*
X35484Y44982D01*
X35486Y44980D01*
X35579Y44838D01*
X35580Y44835D01*
X35582Y44833D01*
X35655Y44679D01*
X35655Y44678D01*
X35656Y44677D01*
X35657Y44673D01*
X35657Y44672D01*
X35658Y44671D01*
X35704Y44530D01*
X35703Y44528D01*
X35705Y44525D01*
X35732Y44381D01*
X35732Y44378D01*
X35733Y44375D01*
X35742Y44228D01*
X35742Y44227D01*
X35742Y44226D01*
X35742Y44094D01*
X35742Y44093D01*
X35742Y44092D01*
X35732Y43936D01*
X35731Y43934D01*
X35732Y43931D01*
X35703Y43778D01*
X35701Y43776D01*
X35701Y43773D01*
X35654Y43625D01*
X35653Y43624D01*
X35653Y43622D01*
X35653Y43622D01*
X35652Y43620D01*
X35651Y43619D01*
X35581Y43471D01*
X35579Y43469D01*
X35579Y43466D01*
X35489Y43329D01*
X35486Y43327D01*
X35485Y43324D01*
X35378Y43201D01*
X35377Y43200D01*
X35376Y43199D01*
X35333Y43155D01*
X35331Y43154D01*
X35330Y43152D01*
X35239Y43079D01*
X35235Y43077D01*
X35232Y43074D01*
X35130Y43019D01*
X35125Y43018D01*
X35122Y43016D01*
X35010Y42982D01*
X35006Y42982D01*
X35002Y42980D01*
X34886Y42969D01*
X34884Y42969D01*
X34882Y42969D01*
X34813D01*
X34810Y42970D01*
X34806Y42969D01*
X34739Y42980D01*
X34733Y42983D01*
X34726Y42984D01*
X34666Y43015D01*
X34662Y43020D01*
X34655Y43023D01*
X34607Y43070D01*
X34605Y43077D01*
X34599Y43081D01*
X34568Y43142D01*
X34568Y43149D01*
X34564Y43155D01*
X34554Y43222D01*
X34555Y43225D01*
X34553Y43228D01*
Y45079D01*
X34555Y45082D01*
X34554Y45086D01*
X34564Y45152D01*
X34568Y45158D01*
X34568Y45165D01*
X34599Y45226D01*
X34605Y45230D01*
X34607Y45237D01*
X34655Y45285D01*
X34662Y45287D01*
X34666Y45293D01*
X34726Y45323D01*
X34733Y45324D01*
X34739Y45327D01*
X34806Y45338D01*
X34810Y45337D01*
X34813Y45339D01*
X34873D01*
X34875Y45338D01*
D02*
G37*
G36*
X49305Y44961D02*
X49308Y44959D01*
X49313Y44959D01*
X49442Y44918D01*
X49444Y44917D01*
X49445Y44917D01*
X49596Y44857D01*
X49599Y44854D01*
X49602Y44854D01*
X49742Y44771D01*
X49744Y44768D01*
X49747Y44767D01*
X49872Y44663D01*
X49873Y44661D01*
X49875Y44661D01*
X49880Y44656D01*
X49880Y44655D01*
X49882Y44654D01*
X50031Y44488D01*
X50032Y44485D01*
X50034Y44484D01*
X50160Y44300D01*
X50161Y44297D01*
X50163Y44295D01*
X50263Y44096D01*
X50263Y44093D01*
X50265Y44091D01*
X50338Y43880D01*
X50338Y43877D01*
X50340Y43874D01*
X50384Y43656D01*
X50383Y43653D01*
X50385Y43650D01*
X50399Y43428D01*
X50398Y43425D01*
X50399Y43422D01*
X50385Y43200D01*
X50383Y43197D01*
X50384Y43194D01*
X50340Y42976D01*
X50338Y42973D01*
X50338Y42970D01*
X50265Y42760D01*
X50263Y42758D01*
X50263Y42755D01*
X50163Y42555D01*
X50161Y42554D01*
X50160Y42551D01*
X50034Y42367D01*
X50032Y42365D01*
X50031Y42362D01*
X49882Y42196D01*
X49880Y42196D01*
X49880Y42194D01*
X49877Y42192D01*
X49876Y42191D01*
X49875Y42190D01*
X49748Y42085D01*
X49745Y42084D01*
X49743Y42081D01*
X49601Y41996D01*
X49598Y41996D01*
X49595Y41993D01*
X49442Y41932D01*
X49441Y41932D01*
X49439Y41931D01*
X49305Y41889D01*
X49301Y41889D01*
X49297Y41887D01*
X49224Y41879D01*
X49216Y41881D01*
X49208Y41880D01*
X49137Y41899D01*
X49131Y41904D01*
X49123Y41906D01*
X49063Y41949D01*
X49059Y41956D01*
X49052Y41961D01*
X49013Y42023D01*
X49012Y42031D01*
X49007Y42038D01*
X48994Y42110D01*
X48995Y42114D01*
X48993Y42118D01*
Y44724D01*
X48995Y44728D01*
X48994Y44732D01*
X49008Y44806D01*
X49012Y44813D01*
X49014Y44821D01*
X49054Y44885D01*
X49061Y44890D01*
X49065Y44897D01*
X49126Y44942D01*
X49134Y44944D01*
X49140Y44949D01*
X49214Y44968D01*
X49222Y44967D01*
X49230Y44969D01*
X49305Y44961D01*
D02*
G37*
G36*
X47811Y44969D02*
X47819Y44970D01*
X47890Y44952D01*
X47897Y44947D01*
X47905Y44945D01*
X47964Y44901D01*
X47968Y44894D01*
X47975Y44889D01*
X48014Y44827D01*
X48016Y44819D01*
X48020Y44812D01*
X48034Y44740D01*
X48033Y44736D01*
X48035Y44732D01*
Y42126D01*
X48033Y42122D01*
X48034Y42118D01*
X48020Y42044D01*
X48015Y42037D01*
X48014Y42029D01*
X47974Y41965D01*
X47967Y41960D01*
X47963Y41953D01*
X47902Y41908D01*
X47894Y41906D01*
X47887Y41901D01*
X47814Y41882D01*
X47806Y41883D01*
X47798Y41881D01*
X47723Y41890D01*
X47719Y41892D01*
X47715Y41891D01*
X47585Y41932D01*
X47584Y41933D01*
X47582Y41933D01*
X47431Y41994D01*
X47429Y41996D01*
X47425Y41997D01*
X47286Y42080D01*
X47284Y42083D01*
X47280Y42084D01*
X47155Y42188D01*
X47154Y42189D01*
X47153Y42190D01*
X47148Y42194D01*
X47147Y42196D01*
X47146Y42196D01*
X46997Y42362D01*
X46996Y42365D01*
X46993Y42367D01*
X46868Y42551D01*
X46867Y42554D01*
X46865Y42555D01*
X46765Y42755D01*
X46764Y42758D01*
X46762Y42760D01*
X46689Y42970D01*
X46690Y42973D01*
X46688Y42976D01*
X46644Y43194D01*
X46644Y43197D01*
X46643Y43200D01*
X46628Y43422D01*
X46629Y43425D01*
X46628Y43428D01*
X46643Y43650D01*
X46644Y43653D01*
X46644Y43656D01*
X46688Y43874D01*
X46690Y43877D01*
X46689Y43880D01*
X46762Y44091D01*
X46764Y44093D01*
X46765Y44096D01*
X46865Y44295D01*
X46867Y44297D01*
X46868Y44300D01*
X46993Y44484D01*
X46996Y44485D01*
X46997Y44488D01*
X47146Y44654D01*
X47147Y44655D01*
X47148Y44656D01*
X47150Y44658D01*
X47152Y44659D01*
X47153Y44661D01*
X47279Y44766D01*
X47283Y44767D01*
X47285Y44770D01*
X47426Y44854D01*
X47430Y44855D01*
X47432Y44857D01*
X47585Y44918D01*
X47587Y44918D01*
X47588Y44919D01*
X47723Y44961D01*
X47727Y44961D01*
X47730Y44963D01*
X47803Y44972D01*
X47811Y44969D01*
D02*
G37*
G36*
X33292Y42756D02*
X33388Y42716D01*
X33470Y42653D01*
X33533Y42571D01*
X33573Y42475D01*
X33586Y42372D01*
X33573Y42269D01*
X33533Y42174D01*
X33470Y42091D01*
X33388Y42028D01*
X33292Y41988D01*
X33189Y41975D01*
X33086Y41988D01*
X32990Y42028D01*
X32908Y42091D01*
X32845Y42174D01*
X32805Y42269D01*
X32792Y42372D01*
X32805Y42475D01*
X32845Y42571D01*
X32908Y42653D01*
X32990Y42716D01*
X33086Y42756D01*
X33189Y42769D01*
X33292Y42756D01*
D02*
G37*
G36*
X50506Y38321D02*
X50514Y38305D01*
Y38065D01*
X50919D01*
X50931Y38061D01*
X50943Y38053D01*
X50949Y38041D01*
Y37943D01*
X50936Y37912D01*
X50906Y37900D01*
X50663D01*
Y37868D01*
X50906D01*
X50936Y37855D01*
X50949Y37825D01*
Y37726D01*
X50935Y37711D01*
X50911Y37703D01*
X50514D01*
Y37467D01*
X50510Y37447D01*
X50490Y37439D01*
X49250D01*
X49238Y37447D01*
X49230Y37459D01*
Y37703D01*
X48821D01*
X48805Y37711D01*
X48795Y37726D01*
Y37825D01*
X48808Y37855D01*
X48839Y37868D01*
X49081D01*
Y37900D01*
X48839D01*
X48808Y37912D01*
X48795Y37943D01*
Y38041D01*
X48805Y38053D01*
X48821Y38061D01*
X48833Y38065D01*
X49230D01*
Y38309D01*
X49238Y38321D01*
X49250Y38329D01*
X50494D01*
X50506Y38321D01*
D02*
G37*
G36*
X56441Y25285D02*
X56537Y25245D01*
X56619Y25182D01*
X56682Y25100D01*
X56722Y25004D01*
X56736Y24902D01*
X56722Y24799D01*
X56682Y24703D01*
X56619Y24621D01*
X56537Y24558D01*
X56441Y24518D01*
X56339Y24504D01*
X56236Y24518D01*
X56140Y24558D01*
X56058Y24621D01*
X55995Y24703D01*
X55955Y24799D01*
X55941Y24902D01*
X55955Y25004D01*
X55995Y25100D01*
X56058Y25182D01*
X56140Y25245D01*
X56236Y25285D01*
X56339Y25299D01*
X56441Y25285D01*
D02*
G37*
D78*
X37035Y34862D02*
D03*
Y36043D02*
D03*
D79*
X51398Y36565D02*
D03*
X50728D02*
D03*
X47598Y36594D02*
D03*
X48268D02*
D03*
X51575Y39232D02*
D03*
X50906D02*
D03*
X45827Y33593D02*
D03*
X45157D02*
D03*
X46575D02*
D03*
X47244D02*
D03*
X32224Y26063D02*
D03*
X32894D02*
D03*
X36545Y26023D02*
D03*
X37215D02*
D03*
X38691Y26024D02*
D03*
X38022D02*
D03*
X50305Y45167D02*
D03*
X50974D02*
D03*
X34400Y26064D02*
D03*
X33730D02*
D03*
X41427Y40374D02*
D03*
X42096D02*
D03*
X44715Y41703D02*
D03*
X45384D02*
D03*
X45404Y38976D02*
D03*
X46073D02*
D03*
X45404Y38366D02*
D03*
X46073D02*
D03*
X49252Y32815D02*
D03*
X48583D02*
D03*
X56575Y32343D02*
D03*
X55906D02*
D03*
X42352Y34724D02*
D03*
X41683D02*
D03*
D80*
X48189Y35984D02*
D03*
X47579D02*
D03*
X48208Y37195D02*
D03*
X47598D02*
D03*
X48208Y37795D02*
D03*
X47598D02*
D03*
X48208Y38396D02*
D03*
X47598D02*
D03*
X36604Y26663D02*
D03*
X37214D02*
D03*
X52175Y34429D02*
D03*
X52785D02*
D03*
X52785Y35079D02*
D03*
X53395D02*
D03*
X45404Y39577D02*
D03*
X46014D02*
D03*
X46604D02*
D03*
X47214D02*
D03*
X47067Y23583D02*
D03*
X46457D02*
D03*
X54468Y32343D02*
D03*
X55079D02*
D03*
D81*
X47884Y39488D02*
D03*
Y40098D02*
D03*
X48524Y39488D02*
D03*
Y40098D02*
D03*
X49154Y39488D02*
D03*
Y40098D02*
D03*
X43445Y39104D02*
D03*
Y39714D02*
D03*
X46782Y38376D02*
D03*
Y38986D02*
D03*
D82*
X51516Y37510D02*
D03*
Y38179D02*
D03*
X34478Y25325D02*
D03*
Y24656D02*
D03*
X32146Y25315D02*
D03*
Y24646D02*
D03*
X36437Y25256D02*
D03*
Y24587D02*
D03*
X38829Y25246D02*
D03*
Y24577D02*
D03*
X50374Y34567D02*
D03*
Y33898D02*
D03*
X52559Y36565D02*
D03*
Y37234D02*
D03*
X42805Y39734D02*
D03*
Y40404D02*
D03*
X47844Y32638D02*
D03*
Y31969D02*
D03*
X45837Y24252D02*
D03*
Y23583D02*
D03*
X43002Y27628D02*
D03*
Y28297D02*
D03*
X42992Y29774D02*
D03*
Y29104D02*
D03*
D83*
X46978Y32431D02*
D03*
X45404D02*
D03*
D84*
X45807Y30138D02*
D03*
Y29941D02*
D03*
Y29744D02*
D03*
Y29547D02*
D03*
Y29350D02*
D03*
Y29154D02*
D03*
Y28957D02*
D03*
Y28760D02*
D03*
Y28563D02*
D03*
Y28366D02*
D03*
Y28169D02*
D03*
Y27972D02*
D03*
X51870D02*
D03*
Y28169D02*
D03*
Y28366D02*
D03*
Y28563D02*
D03*
Y28760D02*
D03*
Y28957D02*
D03*
Y29154D02*
D03*
Y29350D02*
D03*
Y29547D02*
D03*
Y29744D02*
D03*
Y29941D02*
D03*
Y30138D02*
D03*
X45807Y27579D02*
D03*
Y27382D02*
D03*
Y27185D02*
D03*
Y26988D02*
D03*
Y26791D02*
D03*
Y26594D02*
D03*
Y26398D02*
D03*
Y26201D02*
D03*
Y26004D02*
D03*
Y25807D02*
D03*
Y25610D02*
D03*
Y25413D02*
D03*
X51870D02*
D03*
Y25610D02*
D03*
Y25807D02*
D03*
Y26004D02*
D03*
Y26201D02*
D03*
Y26398D02*
D03*
Y26594D02*
D03*
Y26791D02*
D03*
Y26988D02*
D03*
Y27185D02*
D03*
Y27382D02*
D03*
Y27579D02*
D03*
X45807Y27776D02*
D03*
X51870D02*
D03*
D85*
X48642Y30807D02*
D03*
X48445D02*
D03*
X48248D02*
D03*
X48051D02*
D03*
X47854D02*
D03*
X47657D02*
D03*
X47461D02*
D03*
X47264D02*
D03*
X47067D02*
D03*
X46870D02*
D03*
X46673D02*
D03*
X46476D02*
D03*
X51201D02*
D03*
X51004D02*
D03*
X50807D02*
D03*
X50610D02*
D03*
X50413D02*
D03*
X50217D02*
D03*
X50020D02*
D03*
X49823D02*
D03*
X49626D02*
D03*
X49429D02*
D03*
X49232D02*
D03*
X49035D02*
D03*
X46476Y24744D02*
D03*
X46673D02*
D03*
X46870D02*
D03*
X47067D02*
D03*
X47264D02*
D03*
X47461D02*
D03*
X47657D02*
D03*
X47854D02*
D03*
X48051D02*
D03*
X48248D02*
D03*
X48445D02*
D03*
X48642D02*
D03*
X49035D02*
D03*
X49232D02*
D03*
X49429D02*
D03*
X49626D02*
D03*
X49823D02*
D03*
X50020D02*
D03*
X50217D02*
D03*
X50413D02*
D03*
X50610D02*
D03*
X50807D02*
D03*
X51004D02*
D03*
X51201D02*
D03*
X48839Y30807D02*
D03*
Y24744D02*
D03*
D86*
X33730Y24656D02*
D03*
Y25404D02*
D03*
X32894Y24646D02*
D03*
Y25394D02*
D03*
X37215Y25335D02*
D03*
Y24587D02*
D03*
X38022Y25325D02*
D03*
Y24577D02*
D03*
D87*
X49636Y33858D02*
D03*
Y34567D02*
D03*
X53396Y36398D02*
D03*
Y37106D02*
D03*
X43917Y28593D02*
D03*
Y27884D02*
D03*
D88*
X51132Y35443D02*
D03*
X52116Y35817D02*
D03*
X51132D02*
D03*
X52116Y35069D02*
D03*
X51132D02*
D03*
D89*
X38947Y41624D02*
D03*
X40089D02*
D03*
D90*
X49872Y37884D02*
D03*
D91*
X50738Y37589D02*
D03*
Y38179D02*
D03*
X49006Y37589D02*
D03*
Y38179D02*
D03*
D92*
X50561Y37215D02*
D03*
X50364D02*
D03*
X50167D02*
D03*
X49970D02*
D03*
X49774D02*
D03*
X49577D02*
D03*
X49380D02*
D03*
X49183D02*
D03*
Y38553D02*
D03*
X49380D02*
D03*
X49577D02*
D03*
X49774D02*
D03*
X49970D02*
D03*
X50167D02*
D03*
X50364D02*
D03*
X50561D02*
D03*
D93*
X50522Y40837D02*
D03*
X52333D02*
D03*
D94*
X33189Y42372D02*
D03*
X56339Y24902D02*
D03*
D95*
X39262Y35630D02*
D03*
Y34488D02*
D03*
D96*
X33376Y44154D02*
D03*
X35148D02*
D03*
D97*
X39262Y36496D02*
D03*
X40404D02*
D03*
X42077Y41161D02*
D03*
X40935D02*
D03*
D98*
X44055Y40994D02*
D03*
Y40797D02*
D03*
Y40600D02*
D03*
Y40404D02*
D03*
Y40207D02*
D03*
X45787D02*
D03*
Y40404D02*
D03*
Y40600D02*
D03*
Y40797D02*
D03*
Y40994D02*
D03*
D99*
X44921Y40600D02*
D03*
D100*
X45886Y42648D02*
D03*
Y44262D02*
D03*
D101*
X49564Y43425D02*
D03*
X47464D02*
D03*
D102*
X48583Y31969D02*
D03*
Y32323D02*
D03*
D103*
X50768Y32146D02*
D03*
D104*
X43570Y32858D02*
D03*
X40620D02*
D03*
X43570Y33858D02*
D03*
Y33358D02*
D03*
Y32358D02*
D03*
X40620Y33858D02*
D03*
Y33358D02*
D03*
Y32358D02*
D03*
D105*
X36654Y43020D02*
D03*
Y44815D02*
D03*
D106*
X39213Y43917D02*
D03*
D107*
X41476Y28553D02*
D03*
X41673D02*
D03*
X41870D02*
D03*
X42067D02*
D03*
Y29183D02*
D03*
X41870D02*
D03*
X41673D02*
D03*
X41476D02*
D03*
D108*
X42087Y28770D02*
D03*
Y28967D02*
D03*
X41457D02*
D03*
Y28770D02*
D03*
D109*
X36994Y27785D02*
D03*
Y28967D02*
D03*
Y30148D02*
D03*
Y31329D02*
D03*
Y32510D02*
D03*
Y33681D02*
D03*
D110*
X40395Y21613D02*
D03*
X39395D02*
D03*
X37395D02*
D03*
X36395D02*
D03*
X34395D02*
D03*
X40395Y22613D02*
D03*
X39395D02*
D03*
X37395D02*
D03*
X36395D02*
D03*
X34395D02*
D03*
X38395Y21613D02*
D03*
X35395D02*
D03*
X41395Y22613D02*
D03*
X38395D02*
D03*
X35395D02*
D03*
X52943Y43406D02*
D03*
X40395Y38148D02*
D03*
X39395D02*
D03*
X37395D02*
D03*
X36395D02*
D03*
X34395D02*
D03*
X40395Y39148D02*
D03*
X39395D02*
D03*
X37395D02*
D03*
X36395D02*
D03*
X34395D02*
D03*
X38395Y38148D02*
D03*
X35395D02*
D03*
X41395Y39148D02*
D03*
X38395D02*
D03*
X35395D02*
D03*
X44057Y43642D02*
D03*
D111*
X41395Y21613D02*
D03*
X51565Y43406D02*
D03*
X41395Y38148D02*
D03*
X42057Y43642D02*
D03*
D112*
X30187Y28829D02*
D03*
Y35511D02*
D03*
X41435Y30944D02*
D03*
X54820D02*
D03*
D113*
X30962Y43778D02*
D03*
Y22518D02*
D03*
X55765D02*
D03*
Y43778D02*
D03*
D114*
Y40786D02*
D03*
X54781D02*
D03*
X38022Y34862D02*
D03*
Y33681D02*
D03*
Y36043D02*
D03*
Y32500D02*
D03*
Y31319D02*
D03*
Y30138D02*
D03*
Y28957D02*
D03*
Y27776D02*
D03*
D115*
X56750Y40786D02*
D03*
D116*
X32450Y41200D02*
D03*
X30450D02*
D03*
X55073Y33307D02*
D03*
D117*
X35335Y41663D02*
D03*
D118*
X37697D02*
D03*
D119*
X56073Y33307D02*
D03*
M02*
