G04 Layer_Color=128*
%FSLAX24Y24*%
%MOIN*%
G70*
G01*
G75*
G04:AMPARAMS|DCode=33|XSize=86.6mil|YSize=68.9mil|CornerRadius=17.2mil|HoleSize=0mil|Usage=FLASHONLY|Rotation=270.000|XOffset=0mil|YOffset=0mil|HoleType=Round|Shape=RoundedRectangle|*
%AMROUNDEDRECTD33*
21,1,0.0866,0.0344,0,0,270.0*
21,1,0.0522,0.0689,0,0,270.0*
1,1,0.0344,-0.0172,-0.0261*
1,1,0.0344,-0.0172,0.0261*
1,1,0.0344,0.0172,0.0261*
1,1,0.0344,0.0172,-0.0261*
%
%ADD33ROUNDEDRECTD33*%
%ADD62O,0.0295X0.0800*%
G04:AMPARAMS|DCode=63|XSize=78.7mil|YSize=86.6mil|CornerRadius=19.7mil|HoleSize=0mil|Usage=FLASHONLY|Rotation=0.000|XOffset=0mil|YOffset=0mil|HoleType=Round|Shape=RoundedRectangle|*
%AMROUNDEDRECTD63*
21,1,0.0787,0.0472,0,0,0.0*
21,1,0.0394,0.0866,0,0,0.0*
1,1,0.0394,0.0197,-0.0236*
1,1,0.0394,-0.0197,-0.0236*
1,1,0.0394,-0.0197,0.0236*
1,1,0.0394,0.0197,0.0236*
%
%ADD63ROUNDEDRECTD63*%
%ADD64O,0.0591X0.0281*%
%ADD65O,0.0281X0.0591*%
G04:AMPARAMS|DCode=67|XSize=110.2mil|YSize=59.1mil|CornerRadius=14.8mil|HoleSize=0mil|Usage=FLASHONLY|Rotation=270.000|XOffset=0mil|YOffset=0mil|HoleType=Round|Shape=RoundedRectangle|*
%AMROUNDEDRECTD67*
21,1,0.1102,0.0295,0,0,270.0*
21,1,0.0807,0.0591,0,0,270.0*
1,1,0.0295,-0.0148,-0.0404*
1,1,0.0295,-0.0148,0.0404*
1,1,0.0295,0.0148,0.0404*
1,1,0.0295,0.0148,-0.0404*
%
%ADD67ROUNDEDRECTD67*%
G36*
X36791Y43730D02*
X36437Y43888D01*
X36083Y43730D01*
Y44282D01*
X36791D01*
Y43730D01*
D02*
G37*
G36*
Y42589D02*
X36083D01*
Y43140D01*
X36437Y42982D01*
X36791Y43140D01*
Y42589D01*
D02*
G37*
G36*
X38711Y42835D02*
X38297D01*
X38415Y43179D01*
X38297Y43524D01*
X38711D01*
Y42835D01*
D02*
G37*
G36*
X37451Y43179D02*
X37569Y42835D01*
X37156D01*
Y43524D01*
X37569D01*
X37451Y43179D01*
D02*
G37*
G36*
X33839Y42126D02*
X33484Y42283D01*
X33130Y42126D01*
Y42677D01*
X33839D01*
Y42126D01*
D02*
G37*
G36*
X39852Y41959D02*
X39439D01*
X39557Y42303D01*
X39439Y42648D01*
X39852D01*
Y41959D01*
D02*
G37*
G36*
X38593Y42303D02*
X38711Y41959D01*
X38297D01*
Y42648D01*
X38711D01*
X38593Y42303D01*
D02*
G37*
G36*
X33839Y40984D02*
X33130D01*
Y41535D01*
X33484Y41378D01*
X33839Y41535D01*
Y40984D01*
D02*
G37*
G36*
X56988Y36328D02*
X56811Y36407D01*
X56634Y36328D01*
Y36604D01*
X56988D01*
Y36328D01*
D02*
G37*
G36*
Y35719D02*
X56634D01*
Y35994D01*
X56811Y35915D01*
X56988Y35994D01*
Y35719D01*
D02*
G37*
G36*
X54941Y35728D02*
X54764Y35807D01*
X54587Y35728D01*
Y36004D01*
X54941D01*
Y35728D01*
D02*
G37*
G36*
Y35118D02*
X54587D01*
Y35394D01*
X54764Y35315D01*
X54941Y35394D01*
Y35118D01*
D02*
G37*
G36*
X56989Y34980D02*
X56812Y35098D01*
X56635Y34980D01*
Y35374D01*
X56989D01*
Y34980D01*
D02*
G37*
G36*
Y34311D02*
X56635D01*
Y34705D01*
X56812Y34587D01*
X56989Y34705D01*
Y34311D01*
D02*
G37*
G36*
X34892Y33208D02*
X34715Y33287D01*
X34537Y33208D01*
Y33484D01*
X34892D01*
Y33208D01*
D02*
G37*
G36*
X51437Y33150D02*
X51260Y33268D01*
X51083Y33150D01*
Y33543D01*
X51437D01*
Y33150D01*
D02*
G37*
G36*
X50797D02*
X50620Y33228D01*
X50443Y33150D01*
Y33425D01*
X50797D01*
Y33150D01*
D02*
G37*
G36*
X50187Y33149D02*
X50010Y33228D01*
X49833Y33149D01*
Y33425D01*
X50187D01*
Y33149D01*
D02*
G37*
G36*
X34892Y32598D02*
X34537D01*
Y32874D01*
X34715Y32795D01*
X34892Y32874D01*
Y32598D01*
D02*
G37*
G36*
X51437Y32480D02*
X51083D01*
Y32874D01*
X51260Y32756D01*
X51437Y32874D01*
Y32480D01*
D02*
G37*
G36*
X50797Y32540D02*
X50443D01*
Y32815D01*
X50620Y32736D01*
X50797Y32815D01*
Y32540D01*
D02*
G37*
G36*
X50187Y32539D02*
X49833D01*
Y32815D01*
X50010Y32736D01*
X50187Y32815D01*
Y32539D01*
D02*
G37*
G36*
X50846Y30541D02*
X50571D01*
X50650Y30719D01*
X50571Y30896D01*
X50846D01*
Y30541D01*
D02*
G37*
G36*
X50158Y30719D02*
X50236Y30541D01*
X49961D01*
Y30896D01*
X50236D01*
X50158Y30719D01*
D02*
G37*
G36*
X51496Y30522D02*
X51319Y30640D01*
X51142Y30522D01*
Y30915D01*
X51496D01*
Y30522D01*
D02*
G37*
G36*
X49616D02*
X49439Y30640D01*
X49262Y30522D01*
Y30915D01*
X49616D01*
Y30522D01*
D02*
G37*
G36*
X49006D02*
X48829Y30640D01*
X48652Y30522D01*
Y30915D01*
X49006D01*
Y30522D01*
D02*
G37*
G36*
X51496Y29852D02*
X51142D01*
Y30246D01*
X51319Y30128D01*
X51496Y30246D01*
Y29852D01*
D02*
G37*
G36*
X49616D02*
X49262D01*
Y30246D01*
X49439Y30128D01*
X49616Y30246D01*
Y29852D01*
D02*
G37*
G36*
X49006D02*
X48652D01*
Y30246D01*
X48829Y30128D01*
X49006Y30246D01*
Y29852D01*
D02*
G37*
G36*
X46565Y29567D02*
X46171D01*
X46289Y29744D01*
X46171Y29921D01*
X46565D01*
Y29567D01*
D02*
G37*
G36*
X45778Y29744D02*
X45896Y29567D01*
X45502D01*
Y29921D01*
X45896D01*
X45778Y29744D01*
D02*
G37*
G36*
X52185Y29183D02*
X51791D01*
X51909Y29360D01*
X51791Y29537D01*
X52185D01*
Y29183D01*
D02*
G37*
G36*
X51398Y29360D02*
X51516Y29183D01*
X51122D01*
Y29537D01*
X51516D01*
X51398Y29360D01*
D02*
G37*
G36*
X33760Y28484D02*
X33366D01*
X33484Y28661D01*
X33366Y28839D01*
X33760D01*
Y28484D01*
D02*
G37*
G36*
X32972Y28661D02*
X33091Y28484D01*
X32697D01*
Y28839D01*
X33091D01*
X32972Y28661D01*
D02*
G37*
G36*
X46624Y27421D02*
X46171D01*
X46299Y27707D01*
X46171Y27992D01*
X46624D01*
Y27421D01*
D02*
G37*
G36*
X45787Y27707D02*
X45915Y27421D01*
X45463D01*
Y27992D01*
X45915D01*
X45787Y27707D01*
D02*
G37*
G36*
X52185Y26811D02*
X51791D01*
X51909Y26988D01*
X51791Y27165D01*
X52185D01*
Y26811D01*
D02*
G37*
G36*
X51398Y26988D02*
X51516Y26811D01*
X51122D01*
Y27165D01*
X51516D01*
X51398Y26988D01*
D02*
G37*
G36*
X46555Y26811D02*
X46161D01*
X46280Y26988D01*
X46161Y27165D01*
X46555D01*
Y26811D01*
D02*
G37*
G36*
X45768Y26988D02*
X45886Y26811D01*
X45492D01*
Y27165D01*
X45886D01*
X45768Y26988D01*
D02*
G37*
G36*
X50591Y25108D02*
X50413Y25226D01*
X50236Y25108D01*
Y25502D01*
X50591D01*
Y25108D01*
D02*
G37*
G36*
X47244Y25098D02*
X47067Y25217D01*
X46890Y25098D01*
Y25492D01*
X47244D01*
Y25098D01*
D02*
G37*
G36*
X50591Y24439D02*
X50236D01*
Y24833D01*
X50413Y24715D01*
X50591Y24833D01*
Y24439D01*
D02*
G37*
G36*
X47244Y24429D02*
X46890D01*
Y24823D01*
X47067Y24705D01*
X47244Y24823D01*
Y24429D01*
D02*
G37*
D33*
X35217Y42815D02*
D03*
Y44429D02*
D03*
D62*
X33567Y31964D02*
D03*
Y29764D02*
D03*
X33067Y31964D02*
D03*
Y29764D02*
D03*
X34567Y31964D02*
D03*
X34067D02*
D03*
Y29764D02*
D03*
X34567D02*
D03*
D63*
X55758Y39222D02*
D03*
X56858D02*
D03*
D64*
X40566Y45226D02*
D03*
Y44426D02*
D03*
X39656Y44826D02*
D03*
X39651Y43081D02*
D03*
Y43881D02*
D03*
X40561Y43481D02*
D03*
D65*
X39547Y40684D02*
D03*
X38747D02*
D03*
X39147Y41594D02*
D03*
X55394Y34956D02*
D03*
X56194D02*
D03*
X55794Y35866D02*
D03*
X34075Y33017D02*
D03*
X33275D02*
D03*
X33675Y33927D02*
D03*
D67*
X35482Y32293D02*
D03*
X36742D02*
D03*
X35482Y33691D02*
D03*
X36742D02*
D03*
M02*
