%FSLAX24Y24*%
%MOIN*%
G70*
G01*
G75*
G04 Layer_Color=8388736*
%ADD10C,0.0098*%
%ADD11C,0.0079*%
%ADD12C,0.0472*%
G04:AMPARAMS|DCode=13|XSize=189mil|YSize=70.9mil|CornerRadius=17.7mil|HoleSize=0mil|Usage=FLASHONLY|Rotation=180.000|XOffset=0mil|YOffset=0mil|HoleType=Round|Shape=RoundedRectangle|*
%AMROUNDEDRECTD13*
21,1,0.1890,0.0354,0,0,180.0*
21,1,0.1535,0.0709,0,0,180.0*
1,1,0.0354,-0.0768,0.0177*
1,1,0.0354,0.0768,0.0177*
1,1,0.0354,0.0768,-0.0177*
1,1,0.0354,-0.0768,-0.0177*
%
%ADD13ROUNDEDRECTD13*%
G04:AMPARAMS|DCode=14|XSize=41mil|YSize=36mil|CornerRadius=1.8mil|HoleSize=0mil|Usage=FLASHONLY|Rotation=180.000|XOffset=0mil|YOffset=0mil|HoleType=Round|Shape=RoundedRectangle|*
%AMROUNDEDRECTD14*
21,1,0.0410,0.0324,0,0,180.0*
21,1,0.0374,0.0360,0,0,180.0*
1,1,0.0036,-0.0187,0.0162*
1,1,0.0036,0.0187,0.0162*
1,1,0.0036,0.0187,-0.0162*
1,1,0.0036,-0.0187,-0.0162*
%
%ADD14ROUNDEDRECTD14*%
%ADD15O,0.0281X0.0591*%
%ADD16R,0.0906X0.1220*%
%ADD17O,0.0787X0.0295*%
G04:AMPARAMS|DCode=18|XSize=28mil|YSize=35.8mil|CornerRadius=2.8mil|HoleSize=0mil|Usage=FLASHONLY|Rotation=0.000|XOffset=0mil|YOffset=0mil|HoleType=Round|Shape=RoundedRectangle|*
%AMROUNDEDRECTD18*
21,1,0.0280,0.0302,0,0,0.0*
21,1,0.0224,0.0358,0,0,0.0*
1,1,0.0056,0.0112,-0.0151*
1,1,0.0056,-0.0112,-0.0151*
1,1,0.0056,-0.0112,0.0151*
1,1,0.0056,0.0112,0.0151*
%
%ADD18ROUNDEDRECTD18*%
G04:AMPARAMS|DCode=19|XSize=41mil|YSize=36mil|CornerRadius=1.8mil|HoleSize=0mil|Usage=FLASHONLY|Rotation=270.000|XOffset=0mil|YOffset=0mil|HoleType=Round|Shape=RoundedRectangle|*
%AMROUNDEDRECTD19*
21,1,0.0410,0.0324,0,0,270.0*
21,1,0.0374,0.0360,0,0,270.0*
1,1,0.0036,-0.0162,-0.0187*
1,1,0.0036,-0.0162,0.0187*
1,1,0.0036,0.0162,0.0187*
1,1,0.0036,0.0162,-0.0187*
%
%ADD19ROUNDEDRECTD19*%
G04:AMPARAMS|DCode=20|XSize=70.9mil|YSize=51.2mil|CornerRadius=12.8mil|HoleSize=0mil|Usage=FLASHONLY|Rotation=270.000|XOffset=0mil|YOffset=0mil|HoleType=Round|Shape=RoundedRectangle|*
%AMROUNDEDRECTD20*
21,1,0.0709,0.0256,0,0,270.0*
21,1,0.0453,0.0512,0,0,270.0*
1,1,0.0256,-0.0128,-0.0226*
1,1,0.0256,-0.0128,0.0226*
1,1,0.0256,0.0128,0.0226*
1,1,0.0256,0.0128,-0.0226*
%
%ADD20ROUNDEDRECTD20*%
G04:AMPARAMS|DCode=21|XSize=55.1mil|YSize=70.9mil|CornerRadius=13.8mil|HoleSize=0mil|Usage=FLASHONLY|Rotation=0.000|XOffset=0mil|YOffset=0mil|HoleType=Round|Shape=RoundedRectangle|*
%AMROUNDEDRECTD21*
21,1,0.0551,0.0433,0,0,0.0*
21,1,0.0276,0.0709,0,0,0.0*
1,1,0.0276,0.0138,-0.0217*
1,1,0.0276,-0.0138,-0.0217*
1,1,0.0276,-0.0138,0.0217*
1,1,0.0276,0.0138,0.0217*
%
%ADD21ROUNDEDRECTD21*%
G04:AMPARAMS|DCode=22|XSize=70.9mil|YSize=51.2mil|CornerRadius=12.8mil|HoleSize=0mil|Usage=FLASHONLY|Rotation=180.000|XOffset=0mil|YOffset=0mil|HoleType=Round|Shape=RoundedRectangle|*
%AMROUNDEDRECTD22*
21,1,0.0709,0.0256,0,0,180.0*
21,1,0.0453,0.0512,0,0,180.0*
1,1,0.0256,-0.0226,0.0128*
1,1,0.0256,0.0226,0.0128*
1,1,0.0256,0.0226,-0.0128*
1,1,0.0256,-0.0226,-0.0128*
%
%ADD22ROUNDEDRECTD22*%
G04:AMPARAMS|DCode=23|XSize=94.5mil|YSize=110.2mil|CornerRadius=23.6mil|HoleSize=0mil|Usage=FLASHONLY|Rotation=270.000|XOffset=0mil|YOffset=0mil|HoleType=Round|Shape=RoundedRectangle|*
%AMROUNDEDRECTD23*
21,1,0.0945,0.0630,0,0,270.0*
21,1,0.0472,0.1102,0,0,270.0*
1,1,0.0472,-0.0315,-0.0236*
1,1,0.0472,-0.0315,0.0236*
1,1,0.0472,0.0315,0.0236*
1,1,0.0472,0.0315,-0.0236*
%
%ADD23ROUNDEDRECTD23*%
%ADD24O,0.0217X0.0492*%
%ADD25O,0.0492X0.0217*%
G04:AMPARAMS|DCode=26|XSize=126mil|YSize=80.7mil|CornerRadius=20.2mil|HoleSize=0mil|Usage=FLASHONLY|Rotation=90.000|XOffset=0mil|YOffset=0mil|HoleType=Round|Shape=RoundedRectangle|*
%AMROUNDEDRECTD26*
21,1,0.1260,0.0404,0,0,90.0*
21,1,0.0856,0.0807,0,0,90.0*
1,1,0.0404,0.0202,0.0428*
1,1,0.0404,0.0202,-0.0428*
1,1,0.0404,-0.0202,-0.0428*
1,1,0.0404,-0.0202,0.0428*
%
%ADD26ROUNDEDRECTD26*%
%ADD27O,0.0807X0.0256*%
%ADD28O,0.0335X0.0118*%
%ADD29O,0.0118X0.0335*%
%ADD30R,0.0394X0.0787*%
%ADD31O,0.0118X0.0591*%
%ADD32O,0.0591X0.0118*%
%ADD33R,0.0394X0.0394*%
G04:AMPARAMS|DCode=34|XSize=90.6mil|YSize=82.7mil|CornerRadius=12.4mil|HoleSize=0mil|Usage=FLASHONLY|Rotation=270.000|XOffset=0mil|YOffset=0mil|HoleType=Round|Shape=RoundedRectangle|*
%AMROUNDEDRECTD34*
21,1,0.0906,0.0579,0,0,270.0*
21,1,0.0657,0.0827,0,0,270.0*
1,1,0.0248,-0.0289,-0.0329*
1,1,0.0248,-0.0289,0.0329*
1,1,0.0248,0.0289,0.0329*
1,1,0.0248,0.0289,-0.0329*
%
%ADD34ROUNDEDRECTD34*%
G04:AMPARAMS|DCode=35|XSize=28mil|YSize=35.8mil|CornerRadius=2.8mil|HoleSize=0mil|Usage=FLASHONLY|Rotation=90.000|XOffset=0mil|YOffset=0mil|HoleType=Round|Shape=RoundedRectangle|*
%AMROUNDEDRECTD35*
21,1,0.0280,0.0302,0,0,90.0*
21,1,0.0224,0.0358,0,0,90.0*
1,1,0.0056,0.0151,0.0112*
1,1,0.0056,0.0151,-0.0112*
1,1,0.0056,-0.0151,-0.0112*
1,1,0.0056,-0.0151,0.0112*
%
%ADD35ROUNDEDRECTD35*%
%ADD36O,0.0591X0.0281*%
G04:AMPARAMS|DCode=37|XSize=86.6mil|YSize=68.9mil|CornerRadius=17.2mil|HoleSize=0mil|Usage=FLASHONLY|Rotation=180.000|XOffset=0mil|YOffset=0mil|HoleType=Round|Shape=RoundedRectangle|*
%AMROUNDEDRECTD37*
21,1,0.0866,0.0344,0,0,180.0*
21,1,0.0522,0.0689,0,0,180.0*
1,1,0.0344,-0.0261,0.0172*
1,1,0.0344,0.0261,0.0172*
1,1,0.0344,0.0261,-0.0172*
1,1,0.0344,-0.0261,-0.0172*
%
%ADD37ROUNDEDRECTD37*%
G04:AMPARAMS|DCode=38|XSize=82.7mil|YSize=78.7mil|CornerRadius=19.7mil|HoleSize=0mil|Usage=FLASHONLY|Rotation=90.000|XOffset=0mil|YOffset=0mil|HoleType=Round|Shape=RoundedRectangle|*
%AMROUNDEDRECTD38*
21,1,0.0827,0.0394,0,0,90.0*
21,1,0.0433,0.0787,0,0,90.0*
1,1,0.0394,0.0197,0.0217*
1,1,0.0394,0.0197,-0.0217*
1,1,0.0394,-0.0197,-0.0217*
1,1,0.0394,-0.0197,0.0217*
%
%ADD38ROUNDEDRECTD38*%
%ADD39O,0.0846X0.0394*%
G04:AMPARAMS|DCode=40|XSize=279.5mil|YSize=218.5mil|CornerRadius=10.9mil|HoleSize=0mil|Usage=FLASHONLY|Rotation=0.000|XOffset=0mil|YOffset=0mil|HoleType=Round|Shape=RoundedRectangle|*
%AMROUNDEDRECTD40*
21,1,0.2795,0.1967,0,0,0.0*
21,1,0.2577,0.2185,0,0,0.0*
1,1,0.0219,0.1288,-0.0983*
1,1,0.0219,-0.1288,-0.0983*
1,1,0.0219,-0.1288,0.0983*
1,1,0.0219,0.1288,0.0983*
%
%ADD40ROUNDEDRECTD40*%
%ADD41R,0.1417X0.1693*%
%ADD42O,0.0866X0.0295*%
%ADD43C,0.0157*%
%ADD44C,0.0197*%
%ADD45C,0.0118*%
%ADD46C,0.0394*%
%ADD47C,0.0315*%
%ADD48C,0.0276*%
%ADD49C,0.0709*%
%ADD50R,0.0709X0.0709*%
%ADD51C,0.1575*%
%ADD52C,0.3150*%
%ADD53C,0.0600*%
%ADD54R,0.0600X0.0600*%
%ADD55C,0.0630*%
%ADD56C,0.0827*%
%ADD57R,0.0827X0.0827*%
%ADD58R,0.0600X0.0600*%
%ADD59R,0.0709X0.0709*%
%ADD60C,0.0315*%
%ADD61C,0.0394*%
%ADD62C,0.0236*%
%ADD63C,0.0400*%
%ADD64C,0.0872*%
G04:AMPARAMS|DCode=65|XSize=78.74mil|YSize=78.74mil|CornerRadius=0mil|HoleSize=0mil|Usage=FLASHONLY|Rotation=0.000|XOffset=0mil|YOffset=0mil|HoleType=Round|Shape=Relief|Width=10mil|Gap=7.9mil|Entries=4|*
%AMTHD65*
7,0,0,0.0787,0.0630,0.0100,45*
%
%ADD65THD65*%
%ADD66C,0.1975*%
%ADD67C,0.2959*%
G04:AMPARAMS|DCode=68|XSize=69.496mil|YSize=69.496mil|CornerRadius=0mil|HoleSize=0mil|Usage=FLASHONLY|Rotation=0.000|XOffset=0mil|YOffset=0mil|HoleType=Round|Shape=Relief|Width=10mil|Gap=7.9mil|Entries=4|*
%AMTHD68*
7,0,0,0.0695,0.0537,0.0100,45*
%
%ADD68THD68*%
%ADD69C,0.0780*%
%ADD70C,0.0794*%
G04:AMPARAMS|DCode=71|XSize=86.614mil|YSize=86.614mil|CornerRadius=0mil|HoleSize=0mil|Usage=FLASHONLY|Rotation=0.000|XOffset=0mil|YOffset=0mil|HoleType=Round|Shape=Relief|Width=10mil|Gap=7.9mil|Entries=4|*
%AMTHD71*
7,0,0,0.0866,0.0709,0.0100,45*
%
%ADD71THD71*%
%ADD72C,0.0951*%
%ADD73C,0.0636*%
G04:AMPARAMS|DCode=74|XSize=47.244mil|YSize=47.244mil|CornerRadius=0mil|HoleSize=0mil|Usage=FLASHONLY|Rotation=0.000|XOffset=0mil|YOffset=0mil|HoleType=Round|Shape=Relief|Width=10mil|Gap=7.9mil|Entries=4|*
%AMTHD74*
7,0,0,0.0472,0.0315,0.0100,45*
%
%ADD74THD74*%
%ADD75C,0.0557*%
%ADD76C,0.0597*%
%ADD77C,0.0518*%
G04:AMPARAMS|DCode=78|XSize=43.307mil|YSize=43.307mil|CornerRadius=0mil|HoleSize=0mil|Usage=FLASHONLY|Rotation=0.000|XOffset=0mil|YOffset=0mil|HoleType=Round|Shape=Relief|Width=10mil|Gap=7.9mil|Entries=4|*
%AMTHD78*
7,0,0,0.0433,0.0276,0.0100,45*
%
%ADD78THD78*%
G04:AMPARAMS|DCode=79|XSize=51.181mil|YSize=51.181mil|CornerRadius=0mil|HoleSize=0mil|Usage=FLASHONLY|Rotation=0.000|XOffset=0mil|YOffset=0mil|HoleType=Round|Shape=Relief|Width=10mil|Gap=7.9mil|Entries=4|*
%AMTHD79*
7,0,0,0.0512,0.0354,0.0100,45*
%
%ADD79THD79*%
G04:AMPARAMS|DCode=80|XSize=78.7mil|YSize=86.6mil|CornerRadius=19.7mil|HoleSize=0mil|Usage=FLASHONLY|Rotation=0.000|XOffset=0mil|YOffset=0mil|HoleType=Round|Shape=RoundedRectangle|*
%AMROUNDEDRECTD80*
21,1,0.0787,0.0472,0,0,0.0*
21,1,0.0394,0.0866,0,0,0.0*
1,1,0.0394,0.0197,-0.0236*
1,1,0.0394,-0.0197,-0.0236*
1,1,0.0394,-0.0197,0.0236*
1,1,0.0394,0.0197,0.0236*
%
%ADD80ROUNDEDRECTD80*%
G04:AMPARAMS|DCode=81|XSize=47.2mil|YSize=74.8mil|CornerRadius=11.8mil|HoleSize=0mil|Usage=FLASHONLY|Rotation=270.000|XOffset=0mil|YOffset=0mil|HoleType=Round|Shape=RoundedRectangle|*
%AMROUNDEDRECTD81*
21,1,0.0472,0.0512,0,0,270.0*
21,1,0.0236,0.0748,0,0,270.0*
1,1,0.0236,-0.0256,-0.0118*
1,1,0.0236,-0.0256,0.0118*
1,1,0.0236,0.0256,0.0118*
1,1,0.0236,0.0256,-0.0118*
%
%ADD81ROUNDEDRECTD81*%
G04:AMPARAMS|DCode=82|XSize=47.2mil|YSize=74.8mil|CornerRadius=11.8mil|HoleSize=0mil|Usage=FLASHONLY|Rotation=180.000|XOffset=0mil|YOffset=0mil|HoleType=Round|Shape=RoundedRectangle|*
%AMROUNDEDRECTD82*
21,1,0.0472,0.0512,0,0,180.0*
21,1,0.0236,0.0748,0,0,180.0*
1,1,0.0236,-0.0118,0.0256*
1,1,0.0236,0.0118,0.0256*
1,1,0.0236,0.0118,-0.0256*
1,1,0.0236,-0.0118,-0.0256*
%
%ADD82ROUNDEDRECTD82*%
G04:AMPARAMS|DCode=83|XSize=86.6mil|YSize=68.9mil|CornerRadius=17.2mil|HoleSize=0mil|Usage=FLASHONLY|Rotation=90.000|XOffset=0mil|YOffset=0mil|HoleType=Round|Shape=RoundedRectangle|*
%AMROUNDEDRECTD83*
21,1,0.0866,0.0344,0,0,90.0*
21,1,0.0522,0.0689,0,0,90.0*
1,1,0.0344,0.0172,0.0261*
1,1,0.0344,0.0172,-0.0261*
1,1,0.0344,-0.0172,-0.0261*
1,1,0.0344,-0.0172,0.0261*
%
%ADD83ROUNDEDRECTD83*%
G04:AMPARAMS|DCode=84|XSize=51.2mil|YSize=72mil|CornerRadius=2.6mil|HoleSize=0mil|Usage=FLASHONLY|Rotation=90.000|XOffset=0mil|YOffset=0mil|HoleType=Round|Shape=RoundedRectangle|*
%AMROUNDEDRECTD84*
21,1,0.0512,0.0669,0,0,90.0*
21,1,0.0461,0.0720,0,0,90.0*
1,1,0.0051,0.0335,0.0230*
1,1,0.0051,0.0335,-0.0230*
1,1,0.0051,-0.0335,-0.0230*
1,1,0.0051,-0.0335,0.0230*
%
%ADD84ROUNDEDRECTD84*%
%ADD85O,0.0295X0.0800*%
G04:AMPARAMS|DCode=86|XSize=110.2mil|YSize=47.2mil|CornerRadius=11.8mil|HoleSize=0mil|Usage=FLASHONLY|Rotation=270.000|XOffset=0mil|YOffset=0mil|HoleType=Round|Shape=RoundedRectangle|*
%AMROUNDEDRECTD86*
21,1,0.1102,0.0236,0,0,270.0*
21,1,0.0866,0.0472,0,0,270.0*
1,1,0.0236,-0.0118,-0.0433*
1,1,0.0236,-0.0118,0.0433*
1,1,0.0236,0.0118,0.0433*
1,1,0.0236,0.0118,-0.0433*
%
%ADD86ROUNDEDRECTD86*%
%ADD87C,0.0070*%
%ADD88C,0.0100*%
%ADD89C,0.0236*%
%ADD90C,0.0071*%
%ADD91C,0.0067*%
%ADD92C,0.0050*%
G04:AMPARAMS|DCode=93|XSize=195mil|YSize=76.8mil|CornerRadius=20.7mil|HoleSize=0mil|Usage=FLASHONLY|Rotation=180.000|XOffset=0mil|YOffset=0mil|HoleType=Round|Shape=RoundedRectangle|*
%AMROUNDEDRECTD93*
21,1,0.1950,0.0354,0,0,180.0*
21,1,0.1535,0.0768,0,0,180.0*
1,1,0.0414,-0.0768,0.0177*
1,1,0.0414,0.0768,0.0177*
1,1,0.0414,0.0768,-0.0177*
1,1,0.0414,-0.0768,-0.0177*
%
%ADD93ROUNDEDRECTD93*%
G04:AMPARAMS|DCode=94|XSize=47mil|YSize=42mil|CornerRadius=4.8mil|HoleSize=0mil|Usage=FLASHONLY|Rotation=180.000|XOffset=0mil|YOffset=0mil|HoleType=Round|Shape=RoundedRectangle|*
%AMROUNDEDRECTD94*
21,1,0.0470,0.0324,0,0,180.0*
21,1,0.0374,0.0420,0,0,180.0*
1,1,0.0096,-0.0187,0.0162*
1,1,0.0096,0.0187,0.0162*
1,1,0.0096,0.0187,-0.0162*
1,1,0.0096,-0.0187,-0.0162*
%
%ADD94ROUNDEDRECTD94*%
%ADD95O,0.0341X0.0650*%
%ADD96R,0.0965X0.1280*%
%ADD97O,0.0847X0.0355*%
G04:AMPARAMS|DCode=98|XSize=33.9mil|YSize=41.8mil|CornerRadius=5.8mil|HoleSize=0mil|Usage=FLASHONLY|Rotation=0.000|XOffset=0mil|YOffset=0mil|HoleType=Round|Shape=RoundedRectangle|*
%AMROUNDEDRECTD98*
21,1,0.0339,0.0302,0,0,0.0*
21,1,0.0224,0.0418,0,0,0.0*
1,1,0.0116,0.0112,-0.0151*
1,1,0.0116,-0.0112,-0.0151*
1,1,0.0116,-0.0112,0.0151*
1,1,0.0116,0.0112,0.0151*
%
%ADD98ROUNDEDRECTD98*%
G04:AMPARAMS|DCode=99|XSize=47mil|YSize=42mil|CornerRadius=4.8mil|HoleSize=0mil|Usage=FLASHONLY|Rotation=270.000|XOffset=0mil|YOffset=0mil|HoleType=Round|Shape=RoundedRectangle|*
%AMROUNDEDRECTD99*
21,1,0.0470,0.0324,0,0,270.0*
21,1,0.0374,0.0420,0,0,270.0*
1,1,0.0096,-0.0162,-0.0187*
1,1,0.0096,-0.0162,0.0187*
1,1,0.0096,0.0162,0.0187*
1,1,0.0096,0.0162,-0.0187*
%
%ADD99ROUNDEDRECTD99*%
G04:AMPARAMS|DCode=100|XSize=76.8mil|YSize=57.2mil|CornerRadius=15.8mil|HoleSize=0mil|Usage=FLASHONLY|Rotation=270.000|XOffset=0mil|YOffset=0mil|HoleType=Round|Shape=RoundedRectangle|*
%AMROUNDEDRECTD100*
21,1,0.0768,0.0256,0,0,270.0*
21,1,0.0453,0.0572,0,0,270.0*
1,1,0.0316,-0.0128,-0.0226*
1,1,0.0316,-0.0128,0.0226*
1,1,0.0316,0.0128,0.0226*
1,1,0.0316,0.0128,-0.0226*
%
%ADD100ROUNDEDRECTD100*%
G04:AMPARAMS|DCode=101|XSize=61.1mil|YSize=76.8mil|CornerRadius=16.8mil|HoleSize=0mil|Usage=FLASHONLY|Rotation=0.000|XOffset=0mil|YOffset=0mil|HoleType=Round|Shape=RoundedRectangle|*
%AMROUNDEDRECTD101*
21,1,0.0611,0.0433,0,0,0.0*
21,1,0.0276,0.0768,0,0,0.0*
1,1,0.0335,0.0138,-0.0217*
1,1,0.0335,-0.0138,-0.0217*
1,1,0.0335,-0.0138,0.0217*
1,1,0.0335,0.0138,0.0217*
%
%ADD101ROUNDEDRECTD101*%
G04:AMPARAMS|DCode=102|XSize=76.8mil|YSize=57.2mil|CornerRadius=15.8mil|HoleSize=0mil|Usage=FLASHONLY|Rotation=180.000|XOffset=0mil|YOffset=0mil|HoleType=Round|Shape=RoundedRectangle|*
%AMROUNDEDRECTD102*
21,1,0.0768,0.0256,0,0,180.0*
21,1,0.0453,0.0572,0,0,180.0*
1,1,0.0316,-0.0226,0.0128*
1,1,0.0316,0.0226,0.0128*
1,1,0.0316,0.0226,-0.0128*
1,1,0.0316,-0.0226,-0.0128*
%
%ADD102ROUNDEDRECTD102*%
G04:AMPARAMS|DCode=103|XSize=100.5mil|YSize=116.2mil|CornerRadius=26.6mil|HoleSize=0mil|Usage=FLASHONLY|Rotation=270.000|XOffset=0mil|YOffset=0mil|HoleType=Round|Shape=RoundedRectangle|*
%AMROUNDEDRECTD103*
21,1,0.1005,0.0630,0,0,270.0*
21,1,0.0472,0.1162,0,0,270.0*
1,1,0.0532,-0.0315,-0.0236*
1,1,0.0532,-0.0315,0.0236*
1,1,0.0532,0.0315,0.0236*
1,1,0.0532,0.0315,-0.0236*
%
%ADD103ROUNDEDRECTD103*%
%ADD104O,0.0256X0.0532*%
%ADD105O,0.0532X0.0256*%
G04:AMPARAMS|DCode=106|XSize=132mil|YSize=86.7mil|CornerRadius=23.2mil|HoleSize=0mil|Usage=FLASHONLY|Rotation=90.000|XOffset=0mil|YOffset=0mil|HoleType=Round|Shape=RoundedRectangle|*
%AMROUNDEDRECTD106*
21,1,0.1320,0.0404,0,0,90.0*
21,1,0.0856,0.0867,0,0,90.0*
1,1,0.0463,0.0202,0.0428*
1,1,0.0463,0.0202,-0.0428*
1,1,0.0463,-0.0202,-0.0428*
1,1,0.0463,-0.0202,0.0428*
%
%ADD106ROUNDEDRECTD106*%
%ADD107O,0.0867X0.0316*%
%ADD108O,0.0374X0.0157*%
%ADD109O,0.0157X0.0374*%
%ADD110O,0.0157X0.0630*%
%ADD111O,0.0630X0.0157*%
G04:AMPARAMS|DCode=112|XSize=96.5mil|YSize=88.7mil|CornerRadius=15.4mil|HoleSize=0mil|Usage=FLASHONLY|Rotation=270.000|XOffset=0mil|YOffset=0mil|HoleType=Round|Shape=RoundedRectangle|*
%AMROUNDEDRECTD112*
21,1,0.0965,0.0579,0,0,270.0*
21,1,0.0657,0.0887,0,0,270.0*
1,1,0.0308,-0.0289,-0.0329*
1,1,0.0308,-0.0289,0.0329*
1,1,0.0308,0.0289,0.0329*
1,1,0.0308,0.0289,-0.0329*
%
%ADD112ROUNDEDRECTD112*%
G04:AMPARAMS|DCode=113|XSize=33.9mil|YSize=41.8mil|CornerRadius=5.8mil|HoleSize=0mil|Usage=FLASHONLY|Rotation=90.000|XOffset=0mil|YOffset=0mil|HoleType=Round|Shape=RoundedRectangle|*
%AMROUNDEDRECTD113*
21,1,0.0339,0.0302,0,0,90.0*
21,1,0.0224,0.0418,0,0,90.0*
1,1,0.0116,0.0151,0.0112*
1,1,0.0116,0.0151,-0.0112*
1,1,0.0116,-0.0151,-0.0112*
1,1,0.0116,-0.0151,0.0112*
%
%ADD113ROUNDEDRECTD113*%
%ADD114O,0.0650X0.0341*%
G04:AMPARAMS|DCode=115|XSize=92.6mil|YSize=74.9mil|CornerRadius=20.2mil|HoleSize=0mil|Usage=FLASHONLY|Rotation=180.000|XOffset=0mil|YOffset=0mil|HoleType=Round|Shape=RoundedRectangle|*
%AMROUNDEDRECTD115*
21,1,0.0926,0.0344,0,0,180.0*
21,1,0.0522,0.0749,0,0,180.0*
1,1,0.0404,-0.0261,0.0172*
1,1,0.0404,0.0261,0.0172*
1,1,0.0404,0.0261,-0.0172*
1,1,0.0404,-0.0261,-0.0172*
%
%ADD115ROUNDEDRECTD115*%
G04:AMPARAMS|DCode=116|XSize=88.7mil|YSize=84.7mil|CornerRadius=22.7mil|HoleSize=0mil|Usage=FLASHONLY|Rotation=90.000|XOffset=0mil|YOffset=0mil|HoleType=Round|Shape=RoundedRectangle|*
%AMROUNDEDRECTD116*
21,1,0.0887,0.0394,0,0,90.0*
21,1,0.0433,0.0847,0,0,90.0*
1,1,0.0454,0.0197,0.0217*
1,1,0.0454,0.0197,-0.0217*
1,1,0.0454,-0.0197,-0.0217*
1,1,0.0454,-0.0197,0.0217*
%
%ADD116ROUNDEDRECTD116*%
%ADD117O,0.0906X0.0454*%
G04:AMPARAMS|DCode=118|XSize=285.5mil|YSize=224.5mil|CornerRadius=13.9mil|HoleSize=0mil|Usage=FLASHONLY|Rotation=0.000|XOffset=0mil|YOffset=0mil|HoleType=Round|Shape=RoundedRectangle|*
%AMROUNDEDRECTD118*
21,1,0.2855,0.1967,0,0,0.0*
21,1,0.2577,0.2245,0,0,0.0*
1,1,0.0278,0.1288,-0.0983*
1,1,0.0278,-0.1288,-0.0983*
1,1,0.0278,-0.1288,0.0983*
1,1,0.0278,0.1288,0.0983*
%
%ADD118ROUNDEDRECTD118*%
%ADD119R,0.1477X0.1753*%
%ADD120O,0.0926X0.0355*%
%ADD121C,0.0768*%
%ADD122R,0.0768X0.0768*%
%ADD123C,0.1635*%
%ADD124C,0.3209*%
%ADD125C,0.0660*%
%ADD126R,0.0660X0.0660*%
%ADD127C,0.0690*%
%ADD128C,0.0887*%
%ADD129R,0.0887X0.0887*%
%ADD130R,0.0660X0.0660*%
%ADD131R,0.0768X0.0768*%
%ADD132C,0.0532*%
G36*
X32492Y28154D02*
X32500Y28138D01*
X32504Y28126D01*
Y27728D01*
X32748D01*
X32760Y27720D01*
X32768Y27709D01*
Y26465D01*
X32760Y26453D01*
X32744Y26445D01*
X32504D01*
Y26039D01*
X32500Y26028D01*
X32492Y26016D01*
X32480Y26010D01*
X32382D01*
X32351Y26023D01*
X32339Y26053D01*
Y26295D01*
X32307D01*
Y26053D01*
X32294Y26023D01*
X32264Y26010D01*
X32165D01*
X32150Y26024D01*
X32142Y26047D01*
Y26445D01*
X31906D01*
X31886Y26449D01*
X31878Y26469D01*
Y27709D01*
X31886Y27720D01*
X31898Y27728D01*
X32142D01*
Y28138D01*
X32150Y28154D01*
X32165Y28163D01*
X32264D01*
X32294Y28151D01*
X32307Y28120D01*
Y27878D01*
X32339D01*
Y28120D01*
X32351Y28151D01*
X32382Y28163D01*
X32480D01*
X32492Y28154D01*
D02*
G37*
G36*
X37544Y14714D02*
X37639Y14675D01*
X37722Y14612D01*
X37785Y14529D01*
X37825Y14433D01*
X37838Y14331D01*
X37825Y14228D01*
X37785Y14132D01*
X37722Y14050D01*
X37639Y13987D01*
X37544Y13947D01*
X37441Y13934D01*
X37338Y13947D01*
X37242Y13987D01*
X37160Y14050D01*
X37097Y14132D01*
X37057Y14228D01*
X37044Y14331D01*
X37057Y14433D01*
X37097Y14529D01*
X37160Y14612D01*
X37242Y14675D01*
X37338Y14714D01*
X37441Y14728D01*
X37544Y14714D01*
D02*
G37*
G36*
X15260Y32076D02*
X15356Y32037D01*
X15438Y31974D01*
X15501Y31891D01*
X15541Y31796D01*
X15555Y31693D01*
X15541Y31590D01*
X15501Y31494D01*
X15438Y31412D01*
X15356Y31349D01*
X15260Y31309D01*
X15157Y31296D01*
X15055Y31309D01*
X14959Y31349D01*
X14877Y31412D01*
X14814Y31494D01*
X14774Y31590D01*
X14760Y31693D01*
X14774Y31796D01*
X14814Y31891D01*
X14877Y31974D01*
X14959Y32037D01*
X15055Y32076D01*
X15157Y32090D01*
X15260Y32076D01*
D02*
G37*
G36*
X29831Y34942D02*
X29834Y34940D01*
X29837Y34941D01*
X30056Y34897D01*
X30058Y34895D01*
X30061Y34895D01*
X30272Y34822D01*
X30274Y34820D01*
X30277Y34820D01*
X30476Y34720D01*
X30478Y34718D01*
X30481Y34717D01*
X30665Y34591D01*
X30667Y34589D01*
X30669Y34588D01*
X30835Y34439D01*
X30836Y34437D01*
X30837Y34437D01*
X30839Y34434D01*
X30840Y34433D01*
X30842Y34432D01*
X30947Y34305D01*
X30948Y34302D01*
X30951Y34300D01*
X31035Y34158D01*
X31036Y34155D01*
X31038Y34152D01*
X31099Y33999D01*
X31099Y33998D01*
X31101Y33996D01*
X31142Y33862D01*
X31142Y33858D01*
X31144Y33854D01*
X31153Y33781D01*
X31150Y33773D01*
X31151Y33765D01*
X31133Y33694D01*
X31128Y33688D01*
X31126Y33680D01*
X31082Y33621D01*
X31075Y33616D01*
X31070Y33610D01*
X31008Y33570D01*
X31000Y33569D01*
X30993Y33564D01*
X30921Y33551D01*
X30917Y33552D01*
X30913Y33550D01*
X28307D01*
X28303Y33552D01*
X28299Y33551D01*
X28225Y33565D01*
X28218Y33569D01*
X28210Y33571D01*
X28146Y33611D01*
X28141Y33618D01*
X28134Y33622D01*
X28090Y33683D01*
X28088Y33691D01*
X28083Y33698D01*
X28063Y33771D01*
X28064Y33779D01*
X28062Y33787D01*
X28071Y33862D01*
X28073Y33866D01*
X28073Y33870D01*
X28113Y33999D01*
X28114Y34001D01*
X28114Y34002D01*
X28175Y34153D01*
X28177Y34156D01*
X28178Y34159D01*
X28261Y34299D01*
X28264Y34301D01*
X28265Y34305D01*
X28369Y34430D01*
X28370Y34430D01*
X28371Y34432D01*
X28375Y34437D01*
X28377Y34437D01*
X28378Y34439D01*
X28543Y34588D01*
X28546Y34589D01*
X28548Y34591D01*
X28732Y34717D01*
X28735Y34718D01*
X28737Y34720D01*
X28936Y34820D01*
X28939Y34820D01*
X28941Y34822D01*
X29151Y34895D01*
X29155Y34895D01*
X29157Y34897D01*
X29375Y34941D01*
X29378Y34940D01*
X29381Y34942D01*
X29603Y34956D01*
X29606Y34956D01*
X29609Y34956D01*
X29831Y34942D01*
D02*
G37*
G36*
X30909Y32590D02*
X30913Y32591D01*
X30988Y32577D01*
X30994Y32572D01*
X31003Y32571D01*
X31067Y32531D01*
X31071Y32524D01*
X31078Y32520D01*
X31123Y32459D01*
X31125Y32451D01*
X31130Y32444D01*
X31149Y32371D01*
X31148Y32363D01*
X31151Y32355D01*
X31142Y32280D01*
X31140Y32276D01*
X31140Y32272D01*
X31100Y32142D01*
X31098Y32141D01*
X31098Y32139D01*
X31038Y31988D01*
X31035Y31986D01*
X31035Y31982D01*
X30952Y31843D01*
X30949Y31841D01*
X30948Y31837D01*
X30844Y31712D01*
X30842Y31711D01*
X30842Y31710D01*
X30837Y31705D01*
X30836Y31704D01*
X30835Y31703D01*
X30669Y31554D01*
X30667Y31553D01*
X30665Y31550D01*
X30481Y31425D01*
X30478Y31424D01*
X30476Y31422D01*
X30277Y31322D01*
X30274Y31321D01*
X30272Y31319D01*
X30061Y31247D01*
X30058Y31247D01*
X30056Y31245D01*
X29837Y31201D01*
X29834Y31201D01*
X29831Y31200D01*
X29609Y31185D01*
X29606Y31186D01*
X29603Y31185D01*
X29381Y31200D01*
X29378Y31201D01*
X29375Y31201D01*
X29157Y31245D01*
X29155Y31247D01*
X29151Y31247D01*
X28941Y31319D01*
X28939Y31321D01*
X28936Y31322D01*
X28737Y31422D01*
X28735Y31424D01*
X28732Y31425D01*
X28548Y31550D01*
X28546Y31553D01*
X28543Y31554D01*
X28378Y31703D01*
X28377Y31704D01*
X28375Y31705D01*
X28373Y31707D01*
X28373Y31709D01*
X28371Y31710D01*
X28266Y31837D01*
X28265Y31840D01*
X28262Y31842D01*
X28177Y31983D01*
X28177Y31987D01*
X28175Y31989D01*
X28113Y32142D01*
X28113Y32144D01*
X28112Y32145D01*
X28070Y32280D01*
X28071Y32284D01*
X28068Y32287D01*
X28060Y32360D01*
X28062Y32368D01*
X28061Y32376D01*
X28080Y32447D01*
X28085Y32454D01*
X28087Y32462D01*
X28130Y32521D01*
X28137Y32525D01*
X28142Y32532D01*
X28204Y32571D01*
X28212Y32573D01*
X28219Y32577D01*
X28291Y32591D01*
X28296Y32590D01*
X28299Y32592D01*
X30905D01*
X30909Y32590D01*
D02*
G37*
D93*
X21614Y22362D02*
D03*
Y25276D02*
D03*
D94*
X26634Y33110D02*
D03*
X27304D02*
D03*
X16516Y13228D02*
D03*
X15846D02*
D03*
X26634Y32598D02*
D03*
X27304D02*
D03*
X29311Y24488D02*
D03*
X28641D02*
D03*
X34705Y22795D02*
D03*
X34035D02*
D03*
X34705Y23819D02*
D03*
X34035D02*
D03*
X35099Y34606D02*
D03*
X34429D02*
D03*
X31948Y25394D02*
D03*
X32618D02*
D03*
D95*
X16384Y18750D02*
D03*
X16784Y17840D02*
D03*
X15984D02*
D03*
X18353Y18750D02*
D03*
X18753Y17840D02*
D03*
X17953D02*
D03*
D96*
X26339Y31142D02*
D03*
D97*
X25374Y30392D02*
D03*
Y30892D02*
D03*
Y31392D02*
D03*
Y31892D02*
D03*
X27303Y30892D02*
D03*
Y30392D02*
D03*
Y31892D02*
D03*
Y31392D02*
D03*
D98*
X14892Y17126D02*
D03*
X15502D02*
D03*
X17372Y16496D02*
D03*
X17982D02*
D03*
X17963Y17087D02*
D03*
X18573D02*
D03*
X28632Y25039D02*
D03*
X29242D02*
D03*
X15994Y17126D02*
D03*
X16604D02*
D03*
X36211Y21614D02*
D03*
X35601D02*
D03*
X37273D02*
D03*
X36663D02*
D03*
D99*
X29488Y21555D02*
D03*
Y22225D02*
D03*
X27913Y21555D02*
D03*
Y22225D02*
D03*
X31260Y20767D02*
D03*
Y21437D02*
D03*
X30433Y20767D02*
D03*
Y21437D02*
D03*
X27795Y18170D02*
D03*
Y17500D02*
D03*
X20945Y16713D02*
D03*
Y16043D02*
D03*
X14567Y14153D02*
D03*
Y14823D02*
D03*
X22402Y16713D02*
D03*
Y16043D02*
D03*
X24331Y30965D02*
D03*
Y30295D02*
D03*
X32087Y22500D02*
D03*
Y21830D02*
D03*
X33858Y25807D02*
D03*
Y26477D02*
D03*
X30787Y26279D02*
D03*
Y26949D02*
D03*
X30157Y29429D02*
D03*
Y28759D02*
D03*
X13937Y16279D02*
D03*
Y16949D02*
D03*
D100*
X20236Y15593D02*
D03*
Y16693D02*
D03*
X23110Y15593D02*
D03*
Y16693D02*
D03*
D101*
X18307Y29961D02*
D03*
X19449D02*
D03*
D102*
X33585Y22087D02*
D03*
X34685D02*
D03*
X33585Y24528D02*
D03*
X34685D02*
D03*
D103*
X32638Y33503D02*
D03*
Y31143D02*
D03*
D104*
X22205Y17815D02*
D03*
X22520D02*
D03*
X20945D02*
D03*
X21260D02*
D03*
X21575D02*
D03*
X21890D02*
D03*
X22520Y18799D02*
D03*
X22205D02*
D03*
X21890D02*
D03*
X21575D02*
D03*
X21260D02*
D03*
X20945D02*
D03*
D105*
X22598Y18307D02*
D03*
X20866D02*
D03*
D106*
X38189Y23307D02*
D03*
D107*
X35827D02*
D03*
Y23807D02*
D03*
Y24307D02*
D03*
Y22307D02*
D03*
Y22807D02*
D03*
D108*
X32992Y26398D02*
D03*
Y26594D02*
D03*
Y26791D02*
D03*
Y26988D02*
D03*
Y27185D02*
D03*
Y27382D02*
D03*
Y27579D02*
D03*
Y27776D02*
D03*
X31654D02*
D03*
Y27579D02*
D03*
Y27382D02*
D03*
Y27185D02*
D03*
Y26988D02*
D03*
Y26791D02*
D03*
Y26594D02*
D03*
Y26398D02*
D03*
D109*
X32618Y27953D02*
D03*
X32028D02*
D03*
X32618Y26220D02*
D03*
X32028D02*
D03*
D110*
X31201Y18937D02*
D03*
X31004D02*
D03*
X30807D02*
D03*
X30610D02*
D03*
X30413D02*
D03*
X30217D02*
D03*
X30020D02*
D03*
X29823D02*
D03*
X29626D02*
D03*
X33366D02*
D03*
X33169D02*
D03*
X32972D02*
D03*
X32776D02*
D03*
X32579D02*
D03*
X32382D02*
D03*
X32185D02*
D03*
X31988D02*
D03*
X31791D02*
D03*
X29626Y13661D02*
D03*
X29823D02*
D03*
X30020D02*
D03*
X30217D02*
D03*
X30413D02*
D03*
X30610D02*
D03*
X30807D02*
D03*
X31004D02*
D03*
X31201D02*
D03*
X31791D02*
D03*
X31988D02*
D03*
X32185D02*
D03*
X32382D02*
D03*
X32579D02*
D03*
X32776D02*
D03*
X32972D02*
D03*
X33169D02*
D03*
X33366D02*
D03*
X31594Y18937D02*
D03*
X31398D02*
D03*
Y13661D02*
D03*
X31594D02*
D03*
D111*
X28858Y17972D02*
D03*
Y17776D02*
D03*
Y17579D02*
D03*
Y17382D02*
D03*
Y17185D02*
D03*
Y16988D02*
D03*
Y16791D02*
D03*
Y16594D02*
D03*
Y16398D02*
D03*
Y16201D02*
D03*
Y16004D02*
D03*
Y15807D02*
D03*
Y15610D02*
D03*
X34134D02*
D03*
Y15807D02*
D03*
Y16004D02*
D03*
Y16201D02*
D03*
Y16398D02*
D03*
Y16594D02*
D03*
Y16791D02*
D03*
Y16988D02*
D03*
Y17185D02*
D03*
Y17382D02*
D03*
Y17579D02*
D03*
Y17776D02*
D03*
Y17972D02*
D03*
X28858Y15020D02*
D03*
Y14823D02*
D03*
Y14626D02*
D03*
Y14429D02*
D03*
X34134D02*
D03*
Y14626D02*
D03*
Y14823D02*
D03*
Y15020D02*
D03*
X28858Y18169D02*
D03*
Y15413D02*
D03*
Y15217D02*
D03*
X34134D02*
D03*
Y15413D02*
D03*
Y18169D02*
D03*
D112*
X27913Y20472D02*
D03*
X29488D02*
D03*
D113*
X35394Y18750D02*
D03*
Y19360D02*
D03*
X14685Y12097D02*
D03*
Y12707D02*
D03*
X23071Y22372D02*
D03*
Y22982D02*
D03*
X26102Y25049D02*
D03*
Y25659D02*
D03*
X32598Y22923D02*
D03*
Y23533D02*
D03*
X32598Y22431D02*
D03*
Y21821D02*
D03*
X24331Y31506D02*
D03*
Y32116D02*
D03*
Y32569D02*
D03*
Y33179D02*
D03*
X26024Y33140D02*
D03*
Y32530D02*
D03*
X29646Y29399D02*
D03*
Y28789D02*
D03*
X34567Y29399D02*
D03*
Y28789D02*
D03*
X33543Y29399D02*
D03*
Y28789D02*
D03*
X34055Y29399D02*
D03*
Y28789D02*
D03*
X31181Y29399D02*
D03*
Y28789D02*
D03*
X33031Y29399D02*
D03*
Y28789D02*
D03*
X30669Y29399D02*
D03*
Y28789D02*
D03*
D114*
X26841Y25046D02*
D03*
X27751Y24646D02*
D03*
Y25446D02*
D03*
D115*
X30610Y30394D02*
D03*
X28996D02*
D03*
D116*
X25630Y34291D02*
D03*
X27441D02*
D03*
D117*
X14921Y32685D02*
D03*
Y34480D02*
D03*
D118*
X17480Y33583D02*
D03*
D119*
X17165Y14882D02*
D03*
D120*
X15845Y15132D02*
D03*
X18485D02*
D03*
X15845Y14132D02*
D03*
Y14632D02*
D03*
Y15632D02*
D03*
X18485Y14132D02*
D03*
Y14632D02*
D03*
Y15632D02*
D03*
D121*
X19488Y21181D02*
D03*
Y22165D02*
D03*
Y23150D02*
D03*
Y24134D02*
D03*
Y25118D02*
D03*
X37205Y30276D02*
D03*
X36220D02*
D03*
D122*
X19488Y20197D02*
D03*
D123*
X36260Y20433D02*
D03*
X22874D02*
D03*
X11614Y25000D02*
D03*
Y20276D02*
D03*
D124*
X37205Y33268D02*
D03*
Y12008D02*
D03*
X12402D02*
D03*
Y33268D02*
D03*
D125*
X21220Y33929D02*
D03*
X16835Y12102D02*
D03*
X19835D02*
D03*
X22835D02*
D03*
X16835Y11102D02*
D03*
X19835D02*
D03*
X15835Y12102D02*
D03*
X17835D02*
D03*
X18835D02*
D03*
X20835D02*
D03*
X21835D02*
D03*
X15835Y11102D02*
D03*
X17835D02*
D03*
X18835D02*
D03*
X20835D02*
D03*
X21835D02*
D03*
X16835Y28638D02*
D03*
X19835D02*
D03*
X22835D02*
D03*
X16835Y27638D02*
D03*
X19835D02*
D03*
X15835Y28638D02*
D03*
X17835D02*
D03*
X18835D02*
D03*
X20835D02*
D03*
X21835D02*
D03*
X15835Y27638D02*
D03*
X17835D02*
D03*
X18835D02*
D03*
X20835D02*
D03*
X21835D02*
D03*
X36520Y18740D02*
D03*
D126*
X21220Y31929D02*
D03*
D127*
X12008Y30551D02*
D03*
X14008D02*
D03*
D128*
X19252Y30984D02*
D03*
D129*
X16890D02*
D03*
D130*
X22835Y11102D02*
D03*
Y27638D02*
D03*
X37520Y18740D02*
D03*
D131*
X38189Y30276D02*
D03*
D132*
X30433Y20039D02*
D03*
X31260D02*
D03*
M02*
