G04*
G04 #@! TF.GenerationSoftware,Altium Limited,Altium Designer,18.0.9 (584)*
G04*
G04 Layer_Color=8388736*
%FSLAX24Y24*%
%MOIN*%
G70*
G01*
G75*
%ADD20O,0.0454X0.0906*%
G04:AMPARAMS|DCode=36|XSize=287.5mil|YSize=226.5mil|CornerRadius=14.9mil|HoleSize=0mil|Usage=FLASHONLY|Rotation=90.000|XOffset=0mil|YOffset=0mil|HoleType=Round|Shape=RoundedRectangle|*
%AMROUNDEDRECTD36*
21,1,0.2875,0.1967,0,0,90.0*
21,1,0.2577,0.2265,0,0,90.0*
1,1,0.0299,0.0983,0.1288*
1,1,0.0299,0.0983,-0.1288*
1,1,0.0299,-0.0983,-0.1288*
1,1,0.0299,-0.0983,0.1288*
%
%ADD36ROUNDEDRECTD36*%
%ADD37R,0.0433X0.0394*%
%ADD38O,0.0320X0.0630*%
%ADD39R,0.0394X0.0433*%
%ADD40R,0.0394X0.0315*%
%ADD41O,0.0335X0.0839*%
G04:AMPARAMS|DCode=42|XSize=94.5mil|YSize=86.6mil|CornerRadius=14.4mil|HoleSize=0mil|Usage=FLASHONLY|Rotation=270.000|XOffset=0mil|YOffset=0mil|HoleType=Round|Shape=RoundedRectangle|*
%AMROUNDEDRECTD42*
21,1,0.0945,0.0579,0,0,270.0*
21,1,0.0657,0.0866,0,0,270.0*
1,1,0.0287,-0.0289,-0.0329*
1,1,0.0287,-0.0289,0.0329*
1,1,0.0287,0.0289,0.0329*
1,1,0.0287,0.0289,-0.0329*
%
%ADD42ROUNDEDRECTD42*%
%ADD43O,0.0335X0.0889*%
%ADD44O,0.0669X0.0157*%
%ADD45O,0.0157X0.0669*%
%ADD46R,0.0492X0.0610*%
%ADD47O,0.0571X0.0276*%
%ADD48R,0.0315X0.0394*%
%ADD49O,0.0839X0.0335*%
G04:AMPARAMS|DCode=50|XSize=114.2mil|YSize=63mil|CornerRadius=16.7mil|HoleSize=0mil|Usage=FLASHONLY|Rotation=90.000|XOffset=0mil|YOffset=0mil|HoleType=Round|Shape=RoundedRectangle|*
%AMROUNDEDRECTD50*
21,1,0.1142,0.0295,0,0,90.0*
21,1,0.0807,0.0630,0,0,90.0*
1,1,0.0335,0.0148,0.0404*
1,1,0.0335,0.0148,-0.0404*
1,1,0.0335,-0.0148,-0.0404*
1,1,0.0335,-0.0148,0.0404*
%
%ADD50ROUNDEDRECTD50*%
G04:AMPARAMS|DCode=51|XSize=86.6mil|YSize=82.7mil|CornerRadius=21.7mil|HoleSize=0mil|Usage=FLASHONLY|Rotation=0.000|XOffset=0mil|YOffset=0mil|HoleType=Round|Shape=RoundedRectangle|*
%AMROUNDEDRECTD51*
21,1,0.0866,0.0394,0,0,0.0*
21,1,0.0433,0.0827,0,0,0.0*
1,1,0.0433,0.0217,-0.0197*
1,1,0.0433,-0.0217,-0.0197*
1,1,0.0433,-0.0217,0.0197*
1,1,0.0433,0.0217,0.0197*
%
%ADD51ROUNDEDRECTD51*%
%ADD52O,0.0630X0.0320*%
%ADD53R,0.0591X0.0453*%
G04:AMPARAMS|DCode=54|XSize=90.6mil|YSize=72.8mil|CornerRadius=19.2mil|HoleSize=0mil|Usage=FLASHONLY|Rotation=180.000|XOffset=0mil|YOffset=0mil|HoleType=Round|Shape=RoundedRectangle|*
%AMROUNDEDRECTD54*
21,1,0.0906,0.0344,0,0,180.0*
21,1,0.0522,0.0728,0,0,180.0*
1,1,0.0384,-0.0261,0.0172*
1,1,0.0384,0.0261,0.0172*
1,1,0.0384,0.0261,-0.0172*
1,1,0.0384,-0.0261,-0.0172*
%
%ADD54ROUNDEDRECTD54*%
%ADD55R,0.0433X0.0433*%
%ADD56R,0.0728X0.0453*%
%ADD57C,0.0512*%
%ADD58R,0.0453X0.0728*%
%ADD59R,0.0591X0.0748*%
G04:AMPARAMS|DCode=60|XSize=86.6mil|YSize=82.7mil|CornerRadius=21.7mil|HoleSize=0mil|Usage=FLASHONLY|Rotation=270.000|XOffset=0mil|YOffset=0mil|HoleType=Round|Shape=RoundedRectangle|*
%AMROUNDEDRECTD60*
21,1,0.0866,0.0394,0,0,270.0*
21,1,0.0433,0.0827,0,0,270.0*
1,1,0.0433,-0.0197,-0.0217*
1,1,0.0433,-0.0197,0.0217*
1,1,0.0433,0.0197,0.0217*
1,1,0.0433,0.0197,-0.0217*
%
%ADD60ROUNDEDRECTD60*%
G04:AMPARAMS|DCode=61|XSize=90.6mil|YSize=72.8mil|CornerRadius=19.2mil|HoleSize=0mil|Usage=FLASHONLY|Rotation=270.000|XOffset=0mil|YOffset=0mil|HoleType=Round|Shape=RoundedRectangle|*
%AMROUNDEDRECTD61*
21,1,0.0906,0.0344,0,0,270.0*
21,1,0.0522,0.0728,0,0,270.0*
1,1,0.0384,-0.0172,-0.0261*
1,1,0.0384,-0.0172,0.0261*
1,1,0.0384,0.0172,0.0261*
1,1,0.0384,0.0172,-0.0261*
%
%ADD61ROUNDEDRECTD61*%
G04:AMPARAMS|DCode=62|XSize=198.8mil|YSize=74.8mil|CornerRadius=19.7mil|HoleSize=0mil|Usage=FLASHONLY|Rotation=0.000|XOffset=0mil|YOffset=0mil|HoleType=Round|Shape=RoundedRectangle|*
%AMROUNDEDRECTD62*
21,1,0.1988,0.0354,0,0,0.0*
21,1,0.1594,0.0748,0,0,0.0*
1,1,0.0394,0.0797,-0.0177*
1,1,0.0394,-0.0797,-0.0177*
1,1,0.0394,-0.0797,0.0177*
1,1,0.0394,0.0797,0.0177*
%
%ADD62ROUNDEDRECTD62*%
%ADD63R,0.0453X0.0591*%
%ADD64C,0.0669*%
%ADD65R,0.0669X0.0669*%
%ADD66R,0.0669X0.0669*%
%ADD67C,0.0639*%
%ADD68R,0.0639X0.0639*%
%ADD69C,0.0748*%
%ADD70R,0.0748X0.0748*%
%ADD71C,0.1220*%
G36*
X32583Y42687D02*
X32679Y42647D01*
X32761Y42584D01*
X32824Y42502D01*
X32864Y42406D01*
X32877Y42303D01*
X32864Y42200D01*
X32824Y42105D01*
X32761Y42022D01*
X32679Y41959D01*
X32583Y41920D01*
X32480Y41906D01*
X32378Y41920D01*
X32282Y41959D01*
X32200Y42022D01*
X32136Y42105D01*
X32097Y42200D01*
X32083Y42303D01*
X32097Y42406D01*
X32136Y42502D01*
X32200Y42584D01*
X32282Y42647D01*
X32378Y42687D01*
X32480Y42700D01*
X32583Y42687D01*
D02*
G37*
G36*
X25161Y29459D02*
X25165Y29457D01*
X25169Y29457D01*
X25298Y29417D01*
X25300Y29415D01*
X25302Y29415D01*
X25453Y29355D01*
X25455Y29352D01*
X25459Y29352D01*
X25598Y29269D01*
X25600Y29266D01*
X25604Y29265D01*
X25729Y29161D01*
X25730Y29159D01*
X25731Y29159D01*
X25736Y29154D01*
X25736Y29153D01*
X25738Y29152D01*
X25887Y28986D01*
X25888Y28984D01*
X25890Y28982D01*
X26016Y28798D01*
X26017Y28795D01*
X26019Y28793D01*
X26119Y28594D01*
X26119Y28591D01*
X26122Y28589D01*
X26194Y28378D01*
X26194Y28375D01*
X26196Y28372D01*
X26240Y28154D01*
X26240Y28151D01*
X26241Y28148D01*
X26256Y27926D01*
X26255Y27923D01*
X26256Y27920D01*
X26241Y27698D01*
X26240Y27695D01*
X26240Y27692D01*
X26196Y27474D01*
X26194Y27471D01*
X26194Y27468D01*
X26122Y27258D01*
X26119Y27256D01*
X26119Y27253D01*
X26019Y27054D01*
X26017Y27052D01*
X26016Y27049D01*
X25890Y26865D01*
X25888Y26863D01*
X25887Y26860D01*
X25738Y26694D01*
X25736Y26694D01*
X25736Y26692D01*
X25734Y26690D01*
X25732Y26689D01*
X25731Y26688D01*
X25604Y26583D01*
X25601Y26582D01*
X25599Y26579D01*
X25458Y26494D01*
X25454Y26494D01*
X25451Y26491D01*
X25299Y26430D01*
X25297Y26430D01*
X25295Y26429D01*
X25161Y26387D01*
X25157Y26387D01*
X25153Y26385D01*
X25081Y26377D01*
X25073Y26379D01*
X25064Y26378D01*
X24993Y26397D01*
X24987Y26402D01*
X24979Y26404D01*
X24920Y26447D01*
X24915Y26454D01*
X24909Y26459D01*
X24870Y26521D01*
X24868Y26529D01*
X24864Y26536D01*
X24850Y26608D01*
X24851Y26612D01*
X24849Y26616D01*
Y29222D01*
X24851Y29226D01*
X24850Y29230D01*
X24864Y29304D01*
X24869Y29311D01*
X24870Y29319D01*
X24910Y29383D01*
X24917Y29388D01*
X24921Y29395D01*
X24982Y29440D01*
X24990Y29442D01*
X24997Y29447D01*
X25070Y29466D01*
X25078Y29465D01*
X25086Y29467D01*
X25161Y29459D01*
D02*
G37*
G36*
X23668Y29467D02*
X23676Y29468D01*
X23747Y29450D01*
X23753Y29445D01*
X23761Y29443D01*
X23820Y29399D01*
X23825Y29392D01*
X23831Y29387D01*
X23871Y29325D01*
X23872Y29317D01*
X23876Y29310D01*
X23890Y29238D01*
X23889Y29234D01*
X23891Y29230D01*
Y26624D01*
X23889Y26620D01*
X23890Y26616D01*
X23876Y26542D01*
X23872Y26535D01*
X23870Y26527D01*
X23830Y26463D01*
X23823Y26458D01*
X23819Y26451D01*
X23758Y26406D01*
X23750Y26404D01*
X23743Y26399D01*
X23670Y26380D01*
X23662Y26381D01*
X23654Y26379D01*
X23579Y26388D01*
X23575Y26390D01*
X23571Y26389D01*
X23442Y26430D01*
X23440Y26431D01*
X23438Y26431D01*
X23288Y26492D01*
X23285Y26494D01*
X23282Y26495D01*
X23142Y26578D01*
X23140Y26581D01*
X23136Y26582D01*
X23011Y26686D01*
X23011Y26687D01*
X23009Y26688D01*
X23004Y26692D01*
X23004Y26694D01*
X23002Y26694D01*
X22853Y26860D01*
X22852Y26863D01*
X22850Y26865D01*
X22724Y27049D01*
X22723Y27052D01*
X22721Y27054D01*
X22621Y27253D01*
X22621Y27256D01*
X22619Y27258D01*
X22546Y27468D01*
X22546Y27471D01*
X22544Y27474D01*
X22500Y27692D01*
X22501Y27695D01*
X22499Y27698D01*
X22484Y27920D01*
X22485Y27923D01*
X22484Y27926D01*
X22499Y28148D01*
X22501Y28151D01*
X22500Y28154D01*
X22544Y28372D01*
X22546Y28375D01*
X22546Y28378D01*
X22619Y28589D01*
X22621Y28591D01*
X22621Y28594D01*
X22721Y28793D01*
X22723Y28795D01*
X22724Y28798D01*
X22850Y28982D01*
X22852Y28984D01*
X22853Y28986D01*
X23002Y29152D01*
X23004Y29153D01*
X23004Y29154D01*
X23007Y29156D01*
X23008Y29157D01*
X23009Y29159D01*
X23136Y29264D01*
X23139Y29265D01*
X23141Y29268D01*
X23283Y29352D01*
X23286Y29353D01*
X23289Y29355D01*
X23441Y29416D01*
X23443Y29416D01*
X23445Y29417D01*
X23579Y29459D01*
X23583Y29459D01*
X23587Y29461D01*
X23660Y29470D01*
X23668Y29467D01*
D02*
G37*
G36*
X20477Y18346D02*
X20573Y18306D01*
X20655Y18243D01*
X20718Y18161D01*
X20758Y18065D01*
X20771Y17963D01*
X20758Y17860D01*
X20718Y17764D01*
X20655Y17682D01*
X20573Y17619D01*
X20477Y17579D01*
X20374Y17565D01*
X20271Y17579D01*
X20175Y17619D01*
X20093Y17682D01*
X20030Y17764D01*
X19990Y17860D01*
X19977Y17963D01*
X19990Y18065D01*
X20030Y18161D01*
X20093Y18243D01*
X20175Y18306D01*
X20271Y18346D01*
X20374Y18360D01*
X20477Y18346D01*
D02*
G37*
D20*
X24018Y16348D02*
D03*
X22222D02*
D03*
D36*
X23120Y18907D02*
D03*
D37*
X30994Y32746D02*
D03*
X30325D02*
D03*
X24882Y35482D02*
D03*
X25551D02*
D03*
X21624Y38268D02*
D03*
X20955D02*
D03*
X22746Y40363D02*
D03*
X22077D02*
D03*
X20640Y40364D02*
D03*
X21309D02*
D03*
X23602Y31407D02*
D03*
X22933D02*
D03*
X30157Y40315D02*
D03*
X29488D02*
D03*
X20423Y28376D02*
D03*
X19754D02*
D03*
X23907Y25699D02*
D03*
X23238D02*
D03*
X25561Y19695D02*
D03*
X26230D02*
D03*
D38*
X29400Y28465D02*
D03*
X29000Y27555D02*
D03*
X29800D02*
D03*
X29400Y30010D02*
D03*
X29000Y29100D02*
D03*
X29800D02*
D03*
X28297Y19085D02*
D03*
X27897Y19995D02*
D03*
X28697D02*
D03*
X27323Y16339D02*
D03*
X26923Y17249D02*
D03*
X27723D02*
D03*
D39*
X25157Y32648D02*
D03*
Y33317D02*
D03*
X19793Y35226D02*
D03*
Y34557D02*
D03*
X19792Y36585D02*
D03*
Y37254D02*
D03*
X24577Y38780D02*
D03*
Y39449D02*
D03*
X19695Y29321D02*
D03*
Y29990D02*
D03*
X29419Y41348D02*
D03*
Y42018D02*
D03*
X24518Y41339D02*
D03*
Y42008D02*
D03*
X30915Y40315D02*
D03*
Y40984D02*
D03*
X27884Y35797D02*
D03*
Y36467D02*
D03*
X27894Y37933D02*
D03*
Y37264D02*
D03*
Y39380D02*
D03*
Y38711D02*
D03*
D40*
X23632Y42362D02*
D03*
Y41752D02*
D03*
X22205Y31171D02*
D03*
Y30561D02*
D03*
X26870Y24065D02*
D03*
Y24675D02*
D03*
X26870Y23346D02*
D03*
Y22736D02*
D03*
X35354Y17638D02*
D03*
Y18248D02*
D03*
D41*
X25852Y31841D02*
D03*
X26352D02*
D03*
Y34041D02*
D03*
X25852D02*
D03*
X27352Y31841D02*
D03*
Y34041D02*
D03*
X26852Y31841D02*
D03*
Y34041D02*
D03*
X25667Y24907D02*
D03*
X25167D02*
D03*
Y22707D02*
D03*
X25667D02*
D03*
X24167Y24907D02*
D03*
Y22707D02*
D03*
X24667Y24907D02*
D03*
Y22707D02*
D03*
D42*
X20866Y39291D02*
D03*
X22441D02*
D03*
D43*
X26317Y39446D02*
D03*
Y36496D02*
D03*
X25317Y39446D02*
D03*
X25817D02*
D03*
X26817D02*
D03*
X25317Y36496D02*
D03*
X25817D02*
D03*
X26817D02*
D03*
D44*
X20807Y36969D02*
D03*
Y36772D02*
D03*
Y36575D02*
D03*
Y36378D02*
D03*
Y36181D02*
D03*
Y35984D02*
D03*
Y35787D02*
D03*
Y35591D02*
D03*
Y35394D02*
D03*
Y35197D02*
D03*
X24114D02*
D03*
Y35394D02*
D03*
Y35591D02*
D03*
Y35787D02*
D03*
Y35984D02*
D03*
Y36181D02*
D03*
Y36378D02*
D03*
Y36575D02*
D03*
Y36772D02*
D03*
Y36969D02*
D03*
X20807Y35000D02*
D03*
Y34803D02*
D03*
X24114D02*
D03*
Y35000D02*
D03*
D45*
X21378Y34232D02*
D03*
X21575D02*
D03*
X21772D02*
D03*
X21969D02*
D03*
X22165D02*
D03*
X22756D02*
D03*
X22953D02*
D03*
X23150D02*
D03*
X23346D02*
D03*
X23543D02*
D03*
X22362D02*
D03*
X22559D02*
D03*
X22165Y37539D02*
D03*
X21969D02*
D03*
X21772D02*
D03*
X21575D02*
D03*
X21378D02*
D03*
X23543D02*
D03*
X23346D02*
D03*
X23150D02*
D03*
X22953D02*
D03*
X22756D02*
D03*
X22559D02*
D03*
X22362D02*
D03*
D46*
X22933Y30699D02*
D03*
X23642D02*
D03*
X20463Y31447D02*
D03*
X21171D02*
D03*
D47*
X20463Y29990D02*
D03*
X21447D02*
D03*
X20463Y30738D02*
D03*
X21447D02*
D03*
X20463Y30364D02*
D03*
D48*
X22205Y29990D02*
D03*
X22815D02*
D03*
X26979Y41978D02*
D03*
X27589D02*
D03*
X27027Y41348D02*
D03*
X26417D02*
D03*
X24557Y25699D02*
D03*
X25167D02*
D03*
X35334Y28898D02*
D03*
X34724D02*
D03*
D49*
X28676Y35047D02*
D03*
Y34547D02*
D03*
X30876D02*
D03*
Y35047D02*
D03*
X28676Y33547D02*
D03*
X30876D02*
D03*
X28676Y34047D02*
D03*
X30876D02*
D03*
X30930Y37549D02*
D03*
X28730D02*
D03*
X30930Y38049D02*
D03*
Y38549D02*
D03*
Y39049D02*
D03*
Y39549D02*
D03*
Y36049D02*
D03*
Y36549D02*
D03*
Y37049D02*
D03*
X28730Y38049D02*
D03*
Y38549D02*
D03*
Y39049D02*
D03*
Y39549D02*
D03*
Y36049D02*
D03*
Y36549D02*
D03*
Y37049D02*
D03*
D50*
X31309Y31811D02*
D03*
X30049D02*
D03*
X31309Y30591D02*
D03*
X30049D02*
D03*
X29370Y25089D02*
D03*
X30630D02*
D03*
X29370Y22382D02*
D03*
X30630D02*
D03*
D51*
X27864Y29114D02*
D03*
Y27303D02*
D03*
X30925D02*
D03*
Y29114D02*
D03*
D52*
X29720Y23744D02*
D03*
X30630Y24144D02*
D03*
Y23344D02*
D03*
X26235Y16719D02*
D03*
X25325Y16319D02*
D03*
Y17119D02*
D03*
D53*
X35236Y39557D02*
D03*
Y38809D02*
D03*
X25167Y21083D02*
D03*
Y21831D02*
D03*
X25965Y21083D02*
D03*
Y21831D02*
D03*
X35236Y31614D02*
D03*
Y30866D02*
D03*
D54*
X28179Y26171D02*
D03*
X26565D02*
D03*
D55*
X23320Y27923D02*
D03*
X25420D02*
D03*
D56*
X26230Y17756D02*
D03*
Y18898D02*
D03*
X28494Y17480D02*
D03*
Y16339D02*
D03*
D57*
X32480Y42303D02*
D03*
X20374Y17963D02*
D03*
D58*
X28494Y18228D02*
D03*
X27352D02*
D03*
D59*
X33760Y18268D02*
D03*
X32618D02*
D03*
D60*
X33071Y16614D02*
D03*
X31260D02*
D03*
D61*
X30039Y18012D02*
D03*
Y16398D02*
D03*
D62*
X30472Y20787D02*
D03*
Y19055D02*
D03*
D63*
X34626Y28100D02*
D03*
X35374D02*
D03*
D64*
X28474Y42348D02*
D03*
X25502Y42343D02*
D03*
X22323Y42549D02*
D03*
Y41549D02*
D03*
X21323Y42549D02*
D03*
X20323D02*
D03*
X21323Y41549D02*
D03*
X32530Y28455D02*
D03*
D65*
X28474Y41348D02*
D03*
X25502Y41343D02*
D03*
D66*
X20323Y41549D02*
D03*
X33530Y28455D02*
D03*
D67*
X21457Y23545D02*
D03*
X21132Y25650D02*
D03*
X34331Y17152D02*
D03*
D68*
X21457Y21545D02*
D03*
X21132Y27028D02*
D03*
X34331Y16152D02*
D03*
D69*
X33780Y21969D02*
D03*
X32598D02*
D03*
Y20787D02*
D03*
X33780Y25748D02*
D03*
X32598D02*
D03*
Y24567D02*
D03*
X33780Y35236D02*
D03*
X32598Y34055D02*
D03*
Y35236D02*
D03*
X33780Y36417D02*
D03*
X32598D02*
D03*
D70*
X33780Y20787D02*
D03*
Y24567D02*
D03*
Y34055D02*
D03*
D71*
X35480Y21378D02*
D03*
Y25157D02*
D03*
X35472Y35236D02*
D03*
X20394Y16575D02*
D03*
X34488Y42323D02*
D03*
M02*
