M48
;Layer_Color=9474304
;FILE_FORMAT=2:4
INCH,LZ
;TYPE=PLATED
T1F00S00C0.0157
T2F00S00C0.0390
T3F00S00C0.0394
T4F00S00C0.0480
T5F00S00C0.1181
%
T01
X047215Y030679
X04812Y02997
X048809Y02938
X048701Y031014
X050492Y030089
X051171Y030118
X051998Y027451
X053819Y027717
X053848Y028386
X043907Y028868
X044065Y030512
X043435Y030701
X041929Y030709
X041339Y029528
X04252
X042254Y027815
X041339Y027165
X040423Y027835
X040748Y028346
X037795Y027165
Y029528
Y03189
X039813Y032126
X039843Y033337
X039823Y034341
X039567Y035433
X038386
X037795Y034252
X040748Y035433
X041929
X042776Y035453
X04252Y036614
X041339
X040157
X043701
X044882
X046063
Y034252
X044882
X043484Y034252
X044291Y033071
X043701Y03189
X044882
X046614Y032018
X046654Y033071
X041929
X041339Y03189
X042766Y031299
X047067Y03251
X047116Y033524
X049045Y033258
X048661Y034518
X050069Y034744
X050344Y034104
X051791Y034045
X05188Y033396
X053868Y033996
X053425Y031516
X050787Y036614
X050039Y0375
X047244Y036614
T02
X04498Y027205
X04598
T03
X048937Y027018
X050906
X052874
X04251
X040541
X038573
T04
X044213Y035709
Y037509
X046763
Y035709
T05
X038189Y036614
X052756
M30
