M48
;Layer_Color=9474304
;FILE_FORMAT=2:4
INCH,LZ
;TYPE=PLATED
T1F00S00C0.0118
T2F00S00C0.0394
T3F00S00C0.0472
T4F00S00C0.0630
%
T01
X01752Y001969
X018504Y003937
Y007874
X014567
X012598
X01063
X008661
X006693
X004724
X002756
X00374Y009843
X005709
X007677
X009646
X011614
Y005906
X013583
X009646
X007677
X005709
X00374
X004724Y003937
X006693
X008661
X01063
X007677Y001969
X005709
X00374
X002756Y003937
X001772Y009843
X015315Y010384
X015341Y010896
X015551Y001969
X016903Y011909
X016919Y012382
X015Y013484
X015197Y01378
X01499Y014094
X014537
X014685Y01374
X014852Y015896
X013583Y017717
X012352Y017795
X010738Y017667
X00997
X009975Y016782
X010468
X010472Y016289
X00998
X00998Y015797
X010472
X009488
X009488Y016289
X009483Y016782
X008986Y01749
X00815Y017589
X008169Y017303
X008268Y017037
X007766Y016722
X007402Y016791
X007008Y01687
X006624Y017047
X006407Y017411
X006388Y017785
Y01815
X006358Y018484
X006329Y018848
X006319Y019124
Y019429
X006152Y019616
X005866
X005591
X005305
X00502
X004734
X004459
X004173
X003888
X003602
X003327
X003041
X002766
X00249
X001772Y017717
X00374
X005709
X007106Y017884
X007116Y018179
X007146Y018484
Y01877
X007165Y019075
X007205Y01936
X007362Y019636
X007667
X007953
X008228
X008514
X008799
X009085
X00936
X009646
X009931
X010217
X010492
X010778
X011053
X011339
X011624
X011909
X012185
X01247
X012756
X013041
X013317
X013602
X013878
X014163
X014449
X014734
X01501
X015295
X015581
X015866
X016142
X016427
X016713
X016998
X01185Y015167
X011309Y015089
X010925Y014793
X010079Y014567
X009675Y014567
X009152Y014961
X008956Y013366
X009646Y012835
X0106Y013346
X011152Y013159
X011929Y013494
X006821Y01313
X006437Y01378
X005709Y01378
X006841Y014478
X006693Y015748
X006683Y01625
X007234Y017559
X007736Y018327
X008159Y017904
X004724Y015748
X00374Y01378
X001772
X002756Y011811
X004724
X006693
X018504
X018642Y014114
X017913Y017087
X017362Y01688
X017274Y019636
X017559
X017844
X01813
X018406
T02
X012913Y011392
Y012392
X014295Y017421
X015295
X016295
X017638Y016051
Y015051
Y014051
Y013051
Y012051
T03
X011004Y000827
X011988
X012972
T04
X001969Y006535
X016929
M30
