G04 Layer_Color=65535*
%FSLAX24Y24*%
%MOIN*%
G70*
G01*
G75*
%ADD10C,0.0079*%
%ADD44C,0.0098*%
%ADD71C,0.0070*%
%ADD72C,0.0236*%
%ADD73C,0.0100*%
%ADD74C,0.0071*%
%ADD75C,0.0039*%
%ADD76C,0.0050*%
%ADD77C,0.0067*%
G36*
X40120Y34108D02*
X39870D01*
Y34358D01*
X40120D01*
Y34108D01*
D02*
G37*
D10*
X47175Y31801D02*
Y31841D01*
X45207Y31801D02*
X47175D01*
X45207D02*
Y31841D01*
X47175Y33022D02*
Y33061D01*
X45207D02*
X47175D01*
X45207Y33022D02*
Y33061D01*
X46280Y30335D02*
X51398D01*
X46280Y25217D02*
X51398D01*
X46280D02*
Y30335D01*
X51398Y25217D02*
Y30335D01*
X47018Y35965D02*
X47116Y36063D01*
Y36526D01*
X47156Y36565D01*
X47175D01*
X46959Y36506D02*
X47008Y36555D01*
Y36929D01*
X47244Y37165D01*
X47274D01*
X46939Y37096D02*
X47087Y37244D01*
Y37254D01*
Y37667D01*
X47244Y37825D01*
X47293D01*
X47018Y37776D02*
Y38041D01*
X46998Y37756D02*
X47018Y37776D01*
X46939Y37756D02*
X46998D01*
X50374Y44360D02*
X50758D01*
X50576Y44158D02*
Y44542D01*
X39301Y41309D02*
X39734D01*
X39301Y41939D02*
X39734D01*
X50778Y37156D02*
X50797D01*
Y37372D01*
X48947Y37156D02*
X48967D01*
X48947D02*
Y37372D01*
X50778Y38612D02*
X50797D01*
Y38396D02*
Y38612D01*
X48947D02*
X48967D01*
X48947Y38396D02*
Y38612D01*
X50325Y40089D02*
Y40276D01*
Y41398D02*
Y41585D01*
X52530Y40089D02*
Y40276D01*
Y41398D02*
Y41585D01*
X50325Y40089D02*
X52530D01*
X50325Y41585D02*
X52530D01*
X44488Y40010D02*
X45354D01*
X44488Y41191D02*
X45354D01*
X40728Y44665D02*
X41220D01*
X40965Y44429D02*
Y44921D01*
X46457Y42411D02*
Y44498D01*
X45315Y42411D02*
Y44498D01*
X46348Y42411D02*
X46457D01*
X45315D02*
X45423D01*
X46348Y44498D02*
X46457D01*
X45315D02*
X45423D01*
X48937Y31870D02*
Y32421D01*
X50157Y31870D02*
Y32421D01*
X48937Y31870D02*
X50157D01*
X48937Y32421D02*
X50157D01*
X37234Y42598D02*
X37667D01*
X37234Y45236D02*
X37667D01*
X37234Y42598D02*
Y45236D01*
X41240Y29400D02*
X42303D01*
Y28337D02*
Y29400D01*
X41240Y28337D02*
Y29400D01*
Y28337D02*
X42303D01*
X53520Y45200D02*
X53455Y45266D01*
X53323D01*
X53258Y45200D01*
Y44938D01*
X53323Y44872D01*
X53455D01*
X53520Y44938D01*
X53848Y44872D02*
Y45266D01*
X53651Y45069D01*
X53914D01*
X54307Y45266D02*
X54045D01*
Y45069D01*
X54176Y45134D01*
X54242D01*
X54307Y45069D01*
Y44938D01*
X54242Y44872D01*
X54111D01*
X54045Y44938D01*
X53274Y37949D02*
X53209Y37884D01*
Y37753D01*
X53274Y37687D01*
X53537D01*
X53602Y37753D01*
Y37884D01*
X53537Y37949D01*
X53274Y38081D02*
X53209Y38146D01*
Y38277D01*
X53274Y38343D01*
X53340D01*
X53406Y38277D01*
Y38212D01*
Y38277D01*
X53471Y38343D01*
X53537D01*
X53602Y38277D01*
Y38146D01*
X53537Y38081D01*
X53209Y38474D02*
Y38737D01*
X53274D01*
X53537Y38474D01*
X53602D01*
X46906Y34334D02*
X46840Y34399D01*
X46709D01*
X46644Y34334D01*
Y34072D01*
X46709Y34006D01*
X46840D01*
X46906Y34072D01*
X47037Y34006D02*
X47168D01*
X47103D01*
Y34399D01*
X47037Y34334D01*
X45390Y34354D02*
X45325Y34419D01*
X45194D01*
X45128Y34354D01*
Y34091D01*
X45194Y34026D01*
X45325D01*
X45390Y34091D01*
X45784Y34026D02*
X45522D01*
X45784Y34288D01*
Y34354D01*
X45718Y34419D01*
X45587D01*
X45522Y34354D01*
X56197Y31854D02*
X56132Y31919D01*
X56001D01*
X55935Y31854D01*
Y31591D01*
X56001Y31526D01*
X56132D01*
X56197Y31591D01*
X56329Y31854D02*
X56394Y31919D01*
X56525D01*
X56591Y31854D01*
Y31788D01*
X56525Y31722D01*
X56460D01*
X56525D01*
X56591Y31657D01*
Y31591D01*
X56525Y31526D01*
X56394D01*
X56329Y31591D01*
X48825Y33546D02*
X48760Y33612D01*
X48629D01*
X48563Y33546D01*
Y33284D01*
X48629Y33219D01*
X48760D01*
X48825Y33284D01*
X49153Y33219D02*
Y33612D01*
X48957Y33415D01*
X49219D01*
X47743Y33392D02*
X47677Y33327D01*
Y33196D01*
X47743Y33130D01*
X48005D01*
X48071Y33196D01*
Y33327D01*
X48005Y33392D01*
X47677Y33786D02*
Y33523D01*
X47874D01*
X47808Y33655D01*
Y33720D01*
X47874Y33786D01*
X48005D01*
X48071Y33720D01*
Y33589D01*
X48005Y33523D01*
X45076Y23875D02*
X45010Y23809D01*
Y23678D01*
X45076Y23612D01*
X45338D01*
X45404Y23678D01*
Y23809D01*
X45338Y23875D01*
X45010Y24268D02*
X45076Y24137D01*
X45207Y24006D01*
X45338D01*
X45404Y24071D01*
Y24203D01*
X45338Y24268D01*
X45272D01*
X45207Y24203D01*
Y24006D01*
X42930Y26443D02*
X42864Y26378D01*
Y26247D01*
X42930Y26181D01*
X43192D01*
X43258Y26247D01*
Y26378D01*
X43192Y26443D01*
X43258Y26575D02*
Y26706D01*
Y26640D01*
X42864D01*
X42930Y26575D01*
X42864Y26903D02*
Y27165D01*
X42930D01*
X43192Y26903D01*
X43258D01*
X43806Y26699D02*
X43740Y26634D01*
Y26503D01*
X43806Y26437D01*
X44068D01*
X44134Y26503D01*
Y26634D01*
X44068Y26699D01*
X44134Y26831D02*
Y26962D01*
Y26896D01*
X43740D01*
X43806Y26831D01*
Y27159D02*
X43740Y27224D01*
Y27355D01*
X43806Y27421D01*
X43871D01*
X43937Y27355D01*
X44003Y27421D01*
X44068D01*
X44134Y27355D01*
Y27224D01*
X44068Y27159D01*
X44003D01*
X43937Y27224D01*
X43871Y27159D01*
X43806D01*
X43937Y27224D02*
Y27355D01*
X43530Y29337D02*
X43465Y29272D01*
Y29140D01*
X43530Y29075D01*
X43793D01*
X43858Y29140D01*
Y29272D01*
X43793Y29337D01*
X43858Y29468D02*
Y29600D01*
Y29534D01*
X43465D01*
X43530Y29468D01*
X43793Y29796D02*
X43858Y29862D01*
Y29993D01*
X43793Y30059D01*
X43530D01*
X43465Y29993D01*
Y29862D01*
X43530Y29796D01*
X43596D01*
X43661Y29862D01*
Y30059D01*
X41768Y35515D02*
X41703Y35581D01*
X41571D01*
X41506Y35515D01*
Y35253D01*
X41571Y35187D01*
X41703D01*
X41768Y35253D01*
X42162Y35187D02*
X41899D01*
X42162Y35449D01*
Y35515D01*
X42096Y35581D01*
X41965D01*
X41899Y35515D01*
X42293D02*
X42359Y35581D01*
X42490D01*
X42555Y35515D01*
Y35253D01*
X42490Y35187D01*
X42359D01*
X42293Y35253D01*
Y35515D01*
X32310Y26824D02*
X32244Y26890D01*
X32113D01*
X32047Y26824D01*
Y26562D01*
X32113Y26496D01*
X32244D01*
X32310Y26562D01*
X32703Y26496D02*
X32441D01*
X32703Y26758D01*
Y26824D01*
X32638Y26890D01*
X32506D01*
X32441Y26824D01*
X33031Y26496D02*
Y26890D01*
X32834Y26693D01*
X33097D01*
X33718Y26824D02*
X33653Y26890D01*
X33521D01*
X33456Y26824D01*
Y26562D01*
X33521Y26496D01*
X33653D01*
X33718Y26562D01*
X34112Y26496D02*
X33849D01*
X34112Y26758D01*
Y26824D01*
X34046Y26890D01*
X33915D01*
X33849Y26824D01*
X34505Y26890D02*
X34243D01*
Y26693D01*
X34374Y26758D01*
X34440D01*
X34505Y26693D01*
Y26562D01*
X34440Y26496D01*
X34309D01*
X34243Y26562D01*
X34977Y24711D02*
X34912Y24646D01*
Y24514D01*
X34977Y24449D01*
X35240D01*
X35305Y24514D01*
Y24646D01*
X35240Y24711D01*
X35305Y25105D02*
Y24842D01*
X35043Y25105D01*
X34977D01*
X34912Y25039D01*
Y24908D01*
X34977Y24842D01*
X34912Y25498D02*
X34977Y25367D01*
X35108Y25236D01*
X35240D01*
X35305Y25302D01*
Y25433D01*
X35240Y25498D01*
X35174D01*
X35108Y25433D01*
Y25236D01*
X31365Y24741D02*
X31299Y24675D01*
Y24544D01*
X31365Y24478D01*
X31627D01*
X31693Y24544D01*
Y24675D01*
X31627Y24741D01*
X31693Y25134D02*
Y24872D01*
X31431Y25134D01*
X31365D01*
X31299Y25069D01*
Y24938D01*
X31365Y24872D01*
X31299Y25265D02*
Y25528D01*
X31365D01*
X31627Y25265D01*
X31693D01*
X38127Y26745D02*
X38061Y26811D01*
X37930D01*
X37864Y26745D01*
Y26483D01*
X37930Y26417D01*
X38061D01*
X38127Y26483D01*
X38520Y26417D02*
X38258D01*
X38520Y26680D01*
Y26745D01*
X38455Y26811D01*
X38323D01*
X38258Y26745D01*
X38651D02*
X38717Y26811D01*
X38848D01*
X38914Y26745D01*
Y26680D01*
X38848Y26614D01*
X38914Y26549D01*
Y26483D01*
X38848Y26417D01*
X38717D01*
X38651Y26483D01*
Y26549D01*
X38717Y26614D01*
X38651Y26680D01*
Y26745D01*
X38717Y26614D02*
X38848D01*
X35272Y26165D02*
X35207Y26230D01*
X35075D01*
X35010Y26165D01*
Y25902D01*
X35075Y25837D01*
X35207D01*
X35272Y25902D01*
X35666Y25837D02*
X35403D01*
X35666Y26099D01*
Y26165D01*
X35600Y26230D01*
X35469D01*
X35403Y26165D01*
X35797Y25902D02*
X35863Y25837D01*
X35994D01*
X36059Y25902D01*
Y26165D01*
X35994Y26230D01*
X35863D01*
X35797Y26165D01*
Y26099D01*
X35863Y26033D01*
X36059D01*
X35666Y24731D02*
X35601Y24665D01*
Y24534D01*
X35666Y24469D01*
X35928D01*
X35994Y24534D01*
Y24665D01*
X35928Y24731D01*
X35666Y24862D02*
X35601Y24928D01*
Y25059D01*
X35666Y25124D01*
X35732D01*
X35797Y25059D01*
Y24993D01*
Y25059D01*
X35863Y25124D01*
X35928D01*
X35994Y25059D01*
Y24928D01*
X35928Y24862D01*
X35666Y25256D02*
X35601Y25321D01*
Y25452D01*
X35666Y25518D01*
X35928D01*
X35994Y25452D01*
Y25321D01*
X35928Y25256D01*
X35666D01*
X39278Y24731D02*
X39213Y24665D01*
Y24534D01*
X39278Y24469D01*
X39541D01*
X39606Y24534D01*
Y24665D01*
X39541Y24731D01*
X39278Y24862D02*
X39213Y24928D01*
Y25059D01*
X39278Y25124D01*
X39344D01*
X39410Y25059D01*
Y24993D01*
Y25059D01*
X39475Y25124D01*
X39541D01*
X39606Y25059D01*
Y24928D01*
X39541Y24862D01*
X39606Y25256D02*
Y25387D01*
Y25321D01*
X39213D01*
X39278Y25256D01*
X39859Y34987D02*
X39793Y34921D01*
Y34790D01*
X39859Y34724D01*
X40121D01*
X40187Y34790D01*
Y34921D01*
X40121Y34987D01*
X39859Y35118D02*
X39793Y35184D01*
Y35315D01*
X39859Y35380D01*
X39925D01*
X39990Y35315D01*
Y35249D01*
Y35315D01*
X40056Y35380D01*
X40121D01*
X40187Y35315D01*
Y35184D01*
X40121Y35118D01*
X40187Y35774D02*
Y35512D01*
X39925Y35774D01*
X39859D01*
X39793Y35708D01*
Y35577D01*
X39859Y35512D01*
X41247Y36637D02*
X41181Y36703D01*
X41050D01*
X40984Y36637D01*
Y36375D01*
X41050Y36309D01*
X41181D01*
X41247Y36375D01*
X41378Y36637D02*
X41443Y36703D01*
X41575D01*
X41640Y36637D01*
Y36571D01*
X41575Y36506D01*
X41509D01*
X41575D01*
X41640Y36440D01*
Y36375D01*
X41575Y36309D01*
X41443D01*
X41378Y36375D01*
X41771Y36637D02*
X41837Y36703D01*
X41968D01*
X42034Y36637D01*
Y36571D01*
X41968Y36506D01*
X41903D01*
X41968D01*
X42034Y36440D01*
Y36375D01*
X41968Y36309D01*
X41837D01*
X41771Y36375D01*
X52615Y37979D02*
X52549Y37913D01*
Y37782D01*
X52615Y37717D01*
X52877D01*
X52943Y37782D01*
Y37913D01*
X52877Y37979D01*
X52615Y38110D02*
X52549Y38176D01*
Y38307D01*
X52615Y38372D01*
X52681D01*
X52746Y38307D01*
Y38241D01*
Y38307D01*
X52812Y38372D01*
X52877D01*
X52943Y38307D01*
Y38176D01*
X52877Y38110D01*
X52549Y38766D02*
X52615Y38635D01*
X52746Y38504D01*
X52877D01*
X52943Y38569D01*
Y38700D01*
X52877Y38766D01*
X52812D01*
X52746Y38700D01*
Y38504D01*
X49436Y35272D02*
X49370Y35207D01*
Y35075D01*
X49436Y35010D01*
X49698D01*
X49764Y35075D01*
Y35207D01*
X49698Y35272D01*
X49436Y35403D02*
X49370Y35469D01*
Y35600D01*
X49436Y35666D01*
X49501D01*
X49567Y35600D01*
Y35535D01*
Y35600D01*
X49633Y35666D01*
X49698D01*
X49764Y35600D01*
Y35469D01*
X49698Y35403D01*
X49436Y35797D02*
X49370Y35863D01*
Y35994D01*
X49436Y36059D01*
X49501D01*
X49567Y35994D01*
X49633Y36059D01*
X49698D01*
X49764Y35994D01*
Y35863D01*
X49698Y35797D01*
X49633D01*
X49567Y35863D01*
X49501Y35797D01*
X49436D01*
X49567Y35863D02*
Y35994D01*
X50026Y35302D02*
X49961Y35236D01*
Y35105D01*
X50026Y35039D01*
X50289D01*
X50354Y35105D01*
Y35236D01*
X50289Y35302D01*
X50026Y35433D02*
X49961Y35499D01*
Y35630D01*
X50026Y35695D01*
X50092D01*
X50158Y35630D01*
Y35564D01*
Y35630D01*
X50223Y35695D01*
X50289D01*
X50354Y35630D01*
Y35499D01*
X50289Y35433D01*
Y35827D02*
X50354Y35892D01*
Y36023D01*
X50289Y36089D01*
X50026D01*
X49961Y36023D01*
Y35892D01*
X50026Y35827D01*
X50092D01*
X50158Y35892D01*
Y36089D01*
X46227Y41647D02*
X46161Y41712D01*
X46030D01*
X45965Y41647D01*
Y41384D01*
X46030Y41319D01*
X46161D01*
X46227Y41384D01*
X46555Y41319D02*
Y41712D01*
X46358Y41516D01*
X46621D01*
X46752Y41647D02*
X46817Y41712D01*
X46948D01*
X47014Y41647D01*
Y41384D01*
X46948Y41319D01*
X46817D01*
X46752Y41384D01*
Y41647D01*
X40351Y40554D02*
X40285Y40620D01*
X40154D01*
X40089Y40554D01*
Y40292D01*
X40154Y40226D01*
X40285D01*
X40351Y40292D01*
X40679Y40226D02*
Y40620D01*
X40482Y40423D01*
X40745D01*
X40876Y40226D02*
X41007D01*
X40941D01*
Y40620D01*
X40876Y40554D01*
X40863Y41962D02*
X40797Y42027D01*
X40666D01*
X40600Y41962D01*
Y41699D01*
X40666Y41634D01*
X40797D01*
X40863Y41699D01*
X41191Y41634D02*
Y42027D01*
X40994Y41831D01*
X41256D01*
X41650Y41634D02*
X41388D01*
X41650Y41896D01*
Y41962D01*
X41584Y42027D01*
X41453D01*
X41388Y41962D01*
X40587Y45446D02*
X40522Y45512D01*
X40390D01*
X40325Y45446D01*
Y45184D01*
X40390Y45118D01*
X40522D01*
X40587Y45184D01*
X40915Y45118D02*
Y45512D01*
X40718Y45315D01*
X40981D01*
X41112Y45446D02*
X41178Y45512D01*
X41309D01*
X41374Y45446D01*
Y45380D01*
X41309Y45315D01*
X41243D01*
X41309D01*
X41374Y45249D01*
Y45184D01*
X41309Y45118D01*
X41178D01*
X41112Y45184D01*
X51729Y45436D02*
X51663Y45502D01*
X51532D01*
X51467Y45436D01*
Y45174D01*
X51532Y45108D01*
X51663D01*
X51729Y45174D01*
X52057Y45108D02*
Y45502D01*
X51860Y45305D01*
X52122D01*
X52450Y45108D02*
Y45502D01*
X52254Y45305D01*
X52516D01*
X42684Y38481D02*
X42618Y38415D01*
Y38284D01*
X42684Y38219D01*
X42946D01*
X43012Y38284D01*
Y38415D01*
X42946Y38481D01*
X43012Y38809D02*
X42618D01*
X42815Y38612D01*
Y38874D01*
X42618Y39268D02*
X42684Y39137D01*
X42815Y39006D01*
X42946D01*
X43012Y39071D01*
Y39202D01*
X42946Y39268D01*
X42881D01*
X42815Y39202D01*
Y39006D01*
X44170Y39108D02*
X44104Y39173D01*
X43973D01*
X43907Y39108D01*
Y38845D01*
X43973Y38780D01*
X44104D01*
X44170Y38845D01*
X44498Y38780D02*
Y39173D01*
X44301Y38976D01*
X44563D01*
X44695Y39173D02*
X44957D01*
Y39108D01*
X44695Y38845D01*
Y38780D01*
X44160Y38487D02*
X44094Y38553D01*
X43963D01*
X43898Y38487D01*
Y38225D01*
X43963Y38159D01*
X44094D01*
X44160Y38225D01*
X44488Y38159D02*
Y38553D01*
X44291Y38356D01*
X44554D01*
X44685Y38487D02*
X44750Y38553D01*
X44882D01*
X44947Y38487D01*
Y38422D01*
X44882Y38356D01*
X44947Y38291D01*
Y38225D01*
X44882Y38159D01*
X44750D01*
X44685Y38225D01*
Y38291D01*
X44750Y38356D01*
X44685Y38422D01*
Y38487D01*
X44750Y38356D02*
X44882D01*
X51995Y37999D02*
X51929Y37933D01*
Y37802D01*
X51995Y37736D01*
X52257D01*
X52323Y37802D01*
Y37933D01*
X52257Y37999D01*
X52323Y38327D02*
X51929D01*
X52126Y38130D01*
Y38392D01*
X52257Y38523D02*
X52323Y38589D01*
Y38720D01*
X52257Y38786D01*
X51995D01*
X51929Y38720D01*
Y38589D01*
X51995Y38523D01*
X52060D01*
X52126Y38589D01*
Y38786D01*
X52319Y39373D02*
X52254Y39439D01*
X52123D01*
X52057Y39373D01*
Y39111D01*
X52123Y39045D01*
X52254D01*
X52319Y39111D01*
X52713Y39439D02*
X52451D01*
Y39242D01*
X52582Y39308D01*
X52647D01*
X52713Y39242D01*
Y39111D01*
X52647Y39045D01*
X52516D01*
X52451Y39111D01*
X52844Y39373D02*
X52910Y39439D01*
X53041D01*
X53107Y39373D01*
Y39111D01*
X53041Y39045D01*
X52910D01*
X52844Y39111D01*
Y39373D01*
X49593Y36706D02*
X49528Y36772D01*
X49396D01*
X49331Y36706D01*
Y36444D01*
X49396Y36378D01*
X49528D01*
X49593Y36444D01*
X49987Y36772D02*
X49724D01*
Y36575D01*
X49855Y36640D01*
X49921D01*
X49987Y36575D01*
Y36444D01*
X49921Y36378D01*
X49790D01*
X49724Y36444D01*
X50118Y36378D02*
X50249D01*
X50183D01*
Y36772D01*
X50118Y36706D01*
X46069Y36086D02*
X46004Y36151D01*
X45873D01*
X45807Y36086D01*
Y35823D01*
X45873Y35758D01*
X46004D01*
X46069Y35823D01*
X46463Y36151D02*
X46201D01*
Y35955D01*
X46332Y36020D01*
X46397D01*
X46463Y35955D01*
Y35823D01*
X46397Y35758D01*
X46266D01*
X46201Y35823D01*
X46594Y36086D02*
X46660Y36151D01*
X46791D01*
X46857Y36086D01*
Y36020D01*
X46791Y35955D01*
X46725D01*
X46791D01*
X46857Y35889D01*
Y35823D01*
X46791Y35758D01*
X46660D01*
X46594Y35823D01*
X50778Y34626D02*
Y34232D01*
X50974D01*
X51040Y34298D01*
Y34560D01*
X50974Y34626D01*
X50778D01*
X51171Y34232D02*
Y34495D01*
X51302Y34626D01*
X51434Y34495D01*
Y34232D01*
Y34429D01*
X51171D01*
X51827Y34232D02*
X51565D01*
X51827Y34495D01*
Y34560D01*
X51761Y34626D01*
X51630D01*
X51565Y34560D01*
X43179Y40128D02*
X43573D01*
Y40325D01*
X43507Y40390D01*
X43245D01*
X43179Y40325D01*
Y40128D01*
X43573Y40522D02*
X43310D01*
X43179Y40653D01*
X43310Y40784D01*
X43573D01*
X43376D01*
Y40522D01*
X43245Y40915D02*
X43179Y40981D01*
Y41112D01*
X43245Y41177D01*
X43310D01*
X43376Y41112D01*
Y41046D01*
Y41112D01*
X43442Y41177D01*
X43507D01*
X43573Y41112D01*
Y40981D01*
X43507Y40915D01*
X48819Y39193D02*
Y38799D01*
X49016D01*
X49081Y38865D01*
Y39127D01*
X49016Y39193D01*
X48819D01*
X49212Y38799D02*
Y39062D01*
X49344Y39193D01*
X49475Y39062D01*
Y38799D01*
Y38996D01*
X49212D01*
X49803Y38799D02*
Y39193D01*
X49606Y38996D01*
X49868D01*
X51585Y24882D02*
Y24488D01*
X51781D01*
X51847Y24554D01*
Y24816D01*
X51781Y24882D01*
X51585D01*
X51978D02*
Y24488D01*
X52175D01*
X52241Y24554D01*
Y24816D01*
X52175Y24882D01*
X51978D01*
X52372Y24488D02*
X52503D01*
X52437D01*
Y24882D01*
X52372Y24816D01*
X42421Y31850D02*
Y31457D01*
X42618D01*
X42684Y31522D01*
Y31785D01*
X42618Y31850D01*
X42421D01*
X42815D02*
Y31457D01*
X43012D01*
X43077Y31522D01*
Y31785D01*
X43012Y31850D01*
X42815D01*
X43208Y31785D02*
X43274Y31850D01*
X43405D01*
X43471Y31785D01*
Y31719D01*
X43405Y31653D01*
X43340D01*
X43405D01*
X43471Y31588D01*
Y31522D01*
X43405Y31457D01*
X43274D01*
X43208Y31522D01*
X31112Y40394D02*
X30850D01*
Y40197D01*
X30981D01*
X30850D01*
Y40000D01*
X31244Y40394D02*
Y40066D01*
X31309Y40000D01*
X31440D01*
X31506Y40066D01*
Y40394D01*
X31637Y40328D02*
X31703Y40394D01*
X31834D01*
X31900Y40328D01*
Y40262D01*
X31834Y40197D01*
X31768D01*
X31834D01*
X31900Y40131D01*
Y40066D01*
X31834Y40000D01*
X31703D01*
X31637Y40066D01*
X56995Y33563D02*
X56863D01*
X56929D01*
Y33235D01*
X56863Y33169D01*
X56798D01*
X56732Y33235D01*
X57126Y33169D02*
X57257D01*
X57191D01*
Y33563D01*
X57126Y33497D01*
X32589Y24222D02*
Y23829D01*
X32851D01*
X33245D02*
X32982D01*
X33245Y24091D01*
Y24157D01*
X33179Y24222D01*
X33048D01*
X32982Y24157D01*
X33415Y24212D02*
Y23819D01*
X33678D01*
X33809Y24147D02*
X33875Y24212D01*
X34006D01*
X34071Y24147D01*
Y24081D01*
X34006Y24016D01*
X33940D01*
X34006D01*
X34071Y23950D01*
Y23884D01*
X34006Y23819D01*
X33875D01*
X33809Y23884D01*
X37707Y24212D02*
Y23819D01*
X37969D01*
X38297D02*
Y24212D01*
X38100Y24016D01*
X38363D01*
X36890Y24193D02*
Y23799D01*
X37152D01*
X37546Y24193D02*
X37283D01*
Y23996D01*
X37415Y24062D01*
X37480D01*
X37546Y23996D01*
Y23865D01*
X37480Y23799D01*
X37349D01*
X37283Y23865D01*
X32205Y45541D02*
Y45148D01*
X32467D01*
X32861Y45541D02*
X32729Y45476D01*
X32598Y45344D01*
Y45213D01*
X32664Y45148D01*
X32795D01*
X32861Y45213D01*
Y45279D01*
X32795Y45344D01*
X32598D01*
X47047Y45551D02*
Y45157D01*
X47310D01*
X47441Y45551D02*
X47703D01*
Y45485D01*
X47441Y45223D01*
Y45157D01*
X45981Y31316D02*
Y31578D01*
X45915Y31644D01*
X45784D01*
X45718Y31578D01*
Y31316D01*
X45784Y31250D01*
X45915D01*
X45850Y31381D02*
X45981Y31250D01*
X45915D02*
X45981Y31316D01*
X46112Y31250D02*
Y31644D01*
X46309D01*
X46374Y31578D01*
Y31447D01*
X46309Y31381D01*
X46112D01*
X46243D02*
X46374Y31250D01*
X46506D02*
X46637D01*
X46571D01*
Y31644D01*
X46506Y31578D01*
X50046Y32703D02*
Y32966D01*
X49980Y33031D01*
X49849D01*
X49783Y32966D01*
Y32703D01*
X49849Y32638D01*
X49980D01*
X49915Y32769D02*
X50046Y32638D01*
X49980D02*
X50046Y32703D01*
X50177Y32638D02*
Y33031D01*
X50374D01*
X50439Y32966D01*
Y32835D01*
X50374Y32769D01*
X50177D01*
X50308D02*
X50439Y32638D01*
X50833D02*
X50571D01*
X50833Y32900D01*
Y32966D01*
X50767Y33031D01*
X50636D01*
X50571Y32966D01*
X53543Y32156D02*
Y32549D01*
X53740D01*
X53806Y32483D01*
Y32352D01*
X53740Y32287D01*
X53543D01*
X53675D02*
X53806Y32156D01*
X53937D02*
X54068D01*
X54002D01*
Y32549D01*
X53937Y32483D01*
X46476Y22785D02*
Y23179D01*
X46673D01*
X46739Y23113D01*
Y22982D01*
X46673Y22917D01*
X46476D01*
X46608D02*
X46739Y22785D01*
X47132D02*
X46870D01*
X47132Y23048D01*
Y23113D01*
X47067Y23179D01*
X46936D01*
X46870Y23113D01*
X35531Y26486D02*
Y26880D01*
X35728D01*
X35794Y26814D01*
Y26683D01*
X35728Y26617D01*
X35531D01*
X35663D02*
X35794Y26486D01*
X35925Y26814D02*
X35991Y26880D01*
X36122D01*
X36187Y26814D01*
Y26749D01*
X36122Y26683D01*
X36187Y26617D01*
Y26552D01*
X36122Y26486D01*
X35991D01*
X35925Y26552D01*
Y26617D01*
X35991Y26683D01*
X35925Y26749D01*
Y26814D01*
X35991Y26683D02*
X36122D01*
X52726Y35492D02*
Y35886D01*
X52923D01*
X52989Y35820D01*
Y35689D01*
X52923Y35623D01*
X52726D01*
X52858D02*
X52989Y35492D01*
X53120Y35558D02*
X53186Y35492D01*
X53317D01*
X53382Y35558D01*
Y35820D01*
X53317Y35886D01*
X53186D01*
X53120Y35820D01*
Y35755D01*
X53186Y35689D01*
X53382D01*
X51988Y33632D02*
Y34025D01*
X52185D01*
X52251Y33960D01*
Y33829D01*
X52185Y33763D01*
X51988D01*
X52119D02*
X52251Y33632D01*
X52382D02*
X52513D01*
X52447D01*
Y34025D01*
X52382Y33960D01*
X52972Y33632D02*
X52710D01*
X52972Y33894D01*
Y33960D01*
X52907Y34025D01*
X52775D01*
X52710Y33960D01*
X38907Y40728D02*
Y41122D01*
X39104D01*
X39170Y41056D01*
Y40925D01*
X39104Y40860D01*
X38907D01*
X39039D02*
X39170Y40728D01*
X39301D02*
X39432D01*
X39367D01*
Y41122D01*
X39301Y41056D01*
X39629D02*
X39695Y41122D01*
X39826D01*
X39891Y41056D01*
Y40991D01*
X39826Y40925D01*
X39760D01*
X39826D01*
X39891Y40860D01*
Y40794D01*
X39826Y40728D01*
X39695D01*
X39629Y40794D01*
X46427Y39941D02*
Y40335D01*
X46624D01*
X46690Y40269D01*
Y40138D01*
X46624Y40072D01*
X46427D01*
X46558D02*
X46690Y39941D01*
X46821D02*
X46952D01*
X46886D01*
Y40335D01*
X46821Y40269D01*
X47345Y39941D02*
Y40335D01*
X47149Y40138D01*
X47411D01*
X45837Y37539D02*
Y37933D01*
X46033D01*
X46099Y37867D01*
Y37736D01*
X46033Y37671D01*
X45837D01*
X45968D02*
X46099Y37539D01*
X46230D02*
X46361D01*
X46296D01*
Y37933D01*
X46230Y37867D01*
X46821Y37933D02*
X46558D01*
Y37736D01*
X46689Y37802D01*
X46755D01*
X46821Y37736D01*
Y37605D01*
X46755Y37539D01*
X46624D01*
X46558Y37605D01*
X43652Y37726D02*
X43258D01*
Y37923D01*
X43324Y37989D01*
X43455D01*
X43520Y37923D01*
Y37726D01*
Y37858D02*
X43652Y37989D01*
Y38120D02*
Y38251D01*
Y38186D01*
X43258D01*
X43324Y38120D01*
X43258Y38710D02*
X43324Y38579D01*
X43455Y38448D01*
X43586D01*
X43652Y38514D01*
Y38645D01*
X43586Y38710D01*
X43520D01*
X43455Y38645D01*
Y38448D01*
X44085Y39390D02*
Y39783D01*
X44281D01*
X44347Y39718D01*
Y39587D01*
X44281Y39521D01*
X44085D01*
X44216D02*
X44347Y39390D01*
X44478D02*
X44609D01*
X44544D01*
Y39783D01*
X44478Y39718D01*
X44806Y39783D02*
X45069D01*
Y39718D01*
X44806Y39455D01*
Y39390D01*
X47470Y35157D02*
Y35551D01*
X47667D01*
X47733Y35485D01*
Y35354D01*
X47667Y35289D01*
X47470D01*
X47602D02*
X47733Y35157D01*
X47864D02*
X47995D01*
X47930D01*
Y35551D01*
X47864Y35485D01*
X48192D02*
X48258Y35551D01*
X48389D01*
X48454Y35485D01*
Y35420D01*
X48389Y35354D01*
X48454Y35289D01*
Y35223D01*
X48389Y35157D01*
X48258D01*
X48192Y35223D01*
Y35289D01*
X48258Y35354D01*
X48192Y35420D01*
Y35485D01*
X48258Y35354D02*
X48389D01*
X49341Y40443D02*
X48947D01*
Y40640D01*
X49013Y40705D01*
X49144D01*
X49209Y40640D01*
Y40443D01*
Y40574D02*
X49341Y40705D01*
Y40836D02*
Y40968D01*
Y40902D01*
X48947D01*
X49013Y40836D01*
X49275Y41164D02*
X49341Y41230D01*
Y41361D01*
X49275Y41427D01*
X49013D01*
X48947Y41361D01*
Y41230D01*
X49013Y41164D01*
X49078D01*
X49144Y41230D01*
Y41427D01*
X48071Y40443D02*
X47677D01*
Y40640D01*
X47743Y40705D01*
X47874D01*
X47940Y40640D01*
Y40443D01*
Y40574D02*
X48071Y40705D01*
Y41099D02*
Y40836D01*
X47808Y41099D01*
X47743D01*
X47677Y41033D01*
Y40902D01*
X47743Y40836D01*
Y41230D02*
X47677Y41296D01*
Y41427D01*
X47743Y41492D01*
X48005D01*
X48071Y41427D01*
Y41296D01*
X48005Y41230D01*
X47743D01*
X48691Y40482D02*
X48297D01*
Y40679D01*
X48363Y40745D01*
X48494D01*
X48560Y40679D01*
Y40482D01*
Y40613D02*
X48691Y40745D01*
Y41138D02*
Y40876D01*
X48429Y41138D01*
X48363D01*
X48297Y41073D01*
Y40941D01*
X48363Y40876D01*
X48691Y41269D02*
Y41401D01*
Y41335D01*
X48297D01*
X48363Y41269D01*
X45827Y36949D02*
Y37342D01*
X46024D01*
X46089Y37277D01*
Y37146D01*
X46024Y37080D01*
X45827D01*
X45958D02*
X46089Y36949D01*
X46483D02*
X46220D01*
X46483Y37211D01*
Y37277D01*
X46417Y37342D01*
X46286D01*
X46220Y37277D01*
X46876Y36949D02*
X46614D01*
X46876Y37211D01*
Y37277D01*
X46811Y37342D01*
X46680D01*
X46614Y37277D01*
X47402Y38770D02*
Y39163D01*
X47598D01*
X47664Y39098D01*
Y38966D01*
X47598Y38901D01*
X47402D01*
X47533D02*
X47664Y38770D01*
X48058D02*
X47795D01*
X48058Y39032D01*
Y39098D01*
X47992Y39163D01*
X47861D01*
X47795Y39098D01*
X48189D02*
X48254Y39163D01*
X48386D01*
X48451Y39098D01*
Y39032D01*
X48386Y38966D01*
X48320D01*
X48386D01*
X48451Y38901D01*
Y38835D01*
X48386Y38770D01*
X48254D01*
X48189Y38835D01*
X45817Y36398D02*
Y36791D01*
X46014D01*
X46079Y36726D01*
Y36594D01*
X46014Y36529D01*
X45817D01*
X45948D02*
X46079Y36398D01*
X46473D02*
X46210D01*
X46473Y36660D01*
Y36726D01*
X46407Y36791D01*
X46276D01*
X46210Y36726D01*
X46801Y36398D02*
Y36791D01*
X46604Y36594D01*
X46866D01*
X36496Y40955D02*
Y40692D01*
X36627Y40561D01*
X36758Y40692D01*
Y40955D01*
X36890D02*
Y40561D01*
X37086D01*
X37152Y40627D01*
Y40889D01*
X37086Y40955D01*
X36890D01*
X37480Y40561D02*
Y40955D01*
X37283Y40758D01*
X37546D01*
X45354Y45295D02*
Y45033D01*
X45486Y44902D01*
X45617Y45033D01*
Y45295D01*
X45748D02*
Y44902D01*
X45945D01*
X46010Y44967D01*
Y45230D01*
X45945Y45295D01*
X45748D01*
X46141D02*
X46404D01*
Y45230D01*
X46141Y44967D01*
Y44902D01*
X52864Y40364D02*
X53127D01*
X53258Y40495D01*
X53127Y40627D01*
X52864D01*
Y40758D02*
X53258D01*
Y40955D01*
X53192Y41020D01*
X52930D01*
X52864Y40955D01*
Y40758D01*
X52930Y41151D02*
X52864Y41217D01*
Y41348D01*
X52930Y41414D01*
X52995D01*
X53061Y41348D01*
X53127Y41414D01*
X53192D01*
X53258Y41348D01*
Y41217D01*
X53192Y41151D01*
X53127D01*
X53061Y41217D01*
X52995Y41151D01*
X52930D01*
X53061Y41217D02*
Y41348D01*
X40404Y35187D02*
X40666Y34793D01*
Y35187D02*
X40404Y34793D01*
X40797D02*
X40928D01*
X40863D01*
Y35187D01*
X40797Y35121D01*
X37736Y37067D02*
X37999Y36673D01*
Y37067D02*
X37736Y36673D01*
X38392D02*
X38130D01*
X38392Y36936D01*
Y37001D01*
X38327Y37067D01*
X38195D01*
X38130Y37001D01*
X38701Y33858D02*
X38963Y33465D01*
Y33858D02*
X38701Y33465D01*
X39094Y33793D02*
X39160Y33858D01*
X39291D01*
X39357Y33793D01*
Y33727D01*
X39291Y33661D01*
X39226D01*
X39291D01*
X39357Y33596D01*
Y33530D01*
X39291Y33465D01*
X39160D01*
X39094Y33530D01*
X38701Y32657D02*
X38963Y32264D01*
Y32657D02*
X38701Y32264D01*
X39291D02*
Y32657D01*
X39094Y32461D01*
X39357D01*
X38701Y29164D02*
X38963Y28771D01*
Y29164D02*
X38701Y28771D01*
X39357Y29164D02*
X39094D01*
Y28968D01*
X39226Y29033D01*
X39291D01*
X39357Y28968D01*
Y28836D01*
X39291Y28771D01*
X39160D01*
X39094Y28836D01*
X38701Y27954D02*
X38963Y27560D01*
Y27954D02*
X38701Y27560D01*
X39357Y27954D02*
X39226Y27888D01*
X39094Y27757D01*
Y27626D01*
X39160Y27560D01*
X39291D01*
X39357Y27626D01*
Y27691D01*
X39291Y27757D01*
X39094D01*
X38701Y31536D02*
X38963Y31143D01*
Y31536D02*
X38701Y31143D01*
X39094Y31536D02*
X39357D01*
Y31471D01*
X39094Y31209D01*
Y31143D01*
X38701Y30326D02*
X38963Y29932D01*
Y30326D02*
X38701Y29932D01*
X39094Y30260D02*
X39160Y30326D01*
X39291D01*
X39357Y30260D01*
Y30195D01*
X39291Y30129D01*
X39357Y30063D01*
Y29998D01*
X39291Y29932D01*
X39160D01*
X39094Y29998D01*
Y30063D01*
X39160Y30129D01*
X39094Y30195D01*
Y30260D01*
X39160Y30129D02*
X39291D01*
X57028Y42628D02*
X57290Y42234D01*
Y42628D02*
X57028Y42234D01*
X57421D02*
Y42628D01*
X57618D01*
X57684Y42562D01*
Y42431D01*
X57618Y42365D01*
X57421D01*
X57815Y42234D02*
X57946D01*
X57880D01*
Y42628D01*
X57815Y42562D01*
X33012Y21831D02*
X33406Y22093D01*
X33012D02*
X33406Y21831D01*
Y22224D02*
X33012D01*
Y22421D01*
X33078Y22487D01*
X33209D01*
X33274Y22421D01*
Y22224D01*
X33406Y22880D02*
Y22618D01*
X33143Y22880D01*
X33078D01*
X33012Y22815D01*
Y22683D01*
X33078Y22618D01*
X32906Y38200D02*
X33300Y38462D01*
X32906D02*
X33300Y38200D01*
Y38594D02*
X32906D01*
Y38790D01*
X32972Y38856D01*
X33103D01*
X33169Y38790D01*
Y38594D01*
X32972Y38987D02*
X32906Y39053D01*
Y39184D01*
X32972Y39250D01*
X33038D01*
X33103Y39184D01*
Y39118D01*
Y39184D01*
X33169Y39250D01*
X33234D01*
X33300Y39184D01*
Y39053D01*
X33234Y38987D01*
X36477Y43524D02*
X36739D01*
X36870Y43655D01*
X36739Y43786D01*
X36477D01*
Y43917D02*
Y44180D01*
Y44048D01*
X36870D01*
Y44311D02*
Y44442D01*
Y44376D01*
X36477D01*
X36542Y44311D01*
X41358Y29980D02*
Y29587D01*
X41555D01*
X41621Y29652D01*
Y29915D01*
X41555Y29980D01*
X41358D01*
X41752Y29587D02*
Y29849D01*
X41883Y29980D01*
X42014Y29849D01*
Y29587D01*
Y29783D01*
X41752D01*
X42145Y29587D02*
X42277D01*
X42211D01*
Y29980D01*
X42145Y29915D01*
X54508Y39783D02*
Y39390D01*
X54705D01*
X54770Y39455D01*
Y39521D01*
X54705Y39587D01*
X54508D01*
X54705D01*
X54770Y39652D01*
Y39718D01*
X54705Y39783D01*
X54508D01*
X54901Y39390D02*
Y39652D01*
X55033Y39783D01*
X55164Y39652D01*
Y39390D01*
Y39587D01*
X54901D01*
X55295Y39783D02*
X55557D01*
X55426D01*
Y39390D01*
X55689Y39783D02*
X55951D01*
X55820D01*
Y39390D01*
X56345Y39783D02*
X56082D01*
Y39390D01*
X56345D01*
X56082Y39587D02*
X56213D01*
X56476Y39390D02*
Y39783D01*
X56673D01*
X56738Y39718D01*
Y39587D01*
X56673Y39521D01*
X56476D01*
X56607D02*
X56738Y39390D01*
X56869Y39783D02*
Y39718D01*
X57001Y39587D01*
X57132Y39718D01*
Y39783D01*
X57001Y39587D02*
Y39390D01*
X33228Y28090D02*
X32835D01*
Y27500D01*
X33228D01*
X32835Y27795D02*
X33031D01*
X33425Y27500D02*
Y27894D01*
X33622Y28090D01*
X33819Y27894D01*
Y27500D01*
Y27795D01*
X33425D01*
X34015Y27500D02*
Y28090D01*
X34311D01*
X34409Y27992D01*
Y27795D01*
X34311Y27697D01*
X34015D01*
X34212D02*
X34409Y27500D01*
X34606Y27795D02*
X34999D01*
X33228Y29340D02*
X32835D01*
Y28750D01*
X33228D01*
X32835Y29045D02*
X33031D01*
X33425Y28750D02*
Y29144D01*
X33622Y29340D01*
X33819Y29144D01*
Y28750D01*
Y29045D01*
X33425D01*
X34015Y28750D02*
Y29340D01*
X34311D01*
X34409Y29242D01*
Y29045D01*
X34311Y28947D01*
X34015D01*
X34212D02*
X34409Y28750D01*
X34606Y29045D02*
X34999D01*
X34803Y29242D02*
Y28848D01*
X32835Y29911D02*
Y30502D01*
X33031Y30305D01*
X33228Y30502D01*
Y29911D01*
X33425Y30502D02*
X33622D01*
X33523D01*
Y29911D01*
X33425D01*
X33622D01*
X34311Y30403D02*
X34212Y30502D01*
X34015D01*
X33917Y30403D01*
Y30010D01*
X34015Y29911D01*
X34212D01*
X34311Y30010D01*
X34507Y30207D02*
X34901D01*
X32835Y31132D02*
Y31722D01*
X33031Y31525D01*
X33228Y31722D01*
Y31132D01*
X33425Y31722D02*
X33622D01*
X33523D01*
Y31132D01*
X33425D01*
X33622D01*
X34311Y31624D02*
X34212Y31722D01*
X34015D01*
X33917Y31624D01*
Y31230D01*
X34015Y31132D01*
X34212D01*
X34311Y31230D01*
X34507Y31427D02*
X34901D01*
X34704Y31624D02*
Y31230D01*
X33228Y32736D02*
X33130Y32834D01*
X32933D01*
X32835Y32736D01*
Y32342D01*
X32933Y32244D01*
X33130D01*
X33228Y32342D01*
X33425Y32244D02*
Y32638D01*
X33622Y32834D01*
X33819Y32638D01*
Y32244D01*
Y32539D01*
X33425D01*
X34015Y32244D02*
Y32834D01*
X34409Y32244D01*
Y32834D01*
X34606D02*
Y32244D01*
X34999D01*
X33228Y33947D02*
X33130Y34045D01*
X32933D01*
X32835Y33947D01*
Y33553D01*
X32933Y33455D01*
X33130D01*
X33228Y33553D01*
X33425Y33455D02*
Y33848D01*
X33622Y34045D01*
X33819Y33848D01*
Y33455D01*
Y33750D01*
X33425D01*
X34015Y33455D02*
Y34045D01*
X34409Y33455D01*
Y34045D01*
X34606D02*
Y33455D01*
Y33750D01*
X34999D01*
Y34045D01*
Y33455D01*
X33228Y35108D02*
X33130Y35206D01*
X32933D01*
X32835Y35108D01*
Y34715D01*
X32933Y34616D01*
X33130D01*
X33228Y34715D01*
Y34911D01*
X33031D01*
X33425Y34616D02*
Y35206D01*
X33819Y34616D01*
Y35206D01*
X34015D02*
Y34616D01*
X34311D01*
X34409Y34715D01*
Y35108D01*
X34311Y35206D01*
X34015D01*
X32835Y36112D02*
X33228D01*
X33031Y36309D02*
Y35915D01*
X33425Y36407D02*
Y36014D01*
X33622Y35817D01*
X33819Y36014D01*
Y36407D01*
X34015D02*
X34212D01*
X34114D01*
Y35817D01*
X34015D01*
X34212D01*
X34507D02*
Y36407D01*
X34901Y35817D01*
Y36407D01*
D44*
X51526Y31024D02*
G03*
X51526Y31024I-49J0D01*
G01*
X50643Y36002D02*
G03*
X50643Y36002I-49J0D01*
G01*
X51063Y38455D02*
G03*
X51063Y38455I-49J0D01*
G01*
X43927Y41250D02*
G03*
X43927Y41250I-49J0D01*
G01*
X36388Y45236D02*
G03*
X36388Y45236I-49J0D01*
G01*
X41506Y28159D02*
G03*
X41506Y28159I-49J0D01*
G01*
D71*
X50460Y36821D02*
G03*
X50459Y36310I608J-256D01*
G01*
X51667D02*
G03*
X51667Y36821I-609J255D01*
G01*
X48536Y36339D02*
G03*
X48537Y36849I-608J256D01*
G01*
X47329D02*
G03*
X47329Y36339I609J-255D01*
G01*
X50637Y39488D02*
G03*
X50637Y38978I608J-256D01*
G01*
X51844D02*
G03*
X51844Y39488I-609J255D01*
G01*
X51772Y38448D02*
G03*
X51261Y38448I-256J-608D01*
G01*
Y37240D02*
G03*
X51772Y37241I255J609D01*
G01*
X44888Y33847D02*
G03*
X44888Y33337I609J-255D01*
G01*
X46095D02*
G03*
X46096Y33847I-608J256D01*
G01*
X47514Y33338D02*
G03*
X47513Y33848I-609J255D01*
G01*
X46306D02*
G03*
X46306Y33338I608J-256D01*
G01*
X33163Y25808D02*
G03*
X33163Y26319I-609J255D01*
G01*
X31956D02*
G03*
X31956Y25808I608J-256D01*
G01*
X34224Y24386D02*
G03*
X34734Y24386I255J609D01*
G01*
Y25593D02*
G03*
X34224Y25594I-256J-608D01*
G01*
X31891Y24376D02*
G03*
X32401Y24377I255J609D01*
G01*
Y25583D02*
G03*
X31891Y25584I-256J-608D01*
G01*
X37484Y25768D02*
G03*
X37484Y26278I-609J255D01*
G01*
X36277D02*
G03*
X36276Y25768I608J-256D01*
G01*
X36182Y24317D02*
G03*
X36693Y24317I255J609D01*
G01*
Y25524D02*
G03*
X36182Y25525I-256J-608D01*
G01*
X37752Y26278D02*
G03*
X37753Y25768I609J-255D01*
G01*
X38959D02*
G03*
X38960Y26278I-608J256D01*
G01*
X38574Y24307D02*
G03*
X39084Y24308I255J609D01*
G01*
Y25514D02*
G03*
X38574Y25515I-256J-608D01*
G01*
X50119Y33628D02*
G03*
X50630Y33628I255J609D01*
G01*
Y34835D02*
G03*
X50119Y34836I-256J-608D01*
G01*
X52814Y37504D02*
G03*
X52303Y37503I-255J-609D01*
G01*
Y36297D02*
G03*
X52814Y36296I256J608D01*
G01*
X51244Y44913D02*
G03*
X51244Y45423I-609J255D01*
G01*
X50037D02*
G03*
X50036Y44913I608J-256D01*
G01*
X33461Y26319D02*
G03*
X33461Y25808I609J-255D01*
G01*
X34668D02*
G03*
X34668Y26319I-608J256D01*
G01*
X42366Y40119D02*
G03*
X42366Y40630I-609J255D01*
G01*
X41159D02*
G03*
X41158Y40119I608J-256D01*
G01*
X45653Y41448D02*
G03*
X45653Y41959I-609J255D01*
G01*
X44446D02*
G03*
X44446Y41448I608J-256D01*
G01*
X43060Y40673D02*
G03*
X42549Y40673I-255J-609D01*
G01*
Y39466D02*
G03*
X43060Y39465I256J608D01*
G01*
X46342Y38722D02*
G03*
X46342Y39232I-609J255D01*
G01*
X45135D02*
G03*
X45135Y38722I608J-256D01*
G01*
X46342Y38111D02*
G03*
X46342Y38622I-609J255D01*
G01*
X45135D02*
G03*
X45135Y38111I608J-256D01*
G01*
X47590Y31699D02*
G03*
X48100Y31699I255J609D01*
G01*
Y32906D02*
G03*
X47590Y32907I-256J-608D01*
G01*
X48313Y33070D02*
G03*
X48314Y32559I609J-255D01*
G01*
X49520D02*
G03*
X49521Y33070I-608J256D01*
G01*
X45582Y23313D02*
G03*
X46092Y23314I255J609D01*
G01*
Y24520D02*
G03*
X45582Y24521I-256J-608D01*
G01*
X43257Y28567D02*
G03*
X42746Y28566I-255J-609D01*
G01*
Y27360D02*
G03*
X43257Y27359I256J608D01*
G01*
X42737Y28835D02*
G03*
X43248Y28835I255J609D01*
G01*
Y30042D02*
G03*
X42737Y30043I-256J-608D01*
G01*
X55636Y32597D02*
G03*
X55636Y32087I609J-255D01*
G01*
X56843D02*
G03*
X56844Y32597I-608J256D01*
G01*
X41413Y34979D02*
G03*
X41414Y34469I609J-255D01*
G01*
X42621D02*
G03*
X42621Y34979I-608J256D01*
G01*
X50463Y36310D02*
X51663D01*
X50463Y36821D02*
X51663D01*
X47362Y35728D02*
Y36240D01*
X48406Y35728D02*
Y36240D01*
X47362Y35728D02*
X48406D01*
X47362Y36240D02*
X48406D01*
X47333Y36849D02*
X48533D01*
X47333Y36339D02*
X48533D01*
X47382Y36939D02*
Y37451D01*
X48425Y36939D02*
Y37451D01*
X47382Y36939D02*
X48425D01*
X47382Y37451D02*
X48425D01*
X47382Y37539D02*
Y38051D01*
X48425Y37539D02*
Y38051D01*
X47382Y37539D02*
X48425D01*
X47382Y38051D02*
X48425D01*
X47382Y38140D02*
Y38652D01*
X48425Y38140D02*
Y38652D01*
X47382Y38140D02*
X48425D01*
X47382Y38652D02*
X48425D01*
X47628Y40315D02*
X48140D01*
X47628Y39272D02*
X48140D01*
X47628D02*
Y40315D01*
X48140Y39272D02*
Y40315D01*
X48268D02*
X48780D01*
X48268Y39272D02*
X48780D01*
X48268D02*
Y40315D01*
X48780Y39272D02*
Y40315D01*
X48898D02*
X49409D01*
X48898Y39272D02*
X49409D01*
X48898D02*
Y40315D01*
X49409Y39272D02*
Y40315D01*
X50641Y38977D02*
X51841D01*
X50640Y39488D02*
X51841D01*
X51261Y37244D02*
Y38444D01*
X51772Y37244D02*
Y38445D01*
X44892Y33337D02*
X46093D01*
X44892Y33848D02*
X46092D01*
X46309Y33848D02*
X47510D01*
X46310Y33338D02*
X47510D01*
X31959Y26319D02*
X33159D01*
X31959Y25808D02*
X33159D01*
X34734Y24390D02*
Y25591D01*
X34223Y24390D02*
Y25590D01*
X32402Y24380D02*
Y25581D01*
X31891Y24380D02*
Y25580D01*
X36388Y26919D02*
X37431D01*
X36388Y26407D02*
X37431D01*
Y26919D01*
X36388Y26407D02*
Y26919D01*
X36280Y26279D02*
X37480D01*
X36280Y25768D02*
X37480D01*
X36693Y24321D02*
Y25522D01*
X36182Y24321D02*
Y25521D01*
X37756Y25768D02*
X38957D01*
X37756Y26279D02*
X38956D01*
X39085Y24311D02*
Y25512D01*
X38574Y24311D02*
Y25511D01*
X50630Y33632D02*
Y34833D01*
X50119Y33632D02*
Y34832D01*
X52303Y36299D02*
Y37500D01*
X52814Y36300D02*
Y37500D01*
X51959Y34685D02*
X53002D01*
X51959Y34173D02*
X53002D01*
Y34685D01*
X51959Y34173D02*
Y34685D01*
X52569Y35335D02*
X53612D01*
X52569Y34823D02*
X53612D01*
Y35335D01*
X52569Y34823D02*
Y35335D01*
X50039Y45423D02*
X51240D01*
X50040Y44912D02*
X51240D01*
X45187Y39833D02*
X46230D01*
X45187Y39321D02*
X46230D01*
Y39833D01*
X45187Y39321D02*
Y39833D01*
X46388D02*
X47431D01*
X46388Y39321D02*
X47431D01*
Y39833D01*
X46388Y39321D02*
Y39833D01*
X33465Y25808D02*
X34665D01*
X33465Y26319D02*
X34665D01*
X41161Y40630D02*
X42362D01*
X41162Y40119D02*
X42362D01*
X44449Y41959D02*
X45650D01*
X44450Y41448D02*
X45650D01*
X42549Y39469D02*
Y40669D01*
X43060Y39469D02*
Y40669D01*
X43189Y38888D02*
Y39931D01*
X43701Y38888D02*
Y39931D01*
X43189D02*
X43701D01*
X43189Y38888D02*
X43701D01*
X45138Y39232D02*
X46339D01*
X45139Y38721D02*
X46339D01*
X45138Y38622D02*
X46339D01*
X45139Y38111D02*
X46339D01*
X46526Y38159D02*
Y39203D01*
X47037Y38159D02*
Y39203D01*
X46526D02*
X47037D01*
X46526Y38159D02*
X47037D01*
X48100Y31703D02*
Y32904D01*
X47589Y31703D02*
Y32903D01*
X48317Y32559D02*
X49518D01*
X48317Y33070D02*
X49517D01*
X46240Y23327D02*
X47283D01*
X46240Y23839D02*
X47283D01*
X46240Y23327D02*
Y23839D01*
X47283Y23327D02*
Y23839D01*
X46093Y23317D02*
Y24518D01*
X45582Y23317D02*
Y24517D01*
X42746Y27362D02*
Y28563D01*
X43257Y27363D02*
Y28563D01*
X43248Y28839D02*
Y30039D01*
X42737Y28839D02*
Y30039D01*
X55640Y32087D02*
X56841D01*
X55640Y32598D02*
X56840D01*
X54252Y32598D02*
X55295D01*
X54252Y32087D02*
X55295D01*
Y32598D01*
X54252Y32087D02*
Y32598D01*
X41417Y34469D02*
X42618D01*
X41417Y34979D02*
X42617D01*
D72*
X51122Y29941D02*
G03*
X51122Y29941I-118J0D01*
G01*
D73*
X53829Y43406D02*
G03*
X53829Y43406I-1575J0D01*
G01*
X45026Y43642D02*
G03*
X45026Y43642I-1969J0D01*
G01*
X41820Y34158D02*
G03*
X42420Y34158I300J0D01*
G01*
X42245Y20863D02*
Y23363D01*
X33645Y20863D02*
Y23363D01*
X42245D01*
X33645Y20863D02*
X42245D01*
X53797Y40078D02*
X57734D01*
X53797Y42007D02*
X57734D01*
X53797Y40078D02*
Y42007D01*
X57734Y40078D02*
Y42007D01*
X53797Y40550D02*
X54269Y40078D01*
X57261D02*
X57734Y40550D01*
X42245Y37398D02*
Y39898D01*
X33645Y37398D02*
Y39898D01*
X42245D01*
X33645Y37398D02*
X42245D01*
X28950Y41800D02*
X33950D01*
X28950Y40600D02*
X33950D01*
Y41800D01*
X28950Y40600D02*
Y41800D01*
X54537Y32795D02*
X56585D01*
X54537Y33819D02*
X56585D01*
X54537Y32795D02*
Y33819D01*
X56585Y32795D02*
Y33819D01*
X41320Y34158D02*
X41820D01*
X41320Y32158D02*
X42920D01*
Y34158D01*
X41320Y32158D02*
Y34158D01*
X42420D02*
X42920D01*
D74*
X33668Y42868D02*
G03*
X34860Y42872I589J2068D01*
G01*
X34903Y45444D02*
G03*
X33603Y45474I-697J-2035D01*
G01*
X36437Y41663D02*
G03*
X36437Y41663I-1102J0D01*
G01*
X49160Y45110D02*
G03*
X47860Y45139I-697J-2035D01*
G01*
X47925Y41707D02*
G03*
X49117Y41711I589J2068D01*
G01*
X50774Y34843D02*
Y36043D01*
X52474Y34843D02*
Y36043D01*
X50778Y36052D02*
X52470D01*
X50778Y34834D02*
X52470D01*
X36634Y41270D02*
Y42057D01*
Y41663D02*
X37106Y41270D01*
X36634Y41663D02*
X37106Y42057D01*
Y41270D02*
Y42057D01*
D75*
X33380Y24372D02*
X34081D01*
X33380Y25687D02*
X34081D01*
Y24372D02*
Y25687D01*
X33380Y24372D02*
Y25687D01*
X32543Y24362D02*
X33244D01*
X32543Y25677D02*
X33244D01*
Y24362D02*
Y25677D01*
X32543Y24362D02*
Y25677D01*
X36864Y25618D02*
X37565D01*
X36864Y24303D02*
X37565D01*
X36864D02*
Y25618D01*
X37565Y24303D02*
Y25618D01*
X37671Y25608D02*
X38372D01*
X37671Y24293D02*
X38372D01*
X37671D02*
Y25608D01*
X38372Y24293D02*
Y25608D01*
X49282Y33563D02*
X49990D01*
X49282Y34862D02*
X49990D01*
X49282Y33563D02*
Y34862D01*
X49990Y33563D02*
Y34862D01*
X53041Y36102D02*
Y37402D01*
X53750Y36102D02*
Y37402D01*
X53041Y36102D02*
X53750D01*
X53041Y37402D02*
X53750D01*
X43563Y28888D02*
X44272D01*
X43563Y27589D02*
X44272D01*
Y28888D01*
X43563Y27589D02*
Y28888D01*
D76*
X51127Y40437D02*
Y41237D01*
X51727Y40437D02*
Y41237D01*
X51127Y40837D02*
X51727Y41237D01*
X51127Y40837D02*
X51727Y40437D01*
X45886Y43205D02*
X46236Y43705D01*
X45536D02*
X45886Y43205D01*
X45536D02*
X46236D01*
X45536Y43705D02*
X46236D01*
D77*
X38907Y34882D02*
Y35236D01*
X39616Y34882D02*
Y35236D01*
X39656Y36142D02*
X40010D01*
X39656Y36850D02*
X40010D01*
X41329Y41516D02*
X41683D01*
X41329Y40807D02*
X41683D01*
M02*
