G04 Layer_Color=16711935*
%FSLAX24Y24*%
%MOIN*%
G70*
G01*
G75*
%ADD79R,0.0441X0.0402*%
%ADD80R,0.0323X0.0402*%
%ADD81R,0.0402X0.0323*%
%ADD82R,0.0402X0.0441*%
%ADD89R,0.0461X0.0736*%
%ADD94C,0.0520*%
%ADD95R,0.0756X0.0598*%
G04:AMPARAMS|DCode=100|XSize=91.3mil|YSize=73.6mil|CornerRadius=19.6mil|HoleSize=0mil|Usage=FLASHONLY|Rotation=270.000|XOffset=0mil|YOffset=0mil|HoleType=Round|Shape=RoundedRectangle|*
%AMROUNDEDRECTD100*
21,1,0.0913,0.0344,0,0,270.0*
21,1,0.0522,0.0736,0,0,270.0*
1,1,0.0392,-0.0172,-0.0261*
1,1,0.0392,-0.0172,0.0261*
1,1,0.0392,0.0172,0.0261*
1,1,0.0392,0.0172,-0.0261*
%
%ADD100ROUNDEDRECTD100*%
%ADD110C,0.0647*%
%ADD111R,0.0647X0.0647*%
%ADD112C,0.1622*%
%ADD113C,0.3197*%
%ADD114C,0.0756*%
%ADD115R,0.0756X0.0756*%
%ADD116C,0.0677*%
%ADD117R,0.0874X0.0874*%
%ADD118C,0.0874*%
%ADD119R,0.0677X0.0677*%
%ADD120O,0.0343X0.0847*%
G04:AMPARAMS|DCode=121|XSize=83.5mil|YSize=91.3mil|CornerRadius=22mil|HoleSize=0mil|Usage=FLASHONLY|Rotation=0.000|XOffset=0mil|YOffset=0mil|HoleType=Round|Shape=RoundedRectangle|*
%AMROUNDEDRECTD121*
21,1,0.0835,0.0472,0,0,0.0*
21,1,0.0394,0.0913,0,0,0.0*
1,1,0.0441,0.0197,-0.0236*
1,1,0.0441,-0.0197,-0.0236*
1,1,0.0441,-0.0197,0.0236*
1,1,0.0441,0.0197,0.0236*
%
%ADD121ROUNDEDRECTD121*%
%ADD122O,0.0638X0.0328*%
%ADD123O,0.0328X0.0638*%
%ADD124R,0.0500X0.0618*%
G04:AMPARAMS|DCode=125|XSize=115mil|YSize=63.8mil|CornerRadius=17.1mil|HoleSize=0mil|Usage=FLASHONLY|Rotation=270.000|XOffset=0mil|YOffset=0mil|HoleType=Round|Shape=RoundedRectangle|*
%AMROUNDEDRECTD125*
21,1,0.1150,0.0295,0,0,270.0*
21,1,0.0807,0.0638,0,0,270.0*
1,1,0.0343,-0.0148,-0.0404*
1,1,0.0343,-0.0148,0.0404*
1,1,0.0343,0.0148,0.0404*
1,1,0.0343,0.0148,-0.0404*
%
%ADD125ROUNDEDRECTD125*%
G36*
X33400Y44695D02*
X33496Y44655D01*
X33578Y44592D01*
X33641Y44510D01*
X33681Y44414D01*
X33694Y44311D01*
X33681Y44208D01*
X33641Y44112D01*
X33578Y44030D01*
X33496Y43967D01*
X33400Y43927D01*
X33297Y43914D01*
X33194Y43927D01*
X33099Y43967D01*
X33016Y44030D01*
X32953Y44112D01*
X32914Y44208D01*
X32900Y44311D01*
X32914Y44414D01*
X32953Y44510D01*
X33016Y44592D01*
X33099Y44655D01*
X33194Y44695D01*
X33297Y44708D01*
X33400Y44695D01*
D02*
G37*
G36*
X56441Y25285D02*
X56537Y25245D01*
X56619Y25182D01*
X56682Y25100D01*
X56722Y25004D01*
X56736Y24902D01*
X56722Y24799D01*
X56682Y24703D01*
X56619Y24621D01*
X56537Y24558D01*
X56441Y24518D01*
X56339Y24504D01*
X56236Y24518D01*
X56140Y24558D01*
X56058Y24621D01*
X55995Y24703D01*
X55955Y24799D01*
X55941Y24902D01*
X55955Y25004D01*
X55995Y25100D01*
X56058Y25182D01*
X56140Y25245D01*
X56236Y25285D01*
X56339Y25299D01*
X56441Y25285D01*
D02*
G37*
D79*
X33563Y28661D02*
D03*
X32894D02*
D03*
X46358Y26988D02*
D03*
X45689D02*
D03*
X46368Y29744D02*
D03*
X45699D02*
D03*
X51319Y29360D02*
D03*
X51988D02*
D03*
X51319Y26988D02*
D03*
X51988D02*
D03*
D80*
X50099Y30719D02*
D03*
X50709D02*
D03*
D81*
X50010Y33287D02*
D03*
Y32677D02*
D03*
X50620Y32677D02*
D03*
Y33287D02*
D03*
X54764Y35256D02*
D03*
Y35866D02*
D03*
X56811Y36466D02*
D03*
Y35856D02*
D03*
X34715Y32736D02*
D03*
Y33346D02*
D03*
D82*
X51260Y33346D02*
D03*
Y32677D02*
D03*
X56812Y34508D02*
D03*
Y35177D02*
D03*
X50413Y25305D02*
D03*
Y24636D02*
D03*
X47067Y25295D02*
D03*
Y24626D02*
D03*
X49439Y30049D02*
D03*
Y30719D02*
D03*
X48829Y30049D02*
D03*
Y30719D02*
D03*
X51319Y30049D02*
D03*
Y30719D02*
D03*
D89*
X39646Y42303D02*
D03*
X38504D02*
D03*
X37362Y43179D02*
D03*
X38504D02*
D03*
D94*
X56339Y24902D02*
D03*
X33297Y44311D02*
D03*
D95*
X36437Y44006D02*
D03*
Y42864D02*
D03*
X33484Y42402D02*
D03*
Y41260D02*
D03*
D100*
X35217Y42815D02*
D03*
Y44429D02*
D03*
D110*
X40395Y21613D02*
D03*
X39395D02*
D03*
X37395D02*
D03*
X36395D02*
D03*
X34395D02*
D03*
X40395Y22613D02*
D03*
X39395D02*
D03*
X37395D02*
D03*
X36395D02*
D03*
X34395D02*
D03*
X38395Y21613D02*
D03*
X35395D02*
D03*
X41395Y22613D02*
D03*
X38395D02*
D03*
X35395D02*
D03*
X52943Y43406D02*
D03*
X40395Y38148D02*
D03*
X39395D02*
D03*
X37395D02*
D03*
X36395D02*
D03*
X34395D02*
D03*
X40395Y39148D02*
D03*
X39395D02*
D03*
X37395D02*
D03*
X36395D02*
D03*
X34395D02*
D03*
X38395Y38148D02*
D03*
X35395D02*
D03*
X41395Y39148D02*
D03*
X38395D02*
D03*
X35395D02*
D03*
X44057Y43642D02*
D03*
D111*
X41395Y21613D02*
D03*
X51565Y43406D02*
D03*
X41395Y38148D02*
D03*
X42057Y43642D02*
D03*
D112*
X30187Y28829D02*
D03*
Y35511D02*
D03*
X41435Y30944D02*
D03*
X54820D02*
D03*
D113*
X30962Y43778D02*
D03*
Y22518D02*
D03*
X55765D02*
D03*
Y43778D02*
D03*
D114*
Y40786D02*
D03*
X54781D02*
D03*
X38022Y34862D02*
D03*
Y33681D02*
D03*
Y36043D02*
D03*
Y32500D02*
D03*
Y31319D02*
D03*
Y30138D02*
D03*
Y28957D02*
D03*
Y27776D02*
D03*
D115*
X56750Y40786D02*
D03*
D116*
X32450Y41200D02*
D03*
X30450D02*
D03*
X55073Y33307D02*
D03*
D117*
X35335Y41663D02*
D03*
D118*
X37697D02*
D03*
D119*
X56073Y33307D02*
D03*
D120*
X33567Y31964D02*
D03*
Y29764D02*
D03*
X33067Y31964D02*
D03*
Y29764D02*
D03*
X34567Y31964D02*
D03*
X34067D02*
D03*
Y29764D02*
D03*
X34567D02*
D03*
D121*
X55758Y39222D02*
D03*
X56858D02*
D03*
D122*
X40566Y45226D02*
D03*
Y44426D02*
D03*
X39656Y44826D02*
D03*
X39651Y43081D02*
D03*
Y43881D02*
D03*
X40561Y43481D02*
D03*
D123*
X39547Y40684D02*
D03*
X38747D02*
D03*
X39147Y41594D02*
D03*
X55394Y34956D02*
D03*
X56194D02*
D03*
X55794Y35866D02*
D03*
X34075Y33017D02*
D03*
X33275D02*
D03*
X33675Y33927D02*
D03*
D124*
X46398Y27707D02*
D03*
X45689D02*
D03*
D125*
X35482Y32293D02*
D03*
X36742D02*
D03*
X35482Y33691D02*
D03*
X36742D02*
D03*
M02*
