M48
;Layer_Color=9474304
;FILE_FORMAT=2:4
INCH,LZ
;TYPE=PLATED
T1F00S00C0.0118
T2F00S00C0.0197
T3F00S00C0.0315
T4F00S00C0.0380
T5F00S00C0.0394
T6F00S00C0.0433
T7F00S00C0.0472
T8F00S00C0.0512
T9F00S00C0.0551
T10F00S00C0.0630
T11F00S00C0.0827
T12F00S00C0.1260
%
T01
X020984Y006142
Y007047
Y007953
X022205
Y007039
Y006142
X023425
Y007008
Y007953
X024044Y007874
X024252Y008268
X025197Y008425
X025551Y008622
X026024Y008543
X026102Y00748
X026142Y006693
X030354Y008268
X03Y011142
X024832Y011329
X023976Y011457
X022913Y010669
X023346Y013819
X022598Y014094
X02189Y013819
X021063Y014016
X024252Y014055
X025315Y015315
X032953Y015374
X03374Y015472
X036614Y015591
X036969Y015315
X037835Y014961
Y014173
X038802Y014409
X039134Y013425
X039016Y013071
Y010945
X03874Y009724
X039921
X04185Y01315
X042047Y013386
X042283Y013504
X043189Y013937
Y014843
X044449
Y013937
X045709
Y014843
X041417Y015236
X040669Y015551
X03689Y013622
X03622Y013937
X035276Y011575
X033937Y010551
Y010236
X033583Y010315
X033228Y010276
X032598Y009803
X032283
Y009331
X032598
X03252Y00874
X032677Y008386
X03378Y008898
X034882
X035906Y007795
X036024Y006575
X032047Y007008
X031575Y007441
X031102Y010827
X030787
X047441Y013032
X047165Y022992
X047244Y023386
X047598Y027047
X045748Y027244
X04526Y027228
X044764Y027244
X044331Y026732
X044291Y025748
X04437Y025276
X045276Y025157
X045315Y023504
X046102
X044724Y022913
X043228Y023228
X041968Y022756
X041299Y022598
X040394Y022362
X040236Y023307
X039882Y023268
X040591Y023504
X040197Y024134
X040236Y024803
X040197Y025236
X039921Y025551
X039409Y025709
X039094Y025276
X039488Y024843
X038583Y024646
X03874Y024016
X037717Y024055
X037795Y023228
Y022835
Y022441
X037913Y02126
X038228Y020472
X03874Y020394
X039449Y020945
X040276
X039685Y019882
X041457
X041063Y016339
X03874Y01622
X037874Y016772
X037756Y017441
X037047Y017244
X036457Y016614
X035748
X032795Y016732
X032323
Y017283
X032795
X032559Y018819
X032244Y019528
X03155Y019764
X03122Y020787
X031929
X033386Y020866
X035Y020709
X035906Y020551
Y021024
X035197Y022323
X035236Y023189
X035827Y023228
X035945Y023661
X035551Y023543
X034567Y023622
X034409Y02315
X034646Y024724
X036457Y02437
X037283Y024567
X037598Y025787
X037205Y026496
X037244Y027165
X037283Y027874
X036496Y027835
X035709Y027165
X035591Y026457
X035984Y025787
X033799Y026299
X033346Y026772
X033455Y028268
X034213Y027835
X034528Y02874
X035118Y029488
X035472Y030906
X03687Y030049
X037657Y029193
X038393Y028504
X037972Y027461
X039094Y027402
X039567Y026614
X040488Y027772
X040433Y02815
X041693Y027992
Y02748
X041614Y026693
X041968Y026457
X042362Y025984
X042835Y025905
X042992Y026457
X042953Y024921
X04252Y024488
X042008Y024724
X041299Y024528
X04122Y027047
Y029331
X042677Y029134
X044291Y029252
X044291Y028504
X044055Y02752
X044764Y029961
X042126Y030512
X041614Y030866
X039134Y031024
X033031Y029724
X030984Y030079
X030906Y029291
X030748Y028937
X032283Y028031
X032077Y02748
Y025905
X032323Y025472
X03063Y024409
X03122Y022638
X031535Y022362
X032323Y022638
X032992Y022756
X03622Y022795
X036535Y023228
X03811Y023504
X039094Y022795
X037598Y019646
X030709Y019213
X030906Y018268
X043189Y015748
X044409
X045709
X046102Y020236
X029331Y017283
X03Y016378
X026417Y015945
X025709Y019449
X025551Y020748
X025748Y022559
X026378Y022323
X027047Y021929
X028583Y02315
X025157Y02378
X025315Y024724
X02685Y025984
X02689Y026772
X025945Y027205
X025906Y027835
X025157Y028622
X02563Y030315
X025952Y031016
X026772Y031102
X02685Y030669
X028622Y028189
X030591Y030118
X030394Y031732
X028976Y031811
Y032598
X02815Y033386
X027677Y036181
X030276Y038346
X025039Y032677
X025118Y031457
X031142Y03185
X032205Y031811
X032323Y032323
Y032795
X032992Y032598
X033543Y032126
X03437Y031614
X035Y031732
X034803Y032953
X034409Y034213
X036063Y034134
X036457Y034331
Y033386
X036575Y032283
X038268Y031339
X039173Y03185
X040079Y032283
X039646Y032913
X038976Y034134
X041102Y03437
X041732Y032835
X042323Y033307
X044409Y033071
X044961Y035433
X043701Y036299
X031693Y03437
X031339Y038346
T02
X044724Y024409
X027913Y030472
X025945Y029213
X016575Y026142
X026732Y016968
T03
X039197Y018228
X040197
X041197
X042197
T04
X021299Y003268
Y004646
X024724
Y003268
X027126Y009803
X029126
X028858Y01374
X02748
X025827Y014331
Y012953
X035276Y014567
X036654
X040591Y01122
X042591
X046614Y018701
Y019701
Y020701
Y021701
Y022701
X045614
Y021701
Y020701
Y019701
Y018701
X036654Y017913
X035276
X025079Y018071
Y016693
T05
X013524Y010256
X014508Y013209
X038376Y012024
Y011024
X038984Y008268
X040984
X047392Y02935
X039518
X037299Y030866
X036299
X034094
X033094
X031299
X031339Y02373
Y021496
X030339
Y02373
X030315Y025614
Y026614
Y027614
X030299Y030866
X021535Y030197
Y028189
Y023465
Y021457
Y016732
Y034921
X027323Y037205
X028323
Y038947
X027323
Y04064
X028323
X044906Y034488
X045906
X046906
T06
X032756Y005709
X033937
Y00689
X032756
X035118
Y005709
X038622
Y00689
X039803
Y005709
X042795
Y00689
X043976
Y005709
X01122Y016256
Y022756
X013622Y022437
Y028937
X011181Y029366
Y035866
T07
X016732Y016732
Y021457
Y023465
Y028189
Y030197
X022323Y025827
Y019094
X013583Y020622
Y016622
X01122Y024063
Y028063
X013583Y030598
Y034598
X016732Y034921
X022323Y032559
T08
X010315Y006516
Y008612
Y012835
Y014803
X017559Y014734
Y012766
Y008543
Y006447
T09
X046693Y005551
Y007913
T10
X012953Y006299
X014921
X027598Y006339
X029567
X014843Y037402
X012874
X017559
X019528
X022283
X024252
X030866
X032835
X035236
X037205
X04
X041968
X044764
X046732
T11
X021417Y009488
X024409
T12
X010157Y003583
X046693
X010157Y040118
X025866Y033976
M30
