G04*
G04 #@! TF.GenerationSoftware,Altium Limited,Altium Designer,18.1.7 (191)*
G04*
G04 Layer_Physical_Order=2*
G04 Layer_Color=16711680*
%FSLAX24Y24*%
%MOIN*%
G70*
G01*
G75*
%ADD12C,0.0079*%
%ADD13C,0.0118*%
%ADD14C,0.0100*%
%ADD62C,0.0630*%
%ADD66R,0.0630X0.0630*%
%ADD83C,0.0197*%
%ADD97C,0.0787*%
%ADD98C,0.1181*%
%ADD99C,0.0591*%
%ADD100R,0.0591X0.0591*%
%ADD101R,0.0591X0.0591*%
%ADD102R,0.0709X0.0709*%
%ADD103C,0.0709*%
%ADD104O,0.0787X0.0433*%
%ADD105C,0.0492*%
%ADD106C,0.1260*%
%ADD107C,0.0600*%
%ADD108C,0.0236*%
D12*
X57009Y35669D02*
G03*
X57058Y35787I-119J119D01*
G01*
X57009Y35669D02*
G03*
X57058Y35787I-119J119D01*
G01*
X57244Y35197D02*
G03*
X56772Y35212I-236J0D01*
G01*
X57023Y34961D02*
G03*
X57244Y35197I-15J236D01*
G01*
X56339Y35068D02*
G03*
X56457Y35117I0J168D01*
G01*
X56339Y35068D02*
G03*
X56457Y35117I0J168D01*
G01*
X54163Y35236D02*
G03*
X54331Y35068I168J0D01*
G01*
X54163Y35236D02*
G03*
X54331Y35068I168J0D01*
G01*
X55366D02*
G03*
X55668Y34705I145J-186D01*
G01*
X56693D02*
G03*
X56818Y34757I0J177D01*
G01*
X56693Y34705D02*
G03*
X56818Y34757I0J177D01*
G01*
X53839Y34478D02*
G03*
X53436Y34646I-236J0D01*
G01*
X51312Y34491D02*
G03*
X51201Y34537I-111J-111D01*
G01*
X51312Y34491D02*
G03*
X51201Y34537I-112J-111D01*
G01*
X53436Y34310D02*
G03*
X53839Y34478I166J168D01*
G01*
X52918Y34646D02*
G03*
X52856Y34310I-191J-139D01*
G01*
X51663Y34154D02*
G03*
X51414Y34389I-236J0D01*
G01*
X51223Y34034D02*
G03*
X51663Y34154I204J119D01*
G01*
X50848Y33976D02*
G03*
X51223Y34034I166J168D01*
G01*
X49636Y34537D02*
G03*
X49524Y34491I0J-157D01*
G01*
X49636Y34537D02*
G03*
X49524Y34491I0J-157D01*
G01*
X49128Y33650D02*
G03*
X49587Y33729I222J81D01*
G01*
X45984Y36929D02*
G03*
X45683Y37509I-709J0D01*
G01*
X45984Y36929D02*
G03*
X45683Y37509I-709J0D01*
G01*
X48386Y35709D02*
G03*
X48386Y35709I-472J0D01*
G01*
Y34724D02*
G03*
X48386Y34724I-472J0D01*
G01*
X48624Y33929D02*
G03*
X48152Y33931I-236J0D01*
G01*
X44868Y37509D02*
G03*
X45984Y36929I407J-580D01*
G01*
X44868Y37509D02*
G03*
X45984Y36929I407J-580D01*
G01*
X43356Y36801D02*
G03*
X43356Y36801I-512J0D01*
G01*
D02*
G03*
X43356Y36801I-512J0D01*
G01*
X43293Y34986D02*
G03*
X43140Y35049I-153J-153D01*
G01*
X45738Y34359D02*
G03*
X44970Y34309I-374J-176D01*
G01*
D02*
G03*
X44183Y34309I-394J-126D01*
G01*
D02*
G03*
X43693Y34585I-394J-126D01*
G01*
X43293Y34985D02*
G03*
X43140Y35049I-153J-153D01*
G01*
X48545Y33752D02*
G03*
X48624Y33929I-157J177D01*
G01*
X48668Y33635D02*
G03*
X48545Y33752I-213J-101D01*
G01*
X46801Y33711D02*
G03*
X46749Y33836I-177J0D01*
G01*
X46801Y33711D02*
G03*
X46749Y33836I-177J0D01*
G01*
X47748Y33092D02*
G03*
X48199Y32967I234J-31D01*
G01*
X48989Y32271D02*
G03*
X48946Y32378I-157J0D01*
G01*
X48989Y32271D02*
G03*
X48946Y32378I-157J0D01*
G01*
X48947Y32392D02*
G03*
X48514Y32522I-236J0D01*
G01*
X47778Y33557D02*
G03*
X47748Y33092I-52J-230D01*
G01*
X46749Y33005D02*
G03*
X46801Y33130I-125J125D01*
G01*
X46749Y33005D02*
G03*
X46801Y33130I-125J125D01*
G01*
X44183Y33270D02*
G03*
X44298Y33091I394J126D01*
G01*
X44282D02*
G03*
X44156Y33039I0J-177D01*
G01*
X44282Y33091D02*
G03*
X44156Y33039I0J-177D01*
G01*
X42743Y33861D02*
G03*
X42876Y33789I259J322D01*
G01*
X42284Y33950D02*
G03*
X42743Y33861I236J-13D01*
G01*
X42876Y33789D02*
G03*
X43396Y33270I126J-394D01*
G01*
D02*
G03*
X44183Y33270I394J126D01*
G01*
X46407Y32736D02*
G03*
X46533Y32788I0J177D01*
G01*
X46407Y32736D02*
G03*
X46533Y32788I0J177D01*
G01*
X49048Y29952D02*
G03*
X48989Y30109I-236J0D01*
G01*
X48575Y29953D02*
G03*
X49048Y29952I236J-1D01*
G01*
X48199Y31979D02*
G03*
X48245Y31868I157J0D01*
G01*
X48199Y31979D02*
G03*
X48245Y31867I157J0D01*
G01*
X48120Y30325D02*
G03*
X48231Y30371I0J157D01*
G01*
X48120Y30325D02*
G03*
X48232Y30371I0J157D01*
G01*
X48437Y30365D02*
G03*
X48575Y29953I157J-176D01*
G01*
X48524Y27982D02*
G03*
X48068Y28069I-236J0D01*
G01*
X48374Y27762D02*
G03*
X48524Y27982I-86J220D01*
G01*
X51161Y25807D02*
G03*
X51161Y25807I-512J0D01*
G01*
X48071Y27549D02*
G03*
X48224Y27613I0J217D01*
G01*
X51161Y25807D02*
G03*
X51161Y25807I-512J0D01*
G01*
X48071Y27549D02*
G03*
X48224Y27613I0J217D01*
G01*
X45965Y31033D02*
G03*
X45811Y30970I0J-217D01*
G01*
X47953Y30817D02*
G03*
X47622Y31033I-236J0D01*
G01*
X45965D02*
G03*
X45811Y30970I0J-217D01*
G01*
X47873Y30640D02*
G03*
X47953Y30817I-156J177D01*
G01*
X45447Y30606D02*
G03*
X45384Y30453I153J-153D01*
G01*
X45448Y30606D02*
G03*
X45384Y30453I153J-153D01*
G01*
X45108Y30523D02*
G03*
X45187Y30699I-157J176D01*
G01*
X45384Y30242D02*
G03*
X45807Y30033I217J-94D01*
G01*
Y29727D02*
G03*
X45483Y29495I-89J-219D01*
G01*
X45676Y28849D02*
G03*
X45807Y28880I13J236D01*
G01*
Y28607D02*
G03*
X45630Y28803I-234J-32D01*
G01*
X45409Y28405D02*
G03*
X45807Y28542I164J170D01*
G01*
X45062Y29406D02*
G03*
X45108Y29518I-111J111D01*
G01*
X43725Y32608D02*
G03*
X43976Y32357I15J-236D01*
G01*
X45187Y30699D02*
G03*
X44793Y30523I-236J0D01*
G01*
X45062Y29406D02*
G03*
X45108Y29518I-111J112D01*
G01*
X44244Y28589D02*
G03*
X44630Y28342I224J-75D01*
G01*
X44630Y28342D02*
G03*
X45075Y28405I212J103D01*
G01*
X43806Y28596D02*
G03*
X43760Y28484I111J-111D01*
G01*
X43806Y28596D02*
G03*
X43760Y28484I111J-112D01*
G01*
X46651Y27982D02*
G03*
X46683Y28100I-205J118D01*
G01*
D02*
G03*
X46434Y28336I-236J0D01*
G01*
X45807Y28089D02*
G03*
X45394Y27920I-177J-156D01*
G01*
X47260Y27982D02*
G03*
X47071Y27982I-94J-217D01*
G01*
X45617Y27697D02*
G03*
X45851Y27851I13J236D01*
G01*
X44154Y27795D02*
G03*
X44075Y27971I-236J0D01*
G01*
X46087Y27613D02*
G03*
X46240Y27549I153J153D01*
G01*
X46087Y27613D02*
G03*
X46240Y27549I153J153D01*
G01*
X47071D02*
G03*
X47260Y27549I94J217D01*
G01*
X45984Y25827D02*
G03*
X44868Y25247I-709J0D01*
G01*
X45683D02*
G03*
X45984Y25827I-407J580D01*
G01*
X44978Y27504D02*
G03*
X45266Y27274I51J-231D01*
G01*
X43760Y27971D02*
G03*
X44154Y27795I157J-176D01*
G01*
X45266Y27274D02*
G03*
X45257Y27337I-236J0D01*
G01*
X45683Y25247D02*
G03*
X45984Y25827I-407J580D01*
G01*
D02*
G03*
X44868Y25247I-709J0D01*
G01*
X42146Y28110D02*
G03*
X42082Y28264I-217J0D01*
G01*
X42146Y28110D02*
G03*
X42082Y28263I-217J0D01*
G01*
X42845Y26024D02*
G03*
X42726Y26074I-119J-119D01*
G01*
X42845Y26024D02*
G03*
X42726Y26074I-119J-119D01*
G01*
X37441Y36890D02*
G03*
X37111Y37510I-748J0D01*
G01*
X36275D02*
G03*
X37441Y36890I418J-620D01*
G01*
X37742Y35546D02*
G03*
X37589Y35610I-153J-153D01*
G01*
X37215D02*
G03*
X37061Y35547I0J-217D01*
G01*
X37742D02*
G03*
X37589Y35610I-153J-153D01*
G01*
X37215D02*
G03*
X37061Y35546I0J-217D01*
G01*
X32392Y37382D02*
G03*
X32354Y37510I-236J0D01*
G01*
X32061Y37165D02*
G03*
X32392Y37382I94J217D01*
G01*
X33383Y36728D02*
G03*
X33230Y36791I-153J-153D01*
G01*
X31690D02*
G03*
X31537Y36728I0J-217D01*
G01*
X33384Y36728D02*
G03*
X33230Y36791I-153J-153D01*
G01*
X31690D02*
G03*
X31536Y36728I0J-217D01*
G01*
X30787Y35940D02*
G03*
X31575Y35940I394J126D01*
G01*
X31575D02*
G03*
X31875Y35663I394J126D01*
G01*
X40178Y34341D02*
G03*
X40571Y34163I156J-177D01*
G01*
X37411Y32470D02*
G03*
X37081Y32687I-236J0D01*
G01*
X36672D02*
G03*
X36519Y32624I0J-217D01*
G01*
X36672Y32687D02*
G03*
X36519Y32623I0J-217D01*
G01*
X34315Y34404D02*
G03*
X34469Y34341I153J153D01*
G01*
X34315Y34404D02*
G03*
X34469Y34341I153J153D01*
G01*
X32179Y35359D02*
G03*
X27185Y32314I-998J-3981D01*
G01*
X31277Y36468D02*
G03*
X30787Y36192I-96J-402D01*
G01*
X28463Y37510D02*
G03*
X28756Y37165I199J-128D01*
G01*
X26417Y36890D02*
G03*
X26088Y37510I-748J0D01*
G01*
X30787Y36192D02*
G03*
X30787Y35940I-394J-126D01*
G01*
X25049Y36471D02*
G03*
X26417Y36890I620J418D01*
G01*
X26073Y34134D02*
G03*
X25836Y34508I-413J0D01*
G01*
X25483D02*
G03*
X25533Y33740I176J-374D01*
G01*
X27667Y33602D02*
G03*
X27211Y33689I-236J0D01*
G01*
X27517Y33382D02*
G03*
X27667Y33602I-86J220D01*
G01*
X26816Y33293D02*
G03*
X26752Y33140I153J-153D01*
G01*
X26815Y33293D02*
G03*
X26752Y33140I153J-153D01*
G01*
X25785Y33740D02*
G03*
X26073Y34134I-126J394D01*
G01*
X26019Y33550D02*
G03*
X25785Y33740I-360J-203D01*
G01*
X26098Y33500D02*
G03*
X26019Y33550I-153J-153D01*
G01*
X26098Y33499D02*
G03*
X26019Y33550I-153J-153D01*
G01*
X25533Y33740D02*
G03*
X25941Y33044I126J-394D01*
G01*
X41322Y29023D02*
G03*
X41016Y28717I-220J-86D01*
G01*
X38947Y26929D02*
G03*
X38947Y26929I-709J0D01*
G01*
D02*
G03*
X38947Y26929I-709J0D01*
G01*
X41362Y26811D02*
G03*
X41362Y26811I-433J0D01*
G01*
X40362D02*
G03*
X40362Y26811I-433J0D01*
G01*
X39045Y26074D02*
G03*
X38926Y26024I0J-168D01*
G01*
X39045Y26074D02*
G03*
X38926Y26024I0J-168D01*
G01*
X37081Y32254D02*
G03*
X37411Y32470I94J217D01*
G01*
X35612Y31724D02*
G03*
X35249Y31923I-236J0D01*
G01*
X35249D02*
G03*
X32634Y35217I-4068J-545D01*
G01*
X35782Y29147D02*
G03*
X35846Y29300I-153J153D01*
G01*
X35782Y29147D02*
G03*
X35846Y29300I-153J153D01*
G01*
X26476Y29146D02*
G03*
X26540Y28993I217J0D01*
G01*
X26476Y29146D02*
G03*
X26540Y28993I217J0D01*
G01*
X33189Y26644D02*
G03*
X33342Y26707I0J217D01*
G01*
X33189Y26644D02*
G03*
X33342Y26707I0J217D01*
G01*
X28825D02*
G03*
X28979Y26644I153J153D01*
G01*
X28826Y26707D02*
G03*
X28979Y26644I153J153D01*
G01*
X37441Y25866D02*
G03*
X36275Y25246I-748J0D01*
G01*
X37111D02*
G03*
X37441Y25866I-418J620D01*
G01*
X34698Y25246D02*
G03*
X35000Y25827I-406J581D01*
G01*
D02*
G03*
X33885Y25246I-709J0D01*
G01*
X26417Y25866D02*
G03*
X25049Y26285I-748J0D01*
G01*
X26088Y25246D02*
G03*
X26417Y25866I-418J620D01*
G01*
X57058Y36378D02*
X57785D01*
X57058Y36457D02*
X57785D01*
X57058Y36299D02*
X57785D01*
X57058Y36604D02*
X57785D01*
X57058Y36535D02*
X57785D01*
X57058Y35984D02*
X57785D01*
X57058Y36063D02*
X57785D01*
X57058Y35905D02*
X57785D01*
X57058Y36220D02*
X57785D01*
X57058Y36142D02*
X57785D01*
X57058Y35827D02*
X57785D01*
X57058Y35787D02*
Y36604D01*
X57053Y35748D02*
X57785D01*
X57009Y35669D02*
X57785D01*
X56931Y35590D02*
X57785D01*
X56852Y35512D02*
X57785D01*
X56773Y35433D02*
X57002D01*
X57184Y35354D02*
X57785D01*
X57014Y35433D02*
X57785D01*
Y35236D02*
Y36604D01*
X56457Y35117D02*
X57009Y35669D01*
X57244Y35197D02*
X57785D01*
X57231Y35276D02*
X57785D01*
X57231Y35118D02*
X57785D01*
X57184Y35039D02*
X57785D01*
X56694Y35354D02*
X56832D01*
X56616Y35276D02*
X56785D01*
X56620Y35059D02*
X56772Y35212D01*
X56537Y35197D02*
X56757D01*
X56458Y35118D02*
X56679D01*
X55657Y35068D02*
X56339D01*
X55668Y35059D02*
X56620D01*
X48386Y36614D02*
X54163D01*
X48386Y36693D02*
X54163D01*
X48386Y36535D02*
X54163D01*
X48386Y36850D02*
X54163D01*
X48386Y36772D02*
X54163D01*
X48386Y36378D02*
X54163D01*
X48386Y36457D02*
X54163D01*
X48386Y36299D02*
X54163D01*
X48102Y36142D02*
X54163D01*
X48226Y36063D02*
X54163D01*
X45865Y37323D02*
X54163D01*
X45804Y37401D02*
X54163D01*
X45910Y37244D02*
X54163D01*
X45683Y37509D02*
X54163D01*
X45721Y37480D02*
X54163D01*
X48386Y37008D02*
X54163D01*
X48386Y36929D02*
X54163D01*
X48386Y37165D02*
X54163D01*
X48386Y37087D02*
X54163D01*
X48384Y35748D02*
X54163D01*
X48384Y35669D02*
X54163D01*
X47922Y35197D02*
X54167D01*
X54331Y35068D02*
X55366D01*
X48175Y35118D02*
X54211D01*
X48266Y35039D02*
X55336D01*
X48371Y35590D02*
X54163D01*
X48371Y35827D02*
X54163D01*
Y35236D02*
Y37509D01*
X48297Y35984D02*
X54163D01*
X48343Y35905D02*
X54163D01*
X48343Y35512D02*
X54163D01*
X48297Y35433D02*
X54163D01*
X48226Y35354D02*
X54163D01*
X48102Y35276D02*
X54163D01*
X56943Y34882D02*
X57785D01*
X57022Y34961D02*
X57785D01*
X56865Y34803D02*
X57785D01*
X56818Y34757D02*
X57023Y34961D01*
X53838Y34488D02*
X57785D01*
X56774Y34724D02*
X57785D01*
X53828Y34409D02*
X57785D01*
X53769Y34646D02*
X57785D01*
X53821Y34567D02*
X57785D01*
X55668Y34705D02*
X56693D01*
X52821Y34724D02*
X55336D01*
X52918Y34646D02*
X53436D01*
X51315Y34488D02*
X52491D01*
X51394Y34409D02*
X52512D01*
X53670Y34252D02*
X57785D01*
X53787Y34331D02*
X57785D01*
X52856Y34310D02*
X53436D01*
X51642Y34252D02*
X53535D01*
X51663Y34173D02*
X57785D01*
X51656Y34094D02*
X57785D01*
X51619Y34016D02*
X57785D01*
X51521Y33937D02*
X57785D01*
X51583Y34331D02*
X52570D01*
X51312Y34491D02*
X51414Y34389D01*
X51128Y33937D02*
X51333D01*
X49833Y33976D02*
X50848D01*
X49795Y33937D02*
X50900D01*
X48379Y34803D02*
X55289D01*
X48386Y34724D02*
X52632D01*
X48379Y34646D02*
X52534D01*
X48323Y34961D02*
X55289D01*
X48359Y34882D02*
X55276D01*
X49637Y33779D02*
X57785D01*
X49716Y33858D02*
X57785D01*
X49585Y33701D02*
X57785D01*
X49560Y33622D02*
X57785D01*
X49495Y33543D02*
X57785D01*
X49636Y34537D02*
X51201D01*
X48359Y34567D02*
X52498D01*
X48668Y33635D02*
X49524Y34491D01*
X48322Y34488D02*
X49521D01*
X49587Y33729D02*
X49833Y33976D01*
X48265Y34409D02*
X49443D01*
X48174Y34331D02*
X49364D01*
X48825Y32598D02*
X57785D01*
X48514Y32677D02*
X57785D01*
X48909Y32520D02*
X57785D01*
X48514Y32835D02*
X57785D01*
X48514Y32756D02*
X57785D01*
X48988Y32283D02*
X57785D01*
X48989Y32205D02*
X57785D01*
X48942Y32441D02*
X57785D01*
X48960Y32362D02*
X57785D01*
X48943Y33465D02*
X57785D01*
X48864Y33386D02*
X57785D01*
X48786Y33307D02*
X57785D01*
X48707Y33228D02*
X57785D01*
X48628Y33150D02*
X57785D01*
X48549Y33071D02*
X57785D01*
X48514Y32992D02*
X57785D01*
X48514Y32913D02*
X57785D01*
X47441Y37165D02*
X48386D01*
X45980Y37008D02*
X47441D01*
X45944Y37165D02*
X47441D01*
X45967Y37087D02*
X47441D01*
X45984Y36929D02*
X47441D01*
X45980Y36850D02*
X47441D01*
X45967Y36772D02*
X47441D01*
X45910Y36614D02*
X47441D01*
X45944Y36693D02*
X47441D01*
Y36220D02*
Y37165D01*
X45865Y36535D02*
X47441D01*
X45804Y36457D02*
X47441D01*
X45721Y36378D02*
X47441D01*
X45600Y36299D02*
X47441D01*
Y36220D02*
X48386D01*
Y37165D01*
X46565Y34173D02*
X49206D01*
X46565Y34331D02*
X47652D01*
X46565Y34252D02*
X49285D01*
X46565Y34567D02*
X47468D01*
X45738Y34359D02*
Y34596D01*
X46565Y34020D02*
Y34596D01*
X45738D02*
X46565D01*
X45518Y34567D02*
X45738D01*
X46565Y34488D02*
X47504D01*
X46565Y34409D02*
X47561D01*
X45643Y34488D02*
X45738D01*
X45364Y34183D02*
Y34557D01*
X43345Y36693D02*
X44607D01*
X43101Y37244D02*
X44641D01*
X43321Y36614D02*
X44641D01*
X43223Y36457D02*
X44747D01*
X43282Y36535D02*
X44686D01*
X43205Y35039D02*
X47561D01*
X43132Y36378D02*
X44830D01*
X42944Y36299D02*
X44951D01*
X43204Y37165D02*
X44607D01*
X43269Y37087D02*
X44585D01*
X43313Y37008D02*
X44571D01*
X43354Y36850D02*
X44571D01*
X43355Y36772D02*
X44585D01*
X43340Y36929D02*
X44567D01*
X43476Y34803D02*
X47448D01*
X43554Y34724D02*
X47441D01*
X43633Y34646D02*
X47448D01*
X43318Y34961D02*
X47504D01*
X43397Y34882D02*
X47468D01*
X44923Y34409D02*
X45018D01*
X44730Y34567D02*
X45211D01*
X44856Y34488D02*
X45085D01*
X43943Y34567D02*
X44423D01*
X43293Y34985D02*
X43693Y34585D01*
X44135Y34409D02*
X44231D01*
X44577Y34183D02*
Y34557D01*
X44068Y34488D02*
X44298D01*
X42051Y34183D02*
X42284Y33950D01*
X48608Y34016D02*
X49049D01*
X48624Y33937D02*
X48970D01*
X48614Y33858D02*
X48891D01*
X48557Y34094D02*
X49128D01*
X49101Y33622D02*
X49140D01*
X48622Y33701D02*
X48734D01*
X49022Y33543D02*
X49206D01*
X48571Y33779D02*
X48813D01*
X46787D02*
X48000D01*
X46801Y33701D02*
X47922D01*
X47778Y33557D02*
X48152Y33931D01*
X46801Y33465D02*
X47534D01*
X46801Y33386D02*
X47498D01*
X46801Y33622D02*
X47843D01*
X46801Y33543D02*
X47632D01*
X48514Y33035D02*
X49128Y33650D01*
X48167Y32913D02*
X48199D01*
X48514Y32522D02*
Y33035D01*
X48050Y32835D02*
X48199D01*
X48514Y32598D02*
X48596D01*
X46801Y33307D02*
X47491D01*
X46801Y33130D02*
Y33711D01*
Y33228D02*
X47512D01*
X46801Y33150D02*
X47570D01*
X46791Y33071D02*
X47746D01*
X46737Y32992D02*
X47756D01*
X46570Y34016D02*
X48169D01*
X46648Y33937D02*
X48152D01*
X46727Y33858D02*
X48079D01*
X46565Y34094D02*
X48220D01*
X46565Y34020D02*
X46749Y33836D01*
X44121Y33150D02*
X44245D01*
X44045Y33071D02*
X44200D01*
X43380Y33228D02*
X43411D01*
X44167D02*
X44199D01*
X42696Y33779D02*
X42848D01*
X43334Y33150D02*
X43457D01*
X43879Y32992D02*
X44110D01*
X43258Y33071D02*
X43534D01*
X43091Y32992D02*
X43700D01*
X46489Y32756D02*
X48199D01*
X46579Y32835D02*
X47915D01*
X44296Y32677D02*
X48199D01*
X44217Y32598D02*
X48199D01*
X44138Y32520D02*
X48199D01*
X44060Y32441D02*
X48199D01*
X43981Y32362D02*
X48199D01*
X43959Y32283D02*
X48199D01*
X43907Y32205D02*
X48199D01*
X46658Y32913D02*
X47798D01*
X46533Y32788D02*
X46749Y33005D01*
X43725Y32608D02*
X44156Y33039D01*
X44355Y32736D02*
X46407D01*
X43976Y32357D02*
X44355Y32736D01*
X48989Y32047D02*
X57785D01*
X48989Y32126D02*
X57785D01*
Y31565D02*
Y35236D01*
X48989Y31968D02*
X57785D01*
X48989Y31890D02*
X57785D01*
X48989Y31575D02*
X57785D01*
X48989Y31653D02*
X57785D01*
X55709Y31565D02*
X57785D01*
X48989Y31811D02*
X57785D01*
X48989Y31732D02*
X57785D01*
X48989Y31260D02*
X55699D01*
X48989Y31339D02*
X55699D01*
X48989Y31181D02*
X55699D01*
X48989Y31496D02*
X55699D01*
X48989Y31417D02*
X55699D01*
X48989Y30945D02*
X55699D01*
X48989Y30866D02*
X55699D01*
X48989Y31102D02*
X55699D01*
X48989Y31024D02*
X55699D01*
X48989Y30551D02*
X55699D01*
X48989Y30630D02*
X55699D01*
X48989Y30472D02*
X55699D01*
X48989Y30787D02*
X55699D01*
X48989Y30709D02*
X55699D01*
X48989Y30157D02*
X55699D01*
X48989Y30236D02*
X55699D01*
X49021Y29842D02*
X55699D01*
X48989Y30394D02*
X55699D01*
X48989Y30315D02*
X55699D01*
X49011Y30079D02*
X55699D01*
X48989Y30109D02*
Y32271D01*
X55699Y25247D02*
Y31555D01*
X48437Y30365D02*
Y30577D01*
X49043Y30000D02*
X55699D01*
X49046Y29921D02*
X55699D01*
X48954Y29764D02*
X55699D01*
X47948Y30866D02*
X48280D01*
X48245Y31867D02*
X48280Y31833D01*
Y30865D02*
Y31833D01*
X47831Y31024D02*
X48280D01*
X47915Y30945D02*
X48280D01*
X48254Y30394D02*
X48437D01*
X48333Y30472D02*
X48437D01*
X48232Y30371D02*
X48437Y30577D01*
X48055Y30640D02*
X48280Y30865D01*
X46689Y30315D02*
X48395D01*
X48199Y31979D02*
Y32967D01*
X47951Y30787D02*
X48202D01*
X47926Y30709D02*
X48124D01*
X47873Y30640D02*
X48055D01*
X46699Y30325D02*
X48120D01*
X46398Y29449D02*
X55699D01*
X46398Y29527D02*
X55699D01*
X46398Y29370D02*
X55699D01*
X46398Y29685D02*
X55699D01*
X46398Y29606D02*
X55699D01*
X46398Y29055D02*
X55699D01*
X46398Y28976D02*
X55699D01*
X46398Y29291D02*
X55699D01*
X46398Y29134D02*
X55699D01*
X46610Y30236D02*
X48364D01*
X46532Y30157D02*
X48361D01*
X46453Y30079D02*
X48386D01*
X46398Y30000D02*
X48453D01*
X46398Y29764D02*
X48669D01*
X46398Y29213D02*
X55699D01*
X46398Y29921D02*
X48577D01*
X46398Y29842D02*
X48602D01*
X48486Y28110D02*
X55699D01*
X48402Y28189D02*
X55699D01*
X48518Y28031D02*
X55699D01*
X46424Y28346D02*
X55699D01*
X46614Y28268D02*
X55699D01*
X48497Y27874D02*
X55699D01*
X48522Y27953D02*
X55699D01*
X48328Y27716D02*
X55699D01*
X48249Y27638D02*
X55699D01*
X48135Y27559D02*
X55699D01*
X46683Y28110D02*
X48089D01*
X47981Y27982D02*
X48068Y28069D01*
X46666Y28189D02*
X48173D01*
X46673Y28031D02*
X48030D01*
X48432Y27795D02*
X55699D01*
X47260Y27982D02*
X47981D01*
X48224Y27613D02*
X48374Y27762D01*
X51093Y26063D02*
X55699D01*
X51037Y26142D02*
X55699D01*
X51130Y25984D02*
X55699D01*
X50790Y26299D02*
X55699D01*
X50951Y26220D02*
X55699D01*
X51161Y25827D02*
X55699D01*
X51158Y25748D02*
X55699D01*
X51152Y25905D02*
X55699D01*
X50999Y25433D02*
X55699D01*
X47260Y27549D02*
X48071D01*
X51143Y25669D02*
X55699D01*
X51113Y25591D02*
X55699D01*
X51068Y25512D02*
X55699D01*
X50888Y25354D02*
X55699D01*
X45264Y27244D02*
X55699D01*
X45261Y27323D02*
X55699D01*
X45239Y27165D02*
X55699D01*
X45174Y27087D02*
X55699D01*
X42362Y27008D02*
X55699D01*
X42362Y26693D02*
X55699D01*
X42362Y26772D02*
X55699D01*
X42362Y26614D02*
X55699D01*
X42362Y26929D02*
X55699D01*
X42362Y26850D02*
X55699D01*
X46398Y28661D02*
X55699D01*
X46398Y28740D02*
X55699D01*
X46398Y28583D02*
X55699D01*
X46398Y28898D02*
X55699D01*
X46398Y28819D02*
X55699D01*
X46398Y28504D02*
X55699D01*
X46398Y28425D02*
X55699D01*
X45400Y27480D02*
X55699D01*
X45321Y27402D02*
X55699D01*
X45721Y26378D02*
X55699D01*
X45804Y26299D02*
X50509D01*
X45865Y26220D02*
X50348D01*
X45284Y26535D02*
X55699D01*
X45600Y26457D02*
X55699D01*
X45865Y25433D02*
X50300D01*
X45804Y25354D02*
X50411D01*
X45721Y25276D02*
X55699D01*
X45683Y25247D02*
X55699D01*
X45967Y25984D02*
X50169D01*
X45980Y25905D02*
X50147D01*
X45984Y25827D02*
X50138D01*
X45910Y26142D02*
X50262D01*
X45944Y26063D02*
X50206D01*
X45980Y25748D02*
X50141D01*
X45967Y25669D02*
X50157D01*
X45944Y25591D02*
X50186D01*
X45910Y25512D02*
X50232D01*
X45965Y31033D02*
X47622D01*
X45448Y30606D02*
X45811Y30970D01*
X45187Y30709D02*
X45550D01*
X46398Y30023D02*
X46699Y30325D01*
X45118Y30866D02*
X45707D01*
X45170Y30787D02*
X45629D01*
X45177Y30630D02*
X45471D01*
X45135Y30551D02*
X45407D01*
X45108Y30472D02*
X45385D01*
X45384Y30242D02*
Y30453D01*
X45108Y30079D02*
X45374D01*
X45108Y30000D02*
X45416D01*
X45807Y29727D02*
Y30033D01*
X45668Y29921D02*
X45807D01*
X46398Y28372D02*
Y30023D01*
X45741Y28740D02*
X45807D01*
X46398Y28372D02*
X46434Y28336D01*
X45646Y28819D02*
X45807D01*
X45630Y28803D02*
X45676Y28849D01*
X45807Y28607D02*
Y28880D01*
X45108Y29921D02*
X45533D01*
X45250Y29262D02*
X45483Y29495D01*
X45756Y28425D02*
X45807D01*
Y28089D02*
Y28542D01*
X45635Y28346D02*
X45807D01*
X45108Y30236D02*
X45381D01*
X45108Y30157D02*
X45364D01*
X45108Y29842D02*
X45807D01*
X45108Y30394D02*
X45384D01*
X45108Y30315D02*
X45384D01*
X45108Y29764D02*
X45807D01*
X45108Y29685D02*
X45562D01*
X45108Y29606D02*
X45504D01*
X45108Y29527D02*
X45483D01*
X45092Y29449D02*
X45437D01*
X45108Y29518D02*
Y30523D01*
X44793Y29583D02*
Y30523D01*
X45026Y29370D02*
X45358D01*
X44947Y29291D02*
X45279D01*
X44918Y29262D02*
X45250D01*
X44918D02*
X45062Y29406D01*
X44426Y29216D02*
X44793Y29583D01*
X43806Y28596D02*
X44426Y29215D01*
X44075Y28419D02*
X44244Y28589D01*
X45075Y28405D02*
X45409D01*
X44081Y28425D02*
X44250D01*
X44075Y28346D02*
X44302D01*
X44160Y28504D02*
X44232D01*
X41763Y28583D02*
X43794D01*
X41842Y28504D02*
X43761D01*
X43760Y27971D02*
Y28484D01*
X44075Y27971D02*
Y28419D01*
X41920Y28425D02*
X43760D01*
X41999Y28346D02*
X43760D01*
X44999Y28268D02*
X45807D01*
X44075Y28189D02*
X45807D01*
X46651Y27982D02*
X47071D01*
X45822Y27795D02*
X45904D01*
X45724Y27716D02*
X45983D01*
X45057Y28346D02*
X45511D01*
X44075Y28268D02*
X44686D01*
X44075Y28110D02*
X45474D01*
X44075Y28031D02*
X45415D01*
X44140Y27874D02*
X45348D01*
X44154Y27795D02*
X45269D01*
X44093Y27953D02*
X45395D01*
X44140Y27716D02*
X45191D01*
X45871Y27829D02*
X46087Y27613D01*
X45557Y27638D02*
X46062D01*
X45479Y27559D02*
X46176D01*
X46240Y27549D02*
X47071D01*
X45257Y27337D02*
X45617Y27697D01*
X44978Y27504D02*
X45394Y27920D01*
X44093Y27638D02*
X45112D01*
X43623Y25247D02*
X44868D01*
X42146Y28031D02*
X43760D01*
X42146Y28110D02*
X43760D01*
X42146Y27559D02*
X45033D01*
X42078Y28268D02*
X43760D01*
X42131Y28189D02*
X43760D01*
X42146Y27323D02*
X44798D01*
X42362Y27244D02*
X44795D01*
X42362Y27165D02*
X44820D01*
X42146Y27480D02*
X44915D01*
X42146Y27402D02*
X44831D01*
X42146Y27953D02*
X43741D01*
X42146Y27874D02*
X43695D01*
X42146Y27244D02*
Y28110D01*
Y27638D02*
X43741D01*
X42146Y27244D02*
X42362D01*
X42146Y27795D02*
X43681D01*
X42146Y27716D02*
X43695D01*
X42362Y26457D02*
X44951D01*
X42785Y26063D02*
X44607D01*
X43279Y25591D02*
X44607D01*
X42362Y27087D02*
X44885D01*
X42362Y26535D02*
X45267D01*
X43515Y25354D02*
X44747D01*
X43594Y25276D02*
X44830D01*
X43358Y25512D02*
X44641D01*
X43437Y25433D02*
X44686D01*
X42885Y25984D02*
X44585D01*
X42845Y26024D02*
X43623Y25247D01*
X42362Y26378D02*
Y27244D01*
X43122Y25748D02*
X44571D01*
X43200Y25669D02*
X44585D01*
X42964Y25905D02*
X44571D01*
X43043Y25827D02*
X44567D01*
X37480Y37509D02*
X44868D01*
X37303Y37323D02*
X44686D01*
X37352Y37244D02*
X42588D01*
X37152Y37480D02*
X44830D01*
X37239Y37401D02*
X44747D01*
X37388Y37165D02*
X42485D01*
X37415Y37087D02*
X42420D01*
X37303Y36457D02*
X42466D01*
X37238Y36378D02*
X42557D01*
X37152Y36299D02*
X42745D01*
X37432Y37008D02*
X42376D01*
X37440Y36929D02*
X42349D01*
X37440Y36850D02*
X42335D01*
X37111Y37510D02*
X37464D01*
X37432Y36772D02*
X42334D01*
X37415Y36693D02*
X42344D01*
X37388Y36614D02*
X42368D01*
X37352Y36535D02*
X42407D01*
X37027Y36220D02*
X54163D01*
X34127Y35984D02*
X47530D01*
X34206Y35905D02*
X47484D01*
X33970Y36142D02*
X47724D01*
X34048Y36063D02*
X47601D01*
X37679Y35590D02*
X47456D01*
X34442Y35669D02*
X47443D01*
X37742Y35546D02*
X38239Y35049D01*
X34285Y35827D02*
X47456D01*
X34363Y35748D02*
X47443D01*
X37215Y35610D02*
X37589D01*
X33812Y36299D02*
X36234D01*
X33891Y36220D02*
X36359D01*
X34521Y35590D02*
X37124D01*
X32370Y37480D02*
X36234D01*
X32391Y37401D02*
X36147D01*
X32384Y37323D02*
X36083D01*
X32354Y37510D02*
X36275D01*
X32347Y37244D02*
X36034D01*
X32250Y37165D02*
X35997D01*
X26416Y36850D02*
X35946D01*
X33321Y36772D02*
X35954D01*
X26391Y37087D02*
X35971D01*
X26408Y37008D02*
X35954D01*
X28756Y37165D02*
X32061D01*
X28756Y37165D02*
X32061D01*
X26416Y36929D02*
X35946D01*
X31690Y36791D02*
X33230D01*
X26408Y36772D02*
X31599D01*
X33497Y36614D02*
X35998D01*
X33418Y36693D02*
X35971D01*
X33576Y36535D02*
X36034D01*
X33384Y36728D02*
X34787Y35325D01*
X33655Y36457D02*
X36083D01*
X33733Y36378D02*
X36147D01*
X25049Y35590D02*
X31948D01*
X31875Y35663D02*
X32179Y35359D01*
X31277Y36468D02*
X31536Y36728D01*
X26391Y36693D02*
X31502D01*
X26365Y36614D02*
X31423D01*
X31518Y35827D02*
X31631D01*
X31445Y35748D02*
X31705D01*
X31297Y35669D02*
X31853D01*
X38013Y35276D02*
X47725D01*
X37934Y35354D02*
X47601D01*
X38092Y35197D02*
X47905D01*
X37777Y35512D02*
X47484D01*
X37856Y35433D02*
X47530D01*
X38170Y35118D02*
X47652D01*
X38239Y35049D02*
X43140D01*
X34987Y32913D02*
X44031D01*
X34920Y33071D02*
X42746D01*
X34955Y32992D02*
X42913D01*
X40571Y34173D02*
X42061D01*
X40577Y34183D02*
X42051D01*
X40561Y34094D02*
X42140D01*
X36839Y35325D02*
X37061Y35546D01*
X40519Y34016D02*
X42218D01*
X40402Y33937D02*
X42283D01*
X34845Y33228D02*
X42624D01*
X34883Y33150D02*
X42670D01*
X37290Y32677D02*
X43795D01*
X37374Y32598D02*
X43672D01*
X35018Y32835D02*
X43952D01*
X35047Y32756D02*
X43873D01*
X37406Y32520D02*
X43556D01*
X37410Y32441D02*
X43514D01*
X37385Y32362D02*
X43504D01*
X37319Y32283D02*
X43521D01*
X36672Y32687D02*
X37081D01*
X35074Y32677D02*
X36608D01*
X35100Y32598D02*
X36494D01*
X35166Y32362D02*
X36258D01*
X35184Y32283D02*
X36179D01*
X35123Y32520D02*
X36415D01*
X35145Y32441D02*
X36337D01*
X34678Y35433D02*
X36948D01*
X34757Y35354D02*
X36869D01*
X34787Y35325D02*
X36839D01*
X34600Y35512D02*
X37026D01*
X33503Y35217D02*
X34315Y34404D01*
X33859Y34488D02*
X34231D01*
X33765Y34567D02*
X34153D01*
X33948Y34409D02*
X34310D01*
X33557Y34724D02*
X33995D01*
X33665Y34646D02*
X34074D01*
X32685Y35197D02*
X33523D01*
X32634Y35217D02*
X33503D01*
X32871Y35118D02*
X33601D01*
X25049Y35512D02*
X32027D01*
X31815Y35433D02*
X32105D01*
X33318Y34882D02*
X33838D01*
X33443Y34803D02*
X33916D01*
X33036Y35039D02*
X33680D01*
X33184Y34961D02*
X33759D01*
X34565Y33701D02*
X42723D01*
X34510Y33779D02*
X42344D01*
X34618Y33622D02*
X42656D01*
X34390Y33937D02*
X40267D01*
X34451Y33858D02*
X42297D01*
X34761Y33386D02*
X42589D01*
X34804Y33307D02*
X42598D01*
X34668Y33543D02*
X42616D01*
X34715Y33465D02*
X42594D01*
X34469Y34341D02*
X40178D01*
X34032Y34331D02*
X40168D01*
X34258Y34094D02*
X40109D01*
X34326Y34016D02*
X40150D01*
X34111Y34252D02*
X40116D01*
X34186Y34173D02*
X40099D01*
X30529Y36457D02*
X31046D01*
X26328Y36535D02*
X31344D01*
X26279Y36457D02*
X30258D01*
X30665Y36378D02*
X30910D01*
X30735Y36299D02*
X30840D01*
X26215Y36378D02*
X30122D01*
X26128Y36299D02*
X30052D01*
X26129Y37480D02*
X28447D01*
X26215Y37401D02*
X28426D01*
X26088Y37510D02*
X28463D01*
X26328Y37244D02*
X28470D01*
X26365Y37165D02*
X28567D01*
X26279Y37323D02*
X28433D01*
X26003Y36220D02*
X30010D01*
X30658Y35748D02*
X30917D01*
X30731Y35827D02*
X30844D01*
X30509Y35669D02*
X31065D01*
X26073Y35118D02*
X29491D01*
X26073Y35039D02*
X29326D01*
X26073Y35276D02*
X29895D01*
X26073Y35197D02*
X29677D01*
X26073Y34882D02*
X29044D01*
X26073Y34803D02*
X28920D01*
X26073Y34724D02*
X28805D01*
X26073Y34961D02*
X29178D01*
X26073Y34508D02*
Y35335D01*
Y34646D02*
X28698D01*
X26073Y34567D02*
X28597D01*
X26023Y34331D02*
X28330D01*
X26056Y34252D02*
X28251D01*
X25049Y35984D02*
X29989D01*
X25049Y36063D02*
X29980D01*
X25049Y35905D02*
X30013D01*
X25049Y36142D02*
X29987D01*
X25049Y35433D02*
X30547D01*
X25049Y35669D02*
X30278D01*
X25049Y35354D02*
X30164D01*
X25049Y35827D02*
X30057D01*
X25049Y35748D02*
X30130D01*
X25049Y36299D02*
X25210D01*
X25049Y36378D02*
X25124D01*
X25246Y35335D02*
X26073D01*
X25049Y36220D02*
X25335D01*
X25049Y35276D02*
X25246D01*
X25049Y35039D02*
X25246D01*
X25049Y34961D02*
X25246D01*
X25049Y35197D02*
X25246D01*
X25049Y35118D02*
X25246D01*
X25836Y34508D02*
X26073D01*
X25246D02*
X25483D01*
X25049Y34488D02*
X25446D01*
X25872D02*
X28503D01*
X25968Y34409D02*
X28414D01*
X25049Y34803D02*
X25246D01*
X25049Y34882D02*
X25246D01*
Y34508D02*
Y35335D01*
X25049Y34724D02*
X25246D01*
X25049Y34646D02*
X25246D01*
X25049Y34331D02*
X25296D01*
X25049Y34252D02*
X25263D01*
X25049Y34567D02*
X25246D01*
X25049Y34409D02*
X25351D01*
X26071Y34173D02*
X28176D01*
X27587Y33779D02*
X27853D01*
X26071Y34094D02*
X28104D01*
X26056Y34016D02*
X28037D01*
X27646Y33701D02*
X27797D01*
X27667Y33622D02*
X27745D01*
X27660Y33543D02*
X27694D01*
X27525Y33386D02*
X27601D01*
X27442Y33307D02*
X27558D01*
X26291D02*
X26830D01*
X26816Y33293D02*
X27211Y33689D01*
X26133Y33465D02*
X26987D01*
X26212Y33386D02*
X26908D01*
X27363Y33228D02*
X27518D01*
X27285Y33150D02*
X27479D01*
X26369Y33228D02*
X26771D01*
X26448Y33150D02*
X26752D01*
X27185Y33050D02*
X27517Y33382D01*
X27206Y33071D02*
X27442D01*
X27185Y32992D02*
X27407D01*
X27185Y32913D02*
X27375D01*
X27185Y32835D02*
X27344D01*
X27185Y32598D02*
X27262D01*
X27185Y32520D02*
X27239D01*
X27185Y32756D02*
X27315D01*
X27185Y32677D02*
X27288D01*
X26752Y32846D02*
Y33140D01*
X26527Y33071D02*
X26752D01*
X26098Y33499D02*
X26752Y32846D01*
X27185Y32441D02*
X27217D01*
X27185Y32314D02*
Y33050D01*
X26606Y32992D02*
X26752D01*
X26684Y32913D02*
X26752D01*
X26023Y33937D02*
X27972D01*
X25968Y33858D02*
X27911D01*
X25872Y33779D02*
X27275D01*
X26035Y33543D02*
X27066D01*
X25872Y33701D02*
X27216D01*
X25968Y33622D02*
X27144D01*
X25049Y33937D02*
X25296D01*
X25049Y34016D02*
X25263D01*
X25049Y33858D02*
X25351D01*
X25049Y34173D02*
X25248D01*
X25049Y34094D02*
X25248D01*
X25049Y33622D02*
X25351D01*
X25049Y33543D02*
X25296D01*
X25049Y33779D02*
X25447D01*
X25049Y33701D02*
X25446D01*
X25049Y32835D02*
X26151D01*
X25049Y32913D02*
X26072D01*
X25941Y33044D02*
X26476Y32509D01*
X25049Y32756D02*
X26229D01*
X25049Y32677D02*
X26308D01*
X25049Y32441D02*
X26476D01*
X25049Y32362D02*
X26476D01*
X25049Y32598D02*
X26387D01*
X25049Y32520D02*
X26465D01*
X25049Y33465D02*
X25263D01*
X25049Y33386D02*
X25248D01*
X25049Y33307D02*
X25248D01*
X25049Y33228D02*
X25263D01*
X25049Y33150D02*
X25296D01*
X25872Y32992D02*
X25993D01*
X25049Y33071D02*
X25351D01*
X25049Y32992D02*
X25447D01*
X36477Y31968D02*
X48199D01*
X36634Y32126D02*
X48199D01*
X36398Y31890D02*
X48227D01*
X36319Y31811D02*
X48280D01*
X36240Y31732D02*
X48280D01*
X36083Y31575D02*
X48280D01*
X36162Y31653D02*
X48280D01*
X36004Y31496D02*
X48280D01*
X35925Y31417D02*
X48280D01*
X35847Y31339D02*
X48280D01*
X36555Y32047D02*
X48199D01*
X36713Y32205D02*
X43573D01*
X35846Y30394D02*
X44793D01*
X35846Y30315D02*
X44793D01*
X35846Y30236D02*
X44793D01*
X35846Y29921D02*
X44793D01*
X35846Y29842D02*
X44793D01*
X35846Y30157D02*
X44793D01*
X35846Y30000D02*
X44793D01*
X35846Y29606D02*
X44793D01*
X35846Y29527D02*
X44738D01*
X41233Y29134D02*
X44344D01*
X35846Y29764D02*
X44793D01*
X35846Y29685D02*
X44793D01*
X41448Y28898D02*
X44108D01*
X41527Y28819D02*
X44029D01*
X41606Y28740D02*
X43950D01*
X41307Y29055D02*
X44265D01*
X41369Y28976D02*
X44187D01*
X41684Y28661D02*
X43872D01*
X41322Y29023D02*
X42082Y28264D01*
X41713Y27244D02*
Y28021D01*
X41016Y28717D02*
X41713Y28021D01*
X38247Y27638D02*
X41713D01*
X38563Y27559D02*
X41713D01*
X35846Y31102D02*
X48280D01*
X35846Y31024D02*
X45900D01*
X35846Y30945D02*
X45786D01*
X35846Y31260D02*
X48280D01*
X35846Y31181D02*
X48280D01*
X35846Y30472D02*
X44793D01*
X35846Y30551D02*
X44766D01*
X35846Y30079D02*
X44793D01*
X35846Y30866D02*
X44784D01*
X35846Y30787D02*
X44732D01*
X35846Y30630D02*
X44725D01*
X35846Y30709D02*
X44715D01*
X35846Y29449D02*
X44659D01*
X35846Y29370D02*
X44580D01*
X35845Y29291D02*
X44502D01*
X35827Y29213D02*
X44423D01*
X35769Y29134D02*
X40972D01*
X35690Y29055D02*
X40898D01*
X35611Y28976D02*
X40869D01*
X34903Y28268D02*
X41465D01*
X34981Y28346D02*
X41387D01*
X34824Y28189D02*
X41544D01*
X34745Y28110D02*
X41623D01*
X34666Y28031D02*
X41702D01*
X34588Y27953D02*
X41713D01*
X34509Y27874D02*
X41713D01*
X34430Y27795D02*
X41713D01*
X34351Y27716D02*
X41713D01*
X35454Y28819D02*
X40898D01*
X35533Y28898D02*
X40869D01*
X35375Y28740D02*
X40972D01*
X35296Y28661D02*
X41072D01*
X35218Y28583D02*
X41151D01*
X35139Y28504D02*
X41229D01*
X35060Y28425D02*
X41308D01*
X34273Y27638D02*
X38229D01*
X34194Y27559D02*
X37913D01*
X41496Y27244D02*
X41713D01*
X40936Y27244D02*
X41496D01*
X41178Y27165D02*
X41496D01*
X39936Y27244D02*
X40922D01*
X40178Y27165D02*
X40680D01*
X41346Y26929D02*
X41496D01*
X41315Y27008D02*
X41496D01*
X41360Y26850D02*
X41496D01*
X40263Y27087D02*
X40595D01*
X41263D02*
X41496D01*
X40315Y27008D02*
X40543D01*
X38942D02*
X39543D01*
X40346Y26929D02*
X40512D01*
X38906Y27165D02*
X39680D01*
X38929Y27087D02*
X39595D01*
X40360Y26850D02*
X40498D01*
X40360Y26772D02*
X40498D01*
X38947Y26929D02*
X39512D01*
X38942Y26850D02*
X39498D01*
X41346Y26693D02*
X41496D01*
X41360Y26772D02*
X41496D01*
Y26378D02*
Y27244D01*
X41315Y26614D02*
X41496D01*
X41263Y26535D02*
X41496D01*
Y26378D02*
X42362D01*
X41178Y26457D02*
X41496D01*
X39045Y26074D02*
X42726D01*
X40315Y26614D02*
X40543D01*
X40346Y26693D02*
X40512D01*
X38929Y26772D02*
X39498D01*
X38906Y26693D02*
X39512D01*
X40263Y26535D02*
X40595D01*
X40178Y26457D02*
X40680D01*
X38827Y27323D02*
X41713D01*
X38766Y27402D02*
X41713D01*
X38873Y27244D02*
X39922D01*
X34115Y27480D02*
X37793D01*
X38684D02*
X41713D01*
X38827Y26535D02*
X39595D01*
X38873Y26614D02*
X39543D01*
X38766Y26457D02*
X39680D01*
X37152D02*
X37710D01*
X38684Y26378D02*
X44830D01*
X34036Y27402D02*
X37710D01*
X33958Y27323D02*
X37649D01*
X33879Y27244D02*
X37603D01*
X33800Y27165D02*
X37570D01*
X33722Y27087D02*
X37547D01*
X36702Y26614D02*
X37603D01*
X37027Y26535D02*
X37649D01*
X33407Y26772D02*
X37547D01*
X33326Y26693D02*
X37570D01*
X38563Y26299D02*
X44747D01*
X37415Y26063D02*
X38986D01*
X38148Y25246D02*
X38926Y26024D01*
X37352Y26220D02*
X44686D01*
X37388Y26142D02*
X44641D01*
X37440Y25905D02*
X38807D01*
X37440Y25827D02*
X38729D01*
X37432Y25984D02*
X38886D01*
X37432Y25748D02*
X38650D01*
X37415Y25669D02*
X38571D01*
X37388Y25591D02*
X38493D01*
X37352Y25512D02*
X38414D01*
X37238Y26378D02*
X37793D01*
X37303Y26299D02*
X37914D01*
X37303Y25433D02*
X38335D01*
X37238Y25354D02*
X38256D01*
X37152Y25276D02*
X38178D01*
X37111Y25246D02*
X38148D01*
X36762Y32254D02*
X37081D01*
X35612Y31716D02*
X36519Y32623D01*
X35201Y32205D02*
X36100D01*
X35217Y32126D02*
X36022D01*
X35544Y31890D02*
X35785D01*
X35595Y31811D02*
X35707D01*
X35231Y32047D02*
X35943D01*
X35243Y31968D02*
X35864D01*
X25049Y32126D02*
X26476D01*
X25049Y32205D02*
X26476D01*
X25049Y32047D02*
X26476D01*
X25049Y31968D02*
X26476D01*
X25049Y31575D02*
X26476D01*
X25049Y31496D02*
X26476D01*
X25049Y31890D02*
X26476D01*
X25049Y31653D02*
X26476D01*
X35846Y31337D02*
X36762Y32254D01*
X35846Y29300D02*
Y31337D01*
X25049Y31260D02*
X26476D01*
X26540Y28993D02*
X28825Y26707D01*
X33342D02*
X35782Y29147D01*
X26476Y29146D02*
Y32509D01*
X25049Y31417D02*
X26476D01*
X25049Y26285D02*
Y36471D01*
Y31339D02*
X26476D01*
X25049Y31181D02*
X26476D01*
X25049Y30945D02*
X26476D01*
X25049Y30866D02*
X26476D01*
X25049Y31102D02*
X26476D01*
X25049Y31024D02*
X26476D01*
X25049Y30079D02*
X26476D01*
X25049Y30157D02*
X26476D01*
X25049Y30000D02*
X26476D01*
X25049Y30315D02*
X26476D01*
X25049Y30236D02*
X26476D01*
X25049Y29685D02*
X26476D01*
X25049Y29764D02*
X26476D01*
X25049Y29606D02*
X26476D01*
X25049Y29921D02*
X26476D01*
X25049Y29842D02*
X26476D01*
X25049Y30787D02*
X26476D01*
X25049Y31732D02*
X26476D01*
X25049Y30709D02*
X26476D01*
X25049Y32283D02*
X26476D01*
X25049Y31811D02*
X26476D01*
X25049Y30472D02*
X26476D01*
X25049Y30394D02*
X26476D01*
X25049Y30630D02*
X26476D01*
X25049Y30551D02*
X26476D01*
X25049Y28583D02*
X26950D01*
X25049Y28661D02*
X26872D01*
X25049Y28504D02*
X27029D01*
X25049Y28819D02*
X26714D01*
X25049Y28740D02*
X26793D01*
X25049Y28268D02*
X27265D01*
X25049Y28189D02*
X27344D01*
X25049Y28425D02*
X27108D01*
X25049Y28346D02*
X27186D01*
X25049Y29291D02*
X26476D01*
X25049Y29370D02*
X26476D01*
X25049Y29213D02*
X26476D01*
X25049Y29527D02*
X26476D01*
X25049Y29449D02*
X26476D01*
X25049Y28976D02*
X26557D01*
X25049Y28898D02*
X26635D01*
X25049Y29134D02*
X26477D01*
X25049Y29055D02*
X26496D01*
X33643Y27008D02*
X37534D01*
X34300Y26535D02*
X36359D01*
X34616Y26457D02*
X36234D01*
X33564Y26929D02*
X37530D01*
X33485Y26850D02*
X37534D01*
X34881Y26220D02*
X36034D01*
X34926Y26142D02*
X35997D01*
X34959Y26063D02*
X35971D01*
X34737Y26378D02*
X36147D01*
X34820Y26299D02*
X36083D01*
X28979Y26644D02*
X33189D01*
X26408Y25984D02*
X33600D01*
X34982D02*
X35954D01*
X26365Y26142D02*
X33656D01*
X26391Y26063D02*
X33623D01*
X34982Y25669D02*
X35971D01*
X34959Y25591D02*
X35998D01*
X34926Y25512D02*
X36034D01*
X34881Y25433D02*
X36083D01*
X34820Y25354D02*
X36147D01*
X34737Y25276D02*
X36234D01*
X34698Y25246D02*
X36275D01*
X34996Y25905D02*
X35946D01*
X26416D02*
X33587D01*
X26416Y25827D02*
X33583D01*
X35000D02*
X35946D01*
X34996Y25748D02*
X35954D01*
X26408D02*
X33587D01*
X26391Y25669D02*
X33600D01*
X25049Y27165D02*
X28368D01*
X25049Y27244D02*
X28289D01*
X25049Y27087D02*
X28446D01*
X25049Y27402D02*
X28131D01*
X25049Y27323D02*
X28210D01*
X25049Y26772D02*
X28761D01*
X25049Y26850D02*
X28683D01*
X25049Y26693D02*
X28842D01*
X25049Y27008D02*
X28525D01*
X25049Y26929D02*
X28604D01*
X25049Y27874D02*
X27659D01*
X25049Y27953D02*
X27580D01*
X25049Y27795D02*
X27738D01*
X25049Y28110D02*
X27423D01*
X25049Y28031D02*
X27501D01*
X25049Y27559D02*
X27974D01*
X25049Y27480D02*
X28053D01*
X25049Y27716D02*
X27816D01*
X25049Y27638D02*
X27895D01*
X26128Y26457D02*
X33967D01*
X26215Y26378D02*
X33846D01*
X26279Y26299D02*
X33763D01*
X25678Y26614D02*
X36684D01*
X26003Y26535D02*
X34283D01*
X26279Y25433D02*
X33702D01*
X26215Y25354D02*
X33763D01*
X26128Y25276D02*
X33846D01*
X26088Y25246D02*
X33885D01*
X25049Y26535D02*
X25335D01*
X25049Y26457D02*
X25210D01*
X25049Y26378D02*
X25124D01*
X25049Y26614D02*
X25660D01*
X26328Y26220D02*
X33702D01*
X26365Y25591D02*
X33623D01*
X26328Y25512D02*
X33657D01*
X51201Y34380D02*
X51427Y34154D01*
X49636Y34380D02*
X51201D01*
X48356Y33100D02*
X49636Y34380D01*
X48356Y31979D02*
Y33100D01*
Y31979D02*
X48437Y31898D01*
Y30800D02*
Y31898D01*
X48120Y30482D02*
X48437Y30800D01*
X46634Y30482D02*
X48120D01*
X46240Y30089D02*
X46634Y30482D01*
X46240Y28307D02*
Y30089D01*
Y28307D02*
X46447Y28100D01*
X47982Y33061D02*
X48455Y33533D01*
X48711Y32392D02*
X48831Y32271D01*
Y30091D02*
Y32271D01*
X48811Y30071D02*
X48831Y30091D01*
X48811Y29952D02*
Y30071D01*
X48593Y32077D02*
X48595Y32074D01*
Y30188D02*
Y32074D01*
X40335Y34163D02*
X40512Y34341D01*
X42116D01*
X42520Y33937D01*
X44537Y29104D02*
X44951Y29518D01*
Y30699D01*
X43917Y27795D02*
Y28484D01*
X44537Y29104D01*
X45315D01*
X45718Y29508D01*
X44468Y28514D02*
X44577D01*
X44783Y28720D01*
X45324D01*
X45689Y29085D01*
X44843Y28445D02*
X44960Y28562D01*
X45561D01*
X45573Y28574D01*
X45030Y27274D02*
Y27333D01*
X45630Y27933D01*
D13*
X43740Y32372D02*
X44282Y32913D01*
X46407D01*
X46624Y33130D01*
Y33711D01*
X46152Y34183D02*
X46624Y33711D01*
X56693Y34882D02*
X57008Y35197D01*
X55512Y34882D02*
X56693D01*
D14*
X47726Y33327D02*
X47785D01*
X48387Y33929D01*
X48388D01*
X49350Y33730D02*
X49764Y34144D01*
X51014D01*
X52726Y34508D02*
X52756Y34478D01*
X53602D01*
D62*
X39929Y26811D02*
D03*
X40929D02*
D03*
D66*
X41929D02*
D03*
D83*
X47913Y36693D02*
Y37126D01*
X47480Y36693D02*
X47913D01*
X48346D01*
X47913Y36260D02*
Y36693D01*
X30394Y36066D02*
Y36440D01*
X30020Y36066D02*
X30394D01*
Y35692D02*
Y36066D01*
X25285Y34134D02*
X25659D01*
X26033D01*
X41102Y28937D02*
X41929Y28110D01*
Y26811D02*
Y28110D01*
X45600Y30148D02*
Y30453D01*
X45965Y30817D01*
X47717D01*
X46024Y30276D02*
X46191Y30443D01*
X46024Y27982D02*
Y30276D01*
X46240Y27766D02*
X47165D01*
X46024Y27982D02*
X46240Y27766D01*
X43140Y34833D02*
X43789Y34183D01*
X38150Y34833D02*
X43140D01*
X37589Y35394D02*
X38150Y34833D01*
X37215Y35394D02*
X37589D01*
X36929Y35108D02*
X37215Y35394D01*
X34697Y35108D02*
X36929D01*
X28661Y37382D02*
X32156D01*
X35629Y31427D02*
X36672Y32470D01*
X37175D01*
X35629Y29300D02*
Y31427D01*
X33189Y26860D02*
X35629Y29300D01*
X28979Y26860D02*
X33189D01*
X26693Y29146D02*
X28979Y26860D01*
X26693Y29146D02*
Y32598D01*
X25945Y33346D02*
X26693Y32598D01*
X25659Y33346D02*
X25945D01*
X26969Y33140D02*
X27431Y33602D01*
X26969Y29288D02*
Y33140D01*
Y29288D02*
X28127Y28130D01*
X33230Y36575D02*
X34697Y35108D01*
X31690Y36575D02*
X33230D01*
X31181Y36066D02*
X31690Y36575D01*
X37185Y34833D02*
X37392Y35039D01*
X34583Y34833D02*
X37185D01*
X33349Y36066D02*
X34583Y34833D01*
X32756Y36066D02*
X33349D01*
X42628Y34557D02*
X43002Y34183D01*
X34469Y34557D02*
X42628D01*
X33593Y35433D02*
X34469Y34557D01*
X32411Y35433D02*
X33593D01*
X31969Y35876D02*
X32411Y35433D01*
X31969Y35876D02*
Y36066D01*
X35373Y31722D02*
X35376Y31724D01*
X35353Y31722D02*
X35373D01*
X35353Y29700D02*
Y31722D01*
X34667Y29014D02*
X35353Y29700D01*
X34667Y28978D02*
Y29014D01*
X29101Y27156D02*
X30974D01*
X28127Y28130D02*
X29101Y27156D01*
X48071Y27766D02*
X48287Y27982D01*
X47165Y27766D02*
X48071D01*
D97*
X42844Y36801D02*
D03*
X50650Y25807D02*
D03*
D98*
X38238Y26929D02*
D03*
X45276Y36929D02*
D03*
Y25827D02*
D03*
D99*
X43002Y33396D02*
D03*
X43789D02*
D03*
X44577D02*
D03*
X45364D02*
D03*
X46152D02*
D03*
X43002Y34183D02*
D03*
X43789D02*
D03*
X44577D02*
D03*
X45364D02*
D03*
X30394Y36066D02*
D03*
X31181D02*
D03*
X31969D02*
D03*
X25659Y34134D02*
D03*
Y33346D02*
D03*
D100*
X46152Y34183D02*
D03*
X25659Y34921D02*
D03*
D101*
X32756Y36066D02*
D03*
D102*
X47913Y36693D02*
D03*
D103*
Y34724D02*
D03*
Y35709D02*
D03*
D104*
X57402Y31969D02*
D03*
Y34803D02*
D03*
D105*
X56368Y32421D02*
D03*
Y34350D02*
D03*
D106*
X25669Y25866D02*
D03*
X36693D02*
D03*
X25669Y36890D02*
D03*
X36693D02*
D03*
D107*
X34291Y25827D02*
D03*
D108*
X55325Y31102D02*
D03*
X55207Y30817D02*
D03*
X55541Y31230D02*
D03*
Y30846D02*
D03*
X48573Y28396D02*
D03*
X48957Y28406D02*
D03*
X49360D02*
D03*
X48543Y34409D02*
D03*
X43652Y26239D02*
D03*
X25482Y32510D02*
D03*
X27726Y36880D02*
D03*
X26703Y37234D02*
D03*
X46339Y36663D02*
D03*
X46791Y37195D02*
D03*
X42254Y37392D02*
D03*
X43937Y37126D02*
D03*
X51309Y35157D02*
D03*
X53130Y35246D02*
D03*
X51368Y37096D02*
D03*
X53533Y30512D02*
D03*
X51722Y29931D02*
D03*
X55246Y25679D02*
D03*
X51929Y25522D02*
D03*
X42677Y32579D02*
D03*
X42047Y32205D02*
D03*
X39715Y31831D02*
D03*
X38953Y29902D02*
D03*
X43760Y30305D02*
D03*
X42766Y29587D02*
D03*
X43425Y29341D02*
D03*
X42437Y27785D02*
D03*
X45522Y26841D02*
D03*
X46053Y26394D02*
D03*
X46604Y26378D02*
D03*
X48248Y26476D02*
D03*
X48159Y27136D02*
D03*
X48642Y25561D02*
D03*
X47889D02*
D03*
X46752Y28937D02*
D03*
X47748D02*
D03*
Y29882D02*
D03*
X46752D02*
D03*
X47254Y29409D02*
D03*
X44360Y32549D02*
D03*
X44980Y31555D02*
D03*
X46201Y31742D02*
D03*
X46043Y32244D02*
D03*
X46857Y33843D02*
D03*
X48012Y32406D02*
D03*
X47402Y32421D02*
D03*
X49173Y31339D02*
D03*
X49626Y31358D02*
D03*
X50522Y30748D02*
D03*
X50335Y30246D02*
D03*
X49921Y29980D02*
D03*
X49774Y29400D02*
D03*
X50118Y29398D02*
D03*
X50433Y29390D02*
D03*
X50790Y29366D02*
D03*
X51181Y29380D02*
D03*
X51506Y29360D02*
D03*
X51742Y29154D02*
D03*
X52011Y28898D02*
D03*
X52004Y29222D02*
D03*
X52175Y29518D02*
D03*
X52545Y29528D02*
D03*
X52835Y29360D02*
D03*
X52854Y29045D02*
D03*
X52894Y28750D02*
D03*
X53186Y28740D02*
D03*
X53484Y28750D02*
D03*
X53809Y28730D02*
D03*
X54104Y28711D02*
D03*
X54439Y28720D02*
D03*
X54685Y28888D02*
D03*
X54675Y29203D02*
D03*
X54685Y29478D02*
D03*
X54695Y29813D02*
D03*
X54754Y30098D02*
D03*
X54390Y26378D02*
D03*
X54124Y26345D02*
D03*
X53819Y26345D02*
D03*
X53524Y26339D02*
D03*
X53209Y26329D02*
D03*
X52933Y26345D02*
D03*
X52618Y26388D02*
D03*
X52303Y26401D02*
D03*
X51998Y26486D02*
D03*
X51988Y26762D02*
D03*
X49464Y27592D02*
D03*
X49744Y27618D02*
D03*
X49803Y27923D02*
D03*
X50020Y27707D02*
D03*
X50226Y27500D02*
D03*
X50433Y27283D02*
D03*
X50728Y27067D02*
D03*
X51042D02*
D03*
X51398D02*
D03*
X51679D02*
D03*
X51985D02*
D03*
X51870Y27825D02*
D03*
X51476D02*
D03*
X51102D02*
D03*
X50817Y28002D02*
D03*
X50565Y28258D02*
D03*
X50315Y28575D02*
D03*
X50659Y28583D02*
D03*
X50974Y28575D02*
D03*
X51270Y28504D02*
D03*
X51506Y28278D02*
D03*
X51728Y28041D02*
D03*
X52047Y27992D02*
D03*
X52411D02*
D03*
X52785Y28061D02*
D03*
X53081Y28051D02*
D03*
X52943Y27815D02*
D03*
X52657Y27825D02*
D03*
X52648Y27067D02*
D03*
X54104Y27116D02*
D03*
X53809Y27106D02*
D03*
X53418Y27146D02*
D03*
X53589Y27343D02*
D03*
X53714Y27589D02*
D03*
X53711Y27854D02*
D03*
X53917Y28061D02*
D03*
X54163D02*
D03*
X54419Y28071D02*
D03*
X54390Y27805D02*
D03*
X54380Y27480D02*
D03*
X54370Y27146D02*
D03*
X54360Y26801D02*
D03*
X54528Y26585D02*
D03*
X54843D02*
D03*
X55167Y26634D02*
D03*
X55187Y26949D02*
D03*
X55189Y27215D02*
D03*
X55187Y27490D02*
D03*
X55177Y27756D02*
D03*
Y28051D02*
D03*
X55453Y28169D02*
D03*
X55443Y28425D02*
D03*
X55502Y28711D02*
D03*
X55512Y29035D02*
D03*
X55532Y29331D02*
D03*
X55502Y29656D02*
D03*
X55512Y29941D02*
D03*
X54911Y30335D02*
D03*
X55107Y30512D02*
D03*
X55374Y30571D02*
D03*
X55620Y30581D02*
D03*
X53828Y31220D02*
D03*
X54822Y31211D02*
D03*
X54380Y30709D02*
D03*
X52028Y30827D02*
D03*
X52510Y31270D02*
D03*
X51500Y33573D02*
D03*
X51120Y33650D02*
D03*
X52844Y33278D02*
D03*
X53199Y33730D02*
D03*
X54370Y33563D02*
D03*
X54813Y33244D02*
D03*
X55817Y33310D02*
D03*
X55305Y33792D02*
D03*
X25955Y27215D02*
D03*
X25407Y28406D02*
D03*
X27726Y26319D02*
D03*
X27096Y27096D02*
D03*
X35413Y25640D02*
D03*
X37835Y25600D02*
D03*
X37579Y28130D02*
D03*
X39055Y28671D02*
D03*
X39488Y29222D02*
D03*
X39911Y28661D02*
D03*
X35039Y33169D02*
D03*
X40256Y29744D02*
D03*
X39459Y30374D02*
D03*
X39780Y30256D02*
D03*
X37431Y32116D02*
D03*
X38750Y31398D02*
D03*
X40335Y32392D02*
D03*
X39882Y32766D02*
D03*
X37547Y32785D02*
D03*
X38258Y33976D02*
D03*
X38911Y33209D02*
D03*
X39114Y33996D02*
D03*
X37963Y37057D02*
D03*
X39026Y37067D02*
D03*
X51427Y34154D02*
D03*
X46447Y28100D02*
D03*
X41102Y28937D02*
D03*
X47726Y33327D02*
D03*
X48388Y33929D02*
D03*
X48455Y33533D02*
D03*
X47982Y33061D02*
D03*
X48711Y32392D02*
D03*
X48811Y29952D02*
D03*
X48593Y32077D02*
D03*
X48595Y30188D02*
D03*
X40335Y34163D02*
D03*
X42520Y33937D02*
D03*
X45600Y30148D02*
D03*
X47717Y30817D02*
D03*
X46191Y30443D02*
D03*
X44951Y30699D02*
D03*
X43740Y32372D02*
D03*
X43917Y27795D02*
D03*
X45718Y29508D02*
D03*
X44468Y28514D02*
D03*
X45689Y29085D02*
D03*
X44843Y28445D02*
D03*
X45573Y28574D02*
D03*
X45030Y27274D02*
D03*
X45630Y27933D02*
D03*
X49350Y33730D02*
D03*
X51014Y34144D02*
D03*
X52726Y34508D02*
D03*
X53602Y34478D02*
D03*
X32156Y37382D02*
D03*
X37175Y32470D02*
D03*
X28661Y37382D02*
D03*
X27431Y33602D02*
D03*
X37392Y35039D02*
D03*
X35376Y31724D02*
D03*
X34667Y28978D02*
D03*
X30974Y27156D02*
D03*
X28127Y28130D02*
D03*
X48287Y27982D02*
D03*
X47165Y27766D02*
D03*
X57008Y35197D02*
D03*
X55512Y34882D02*
D03*
X52736Y32283D02*
D03*
X52559Y32047D02*
D03*
Y32520D02*
D03*
X52913D02*
D03*
Y32047D02*
D03*
M02*
