G04 Layer_Color=32896*
%FSLAX24Y24*%
%MOIN*%
G70*
G01*
G75*
%ADD34C,0.0100*%
%ADD36C,0.0039*%
%ADD54C,0.0118*%
D34*
X87205Y53295D02*
G03*
X87205Y53295I-984J0D01*
G01*
X81783Y56449D02*
Y57449D01*
X84283Y56449D02*
Y57449D01*
X81783D02*
X84283D01*
X81783Y56449D02*
X84283D01*
X75375Y50197D02*
X75675D01*
X75375Y53197D02*
X75675D01*
X75375Y49697D02*
X77775D01*
X75375Y53697D02*
X77775D01*
X75675Y50197D02*
Y53197D01*
X75375Y49697D02*
Y53697D01*
X77775Y49697D02*
Y53697D01*
X94329Y53535D02*
Y54535D01*
X91829Y53535D02*
Y54535D01*
Y53535D02*
X94329D01*
X91829Y54535D02*
X94329D01*
X95099Y51575D02*
X95599D01*
X95349Y51325D02*
Y51825D01*
X74948Y43346D02*
Y48228D01*
X95932Y43346D02*
Y48228D01*
X74948D02*
X95932D01*
X74948Y43346D02*
X95932D01*
X87520Y57727D02*
Y58227D01*
X87270Y57977D02*
X87770D01*
X86260Y51636D02*
Y52136D01*
X86010Y51886D02*
X86510D01*
X80425Y59134D02*
Y64134D01*
X90425Y59134D02*
Y64134D01*
X80425Y59134D02*
X81225D01*
X89325D02*
X90425D01*
X80425Y64134D02*
X90425D01*
D36*
X83396Y57835D02*
Y57539D01*
X83199D01*
X82904D02*
X83100D01*
X82904Y57736D01*
Y57785D01*
X82953Y57835D01*
X83051D01*
X83100Y57785D01*
X78474Y50974D02*
X78179Y51171D01*
X78474D02*
X78179Y50974D01*
Y51270D02*
X78474D01*
Y51417D01*
X78425Y51466D01*
X78327D01*
X78278Y51417D01*
Y51270D01*
Y51368D02*
X78179Y51466D01*
Y51762D02*
Y51565D01*
X78376Y51762D01*
X78425D01*
X78474Y51712D01*
Y51614D01*
X78425Y51565D01*
X93504Y55216D02*
Y54921D01*
X93307D01*
X93209D02*
X93110D01*
X93160D01*
Y55216D01*
X93209Y55167D01*
X95374Y53002D02*
X95423Y53051D01*
X95522D01*
X95571Y53002D01*
Y52805D01*
X95522Y52756D01*
X95423D01*
X95374Y52805D01*
X95276Y52756D02*
X95177D01*
X95226D01*
Y53051D01*
X95276Y53002D01*
X95030D02*
X94980Y53051D01*
X94882D01*
X94833Y53002D01*
Y52953D01*
X94882Y52903D01*
X94931D01*
X94882D01*
X94833Y52854D01*
Y52805D01*
X94882Y52756D01*
X94980D01*
X95030Y52805D01*
X85423Y48789D02*
X85226Y48494D01*
Y48789D02*
X85423Y48494D01*
X85128D02*
Y48789D01*
X84980D01*
X84931Y48740D01*
Y48642D01*
X84980Y48592D01*
X85128D01*
X85030D02*
X84931Y48494D01*
X84833D02*
X84734D01*
X84784D01*
Y48789D01*
X84833Y48740D01*
X86536Y57657D02*
X86585Y57707D01*
X86683D01*
X86732Y57657D01*
Y57461D01*
X86683Y57411D01*
X86585D01*
X86536Y57461D01*
X86437Y57411D02*
X86339D01*
X86388D01*
Y57707D01*
X86437Y57657D01*
X85994Y57707D02*
X86191D01*
Y57559D01*
X86093Y57608D01*
X86044D01*
X85994Y57559D01*
Y57461D01*
X86044Y57411D01*
X86142D01*
X86191Y57461D01*
X87254Y52195D02*
X87303Y52244D01*
X87402D01*
X87451Y52195D01*
Y51998D01*
X87402Y51949D01*
X87303D01*
X87254Y51998D01*
X87156Y51949D02*
X87057D01*
X87106D01*
Y52244D01*
X87156Y52195D01*
X86910D02*
X86860Y52244D01*
X86762D01*
X86713Y52195D01*
Y52146D01*
X86762Y52096D01*
X86713Y52047D01*
Y51998D01*
X86762Y51949D01*
X86860D01*
X86910Y51998D01*
Y52047D01*
X86860Y52096D01*
X86910Y52146D01*
Y52195D01*
X86860Y52096D02*
X86762D01*
D54*
X94898Y51591D02*
G03*
X94898Y51591I-1575J0D01*
G01*
X89079Y55951D02*
G03*
X89079Y55951I-1575J0D01*
G01*
M02*
