G04 Layer_Physical_Order=2*
G04 Layer_Color=16711680*
%FSLAX24Y24*%
%MOIN*%
G70*
G01*
G75*
%ADD10C,0.0079*%
%ADD21C,0.0197*%
%ADD22C,0.0394*%
%ADD24C,0.1024*%
%ADD25C,0.0600*%
%ADD26R,0.0600X0.0600*%
%ADD27R,0.0600X0.0600*%
%ADD28C,0.0709*%
%ADD29R,0.0709X0.0709*%
%ADD30C,0.1969*%
%ADD31O,0.0945X0.1102*%
%ADD32C,0.1811*%
%ADD33C,0.0400*%
D10*
X95615Y54035D02*
G03*
X95615Y54035I-536J0D01*
G01*
X95493Y51792D02*
G03*
X94979Y51792I-257J-100D01*
G01*
X95669Y51535D02*
G03*
X95493Y51792I-276J0D01*
G01*
Y51278D02*
G03*
X95669Y51535I-100J257D01*
G01*
X94979Y51792D02*
G03*
X94979Y51278I100J-257D01*
G01*
D02*
G03*
X95493Y51278I257J100D01*
G01*
X94283Y49103D02*
G03*
X94409Y49409I-306J306D01*
G01*
X94283Y49103D02*
G03*
X94409Y49409I-306J306D01*
G01*
X93162Y51575D02*
G03*
X93162Y51575I-536J0D01*
G01*
X92450Y48495D02*
G03*
X92323Y48189I306J-306D01*
G01*
X92450Y48495D02*
G03*
X92323Y48189I306J-306D01*
G01*
X90173Y60034D02*
G03*
X90055Y60437I-748J0D01*
G01*
Y59630D02*
G03*
X90173Y60034I-630J404D01*
G01*
X90055Y60437D02*
G03*
X88795Y60437I-630J-325D01*
G01*
X88596Y63433D02*
G03*
X88220Y64281I-1142J0D01*
G01*
X88795Y60437D02*
G03*
X88706Y59827I630J-404D01*
G01*
X89155Y59300D02*
G03*
X90055Y59630I271J655D01*
G01*
X88706Y59827D02*
G03*
X89173Y59134I-281J-693D01*
G01*
D02*
G03*
X89155Y59300I-748J0D01*
G01*
X86690Y64281D02*
G03*
X88596Y63433I765J-848D01*
G01*
X87173Y59134D02*
G03*
X87173Y59134I-748J0D01*
G01*
X88056Y55254D02*
G03*
X88056Y55254I-536J0D01*
G01*
X91615Y54035D02*
G03*
X91615Y54035I-536J0D01*
G01*
X87933Y53460D02*
G03*
X88035Y53740I-335J280D01*
G01*
D02*
G03*
X87264Y53460I-436J0D01*
G01*
X88035Y51378D02*
G03*
X87933Y51658I-436J0D01*
G01*
X87264D02*
G03*
X88035Y51378I335J-280D01*
G01*
X86694Y53450D02*
G03*
X86757Y53701I-474J251D01*
G01*
D02*
G03*
X85747Y53450I-536J0D01*
G01*
X86654Y51968D02*
G03*
X86477Y52225I-276J0D01*
G01*
Y51712D02*
G03*
X86654Y51968I-100J257D01*
G01*
X86477Y52225D02*
G03*
X86334Y52377I-257J-100D01*
G01*
X86107D02*
G03*
X85963Y52225I113J-251D01*
G01*
D02*
G03*
X85963Y51712I100J-257D01*
G01*
D02*
G03*
X86477Y51712I257J100D01*
G01*
X95777Y47442D02*
G03*
X95777Y46320I-1084J-561D01*
G01*
X92323Y47917D02*
G03*
X91428Y47668I-350J-476D01*
G01*
D02*
G03*
X90338Y47668I-545J-227D01*
G01*
D02*
G03*
X89248Y47668I-545J-227D01*
G01*
X91428Y47214D02*
G03*
X92323Y46965I545J227D01*
G01*
X90338Y47214D02*
G03*
X91428Y47214I545J227D01*
G01*
X92014Y46321D02*
G03*
X90878Y46548I-591J0D01*
G01*
D02*
G03*
X89788Y46548I-545J-227D01*
G01*
X89248Y47214D02*
G03*
X90338Y47214I545J227D01*
G01*
X93062Y45678D02*
G03*
X93189Y45984I-306J306D01*
G01*
X93062Y45678D02*
G03*
X93189Y45984I-306J306D01*
G01*
X90878Y46094D02*
G03*
X92014Y46321I545J227D01*
G01*
X89788Y46094D02*
G03*
X90878Y46094I545J227D01*
G01*
X91772Y44567D02*
G03*
X92078Y44694I0J433D01*
G01*
X91772Y44567D02*
G03*
X92078Y44694I0J433D01*
G01*
X89248Y47668D02*
G03*
X88158Y47668I-545J-227D01*
G01*
Y47214D02*
G03*
X89248Y47214I545J227D01*
G01*
X89788Y46548D02*
G03*
X88698Y46548I-545J-227D01*
G01*
D02*
G03*
X87608Y46548I-545J-227D01*
G01*
X88158Y47668D02*
G03*
X87068Y47668I-545J-227D01*
G01*
D02*
G03*
X85978Y47668I-545J-227D01*
G01*
X87068Y47214D02*
G03*
X88158Y47214I545J227D01*
G01*
X85978D02*
G03*
X87068Y47214I545J227D01*
G01*
X87608Y46548D02*
G03*
X86518Y46548I-545J-227D01*
G01*
D02*
G03*
X85428Y46548I-545J-227D01*
G01*
X88698Y46094D02*
G03*
X89788Y46094I545J227D01*
G01*
X87608D02*
G03*
X88698Y46094I545J227D01*
G01*
X86518D02*
G03*
X87608Y46094I545J227D01*
G01*
X85428D02*
G03*
X86518Y46094I545J227D01*
G01*
X84541Y63433D02*
G03*
X84164Y64281I-1142J0D01*
G01*
X85173Y59134D02*
G03*
X85173Y59134I-748J0D01*
G01*
X82635Y64281D02*
G03*
X84541Y63433I765J-848D01*
G01*
X83173Y59134D02*
G03*
X82144Y59827I-748J0D01*
G01*
X81696Y59300D02*
G03*
X83173Y59134I729J-166D01*
G01*
X85570Y56949D02*
G03*
X85570Y56949I-536J0D01*
G01*
X84196Y52185D02*
G03*
X83332Y52270I-436J0D01*
G01*
X83758Y51749D02*
G03*
X84196Y52185I2J436D01*
G01*
X82678Y51616D02*
G03*
X83151Y51142I39J-434D01*
G01*
X82173Y60034D02*
G03*
X82055Y60437I-748J0D01*
G01*
X82144Y59827D02*
G03*
X82173Y60034I-719J207D01*
G01*
X82055Y60437D02*
G03*
X80795Y60437I-630J-325D01*
G01*
Y59630D02*
G03*
X81696Y59300I630J325D01*
G01*
X80795Y60437D02*
G03*
X80795Y59630I630J-404D01*
G01*
X81570Y56949D02*
G03*
X80717Y57382I-536J0D01*
G01*
X76585D02*
G03*
X76278Y57255I0J-433D01*
G01*
X76585Y57382D02*
G03*
X76278Y57255I0J-433D01*
G01*
X80717Y56516D02*
G03*
X81570Y56949I316J433D01*
G01*
X75481Y56458D02*
G03*
X75354Y56152I306J-306D01*
G01*
X75481Y56458D02*
G03*
X75354Y56152I306J-306D01*
G01*
X76769Y52697D02*
G03*
X77111Y53197I-194J500D01*
G01*
Y52197D02*
G03*
X76769Y52697I-536J0D01*
G01*
X77111Y53197D02*
G03*
X76220Y53599I-536J0D01*
G01*
X76769Y51697D02*
G03*
X77111Y52197I-194J500D01*
G01*
Y51197D02*
G03*
X76769Y51697I-536J0D01*
G01*
X76844Y50733D02*
G03*
X77111Y51197I-269J464D01*
G01*
X85978Y47668D02*
G03*
X84888Y47668I-545J-227D01*
G01*
D02*
G03*
X83798Y47668I-545J-227D01*
G01*
X84888Y47214D02*
G03*
X85978Y47214I545J227D01*
G01*
X83798D02*
G03*
X84888Y47214I545J227D01*
G01*
X85428Y46548D02*
G03*
X84338Y46548I-545J-227D01*
G01*
D02*
G03*
X83248Y46548I-545J-227D01*
G01*
X83798Y47668D02*
G03*
X82708Y47668I-545J-227D01*
G01*
Y47214D02*
G03*
X83798Y47214I545J227D01*
G01*
X82708Y47668D02*
G03*
X81618Y47668I-545J-227D01*
G01*
Y47214D02*
G03*
X82708Y47214I545J227D01*
G01*
X82158Y46548D02*
G03*
X81068Y46548I-545J-227D01*
G01*
X83248D02*
G03*
X82158Y46548I-545J-227D01*
G01*
X81618Y47668D02*
G03*
X80528Y47668I-545J-227D01*
G01*
Y47214D02*
G03*
X81618Y47214I545J227D01*
G01*
X84338Y46094D02*
G03*
X85428Y46094I545J227D01*
G01*
X83248D02*
G03*
X84338Y46094I545J227D01*
G01*
X82158D02*
G03*
X83248Y46094I545J227D01*
G01*
X82047Y45921D02*
G03*
X82158Y46094I-434J400D01*
G01*
X81181Y45551D02*
G03*
X81308Y45245I433J0D01*
G01*
X81181Y45551D02*
G03*
X81308Y45245I433J0D01*
G01*
X81859Y44694D02*
G03*
X82165Y44567I306J306D01*
G01*
X81859Y44694D02*
G03*
X82165Y44567I306J306D01*
G01*
X77743Y49204D02*
G03*
X77436Y49331I-306J-306D01*
G01*
X77743Y49204D02*
G03*
X77436Y49331I-306J-306D01*
G01*
X80528Y47668D02*
G03*
X79484Y47756I-545J-227D01*
G01*
Y47126D02*
G03*
X80528Y47214I499J315D01*
G01*
X75835Y48592D02*
G03*
X76142Y48465I307J306D01*
G01*
X75354Y49252D02*
G03*
X75482Y48945I433J0D01*
G01*
X75354Y49252D02*
G03*
X75481Y48946I433J0D01*
G01*
X75836Y48591D02*
G03*
X76142Y48465I306J306D01*
G01*
X77394Y46881D02*
G03*
X75089Y47442I-1220J0D01*
G01*
X79978Y46548D02*
G03*
X79484Y46909I-545J-227D01*
G01*
X81068Y46094D02*
G03*
X81181Y45918I545J227D01*
G01*
X81068Y46548D02*
G03*
X79978Y46548I-545J-227D01*
G01*
Y46094D02*
G03*
X81068Y46094I545J227D01*
G01*
X79171Y46850D02*
G03*
X79978Y46094I262J-529D01*
G01*
X75089Y46320D02*
G03*
X77394Y46881I1084J561D01*
G01*
X90173Y60059D02*
X95777D01*
X90172Y60000D02*
X95777D01*
X90159Y60177D02*
X95777D01*
X90168Y60118D02*
X95777D01*
X95610Y54108D02*
Y64281D01*
X90167Y59941D02*
X95777D01*
X95551Y54289D02*
Y64281D01*
X90070Y60413D02*
X95777D01*
X90101Y60354D02*
X95777D01*
X90036Y60472D02*
X95777D01*
X90145Y60236D02*
X95777D01*
X90158Y59882D02*
X95777D01*
X90126Y60295D02*
X95777D01*
X95526Y54331D02*
X95777D01*
X95560Y54272D02*
X95777D01*
X95420Y54449D02*
X95777D01*
X95481Y54390D02*
X95777D01*
X95602Y54153D02*
X95777D01*
X95612Y54094D02*
X95777D01*
X95585Y54212D02*
X95777D01*
X90123Y59764D02*
X95777D01*
X90097Y59705D02*
X95777D01*
X90143Y59823D02*
X95777D01*
X95151Y54567D02*
X95777D01*
X95333Y54508D02*
X95777D01*
X90065Y59646D02*
X95777D01*
X95256Y54542D02*
Y64281D01*
X95315Y54517D02*
Y64281D01*
X95138Y54568D02*
Y64281D01*
X95197Y54559D02*
Y64281D01*
X95433Y54438D02*
Y64281D01*
X95492Y54377D02*
Y64281D01*
X95374Y54483D02*
Y64281D01*
X95020Y54568D02*
Y64281D01*
X95079Y54572D02*
Y64281D01*
X94960Y54558D02*
Y64281D01*
X94842Y54517D02*
Y64281D01*
X94901Y54541D02*
Y64281D01*
X94724Y54438D02*
Y64281D01*
X94665Y54377D02*
Y64281D01*
X94783Y54483D02*
Y64281D01*
X94606Y54289D02*
Y64281D01*
X91585Y54212D02*
X94573D01*
X94547Y54105D02*
Y64281D01*
X91602Y54153D02*
X94556D01*
X91612Y54094D02*
X94546D01*
X91151Y54567D02*
X95007D01*
X91333Y54508D02*
X94825D01*
X91420Y54449D02*
X94737D01*
X91481Y54390D02*
X94676D01*
X91526Y54331D02*
X94631D01*
X91560Y54272D02*
X94597D01*
X94488Y52111D02*
Y64281D01*
X94252Y52111D02*
Y64281D01*
X94429Y52111D02*
Y64281D01*
X94370Y52111D02*
Y64281D01*
X95669Y51546D02*
Y64281D01*
X94311Y52111D02*
Y64281D01*
X93956Y52111D02*
Y64281D01*
X94016Y52111D02*
Y64281D01*
X93897Y52111D02*
Y64281D01*
X94134Y52111D02*
Y64281D01*
X94193Y52111D02*
Y64281D01*
X94075Y52111D02*
Y64281D01*
X95602Y53917D02*
X95777D01*
X95585Y53858D02*
X95777D01*
X95615Y54035D02*
X95777D01*
X95612Y53976D02*
X95777D01*
X95610Y51706D02*
Y53963D01*
X95560Y53799D02*
X95777D01*
X94606Y48098D02*
Y53782D01*
X91612Y53976D02*
X94546D01*
X91602Y53917D02*
X94556D01*
X91615Y54035D02*
X94543D01*
X91585Y53858D02*
X94573D01*
X91560Y53799D02*
X94597D01*
X94547Y48093D02*
Y53966D01*
X92894Y52040D02*
Y64281D01*
X92953Y52000D02*
Y64281D01*
X92775Y52090D02*
Y64281D01*
X92834Y52069D02*
Y64281D01*
X93071Y51875D02*
Y64281D01*
X93130Y51759D02*
Y64281D01*
X93012Y51947D02*
Y64281D01*
X92598Y52110D02*
Y64281D01*
X92657Y52110D02*
Y64281D01*
X92539Y52104D02*
Y64281D01*
X92480Y52091D02*
Y64281D01*
X92716Y52103D02*
Y64281D01*
X92421Y52070D02*
Y64281D01*
X93602Y52111D02*
Y64281D01*
X93661Y52111D02*
Y64281D01*
X93543Y52111D02*
Y64281D01*
X93779Y52111D02*
Y64281D01*
X93838Y52111D02*
Y64281D01*
X93720Y52111D02*
Y64281D01*
X93425Y49471D02*
Y64281D01*
X93484Y52111D02*
Y64281D01*
X93366Y49411D02*
Y64281D01*
X93248Y49293D02*
Y64281D01*
X93307Y49352D02*
Y64281D01*
X93189Y49234D02*
Y64281D01*
X88292Y62657D02*
X95777D01*
X89696Y60768D02*
X95777D01*
X88388Y62775D02*
X95777D01*
X88344Y62716D02*
X95777D01*
X89888Y60649D02*
X95777D01*
X89949Y60590D02*
X95777D01*
X89809Y60709D02*
X95777D01*
X88165Y62539D02*
X95777D01*
X88084Y62480D02*
X95777D01*
X88234Y62598D02*
X95777D01*
X87850Y62362D02*
X95777D01*
X87618Y62303D02*
X95777D01*
X87983Y62421D02*
X95777D01*
X89990Y59527D02*
X95777D01*
X89940Y59468D02*
X95777D01*
X89997Y60531D02*
X95777D01*
X90030Y59587D02*
X95777D01*
X89794Y59350D02*
X95777D01*
X89673Y59291D02*
X95777D01*
X89877Y59409D02*
X95777D01*
X89172Y59173D02*
X95777D01*
X89173Y59114D02*
X95777D01*
X89167Y59232D02*
X95777D01*
X89160Y58996D02*
X95777D01*
X89147Y58937D02*
X95777D01*
X89169Y59055D02*
X95777D01*
X88522Y63838D02*
X95777D01*
X88543Y63779D02*
X95777D01*
X88469Y63957D02*
X95777D01*
X88498Y63898D02*
X95777D01*
X88573Y63661D02*
X95777D01*
X88584Y63602D02*
X95777D01*
X88560Y63720D02*
X95777D01*
X88250Y64252D02*
X95777D01*
X88307Y64193D02*
X95777D01*
X88220Y64281D02*
X95777D01*
X88399Y64075D02*
X95777D01*
X88437Y64016D02*
X95777D01*
X88356Y64134D02*
X95777D01*
X88596Y63425D02*
X95777D01*
X88594Y63366D02*
X95777D01*
X88591Y63543D02*
X95777D01*
X88595Y63484D02*
X95777D01*
X88581Y63248D02*
X95777D01*
X88570Y63189D02*
X95777D01*
X88589Y63307D02*
X95777D01*
X88537Y63071D02*
X95777D01*
X88516Y63012D02*
X95777D01*
X88555Y63130D02*
X95777D01*
X88461Y62894D02*
X95777D01*
X88427Y62835D02*
X95777D01*
X88490Y62953D02*
X95777D01*
X88056Y56398D02*
X95777D01*
X88056Y56338D02*
X95777D01*
X88056Y56516D02*
X95777D01*
X88056Y56457D02*
X95777D01*
X88056Y56220D02*
X95777D01*
X88056Y56161D02*
X95777D01*
X88056Y56279D02*
X95777D01*
X87728Y55748D02*
X95777D01*
X87833Y55689D02*
X95777D01*
X88056Y56102D02*
X95777D01*
X87952Y55571D02*
X95777D01*
X87990Y55512D02*
X95777D01*
X87902Y55630D02*
X95777D01*
X88050Y55335D02*
X95777D01*
X88055Y55275D02*
X95777D01*
X88018Y55453D02*
X95777D01*
X88037Y55394D02*
X95777D01*
X88047Y55157D02*
X95777D01*
X88033Y55098D02*
X95777D01*
X88055Y55216D02*
X95777D01*
X87981Y54980D02*
X95777D01*
X87940Y54921D02*
X95777D01*
X88011Y55039D02*
X95777D01*
X87810Y54803D02*
X95777D01*
X87685Y54744D02*
X95777D01*
X87886Y54862D02*
X95777D01*
X89073Y58760D02*
X95777D01*
X89035Y58701D02*
X95777D01*
X89128Y58878D02*
X95777D01*
X89104Y58819D02*
X95777D01*
X88931Y58583D02*
X95777D01*
X88858Y58524D02*
X95777D01*
X88988Y58642D02*
X95777D01*
X88595Y58405D02*
X95777D01*
X85194Y57461D02*
X95777D01*
X88759Y58464D02*
X95777D01*
X85398Y57342D02*
X95777D01*
X85453Y57283D02*
X95777D01*
X85321Y57401D02*
X95777D01*
X88056Y56811D02*
X95777D01*
X88056Y56752D02*
X95777D01*
X88056Y56870D02*
X95777D01*
X88056Y56634D02*
X95777D01*
X88056Y56575D02*
X95777D01*
X88056Y56693D02*
X95777D01*
X85524Y57165D02*
X95777D01*
X88056Y57106D02*
X95777D01*
X85494Y57224D02*
X95777D01*
X88056Y56988D02*
X95777D01*
X88056Y56929D02*
X95777D01*
X88056Y57047D02*
X95777D01*
X95420Y53622D02*
X95777D01*
X95407Y51909D02*
X95777D01*
X95526Y53740D02*
X95777D01*
X95481Y53681D02*
X95777D01*
X95551Y51762D02*
Y53781D01*
X95462Y51850D02*
X95777D01*
X95492Y51796D02*
Y53694D01*
X95149Y53504D02*
X95777D01*
X94532Y52087D02*
X95777D01*
X95332Y53563D02*
X95777D01*
X94532Y52027D02*
X95777D01*
X95244Y51968D02*
X95777D01*
X95658Y51614D02*
X95777D01*
X95669Y51555D02*
X95777D01*
X95587Y51732D02*
X95777D01*
X95632Y51673D02*
X95777D01*
X95651Y51437D02*
X95777D01*
X95620Y51378D02*
X95777D01*
X95666Y51496D02*
X95777D01*
X95496Y51791D02*
X95777D01*
X95564Y51319D02*
X95777D01*
X95485Y51260D02*
X95777D01*
X95447Y51201D02*
X95777D01*
X95315Y51957D02*
Y53554D01*
X95256Y51968D02*
Y53529D01*
X95197Y51966D02*
Y53512D01*
X95138Y51950D02*
Y53502D01*
X95433Y51886D02*
Y53633D01*
X95374Y51932D02*
Y53588D01*
X95079Y51919D02*
Y53499D01*
X94532Y51968D02*
X95229D01*
X94532Y51909D02*
X95066D01*
X95020Y51863D02*
Y53502D01*
X94901Y51746D02*
Y53529D01*
X94960Y51784D02*
Y53512D01*
X94842Y51677D02*
Y53554D01*
X94532Y51850D02*
X95010D01*
X94532Y51791D02*
X94976D01*
X94532Y51732D02*
X94886D01*
X94532Y51673D02*
X94840D01*
X94532Y51614D02*
X94815D01*
X94532Y51555D02*
X94804D01*
X94532Y51437D02*
X94821D01*
X94532Y51378D02*
X94853D01*
X94532Y51496D02*
X94806D01*
X94532Y51260D02*
X94987D01*
X94532Y51201D02*
X95025D01*
X94532Y51319D02*
X94908D01*
X94409Y51024D02*
X95777D01*
X94409Y50964D02*
X95777D01*
X95378Y51142D02*
X95777D01*
X94532Y51083D02*
X95777D01*
X94409Y50846D02*
X95777D01*
X94409Y50787D02*
X95777D01*
X94409Y50905D02*
X95777D01*
X94409Y50669D02*
X95777D01*
X94409Y50610D02*
X95777D01*
X94409Y50728D02*
X95777D01*
X94409Y50492D02*
X95777D01*
X94409Y50433D02*
X95777D01*
X94409Y50551D02*
X95777D01*
X94409Y50256D02*
X95777D01*
X94409Y50197D02*
X95777D01*
X94409Y50374D02*
X95777D01*
X94409Y50315D02*
X95777D01*
X94409Y50079D02*
X95777D01*
X94409Y50020D02*
X95777D01*
X94409Y50138D02*
X95777D01*
X94409Y49901D02*
X95777D01*
X94409Y49842D02*
X95777D01*
X94409Y49961D02*
X95777D01*
X94409Y49429D02*
X95777D01*
X94408Y49370D02*
X95777D01*
X94409Y49783D02*
X95777D01*
X94960Y48072D02*
Y51287D01*
X94842Y48092D02*
Y51394D01*
X94901Y48084D02*
Y51324D01*
X95079Y48039D02*
Y51152D01*
X95138Y48018D02*
Y51121D01*
X95020Y48057D02*
Y51208D01*
X94532Y51039D02*
Y52111D01*
Y51142D02*
X95094D01*
X94409Y51039D02*
X94532D01*
X94724Y48101D02*
Y53633D01*
X94783Y48098D02*
Y53588D01*
X94665Y48101D02*
Y53694D01*
X94409Y49724D02*
X95777D01*
X94409Y49665D02*
X95777D01*
X94409Y49409D02*
Y51039D01*
X94488Y48084D02*
Y51039D01*
X94965Y48071D02*
X95777D01*
X94429Y48072D02*
Y51039D01*
X94409Y49547D02*
X95777D01*
X94409Y49488D02*
X95777D01*
X94409Y49606D02*
X95777D01*
X94398Y49311D02*
X95777D01*
X94380Y49252D02*
X95777D01*
X94370Y48058D02*
Y49229D01*
X91149Y53504D02*
X95009D01*
X87933Y53445D02*
X95777D01*
X91420Y53622D02*
X94737D01*
X91332Y53563D02*
X94825D01*
X87933Y53327D02*
X95777D01*
X87933Y53268D02*
X95777D01*
X87933Y53386D02*
X95777D01*
X87933Y53149D02*
X95777D01*
X87933Y53090D02*
X95777D01*
X87933Y53209D02*
X95777D01*
X87933Y52972D02*
X95777D01*
X87933Y52913D02*
X95777D01*
X87933Y53031D02*
X95777D01*
X87933Y52382D02*
X95777D01*
X87933Y52323D02*
X95777D01*
X87933Y52500D02*
X95777D01*
X87933Y52441D02*
X95777D01*
X87933Y52205D02*
X95777D01*
X87933Y52146D02*
X95777D01*
X87933Y52264D02*
X95777D01*
X87933Y52795D02*
X95777D01*
X87933Y52736D02*
X95777D01*
X87933Y52854D02*
X95777D01*
X87933Y52618D02*
X95777D01*
X87933Y52559D02*
X95777D01*
X87933Y52677D02*
X95777D01*
X93460Y52111D02*
X94532D01*
X92990Y51968D02*
X93460D01*
X93045Y51909D02*
X93460D01*
X93086Y51850D02*
X93460D01*
X93139Y51732D02*
X93460D01*
X93153Y51673D02*
X93460D01*
X93117Y51791D02*
X93460D01*
X91526Y53740D02*
X94631D01*
X91481Y53681D02*
X94676D01*
X92786Y52087D02*
X93460D01*
X92914Y52027D02*
X93460D01*
X87933Y52087D02*
X92466D01*
X93162Y51555D02*
X93460D01*
X93156Y51496D02*
X93460D01*
X93161Y51614D02*
X93460D01*
X93125Y51378D02*
X93460D01*
X93097Y51319D02*
X93460D01*
X93144Y51437D02*
X93460D01*
X93060Y51260D02*
X93460D01*
X93010Y51201D02*
X93460D01*
X92942Y51142D02*
X93460D01*
X87919Y51083D02*
X92413D01*
X94351Y49193D02*
X95777D01*
X94310Y49134D02*
X95777D01*
X94311Y48040D02*
Y49134D01*
X94254Y49075D02*
X95777D01*
X94252Y48019D02*
Y49072D01*
X94195Y49016D02*
X95777D01*
X94136Y48957D02*
X95777D01*
X87737Y50964D02*
X93543D01*
X94077Y48898D02*
X95777D01*
X94018Y48838D02*
X95777D01*
X92450Y48495D02*
X93543Y49589D01*
X93841Y48661D02*
X95777D01*
X93782Y48602D02*
X95777D01*
X93959Y48779D02*
X95777D01*
X93900Y48720D02*
X95777D01*
X93664Y48484D02*
X95777D01*
X93604Y48425D02*
X95777D01*
X93723Y48543D02*
X95777D01*
X93486Y48307D02*
X95777D01*
X93427Y48248D02*
X95777D01*
X93545Y48366D02*
X95777D01*
X93368Y48189D02*
X95777D01*
X93309Y48130D02*
X95777D01*
X93250Y48071D02*
X94421D01*
X93460Y51039D02*
Y52111D01*
X92839Y51083D02*
X93460D01*
X93130Y49175D02*
Y51391D01*
X93071Y49116D02*
Y51275D01*
X93012Y49057D02*
Y51202D01*
X92953Y48998D02*
Y51149D01*
X92894Y48939D02*
Y51110D01*
X92834Y48880D02*
Y51081D01*
X92421Y48464D02*
Y51079D01*
X92775Y48821D02*
Y51060D01*
X92362Y48369D02*
Y51108D01*
X93543Y49589D02*
Y51039D01*
X93460D02*
X93543D01*
X93543Y49589D02*
Y51039D01*
X92716Y48762D02*
Y51046D01*
X93484Y49530D02*
Y51039D01*
X92657Y48703D02*
Y51039D01*
X92598Y48644D02*
Y51039D01*
X87853Y51024D02*
X93543D01*
X92539Y48585D02*
Y51046D01*
X92480Y48526D02*
Y51059D01*
X89882Y60655D02*
Y64281D01*
X89941Y60599D02*
Y64281D01*
X89764Y60735D02*
Y64281D01*
X89823Y60699D02*
Y64281D01*
X90059Y60431D02*
Y64281D01*
X90118Y60316D02*
Y64281D01*
X90000Y60527D02*
Y64281D01*
X89527Y60814D02*
Y64281D01*
X89586Y60803D02*
Y64281D01*
X89468Y60820D02*
Y64281D01*
X89645Y60786D02*
Y64281D01*
X89705Y60764D02*
Y64281D01*
X88996Y60676D02*
Y64281D01*
X89350Y60817D02*
Y64281D01*
X89409Y60821D02*
Y64281D01*
X89232Y60794D02*
Y64281D01*
X89291Y60808D02*
Y64281D01*
X89173Y60775D02*
Y64281D01*
X89055Y60717D02*
Y64281D01*
X89114Y60749D02*
Y64281D01*
X88937Y60626D02*
Y64281D01*
X88878Y60563D02*
Y64281D01*
X88819Y60479D02*
Y64281D01*
X88701Y60220D02*
Y64281D01*
X88760Y60375D02*
Y64281D01*
X88523Y63835D02*
Y64281D01*
X88582Y63611D02*
Y64281D01*
X88642Y59850D02*
Y64281D01*
X88582Y59865D02*
Y63255D01*
X88523Y59875D02*
Y63031D01*
X88346Y64146D02*
Y64281D01*
X88405Y64065D02*
Y64281D01*
X88287Y64214D02*
Y64281D01*
X88464Y63966D02*
Y64281D01*
Y59881D02*
Y62900D01*
X88405Y59882D02*
Y62801D01*
X88439Y59882D02*
X88693D01*
X88346Y59878D02*
Y62720D01*
X88287Y59869D02*
Y62652D01*
X88228Y59855D02*
Y62593D01*
X88169Y59837D02*
Y62542D01*
X88110Y59812D02*
Y62498D01*
X88051Y59782D02*
Y62459D01*
X87992Y59744D02*
Y62426D01*
X87933Y59697D02*
Y62396D01*
X87874Y59639D02*
Y62371D01*
X87815Y59566D02*
Y62350D01*
X91181Y54562D02*
Y64281D01*
X91240Y54547D02*
Y64281D01*
X91063Y54571D02*
Y64281D01*
X91122Y54570D02*
Y64281D01*
X91358Y54493D02*
Y64281D01*
X91417Y54451D02*
Y64281D01*
X91299Y54524D02*
Y64281D01*
X90945Y54555D02*
Y64281D01*
X91004Y54566D02*
Y64281D01*
X90886Y54536D02*
Y64281D01*
X90768Y54472D02*
Y64281D01*
X90827Y54509D02*
Y64281D01*
X90708Y54423D02*
Y64281D01*
X92303Y52003D02*
Y64281D01*
X92362Y52042D02*
Y64281D01*
X92185Y51880D02*
Y64281D01*
X92244Y51951D02*
Y64281D01*
X92067Y48024D02*
Y64281D01*
X92126Y51768D02*
Y64281D01*
X92008Y48030D02*
Y64281D01*
X91535Y54317D02*
Y64281D01*
X91594Y54183D02*
Y64281D01*
X91476Y54395D02*
Y64281D01*
X91890Y48026D02*
Y64281D01*
X91949Y48031D02*
Y64281D01*
X91831Y48014D02*
Y64281D01*
X90649Y54357D02*
Y64281D01*
X87756Y59468D02*
Y62332D01*
X87697Y59304D02*
Y62317D01*
X90590Y54257D02*
Y64281D01*
X89882Y48025D02*
Y59413D01*
X89823Y48031D02*
Y59368D01*
X87638Y57160D02*
Y62306D01*
X87579Y57160D02*
Y62298D01*
X87520Y57160D02*
Y62293D01*
X87460Y57160D02*
Y62291D01*
X87401Y57160D02*
Y62293D01*
X89173Y59150D02*
Y59293D01*
X88051Y57160D02*
Y58486D01*
X89764Y48031D02*
Y59332D01*
X89705Y48025D02*
Y59304D01*
X88819Y48020D02*
Y58498D01*
X87756Y57160D02*
Y58800D01*
X87815Y57160D02*
Y58701D01*
X87697Y57160D02*
Y58964D01*
X87933Y57160D02*
Y58571D01*
X87992Y57160D02*
Y58524D01*
X87874Y57160D02*
Y58628D01*
X86811Y59775D02*
Y62490D01*
X86870Y59735D02*
Y62452D01*
X86693Y59832D02*
Y62583D01*
X86752Y59807D02*
Y62533D01*
X86988Y59627D02*
Y62391D01*
X87047Y59550D02*
Y62367D01*
X86929Y59687D02*
Y62420D01*
X86634Y64226D02*
Y64281D01*
X86575Y64160D02*
Y64281D01*
Y59867D02*
Y62706D01*
X86634Y59852D02*
Y62640D01*
X86516Y59876D02*
Y62784D01*
X87061Y59527D02*
X87789D01*
X87094Y59468D02*
X87756D01*
X87106Y59444D02*
Y62346D01*
X87121Y59409D02*
X87730D01*
X87141Y59350D02*
X87709D01*
X87156Y59291D02*
X87694D01*
X87165Y59243D02*
Y62329D01*
X86439Y59882D02*
X88412D01*
X86717Y59823D02*
X88134D01*
X86829Y59764D02*
X88022D01*
X86909Y59705D02*
X87942D01*
X86971Y59646D02*
X87880D01*
X87021Y59587D02*
X87830D01*
X86457Y63987D02*
Y64281D01*
X86516Y64082D02*
Y64281D01*
X86338Y63673D02*
Y64281D01*
X86397Y63864D02*
Y64281D01*
X86220Y59853D02*
Y64281D01*
X86279Y59868D02*
Y64281D01*
X86161Y59834D02*
Y64281D01*
X86043Y59777D02*
Y64281D01*
X86102Y59809D02*
Y64281D01*
X85984Y59738D02*
Y64281D01*
X85866Y59631D02*
Y64281D01*
X85925Y59690D02*
Y64281D01*
X85157Y59287D02*
Y64281D01*
X86397Y59881D02*
Y63002D01*
X86457Y59881D02*
Y62879D01*
X85807Y59555D02*
Y64281D01*
X86338Y59877D02*
Y63193D01*
X85748Y59451D02*
Y64281D01*
X85156Y59291D02*
X85694D01*
X85689Y59265D02*
Y64281D01*
X85061Y59527D02*
X85789D01*
X85094Y59468D02*
X85756D01*
X85039Y59561D02*
Y64281D01*
X85121Y59409D02*
X85730D01*
X85141Y59350D02*
X85709D01*
X85098Y59460D02*
Y64281D01*
X87167Y59232D02*
X87684D01*
X87169Y59055D02*
X87681D01*
X87172Y59173D02*
X87678D01*
X87173Y59114D02*
X87677D01*
X87283Y57160D02*
Y62304D01*
X87342Y57160D02*
Y62297D01*
X87224Y57160D02*
Y62315D01*
X87165Y57160D02*
Y59024D01*
X87128Y58878D02*
X87722D01*
X87104Y58819D02*
X87747D01*
X87160Y58996D02*
X87690D01*
X87147Y58937D02*
X87704D01*
X87106Y57160D02*
Y58824D01*
X87073Y58760D02*
X87777D01*
X87047Y57160D02*
Y58718D01*
X86988Y58642D02*
X87862D01*
X86931Y58583D02*
X87920D01*
X87035Y58701D02*
X87815D01*
X86988Y57160D02*
Y58641D01*
X86858Y58524D02*
X87993D01*
X86043Y54207D02*
Y58491D01*
X85394Y57346D02*
Y64281D01*
X85453Y57283D02*
Y64281D01*
X85275Y57427D02*
Y64281D01*
X85334Y57393D02*
Y64281D01*
X85571Y48015D02*
Y64281D01*
X85689Y53771D02*
Y59002D01*
X85512Y57191D02*
Y64281D01*
X85167Y59232D02*
X85684D01*
X85172Y59173D02*
X85678D01*
X85173Y59114D02*
X85677D01*
X85169Y59055D02*
X85681D01*
X85160Y58996D02*
X85690D01*
X85216Y57453D02*
Y64281D01*
X85925Y54148D02*
Y58578D01*
X85984Y54182D02*
Y58530D01*
X85157Y57471D02*
Y58980D01*
X85807Y54042D02*
Y58713D01*
X85866Y54103D02*
Y58637D01*
X85748Y53954D02*
Y58816D01*
X85128Y58878D02*
X85722D01*
X85104Y58819D02*
X85747D01*
X85147Y58937D02*
X85704D01*
X85098Y57481D02*
Y58807D01*
X85073Y58760D02*
X85777D01*
X85039Y57485D02*
Y58707D01*
X88056Y56088D02*
Y57160D01*
X87874Y55657D02*
Y56088D01*
X87756Y55735D02*
Y56088D01*
X87815Y55702D02*
Y56088D01*
X87992Y55508D02*
Y56088D01*
X88051Y55326D02*
Y56088D01*
X87933Y55596D02*
Y56088D01*
X86759Y58464D02*
X88091D01*
X86983Y57160D02*
X88056D01*
X86983Y56088D02*
X88056D01*
X87697Y55760D02*
Y56088D01*
X87965Y53976D02*
X90546D01*
X87997Y53917D02*
X90556D01*
X87992Y53928D02*
Y55000D01*
X87933Y54020D02*
Y54912D01*
X88031Y53799D02*
X90597D01*
X88035Y53740D02*
X90631D01*
X88018Y53858D02*
X90573D01*
X87815Y54119D02*
Y54806D01*
X87738Y54153D02*
X90556D01*
X87756Y54147D02*
Y54773D01*
X87853Y54094D02*
X90546D01*
X87920Y54035D02*
X90543D01*
X87874Y54078D02*
Y54851D01*
X87579Y55787D02*
Y56088D01*
X87638Y55777D02*
Y56088D01*
X87460Y55787D02*
Y56088D01*
X87520Y55790D02*
Y56088D01*
X87342Y55760D02*
Y56088D01*
X87401Y55777D02*
Y56088D01*
X87283Y55735D02*
Y56088D01*
X87165Y55656D02*
Y56088D01*
X87224Y55701D02*
Y56088D01*
X86983D02*
Y57160D01*
X87047Y55507D02*
Y56088D01*
X87106Y55595D02*
Y56088D01*
X86988Y55324D02*
Y56088D01*
X87638Y54175D02*
Y54731D01*
X87579Y54176D02*
Y54721D01*
X87697Y54165D02*
Y54748D01*
X87520Y54169D02*
Y54718D01*
X87460Y54154D02*
Y54721D01*
X87401Y54129D02*
Y54731D01*
X87342Y54093D02*
Y54748D01*
X87224Y53964D02*
Y54807D01*
X87283Y54042D02*
Y54773D01*
X87165Y53791D02*
Y54852D01*
X90886Y48031D02*
Y53535D01*
X88031Y53681D02*
X90676D01*
X90827Y48029D02*
Y53562D01*
X90945Y48028D02*
Y53516D01*
X91004Y48019D02*
Y53504D01*
X90768Y48020D02*
Y53599D01*
X87997Y53563D02*
X90825D01*
X87965Y53504D02*
X91009D01*
X88018Y53622D02*
X90737D01*
X87933Y52027D02*
X92339D01*
X87933Y51968D02*
X92262D01*
X87933Y51909D02*
X92207D01*
X88031Y51437D02*
X92108D01*
X88035Y51378D02*
X92127D01*
X87997Y51555D02*
X92090D01*
X88018Y51496D02*
X92096D01*
X88018Y51260D02*
X92192D01*
X87997Y51201D02*
X92242D01*
X88031Y51319D02*
X92155D01*
X87933Y51850D02*
X92166D01*
X87933Y51791D02*
X92135D01*
X87933Y51732D02*
X92113D01*
X87933Y51673D02*
X92099D01*
X87965Y51142D02*
X92310D01*
X87965Y51614D02*
X92091D01*
X88701Y48031D02*
Y58438D01*
X87992Y51566D02*
Y53552D01*
X87933Y51658D02*
Y53460D01*
X88760Y48029D02*
Y58465D01*
X88642Y48028D02*
Y58418D01*
X88582Y48019D02*
Y58403D01*
X86757Y52972D02*
X87264D01*
X86757Y52913D02*
X87264D01*
X87224Y51602D02*
Y53516D01*
X87264Y51658D02*
Y53460D01*
X87165Y51429D02*
Y53689D01*
X87638Y48031D02*
Y50943D01*
X87579Y48030D02*
Y50942D01*
X87756Y48014D02*
Y50971D01*
X87697Y48026D02*
Y50953D01*
X87520Y48024D02*
Y50949D01*
X86757Y52795D02*
X87264D01*
X86757Y52736D02*
X87264D01*
X86757Y52854D02*
X87264D01*
X86757Y52441D02*
X87264D01*
X86757Y52677D02*
X87264D01*
X86595Y58405D02*
X88255D01*
X86381Y54212D02*
X90573D01*
X85568Y56988D02*
X86983D01*
X85569Y56929D02*
X86983D01*
X86508Y54153D02*
X87459D01*
X86585Y54094D02*
X87344D01*
X86640Y54035D02*
X87277D01*
X85552Y56811D02*
X86983D01*
X85532Y56752D02*
X86983D01*
X85564Y56870D02*
X86983D01*
X85467Y56634D02*
X86983D01*
X85246Y56457D02*
X86983D01*
X85505Y56693D02*
X86983D01*
X86751Y53622D02*
X87179D01*
X86757Y53445D02*
X87264D01*
X86755Y53740D02*
X87162D01*
X86756Y53681D02*
X87166D01*
X86757Y53327D02*
X87264D01*
X86757Y53268D02*
X87264D01*
X86757Y53386D02*
X87264D01*
X86681Y53976D02*
X87232D01*
X86711Y53917D02*
X87200D01*
X86733Y53858D02*
X87178D01*
X86739Y53563D02*
X87200D01*
X86719Y53504D02*
X87232D01*
X86748Y53799D02*
X87166D01*
X86575Y54103D02*
Y58401D01*
X86516Y54149D02*
Y58391D01*
X86457Y54182D02*
Y58386D01*
X86397Y54207D02*
Y58386D01*
X86752Y53773D02*
Y58461D01*
X86693Y53955D02*
Y58435D01*
X86634Y54043D02*
Y58415D01*
X86279Y54234D02*
Y58400D01*
X85546Y57106D02*
X86983D01*
X86220Y54237D02*
Y58414D01*
X86161Y54234D02*
Y58434D01*
X86338Y54224D02*
Y58391D01*
X86102Y54224D02*
Y58459D01*
X86694Y53450D02*
X86757D01*
X86752D02*
Y53628D01*
X85689Y53450D02*
Y53631D01*
X85418Y56575D02*
X86983D01*
X85350Y56516D02*
X86983D01*
X85561Y57047D02*
X86983D01*
X85684Y53450D02*
X85747D01*
X86757Y53090D02*
X87264D01*
X86757Y53031D02*
X87264D01*
X86757Y53209D02*
X87264D01*
X86757Y53149D02*
X87264D01*
X86757Y52618D02*
X87264D01*
X86757Y52559D02*
X87264D01*
X86757Y52377D02*
Y53450D01*
Y52500D02*
X87264D01*
X86757Y52382D02*
X87264D01*
X86334Y52377D02*
X86757D01*
X86413Y52323D02*
X87264D01*
X86459Y52264D02*
X87264D01*
X86647Y52027D02*
X87264D01*
X86654Y51968D02*
X87264D01*
X86589Y52146D02*
X87264D01*
X86627Y52087D02*
X87264D01*
X86627Y51850D02*
X87264D01*
X86589Y51791D02*
X87264D01*
X86647Y51909D02*
X87264D01*
X86520Y52205D02*
X87264D01*
X86520Y51732D02*
X87264D01*
X86459Y51673D02*
X87264D01*
X86413Y51614D02*
X87232D01*
X86322Y51555D02*
X87200D01*
X86457Y52268D02*
Y52377D01*
X86397Y52337D02*
Y52377D01*
X86575Y52162D02*
Y52377D01*
X86634Y52071D02*
Y52377D01*
X86516Y52207D02*
Y52377D01*
X85684D02*
Y53450D01*
X85807Y52070D02*
Y52377D01*
X85453Y48031D02*
Y56614D01*
X85512Y48026D02*
Y56706D01*
X85394Y48030D02*
Y56551D01*
X85334Y48023D02*
Y56505D01*
X86575Y48029D02*
Y51775D01*
X86516Y48031D02*
Y51730D01*
X86043Y52337D02*
Y52377D01*
X86634Y48021D02*
Y51866D01*
X86457Y48028D02*
Y51669D01*
X86397Y48018D02*
Y51600D01*
X85984Y52268D02*
Y52377D01*
X85684D02*
X86107D01*
X85925Y52207D02*
Y52377D01*
X85866Y52161D02*
Y52377D01*
X95610Y47686D02*
Y51365D01*
X95551Y47749D02*
Y51309D01*
X95492Y47804D02*
Y51275D01*
X95433Y47852D02*
Y51185D01*
X95728Y47528D02*
Y64281D01*
X95777Y47442D02*
Y64281D01*
X95669Y47614D02*
Y51525D01*
X95197Y47993D02*
Y51105D01*
X93189Y48010D02*
X94283Y49103D01*
X94193Y47994D02*
Y49013D01*
X95374Y47894D02*
Y51139D01*
X95315Y47931D02*
Y51114D01*
X95256Y47964D02*
Y51103D01*
X95523Y47776D02*
X95777D01*
X95583Y47716D02*
X95777D01*
X95374Y47894D02*
X95777D01*
X95455Y47835D02*
X95777D01*
X95680Y47598D02*
X95777D01*
X95721Y47539D02*
X95777D01*
X95635Y47657D02*
X95777D01*
X93191Y48012D02*
X94234D01*
X95152D02*
X95777D01*
X94134Y47966D02*
Y48954D01*
X93189Y47953D02*
X94109D01*
X95277D02*
X95777D01*
X94075Y47933D02*
Y48895D01*
X94016Y47896D02*
Y48836D01*
X93956Y47854D02*
Y48777D01*
X93897Y47806D02*
Y48718D01*
X93838Y47752D02*
Y48659D01*
X93779Y47690D02*
Y48600D01*
X93720Y47618D02*
Y48541D01*
X93661Y47533D02*
Y48482D01*
X92126Y48011D02*
Y51382D01*
X92185Y47992D02*
Y51270D01*
X91771Y47996D02*
Y64281D01*
X92244Y47966D02*
Y51199D01*
X92303Y47931D02*
Y51147D01*
X91712Y47971D02*
Y64281D01*
X93189Y47894D02*
X94012D01*
X93189Y47835D02*
X93931D01*
X93189Y47776D02*
X93863D01*
X93189Y47716D02*
X93803D01*
X93602Y47428D02*
Y48423D01*
X93189Y47480D02*
X93630D01*
X93189Y47421D02*
X93599D01*
X92323Y47917D02*
Y48189D01*
X92268Y47953D02*
X92323D01*
X92125Y48012D02*
X92323D01*
X93189Y47657D02*
X93751D01*
X93189Y47598D02*
X93706D01*
X93189Y47539D02*
X93665D01*
X93189Y47362D02*
X93571D01*
X93189Y47303D02*
X93548D01*
X93543Y47290D02*
Y48364D01*
X93484Y47048D02*
Y48305D01*
X93425Y43593D02*
Y48246D01*
X93189Y47244D02*
X93528D01*
X93189Y47185D02*
X93511D01*
X93189Y47126D02*
X93497D01*
X93189Y47067D02*
X93487D01*
X93189Y47008D02*
X93479D01*
X93189Y46949D02*
X93474D01*
X93189Y46772D02*
X93478D01*
X93189Y46890D02*
X93473D01*
X93189Y46831D02*
X93474D01*
X93543Y43593D02*
Y46472D01*
X93484Y43593D02*
Y46714D01*
X93189Y46653D02*
X93494D01*
X93189Y46594D02*
X93507D01*
X93189Y46713D02*
X93484D01*
X93189Y46476D02*
X93542D01*
X93189Y46417D02*
X93564D01*
X93189Y46535D02*
X93523D01*
X93189Y45984D02*
Y48010D01*
X92323Y46164D02*
Y46965D01*
X92303Y46144D02*
Y46951D01*
X92244Y46085D02*
Y46916D01*
X93366Y43593D02*
Y48187D01*
X93307Y43593D02*
Y48128D01*
X93248Y43593D02*
Y48068D01*
X92185Y46890D02*
X92323D01*
X91771Y46798D02*
Y46886D01*
X91712Y46836D02*
Y46911D01*
X92185Y46026D02*
Y46890D01*
X92126Y45967D02*
Y46870D01*
X91831Y46748D02*
Y46868D01*
X91973Y46535D02*
X92323D01*
X91993Y46476D02*
X92323D01*
X91949Y46590D02*
Y46851D01*
X92067Y45908D02*
Y46858D01*
X92006Y46417D02*
X92323D01*
X92008Y46404D02*
Y46851D01*
X91805Y46772D02*
X92323D01*
X91865Y46713D02*
X92323D01*
X91721Y46831D02*
X92323D01*
X91911Y46653D02*
X92323D01*
X91946Y46594D02*
X92323D01*
X91890Y46683D02*
Y46856D01*
X91653Y47937D02*
Y64281D01*
X91594Y47894D02*
Y53888D01*
X91535Y47837D02*
Y53754D01*
X91358Y47792D02*
Y53578D01*
X91476Y47760D02*
Y53675D01*
X91417Y47693D02*
Y53619D01*
X91181Y47951D02*
Y53509D01*
X91122Y47981D02*
Y53501D01*
X91063Y48003D02*
Y53499D01*
X91299Y47860D02*
Y53547D01*
X91240Y47911D02*
Y53524D01*
X91323Y47835D02*
X91533D01*
X91370Y47776D02*
X91486D01*
X91405Y47716D02*
X91451D01*
X91383Y47126D02*
X91474D01*
X91476Y46909D02*
Y47122D01*
X91340Y47067D02*
X91516D01*
X91417Y46911D02*
Y47189D01*
X91035Y48012D02*
X91822D01*
X91178Y47953D02*
X91678D01*
X89945Y48012D02*
X90732D01*
X91262Y47894D02*
X91594D01*
X91209Y46949D02*
X91647D01*
X91284Y47008D02*
X91572D01*
X90590Y47954D02*
Y53814D01*
X90649Y47983D02*
Y53714D01*
X90472Y47865D02*
Y64281D01*
X90531Y47915D02*
Y64281D01*
X90354Y47704D02*
Y64281D01*
X90413Y47799D02*
Y64281D01*
X90295Y47752D02*
Y64281D01*
X90059Y47968D02*
Y59636D01*
X90000Y47994D02*
Y59540D01*
X89941Y48013D02*
Y59469D01*
X90177Y47890D02*
Y64281D01*
X90236Y47832D02*
Y64281D01*
X90118Y47934D02*
Y59752D01*
X90708Y48005D02*
Y53648D01*
X90280Y47776D02*
X90396D01*
X90315Y47716D02*
X90361D01*
X90293Y47126D02*
X90384D01*
X90354Y46911D02*
Y47178D01*
X90250Y47067D02*
X90426D01*
X90295Y46910D02*
Y47130D01*
X90088Y47953D02*
X90588D01*
X90172Y47894D02*
X90504D01*
X90233Y47835D02*
X90443D01*
X90194Y47008D02*
X90482D01*
X90119Y46949D02*
X90557D01*
X91535Y46901D02*
Y47045D01*
X91594Y46886D02*
Y46988D01*
X91358Y46908D02*
Y47090D01*
X91299Y46898D02*
Y47022D01*
X91653Y46865D02*
Y46944D01*
X91240Y46882D02*
Y46970D01*
X91181Y46860D02*
Y46931D01*
X91122Y46829D02*
Y46901D01*
X91095Y46890D02*
X91264D01*
X91582D02*
X91761D01*
X91063Y46789D02*
Y46878D01*
X91004Y46737D02*
Y46863D01*
X90945Y46667D02*
Y46854D01*
X90886Y46566D02*
Y46850D01*
X90631Y46831D02*
X91125D01*
X90715Y46772D02*
X91041D01*
X90775Y46713D02*
X90981D01*
X90821Y46653D02*
X90935D01*
X90857Y46594D02*
X90900D01*
X90827Y46645D02*
Y46853D01*
X90531Y46877D02*
Y46967D01*
X90492Y46890D02*
X90671D01*
X90413Y46906D02*
Y47083D01*
X90472Y46895D02*
Y47017D01*
X90590Y46852D02*
Y46928D01*
X90649Y46820D02*
Y46899D01*
X90236Y46903D02*
Y47050D01*
X90177Y46891D02*
Y46992D01*
X90005Y46890D02*
X90174D01*
X90118Y46871D02*
Y46948D01*
X90059Y46844D02*
Y46914D01*
X90000Y46808D02*
Y46888D01*
X90708Y46777D02*
Y46877D01*
X89941Y46762D02*
Y46869D01*
X90768Y46721D02*
Y46862D01*
X89882Y46702D02*
Y46857D01*
X89541Y46831D02*
X90035D01*
X89625Y46772D02*
X89951D01*
X89685Y46713D02*
X89891D01*
X89823Y46618D02*
Y46851D01*
X89731Y46653D02*
X89845D01*
X89767Y46594D02*
X89810D01*
X95649Y46122D02*
X95777D01*
X95599Y46063D02*
X95777D01*
X95732Y46240D02*
X95777D01*
X95693Y46181D02*
X95777D01*
Y43593D02*
Y46320D01*
X95476Y45945D02*
X95777D01*
X95542Y46004D02*
X95777D01*
X95308Y45827D02*
X95777D01*
X95193Y45768D02*
X95777D01*
X95400Y45886D02*
X95777D01*
X93034Y45650D02*
X95777D01*
X92975Y45590D02*
X95777D01*
X95032Y45709D02*
X95777D01*
X92797Y45413D02*
X95777D01*
X92738Y45354D02*
X95777D01*
X92916Y45531D02*
X95777D01*
X92856Y45472D02*
X95777D01*
X92620Y45236D02*
X95777D01*
X92502Y45118D02*
X95777D01*
X92679Y45295D02*
X95777D01*
X92266Y44882D02*
X95777D01*
X92207Y44823D02*
X95777D01*
X92443Y45059D02*
X95777D01*
X92089Y44705D02*
X95777D01*
X92021Y44646D02*
X95777D01*
X92148Y44764D02*
X95777D01*
X93189Y46240D02*
X93654D01*
X93189Y46181D02*
X93693D01*
X93189Y46358D02*
X93590D01*
X93189Y46299D02*
X93620D01*
X93189Y46063D02*
X93787D01*
X93189Y46004D02*
X93844D01*
X93189Y46122D02*
X93737D01*
X92013Y46299D02*
X92323D01*
X93187Y45945D02*
X93910D01*
X92012Y46358D02*
X92323D01*
X93178Y45886D02*
X93987D01*
X94842Y43593D02*
Y45670D01*
X94606Y43593D02*
Y45664D01*
X93159Y45827D02*
X94078D01*
X94547Y43593D02*
Y45669D01*
X95020Y43593D02*
Y45705D01*
X94960Y43593D02*
Y45690D01*
X94901Y43593D02*
Y45678D01*
X93090Y45709D02*
X94354D01*
X92561Y45177D02*
X95777D01*
X93131Y45768D02*
X94193D01*
X92384Y45000D02*
X95777D01*
X92325Y44941D02*
X95777D01*
X92078Y44694D02*
X93062Y45678D01*
X95551Y43593D02*
Y46013D01*
X95492Y43593D02*
Y45958D01*
X95433Y43593D02*
Y45910D01*
X95374Y43593D02*
Y45868D01*
X95728Y43593D02*
Y46234D01*
X95669Y43593D02*
Y46148D01*
X95610Y43593D02*
Y46076D01*
X93956Y43593D02*
Y45908D01*
X94016Y43593D02*
Y45866D01*
X93897Y43593D02*
Y45955D01*
X95315Y43593D02*
Y45831D01*
X95256Y43593D02*
Y45798D01*
X94075Y43593D02*
Y45829D01*
X94783Y43593D02*
Y45664D01*
X94724Y43593D02*
Y45661D01*
X94488Y43593D02*
Y45678D01*
X94665Y43593D02*
Y45661D01*
X95197Y43593D02*
Y45769D01*
X95138Y43593D02*
Y45744D01*
X95079Y43593D02*
Y45723D01*
X94193Y43593D02*
Y45768D01*
X94252Y43593D02*
Y45743D01*
X94134Y43593D02*
Y45796D01*
X94370Y43593D02*
Y45704D01*
X94429Y43593D02*
Y45689D01*
X94311Y43593D02*
Y45722D01*
X93602Y43593D02*
Y46334D01*
X93661Y43593D02*
Y46229D01*
X93189Y43593D02*
Y45972D01*
X93130Y43593D02*
Y45766D01*
X93779Y43593D02*
Y46072D01*
X93838Y43593D02*
Y46010D01*
X93720Y43593D02*
Y46144D01*
X92894Y43593D02*
Y45509D01*
X92834Y43593D02*
Y45450D01*
X92775Y43593D02*
Y45391D01*
X93071Y43593D02*
Y45687D01*
X93012Y43593D02*
Y45628D01*
X92953Y43593D02*
Y45568D01*
X92539Y43593D02*
Y45155D01*
X92480Y43593D02*
Y45096D01*
X92421Y43593D02*
Y45037D01*
X92716Y43593D02*
Y45332D01*
X92657Y43593D02*
Y45273D01*
X92598Y43593D02*
Y45214D01*
X92185Y43593D02*
Y44801D01*
X92126Y43593D02*
Y44742D01*
X92067Y43593D02*
Y44683D01*
X92362Y43593D02*
Y44978D01*
X92303Y43593D02*
Y44919D01*
X92244Y43593D02*
Y44860D01*
X92008Y46240D02*
X92323D01*
X91997Y46181D02*
X92323D01*
X91979Y46122D02*
X92281D01*
X91954Y46063D02*
X92222D01*
X92008Y45848D02*
Y46237D01*
X91921Y46004D02*
X92163D01*
X91949Y45789D02*
Y46052D01*
X91878Y45945D02*
X92104D01*
X91890Y45730D02*
Y45959D01*
X91592Y45433D02*
X92323Y46164D01*
X91831Y45671D02*
Y45893D01*
X91822Y45886D02*
X92045D01*
X91746Y45827D02*
X91986D01*
X91771Y45612D02*
Y45844D01*
X91629Y45768D02*
X91927D01*
X91712Y45553D02*
Y45806D01*
X91653Y45494D02*
Y45777D01*
X91594Y45435D02*
Y45756D01*
X91299Y45433D02*
Y45744D01*
X91358Y45433D02*
Y45734D01*
X91240Y45433D02*
Y45759D01*
X91535Y45433D02*
Y45741D01*
X91476Y45433D02*
Y45733D01*
X91417Y45433D02*
Y45730D01*
X91004Y45433D02*
Y45905D01*
X91063Y45433D02*
Y45853D01*
X90831Y46004D02*
X90925D01*
X90788Y45945D02*
X90968D01*
X90886Y45433D02*
Y46076D01*
X90945Y45433D02*
Y45975D01*
X90827Y45433D02*
Y45997D01*
X89698Y45945D02*
X89878D01*
X90732Y45886D02*
X91024D01*
X89741Y46004D02*
X89835D01*
X90000Y45433D02*
Y45833D01*
X89642Y45886D02*
X89934D01*
X91122Y45433D02*
Y45813D01*
X90539Y45768D02*
X91217D01*
X90656Y45827D02*
X91100D01*
X90590Y45433D02*
Y45789D01*
X91181Y45433D02*
Y45782D01*
X90531Y45433D02*
Y45765D01*
X89449Y45768D02*
X90127D01*
X90413Y45433D02*
Y45736D01*
X89566Y45827D02*
X90010D01*
X90472Y45433D02*
Y45747D01*
X90295Y45433D02*
Y45732D01*
X90059Y45433D02*
Y45798D01*
X91900Y44587D02*
X95777D01*
X91949Y43593D02*
Y44605D01*
X92008Y43593D02*
Y44637D01*
X91890Y43593D02*
Y44583D01*
X91831Y43593D02*
Y44571D01*
X91535Y43593D02*
Y44567D01*
X91594Y43593D02*
Y44567D01*
X90768Y45433D02*
Y45921D01*
X91712Y43593D02*
Y44567D01*
X91771Y43593D02*
Y44567D01*
X91653Y43593D02*
Y44567D01*
X91240Y43593D02*
Y44567D01*
X91299Y43593D02*
Y44567D01*
X91122Y43593D02*
Y44567D01*
X91181Y43593D02*
Y44567D01*
X91417Y43593D02*
Y44567D01*
X91476Y43593D02*
Y44567D01*
X91358Y43593D02*
Y44567D01*
X90827Y43593D02*
Y44567D01*
X90886Y43593D02*
Y44567D01*
X90768Y43593D02*
Y44567D01*
X91004Y43593D02*
Y44567D01*
X91063Y43593D02*
Y44567D01*
X90945Y43593D02*
Y44567D01*
X90708Y45433D02*
Y45865D01*
Y43593D02*
Y44567D01*
X90649Y45433D02*
Y45822D01*
X90354Y45433D02*
Y45731D01*
X90472Y43593D02*
Y44567D01*
X90649Y43593D02*
Y44567D01*
X90413Y43593D02*
Y44567D01*
X89882Y45433D02*
Y45940D01*
X89941Y45433D02*
Y45880D01*
X89823Y45433D02*
Y46024D01*
X90177Y45433D02*
Y45751D01*
X90236Y45433D02*
Y45738D01*
X90118Y45433D02*
Y45771D01*
X90236Y43593D02*
Y44567D01*
X90295Y43593D02*
Y44567D01*
X90177Y43593D02*
Y44567D01*
X90531Y43593D02*
Y44567D01*
X90590Y43593D02*
Y44567D01*
X90354Y43593D02*
Y44567D01*
X89882Y43593D02*
Y44567D01*
X89941Y43593D02*
Y44567D01*
X89823Y43593D02*
Y44567D01*
X90059Y43593D02*
Y44567D01*
X90118Y43593D02*
Y44567D01*
X90000Y43593D02*
Y44567D01*
X89645Y48013D02*
Y59282D01*
X89586Y47994D02*
Y59265D01*
X89527Y47968D02*
Y59254D01*
X89468Y47934D02*
Y59248D01*
X89350Y47832D02*
Y59250D01*
X89409Y47890D02*
Y59247D01*
X89291Y47752D02*
Y59259D01*
X89055Y47915D02*
Y58730D01*
X88996Y47954D02*
Y58650D01*
X88937Y47983D02*
Y58588D01*
X89232Y47703D02*
Y59273D01*
X89173Y47799D02*
Y59118D01*
X89114Y47865D02*
Y58842D01*
X89143Y47835D02*
X89353D01*
X89190Y47776D02*
X89306D01*
X89225Y47716D02*
X89271D01*
X89203Y47126D02*
X89294D01*
X89160Y47067D02*
X89336D01*
X89104Y47008D02*
X89392D01*
X89232Y46911D02*
Y47179D01*
X88855Y48012D02*
X89642D01*
X88998Y47953D02*
X89498D01*
X88878Y48005D02*
Y58538D01*
X89082Y47894D02*
X89414D01*
X89029Y46949D02*
X89467D01*
X88523Y48004D02*
Y58392D01*
X88464Y47981D02*
Y58387D01*
X88346Y47912D02*
Y58390D01*
X88405Y47951D02*
Y58386D01*
X88228Y47792D02*
Y58412D01*
X88287Y47860D02*
Y58399D01*
X88169Y47693D02*
Y58431D01*
X87933Y47937D02*
Y51098D01*
X87874Y47971D02*
Y51040D01*
X87342Y47966D02*
Y51025D01*
X88110Y47760D02*
Y58455D01*
X88051Y47837D02*
Y55182D01*
X87992Y47894D02*
Y51190D01*
X87992Y47894D02*
X88324D01*
X88053Y47835D02*
X88263D01*
X88100Y47776D02*
X88216D01*
X88135Y47716D02*
X88181D01*
X88070Y47067D02*
X88246D01*
X88014Y47008D02*
X88302D01*
X88113Y47126D02*
X88204D01*
X87815Y47996D02*
Y50999D01*
X87765Y48012D02*
X88552D01*
X87460Y48011D02*
Y50964D01*
X87908Y47953D02*
X88408D01*
X87939Y46949D02*
X88377D01*
X87401Y47992D02*
Y50989D01*
X89350Y46902D02*
Y47050D01*
X89409Y46888D02*
Y46992D01*
X89291Y46910D02*
Y47130D01*
X89173Y46907D02*
Y47083D01*
X89468Y46867D02*
Y46948D01*
X89527Y46839D02*
Y46914D01*
X89114Y46897D02*
Y47017D01*
X89055Y46881D02*
Y46967D01*
X88996Y46857D02*
Y46928D01*
X89402Y46890D02*
X89581D01*
X89586Y46801D02*
Y46888D01*
X88937Y46826D02*
Y46899D01*
X88915Y46890D02*
X89084D01*
X89705Y46689D02*
Y46857D01*
X89764Y46600D02*
Y46851D01*
X89645Y46753D02*
Y46869D01*
X88878Y46785D02*
Y46877D01*
X88451Y46831D02*
X88945D01*
X88819Y46732D02*
Y46862D01*
X88760Y46660D02*
Y46853D01*
X88701Y46554D02*
Y46850D01*
X88642Y46653D02*
Y46854D01*
X88287Y46896D02*
Y47022D01*
X88312Y46890D02*
X88491D01*
X88169Y46911D02*
Y47189D01*
X88228Y46907D02*
Y47090D01*
X88405Y46855D02*
Y46931D01*
X88464Y46823D02*
Y46901D01*
X88346Y46879D02*
Y46970D01*
X88110Y46910D02*
Y47122D01*
X88051Y46903D02*
Y47045D01*
X87992Y46889D02*
Y46988D01*
X87933Y46869D02*
Y46944D01*
X87874Y46841D02*
Y46911D01*
X87825Y46890D02*
X87994D01*
X88523Y46781D02*
Y46878D01*
X87815Y46805D02*
Y46886D01*
X87756Y46758D02*
Y46868D01*
X88582Y46726D02*
Y46863D01*
X87697Y46696D02*
Y46856D01*
X87460Y46758D02*
Y46870D01*
X87361Y46831D02*
X87855D01*
X87401Y46805D02*
Y46890D01*
X87579Y46609D02*
Y46851D01*
X87638Y46609D02*
Y46851D01*
X87520Y46696D02*
Y46858D01*
X87224Y47885D02*
Y51154D01*
X87283Y47931D02*
Y51076D01*
X86929Y47870D02*
Y58581D01*
X87165Y47826D02*
Y51327D01*
X87047Y47713D02*
Y55001D01*
X87106Y47744D02*
Y54913D01*
X86988Y47805D02*
Y55184D01*
X86693Y48007D02*
Y52377D01*
X86752Y47985D02*
Y52377D01*
X86338Y48002D02*
Y51562D01*
X86870Y47919D02*
Y58532D01*
X86811Y47957D02*
Y58493D01*
X86279Y47979D02*
Y51542D01*
X86963Y47835D02*
X87173D01*
X87010Y47776D02*
X87126D01*
X87045Y47716D02*
X87091D01*
X86980Y47067D02*
X87156D01*
X86924Y47008D02*
X87212D01*
X87023Y47126D02*
X87114D01*
X86675Y48012D02*
X87462D01*
X86818Y47953D02*
X87318D01*
X85585Y48012D02*
X86372D01*
X86902Y47894D02*
X87234D01*
X86849Y46949D02*
X87287D01*
X85807Y47898D02*
Y51867D01*
X85866Y47843D02*
Y51776D01*
X85689Y47973D02*
Y52377D01*
X85748Y47941D02*
Y52377D01*
X85984Y47682D02*
Y51669D01*
X86043Y47785D02*
Y51600D01*
X85925Y47768D02*
Y51730D01*
X85630Y47998D02*
Y64281D01*
X85275Y48010D02*
Y56470D01*
X85216Y47990D02*
Y56445D01*
X85157Y47963D02*
Y56427D01*
X85098Y47927D02*
Y56417D01*
X85039Y47881D02*
Y56413D01*
X86161Y47908D02*
Y51542D01*
X86220Y47948D02*
Y51535D01*
X86102Y47855D02*
Y51562D01*
X85920Y47776D02*
X86036D01*
X85955Y47716D02*
X86001D01*
X85933Y47126D02*
X86024D01*
X85984Y46911D02*
Y47200D01*
X85728Y47953D02*
X86228D01*
X85812Y47894D02*
X86144D01*
X85873Y47835D02*
X86083D01*
X85834Y47008D02*
X86122D01*
X85759Y46949D02*
X86197D01*
X85890Y47067D02*
X86066D01*
X87165Y46903D02*
Y47056D01*
X87224Y46889D02*
Y46996D01*
X87047Y46911D02*
Y47169D01*
X87106Y46910D02*
Y47138D01*
X87342Y46841D02*
Y46916D01*
X87283Y46869D02*
Y46951D01*
X86988Y46907D02*
Y47077D01*
X86929Y46896D02*
Y47012D01*
X86870Y46879D02*
Y46963D01*
X86811Y46855D02*
Y46925D01*
X86735Y46890D02*
X86904D01*
X87222D02*
X87401D01*
X86752Y46823D02*
Y46896D01*
X86693Y46781D02*
Y46875D01*
X86634Y46726D02*
Y46861D01*
X86575Y46653D02*
Y46853D01*
X86397Y46732D02*
Y46864D01*
X86271Y46831D02*
X86765D01*
X86338Y46785D02*
Y46880D01*
X86516Y46554D02*
Y46850D01*
X86457Y46660D02*
Y46854D01*
X86102Y46897D02*
Y47027D01*
X86161Y46881D02*
Y46974D01*
X85925Y46910D02*
Y47114D01*
X86043Y46907D02*
Y47097D01*
X86220Y46857D02*
Y46934D01*
X86279Y46826D02*
Y46903D01*
X85866Y46902D02*
Y47039D01*
X85807Y46888D02*
Y46984D01*
X85098Y46871D02*
Y46954D01*
X85748Y46867D02*
Y46941D01*
X85689Y46839D02*
Y46909D01*
X85157Y46844D02*
Y46919D01*
X85645Y46890D02*
X85814D01*
X86132D02*
X86311D01*
X85630Y46801D02*
Y46884D01*
X85571Y46753D02*
Y46867D01*
X85512Y46690D02*
Y46856D01*
X85453Y46600D02*
Y46851D01*
X85042Y46890D02*
X85221D01*
X85181Y46831D02*
X85675D01*
X85216Y46808D02*
Y46892D01*
X85334Y46702D02*
Y46859D01*
X85394Y46618D02*
Y46852D01*
X85275Y46762D02*
Y46872D01*
X89645Y45433D02*
Y45889D01*
X88677Y46594D02*
X88720D01*
X88760Y45433D02*
Y45982D01*
X89705Y45433D02*
Y45952D01*
X88701Y45433D02*
Y46088D01*
X88535Y46772D02*
X88861D01*
X88595Y46713D02*
X88801D01*
X88641Y46653D02*
X88755D01*
X88651Y46004D02*
X88745D01*
X88608Y45945D02*
X88788D01*
X89291Y45433D02*
Y45732D01*
X89232Y45433D02*
Y45731D01*
X89114Y45433D02*
Y45745D01*
X89173Y45433D02*
Y45735D01*
X89586Y45433D02*
Y45840D01*
X89468Y45433D02*
Y45775D01*
X89350Y45433D02*
Y45740D01*
X88476Y45827D02*
X88920D01*
X88359Y45768D02*
X89037D01*
X88552Y45886D02*
X88844D01*
X88996Y45433D02*
Y45785D01*
X89055Y45433D02*
Y45761D01*
X88937Y45433D02*
Y45816D01*
X88642Y45433D02*
Y45989D01*
X88582Y45433D02*
Y45916D01*
X87586Y46594D02*
X87630D01*
X87638Y45433D02*
Y46033D01*
X87697Y45433D02*
Y45946D01*
X87579Y45433D02*
Y46033D01*
X87445Y46772D02*
X87771D01*
X87505Y46713D02*
X87711D01*
X87551Y46653D02*
X87665D01*
X87561Y46004D02*
X87655D01*
X87518Y45945D02*
X87698D01*
X87520Y45433D02*
Y45946D01*
X88346Y45433D02*
Y45763D01*
X88287Y45433D02*
Y45746D01*
X88228Y45433D02*
Y45735D01*
X88169Y45433D02*
Y45731D01*
X88523Y45433D02*
Y45861D01*
X88464Y45433D02*
Y45819D01*
X88405Y45433D02*
Y45787D01*
X87756Y45433D02*
Y45884D01*
X87386Y45827D02*
X87830D01*
X87462Y45886D02*
X87754D01*
X87460Y45433D02*
Y45884D01*
X88051Y45433D02*
Y45739D01*
X87401Y45433D02*
Y45837D01*
X89764Y45433D02*
Y46042D01*
X89705Y43593D02*
Y44567D01*
X89527Y45433D02*
Y45803D01*
X89645Y43593D02*
Y44567D01*
X89527Y43593D02*
Y44567D01*
X89586Y43593D02*
Y44567D01*
X89468Y43593D02*
Y44567D01*
X88878Y45433D02*
Y45857D01*
X89409Y45433D02*
Y45754D01*
X88819Y45433D02*
Y45910D01*
X89350Y43593D02*
Y44567D01*
X89409Y43593D02*
Y44567D01*
X89291Y43593D02*
Y44567D01*
X89055Y43593D02*
Y44567D01*
X89114Y43593D02*
Y44567D01*
X88937Y43593D02*
Y44567D01*
X88996Y43593D02*
Y44567D01*
X89232Y43593D02*
Y44567D01*
X89764Y43593D02*
Y44567D01*
X89173Y43593D02*
Y44567D01*
X88642Y43593D02*
Y44567D01*
X88701Y43593D02*
Y44567D01*
X88582Y43593D02*
Y44567D01*
X88819Y43593D02*
Y44567D01*
X88878Y43593D02*
Y44567D01*
X88760Y43593D02*
Y44567D01*
X88228Y43593D02*
Y44567D01*
X88287Y43593D02*
Y44567D01*
X88110Y45433D02*
Y45732D01*
X88169Y43593D02*
Y44567D01*
X88464Y43593D02*
Y44567D01*
X88523Y43593D02*
Y44567D01*
X88405Y43593D02*
Y44567D01*
X87874Y45433D02*
Y45801D01*
X87933Y45433D02*
Y45773D01*
X87815Y45433D02*
Y45837D01*
X88051Y43593D02*
Y44567D01*
X88110Y43593D02*
Y44567D01*
X87992Y45433D02*
Y45753D01*
X87815Y43593D02*
Y44567D01*
X87874Y43593D02*
Y44567D01*
X87756Y43593D02*
Y44567D01*
X87992Y43593D02*
Y44567D01*
X88346Y43593D02*
Y44567D01*
X87933Y43593D02*
Y44567D01*
X87460Y43593D02*
Y44567D01*
X87520Y43593D02*
Y44567D01*
X87401Y43593D02*
Y44567D01*
X87638Y43593D02*
Y44567D01*
X87697Y43593D02*
Y44567D01*
X87579Y43593D02*
Y44567D01*
X86496Y46594D02*
X86540D01*
X86471Y46004D02*
X86565D01*
X86634Y45433D02*
Y45916D01*
X86693Y45433D02*
Y45861D01*
X86575Y45433D02*
Y45989D01*
X86355Y46772D02*
X86681D01*
X86415Y46713D02*
X86621D01*
X86461Y46653D02*
X86575D01*
X86372Y45886D02*
X86664D01*
X86296Y45827D02*
X86740D01*
X86428Y45945D02*
X86608D01*
X87342Y45433D02*
Y45801D01*
X87269Y45768D02*
X87947D01*
X87283Y45433D02*
Y45773D01*
X87224Y45433D02*
Y45753D01*
X87165Y45433D02*
Y45739D01*
X87106Y45433D02*
Y45732D01*
X87047Y45433D02*
Y45731D01*
X86811Y45433D02*
Y45787D01*
X86179Y45768D02*
X86857D01*
X86752Y45433D02*
Y45819D01*
X86929Y45433D02*
Y45746D01*
X86988Y45433D02*
Y45735D01*
X86870Y45433D02*
Y45763D01*
X86457Y45433D02*
Y45982D01*
X85407Y46594D02*
X85450D01*
X86516Y45433D02*
Y46088D01*
X86397Y45433D02*
Y45910D01*
X85512Y45433D02*
Y45952D01*
X85265Y46772D02*
X85591D01*
X85325Y46713D02*
X85531D01*
X85371Y46653D02*
X85485D01*
X85381Y46004D02*
X85475D01*
X85338Y45945D02*
X85518D01*
X85334Y45433D02*
Y45940D01*
X86161Y45433D02*
Y45761D01*
X86102Y45433D02*
Y45745D01*
X85866Y45433D02*
Y45740D01*
X86338Y45433D02*
Y45857D01*
X86279Y45433D02*
Y45816D01*
X86220Y45433D02*
Y45785D01*
X85206Y45827D02*
X85650D01*
X85089Y45768D02*
X85767D01*
X85282Y45886D02*
X85574D01*
X85571Y45433D02*
Y45889D01*
X85216Y45433D02*
Y45833D01*
X85157Y45433D02*
Y45798D01*
X87047Y43593D02*
Y44567D01*
X87106Y43593D02*
Y44567D01*
X86929Y43593D02*
Y44567D01*
X86988Y43593D02*
Y44567D01*
X87283Y43593D02*
Y44567D01*
X87342Y43593D02*
Y44567D01*
X87224Y43593D02*
Y44567D01*
X86043Y45433D02*
Y45735D01*
X86693Y43593D02*
Y44567D01*
X85984Y45433D02*
Y45731D01*
X86811Y43593D02*
Y44567D01*
X86870Y43593D02*
Y44567D01*
X86752Y43593D02*
Y44567D01*
X86457Y43593D02*
Y44567D01*
X86516Y43593D02*
Y44567D01*
X86338Y43593D02*
Y44567D01*
X86397Y43593D02*
Y44567D01*
X86634Y43593D02*
Y44567D01*
X87165Y43593D02*
Y44567D01*
X86575Y43593D02*
Y44567D01*
X86043Y43593D02*
Y44567D01*
X86102Y43593D02*
Y44567D01*
X85984Y43593D02*
Y44567D01*
X86220Y43593D02*
Y44567D01*
X86279Y43593D02*
Y44567D01*
X86161Y43593D02*
Y44567D01*
X85807Y45433D02*
Y45754D01*
X85925Y45433D02*
Y45732D01*
X85689Y45433D02*
Y45803D01*
X85748Y45433D02*
Y45775D01*
X85807Y43593D02*
Y44567D01*
X85925Y43593D02*
Y44567D01*
X85689Y43593D02*
Y44567D01*
X85275Y45433D02*
Y45880D01*
X85098Y45433D02*
Y45771D01*
X85039Y45433D02*
Y45751D01*
X85453Y45433D02*
Y46042D01*
X85630Y45433D02*
Y45840D01*
X85394Y45433D02*
Y46024D01*
X85512Y43593D02*
Y44567D01*
X85571Y43593D02*
Y44567D01*
X85453Y43593D02*
Y44567D01*
X85748Y43593D02*
Y44567D01*
X85866Y43593D02*
Y44567D01*
X85630Y43593D02*
Y44567D01*
X85157Y43593D02*
Y44567D01*
X85216Y43593D02*
Y44567D01*
X85098Y43593D02*
Y44567D01*
X85334Y43593D02*
Y44567D01*
X85394Y43593D02*
Y44567D01*
X85275Y43593D02*
Y44567D01*
X84414Y63957D02*
X86440D01*
X84443Y63898D02*
X86412D01*
X84467Y63838D02*
X86387D01*
X84488Y63779D02*
X86367D01*
X84482Y63071D02*
X86372D01*
X84461Y63012D02*
X86394D01*
X84500Y63130D02*
X86354D01*
X84164Y64281D02*
X86690D01*
X84195Y64252D02*
X86659D01*
X84252Y64193D02*
X86602D01*
X84301Y64134D02*
X86553D01*
X84344Y64075D02*
X86510D01*
X84382Y64016D02*
X86473D01*
X84372Y62835D02*
X86482D01*
X84333Y62775D02*
X86521D01*
X84435Y62953D02*
X86419D01*
X84406Y62894D02*
X86448D01*
X84288Y62716D02*
X86566D01*
X84237Y62657D02*
X86617D01*
X84439Y59882D02*
X86412D01*
X84110Y62539D02*
X86744D01*
X84029Y62480D02*
X86826D01*
X84179Y62598D02*
X86676D01*
X83795Y62362D02*
X87059D01*
X83563Y62303D02*
X87292D01*
X83928Y62421D02*
X86926D01*
X84505Y63720D02*
X86350D01*
X84518Y63661D02*
X86336D01*
X84508Y63708D02*
Y64281D01*
X84529Y63602D02*
X86326D01*
X84626Y59854D02*
Y64281D01*
X84685Y59835D02*
Y64281D01*
X84567Y59868D02*
Y64281D01*
X84271Y64170D02*
Y64281D01*
X84331Y64094D02*
Y64281D01*
X84212Y64235D02*
Y64281D01*
X84449Y63884D02*
Y64281D01*
X84390Y64002D02*
Y64281D01*
X84536Y63543D02*
X86318D01*
X84539Y63366D02*
X86315D01*
X84540Y63484D02*
X86314D01*
X84541Y63425D02*
X86313D01*
X84526Y63248D02*
X86328D01*
X84515Y63189D02*
X86339D01*
X84534Y63307D02*
X86320D01*
X84508Y59877D02*
Y63158D01*
X84449Y59882D02*
Y62982D01*
X84390Y59881D02*
Y62864D01*
X84331Y59876D02*
Y62772D01*
X84271Y59866D02*
Y62696D01*
X84212Y59851D02*
Y62631D01*
X84862Y59741D02*
Y64281D01*
X84829Y59764D02*
X86022D01*
X84744Y59811D02*
Y64281D01*
X84803Y59779D02*
Y64281D01*
X84980Y59635D02*
Y64281D01*
X84909Y59705D02*
X85942D01*
X84921Y59694D02*
Y64281D01*
X84153Y59831D02*
Y62576D01*
X84717Y59823D02*
X86134D01*
X84094Y59805D02*
Y62527D01*
X84035Y59772D02*
Y62485D01*
X84971Y59646D02*
X85880D01*
X84988Y58642D02*
X85862D01*
X85021Y59587D02*
X85830D01*
X85035Y58701D02*
X85815D01*
X84980Y57482D02*
Y58632D01*
X84931Y58583D02*
X85920D01*
X84921Y57473D02*
Y58574D01*
X84858Y58524D02*
X85993D01*
X84862Y57457D02*
Y58527D01*
X83976Y52564D02*
Y58536D01*
Y59732D02*
Y62448D01*
X83917Y59683D02*
Y62415D01*
X83858Y59622D02*
Y62387D01*
X83799Y59543D02*
Y62363D01*
X83740Y59434D02*
Y62343D01*
X83681Y59209D02*
Y62327D01*
X83622Y52599D02*
Y62313D01*
X83563Y52574D02*
Y62303D01*
X83504Y52538D02*
Y62296D01*
X83445Y52487D02*
Y62292D01*
X83268Y52205D02*
Y62299D01*
X83327Y52264D02*
Y62294D01*
X83209Y52146D02*
Y62307D01*
X83740Y52621D02*
Y58834D01*
X83799Y52619D02*
Y58725D01*
X83681Y52614D02*
Y59059D01*
X83858Y52610D02*
Y58646D01*
X83917Y52592D02*
Y58585D01*
X83386Y52409D02*
Y62291D01*
X83156Y59291D02*
X83694D01*
X83167Y59232D02*
X83684D01*
X83172Y59173D02*
X83678D01*
X83169Y59055D02*
X83681D01*
X83160Y58996D02*
X83690D01*
X83173Y59114D02*
X83677D01*
X75089Y61772D02*
X95777D01*
X75089Y61712D02*
X95777D01*
X75089Y61890D02*
X95777D01*
X75089Y61831D02*
X95777D01*
X75089Y61594D02*
X95777D01*
X75089Y61535D02*
X95777D01*
X75089Y61653D02*
X95777D01*
X75089Y62185D02*
X95777D01*
X75089Y62126D02*
X95777D01*
X75089Y62244D02*
X95777D01*
X75089Y62008D02*
X95777D01*
X75089Y61949D02*
X95777D01*
X75089Y62067D02*
X95777D01*
X75089Y61004D02*
X95777D01*
X75089Y60945D02*
X95777D01*
X75089Y61122D02*
X95777D01*
X75089Y61063D02*
X95777D01*
X75089Y60886D02*
X95777D01*
X75089Y60827D02*
X95777D01*
X81696Y60768D02*
X89155D01*
X75089Y61417D02*
X95777D01*
X75089Y61358D02*
X95777D01*
X75089Y61476D02*
X95777D01*
X75089Y61240D02*
X95777D01*
X75089Y61181D02*
X95777D01*
X75089Y61299D02*
X95777D01*
X75089Y64281D02*
X82635D01*
X75089Y64252D02*
X82604D01*
X82500Y64136D02*
Y64281D01*
X82559Y64206D02*
Y64281D01*
X82441Y64053D02*
Y64281D01*
X82382Y63950D02*
Y64281D01*
X75089Y64193D02*
X82547D01*
X75089Y64134D02*
X82498D01*
X75089Y64075D02*
X82455D01*
X75089Y64016D02*
X82418D01*
X75089Y63957D02*
X82385D01*
X75089Y62953D02*
X82364D01*
X75089Y62421D02*
X82871D01*
X75089Y62362D02*
X83004D01*
X75089Y62539D02*
X82689D01*
X75089Y62480D02*
X82771D01*
X81809Y60709D02*
X89042D01*
X81888Y60649D02*
X88963D01*
X75089Y62303D02*
X83237D01*
X75089Y62835D02*
X82427D01*
X75089Y62775D02*
X82466D01*
X75089Y62894D02*
X82393D01*
X75089Y62657D02*
X82562D01*
X75089Y62598D02*
X82621D01*
X75089Y62716D02*
X82511D01*
X82145Y60236D02*
X88705D01*
X82159Y60177D02*
X88691D01*
X82168Y60118D02*
X88682D01*
X82173Y60059D02*
X88678D01*
X82172Y60000D02*
X88678D01*
X82167Y59941D02*
X88683D01*
X82439Y59882D02*
X84412D01*
X81949Y60590D02*
X88902D01*
X81997Y60531D02*
X88854D01*
X82036Y60472D02*
X88815D01*
X82070Y60413D02*
X88781D01*
X82101Y60354D02*
X88749D01*
X82126Y60295D02*
X88724D01*
X83021Y59587D02*
X83830D01*
X83061Y59527D02*
X83789D01*
X83094Y59468D02*
X83756D01*
X83121Y59409D02*
X83730D01*
X83073Y58760D02*
X83777D01*
X83035Y58701D02*
X83815D01*
X83104Y58819D02*
X83747D01*
X82717Y59823D02*
X84134D01*
X82829Y59764D02*
X84022D01*
X82909Y59705D02*
X83942D01*
X82971Y59646D02*
X83880D01*
X82931Y58583D02*
X83920D01*
X82988Y58642D02*
X83862D01*
X82854Y59747D02*
Y62430D01*
X82913Y59701D02*
Y62400D01*
X82736Y59814D02*
Y62504D01*
X82795Y59784D02*
Y62464D01*
X83031Y59572D02*
Y62352D01*
X83090Y59476D02*
Y62334D01*
X82972Y59644D02*
Y62374D01*
X82441Y59882D02*
Y62813D01*
X82500Y59878D02*
Y62730D01*
X82382Y59881D02*
Y62916D01*
X82618Y59857D02*
Y62601D01*
X82677Y59838D02*
Y62549D01*
X82559Y59870D02*
Y62661D01*
X83141Y59350D02*
X83709D01*
X83147Y58937D02*
X83704D01*
X83149Y59321D02*
Y62319D01*
Y52087D02*
Y58947D01*
X83128Y58878D02*
X83722D01*
X83090Y52028D02*
Y58792D01*
X82158Y59882D02*
X82412D01*
X83031Y51969D02*
Y58696D01*
X82972Y51910D02*
Y58624D01*
X82913Y51851D02*
Y58567D01*
X84759Y58464D02*
X86091D01*
X84595Y58405D02*
X86255D01*
X84803Y57433D02*
Y58488D01*
X84744Y57400D02*
Y58457D01*
X84685Y57356D02*
Y58432D01*
X81398Y57342D02*
X84669D01*
X81194Y57461D02*
X84873D01*
X81321Y57401D02*
X84746D01*
X81350Y56516D02*
X84717D01*
X77111Y53209D02*
X85684D01*
X77109Y53149D02*
X85684D01*
X81246Y56457D02*
X84821D01*
X84174Y52323D02*
X86027D01*
X84189Y52264D02*
X85982D01*
X84149Y52382D02*
X85684D01*
X84196Y52205D02*
X85921D01*
X84194Y52146D02*
X85852D01*
X84185Y52087D02*
X85814D01*
X84167Y52027D02*
X85794D01*
X83985Y52559D02*
X85684D01*
X84062Y52500D02*
X85684D01*
X83813Y52618D02*
X85684D01*
X84138Y51968D02*
X85787D01*
X84098Y51909D02*
X85794D01*
X84113Y52441D02*
X85684D01*
X84626Y57297D02*
Y58413D01*
X84567Y57213D02*
Y58399D01*
X82858Y58524D02*
X83993D01*
X84508Y57054D02*
Y58390D01*
X84094Y52465D02*
Y58463D01*
X84153Y52373D02*
Y58437D01*
X84035Y52523D02*
Y58495D01*
X82595Y58405D02*
X84255D01*
X81453Y57283D02*
X84614D01*
X82759Y58464D02*
X84091D01*
X81494Y57224D02*
X84573D01*
X81524Y57165D02*
X84543D01*
X81546Y57106D02*
X84521D01*
X81561Y57047D02*
X84506D01*
X81564Y56870D02*
X84503D01*
X81568Y56988D02*
X84499D01*
X81569Y56929D02*
X84498D01*
X81552Y56811D02*
X84515D01*
X81532Y56752D02*
X84535D01*
X81467Y56634D02*
X84600D01*
X81418Y56575D02*
X84649D01*
X81505Y56693D02*
X84562D01*
X77107Y52264D02*
X83326D01*
X77111Y52205D02*
X83267D01*
X77109Y52146D02*
X83208D01*
X83123Y51024D02*
X87344D01*
X83095Y50964D02*
X87459D01*
X83151Y51142D02*
X87232D01*
X83141Y51083D02*
X87277D01*
X82996Y50846D02*
X93543D01*
X82904Y50787D02*
X93543D01*
X83055Y50905D02*
X93543D01*
X77111Y50669D02*
X93543D01*
X77111Y50610D02*
X93543D01*
X77111Y50728D02*
X93543D01*
X77111Y50492D02*
X93543D01*
X77111Y50433D02*
X93543D01*
X77111Y50551D02*
X93543D01*
X77111Y49901D02*
X93543D01*
X77111Y49842D02*
X93543D01*
X77111Y50020D02*
X93543D01*
X77111Y49961D02*
X93543D01*
X77111Y49724D02*
X93543D01*
X77111Y49665D02*
X93543D01*
X77111Y49783D02*
X93543D01*
X77111Y50315D02*
X93543D01*
X77111Y50256D02*
X93543D01*
X77111Y50374D02*
X93543D01*
X77111Y50138D02*
X93543D01*
X77111Y50079D02*
X93543D01*
X77111Y50197D02*
X93543D01*
X84040Y51850D02*
X85814D01*
X83947Y51791D02*
X85852D01*
X82854Y51792D02*
Y58521D01*
X82795Y51733D02*
Y58484D01*
X82678Y51616D02*
X83332Y52270D01*
X82736Y51674D02*
Y58453D01*
X82677Y51616D02*
Y58429D01*
X82618Y51606D02*
Y58411D01*
X82559Y51588D02*
Y58398D01*
X82500Y51560D02*
Y58390D01*
X82441Y51519D02*
Y58386D01*
X82382Y51461D02*
Y58387D01*
X83682Y51673D02*
X85982D01*
X83623Y51614D02*
X86028D01*
X83741Y51732D02*
X85921D01*
X83505Y51496D02*
X87178D01*
X83446Y51437D02*
X87166D01*
X83564Y51555D02*
X86118D01*
X83327Y51319D02*
X87166D01*
X83268Y51260D02*
X87179D01*
X83387Y51378D02*
X87162D01*
X83151Y51142D02*
X83758Y51749D01*
X83209Y51201D02*
X87200D01*
X75089Y57874D02*
X95777D01*
X75089Y57815D02*
X95777D01*
X75089Y57992D02*
X95777D01*
X75089Y57933D02*
X95777D01*
X75089Y57697D02*
X95777D01*
X75089Y57638D02*
X95777D01*
X75089Y57756D02*
X95777D01*
X75089Y58287D02*
X95777D01*
X75089Y58228D02*
X95777D01*
X75089Y58346D02*
X95777D01*
X75089Y58110D02*
X95777D01*
X75089Y58051D02*
X95777D01*
X75089Y58169D02*
X95777D01*
X76220Y55925D02*
X95777D01*
X76220Y55866D02*
X95777D01*
X76291Y56043D02*
X95777D01*
X76232Y55984D02*
X95777D01*
X76220Y55807D02*
X95777D01*
X76220Y54685D02*
X95777D01*
X76220Y54449D02*
X90737D01*
X75089Y57520D02*
X95777D01*
X76220Y54626D02*
X95777D01*
X75089Y57579D02*
X95777D01*
X76220Y54567D02*
X91007D01*
X76220Y54508D02*
X90825D01*
X76220Y54390D02*
X90676D01*
X76528Y56279D02*
X86983D01*
X76469Y56220D02*
X86983D01*
X76646Y56398D02*
X86983D01*
X76587Y56338D02*
X86983D01*
X76351Y56102D02*
X86983D01*
X76220Y55748D02*
X87311D01*
X76410Y56161D02*
X86983D01*
X76220Y55689D02*
X87206D01*
X76220Y55630D02*
X87137D01*
X76220Y55571D02*
X87087D01*
X76220Y55512D02*
X87049D01*
X76220Y55453D02*
X87022D01*
X76220Y55394D02*
X87002D01*
X76220Y54921D02*
X87099D01*
X76220Y54862D02*
X87154D01*
X76220Y54980D02*
X87059D01*
X76220Y54744D02*
X87354D01*
X76220Y54331D02*
X90631D01*
X76220Y54803D02*
X87230D01*
X76220Y55335D02*
X86990D01*
X76220Y55216D02*
X86985D01*
X76220Y55275D02*
X86984D01*
X76220Y55098D02*
X87007D01*
X76220Y55039D02*
X87028D01*
X76220Y55157D02*
X86992D01*
X76220Y53917D02*
X85730D01*
X76220Y53858D02*
X85708D01*
X76220Y53799D02*
X85693D01*
X76220Y53740D02*
X85686D01*
X76902Y53622D02*
X85690D01*
X76967Y53563D02*
X85702D01*
X76805Y53681D02*
X85685D01*
X76220Y54272D02*
X90597D01*
X76220Y54212D02*
X86060D01*
X76220Y54153D02*
X85933D01*
X76220Y54094D02*
X85856D01*
X76220Y54035D02*
X85801D01*
X76220Y53976D02*
X85760D01*
X77014Y53504D02*
X85722D01*
X77050Y53445D02*
X85684D01*
X77077Y53386D02*
X85684D01*
X77100Y53090D02*
X85684D01*
X77062Y52972D02*
X85684D01*
X77030Y52913D02*
X85684D01*
X77085Y53031D02*
X85684D01*
X76220Y49606D02*
X93543D01*
X76220Y49547D02*
X93502D01*
X76987Y52854D02*
X85684D01*
X76220Y49488D02*
X93443D01*
X76223Y49429D02*
X93384D01*
X76282Y49370D02*
X93324D01*
X77095Y53327D02*
X85684D01*
X77106Y53268D02*
X85684D01*
X77052Y52441D02*
X83406D01*
X77078Y52382D02*
X83371D01*
X77096Y52323D02*
X83346D01*
X77100Y52087D02*
X83149D01*
X77084Y52027D02*
X83090D01*
X76849Y52736D02*
X85684D01*
X76813Y52677D02*
X85684D01*
X76930Y52795D02*
X85684D01*
X76907Y52618D02*
X83707D01*
X76970Y52559D02*
X83535D01*
X77017Y52500D02*
X83458D01*
X77060Y51968D02*
X83031D01*
X77027Y51909D02*
X82972D01*
X76984Y51850D02*
X82912D01*
X77020Y51496D02*
X82415D01*
X76981Y50846D02*
X82437D01*
X77025Y50905D02*
X82378D01*
X76926Y51791D02*
X82853D01*
X76842Y51732D02*
X82794D01*
X76821Y51673D02*
X82735D01*
X76912Y51614D02*
X82663D01*
X76921Y50787D02*
X82529D01*
X76974Y51555D02*
X82492D01*
X82264Y63547D02*
Y64281D01*
X82323Y63812D02*
Y64281D01*
X81968Y60568D02*
Y64281D01*
X82027Y60486D02*
Y64281D01*
X82146Y60236D02*
Y64281D01*
X82205Y59849D02*
Y64281D01*
X82086Y60384D02*
Y64281D01*
X81437Y60821D02*
Y64281D01*
X81732Y60751D02*
Y64281D01*
X81378Y60820D02*
Y64281D01*
X81850Y60680D02*
Y64281D01*
X81909Y60630D02*
Y64281D01*
X81791Y60719D02*
Y64281D01*
X81673Y60777D02*
Y64281D01*
X81555Y60809D02*
Y64281D01*
X81614Y60796D02*
Y64281D01*
X82264Y59864D02*
Y63319D01*
X82323Y59875D02*
Y63054D01*
X81319Y60813D02*
Y64281D01*
X81496Y60818D02*
Y64281D01*
X81260Y60802D02*
Y64281D01*
X81319Y57403D02*
Y59254D01*
X81142Y60762D02*
Y64281D01*
X81201Y60785D02*
Y64281D01*
X81023Y60696D02*
Y64281D01*
X81083Y60733D02*
Y64281D01*
X80905Y60594D02*
Y64281D01*
X80964Y60651D02*
Y64281D01*
X80846Y60521D02*
Y64281D01*
X79016Y57382D02*
Y64281D01*
X80787Y60424D02*
Y64281D01*
X78957Y57382D02*
Y64281D01*
X78838Y57382D02*
Y64281D01*
X78897Y57382D02*
Y64281D01*
X78779Y57382D02*
Y64281D01*
X81083Y57483D02*
Y59335D01*
X81142Y57474D02*
Y59306D01*
X80964Y57481D02*
Y59417D01*
X81023Y57485D02*
Y59371D01*
X81201Y57458D02*
Y59283D01*
X81260Y57435D02*
Y59266D01*
X80905Y57470D02*
Y59474D01*
X80846Y57451D02*
Y59546D01*
X80728Y60305D02*
Y64281D01*
Y57390D02*
Y59762D01*
X80787Y57425D02*
Y59643D01*
X79075Y57382D02*
Y64281D01*
X80433Y57382D02*
Y64281D01*
X80492Y57382D02*
Y64281D01*
X80315Y57382D02*
Y64281D01*
X80374Y57382D02*
Y64281D01*
X80610Y57382D02*
Y64281D01*
X80669Y57382D02*
Y64281D01*
X80551Y57382D02*
Y64281D01*
X79724Y57382D02*
Y64281D01*
X79783Y57382D02*
Y64281D01*
X79665Y57382D02*
Y64281D01*
X80197Y57382D02*
Y64281D01*
X80256Y57382D02*
Y64281D01*
X80138Y57382D02*
Y64281D01*
X81496Y57220D02*
Y59250D01*
X81437Y57302D02*
Y59247D01*
X80079Y57382D02*
Y64281D01*
X81378Y57360D02*
Y59248D01*
X82323Y51369D02*
Y58393D01*
X81555Y57074D02*
Y59258D01*
X79606Y57382D02*
Y64281D01*
X79842Y57382D02*
Y64281D01*
X79547Y57382D02*
Y64281D01*
X79960Y57382D02*
Y64281D01*
X80020Y57382D02*
Y64281D01*
X79901Y57382D02*
Y64281D01*
X78189Y57382D02*
Y64281D01*
X78248Y57382D02*
Y64281D01*
X78071Y57382D02*
Y64281D01*
X78130Y57382D02*
Y64281D01*
X78366Y57382D02*
Y64281D01*
X78425Y57382D02*
Y64281D01*
X78307Y57382D02*
Y64281D01*
X77775Y57382D02*
Y64281D01*
X77834Y57382D02*
Y64281D01*
X77716Y57382D02*
Y64281D01*
X77953Y57382D02*
Y64281D01*
X78012Y57382D02*
Y64281D01*
X77894Y57382D02*
Y64281D01*
X79252Y57382D02*
Y64281D01*
X79311Y57382D02*
Y64281D01*
X79193Y57382D02*
Y64281D01*
X79429Y57382D02*
Y64281D01*
X79488Y57382D02*
Y64281D01*
X79370Y57382D02*
Y64281D01*
X78543Y57382D02*
Y64281D01*
X78602Y57382D02*
Y64281D01*
X78484Y57382D02*
Y64281D01*
X78720Y57382D02*
Y64281D01*
X79134Y57382D02*
Y64281D01*
X78661Y57382D02*
Y64281D01*
X75089Y63543D02*
X82263D01*
X75089Y63366D02*
X82260D01*
X75089Y63484D02*
X82259D01*
X75089Y63425D02*
X82258D01*
X75089Y63248D02*
X82273D01*
X75089Y63189D02*
X82284D01*
X75089Y63307D02*
X82265D01*
X75089Y63898D02*
X82357D01*
X75089Y63838D02*
X82332D01*
X75089Y63779D02*
X82312D01*
X75089Y63720D02*
X82295D01*
X75089Y63661D02*
X82281D01*
X75089Y63602D02*
X82270D01*
X75089Y58937D02*
X81704D01*
X75089Y58878D02*
X81722D01*
X75089Y59055D02*
X81681D01*
X75089Y58996D02*
X81690D01*
X75089Y58760D02*
X81777D01*
X75089Y58701D02*
X81815D01*
X75089Y58819D02*
X81747D01*
X75089Y63071D02*
X82317D01*
X75089Y63012D02*
X82338D01*
X75089Y63130D02*
X82299D01*
X75089Y59232D02*
X81684D01*
X75089Y59173D02*
X81678D01*
X75089Y59114D02*
X81677D01*
X75089Y60413D02*
X80781D01*
X75089Y60354D02*
X80749D01*
X75089Y60295D02*
X80724D01*
X75089Y60236D02*
X80705D01*
X75089Y60177D02*
X80691D01*
X75089Y60118D02*
X80682D01*
X75089Y60059D02*
X80678D01*
X75089Y60768D02*
X81155D01*
X75089Y60709D02*
X81042D01*
X75089Y60649D02*
X80963D01*
X75089Y60590D02*
X80902D01*
X75089Y60531D02*
X80854D01*
X75089Y60472D02*
X80815D01*
X75089Y59527D02*
X80860D01*
X75089Y59468D02*
X80910D01*
X75089Y59646D02*
X80786D01*
X75089Y59587D02*
X80820D01*
X75089Y59350D02*
X81056D01*
X75089Y59291D02*
X81177D01*
X75089Y59409D02*
X80973D01*
X75089Y59941D02*
X80683D01*
X75089Y59882D02*
X80693D01*
X75089Y60000D02*
X80678D01*
X75089Y59764D02*
X80728D01*
X75089Y59705D02*
X80754D01*
X75089Y59823D02*
X80708D01*
X77421Y57382D02*
Y64281D01*
X77480Y57382D02*
Y64281D01*
X77303Y57382D02*
Y64281D01*
X77362Y57382D02*
Y64281D01*
X77598Y57382D02*
Y64281D01*
X77657Y57382D02*
Y64281D01*
X77539Y57382D02*
Y64281D01*
X76712Y57382D02*
Y64281D01*
X76771Y57382D02*
Y64281D01*
X76653Y57382D02*
Y64281D01*
X77185Y57382D02*
Y64281D01*
X77244Y57382D02*
Y64281D01*
X76831Y57382D02*
Y64281D01*
X75089Y58642D02*
X81862D01*
X76585Y57382D02*
X80717D01*
X76890D02*
Y64281D01*
X76949Y57382D02*
Y64281D01*
X77067Y57382D02*
Y64281D01*
X77126Y57382D02*
Y64281D01*
X77008Y57382D02*
Y64281D01*
X75089Y58524D02*
X81993D01*
X75089Y58464D02*
X82091D01*
X75089Y58583D02*
X81920D01*
X75089Y58405D02*
X82255D01*
X75089Y57461D02*
X80873D01*
X75089Y57401D02*
X80746D01*
X76535Y57379D02*
Y64281D01*
X76594Y57382D02*
Y64281D01*
X76417Y57348D02*
Y64281D01*
X76476Y57368D02*
Y64281D01*
X76299Y57274D02*
Y64281D01*
X76358Y57318D02*
Y64281D01*
X76240Y57217D02*
Y64281D01*
X76122Y57099D02*
Y64281D01*
X76181Y57158D02*
Y64281D01*
X76063Y57039D02*
Y64281D01*
X75649Y56626D02*
Y64281D01*
X76004Y56980D02*
Y64281D01*
X75413Y56370D02*
Y64281D01*
X75945Y56921D02*
Y64281D01*
X75827Y56803D02*
Y64281D01*
X75886Y56862D02*
Y64281D01*
X75768Y56744D02*
Y64281D01*
X75089Y57342D02*
X76404D01*
X75089Y57283D02*
X76310D01*
X75709Y56685D02*
Y64281D01*
X75531Y56508D02*
Y64281D01*
X75590Y56567D02*
Y64281D01*
X75472Y56449D02*
Y64281D01*
X76764Y56516D02*
X80717D01*
X75481Y56458D02*
X76278Y57255D01*
X75089Y57106D02*
X76130D01*
X76771Y53696D02*
Y56516D01*
X76890Y53631D02*
Y56516D01*
X76220Y55972D02*
X76764Y56516D01*
X75089Y57224D02*
X76248D01*
X75089Y57165D02*
X76189D01*
X75089Y56988D02*
X76011D01*
X75089Y56929D02*
X75952D01*
X75089Y56870D02*
X75893D01*
X75089Y56811D02*
X75834D01*
X76764Y56516D02*
X80717D01*
X76705Y56457D02*
X80821D01*
X76594Y53733D02*
Y56346D01*
X76535Y53732D02*
Y56287D01*
X76831Y53668D02*
Y56516D01*
X76712Y53715D02*
Y56464D01*
X76653Y53727D02*
Y56405D01*
X76476Y53724D02*
Y56228D01*
X76417Y53709D02*
Y56169D01*
X76358Y53687D02*
Y56110D01*
X76220Y53681D02*
X76344D01*
X76299Y53657D02*
Y56051D01*
X75089Y56338D02*
X75397D01*
X75089Y56279D02*
X75374D01*
X75089Y56220D02*
X75360D01*
X75089Y55275D02*
X75354D01*
X75089Y55216D02*
X75354D01*
X75089Y55335D02*
X75354D01*
X75089Y55098D02*
X75354D01*
X75089Y55039D02*
X75354D01*
X75089Y55157D02*
X75354D01*
X75089Y54921D02*
X75354D01*
X75089Y54862D02*
X75354D01*
X75089Y54980D02*
X75354D01*
X75089Y54331D02*
X75354D01*
X75089Y54272D02*
X75354D01*
X75089Y54449D02*
X75354D01*
X75089Y54390D02*
X75354D01*
X75089Y54153D02*
X75354D01*
X75089Y54094D02*
X75354D01*
X75089Y54212D02*
X75354D01*
X75089Y54744D02*
X75354D01*
X75089Y54685D02*
X75354D01*
X75089Y54803D02*
X75354D01*
X75089Y54567D02*
X75354D01*
X75089Y54508D02*
X75354D01*
X75089Y54626D02*
X75354D01*
X77067Y53410D02*
Y56516D01*
X77054Y51437D02*
X82363D01*
X77067Y52410D02*
Y52984D01*
Y51410D02*
Y51984D01*
X77421Y49331D02*
Y56516D01*
X77080Y51378D02*
X82327D01*
X77362Y49331D02*
Y56516D01*
X77097Y51319D02*
X82303D01*
X77107Y51260D02*
X82287D01*
X77111Y51201D02*
X82281D01*
X77108Y51142D02*
X82282D01*
X77099Y51083D02*
X82292D01*
X77082Y51024D02*
X82310D01*
X77111Y49661D02*
Y50733D01*
X77058Y50964D02*
X82338D01*
X76220Y49661D02*
X77111D01*
X76321Y49331D02*
X77436D01*
X76844Y50733D02*
X77111D01*
X77008Y53513D02*
Y56516D01*
Y52513D02*
Y52880D01*
X76949Y53581D02*
Y56516D01*
Y52581D02*
Y52812D01*
X77008Y51513D02*
Y51880D01*
X77067Y50733D02*
Y50984D01*
X76949Y51581D02*
Y51812D01*
X76240Y53616D02*
Y55992D01*
X76831Y52668D02*
Y52726D01*
X76220Y53599D02*
Y55972D01*
X76890Y52631D02*
Y52763D01*
Y51631D02*
Y51763D01*
X76831Y51668D02*
Y51726D01*
X77008Y50733D02*
Y50880D01*
X76949Y50733D02*
Y50812D01*
X76831Y49331D02*
Y49661D01*
X76712Y49331D02*
Y49661D01*
X76771Y49331D02*
Y49661D01*
X76653Y49331D02*
Y49661D01*
X76240Y49412D02*
Y49661D01*
X76299Y49353D02*
Y49661D01*
X76220Y49431D02*
Y49661D01*
X76417Y49331D02*
Y49661D01*
X76476Y49331D02*
Y49661D01*
X76358Y49331D02*
Y49661D01*
X75089Y56457D02*
X75480D01*
X75089Y56398D02*
X75431D01*
X75089Y56161D02*
X75354D01*
X75089Y56102D02*
X75354D01*
X75089Y55984D02*
X75354D01*
X75089Y55925D02*
X75354D01*
X75089Y56043D02*
X75354D01*
X75089Y57047D02*
X76070D01*
X75089Y56752D02*
X75775D01*
X75089Y56693D02*
X75716D01*
X75089Y56634D02*
X75657D01*
X75089Y56575D02*
X75598D01*
X75089Y56516D02*
X75539D01*
X75089Y55394D02*
X75354D01*
X75089Y54035D02*
X75354D01*
X75089Y55512D02*
X75354D01*
X75089Y55453D02*
X75354D01*
X75089Y53917D02*
X75354D01*
X75089Y53858D02*
X75354D01*
X75089Y53976D02*
X75354D01*
X75089Y55807D02*
X75354D01*
X75089Y55748D02*
X75354D01*
X75089Y55866D02*
X75354D01*
X75089Y55630D02*
X75354D01*
X75089Y55571D02*
X75354D01*
X75089Y55689D02*
X75354D01*
X75089Y53327D02*
X75354D01*
X75089Y53268D02*
X75354D01*
X75089Y53445D02*
X75354D01*
X75089Y53386D02*
X75354D01*
X75089Y53149D02*
X75354D01*
X75089Y53090D02*
X75354D01*
X75089Y53209D02*
X75354D01*
X75089Y53740D02*
X75354D01*
X75089Y53681D02*
X75354D01*
X75089Y53799D02*
X75354D01*
X75089Y53563D02*
X75354D01*
X75089Y53504D02*
X75354D01*
X75089Y53622D02*
X75354D01*
X75089Y52618D02*
X75354D01*
X75089Y52559D02*
X75354D01*
X75089Y52677D02*
X75354D01*
X75089Y52441D02*
X75354D01*
X75089Y52382D02*
X75354D01*
X75089Y52500D02*
X75354D01*
X75089Y52972D02*
X75354D01*
X75089Y52913D02*
X75354D01*
X75089Y53031D02*
X75354D01*
X75089Y52795D02*
X75354D01*
X75089Y52736D02*
X75354D01*
X75089Y52854D02*
X75354D01*
X75089Y50374D02*
X75354D01*
X75089Y50315D02*
X75354D01*
X75089Y50492D02*
X75354D01*
X75089Y50433D02*
X75354D01*
X75089Y50197D02*
X75354D01*
X75089Y50138D02*
X75354D01*
X75089Y50256D02*
X75354D01*
X75089Y50787D02*
X75354D01*
X75089Y50728D02*
X75354D01*
X75089Y50846D02*
X75354D01*
X75089Y50610D02*
X75354D01*
X75089Y50551D02*
X75354D01*
X75089Y50669D02*
X75354D01*
X75089Y49606D02*
X75354D01*
X75089Y49547D02*
X75354D01*
X75089Y49724D02*
X75354D01*
X75089Y49665D02*
X75354D01*
X75089Y49429D02*
X75354D01*
X75089Y49370D02*
X75354D01*
X75089Y49488D02*
X75354D01*
X75089Y50020D02*
X75354D01*
X75089Y49961D02*
X75354D01*
X75089Y50079D02*
X75354D01*
X75089Y49842D02*
X75354D01*
X75089Y49783D02*
X75354D01*
X75089Y49901D02*
X75354D01*
X75089Y51850D02*
X75354D01*
X75089Y51791D02*
X75354D01*
X75089Y51968D02*
X75354D01*
X75089Y51909D02*
X75354D01*
X75089Y51673D02*
X75354D01*
X75089Y51614D02*
X75354D01*
X75089Y51732D02*
X75354D01*
X75089Y52264D02*
X75354D01*
X75089Y52205D02*
X75354D01*
X75089Y52323D02*
X75354D01*
X75089Y52087D02*
X75354D01*
X75089Y52027D02*
X75354D01*
X75089Y52146D02*
X75354D01*
X75089Y51142D02*
X75354D01*
X75089Y51083D02*
X75354D01*
X75089Y51201D02*
X75354D01*
X75089Y50964D02*
X75354D01*
X75089Y50905D02*
X75354D01*
X75089Y51024D02*
X75354D01*
X75089Y51496D02*
X75354D01*
X75089Y51437D02*
X75354D01*
X75089Y51555D02*
X75354D01*
X75089Y51319D02*
X75354D01*
X75089Y51260D02*
X75354D01*
X75089Y51378D02*
X75354D01*
X84685Y47923D02*
Y56541D01*
X84744Y47875D02*
Y56497D01*
X84567Y47987D02*
Y56685D01*
X84626Y47959D02*
Y56600D01*
X84862Y47723D02*
Y56441D01*
X84921Y47735D02*
Y56425D01*
X84803Y47811D02*
Y56465D01*
X84331Y48031D02*
Y58392D01*
X84390Y48030D02*
Y58387D01*
X84271Y48027D02*
Y58402D01*
X84449Y48022D02*
Y58386D01*
X84508Y48008D02*
Y56843D01*
X84212Y48017D02*
Y58417D01*
X84638Y47953D02*
X85138D01*
X84722Y47894D02*
X85054D01*
X84980Y47820D02*
Y56415D01*
X84783Y47835D02*
X84993D01*
X84830Y47776D02*
X84946D01*
X84865Y47716D02*
X84911D01*
X83405Y48012D02*
X84192D01*
X84495D02*
X85282D01*
X84153Y48000D02*
Y51997D01*
X84094Y47977D02*
Y51905D01*
X83548Y47953D02*
X84048D01*
X84035Y47945D02*
Y51847D01*
X83976Y47904D02*
Y51806D01*
X83917Y47850D02*
Y51778D01*
X83681Y47848D02*
Y51672D01*
X83858Y47778D02*
Y51760D01*
X83799Y47671D02*
Y51751D01*
X83740Y47775D02*
Y51731D01*
X83445Y48000D02*
Y51436D01*
X83386Y48016D02*
Y51377D01*
X83327Y48027D02*
Y51318D01*
X83622Y47902D02*
Y51613D01*
X83563Y47944D02*
Y51554D01*
X83504Y47976D02*
Y51495D01*
X83268Y48031D02*
Y51259D01*
X83632Y47894D02*
X83964D01*
X83209Y48030D02*
Y51200D01*
X83149Y48022D02*
Y51127D01*
X83693Y47835D02*
X83903D01*
X83740Y47776D02*
X83856D01*
X83775Y47716D02*
X83821D01*
X83090Y48009D02*
Y50956D01*
X83031Y47988D02*
Y50879D01*
X82972Y47960D02*
Y50828D01*
X82913Y47924D02*
Y50792D01*
X82854Y47876D02*
Y50767D01*
X82795Y47814D02*
Y50752D01*
X84921Y46910D02*
Y47147D01*
X84843Y47126D02*
X84934D01*
X84862Y46911D02*
Y47159D01*
X84803Y46906D02*
Y47070D01*
X85039Y46890D02*
Y47001D01*
X84980Y46903D02*
Y47062D01*
X84744Y47008D02*
X85032D01*
X84669Y46949D02*
X85107D01*
X84800Y47067D02*
X84976D01*
X84744Y46895D02*
Y47007D01*
X84685Y46877D02*
Y46959D01*
X84626Y46853D02*
Y46922D01*
X84555Y46890D02*
X84724D01*
X84567Y46820D02*
Y46894D01*
X84508Y46777D02*
Y46874D01*
X84449Y46721D02*
Y46860D01*
X84094Y46829D02*
Y46905D01*
X83952Y46890D02*
X84131D01*
X84035Y46860D02*
Y46937D01*
X84212Y46737D02*
Y46865D01*
X84153Y46789D02*
Y46882D01*
X83753Y47126D02*
X83844D01*
X83710Y47067D02*
X83886D01*
X83799Y46911D02*
Y47211D01*
X83740Y46909D02*
Y47107D01*
X83917Y46898D02*
Y47032D01*
X83976Y46882D02*
Y46978D01*
X83858Y46908D02*
Y47104D01*
X83681Y46901D02*
Y47034D01*
X83654Y47008D02*
X83942D01*
X82795Y46904D02*
Y47068D01*
X83622Y46886D02*
Y46980D01*
X82913Y46873D02*
Y46958D01*
X82854Y46892D02*
Y47005D01*
X83579Y46949D02*
X84017D01*
X83465Y46890D02*
X83634D01*
X83563Y46865D02*
Y46938D01*
X83504Y46836D02*
Y46906D01*
X83445Y46798D02*
Y46882D01*
X83031Y46812D02*
Y46894D01*
X82862Y46890D02*
X83041D01*
X82972Y46847D02*
Y46921D01*
X83386Y46748D02*
Y46865D01*
X83149Y46708D02*
Y46860D01*
X83090Y46767D02*
Y46873D01*
X77990Y48957D02*
X92911D01*
X78049Y48898D02*
X92852D01*
X78108Y48838D02*
X92793D01*
X78167Y48779D02*
X92734D01*
X78226Y48720D02*
X92675D01*
X78285Y48661D02*
X92616D01*
X78344Y48602D02*
X92557D01*
X77566Y49311D02*
X93265D01*
X77686Y49252D02*
X93206D01*
X77754Y49193D02*
X93147D01*
X77813Y49134D02*
X93088D01*
X77872Y49075D02*
X93029D01*
X77931Y49016D02*
X92970D01*
X78758Y48189D02*
X92323D01*
X78817Y48130D02*
X92323D01*
X78876Y48071D02*
X92323D01*
X82315Y48012D02*
X83102D01*
X82458Y47953D02*
X82958D01*
X82542Y47894D02*
X82874D01*
X82603Y47835D02*
X82813D01*
X78403Y48543D02*
X92498D01*
X78462Y48484D02*
X92439D01*
X78521Y48425D02*
X92393D01*
X78580Y48366D02*
X92361D01*
X78639Y48307D02*
X92339D01*
X78699Y48248D02*
X92327D01*
X82205Y48030D02*
Y58419D01*
X82264Y48023D02*
Y58403D01*
X82086Y48026D02*
Y58467D01*
X82146Y48031D02*
Y58440D01*
X81968Y47998D02*
Y58542D01*
X82027Y48016D02*
Y58500D01*
X81909Y47974D02*
Y58592D01*
X81791Y47900D02*
Y58737D01*
X81850Y47942D02*
Y58655D01*
X81437Y47906D02*
Y56596D01*
X81732Y47845D02*
Y58852D01*
X81555Y47782D02*
Y56824D01*
X81496Y47853D02*
Y56677D01*
X82441Y47962D02*
Y50843D01*
X82500Y47926D02*
Y50803D01*
X82323Y48010D02*
Y50994D01*
X82382Y47990D02*
Y50901D01*
X82559Y47879D02*
Y50774D01*
X82618Y47818D02*
Y50756D01*
X81513Y47835D02*
X81723D01*
X81319Y47978D02*
Y56495D01*
X81225Y48012D02*
X82012D01*
X81260Y48001D02*
Y56463D01*
X81368Y47953D02*
X81868D01*
X81452Y47894D02*
X81784D01*
X81378Y47947D02*
Y56538D01*
X82736Y47726D02*
Y50745D01*
X82677Y47732D02*
Y50747D01*
X82685Y47716D02*
X82731D01*
X82736Y46911D02*
Y47156D01*
X82677Y46911D02*
Y47150D01*
X82650Y47776D02*
X82766D01*
X82663Y47126D02*
X82754D01*
X82620Y47067D02*
X82796D01*
X82618Y46905D02*
Y47064D01*
X82564Y47008D02*
X82852D01*
X82489Y46949D02*
X82927D01*
X82559Y46894D02*
Y47003D01*
X82375Y46890D02*
X82544D01*
X82500Y46875D02*
Y46956D01*
X82441Y46850D02*
Y46920D01*
X82382Y46816D02*
Y46892D01*
X82323Y46773D02*
Y46872D01*
X82264Y46715D02*
Y46859D01*
X82027Y46742D02*
Y46866D01*
X82086Y46674D02*
Y46855D01*
X81673Y47771D02*
Y59291D01*
X81573Y47126D02*
X81664D01*
X81614Y47678D02*
Y59272D01*
X81595Y47716D02*
X81641D01*
X81673Y46908D02*
Y47111D01*
X81732Y46899D02*
Y47037D01*
X81614Y46912D02*
Y47204D01*
X81560Y47776D02*
X81676D01*
X81530Y47067D02*
X81706D01*
X81555Y46909D02*
Y47100D01*
X81496Y46900D02*
Y47029D01*
X81791Y46884D02*
Y46982D01*
X81772Y46890D02*
X81951D01*
X81474Y47008D02*
X81762D01*
X81909Y46832D02*
Y46908D01*
X81968Y46793D02*
Y46883D01*
X81850Y46862D02*
Y46940D01*
X81399Y46949D02*
X81837D01*
X81285Y46890D02*
X81454D01*
X81437Y46885D02*
Y46976D01*
X81378Y46863D02*
Y46935D01*
X81319Y46833D02*
Y46904D01*
X81260Y46794D02*
Y46881D01*
X84390Y46645D02*
Y46852D01*
X84317Y46594D02*
X84360D01*
X84291Y46004D02*
X84385D01*
X84390Y45433D02*
Y45997D01*
X84331Y45433D02*
Y46076D01*
X84091Y46831D02*
X84585D01*
X84175Y46772D02*
X84501D01*
X84235Y46713D02*
X84441D01*
X84281Y46653D02*
X84395D01*
X84248Y45945D02*
X84428D01*
X84744Y45433D02*
Y45747D01*
X84803Y45433D02*
Y45736D01*
X84626Y45433D02*
Y45789D01*
X84685Y45433D02*
Y45765D01*
X84980Y45433D02*
Y45738D01*
X84921Y45433D02*
Y45732D01*
X84862Y45433D02*
Y45731D01*
X84116Y45827D02*
X84560D01*
X83999Y45768D02*
X84677D01*
X84192Y45886D02*
X84484D01*
X84508Y45433D02*
Y45865D01*
X84567Y45433D02*
Y45822D01*
X84449Y45433D02*
Y45921D01*
X83327Y46683D02*
Y46855D01*
X84271Y46667D02*
Y46855D01*
X83268Y46590D02*
Y46851D01*
X83226Y46594D02*
X83270D01*
X84331Y46566D02*
Y46851D01*
X84271Y45433D02*
Y45975D01*
X83001Y46831D02*
X83495D01*
X83085Y46772D02*
X83411D01*
X83145Y46713D02*
X83351D01*
X83191Y46653D02*
X83305D01*
X83201Y46004D02*
X83295D01*
X83209Y46626D02*
Y46852D01*
X84035Y45433D02*
Y45782D01*
X83976Y45433D02*
Y45760D01*
X83622Y45433D02*
Y45756D01*
X83917Y45433D02*
Y45744D01*
X84212Y45433D02*
Y45905D01*
X84153Y45433D02*
Y45853D01*
X84094Y45433D02*
Y45813D01*
X83102Y45886D02*
X83394D01*
X83026Y45827D02*
X83470D01*
X83158Y45945D02*
X83338D01*
X83031Y45433D02*
Y45830D01*
X82909Y45768D02*
X83587D01*
X82972Y45433D02*
Y45795D01*
X84744Y43593D02*
Y44567D01*
X84803Y43593D02*
Y44567D01*
X84626Y43593D02*
Y44567D01*
X84685Y43593D02*
Y44567D01*
X84980Y43593D02*
Y44567D01*
X85039Y43593D02*
Y44567D01*
X84921Y43593D02*
Y44567D01*
X83858Y45433D02*
Y45734D01*
X83799Y45433D02*
Y45730D01*
X83740Y45433D02*
Y45733D01*
X84508Y43593D02*
Y44567D01*
X84567Y43593D02*
Y44567D01*
X84449Y43593D02*
Y44567D01*
X84212Y43593D02*
Y44567D01*
X84271Y43593D02*
Y44567D01*
X84094Y43593D02*
Y44567D01*
X84153Y43593D02*
Y44567D01*
X84390Y43593D02*
Y44567D01*
X84862Y43593D02*
Y44567D01*
X84331Y43593D02*
Y44567D01*
X83799Y43593D02*
Y44567D01*
X83858Y43593D02*
Y44567D01*
X83740Y43593D02*
Y44567D01*
X83976Y43593D02*
Y44567D01*
X84035Y43593D02*
Y44567D01*
X83917Y43593D02*
Y44567D01*
X83563Y45433D02*
Y45777D01*
X83681Y45433D02*
Y45741D01*
X83386Y45433D02*
Y45893D01*
X83504Y45433D02*
Y45806D01*
X83445Y45433D02*
Y45844D01*
X83681Y43593D02*
Y44567D01*
X83445Y43593D02*
Y44567D01*
X83149Y45433D02*
Y45934D01*
X83090Y45433D02*
Y45875D01*
X82913Y45433D02*
Y45769D01*
X83268Y45433D02*
Y46052D01*
X83327Y45433D02*
Y45959D01*
X83209Y45433D02*
Y46016D01*
X83327Y43593D02*
Y44567D01*
X83386Y43593D02*
Y44567D01*
X83268Y43593D02*
Y44567D01*
X83563Y43593D02*
Y44567D01*
X83622Y43593D02*
Y44567D01*
X83504Y43593D02*
Y44567D01*
X82972Y43593D02*
Y44567D01*
X83031Y43593D02*
Y44567D01*
X82913Y43593D02*
Y44567D01*
X83149Y43593D02*
Y44567D01*
X83209Y43593D02*
Y44567D01*
X83090Y43593D02*
Y44567D01*
X82323Y45455D02*
Y45869D01*
X82068Y45945D02*
X82248D01*
X82264Y45514D02*
Y45926D01*
X82441Y45433D02*
Y45792D01*
X82500Y45433D02*
Y45766D01*
X82382Y45433D02*
Y45825D01*
X81911Y46831D02*
X82405D01*
X81995Y46772D02*
X82321D01*
X82055Y46713D02*
X82261D01*
X82047Y45827D02*
X82380D01*
X82047Y45768D02*
X82497D01*
X82047Y45886D02*
X82304D01*
X82677Y45433D02*
Y45731D01*
X82345Y45433D02*
X91592D01*
X82559D02*
Y45748D01*
X82618Y45433D02*
Y45737D01*
X82854Y45433D02*
Y45750D01*
X82795Y45433D02*
Y45738D01*
X82736Y45433D02*
Y45731D01*
X82069Y45709D02*
X91868D01*
X82128Y45650D02*
X91809D01*
X82187Y45590D02*
X91750D01*
X82246Y45531D02*
X91691D01*
X82305Y45472D02*
X91632D01*
X82047Y45731D02*
X82345Y45433D01*
X82205Y46638D02*
Y46852D01*
X82101Y46653D02*
X82215D01*
X82146Y46576D02*
Y46851D01*
X82136Y46594D02*
X82180D01*
X82205Y45573D02*
Y46004D01*
X82111Y46004D02*
X82205D01*
X82146Y45632D02*
Y46065D01*
X80821Y46831D02*
X81315D01*
X80905Y46772D02*
X81231D01*
X82086Y45691D02*
Y45968D01*
X82047Y45731D02*
Y45921D01*
X75089Y45236D02*
X81317D01*
X75089Y45295D02*
X81265D01*
X75089Y45118D02*
X81435D01*
X75089Y45059D02*
X81494D01*
X75089Y45177D02*
X81376D01*
X75089Y44941D02*
X81612D01*
X75089Y44882D02*
X81671D01*
X75089Y45000D02*
X81553D01*
X75089Y44764D02*
X81789D01*
X75089Y44705D02*
X81848D01*
X75089Y44823D02*
X81730D01*
X82618Y43593D02*
Y44567D01*
X82677Y43593D02*
Y44567D01*
X82500Y43593D02*
Y44567D01*
X82559Y43593D02*
Y44567D01*
X82795Y43593D02*
Y44567D01*
X82854Y43593D02*
Y44567D01*
X82736Y43593D02*
Y44567D01*
X75089Y44527D02*
X95777D01*
X75089Y44468D02*
X95777D01*
X82165Y44567D02*
X91772D01*
X75089Y44409D02*
X95777D01*
X75089Y44350D02*
X95777D01*
X82441Y43593D02*
Y44567D01*
X75089Y43819D02*
X95777D01*
X75089Y43760D02*
X95777D01*
X75089Y43937D02*
X95777D01*
X75089Y43878D02*
X95777D01*
X75089Y43642D02*
X95777D01*
X75089Y43593D02*
X95777D01*
X75089Y43701D02*
X95777D01*
X75089Y44232D02*
X95777D01*
X75089Y44173D02*
X95777D01*
X75089Y44291D02*
X95777D01*
X75089Y44055D02*
X95777D01*
X75089Y43996D02*
X95777D01*
X75089Y44114D02*
X95777D01*
X81850Y43593D02*
Y44703D01*
X81732Y43593D02*
Y44821D01*
X81791Y43593D02*
Y44762D01*
X81614Y43593D02*
Y44939D01*
X81673Y43593D02*
Y44880D01*
X81555Y43593D02*
Y44998D01*
X81308Y45245D02*
X81859Y44694D01*
X81496Y43593D02*
Y45057D01*
X81437Y43593D02*
Y45116D01*
X81319Y43593D02*
Y45234D01*
X81378Y43593D02*
Y45175D01*
X81260Y43593D02*
Y45302D01*
X82146Y43593D02*
Y44567D01*
X82205Y43593D02*
Y44567D01*
X82086Y43593D02*
Y44574D01*
X82323Y43593D02*
Y44567D01*
X82382Y43593D02*
Y44567D01*
X82264Y43593D02*
Y44567D01*
X75089Y44587D02*
X82037D01*
X75089Y44646D02*
X81916D01*
X81968Y43593D02*
Y44614D01*
X82027Y43593D02*
Y44589D01*
X81909Y43593D02*
Y44651D01*
X79960Y48031D02*
Y56516D01*
X80020Y48030D02*
Y56516D01*
X79429Y48032D02*
Y56516D01*
X79901Y48026D02*
Y56516D01*
X80079Y48024D02*
Y56516D01*
X80138Y48011D02*
Y56516D01*
X79842Y48014D02*
Y56516D01*
X78957Y48032D02*
Y56516D01*
X79016Y48032D02*
Y56516D01*
X78897Y48049D02*
Y56516D01*
X79311Y48032D02*
Y56516D01*
X79370Y48032D02*
Y56516D01*
X79075Y48032D02*
Y56516D01*
X81142Y48028D02*
Y56424D01*
X81083Y48031D02*
Y56415D01*
X80964Y48021D02*
Y56417D01*
X81023Y48029D02*
Y56413D01*
X81201Y48018D02*
Y56439D01*
X80135Y48012D02*
X80922D01*
X80905Y48007D02*
Y56428D01*
X79134Y48032D02*
Y56516D01*
X78915Y48032D02*
X79484D01*
X77743Y49204D02*
X78915Y48032D01*
X79252D02*
Y56516D01*
X79484Y48012D02*
X79832D01*
X79193Y48032D02*
Y56516D01*
X78602Y48344D02*
Y56516D01*
X78661Y48285D02*
Y56516D01*
X78484Y48462D02*
Y56516D01*
X78543Y48403D02*
Y56516D01*
X78779Y48167D02*
Y56516D01*
X78838Y48108D02*
Y56516D01*
X78720Y48226D02*
Y56516D01*
X78189Y48758D02*
Y56516D01*
X78248Y48699D02*
Y56516D01*
X78130Y48817D02*
Y56516D01*
X78366Y48580D02*
Y56516D01*
X78425Y48521D02*
Y56516D01*
X78307Y48640D02*
Y56516D01*
X77834Y49112D02*
Y56516D01*
X77894Y49053D02*
Y56516D01*
X77716Y49228D02*
Y56516D01*
X77775Y49171D02*
Y56516D01*
X78012Y48935D02*
Y56516D01*
X78071Y48876D02*
Y56516D01*
X77953Y48994D02*
Y56516D01*
X77539Y49318D02*
Y56516D01*
X77598Y49299D02*
Y56516D01*
X77480Y49328D02*
Y56516D01*
X77657Y49270D02*
Y56516D01*
X80433Y47824D02*
Y56516D01*
X80669Y47872D02*
Y56516D01*
X80315Y47930D02*
Y56516D01*
X80374Y47884D02*
Y56516D01*
X80551Y47717D02*
Y56516D01*
X80610Y47808D02*
Y56516D01*
X80492Y47741D02*
Y56516D01*
X79783Y47997D02*
Y56516D01*
X80197Y47992D02*
Y56516D01*
X79724Y47972D02*
Y56516D01*
X79665Y47939D02*
Y56516D01*
X80256Y47965D02*
Y56516D01*
X79606Y47896D02*
Y56516D01*
X80787Y47958D02*
Y56472D01*
X80846Y47986D02*
Y56446D01*
X80728Y47920D02*
Y56508D01*
X80362Y47894D02*
X80694D01*
X80423Y47835D02*
X80633D01*
X80470Y47776D02*
X80586D01*
X80505Y47716D02*
X80551D01*
X80278Y47953D02*
X80778D01*
X79484D02*
X79688D01*
X79547Y47839D02*
Y56516D01*
X79484Y47894D02*
X79604D01*
X79488Y47763D02*
Y56516D01*
X79484Y47756D02*
Y48032D01*
X77716Y43593D02*
Y48005D01*
X77775Y43593D02*
Y47946D01*
X77657Y43593D02*
Y48064D01*
X77362Y47156D02*
Y48360D01*
X77421Y43593D02*
Y48300D01*
X77303Y47342D02*
Y48419D01*
X77539Y43593D02*
Y48182D01*
X77598Y43593D02*
Y48123D01*
X77480Y43593D02*
Y48241D01*
X79484Y47835D02*
X79543D01*
X78303Y46850D02*
Y47419D01*
X78248Y43593D02*
Y47474D01*
X78130Y43593D02*
Y47592D01*
X78189Y43593D02*
Y47533D01*
X78071Y43593D02*
Y47651D01*
X77318Y47303D02*
X78303D01*
X77338Y47244D02*
X78303D01*
X77834Y43593D02*
Y47887D01*
X77953Y43593D02*
Y47769D01*
X78012Y43593D02*
Y47710D01*
X77894Y43593D02*
Y47828D01*
X77126Y49331D02*
Y56516D01*
X77067Y49331D02*
Y49661D01*
X76949Y49331D02*
Y49661D01*
X77008Y49331D02*
Y49661D01*
X77244Y49331D02*
Y56516D01*
X77303Y49331D02*
Y56516D01*
X77185Y49331D02*
Y56516D01*
X76594Y49331D02*
Y49661D01*
X76890Y49331D02*
Y49661D01*
X76535Y49331D02*
Y49661D01*
X76220Y49431D02*
X76321Y49331D01*
X76240Y48100D02*
Y48465D01*
X76358Y48087D02*
Y48465D01*
X76142D02*
X77257D01*
X76181Y48101D02*
Y48465D01*
X76299Y48095D02*
Y48465D01*
X76476Y48063D02*
Y48465D01*
X76445Y48071D02*
X77651D01*
X76417Y48077D02*
Y48465D01*
X75089Y48366D02*
X77356D01*
X75089Y48307D02*
X77415D01*
X75089Y48425D02*
X77296D01*
X75089Y48189D02*
X77533D01*
X75089Y48130D02*
X77592D01*
X75089Y48248D02*
X77474D01*
X75089Y49252D02*
X75354D01*
X75089Y49193D02*
X75358D01*
X75354Y49252D02*
Y56152D01*
X75089Y49311D02*
X75354D01*
X75482Y48945D02*
X75835Y48592D01*
X75089Y49075D02*
X75392D01*
X75089Y49016D02*
X75424D01*
X75089Y49134D02*
X75371D01*
X75089Y48898D02*
X75529D01*
X75089Y48838D02*
X75588D01*
X75089Y48957D02*
X75471D01*
X76122Y48100D02*
Y48465D01*
X75089Y48661D02*
X75766D01*
X76063Y48096D02*
Y48472D01*
X75945Y48080D02*
Y48512D01*
X76004Y48090D02*
Y48487D01*
X75886Y48067D02*
Y48548D01*
X75089Y48720D02*
X75707D01*
X75089Y48602D02*
X75825D01*
X75089Y48779D02*
X75647D01*
X75089Y48484D02*
X76013D01*
X75089Y48071D02*
X75901D01*
X75089Y48543D02*
X75893D01*
X77067Y47712D02*
Y48465D01*
X77126Y47644D02*
Y48465D01*
X76949Y47823D02*
Y48465D01*
X77008Y47771D02*
Y48465D01*
X77244Y47466D02*
Y48465D01*
X77257D02*
X78303Y47419D01*
X77185Y47563D02*
Y48465D01*
X76653Y48003D02*
Y48465D01*
X76712Y47976D02*
Y48465D01*
X76594Y48026D02*
Y48465D01*
X76831Y47909D02*
Y48465D01*
X76890Y47869D02*
Y48465D01*
X76771Y47945D02*
Y48465D01*
X77160Y47598D02*
X78123D01*
X77201Y47539D02*
X78182D01*
X77063Y47716D02*
X78005D01*
X77115Y47657D02*
X78064D01*
X77267Y47421D02*
X78300D01*
X77295Y47362D02*
X78303D01*
X77236Y47480D02*
X78241D01*
X76757Y47953D02*
X77769D01*
X76854Y47894D02*
X77828D01*
X76632Y48012D02*
X77710D01*
X76935Y47835D02*
X77887D01*
X77003Y47776D02*
X77946D01*
X75709Y48010D02*
Y48718D01*
X75768Y48032D02*
Y48659D01*
X75590Y47953D02*
Y48837D01*
X75649Y47983D02*
Y48777D01*
X75472Y47880D02*
Y48955D01*
X75531Y47919D02*
Y48896D01*
X75413Y47836D02*
Y49034D01*
X75295Y47729D02*
Y64281D01*
X75354Y47786D02*
Y64281D01*
X75236Y47663D02*
Y64281D01*
X75118Y47494D02*
Y64281D01*
X75177Y47586D02*
Y64281D01*
X75089Y47442D02*
Y64281D01*
X75827Y48051D02*
Y48600D01*
X76535Y48046D02*
Y48465D01*
X75089Y48012D02*
X75714D01*
X75089Y47953D02*
X75589D01*
X75089Y47894D02*
X75492D01*
X75089Y47835D02*
X75411D01*
X75089Y47776D02*
X75343D01*
X75089Y47716D02*
X75283D01*
X75089Y47657D02*
X75231D01*
X75089Y47598D02*
X75186D01*
X75089Y47539D02*
X75145D01*
X80483Y47126D02*
X80574D01*
X80610Y46905D02*
Y47074D01*
X80551Y46911D02*
Y47165D01*
X80492Y46911D02*
Y47141D01*
X80728Y46875D02*
Y46962D01*
X80787Y46849D02*
Y46924D01*
X80669Y46893D02*
Y47010D01*
X80384Y47008D02*
X80672D01*
X80309Y46949D02*
X80747D01*
X80440Y47067D02*
X80616D01*
X80433Y46905D02*
Y47058D01*
X80374Y46892D02*
Y46998D01*
X80315Y46874D02*
Y46952D01*
X81201Y46744D02*
Y46864D01*
X80965Y46713D02*
X81171D01*
X81142Y46677D02*
Y46854D01*
X81011Y46653D02*
X81125D01*
X81083Y46580D02*
Y46850D01*
X81046Y46594D02*
X81090D01*
X81023Y46635D02*
Y46852D01*
X80195Y46890D02*
X80364D01*
X80682D02*
X80861D01*
X80256Y46848D02*
Y46917D01*
X80905Y46771D02*
Y46875D01*
X80964Y46713D02*
Y46860D01*
X80846Y46815D02*
Y46896D01*
X79665Y46864D02*
Y46943D01*
X79592Y46890D02*
X79771D01*
X79547Y46900D02*
Y47043D01*
X79606Y46886D02*
Y46986D01*
X80197Y46813D02*
Y46890D01*
X79783Y46796D02*
Y46885D01*
X79724Y46835D02*
Y46910D01*
X79484Y47008D02*
X79582D01*
X79484Y46949D02*
X79657D01*
X79484Y47067D02*
X79526D01*
X79488Y46909D02*
Y47119D01*
X79484Y46909D02*
Y47126D01*
X80138Y46768D02*
Y46871D01*
X80079Y46710D02*
Y46858D01*
X79901Y46681D02*
Y46856D01*
X79921Y46653D02*
X80035D01*
X80020Y46629D02*
Y46852D01*
X79956Y46594D02*
X80000D01*
X79960Y46587D02*
Y46851D01*
X79731Y46831D02*
X80225D01*
X79815Y46772D02*
X80141D01*
X79075Y46790D02*
Y46850D01*
X79842Y46747D02*
Y46867D01*
X79875Y46713D02*
X80081D01*
X79016Y46739D02*
Y46850D01*
X81181Y45551D02*
Y45918D01*
X81021Y46004D02*
X81115D01*
X80978Y45945D02*
X81158D01*
X81083Y43593D02*
Y46062D01*
X81142Y43593D02*
Y45965D01*
X81023Y43593D02*
Y46007D01*
X80922Y45886D02*
X81181D01*
X80964Y43593D02*
Y45929D01*
X80905Y43593D02*
Y45871D01*
X80846Y43593D02*
Y45827D01*
X80846Y45827D02*
X81181D01*
X81201Y43593D02*
Y45423D01*
X80729Y45768D02*
X81181D01*
X80610Y43593D02*
Y45737D01*
X80787Y43593D02*
Y45793D01*
X80728Y43593D02*
Y45767D01*
X80669Y43593D02*
Y45749D01*
X79639Y45768D02*
X80317D01*
X80374Y43593D02*
Y45750D01*
X80315Y43593D02*
Y45768D01*
X80492Y43593D02*
Y45731D01*
X80551Y43593D02*
Y45731D01*
X80433Y43593D02*
Y45737D01*
X80138Y43593D02*
Y45874D01*
X80197Y43593D02*
Y45829D01*
X79931Y46004D02*
X80025D01*
X80079Y43593D02*
Y45932D01*
X79960Y43593D02*
Y46055D01*
X80020Y43593D02*
Y46012D01*
X79901Y43593D02*
Y45961D01*
X79832Y45886D02*
X80124D01*
X79756Y45827D02*
X80200D01*
X79888Y45945D02*
X80068D01*
X79842Y43593D02*
Y45895D01*
X79783Y43593D02*
Y45845D01*
X79075Y43593D02*
Y45852D01*
X79606Y43593D02*
Y45756D01*
X79547Y43593D02*
Y45742D01*
X79488Y43593D02*
Y45733D01*
X79724Y43593D02*
Y45807D01*
X80256Y43593D02*
Y45794D01*
X79665Y43593D02*
Y45778D01*
X79193Y43593D02*
Y45781D01*
X79252Y43593D02*
Y45759D01*
X79134Y43593D02*
Y45812D01*
X79370Y43593D02*
Y45734D01*
X79429Y43593D02*
Y45730D01*
X79311Y43593D02*
Y45743D01*
X78303Y46850D02*
X79171D01*
X77393Y46831D02*
X79135D01*
X77389Y46772D02*
X79051D01*
X77382Y46713D02*
X78991D01*
X78957Y46670D02*
Y46850D01*
X78897Y46570D02*
Y46850D01*
X77372Y46653D02*
X78945D01*
X77359Y46594D02*
X78910D01*
X77344Y46535D02*
X78883D01*
X77325Y46476D02*
X78863D01*
X77129Y46122D02*
X78877D01*
X77173Y46181D02*
X78859D01*
X76956Y45945D02*
X78978D01*
X76880Y45886D02*
X79034D01*
X77079Y46063D02*
X78902D01*
X77022Y46004D02*
X78935D01*
X76673Y45768D02*
X79227D01*
X76512Y45709D02*
X81181D01*
X76788Y45827D02*
X79110D01*
X75089Y45590D02*
X81181D01*
X75089Y45531D02*
X81182D01*
X75089Y45650D02*
X81181D01*
X75089Y45413D02*
X81204D01*
X75089Y45354D02*
X81228D01*
X75089Y45472D02*
X81188D01*
X77379Y47067D02*
X78303D01*
X77387Y47008D02*
X78303D01*
X77355Y47185D02*
X78303D01*
X77369Y47126D02*
X78303D01*
X77394Y46890D02*
X78303D01*
X77302Y46417D02*
X78850D01*
X77392Y46949D02*
X78303D01*
X77276Y46358D02*
X78844D01*
X77246Y46299D02*
X78843D01*
X75089Y43593D02*
Y46320D01*
X77212Y46240D02*
X78848D01*
X75089Y46181D02*
X75173D01*
X75089Y46240D02*
X75134D01*
X75089Y46063D02*
X75267D01*
X75295Y43593D02*
Y46033D01*
X75089Y46122D02*
X75217D01*
X75089Y45945D02*
X75390D01*
X75089Y45886D02*
X75467D01*
X75089Y46004D02*
X75324D01*
X75089Y45768D02*
X75673D01*
X75089Y45709D02*
X75834D01*
X75089Y45827D02*
X75558D01*
X78602Y43593D02*
Y46850D01*
X78661Y43593D02*
Y46850D01*
X78484Y43593D02*
Y46850D01*
X78543Y43593D02*
Y46850D01*
X78779Y43593D02*
Y46850D01*
X78838Y43593D02*
Y46850D01*
X78720Y43593D02*
Y46850D01*
X77362Y43593D02*
Y46605D01*
X77303Y43593D02*
Y46420D01*
X77244Y43593D02*
Y46295D01*
X78366Y43593D02*
Y46850D01*
X78425Y43593D02*
Y46850D01*
X78307Y43593D02*
Y46850D01*
X77185Y43593D02*
Y46198D01*
X77126Y43593D02*
Y46118D01*
X77067Y43593D02*
Y46050D01*
X77008Y43593D02*
Y45990D01*
X78957Y43593D02*
Y45972D01*
X79016Y43593D02*
Y45903D01*
X78897Y43593D02*
Y46072D01*
X76771Y43593D02*
Y45817D01*
X76712Y43593D02*
Y45786D01*
X76653Y43593D02*
Y45759D01*
X76949Y43593D02*
Y45939D01*
X76890Y43593D02*
Y45893D01*
X76831Y43593D02*
Y45853D01*
X75649Y43593D02*
Y45778D01*
X75709Y43593D02*
Y45752D01*
X75531Y43593D02*
Y45843D01*
X75590Y43593D02*
Y45809D01*
X76594Y43593D02*
Y45735D01*
X76535Y43593D02*
Y45715D01*
X75768Y43593D02*
Y45730D01*
X75177Y43593D02*
Y46176D01*
X75236Y43593D02*
Y46099D01*
X75118Y43593D02*
Y46268D01*
X75413Y43593D02*
Y45926D01*
X75472Y43593D02*
Y45882D01*
X75354Y43593D02*
Y45976D01*
X76299Y43593D02*
Y45667D01*
X76240Y43593D02*
Y45662D01*
X76181Y43593D02*
Y45661D01*
X76476Y43593D02*
Y45699D01*
X76417Y43593D02*
Y45685D01*
X76358Y43593D02*
Y45675D01*
X75886Y43593D02*
Y45695D01*
X75945Y43593D02*
Y45682D01*
X75827Y43593D02*
Y45711D01*
X76063Y43593D02*
Y45665D01*
X76122Y43593D02*
Y45662D01*
X76004Y43593D02*
Y45672D01*
X86220Y51811D02*
Y52126D01*
X86063Y51968D02*
X86378D01*
X95236Y51378D02*
Y51693D01*
X95079Y51535D02*
X95394D01*
D21*
X92626Y51575D02*
Y52072D01*
Y51575D02*
X93123D01*
X92129D02*
X92626D01*
Y51078D02*
Y51575D01*
X86425Y59134D02*
Y59843D01*
Y59134D02*
X87134D01*
X85717D02*
X86425D01*
Y58425D02*
Y59134D01*
X87520Y55254D02*
X88017D01*
X87520D02*
Y55751D01*
Y54757D02*
Y55254D01*
X87023D02*
X87520D01*
X86220Y53701D02*
X86717D01*
X86220D02*
Y54198D01*
X85724Y53701D02*
X86220D01*
X94693Y46881D02*
Y48062D01*
X93512Y46881D02*
X94693D01*
Y45700D02*
Y46881D01*
X91423Y46321D02*
Y46872D01*
Y46321D02*
X91974D01*
X90333D02*
Y46872D01*
Y45770D02*
Y46321D01*
X91423Y45770D02*
Y46321D01*
X89243D02*
Y46872D01*
X88153Y46321D02*
Y46872D01*
X87063Y46321D02*
Y46872D01*
X85973Y46321D02*
Y46872D01*
X89243Y45770D02*
Y46321D01*
X88153Y45770D02*
Y46321D01*
X87063Y45770D02*
Y46321D01*
X85973Y45770D02*
Y46321D01*
X84425Y59134D02*
Y59843D01*
Y59134D02*
X85134D01*
X83717D02*
X84425D01*
Y58425D02*
Y59134D01*
X76575Y52197D02*
X77072D01*
X76575Y51197D02*
X77072D01*
X84883Y46321D02*
Y46872D01*
X83793Y46321D02*
Y46872D01*
X84883Y45770D02*
Y46321D01*
X83793Y45770D02*
Y46321D01*
X79983Y47441D02*
Y47992D01*
Y46890D02*
Y47441D01*
X76173Y46881D02*
Y48062D01*
Y46881D02*
X77354D01*
X76173Y45700D02*
Y46881D01*
X82717Y51181D02*
X83681Y52146D01*
X83720Y52185D01*
X83760D01*
X87598Y51378D02*
Y53740D01*
D22*
X76585Y56949D02*
X81033D01*
X75787Y56152D02*
X76585Y56949D01*
X75787Y49252D02*
Y56152D01*
X76142Y48898D02*
X77436D01*
X75787Y49252D02*
X76142Y48898D01*
X81613Y46321D02*
X81614Y46320D01*
Y45551D02*
Y46320D01*
X93976Y51594D02*
Y51614D01*
Y51594D02*
X93996Y51575D01*
X81614Y45551D02*
X82165Y45000D01*
X91772D02*
X92756Y45984D01*
Y48189D01*
X93976Y49409D02*
Y51594D01*
X77436Y48898D02*
X78893Y47441D01*
X92756Y48189D02*
X93976Y49409D01*
X82165Y45000D02*
X91772D01*
D24*
X82425Y59134D02*
D03*
X88425D02*
D03*
X84425D02*
D03*
X86425D02*
D03*
D25*
X81033Y56949D02*
D03*
X85033D02*
D03*
X76575Y51197D02*
D03*
Y53197D02*
D03*
Y52197D02*
D03*
X95079Y54035D02*
D03*
X91079D02*
D03*
X92626Y51575D02*
D03*
X87520Y55254D02*
D03*
X86220Y53701D02*
D03*
D26*
X76575Y50197D02*
D03*
X87520Y56624D02*
D03*
X86220Y52913D02*
D03*
D27*
X93996Y51575D02*
D03*
D28*
X81613Y46321D02*
D03*
X80523D02*
D03*
X84883D02*
D03*
X83793D02*
D03*
X88153D02*
D03*
X87063D02*
D03*
X90333D02*
D03*
X82163Y47441D02*
D03*
X81073D02*
D03*
X84343D02*
D03*
X87613D02*
D03*
X86523D02*
D03*
X90883D02*
D03*
X89793D02*
D03*
X79433Y46321D02*
D03*
X82703D02*
D03*
X85973D02*
D03*
X89243D02*
D03*
X91423D02*
D03*
X79983Y47441D02*
D03*
X83253D02*
D03*
X85433D02*
D03*
X88703D02*
D03*
X91973D02*
D03*
D29*
X78893D02*
D03*
D30*
X94693Y46881D02*
D03*
X76173D02*
D03*
D31*
X81425Y60034D02*
D03*
X89425D02*
D03*
D32*
X83400Y63433D02*
D03*
X87455D02*
D03*
D33*
X79724Y48819D02*
D03*
Y50394D02*
D03*
Y51968D02*
D03*
X81693D02*
D03*
X85827Y48819D02*
D03*
Y50394D02*
D03*
X87598Y51378D02*
D03*
X92323Y54823D02*
D03*
Y58268D02*
D03*
X95472Y55512D02*
D03*
Y54823D02*
D03*
Y56201D02*
D03*
X93898Y54823D02*
D03*
X94685D02*
D03*
X95472Y58268D02*
D03*
Y57579D02*
D03*
X94685Y58268D02*
D03*
X93898D02*
D03*
X80217Y53996D02*
D03*
X82756Y54213D02*
D03*
X82717Y51181D02*
D03*
X87598Y53740D02*
D03*
X95472Y56890D02*
D03*
X83760Y52185D02*
D03*
X89803Y55709D02*
D03*
X93110Y54823D02*
D03*
Y58268D02*
D03*
M02*
