G04 Layer_Color=16711935*
%FSLAX24Y24*%
%MOIN*%
G70*
G01*
G75*
%ADD45C,0.1104*%
%ADD46C,0.0680*%
%ADD47R,0.0680X0.0680*%
%ADD48R,0.0680X0.0680*%
%ADD49C,0.0789*%
%ADD50R,0.0789X0.0789*%
%ADD51C,0.2049*%
%ADD52O,0.1025X0.1182*%
%ADD53C,0.1891*%
D45*
X82425Y59134D02*
D03*
X88425D02*
D03*
X84425D02*
D03*
X86425D02*
D03*
D46*
X81033Y56949D02*
D03*
X85033D02*
D03*
X76575Y51197D02*
D03*
Y53197D02*
D03*
Y52197D02*
D03*
X95079Y54035D02*
D03*
X91079D02*
D03*
X92626Y51575D02*
D03*
X87520Y55254D02*
D03*
X86220Y53701D02*
D03*
D47*
X76575Y50197D02*
D03*
X87520Y56624D02*
D03*
X86220Y52913D02*
D03*
D48*
X93996Y51575D02*
D03*
D49*
X81613Y46321D02*
D03*
X80523D02*
D03*
X84883D02*
D03*
X83793D02*
D03*
X88153D02*
D03*
X87063D02*
D03*
X90333D02*
D03*
X82163Y47441D02*
D03*
X81073D02*
D03*
X84343D02*
D03*
X87613D02*
D03*
X86523D02*
D03*
X90883D02*
D03*
X89793D02*
D03*
X79433Y46321D02*
D03*
X82703D02*
D03*
X85973D02*
D03*
X89243D02*
D03*
X91423D02*
D03*
X79983Y47441D02*
D03*
X83253D02*
D03*
X85433D02*
D03*
X88703D02*
D03*
X91973D02*
D03*
D50*
X78893D02*
D03*
D51*
X94693Y46881D02*
D03*
X76173D02*
D03*
D52*
X81425Y60034D02*
D03*
X89425D02*
D03*
D53*
X83400Y63433D02*
D03*
X87455D02*
D03*
M02*
