G04 Layer_Color=65535*
%FSLAX24Y24*%
%MOIN*%
G70*
G01*
G75*
%ADD10C,0.0079*%
%ADD34C,0.0100*%
%ADD35C,0.0098*%
%ADD36C,0.0039*%
G36*
X84752Y55618D02*
X84502D01*
Y55868D01*
X84752D01*
Y55618D01*
D02*
G37*
D10*
X91644Y55177D02*
X92077D01*
X91644Y57815D02*
X92077D01*
X91644Y55177D02*
Y57815D01*
D34*
X84531Y54299D02*
G03*
X84551Y53741I0J-280D01*
G01*
X84552Y54318D02*
Y54518D01*
Y53518D02*
Y53718D01*
X82352Y54518D02*
X84552D01*
X82352Y53518D02*
X84552D01*
X82352D02*
Y54518D01*
D35*
X90797Y57815D02*
G03*
X90797Y57815I-49J0D01*
G01*
D36*
X80079Y54075D02*
Y55374D01*
X79370Y54075D02*
Y55374D01*
X80079D01*
X79370Y54075D02*
X80079D01*
X82539Y48268D02*
Y49567D01*
X81831Y48268D02*
Y49567D01*
X82539D01*
X81831Y48268D02*
X82539D01*
X83622D02*
Y49567D01*
X82913Y48268D02*
Y49567D01*
X83622D01*
X82913Y48268D02*
X83622D01*
X81835Y49638D02*
Y50953D01*
X82535Y49638D02*
Y50953D01*
X81835D02*
X82535D01*
X81835Y49638D02*
X82535D01*
X82917D02*
Y50953D01*
X83618Y49638D02*
Y50953D01*
X82917D02*
X83618D01*
X82917Y49638D02*
X83618D01*
X81343Y52591D02*
Y53906D01*
X82043Y52591D02*
Y53906D01*
X81343D02*
X82043D01*
X81343Y52591D02*
X82043D01*
Y54067D02*
Y55382D01*
X81343Y54067D02*
Y55382D01*
Y54067D02*
X82043D01*
X81343Y55382D02*
X82043D01*
X84961Y52677D02*
Y53976D01*
X85669Y52677D02*
Y53976D01*
X84961Y52677D02*
X85669D01*
X84961Y53976D02*
X85669D01*
X84965Y54106D02*
Y55421D01*
X85665Y54106D02*
Y55421D01*
X84965D02*
X85665D01*
X84965Y54106D02*
X85665D01*
X87248Y49539D02*
Y50854D01*
X87949Y49539D02*
Y50854D01*
X87248D02*
X87949D01*
X87248Y49539D02*
X87949D01*
X88331D02*
Y50854D01*
X89031Y49539D02*
Y50854D01*
X88331D02*
X89031D01*
X88331Y49539D02*
X89031D01*
X87953Y48169D02*
Y49468D01*
X87244Y48169D02*
Y49468D01*
X87953D01*
X87244Y48169D02*
X87953D01*
X89035D02*
Y49468D01*
X88327Y48169D02*
Y49468D01*
X89035D01*
X88327Y48169D02*
X89035D01*
X90496Y49539D02*
Y50854D01*
X91197Y49539D02*
Y50854D01*
X90496D02*
X91197D01*
X90496Y49539D02*
X91197D01*
X91579D02*
Y50854D01*
X92280Y49539D02*
Y50854D01*
X91579D02*
X92280D01*
X91579Y49539D02*
X92280D01*
X91201Y48169D02*
Y49468D01*
X90492Y48169D02*
Y49468D01*
X91201D01*
X90492Y48169D02*
X91201D01*
X92283D02*
Y49468D01*
X91575Y48169D02*
Y49468D01*
X92283D01*
X91575Y48169D02*
X92283D01*
X79370Y52598D02*
Y53898D01*
X80079Y52598D02*
Y53898D01*
X79370Y52598D02*
X80079D01*
X79370Y53898D02*
X80079D01*
X81457Y48268D02*
Y49567D01*
X80748Y48268D02*
Y49567D01*
X81457D01*
X80748Y48268D02*
X81457D01*
X80752Y49638D02*
Y50953D01*
X81453Y49638D02*
Y50953D01*
X80752D02*
X81453D01*
X80752Y49638D02*
X81453D01*
X77303Y49843D02*
X78602D01*
X77303Y50551D02*
X78602D01*
Y49843D02*
Y50551D01*
X77303Y49843D02*
Y50551D01*
Y52795D02*
X78602D01*
X77303Y53504D02*
X78602D01*
Y52795D02*
Y53504D01*
X77303Y52795D02*
Y53504D01*
X77295Y51815D02*
X78610D01*
X77295Y52516D02*
X78610D01*
X77295Y51815D02*
Y52516D01*
X78610Y51815D02*
Y52516D01*
X81059Y52591D02*
Y53906D01*
X80358Y52591D02*
Y53906D01*
Y52591D02*
X81059D01*
X80358Y53906D02*
X81059D01*
X80358Y54067D02*
Y55382D01*
X81059Y54067D02*
Y55382D01*
X80358D02*
X81059D01*
X80358Y54067D02*
X81059D01*
X89413Y49539D02*
Y50854D01*
X90114Y49539D02*
Y50854D01*
X89413D02*
X90114D01*
X89413Y49539D02*
X90114D01*
X90118Y48169D02*
Y49468D01*
X89409Y48169D02*
Y49468D01*
X90118D01*
X89409Y48169D02*
X90118D01*
X86980Y53264D02*
X88295D01*
X86980Y52563D02*
X88295D01*
Y53264D01*
X86980Y52563D02*
Y53264D01*
X83803Y50425D02*
Y51740D01*
X84504Y50425D02*
Y51740D01*
X83803D02*
X84504D01*
X83803Y50425D02*
X84504D01*
X77295Y50831D02*
X78610D01*
X77295Y51532D02*
X78610D01*
X77295Y50831D02*
Y51532D01*
X78610Y50831D02*
Y51532D01*
X90138Y56398D02*
Y57697D01*
X89429Y56398D02*
Y57697D01*
X90138D01*
X89429Y56398D02*
X90138D01*
X89449Y53760D02*
Y55059D01*
X90157Y53760D02*
Y55059D01*
X89449Y53760D02*
X90157D01*
X89449Y55059D02*
X90157D01*
X79606Y55689D02*
X79557Y55640D01*
Y55541D01*
X79606Y55492D01*
X79803D01*
X79852Y55541D01*
Y55640D01*
X79803Y55689D01*
X79852Y55787D02*
Y55886D01*
Y55837D01*
X79557D01*
X79606Y55787D01*
X79557Y56230D02*
X79606Y56132D01*
X79705Y56033D01*
X79803D01*
X79852Y56082D01*
Y56181D01*
X79803Y56230D01*
X79754D01*
X79705Y56181D01*
Y56033D01*
X82136Y48120D02*
X82087Y48169D01*
X81988D01*
X81939Y48120D01*
Y47923D01*
X81988Y47874D01*
X82087D01*
X82136Y47923D01*
X82234Y48120D02*
X82283Y48169D01*
X82382D01*
X82431Y48120D01*
Y48071D01*
X82382Y48022D01*
X82431Y47972D01*
Y47923D01*
X82382Y47874D01*
X82283D01*
X82234Y47923D01*
Y47972D01*
X82283Y48022D01*
X82234Y48071D01*
Y48120D01*
X82283Y48022D02*
X82382D01*
X83848Y48839D02*
X83799Y48789D01*
Y48691D01*
X83848Y48642D01*
X84045D01*
X84094Y48691D01*
Y48789D01*
X84045Y48839D01*
X84094Y49134D02*
Y48937D01*
X83898Y49134D01*
X83848D01*
X83799Y49085D01*
Y48986D01*
X83848Y48937D01*
X82343Y51112D02*
X82047D01*
Y51260D01*
X82097Y51309D01*
X82195D01*
X82244Y51260D01*
Y51112D01*
Y51211D02*
X82343Y51309D01*
X82097Y51407D02*
X82047Y51457D01*
Y51555D01*
X82097Y51604D01*
X82146D01*
X82195Y51555D01*
X82244Y51604D01*
X82293D01*
X82343Y51555D01*
Y51457D01*
X82293Y51407D01*
X82244D01*
X82195Y51457D01*
X82146Y51407D01*
X82097D01*
X82195Y51457D02*
Y51555D01*
X84065Y49764D02*
X83770D01*
Y49911D01*
X83819Y49961D01*
X83917D01*
X83967Y49911D01*
Y49764D01*
Y49862D02*
X84065Y49961D01*
Y50256D02*
Y50059D01*
X83868Y50256D01*
X83819D01*
X83770Y50207D01*
Y50108D01*
X83819Y50059D01*
X82451Y52559D02*
X82156D01*
Y52707D01*
X82205Y52756D01*
X82303D01*
X82352Y52707D01*
Y52559D01*
Y52657D02*
X82451Y52756D01*
Y52854D02*
Y52953D01*
Y52903D01*
X82156D01*
X82205Y52854D01*
X82451Y53248D02*
X82156D01*
X82303Y53100D01*
Y53297D01*
X81811Y55512D02*
X81516D01*
Y55659D01*
X81565Y55709D01*
X81663D01*
X81713Y55659D01*
Y55512D01*
Y55610D02*
X81811Y55709D01*
Y55807D02*
Y55905D01*
Y55856D01*
X81516D01*
X81565Y55807D01*
X81811Y56250D02*
Y56053D01*
X81614Y56250D01*
X81565D01*
X81516Y56201D01*
Y56102D01*
X81565Y56053D01*
X84606Y52795D02*
X84557Y52746D01*
Y52648D01*
X84606Y52598D01*
X84803D01*
X84852Y52648D01*
Y52746D01*
X84803Y52795D01*
X84852Y52894D02*
Y52992D01*
Y52943D01*
X84557D01*
X84606Y52894D01*
X84852Y53336D02*
Y53140D01*
X84656Y53336D01*
X84606D01*
X84557Y53287D01*
Y53189D01*
X84606Y53140D01*
X85413Y55591D02*
X85118D01*
Y55738D01*
X85167Y55787D01*
X85266D01*
X85315Y55738D01*
Y55591D01*
Y55689D02*
X85413Y55787D01*
Y55886D02*
Y55984D01*
Y55935D01*
X85118D01*
X85167Y55886D01*
Y56132D02*
X85118Y56181D01*
Y56279D01*
X85167Y56329D01*
X85217D01*
X85266Y56279D01*
Y56230D01*
Y56279D01*
X85315Y56329D01*
X85364D01*
X85413Y56279D01*
Y56181D01*
X85364Y56132D01*
X87096Y49921D02*
X86801D01*
Y50069D01*
X86850Y50118D01*
X86949D01*
X86998Y50069D01*
Y49921D01*
Y50020D02*
X87096Y50118D01*
X86850Y50216D02*
X86801Y50266D01*
Y50364D01*
X86850Y50413D01*
X86900D01*
X86949Y50364D01*
Y50315D01*
Y50364D01*
X86998Y50413D01*
X87047D01*
X87096Y50364D01*
Y50266D01*
X87047Y50216D01*
X88809Y50994D02*
X88514D01*
Y51142D01*
X88563Y51191D01*
X88661D01*
X88711Y51142D01*
Y50994D01*
Y51092D02*
X88809Y51191D01*
X88760Y51289D02*
X88809Y51338D01*
Y51437D01*
X88760Y51486D01*
X88563D01*
X88514Y51437D01*
Y51338D01*
X88563Y51289D01*
X88612D01*
X88661Y51338D01*
Y51486D01*
X86850Y48760D02*
X86801Y48711D01*
Y48612D01*
X86850Y48563D01*
X87047D01*
X87096Y48612D01*
Y48711D01*
X87047Y48760D01*
X86850Y48858D02*
X86801Y48907D01*
Y49006D01*
X86850Y49055D01*
X86900D01*
X86949Y49006D01*
Y48957D01*
Y49006D01*
X86998Y49055D01*
X87047D01*
X87096Y49006D01*
Y48907D01*
X87047Y48858D01*
X89055Y48061D02*
X89006Y48110D01*
X88907D01*
X88858Y48061D01*
Y47864D01*
X88907Y47815D01*
X89006D01*
X89055Y47864D01*
X89153D02*
X89203Y47815D01*
X89301D01*
X89350Y47864D01*
Y48061D01*
X89301Y48110D01*
X89203D01*
X89153Y48061D01*
Y48012D01*
X89203Y47963D01*
X89350D01*
X90984Y50955D02*
X90689D01*
Y51102D01*
X90738Y51152D01*
X90837D01*
X90886Y51102D01*
Y50955D01*
Y51053D02*
X90984Y51152D01*
Y51250D02*
Y51348D01*
Y51299D01*
X90689D01*
X90738Y51250D01*
Y51496D02*
X90689Y51545D01*
Y51643D01*
X90738Y51693D01*
X90935D01*
X90984Y51643D01*
Y51545D01*
X90935Y51496D01*
X90738D01*
X92057Y51004D02*
X91762D01*
Y51152D01*
X91811Y51201D01*
X91910D01*
X91959Y51152D01*
Y51004D01*
Y51102D02*
X92057Y51201D01*
X91762Y51496D02*
Y51299D01*
X91910D01*
X91860Y51398D01*
Y51447D01*
X91910Y51496D01*
X92008D01*
X92057Y51447D01*
Y51348D01*
X92008Y51299D01*
X91201Y48031D02*
X91152Y48081D01*
X91053D01*
X91004Y48031D01*
Y47835D01*
X91053Y47785D01*
X91152D01*
X91201Y47835D01*
X91299Y47785D02*
X91398D01*
X91348D01*
Y48081D01*
X91299Y48031D01*
X91545D02*
X91594Y48081D01*
X91693D01*
X91742Y48031D01*
Y47835D01*
X91693Y47785D01*
X91594D01*
X91545Y47835D01*
Y48031D01*
X92490Y48779D02*
X92441Y48730D01*
Y48632D01*
X92490Y48583D01*
X92687D01*
X92736Y48632D01*
Y48730D01*
X92687Y48779D01*
X92441Y49075D02*
Y48878D01*
X92589D01*
X92539Y48976D01*
Y49025D01*
X92589Y49075D01*
X92687D01*
X92736Y49025D01*
Y48927D01*
X92687Y48878D01*
X79045Y53120D02*
X78996Y53071D01*
Y52972D01*
X79045Y52923D01*
X79242D01*
X79291Y52972D01*
Y53071D01*
X79242Y53120D01*
X79291Y53218D02*
Y53317D01*
Y53268D01*
X78996D01*
X79045Y53218D01*
X79291Y53464D02*
Y53563D01*
Y53514D01*
X78996D01*
X79045Y53464D01*
X80354Y48917D02*
X80305Y48868D01*
Y48770D01*
X80354Y48720D01*
X80551D01*
X80600Y48770D01*
Y48868D01*
X80551Y48917D01*
X80600Y49016D02*
Y49114D01*
Y49065D01*
X80305D01*
X80354Y49016D01*
X80630Y50079D02*
X80335D01*
Y50226D01*
X80384Y50276D01*
X80482D01*
X80532Y50226D01*
Y50079D01*
Y50177D02*
X80630Y50276D01*
Y50374D02*
Y50472D01*
Y50423D01*
X80335D01*
X80384Y50374D01*
X78898Y50266D02*
X78848Y50315D01*
X78750D01*
X78701Y50266D01*
Y50069D01*
X78750Y50020D01*
X78848D01*
X78898Y50069D01*
X79193Y50315D02*
X79094Y50266D01*
X78996Y50167D01*
Y50069D01*
X79045Y50020D01*
X79144D01*
X79193Y50069D01*
Y50118D01*
X79144Y50167D01*
X78996D01*
X78218Y53888D02*
X78169Y53937D01*
X78071D01*
X78022Y53888D01*
Y53691D01*
X78071Y53642D01*
X78169D01*
X78218Y53691D01*
X78317Y53937D02*
X78514D01*
Y53888D01*
X78317Y53691D01*
Y53642D01*
X78720Y51988D02*
Y52283D01*
X78868D01*
X78917Y52234D01*
Y52136D01*
X78868Y52087D01*
X78720D01*
X78819D02*
X78917Y51988D01*
X79016Y52283D02*
X79212D01*
Y52234D01*
X79016Y52037D01*
Y51988D01*
X80817Y51683D02*
X80522D01*
Y51831D01*
X80571Y51880D01*
X80669D01*
X80719Y51831D01*
Y51683D01*
Y51781D02*
X80817Y51880D01*
Y51978D02*
Y52077D01*
Y52027D01*
X80522D01*
X80571Y51978D01*
X80522Y52421D02*
X80571Y52323D01*
X80669Y52224D01*
X80768D01*
X80817Y52273D01*
Y52372D01*
X80768Y52421D01*
X80719D01*
X80669Y52372D01*
Y52224D01*
X80837Y55541D02*
X80541D01*
Y55689D01*
X80591Y55738D01*
X80689D01*
X80738Y55689D01*
Y55541D01*
Y55640D02*
X80837Y55738D01*
Y55837D02*
Y55935D01*
Y55886D01*
X80541D01*
X80591Y55837D01*
X80837Y56083D02*
Y56181D01*
Y56132D01*
X80541D01*
X80591Y56083D01*
X89892Y50974D02*
X89597D01*
Y51122D01*
X89646Y51171D01*
X89744D01*
X89793Y51122D01*
Y50974D01*
Y51073D02*
X89892Y51171D01*
Y51417D02*
X89597D01*
X89744Y51270D01*
Y51466D01*
X90226Y48041D02*
X90177Y48090D01*
X90079D01*
X90030Y48041D01*
Y47844D01*
X90079Y47795D01*
X90177D01*
X90226Y47844D01*
X90472Y47795D02*
Y48090D01*
X90325Y47943D01*
X90521D01*
X87244Y52146D02*
Y52441D01*
X87392D01*
X87441Y52392D01*
Y52293D01*
X87392Y52244D01*
X87244D01*
X87342D02*
X87441Y52146D01*
X87539D02*
X87638D01*
X87588D01*
Y52441D01*
X87539Y52392D01*
X87785Y52441D02*
X87982D01*
Y52392D01*
X87785Y52195D01*
Y52146D01*
X84449Y50492D02*
X84154D01*
Y50640D01*
X84203Y50689D01*
X84301D01*
X84350Y50640D01*
Y50492D01*
Y50591D02*
X84449Y50689D01*
Y50787D02*
Y50886D01*
Y50837D01*
X84154D01*
X84203Y50787D01*
X84154Y51230D02*
Y51033D01*
X84301D01*
X84252Y51132D01*
Y51181D01*
X84301Y51230D01*
X84400D01*
X84449Y51181D01*
Y51082D01*
X84400Y51033D01*
X78720Y51043D02*
Y51338D01*
X78868D01*
X78917Y51289D01*
Y51191D01*
X78868Y51142D01*
X78720D01*
X78819D02*
X78917Y51043D01*
X79212Y51338D02*
X79114Y51289D01*
X79016Y51191D01*
Y51093D01*
X79065Y51043D01*
X79163D01*
X79212Y51093D01*
Y51142D01*
X79163Y51191D01*
X79016D01*
X82648Y52362D02*
Y52067D01*
X82795D01*
X82844Y52116D01*
Y52313D01*
X82795Y52362D01*
X82648D01*
X82943Y52067D02*
Y52264D01*
X83041Y52362D01*
X83140Y52264D01*
Y52067D01*
Y52215D01*
X82943D01*
X83238Y52067D02*
X83336D01*
X83287D01*
Y52362D01*
X83238Y52313D01*
X89016Y57146D02*
X88967Y57096D01*
Y56998D01*
X89016Y56949D01*
X89213D01*
X89262Y56998D01*
Y57096D01*
X89213Y57146D01*
X89262Y57244D02*
Y57342D01*
Y57293D01*
X88967D01*
X89016Y57244D01*
X89262Y57638D02*
X88967D01*
X89114Y57490D01*
Y57687D01*
X89065Y54183D02*
X89016Y54134D01*
Y54035D01*
X89065Y53986D01*
X89262D01*
X89311Y54035D01*
Y54134D01*
X89262Y54183D01*
X89311Y54281D02*
Y54380D01*
Y54331D01*
X89016D01*
X89065Y54281D01*
X89016Y54527D02*
Y54724D01*
X89065D01*
X89262Y54527D01*
X89311D01*
X90846Y58268D02*
Y57972D01*
X90994D01*
X91043Y58022D01*
Y58218D01*
X90994Y58268D01*
X90846D01*
X91142Y57972D02*
Y58169D01*
X91240Y58268D01*
X91338Y58169D01*
Y57972D01*
Y58120D01*
X91142D01*
X91634Y57972D02*
X91437D01*
X91634Y58169D01*
Y58218D01*
X91584Y58268D01*
X91486D01*
X91437Y58218D01*
M02*
