G04 Layer_Physical_Order=1*
G04 Layer_Color=255*
%FSLAX24Y24*%
%MOIN*%
G70*
G01*
G75*
%ADD10C,0.0079*%
G04:AMPARAMS|DCode=11|XSize=57.1mil|YSize=45.3mil|CornerRadius=11.3mil|HoleSize=0mil|Usage=FLASHONLY|Rotation=180.000|XOffset=0mil|YOffset=0mil|HoleType=Round|Shape=RoundedRectangle|*
%AMROUNDEDRECTD11*
21,1,0.0571,0.0226,0,0,180.0*
21,1,0.0344,0.0453,0,0,180.0*
1,1,0.0226,-0.0172,0.0113*
1,1,0.0226,0.0172,0.0113*
1,1,0.0226,0.0172,-0.0113*
1,1,0.0226,-0.0172,-0.0113*
%
%ADD11ROUNDEDRECTD11*%
%ADD12C,0.0472*%
G04:AMPARAMS|DCode=13|XSize=55.1mil|YSize=41.3mil|CornerRadius=10.3mil|HoleSize=0mil|Usage=FLASHONLY|Rotation=0.000|XOffset=0mil|YOffset=0mil|HoleType=Round|Shape=RoundedRectangle|*
%AMROUNDEDRECTD13*
21,1,0.0551,0.0207,0,0,0.0*
21,1,0.0344,0.0413,0,0,0.0*
1,1,0.0207,0.0172,-0.0103*
1,1,0.0207,-0.0172,-0.0103*
1,1,0.0207,-0.0172,0.0103*
1,1,0.0207,0.0172,0.0103*
%
%ADD13ROUNDEDRECTD13*%
G04:AMPARAMS|DCode=14|XSize=106.3mil|YSize=47.2mil|CornerRadius=11.8mil|HoleSize=0mil|Usage=FLASHONLY|Rotation=270.000|XOffset=0mil|YOffset=0mil|HoleType=Round|Shape=RoundedRectangle|*
%AMROUNDEDRECTD14*
21,1,0.1063,0.0236,0,0,270.0*
21,1,0.0827,0.0472,0,0,270.0*
1,1,0.0236,-0.0118,-0.0413*
1,1,0.0236,-0.0118,0.0413*
1,1,0.0236,0.0118,0.0413*
1,1,0.0236,0.0118,-0.0413*
%
%ADD14ROUNDEDRECTD14*%
G04:AMPARAMS|DCode=15|XSize=57.1mil|YSize=45.3mil|CornerRadius=11.3mil|HoleSize=0mil|Usage=FLASHONLY|Rotation=90.000|XOffset=0mil|YOffset=0mil|HoleType=Round|Shape=RoundedRectangle|*
%AMROUNDEDRECTD15*
21,1,0.0571,0.0226,0,0,90.0*
21,1,0.0344,0.0453,0,0,90.0*
1,1,0.0226,0.0113,0.0172*
1,1,0.0226,0.0113,-0.0172*
1,1,0.0226,-0.0113,-0.0172*
1,1,0.0226,-0.0113,0.0172*
%
%ADD15ROUNDEDRECTD15*%
G04:AMPARAMS|DCode=16|XSize=55.1mil|YSize=41.3mil|CornerRadius=10.3mil|HoleSize=0mil|Usage=FLASHONLY|Rotation=90.000|XOffset=0mil|YOffset=0mil|HoleType=Round|Shape=RoundedRectangle|*
%AMROUNDEDRECTD16*
21,1,0.0551,0.0207,0,0,90.0*
21,1,0.0344,0.0413,0,0,90.0*
1,1,0.0207,0.0103,0.0172*
1,1,0.0207,0.0103,-0.0172*
1,1,0.0207,-0.0103,-0.0172*
1,1,0.0207,-0.0103,0.0172*
%
%ADD16ROUNDEDRECTD16*%
%ADD17O,0.0295X0.0800*%
G04:AMPARAMS|DCode=18|XSize=106.3mil|YSize=47.2mil|CornerRadius=11.8mil|HoleSize=0mil|Usage=FLASHONLY|Rotation=180.000|XOffset=0mil|YOffset=0mil|HoleType=Round|Shape=RoundedRectangle|*
%AMROUNDEDRECTD18*
21,1,0.1063,0.0236,0,0,180.0*
21,1,0.0827,0.0472,0,0,180.0*
1,1,0.0236,-0.0413,0.0118*
1,1,0.0236,0.0413,0.0118*
1,1,0.0236,0.0413,-0.0118*
1,1,0.0236,-0.0413,-0.0118*
%
%ADD18ROUNDEDRECTD18*%
%ADD19O,0.0846X0.0394*%
%ADD20C,0.0000*%
%ADD21C,0.0197*%
%ADD22C,0.0394*%
%ADD23C,0.0315*%
%ADD24C,0.1024*%
%ADD25C,0.0600*%
%ADD26R,0.0600X0.0600*%
%ADD27R,0.0600X0.0600*%
%ADD28C,0.0709*%
%ADD29R,0.0709X0.0709*%
%ADD30C,0.1969*%
%ADD31O,0.0945X0.1102*%
%ADD32C,0.1811*%
%ADD33C,0.0400*%
G36*
X94966Y57574D02*
X95005Y57534D01*
X95020Y57480D01*
Y55512D01*
X95005Y55458D01*
X94966Y55418D01*
X94911Y55404D01*
X92333D01*
X92279Y55418D01*
X92239Y55458D01*
X92224Y55512D01*
Y57480D01*
X92239Y57534D01*
X92279Y57574D01*
X92333Y57589D01*
X94911D01*
X94966Y57574D01*
D02*
G37*
D10*
X91722Y57394D02*
G03*
X91289Y57827I-433J0D01*
G01*
Y56961D02*
G03*
X91722Y57394I0J433D01*
G01*
X90837Y57827D02*
G03*
X90674Y57795I0J-433D01*
G01*
X90055Y60437D02*
G03*
X88795Y60437I-630J-325D01*
G01*
X90173Y60034D02*
G03*
X90055Y60437I-748J0D01*
G01*
X90640Y57008D02*
G03*
X90837Y56961I197J386D01*
G01*
X90055Y59630D02*
G03*
X90173Y60034I-630J404D01*
G01*
X89155Y59300D02*
G03*
X90055Y59630I271J655D01*
G01*
X90164Y57795D02*
G03*
X89956Y57864I-208J-281D01*
G01*
X90305Y56806D02*
G03*
X90241Y57008I-349J0D01*
G01*
X93858Y56496D02*
G03*
X93858Y56496I-236J0D01*
G01*
X95615Y54035D02*
G03*
X94549Y54118I-536J0D01*
G01*
X92205Y54488D02*
G03*
X92088Y54468I0J-354D01*
G01*
X91496Y55218D02*
G03*
X91722Y55598I-207J381D01*
G01*
X93386Y54134D02*
G03*
X93032Y54488I-354J0D01*
G01*
X95161Y53506D02*
G03*
X95615Y54035I-83J530D01*
G01*
X93032Y53543D02*
G03*
X93386Y53898I0J354D01*
G01*
X92009Y53602D02*
G03*
X92205Y53543I196J295D01*
G01*
X91722Y55598D02*
G03*
X91289Y56031I-433J0D01*
G01*
X90837D02*
G03*
X90630Y55218I0J-433D01*
G01*
X89956Y56230D02*
G03*
X90305Y56580I0J349D01*
G01*
X90325Y54877D02*
G03*
X89975Y55226I-349J0D01*
G01*
X90694Y53661D02*
G03*
X91395Y53602I384J374D01*
G01*
X90261Y54449D02*
G03*
X90325Y54651I-285J202D01*
G01*
X89975Y53593D02*
G03*
X90184Y53661I0J349D01*
G01*
X89173Y59134D02*
G03*
X89155Y59300I-748J0D01*
G01*
X88596Y63433D02*
G03*
X88220Y64281I-1142J0D01*
G01*
X88795Y60437D02*
G03*
X88706Y59827I630J-404D01*
G01*
Y59827D02*
G03*
X89173Y59134I-281J-693D01*
G01*
X89611Y57864D02*
G03*
X89471Y57835I0J-349D01*
G01*
X89302Y56968D02*
G03*
X89262Y56806I309J-162D01*
G01*
X89104Y57835D02*
G03*
X88798Y57708I0J-433D01*
G01*
X89104Y57835D02*
G03*
X88798Y57708I0J-433D01*
G01*
X86690Y64281D02*
G03*
X88596Y63433I765J-848D01*
G01*
X87173Y59134D02*
G03*
X87173Y59134I-748J0D01*
G01*
X86527Y57255D02*
G03*
X86220Y57382I-306J-306D01*
G01*
X86527Y57255D02*
G03*
X86220Y57382I-306J-306D01*
G01*
X89262Y56580D02*
G03*
X89611Y56230I349J0D01*
G01*
X89631Y55226D02*
G03*
X89282Y54877I0J-349D01*
G01*
Y54651D02*
G03*
X89378Y54409I349J0D01*
G01*
X88327Y56191D02*
G03*
X88633Y56318I0J433D01*
G01*
X88327Y56191D02*
G03*
X88633Y56318I0J433D01*
G01*
X89378Y54409D02*
G03*
X89282Y54168I253J-241D01*
G01*
Y53942D02*
G03*
X89631Y53593I349J0D01*
G01*
X88333Y53346D02*
G03*
X88115Y53425I-217J-261D01*
G01*
X87900Y53425D02*
G03*
X88035Y53740I-302J315D01*
G01*
D02*
G03*
X87637Y54175I-436J0D01*
G01*
X88056Y55254D02*
G03*
X88056Y55254I-536J0D01*
G01*
X86239Y56318D02*
G03*
X86545Y56191I306J306D01*
G01*
X86239Y56318D02*
G03*
X86545Y56191I306J306D01*
G01*
X85630Y55551D02*
G03*
X85532Y55788I-335J0D01*
G01*
X85630Y55551D02*
G03*
X85532Y55788I-335J0D01*
G01*
X85827Y55241D02*
G03*
X85630Y55549I-340J0D01*
G01*
X85692Y54764D02*
G03*
X85827Y55034I-205J271D01*
G01*
X87205Y54607D02*
G03*
X86968Y54705I-237J-237D01*
G01*
X87205Y54607D02*
G03*
X86968Y54705I-237J-237D01*
G01*
X87164Y53701D02*
G03*
X87297Y53425I434J39D01*
G01*
X87160D02*
G03*
X86943Y53346I0J-340D01*
G01*
X86694Y53450D02*
G03*
X86757Y53701I-474J251D01*
G01*
X85753Y54705D02*
G03*
X85692Y54764I-266J-212D01*
G01*
X86757Y53701D02*
G03*
X86639Y54035I-536J0D01*
G01*
X93194Y53307D02*
G03*
X93032Y53346I-162J-315D01*
G01*
Y52402D02*
G03*
X93194Y52441I0J354D01*
G01*
X93162Y51575D02*
G03*
X93162Y51575I-536J0D01*
G01*
X91982Y52480D02*
G03*
X92205Y52402I223J276D01*
G01*
X92369Y49511D02*
G03*
X92441Y49719I-268J209D01*
G01*
X91757Y51014D02*
G03*
X91528Y50925I0J-340D01*
G01*
X91247D02*
G03*
X91019Y51014I-229J-251D01*
G01*
X92306Y50197D02*
G03*
X92441Y50468I-205J271D01*
G01*
Y49926D02*
G03*
X92306Y50197I-340J0D01*
G01*
X92441Y50674D02*
G03*
X92101Y51014I-340J0D01*
G01*
X95777Y47442D02*
G03*
X95777Y46320I-1084J-561D01*
G01*
X92451Y49286D02*
G03*
X92369Y49511I-349J0D01*
G01*
X92451Y48578D02*
G03*
X92354Y48819I-349J0D01*
G01*
X92564Y47441D02*
G03*
X92303Y47931I-591J0D01*
G01*
X91428Y47214D02*
G03*
X92564Y47441I545J227D01*
G01*
X92354Y48819D02*
G03*
X92451Y49060I-253J241D01*
G01*
X92303Y48066D02*
G03*
X92451Y48351I-202J285D01*
G01*
X90338Y47214D02*
G03*
X91428Y47214I545J227D01*
G01*
X92014Y46321D02*
G03*
X90878Y46548I-591J0D01*
G01*
X91933Y46024D02*
G03*
X92014Y46321I-510J297D01*
G01*
X90878Y46094D02*
G03*
X91890Y45959I545J227D01*
G01*
X89592Y51014D02*
G03*
X89363Y50925I0J-340D01*
G01*
X87638Y52536D02*
G03*
X87908Y52402I271J205D01*
G01*
X88115D02*
G03*
X88333Y52480I0J340D01*
G01*
X87933Y51098D02*
G03*
X88035Y51378I-335J280D01*
G01*
X90674Y51014D02*
G03*
X90445Y50925I0J-340D01*
G01*
X90165D02*
G03*
X89936Y51014I-229J-251D01*
G01*
X89248Y47214D02*
G03*
X90338Y47214I545J227D01*
G01*
X88509Y51014D02*
G03*
X88280Y50925I0J-340D01*
G01*
X89082D02*
G03*
X88853Y51014I-229J-251D01*
G01*
X87999Y50925D02*
G03*
X87933Y50972I-229J-251D01*
G01*
X88158Y47214D02*
G03*
X89248Y47214I545J227D01*
G01*
X87367Y52402D02*
G03*
X87638Y52536I0J340D01*
G01*
X88035Y51378D02*
G03*
X87264Y51098I-436J0D01*
G01*
X86943Y52480D02*
G03*
X87160Y52402I217J261D01*
G01*
X87264Y50972D02*
G03*
X87087Y50674I162J-298D01*
G01*
Y50468D02*
G03*
X87221Y50197I340J0D01*
G01*
D02*
G03*
X87087Y49926I205J-271D01*
G01*
Y49719D02*
G03*
X87158Y49511I340J0D01*
G01*
D02*
G03*
X87077Y49286I268J-224D01*
G01*
Y49060D02*
G03*
X87173Y48819I349J0D01*
G01*
D02*
G03*
X87077Y48578I253J-241D01*
G01*
Y48351D02*
G03*
X87264Y48042I349J0D01*
G01*
X85551Y51890D02*
G03*
X85788Y51988I0J335D01*
G01*
X85551Y51890D02*
G03*
X85788Y51988I0J335D01*
G01*
X87264Y47917D02*
G03*
X87068Y47668I349J-476D01*
G01*
D02*
G03*
X85978Y47668I-545J-227D01*
G01*
Y47214D02*
G03*
X87068Y47214I545J227D01*
G01*
D02*
G03*
X88158Y47214I545J227D01*
G01*
X90878Y46548D02*
G03*
X89788Y46548I-545J-227D01*
G01*
D02*
G03*
X88698Y46548I-545J-227D01*
G01*
X89788Y46094D02*
G03*
X90878Y46094I545J227D01*
G01*
X88698D02*
G03*
X89788Y46094I545J227D01*
G01*
X88698Y46548D02*
G03*
X87608Y46548I-545J-227D01*
G01*
D02*
G03*
X86518Y46548I-545J-227D01*
G01*
D02*
G03*
X85428Y46548I-545J-227D01*
G01*
X87608Y46094D02*
G03*
X88698Y46094I545J227D01*
G01*
X86518D02*
G03*
X87608Y46094I545J227D01*
G01*
X85428D02*
G03*
X86518Y46094I545J227D01*
G01*
X84541Y63433D02*
G03*
X84164Y64281I-1142J0D01*
G01*
X85173Y59134D02*
G03*
X85173Y59134I-748J0D01*
G01*
X82635Y64281D02*
G03*
X84541Y63433I765J-848D01*
G01*
X82173Y60034D02*
G03*
X82055Y60437I-748J0D01*
G01*
D02*
G03*
X80795Y60437I-630J-325D01*
G01*
X82144Y59827D02*
G03*
X82173Y60034I-719J207D01*
G01*
X83173Y59134D02*
G03*
X82144Y59827I-748J0D01*
G01*
X82839Y58510D02*
G03*
X83173Y59134I-413J623D01*
G01*
X85350Y57382D02*
G03*
X84746Y57402I-316J-433D01*
G01*
X84692Y56535D02*
G03*
X85350Y56516I342J413D01*
G01*
X84961Y56359D02*
G03*
X84724Y56457I-237J-237D01*
G01*
X84961Y56359D02*
G03*
X84724Y56457I-237J-237D01*
G01*
X84025Y57402D02*
G03*
X83671Y57736I-354J-20D01*
G01*
X84012Y56457D02*
G03*
X84025Y56535I-340J98D01*
G01*
X83431Y54526D02*
G03*
X83523Y54350I329J61D01*
G01*
X83431Y54526D02*
G03*
X83523Y54350I329J61D01*
G01*
X83740Y54133D02*
G03*
X83976Y54035I237J237D01*
G01*
X83740Y54133D02*
G03*
X83976Y54035I237J237D01*
G01*
X84890D02*
G03*
X84793Y53794I253J-241D01*
G01*
Y53568D02*
G03*
X84890Y53327I349J0D01*
G01*
D02*
G03*
X84793Y53086I253J-241D01*
G01*
Y52859D02*
G03*
X84964Y52559I349J0D01*
G01*
X84253Y53858D02*
G03*
X84016Y53957I-237J-236D01*
G01*
X84252Y53859D02*
G03*
X84016Y53957I-237J-237D01*
G01*
X84622Y52564D02*
G03*
X84636Y52666I-370J102D01*
G01*
X84587Y53386D02*
G03*
X84488Y53623I-335J0D01*
G01*
X84587Y53386D02*
G03*
X84489Y53622I-335J0D01*
G01*
X84636Y53170D02*
G03*
X84587Y53359I-384J0D01*
G01*
X83435Y57736D02*
G03*
X83081Y57382I0J-354D01*
G01*
Y56555D02*
G03*
X83095Y56457I354J0D01*
G01*
X82884Y57382D02*
G03*
X82839Y57555I-354J0D01*
G01*
X82870Y56457D02*
G03*
X82884Y56555I-340J98D01*
G01*
X82373Y55433D02*
G03*
X82368Y55370I379J-63D01*
G01*
X82205Y55202D02*
G03*
X82114Y55433I-340J0D01*
G01*
X82070Y54724D02*
G03*
X82205Y54995I-205J271D01*
G01*
X83002Y54574D02*
G03*
X83431Y54526I250J291D01*
G01*
X82368Y54866D02*
G03*
X83002Y54574I384J0D01*
G01*
X82397Y52520D02*
G03*
X82913Y52317I355J146D01*
G01*
X82205Y54454D02*
G03*
X82070Y54724I-340J0D01*
G01*
X82083Y53986D02*
G03*
X82205Y54247I-217J261D01*
G01*
X82114Y53957D02*
G03*
X82083Y53986I-249J-231D01*
G01*
X81865Y52431D02*
G03*
X82094Y52520I0J340D01*
G01*
X81696Y59300D02*
G03*
X81972Y58538I729J-166D01*
G01*
X80795Y59630D02*
G03*
X81696Y59300I630J325D01*
G01*
X80795Y60437D02*
G03*
X80795Y59630I630J-404D01*
G01*
X81972Y57532D02*
G03*
X81939Y57382I321J-150D01*
G01*
X81350Y57382D02*
G03*
X80821Y56457I-316J-433D01*
G01*
X80118Y53986D02*
G03*
X80220Y54124I-221J271D01*
G01*
X79902Y56457D02*
G03*
X79665Y56359I0J-335D01*
G01*
X79902Y56457D02*
G03*
X79665Y56359I0J-335D01*
G01*
X79203Y54950D02*
G03*
X79299Y54724I349J15D01*
G01*
X79203Y54257D02*
G03*
X79331Y53986I349J0D01*
G01*
X79299Y54724D02*
G03*
X79203Y54483I253J-241D01*
G01*
X80220Y54124D02*
G03*
X80319Y53986I317J123D01*
G01*
D02*
G03*
X80220Y53848I217J-261D01*
G01*
D02*
G03*
X80118Y53986I-323J-133D01*
G01*
X79331D02*
G03*
X79203Y53716I221J-271D01*
G01*
X78110Y54804D02*
G03*
X78012Y54567I237J-237D01*
G01*
X78110Y54804D02*
G03*
X78012Y54567I237J-237D01*
G01*
Y53620D02*
G03*
X77953Y53575I182J-298D01*
G01*
D02*
G03*
X77712Y53671I-241J-253D01*
G01*
X79203Y53489D02*
G03*
X79299Y53248I349J0D01*
G01*
D02*
G03*
X79203Y53007I253J-241D01*
G01*
Y52781D02*
G03*
X79552Y52431I349J0D01*
G01*
X81272Y52539D02*
G03*
X81521Y52431I249J231D01*
G01*
X80881D02*
G03*
X81130Y52539I0J340D01*
G01*
X80288D02*
G03*
X80536Y52431I249J231D01*
G01*
X79897D02*
G03*
X80150Y52539I0J349D01*
G01*
X78770Y53322D02*
G03*
X78681Y53554I-349J0D01*
G01*
X77485Y53671D02*
G03*
X77176Y53484I0J-349D01*
G01*
X78681Y52745D02*
G03*
X78770Y52977I-261J233D01*
G01*
X77176Y52815D02*
G03*
X77352Y52654I309J162D01*
G01*
X78544Y51673D02*
G03*
X78770Y51993I-114J320D01*
G01*
X77352Y52654D02*
G03*
X77136Y52338I123J-317D01*
G01*
X78770D02*
G03*
X78681Y52566I-340J0D01*
G01*
X77028Y53484D02*
G03*
X76043Y53130I-453J-287D01*
G01*
X76769Y52697D02*
G03*
X76951Y52815I-194J500D01*
G01*
X77111Y52197D02*
G03*
X76769Y52697I-536J0D01*
G01*
Y51697D02*
G03*
X77111Y52197I-194J500D01*
G01*
X75787Y52874D02*
G03*
X75689Y52638I237J-237D01*
G01*
X75787Y52874D02*
G03*
X75689Y52638I237J-237D01*
G01*
X84665Y51560D02*
G03*
X84481Y51862I-340J0D01*
G01*
X84531Y51083D02*
G03*
X84665Y51353I-205J271D01*
G01*
Y50812D02*
G03*
X84531Y51083I-340J0D01*
G01*
X84326Y50266D02*
G03*
X84665Y50605I0J340D01*
G01*
X83776Y50335D02*
G03*
X83981Y50266I205J271D01*
G01*
X83708Y49609D02*
G03*
X83780Y49818I-268J209D01*
G01*
X83789Y49385D02*
G03*
X83708Y49609I-349J0D01*
G01*
X85978Y47668D02*
G03*
X84888Y47668I-545J-227D01*
G01*
Y47214D02*
G03*
X85978Y47214I545J227D01*
G01*
X84888Y47668D02*
G03*
X83798Y47668I-545J-227D01*
G01*
Y47214D02*
G03*
X84888Y47214I545J227D01*
G01*
X83693Y48917D02*
G03*
X83789Y49158I-253J241D01*
G01*
Y48676D02*
G03*
X83693Y48917I-349J0D01*
G01*
X83645Y50295D02*
G03*
X83689Y50335I-205J271D01*
G01*
X82913Y51570D02*
G03*
X82437Y51516I-197J-389D01*
G01*
X80599Y50846D02*
G03*
X80591Y50773I331J-74D01*
G01*
Y50566D02*
G03*
X80725Y50295I340J0D01*
G01*
X83780Y50025D02*
G03*
X83645Y50295I-340J0D01*
G01*
X83602Y48140D02*
G03*
X83789Y48450I-162J309D01*
G01*
X80581D02*
G03*
X80768Y48140I349J0D01*
G01*
X80725Y50295D02*
G03*
X80591Y50025I205J-271D01*
G01*
X83798Y47668D02*
G03*
X83602Y47917I-545J-227D01*
G01*
X82708Y47214D02*
G03*
X83798Y47214I545J227D01*
G01*
X80768Y47946D02*
G03*
X80528Y47668I305J-505D01*
G01*
Y47214D02*
G03*
X81618Y47214I545J227D01*
G01*
D02*
G03*
X82708Y47214I545J227D01*
G01*
X80591Y49818D02*
G03*
X80662Y49609I340J0D01*
G01*
X80581Y49158D02*
G03*
X80677Y48917I349J0D01*
G01*
X80662Y49609D02*
G03*
X80581Y49385I268J-224D01*
G01*
X80677Y48917D02*
G03*
X80581Y48676I253J-241D01*
G01*
X84338Y46548D02*
G03*
X83248Y46548I-545J-227D01*
G01*
X85428D02*
G03*
X84338Y46548I-545J-227D01*
G01*
Y46094D02*
G03*
X85428Y46094I545J227D01*
G01*
X83248D02*
G03*
X84338Y46094I545J227D01*
G01*
X82596Y45740D02*
G03*
X83248Y46094I107J581D01*
G01*
Y46548D02*
G03*
X82158Y46548I-545J-227D01*
G01*
D02*
G03*
X81068Y46548I-545J-227D01*
G01*
D02*
G03*
X79978Y46548I-545J-227D01*
G01*
X81658Y44941D02*
G03*
X81894Y45039I0J335D01*
G01*
X81658Y44941D02*
G03*
X81894Y45039I0J335D01*
G01*
X77361Y51673D02*
G03*
X77136Y51353I114J-320D01*
G01*
X78728Y51516D02*
G03*
X78544Y51673I-298J-162D01*
G01*
X78642Y50743D02*
G03*
X78728Y50846I-212J266D01*
G01*
X78420Y49675D02*
G03*
X78770Y50025I0J349D01*
G01*
Y50369D02*
G03*
X78642Y50639I-349J0D01*
G01*
X77136Y51009D02*
G03*
X77352Y50692I340J0D01*
G01*
D02*
G03*
X77176Y50532I133J-323D01*
G01*
X77953Y49772D02*
G03*
X78194Y49675I241J253D01*
G01*
X77136Y51993D02*
G03*
X77361Y51673I340J0D01*
G01*
X77111Y51197D02*
G03*
X76769Y51697I-536J0D01*
G01*
X76844Y50733D02*
G03*
X77111Y51197I-269J464D01*
G01*
X75689Y49803D02*
G03*
X75787Y49567I335J0D01*
G01*
X75689Y49803D02*
G03*
X75787Y49567I335J0D01*
G01*
X80528Y47668D02*
G03*
X79484Y47756I-545J-227D01*
G01*
Y47126D02*
G03*
X80528Y47214I499J315D01*
G01*
X79978Y46548D02*
G03*
X79484Y46909I-545J-227D01*
G01*
X78602Y48071D02*
G03*
X78504Y48307I-335J0D01*
G01*
X78602Y48071D02*
G03*
X78504Y48307I-335J0D01*
G01*
X78582Y45039D02*
G03*
X78819Y44941I237J237D01*
G01*
X77579Y46181D02*
G03*
X77677Y45944I335J0D01*
G01*
X77579Y46181D02*
G03*
X77677Y45944I335J0D01*
G01*
X78582Y45039D02*
G03*
X78819Y44941I237J237D01*
G01*
X77394Y46881D02*
G03*
X75089Y47442I-1220J0D01*
G01*
Y46320D02*
G03*
X77394Y46881I1084J561D01*
G01*
X93661Y56729D02*
Y64281D01*
X93720Y56711D02*
Y64281D01*
X93543Y56719D02*
Y64281D01*
X93602Y56731D02*
Y64281D01*
X93779Y56672D02*
Y64281D01*
X93838Y56591D02*
Y64281D01*
X93425Y56626D02*
Y64281D01*
X93484Y56688D02*
Y64281D01*
X91390Y57815D02*
X95777D01*
X91527Y57756D02*
X95777D01*
X91535Y57750D02*
Y64281D01*
X91594Y57701D02*
Y64281D01*
X91599Y57697D02*
X95777D01*
X91653Y57628D02*
Y64281D01*
X91712Y57486D02*
Y64281D01*
X91717Y57461D02*
X95777D01*
X91722Y57401D02*
X95777D01*
X91681Y57579D02*
X95777D01*
X91704Y57520D02*
X95777D01*
X91719Y57342D02*
X95777D01*
X91708Y57283D02*
X95777D01*
X91688Y57224D02*
X95777D01*
X91613Y57106D02*
X95777D01*
X91549Y57047D02*
X95777D01*
X91647Y57638D02*
X95777D01*
X91657Y57165D02*
X95777D01*
X91441Y56988D02*
X95777D01*
X91535Y55955D02*
Y57037D01*
X91181Y57827D02*
Y64281D01*
X91240Y57827D02*
Y64281D01*
X91063Y57827D02*
Y64281D01*
X91122Y57827D02*
Y64281D01*
X91417Y57807D02*
Y64281D01*
X91476Y57784D02*
Y64281D01*
X91299Y57827D02*
Y64281D01*
X91358Y57821D02*
Y64281D01*
X91004Y57827D02*
Y64281D01*
X90837Y57827D02*
X91289D01*
X90886D02*
Y64281D01*
X90945Y57827D02*
Y64281D01*
X90827Y57827D02*
Y64281D01*
X90708Y57807D02*
Y64281D01*
X90768Y57821D02*
Y64281D01*
X91181Y56031D02*
Y56961D01*
X91240Y56031D02*
Y56961D01*
X91063Y56031D02*
Y56961D01*
X91122Y56031D02*
Y56961D01*
X91476Y55989D02*
Y57003D01*
X91417Y56012D02*
Y56980D01*
X91358Y56026D02*
Y56966D01*
X91299Y56031D02*
Y56961D01*
X91004Y56031D02*
Y56961D01*
X90837D02*
X91289D01*
X90886Y56031D02*
Y56961D01*
X90945Y56031D02*
Y56961D01*
X90768Y56026D02*
Y56966D01*
X90827Y56031D02*
Y56961D01*
X90708Y56012D02*
Y56980D01*
X94665Y54377D02*
Y64281D01*
X94724Y54438D02*
Y64281D01*
X94547Y54116D02*
Y64281D01*
X94606Y54289D02*
Y64281D01*
X94429Y53998D02*
Y64281D01*
X94488Y54057D02*
Y64281D01*
X94311Y53880D02*
Y64281D01*
X94370Y53939D02*
Y64281D01*
X94193Y53762D02*
Y64281D01*
X94252Y53821D02*
Y64281D01*
X93366Y54251D02*
Y64281D01*
X94134Y53703D02*
Y64281D01*
X94016Y53585D02*
Y64281D01*
X94075Y53644D02*
Y64281D01*
X93897Y53467D02*
Y64281D01*
X93956Y53526D02*
Y64281D01*
X95315Y54517D02*
Y64281D01*
X95374Y54483D02*
Y64281D01*
X95197Y54559D02*
Y64281D01*
X95256Y54542D02*
Y64281D01*
X95551Y54289D02*
Y64281D01*
X95610Y54108D02*
Y64281D01*
X95433Y54438D02*
Y64281D01*
X95492Y54377D02*
Y64281D01*
X95079Y54572D02*
Y64281D01*
X95138Y54568D02*
Y64281D01*
X94960Y54558D02*
Y64281D01*
X95020Y54568D02*
Y64281D01*
X94842Y54517D02*
Y64281D01*
X94901Y54541D02*
Y64281D01*
X94783Y54483D02*
Y64281D01*
X93012Y54488D02*
Y64281D01*
X93071Y54486D02*
Y64281D01*
X92894Y54488D02*
Y64281D01*
X92953Y54488D02*
Y64281D01*
X93248Y54414D02*
Y64281D01*
X93307Y54357D02*
Y64281D01*
X93130Y54474D02*
Y64281D01*
X93189Y54451D02*
Y64281D01*
X92598Y54488D02*
Y64281D01*
X92657Y54488D02*
Y64281D01*
X92480Y54488D02*
Y64281D01*
X92539Y54488D02*
Y64281D01*
X92775Y54488D02*
Y64281D01*
X92834Y54488D02*
Y64281D01*
X92716Y54488D02*
Y64281D01*
X92362Y54488D02*
Y64281D01*
X92421Y54488D02*
Y64281D01*
X92244Y54488D02*
Y64281D01*
X92303Y54488D02*
Y64281D01*
X92126Y54479D02*
Y64281D01*
X92185Y54488D02*
Y64281D01*
X92008Y54468D02*
Y64281D01*
X92067Y54468D02*
Y64281D01*
X91771Y54468D02*
Y64281D01*
X91712Y55691D02*
Y57301D01*
X91653Y55833D02*
Y57159D01*
X91594Y55906D02*
Y57086D01*
X91890Y54468D02*
Y64281D01*
X91949Y54468D02*
Y64281D01*
X91831Y54468D02*
Y64281D01*
X88560Y63720D02*
X95777D01*
X88573Y63661D02*
X95777D01*
X88522Y63838D02*
X95777D01*
X88543Y63779D02*
X95777D01*
X88595Y63484D02*
X95777D01*
X88596Y63425D02*
X95777D01*
X88584Y63602D02*
X95777D01*
X88591Y63543D02*
X95777D01*
X88307Y64193D02*
X95777D01*
X88356Y64134D02*
X95777D01*
X88220Y64281D02*
X95777D01*
X88250Y64252D02*
X95777D01*
X88469Y63957D02*
X95777D01*
X88498Y63898D02*
X95777D01*
X88399Y64075D02*
X95777D01*
X88437Y64016D02*
X95777D01*
X88581Y63248D02*
X95777D01*
X88570Y63189D02*
X95777D01*
X88594Y63366D02*
X95777D01*
X88589Y63307D02*
X95777D01*
X88516Y63012D02*
X95777D01*
X88490Y62953D02*
X95777D01*
X88555Y63130D02*
X95777D01*
X88537Y63071D02*
X95777D01*
X88388Y62775D02*
X95777D01*
X88344Y62716D02*
X95777D01*
X88461Y62894D02*
X95777D01*
X88427Y62835D02*
X95777D01*
X88234Y62598D02*
X95777D01*
X88165Y62539D02*
X95777D01*
X88292Y62657D02*
X95777D01*
X89941Y60599D02*
Y64281D01*
X89888Y60649D02*
X95777D01*
X89823Y60699D02*
Y64281D01*
X89882Y60655D02*
Y64281D01*
X90118Y60316D02*
Y64281D01*
X89949Y60590D02*
X95777D01*
X90000Y60527D02*
Y64281D01*
X90059Y60431D02*
Y64281D01*
X87850Y62362D02*
X95777D01*
X87618Y62303D02*
X95777D01*
X88084Y62480D02*
X95777D01*
X87983Y62421D02*
X95777D01*
X89696Y60768D02*
X95777D01*
X89809Y60709D02*
X95777D01*
X90168Y60118D02*
X95777D01*
X90173Y60059D02*
X95777D01*
X90145Y60236D02*
X95777D01*
X90159Y60177D02*
X95777D01*
X90158Y59882D02*
X95777D01*
X90143Y59823D02*
X95777D01*
X90172Y60000D02*
X95777D01*
X90167Y59941D02*
X95777D01*
X90070Y60413D02*
X95777D01*
X90101Y60354D02*
X95777D01*
X89997Y60531D02*
X95777D01*
X90036Y60472D02*
X95777D01*
X90126Y60295D02*
X95777D01*
X90123Y59764D02*
X95777D01*
X90030Y59587D02*
X95777D01*
X89990Y59527D02*
X95777D01*
X90097Y59705D02*
X95777D01*
X90065Y59646D02*
X95777D01*
X89940Y59468D02*
X95777D01*
X89877Y59409D02*
X95777D01*
X90649Y57795D02*
Y64281D01*
X89794Y59350D02*
X95777D01*
X89172Y59173D02*
X95777D01*
X89173Y59114D02*
X95777D01*
X89673Y59291D02*
X95777D01*
X89167Y59232D02*
X95777D01*
X89147Y58937D02*
X95777D01*
X89128Y58878D02*
X95777D01*
X89169Y59055D02*
X95777D01*
X89160Y58996D02*
X95777D01*
X89104Y58819D02*
X95777D01*
X90135Y57815D02*
X90736D01*
X90164Y57795D02*
X90674D01*
X90254Y56988D02*
X90685D01*
X90299Y56870D02*
X95777D01*
X90305Y56811D02*
X95777D01*
X90283Y56929D02*
X95777D01*
X88988Y58642D02*
X95777D01*
X88931Y58583D02*
X95777D01*
X89073Y58760D02*
X95777D01*
X89035Y58701D02*
X95777D01*
X88759Y58464D02*
X95777D01*
X88595Y58405D02*
X95777D01*
X88858Y58524D02*
X95777D01*
X90295Y57795D02*
Y64281D01*
X90354Y57795D02*
Y64281D01*
X90177Y57795D02*
Y64281D01*
X90236Y57795D02*
Y64281D01*
X90531Y57795D02*
Y64281D01*
X90590Y57795D02*
Y64281D01*
X90413Y57795D02*
Y64281D01*
X90472Y57795D02*
Y64281D01*
X89941Y57864D02*
Y59469D01*
X89882Y57864D02*
Y59413D01*
X90118Y57824D02*
Y59752D01*
X90059Y57849D02*
Y59636D01*
X90000Y57861D02*
Y59540D01*
X90590Y55955D02*
Y57008D01*
X90649Y55989D02*
Y57003D01*
X90295Y56889D02*
Y57008D01*
X90305Y56580D02*
Y56806D01*
X90472Y55833D02*
Y57008D01*
X90531Y55906D02*
Y57008D01*
X90354Y54449D02*
Y57008D01*
X90413Y55689D02*
Y57008D01*
X90241D02*
X90640D01*
X89823Y57864D02*
Y59368D01*
X89611Y57864D02*
X89956D01*
X93845Y56575D02*
X95777D01*
X93857Y56516D02*
X95777D01*
X93753Y56693D02*
X95777D01*
X93814Y56634D02*
X95777D01*
X93798Y56338D02*
X95777D01*
X93716Y56279D02*
X95777D01*
X93855Y56457D02*
X95777D01*
X93837Y56398D02*
X95777D01*
X91669Y55807D02*
X95777D01*
X91696Y55748D02*
X95777D01*
X91574Y55925D02*
X95777D01*
X91630Y55866D02*
X95777D01*
X91722Y55571D02*
X95777D01*
X91714Y55512D02*
X95777D01*
X91713Y55689D02*
X95777D01*
X91721Y55630D02*
X95777D01*
X91633Y55335D02*
X95777D01*
X95151Y54567D02*
X95777D01*
X91697Y55453D02*
X95777D01*
X91671Y55394D02*
X95777D01*
X95560Y54272D02*
X95777D01*
X95585Y54212D02*
X95777D01*
X95333Y54508D02*
X95777D01*
X95481Y54390D02*
X95777D01*
X91496Y55039D02*
X95777D01*
X91496Y54921D02*
X95777D01*
X91578Y55275D02*
X95777D01*
X91496Y55098D02*
X95777D01*
X91496Y54685D02*
X95777D01*
X91496Y54626D02*
X95777D01*
X91496Y54744D02*
X95777D01*
X95420Y54449D02*
X95777D01*
X93194D02*
X94737D01*
X93277Y54390D02*
X94676D01*
X92205Y54488D02*
X93032D01*
X91712Y54468D02*
Y55506D01*
X91653Y54468D02*
Y55364D01*
X91594Y54468D02*
Y55291D01*
X91535Y54468D02*
Y55242D01*
X95526Y54331D02*
X95777D01*
X95602Y54153D02*
X95777D01*
X93386Y54094D02*
X94525D01*
X95612D02*
X95777D01*
X95615Y54035D02*
X95777D01*
X95612Y53976D02*
X95777D01*
X93386Y53898D02*
Y54134D01*
X95602Y53917D02*
X95777D01*
X93326Y54331D02*
X94631D01*
X93358Y54272D02*
X94597D01*
X93377Y54212D02*
X94573D01*
X93385Y54153D02*
X94556D01*
X93386Y54035D02*
X94466D01*
X93386Y53976D02*
X94407D01*
X93386Y53917D02*
X94348D01*
X95585Y53858D02*
X95777D01*
X95560Y53799D02*
X95777D01*
X95526Y53740D02*
X95777D01*
X93838Y53408D02*
Y56401D01*
X93779Y53348D02*
Y56320D01*
X93720Y53307D02*
Y56281D01*
X93602Y53307D02*
Y56261D01*
X93384Y53858D02*
X94289D01*
X93372Y53799D02*
X94230D01*
X93349Y53740D02*
X94171D01*
X93484Y53307D02*
Y56304D01*
X93543Y53307D02*
Y56273D01*
X93425Y53307D02*
Y56366D01*
X93366Y53307D02*
Y53781D01*
X95481Y53681D02*
X95777D01*
X95420Y53622D02*
X95777D01*
X93312Y53681D02*
X94112D01*
X95332Y53563D02*
X95777D01*
X95041Y53386D02*
X95777D01*
X94982Y53327D02*
X95777D01*
X95160Y53504D02*
X95777D01*
X95101Y53445D02*
X95777D01*
X93254Y53622D02*
X94053D01*
X93148Y53563D02*
X93994D01*
X93071Y53344D02*
Y53545D01*
X92205Y53543D02*
X93032D01*
X93189Y53310D02*
Y53580D01*
X93148Y53327D02*
X93758D01*
X93130Y53333D02*
Y53557D01*
X92716Y53346D02*
Y53543D01*
X92775Y53346D02*
Y53543D01*
X92185Y53346D02*
Y53544D01*
X92067Y53346D02*
Y53571D01*
X92126Y53346D02*
Y53552D01*
X91949Y53346D02*
Y53602D01*
X92008Y53346D02*
Y53602D01*
X91653Y53346D02*
Y53602D01*
X91712Y53346D02*
Y53602D01*
X91535Y53346D02*
Y53602D01*
X91594Y53346D02*
Y53602D01*
X91831Y53346D02*
Y53602D01*
X91890Y53346D02*
Y53602D01*
X91771Y53346D02*
Y53602D01*
X92953Y53346D02*
Y53543D01*
X93012Y53346D02*
Y53543D01*
X92834Y53346D02*
Y53543D01*
X92894Y53346D02*
Y53543D01*
X92657Y53346D02*
Y53543D01*
X92638Y53346D02*
X92764D01*
X92539Y53346D02*
Y53543D01*
X92598Y53346D02*
Y53543D01*
X92421Y53346D02*
Y53543D01*
X92480Y53346D02*
Y53543D01*
X92303Y53346D02*
Y53543D01*
X92362Y53346D02*
Y53543D01*
X92205Y53346D02*
X93032D01*
X92204Y53346D02*
X92638D01*
X92244Y53346D02*
Y53543D01*
X90305Y56752D02*
X95777D01*
X90305Y56693D02*
X93491D01*
X90305Y56634D02*
X93430D01*
X90305Y56575D02*
X93399D01*
X90299Y56516D02*
X93387D01*
X90837Y56031D02*
X91289D01*
X90208Y56338D02*
X93446D01*
X90134Y56279D02*
X93528D01*
X90283Y56457D02*
X93389D01*
X90254Y56398D02*
X93407D01*
X88056Y56102D02*
X95777D01*
X85277Y56043D02*
X95777D01*
X88484Y56220D02*
X95777D01*
X88056Y56161D02*
X95777D01*
X91496Y55157D02*
X95777D01*
X91496Y54980D02*
X95777D01*
X91486Y55984D02*
X95777D01*
X91496Y55216D02*
X95777D01*
X91496Y54862D02*
X95777D01*
X91496Y54803D02*
X95777D01*
X90325D02*
X90630D01*
X90325Y54744D02*
X90630D01*
X85336Y55984D02*
X90640D01*
X90058Y55216D02*
X90630D01*
X90184Y55157D02*
X90630D01*
X90246Y55098D02*
X90630D01*
X90309Y54980D02*
X90630D01*
X90325Y54862D02*
X90630D01*
X90285Y55039D02*
X90630D01*
X90059Y55216D02*
Y56246D01*
X90000Y55226D02*
Y56233D01*
X89941Y55226D02*
Y56230D01*
X90295Y55018D02*
Y56497D01*
X90236Y55110D02*
Y56371D01*
X90177Y55162D02*
Y56309D01*
X90118Y55196D02*
Y56270D01*
X85395Y55925D02*
X90552D01*
X85454Y55866D02*
X90496D01*
X89611Y56230D02*
X89956D01*
X89823Y55226D02*
Y56230D01*
X89882Y55226D02*
Y56230D01*
X89764Y55226D02*
Y56230D01*
X88050Y55335D02*
X90493D01*
X88055Y55275D02*
X90548D01*
X88037Y55394D02*
X90455D01*
X89631Y55226D02*
X89975D01*
X90322Y54921D02*
X90630D01*
X85513Y55807D02*
X90457D01*
X87728Y55748D02*
X90430D01*
X87833Y55689D02*
X90413D01*
X87902Y55630D02*
X90405D01*
X87990Y55512D02*
X90412D01*
X88018Y55453D02*
X90429D01*
X87952Y55571D02*
X90404D01*
X91496Y54567D02*
X95007D01*
X91496Y54508D02*
X94825D01*
X91496Y54468D02*
Y55218D01*
Y54468D02*
X92088D01*
X91476Y53346D02*
Y53602D01*
X91395D02*
X92009D01*
X91417Y53346D02*
Y53602D01*
X91358Y53346D02*
Y53578D01*
X90116Y53622D02*
X90737D01*
X91332Y53563D02*
X92089D01*
X90325Y54685D02*
X90630D01*
X90184Y53661D02*
X90694D01*
X90768Y53346D02*
Y53599D01*
X90649Y53346D02*
Y53661D01*
X90708Y53346D02*
Y53648D01*
X91299Y53346D02*
Y53547D01*
X91149Y53504D02*
X93935D01*
X91240Y53346D02*
Y53524D01*
X91181Y53346D02*
Y53509D01*
X91122Y53346D02*
Y53501D01*
X91063Y53346D02*
Y53499D01*
X90945Y53346D02*
Y53516D01*
X91004Y53346D02*
Y53504D01*
X87919Y53445D02*
X93876D01*
X88274Y53386D02*
X93817D01*
X87997Y53563D02*
X90825D01*
X87965Y53504D02*
X91009D01*
X90886Y53346D02*
Y53535D01*
X88333Y53346D02*
X92204D01*
X90827D02*
Y53562D01*
X90531Y54449D02*
Y55291D01*
X90590Y54449D02*
Y55242D01*
X90472Y54449D02*
Y55364D01*
X90325Y54651D02*
Y54877D01*
X90630Y54449D02*
Y55218D01*
X90531Y53346D02*
Y53661D01*
X90413Y54449D02*
Y55507D01*
Y53346D02*
Y53661D01*
X90315Y54567D02*
X90630D01*
X90294Y54508D02*
X90630D01*
X90324Y54626D02*
X90630D01*
X90261Y54449D02*
X90630D01*
X90295D02*
Y54510D01*
X90236Y53346D02*
Y53661D01*
X90177Y53346D02*
Y53657D01*
X90118Y53346D02*
Y53623D01*
X90059Y53346D02*
Y53603D01*
X90472Y53346D02*
Y53661D01*
X90590Y53346D02*
Y53661D01*
X90295Y53346D02*
Y53661D01*
X90354Y53346D02*
Y53661D01*
X90000Y53346D02*
Y53593D01*
X89941Y53346D02*
Y53593D01*
X89631D02*
X89975D01*
X89823Y53346D02*
Y53593D01*
X89882Y53346D02*
Y53593D01*
X89764Y53346D02*
Y53593D01*
X89468Y60820D02*
Y64281D01*
X89527Y60814D02*
Y64281D01*
X89350Y60817D02*
Y64281D01*
X89409Y60821D02*
Y64281D01*
X89705Y60764D02*
Y64281D01*
X89764Y60735D02*
Y64281D01*
X89586Y60803D02*
Y64281D01*
X89645Y60786D02*
Y64281D01*
X89232Y60794D02*
Y64281D01*
X89291Y60808D02*
Y64281D01*
X89114Y60749D02*
Y64281D01*
X89173Y60775D02*
Y64281D01*
X88760Y60375D02*
Y64281D01*
X89055Y60717D02*
Y64281D01*
X88642Y59850D02*
Y64281D01*
X88701Y60220D02*
Y64281D01*
X88937Y60626D02*
Y64281D01*
X88996Y60676D02*
Y64281D01*
X88819Y60479D02*
Y64281D01*
X88878Y60563D02*
Y64281D01*
X89705Y57864D02*
Y59304D01*
X89645Y57864D02*
Y59282D01*
X89173Y59150D02*
Y59293D01*
X88439Y59882D02*
X88693D01*
X88523Y63835D02*
Y64281D01*
X88582Y63611D02*
Y64281D01*
Y59865D02*
Y63255D01*
X88405Y64065D02*
Y64281D01*
X88464Y63966D02*
Y64281D01*
X88287Y64214D02*
Y64281D01*
X88346Y64146D02*
Y64281D01*
X88523Y59875D02*
Y63031D01*
X88464Y59881D02*
Y62900D01*
X88405Y59882D02*
Y62801D01*
X88346Y59878D02*
Y62720D01*
X88287Y59869D02*
Y62652D01*
X88228Y59855D02*
Y62593D01*
X88169Y59837D02*
Y62542D01*
X88110Y59812D02*
Y62498D01*
X88051Y59782D02*
Y62459D01*
X87992Y59744D02*
Y62426D01*
X87933Y59697D02*
Y62396D01*
X87874Y59639D02*
Y62371D01*
X87815Y59566D02*
Y62350D01*
X87756Y59468D02*
Y62332D01*
X87165Y59243D02*
Y62329D01*
X87697Y59304D02*
Y62317D01*
X87167Y59232D02*
X87684D01*
X87169Y59055D02*
X87681D01*
X87172Y59173D02*
X87678D01*
X87173Y59114D02*
X87677D01*
X87121Y59409D02*
X87730D01*
X87141Y59350D02*
X87709D01*
X87106Y59444D02*
Y62346D01*
X87156Y59291D02*
X87694D01*
X87147Y58937D02*
X87704D01*
X87128Y58878D02*
X87722D01*
X87160Y58996D02*
X87690D01*
X89764Y57864D02*
Y59332D01*
X89586Y57863D02*
Y59265D01*
X89527Y57854D02*
Y59254D01*
X89468Y57835D02*
Y59248D01*
X89350Y57835D02*
Y59250D01*
X89409Y57835D02*
Y59247D01*
X89232Y57835D02*
Y59273D01*
X89291Y57835D02*
Y59259D01*
X89173Y57835D02*
Y59118D01*
X89114Y57835D02*
Y58842D01*
X89055Y57832D02*
Y58730D01*
X88996Y57821D02*
Y58650D01*
X88937Y57801D02*
Y58588D01*
X88878Y57771D02*
Y58538D01*
X88819Y57727D02*
Y58498D01*
X88760Y57669D02*
Y58465D01*
X89244Y56929D02*
X89284D01*
X89185Y56870D02*
X89268D01*
X89126Y56811D02*
X89262D01*
X89262Y56580D02*
Y56806D01*
X89232Y53346D02*
Y56917D01*
X89173Y53346D02*
Y56858D01*
X89104Y57835D02*
X89471D01*
X88701Y57610D02*
Y58438D01*
X88633Y56318D02*
X89284Y56968D01*
X89114Y53346D02*
Y56799D01*
X88147Y57057D02*
X88798Y57708D01*
X87638Y57160D02*
Y62306D01*
X87697Y57160D02*
Y58964D01*
X87579Y57160D02*
Y62298D01*
X87520Y57160D02*
Y62293D01*
X87874Y57160D02*
Y58628D01*
X87933Y57160D02*
Y58571D01*
X87756Y57160D02*
Y58800D01*
X87815Y57160D02*
Y58701D01*
X87224Y57160D02*
Y62315D01*
X87283Y57160D02*
Y62304D01*
X87165Y57160D02*
Y59024D01*
X87106Y57160D02*
Y58824D01*
X87401Y57160D02*
Y62293D01*
X87460Y57160D02*
Y62291D01*
X87342Y57160D02*
Y62297D01*
X88642Y57551D02*
Y58418D01*
X88582Y57492D02*
Y58403D01*
X88523Y57433D02*
Y58392D01*
X88464Y57374D02*
Y58387D01*
X88346Y57256D02*
Y58390D01*
X88405Y57315D02*
Y58386D01*
X88228Y57138D02*
Y58412D01*
X88287Y57197D02*
Y58399D01*
X88169Y57079D02*
Y58431D01*
X88056Y57106D02*
X88196D01*
X87992Y57160D02*
Y58524D01*
X88051Y57160D02*
Y58486D01*
X88110Y57057D02*
Y58455D01*
X88056Y57057D02*
X88147D01*
X88056D02*
Y57160D01*
X86634Y64226D02*
Y64281D01*
Y59852D02*
Y62640D01*
X86575Y64160D02*
Y64281D01*
Y59867D02*
Y62706D01*
X86811Y59775D02*
Y62490D01*
X86870Y59735D02*
Y62452D01*
X86693Y59832D02*
Y62583D01*
X86752Y59807D02*
Y62533D01*
X86516Y64082D02*
Y64281D01*
X86397Y63864D02*
Y64281D01*
X86457Y63987D02*
Y64281D01*
Y59881D02*
Y62879D01*
X86516Y59876D02*
Y62784D01*
X86338Y59877D02*
Y63193D01*
X86397Y59881D02*
Y63002D01*
X86971Y59646D02*
X87880D01*
X87021Y59587D02*
X87830D01*
X86929Y59687D02*
Y62420D01*
X86988Y59627D02*
Y62391D01*
X87061Y59527D02*
X87789D01*
X87094Y59468D02*
X87756D01*
X87047Y59550D02*
Y62367D01*
X87104Y58819D02*
X87747D01*
X86439Y59882D02*
X88412D01*
X86717Y59823D02*
X88134D01*
X86829Y59764D02*
X88022D01*
X86909Y59705D02*
X87942D01*
X86279Y59868D02*
Y64281D01*
X86338Y63673D02*
Y64281D01*
X86161Y59834D02*
Y64281D01*
X86220Y59853D02*
Y64281D01*
X86043Y59777D02*
Y64281D01*
X86102Y59809D02*
Y64281D01*
X85925Y59690D02*
Y64281D01*
X85984Y59738D02*
Y64281D01*
X85807Y59555D02*
Y64281D01*
X85866Y59631D02*
Y64281D01*
X85039Y59561D02*
Y64281D01*
X85098Y59460D02*
Y64281D01*
X85689Y59265D02*
Y64281D01*
X85748Y59451D02*
Y64281D01*
X85157Y59287D02*
Y64281D01*
X85141Y59350D02*
X85709D01*
X85156Y59291D02*
X85694D01*
X85167Y59232D02*
X85684D01*
X85172Y59173D02*
X85678D01*
X85160Y58996D02*
X85690D01*
X85147Y58937D02*
X85704D01*
X85173Y59114D02*
X85677D01*
X85169Y59055D02*
X85681D01*
X85021Y59587D02*
X85830D01*
X85061Y59527D02*
X85789D01*
X85094Y59468D02*
X85756D01*
X85121Y59409D02*
X85730D01*
X85104Y58819D02*
X85747D01*
X85073Y58760D02*
X85777D01*
X85128Y58878D02*
X85722D01*
X86988Y58642D02*
X87862D01*
X86931Y58583D02*
X87920D01*
X87073Y58760D02*
X87777D01*
X87035Y58701D02*
X87815D01*
X87047Y57160D02*
Y58718D01*
X86988Y57160D02*
Y58641D01*
X86929Y57057D02*
Y58581D01*
X86870Y57057D02*
Y58532D01*
X86759Y58464D02*
X88091D01*
X86595Y58405D02*
X88255D01*
X86858Y58524D02*
X87993D01*
X86811Y57057D02*
Y58493D01*
X86752Y57057D02*
Y58461D01*
X86693Y57089D02*
Y58435D01*
X86634Y57148D02*
Y58415D01*
X86557Y57224D02*
X88315D01*
X86616Y57165D02*
X88256D01*
X86575Y57207D02*
Y58401D01*
X86983Y57160D02*
X88056D01*
X86983Y57057D02*
Y57160D01*
X86676Y57106D02*
X86983D01*
X86527Y57255D02*
X86725Y57057D01*
X86983D01*
X85194Y57461D02*
X88551D01*
X85321Y57401D02*
X88492D01*
X86401Y57342D02*
X88433D01*
X86496Y57283D02*
X88374D01*
X86516Y57266D02*
Y58391D01*
X85807Y57382D02*
Y58713D01*
X85689Y57382D02*
Y59002D01*
X85748Y57382D02*
Y58816D01*
X85571Y57382D02*
Y64281D01*
X85630Y57382D02*
Y64281D01*
X85453Y57382D02*
Y64281D01*
X85512Y57382D02*
Y64281D01*
X85216Y57453D02*
Y64281D01*
X85157Y57471D02*
Y58980D01*
X85098Y57481D02*
Y58807D01*
X85039Y57485D02*
Y58707D01*
X85334Y57393D02*
Y64281D01*
X85394Y57382D02*
Y64281D01*
X85275Y57427D02*
Y64281D01*
X86161Y57382D02*
Y58434D01*
X86220Y57382D02*
Y58414D01*
X86043Y57382D02*
Y58491D01*
X86102Y57382D02*
Y58459D01*
X86457Y57312D02*
Y58386D01*
X86397Y57344D02*
Y58386D01*
X86279Y57378D02*
Y58400D01*
X86338Y57366D02*
Y58391D01*
X84988Y58642D02*
X85862D01*
X85925Y57382D02*
Y58578D01*
X85035Y58701D02*
X85815D01*
X84980Y57482D02*
Y58632D01*
X85984Y57382D02*
Y58530D01*
X85350Y57382D02*
X86220D01*
X85866D02*
Y58637D01*
X89645Y55226D02*
Y56230D01*
X89705Y55226D02*
Y56230D01*
X89527Y55211D02*
Y56241D01*
X89586Y55224D02*
Y56231D01*
X89409Y55147D02*
Y56295D01*
X89468Y55186D02*
Y56261D01*
X89291Y54959D02*
Y56440D01*
X89350Y55085D02*
Y56347D01*
X88713Y56398D02*
X89313D01*
X88654Y56338D02*
X89358D01*
X88831Y56516D02*
X89268D01*
X88772Y56457D02*
X89284D01*
X88589Y56279D02*
X89433D01*
X88055Y55216D02*
X89548D01*
X88047Y55157D02*
X89422D01*
X88033Y55098D02*
X89361D01*
X88011Y55039D02*
X89321D01*
X87981Y54980D02*
X89297D01*
X89350Y54376D02*
Y54443D01*
X87940Y54921D02*
X89284D01*
X89282Y54651D02*
Y54877D01*
X87685Y54744D02*
X89282D01*
X87245Y54567D02*
X89292D01*
X87886Y54862D02*
X89282D01*
X87810Y54803D02*
X89282D01*
X87363Y54449D02*
X89346D01*
X87422Y54390D02*
X89361D01*
X87304Y54508D02*
X89312D01*
X88949Y56634D02*
X89262D01*
X88890Y56575D02*
X89262D01*
X89067Y56752D02*
X89262D01*
X89008Y56693D02*
X89262D01*
X88056Y56088D02*
Y56191D01*
X88327D01*
X87815Y55702D02*
Y56088D01*
X87874Y55657D02*
Y56088D01*
X87697Y55760D02*
Y56088D01*
X87756Y55735D02*
Y56088D01*
X87992Y55508D02*
Y56088D01*
X88051Y55326D02*
Y56088D01*
X87933Y55596D02*
Y56088D01*
X87579Y55787D02*
Y56088D01*
X87638Y55777D02*
Y56088D01*
X87460Y55787D02*
Y56088D01*
X87520Y55790D02*
Y56088D01*
X87401Y54410D02*
Y54731D01*
X87342Y55760D02*
Y56088D01*
X87401Y55777D02*
Y56088D01*
X87224Y55701D02*
Y56088D01*
X87283Y55735D02*
Y56088D01*
Y54529D02*
Y54773D01*
X87342Y54469D02*
Y54748D01*
X87224Y54588D02*
Y54807D01*
X89291Y54250D02*
Y54569D01*
X89055Y53346D02*
Y56740D01*
X89282Y53942D02*
Y54168D01*
X88996Y53346D02*
Y56681D01*
X88937Y53346D02*
Y56622D01*
X88878Y53346D02*
Y56563D01*
X88819Y53346D02*
Y56504D01*
X87481Y54331D02*
X89321D01*
X87540Y54272D02*
X89297D01*
X87599Y54212D02*
X89284D01*
X87738Y54153D02*
X89282D01*
X87853Y54094D02*
X89282D01*
X87920Y54035D02*
X89282D01*
X88760Y53346D02*
Y56444D01*
X87965Y53976D02*
X89282D01*
X89409Y53346D02*
Y53672D01*
X89468Y53346D02*
Y53633D01*
X89291Y53346D02*
Y53860D01*
X89350Y53346D02*
Y53734D01*
X89645Y53346D02*
Y53593D01*
X89705Y53346D02*
Y53593D01*
X89527Y53346D02*
Y53608D01*
X89586Y53346D02*
Y53595D01*
X88031Y53799D02*
X89312D01*
X88035Y53740D02*
X89346D01*
X87997Y53917D02*
X89282D01*
X88018Y53858D02*
X89292D01*
X88018Y53622D02*
X89491D01*
X88031Y53681D02*
X89399D01*
X88464Y53346D02*
Y56213D01*
X88405Y53346D02*
Y56198D01*
X88346Y53346D02*
Y56191D01*
X88287Y53378D02*
Y56191D01*
X88701Y53346D02*
Y56385D01*
X88642Y53346D02*
Y56326D01*
X88582Y53346D02*
Y56275D01*
X88523Y53346D02*
Y56238D01*
X88051Y53425D02*
Y55182D01*
X87992Y53928D02*
Y55000D01*
X87933Y54020D02*
Y54912D01*
X87874Y54078D02*
Y54851D01*
X88169Y53421D02*
Y56191D01*
X88228Y53406D02*
Y56191D01*
X88110Y53425D02*
Y56191D01*
X87815Y54119D02*
Y54806D01*
X87933Y53425D02*
Y53460D01*
X87756Y54147D02*
Y54773D01*
X87697Y54165D02*
Y54748D01*
X87908Y53425D02*
X88115D01*
X87992D02*
Y53552D01*
X87579Y54233D02*
Y54721D01*
X87205Y54607D02*
X87637Y54175D01*
X87460Y54351D02*
Y54721D01*
X87520Y54292D02*
Y54718D01*
X87638Y54175D02*
Y54731D01*
X87224Y53425D02*
Y53516D01*
X87165Y55656D02*
Y56088D01*
X86983D02*
X88056D01*
X86983D02*
Y56191D01*
X87106Y55595D02*
Y56088D01*
X87047Y55507D02*
Y56088D01*
X86693Y54705D02*
Y56191D01*
X86988Y55324D02*
Y56088D01*
X85217Y56102D02*
X86983D01*
X85566Y55748D02*
X87311D01*
X86545Y56191D02*
X86983D01*
X85158Y56161D02*
X86983D01*
X85600Y55689D02*
X87206D01*
X85621Y55630D02*
X87137D01*
X86634Y54705D02*
Y56191D01*
X85629Y55571D02*
X87087D01*
X85814Y55335D02*
X86990D01*
X85825Y55275D02*
X86984D01*
X85827Y55216D02*
X86985D01*
X85827Y55039D02*
X87028D01*
X85822Y54980D02*
X87059D01*
X85827Y55157D02*
X86992D01*
X85827Y55098D02*
X87007D01*
X85692Y55512D02*
X87049D01*
X85807Y54921D02*
X87099D01*
X85753Y55453D02*
X87022D01*
X85791Y55394D02*
X87002D01*
X85736Y54803D02*
X87230D01*
X85716Y54744D02*
X87354D01*
X85780Y54862D02*
X87154D01*
X85571Y55741D02*
Y56516D01*
X86041D02*
X86239Y56318D01*
X85453Y55867D02*
Y56516D01*
X85512Y55808D02*
Y56516D01*
X85748Y55459D02*
Y56516D01*
X85807Y55356D02*
Y56516D01*
X85630Y55562D02*
Y56516D01*
X85689Y55514D02*
Y56516D01*
X85350Y56516D02*
X86041D01*
X85246Y56457D02*
X86100D01*
X85350Y56516D02*
X86041D01*
X85216Y56103D02*
Y56445D01*
X85394Y55926D02*
Y56516D01*
X85334Y55985D02*
Y56505D01*
X85275Y56044D02*
Y56470D01*
X85827Y55034D02*
Y55241D01*
X85748Y54711D02*
Y54817D01*
X84981Y56338D02*
X86218D01*
X85040Y56279D02*
X86283D01*
X84980Y56340D02*
Y56415D01*
X85039Y56281D02*
Y56413D01*
X85157Y56162D02*
Y56427D01*
X85099Y56220D02*
X86388D01*
X85098Y56221D02*
Y56417D01*
X87106Y54675D02*
Y54913D01*
X87082Y54685D02*
X89282D01*
X86988Y54704D02*
Y55184D01*
X87047Y54695D02*
Y55001D01*
X87184Y54626D02*
X89282D01*
X87165Y54641D02*
Y54852D01*
X86988Y53378D02*
Y53877D01*
X85753Y54705D02*
X86968D01*
X86929D02*
Y56191D01*
X86681Y53976D02*
X86889D01*
X86830Y54035D02*
X87164Y53701D01*
X86733Y53858D02*
X87007D01*
X86929Y53346D02*
Y53936D01*
X86711Y53917D02*
X86948D01*
X87160Y53425D02*
X87297D01*
X87106Y53421D02*
Y53759D01*
X87165Y53425D02*
Y53689D01*
X87047Y53406D02*
Y53818D01*
X86757Y53386D02*
X87002D01*
X86757Y53346D02*
X86943D01*
X86756Y53681D02*
X87166D01*
X86751Y53622D02*
X87179D01*
X86748Y53799D02*
X87066D01*
X86755Y53740D02*
X87125D01*
X86719Y53504D02*
X87232D01*
X86757Y53445D02*
X87277D01*
X86739Y53563D02*
X87200D01*
X86397Y54705D02*
Y56217D01*
X86457Y54705D02*
Y56200D01*
X86279Y54705D02*
Y56282D01*
X86338Y54705D02*
Y56244D01*
X86811Y54705D02*
Y56191D01*
X86870Y54705D02*
Y56191D01*
X86516Y54705D02*
Y56192D01*
X86752Y54705D02*
Y56191D01*
X85984Y54705D02*
Y56516D01*
X86043Y54705D02*
Y56514D01*
X85866Y54705D02*
Y56516D01*
X85925Y54705D02*
Y56516D01*
X86161Y54705D02*
Y56396D01*
X86220Y54705D02*
Y56337D01*
X86102Y54705D02*
Y56455D01*
X86752Y53773D02*
Y54035D01*
X86693Y53955D02*
Y54035D01*
X86752Y53450D02*
Y53628D01*
X86811Y53346D02*
Y54035D01*
X86870Y53346D02*
Y53995D01*
X86757Y53346D02*
Y53450D01*
X86694D02*
X86757D01*
X86575Y54705D02*
Y56191D01*
X86639Y54035D02*
X86830D01*
X85807Y54705D02*
Y54920D01*
X86640Y54035D02*
X86830D01*
X94805Y53149D02*
X95777D01*
X94687Y53031D02*
X95777D01*
X94923Y53268D02*
X95777D01*
X94864Y53209D02*
X95777D01*
X94510Y52854D02*
X95777D01*
X94451Y52795D02*
X95777D01*
X94628Y52972D02*
X95777D01*
X94569Y52913D02*
X95777D01*
X94409Y52618D02*
X95777D01*
X94409Y52559D02*
X95777D01*
X94409Y52736D02*
X95777D01*
X94409Y52677D02*
X95777D01*
X94409Y52382D02*
X95777D01*
X94409Y52323D02*
X95777D01*
X94409Y52500D02*
X95777D01*
X94409Y52441D02*
X95777D01*
X94532Y51732D02*
X95777D01*
X94532Y51673D02*
X95777D01*
X94532Y51850D02*
X95777D01*
X94532Y51791D02*
X95777D01*
X94532Y51496D02*
X95777D01*
X94532Y51437D02*
X95777D01*
X94532Y51614D02*
X95777D01*
X94532Y51555D02*
X95777D01*
X94409Y52146D02*
X95777D01*
X94532Y52087D02*
X95777D01*
X94409Y52264D02*
X95777D01*
X94409Y52205D02*
X95777D01*
X94532Y51968D02*
X95777D01*
X94532Y51909D02*
X95777D01*
X94532Y52027D02*
X95777D01*
X94409Y52754D02*
X95161Y53506D01*
X94746Y53090D02*
X95777D01*
X93661Y53307D02*
Y56263D01*
X93738Y53307D02*
X94549Y54118D01*
X94488Y52111D02*
Y52832D01*
X94429Y52111D02*
Y52773D01*
X94409Y52111D02*
Y52754D01*
X93543Y52111D02*
Y52441D01*
X93307Y53307D02*
Y53675D01*
X93194Y53307D02*
X93738D01*
X93248D02*
Y53617D01*
X93543Y52111D02*
Y52441D01*
X93194D02*
X93543D01*
X93484Y52111D02*
Y52441D01*
X93194Y52441D02*
X93543D01*
X94409Y52111D02*
X94532D01*
X93460D02*
X93543D01*
X93153Y51673D02*
X93460D01*
X93156Y51496D02*
X93460D01*
X93144Y51437D02*
X93460D01*
X93161Y51614D02*
X93460D01*
X93162Y51555D02*
X93460D01*
X93045Y51909D02*
X93460D01*
X93086Y51850D02*
X93460D01*
X93071Y51875D02*
Y52404D01*
X93012Y51947D02*
Y52402D01*
X93117Y51791D02*
X93460D01*
X93139Y51732D02*
X93460D01*
X93130Y51759D02*
Y52415D01*
X95551Y47749D02*
Y53781D01*
X95492Y47804D02*
Y53694D01*
X95433Y47852D02*
Y53633D01*
X95374Y47894D02*
Y53588D01*
X95728Y47528D02*
Y64281D01*
X95777Y47442D02*
Y64281D01*
X95669Y47614D02*
Y64281D01*
X95610Y47686D02*
Y53963D01*
X95079Y48039D02*
Y53423D01*
X95020Y48057D02*
Y53364D01*
X94960Y48072D02*
Y53305D01*
X94901Y48084D02*
Y53246D01*
X95315Y47931D02*
Y53554D01*
X95256Y47964D02*
Y53529D01*
X95197Y47993D02*
Y53512D01*
X95138Y48018D02*
Y53482D01*
X94724Y48101D02*
Y53068D01*
X94532Y51378D02*
X95777D01*
X94665Y48101D02*
Y53009D01*
X94532Y51039D02*
Y52111D01*
X94842Y48092D02*
Y53187D01*
X94783Y48098D02*
Y53128D01*
X94606Y48098D02*
Y52950D01*
X94547Y48093D02*
Y52891D01*
X94532Y51201D02*
X95777D01*
X94532Y51142D02*
X95777D01*
X94532Y51319D02*
X95777D01*
X94532Y51260D02*
X95777D01*
X94532Y51083D02*
X95777D01*
X93460Y51039D02*
X94532D01*
X94488Y48084D02*
Y51039D01*
X94134Y47966D02*
Y51039D01*
X94193Y47994D02*
Y51039D01*
X93425Y43593D02*
Y52441D01*
X93460Y51039D02*
Y52111D01*
X93307Y43593D02*
Y52441D01*
X93366Y43593D02*
Y52441D01*
X93248Y43593D02*
Y52441D01*
X93189Y43593D02*
Y52438D01*
X93060Y51260D02*
X93460D01*
X93010Y51201D02*
X93460D01*
X93125Y51378D02*
X93460D01*
X93097Y51319D02*
X93460D01*
X93130Y43593D02*
Y51391D01*
X93071Y46004D02*
Y51275D01*
X93012Y46024D02*
Y51202D01*
X94370Y48058D02*
Y51039D01*
X94429Y48072D02*
Y51039D01*
X94252Y48019D02*
Y51039D01*
X94311Y48040D02*
Y51039D01*
X94016Y47896D02*
Y51039D01*
X94075Y47933D02*
Y51039D01*
X93897Y47806D02*
Y51039D01*
X93956Y47854D02*
Y51039D01*
X93779Y47690D02*
Y51039D01*
X93838Y47752D02*
Y51039D01*
X93661Y47533D02*
Y51039D01*
X93720Y47618D02*
Y51039D01*
X93543Y47290D02*
Y51039D01*
X93602Y47428D02*
Y51039D01*
X93484Y47048D02*
Y51039D01*
X92657Y52110D02*
Y52402D01*
X92716Y52103D02*
Y52402D01*
X92539Y52104D02*
Y52402D01*
X92598Y52110D02*
Y52402D01*
X92894Y52040D02*
Y52402D01*
X92953Y52000D02*
Y52402D01*
X92775Y52090D02*
Y52402D01*
X92834Y52069D02*
Y52402D01*
X86123Y52323D02*
X93543D01*
X86064Y52264D02*
X93543D01*
X92205Y52402D02*
X93032D01*
X86757Y52382D02*
X93543D01*
X92480Y52091D02*
Y52402D01*
X86005Y52205D02*
X93543D01*
X92362Y52042D02*
Y52402D01*
X92421Y52070D02*
Y52402D01*
X92786Y52087D02*
X93460D01*
X92914Y52027D02*
X93460D01*
X92990Y51968D02*
X93460D01*
X92942Y51142D02*
X93460D01*
X92839Y51083D02*
X93460D01*
X85946Y52146D02*
X93543D01*
X85887Y52087D02*
X92466D01*
X85827Y52027D02*
X92339D01*
X87933Y51024D02*
X95777D01*
X87933Y51083D02*
X92413D01*
X92244Y51951D02*
Y52402D01*
X92303Y52003D02*
Y52402D01*
X92185Y51880D02*
Y52402D01*
X92067Y51014D02*
Y52430D01*
X92126Y51768D02*
Y52410D01*
X91949Y51014D02*
Y52480D01*
X92008Y51014D02*
Y52461D01*
X85767Y51968D02*
X92262D01*
X85664Y51909D02*
X92207D01*
X88333Y52480D02*
X91982D01*
X88274Y52441D02*
X92043D01*
X91831Y51014D02*
Y52480D01*
X91890Y51014D02*
Y52480D01*
X91771Y51014D02*
Y52480D01*
X88035Y51378D02*
X92127D01*
X88031Y51319D02*
X92155D01*
X88018Y51496D02*
X92096D01*
X88031Y51437D02*
X92108D01*
X92126Y51013D02*
Y51382D01*
X88018Y51260D02*
X92192D01*
X90674Y51014D02*
X91019D01*
X91757D02*
X92101D01*
X87738Y51791D02*
X92135D01*
X87853Y51732D02*
X92113D01*
X87920Y51673D02*
X92099D01*
X87965Y51614D02*
X92091D01*
X87997Y51201D02*
X92242D01*
X87965Y51142D02*
X92310D01*
X87997Y51555D02*
X92090D01*
X92716Y46024D02*
Y51046D01*
X92657Y46024D02*
Y51039D01*
X92539Y47609D02*
Y51046D01*
X92598Y46024D02*
Y51039D01*
X92953Y46024D02*
Y51149D01*
X92894Y46024D02*
Y51110D01*
X92834Y46024D02*
Y51081D01*
X92775Y46024D02*
Y51060D01*
X92394Y50846D02*
X95777D01*
X92422Y50787D02*
X95777D01*
X92278Y50964D02*
X95777D01*
X92350Y50905D02*
X95777D01*
X92441Y50610D02*
X95777D01*
X92441Y50551D02*
X95777D01*
X92437Y50728D02*
X95777D01*
X92441Y50669D02*
X95777D01*
X92439Y49961D02*
X95777D01*
X92441Y49901D02*
X95777D01*
X92441Y50492D02*
X95777D01*
X92439Y50433D02*
X95777D01*
X92441Y49724D02*
X95777D01*
X92437Y49665D02*
X95777D01*
X92441Y49842D02*
X95777D01*
X92441Y49783D02*
X95777D01*
X92367Y50256D02*
X95777D01*
X92307Y50197D02*
X95777D01*
X92428Y50374D02*
X95777D01*
X92405Y50315D02*
X95777D01*
X92405Y50079D02*
X95777D01*
X92428Y50020D02*
X95777D01*
X92367Y50138D02*
X95777D01*
X92185Y51003D02*
Y51270D01*
X92244Y50982D02*
Y51199D01*
X91653Y50998D02*
Y52480D01*
X91712Y51011D02*
Y52480D01*
X91594Y50972D02*
Y52480D01*
X92303Y50947D02*
Y51147D01*
X91476Y50925D02*
Y52480D01*
X91535Y50931D02*
Y52480D01*
X91181Y50973D02*
Y52480D01*
X91240Y50932D02*
Y52480D01*
X91063Y51011D02*
Y52480D01*
X91122Y50998D02*
Y52480D01*
X91358Y50925D02*
Y52480D01*
X91417Y50925D02*
Y52480D01*
X91299Y50925D02*
Y52480D01*
X92421Y50789D02*
Y51079D01*
X92441Y50468D02*
Y50674D01*
X92362Y50892D02*
Y51108D01*
Y50144D02*
Y50250D01*
X92480Y47744D02*
Y51059D01*
X92421Y50041D02*
Y50353D01*
X92441Y49719D02*
Y49926D01*
X91195Y50964D02*
X91581D01*
X91247Y50925D02*
X91528D01*
X95277Y47953D02*
X95777D01*
X95374Y47894D02*
X95777D01*
X92451Y49134D02*
X95777D01*
X94965Y48071D02*
X95777D01*
X95583Y47716D02*
X95777D01*
X95455Y47835D02*
X95777D01*
X95523Y47776D02*
X95777D01*
X92451Y49193D02*
X95777D01*
X92451Y49075D02*
X95777D01*
X92450Y49311D02*
X95777D01*
X92451Y49252D02*
X95777D01*
X92451Y48484D02*
X95777D01*
X92451Y48425D02*
X95777D01*
X92448Y49016D02*
X95777D01*
X92450Y48602D02*
X95777D01*
X95721Y47539D02*
X95777D01*
X95732Y46240D02*
X95777D01*
X95635Y47657D02*
X95777D01*
X95680Y47598D02*
X95777D01*
X95599Y46063D02*
X95777D01*
X95542Y46004D02*
X95777D01*
X95693Y46181D02*
X95777D01*
X95649Y46122D02*
X95777D01*
X93071Y45650D02*
X95777D01*
X93071Y45590D02*
X95777D01*
X95476Y45945D02*
X95777D01*
X95032Y45709D02*
X95777D01*
X93071Y45472D02*
X95777D01*
X93071Y45413D02*
X95777D01*
X93071Y45531D02*
X95777D01*
X95152Y48012D02*
X95777D01*
X92542Y47598D02*
X93706D01*
X92555Y47539D02*
X93665D01*
X92562Y47480D02*
X93630D01*
X92563Y47421D02*
X93599D01*
X92558Y47362D02*
X93571D01*
X92547Y47303D02*
X93548D01*
X92451Y48543D02*
X95777D01*
X92451Y48366D02*
X95777D01*
X92451Y49060D02*
Y49286D01*
Y48351D02*
Y48578D01*
X92460Y47776D02*
X93863D01*
X92495Y47716D02*
X93803D01*
X92523Y47657D02*
X93751D01*
X92539Y46024D02*
Y47273D01*
X95400Y45886D02*
X95777D01*
X93071Y46004D02*
X93844D01*
X93071Y45945D02*
X93910D01*
X95308Y45827D02*
X95777D01*
X95193Y45768D02*
X95777D01*
X93071D02*
X94193D01*
X92530Y47244D02*
X93528D01*
X92505Y47185D02*
X93511D01*
X92480Y46024D02*
Y47138D01*
X92473Y47126D02*
X93497D01*
X93071Y45827D02*
X94078D01*
X93071Y45709D02*
X94354D01*
X93071Y45886D02*
X93987D01*
X95551Y43593D02*
Y46013D01*
X95492Y43593D02*
Y45958D01*
X95433Y43593D02*
Y45910D01*
X95374Y43593D02*
Y45868D01*
X95777Y43593D02*
Y46320D01*
X95728Y43593D02*
Y46234D01*
X95669Y43593D02*
Y46148D01*
X95610Y43593D02*
Y46076D01*
X95079Y43593D02*
Y45723D01*
X95020Y43593D02*
Y45705D01*
X94960Y43593D02*
Y45690D01*
X94901Y43593D02*
Y45678D01*
X95315Y43593D02*
Y45831D01*
X95256Y43593D02*
Y45798D01*
X95197Y43593D02*
Y45769D01*
X95138Y43593D02*
Y45744D01*
X93071Y45354D02*
X95777D01*
X93071Y45295D02*
X95777D01*
X94783Y43593D02*
Y45664D01*
X94724Y43593D02*
Y45661D01*
X94842Y43593D02*
Y45670D01*
X94665Y43593D02*
Y45661D01*
X94547Y43593D02*
Y45669D01*
X94606Y43593D02*
Y45664D01*
X93071Y45118D02*
X95777D01*
X93071Y45059D02*
X95777D01*
X93071Y45236D02*
X95777D01*
X93071Y45177D02*
X95777D01*
X93071Y44941D02*
X95777D01*
X93071Y44882D02*
X95777D01*
X93071Y45000D02*
X95777D01*
X93956Y43593D02*
Y45908D01*
X94016Y43593D02*
Y45866D01*
X93838Y43593D02*
Y46010D01*
X93897Y43593D02*
Y45955D01*
X94193Y43593D02*
Y45768D01*
X94252Y43593D02*
Y45743D01*
X94075Y43593D02*
Y45829D01*
X94134Y43593D02*
Y45796D01*
X93543Y43593D02*
Y46472D01*
X93602Y43593D02*
Y46334D01*
X93484Y43593D02*
Y46714D01*
X93071Y44862D02*
Y46004D01*
X93720Y43593D02*
Y46144D01*
X93779Y43593D02*
Y46072D01*
X93661Y43593D02*
Y46229D01*
X93071Y43593D02*
Y44862D01*
X93012Y43593D02*
Y44843D01*
X92894Y43593D02*
Y44843D01*
X92953Y43593D02*
Y44843D01*
X94429Y43593D02*
Y45689D01*
X94488Y43593D02*
Y45678D01*
X94311Y43593D02*
Y45722D01*
X94370Y43593D02*
Y45704D01*
X92598Y43593D02*
Y44843D01*
X92657Y43593D02*
Y44843D01*
X92480Y43593D02*
Y44843D01*
X92539Y43593D02*
Y44843D01*
X92775Y43593D02*
Y44843D01*
X92834Y43593D02*
Y44843D01*
X92716Y43593D02*
Y44843D01*
X92441Y49370D02*
X95777D01*
X92435Y48957D02*
X95777D01*
X92421Y49606D02*
X95777D01*
X92420Y49429D02*
X95777D01*
X92448Y48307D02*
X95777D01*
X92435Y48248D02*
X95777D01*
X92420Y48720D02*
X95777D01*
X92441Y48661D02*
X95777D01*
X92394Y49547D02*
X95777D01*
X92387Y49488D02*
X95777D01*
X92411Y48898D02*
X95777D01*
X92372Y48838D02*
X95777D01*
X92387Y48779D02*
X95777D01*
X92411Y48189D02*
X95777D01*
X92372Y48130D02*
X95777D01*
X92310Y48071D02*
X94421D01*
X92303Y47953D02*
X94109D01*
X92352Y47894D02*
X94012D01*
X92413Y47835D02*
X93931D01*
X92430Y47067D02*
X93487D01*
X92374Y47008D02*
X93479D01*
X92303Y48012D02*
X94234D01*
X92299Y46949D02*
X93474D01*
X92185Y46890D02*
X93473D01*
X91805Y46772D02*
X93478D01*
X91865Y46713D02*
X93484D01*
X91721Y46831D02*
X93474D01*
X92421Y49427D02*
Y49605D01*
Y48719D02*
Y48919D01*
Y47826D02*
Y48210D01*
X92362Y47885D02*
Y48119D01*
X92303Y47931D02*
Y48066D01*
X91535Y46901D02*
Y47045D01*
X91476Y46909D02*
Y47122D01*
X91340Y47067D02*
X91516D01*
X91417Y46911D02*
Y47189D01*
X91383Y47126D02*
X91474D01*
X91358Y46908D02*
Y47090D01*
X91299Y46898D02*
Y47022D01*
X91594Y46886D02*
Y46988D01*
X91582Y46890D02*
X91761D01*
X91284Y47008D02*
X91572D01*
X91240Y46882D02*
Y46970D01*
X91771Y46798D02*
Y46886D01*
X91831Y46748D02*
Y46868D01*
X91653Y46865D02*
Y46944D01*
X91712Y46836D02*
Y46911D01*
X91209Y46949D02*
X91647D01*
X91095Y46890D02*
X91264D01*
X91181Y46860D02*
Y46931D01*
X90631Y46831D02*
X91125D01*
X91122Y46829D02*
Y46901D01*
X91063Y46789D02*
Y46878D01*
X90715Y46772D02*
X91041D01*
X92185Y46024D02*
Y46890D01*
X92012Y46358D02*
X93590D01*
X92126Y46024D02*
Y46870D01*
X92067Y46024D02*
Y46858D01*
X92421Y46024D02*
Y47056D01*
X92362Y46024D02*
Y46997D01*
X92303Y46024D02*
Y46951D01*
X92244Y46024D02*
Y46916D01*
X91973Y46535D02*
X93523D01*
X91993Y46476D02*
X93542D01*
X91911Y46653D02*
X93494D01*
X91946Y46594D02*
X93507D01*
X92006Y46417D02*
X93564D01*
X92008Y46404D02*
Y46851D01*
X92013Y46299D02*
X93620D01*
X92185Y43593D02*
Y44843D01*
X92067Y43593D02*
Y44843D01*
X92126Y43593D02*
Y44843D01*
X92362Y43593D02*
Y44843D01*
X92421Y43593D02*
Y44843D01*
X92244Y43593D02*
Y44843D01*
X92303Y43593D02*
Y44843D01*
X91979Y46122D02*
X93737D01*
X91954Y46063D02*
X93787D01*
X92008Y46240D02*
X93654D01*
X91997Y46181D02*
X93693D01*
X91933Y46024D02*
X93051D01*
X91909Y44843D02*
X93051D01*
X91949Y46590D02*
Y46851D01*
X92008Y46024D02*
Y46237D01*
X91890Y46683D02*
Y46856D01*
X91822Y45886D02*
X91890D01*
Y44862D02*
Y45959D01*
X91890Y43593D02*
Y45959D01*
X91831Y43593D02*
Y45893D01*
X91771Y43593D02*
Y45844D01*
X91746Y45827D02*
X91890D01*
X90732Y45886D02*
X91024D01*
X90656Y45827D02*
X91100D01*
X91063Y43593D02*
Y45853D01*
X91949Y43593D02*
Y44843D01*
X92008Y43593D02*
Y44843D01*
X91712Y43593D02*
Y45806D01*
X91629Y45768D02*
X91890D01*
X91653Y43593D02*
Y45777D01*
X91594Y43593D02*
Y45756D01*
X91535Y43593D02*
Y45741D01*
X91476Y43593D02*
Y45733D01*
X90539Y45768D02*
X91217D01*
X91240Y43593D02*
Y45759D01*
X91122Y43593D02*
Y45813D01*
X91181Y43593D02*
Y45782D01*
X91358Y43593D02*
Y45734D01*
X91417Y43593D02*
Y45730D01*
X91299Y43593D02*
Y45744D01*
X90827Y51014D02*
Y52480D01*
X90886Y51014D02*
Y52480D01*
X90708Y51014D02*
Y52480D01*
X90768Y51014D02*
Y52480D01*
X90590Y51003D02*
Y52480D01*
X90649Y51013D02*
Y52480D01*
X90472Y50947D02*
Y52480D01*
X90531Y50982D02*
Y52480D01*
X89941Y51014D02*
Y52480D01*
X90000Y51008D02*
Y52480D01*
X89823Y51014D02*
Y52480D01*
X89882Y51014D02*
Y52480D01*
X90059Y50991D02*
Y52480D01*
X90118Y50961D02*
Y52480D01*
X89350Y50925D02*
Y52480D01*
X89409Y50961D02*
Y52480D01*
X90945Y51014D02*
Y52480D01*
X91004Y51014D02*
Y52480D01*
X89705Y51014D02*
Y52480D01*
X89764Y51014D02*
Y52480D01*
X89592Y51014D02*
X89936D01*
X90112Y50964D02*
X90498D01*
X89586Y51014D02*
Y52480D01*
X89645Y51014D02*
Y52480D01*
X89468Y50991D02*
Y52480D01*
X89527Y51008D02*
Y52480D01*
X88937Y51003D02*
Y52480D01*
X88996Y50982D02*
Y52480D01*
X89030Y50964D02*
X89415D01*
X89055Y50947D02*
Y52480D01*
X88760Y51014D02*
Y52480D01*
X88819Y51014D02*
Y52480D01*
X88642Y51014D02*
Y52480D01*
X88701Y51014D02*
Y52480D01*
X88582Y51014D02*
Y52480D01*
X88878Y51013D02*
Y52480D01*
X88464Y51011D02*
Y52480D01*
X88523Y51014D02*
Y52480D01*
X87606Y52500D02*
X87669D01*
X87579Y51814D02*
Y52475D01*
X88346Y50972D02*
Y52480D01*
X88405Y50998D02*
Y52480D01*
X87638Y51812D02*
Y52536D01*
X87697Y51803D02*
Y52476D01*
X88509Y51014D02*
X88853D01*
X87933Y51658D02*
Y52402D01*
X87992Y51566D02*
Y52402D01*
X88287Y50931D02*
Y52448D01*
X87947Y50964D02*
X88333D01*
X87992Y50932D02*
Y51190D01*
X87933Y50972D02*
Y51098D01*
X87526Y52441D02*
X87750D01*
X87908Y52402D02*
X88115D01*
X87520Y51807D02*
Y52438D01*
X87460Y51792D02*
Y52415D01*
X87815Y51757D02*
Y52415D01*
X87874Y51716D02*
Y52403D01*
X87756Y51785D02*
Y52438D01*
X90413Y50925D02*
Y52480D01*
X90295Y50925D02*
Y52480D01*
X90354Y50925D02*
Y52480D01*
X90293Y47126D02*
X90384D01*
X90413Y46906D02*
Y47083D01*
X90354Y46911D02*
Y47178D01*
X90295Y46910D02*
Y47130D01*
X90236Y50925D02*
Y52480D01*
X90165Y50925D02*
X90445D01*
X90177D02*
Y52480D01*
X89082Y50925D02*
X89363D01*
X89291D02*
Y52480D01*
X89203Y47126D02*
X89294D01*
X90194Y47008D02*
X90482D01*
X90119Y46949D02*
X90557D01*
X90250Y47067D02*
X90426D01*
X90236Y46903D02*
Y47050D01*
X90472Y46895D02*
Y47017D01*
X90531Y46877D02*
Y46967D01*
X90177Y46891D02*
Y46992D01*
X90118Y46871D02*
Y46948D01*
X89104Y47008D02*
X89392D01*
X89029Y46949D02*
X89467D01*
X89160Y47067D02*
X89336D01*
X89350Y46902D02*
Y47050D01*
X89409Y46888D02*
Y46992D01*
X89468Y46867D02*
Y46948D01*
X89173Y50925D02*
Y52480D01*
X89232Y50925D02*
Y52480D01*
X89114Y50925D02*
Y52480D01*
X88228Y50925D02*
Y52421D01*
X89232Y46911D02*
Y47179D01*
X89291Y46910D02*
Y47130D01*
X88169Y50925D02*
Y52406D01*
X88110Y50925D02*
Y52402D01*
X88051Y50925D02*
Y52402D01*
X87999Y50925D02*
X88280D01*
X88169Y46911D02*
Y47189D01*
X88228Y46907D02*
Y47090D01*
X89173Y46907D02*
Y47083D01*
X88113Y47126D02*
X88204D01*
X88110Y46910D02*
Y47122D01*
X89114Y46897D02*
Y47017D01*
X89055Y46881D02*
Y46967D01*
X88287Y46896D02*
Y47022D01*
X88346Y46879D02*
Y46970D01*
X88014Y47008D02*
X88302D01*
X87939Y46949D02*
X88377D01*
X88070Y47067D02*
X88246D01*
X88051Y46903D02*
Y47045D01*
X87992Y46889D02*
Y46988D01*
X87933Y46869D02*
Y46944D01*
X87401Y51767D02*
Y52403D01*
X87283Y51680D02*
Y52402D01*
X87342Y51731D02*
Y52402D01*
X87224Y51602D02*
Y52402D01*
X87264Y50972D02*
Y51098D01*
X87165Y51429D02*
Y52402D01*
X87224Y50947D02*
Y51154D01*
X87160Y52402D02*
X87367D01*
X87165Y50891D02*
Y51327D01*
X87106Y50788D02*
Y52406D01*
X87087Y50468D02*
Y50674D01*
X87165Y50143D02*
Y50250D01*
X87106Y50040D02*
Y50354D01*
X87087Y49719D02*
Y49926D01*
X87106Y49427D02*
Y49606D01*
Y48718D02*
Y48920D01*
X87077Y49060D02*
Y49286D01*
Y48351D02*
Y48578D01*
X86675Y48012D02*
X87264D01*
X86818Y47953D02*
X87264D01*
X86757Y52480D02*
X86943D01*
X86757Y52441D02*
X87002D01*
X86757Y52377D02*
Y52480D01*
X86575Y48029D02*
Y52377D01*
X86811Y47957D02*
Y52480D01*
X86752Y47985D02*
Y52377D01*
X86634Y48021D02*
Y52377D01*
X86693Y48007D02*
Y52377D01*
X86516Y48031D02*
Y52377D01*
X86177D02*
X86757D01*
X85788Y51988D02*
X86177Y52377D01*
X86457Y48028D02*
Y52377D01*
X86338Y48002D02*
Y52377D01*
X86397Y48018D02*
Y52377D01*
X86279Y47979D02*
Y52377D01*
X85571Y48015D02*
Y51890D01*
X85512Y48026D02*
Y51890D01*
X85585Y48012D02*
X86372D01*
X85728Y47953D02*
X86228D01*
X85689Y47973D02*
Y51919D01*
X85630Y47998D02*
Y51899D01*
X85453Y48031D02*
Y51890D01*
X85315D02*
X85551D01*
X85334Y48023D02*
Y51890D01*
X85394Y48030D02*
Y51890D01*
X85216Y47990D02*
Y51890D01*
X85275Y48010D02*
Y51890D01*
X85157Y47963D02*
Y51890D01*
X87224Y47885D02*
Y48066D01*
X87264Y47917D02*
Y48042D01*
X87165Y47826D02*
Y48119D01*
X87010Y47776D02*
X87126D01*
X87106Y47744D02*
Y48211D01*
X87047Y47713D02*
Y52421D01*
X87045Y47716D02*
X87091D01*
X86929Y47870D02*
Y52480D01*
X86902Y47894D02*
X87234D01*
X86870Y47919D02*
Y52480D01*
X86220Y47948D02*
Y52377D01*
X86963Y47835D02*
X87173D01*
X86988Y47805D02*
Y52449D01*
X87023Y47126D02*
X87114D01*
X87165Y46903D02*
Y47056D01*
X87047Y46911D02*
Y47169D01*
X87106Y46910D02*
Y47138D01*
X87283Y46869D02*
Y46951D01*
X87224Y46889D02*
Y46996D01*
X86924Y47008D02*
X87212D01*
X86849Y46949D02*
X87287D01*
X86988Y46907D02*
Y47077D01*
X86980Y47067D02*
X87156D01*
X86929Y46896D02*
Y47012D01*
X86870Y46879D02*
Y46963D01*
X86220Y46857D02*
Y46934D01*
X86161Y47908D02*
Y52361D01*
X86102Y47855D02*
Y52302D01*
X86043Y47785D02*
Y52243D01*
X85873Y47835D02*
X86083D01*
X85920Y47776D02*
X86036D01*
X85955Y47716D02*
X86001D01*
X85984Y47682D02*
Y52184D01*
X85925Y47768D02*
Y52125D01*
X85807Y47898D02*
Y52007D01*
X85812Y47894D02*
X86144D01*
X85748Y47941D02*
Y51954D01*
X85098Y47927D02*
Y51890D01*
X85866Y47843D02*
Y52066D01*
X85039Y47881D02*
Y51890D01*
X84980Y47820D02*
Y51890D01*
X85933Y47126D02*
X86024D01*
X85890Y47067D02*
X86066D01*
X85984Y46911D02*
Y47200D01*
X85925Y46910D02*
Y47114D01*
X86102Y46897D02*
Y47027D01*
X86161Y46881D02*
Y46974D01*
X86043Y46907D02*
Y47097D01*
X85866Y46902D02*
Y47039D01*
X85834Y47008D02*
X86122D01*
X85759Y46949D02*
X86197D01*
X84980Y46903D02*
Y47062D01*
X85039Y46890D02*
Y47001D01*
X85807Y46888D02*
Y46984D01*
X85748Y46867D02*
Y46941D01*
X85098Y46871D02*
Y46954D01*
X90492Y46890D02*
X90671D01*
X90708Y46777D02*
Y46877D01*
X90590Y46852D02*
Y46928D01*
X90649Y46820D02*
Y46899D01*
X91004Y46737D02*
Y46863D01*
X90945Y46667D02*
Y46854D01*
X90768Y46721D02*
Y46862D01*
X90827Y46645D02*
Y46853D01*
X90059Y46844D02*
Y46914D01*
X90005Y46890D02*
X90174D01*
X90000Y46808D02*
Y46888D01*
X89941Y46762D02*
Y46869D01*
X89882Y46702D02*
Y46857D01*
X89823Y46618D02*
Y46851D01*
X90775Y46713D02*
X90981D01*
X90821Y46653D02*
X90935D01*
X89767Y46594D02*
X89810D01*
X90857D02*
X90900D01*
X90831Y46004D02*
X90925D01*
X90788Y45945D02*
X90968D01*
X90886Y46566D02*
Y46850D01*
X89741Y46004D02*
X89835D01*
X89541Y46831D02*
X90035D01*
X89625Y46772D02*
X89951D01*
X89685Y46713D02*
X89891D01*
X89731Y46653D02*
X89845D01*
X89642Y45886D02*
X89934D01*
X89566Y45827D02*
X90010D01*
X89698Y45945D02*
X89878D01*
X89527Y46839D02*
Y46914D01*
X89402Y46890D02*
X89581D01*
X88996Y46857D02*
Y46928D01*
X88915Y46890D02*
X89084D01*
X89586Y46801D02*
Y46888D01*
X89645Y46753D02*
Y46869D01*
X88937Y46826D02*
Y46899D01*
X88878Y46785D02*
Y46877D01*
X88464Y46823D02*
Y46901D01*
X88312Y46890D02*
X88491D01*
X88405Y46855D02*
Y46931D01*
X87874Y46841D02*
Y46911D01*
X88582Y46726D02*
Y46863D01*
X88523Y46781D02*
Y46878D01*
X88819Y46732D02*
Y46862D01*
X89705Y46689D02*
Y46857D01*
X88642Y46653D02*
Y46854D01*
X88760Y46660D02*
Y46853D01*
X89764Y46600D02*
Y46851D01*
X88651Y46004D02*
X88745D01*
X88701Y46554D02*
Y46850D01*
X88677Y46594D02*
X88720D01*
X88451Y46831D02*
X88945D01*
X88535Y46772D02*
X88861D01*
X88595Y46713D02*
X88801D01*
X88641Y46653D02*
X88755D01*
X88552Y45886D02*
X88844D01*
X88476Y45827D02*
X88920D01*
X88608Y45945D02*
X88788D01*
X90945Y43593D02*
Y45975D01*
X91004Y43593D02*
Y45905D01*
X90886Y43593D02*
Y46076D01*
X90827Y43593D02*
Y45997D01*
X90768Y43593D02*
Y45921D01*
X89941Y43593D02*
Y45880D01*
X90708Y43593D02*
Y45865D01*
X89882Y43593D02*
Y45940D01*
X89823Y43593D02*
Y46024D01*
X89764Y43593D02*
Y46042D01*
X89705Y43593D02*
Y45952D01*
X89645Y43593D02*
Y45889D01*
X89586Y43593D02*
Y45840D01*
X90413Y43593D02*
Y45736D01*
X90354Y43593D02*
Y45731D01*
X90236Y43593D02*
Y45738D01*
X90295Y43593D02*
Y45732D01*
X90649Y43593D02*
Y45822D01*
X90590Y43593D02*
Y45789D01*
X90531Y43593D02*
Y45765D01*
X90472Y43593D02*
Y45747D01*
X90000Y43593D02*
Y45833D01*
X89449Y45768D02*
X90127D01*
X89527Y43593D02*
Y45803D01*
X89468Y43593D02*
Y45775D01*
X90118Y43593D02*
Y45771D01*
X90177Y43593D02*
Y45751D01*
X90059Y43593D02*
Y45798D01*
X88996Y43593D02*
Y45785D01*
X88878Y43593D02*
Y45857D01*
X88937Y43593D02*
Y45816D01*
X88760Y43593D02*
Y45982D01*
X88819Y43593D02*
Y45910D01*
X88701Y43593D02*
Y46088D01*
X88642Y43593D02*
Y45989D01*
X88582Y43593D02*
Y45916D01*
X88523Y43593D02*
Y45861D01*
X88464Y43593D02*
Y45819D01*
X88405Y43593D02*
Y45787D01*
X87933Y43593D02*
Y45773D01*
X87874Y43593D02*
Y45801D01*
X89114Y43593D02*
Y45745D01*
X89173Y43593D02*
Y45735D01*
X88359Y45768D02*
X89037D01*
X89055Y43593D02*
Y45761D01*
X89409Y43593D02*
Y45754D01*
X89350Y43593D02*
Y45740D01*
X89291Y43593D02*
Y45732D01*
X89232Y43593D02*
Y45731D01*
X88110Y43593D02*
Y45732D01*
X88169Y43593D02*
Y45731D01*
X87992Y43593D02*
Y45753D01*
X88051Y43593D02*
Y45739D01*
X88346Y43593D02*
Y45763D01*
X88287Y43593D02*
Y45746D01*
X88228Y43593D02*
Y45735D01*
X87825Y46890D02*
X87994D01*
X87815Y46805D02*
Y46886D01*
X87401Y46805D02*
Y46890D01*
X87756Y46758D02*
Y46868D01*
X87697Y46696D02*
Y46856D01*
X87460Y46758D02*
Y46870D01*
X87520Y46696D02*
Y46858D01*
X87342Y46841D02*
Y46916D01*
X87222Y46890D02*
X87401D01*
X86811Y46855D02*
Y46925D01*
X86735Y46890D02*
X86904D01*
X86752Y46823D02*
Y46896D01*
X86693Y46781D02*
Y46875D01*
X86634Y46726D02*
Y46861D01*
X87445Y46772D02*
X87771D01*
X87505Y46713D02*
X87711D01*
X87638Y46609D02*
Y46851D01*
X87551Y46653D02*
X87665D01*
X87561Y46004D02*
X87655D01*
X87518Y45945D02*
X87698D01*
X87579Y46609D02*
Y46851D01*
X87586Y46594D02*
X87630D01*
X86271Y46831D02*
X86765D01*
X87361D02*
X87855D01*
X86355Y46772D02*
X86681D01*
X86415Y46713D02*
X86621D01*
X86461Y46653D02*
X86575D01*
X86428Y45945D02*
X86608D01*
X86575Y46653D02*
Y46853D01*
X86279Y46826D02*
Y46903D01*
X86132Y46890D02*
X86311D01*
X85689Y46839D02*
Y46909D01*
X85645Y46890D02*
X85814D01*
X86338Y46785D02*
Y46880D01*
X86397Y46732D02*
Y46864D01*
X85630Y46801D02*
Y46884D01*
X85042Y46890D02*
X85221D01*
X85275Y46762D02*
Y46872D01*
X85157Y46844D02*
Y46919D01*
X85216Y46808D02*
Y46892D01*
X85571Y46753D02*
Y46867D01*
X85334Y46702D02*
Y46859D01*
X85512Y46690D02*
Y46856D01*
X86457Y46660D02*
Y46854D01*
X85394Y46618D02*
Y46852D01*
X85453Y46600D02*
Y46851D01*
X86496Y46594D02*
X86540D01*
X86471Y46004D02*
X86565D01*
X86516Y46554D02*
Y46850D01*
X85407Y46594D02*
X85450D01*
X85181Y46831D02*
X85675D01*
X85265Y46772D02*
X85591D01*
X85325Y46713D02*
X85531D01*
X85371Y46653D02*
X85485D01*
X85338Y45945D02*
X85518D01*
X85282Y45886D02*
X85574D01*
X85381Y46004D02*
X85475D01*
X87815Y43593D02*
Y45837D01*
X87697Y43593D02*
Y45946D01*
X87462Y45886D02*
X87754D01*
X87638Y43593D02*
Y46033D01*
X87756Y43593D02*
Y45884D01*
X87579Y43593D02*
Y46033D01*
X87520Y43593D02*
Y45946D01*
X87401Y43593D02*
Y45837D01*
X86372Y45886D02*
X86664D01*
X87460Y43593D02*
Y45884D01*
X86693Y43593D02*
Y45861D01*
X86575Y43593D02*
Y45989D01*
X86634Y43593D02*
Y45916D01*
X87386Y45827D02*
X87830D01*
X87269Y45768D02*
X87947D01*
X87342Y43593D02*
Y45801D01*
X87283Y43593D02*
Y45773D01*
X87224Y43593D02*
Y45753D01*
X87165Y43593D02*
Y45739D01*
X87106Y43593D02*
Y45732D01*
X87047Y43593D02*
Y45731D01*
X86929Y43593D02*
Y45746D01*
X86988Y43593D02*
Y45735D01*
X86296Y45827D02*
X86740D01*
X86179Y45768D02*
X86857D01*
X86811Y43593D02*
Y45787D01*
X86870Y43593D02*
Y45763D01*
X86752Y43593D02*
Y45819D01*
X86516Y43593D02*
Y46088D01*
X86457Y43593D02*
Y45982D01*
X86397Y43593D02*
Y45910D01*
X86338Y43593D02*
Y45857D01*
X85630Y43593D02*
Y45840D01*
X85512Y43593D02*
Y45952D01*
X85571Y43593D02*
Y45889D01*
X85206Y45827D02*
X85650D01*
X85453Y43593D02*
Y46042D01*
X85394Y43593D02*
Y46024D01*
X85334Y43593D02*
Y45940D01*
X85275Y43593D02*
Y45880D01*
X85216Y43593D02*
Y45833D01*
X86043Y43593D02*
Y45735D01*
X85984Y43593D02*
Y45731D01*
X85866Y43593D02*
Y45740D01*
X85925Y43593D02*
Y45732D01*
X86279Y43593D02*
Y45816D01*
X86220Y43593D02*
Y45785D01*
X86161Y43593D02*
Y45761D01*
X86102Y43593D02*
Y45745D01*
X85089Y45768D02*
X85767D01*
X85807Y43593D02*
Y45754D01*
X85689Y43593D02*
Y45803D01*
X85748Y43593D02*
Y45775D01*
X85157Y43593D02*
Y45798D01*
X85098Y43593D02*
Y45771D01*
X85039Y43593D02*
Y45751D01*
X84467Y63838D02*
X86387D01*
X84488Y63779D02*
X86367D01*
X84505Y63720D02*
X86350D01*
X84518Y63661D02*
X86336D01*
X84515Y63189D02*
X86339D01*
X84500Y63130D02*
X86354D01*
X84529Y63602D02*
X86326D01*
X84526Y63248D02*
X86328D01*
X84164Y64281D02*
X86690D01*
X84195Y64252D02*
X86659D01*
X84252Y64193D02*
X86602D01*
X84301Y64134D02*
X86553D01*
X84344Y64075D02*
X86510D01*
X84382Y64016D02*
X86473D01*
X84414Y63957D02*
X86440D01*
X84443Y63898D02*
X86412D01*
X84435Y62953D02*
X86419D01*
X84406Y62894D02*
X86448D01*
X84482Y63071D02*
X86372D01*
X84461Y63012D02*
X86394D01*
X84333Y62775D02*
X86521D01*
X84288Y62716D02*
X86566D01*
X84372Y62835D02*
X86482D01*
X84439Y59882D02*
X86412D01*
X84110Y62539D02*
X86744D01*
X84029Y62480D02*
X86826D01*
X84237Y62657D02*
X86617D01*
X84179Y62598D02*
X86676D01*
X83795Y62362D02*
X87059D01*
X83563Y62303D02*
X87292D01*
X83928Y62421D02*
X86926D01*
X84540Y63484D02*
X86314D01*
X84541Y63425D02*
X86313D01*
X84567Y59868D02*
Y64281D01*
X84626Y59854D02*
Y64281D01*
X84803Y59779D02*
Y64281D01*
X84862Y59741D02*
Y64281D01*
X84685Y59835D02*
Y64281D01*
X84744Y59811D02*
Y64281D01*
X84331Y64094D02*
Y64281D01*
X84390Y64002D02*
Y64281D01*
X84212Y64235D02*
Y64281D01*
X84271Y64170D02*
Y64281D01*
X84536Y63543D02*
X86318D01*
X84449Y63884D02*
Y64281D01*
X84508Y63708D02*
Y64281D01*
X84539Y63366D02*
X86315D01*
X84534Y63307D02*
X86320D01*
X84449Y59882D02*
Y62982D01*
X84390Y59881D02*
Y62864D01*
X84717Y59823D02*
X86134D01*
X84829Y59764D02*
X86022D01*
X84508Y59877D02*
Y63158D01*
X84909Y59705D02*
X85942D01*
X84331Y59876D02*
Y62772D01*
X84271Y59866D02*
Y62696D01*
X84212Y59851D02*
Y62631D01*
X84153Y59831D02*
Y62576D01*
X84094Y59805D02*
Y62527D01*
X84035Y59772D02*
Y62485D01*
X83976Y59732D02*
Y62448D01*
X84980Y59635D02*
Y64281D01*
X84971Y59646D02*
X85880D01*
X84921Y59694D02*
Y64281D01*
X83917Y59683D02*
Y62415D01*
X84931Y58583D02*
X85920D01*
X83858Y59622D02*
Y62387D01*
X83799Y59543D02*
Y62363D01*
X83035Y58701D02*
X83815D01*
X83917Y57637D02*
Y58585D01*
X83799Y57712D02*
Y58725D01*
X83858Y57683D02*
Y58646D01*
X84858Y58524D02*
X85993D01*
X84759Y58464D02*
X86091D01*
X84921Y57473D02*
Y58574D01*
X84862Y57457D02*
Y58527D01*
X84803Y57433D02*
Y58488D01*
X84744Y57402D02*
Y58457D01*
X84685Y57402D02*
Y58432D01*
X84626Y57402D02*
Y58413D01*
X84595Y58405D02*
X86255D01*
X84271Y57402D02*
Y58402D01*
X83976Y57562D02*
Y58536D01*
X84212Y57402D02*
Y58417D01*
X84094Y57402D02*
Y58463D01*
X84153Y57402D02*
Y58437D01*
X84035Y57402D02*
Y58495D01*
X83740Y59434D02*
Y62343D01*
X83681Y59209D02*
Y62327D01*
X83622Y57736D02*
Y62313D01*
X83563Y57736D02*
Y62303D01*
X83504Y57736D02*
Y62296D01*
X83445Y57736D02*
Y62292D01*
X83327Y57719D02*
Y62294D01*
X83386Y57733D02*
Y62291D01*
X83061Y59527D02*
X83789D01*
X83094Y59468D02*
X83756D01*
X83090Y59476D02*
Y62334D01*
X83121Y59409D02*
X83730D01*
X83209Y57654D02*
Y62307D01*
X83268Y57694D02*
Y62299D01*
X83149Y59321D02*
Y62319D01*
X83156Y59291D02*
X83694D01*
X83167Y59232D02*
X83684D01*
X83172Y59173D02*
X83678D01*
X83173Y59114D02*
X83677D01*
X83160Y58996D02*
X83690D01*
X83740Y57729D02*
Y58834D01*
X83681Y57736D02*
Y59059D01*
X83169Y59055D02*
X83681D01*
X83128Y58878D02*
X83722D01*
X83104Y58819D02*
X83747D01*
X83141Y59350D02*
X83709D01*
X83147Y58937D02*
X83704D01*
X83149Y57592D02*
Y58947D01*
X83073Y58760D02*
X83777D01*
X83090Y57464D02*
Y58792D01*
X79685Y62480D02*
X82771D01*
X79685Y62421D02*
X82871D01*
X82559Y64206D02*
Y64281D01*
X79685Y62539D02*
X82689D01*
X79685Y62126D02*
X95777D01*
X79685Y62067D02*
X95777D01*
X79685Y62362D02*
X83004D01*
X75089Y64281D02*
X82635D01*
X75089Y64252D02*
X82604D01*
X75089Y64193D02*
X82547D01*
X75089Y62657D02*
X82562D01*
X79685Y62244D02*
X95777D01*
X79685Y62185D02*
X95777D01*
X75089Y62598D02*
X82621D01*
X79685Y62303D02*
X83237D01*
X79685Y61890D02*
X95777D01*
X79685Y61831D02*
X95777D01*
X79685Y62008D02*
X95777D01*
X79685Y61949D02*
X95777D01*
X79685Y61653D02*
X95777D01*
X79685Y61594D02*
X95777D01*
X79685Y61772D02*
X95777D01*
X79685Y61712D02*
X95777D01*
X79685Y61417D02*
X95777D01*
X75089Y61358D02*
X95777D01*
X79685Y61535D02*
X95777D01*
X79685Y61476D02*
X95777D01*
X75089Y61240D02*
X95777D01*
X75089Y61181D02*
X95777D01*
X75089Y61299D02*
X95777D01*
X82500Y64136D02*
Y64281D01*
X75089Y64134D02*
X82498D01*
X82441Y64053D02*
Y64281D01*
X75089Y64075D02*
X82455D01*
X82382Y63950D02*
Y64281D01*
X75089Y64016D02*
X82418D01*
X82264Y63547D02*
Y64281D01*
X82323Y63812D02*
Y64281D01*
X75089Y63957D02*
X82385D01*
X75089Y63898D02*
X82357D01*
X75089Y63838D02*
X82332D01*
X75089Y63779D02*
X82312D01*
X75089Y63720D02*
X82295D01*
X75089Y63661D02*
X82281D01*
X75089Y63602D02*
X82270D01*
X75089Y63012D02*
X82338D01*
X75089Y62953D02*
X82364D01*
X75089Y63130D02*
X82299D01*
X75089Y63071D02*
X82317D01*
X75089Y62775D02*
X82466D01*
X75089Y62716D02*
X82511D01*
X75089Y62894D02*
X82393D01*
X75089Y62835D02*
X82427D01*
X75089Y63543D02*
X82263D01*
X75089Y63366D02*
X82260D01*
X75089Y63484D02*
X82259D01*
X75089Y63425D02*
X82258D01*
X75089Y63248D02*
X82273D01*
X75089Y63189D02*
X82284D01*
X75089Y63307D02*
X82265D01*
X81888Y60649D02*
X88963D01*
X81949Y60590D02*
X88902D01*
X81997Y60531D02*
X88854D01*
X82036Y60472D02*
X88815D01*
X82070Y60413D02*
X88781D01*
X82101Y60354D02*
X88749D01*
X82126Y60295D02*
X88724D01*
X82145Y60236D02*
X88705D01*
X75089Y61004D02*
X95777D01*
X75089Y60945D02*
X95777D01*
X75089Y61122D02*
X95777D01*
X75089Y61063D02*
X95777D01*
X75089Y60886D02*
X95777D01*
X75089Y60827D02*
X95777D01*
X81696Y60768D02*
X89155D01*
X81809Y60709D02*
X89042D01*
X82829Y59764D02*
X84022D01*
X82909Y59705D02*
X83942D01*
X82971Y59646D02*
X83880D01*
X82988Y58642D02*
X83862D01*
X82839Y58464D02*
X84091D01*
X82839Y58405D02*
X84255D01*
X82931Y58583D02*
X83920D01*
X82858Y58524D02*
X83993D01*
X82159Y60177D02*
X88691D01*
X82168Y60118D02*
X88682D01*
X82173Y60059D02*
X88678D01*
X82172Y60000D02*
X88678D01*
X82167Y59941D02*
X88683D01*
X82439Y59882D02*
X84412D01*
X82717Y59823D02*
X84134D01*
X82559Y59870D02*
Y62661D01*
X82618Y59857D02*
Y62601D01*
X82441Y59882D02*
Y62813D01*
X82500Y59878D02*
Y62730D01*
X82795Y59784D02*
Y62464D01*
X82854Y59747D02*
Y62430D01*
X82677Y59838D02*
Y62549D01*
X82736Y59814D02*
Y62504D01*
X82146Y60236D02*
Y64281D01*
X82382Y59881D02*
Y62916D01*
X82027Y60486D02*
Y64281D01*
X82086Y60384D02*
Y64281D01*
X82264Y59864D02*
Y63319D01*
X82323Y59875D02*
Y63054D01*
X82205Y59849D02*
Y64281D01*
X83031Y59572D02*
Y62352D01*
X83021Y59587D02*
X83830D01*
X82913Y59701D02*
Y62400D01*
X82972Y59644D02*
Y62374D01*
X83031Y56457D02*
Y58696D01*
X82972Y56457D02*
Y58624D01*
X82913Y56457D02*
Y58567D01*
X82854Y57524D02*
Y58521D01*
X82158Y59882D02*
X82412D01*
X82839Y57555D02*
Y58510D01*
X84626Y56457D02*
Y56535D01*
X84567Y57402D02*
Y58399D01*
X84508Y57402D02*
Y58390D01*
X84567Y56457D02*
Y56535D01*
X84449Y56457D02*
Y56535D01*
X84508Y56457D02*
Y56535D01*
X83834Y57697D02*
X88787D01*
X83916Y57638D02*
X88728D01*
X83966Y57579D02*
X88669D01*
X83998Y57520D02*
X88610D01*
X84017Y57461D02*
X84873D01*
X84025Y57402D02*
X84746D01*
X84390D02*
Y58387D01*
X84449Y57402D02*
Y58386D01*
X84921Y56393D02*
Y56425D01*
X84914Y56398D02*
X86159D01*
X84744Y56456D02*
Y56497D01*
X84733Y56457D02*
X84821D01*
X84961Y56359D02*
X85532Y55788D01*
X84862Y54002D02*
Y54035D01*
X84023Y56516D02*
X84717D01*
X84252Y56457D02*
X84724D01*
X84390D02*
Y56535D01*
X84025D02*
X84692D01*
X83976Y54035D02*
X84890D01*
X84173Y53917D02*
X84816D01*
X84685Y56457D02*
Y56535D01*
X84331Y57402D02*
Y58392D01*
Y56457D02*
Y56535D01*
X84212Y56457D02*
Y56535D01*
X84271Y56457D02*
Y56535D01*
X84153Y56457D02*
Y56535D01*
X84012Y56457D02*
X84252D01*
X84035D02*
Y56535D01*
X84094Y56457D02*
Y56535D01*
X83435Y57736D02*
X83671D01*
X83391Y54508D02*
X83435D01*
X83386Y53957D02*
Y54506D01*
X83445Y53957D02*
Y54474D01*
X83858Y53957D02*
Y54057D01*
X83917Y53957D02*
Y54041D01*
X83740Y53957D02*
Y54133D01*
X83799Y53957D02*
Y54086D01*
X84094Y53947D02*
Y54035D01*
X84153Y53927D02*
Y54035D01*
X83976Y53957D02*
Y54035D01*
X84035Y53956D02*
Y54035D01*
X83523Y54350D02*
X83740Y54133D01*
X83681Y53957D02*
Y54192D01*
X83563Y53957D02*
Y54310D01*
X83622Y53957D02*
Y54251D01*
X83504Y53957D02*
Y54371D01*
X84803Y53876D02*
Y54035D01*
X84862Y53294D02*
Y53360D01*
X84803Y53167D02*
Y53486D01*
X84634Y53209D02*
X84816D01*
X84253Y53858D02*
X84799D01*
X84565Y53504D02*
X84799D01*
X84312Y53799D02*
X84793D01*
X84536Y53563D02*
X84793D01*
X84587Y53386D02*
X84845D01*
X84603Y53327D02*
X84890D01*
X84581Y53445D02*
X84816D01*
X84623Y53268D02*
X84844D01*
X84636Y52795D02*
X84799D01*
X84636Y52736D02*
X84816D01*
X84636Y53149D02*
X84799D01*
X84636Y52854D02*
X84793D01*
X84921Y52559D02*
Y52589D01*
X84803Y52559D02*
Y52778D01*
X84862Y52559D02*
Y52651D01*
X84627Y52559D02*
X84964D01*
X84488Y51890D02*
X85315D01*
X84636Y52677D02*
X84845D01*
X84633Y52618D02*
X84890D01*
X84502Y51850D02*
X92166D01*
X84574Y51791D02*
X87459D01*
X84618Y51732D02*
X87344D01*
X84508Y53602D02*
Y54035D01*
X84793Y53568D02*
Y53794D01*
X84390Y53721D02*
Y54035D01*
X84449Y53662D02*
Y54035D01*
X84685Y52559D02*
Y54035D01*
X84744Y52559D02*
Y54035D01*
X84567Y53499D02*
Y54035D01*
X84626Y53258D02*
Y54035D01*
X84271Y53840D02*
Y54035D01*
X84212Y53893D02*
Y54035D01*
X84253Y53858D02*
X84488Y53623D01*
X84371Y53740D02*
X84793D01*
X84331Y53781D02*
Y54035D01*
X84636Y53090D02*
X84793D01*
X84636Y53031D02*
X84793D01*
X84636Y52972D02*
X84793D01*
X84636Y52913D02*
X84793D01*
X84636Y52666D02*
Y53170D01*
X84793Y52859D02*
Y53086D01*
X84626Y51719D02*
Y51890D01*
X84430Y53681D02*
X84793D01*
X84489Y53622D02*
X84793D01*
X84567Y51799D02*
Y51890D01*
X84508Y51847D02*
Y51890D01*
X82839Y58169D02*
X95777D01*
X82839Y58110D02*
X95777D01*
X82839Y58346D02*
X95777D01*
X82839Y58287D02*
X95777D01*
X82839Y58051D02*
X95777D01*
X82839Y57992D02*
X95777D01*
X82856Y57520D02*
X83109D01*
X82839Y58228D02*
X95777D01*
X82839Y57933D02*
X95777D01*
X82839Y57874D02*
X95777D01*
X82839Y57815D02*
X88975D01*
X82839Y57756D02*
X88855D01*
X82839Y57697D02*
X83272D01*
X82839Y57638D02*
X83190D01*
X82839Y57579D02*
X83140D01*
X82884Y57224D02*
X83081D01*
X82884Y57165D02*
X83081D01*
X82884Y57342D02*
X83081D01*
X82884Y57283D02*
X83081D01*
X82884Y56870D02*
X83081D01*
X82884Y57106D02*
X83081D01*
X82884Y57047D02*
X83081D01*
X82875Y57461D02*
X83090D01*
X82883Y57401D02*
X83081D01*
X82884Y56988D02*
X83081D01*
X82884Y56929D02*
X83081D01*
X82882Y56516D02*
X83083D01*
X82870Y56457D02*
X83095D01*
X82884Y56811D02*
X83081D01*
X82884Y56693D02*
X83081D01*
X82884Y56634D02*
X83081D01*
X82884Y56752D02*
X83081D01*
Y56555D02*
Y57382D01*
X82884Y56575D02*
X83081D01*
X82884Y56555D02*
Y57382D01*
X82114Y55433D02*
X82373D01*
X82146Y55393D02*
Y55433D01*
X82145Y55394D02*
X82369D01*
X82368Y54866D02*
Y55370D01*
X82205Y55212D02*
Y55433D01*
X82205Y55157D02*
X82368D01*
X82205Y55098D02*
X82368D01*
X82197Y55275D02*
X82368D01*
X82204Y55216D02*
X82368D01*
X82205Y55039D02*
X82368D01*
X82205Y54995D02*
Y55202D01*
X82204Y54980D02*
X82368D01*
X82178Y54862D02*
X82368D01*
X82145Y54803D02*
X82373D01*
X82178Y55335D02*
X82368D01*
X82197Y54921D02*
X82368D01*
X82094Y54744D02*
X82388D01*
X82114Y54685D02*
X82413D01*
X83327Y53957D02*
Y54489D01*
X83209Y53957D02*
Y54484D01*
X83268Y53957D02*
Y54482D01*
X83090Y53957D02*
Y54518D01*
X83149Y53957D02*
Y54496D01*
X83031Y53957D02*
Y54552D01*
X82972Y53957D02*
Y54551D01*
X82205Y54449D02*
X83455D01*
X82205Y54390D02*
X83489D01*
X82891Y54508D02*
X83113D01*
X82203Y54212D02*
X83661D01*
X82192Y54153D02*
X83720D01*
X82205Y54331D02*
X83543D01*
X82205Y54272D02*
X83602D01*
X82131Y54035D02*
X84890D01*
X82094Y53976D02*
X84844D01*
X82168Y54094D02*
X83787D01*
X82114Y53957D02*
X84016D01*
X78770Y52205D02*
X82913D01*
X78770Y52146D02*
X82913D01*
X78770Y52264D02*
X82913D01*
X78769Y51968D02*
X82913D01*
X78759Y51909D02*
X82913D01*
X78770Y52087D02*
X82913D01*
X78770Y52027D02*
X82913D01*
X78703Y51791D02*
X82913D01*
X78647Y51732D02*
X82913D01*
X78738Y51850D02*
X82913D01*
X82913Y53957D02*
Y54517D01*
X82559Y53957D02*
Y54534D01*
X82618Y53957D02*
Y54506D01*
X82441Y53957D02*
Y54641D01*
X82500Y53957D02*
Y54576D01*
X82323Y53957D02*
Y55433D01*
X82382Y53957D02*
Y54764D01*
X82185Y54567D02*
X82511D01*
X82200Y54508D02*
X82613D01*
X82146Y54645D02*
Y54803D01*
X82158Y54626D02*
X82452D01*
X82264Y53957D02*
Y55433D01*
X82205Y54464D02*
Y54985D01*
X82854Y53957D02*
Y54496D01*
X82795Y53957D02*
Y54484D01*
X82736Y53957D02*
Y54482D01*
X82205Y54247D02*
Y54454D01*
X82677Y53957D02*
Y54489D01*
X82094Y52520D02*
X82397D01*
X82205Y53957D02*
Y54236D01*
X82146Y53957D02*
Y54055D01*
X82070Y52500D02*
X82406D01*
X81946Y52441D02*
X82441D01*
X78767Y52382D02*
X82494D01*
X78770Y52323D02*
X82580D01*
X81673Y60777D02*
Y64281D01*
X81732Y60751D02*
Y64281D01*
X81555Y60809D02*
Y64281D01*
X81614Y60796D02*
Y64281D01*
X81909Y60630D02*
Y64281D01*
X81968Y60568D02*
Y64281D01*
X81791Y60719D02*
Y64281D01*
X81850Y60680D02*
Y64281D01*
X81437Y60821D02*
Y64281D01*
X81496Y60818D02*
Y64281D01*
X81319Y60813D02*
Y64281D01*
X81378Y60820D02*
Y64281D01*
X81142Y60762D02*
Y64281D01*
X81201Y60785D02*
Y64281D01*
X80964Y60651D02*
Y64281D01*
X81083Y60733D02*
Y64281D01*
X81972Y57532D02*
Y58538D01*
X81260Y60802D02*
Y64281D01*
X81968Y57523D02*
Y58542D01*
X81319Y57403D02*
Y59254D01*
X81194Y57461D02*
X81948D01*
X81201Y57458D02*
Y59283D01*
X81260Y57435D02*
Y59266D01*
X81083Y57483D02*
Y59335D01*
X81023Y60696D02*
Y64281D01*
Y57485D02*
Y59371D01*
X80964Y57481D02*
Y59417D01*
X81142Y57474D02*
Y59306D01*
X80905Y57470D02*
Y59474D01*
X79606Y62559D02*
Y64281D01*
X79665Y62559D02*
Y64281D01*
X79488Y62559D02*
Y64281D01*
X79547Y62559D02*
Y64281D01*
X80846Y60521D02*
Y64281D01*
X80905Y60594D02*
Y64281D01*
X80728Y60305D02*
Y64281D01*
X80787Y60424D02*
Y64281D01*
X78779Y62559D02*
Y64281D01*
X79193Y62559D02*
Y64281D01*
X78543Y62559D02*
Y64281D01*
X78720Y62559D02*
Y64281D01*
X79370Y62559D02*
Y64281D01*
X79429Y62559D02*
Y64281D01*
X79252Y62559D02*
Y64281D01*
X79311Y62559D02*
Y64281D01*
X79075Y62559D02*
Y64281D01*
X79134Y62559D02*
Y64281D01*
X78957Y62559D02*
Y64281D01*
X79016Y62559D02*
Y64281D01*
X80846Y57451D02*
Y59546D01*
X79685Y61398D02*
Y62539D01*
X80787Y57425D02*
Y59643D01*
X78838Y62559D02*
Y64281D01*
X78897Y62559D02*
Y64281D01*
X78602Y62559D02*
Y64281D01*
X78661Y62559D02*
Y64281D01*
X78524Y62559D02*
X79665D01*
X78524Y61378D02*
X79665D01*
X78504Y61398D02*
Y62539D01*
X80610Y57278D02*
Y64281D01*
X80669Y57342D02*
Y64281D01*
X80492Y56457D02*
Y64281D01*
X80551Y57183D02*
Y64281D01*
X80374Y56457D02*
Y64281D01*
X80433Y56457D02*
Y64281D01*
X80256Y56457D02*
Y64281D01*
X80315Y56457D02*
Y64281D01*
X80138Y56457D02*
Y64281D01*
X80197Y56457D02*
Y64281D01*
X80020Y56457D02*
Y64281D01*
X80079Y56457D02*
Y64281D01*
X79901Y56457D02*
Y64281D01*
X79960Y56457D02*
Y64281D01*
X79783Y56435D02*
Y64281D01*
X79842Y56451D02*
Y64281D01*
X81909Y57382D02*
Y58592D01*
X81791Y57382D02*
Y58737D01*
X81850Y57382D02*
Y58655D01*
X81673Y57382D02*
Y59291D01*
X81732Y57382D02*
Y58852D01*
X81614Y57382D02*
Y59272D01*
X81555Y57382D02*
Y59258D01*
X81496Y57382D02*
Y59250D01*
X81321Y57401D02*
X81940D01*
X80728Y57390D02*
Y59762D01*
X81437Y57382D02*
Y59247D01*
X81378Y57382D02*
Y59248D01*
X81350Y57382D02*
X81939D01*
X79724Y56406D02*
Y64281D01*
X79429Y56123D02*
Y61378D01*
X79311Y56005D02*
Y61378D01*
X79370Y56064D02*
Y61378D01*
X79193Y55886D02*
Y61378D01*
X79252Y55946D02*
Y61378D01*
X78425Y55119D02*
Y64281D01*
X78484Y55178D02*
Y64281D01*
X78307Y55001D02*
Y64281D01*
X78366Y55060D02*
Y64281D01*
X78189Y54883D02*
Y64281D01*
X78248Y54942D02*
Y64281D01*
X78071Y54757D02*
Y64281D01*
X78130Y54823D02*
Y64281D01*
X78012Y53620D02*
Y64281D01*
X79606Y56300D02*
Y61378D01*
X79665Y56359D02*
Y61378D01*
X79488Y56182D02*
Y61378D01*
X79547Y56241D02*
Y61378D01*
X79075Y55768D02*
Y61378D01*
X79134Y55827D02*
Y61378D01*
X78957Y55650D02*
Y61378D01*
X79016Y55709D02*
Y61378D01*
X78838Y55532D02*
Y61378D01*
X78897Y55591D02*
Y61378D01*
X78720Y55414D02*
Y61378D01*
X78779Y55473D02*
Y61378D01*
X78602Y55296D02*
Y61378D01*
X78661Y55355D02*
Y61378D01*
X78543Y55237D02*
Y61378D01*
X75089Y59587D02*
X80820D01*
X75089Y59527D02*
X80860D01*
X75089Y59705D02*
X80754D01*
X75089Y59646D02*
X80786D01*
X75089Y59350D02*
X81056D01*
X75089Y59291D02*
X81177D01*
X75089Y59468D02*
X80910D01*
X75089Y59409D02*
X80973D01*
X75089Y60768D02*
X81155D01*
X75089Y60709D02*
X81042D01*
X75089Y60649D02*
X80963D01*
X75089Y60590D02*
X80902D01*
X75089Y60531D02*
X80854D01*
X75089Y60472D02*
X80815D01*
X75089Y60413D02*
X80781D01*
X75089Y60354D02*
X80749D01*
X75089Y58701D02*
X81815D01*
X75089Y58642D02*
X81862D01*
X75089Y58819D02*
X81747D01*
X75089Y58760D02*
X81777D01*
X75089Y58464D02*
X81972D01*
X75089Y58405D02*
X81972D01*
X75089Y58583D02*
X81920D01*
X75089Y58524D02*
X81972D01*
X75089Y59232D02*
X81684D01*
X75089Y59055D02*
X81681D01*
X75089Y59173D02*
X81678D01*
X75089Y59114D02*
X81677D01*
X75089Y58937D02*
X81704D01*
X75089Y58878D02*
X81722D01*
X75089Y58996D02*
X81690D01*
X75089Y62008D02*
X78504D01*
X75089Y61949D02*
X78504D01*
X75089Y62126D02*
X78504D01*
X75089Y62067D02*
X78504D01*
X75089Y61772D02*
X78504D01*
X75089Y61712D02*
X78504D01*
X75089Y61890D02*
X78504D01*
X75089Y61831D02*
X78504D01*
X75089Y62421D02*
X78504D01*
X75089Y62362D02*
X78504D01*
X75089Y62539D02*
X78504D01*
X75089Y62480D02*
X78504D01*
X75089Y62244D02*
X78504D01*
X75089Y62185D02*
X78504D01*
X75089Y62303D02*
X78504D01*
X75089Y60177D02*
X80691D01*
X75089Y60118D02*
X80682D01*
X75089Y60059D02*
X80678D01*
X75089Y60000D02*
X80678D01*
X75089Y59823D02*
X80708D01*
X75089Y59764D02*
X80728D01*
X75089Y59941D02*
X80683D01*
X75089Y59882D02*
X80693D01*
X75089Y61535D02*
X78504D01*
X75089Y61476D02*
X78504D01*
X75089Y61653D02*
X78504D01*
X75089Y61594D02*
X78504D01*
X75089Y60295D02*
X80724D01*
X75089Y60236D02*
X80705D01*
X75089Y61417D02*
X78504D01*
X77657Y53671D02*
Y64281D01*
X77716Y53671D02*
Y64281D01*
X77539Y53671D02*
Y64281D01*
X77598Y53671D02*
Y64281D01*
X77894Y53620D02*
Y64281D01*
X77953Y53575D02*
Y64281D01*
X77775Y53665D02*
Y64281D01*
X77834Y53649D02*
Y64281D01*
X75089Y58228D02*
X81972D01*
X75089Y58169D02*
X81972D01*
X75089Y58346D02*
X81972D01*
X75089Y58287D02*
X81972D01*
X75089Y58110D02*
X81972D01*
X75089Y58051D02*
X81972D01*
X77480Y53671D02*
Y64281D01*
X75089Y57992D02*
X81972D01*
X75089Y57520D02*
X81967D01*
X75089Y57461D02*
X80873D01*
X75089Y57401D02*
X80746D01*
X75089Y57342D02*
X80669D01*
X75089Y57283D02*
X80614D01*
X75089Y57224D02*
X80573D01*
X75089Y57165D02*
X80543D01*
X75089Y57106D02*
X80521D01*
X75089Y57815D02*
X81972D01*
X75089Y57756D02*
X81972D01*
X75089Y57933D02*
X81972D01*
X75089Y57874D02*
X81972D01*
X75089Y57638D02*
X81972D01*
X75089Y57579D02*
X81972D01*
X75089Y57697D02*
X81972D01*
X76476Y53724D02*
Y64281D01*
X76535Y53732D02*
Y64281D01*
X76358Y53687D02*
Y64281D01*
X76417Y53709D02*
Y64281D01*
X76240Y53616D02*
Y64281D01*
X76299Y53657D02*
Y64281D01*
X76122Y53484D02*
Y64281D01*
X76181Y53561D02*
Y64281D01*
X76004Y53091D02*
Y64281D01*
X76063Y53356D02*
Y64281D01*
X75886Y52973D02*
Y64281D01*
X75945Y53032D02*
Y64281D01*
X75768Y52853D02*
Y64281D01*
X75827Y52914D02*
Y64281D01*
X75709Y52750D02*
Y64281D01*
X77362Y53649D02*
Y64281D01*
X77421Y53665D02*
Y64281D01*
X77244Y53575D02*
Y64281D01*
X77303Y53620D02*
Y64281D01*
X77126Y53484D02*
Y64281D01*
X77185Y53500D02*
Y64281D01*
X77008Y53513D02*
Y64281D01*
X77067Y53484D02*
Y64281D01*
X76712Y53715D02*
Y64281D01*
X76771Y53696D02*
Y64281D01*
X76594Y53733D02*
Y64281D01*
X76653Y53727D02*
Y64281D01*
X76890Y53631D02*
Y64281D01*
X76949Y53581D02*
Y64281D01*
X76831Y53668D02*
Y64281D01*
X80669Y56457D02*
Y56555D01*
X80728Y56457D02*
Y56508D01*
X80551Y56457D02*
Y56715D01*
X80610Y56457D02*
Y56620D01*
X79902Y56457D02*
X80821D01*
X78110Y54804D02*
X79665Y56359D01*
X78997Y54744D02*
X79282D01*
X78938Y54685D02*
X79267D01*
X79252Y54662D02*
Y54787D01*
X80129Y53976D02*
X80308D01*
X80167Y54035D02*
X80271D01*
X80138Y53969D02*
Y54004D01*
X80182Y53917D02*
X80256D01*
X80197Y53895D02*
Y54078D01*
X80256Y53917D02*
Y54056D01*
X79311Y53968D02*
Y54004D01*
X78681Y53976D02*
X79320D01*
X78681Y54035D02*
X79282D01*
X78681Y53917D02*
X79267D01*
X79056Y54803D02*
X79243D01*
X78879Y54626D02*
X79233D01*
X79174Y54921D02*
X79206D01*
X79115Y54862D02*
X79218D01*
X78820Y54567D02*
X79213D01*
X78761Y54508D02*
X79204D01*
X79203Y54257D02*
Y54483D01*
X78702Y54449D02*
X79203D01*
X78681Y54428D02*
X79203Y54950D01*
X78681Y54390D02*
X79203D01*
X78681Y53554D02*
Y54428D01*
Y54331D02*
X79203D01*
X78012Y53620D02*
Y54567D01*
X78681Y54153D02*
X79218D01*
X78681Y54094D02*
X79243D01*
X78681Y54272D02*
X79203D01*
X78681Y54212D02*
X79206D01*
X79252Y53894D02*
Y54078D01*
X78681Y53858D02*
X79233D01*
X78681Y53799D02*
X79213D01*
X78681Y53740D02*
X79204D01*
X78681Y53681D02*
X79203D01*
X78681Y53622D02*
X79203D01*
X77485Y53671D02*
X77712D01*
X77891Y53622D02*
X78012D01*
X78681Y53563D02*
X79203D01*
X78770Y53268D02*
X79282D01*
X79252Y53185D02*
Y53311D01*
X78770Y53209D02*
X79267D01*
X78770Y53149D02*
X79233D01*
X78770Y53031D02*
X79204D01*
X78764Y53386D02*
X79218D01*
X78770Y53327D02*
X79243D01*
X78747Y53445D02*
X79206D01*
X78770Y53090D02*
X79213D01*
X78681Y52618D02*
X79243D01*
X78688Y52559D02*
X79282D01*
X78681Y52736D02*
X79206D01*
X78681Y52677D02*
X79218D01*
X80962Y52441D02*
X81440D01*
X81130Y52539D02*
X81272D01*
X81086Y52500D02*
X81316D01*
X81521Y52431D02*
X81865D01*
X80536D02*
X80881D01*
X80105Y52500D02*
X80332D01*
X79979Y52441D02*
X80456D01*
X80150Y52539D02*
X80288D01*
X78728Y52500D02*
X79344D01*
X79552Y52431D02*
X79897D01*
X78754Y52441D02*
X79470D01*
X79203Y53489D02*
Y53716D01*
X78770Y52972D02*
X79203D01*
X78720Y53501D02*
Y54468D01*
X78770Y52977D02*
Y53322D01*
X78764Y52913D02*
X79203D01*
X78747Y52854D02*
X79203D01*
Y52781D02*
Y53007D01*
X78720Y52514D02*
Y52798D01*
X78719Y53504D02*
X79203D01*
X77185Y52513D02*
Y52799D01*
X77067Y52410D02*
Y52815D01*
X78718Y52795D02*
X79203D01*
X78681Y52566D02*
Y52745D01*
X77244Y52586D02*
Y52725D01*
X77303Y52630D02*
Y52679D01*
X78770Y51993D02*
Y52338D01*
X77078Y52382D02*
X77139D01*
X77096Y52323D02*
X77136D01*
X77100Y52087D02*
X77136D01*
Y51993D02*
Y52338D01*
X77060Y51968D02*
X77137D01*
X77084Y52027D02*
X77136D01*
X75089Y56575D02*
X80649D01*
X75089Y56516D02*
X80717D01*
X75089Y56457D02*
X79893D01*
X75089Y56398D02*
X79712D01*
X75089Y56338D02*
X79645D01*
X75089Y56279D02*
X79586D01*
X75089Y56220D02*
X79527D01*
X75089Y56161D02*
X79468D01*
X75089Y57047D02*
X80506D01*
X75089Y56870D02*
X80503D01*
X75089Y56988D02*
X80499D01*
X75089Y56929D02*
X80498D01*
X75089Y56693D02*
X80562D01*
X75089Y56634D02*
X80600D01*
X75089Y56811D02*
X80515D01*
X75089Y56752D02*
X80535D01*
X75089Y55689D02*
X78995D01*
X75089Y55630D02*
X78936D01*
X75089Y55571D02*
X78877D01*
X75089Y55512D02*
X78818D01*
X75089Y55453D02*
X78759D01*
X75089Y55394D02*
X78700D01*
X75089Y55335D02*
X78641D01*
X75089Y55275D02*
X78582D01*
X75089Y56102D02*
X79409D01*
X75089Y56043D02*
X79349D01*
X75089Y55984D02*
X79290D01*
X75089Y55925D02*
X79231D01*
X75089Y55866D02*
X79172D01*
X75089Y55807D02*
X79113D01*
X75089Y55748D02*
X79054D01*
X75089Y54803D02*
X78109D01*
X75089Y54744D02*
X78062D01*
X75089Y54685D02*
X78033D01*
X75089Y54626D02*
X78017D01*
X75089Y54449D02*
X78012D01*
X75089Y54390D02*
X78012D01*
X75089Y54567D02*
X78012D01*
X75089Y54508D02*
X78012D01*
X75089Y55216D02*
X78523D01*
X75089Y55157D02*
X78464D01*
X75089Y55098D02*
X78405D01*
X75089Y55039D02*
X78346D01*
X75089Y54980D02*
X78286D01*
X75089Y54921D02*
X78227D01*
X75089Y54862D02*
X78168D01*
X75089Y54212D02*
X78012D01*
X75089Y54153D02*
X78012D01*
X75089Y54331D02*
X78012D01*
X75089Y54272D02*
X78012D01*
X75089Y54094D02*
X78012D01*
X75089Y54035D02*
X78012D01*
X76805Y53681D02*
X78012D01*
X76902Y53622D02*
X77306D01*
X75089Y53858D02*
X78012D01*
X75089Y53799D02*
X78012D01*
X75089Y53976D02*
X78012D01*
X75089Y53917D02*
X78012D01*
X75089Y53740D02*
X78012D01*
X75089Y53681D02*
X76344D01*
X75089Y53622D02*
X76248D01*
X76967Y53563D02*
X77232D01*
X77014Y53504D02*
X77187D01*
X77028Y53484D02*
X77176D01*
X77028D02*
X77176D01*
X76951Y52815D02*
X77176D01*
X76951D02*
X77176D01*
X77008Y52513D02*
Y52815D01*
X76949Y52581D02*
Y52812D01*
X75089Y53563D02*
X76183D01*
X75089Y53504D02*
X76135D01*
X75089Y53445D02*
X76099D01*
X75089Y53386D02*
X76073D01*
X76930Y52795D02*
X77187D01*
X75089Y53327D02*
X76055D01*
X76907Y52618D02*
X77284D01*
X76970Y52559D02*
X77218D01*
X76890Y52631D02*
Y52763D01*
X77017Y52500D02*
X77177D01*
X76984Y51850D02*
X77167D01*
X76926Y51791D02*
X77202D01*
X77052Y52441D02*
X77152D01*
X77027Y51909D02*
X77146D01*
X76849Y52736D02*
X77232D01*
X76813Y52677D02*
X77307D01*
X76831Y52668D02*
Y52726D01*
X76842Y51732D02*
X77258D01*
X75089Y53268D02*
X76043D01*
X75089Y53149D02*
X76041D01*
X75089Y53209D02*
X76039D01*
X75089Y53090D02*
X76003D01*
X75787Y52874D02*
X76043Y53130D01*
X75089Y53031D02*
X75944D01*
X75089Y52972D02*
X75885D01*
X75089Y52913D02*
X75826D01*
X75089Y52854D02*
X75768D01*
X75089Y52795D02*
X75728D01*
X75089Y52736D02*
X75704D01*
X75089Y52677D02*
X75691D01*
X75089Y52618D02*
X75689D01*
X75089Y52027D02*
X75689D01*
X75089Y51968D02*
X75689D01*
X75089Y52146D02*
X75689D01*
X75089Y52087D02*
X75689D01*
X75089Y51791D02*
X75689D01*
X75089Y51732D02*
X75689D01*
X75089Y51909D02*
X75689D01*
X75089Y51850D02*
X75689D01*
X75089Y52441D02*
X75689D01*
X75089Y52382D02*
X75689D01*
X75089Y52559D02*
X75689D01*
X75089Y52500D02*
X75689D01*
X75089Y52264D02*
X75689D01*
X75089Y52205D02*
X75689D01*
X75089Y52323D02*
X75689D01*
X84661Y51614D02*
X87232D01*
X84665Y51555D02*
X87200D01*
X84665Y51496D02*
X87178D01*
X84665Y51437D02*
X87166D01*
X84665Y51378D02*
X87162D01*
X84664Y51319D02*
X87166D01*
X84664Y50846D02*
X87133D01*
X84665Y50787D02*
X87106D01*
X84646Y51673D02*
X87277D01*
X84591Y51142D02*
X87232D01*
X84652Y51260D02*
X87179D01*
X84629Y51201D02*
X87200D01*
X84531Y51083D02*
X87264D01*
X84591Y51024D02*
X87264D01*
X84629Y50964D02*
X87250D01*
X84652Y50905D02*
X87177D01*
X84574Y50374D02*
X87100D01*
X84502Y50315D02*
X87123D01*
X84665Y50728D02*
X87091D01*
X84618Y50433D02*
X87088D01*
X83775Y50079D02*
X87123D01*
X83787Y49429D02*
X87107D01*
X83780Y50020D02*
X87100D01*
X83780Y49961D02*
X87088D01*
X83689Y50256D02*
X87161D01*
X83733Y50197D02*
X87221D01*
X83760Y50138D02*
X87161D01*
X83743Y49665D02*
X87091D01*
X83749Y49547D02*
X87134D01*
X83774Y49488D02*
X87141D01*
X83710Y49606D02*
X87106D01*
X84665Y51353D02*
Y51560D01*
Y50669D02*
X87087D01*
X84626Y50971D02*
Y51194D01*
X84567Y51051D02*
Y51114D01*
X84665Y50610D02*
X87087D01*
X84661Y50551D02*
X87087D01*
X84665Y50605D02*
Y50812D01*
X84646Y50492D02*
X87087D01*
X83689Y50335D02*
X83776D01*
X83740Y50184D02*
Y50335D01*
X83681Y50264D02*
Y50327D01*
X83780Y49901D02*
X87087D01*
X83789Y49370D02*
X87087D01*
X83981Y50266D02*
X84326D01*
X83789Y49311D02*
X87078D01*
X83789Y49252D02*
X87077D01*
X83789Y49193D02*
X87077D01*
X83789Y49158D02*
Y49385D01*
X83788Y49134D02*
X87077D01*
X83780Y49842D02*
X87087D01*
X83778Y49783D02*
X87087D01*
X83780Y49818D02*
Y50025D01*
X83766Y49724D02*
X87087D01*
X83740Y49564D02*
Y49659D01*
X83789Y48661D02*
X87087D01*
X83789Y48602D02*
X87078D01*
X83789Y48543D02*
X87077D01*
X83789Y48484D02*
X87077D01*
X84921Y47735D02*
Y51890D01*
X83788Y48425D02*
X87077D01*
X84803Y47811D02*
Y51890D01*
X84862Y47723D02*
Y51890D01*
X83725Y48957D02*
X87092D01*
X83710Y48898D02*
X87117D01*
X83779Y49075D02*
X87077D01*
X83759Y49016D02*
X87080D01*
X83749Y48838D02*
X87156D01*
X83774Y48779D02*
X87141D01*
X83787Y48720D02*
X87107D01*
X83779Y48366D02*
X87077D01*
X84783Y47835D02*
X84993D01*
X84830Y47776D02*
X84946D01*
X84865Y47716D02*
X84911D01*
X84843Y47126D02*
X84934D01*
X84862Y46911D02*
Y47159D01*
X84921Y46910D02*
Y47147D01*
X83759Y48307D02*
X87080D01*
X83725Y48248D02*
X87092D01*
X84495Y48012D02*
X85282D01*
X84638Y47953D02*
X85138D01*
X84722Y47894D02*
X85054D01*
X84508Y48008D02*
Y50319D01*
X84449Y48022D02*
Y50289D01*
X84390Y48030D02*
Y50272D01*
X84331Y48031D02*
Y50266D01*
X84685Y47923D02*
Y51890D01*
X84744Y47875D02*
Y51890D01*
X84626Y47959D02*
Y50446D01*
X84567Y47987D02*
Y50366D01*
X84094Y47977D02*
Y50266D01*
X84271Y48027D02*
Y50266D01*
X83976Y47904D02*
Y50266D01*
X84035Y47945D02*
Y50266D01*
X83858Y47778D02*
Y50289D01*
X83917Y47850D02*
Y50272D01*
X83799Y47671D02*
Y50319D01*
X84153Y48000D02*
Y50266D01*
X84212Y48017D02*
Y50266D01*
X83789Y48450D02*
Y48676D01*
X83775Y47716D02*
X83821D01*
X83753Y47126D02*
X83844D01*
X83858Y46908D02*
Y47104D01*
X83799Y46911D02*
Y47211D01*
X83740Y46909D02*
Y47107D01*
Y48855D02*
Y48979D01*
X83681Y47848D02*
Y48197D01*
X83693Y47835D02*
X83903D01*
X83740Y47776D02*
X83856D01*
X83740Y47775D02*
Y48271D01*
X82500Y51560D02*
Y52376D01*
X82559Y51588D02*
Y52334D01*
X82382Y51516D02*
Y52520D01*
X82441Y51519D02*
Y52441D01*
X82264Y51516D02*
Y52520D01*
X82323Y51516D02*
Y52520D01*
X82146Y51516D02*
Y52520D01*
X82205Y51516D02*
Y52520D01*
X81791Y51516D02*
Y52431D01*
X81850Y51516D02*
Y52431D01*
X81673Y51516D02*
Y52431D01*
X81732Y51516D02*
Y52431D01*
X82086Y51516D02*
Y52513D01*
X82027Y51516D02*
Y52472D01*
X81968Y51516D02*
Y52447D01*
X81909Y51516D02*
Y52434D01*
X82854Y51595D02*
Y52296D01*
X82770Y51614D02*
X82913D01*
X82795Y51610D02*
Y52284D01*
X82736Y51617D02*
Y52282D01*
X83669Y50315D02*
X83805D01*
X82913Y51570D02*
Y52317D01*
X82913Y51570D02*
Y52317D01*
X82677Y51616D02*
Y52289D01*
X78544Y51673D02*
X82913D01*
X82618Y51606D02*
Y52306D01*
X78648Y51614D02*
X82663D01*
X78703Y51555D02*
X82492D01*
X78728Y51516D02*
X82437D01*
X81319D02*
Y52498D01*
X81378Y51516D02*
Y52463D01*
X81201Y51516D02*
Y52539D01*
X81260Y51516D02*
Y52539D01*
X81555Y51516D02*
Y52431D01*
X81614Y51516D02*
Y52431D01*
X81437Y51516D02*
Y52442D01*
X81496Y51516D02*
Y52432D01*
X80964Y51516D02*
Y52442D01*
X80905Y51516D02*
Y52432D01*
X80787Y51516D02*
Y52431D01*
X80846Y51516D02*
Y52431D01*
X81142Y51516D02*
Y52539D01*
X81083Y51516D02*
Y52497D01*
X81023Y51516D02*
Y52462D01*
X80669Y51516D02*
Y52431D01*
X80728Y51516D02*
Y52431D01*
X80610Y51516D02*
Y52431D01*
X78770Y50315D02*
X80702D01*
X80669Y50242D02*
Y50349D01*
X78770Y50256D02*
X80681D01*
X78728Y50846D02*
X80599D01*
X78728Y50846D02*
X80599D01*
X78687Y50787D02*
X80591D01*
X78719Y50551D02*
X80591D01*
X78764Y50433D02*
X80618D01*
X78770Y50374D02*
X80650D01*
X78747Y50492D02*
X80599D01*
X83672Y48189D02*
X87117D01*
X83602Y48130D02*
X87156D01*
X83602Y48071D02*
X87218D01*
X83602Y48012D02*
X84192D01*
X83622Y47902D02*
Y48151D01*
X83602Y47917D02*
Y48140D01*
X78597Y48130D02*
X80768D01*
X78581Y48189D02*
X80698D01*
X78602Y48071D02*
X80768D01*
X80135Y48012D02*
X80768D01*
X80728Y47920D02*
Y48165D01*
X80768Y47946D02*
Y48140D01*
X83602Y47953D02*
X84048D01*
X83632Y47894D02*
X83964D01*
X82663Y47126D02*
X82754D01*
X82736Y46911D02*
Y47156D01*
X82677Y46911D02*
Y47150D01*
X81673Y46908D02*
Y47111D01*
X81614Y46912D02*
Y47204D01*
X81573Y47126D02*
X81664D01*
X80278Y47953D02*
X80768D01*
X81555Y46909D02*
Y47100D01*
X80610Y50138D02*
Y50452D01*
X78770Y50197D02*
X80637D01*
X78770Y50138D02*
X80610D01*
X78770Y50079D02*
X80595D01*
X80610Y49525D02*
Y49704D01*
X77933Y49665D02*
X80627D01*
X77933Y49606D02*
X80660D01*
X78673Y49783D02*
X80592D01*
X78599Y49724D02*
X80604D01*
X77933Y49547D02*
X80621D01*
X77933Y49488D02*
X80596D01*
X77933Y49075D02*
X80591D01*
X80362Y47894D02*
X80694D01*
X80610Y48816D02*
Y49018D01*
X78552Y48248D02*
X80645D01*
X80669Y47872D02*
Y48217D01*
X80423Y47835D02*
X80633D01*
X80610Y47808D02*
Y48310D01*
Y46905D02*
Y47074D01*
X77933Y48957D02*
X80645D01*
X77933Y48898D02*
X80660D01*
X77933Y49016D02*
X80611D01*
X77973Y48838D02*
X80621D01*
X78032Y48779D02*
X80596D01*
X78505Y48307D02*
X80611D01*
X78446Y48366D02*
X80591D01*
X84744Y47008D02*
X85032D01*
X84669Y46949D02*
X85107D01*
X84803Y46906D02*
Y47070D01*
X84800Y47067D02*
X84976D01*
X84744Y46895D02*
Y47007D01*
X84685Y46877D02*
Y46959D01*
X84626Y46853D02*
Y46922D01*
X83976Y46882D02*
Y46978D01*
X83579Y46949D02*
X84017D01*
X83917Y46898D02*
Y47032D01*
X83654Y47008D02*
X83942D01*
X84035Y46860D02*
Y46937D01*
X84094Y46829D02*
Y46905D01*
X84567Y46820D02*
Y46894D01*
X84555Y46890D02*
X84724D01*
X84508Y46777D02*
Y46874D01*
X84449Y46721D02*
Y46860D01*
X84390Y46645D02*
Y46852D01*
X84281Y46653D02*
X84395D01*
X84331Y46566D02*
Y46851D01*
X84317Y46594D02*
X84360D01*
X84091Y46831D02*
X84585D01*
X84175Y46772D02*
X84501D01*
X83952Y46890D02*
X84131D01*
X84153Y46789D02*
Y46882D01*
X84271Y46667D02*
Y46855D01*
X84235Y46713D02*
X84441D01*
X84212Y46737D02*
Y46865D01*
X83710Y47067D02*
X83886D01*
X83681Y46901D02*
Y47034D01*
X82854Y46892D02*
Y47005D01*
X83622Y46886D02*
Y46980D01*
X83563Y46865D02*
Y46938D01*
X83504Y46836D02*
Y46906D01*
X82913Y46873D02*
Y46958D01*
X82972Y46847D02*
Y46921D01*
X82564Y47008D02*
X82852D01*
X82489Y46949D02*
X82927D01*
X82620Y47067D02*
X82796D01*
X82618Y46905D02*
Y47064D01*
X82795Y46904D02*
Y47068D01*
X82559Y46894D02*
Y47003D01*
X82500Y46875D02*
Y46956D01*
X83465Y46890D02*
X83634D01*
X83445Y46798D02*
Y46882D01*
X83386Y46748D02*
Y46865D01*
X83327Y46683D02*
Y46855D01*
X83191Y46653D02*
X83305D01*
X83226Y46594D02*
X83270D01*
X83209Y46626D02*
Y46852D01*
X83268Y46590D02*
Y46851D01*
X83001Y46831D02*
X83495D01*
X83085Y46772D02*
X83411D01*
X83031Y46812D02*
Y46894D01*
X82862Y46890D02*
X83041D01*
X83149Y46708D02*
Y46860D01*
X83145Y46713D02*
X83351D01*
X83090Y46767D02*
Y46873D01*
X84291Y46004D02*
X84385D01*
X84508Y43593D02*
Y45865D01*
X84449Y43593D02*
Y45921D01*
X84567Y43593D02*
Y45822D01*
X84331Y43593D02*
Y46076D01*
X84390Y43593D02*
Y45997D01*
X84192Y45886D02*
X84484D01*
X84116Y45827D02*
X84560D01*
X84248Y45945D02*
X84428D01*
X84271Y43593D02*
Y45975D01*
X84212Y43593D02*
Y45905D01*
X84153Y43593D02*
Y45853D01*
X84685Y43593D02*
Y45765D01*
X84744Y43593D02*
Y45747D01*
X84094Y43593D02*
Y45813D01*
X84626Y43593D02*
Y45789D01*
X84980Y43593D02*
Y45738D01*
X84921Y43593D02*
Y45732D01*
X84803Y43593D02*
Y45736D01*
X84862Y43593D02*
Y45731D01*
X82564Y45709D02*
X91890D01*
X82505Y45650D02*
X91890D01*
X84035Y43593D02*
Y45782D01*
X83999Y45768D02*
X84677D01*
X83976Y43593D02*
Y45760D01*
X83917Y43593D02*
Y45744D01*
X83858Y43593D02*
Y45734D01*
X83504Y43593D02*
Y45806D01*
X83201Y46004D02*
X83295D01*
X83445Y43593D02*
Y45844D01*
X83327Y43593D02*
Y45959D01*
X83386Y43593D02*
Y45893D01*
X83268Y43593D02*
Y46052D01*
X83209Y43593D02*
Y46016D01*
X83102Y45886D02*
X83394D01*
X83026Y45827D02*
X83470D01*
X83158Y45945D02*
X83338D01*
X83149Y43593D02*
Y45934D01*
X83090Y43593D02*
Y45875D01*
X83031Y43593D02*
Y45830D01*
X83563Y43593D02*
Y45777D01*
X82909Y45768D02*
X83587D01*
X82972Y43593D02*
Y45795D01*
X82913Y43593D02*
Y45769D01*
X83740Y43593D02*
Y45733D01*
X83799Y43593D02*
Y45730D01*
X83622Y43593D02*
Y45756D01*
X83681Y43593D02*
Y45741D01*
X82618Y43593D02*
Y45737D01*
X82677Y43593D02*
Y45731D01*
X82559Y43593D02*
Y45704D01*
X82500Y43593D02*
Y45644D01*
X82854Y43593D02*
Y45750D01*
X82795Y43593D02*
Y45738D01*
X82736Y43593D02*
Y45731D01*
X82441Y46850D02*
Y46920D01*
X82375Y46890D02*
X82544D01*
X82382Y46816D02*
Y46892D01*
X82323Y46773D02*
Y46872D01*
X82264Y46715D02*
Y46859D01*
X82205Y46638D02*
Y46852D01*
X82146Y46576D02*
Y46851D01*
X81909Y46832D02*
Y46908D01*
X81772Y46890D02*
X81951D01*
X81399Y46949D02*
X81837D01*
X81850Y46862D02*
Y46940D01*
X82086Y46674D02*
Y46855D01*
X81968Y46793D02*
Y46883D01*
X82027Y46742D02*
Y46866D01*
X82446Y45590D02*
X91890D01*
X82387Y45531D02*
X91890D01*
X82101Y46653D02*
X82215D01*
X82136Y46594D02*
X82180D01*
X82210Y45354D02*
X91890D01*
X82151Y45295D02*
X91890D01*
X82328Y45472D02*
X91890D01*
X82269Y45413D02*
X91890D01*
X81911Y46831D02*
X82405D01*
X82092Y45236D02*
X91890D01*
X81995Y46772D02*
X82321D01*
X82055Y46713D02*
X82261D01*
X81973Y45118D02*
X91890D01*
X81914Y45059D02*
X91890D01*
X82032Y45177D02*
X91890D01*
X81732Y46899D02*
Y47037D01*
X81474Y47008D02*
X81762D01*
X81530Y47067D02*
X81706D01*
X81496Y46900D02*
Y47029D01*
X81791Y46884D02*
Y46982D01*
X81437Y46885D02*
Y46976D01*
X81378Y46863D02*
Y46935D01*
X81319Y46833D02*
Y46904D01*
X80384Y47008D02*
X80672D01*
X80309Y46949D02*
X80747D01*
X80440Y47067D02*
X80616D01*
X80669Y46893D02*
Y47010D01*
X80787Y46849D02*
Y46924D01*
X80728Y46875D02*
Y46962D01*
X81285Y46890D02*
X81454D01*
X81260Y46794D02*
Y46881D01*
X81201Y46744D02*
Y46864D01*
X81142Y46677D02*
Y46854D01*
X81011Y46653D02*
X81125D01*
X81046Y46594D02*
X81090D01*
X81023Y46635D02*
Y46852D01*
X81083Y46580D02*
Y46850D01*
X80821Y46831D02*
X81315D01*
X80905Y46772D02*
X81231D01*
X80846Y46815D02*
Y46896D01*
X80682Y46890D02*
X80861D01*
X80964Y46713D02*
Y46860D01*
X80965Y46713D02*
X81171D01*
X80905Y46771D02*
Y46875D01*
X81847Y45000D02*
X91890D01*
X75089Y44941D02*
X91890D01*
X81894Y45039D02*
X82596Y45740D01*
X82382Y43593D02*
Y45526D01*
X82441Y43593D02*
Y45585D01*
X82323Y43593D02*
Y45467D01*
X82264Y43593D02*
Y45408D01*
X82205Y43593D02*
Y45349D01*
X75089Y44764D02*
X95777D01*
X75089Y44705D02*
X95777D01*
X75089Y44882D02*
X91890D01*
X75089Y44823D02*
X95777D01*
X75089Y44527D02*
X95777D01*
X75089Y44468D02*
X95777D01*
X75089Y44646D02*
X95777D01*
X75089Y44587D02*
X95777D01*
X75089Y43878D02*
X95777D01*
X75089Y43819D02*
X95777D01*
X75089Y43996D02*
X95777D01*
X75089Y43937D02*
X95777D01*
X75089Y43642D02*
X95777D01*
X75089Y43593D02*
X95777D01*
X75089Y43760D02*
X95777D01*
X75089Y43701D02*
X95777D01*
X75089Y44291D02*
X95777D01*
X75089Y44232D02*
X95777D01*
X75089Y44409D02*
X95777D01*
X75089Y44350D02*
X95777D01*
X75089Y44114D02*
X95777D01*
X75089Y44055D02*
X95777D01*
X75089Y44173D02*
X95777D01*
X81909Y43593D02*
Y45054D01*
X81850Y43593D02*
Y45002D01*
X81791Y43593D02*
Y44969D01*
X81732Y43593D02*
Y44949D01*
X82146Y43593D02*
Y45290D01*
X82086Y43593D02*
Y45231D01*
X82027Y43593D02*
Y45172D01*
X81968Y43593D02*
Y45113D01*
X81673Y43593D02*
Y44941D01*
X78819Y44941D02*
X81658D01*
X81555Y43593D02*
Y44941D01*
X81614Y43593D02*
Y44941D01*
X81496Y43593D02*
Y44941D01*
X81142Y43593D02*
Y44941D01*
X81201Y43593D02*
Y44941D01*
X81023Y43593D02*
Y44941D01*
X81083Y43593D02*
Y44941D01*
X81378Y43593D02*
Y44941D01*
X81437Y43593D02*
Y44941D01*
X81260Y43593D02*
Y44941D01*
X81319Y43593D02*
Y44941D01*
X80728Y43593D02*
Y44941D01*
X80787Y43593D02*
Y44941D01*
X80610Y43593D02*
Y44941D01*
X80669Y43593D02*
Y44941D01*
X80905Y43593D02*
Y44941D01*
X80964Y43593D02*
Y44941D01*
X80846Y43593D02*
Y44941D01*
X80197Y51516D02*
Y52539D01*
X80256Y51516D02*
Y52539D01*
X80138Y51516D02*
Y52527D01*
X80079Y51516D02*
Y52482D01*
X80433Y51516D02*
Y52447D01*
X80492Y51516D02*
Y52434D01*
X80315Y51516D02*
Y52513D01*
X80374Y51516D02*
Y52473D01*
X79429Y51516D02*
Y52454D01*
X79488Y51516D02*
Y52437D01*
X79311Y51516D02*
Y52528D01*
X79370Y51516D02*
Y52482D01*
X80020Y51516D02*
Y52453D01*
X79960Y51516D02*
Y52437D01*
X79547Y51516D02*
Y52431D01*
X79901Y51516D02*
Y52431D01*
X79842Y51516D02*
Y52431D01*
X80551Y51516D02*
Y52431D01*
X79606Y51516D02*
Y52431D01*
X79783Y51516D02*
Y52431D01*
X80591Y50566D02*
Y50773D01*
Y49818D02*
Y50025D01*
X79665Y51516D02*
Y52431D01*
X79724Y51516D02*
Y52431D01*
X78673Y50610D02*
X80591D01*
X78770Y50020D02*
X80591D01*
X78642Y50728D02*
X80591D01*
X78642Y50669D02*
X80591D01*
X78747Y49901D02*
X80591D01*
X78718Y49842D02*
X80591D01*
X78764Y49961D02*
X80591D01*
X79016Y51516D02*
Y54763D01*
X78957Y51516D02*
Y54704D01*
X78897Y51516D02*
Y54645D01*
X78838Y51516D02*
Y54586D01*
X79193Y51516D02*
Y54940D01*
X79252Y51516D02*
Y52602D01*
X79134Y51516D02*
Y54881D01*
X79075Y51516D02*
Y54822D01*
X78661Y51602D02*
Y51744D01*
X78602Y51646D02*
Y51700D01*
X77244Y51602D02*
Y51745D01*
X77303Y51646D02*
Y51701D01*
X78779Y51516D02*
Y54527D01*
X78720Y51530D02*
Y51817D01*
X77185Y51529D02*
Y51817D01*
X78661Y50622D02*
Y50760D01*
X78642Y50639D02*
Y50743D01*
X78770Y50025D02*
Y50369D01*
X78720Y50548D02*
Y50833D01*
X77303Y50667D02*
Y50716D01*
X77136Y51009D02*
Y51353D01*
X77244Y50622D02*
Y50760D01*
X77933Y49724D02*
X78015D01*
X77185Y50548D02*
Y50833D01*
X80256Y47965D02*
Y50846D01*
X80315Y47930D02*
Y50846D01*
X80138Y48011D02*
Y50846D01*
X80197Y47992D02*
Y50846D01*
X80492Y47741D02*
Y50846D01*
X80551Y47717D02*
Y50846D01*
X80374Y47884D02*
Y50846D01*
X80433Y47824D02*
Y50846D01*
X80020Y48030D02*
Y50846D01*
X80079Y48024D02*
Y50846D01*
X79724Y47972D02*
Y50846D01*
X79901Y48026D02*
Y50846D01*
X79606Y47896D02*
Y50846D01*
X79665Y47939D02*
Y50846D01*
X79488Y47763D02*
Y50846D01*
X79547Y47839D02*
Y50846D01*
X78210Y48602D02*
X80581D01*
X78269Y48543D02*
X80581D01*
Y49158D02*
Y49385D01*
X78151Y48661D02*
X80581D01*
X79960Y48031D02*
Y50846D01*
X80581Y48450D02*
Y48676D01*
X79783Y47997D02*
Y50846D01*
X79842Y48014D02*
Y50846D01*
X77933Y49429D02*
X80584D01*
X77933Y49370D02*
X80581D01*
X77933Y49311D02*
X80581D01*
X77933Y49252D02*
X80581D01*
X77933Y49134D02*
X80582D01*
X78091Y48720D02*
X80584D01*
X77933Y49193D02*
X80581D01*
X79134Y48032D02*
Y50846D01*
X79193Y48032D02*
Y50846D01*
X79016Y48032D02*
Y50846D01*
X79075Y48032D02*
Y50846D01*
X79370Y48032D02*
Y50846D01*
X79429Y48032D02*
Y50846D01*
X79252Y48032D02*
Y50846D01*
X79311Y48032D02*
Y50846D01*
X78897Y48032D02*
Y50846D01*
X78957Y48032D02*
Y50846D01*
X77953Y48859D02*
Y49772D01*
X78779Y48032D02*
Y50846D01*
X78838Y48032D02*
Y50846D01*
X78720Y48032D02*
Y49846D01*
X78425Y48387D02*
Y49675D01*
X78366Y48446D02*
Y49675D01*
X78248Y48564D02*
Y49675D01*
X78307Y48505D02*
Y49675D01*
X78661Y48032D02*
Y49772D01*
X78602Y48081D02*
Y49726D01*
X78543Y48261D02*
Y49698D01*
X78484Y48328D02*
Y49681D01*
X78071Y48741D02*
Y49698D01*
X78194Y49675D02*
X78420D01*
X77933Y48879D02*
Y49754D01*
X78012Y48800D02*
Y49726D01*
X78189Y48623D02*
Y49675D01*
X77933Y48879D02*
X78504Y48307D01*
X78130Y48682D02*
Y49681D01*
X77020Y51496D02*
X77167D01*
X77067Y51410D02*
Y51984D01*
X77054Y51437D02*
X77146D01*
X77080Y51378D02*
X77137D01*
X77126Y50532D02*
Y52815D01*
X77097Y51319D02*
X77136D01*
X76821Y51673D02*
X77361D01*
X76912Y51614D02*
X77258D01*
X76949Y51581D02*
Y51812D01*
X76974Y51555D02*
X77202D01*
X77008Y51513D02*
Y51880D01*
X77111Y50728D02*
X77284D01*
X77111Y50669D02*
X77306D01*
X77099Y51083D02*
X77136D01*
X77082Y51024D02*
X77136D01*
X77111Y50610D02*
X77232D01*
X77111Y50551D02*
X77187D01*
X77111Y50532D02*
Y50733D01*
Y50532D02*
X77176D01*
X76981Y50846D02*
X77177D01*
X76921Y50787D02*
X77218D01*
X77058Y50964D02*
X77139D01*
X77025Y50905D02*
X77152D01*
X77067Y50733D02*
Y50984D01*
X76844Y50733D02*
X77111D01*
X77008D02*
Y50880D01*
X76890Y51631D02*
Y51763D01*
X76831Y51668D02*
Y51726D01*
X75089Y51673D02*
X75689D01*
X75089Y51614D02*
X75689D01*
X75089Y51437D02*
X75689D01*
X75089Y51378D02*
X75689D01*
X75089Y51555D02*
X75689D01*
X75089Y51496D02*
X75689D01*
X75089Y51201D02*
X75689D01*
X75089Y51142D02*
X75689D01*
X75089Y51319D02*
X75689D01*
X75089Y51260D02*
X75689D01*
X75089Y51024D02*
X75689D01*
X75089Y50964D02*
X75689D01*
X75089Y51083D02*
X75689D01*
X76949Y50733D02*
Y50812D01*
X75089Y50787D02*
X75689D01*
X75089Y50905D02*
X75689D01*
X75089Y50846D02*
X75689D01*
X75089Y50610D02*
X75689D01*
X75089Y50551D02*
X75689D01*
X75089Y50728D02*
X75689D01*
X75089Y50669D02*
X75689D01*
X75089Y50374D02*
X75689D01*
X75089Y50315D02*
X75689D01*
X75089Y50492D02*
X75689D01*
X75089Y50433D02*
X75689D01*
X75089Y50197D02*
X75689D01*
X75089Y50138D02*
X75689D01*
X75089Y50256D02*
X75689D01*
X76181Y48101D02*
Y49173D01*
X76240Y48100D02*
Y49114D01*
X76063Y48096D02*
Y49291D01*
X76122Y48100D02*
Y49232D01*
X76299Y48095D02*
Y49054D01*
X76358Y48087D02*
Y48995D01*
X75945Y48080D02*
Y49409D01*
X76004Y48090D02*
Y49350D01*
X75089Y49252D02*
X76102D01*
X75089Y49193D02*
X76161D01*
X75089Y49370D02*
X75984D01*
X75089Y49311D02*
X76043D01*
X75787Y49567D02*
X77579Y47775D01*
X75089Y49016D02*
X76338D01*
X75089Y49134D02*
X76220D01*
X75089Y49075D02*
X76279D01*
X75089Y48838D02*
X76515D01*
X76535Y48046D02*
Y48818D01*
X76417Y48077D02*
Y48936D01*
X76476Y48063D02*
Y48877D01*
X76712Y47976D02*
Y48641D01*
X76771Y47945D02*
Y48582D01*
X76594Y48026D02*
Y48759D01*
X76653Y48003D02*
Y48700D01*
X75089Y48779D02*
X76574D01*
X75089Y48720D02*
X76633D01*
X75089Y48957D02*
X76397D01*
X75089Y48898D02*
X76456D01*
X75089Y48602D02*
X76751D01*
X75089Y48543D02*
X76810D01*
X75089Y48661D02*
X76692D01*
X75649Y47983D02*
Y64281D01*
X75689Y49803D02*
Y52638D01*
X75531Y47919D02*
Y64281D01*
X75590Y47953D02*
Y64281D01*
X75413Y47836D02*
Y64281D01*
X75472Y47880D02*
Y64281D01*
X75295Y47729D02*
Y64281D01*
X75354Y47786D02*
Y64281D01*
X75089Y50079D02*
X75689D01*
X75089Y50020D02*
X75689D01*
X75236Y47663D02*
Y64281D01*
X75089Y49961D02*
X75689D01*
X75118Y47494D02*
Y64281D01*
X75177Y47586D02*
Y64281D01*
X75089Y47442D02*
Y64281D01*
Y49901D02*
X75689D01*
X75089Y49783D02*
X75690D01*
X75827Y48051D02*
Y49527D01*
X75886Y48067D02*
Y49468D01*
X75709Y48010D02*
Y49690D01*
X75768Y48032D02*
Y49588D01*
X75089Y49665D02*
X75719D01*
X75089Y49606D02*
X75753D01*
X75089Y49842D02*
X75689D01*
X75089Y49724D02*
X75698D01*
X75089Y49488D02*
X75865D01*
X75089Y49429D02*
X75924D01*
X75089Y49547D02*
X75806D01*
X80470Y47776D02*
X80586D01*
X80483Y47126D02*
X80574D01*
X80505Y47716D02*
X80551D01*
X80551Y46911D02*
Y47165D01*
X80492Y46911D02*
Y47141D01*
X80433Y46905D02*
Y47058D01*
X80374Y46892D02*
Y46998D01*
X80315Y46874D02*
Y46952D01*
X78328Y48484D02*
X80581D01*
X78387Y48425D02*
X80582D01*
X79484Y48012D02*
X79832D01*
X80256Y46848D02*
Y46917D01*
X80197Y46813D02*
Y46890D01*
X80195Y46890D02*
X80364D01*
X80138Y46768D02*
Y46871D01*
X80079Y46710D02*
Y46858D01*
X80020Y46629D02*
Y46852D01*
X79921Y46653D02*
X80035D01*
X79960Y46587D02*
Y46851D01*
X79956Y46594D02*
X80000D01*
X79731Y46831D02*
X80225D01*
X79815Y46772D02*
X80141D01*
X79783Y46796D02*
Y46885D01*
X79842Y46747D02*
Y46867D01*
X79875Y46713D02*
X80081D01*
X79901Y46681D02*
Y46856D01*
X79484Y47953D02*
X79688D01*
X79484Y47894D02*
X79604D01*
X78602Y48032D02*
Y48071D01*
X79484Y47835D02*
X79543D01*
X79488Y46909D02*
Y47119D01*
X79484Y47067D02*
X79526D01*
X79484Y47756D02*
Y48032D01*
Y46909D02*
Y47126D01*
X78602Y48032D02*
X79484D01*
X77355Y47185D02*
X77579D01*
X77369Y47126D02*
X77579D01*
X77379Y47067D02*
X77579D01*
X77362Y47156D02*
Y47991D01*
X79484Y46949D02*
X79657D01*
X79592Y46890D02*
X79771D01*
X79547Y46900D02*
Y47043D01*
X79484Y47008D02*
X79582D01*
X79665Y46864D02*
Y46943D01*
X79724Y46835D02*
Y46910D01*
X79606Y46886D02*
Y46986D01*
X77394Y46890D02*
X77579D01*
X77393Y46831D02*
X77579D01*
X77389Y46772D02*
X77579D01*
X77387Y47008D02*
X77579D01*
X77392Y46949D02*
X77579D01*
X77372Y46653D02*
X77579D01*
X77359Y46594D02*
X77579D01*
X77382Y46713D02*
X77579D01*
X79370Y43593D02*
Y44941D01*
X79429Y43593D02*
Y44941D01*
X79252Y43593D02*
Y44941D01*
X79311Y43593D02*
Y44941D01*
X79606Y43593D02*
Y44941D01*
X79665Y43593D02*
Y44941D01*
X79488Y43593D02*
Y44941D01*
X79547Y43593D02*
Y44941D01*
X78897Y43593D02*
Y44941D01*
X78957Y43593D02*
Y44941D01*
X78838Y43593D02*
Y44941D01*
X79134Y43593D02*
Y44941D01*
X79193Y43593D02*
Y44941D01*
X79016Y43593D02*
Y44941D01*
X79075Y43593D02*
Y44941D01*
X80256Y43593D02*
Y44941D01*
X80315Y43593D02*
Y44941D01*
X80138Y43593D02*
Y44941D01*
X80197Y43593D02*
Y44941D01*
X80492Y43593D02*
Y44941D01*
X80551Y43593D02*
Y44941D01*
X80374Y43593D02*
Y44941D01*
X80433Y43593D02*
Y44941D01*
X79842Y43593D02*
Y44941D01*
X79901Y43593D02*
Y44941D01*
X79724Y43593D02*
Y44941D01*
X79783Y43593D02*
Y44941D01*
X80020Y43593D02*
Y44941D01*
X80079Y43593D02*
Y44941D01*
X79960Y43593D02*
Y44941D01*
X77677Y45944D02*
X78582Y45039D01*
X77953Y43593D02*
Y45669D01*
X77834Y43593D02*
Y45787D01*
X77894Y43593D02*
Y45728D01*
X77716Y43593D02*
Y45905D01*
X77775Y43593D02*
Y45846D01*
X77598Y43593D02*
Y46068D01*
X77657Y43593D02*
Y45966D01*
X77539Y43593D02*
Y47814D01*
X77579Y46181D02*
Y47775D01*
X77421Y43593D02*
Y47932D01*
X77480Y43593D02*
Y47873D01*
X77362Y43593D02*
Y46605D01*
X78779Y43593D02*
Y44943D01*
X78661Y43593D02*
Y44980D01*
X78720Y43593D02*
Y44956D01*
X78543Y43593D02*
Y45078D01*
X78602Y43593D02*
Y45021D01*
X78425Y43593D02*
Y45196D01*
X78484Y43593D02*
Y45137D01*
X78130Y43593D02*
Y45491D01*
X78189Y43593D02*
Y45432D01*
X78012Y43593D02*
Y45610D01*
X78071Y43593D02*
Y45551D01*
X78307Y43593D02*
Y45314D01*
X78366Y43593D02*
Y45255D01*
X78248Y43593D02*
Y45373D01*
X77160Y47598D02*
X77579D01*
X77201Y47539D02*
X77579D01*
X77063Y47716D02*
X77579D01*
X77115Y47657D02*
X77579D01*
X77236Y47480D02*
X77579D01*
X77267Y47421D02*
X77579D01*
X77244Y47466D02*
Y48110D01*
X77303Y47342D02*
Y48051D01*
X76632Y48012D02*
X77342D01*
X76757Y47953D02*
X77401D01*
X75089Y48130D02*
X77224D01*
X76445Y48071D02*
X77283D01*
X76935Y47835D02*
X77519D01*
X77003Y47776D02*
X77578D01*
X76854Y47894D02*
X77460D01*
X77338Y47244D02*
X77579D01*
X77344Y46535D02*
X77579D01*
X77295Y47362D02*
X77579D01*
X77318Y47303D02*
X77579D01*
X77276Y46358D02*
X77579D01*
X77246Y46299D02*
X77579D01*
X77325Y46476D02*
X77579D01*
X77302Y46417D02*
X77579D01*
X77173Y46181D02*
X77579D01*
X77129Y46122D02*
X77584D01*
X77212Y46240D02*
X77579D01*
X77022Y46004D02*
X77630D01*
X76956Y45945D02*
X77676D01*
X77079Y46063D02*
X77600D01*
X76949Y47823D02*
Y48405D01*
X77008Y47771D02*
Y48346D01*
X76831Y47909D02*
Y48523D01*
X76890Y47869D02*
Y48464D01*
X77126Y47644D02*
Y48228D01*
X77185Y47563D02*
Y48169D01*
X77067Y47712D02*
Y48287D01*
X75089Y48366D02*
X76987D01*
X75089Y48307D02*
X77047D01*
X75089Y48484D02*
X76869D01*
X75089Y48425D02*
X76928D01*
X75089Y48248D02*
X77106D01*
X75089Y48189D02*
X77165D01*
X75089Y48071D02*
X75901D01*
X75089Y47598D02*
X75186D01*
X75089Y46181D02*
X75173D01*
X75089Y47539D02*
X75145D01*
X75089Y46240D02*
X75134D01*
X75089Y46004D02*
X75324D01*
X75089Y45945D02*
X75390D01*
X75089Y46122D02*
X75217D01*
X75089Y46063D02*
X75267D01*
X75089Y48012D02*
X75714D01*
X75089Y47953D02*
X75589D01*
X75089Y47894D02*
X75492D01*
X75089Y47835D02*
X75411D01*
X75089Y47776D02*
X75343D01*
X75089Y47716D02*
X75283D01*
X75089Y47657D02*
X75231D01*
X77067Y43593D02*
Y46050D01*
X77008Y43593D02*
Y45990D01*
X76949Y43593D02*
Y45939D01*
X76890Y43593D02*
Y45893D01*
X77303Y43593D02*
Y46420D01*
X77244Y43593D02*
Y46295D01*
X77185Y43593D02*
Y46198D01*
X77126Y43593D02*
Y46118D01*
X76788Y45827D02*
X77795D01*
X76673Y45768D02*
X77854D01*
X76880Y45886D02*
X77735D01*
X76831Y43593D02*
Y45853D01*
X76771Y43593D02*
Y45817D01*
X76712Y43593D02*
Y45786D01*
X76653Y43593D02*
Y45759D01*
X75089Y45590D02*
X78031D01*
X75089Y45531D02*
X78090D01*
X76512Y45709D02*
X77913D01*
X75089Y45650D02*
X77972D01*
X75089Y45472D02*
X78149D01*
X75089Y45413D02*
X78208D01*
X76594Y43593D02*
Y45735D01*
X76535Y43593D02*
Y45715D01*
X75089Y45236D02*
X78385D01*
X75089Y45177D02*
X78444D01*
X75089Y45354D02*
X78267D01*
X75089Y45295D02*
X78326D01*
X75089Y45059D02*
X78562D01*
X75089Y45000D02*
X78629D01*
X75089Y45118D02*
X78503D01*
X75649Y43593D02*
Y45778D01*
X75531Y43593D02*
Y45843D01*
X75590Y43593D02*
Y45809D01*
X75413Y43593D02*
Y45926D01*
X75472Y43593D02*
Y45882D01*
X75295Y43593D02*
Y46033D01*
X75354Y43593D02*
Y45976D01*
X75089Y45827D02*
X75558D01*
X75089Y45768D02*
X75673D01*
X75177Y43593D02*
Y46176D01*
X75089Y45886D02*
X75467D01*
X75118Y43593D02*
Y46268D01*
X75236Y43593D02*
Y46099D01*
X75089Y43593D02*
Y46320D01*
X76240Y43593D02*
Y45662D01*
X76181Y43593D02*
Y45661D01*
X76063Y43593D02*
Y45665D01*
X76122Y43593D02*
Y45662D01*
X76476Y43593D02*
Y45699D01*
X76417Y43593D02*
Y45685D01*
X76358Y43593D02*
Y45675D01*
X76299Y43593D02*
Y45667D01*
X75827Y43593D02*
Y45711D01*
X75089Y45709D02*
X75834D01*
X75709Y43593D02*
Y45752D01*
X75768Y43593D02*
Y45730D01*
X75945Y43593D02*
Y45682D01*
X76004Y43593D02*
Y45672D01*
X75886Y43593D02*
Y45695D01*
X84587Y55453D02*
Y55650D01*
X84783D01*
Y55453D02*
Y55650D01*
X84587Y55453D02*
X84783D01*
D11*
X79724Y54370D02*
D03*
Y55079D02*
D03*
X82185Y48563D02*
D03*
Y49272D02*
D03*
X83268Y48563D02*
D03*
Y49272D02*
D03*
X85315Y53681D02*
D03*
Y52972D02*
D03*
X87598Y48465D02*
D03*
Y49173D02*
D03*
X88681Y48465D02*
D03*
Y49173D02*
D03*
X90846Y48465D02*
D03*
Y49173D02*
D03*
X91929Y48465D02*
D03*
Y49173D02*
D03*
X79724Y53602D02*
D03*
Y52894D02*
D03*
X81102Y48563D02*
D03*
Y49272D02*
D03*
X89764Y48465D02*
D03*
Y49173D02*
D03*
X89783Y56693D02*
D03*
Y57402D02*
D03*
X89803Y54764D02*
D03*
Y54055D02*
D03*
D12*
X79094Y61968D02*
D03*
X92480Y45433D02*
D03*
D13*
X82185Y50669D02*
D03*
Y49921D02*
D03*
X83268Y50669D02*
D03*
Y49921D02*
D03*
X81693Y53622D02*
D03*
Y52874D02*
D03*
Y54350D02*
D03*
Y55098D02*
D03*
X85315Y55138D02*
D03*
Y54390D02*
D03*
X87598Y50571D02*
D03*
Y49823D02*
D03*
X88681Y50571D02*
D03*
Y49823D02*
D03*
X90846Y50571D02*
D03*
Y49823D02*
D03*
X91929Y50571D02*
D03*
Y49823D02*
D03*
X81102Y50669D02*
D03*
Y49921D02*
D03*
X80709Y52874D02*
D03*
Y53622D02*
D03*
Y55098D02*
D03*
Y54350D02*
D03*
X89764Y50571D02*
D03*
Y49823D02*
D03*
X84154Y51457D02*
D03*
Y50709D02*
D03*
D14*
X83553Y56968D02*
D03*
X82411D02*
D03*
D15*
X77598Y50197D02*
D03*
X78307D02*
D03*
X77598Y53150D02*
D03*
X78307D02*
D03*
D16*
X77579Y52165D02*
D03*
X78327D02*
D03*
X88012Y52913D02*
D03*
X87264D02*
D03*
X77579Y51181D02*
D03*
X78327D02*
D03*
D17*
X82752Y55118D02*
D03*
X84252D02*
D03*
X83752D02*
D03*
X82752Y52918D02*
D03*
X83752D02*
D03*
X84252D02*
D03*
X83252Y55118D02*
D03*
Y52918D02*
D03*
D18*
X92618Y52874D02*
D03*
Y54016D02*
D03*
D19*
X91063Y55598D02*
D03*
Y57394D02*
D03*
D20*
X93622Y56496D02*
D03*
D21*
Y56693D01*
X89301Y56693D02*
X89783D01*
Y56270D02*
Y56693D01*
X93622Y56496D02*
X93819D01*
X93622Y56299D02*
Y56496D01*
X93425D02*
X93622D01*
X89783Y56693D02*
X90266D01*
X89803Y54764D02*
Y55187D01*
X89321Y54764D02*
X89803D01*
X90285D01*
X86425Y59134D02*
Y59843D01*
Y59134D02*
X87134D01*
X85717D02*
X86425D01*
Y58425D02*
Y59134D01*
X87520Y55254D02*
Y55751D01*
Y55254D02*
X88017D01*
X87520Y54757D02*
Y55254D01*
X87023D02*
X87520D01*
X86220Y53701D02*
X86717D01*
X92626Y51575D02*
X93123D01*
X92626D02*
Y52072D01*
Y51078D02*
Y51575D01*
X92129D02*
X92626D01*
X94693Y46881D02*
Y48062D01*
X93512Y46881D02*
X94693D01*
Y45700D02*
Y46881D01*
X91423Y46321D02*
X91974D01*
X91423D02*
Y46872D01*
Y45770D02*
Y46321D01*
X89243D02*
Y46872D01*
X88153Y46321D02*
Y46872D01*
X87063Y46321D02*
Y46872D01*
X90333Y46321D02*
Y46872D01*
Y45770D02*
Y46321D01*
X89243Y45770D02*
Y46321D01*
X88153Y45770D02*
Y46321D01*
X85973D02*
Y46872D01*
X87063Y45770D02*
Y46321D01*
X85973Y45770D02*
Y46321D01*
X84425Y59134D02*
X85134D01*
X84425D02*
Y59843D01*
Y58425D02*
Y59134D01*
X83717D02*
X84425D01*
X84833Y53681D02*
X85315D01*
X82407Y55118D02*
X82752D01*
Y54521D02*
Y55118D01*
X79242Y54370D02*
X79724D01*
X79242Y53602D02*
X79724D01*
X77175Y52165D02*
X77579D01*
X76575Y52197D02*
X77072D01*
X84883Y46321D02*
Y46872D01*
Y45770D02*
Y46321D01*
X83793Y45770D02*
Y46321D01*
Y46872D01*
X77175Y51181D02*
X77579D01*
X76575Y51197D02*
X77072D01*
X79983Y47441D02*
Y47992D01*
Y46890D02*
Y47441D01*
X76173Y46881D02*
X77354D01*
X76173D02*
Y48062D01*
Y45700D02*
Y46881D01*
X76575Y50197D02*
X77598D01*
Y48740D02*
Y50197D01*
X77539Y52205D02*
X77579Y52165D01*
X77539Y51220D02*
X77579Y51181D01*
X76575Y52197D02*
Y52205D01*
X77539D01*
X76575Y51220D02*
X77539D01*
X76575Y51197D02*
Y51220D01*
X76535Y53150D02*
Y53189D01*
X76575Y53197D02*
X76614Y53157D01*
X76622Y53150D02*
X77598D01*
X76606D02*
X77598D01*
X76575D02*
Y53197D01*
X76535Y53189D02*
X76575Y53150D01*
X76606D02*
X76622D01*
X76575D02*
X76606D01*
X76614Y53157D01*
X76024Y52638D02*
X76535Y53150D01*
X79832Y45630D02*
X80523Y46321D01*
X78976Y45630D02*
X79832D01*
X78268Y46339D02*
X78976Y45630D01*
X79724Y52894D02*
X79744Y52874D01*
X80709D01*
X78307Y53150D02*
X78346Y53110D01*
Y52165D02*
Y53110D01*
X78327Y52165D02*
X78346D01*
X78307Y51161D02*
X78327Y51181D01*
X80217Y53622D02*
X80709D01*
X79724Y53602D02*
Y53622D01*
X80217D01*
X78307Y53150D02*
X78346Y53189D01*
X79724Y55079D02*
X79744Y55098D01*
X80709D01*
X80197Y54350D02*
X80217Y54331D01*
X79705Y54350D02*
X79744D01*
X79705D02*
X79724Y54370D01*
X80197Y54350D02*
X80709D01*
X79744D02*
X80197D01*
X78346Y54567D02*
X79902Y56122D01*
X83253Y47441D02*
X83268Y47456D01*
X82163Y47441D02*
X82165Y47443D01*
X81658Y45276D02*
X82703Y46321D01*
X82165Y48504D02*
X82185Y48563D01*
X81102Y49272D02*
Y49921D01*
X82165Y49291D02*
X82185Y49272D01*
X82165Y49291D02*
Y49921D01*
X82185D01*
X83268Y49272D02*
Y49921D01*
X81102Y50669D02*
X82185D01*
X83268D01*
X83248Y50689D02*
X83268Y50669D01*
X83248Y50689D02*
Y50709D01*
X83252Y52918D02*
X83268Y52902D01*
X83752Y52918D02*
X83760Y52835D01*
X81693Y52874D02*
X81713Y52854D01*
X82756D01*
X82752Y52918D02*
X82756Y52854D01*
X83760Y52185D02*
Y52835D01*
Y52185D02*
X83799Y52146D01*
X83260Y52894D02*
X83268Y52902D01*
X83248Y52894D02*
X83260D01*
X81693Y55098D02*
Y55106D01*
Y55591D01*
X83248Y55118D02*
X83252D01*
X83248D02*
Y55610D01*
X82752Y55118D02*
X82756Y55114D01*
X83760Y54587D02*
Y55079D01*
X83799Y55118D01*
X83752D02*
X83799D01*
X82756Y54213D02*
Y55114D01*
X81693Y55591D02*
X81870Y55768D01*
X83091D02*
X83248Y55610D01*
X81870Y55768D02*
X83091D01*
X84154Y51457D02*
Y51791D01*
Y51457D02*
X84193Y51476D01*
X85295Y53681D02*
X85315D01*
X86220D01*
X84252Y52461D02*
X84488Y52224D01*
X85551D02*
X86220Y52894D01*
Y52913D01*
X84252Y52461D02*
Y52918D01*
Y53386D01*
X85315Y52224D02*
Y52972D01*
X84488Y52224D02*
X85315D01*
X85551D01*
X84252Y55118D02*
Y56122D01*
X85177Y54370D02*
X85197Y54350D01*
Y54370D02*
X85217D01*
X85197Y54350D02*
X85217Y54370D01*
X85236Y54390D01*
X85315D01*
X85295Y55157D02*
X85315Y55138D01*
X85295Y55157D02*
Y55551D01*
X84724Y56122D02*
X85295Y55551D01*
X84252Y56122D02*
X84724D01*
X87598Y47456D02*
X87613Y47441D01*
X88701Y47443D02*
X88703Y47441D01*
X89764Y47470D02*
X89793Y47441D01*
X88681Y48465D02*
X88701Y48425D01*
X89764Y49173D02*
Y49823D01*
X88681Y49173D02*
X88701Y49193D01*
Y49803D01*
X88681Y49823D02*
X88701Y49803D01*
X87598Y49173D02*
Y49823D01*
X89764Y50571D02*
Y50591D01*
X89744D02*
X89764Y50571D01*
X88701Y50591D02*
X89744D01*
X88681Y50571D02*
X88701Y50591D01*
X88661D02*
X88681Y50571D01*
X87559Y50591D02*
X87598Y50571D01*
Y50591D02*
X88661D01*
X87559D02*
X87598D01*
Y50571D02*
Y50591D01*
X90866Y47458D02*
X90883Y47441D01*
X91968Y47446D02*
X91973Y47441D01*
X90846Y48465D02*
X90866Y48425D01*
X91929Y48465D02*
X91968Y48425D01*
X91929Y49173D02*
Y49823D01*
X90827Y49193D02*
X90846Y49173D01*
X90827Y49193D02*
Y49803D01*
X90846Y49823D01*
X91909Y50591D02*
X91929Y50571D01*
X90827Y50591D02*
X90846Y50571D01*
X90827Y50591D02*
X91909D01*
X76024Y49803D02*
Y52638D01*
X78268Y46339D02*
Y48071D01*
X78307Y50197D02*
Y51161D01*
X80217Y53996D02*
Y54331D01*
Y53622D02*
Y53996D01*
X78346Y53189D02*
Y54567D01*
X83268Y47456D02*
Y48563D01*
X82165Y47443D02*
Y48504D01*
X81102Y47470D02*
Y48563D01*
X81693Y53622D02*
Y54350D01*
X83248Y50709D02*
Y52894D01*
X87598Y47456D02*
Y48465D01*
X88701Y47443D02*
Y48425D01*
X89764Y47470D02*
Y48465D01*
X87598Y50591D02*
Y51378D01*
X90866Y47458D02*
Y48425D01*
X91968Y47446D02*
Y48425D01*
X81073Y47441D02*
X81102Y47470D01*
X78819Y45276D02*
X81658D01*
X77913Y46181D02*
X78819Y45276D01*
X84055Y50669D02*
X84094Y50709D01*
X83268Y50669D02*
X84055D01*
X84094Y50709D02*
X84154D01*
X80709Y52874D02*
X81693D01*
X78327Y51181D02*
X82717D01*
X83799Y52146D02*
X84154Y51791D01*
X81693Y53622D02*
X84016D01*
X84252Y53386D01*
X80709Y55098D02*
X81693Y55106D01*
X83976Y54370D02*
X85177D01*
X83760Y54587D02*
X83976Y54370D01*
X79902Y56122D02*
X84252D01*
X89764Y50591D02*
X90827D01*
X77913Y46181D02*
Y47913D01*
X77598Y48740D02*
X78268Y48071D01*
X86968Y54370D02*
X87598Y53740D01*
X76024Y49803D02*
X77913Y47913D01*
X85217Y54370D02*
X86968D01*
D22*
X82406Y56974D02*
X82411Y56968D01*
X82406Y56974D02*
Y59134D01*
X89104Y57402D02*
X89783D01*
X88327Y56624D02*
X89104Y57402D01*
X87520Y56624D02*
X88327D01*
X86545D02*
X87520D01*
X86220Y56949D02*
X86545Y56624D01*
X85033Y56949D02*
X86220D01*
X85014Y56968D02*
X85033Y56949D01*
X83553Y56968D02*
X85014D01*
X82392Y56949D02*
X82411Y56968D01*
X81033Y56949D02*
X82392D01*
X92618Y52854D02*
Y52874D01*
X92697D01*
X92677Y52854D02*
X92697Y52874D01*
X92618Y52854D02*
X92677D01*
X92745D02*
X92776D01*
X92677D02*
X92745D01*
X92725Y52874D02*
X92795D01*
X92697D02*
X92725D01*
X92745Y52854D01*
X92777Y52856D02*
X92795Y52874D01*
X92776Y52854D02*
X92777Y52856D01*
X92725Y52874D02*
X92764Y52913D01*
X92638D02*
X92764D01*
X93976Y51575D02*
X93996D01*
X93976D02*
X94016Y51614D01*
X93976Y51654D02*
X94016Y51614D01*
X93976Y51654D02*
Y52874D01*
Y52933D01*
X91063Y54051D02*
X91079Y54035D01*
X91063Y54051D02*
Y54055D01*
Y55598D01*
X92598Y54035D02*
X92618Y54016D01*
X91043Y54035D02*
X91079D01*
X92598D01*
X93976Y52933D02*
X95079Y54035D01*
X86220Y52913D02*
X87264D01*
X88012D02*
X92638D01*
X92764D02*
X92804Y52874D01*
X92953D01*
X93976D01*
D23*
X86220Y53681D02*
Y53701D01*
X86161Y52972D02*
X86220Y52913D01*
X89783Y56693D02*
X89803Y56673D01*
Y54764D02*
Y55709D01*
Y56673D01*
X91055Y57402D02*
X91063Y57394D01*
Y54055D02*
X91079Y54035D01*
X89783Y57402D02*
X91055D01*
X89803Y54055D02*
X91063D01*
D24*
X82425Y59134D02*
D03*
X88425D02*
D03*
X84425D02*
D03*
X86425D02*
D03*
D25*
X81033Y56949D02*
D03*
X85033D02*
D03*
X76575Y51197D02*
D03*
Y53197D02*
D03*
Y52197D02*
D03*
X95079Y54035D02*
D03*
X91079D02*
D03*
X92626Y51575D02*
D03*
X87520Y55254D02*
D03*
X86220Y53701D02*
D03*
D26*
X76575Y50197D02*
D03*
X87520Y56624D02*
D03*
X86220Y52913D02*
D03*
D27*
X93996Y51575D02*
D03*
D28*
X81613Y46321D02*
D03*
X80523D02*
D03*
X84883D02*
D03*
X83793D02*
D03*
X88153D02*
D03*
X87063D02*
D03*
X90333D02*
D03*
X82163Y47441D02*
D03*
X81073D02*
D03*
X84343D02*
D03*
X87613D02*
D03*
X86523D02*
D03*
X90883D02*
D03*
X89793D02*
D03*
X79433Y46321D02*
D03*
X82703D02*
D03*
X85973D02*
D03*
X89243D02*
D03*
X91423D02*
D03*
X79983Y47441D02*
D03*
X83253D02*
D03*
X85433D02*
D03*
X88703D02*
D03*
X91973D02*
D03*
D29*
X78893D02*
D03*
D30*
X94693Y46881D02*
D03*
X76173D02*
D03*
D31*
X81425Y60034D02*
D03*
X89425D02*
D03*
D32*
X83400Y63433D02*
D03*
X87455D02*
D03*
D33*
X79724Y48819D02*
D03*
Y50394D02*
D03*
Y51968D02*
D03*
X81693D02*
D03*
X85827Y48819D02*
D03*
Y50394D02*
D03*
X87598Y51378D02*
D03*
X92323Y54823D02*
D03*
Y58268D02*
D03*
X95472Y55512D02*
D03*
Y54823D02*
D03*
Y56201D02*
D03*
X93898Y54823D02*
D03*
X94685D02*
D03*
X95472Y58268D02*
D03*
Y57579D02*
D03*
X94685Y58268D02*
D03*
X93898D02*
D03*
X80217Y53996D02*
D03*
X82756Y54213D02*
D03*
X82717Y51181D02*
D03*
X87598Y53740D02*
D03*
X95472Y56890D02*
D03*
X83760Y52185D02*
D03*
X89803Y55709D02*
D03*
X93110Y54823D02*
D03*
Y58268D02*
D03*
M02*
