G04 Layer_Physical_Order=2*
G04 Layer_Color=16711680*
%FSLAX24Y24*%
%MOIN*%
G70*
G01*
G75*
%ADD10C,0.0079*%
%ADD24C,0.0197*%
%ADD28C,0.0630*%
%ADD29C,0.0669*%
%ADD30R,0.0600X0.0600*%
%ADD31C,0.0600*%
%ADD32R,0.0600X0.0600*%
%ADD33C,0.1772*%
%ADD34C,0.0984*%
%ADD35C,0.0315*%
D10*
X45532Y37362D02*
G03*
X45532Y37362I-472J0D01*
G01*
X43602D02*
G03*
X43602Y37362I-512J0D01*
G01*
X41594D02*
G03*
X41594Y37362I-472J0D01*
G01*
X39665D02*
G03*
X39665Y37362I-512J0D01*
G01*
X37657D02*
G03*
X37657Y37362I-472J0D01*
G01*
X35728D02*
G03*
X35728Y37362I-512J0D01*
G01*
X33720D02*
G03*
X33720Y37362I-472J0D01*
G01*
X31791D02*
G03*
X31791Y37362I-512J0D01*
G01*
X51870Y34458D02*
G03*
X51870Y33239I-846J-610D01*
G01*
X50256Y35069D02*
G03*
X50256Y35069I-1083J0D01*
G01*
X50217Y32628D02*
G03*
X50217Y32628I-1043J0D01*
G01*
X44587Y35433D02*
G03*
X44587Y35433I-512J0D01*
G01*
X40650D02*
G03*
X40650Y35433I-512J0D01*
G01*
X36713D02*
G03*
X36713Y35433I-512J0D01*
G01*
X32923Y34439D02*
G03*
X32639Y34786I-354J0D01*
G01*
Y34786D02*
G03*
X32431Y34872I-208J-209D01*
G01*
X32639Y34786D02*
G03*
X32431Y34872I-208J-209D01*
G01*
X32776Y35433D02*
G03*
X32776Y35433I-512J0D01*
G01*
X30757Y34872D02*
G03*
X30757Y34281I-196J-295D01*
G01*
X32251D02*
G03*
X32923Y34439I317J157D01*
G01*
X30148Y32510D02*
G03*
X29970Y32879I-472J0D01*
G01*
X30187Y33297D02*
G03*
X29588Y33802I-512J0D01*
G01*
X29970Y32879D02*
G03*
X30187Y33297I-295J418D01*
G01*
X46625Y31024D02*
G03*
X46625Y31024I-497J0D01*
G01*
X43007Y31228D02*
G03*
X43007Y31228I-457J0D01*
G01*
X33706Y31417D02*
G03*
X33706Y31417I-457J0D01*
G01*
X29783Y37362D02*
G03*
X29783Y37362I-472J0D01*
G01*
X27864D02*
G03*
X27864Y37362I-512J0D01*
G01*
X25846D02*
G03*
X25846Y37362I-472J0D01*
G01*
X23917D02*
G03*
X23917Y37362I-512J0D01*
G01*
X21919D02*
G03*
X21919Y37362I-472J0D01*
G01*
X19980Y37352D02*
G03*
X19980Y37352I-512J0D01*
G01*
X17972Y37362D02*
G03*
X17972Y37362I-472J0D01*
G01*
X16043D02*
G03*
X16043Y37362I-512J0D01*
G01*
X29165Y34225D02*
G03*
X28957Y34311I-209J-209D01*
G01*
X28839Y35433D02*
G03*
X28839Y35433I-512J0D01*
G01*
X29165Y34225D02*
G03*
X28957Y34311I-209J-209D01*
G01*
X25845D02*
G03*
X25845Y33720I-196J-295D01*
G01*
X29171Y33384D02*
G03*
X29380Y32879I504J-87D01*
G01*
X28159Y33504D02*
G03*
X28086Y33720I-354J0D01*
G01*
X27525D02*
G03*
X27458Y33574I280J-217D01*
G01*
X27875Y33157D02*
G03*
X28159Y33504I-70J347D01*
G01*
X24902Y35433D02*
G03*
X24902Y35433I-512J0D01*
G01*
X29380Y32879D02*
G03*
X30148Y32510I295J-369D01*
G01*
X29360Y31821D02*
G03*
X28810Y32116I-354J0D01*
G01*
Y31526D02*
G03*
X29360Y31821I196J295D01*
G01*
X26713Y32116D02*
G03*
X26921Y32203I0J295D01*
G01*
X26713Y32116D02*
G03*
X26921Y32203I0J295D01*
G01*
X24674Y32707D02*
G03*
X24282Y32116I-196J-295D01*
G01*
X20965Y35433D02*
G03*
X20965Y35433I-512J0D01*
G01*
X22008Y33937D02*
G03*
X21358Y33741I-354J0D01*
G01*
X21949D02*
G03*
X22008Y33937I-295J196D01*
G01*
X17028Y35433D02*
G03*
X17028Y35433I-512J0D01*
G01*
X14341Y34783D02*
G03*
X14341Y34783I-531J0D01*
G01*
D02*
G03*
X14341Y34783I-531J0D01*
G01*
X21358Y32746D02*
G03*
X21445Y32537I295J0D01*
G01*
X21358Y32746D02*
G03*
X21445Y32537I295J0D01*
G01*
X14341Y32028D02*
G03*
X14341Y32028I-531J0D01*
G01*
X22370Y31612D02*
G03*
X22579Y31526I209J209D01*
G01*
X22370Y31612D02*
G03*
X22579Y31526I209J209D01*
G01*
X14341Y32028D02*
G03*
X14341Y32028I-531J0D01*
G01*
X51516Y38150D02*
X51870D01*
X51516Y38209D02*
X51870D01*
X51516Y38090D02*
X51870D01*
X51516Y38327D02*
X51870D01*
X51516Y38268D02*
X51870D01*
X51516Y37913D02*
X51870D01*
X51516Y37854D02*
X51870D01*
X51516Y38031D02*
X51870D01*
X51516Y37972D02*
X51870D01*
X51516Y38681D02*
X51870D01*
X51516Y38740D02*
X51870D01*
X51516Y38622D02*
X51870D01*
X49154Y38848D02*
X51516D01*
Y38799D02*
X51870D01*
X51516Y38445D02*
X51870D01*
X51516Y38386D02*
X51870D01*
X51516Y38563D02*
X51870D01*
X51516Y38504D02*
X51870D01*
X51516Y37559D02*
X51870D01*
X51516Y37618D02*
X51870D01*
X51516Y37500D02*
X51870D01*
X51516Y37795D02*
X51870D01*
X51516Y37677D02*
X51870D01*
X51516Y37264D02*
X51870D01*
X51516Y37205D02*
X51870D01*
X51516Y37441D02*
X51870D01*
X51516Y37382D02*
X51870D01*
X51516Y37736D02*
X51870D01*
X51516Y36496D02*
Y38848D01*
X49154Y36496D02*
Y38848D01*
X45511Y37500D02*
X49154D01*
X45525Y37441D02*
X49154D01*
X45531Y37382D02*
X49154D01*
X51516Y37323D02*
X51870D01*
X45530D02*
X49154D01*
X45521Y37264D02*
X49154D01*
X45348Y37736D02*
X49154D01*
X45248Y37795D02*
X49154D01*
X43440Y37736D02*
X44770D01*
X43231Y37854D02*
X49154D01*
X43363Y37795D02*
X44870D01*
X45456Y37618D02*
X49154D01*
X45489Y37559D02*
X49154D01*
X43494Y37677D02*
X44707D01*
X45411D02*
X49154D01*
X41411Y37736D02*
X42741D01*
X41474Y37677D02*
X42687D01*
X43534Y37618D02*
X44662D01*
X39294Y37854D02*
X42950D01*
X41311Y37795D02*
X42818D01*
X43563Y37559D02*
X44630D01*
X41574Y37500D02*
X42598D01*
X41519Y37618D02*
X42647D01*
X41552Y37559D02*
X42618D01*
X43583Y37500D02*
X44607D01*
X45504Y37205D02*
X49154D01*
X43593Y37264D02*
X44597D01*
X43578Y37205D02*
X44614D01*
X43596Y37441D02*
X44593D01*
X43602Y37382D02*
X44587D01*
X41588Y37441D02*
X42585D01*
X41594Y37382D02*
X42579D01*
X41593Y37323D02*
X42580D01*
X43601D02*
X44588D01*
X41584Y37264D02*
X42588D01*
X41567Y37205D02*
X42604D01*
X51516Y36968D02*
X51870D01*
X51516Y37027D02*
X51870D01*
X51516Y36909D02*
X51870D01*
X51516Y37146D02*
X51870D01*
X51516Y37087D02*
X51870D01*
X51516Y36614D02*
X51870D01*
X51516Y36555D02*
X51870D01*
X51516Y36850D02*
X51870D01*
X51516Y36791D02*
X51870D01*
X45443Y37087D02*
X49154D01*
X45479Y37146D02*
X49154D01*
X45392Y37027D02*
X49154D01*
X45320Y36968D02*
X49154D01*
X45194Y36909D02*
X49154D01*
X51516Y36732D02*
X51870D01*
X51516Y36673D02*
X51870D01*
X49154Y36496D02*
X51516D01*
X49319Y36142D02*
X51870D01*
X49861Y35905D02*
X51870D01*
X49782Y35965D02*
X51870D01*
X49927Y35846D02*
X51870D01*
X49553Y36083D02*
X51870D01*
X49684Y36024D02*
X51870D01*
X50074Y35669D02*
X51870D01*
X50111Y35610D02*
X51870D01*
X49983Y35787D02*
X51870D01*
X50032Y35728D02*
X51870D01*
X50170Y35492D02*
X51870D01*
X50143Y35551D02*
X51870D01*
X50193Y35433D02*
X51870D01*
X44583Y35492D02*
X48177D01*
X44587Y35433D02*
X48154D01*
X50240Y35256D02*
X51870D01*
X50248Y35197D02*
X51870D01*
X50212Y35374D02*
X51870D01*
X50228Y35315D02*
X51870D01*
X43522Y37087D02*
X44675D01*
X43554Y37146D02*
X44639D01*
X43478Y37027D02*
X44726D01*
X43417Y36968D02*
X44798D01*
X43329Y36909D02*
X44924D01*
X44444Y35787D02*
X48363D01*
X44493Y35728D02*
X48314D01*
X44272Y35905D02*
X48486D01*
X44377Y35846D02*
X48420D01*
X41506Y37087D02*
X42659D01*
X41542Y37146D02*
X42627D01*
X41455Y37027D02*
X42703D01*
X41383Y36968D02*
X42764D01*
X41257Y36909D02*
X42852D01*
X40507Y35787D02*
X43705D01*
X40556Y35728D02*
X43657D01*
X40335Y35905D02*
X43878D01*
X40440Y35846D02*
X43773D01*
X44573Y35551D02*
X48204D01*
X44583Y35374D02*
X48134D01*
X44573Y35315D02*
X48119D01*
X44529Y35669D02*
X48272D01*
X44555Y35610D02*
X48236D01*
X44555Y35256D02*
X48107D01*
X44529Y35197D02*
X48098D01*
X40556Y35138D02*
X43657D01*
X44493D02*
X48093D01*
X40636Y35551D02*
X43577D01*
X40646Y35492D02*
X43566D01*
X40650Y35433D02*
X43563D01*
X40592Y35669D02*
X43621D01*
X40618Y35610D02*
X43595D01*
X40646Y35374D02*
X43566D01*
X40636Y35315D02*
X43577D01*
X40618Y35256D02*
X43595D01*
X40592Y35197D02*
X43621D01*
X39426Y37795D02*
X40933D01*
X39503Y37736D02*
X40833D01*
X39557Y37677D02*
X40770D01*
X37374Y37795D02*
X38881D01*
X37474Y37736D02*
X38804D01*
X39626Y37559D02*
X40693D01*
X39646Y37500D02*
X40670D01*
X37537Y37677D02*
X38750D01*
X39597Y37618D02*
X40725D01*
X37582D02*
X38710D01*
X35660D02*
X36788D01*
X37615Y37559D02*
X38681D01*
X35566Y37736D02*
X36896D01*
X35620Y37677D02*
X36833D01*
X37637Y37500D02*
X38661D01*
X37651Y37441D02*
X38648D01*
X35689Y37559D02*
X36756D01*
X35709Y37500D02*
X36733D01*
X39659Y37441D02*
X40656D01*
X39665Y37382D02*
X40650D01*
X37656Y37323D02*
X38643D01*
X35722Y37441D02*
X36719D01*
X37657Y37382D02*
X38642D01*
X35728D02*
X36713D01*
X35727Y37323D02*
X36714D01*
X35357Y37854D02*
X39013D01*
X35489Y37795D02*
X36996D01*
X33437D02*
X34944D01*
X31420Y37854D02*
X35076D01*
X31552Y37795D02*
X33059D01*
X33645Y37618D02*
X34773D01*
X33678Y37559D02*
X34744D01*
X33537Y37736D02*
X34867D01*
X33600Y37677D02*
X34813D01*
X31629Y37736D02*
X32959D01*
X31683Y37677D02*
X32896D01*
X29663D02*
X30876D01*
X29500Y37795D02*
X31007D01*
X29600Y37736D02*
X30930D01*
X31723Y37618D02*
X32851D01*
X31752Y37559D02*
X32819D01*
X29708Y37618D02*
X30836D01*
X29741Y37559D02*
X30807D01*
X33700Y37500D02*
X34724D01*
X33714Y37441D02*
X34711D01*
X33720Y37382D02*
X34705D01*
X33719Y37323D02*
X34706D01*
X31772Y37500D02*
X32796D01*
X31785Y37441D02*
X32782D01*
X29763Y37500D02*
X30787D01*
X29783Y37382D02*
X30768D01*
X31791D02*
X32776D01*
X29777Y37441D02*
X30774D01*
X29782Y37323D02*
X30769D01*
X39656Y37264D02*
X40660D01*
X39664Y37323D02*
X40651D01*
X39641Y37205D02*
X40677D01*
X39617Y37146D02*
X40702D01*
X39585Y37087D02*
X40738D01*
X39541Y37027D02*
X40789D01*
X39480Y36968D02*
X40861D01*
X37518Y37027D02*
X38766D01*
X37446Y36968D02*
X38827D01*
X37647Y37264D02*
X38651D01*
X35719D02*
X36723D01*
X37630Y37205D02*
X38667D01*
X35703D02*
X36740D01*
X35680Y37146D02*
X36765D01*
X37605D02*
X38690D01*
X37569Y37087D02*
X38722D01*
X35648D02*
X36801D01*
X35604Y37027D02*
X36852D01*
X39392Y36909D02*
X40987D01*
X36570Y35787D02*
X39768D01*
X36619Y35728D02*
X39720D01*
X36398Y35905D02*
X39941D01*
X36503Y35846D02*
X39836D01*
X36655Y35669D02*
X39684D01*
X36681Y35256D02*
X39658D01*
X36655Y35197D02*
X39684D01*
X36619Y35138D02*
X39720D01*
X36681Y35610D02*
X39658D01*
X37320Y36909D02*
X38915D01*
X36699Y35551D02*
X39640D01*
X35543Y36968D02*
X36924D01*
X35455Y36909D02*
X37050D01*
X36709Y35492D02*
X39629D01*
X36713Y35433D02*
X39626D01*
X36709Y35374D02*
X39629D01*
X36699Y35315D02*
X39640D01*
X33693Y37205D02*
X34730D01*
X33710Y37264D02*
X34714D01*
X33668Y37146D02*
X34753D01*
X31743D02*
X32828D01*
X33632Y37087D02*
X34785D01*
X31711D02*
X32864D01*
X33581Y37027D02*
X34829D01*
X31667D02*
X32915D01*
X31606Y36968D02*
X32987D01*
X31782Y37264D02*
X32786D01*
X31790Y37323D02*
X32777D01*
X31766Y37205D02*
X32803D01*
X29773Y37264D02*
X30777D01*
X29756Y37205D02*
X30793D01*
X29731Y37146D02*
X30816D01*
X29695Y37087D02*
X30848D01*
X29644Y37027D02*
X30892D01*
X29572Y36968D02*
X30953D01*
X32633Y35787D02*
X35831D01*
X32682Y35728D02*
X35783D01*
X32718Y35669D02*
X35747D01*
X32461Y35905D02*
X36004D01*
X32566Y35846D02*
X35899D01*
X32744Y35610D02*
X35721D01*
X32744Y35256D02*
X35721D01*
X32718Y35197D02*
X35747D01*
X32682Y35138D02*
X35783D01*
X33383Y36909D02*
X34978D01*
X33509Y36968D02*
X34890D01*
X32762Y35551D02*
X35703D01*
X29446Y36909D02*
X31041D01*
X31518D02*
X33113D01*
X32772Y35492D02*
X35692D01*
X32776Y35433D02*
X35689D01*
X32772Y35374D02*
X35692D01*
X32762Y35315D02*
X35703D01*
X50256Y35079D02*
X51870D01*
X50254Y35138D02*
X51870D01*
X50255Y35020D02*
X51870D01*
X50250Y34961D02*
X51870D01*
X50243Y34902D02*
X51870D01*
X51590Y34724D02*
X51870D01*
X51673Y34665D02*
X51870D01*
X51340Y34842D02*
X51870D01*
X51487Y34783D02*
X51870D01*
X50232Y34842D02*
X50707D01*
X50218Y34783D02*
X50561D01*
X51741Y34606D02*
X51870D01*
X50200Y34724D02*
X50457D01*
X50178Y34665D02*
X50375D01*
X50152Y34606D02*
X50307D01*
X51798Y34547D02*
X51870D01*
X50122D02*
X50249D01*
X50087Y34488D02*
X50199D01*
X51870Y34458D02*
Y39626D01*
X51832Y33189D02*
X51870D01*
Y30217D02*
Y33239D01*
X50053Y33189D02*
X50215D01*
X51780Y33130D02*
X51870D01*
X50047Y34429D02*
X50157D01*
X50000Y34370D02*
X50120D01*
X49946Y34311D02*
X50088D01*
X49884Y34252D02*
X50061D01*
X49809Y34193D02*
X50039D01*
X49965Y33307D02*
X50132D01*
X50012Y33248D02*
X50170D01*
X49846Y33425D02*
X50070D01*
X49911Y33366D02*
X50099D01*
X49719Y34134D02*
X50020D01*
X49602Y34075D02*
X50005D01*
X49424Y34016D02*
X49994D01*
X32749Y34134D02*
X48628D01*
X29492Y33898D02*
X49981D01*
X29552Y33839D02*
X49980D01*
X29374Y34016D02*
X48922D01*
X29433Y33957D02*
X49986D01*
X32920Y34488D02*
X48260D01*
X32906Y34547D02*
X48225D01*
X32923Y34429D02*
X48300D01*
X32842Y34665D02*
X48169D01*
X32881Y34606D02*
X48194D01*
X32916Y34370D02*
X48346D01*
X32899Y34311D02*
X48400D01*
X32870Y34252D02*
X48463D01*
X32824Y34193D02*
X48537D01*
X49317Y33661D02*
X49997D01*
X29847Y33779D02*
X49983D01*
X43046Y33720D02*
X49988D01*
X49674Y33543D02*
X50026D01*
X49769Y33484D02*
X50046D01*
X43046Y33661D02*
X49030D01*
X49546Y33602D02*
X50010D01*
X43046Y33484D02*
X48577D01*
X43046Y33425D02*
X48500D01*
X43046Y33366D02*
X48436D01*
X43046Y33602D02*
X48800D01*
X43046Y33543D02*
X48672D01*
X43046Y33189D02*
X48294D01*
X43046Y33130D02*
X48259D01*
X43046Y33307D02*
X48381D01*
X43046Y33248D02*
X48334D01*
X51647Y33012D02*
X51870D01*
X51719Y33071D02*
X51870D01*
X51559Y32953D02*
X51870D01*
X51444Y32894D02*
X51870D01*
X51270Y32835D02*
X51870D01*
X50213Y32716D02*
X51870D01*
X50216Y32657D02*
X51870D01*
X50206Y32776D02*
X51870D01*
X50213Y32539D02*
X51870D01*
X50165Y32953D02*
X50489D01*
X50143Y33012D02*
X50400D01*
X50182Y32894D02*
X50603D01*
X50088Y33130D02*
X50267D01*
X50118Y33071D02*
X50328D01*
X50196Y32835D02*
X50777D01*
X50216Y32598D02*
X51870D01*
X50196Y32421D02*
X51870D01*
X50206Y32480D02*
X51870D01*
X50182Y32362D02*
X51870D01*
X50165Y32303D02*
X51870D01*
X50143Y32244D02*
X51870D01*
X50118Y32185D02*
X51870D01*
X50088Y32126D02*
X51870D01*
X50053Y32067D02*
X51870D01*
X50012Y32008D02*
X51870D01*
X49910Y31890D02*
X51870D01*
X49965Y31949D02*
X51870D01*
X49846Y31831D02*
X51870D01*
X49769Y31772D02*
X51870D01*
X49674Y31713D02*
X51870D01*
X49546Y31653D02*
X51870D01*
X49316Y31594D02*
X51870D01*
X46624Y31004D02*
X51870D01*
X29951Y32126D02*
X48259D01*
X30018Y32185D02*
X48229D01*
X29839Y32067D02*
X48294D01*
X29336Y31949D02*
X48381D01*
X29353Y31890D02*
X48436D01*
X33598Y31713D02*
X48673D01*
X42718Y31653D02*
X48801D01*
X33444Y31831D02*
X48500D01*
X33537Y31772D02*
X48577D01*
X43046Y32953D02*
X48182D01*
X43046Y32894D02*
X48164D01*
X43046Y32835D02*
X48151D01*
X43046Y33071D02*
X48229D01*
X43046Y33012D02*
X48203D01*
X33745Y32421D02*
X48151D01*
X33745Y32362D02*
X48164D01*
X33745Y32303D02*
X48182D01*
X30066Y32244D02*
X48203D01*
X46619Y30945D02*
X51870D01*
X46623Y31063D02*
X51870D01*
X46605Y30886D02*
X51870D01*
X46584Y30827D02*
X51870D01*
X46554Y30768D02*
X51870D01*
X46512Y30709D02*
X51870D01*
X46455Y30650D02*
X51870D01*
X46371Y30590D02*
X51870D01*
X46196Y30531D02*
X51870D01*
X46431Y31417D02*
X51870D01*
X46333Y31476D02*
X51870D01*
X46495Y31358D02*
X51870D01*
X42824Y31594D02*
X49031D01*
X42888Y31535D02*
X51870D01*
X46599Y31181D02*
X51870D01*
X46615Y31122D02*
X51870D01*
X46541Y31299D02*
X51870D01*
X46575Y31240D02*
X51870D01*
X44376Y35020D02*
X48092D01*
X44444Y35079D02*
X48091D01*
X40507D02*
X43706D01*
X40439Y35020D02*
X43773D01*
X40334Y34961D02*
X43878D01*
X44271D02*
X48096D01*
X32652Y34783D02*
X48129D01*
X32779Y34724D02*
X48147D01*
X36502Y35020D02*
X39836D01*
X36570Y35079D02*
X39769D01*
X32633D02*
X35832D01*
X36397Y34961D02*
X39941D01*
X42052Y33725D02*
X43046D01*
X32751Y33292D02*
X33745D01*
X43046Y32776D02*
X48140D01*
X33745Y33012D02*
X42052D01*
X43046Y32731D02*
Y33725D01*
X33745Y32953D02*
X42052D01*
X33745Y32894D02*
X42052D01*
Y32731D02*
X43046D01*
X33745Y32716D02*
X48134D01*
X33745Y32657D02*
X48130D01*
X33745Y32598D02*
X48130D01*
X42052Y32731D02*
Y33725D01*
X33745Y33189D02*
X42052D01*
X33745Y32298D02*
Y33292D01*
Y33248D02*
X42052D01*
X32751Y32298D02*
Y33292D01*
X33745Y32835D02*
X42052D01*
X33745Y32776D02*
X42052D01*
X33745Y33130D02*
X42052D01*
X33745Y33071D02*
X42052D01*
X30703Y34902D02*
X48104D01*
X32460Y34961D02*
X36004D01*
X32560Y34842D02*
X48115D01*
X29963Y33720D02*
X42052D01*
X30035Y33661D02*
X42052D01*
X30152Y33484D02*
X42052D01*
X30171Y33425D02*
X42052D01*
X30086Y33602D02*
X42052D01*
X30124Y33543D02*
X42052D01*
X32565Y35020D02*
X35899D01*
X30757Y34872D02*
X32431D01*
X30757Y34281D02*
X32251D01*
X30702Y34252D02*
X32268D01*
X30187Y33307D02*
X42052D01*
X30182Y33366D02*
X42052D01*
X30185Y33248D02*
X32751D01*
X30175Y33189D02*
X32751D01*
X30159Y33130D02*
X32751D01*
X30134Y33071D02*
X32751D01*
X30100Y33012D02*
X32751D01*
X30054Y32953D02*
X32751D01*
X29990Y32894D02*
X32751D01*
X30066Y32776D02*
X32751D01*
X30018Y32835D02*
X32751D01*
X30124Y32657D02*
X32751D01*
X30139Y32598D02*
X32751D01*
X30100Y32716D02*
X32751D01*
X45585Y31417D02*
X45825D01*
X45585Y31358D02*
X45761D01*
X45585Y31299D02*
X45715D01*
X44670Y31481D02*
X45585D01*
Y31476D02*
X45923D01*
X45585Y31122D02*
X45641D01*
X45585Y31063D02*
X45633D01*
X45585Y31240D02*
X45681D01*
X45585Y31181D02*
X45657D01*
X43001Y31299D02*
X44670D01*
X42988Y31358D02*
X44670D01*
X43007Y31240D02*
X44670D01*
X42934Y31476D02*
X44670D01*
X42966Y31417D02*
X44670D01*
X43004Y31181D02*
X44670D01*
X42994Y31122D02*
X44670D01*
X42976Y31063D02*
X44670D01*
X42948Y31004D02*
X44670D01*
X45585Y30945D02*
X45637D01*
X45585Y31004D02*
X45631D01*
X45585Y30886D02*
X45651D01*
X45585Y30827D02*
X45672D01*
X45585Y30650D02*
X45801D01*
X45585Y30590D02*
X45885D01*
X45585Y30768D02*
X45702D01*
X45585Y30709D02*
X45744D01*
X45585Y30566D02*
Y31481D01*
X44670Y30566D02*
Y31481D01*
Y30566D02*
X45585D01*
X42908Y30945D02*
X44670D01*
X42852Y30886D02*
X44670D01*
X33745Y32480D02*
X48140D01*
X33745Y32539D02*
X48134D01*
X33640Y31653D02*
X42380D01*
X32751Y32298D02*
X33745D01*
X29360Y31831D02*
X33052D01*
X33702Y31476D02*
X42165D01*
X33706Y31417D02*
X42133D01*
X33670Y31594D02*
X42275D01*
X33690Y31535D02*
X42210D01*
X30147Y32480D02*
X32751D01*
X30147Y32539D02*
X32751D01*
X30139Y32421D02*
X32751D01*
X30124Y32362D02*
X32751D01*
X30100Y32303D02*
X32751D01*
X29357Y31772D02*
X32959D01*
X29343Y31713D02*
X32899D01*
X29318Y31653D02*
X32856D01*
X33702Y31358D02*
X42111D01*
X42768Y30827D02*
X44670D01*
X33537Y31063D02*
X42123D01*
X33444Y31004D02*
X42151D01*
X33690Y31299D02*
X42097D01*
X33670Y31240D02*
X42092D01*
X33640Y31181D02*
X42094D01*
X33597Y31122D02*
X42104D01*
X27625Y37795D02*
X29122D01*
X27702Y37736D02*
X29022D01*
X27756Y37677D02*
X28959D01*
X27493Y37854D02*
X31139D01*
X25563Y37795D02*
X27079D01*
X27845Y37500D02*
X28859D01*
X27858Y37441D02*
X28845D01*
X27796Y37618D02*
X28914D01*
X27825Y37559D02*
X28882D01*
X25726Y37677D02*
X26949D01*
X25771Y37618D02*
X26909D01*
X25804Y37559D02*
X26880D01*
X25663Y37736D02*
X27003D01*
X23878Y37559D02*
X24945D01*
X25826Y37500D02*
X26859D01*
X25840Y37441D02*
X26847D01*
X23898Y37500D02*
X24922D01*
X23911Y37441D02*
X24908D01*
X27864Y37382D02*
X28839D01*
X27863Y37323D02*
X28840D01*
X25836Y37264D02*
X26850D01*
X25846Y37382D02*
X26841D01*
X25845Y37323D02*
X26842D01*
X23917Y37382D02*
X24902D01*
X23916Y37323D02*
X24903D01*
X8996Y39508D02*
X51870D01*
X8996Y39567D02*
X51870D01*
X8996Y39449D02*
X51870D01*
X8996Y39626D02*
X51870D01*
X8996Y39626D02*
X51870D01*
X8996Y39272D02*
X51870D01*
X8996Y39213D02*
X51870D01*
X8996Y39390D02*
X51870D01*
X8996Y39331D02*
X51870D01*
X8996Y38976D02*
X51870D01*
X8996Y39035D02*
X51870D01*
X8996Y38917D02*
X51870D01*
X8996Y39153D02*
X51870D01*
X8996Y39094D02*
X51870D01*
X8996Y38740D02*
X49154D01*
X8996Y38681D02*
X49154D01*
X8996Y38858D02*
X51870D01*
X8996Y38799D02*
X49154D01*
X8996Y38445D02*
X49154D01*
X8996Y38504D02*
X49154D01*
X8996Y38386D02*
X49154D01*
X8996Y38622D02*
X49154D01*
X8996Y38563D02*
X49154D01*
X8996Y38209D02*
X49154D01*
X8996Y38150D02*
X49154D01*
X8996Y38327D02*
X49154D01*
X8996Y38268D02*
X49154D01*
X8996Y37913D02*
X49154D01*
X8996Y37972D02*
X49154D01*
X23546Y37854D02*
X27212D01*
X8996Y38090D02*
X49154D01*
X8996Y38031D02*
X49154D01*
X23809Y37677D02*
X25022D01*
X23849Y37618D02*
X24977D01*
X23678Y37795D02*
X25185D01*
X23755Y37736D02*
X25085D01*
X27740Y37027D02*
X28978D01*
X27784Y37087D02*
X28927D01*
X28524Y35905D02*
X32067D01*
X27679Y36968D02*
X29050D01*
X27591Y36909D02*
X29176D01*
X28745Y35728D02*
X31846D01*
X28781Y35669D02*
X31810D01*
X28629Y35846D02*
X31962D01*
X28696Y35787D02*
X31894D01*
X27839Y37205D02*
X28866D01*
X27855Y37264D02*
X28849D01*
X27816Y37146D02*
X28891D01*
X25819Y37205D02*
X26865D01*
X25794Y37146D02*
X26889D01*
X25758Y37087D02*
X26921D01*
X25707Y37027D02*
X26965D01*
X25635Y36968D02*
X27025D01*
X25509Y36909D02*
X27114D01*
X28825Y35551D02*
X31766D01*
X28835Y35374D02*
X31755D01*
X28825Y35315D02*
X31766D01*
X28807Y35610D02*
X31784D01*
X28807Y35256D02*
X31784D01*
X28781Y35197D02*
X31810D01*
X28745Y35138D02*
X31846D01*
X28696Y35079D02*
X31895D01*
X28628Y35020D02*
X31962D01*
X28835Y35492D02*
X31755D01*
X24898D02*
X27818D01*
X28839Y35433D02*
X31752D01*
X24870Y35610D02*
X27847D01*
X24888Y35551D02*
X27829D01*
X24902Y35433D02*
X27815D01*
X24898Y35374D02*
X27818D01*
X24888Y35315D02*
X27829D01*
X24870Y35256D02*
X27847D01*
X8996Y36555D02*
X49154D01*
X8996Y36614D02*
X49154D01*
X8996Y36496D02*
X51870D01*
X8996Y36732D02*
X49154D01*
X8996Y36673D02*
X49154D01*
X8996Y36319D02*
X51870D01*
X8996Y36260D02*
X51870D01*
X8996Y36437D02*
X51870D01*
X8996Y36378D02*
X51870D01*
X23892Y37205D02*
X24929D01*
X23908Y37264D02*
X24912D01*
X23869Y37146D02*
X24954D01*
X23837Y37087D02*
X24990D01*
X23793Y37027D02*
X25041D01*
X23732Y36968D02*
X25113D01*
X23644Y36909D02*
X25239D01*
X19568Y36850D02*
X49154D01*
X8996Y36791D02*
X49154D01*
X8996Y36083D02*
X48793D01*
X8996Y36024D02*
X48663D01*
X8996Y35965D02*
X48565D01*
X8996Y36201D02*
X51870D01*
X8996Y36142D02*
X49027D01*
X24759Y35787D02*
X27957D01*
X24759Y35079D02*
X27958D01*
X24587Y35905D02*
X28130D01*
X24692Y35846D02*
X28025D01*
X24808Y35728D02*
X27909D01*
X20822Y35787D02*
X24020D01*
X24844Y35669D02*
X27873D01*
X20650Y35905D02*
X24193D01*
X20755Y35846D02*
X24088D01*
X24844Y35197D02*
X27873D01*
X24808Y35138D02*
X27909D01*
X20822Y35079D02*
X24021D01*
X20754Y35020D02*
X24088D01*
X21736Y37736D02*
X23056D01*
X21799Y37677D02*
X23002D01*
X21844Y37618D02*
X22962D01*
X19569Y37854D02*
X23265D01*
X21636Y37795D02*
X23133D01*
X21913Y37441D02*
X22900D01*
X21919Y37382D02*
X22894D01*
X21876Y37559D02*
X22933D01*
X21899Y37500D02*
X22913D01*
X19864Y37677D02*
X21095D01*
X19906Y37618D02*
X21050D01*
X19937Y37559D02*
X21017D01*
X19725Y37795D02*
X21258D01*
X19807Y37736D02*
X21158D01*
X19959Y37500D02*
X20995D01*
X19973Y37441D02*
X20981D01*
X17952Y37500D02*
X18978D01*
X17966Y37441D02*
X18964D01*
X21918Y37323D02*
X22895D01*
X21909Y37264D02*
X22903D01*
X21892Y37205D02*
X22919D01*
X19979Y37323D02*
X20976D01*
X19979Y37382D02*
X20975D01*
X17972D02*
X18958D01*
X17971Y37323D02*
X18958D01*
X19973Y37264D02*
X20985D01*
X19959Y37205D02*
X21001D01*
X17962Y37264D02*
X18964D01*
X17945Y37205D02*
X18978D01*
X17689Y37795D02*
X19212D01*
X17789Y37736D02*
X19130D01*
X15881D02*
X17211D01*
X15672Y37854D02*
X19368D01*
X15804Y37795D02*
X17311D01*
X17897Y37618D02*
X19031D01*
X17930Y37559D02*
X19000D01*
X15935Y37677D02*
X17148D01*
X17852D02*
X19073D01*
X8996Y37736D02*
X15182D01*
X8996Y37677D02*
X15128D01*
X15975Y37618D02*
X17103D01*
X8996Y37854D02*
X15391D01*
X8996Y37795D02*
X15259D01*
X8996Y37618D02*
X15088D01*
X16004Y37559D02*
X17070D01*
X8996D02*
X15059D01*
X8996Y37500D02*
X15039D01*
X16024D02*
X17048D01*
X17920Y37146D02*
X19000D01*
X16034Y37264D02*
X17038D01*
X16018Y37205D02*
X17055D01*
X16037Y37441D02*
X17034D01*
X16043Y37382D02*
X17028D01*
X8996Y37441D02*
X15026D01*
X8996Y37382D02*
X15020D01*
X8996Y37323D02*
X15021D01*
X16042D02*
X17029D01*
X8996Y37264D02*
X15029D01*
X8996Y37205D02*
X15045D01*
X21831Y37087D02*
X22974D01*
X21867Y37146D02*
X22942D01*
X21780Y37027D02*
X23018D01*
X19807Y36968D02*
X21186D01*
X21708D02*
X23079D01*
X21582Y36909D02*
X23167D01*
X20907Y35669D02*
X23936D01*
X19725Y36909D02*
X21312D01*
X20871Y35728D02*
X23972D01*
X19906Y37087D02*
X21063D01*
X19937Y37146D02*
X21027D01*
X19864Y37027D02*
X21113D01*
X17884Y37087D02*
X19031D01*
X17833Y37027D02*
X19073D01*
X17761Y36968D02*
X19130D01*
X17635Y36909D02*
X19212D01*
X16934Y35728D02*
X20035D01*
X16970Y35669D02*
X19999D01*
X20961Y35492D02*
X23881D01*
X20965Y35433D02*
X23878D01*
X20961Y35374D02*
X23881D01*
X20933Y35610D02*
X23910D01*
X20951Y35551D02*
X23892D01*
X20951Y35315D02*
X23892D01*
X20933Y35256D02*
X23910D01*
X20907Y35197D02*
X23936D01*
X20871Y35138D02*
X23972D01*
X17024Y35492D02*
X19944D01*
X17028Y35433D02*
X19941D01*
X17024Y35374D02*
X19944D01*
X16996Y35610D02*
X19973D01*
X17014Y35551D02*
X19955D01*
X17014Y35315D02*
X19955D01*
X16996Y35256D02*
X19973D01*
X16970Y35197D02*
X19999D01*
X16934Y35138D02*
X20035D01*
X15963Y37087D02*
X17116D01*
X15995Y37146D02*
X17080D01*
X15919Y37027D02*
X17167D01*
X15858Y36968D02*
X17239D01*
X15770Y36909D02*
X17365D01*
X16818Y35846D02*
X20151D01*
X16885Y35787D02*
X20083D01*
X8996Y36850D02*
X19369D01*
X16713Y35905D02*
X20256D01*
X8996Y36968D02*
X15205D01*
X8996Y37027D02*
X15144D01*
X8996Y36909D02*
X15293D01*
X8996Y37146D02*
X15068D01*
X8996Y37087D02*
X15100D01*
X8996Y35787D02*
X16146D01*
X8996Y35728D02*
X16098D01*
X8996Y35905D02*
X16319D01*
X8996Y35846D02*
X16214D01*
X14053Y35256D02*
X16036D01*
X13818Y35315D02*
X16018D01*
X14143Y35197D02*
X16062D01*
X8996Y35669D02*
X16062D01*
X8996Y35610D02*
X16036D01*
X16885Y35079D02*
X20083D01*
X16817Y35020D02*
X20151D01*
X14205Y35138D02*
X16098D01*
X14251Y35079D02*
X16146D01*
X8996Y35374D02*
X16007D01*
X8996Y35433D02*
X16004D01*
X8996Y35315D02*
X13800D01*
X8996Y35551D02*
X16018D01*
X8996Y35492D02*
X16007D01*
X8996Y35138D02*
X13413D01*
X8996Y35079D02*
X13367D01*
X8996Y35256D02*
X13565D01*
X8996Y35197D02*
X13475D01*
X29134Y34252D02*
X30420D01*
X28963Y34311D02*
X30327D01*
X28523Y34961D02*
X32067D01*
X25657Y34370D02*
X30273D01*
X29256Y34134D02*
X32389D01*
X29315Y34075D02*
X48744D01*
X29197Y34193D02*
X32314D01*
X29165Y34225D02*
X29588Y33802D01*
X25845Y34311D02*
X28957D01*
X24691Y35020D02*
X28025D01*
X28086Y33720D02*
X28834D01*
X28086Y33720D02*
X28834D01*
X25845Y33720D02*
X27525D01*
X25845Y33720D02*
X27525D01*
X28834Y33720D02*
X29171Y33384D01*
X28151Y33425D02*
X29130D01*
X28132Y33366D02*
X29168D01*
X28100Y33307D02*
X29163D01*
X28050Y33248D02*
X29166D01*
X27967Y33189D02*
X29175D01*
X27849Y33130D02*
X29192D01*
X27790Y33071D02*
X29216D01*
X28146Y33602D02*
X28953D01*
X28123Y33661D02*
X28894D01*
X26590Y32707D02*
X27458Y33574D01*
X28157Y33543D02*
X29012D01*
X28159Y33484D02*
X29071D01*
X26921Y32203D02*
X27875Y33157D01*
X14337Y34842D02*
X30327D01*
X14341Y34783D02*
X30273D01*
X14337Y34724D02*
X30239D01*
X14327Y34902D02*
X30419D01*
X14327Y34665D02*
X30218D01*
X14310Y34606D02*
X30208D01*
X14285Y34547D02*
X30208D01*
X14251Y34488D02*
X30218D01*
X14205Y34429D02*
X30239D01*
X24586Y34961D02*
X28130D01*
X20649D02*
X24193D01*
X14143Y34370D02*
X25643D01*
X14052Y34311D02*
X25454D01*
X21948Y34134D02*
X25316D01*
X21980Y34075D02*
X25300D01*
X21816Y34252D02*
X25385D01*
X21899Y34193D02*
X25343D01*
X21949Y33543D02*
X27427D01*
X21949Y33484D02*
X27368D01*
X21949Y33425D02*
X27309D01*
X21949Y33661D02*
X27488D01*
X21949Y33602D02*
X27465D01*
X21949Y33248D02*
X27132D01*
X21949Y33189D02*
X27073D01*
X21949Y33366D02*
X27250D01*
X21949Y33307D02*
X27191D01*
X22007Y33957D02*
X25300D01*
X21999Y34016D02*
X25295D01*
X22006Y33898D02*
X25316D01*
X21994Y33839D02*
X25343D01*
X21971Y33779D02*
X25386D01*
X21949Y33071D02*
X26954D01*
X21949Y33012D02*
X26895D01*
X21949Y33720D02*
X25454D01*
X21949Y33130D02*
X27013D01*
X27671Y32953D02*
X29297D01*
X27731Y33012D02*
X29250D01*
X27612Y32894D02*
X29360D01*
X27553Y32835D02*
X29332D01*
X27494Y32776D02*
X29285D01*
X27435Y32716D02*
X29250D01*
X27022Y32303D02*
X29250D01*
X26963Y32244D02*
X29285D01*
X27376Y32657D02*
X29226D01*
X27317Y32598D02*
X29211D01*
X27258Y32539D02*
X29204D01*
X24659Y32716D02*
X26600D01*
X24674Y32707D02*
X26590D01*
X27199Y32480D02*
X29204D01*
X27140Y32421D02*
X29211D01*
X27081Y32362D02*
X29226D01*
X22632Y32185D02*
X24206D01*
X29261Y32067D02*
X29511D01*
X29307Y32008D02*
X48334D01*
X29186Y32126D02*
X29400D01*
X29278Y31594D02*
X32826D01*
X29216Y31535D02*
X32806D01*
X29089Y31476D02*
X32794D01*
X26902Y32185D02*
X29332D01*
X26788Y32126D02*
X28826D01*
X24674Y32116D02*
X26713D01*
X24674Y32116D02*
X28810D01*
X22691Y32126D02*
X24268D01*
X22701Y32116D02*
X24282D01*
X21949Y32953D02*
X26836D01*
X21983Y32835D02*
X26718D01*
X22579Y31526D02*
X28810D01*
X21949Y32894D02*
X26777D01*
X11555Y31476D02*
X28923D01*
X11555Y31299D02*
X32806D01*
X11555Y31240D02*
X32826D01*
X11555Y31417D02*
X32791D01*
X11555Y31358D02*
X32794D01*
X22160Y32657D02*
X24223D01*
X22219Y32598D02*
X24177D01*
X22278Y32539D02*
X24148D01*
X22042Y32776D02*
X26659D01*
X22101Y32716D02*
X24298D01*
X22514Y32303D02*
X24141D01*
X22573Y32244D02*
X24166D01*
X22337Y32480D02*
X24131D01*
X22455Y32362D02*
X24127D01*
X8996Y30472D02*
X51870D01*
X8996Y30531D02*
X46060D01*
X8996Y30413D02*
X51870D01*
X8996Y30650D02*
X44670D01*
X8996Y30590D02*
X44670D01*
X8996Y30236D02*
X51870D01*
X8996Y30217D02*
X51870D01*
X8996Y30354D02*
X51870D01*
X8996Y30295D02*
X51870D01*
X11555Y31004D02*
X33052D01*
X11555Y31063D02*
X32959D01*
X11555Y30945D02*
X42190D01*
X11555Y31181D02*
X32856D01*
X11555Y31122D02*
X32899D01*
X11555Y30886D02*
X42246D01*
X8996Y30827D02*
X42330D01*
X8996Y30768D02*
X44670D01*
X8996Y30709D02*
X44670D01*
X16712Y34961D02*
X20256D01*
X8996Y34252D02*
X21491D01*
X8996Y34193D02*
X21408D01*
X11555Y33130D02*
X21358D01*
X8996Y34134D02*
X21359D01*
X11555Y33189D02*
X21358D01*
X14310Y34961D02*
X16319D01*
X14285Y35020D02*
X16214D01*
X8996Y34311D02*
X13566D01*
X9193Y33209D02*
X11555D01*
X8996Y34429D02*
X13413D01*
X8996Y34370D02*
X13475D01*
X21949Y32868D02*
Y33741D01*
Y32868D02*
X22701Y32116D01*
X11555Y32894D02*
X21358D01*
X11555Y32835D02*
X21358D01*
X11555Y32716D02*
X21360D01*
X11555Y32657D02*
X21372D01*
X11555Y32598D02*
X21398D01*
X21358Y32746D02*
Y33741D01*
X11555Y33071D02*
X21358D01*
X11555Y30856D02*
Y33209D01*
X9193Y30856D02*
Y33209D01*
X8996Y30217D02*
Y39626D01*
X11555Y32776D02*
X21358D01*
X11555Y33012D02*
X21358D01*
X11555Y32953D02*
X21358D01*
X8996Y34016D02*
X21308D01*
X8996Y33957D02*
X21300D01*
X8996Y33898D02*
X21301D01*
X8996Y34488D02*
X13367D01*
X8996Y34075D02*
X21327D01*
X8996Y33720D02*
X21358D01*
X8996Y33661D02*
X21358D01*
X8996Y33839D02*
X21313D01*
X8996Y33779D02*
X21336D01*
X8996Y34902D02*
X13291D01*
X8996Y34842D02*
X13281D01*
X8996Y34783D02*
X13278D01*
X8996Y35020D02*
X13333D01*
X8996Y34961D02*
X13308D01*
X8996Y34606D02*
X13308D01*
X8996Y34547D02*
X13333D01*
X8996Y34724D02*
X13281D01*
X8996Y34665D02*
X13291D01*
X8996Y33425D02*
X21358D01*
X8996Y33484D02*
X21358D01*
X8996Y33366D02*
X21358D01*
X8996Y33602D02*
X21358D01*
X8996Y33543D02*
X21358D01*
X8996Y33189D02*
X9193D01*
X8996Y33130D02*
X9193D01*
X8996Y33307D02*
X21358D01*
X8996Y33248D02*
X21358D01*
X8996Y32894D02*
X9193D01*
X8996Y32953D02*
X9193D01*
X8996Y32835D02*
X9193D01*
X8996Y33071D02*
X9193D01*
X8996Y33012D02*
X9193D01*
X8996Y32657D02*
X9193D01*
X8996Y32598D02*
X9193D01*
X8996Y32776D02*
X9193D01*
X8996Y32716D02*
X9193D01*
X22396Y32421D02*
X24124D01*
X14222Y32362D02*
X21620D01*
X14264Y32303D02*
X21679D01*
X14088Y32480D02*
X21502D01*
X14166Y32421D02*
X21561D01*
X14331Y32126D02*
X21856D01*
X14339Y32067D02*
X21915D01*
X14294Y32244D02*
X21738D01*
X14317Y32185D02*
X21797D01*
X13953Y32539D02*
X21443D01*
X11555D02*
X13666D01*
X11555Y32480D02*
X13531D01*
X11555Y32421D02*
X13452D01*
X11555Y32362D02*
X13396D01*
X11555Y32126D02*
X13287D01*
X11555Y32067D02*
X13279D01*
X11555Y32244D02*
X13324D01*
X11555Y32185D02*
X13301D01*
X14275Y31772D02*
X22210D01*
X14303Y31831D02*
X22151D01*
X21445Y32537D02*
X22370Y31612D01*
X14237Y31713D02*
X22269D01*
X14187Y31653D02*
X22329D01*
X14117Y31594D02*
X22389D01*
X14010Y31535D02*
X22503D01*
X14335Y31949D02*
X22033D01*
X14340Y32008D02*
X21974D01*
X11555D02*
X13278D01*
X11555Y31949D02*
X13283D01*
X11555Y31890D02*
X13296D01*
X14322D02*
X22092D01*
X11555Y31831D02*
X13315D01*
X11555Y31594D02*
X13501D01*
X8996Y32480D02*
X9193D01*
X8996Y32539D02*
X9193D01*
X11555Y32303D02*
X13355D01*
X8996Y32362D02*
X9193D01*
X8996Y32303D02*
X9193D01*
X11555Y31772D02*
X13343D01*
X11555Y31713D02*
X13381D01*
X8996Y32244D02*
X9193D01*
X8996Y32185D02*
X9193D01*
X8996Y32008D02*
X9193D01*
X8996Y32067D02*
X9193D01*
X8996Y31949D02*
X9193D01*
X8996Y32421D02*
X9193D01*
X8996Y32126D02*
X9193D01*
X8996Y31772D02*
X9193D01*
X8996Y31713D02*
X9193D01*
X8996Y31890D02*
X9193D01*
X8996Y31831D02*
X9193D01*
X11555Y31653D02*
X13431D01*
X8996D02*
X9193D01*
X11555Y31535D02*
X13608D01*
X8996Y31594D02*
X9193D01*
X8996Y31535D02*
X9193D01*
X8996Y31358D02*
X9193D01*
Y30856D02*
X11555D01*
X8996Y31476D02*
X9193D01*
X8996Y31417D02*
X9193D01*
X8996Y31181D02*
X9193D01*
X8996Y31122D02*
X9193D01*
X8996Y31299D02*
X9193D01*
X8996Y31240D02*
X9193D01*
X8996Y30945D02*
X9193D01*
X8996Y30886D02*
X9193D01*
X8996Y31063D02*
X9193D01*
X8996Y31004D02*
X9193D01*
D24*
X45059Y37362D02*
X45492D01*
X45059D02*
Y37795D01*
X44626Y37362D02*
X45059D01*
Y36929D02*
Y37362D01*
X41122D02*
X41555D01*
X41122D02*
Y37795D01*
X40689Y37362D02*
X41122D01*
Y36929D02*
Y37362D01*
X37185D02*
X37618D01*
X37185D02*
Y37795D01*
X36752Y37362D02*
X37185D01*
Y36929D02*
Y37362D01*
X32815D02*
X33248D01*
X33681D01*
X33248Y36929D02*
Y37362D01*
Y37795D01*
X51024Y33848D02*
Y34852D01*
Y32844D02*
Y33848D01*
X50020D02*
X51024D01*
X49173Y32628D02*
Y33632D01*
X48169Y32628D02*
X49173D01*
X50177D01*
X49173Y31624D02*
Y32628D01*
X29675Y32510D02*
X30108D01*
X45128Y31024D02*
Y31442D01*
Y30606D02*
Y31024D01*
X45546D01*
X44710D02*
X45128D01*
X29675Y32077D02*
Y32510D01*
X42549Y31228D02*
X42967D01*
X42549D02*
Y31646D01*
X42131Y31228D02*
X42549D01*
Y30810D02*
Y31228D01*
X33248Y31417D02*
X33666D01*
X33248D02*
Y31835D01*
Y30999D02*
Y31417D01*
X32830D02*
X33248D01*
X29311Y37362D02*
X29744D01*
X29311D02*
Y37795D01*
X28878Y37362D02*
X29311D01*
Y36929D02*
Y37362D01*
X25374D02*
X25807D01*
X25374D02*
Y37795D01*
Y36929D02*
Y37362D01*
X24941D02*
X25374D01*
X21447Y36929D02*
Y37362D01*
Y37795D01*
Y37362D02*
X21880D01*
X21014D02*
X21447D01*
X17500D02*
X17933D01*
X17500D02*
Y37795D01*
X17067Y37362D02*
X17500D01*
Y36929D02*
Y37362D01*
X29242Y32510D02*
X29675D01*
X28957Y34016D02*
X29675Y33297D01*
X25650Y34016D02*
X28957D01*
X22579Y31821D02*
X29006D01*
X21654Y32746D02*
Y33937D01*
Y32746D02*
X22579Y31821D01*
X24478Y32411D02*
X26713D01*
X27805Y33504D01*
X30561Y34577D02*
X32431D01*
X32569Y34439D01*
D28*
X24390Y35433D02*
D03*
X40138D02*
D03*
X36201D02*
D03*
X32264D02*
D03*
X44075D02*
D03*
X41122Y37362D02*
D03*
X16516Y35433D02*
D03*
X20453D02*
D03*
X28327D02*
D03*
X39154Y37362D02*
D03*
X37185D02*
D03*
X43091D02*
D03*
X45059D02*
D03*
X35217D02*
D03*
X33248D02*
D03*
X31280D02*
D03*
X29311D02*
D03*
X27352D02*
D03*
X23406D02*
D03*
X21447D02*
D03*
X25374D02*
D03*
X15532D02*
D03*
X17500D02*
D03*
X19468Y37352D02*
D03*
X29675Y32510D02*
D03*
Y33297D02*
D03*
D29*
X13809Y32028D02*
D03*
Y34783D02*
D03*
D30*
X33248Y32795D02*
D03*
X42549Y33228D02*
D03*
D31*
X33248Y31417D02*
D03*
X42549Y31228D02*
D03*
X46128Y31024D02*
D03*
D32*
X45128D02*
D03*
D33*
X49173Y32628D02*
D03*
Y35069D02*
D03*
X51024Y33848D02*
D03*
D34*
X50335Y37667D02*
D03*
X10374Y32028D02*
D03*
D35*
X51358Y30935D02*
D03*
X48061Y38898D02*
D03*
X14803Y39173D02*
D03*
X17490Y33337D02*
D03*
X18012Y32717D02*
D03*
X20531Y32736D02*
D03*
X27185Y33573D02*
D03*
X24547Y34065D02*
D03*
X33789D02*
D03*
X31496Y30738D02*
D03*
X23681Y30531D02*
D03*
X24646Y30630D02*
D03*
X25492Y30709D02*
D03*
X26329Y31329D02*
D03*
X22854Y32569D02*
D03*
X22677Y30512D02*
D03*
X21319Y31319D02*
D03*
X19744Y30640D02*
D03*
X17913Y30620D02*
D03*
X16368Y30502D02*
D03*
X16713Y31919D02*
D03*
X15866Y32569D02*
D03*
X10305Y30541D02*
D03*
X13415Y30689D02*
D03*
X14173Y31073D02*
D03*
X13189Y35778D02*
D03*
X14144Y33848D02*
D03*
X11890Y34528D02*
D03*
X9705Y38829D02*
D03*
X10138Y35394D02*
D03*
X12470Y38317D02*
D03*
X17392Y34606D02*
D03*
X15541Y36417D02*
D03*
X16634Y37884D02*
D03*
X18337Y37382D02*
D03*
X19409Y36535D02*
D03*
X19518Y35246D02*
D03*
X23238Y35226D02*
D03*
X20472Y37953D02*
D03*
X22215Y37382D02*
D03*
X23474Y36516D02*
D03*
X24390Y37982D02*
D03*
X27382Y35246D02*
D03*
X26161Y37382D02*
D03*
X27333Y36427D02*
D03*
X28209Y38091D02*
D03*
X30502Y36280D02*
D03*
X30098Y37382D02*
D03*
X34892Y35226D02*
D03*
X32254Y37963D02*
D03*
X34026Y37352D02*
D03*
X35217Y36437D02*
D03*
X36289Y37864D02*
D03*
X38081Y37382D02*
D03*
X40285Y37805D02*
D03*
X39252Y36535D02*
D03*
X42913Y36171D02*
D03*
X42008Y37323D02*
D03*
X44114Y38760D02*
D03*
X45768Y37303D02*
D03*
X51358Y35758D02*
D03*
X50384Y39232D02*
D03*
X46555Y36289D02*
D03*
X47844Y37382D02*
D03*
X46230Y38780D02*
D03*
X47756Y32539D02*
D03*
X48602Y33868D02*
D03*
X51476Y32500D02*
D03*
X50532Y31811D02*
D03*
X49350Y30935D02*
D03*
X44439Y30974D02*
D03*
X44764Y31811D02*
D03*
X41663Y32087D02*
D03*
X43858Y32274D02*
D03*
X41654Y31220D02*
D03*
X43297Y31240D02*
D03*
X42579Y32018D02*
D03*
X35236Y33553D02*
D03*
X35039Y31083D02*
D03*
X35217Y31703D02*
D03*
X35197Y32254D02*
D03*
X35049Y32785D02*
D03*
X34734Y33307D02*
D03*
X32283Y32480D02*
D03*
X32431Y31565D02*
D03*
X34026Y31299D02*
D03*
X34193Y30512D02*
D03*
X40000Y32431D02*
D03*
X39301Y32402D02*
D03*
X34754Y30630D02*
D03*
X35423Y30659D02*
D03*
X36122D02*
D03*
X36762D02*
D03*
X37402D02*
D03*
X38012D02*
D03*
X25650Y34016D02*
D03*
X32569Y34439D02*
D03*
X29006Y31821D02*
D03*
X21654Y33937D02*
D03*
X24478Y32411D02*
D03*
X27805Y33504D02*
D03*
X30561Y34577D02*
D03*
M02*
