G04 Layer_Color=8388736*
%FSLAX24Y24*%
%MOIN*%
G70*
G01*
G75*
G04:AMPARAMS|DCode=62|XSize=36mil|YSize=43.8mil|CornerRadius=6.8mil|HoleSize=0mil|Usage=FLASHONLY|Rotation=0.000|XOffset=0mil|YOffset=0mil|HoleType=Round|Shape=RoundedRectangle|*
%AMROUNDEDRECTD62*
21,1,0.0360,0.0302,0,0,0.0*
21,1,0.0224,0.0438,0,0,0.0*
1,1,0.0136,0.0112,-0.0151*
1,1,0.0136,-0.0112,-0.0151*
1,1,0.0136,-0.0112,0.0151*
1,1,0.0136,0.0112,0.0151*
%
%ADD62ROUNDEDRECTD62*%
G04:AMPARAMS|DCode=63|XSize=49mil|YSize=44mil|CornerRadius=5.8mil|HoleSize=0mil|Usage=FLASHONLY|Rotation=0.000|XOffset=0mil|YOffset=0mil|HoleType=Round|Shape=RoundedRectangle|*
%AMROUNDEDRECTD63*
21,1,0.0490,0.0324,0,0,0.0*
21,1,0.0374,0.0440,0,0,0.0*
1,1,0.0116,0.0187,-0.0162*
1,1,0.0116,-0.0187,-0.0162*
1,1,0.0116,-0.0187,0.0162*
1,1,0.0116,0.0187,0.0162*
%
%ADD63ROUNDEDRECTD63*%
G04:AMPARAMS|DCode=64|XSize=49mil|YSize=44mil|CornerRadius=5.8mil|HoleSize=0mil|Usage=FLASHONLY|Rotation=90.000|XOffset=0mil|YOffset=0mil|HoleType=Round|Shape=RoundedRectangle|*
%AMROUNDEDRECTD64*
21,1,0.0490,0.0324,0,0,90.0*
21,1,0.0374,0.0440,0,0,90.0*
1,1,0.0116,0.0162,0.0187*
1,1,0.0116,0.0162,-0.0187*
1,1,0.0116,-0.0162,-0.0187*
1,1,0.0116,-0.0162,0.0187*
%
%ADD64ROUNDEDRECTD64*%
G04:AMPARAMS|DCode=65|XSize=90.7mil|YSize=86.7mil|CornerRadius=23.7mil|HoleSize=0mil|Usage=FLASHONLY|Rotation=180.000|XOffset=0mil|YOffset=0mil|HoleType=Round|Shape=RoundedRectangle|*
%AMROUNDEDRECTD65*
21,1,0.0907,0.0394,0,0,180.0*
21,1,0.0433,0.0867,0,0,180.0*
1,1,0.0474,-0.0217,0.0197*
1,1,0.0474,0.0217,0.0197*
1,1,0.0474,0.0217,-0.0197*
1,1,0.0474,-0.0217,-0.0197*
%
%ADD65ROUNDEDRECTD65*%
%ADD66O,0.0361X0.0671*%
%ADD67R,0.0434X0.0474*%
G04:AMPARAMS|DCode=68|XSize=98.6mil|YSize=90.7mil|CornerRadius=16.4mil|HoleSize=0mil|Usage=FLASHONLY|Rotation=0.000|XOffset=0mil|YOffset=0mil|HoleType=Round|Shape=RoundedRectangle|*
%AMROUNDEDRECTD68*
21,1,0.0986,0.0579,0,0,0.0*
21,1,0.0657,0.0907,0,0,0.0*
1,1,0.0328,0.0329,-0.0289*
1,1,0.0328,-0.0329,-0.0289*
1,1,0.0328,-0.0329,0.0289*
1,1,0.0328,0.0329,0.0289*
%
%ADD68ROUNDEDRECTD68*%
%ADD69O,0.0375X0.0930*%
%ADD70O,0.0880X0.0375*%
G04:AMPARAMS|DCode=71|XSize=118.2mil|YSize=55.2mil|CornerRadius=15.8mil|HoleSize=0mil|Usage=FLASHONLY|Rotation=0.000|XOffset=0mil|YOffset=0mil|HoleType=Round|Shape=RoundedRectangle|*
%AMROUNDEDRECTD71*
21,1,0.1182,0.0236,0,0,0.0*
21,1,0.0866,0.0552,0,0,0.0*
1,1,0.0316,0.0433,-0.0118*
1,1,0.0316,-0.0433,-0.0118*
1,1,0.0316,-0.0433,0.0118*
1,1,0.0316,0.0433,0.0118*
%
%ADD71ROUNDEDRECTD71*%
G04:AMPARAMS|DCode=72|XSize=202.9mil|YSize=78.9mil|CornerRadius=21.7mil|HoleSize=0mil|Usage=FLASHONLY|Rotation=0.000|XOffset=0mil|YOffset=0mil|HoleType=Round|Shape=RoundedRectangle|*
%AMROUNDEDRECTD72*
21,1,0.2029,0.0354,0,0,0.0*
21,1,0.1594,0.0789,0,0,0.0*
1,1,0.0434,0.0797,-0.0177*
1,1,0.0434,-0.0797,-0.0177*
1,1,0.0434,-0.0797,0.0177*
1,1,0.0434,0.0797,0.0177*
%
%ADD72ROUNDEDRECTD72*%
G04:AMPARAMS|DCode=73|XSize=36mil|YSize=43.8mil|CornerRadius=6.8mil|HoleSize=0mil|Usage=FLASHONLY|Rotation=90.000|XOffset=0mil|YOffset=0mil|HoleType=Round|Shape=RoundedRectangle|*
%AMROUNDEDRECTD73*
21,1,0.0360,0.0302,0,0,90.0*
21,1,0.0224,0.0438,0,0,90.0*
1,1,0.0136,0.0151,0.0112*
1,1,0.0136,0.0151,-0.0112*
1,1,0.0136,-0.0151,-0.0112*
1,1,0.0136,-0.0151,0.0112*
%
%ADD73ROUNDEDRECTD73*%
G04:AMPARAMS|DCode=74|XSize=134mil|YSize=88.7mil|CornerRadius=24.2mil|HoleSize=0mil|Usage=FLASHONLY|Rotation=0.000|XOffset=0mil|YOffset=0mil|HoleType=Round|Shape=RoundedRectangle|*
%AMROUNDEDRECTD74*
21,1,0.1340,0.0404,0,0,0.0*
21,1,0.0856,0.0887,0,0,0.0*
1,1,0.0484,0.0428,-0.0202*
1,1,0.0484,-0.0428,-0.0202*
1,1,0.0484,-0.0428,0.0202*
1,1,0.0484,0.0428,0.0202*
%
%ADD74ROUNDEDRECTD74*%
%ADD75O,0.0336X0.0887*%
G04:AMPARAMS|DCode=76|XSize=62mil|YSize=58mil|CornerRadius=16.5mil|HoleSize=0mil|Usage=FLASHONLY|Rotation=180.000|XOffset=0mil|YOffset=0mil|HoleType=Round|Shape=RoundedRectangle|*
%AMROUNDEDRECTD76*
21,1,0.0620,0.0250,0,0,180.0*
21,1,0.0290,0.0580,0,0,180.0*
1,1,0.0330,-0.0145,0.0125*
1,1,0.0330,0.0145,0.0125*
1,1,0.0330,0.0145,-0.0125*
1,1,0.0330,-0.0145,-0.0125*
%
%ADD76ROUNDEDRECTD76*%
G04:AMPARAMS|DCode=77|XSize=94.6mil|YSize=76.9mil|CornerRadius=21.2mil|HoleSize=0mil|Usage=FLASHONLY|Rotation=90.000|XOffset=0mil|YOffset=0mil|HoleType=Round|Shape=RoundedRectangle|*
%AMROUNDEDRECTD77*
21,1,0.0946,0.0344,0,0,90.0*
21,1,0.0522,0.0769,0,0,90.0*
1,1,0.0424,0.0172,0.0261*
1,1,0.0424,0.0172,-0.0261*
1,1,0.0424,-0.0172,-0.0261*
1,1,0.0424,-0.0172,0.0261*
%
%ADD77ROUNDEDRECTD77*%
G04:AMPARAMS|DCode=78|XSize=63.1mil|YSize=49.3mil|CornerRadius=14.3mil|HoleSize=0mil|Usage=FLASHONLY|Rotation=180.000|XOffset=0mil|YOffset=0mil|HoleType=Round|Shape=RoundedRectangle|*
%AMROUNDEDRECTD78*
21,1,0.0631,0.0207,0,0,180.0*
21,1,0.0344,0.0493,0,0,180.0*
1,1,0.0287,-0.0172,0.0103*
1,1,0.0287,0.0172,0.0103*
1,1,0.0287,0.0172,-0.0103*
1,1,0.0287,-0.0172,-0.0103*
%
%ADD78ROUNDEDRECTD78*%
G04:AMPARAMS|DCode=79|XSize=63.1mil|YSize=49.3mil|CornerRadius=14.3mil|HoleSize=0mil|Usage=FLASHONLY|Rotation=90.000|XOffset=0mil|YOffset=0mil|HoleType=Round|Shape=RoundedRectangle|*
%AMROUNDEDRECTD79*
21,1,0.0631,0.0207,0,0,90.0*
21,1,0.0344,0.0493,0,0,90.0*
1,1,0.0287,0.0103,0.0172*
1,1,0.0287,0.0103,-0.0172*
1,1,0.0287,-0.0103,-0.0172*
1,1,0.0287,-0.0103,0.0172*
%
%ADD79ROUNDEDRECTD79*%
G04:AMPARAMS|DCode=80|XSize=63.1mil|YSize=78.9mil|CornerRadius=17.8mil|HoleSize=0mil|Usage=FLASHONLY|Rotation=0.000|XOffset=0mil|YOffset=0mil|HoleType=Round|Shape=RoundedRectangle|*
%AMROUNDEDRECTD80*
21,1,0.0631,0.0433,0,0,0.0*
21,1,0.0276,0.0789,0,0,0.0*
1,1,0.0356,0.0138,-0.0217*
1,1,0.0356,-0.0138,-0.0217*
1,1,0.0356,-0.0138,0.0217*
1,1,0.0356,0.0138,0.0217*
%
%ADD80ROUNDEDRECTD80*%
%ADD81O,0.0198X0.0710*%
%ADD82O,0.0710X0.0198*%
G04:AMPARAMS|DCode=83|XSize=55.2mil|YSize=82.8mil|CornerRadius=15.8mil|HoleSize=0mil|Usage=FLASHONLY|Rotation=180.000|XOffset=0mil|YOffset=0mil|HoleType=Round|Shape=RoundedRectangle|*
%AMROUNDEDRECTD83*
21,1,0.0552,0.0512,0,0,180.0*
21,1,0.0236,0.0828,0,0,180.0*
1,1,0.0316,-0.0118,0.0256*
1,1,0.0316,0.0118,0.0256*
1,1,0.0316,0.0118,-0.0256*
1,1,0.0316,-0.0118,-0.0256*
%
%ADD83ROUNDEDRECTD83*%
G04:AMPARAMS|DCode=84|XSize=55.2mil|YSize=82.8mil|CornerRadius=15.8mil|HoleSize=0mil|Usage=FLASHONLY|Rotation=90.000|XOffset=0mil|YOffset=0mil|HoleType=Round|Shape=RoundedRectangle|*
%AMROUNDEDRECTD84*
21,1,0.0552,0.0512,0,0,90.0*
21,1,0.0236,0.0828,0,0,90.0*
1,1,0.0316,0.0256,0.0118*
1,1,0.0316,0.0256,-0.0118*
1,1,0.0316,-0.0256,-0.0118*
1,1,0.0316,-0.0256,0.0118*
%
%ADD84ROUNDEDRECTD84*%
G04:AMPARAMS|DCode=85|XSize=94.6mil|YSize=76.9mil|CornerRadius=21.2mil|HoleSize=0mil|Usage=FLASHONLY|Rotation=180.000|XOffset=0mil|YOffset=0mil|HoleType=Round|Shape=RoundedRectangle|*
%AMROUNDEDRECTD85*
21,1,0.0946,0.0344,0,0,180.0*
21,1,0.0522,0.0769,0,0,180.0*
1,1,0.0424,-0.0261,0.0172*
1,1,0.0424,0.0261,0.0172*
1,1,0.0424,0.0261,-0.0172*
1,1,0.0424,-0.0261,-0.0172*
%
%ADD85ROUNDEDRECTD85*%
G04:AMPARAMS|DCode=86|XSize=59.2mil|YSize=80mil|CornerRadius=6.6mil|HoleSize=0mil|Usage=FLASHONLY|Rotation=270.000|XOffset=0mil|YOffset=0mil|HoleType=Round|Shape=RoundedRectangle|*
%AMROUNDEDRECTD86*
21,1,0.0592,0.0669,0,0,270.0*
21,1,0.0461,0.0800,0,0,270.0*
1,1,0.0131,-0.0335,-0.0230*
1,1,0.0131,-0.0335,0.0230*
1,1,0.0131,0.0335,0.0230*
1,1,0.0131,0.0335,-0.0230*
%
%ADD86ROUNDEDRECTD86*%
G04:AMPARAMS|DCode=87|XSize=59.2mil|YSize=80mil|CornerRadius=6.6mil|HoleSize=0mil|Usage=FLASHONLY|Rotation=180.000|XOffset=0mil|YOffset=0mil|HoleType=Round|Shape=RoundedRectangle|*
%AMROUNDEDRECTD87*
21,1,0.0592,0.0669,0,0,180.0*
21,1,0.0461,0.0800,0,0,180.0*
1,1,0.0131,-0.0230,0.0335*
1,1,0.0131,0.0230,0.0335*
1,1,0.0131,0.0230,-0.0335*
1,1,0.0131,-0.0230,-0.0335*
%
%ADD87ROUNDEDRECTD87*%
%ADD88O,0.0474X0.0926*%
G04:AMPARAMS|DCode=89|XSize=287.5mil|YSize=226.5mil|CornerRadius=14.9mil|HoleSize=0mil|Usage=FLASHONLY|Rotation=270.000|XOffset=0mil|YOffset=0mil|HoleType=Round|Shape=RoundedRectangle|*
%AMROUNDEDRECTD89*
21,1,0.2875,0.1967,0,0,270.0*
21,1,0.2577,0.2265,0,0,270.0*
1,1,0.0299,-0.0983,-0.1288*
1,1,0.0299,-0.0983,0.1288*
1,1,0.0299,0.0983,0.1288*
1,1,0.0299,0.0983,-0.1288*
%
%ADD89ROUNDEDRECTD89*%
%ADD90R,0.0680X0.0680*%
%ADD91C,0.0680*%
%ADD92R,0.0680X0.0680*%
%ADD93C,0.0789*%
%ADD94R,0.0789X0.0789*%
%ADD95C,0.1261*%
%ADD96C,0.1025*%
%ADD97R,0.0789X0.0789*%
G36*
X22859Y45817D02*
X22954Y45777D01*
X23037Y45714D01*
X23100Y45632D01*
X23139Y45536D01*
X23153Y45433D01*
X23139Y45330D01*
X23100Y45235D01*
X23037Y45152D01*
X22954Y45089D01*
X22859Y45050D01*
X22756Y45036D01*
X22653Y45050D01*
X22557Y45089D01*
X22475Y45152D01*
X22412Y45235D01*
X22372Y45330D01*
X22359Y45433D01*
X22372Y45536D01*
X22412Y45632D01*
X22475Y45714D01*
X22557Y45777D01*
X22653Y45817D01*
X22756Y45830D01*
X22859Y45817D01*
D02*
G37*
G36*
X29698Y33927D02*
X29702Y33925D01*
X29706Y33926D01*
X29836Y33885D01*
X29837Y33884D01*
X29839Y33884D01*
X29990Y33823D01*
X29992Y33821D01*
X29996Y33820D01*
X30136Y33737D01*
X30138Y33734D01*
X30141Y33733D01*
X30266Y33629D01*
X30267Y33628D01*
X30269Y33627D01*
X30273Y33623D01*
X30274Y33621D01*
X30275Y33620D01*
X30424Y33455D01*
X30425Y33452D01*
X30428Y33450D01*
X30554Y33266D01*
X30554Y33263D01*
X30557Y33261D01*
X30657Y33062D01*
X30657Y33059D01*
X30659Y33057D01*
X30732Y32847D01*
X30732Y32844D01*
X30733Y32841D01*
X30778Y32623D01*
X30777Y32620D01*
X30778Y32617D01*
X30793Y32395D01*
X30792Y32392D01*
X30793Y32389D01*
X30778Y32167D01*
X30777Y32164D01*
X30778Y32161D01*
X30733Y31942D01*
X30732Y31940D01*
X30732Y31937D01*
X30659Y31726D01*
X30657Y31724D01*
X30657Y31721D01*
X30557Y31522D01*
X30554Y31520D01*
X30554Y31517D01*
X30428Y31333D01*
X30425Y31331D01*
X30424Y31329D01*
X30275Y31163D01*
X30274Y31162D01*
X30273Y31161D01*
X30271Y31159D01*
X30269Y31158D01*
X30268Y31156D01*
X30142Y31051D01*
X30138Y31050D01*
X30136Y31047D01*
X29995Y30963D01*
X29991Y30962D01*
X29989Y30960D01*
X29836Y30899D01*
X29834Y30899D01*
X29833Y30897D01*
X29699Y30856D01*
X29695Y30856D01*
X29691Y30854D01*
X29618Y30845D01*
X29610Y30848D01*
X29602Y30847D01*
X29531Y30865D01*
X29524Y30870D01*
X29516Y30872D01*
X29457Y30916D01*
X29453Y30923D01*
X29446Y30928D01*
X29407Y30990D01*
X29406Y30998D01*
X29401Y31005D01*
X29387Y31077D01*
X29388Y31081D01*
X29387Y31085D01*
Y33691D01*
X29388Y33695D01*
X29387Y33699D01*
X29401Y33773D01*
X29406Y33780D01*
X29407Y33788D01*
X29448Y33852D01*
X29454Y33857D01*
X29459Y33864D01*
X29520Y33909D01*
X29528Y33910D01*
X29534Y33915D01*
X29607Y33935D01*
X29615Y33934D01*
X29623Y33936D01*
X29698Y33927D01*
D02*
G37*
G36*
X28205Y33936D02*
X28213Y33937D01*
X28284Y33918D01*
X28291Y33913D01*
X28299Y33911D01*
X28358Y33868D01*
X28362Y33861D01*
X28369Y33856D01*
X28408Y33794D01*
X28409Y33786D01*
X28414Y33779D01*
X28428Y33707D01*
X28427Y33702D01*
X28428Y33699D01*
Y31093D01*
X28427Y31089D01*
X28428Y31085D01*
X28413Y31010D01*
X28409Y31004D01*
X28408Y30995D01*
X28367Y30932D01*
X28361Y30927D01*
X28356Y30920D01*
X28295Y30875D01*
X28287Y30873D01*
X28281Y30868D01*
X28208Y30849D01*
X28200Y30850D01*
X28192Y30847D01*
X28117Y30856D01*
X28113Y30858D01*
X28109Y30858D01*
X27979Y30898D01*
X27978Y30900D01*
X27976Y30900D01*
X27825Y30960D01*
X27822Y30963D01*
X27819Y30963D01*
X27679Y31046D01*
X27677Y31049D01*
X27674Y31050D01*
X27549Y31154D01*
X27548Y31156D01*
X27546Y31156D01*
X27542Y31161D01*
X27541Y31162D01*
X27540Y31163D01*
X27391Y31329D01*
X27390Y31331D01*
X27387Y31333D01*
X27261Y31517D01*
X27261Y31520D01*
X27258Y31522D01*
X27158Y31721D01*
X27158Y31724D01*
X27156Y31726D01*
X27083Y31937D01*
X27083Y31940D01*
X27082Y31942D01*
X27037Y32161D01*
X27038Y32164D01*
X27037Y32167D01*
X27022Y32389D01*
X27023Y32392D01*
X27022Y32395D01*
X27037Y32617D01*
X27038Y32620D01*
X27037Y32623D01*
X27082Y32841D01*
X27083Y32844D01*
X27083Y32847D01*
X27156Y33057D01*
X27158Y33059D01*
X27158Y33062D01*
X27258Y33261D01*
X27261Y33263D01*
X27261Y33266D01*
X27387Y33450D01*
X27390Y33452D01*
X27391Y33455D01*
X27540Y33621D01*
X27541Y33621D01*
X27542Y33623D01*
X27544Y33625D01*
X27546Y33626D01*
X27547Y33627D01*
X27673Y33732D01*
X27677Y33733D01*
X27679Y33736D01*
X27820Y33821D01*
X27824Y33821D01*
X27826Y33824D01*
X27979Y33885D01*
X27981Y33885D01*
X27982Y33886D01*
X28116Y33928D01*
X28120Y33928D01*
X28124Y33930D01*
X28197Y33938D01*
X28205Y33936D01*
D02*
G37*
G36*
X40231Y32697D02*
X40326Y32657D01*
X40409Y32594D01*
X40472Y32512D01*
X40512Y32416D01*
X40525Y32313D01*
X40512Y32210D01*
X40472Y32114D01*
X40409Y32032D01*
X40326Y31969D01*
X40231Y31929D01*
X40128Y31916D01*
X40025Y31929D01*
X39929Y31969D01*
X39847Y32032D01*
X39784Y32114D01*
X39744Y32210D01*
X39731Y32313D01*
X39744Y32416D01*
X39784Y32512D01*
X39847Y32594D01*
X39929Y32657D01*
X40025Y32697D01*
X40128Y32710D01*
X40231Y32697D01*
D02*
G37*
D62*
X25728Y38563D02*
D03*
X26338D02*
D03*
X27569D02*
D03*
X26959D02*
D03*
X22244Y38986D02*
D03*
X21634D02*
D03*
X42559Y46329D02*
D03*
X43169D02*
D03*
X36801Y46348D02*
D03*
X36191D02*
D03*
X21604Y34498D02*
D03*
X20994D02*
D03*
X35187Y30551D02*
D03*
X34577D02*
D03*
X36407Y30551D02*
D03*
X35797D02*
D03*
D63*
X21122Y40650D02*
D03*
X21792D02*
D03*
X24518Y44459D02*
D03*
X23848D02*
D03*
X28130Y42500D02*
D03*
X28800D02*
D03*
X33140Y33681D02*
D03*
X32470D02*
D03*
X32717Y34409D02*
D03*
X32047D02*
D03*
X35778Y39941D02*
D03*
X35108D02*
D03*
X34055Y39951D02*
D03*
X33385D02*
D03*
D64*
X21811Y41358D02*
D03*
Y42028D02*
D03*
X25295Y45128D02*
D03*
Y44458D02*
D03*
X21811Y42844D02*
D03*
Y43514D02*
D03*
X28169Y37343D02*
D03*
Y36673D02*
D03*
X25098D02*
D03*
Y37343D02*
D03*
X28868Y37716D02*
D03*
Y38386D02*
D03*
X28867Y36555D02*
D03*
Y35885D02*
D03*
X22195Y34508D02*
D03*
Y35178D02*
D03*
X23681Y33592D02*
D03*
Y34262D02*
D03*
X26870Y34272D02*
D03*
Y33602D02*
D03*
X32470Y30482D02*
D03*
Y31152D02*
D03*
X36407Y31910D02*
D03*
Y31240D02*
D03*
D65*
X34970Y46358D02*
D03*
Y44547D02*
D03*
X31772Y44488D02*
D03*
Y46299D02*
D03*
X40226Y41565D02*
D03*
Y39754D02*
D03*
D66*
X33370Y44971D02*
D03*
X33770Y45881D02*
D03*
X32970D02*
D03*
X33370Y43376D02*
D03*
X33770Y44286D02*
D03*
X32970D02*
D03*
X37500Y40950D02*
D03*
X36700D02*
D03*
X37100Y40040D02*
D03*
X42579Y39424D02*
D03*
X41779D02*
D03*
X42179Y38514D02*
D03*
D67*
X30866Y35758D02*
D03*
Y35089D02*
D03*
D68*
X29921Y37923D02*
D03*
Y36348D02*
D03*
D69*
X36827Y38728D02*
D03*
Y35778D02*
D03*
X35827Y38728D02*
D03*
X36327D02*
D03*
X37327D02*
D03*
X35827Y35778D02*
D03*
X36327D02*
D03*
X37327D02*
D03*
D70*
X35527Y31864D02*
D03*
X33327D02*
D03*
X35527Y31364D02*
D03*
X33327D02*
D03*
X35527Y32864D02*
D03*
Y32364D02*
D03*
X33327D02*
D03*
Y32864D02*
D03*
X27362Y41841D02*
D03*
Y41341D02*
D03*
X29562D02*
D03*
Y41841D02*
D03*
X27362Y40341D02*
D03*
X29562D02*
D03*
X27362Y40841D02*
D03*
X29562D02*
D03*
X23091Y41142D02*
D03*
Y40642D02*
D03*
Y40142D02*
D03*
Y43642D02*
D03*
Y43142D02*
D03*
Y42642D02*
D03*
Y42142D02*
D03*
X25291Y41142D02*
D03*
Y40642D02*
D03*
Y40142D02*
D03*
Y43642D02*
D03*
Y43142D02*
D03*
Y42642D02*
D03*
Y42142D02*
D03*
X23091Y41642D02*
D03*
X25291D02*
D03*
D71*
X32116Y41909D02*
D03*
Y43051D02*
D03*
X30837Y41909D02*
D03*
Y43051D02*
D03*
X36447Y42067D02*
D03*
Y43209D02*
D03*
X37746Y42067D02*
D03*
Y43209D02*
D03*
D72*
X42805Y42530D02*
D03*
Y44262D02*
D03*
D73*
X20384Y33573D02*
D03*
Y34183D02*
D03*
X32470Y32392D02*
D03*
Y31782D02*
D03*
D74*
X21919Y31230D02*
D03*
D75*
Y33593D02*
D03*
X22419D02*
D03*
X22919D02*
D03*
X20919D02*
D03*
X21419D02*
D03*
D76*
X24504Y34705D02*
D03*
X25344D02*
D03*
D77*
X31516Y30778D02*
D03*
Y32392D02*
D03*
D78*
X36407Y33376D02*
D03*
Y32628D02*
D03*
D79*
X35659Y33730D02*
D03*
X34911D02*
D03*
D80*
X40374Y38189D02*
D03*
X41516D02*
D03*
D81*
X32106Y35600D02*
D03*
X32303D02*
D03*
X32500D02*
D03*
X32697D02*
D03*
X32894D02*
D03*
X33091D02*
D03*
X33287D02*
D03*
X33484D02*
D03*
X33681D02*
D03*
X33878D02*
D03*
Y38907D02*
D03*
X33681D02*
D03*
X33484D02*
D03*
X33287D02*
D03*
X33091D02*
D03*
X32894D02*
D03*
X32697D02*
D03*
X32500D02*
D03*
X32303D02*
D03*
X32106D02*
D03*
X34075Y35600D02*
D03*
X34272D02*
D03*
Y38907D02*
D03*
X34075D02*
D03*
D82*
X34843Y36171D02*
D03*
Y36368D02*
D03*
Y36565D02*
D03*
Y36762D02*
D03*
Y36959D02*
D03*
Y37549D02*
D03*
Y37746D02*
D03*
Y37943D02*
D03*
Y38140D02*
D03*
Y38337D02*
D03*
Y37156D02*
D03*
Y37352D02*
D03*
X31535Y36959D02*
D03*
Y36762D02*
D03*
Y36565D02*
D03*
Y36368D02*
D03*
Y36171D02*
D03*
Y38337D02*
D03*
Y38140D02*
D03*
Y37943D02*
D03*
Y37746D02*
D03*
Y37549D02*
D03*
Y37352D02*
D03*
Y37156D02*
D03*
D83*
X43406Y40335D02*
D03*
X42146D02*
D03*
D84*
X43406Y38140D02*
D03*
Y39400D02*
D03*
X39449Y36929D02*
D03*
Y38189D02*
D03*
D85*
X43209Y41476D02*
D03*
X41594D02*
D03*
D86*
X38917Y41201D02*
D03*
Y39901D02*
D03*
D87*
X42815Y37313D02*
D03*
X41515D02*
D03*
D88*
X41514Y36358D02*
D03*
X43309D02*
D03*
D89*
X42411Y33799D02*
D03*
D90*
X27264Y37520D02*
D03*
X26014Y37510D02*
D03*
X25364Y32657D02*
D03*
X38888Y33130D02*
D03*
D91*
X27264Y36520D02*
D03*
X26014Y36510D02*
D03*
X25364Y31280D02*
D03*
X38888Y31130D02*
D03*
X43333Y45289D02*
D03*
X36195Y45285D02*
D03*
X23634Y37782D02*
D03*
Y36781D02*
D03*
X22634Y37782D02*
D03*
X21634D02*
D03*
X22634Y36781D02*
D03*
D92*
X42333Y45289D02*
D03*
X37195Y45285D02*
D03*
X21634Y36781D02*
D03*
D93*
X39144Y44390D02*
D03*
Y43209D02*
D03*
X40325D02*
D03*
X29498D02*
D03*
X27136Y44390D02*
D03*
X28317D02*
D03*
X27136Y43209D02*
D03*
X28317D02*
D03*
D94*
X40325Y44390D02*
D03*
D95*
X39734Y46091D02*
D03*
X28317D02*
D03*
D96*
X42901Y31109D02*
D03*
X21112Y45197D02*
D03*
D97*
X29498Y44390D02*
D03*
M02*
