M48
;Layer_Color=9474304
;FILE_FORMAT=2:4
INCH,LZ
;TYPE=PLATED
T1F00S00C0.0118
T2F00S00C0.0197
T3F00S00C0.0315
T4F00S00C0.0394
T5F00S00C0.0433
T6F00S00C0.0472
%
T01
X065758Y018927
X063573Y025374
X061093Y025236
X061152Y027392
Y029478
X056959Y024685
X055915Y024567
X053455Y024429
X049154Y025148
X048642Y025128
X04813Y025098
X047933Y026161
X048278Y026506
X048563Y02688
X049222Y02747
X049695Y026998
X049459Y026033
X047333Y024488
X047031Y029236
X047382Y030669
X046949Y031083
X048543Y031099
X049006Y0306
X048386Y030098
X053031Y0306
X051181Y018681
X058888Y020463
X046319Y020207
X043898Y024449
X043583Y027028
X043002Y027136
X04248Y027244
X041968Y027303
X041594Y027746
X04123Y028287
X041211Y02876
X04127Y029262
X041171Y029715
X042313Y029636
X042382Y030226
X042215Y029065
X043159Y028543
X043455Y029331
X043445Y030719
X04062Y030856
X040235Y031153
X039214
X039203Y030709
X038238Y029518
X038307Y029085
Y028671
X038287Y028199
X038258Y027746
X038278Y027303
X038268Y0269
X037943Y026447
X038435Y02623
X03874Y025719
X039006Y025344
X038297Y024567
X037618Y025659
X037067Y027382
X036152Y027697
X035482Y027569
X035423Y027047
X03562Y026063
X035856Y024567
X032244Y027077
X032343Y028012
X032334Y028495
X032264Y028986
X032362Y029488
X032303Y030384
X032657Y030463
X033376Y019449
X041299Y025453
X041713Y025768
X042195Y025935
X031152Y027077
X031181Y027579
X031122Y028012
X030236Y027681
X028947Y028012
X028632Y028671
X026673Y028947
X026969Y029587
X027461Y030039
X029134Y030443
X029104Y030896
X031053Y030404
X030719Y029862
X027264Y024862
X025669Y02438
X024764Y024321
X023927Y024724
X023455Y023268
X021752Y026043
X02128Y029439
X019124Y03062
X019301Y024567
X020659Y021358
X019626Y019518
X019282Y018248
X016073Y01939
X026476Y019567
X030364Y021457
X014222Y022343
X012392Y024636
X019154Y033051
X021083Y036939
X025699Y037411
X026693Y037441
X027677Y037421
X030335Y037569
X029685Y038297
X029321Y038652
X029045Y038986
X029892Y039222
X030138Y038927
X029656Y039596
X029744Y040443
X030669Y040807
X028681Y040069
X028602Y034921
X027293Y034518
X026732Y034449
X026201Y034478
Y033691
X026732Y033494
X027106Y033199
X027953Y032579
X030846Y032313
X030886Y033809
X025256Y033789
X018947Y039941
X020768Y043917
X021171Y044498
X024341Y046427
X028671Y046319
X032283Y046486
X031811Y041142
X033061Y04003
X035305Y040354
X035059Y041063
X035364Y038415
X034724Y036545
X034921Y034921
X035266Y033917
X036752Y033701
X03748Y034892
X037836Y034874
X03815Y034626
X038474Y035512
X03812Y035856
X037667Y036063
X03688Y036732
X037559Y040128
X038455Y039272
X041211Y038976
X042264Y038671
X043327Y040354
X044656Y037785
X046683Y037037
X042854Y036211
X042156Y034941
X040807Y034459
X040541Y033967
X040394Y033573
X040433Y033031
X040236Y032648
X03991Y032924
X039224
X039185Y032561
X039234Y031911
X038927Y032116
X038465Y032707
X038081Y03247
X033613Y032924
X032649
X032195Y035344
X033356Y035354
X032303Y037628
X038465Y043888
X039252Y04374
X038465Y045217
X0394Y046339
X040728Y046201
X041676Y046122
X042451Y04561
X042569Y04498
X043022Y0444
X045039Y0456
X045738Y046496
X046555Y045108
X045541Y043612
X043917Y034291
X042677Y032825
X042638Y031732
X045089Y032736
X0475Y032323
X048986Y031594
X049232Y033494
X05001
X050384Y034459
X050443Y034941
X048455Y035069
X048386Y034685
X047421Y0394
X049488Y039518
X049961Y039616
X050413Y039862
X050827Y040187
X05123Y040463
X051624Y03938
X051299Y038937
X052146Y039862
X04938Y03999
X055591Y039764
X057234Y041024
X058465
X058258Y040482
X061201Y04125
X061496Y036476
X060974Y034193
X05309Y032274
X050472Y046713
X058169Y046368
X062559Y045098
X062608Y043917
X063661Y040236
X064843Y046545
X063455Y032884
X068661Y047569
X061289Y047864
X053898Y047648
X03878Y046959
X035128Y047175
X030758Y047106
X026476Y047205
X022264Y047106
X019409Y04689
X017549Y047264
X007608Y047717
T02
X069478Y025807
X059685Y021929
X039852Y018524
X040285Y018041
X038907Y019468
X022667Y023652
X023445Y025748
X018976Y022844
X016217Y017598
X015295Y021299
X023327Y044478
X023307Y045787
T03
X068516Y02625
X01265
Y03953
X068516
T04
X0472Y02335
X0482
X0492
X0502
X0512
X0522
X0532
X0542
X0552
X0562
X0572
X0582
X062175Y023022
X0462Y02335
X0452
X0442
X0432
X0422
X0412
X0402
X0392
X0382
X0372
X0362
X0352
X0342
X0332
X0322
X0312
X0302
X0292
X0282
X0272
X0262
X0252
X0242
X020285Y023022
Y042707
X0242Y04235
X0252
X0262
X0272
X0282
X0292
X0302
X0312
X0322
X0332
X0342
X0352
X0362
X0372
X0382
X0392
X0402
X0412
X0422
X0432
X0442
X0452
X0462
X0472
X0482
X0492
X0502
X0512
X0522
X0532
X0542
X0552
X0562
X0572
X0582
X062175Y042707
X071039Y032854
X072039
X073039
T05
X035581Y020716
Y021897
X036762
Y020716
X037943
Y021897
X041319Y021897
Y020716
X0425
Y021897
X019094
Y020716
X017913
Y021897
X016732
Y020716
T06
X010915Y029232
Y037106
M30
