G04*
G04 #@! TF.GenerationSoftware,Altium Limited,Altium Designer,19.1.8 (144)*
G04*
G04 Layer_Color=8388736*
%FSLAX24Y24*%
%MOIN*%
G70*
G01*
G75*
%ADD48R,0.0315X0.0394*%
%ADD49R,0.0394X0.0433*%
%ADD50R,0.0610X0.0492*%
%ADD51R,0.0394X0.0315*%
%ADD52O,0.0630X0.0320*%
G04:AMPARAMS|DCode=53|XSize=114.2mil|YSize=63mil|CornerRadius=16.7mil|HoleSize=0mil|Usage=FLASHONLY|Rotation=0.000|XOffset=0mil|YOffset=0mil|HoleType=Round|Shape=RoundedRectangle|*
%AMROUNDEDRECTD53*
21,1,0.1142,0.0295,0,0,0.0*
21,1,0.0807,0.0630,0,0,0.0*
1,1,0.0335,0.0404,-0.0148*
1,1,0.0335,-0.0404,-0.0148*
1,1,0.0335,-0.0404,0.0148*
1,1,0.0335,0.0404,0.0148*
%
%ADD53ROUNDEDRECTD53*%
%ADD54O,0.0320X0.0630*%
%ADD55R,0.0728X0.0453*%
G04:AMPARAMS|DCode=56|XSize=114.2mil|YSize=63mil|CornerRadius=16.7mil|HoleSize=0mil|Usage=FLASHONLY|Rotation=270.000|XOffset=0mil|YOffset=0mil|HoleType=Round|Shape=RoundedRectangle|*
%AMROUNDEDRECTD56*
21,1,0.1142,0.0295,0,0,270.0*
21,1,0.0807,0.0630,0,0,270.0*
1,1,0.0335,-0.0148,-0.0404*
1,1,0.0335,-0.0148,0.0404*
1,1,0.0335,0.0148,0.0404*
1,1,0.0335,0.0148,-0.0404*
%
%ADD56ROUNDEDRECTD56*%
%ADD57R,0.0433X0.0394*%
%ADD58R,0.0650X0.0768*%
%ADD59O,0.0610X0.0157*%
%ADD60R,0.0768X0.0650*%
%ADD61O,0.0157X0.0610*%
%ADD62R,0.0591X0.0748*%
%ADD63R,0.0453X0.0728*%
%ADD64R,0.0748X0.0591*%
%ADD65R,0.0827X0.0291*%
G04:AMPARAMS|DCode=66|XSize=82.7mil|YSize=29.1mil|CornerRadius=8.3mil|HoleSize=0mil|Usage=FLASHONLY|Rotation=0.000|XOffset=0mil|YOffset=0mil|HoleType=Round|Shape=RoundedRectangle|*
%AMROUNDEDRECTD66*
21,1,0.0827,0.0126,0,0,0.0*
21,1,0.0661,0.0291,0,0,0.0*
1,1,0.0165,0.0331,-0.0063*
1,1,0.0165,-0.0331,-0.0063*
1,1,0.0165,-0.0331,0.0063*
1,1,0.0165,0.0331,0.0063*
%
%ADD66ROUNDEDRECTD66*%
%ADD67O,0.0335X0.0839*%
G04:AMPARAMS|DCode=68|XSize=94.5mil|YSize=59.1mil|CornerRadius=15.7mil|HoleSize=0mil|Usage=FLASHONLY|Rotation=90.000|XOffset=0mil|YOffset=0mil|HoleType=Round|Shape=RoundedRectangle|*
%AMROUNDEDRECTD68*
21,1,0.0945,0.0276,0,0,90.0*
21,1,0.0630,0.0591,0,0,90.0*
1,1,0.0315,0.0138,0.0315*
1,1,0.0315,0.0138,-0.0315*
1,1,0.0315,-0.0138,-0.0315*
1,1,0.0315,-0.0138,0.0315*
%
%ADD68ROUNDEDRECTD68*%
G04:AMPARAMS|DCode=69|XSize=86.6mil|YSize=82.7mil|CornerRadius=21.7mil|HoleSize=0mil|Usage=FLASHONLY|Rotation=180.000|XOffset=0mil|YOffset=0mil|HoleType=Round|Shape=RoundedRectangle|*
%AMROUNDEDRECTD69*
21,1,0.0866,0.0394,0,0,180.0*
21,1,0.0433,0.0827,0,0,180.0*
1,1,0.0433,-0.0217,0.0197*
1,1,0.0433,0.0217,0.0197*
1,1,0.0433,0.0217,-0.0197*
1,1,0.0433,-0.0217,-0.0197*
%
%ADD69ROUNDEDRECTD69*%
%ADD70R,0.0453X0.0591*%
%ADD71R,0.0157X0.0197*%
%ADD72R,0.0197X0.0157*%
%ADD73C,0.0039*%
%ADD74R,0.0433X0.0433*%
%ADD75R,0.0433X0.0433*%
%ADD76R,0.0945X0.1004*%
%ADD77O,0.0217X0.0630*%
%ADD78R,0.1772X0.1772*%
%ADD79R,0.0118X0.0315*%
%ADD80R,0.0315X0.0118*%
%ADD81O,0.0669X0.0157*%
%ADD82O,0.0157X0.0669*%
%ADD83R,0.0492X0.0610*%
G04:AMPARAMS|DCode=84|XSize=98.4mil|YSize=63mil|CornerRadius=16.7mil|HoleSize=0mil|Usage=FLASHONLY|Rotation=0.000|XOffset=0mil|YOffset=0mil|HoleType=Round|Shape=RoundedRectangle|*
%AMROUNDEDRECTD84*
21,1,0.0984,0.0295,0,0,0.0*
21,1,0.0650,0.0630,0,0,0.0*
1,1,0.0335,0.0325,-0.0148*
1,1,0.0335,-0.0325,-0.0148*
1,1,0.0335,-0.0325,0.0148*
1,1,0.0335,0.0325,0.0148*
%
%ADD84ROUNDEDRECTD84*%
G04:AMPARAMS|DCode=85|XSize=47.2mil|YSize=27.6mil|CornerRadius=7.9mil|HoleSize=0mil|Usage=FLASHONLY|Rotation=0.000|XOffset=0mil|YOffset=0mil|HoleType=Round|Shape=RoundedRectangle|*
%AMROUNDEDRECTD85*
21,1,0.0472,0.0118,0,0,0.0*
21,1,0.0315,0.0276,0,0,0.0*
1,1,0.0157,0.0157,-0.0059*
1,1,0.0157,-0.0157,-0.0059*
1,1,0.0157,-0.0157,0.0059*
1,1,0.0157,0.0157,0.0059*
%
%ADD85ROUNDEDRECTD85*%
%ADD86O,0.0839X0.0335*%
%ADD87O,0.0335X0.0889*%
G04:AMPARAMS|DCode=88|XSize=94.5mil|YSize=86.6mil|CornerRadius=14.4mil|HoleSize=0mil|Usage=FLASHONLY|Rotation=0.000|XOffset=0mil|YOffset=0mil|HoleType=Round|Shape=RoundedRectangle|*
%AMROUNDEDRECTD88*
21,1,0.0945,0.0579,0,0,0.0*
21,1,0.0657,0.0866,0,0,0.0*
1,1,0.0287,0.0329,-0.0289*
1,1,0.0287,-0.0329,-0.0289*
1,1,0.0287,-0.0329,0.0289*
1,1,0.0287,0.0329,0.0289*
%
%ADD88ROUNDEDRECTD88*%
%ADD89C,0.0512*%
G04:AMPARAMS|DCode=90|XSize=90.6mil|YSize=72.8mil|CornerRadius=19.2mil|HoleSize=0mil|Usage=FLASHONLY|Rotation=0.000|XOffset=0mil|YOffset=0mil|HoleType=Round|Shape=RoundedRectangle|*
%AMROUNDEDRECTD90*
21,1,0.0906,0.0344,0,0,0.0*
21,1,0.0522,0.0728,0,0,0.0*
1,1,0.0384,0.0261,-0.0172*
1,1,0.0384,-0.0261,-0.0172*
1,1,0.0384,-0.0261,0.0172*
1,1,0.0384,0.0261,0.0172*
%
%ADD90ROUNDEDRECTD90*%
%ADD91C,0.0669*%
%ADD92C,0.0630*%
%ADD93C,0.0984*%
%ADD94C,0.1319*%
%ADD95P,0.0895X8X202.5*%
%ADD96C,0.0827*%
%ADD97C,0.1220*%
%ADD98C,0.0748*%
%ADD99R,0.0748X0.0748*%
%ADD100R,0.0669X0.0669*%
%ADD101C,0.0639*%
%ADD102R,0.0639X0.0639*%
%ADD103C,0.0709*%
%ADD104P,0.0682X8X292.5*%
%ADD105R,0.0866X0.0866*%
%ADD106C,0.0866*%
%ADD107C,0.3189*%
%ADD108R,0.0639X0.0639*%
%ADD109C,0.1024*%
%ADD110C,0.0906*%
%ADD111R,0.0669X0.0669*%
%ADD112P,0.0682X8X202.5*%
%ADD113R,0.0630X0.0630*%
G36*
X49689Y38238D02*
X49785Y38198D01*
X49867Y38135D01*
X49931Y38053D01*
X49970Y37957D01*
X49984Y37854D01*
X49970Y37752D01*
X49931Y37656D01*
X49867Y37574D01*
X49785Y37510D01*
X49689Y37471D01*
X49587Y37457D01*
X49484Y37471D01*
X49388Y37510D01*
X49306Y37574D01*
X49243Y37656D01*
X49203Y37752D01*
X49190Y37854D01*
X49203Y37957D01*
X49243Y38053D01*
X49306Y38135D01*
X49388Y38198D01*
X49484Y38238D01*
X49587Y38251D01*
X49689Y38238D01*
D02*
G37*
G36*
X6882Y32062D02*
X6889Y32057D01*
X6898Y32056D01*
X6962Y32016D01*
X6968Y32009D01*
X6975Y32004D01*
X7018Y31943D01*
X7020Y31934D01*
X7025Y31927D01*
X7040Y31853D01*
X7040Y31848D01*
X7041Y31844D01*
Y26936D01*
X7040Y26931D01*
X7040Y26927D01*
X7025Y26853D01*
X7020Y26846D01*
X7018Y26837D01*
X6975Y26775D01*
X6968Y26770D01*
X6962Y26763D01*
X6898Y26724D01*
X6889Y26722D01*
X6882Y26718D01*
X6807Y26707D01*
X6799Y26709D01*
X6790Y26708D01*
X6717Y26727D01*
X6713Y26730D01*
X6709Y26730D01*
X6404Y26882D01*
X6403Y26883D01*
X6402Y26883D01*
X6188Y27005D01*
X6187Y27006D01*
X6185Y27007D01*
X5984Y27149D01*
X5983Y27151D01*
X5980Y27152D01*
X5795Y27314D01*
X5794Y27316D01*
X5792Y27317D01*
X5624Y27497D01*
X5624Y27499D01*
X5622Y27500D01*
X5473Y27696D01*
X5472Y27698D01*
X5471Y27700D01*
X5343Y27910D01*
X5342Y27912D01*
X5340Y27914D01*
X5235Y28136D01*
X5234Y28137D01*
X5234Y28138D01*
X5175Y28279D01*
X5175Y28280D01*
X5174Y28281D01*
X5096Y28493D01*
X5097Y28495D01*
X5095Y28497D01*
X5037Y28715D01*
X5037Y28716D01*
X5036Y28717D01*
X5027Y28756D01*
X5028Y28757D01*
X5027Y28758D01*
X4983Y29006D01*
X4984Y29008D01*
X4983Y29010D01*
X4961Y29260D01*
X4962Y29262D01*
X4961Y29264D01*
Y29515D01*
X4962Y29517D01*
X4961Y29519D01*
X4983Y29770D01*
X4984Y29772D01*
X4983Y29773D01*
X5027Y30021D01*
X5028Y30022D01*
X5027Y30023D01*
X5038Y30072D01*
X5039Y30073D01*
X5039Y30074D01*
X5095Y30283D01*
X5096Y30285D01*
X5096Y30287D01*
X5170Y30490D01*
X5171Y30491D01*
X5171Y30492D01*
X5233Y30640D01*
X5234Y30641D01*
X5234Y30642D01*
X5340Y30865D01*
X5342Y30866D01*
X5342Y30869D01*
X5470Y31079D01*
X5472Y31080D01*
X5473Y31083D01*
X5622Y31279D01*
X5624Y31280D01*
X5625Y31282D01*
X5793Y31463D01*
X5795Y31464D01*
X5796Y31466D01*
X5981Y31628D01*
X5983Y31629D01*
X5985Y31631D01*
X6186Y31773D01*
X6188Y31774D01*
X6189Y31776D01*
X6404Y31897D01*
X6405Y31897D01*
X6406Y31898D01*
X6709Y32049D01*
X6713Y32050D01*
X6717Y32053D01*
X6790Y32072D01*
X6799Y32071D01*
X6807Y32073D01*
X6882Y32062D01*
D02*
G37*
G36*
X8969Y32071D02*
X8978Y32072D01*
X9051Y32053D01*
X9054Y32050D01*
X9059Y32049D01*
X9363Y31897D01*
X9364Y31896D01*
X9365Y31896D01*
X9579Y31775D01*
X9581Y31773D01*
X9583Y31773D01*
X9784Y31630D01*
X9785Y31628D01*
X9787Y31628D01*
X9972Y31466D01*
X9973Y31464D01*
X9976Y31463D01*
X10143Y31283D01*
X10144Y31281D01*
X10146Y31279D01*
X10295Y31083D01*
X10295Y31081D01*
X10297Y31080D01*
X10425Y30870D01*
X10425Y30867D01*
X10427Y30866D01*
X10533Y30644D01*
X10533Y30643D01*
X10534Y30642D01*
X10593Y30500D01*
X10593Y30499D01*
X10594Y30498D01*
X10671Y30286D01*
X10671Y30284D01*
X10672Y30283D01*
X10731Y30065D01*
X10731Y30064D01*
X10731Y30063D01*
X10740Y30023D01*
X10740Y30022D01*
X10741Y30021D01*
X10784Y29774D01*
X10784Y29772D01*
X10785Y29770D01*
X10807Y29519D01*
X10806Y29517D01*
X10807Y29516D01*
Y29264D01*
X10806Y29262D01*
X10807Y29260D01*
X10785Y29010D01*
X10784Y29008D01*
X10784Y29006D01*
X10741Y28758D01*
X10740Y28758D01*
X10740Y28757D01*
X10729Y28708D01*
X10729Y28707D01*
X10729Y28706D01*
X10673Y28497D01*
X10672Y28495D01*
X10672Y28493D01*
X10597Y28289D01*
X10597Y28289D01*
X10597Y28288D01*
X10535Y28139D01*
X10534Y28138D01*
X10534Y28137D01*
X10428Y27915D01*
X10426Y27913D01*
X10426Y27911D01*
X10297Y27700D01*
X10296Y27699D01*
X10295Y27697D01*
X10146Y27501D01*
X10144Y27499D01*
X10143Y27497D01*
X9975Y27317D01*
X9973Y27316D01*
X9972Y27314D01*
X9787Y27152D01*
X9784Y27151D01*
X9783Y27149D01*
X9582Y27006D01*
X9580Y27006D01*
X9578Y27004D01*
X9364Y26883D01*
X9363Y26882D01*
X9362Y26882D01*
X9059Y26730D01*
X9054Y26730D01*
X9051Y26727D01*
X8978Y26708D01*
X8969Y26709D01*
X8960Y26707D01*
X8886Y26718D01*
X8878Y26722D01*
X8870Y26724D01*
X8805Y26763D01*
X8800Y26770D01*
X8793Y26775D01*
X8749Y26837D01*
X8748Y26846D01*
X8743Y26853D01*
X8727Y26927D01*
X8728Y26931D01*
X8726Y26936D01*
Y31844D01*
X8728Y31848D01*
X8727Y31853D01*
X8743Y31927D01*
X8748Y31934D01*
X8749Y31943D01*
X8793Y32004D01*
X8800Y32009D01*
X8805Y32016D01*
X8870Y32056D01*
X8878Y32057D01*
X8886Y32062D01*
X8960Y32073D01*
X8969Y32071D01*
D02*
G37*
G36*
X15417Y20463D02*
X15421Y20461D01*
X15425Y20461D01*
X15554Y20420D01*
X15556Y20419D01*
X15558Y20419D01*
X15708Y20359D01*
X15711Y20356D01*
X15715Y20356D01*
X15854Y20273D01*
X15856Y20270D01*
X15860Y20269D01*
X15985Y20165D01*
X15985Y20163D01*
X15987Y20162D01*
X15992Y20158D01*
X15992Y20157D01*
X15994Y20156D01*
X16143Y19990D01*
X16144Y19987D01*
X16146Y19986D01*
X16272Y19802D01*
X16273Y19799D01*
X16275Y19797D01*
X16375Y19598D01*
X16375Y19595D01*
X16377Y19593D01*
X16450Y19382D01*
X16450Y19379D01*
X16452Y19376D01*
X16496Y19158D01*
X16495Y19155D01*
X16497Y19152D01*
X16512Y18930D01*
X16511Y18927D01*
X16512Y18924D01*
X16497Y18702D01*
X16495Y18699D01*
X16496Y18696D01*
X16452Y18478D01*
X16450Y18475D01*
X16450Y18472D01*
X16377Y18262D01*
X16375Y18260D01*
X16375Y18256D01*
X16275Y18057D01*
X16273Y18055D01*
X16272Y18052D01*
X16146Y17869D01*
X16144Y17867D01*
X16143Y17864D01*
X15994Y17698D01*
X15992Y17698D01*
X15992Y17696D01*
X15989Y17694D01*
X15988Y17693D01*
X15987Y17692D01*
X15860Y17587D01*
X15857Y17586D01*
X15855Y17583D01*
X15713Y17498D01*
X15710Y17498D01*
X15707Y17495D01*
X15555Y17434D01*
X15553Y17434D01*
X15551Y17433D01*
X15417Y17391D01*
X15413Y17391D01*
X15409Y17389D01*
X15336Y17381D01*
X15329Y17383D01*
X15320Y17382D01*
X15249Y17401D01*
X15243Y17406D01*
X15235Y17408D01*
X15176Y17451D01*
X15171Y17458D01*
X15165Y17463D01*
X15125Y17525D01*
X15124Y17533D01*
X15120Y17540D01*
X15106Y17612D01*
X15107Y17616D01*
X15105Y17620D01*
Y20226D01*
X15107Y20230D01*
X15106Y20234D01*
X15120Y20308D01*
X15124Y20315D01*
X15126Y20323D01*
X15166Y20387D01*
X15173Y20392D01*
X15177Y20399D01*
X15238Y20444D01*
X15246Y20446D01*
X15253Y20451D01*
X15326Y20470D01*
X15334Y20469D01*
X15342Y20471D01*
X15417Y20463D01*
D02*
G37*
G36*
X13923Y20471D02*
X13932Y20472D01*
X14003Y20454D01*
X14009Y20449D01*
X14017Y20447D01*
X14076Y20403D01*
X14081Y20396D01*
X14087Y20391D01*
X14126Y20329D01*
X14128Y20321D01*
X14132Y20314D01*
X14146Y20242D01*
X14145Y20238D01*
X14147Y20234D01*
Y17628D01*
X14145Y17624D01*
X14146Y17620D01*
X14132Y17546D01*
X14127Y17539D01*
X14126Y17531D01*
X14086Y17467D01*
X14079Y17462D01*
X14075Y17455D01*
X14014Y17410D01*
X14006Y17408D01*
X13999Y17403D01*
X13926Y17384D01*
X13918Y17385D01*
X13910Y17383D01*
X13835Y17392D01*
X13831Y17394D01*
X13827Y17393D01*
X13698Y17434D01*
X13696Y17435D01*
X13694Y17435D01*
X13543Y17496D01*
X13541Y17498D01*
X13537Y17499D01*
X13398Y17582D01*
X13396Y17585D01*
X13392Y17586D01*
X13267Y17690D01*
X13266Y17691D01*
X13265Y17692D01*
X13260Y17696D01*
X13260Y17698D01*
X13258Y17698D01*
X13109Y17864D01*
X13108Y17867D01*
X13106Y17869D01*
X12980Y18053D01*
X12979Y18055D01*
X12977Y18057D01*
X12877Y18256D01*
X12877Y18260D01*
X12875Y18262D01*
X12802Y18472D01*
X12802Y18475D01*
X12800Y18478D01*
X12756Y18696D01*
X12757Y18699D01*
X12755Y18702D01*
X12740Y18924D01*
X12741Y18927D01*
X12740Y18930D01*
X12755Y19152D01*
X12757Y19155D01*
X12756Y19158D01*
X12800Y19376D01*
X12802Y19379D01*
X12802Y19382D01*
X12875Y19593D01*
X12877Y19595D01*
X12877Y19598D01*
X12977Y19797D01*
X12979Y19799D01*
X12980Y19802D01*
X13106Y19986D01*
X13108Y19987D01*
X13109Y19990D01*
X13258Y20156D01*
X13260Y20157D01*
X13260Y20158D01*
X13263Y20160D01*
X13264Y20161D01*
X13265Y20163D01*
X13392Y20268D01*
X13395Y20269D01*
X13397Y20272D01*
X13539Y20356D01*
X13542Y20356D01*
X13545Y20359D01*
X13697Y20420D01*
X13699Y20420D01*
X13701Y20421D01*
X13835Y20463D01*
X13839Y20463D01*
X13843Y20465D01*
X13916Y20474D01*
X13923Y20471D01*
D02*
G37*
G36*
X39408Y17392D02*
X39411Y17391D01*
X39414Y17392D01*
X39632Y17347D01*
X39635Y17346D01*
X39638Y17346D01*
X39848Y17273D01*
X39851Y17271D01*
X39854Y17271D01*
X40053Y17171D01*
X40055Y17168D01*
X40058Y17168D01*
X40242Y17042D01*
X40243Y17040D01*
X40246Y17038D01*
X40412Y16889D01*
X40413Y16888D01*
X40414Y16887D01*
X40416Y16885D01*
X40417Y16883D01*
X40418Y16883D01*
X40524Y16756D01*
X40525Y16753D01*
X40528Y16750D01*
X40612Y16609D01*
X40612Y16606D01*
X40615Y16603D01*
X40676Y16450D01*
X40676Y16448D01*
X40677Y16447D01*
X40719Y16313D01*
X40719Y16309D01*
X40721Y16305D01*
X40729Y16232D01*
X40727Y16224D01*
X40728Y16216D01*
X40709Y16145D01*
X40704Y16138D01*
X40703Y16130D01*
X40659Y16071D01*
X40652Y16067D01*
X40647Y16060D01*
X40585Y16021D01*
X40577Y16020D01*
X40570Y16015D01*
X40498Y16002D01*
X40494Y16002D01*
X40490Y16001D01*
X37884D01*
X37880Y16002D01*
X37876Y16002D01*
X37802Y16016D01*
X37795Y16020D01*
X37787Y16022D01*
X37723Y16062D01*
X37718Y16069D01*
X37711Y16073D01*
X37666Y16134D01*
X37664Y16142D01*
X37659Y16148D01*
X37640Y16221D01*
X37641Y16230D01*
X37639Y16238D01*
X37648Y16313D01*
X37650Y16316D01*
X37649Y16321D01*
X37690Y16450D01*
X37691Y16451D01*
X37691Y16453D01*
X37751Y16604D01*
X37754Y16607D01*
X37754Y16610D01*
X37838Y16750D01*
X37841Y16752D01*
X37842Y16755D01*
X37945Y16880D01*
X37947Y16881D01*
X37948Y16883D01*
X37952Y16887D01*
X37954Y16888D01*
X37954Y16889D01*
X38120Y17038D01*
X38123Y17040D01*
X38124Y17042D01*
X38308Y17168D01*
X38311Y17168D01*
X38313Y17171D01*
X38512Y17271D01*
X38515Y17271D01*
X38518Y17273D01*
X38728Y17346D01*
X38731Y17346D01*
X38734Y17347D01*
X38952Y17392D01*
X38955Y17391D01*
X38958Y17392D01*
X39180Y17407D01*
X39183Y17406D01*
X39186Y17407D01*
X39408Y17392D01*
D02*
G37*
G36*
X40486Y15041D02*
X40490Y15042D01*
X40564Y15028D01*
X40571Y15023D01*
X40579Y15022D01*
X40643Y14981D01*
X40648Y14975D01*
X40655Y14970D01*
X40700Y14910D01*
X40702Y14902D01*
X40707Y14895D01*
X40726Y14822D01*
X40725Y14814D01*
X40727Y14806D01*
X40719Y14731D01*
X40716Y14727D01*
X40717Y14723D01*
X40676Y14593D01*
X40675Y14592D01*
X40675Y14590D01*
X40615Y14439D01*
X40612Y14437D01*
X40612Y14433D01*
X40528Y14294D01*
X40526Y14291D01*
X40525Y14288D01*
X40421Y14163D01*
X40419Y14162D01*
X40418Y14160D01*
X40414Y14156D01*
X40412Y14155D01*
X40412Y14154D01*
X40246Y14005D01*
X40243Y14004D01*
X40242Y14001D01*
X40058Y13876D01*
X40055Y13875D01*
X40053Y13873D01*
X39854Y13772D01*
X39851Y13772D01*
X39848Y13770D01*
X39638Y13697D01*
X39635Y13698D01*
X39632Y13696D01*
X39414Y13652D01*
X39411Y13652D01*
X39408Y13651D01*
X39186Y13636D01*
X39183Y13637D01*
X39180Y13636D01*
X38958Y13651D01*
X38955Y13652D01*
X38952Y13652D01*
X38734Y13696D01*
X38731Y13698D01*
X38728Y13697D01*
X38518Y13770D01*
X38515Y13772D01*
X38512Y13772D01*
X38313Y13873D01*
X38311Y13875D01*
X38308Y13876D01*
X38124Y14001D01*
X38123Y14004D01*
X38120Y14005D01*
X37954Y14154D01*
X37954Y14155D01*
X37952Y14156D01*
X37950Y14158D01*
X37949Y14160D01*
X37948Y14161D01*
X37842Y14287D01*
X37841Y14291D01*
X37839Y14293D01*
X37754Y14434D01*
X37754Y14438D01*
X37751Y14440D01*
X37690Y14593D01*
X37690Y14595D01*
X37689Y14596D01*
X37647Y14730D01*
X37647Y14735D01*
X37645Y14738D01*
X37637Y14811D01*
X37639Y14819D01*
X37638Y14827D01*
X37657Y14898D01*
X37662Y14905D01*
X37664Y14913D01*
X37707Y14972D01*
X37714Y14976D01*
X37719Y14983D01*
X37781Y15022D01*
X37789Y15024D01*
X37796Y15028D01*
X37868Y15042D01*
X37872Y15041D01*
X37876Y15043D01*
X40482D01*
X40486Y15041D01*
D02*
G37*
G36*
X18261Y13051D02*
X18265Y13049D01*
X18269Y13050D01*
X18399Y13009D01*
X18400Y13008D01*
X18402Y13008D01*
X18553Y12947D01*
X18555Y12945D01*
X18559Y12944D01*
X18699Y12861D01*
X18701Y12858D01*
X18704Y12857D01*
X18829Y12753D01*
X18830Y12752D01*
X18832Y12751D01*
X18836Y12747D01*
X18837Y12745D01*
X18838Y12744D01*
X18987Y12579D01*
X18988Y12576D01*
X18991Y12574D01*
X19117Y12390D01*
X19117Y12387D01*
X19120Y12385D01*
X19220Y12186D01*
X19220Y12183D01*
X19222Y12181D01*
X19295Y11971D01*
X19295Y11968D01*
X19296Y11965D01*
X19340Y11747D01*
X19340Y11744D01*
X19341Y11741D01*
X19356Y11519D01*
X19355Y11516D01*
X19356Y11513D01*
X19341Y11291D01*
X19340Y11288D01*
X19340Y11285D01*
X19296Y11066D01*
X19295Y11064D01*
X19295Y11061D01*
X19222Y10850D01*
X19220Y10848D01*
X19220Y10845D01*
X19120Y10646D01*
X19117Y10644D01*
X19117Y10641D01*
X18991Y10457D01*
X18988Y10455D01*
X18987Y10453D01*
X18838Y10287D01*
X18837Y10286D01*
X18836Y10285D01*
X18834Y10283D01*
X18832Y10282D01*
X18831Y10280D01*
X18705Y10175D01*
X18701Y10174D01*
X18699Y10171D01*
X18558Y10087D01*
X18554Y10086D01*
X18552Y10084D01*
X18399Y10023D01*
X18397Y10023D01*
X18396Y10022D01*
X18262Y9980D01*
X18258Y9980D01*
X18254Y9978D01*
X18181Y9969D01*
X18173Y9972D01*
X18165Y9971D01*
X18094Y9989D01*
X18087Y9994D01*
X18079Y9996D01*
X18020Y10040D01*
X18016Y10047D01*
X18009Y10052D01*
X17970Y10114D01*
X17969Y10122D01*
X17964Y10129D01*
X17950Y10201D01*
X17951Y10205D01*
X17950Y10209D01*
Y12815D01*
X17951Y12819D01*
X17950Y12823D01*
X17964Y12897D01*
X17969Y12904D01*
X17970Y12912D01*
X18011Y12976D01*
X18017Y12981D01*
X18022Y12988D01*
X18083Y13033D01*
X18091Y13034D01*
X18097Y13039D01*
X18170Y13059D01*
X18178Y13058D01*
X18186Y13060D01*
X18261Y13051D01*
D02*
G37*
G36*
X16768Y13060D02*
X16776Y13061D01*
X16847Y13042D01*
X16854Y13037D01*
X16862Y13035D01*
X16921Y12992D01*
X16925Y12985D01*
X16932Y12980D01*
X16971Y12918D01*
X16972Y12910D01*
X16977Y12903D01*
X16991Y12831D01*
X16990Y12826D01*
X16991Y12823D01*
Y10217D01*
X16990Y10213D01*
X16991Y10209D01*
X16976Y10135D01*
X16972Y10128D01*
X16971Y10119D01*
X16930Y10056D01*
X16924Y10051D01*
X16919Y10044D01*
X16858Y9999D01*
X16850Y9997D01*
X16844Y9992D01*
X16771Y9973D01*
X16763Y9974D01*
X16755Y9972D01*
X16680Y9980D01*
X16676Y9982D01*
X16672Y9982D01*
X16542Y10022D01*
X16541Y10024D01*
X16539Y10024D01*
X16388Y10084D01*
X16385Y10087D01*
X16382Y10087D01*
X16242Y10170D01*
X16240Y10173D01*
X16237Y10174D01*
X16112Y10278D01*
X16111Y10280D01*
X16109Y10280D01*
X16105Y10285D01*
X16104Y10286D01*
X16103Y10287D01*
X15954Y10453D01*
X15953Y10455D01*
X15950Y10457D01*
X15824Y10641D01*
X15824Y10644D01*
X15821Y10646D01*
X15721Y10845D01*
X15721Y10848D01*
X15719Y10850D01*
X15646Y11061D01*
X15646Y11064D01*
X15645Y11066D01*
X15600Y11285D01*
X15601Y11288D01*
X15600Y11291D01*
X15585Y11513D01*
X15586Y11516D01*
X15585Y11519D01*
X15600Y11741D01*
X15601Y11744D01*
X15600Y11747D01*
X15645Y11965D01*
X15646Y11968D01*
X15646Y11971D01*
X15719Y12181D01*
X15721Y12183D01*
X15721Y12186D01*
X15821Y12385D01*
X15824Y12387D01*
X15824Y12390D01*
X15950Y12574D01*
X15953Y12576D01*
X15954Y12579D01*
X16103Y12745D01*
X16104Y12745D01*
X16105Y12747D01*
X16107Y12749D01*
X16109Y12750D01*
X16110Y12751D01*
X16236Y12856D01*
X16240Y12857D01*
X16242Y12860D01*
X16383Y12945D01*
X16387Y12945D01*
X16389Y12948D01*
X16542Y13009D01*
X16544Y13009D01*
X16545Y13010D01*
X16679Y13052D01*
X16683Y13052D01*
X16687Y13054D01*
X16760Y13062D01*
X16768Y13060D01*
D02*
G37*
G36*
X7042Y8346D02*
X7138Y8306D01*
X7220Y8243D01*
X7283Y8161D01*
X7323Y8065D01*
X7336Y7963D01*
X7323Y7860D01*
X7283Y7764D01*
X7220Y7682D01*
X7138Y7619D01*
X7042Y7579D01*
X6939Y7566D01*
X6836Y7579D01*
X6740Y7619D01*
X6658Y7682D01*
X6595Y7764D01*
X6555Y7860D01*
X6542Y7963D01*
X6555Y8065D01*
X6595Y8161D01*
X6658Y8243D01*
X6740Y8306D01*
X6836Y8346D01*
X6939Y8360D01*
X7042Y8346D01*
D02*
G37*
D48*
X12333Y27077D02*
D03*
X12943D02*
D03*
X13661Y21565D02*
D03*
X13051D02*
D03*
X14813D02*
D03*
X14203D02*
D03*
X15974D02*
D03*
X15364D02*
D03*
X19429Y9626D02*
D03*
X18819D02*
D03*
X43337Y11772D02*
D03*
X43947D02*
D03*
X50344Y11270D02*
D03*
X49734D02*
D03*
X38268Y7530D02*
D03*
X38878D02*
D03*
X27146Y25620D02*
D03*
X26536D02*
D03*
X27146Y26280D02*
D03*
X26536D02*
D03*
X24921Y17854D02*
D03*
X24311D02*
D03*
X17008Y20502D02*
D03*
X17618D02*
D03*
X44724Y7520D02*
D03*
X44114D02*
D03*
X43681Y15512D02*
D03*
X43071D02*
D03*
X41723Y18012D02*
D03*
X42333D02*
D03*
X46073Y17402D02*
D03*
X45463D02*
D03*
X39164Y21890D02*
D03*
X39774D02*
D03*
X31555Y22490D02*
D03*
X30945D02*
D03*
X32097D02*
D03*
X32707D02*
D03*
X54655Y21762D02*
D03*
X54045D02*
D03*
X45157Y25089D02*
D03*
X44547D02*
D03*
D49*
X15148Y27510D02*
D03*
Y28179D02*
D03*
X14793Y29449D02*
D03*
Y30118D02*
D03*
X14242Y32224D02*
D03*
Y31555D02*
D03*
X19134Y20896D02*
D03*
Y20226D02*
D03*
X12441Y17362D02*
D03*
Y18032D02*
D03*
X16024Y8632D02*
D03*
Y7963D02*
D03*
X17589Y5925D02*
D03*
Y6594D02*
D03*
X14508Y33622D02*
D03*
Y34291D02*
D03*
X23730Y17854D02*
D03*
Y17185D02*
D03*
X17638Y21860D02*
D03*
Y21191D02*
D03*
X17018Y21860D02*
D03*
Y21191D02*
D03*
X54852Y19498D02*
D03*
Y18829D02*
D03*
X37382Y19045D02*
D03*
Y19715D02*
D03*
X33839Y24173D02*
D03*
Y24843D02*
D03*
D50*
X17559Y33110D02*
D03*
Y32402D02*
D03*
X29547Y24705D02*
D03*
Y23996D02*
D03*
X47490Y24892D02*
D03*
Y24183D02*
D03*
X49301Y24409D02*
D03*
Y25118D02*
D03*
D51*
X12785Y27736D02*
D03*
Y28346D02*
D03*
X16073Y30059D02*
D03*
Y29449D02*
D03*
X15453Y30059D02*
D03*
Y29449D02*
D03*
X14892Y32215D02*
D03*
Y31605D02*
D03*
X11890Y31703D02*
D03*
Y32313D02*
D03*
X20453Y19193D02*
D03*
Y19803D02*
D03*
X18524Y20896D02*
D03*
Y20286D02*
D03*
X19793Y19803D02*
D03*
Y19193D02*
D03*
X18100Y8602D02*
D03*
Y9212D02*
D03*
X18238Y5915D02*
D03*
Y6525D02*
D03*
X50344Y12500D02*
D03*
Y11890D02*
D03*
X52283Y21418D02*
D03*
Y22028D02*
D03*
X17136Y34390D02*
D03*
Y33780D02*
D03*
X15148Y34281D02*
D03*
Y33671D02*
D03*
X24961Y19941D02*
D03*
Y19331D02*
D03*
X25059Y24911D02*
D03*
Y24301D02*
D03*
X54183Y18268D02*
D03*
Y17658D02*
D03*
X54183Y19439D02*
D03*
Y18829D02*
D03*
X42963Y19163D02*
D03*
Y18553D02*
D03*
X47293Y19114D02*
D03*
Y18504D02*
D03*
X40423Y21890D02*
D03*
Y22500D02*
D03*
X37382Y21033D02*
D03*
Y20423D02*
D03*
X48376Y24508D02*
D03*
Y25118D02*
D03*
D52*
X14454Y27382D02*
D03*
Y28182D02*
D03*
X13544Y27782D02*
D03*
X12628Y31926D02*
D03*
X13538Y31526D02*
D03*
Y32326D02*
D03*
X49601Y11880D02*
D03*
Y12680D02*
D03*
X48691Y12280D02*
D03*
X29783Y22415D02*
D03*
X28873Y22015D02*
D03*
Y22815D02*
D03*
X44645Y18163D02*
D03*
X43735Y17763D02*
D03*
Y18563D02*
D03*
D53*
X16181Y35049D02*
D03*
Y33789D02*
D03*
X13445Y35463D02*
D03*
Y36722D02*
D03*
D54*
X13396Y30354D02*
D03*
X14196D02*
D03*
X13796Y29444D02*
D03*
X13930Y33529D02*
D03*
X13130D02*
D03*
X13530Y34439D02*
D03*
X53425Y23336D02*
D03*
X52625D02*
D03*
X53025Y22426D02*
D03*
X54035Y22446D02*
D03*
X54835D02*
D03*
X54435Y23356D02*
D03*
X43461Y17214D02*
D03*
X43861Y16304D02*
D03*
X43061D02*
D03*
X42031Y16388D02*
D03*
X41631Y17298D02*
D03*
X42431D02*
D03*
X45725Y19084D02*
D03*
X46125Y18174D02*
D03*
X45325D02*
D03*
D55*
X12726Y30423D02*
D03*
Y29281D02*
D03*
X14764Y36654D02*
D03*
Y35512D02*
D03*
D56*
X12392Y34990D02*
D03*
X11132D02*
D03*
D57*
X18455Y18031D02*
D03*
X17785D02*
D03*
X20364Y18573D02*
D03*
X19695D02*
D03*
X19400Y12766D02*
D03*
X20069D02*
D03*
X16240Y6634D02*
D03*
X16909D02*
D03*
X42677Y29862D02*
D03*
X42008D02*
D03*
X42677Y31033D02*
D03*
X42008D02*
D03*
X42677Y32215D02*
D03*
X42008D02*
D03*
X42677Y33396D02*
D03*
X42008D02*
D03*
X31014Y31181D02*
D03*
X30344D02*
D03*
X31014Y30000D02*
D03*
X30344D02*
D03*
X31014Y32372D02*
D03*
X30344D02*
D03*
X31014Y33533D02*
D03*
X30344D02*
D03*
X34439Y10108D02*
D03*
X35108D02*
D03*
X43278Y12500D02*
D03*
X43947D02*
D03*
X35098Y11289D02*
D03*
X34429D02*
D03*
X35108Y10699D02*
D03*
X34439D02*
D03*
X28691Y26270D02*
D03*
X29360D02*
D03*
X26457Y24911D02*
D03*
X27126D02*
D03*
X27372Y22667D02*
D03*
X26703D02*
D03*
X25748Y23701D02*
D03*
X25079D02*
D03*
X39715Y22539D02*
D03*
X39045D02*
D03*
X32500Y21024D02*
D03*
X31831D02*
D03*
X25689Y20443D02*
D03*
X26358D02*
D03*
X26663Y17018D02*
D03*
X25994D02*
D03*
X43888Y25089D02*
D03*
X43218D02*
D03*
X52382Y26762D02*
D03*
X51713D02*
D03*
X52392Y26102D02*
D03*
X51722D02*
D03*
D58*
X18091Y19075D02*
D03*
D59*
X17224Y18681D02*
D03*
Y18878D02*
D03*
Y19075D02*
D03*
Y19272D02*
D03*
Y19468D02*
D03*
X18957D02*
D03*
Y19272D02*
D03*
Y19075D02*
D03*
Y18878D02*
D03*
Y18681D02*
D03*
D60*
X17096Y8228D02*
D03*
D61*
X16703Y9094D02*
D03*
X16900D02*
D03*
X17096D02*
D03*
X17293D02*
D03*
X17490D02*
D03*
Y7362D02*
D03*
X17293D02*
D03*
X17096D02*
D03*
X16900D02*
D03*
X16703D02*
D03*
D62*
X32913Y30315D02*
D03*
X31772D02*
D03*
X33022Y32894D02*
D03*
X31880D02*
D03*
D63*
X32303Y31211D02*
D03*
X33445D02*
D03*
X32303Y29449D02*
D03*
X33445D02*
D03*
X32303Y32077D02*
D03*
X33445D02*
D03*
X32362Y33740D02*
D03*
X33504D02*
D03*
X20630Y32618D02*
D03*
X21772D02*
D03*
X20630Y33543D02*
D03*
X21772D02*
D03*
D64*
X19872Y32461D02*
D03*
Y33602D02*
D03*
D65*
X22589Y33933D02*
D03*
X34291Y33785D02*
D03*
D66*
X29488Y33933D02*
D03*
X22589Y33543D02*
D03*
Y33150D02*
D03*
Y32756D02*
D03*
Y32362D02*
D03*
Y30787D02*
D03*
Y31181D02*
D03*
Y31575D02*
D03*
Y31969D02*
D03*
Y29606D02*
D03*
Y30000D02*
D03*
Y30394D02*
D03*
X29478D02*
D03*
Y30000D02*
D03*
Y29606D02*
D03*
Y31969D02*
D03*
Y31575D02*
D03*
Y31181D02*
D03*
Y30787D02*
D03*
Y32362D02*
D03*
Y32756D02*
D03*
Y33150D02*
D03*
Y33543D02*
D03*
X41191Y33785D02*
D03*
X34291Y33396D02*
D03*
Y33002D02*
D03*
Y32608D02*
D03*
Y32215D02*
D03*
Y30640D02*
D03*
Y31033D02*
D03*
Y31427D02*
D03*
Y31821D02*
D03*
Y29459D02*
D03*
Y29852D02*
D03*
Y30246D02*
D03*
X41181D02*
D03*
Y29852D02*
D03*
Y29459D02*
D03*
Y31821D02*
D03*
Y31427D02*
D03*
Y31033D02*
D03*
Y30640D02*
D03*
Y32215D02*
D03*
Y32608D02*
D03*
Y33002D02*
D03*
Y33396D02*
D03*
D67*
X44701Y10295D02*
D03*
X45201D02*
D03*
X44701Y12495D02*
D03*
X45201D02*
D03*
X47701Y10295D02*
D03*
X46201D02*
D03*
X46701D02*
D03*
X47201D02*
D03*
X47701Y12495D02*
D03*
X46201D02*
D03*
X46701D02*
D03*
X47201D02*
D03*
X45701Y10295D02*
D03*
Y12495D02*
D03*
D68*
X32303Y5758D02*
D03*
X28421D02*
D03*
X29421D02*
D03*
X32303Y14892D02*
D03*
X28421D02*
D03*
X29421D02*
D03*
X27421Y5758D02*
D03*
Y14892D02*
D03*
D69*
X16319Y32972D02*
D03*
Y31161D02*
D03*
X16358Y28169D02*
D03*
Y26358D02*
D03*
D70*
X11535Y33848D02*
D03*
X10787D02*
D03*
D71*
X28268Y25325D02*
D03*
X28465D02*
D03*
Y24695D02*
D03*
X28268D02*
D03*
D72*
X28681Y25305D02*
D03*
Y25108D02*
D03*
Y24911D02*
D03*
Y24715D02*
D03*
X28051D02*
D03*
Y24911D02*
D03*
Y25108D02*
D03*
Y25305D02*
D03*
D73*
X9754Y29390D02*
D03*
X6014D02*
D03*
D74*
X39183Y16572D02*
D03*
Y14472D02*
D03*
D75*
X16420Y11516D02*
D03*
X18520D02*
D03*
X13576Y18927D02*
D03*
X15676D02*
D03*
D76*
X39006Y19803D02*
D03*
D77*
X38110Y20945D02*
D03*
X38366D02*
D03*
X38622D02*
D03*
X38878D02*
D03*
X39134D02*
D03*
X39390D02*
D03*
X39646D02*
D03*
X39902D02*
D03*
Y18661D02*
D03*
X39646D02*
D03*
X39390D02*
D03*
X39134D02*
D03*
X38878D02*
D03*
X38622D02*
D03*
X38366D02*
D03*
X38110D02*
D03*
D78*
X46457Y27215D02*
D03*
D79*
X47323Y28346D02*
D03*
X47165D02*
D03*
X47008D02*
D03*
X46850D02*
D03*
X46693D02*
D03*
X46535D02*
D03*
X46378D02*
D03*
X46220D02*
D03*
X46063D02*
D03*
X45906D02*
D03*
X45748D02*
D03*
X45591D02*
D03*
Y26083D02*
D03*
X45748D02*
D03*
X45906D02*
D03*
X46063D02*
D03*
X46220D02*
D03*
X46378D02*
D03*
X46535D02*
D03*
X46693D02*
D03*
X46850D02*
D03*
X47008D02*
D03*
X47165D02*
D03*
X47323D02*
D03*
D80*
X45325Y28081D02*
D03*
Y27923D02*
D03*
Y27766D02*
D03*
Y27608D02*
D03*
Y27451D02*
D03*
Y27293D02*
D03*
Y27136D02*
D03*
Y26978D02*
D03*
Y26821D02*
D03*
Y26663D02*
D03*
Y26506D02*
D03*
Y26348D02*
D03*
X47589D02*
D03*
Y26506D02*
D03*
Y26663D02*
D03*
Y26821D02*
D03*
Y26978D02*
D03*
Y27136D02*
D03*
Y27293D02*
D03*
Y27451D02*
D03*
Y27608D02*
D03*
Y27766D02*
D03*
Y27923D02*
D03*
Y28081D02*
D03*
D81*
X27549Y18750D02*
D03*
Y18947D02*
D03*
Y19144D02*
D03*
Y19341D02*
D03*
Y19537D02*
D03*
Y19734D02*
D03*
Y19931D02*
D03*
Y17766D02*
D03*
Y17963D02*
D03*
Y18159D02*
D03*
Y18356D02*
D03*
Y18553D02*
D03*
X30856Y18947D02*
D03*
Y18750D02*
D03*
Y19931D02*
D03*
Y19734D02*
D03*
Y19537D02*
D03*
Y19341D02*
D03*
Y19144D02*
D03*
Y18553D02*
D03*
Y18356D02*
D03*
Y18159D02*
D03*
Y17963D02*
D03*
Y17766D02*
D03*
D82*
X30089Y20502D02*
D03*
X30285D02*
D03*
Y17195D02*
D03*
X30089D02*
D03*
X28120Y20502D02*
D03*
X28317D02*
D03*
X28514D02*
D03*
X28711D02*
D03*
X28907D02*
D03*
X29104D02*
D03*
X29301D02*
D03*
X29498D02*
D03*
X29695D02*
D03*
X29892D02*
D03*
Y17195D02*
D03*
X29695D02*
D03*
X29498D02*
D03*
X29301D02*
D03*
X29104D02*
D03*
X28907D02*
D03*
X28711D02*
D03*
X28514D02*
D03*
X28317D02*
D03*
X28120D02*
D03*
D83*
X37244Y22549D02*
D03*
X37953D02*
D03*
X40010Y12943D02*
D03*
X39301D02*
D03*
D84*
X33652Y25669D02*
D03*
D85*
X31467Y25846D02*
D03*
Y25492D02*
D03*
D86*
X32850Y23848D02*
D03*
X30650D02*
D03*
X32850Y23348D02*
D03*
X30650D02*
D03*
X32850Y24848D02*
D03*
Y24348D02*
D03*
X30650D02*
D03*
Y24848D02*
D03*
D87*
X33506Y20273D02*
D03*
Y17323D02*
D03*
X32506Y20273D02*
D03*
X33006D02*
D03*
X34006D02*
D03*
X32506Y17323D02*
D03*
X33006D02*
D03*
X34006D02*
D03*
D88*
X26033Y19528D02*
D03*
Y17953D02*
D03*
X50492Y25630D02*
D03*
Y27205D02*
D03*
D89*
X6939Y7963D02*
D03*
X49587Y37854D02*
D03*
X32244Y7352D02*
D03*
D90*
X16220Y23051D02*
D03*
X17835D02*
D03*
D91*
X47504Y35254D02*
D03*
X46602D02*
D03*
X42093D02*
D03*
X42994D02*
D03*
X41191D02*
D03*
X40289D02*
D03*
X30656D02*
D03*
X29754D02*
D03*
X27951D02*
D03*
X28852D02*
D03*
X24343D02*
D03*
X23441D02*
D03*
X34120D02*
D03*
X35022D02*
D03*
X36825D02*
D03*
X35923D02*
D03*
X9455Y35463D02*
D03*
X49695Y33691D02*
D03*
Y34478D02*
D03*
Y35266D02*
D03*
Y36053D02*
D03*
X36240Y17394D02*
D03*
X35240D02*
D03*
X36240Y18394D02*
D03*
Y16394D02*
D03*
X35240Y18394D02*
D03*
Y16394D02*
D03*
Y19396D02*
D03*
Y21396D02*
D03*
X36240Y19396D02*
D03*
Y21396D02*
D03*
X35240Y20396D02*
D03*
X36240D02*
D03*
Y26400D02*
D03*
X35240D02*
D03*
X36240Y25400D02*
D03*
X35240D02*
D03*
Y22398D02*
D03*
Y24398D02*
D03*
X36240Y22398D02*
D03*
Y24398D02*
D03*
X35240Y23398D02*
D03*
X36240D02*
D03*
X35240Y15394D02*
D03*
X30344Y27254D02*
D03*
Y28258D02*
D03*
X31344Y27254D02*
D03*
X29344D02*
D03*
X31344Y28258D02*
D03*
X29344D02*
D03*
X32343D02*
D03*
Y27254D02*
D03*
X33346Y28258D02*
D03*
X27343Y27254D02*
D03*
Y28258D02*
D03*
X28343Y27254D02*
D03*
X26343D02*
D03*
X28343Y28258D02*
D03*
X26343D02*
D03*
X25341D02*
D03*
Y27254D02*
D03*
X24341Y28258D02*
D03*
Y27254D02*
D03*
X22441Y26398D02*
D03*
X21447Y18394D02*
D03*
X22441D02*
D03*
X21447Y17394D02*
D03*
Y19394D02*
D03*
X22441Y17394D02*
D03*
Y19394D02*
D03*
Y16392D02*
D03*
X21447D02*
D03*
X22441Y15392D02*
D03*
X21447Y21396D02*
D03*
X22441D02*
D03*
X21447Y20396D02*
D03*
Y22396D02*
D03*
X22441Y20396D02*
D03*
Y22396D02*
D03*
Y25398D02*
D03*
Y23398D02*
D03*
X21447Y25398D02*
D03*
Y23398D02*
D03*
X22441Y24398D02*
D03*
X21447D02*
D03*
D92*
X25945Y37144D02*
D03*
X26346Y37844D02*
D03*
X25543D02*
D03*
X26748Y37144D02*
D03*
X27150Y37844D02*
D03*
X27551Y37144D02*
D03*
X25142D02*
D03*
X24740Y37844D02*
D03*
X43400D02*
D03*
X43801Y37144D02*
D03*
X46211D02*
D03*
X45809Y37844D02*
D03*
X45407Y37144D02*
D03*
X44203Y37844D02*
D03*
X45006D02*
D03*
X44604Y37144D02*
D03*
X38386D02*
D03*
X38787Y37844D02*
D03*
X37984D02*
D03*
X39189Y37144D02*
D03*
X39591Y37844D02*
D03*
X39992Y37144D02*
D03*
X37583D02*
D03*
X37181Y37844D02*
D03*
X30961D02*
D03*
X31362Y37144D02*
D03*
X33772D02*
D03*
X33370Y37844D02*
D03*
X32968Y37144D02*
D03*
X31764Y37844D02*
D03*
X32567D02*
D03*
X32165Y37144D02*
D03*
X12154Y20949D02*
D03*
X8469Y5809D02*
D03*
X24134Y21929D02*
D03*
Y21142D02*
D03*
Y22717D02*
D03*
Y23504D02*
D03*
Y20354D02*
D03*
Y19567D02*
D03*
Y18780D02*
D03*
X13833Y5809D02*
D03*
D93*
X22953Y37447D02*
D03*
X47992D02*
D03*
X32362Y34852D02*
D03*
X38583D02*
D03*
D94*
X23642Y38848D02*
D03*
X47303D02*
D03*
D95*
X25738Y21988D02*
D03*
D96*
X33612D02*
D03*
D97*
X18100Y39104D02*
D03*
X35561Y5947D02*
D03*
X6890Y39112D02*
D03*
X10974D02*
D03*
D98*
X16919Y36230D02*
D03*
Y37411D02*
D03*
X18100Y36230D02*
D03*
X19282D02*
D03*
X18100Y37411D02*
D03*
X1959Y27156D02*
D03*
Y31093D02*
D03*
X34970Y8829D02*
D03*
X36152D02*
D03*
Y7648D02*
D03*
X6299Y37411D02*
D03*
Y36230D02*
D03*
X7480D02*
D03*
X10384Y37411D02*
D03*
Y36230D02*
D03*
X11565D02*
D03*
D99*
X19282Y37411D02*
D03*
X34970Y7648D02*
D03*
X7480Y37411D02*
D03*
X11565D02*
D03*
D100*
X8455Y35463D02*
D03*
X33346Y27254D02*
D03*
D101*
X38045Y6427D02*
D03*
X19478Y30413D02*
D03*
X54488Y14803D02*
D03*
X43967Y6427D02*
D03*
X14809Y38602D02*
D03*
X13307Y23189D02*
D03*
X52726Y29695D02*
D03*
X47976Y21791D02*
D03*
X46976D02*
D03*
X44976D02*
D03*
X43976D02*
D03*
X41976D02*
D03*
X47976Y20791D02*
D03*
X46976D02*
D03*
X44976D02*
D03*
X43976D02*
D03*
X41976D02*
D03*
X45976Y21791D02*
D03*
X42976D02*
D03*
X48976Y20791D02*
D03*
X45976D02*
D03*
X42976D02*
D03*
X38593Y25522D02*
D03*
X37736Y10571D02*
D03*
X19291Y15600D02*
D03*
X21880Y11033D02*
D03*
X21693Y7146D02*
D03*
D102*
X39045Y6427D02*
D03*
X20856Y30413D02*
D03*
X53110Y14803D02*
D03*
X44967Y6427D02*
D03*
X13809Y38602D02*
D03*
X51348Y29695D02*
D03*
X48976Y21791D02*
D03*
X17291Y15600D02*
D03*
X20502Y11033D02*
D03*
X19693Y7146D02*
D03*
D103*
X27520Y13573D02*
D03*
D104*
X12154Y18949D02*
D03*
D105*
X8159Y23907D02*
D03*
D106*
X10522D02*
D03*
D107*
X53789Y11102D02*
D03*
Y33150D02*
D03*
X2608D02*
D03*
Y11102D02*
D03*
D108*
X13307Y25189D02*
D03*
X38593Y24144D02*
D03*
X37736Y11949D02*
D03*
D109*
X5530Y34459D02*
D03*
X9530D02*
D03*
X6045Y24085D02*
D03*
X2045D02*
D03*
D110*
X50065Y7870D02*
D03*
Y5870D02*
D03*
X48065Y7870D02*
D03*
Y5870D02*
D03*
X49065Y6870D02*
D03*
X48573Y36250D02*
D03*
Y33494D02*
D03*
X50817Y36250D02*
D03*
Y33494D02*
D03*
D111*
X36240Y15394D02*
D03*
X21447Y15392D02*
D03*
Y26398D02*
D03*
D112*
X6469Y5809D02*
D03*
X11833D02*
D03*
D113*
X24134Y24291D02*
D03*
M02*
