G04*
G04 #@! TF.GenerationSoftware,Altium Limited,Altium Designer,18.1.7 (191)*
G04*
G04 Layer_Color=8421504*
%FSLAX24Y24*%
%MOIN*%
G70*
G01*
G75*
%ADD20O,0.0281X0.0591*%
%ADD21O,0.0531X0.0236*%
%ADD22O,0.0591X0.0281*%
G04:AMPARAMS|DCode=23|XSize=43.3mil|YSize=23.6mil|CornerRadius=5.9mil|HoleSize=0mil|Usage=FLASHONLY|Rotation=90.000|XOffset=0mil|YOffset=0mil|HoleType=Round|Shape=RoundedRectangle|*
%AMROUNDEDRECTD23*
21,1,0.0433,0.0118,0,0,90.0*
21,1,0.0315,0.0236,0,0,90.0*
1,1,0.0118,0.0059,0.0157*
1,1,0.0118,0.0059,-0.0157*
1,1,0.0118,-0.0059,-0.0157*
1,1,0.0118,-0.0059,0.0157*
%
%ADD23ROUNDEDRECTD23*%
G04:AMPARAMS|DCode=24|XSize=94.5mil|YSize=59.1mil|CornerRadius=14.8mil|HoleSize=0mil|Usage=FLASHONLY|Rotation=90.000|XOffset=0mil|YOffset=0mil|HoleType=Round|Shape=RoundedRectangle|*
%AMROUNDEDRECTD24*
21,1,0.0945,0.0295,0,0,90.0*
21,1,0.0650,0.0591,0,0,90.0*
1,1,0.0295,0.0148,0.0325*
1,1,0.0295,0.0148,-0.0325*
1,1,0.0295,-0.0148,-0.0325*
1,1,0.0295,-0.0148,0.0325*
%
%ADD24ROUNDEDRECTD24*%
%ADD25O,0.0110X0.0335*%
%ADD26O,0.0335X0.0110*%
%ADD27R,0.1358X0.1358*%
G04:AMPARAMS|DCode=28|XSize=90.6mil|YSize=82.7mil|CornerRadius=12.4mil|HoleSize=0mil|Usage=FLASHONLY|Rotation=270.000|XOffset=0mil|YOffset=0mil|HoleType=Round|Shape=RoundedRectangle|*
%AMROUNDEDRECTD28*
21,1,0.0906,0.0579,0,0,270.0*
21,1,0.0657,0.0827,0,0,270.0*
1,1,0.0248,-0.0289,-0.0329*
1,1,0.0248,-0.0289,0.0329*
1,1,0.0248,0.0289,0.0329*
1,1,0.0248,0.0289,-0.0329*
%
%ADD28ROUNDEDRECTD28*%
%ADD29R,0.0217X0.0236*%
%ADD30O,0.0669X0.0118*%
%ADD31R,0.0618X0.0740*%
%ADD32R,0.0591X0.1024*%
%ADD33R,0.1024X0.0591*%
G04:AMPARAMS|DCode=34|XSize=15.7mil|YSize=49.2mil|CornerRadius=3.9mil|HoleSize=0mil|Usage=FLASHONLY|Rotation=270.000|XOffset=0mil|YOffset=0mil|HoleType=Round|Shape=RoundedRectangle|*
%AMROUNDEDRECTD34*
21,1,0.0157,0.0413,0,0,270.0*
21,1,0.0079,0.0492,0,0,270.0*
1,1,0.0079,-0.0207,-0.0039*
1,1,0.0079,-0.0207,0.0039*
1,1,0.0079,0.0207,0.0039*
1,1,0.0079,0.0207,-0.0039*
%
%ADD34ROUNDEDRECTD34*%
G04:AMPARAMS|DCode=35|XSize=53.1mil|YSize=23.6mil|CornerRadius=5.9mil|HoleSize=0mil|Usage=FLASHONLY|Rotation=0.000|XOffset=0mil|YOffset=0mil|HoleType=Round|Shape=RoundedRectangle|*
%AMROUNDEDRECTD35*
21,1,0.0531,0.0118,0,0,0.0*
21,1,0.0413,0.0236,0,0,0.0*
1,1,0.0118,0.0207,-0.0059*
1,1,0.0118,-0.0207,-0.0059*
1,1,0.0118,-0.0207,0.0059*
1,1,0.0118,0.0207,0.0059*
%
%ADD35ROUNDEDRECTD35*%
G36*
X34242Y37077D02*
X34065Y37156D01*
X33888Y37077D01*
Y37352D01*
X34242D01*
Y37077D01*
D02*
G37*
G36*
X38789Y36841D02*
X38504Y36969D01*
X38219Y36841D01*
Y37293D01*
X38789D01*
Y36841D01*
D02*
G37*
G36*
X34242Y36467D02*
X33888D01*
Y36742D01*
X34065Y36664D01*
X34242Y36742D01*
Y36467D01*
D02*
G37*
G36*
X41122Y36545D02*
X40945Y36624D01*
X40768Y36545D01*
Y36821D01*
X41122D01*
Y36545D01*
D02*
G37*
G36*
X46998Y36496D02*
X46821Y36614D01*
X46644Y36496D01*
Y36890D01*
X46998D01*
Y36496D01*
D02*
G37*
G36*
X38789Y36132D02*
X38219D01*
Y36585D01*
X38504Y36457D01*
X38789Y36585D01*
Y36132D01*
D02*
G37*
G36*
X57795Y36171D02*
X57520Y36299D01*
X57244Y36171D01*
Y36585D01*
X57795D01*
Y36171D01*
D02*
G37*
G36*
X41122Y35935D02*
X40768D01*
Y36211D01*
X40945Y36132D01*
X41122Y36211D01*
Y35935D01*
D02*
G37*
G36*
X46998Y35827D02*
X46644D01*
Y36220D01*
X46821Y36102D01*
X46998Y36220D01*
Y35827D01*
D02*
G37*
G36*
X57795Y35423D02*
X57244D01*
Y35837D01*
X57520Y35709D01*
X57795Y35837D01*
Y35423D01*
D02*
G37*
G36*
X38396Y35374D02*
X38120D01*
X38199Y35551D01*
X38120Y35728D01*
X38396D01*
Y35374D01*
D02*
G37*
G36*
X37707Y35551D02*
X37786Y35374D01*
X37510D01*
Y35728D01*
X37786D01*
X37707Y35551D01*
D02*
G37*
G36*
X27264Y34685D02*
X27087Y34764D01*
X26909Y34685D01*
Y34960D01*
X27264D01*
Y34685D01*
D02*
G37*
G36*
Y34075D02*
X26909D01*
Y34350D01*
X27087Y34272D01*
X27264Y34350D01*
Y34075D01*
D02*
G37*
G36*
X51280Y33120D02*
X51102Y33199D01*
X50925Y33120D01*
Y33396D01*
X51280D01*
Y33120D01*
D02*
G37*
G36*
X53947Y33091D02*
X53671D01*
X53750Y33268D01*
X53671Y33445D01*
X53947D01*
Y33091D01*
D02*
G37*
G36*
X53258Y33268D02*
X53337Y33091D01*
X53061D01*
Y33445D01*
X53337D01*
X53258Y33268D01*
D02*
G37*
G36*
X52648Y33091D02*
X52372D01*
X52451Y33268D01*
X52372Y33445D01*
X52648D01*
Y33091D01*
D02*
G37*
G36*
X51959Y33268D02*
X52038Y33091D01*
X51762D01*
Y33445D01*
X52038D01*
X51959Y33268D01*
D02*
G37*
G36*
X38593Y33091D02*
X38317D01*
X38396Y33268D01*
X38317Y33445D01*
X38593D01*
Y33091D01*
D02*
G37*
G36*
X37904Y33268D02*
X37983Y33091D01*
X37707D01*
Y33445D01*
X37983D01*
X37904Y33268D01*
D02*
G37*
G36*
X55600Y33081D02*
X55315Y33209D01*
X55030Y33081D01*
Y33533D01*
X55600D01*
Y33081D01*
D02*
G37*
G36*
X54547Y33002D02*
X54370Y33081D01*
X54193Y33002D01*
Y33278D01*
X54547D01*
Y33002D01*
D02*
G37*
G36*
X51280Y32510D02*
X50925D01*
Y32786D01*
X51102Y32707D01*
X51280Y32786D01*
Y32510D01*
D02*
G37*
G36*
X55600Y32372D02*
X55030D01*
Y32825D01*
X55315Y32697D01*
X55600Y32825D01*
Y32372D01*
D02*
G37*
G36*
X54547Y32392D02*
X54193D01*
Y32668D01*
X54370Y32589D01*
X54547Y32668D01*
Y32392D01*
D02*
G37*
G36*
X40022Y32126D02*
X39747D01*
X39826Y32303D01*
X39747Y32480D01*
X40022D01*
Y32126D01*
D02*
G37*
G36*
X39334Y32303D02*
X39412Y32126D01*
X39137D01*
Y32480D01*
X39412D01*
X39334Y32303D01*
D02*
G37*
G36*
X45768Y31860D02*
X45315D01*
X45443Y32146D01*
X45315Y32431D01*
X45768D01*
Y31860D01*
D02*
G37*
G36*
X44931Y32146D02*
X45059Y31860D01*
X44606D01*
Y32431D01*
X45059D01*
X44931Y32146D01*
D02*
G37*
G36*
X48169Y31791D02*
X47992Y31909D01*
X47815Y31791D01*
Y32185D01*
X48169D01*
Y31791D01*
D02*
G37*
G36*
X47539Y31791D02*
X47362Y31909D01*
X47185Y31791D01*
Y32184D01*
X47539D01*
Y31791D01*
D02*
G37*
G36*
X54547Y31693D02*
X54370Y31811D01*
X54193Y31693D01*
Y32087D01*
X54547D01*
Y31693D01*
D02*
G37*
G36*
X36201Y31585D02*
X36024Y31663D01*
X35846Y31585D01*
Y31860D01*
X36201D01*
Y31585D01*
D02*
G37*
G36*
X37739Y31427D02*
X37454Y31555D01*
X37168Y31427D01*
Y31880D01*
X37739D01*
Y31427D01*
D02*
G37*
G36*
X48169Y31122D02*
X47815D01*
Y31516D01*
X47992Y31398D01*
X48169Y31516D01*
Y31122D01*
D02*
G37*
G36*
X47539Y31121D02*
X47185D01*
Y31515D01*
X47362Y31397D01*
X47539Y31515D01*
Y31121D01*
D02*
G37*
G36*
X42833Y31368D02*
X42380D01*
X42508Y31653D01*
X42380Y31939D01*
X42833D01*
Y31368D01*
D02*
G37*
G36*
X41996Y31653D02*
X42124Y31368D01*
X41671D01*
Y31939D01*
X42124D01*
X41996Y31653D01*
D02*
G37*
G36*
X54547Y31024D02*
X54193D01*
Y31417D01*
X54370Y31299D01*
X54547Y31417D01*
Y31024D01*
D02*
G37*
G36*
X36201Y30975D02*
X35846D01*
Y31250D01*
X36024Y31172D01*
X36201Y31250D01*
Y30975D01*
D02*
G37*
G36*
X50217Y31161D02*
X50039Y31280D01*
X49862Y31161D01*
Y31555D01*
X50217D01*
Y31161D01*
D02*
G37*
G36*
X48917Y31132D02*
X48740Y31250D01*
X48563Y31132D01*
Y31526D01*
X48917D01*
Y31132D01*
D02*
G37*
G36*
X45827Y31112D02*
X45551Y31240D01*
X45276Y31112D01*
Y31526D01*
X45827D01*
Y31112D01*
D02*
G37*
G36*
X52224Y31083D02*
X51831D01*
X51949Y31260D01*
X51831Y31437D01*
X52224D01*
Y31083D01*
D02*
G37*
G36*
X51437Y31260D02*
X51555Y31083D01*
X51161D01*
Y31437D01*
X51555D01*
X51437Y31260D01*
D02*
G37*
G36*
X37739Y30719D02*
X37168D01*
Y31171D01*
X37454Y31043D01*
X37739Y31171D01*
Y30719D01*
D02*
G37*
G36*
X44655Y30787D02*
X44380D01*
X44458Y30965D01*
X44380Y31142D01*
X44655D01*
Y30787D01*
D02*
G37*
G36*
X43967Y30965D02*
X44045Y30787D01*
X43770D01*
Y31142D01*
X44045D01*
X43967Y30965D01*
D02*
G37*
G36*
X50217Y30492D02*
X49862D01*
Y30886D01*
X50039Y30768D01*
X50217Y30886D01*
Y30492D01*
D02*
G37*
G36*
X43492Y30768D02*
X43315Y30886D01*
X43138Y30768D01*
Y31161D01*
X43492D01*
Y30768D01*
D02*
G37*
G36*
X48917Y30463D02*
X48563D01*
Y30857D01*
X48740Y30738D01*
X48917Y30857D01*
Y30463D01*
D02*
G37*
G36*
X40404Y30728D02*
X40226Y30846D01*
X40049Y30728D01*
Y31122D01*
X40404D01*
Y30728D01*
D02*
G37*
G36*
X45827Y30364D02*
X45276D01*
Y30778D01*
X45551Y30650D01*
X45827Y30778D01*
Y30364D01*
D02*
G37*
G36*
X43492Y30098D02*
X43138D01*
Y30492D01*
X43315Y30374D01*
X43492Y30492D01*
Y30098D01*
D02*
G37*
G36*
X40404Y30059D02*
X40049D01*
Y30453D01*
X40226Y30335D01*
X40404Y30453D01*
Y30059D01*
D02*
G37*
G36*
X39144Y30148D02*
X38750D01*
X38868Y30325D01*
X38750Y30502D01*
X39144D01*
Y30148D01*
D02*
G37*
G36*
X38356Y30325D02*
X38474Y30148D01*
X38081D01*
Y30502D01*
X38474D01*
X38356Y30325D01*
D02*
G37*
G36*
X45453Y29587D02*
X45059D01*
X45177Y29764D01*
X45059Y29941D01*
X45453D01*
Y29587D01*
D02*
G37*
G36*
X44665Y29764D02*
X44783Y29587D01*
X44390D01*
Y29941D01*
X44783D01*
X44665Y29764D01*
D02*
G37*
G36*
X55295Y29508D02*
X55118Y29626D01*
X54941Y29508D01*
Y29902D01*
X55295D01*
Y29508D01*
D02*
G37*
G36*
X42547Y29390D02*
X42154D01*
X42272Y29567D01*
X42154Y29744D01*
X42547D01*
Y29390D01*
D02*
G37*
G36*
X41760Y29567D02*
X41878Y29390D01*
X41484D01*
Y29744D01*
X41878D01*
X41760Y29567D01*
D02*
G37*
G36*
X55295Y28839D02*
X54941D01*
Y29232D01*
X55118Y29114D01*
X55295Y29232D01*
Y28839D01*
D02*
G37*
G36*
X52579Y28878D02*
X52402Y28996D01*
X52224Y28878D01*
Y29272D01*
X52579D01*
Y28878D01*
D02*
G37*
G36*
X45482Y28770D02*
X45030D01*
X45157Y29055D01*
X45030Y29341D01*
X45482D01*
Y28770D01*
D02*
G37*
G36*
X44646Y29055D02*
X44774Y28770D01*
X44321D01*
Y29341D01*
X44774D01*
X44646Y29055D01*
D02*
G37*
G36*
X26949Y28750D02*
X26772Y28828D01*
X26594Y28750D01*
Y29025D01*
X26949D01*
Y28750D01*
D02*
G37*
G36*
X43561Y28740D02*
X43285D01*
X43364Y28917D01*
X43285Y29094D01*
X43561D01*
Y28740D01*
D02*
G37*
G36*
X42872Y28917D02*
X42951Y28740D01*
X42675D01*
Y29094D01*
X42951D01*
X42872Y28917D01*
D02*
G37*
G36*
X42419Y28740D02*
X42144D01*
X42222Y28917D01*
X42144Y29094D01*
X42419D01*
Y28740D01*
D02*
G37*
G36*
X41731Y28917D02*
X41809Y28740D01*
X41534D01*
Y29094D01*
X41809D01*
X41731Y28917D01*
D02*
G37*
G36*
X52579Y28209D02*
X52224D01*
Y28602D01*
X52402Y28484D01*
X52579Y28602D01*
Y28209D01*
D02*
G37*
G36*
X26949Y28140D02*
X26594D01*
Y28415D01*
X26772Y28337D01*
X26949Y28415D01*
Y28140D01*
D02*
G37*
G36*
X41712Y28091D02*
X41437D01*
X41516Y28268D01*
X41437Y28445D01*
X41712D01*
Y28091D01*
D02*
G37*
G36*
X41024Y28268D02*
X41102Y28091D01*
X40827D01*
Y28445D01*
X41102D01*
X41024Y28268D01*
D02*
G37*
G36*
X49587Y27815D02*
X49193D01*
X49311Y27992D01*
X49193Y28169D01*
X49587D01*
Y27815D01*
D02*
G37*
G36*
X48799Y27992D02*
X48917Y27815D01*
X48524D01*
Y28169D01*
X48917D01*
X48799Y27992D01*
D02*
G37*
G36*
X44951Y27608D02*
X44675D01*
X44754Y27785D01*
X44675Y27963D01*
X44951D01*
Y27608D01*
D02*
G37*
G36*
X44262Y27785D02*
X44341Y27608D01*
X44065D01*
Y27963D01*
X44341D01*
X44262Y27785D01*
D02*
G37*
G36*
X43760Y27608D02*
X43366D01*
X43484Y27785D01*
X43366Y27963D01*
X43760D01*
Y27608D01*
D02*
G37*
G36*
X42972Y27785D02*
X43091Y27608D01*
X42697D01*
Y27963D01*
X43091D01*
X42972Y27785D01*
D02*
G37*
G36*
X54970Y27500D02*
X54793Y27618D01*
X54616Y27500D01*
Y27894D01*
X54970D01*
Y27500D01*
D02*
G37*
G36*
X46791Y27303D02*
X46614Y27421D01*
X46437Y27303D01*
Y27697D01*
X46791D01*
Y27303D01*
D02*
G37*
G36*
X46201Y27303D02*
X46024Y27421D01*
X45846Y27303D01*
Y27697D01*
X46201D01*
Y27303D01*
D02*
G37*
G36*
X53189Y27264D02*
X52795D01*
X52913Y27441D01*
X52795Y27618D01*
X53189D01*
Y27264D01*
D02*
G37*
G36*
X52402Y27441D02*
X52520Y27264D01*
X52126D01*
Y27618D01*
X52520D01*
X52402Y27441D01*
D02*
G37*
G36*
X54970Y26831D02*
X54616D01*
Y27224D01*
X54793Y27106D01*
X54970Y27224D01*
Y26831D01*
D02*
G37*
G36*
X46791Y26634D02*
X46437D01*
Y27028D01*
X46614Y26909D01*
X46791Y27028D01*
Y26634D01*
D02*
G37*
G36*
X46201Y26634D02*
X45846D01*
Y27028D01*
X46024Y26909D01*
X46201Y27028D01*
Y26634D01*
D02*
G37*
G36*
X33287Y26900D02*
X33110Y26978D01*
X32933Y26900D01*
Y27175D01*
X33287D01*
Y26900D01*
D02*
G37*
G36*
X54114Y26555D02*
X53720D01*
X53839Y26732D01*
X53720Y26909D01*
X54114D01*
Y26555D01*
D02*
G37*
G36*
X53327Y26732D02*
X53445Y26555D01*
X53051D01*
Y26909D01*
X53445D01*
X53327Y26732D01*
D02*
G37*
G36*
X33287Y26290D02*
X32933D01*
Y26565D01*
X33110Y26486D01*
X33287Y26565D01*
Y26290D01*
D02*
G37*
G36*
X49508Y25807D02*
X49114D01*
X49232Y25984D01*
X49114Y26161D01*
X49508D01*
Y25807D01*
D02*
G37*
G36*
X48720Y25984D02*
X48839Y25807D01*
X48445D01*
Y26161D01*
X48839D01*
X48720Y25984D01*
D02*
G37*
G36*
X48091Y25807D02*
X47697D01*
X47815Y25984D01*
X47697Y26161D01*
X48091D01*
Y25807D01*
D02*
G37*
G36*
X47303Y25984D02*
X47421Y25807D01*
X47028D01*
Y26161D01*
X47421D01*
X47303Y25984D01*
D02*
G37*
D20*
X40325Y28656D02*
D03*
X39525D02*
D03*
X39925Y27746D02*
D03*
X37854Y33991D02*
D03*
X38654D02*
D03*
X38254Y34901D02*
D03*
D21*
X39265Y31299D02*
D03*
X38280Y30925D02*
D03*
X39265D02*
D03*
X38280Y31673D02*
D03*
X39265D02*
D03*
D22*
X42591Y30177D02*
D03*
Y30977D02*
D03*
X41681Y30577D02*
D03*
X39267Y35413D02*
D03*
Y34613D02*
D03*
X40177Y35013D02*
D03*
X40261Y35945D02*
D03*
Y36745D02*
D03*
X39351Y36345D02*
D03*
D23*
X49567Y29961D02*
D03*
X49213D02*
D03*
D24*
X49390Y32146D02*
D03*
D25*
X47943Y28435D02*
D03*
X47746D02*
D03*
X47549D02*
D03*
X47352D02*
D03*
X47156D02*
D03*
X46959D02*
D03*
X46762D02*
D03*
X46565D02*
D03*
Y30384D02*
D03*
X46762D02*
D03*
X46959D02*
D03*
X47156D02*
D03*
X47352D02*
D03*
X47549D02*
D03*
X47746D02*
D03*
X47943D02*
D03*
D26*
X46280Y28720D02*
D03*
Y28917D02*
D03*
Y29114D02*
D03*
Y29311D02*
D03*
Y29508D02*
D03*
Y29705D02*
D03*
Y29902D02*
D03*
Y30098D02*
D03*
X48228D02*
D03*
Y29902D02*
D03*
Y29705D02*
D03*
Y29508D02*
D03*
Y29311D02*
D03*
Y29114D02*
D03*
Y28917D02*
D03*
Y28720D02*
D03*
D27*
X47254Y29409D02*
D03*
D28*
X47441Y26969D02*
D03*
X49016D02*
D03*
D29*
X52313Y26732D02*
D03*
X52648D02*
D03*
X53396Y28386D02*
D03*
X53061D02*
D03*
X54301D02*
D03*
X53967D02*
D03*
X55128D02*
D03*
X54793D02*
D03*
D30*
X53543Y31890D02*
D03*
Y32087D02*
D03*
Y32283D02*
D03*
Y32480D02*
D03*
Y32677D02*
D03*
X51929Y31890D02*
D03*
Y32087D02*
D03*
Y32283D02*
D03*
Y32480D02*
D03*
Y32677D02*
D03*
D31*
X52736Y32283D02*
D03*
D32*
X35551Y27362D02*
D03*
X34370D02*
D03*
X28898Y27126D02*
D03*
X27717D02*
D03*
X31732Y26024D02*
D03*
X30551D02*
D03*
X34045Y35669D02*
D03*
X35226D02*
D03*
X29921Y37028D02*
D03*
X31102D02*
D03*
X27087Y35674D02*
D03*
X28268D02*
D03*
X26772Y29921D02*
D03*
X25591D02*
D03*
D33*
X26575Y31772D02*
D03*
Y32953D02*
D03*
X36024Y30394D02*
D03*
Y29213D02*
D03*
X35851Y34331D02*
D03*
Y33150D02*
D03*
D34*
X56368Y33898D02*
D03*
Y33642D02*
D03*
Y33386D02*
D03*
Y33130D02*
D03*
Y32874D02*
D03*
D35*
X57402Y33701D02*
D03*
Y33071D02*
D03*
M02*
