G04 Layer_Color=65535*
%FSLAX24Y24*%
%MOIN*%
G70*
G01*
G75*
%ADD10C,0.0079*%
%ADD37C,0.0098*%
%ADD43C,0.0236*%
%ADD61C,0.0100*%
%ADD62C,0.0070*%
%ADD63C,0.0071*%
%ADD64C,0.0070*%
%ADD65C,0.0039*%
%ADD66C,0.0050*%
G36*
X35970Y38217D02*
X35720D01*
Y38467D01*
X35970D01*
Y38217D01*
D02*
G37*
G36*
X42596Y37120D02*
X42486D01*
Y37840D01*
X42596D01*
Y37120D01*
D02*
G37*
G36*
X33398Y32720D02*
X33148D01*
Y32970D01*
X33398D01*
Y32720D01*
D02*
G37*
G36*
X20327Y43774D02*
X20077D01*
Y44024D01*
X20327D01*
Y43774D01*
D02*
G37*
G36*
X21846Y40229D02*
X21126D01*
Y40339D01*
X21846D01*
Y40229D01*
D02*
G37*
G36*
X20960D02*
X20240D01*
Y40339D01*
X20960D01*
Y40229D01*
D02*
G37*
D10*
X34026Y42224D02*
X34862D01*
X21969Y33327D02*
X23228D01*
X21969Y30728D02*
X23228D01*
X21969D02*
Y33327D01*
X23228Y30728D02*
Y33327D01*
X31781Y34685D02*
Y37047D01*
X34144Y34685D02*
Y37047D01*
X31781Y34685D02*
X34144D01*
X31781Y37047D02*
X34144D01*
X29301Y41211D02*
Y41565D01*
X30404Y41211D02*
Y41565D01*
X28130Y42224D02*
X28484D01*
X28130Y41122D02*
X28484D01*
X24980Y40876D02*
Y41230D01*
X26083Y40876D02*
Y41230D01*
X26220Y40876D02*
Y41230D01*
X27323Y40876D02*
Y41230D01*
X22028Y40079D02*
Y40433D01*
X23130Y40079D02*
Y40433D01*
X41821Y41850D02*
Y42559D01*
X43750Y41850D02*
Y42559D01*
X41270Y41545D02*
Y41900D01*
X40167Y41545D02*
Y41900D01*
X39449Y41545D02*
Y41900D01*
X38346Y41545D02*
Y41900D01*
X30118Y36673D02*
X30157D01*
Y34705D02*
Y36673D01*
X30118Y34705D02*
X30157D01*
X28898Y36673D02*
X28937D01*
X28898Y34705D02*
Y36673D01*
Y34705D02*
X28937D01*
X20270Y39859D02*
X20600Y40289D01*
X20930Y39859D01*
X20270D02*
X20930D01*
X21156D02*
X21486Y40289D01*
X21816Y39859D01*
X21156D02*
X21816D01*
X31516Y30472D02*
Y32559D01*
X32657Y30472D02*
Y32559D01*
X31516D02*
X31624D01*
X32549D02*
X32657D01*
X31516Y30472D02*
X31624D01*
X32549D02*
X32657D01*
X41476Y39636D02*
X43563D01*
X41476Y40778D02*
X43563D01*
X41476Y39636D02*
Y39744D01*
Y40669D02*
Y40778D01*
X43563Y39636D02*
Y39744D01*
Y40669D02*
Y40778D01*
X42536Y37480D02*
X42966Y37150D01*
X42536Y37480D02*
X42966Y37810D01*
Y37150D02*
Y37810D01*
X41083Y35807D02*
X43720D01*
Y35374D02*
Y35807D01*
X41083Y35374D02*
Y35807D01*
X22648Y38878D02*
Y39065D01*
Y37569D02*
Y37756D01*
X20443Y38878D02*
Y39065D01*
Y37569D02*
Y37756D01*
Y39065D02*
X22648D01*
X20443Y37569D02*
X22648D01*
D37*
X24144Y30689D02*
G03*
X24144Y30689I-49J0D01*
G01*
X31142Y37224D02*
G03*
X31142Y37224I-49J0D01*
G01*
X43770Y36703D02*
G03*
X43770Y36703I-49J0D01*
G01*
D43*
X32293Y36654D02*
G03*
X32293Y36654I-118J0D01*
G01*
D61*
X43996Y31073D02*
G03*
X43996Y31073I-1063J0D01*
G01*
X22185Y45197D02*
G03*
X22185Y45197I-1063J0D01*
G01*
X25325Y37640D02*
G03*
X25325Y37640I-1260J0D01*
G01*
X27490Y31900D02*
G03*
X27490Y31900I-1575J0D01*
G01*
X40758Y32248D02*
G03*
X40758Y32248I-1969J0D01*
G01*
X34717Y32750D02*
G03*
X35275Y32769I280J0D01*
G01*
X35920Y40167D02*
G03*
X35920Y40767I0J300D01*
G01*
X21646Y43803D02*
G03*
X22204Y43822I280J0D01*
G01*
X23815Y39340D02*
X24315D01*
X24065Y39090D02*
Y39590D01*
X25915Y33650D02*
Y34150D01*
X25665Y33900D02*
X26165D01*
X38539Y34748D02*
X39039D01*
X38789Y34498D02*
Y34998D01*
X35498Y30570D02*
Y32770D01*
X34498Y30570D02*
Y32770D01*
Y30570D02*
X35498D01*
X35298Y32770D02*
X35498D01*
X34498D02*
X34698D01*
X35920Y39667D02*
Y40167D01*
X37920Y39667D02*
Y41267D01*
X35920D02*
X37920D01*
X35920Y39667D02*
X37920D01*
X35920Y40767D02*
Y41267D01*
X28142Y35488D02*
Y36488D01*
X26642D02*
X28142D01*
X26642Y33988D02*
X28142D01*
X26642D02*
Y36488D01*
X28142Y33988D02*
Y35488D01*
X37742Y45423D02*
Y45823D01*
X37442D02*
X37742D01*
X36542Y45423D02*
Y45823D01*
X36842D01*
X37042Y45323D02*
X37242D01*
X25402Y38970D02*
X25702D01*
X24502D02*
Y39370D01*
Y38970D02*
X24802D01*
X25002Y39470D02*
X25202D01*
X25702Y38970D02*
Y39370D01*
X26760Y38970D02*
X27060D01*
X25860D02*
Y39370D01*
Y38970D02*
X26160D01*
X26360Y39470D02*
X26560D01*
X27060Y38970D02*
Y39370D01*
X33960Y41532D02*
X34360D01*
X33960Y41231D02*
Y41532D01*
Y40332D02*
X34360D01*
X33960D02*
Y40631D01*
X34460Y40831D02*
Y41031D01*
X31279Y40398D02*
X31679D01*
Y40698D01*
X31279Y41598D02*
X31679D01*
Y41298D02*
Y41598D01*
X31179Y40898D02*
Y41098D01*
X39160Y40646D02*
X39460D01*
X40360Y40246D02*
Y40646D01*
X40060D02*
X40360D01*
X39660Y40146D02*
X39860D01*
X39160Y40246D02*
Y40646D01*
X22427Y41624D02*
Y43824D01*
X21427Y41624D02*
Y43824D01*
Y41624D02*
X22427D01*
X22227Y43824D02*
X22427D01*
X21427D02*
X21627D01*
X20189Y33717D02*
X20191Y35858D01*
X20189Y33717D02*
X22689D01*
X20189Y37417D02*
X22689D01*
X22711Y33732D02*
Y37394D01*
X20189Y35817D02*
X20191Y37394D01*
X38317Y44291D02*
Y47794D01*
X41860Y44291D02*
Y47794D01*
X38317Y44291D02*
X38947D01*
X41230D02*
X41860D01*
X38317Y47794D02*
X41860D01*
X26370Y35498D02*
Y36498D01*
X24870D02*
X26370D01*
X24870Y33998D02*
X26370D01*
X24870D02*
Y36498D01*
X26370Y33998D02*
Y35498D01*
X24469Y47794D02*
X35098D01*
X24469Y44291D02*
X25098D01*
X34469D02*
X35098D01*
Y47794D01*
X24469Y44291D02*
Y47794D01*
D62*
X36416Y46057D02*
G03*
X35906Y46056I-255J-609D01*
G01*
Y44849D02*
G03*
X36416Y44849I256J608D01*
G01*
X37378Y37450D02*
G03*
X37379Y36939I609J-255D01*
G01*
X38586D02*
G03*
X38586Y37450I-608J256D01*
G01*
X33687Y42223D02*
G03*
X33688Y41713I609J-255D01*
G01*
X34895D02*
G03*
X34895Y42223I-608J256D01*
G01*
X32280Y41613D02*
G03*
X32280Y41103I609J-255D01*
G01*
X33487D02*
G03*
X33488Y41613I-608J256D01*
G01*
X35796Y40909D02*
G03*
X35286Y40909I-255J-609D01*
G01*
Y39702D02*
G03*
X35796Y39701I256J608D01*
G01*
X28788Y36962D02*
G03*
X28278Y36962I-255J-609D01*
G01*
Y35755D02*
G03*
X28788Y35754I256J608D01*
G01*
X28278Y34268D02*
G03*
X28788Y34269I255J609D01*
G01*
Y35475D02*
G03*
X28278Y35476I-256J-608D01*
G01*
X35745Y30639D02*
G03*
X35745Y30128I609J-255D01*
G01*
X36952D02*
G03*
X36952Y30639I-608J256D01*
G01*
X23404Y35023D02*
G03*
X22894Y35023I-255J-609D01*
G01*
Y33816D02*
G03*
X23404Y33815I256J608D01*
G01*
X28015Y33338D02*
G03*
X28015Y33848I-609J255D01*
G01*
X26808D02*
G03*
X26808Y33338I608J-256D01*
G01*
X35856Y35443D02*
X36900D01*
X35856Y34931D02*
X36900D01*
Y35443D01*
X35856Y34931D02*
Y35443D01*
X37530Y35088D02*
Y36132D01*
X37018Y35088D02*
Y36132D01*
Y35088D02*
X37530D01*
X37018Y36132D02*
X37530D01*
X35906Y44852D02*
Y46053D01*
X36416Y44853D02*
Y46053D01*
X37382Y36939D02*
X38583D01*
X37382Y37450D02*
X38582D01*
X33691Y41713D02*
X34892D01*
X33691Y42224D02*
X34891D01*
X32284Y41102D02*
X33485D01*
X32284Y41613D02*
X33484D01*
X35285Y39704D02*
Y40905D01*
X35796Y39705D02*
Y40905D01*
X28278Y35758D02*
Y36958D01*
X28788Y35758D02*
Y36958D01*
Y34272D02*
Y35473D01*
X28278Y34272D02*
Y35472D01*
X35748Y30128D02*
X36949D01*
X35748Y30639D02*
X36948D01*
X22894Y33819D02*
Y35019D01*
X23405Y33819D02*
Y35019D01*
X36398Y44163D02*
Y44675D01*
X35354Y44163D02*
Y44675D01*
X36398D01*
X35354Y44163D02*
X36398D01*
X30413Y39951D02*
Y40463D01*
X29370Y39951D02*
Y40463D01*
X30413D01*
X29370Y39951D02*
X30413D01*
X28720Y40482D02*
Y40994D01*
X27677Y40482D02*
Y40994D01*
X28720D01*
X27677Y40482D02*
X28720D01*
X28583Y39813D02*
Y40325D01*
X27539Y39813D02*
Y40325D01*
X28583D01*
X27539Y39813D02*
X28583D01*
X28307Y39134D02*
Y39646D01*
X27264Y39134D02*
Y39646D01*
X28307D01*
X27264Y39134D02*
X28307D01*
X37392Y36280D02*
Y36791D01*
X38435Y36280D02*
Y36791D01*
X37392Y36280D02*
X38435D01*
X37392Y36791D02*
X38435D01*
X33041Y41713D02*
Y42224D01*
X31998Y41713D02*
Y42224D01*
X33041D01*
X31998Y41713D02*
X33041D01*
X31870Y41722D02*
Y42234D01*
X30827Y41722D02*
Y42234D01*
X31870D01*
X30827Y41722D02*
X31870D01*
X26417Y36634D02*
Y37146D01*
X25374Y36634D02*
Y37146D01*
X26417D01*
X25374Y36634D02*
X26417D01*
X24892Y41506D02*
Y42018D01*
X23848Y41506D02*
Y42018D01*
X24892D01*
X23848Y41506D02*
X24892D01*
X24065Y33799D02*
X24577D01*
X24065Y34843D02*
X24577D01*
Y33799D02*
Y34843D01*
X24065Y33799D02*
Y34843D01*
Y36014D02*
X24577D01*
X24065Y34970D02*
X24577D01*
X24065D02*
Y36014D01*
X24577Y34970D02*
Y36014D01*
X32835Y31162D02*
Y32205D01*
X33346Y31162D02*
Y32205D01*
X32835D02*
X33346D01*
X32835Y31162D02*
X33346D01*
X26811Y33848D02*
X28011D01*
X26811Y33338D02*
X28011D01*
D63*
X30115Y33663D02*
G03*
X28815Y33692I-697J-2035D01*
G01*
X28879Y30260D02*
G03*
X30072Y30264I589J2068D01*
G01*
X43309Y46225D02*
G03*
X42474Y46225I-418J-418D01*
G01*
Y45389D02*
G03*
X43309Y45389I418J418D01*
G01*
D64*
X41786Y37975D02*
X43716D01*
X41786Y38935D02*
X43716D01*
X41786Y37975D02*
Y38935D01*
X43716Y37975D02*
Y38935D01*
D65*
X42904Y45453D02*
X43022Y45571D01*
X42904Y45453D02*
X43022Y45335D01*
Y45571D01*
X42864Y45335D02*
Y45571D01*
X25069Y45033D02*
X25134Y45098D01*
X25266D01*
X25331Y45033D01*
Y44967D01*
X25266Y44902D01*
X25331Y44836D01*
Y44770D01*
X25266Y44705D01*
X25134D01*
X25069Y44770D01*
Y44836D01*
X25134Y44902D01*
X25069Y44967D01*
Y45033D01*
X25134Y44902D02*
X25266D01*
X34557Y43018D02*
X34623Y42953D01*
X34754D01*
X34819Y43018D01*
Y43281D01*
X34754Y43346D01*
X34623D01*
X34557Y43281D01*
Y43215D01*
X34623Y43150D01*
X34819D01*
X24498Y42904D02*
X24629D01*
X24564D01*
Y43297D01*
X24498Y43232D01*
X25088Y43297D02*
X24957Y43232D01*
X24826Y43100D01*
Y42969D01*
X24892Y42904D01*
X25023D01*
X25088Y42969D01*
Y43035D01*
X25023Y43100D01*
X24826D01*
X35630Y34498D02*
Y34793D01*
X35778D01*
X35827Y34744D01*
Y34646D01*
X35778Y34596D01*
X35630D01*
X35728D02*
X35827Y34498D01*
X36122D02*
X35925D01*
X36122Y34695D01*
Y34744D01*
X36073Y34793D01*
X35974D01*
X35925Y34744D01*
X36220Y34547D02*
X36269Y34498D01*
X36368D01*
X36417Y34547D01*
Y34744D01*
X36368Y34793D01*
X36269D01*
X36220Y34744D01*
Y34695D01*
X36269Y34646D01*
X36417D01*
X37667Y35118D02*
Y35413D01*
X37815D01*
X37864Y35364D01*
Y35266D01*
X37815Y35217D01*
X37667D01*
X37766D02*
X37864Y35118D01*
X38159D02*
X37963D01*
X38159Y35315D01*
Y35364D01*
X38110Y35413D01*
X38012D01*
X37963Y35364D01*
X38258D02*
X38307Y35413D01*
X38405D01*
X38454Y35364D01*
Y35315D01*
X38405Y35266D01*
X38454Y35217D01*
Y35167D01*
X38405Y35118D01*
X38307D01*
X38258Y35167D01*
Y35217D01*
X38307Y35266D01*
X38258Y35315D01*
Y35364D01*
X38307Y35266D02*
X38405D01*
X35551Y45374D02*
X35502Y45325D01*
Y45226D01*
X35551Y45177D01*
X35748D01*
X35797Y45226D01*
Y45325D01*
X35748Y45374D01*
X35797Y45669D02*
Y45472D01*
X35600Y45669D01*
X35551D01*
X35502Y45620D01*
Y45522D01*
X35551Y45472D01*
X39114Y37283D02*
X39065Y37333D01*
X38967D01*
X38917Y37283D01*
Y37087D01*
X38967Y37037D01*
X39065D01*
X39114Y37087D01*
X39409Y37333D02*
X39311Y37283D01*
X39213Y37185D01*
Y37087D01*
X39262Y37037D01*
X39360D01*
X39409Y37087D01*
Y37136D01*
X39360Y37185D01*
X39213D01*
X33396Y42559D02*
X33346Y42608D01*
X33248D01*
X33199Y42559D01*
Y42362D01*
X33248Y42313D01*
X33346D01*
X33396Y42362D01*
X33494Y42559D02*
X33543Y42608D01*
X33642D01*
X33691Y42559D01*
Y42510D01*
X33642Y42461D01*
X33691Y42411D01*
Y42362D01*
X33642Y42313D01*
X33543D01*
X33494Y42362D01*
Y42411D01*
X33543Y42461D01*
X33494Y42510D01*
Y42559D01*
X33543Y42461D02*
X33642D01*
X32844Y40915D02*
X32795Y40964D01*
X32697D01*
X32648Y40915D01*
Y40718D01*
X32697Y40669D01*
X32795D01*
X32844Y40718D01*
X32943Y40669D02*
X33041D01*
X32992D01*
Y40964D01*
X32943Y40915D01*
X33189Y40669D02*
X33287D01*
X33238D01*
Y40964D01*
X33189Y40915D01*
X34656Y39715D02*
X34606Y39665D01*
Y39567D01*
X34656Y39518D01*
X34852D01*
X34902Y39567D01*
Y39665D01*
X34852Y39715D01*
X34902Y39813D02*
Y39911D01*
Y39862D01*
X34606D01*
X34656Y39813D01*
X34606Y40059D02*
Y40256D01*
X34656D01*
X34852Y40059D01*
X34902D01*
X28445Y37382D02*
X28396Y37333D01*
Y37234D01*
X28445Y37185D01*
X28642D01*
X28691Y37234D01*
Y37333D01*
X28642Y37382D01*
X28691Y37480D02*
Y37579D01*
Y37529D01*
X28396D01*
X28445Y37480D01*
Y37726D02*
X28396Y37775D01*
Y37874D01*
X28445Y37923D01*
X28494D01*
X28543Y37874D01*
X28593Y37923D01*
X28642D01*
X28691Y37874D01*
Y37775D01*
X28642Y37726D01*
X28593D01*
X28543Y37775D01*
X28494Y37726D01*
X28445D01*
X28543Y37775D02*
Y37874D01*
X29370Y34311D02*
X29321Y34360D01*
X29222D01*
X29173Y34311D01*
Y34114D01*
X29222Y34065D01*
X29321D01*
X29370Y34114D01*
X29468Y34065D02*
X29567D01*
X29518D01*
Y34360D01*
X29468Y34311D01*
X29714Y34114D02*
X29764Y34065D01*
X29862D01*
X29911Y34114D01*
Y34311D01*
X29862Y34360D01*
X29764D01*
X29714Y34311D01*
Y34262D01*
X29764Y34213D01*
X29911D01*
X25728Y37903D02*
X25679Y37953D01*
X25581D01*
X25531Y37903D01*
Y37707D01*
X25581Y37657D01*
X25679D01*
X25728Y37707D01*
X26023Y37657D02*
X25827D01*
X26023Y37854D01*
Y37903D01*
X25974Y37953D01*
X25876D01*
X25827Y37903D01*
X26319Y37657D02*
X26122D01*
X26319Y37854D01*
Y37903D01*
X26269Y37953D01*
X26171D01*
X26122Y37903D01*
X34882Y30403D02*
X34833Y30453D01*
X34734D01*
X34685Y30403D01*
Y30207D01*
X34734Y30157D01*
X34833D01*
X34882Y30207D01*
X35177Y30157D02*
X34980D01*
X35177Y30354D01*
Y30403D01*
X35128Y30453D01*
X35029D01*
X34980Y30403D01*
X35275D02*
X35325Y30453D01*
X35423D01*
X35472Y30403D01*
Y30354D01*
X35423Y30305D01*
X35374D01*
X35423D01*
X35472Y30256D01*
Y30207D01*
X35423Y30157D01*
X35325D01*
X35275Y30207D01*
X27096Y30433D02*
X27047Y30482D01*
X26949D01*
X26900Y30433D01*
Y30236D01*
X26949Y30187D01*
X27047D01*
X27096Y30236D01*
X27392Y30187D02*
X27195D01*
X27392Y30384D01*
Y30433D01*
X27342Y30482D01*
X27244D01*
X27195Y30433D01*
X27638Y30187D02*
Y30482D01*
X27490Y30335D01*
X27687D01*
X40276Y30492D02*
X40226Y30541D01*
X40128D01*
X40079Y30492D01*
Y30295D01*
X40128Y30246D01*
X40226D01*
X40276Y30295D01*
X40571Y30246D02*
X40374D01*
X40571Y30443D01*
Y30492D01*
X40522Y30541D01*
X40423D01*
X40374Y30492D01*
X40669D02*
X40718Y30541D01*
X40817D01*
X40866Y30492D01*
Y30443D01*
X40817Y30394D01*
X40866Y30344D01*
Y30295D01*
X40817Y30246D01*
X40718D01*
X40669Y30295D01*
Y30344D01*
X40718Y30394D01*
X40669Y30443D01*
Y30492D01*
X40718Y30394D02*
X40817D01*
X22963Y35394D02*
X22913Y35344D01*
Y35246D01*
X22963Y35197D01*
X23159D01*
X23209Y35246D01*
Y35344D01*
X23159Y35394D01*
X22963Y35492D02*
X22913Y35541D01*
Y35640D01*
X22963Y35689D01*
X23012D01*
X23061Y35640D01*
Y35590D01*
Y35640D01*
X23110Y35689D01*
X23159D01*
X23209Y35640D01*
Y35541D01*
X23159Y35492D01*
X23209Y35787D02*
Y35886D01*
Y35836D01*
X22913D01*
X22963Y35787D01*
X34528Y33346D02*
Y33051D01*
X34675D01*
X34724Y33100D01*
Y33297D01*
X34675Y33346D01*
X34528D01*
X34823Y33051D02*
Y33248D01*
X34921Y33346D01*
X35020Y33248D01*
Y33051D01*
Y33199D01*
X34823D01*
X35118Y33051D02*
X35216D01*
X35167D01*
Y33346D01*
X35118Y33297D01*
X22215Y30590D02*
Y30295D01*
X22362D01*
X22411Y30344D01*
Y30541D01*
X22362Y30590D01*
X22215D01*
X22510Y30295D02*
Y30492D01*
X22608Y30590D01*
X22707Y30492D01*
Y30295D01*
Y30443D01*
X22510D01*
X23002Y30295D02*
X22805D01*
X23002Y30492D01*
Y30541D01*
X22953Y30590D01*
X22854D01*
X22805Y30541D01*
X30994Y37805D02*
Y37510D01*
X31142D01*
X31191Y37559D01*
Y37756D01*
X31142Y37805D01*
X30994D01*
X31289D02*
Y37510D01*
X31437D01*
X31486Y37559D01*
Y37756D01*
X31437Y37805D01*
X31289D01*
X31584Y37510D02*
X31683D01*
X31634D01*
Y37805D01*
X31584Y37756D01*
X38100Y39941D02*
X38396D01*
Y40089D01*
X38346Y40138D01*
X38150D01*
X38100Y40089D01*
Y39941D01*
Y40236D02*
X38396D01*
Y40384D01*
X38346Y40433D01*
X38150D01*
X38100Y40384D01*
Y40236D01*
X38396Y40728D02*
Y40531D01*
X38199Y40728D01*
X38150D01*
X38100Y40679D01*
Y40581D01*
X38150Y40531D01*
X30285Y42608D02*
X30089D01*
Y42461D01*
X30187D01*
X30089D01*
Y42313D01*
X30384Y42608D02*
Y42362D01*
X30433Y42313D01*
X30531D01*
X30581Y42362D01*
Y42608D01*
X30679Y42313D02*
X30777D01*
X30728D01*
Y42608D01*
X30679Y42559D01*
X27441Y42628D02*
X27244D01*
Y42480D01*
X27342D01*
X27244D01*
Y42333D01*
X27539Y42628D02*
Y42382D01*
X27588Y42333D01*
X27687D01*
X27736Y42382D01*
Y42628D01*
X28031Y42333D02*
X27834D01*
X28031Y42529D01*
Y42579D01*
X27982Y42628D01*
X27884D01*
X27834Y42579D01*
X25315Y42283D02*
X25118D01*
Y42136D01*
X25217D01*
X25118D01*
Y41988D01*
X25413Y42283D02*
Y42037D01*
X25462Y41988D01*
X25561D01*
X25610Y42037D01*
Y42283D01*
X25708Y42234D02*
X25758Y42283D01*
X25856D01*
X25905Y42234D01*
Y42185D01*
X25856Y42136D01*
X25807D01*
X25856D01*
X25905Y42087D01*
Y42037D01*
X25856Y41988D01*
X25758D01*
X25708Y42037D01*
X26575Y42244D02*
X26378D01*
Y42096D01*
X26476D01*
X26378D01*
Y41949D01*
X26673Y42244D02*
Y41998D01*
X26722Y41949D01*
X26821D01*
X26870Y41998D01*
Y42244D01*
X27116Y41949D02*
Y42244D01*
X26968Y42096D01*
X27165D01*
X23445Y39862D02*
X23248D01*
Y39715D01*
X23346D01*
X23248D01*
Y39567D01*
X23543Y39862D02*
Y39616D01*
X23592Y39567D01*
X23691D01*
X23740Y39616D01*
Y39862D01*
X24035D02*
X23838D01*
Y39715D01*
X23937Y39764D01*
X23986D01*
X24035Y39715D01*
Y39616D01*
X23986Y39567D01*
X23888D01*
X23838Y39616D01*
X42175Y43927D02*
X41978D01*
Y43779D01*
X42077D01*
X41978D01*
Y43632D01*
X42274Y43927D02*
Y43681D01*
X42323Y43632D01*
X42421D01*
X42470Y43681D01*
Y43927D01*
X42765D02*
X42667Y43878D01*
X42569Y43779D01*
Y43681D01*
X42618Y43632D01*
X42716D01*
X42765Y43681D01*
Y43730D01*
X42716Y43779D01*
X42569D01*
X41398Y41417D02*
Y41220D01*
X41545D01*
Y41319D01*
Y41220D01*
X41693D01*
X41398Y41516D02*
X41644D01*
X41693Y41565D01*
Y41663D01*
X41644Y41712D01*
X41398D01*
Y41811D02*
Y42008D01*
X41447D01*
X41644Y41811D01*
X41693D01*
X38455Y42933D02*
X38258D01*
Y42785D01*
X38356D01*
X38258D01*
Y42638D01*
X38553Y42933D02*
Y42687D01*
X38602Y42638D01*
X38701D01*
X38750Y42687D01*
Y42933D01*
X38848Y42884D02*
X38897Y42933D01*
X38996D01*
X39045Y42884D01*
Y42835D01*
X38996Y42785D01*
X39045Y42736D01*
Y42687D01*
X38996Y42638D01*
X38897D01*
X38848Y42687D01*
Y42736D01*
X38897Y42785D01*
X38848Y42835D01*
Y42884D01*
X38897Y42785D02*
X38996D01*
X27365Y36959D02*
X27266D01*
X27316D01*
Y36713D01*
X27266Y36663D01*
X27217D01*
X27168Y36713D01*
X27463Y36663D02*
X27562D01*
X27512D01*
Y36959D01*
X27463Y36909D01*
X30748Y30551D02*
Y30256D01*
X30945D01*
X31043D02*
X31142D01*
X31092D01*
Y30551D01*
X31043Y30502D01*
X29370Y37116D02*
Y37313D01*
X29321Y37362D01*
X29222D01*
X29173Y37313D01*
Y37116D01*
X29222Y37067D01*
X29321D01*
X29272Y37165D02*
X29370Y37067D01*
X29321D02*
X29370Y37116D01*
X29468Y37067D02*
Y37362D01*
X29616D01*
X29665Y37313D01*
Y37215D01*
X29616Y37165D01*
X29468D01*
X29567D02*
X29665Y37067D01*
X29764D02*
X29862D01*
X29813D01*
Y37362D01*
X29764Y37313D01*
X36781Y44163D02*
X36486D01*
Y44311D01*
X36536Y44360D01*
X36634D01*
X36683Y44311D01*
Y44163D01*
Y44262D02*
X36781Y44360D01*
Y44606D02*
X36486D01*
X36634Y44459D01*
Y44655D01*
X30000Y39537D02*
Y39833D01*
X30148D01*
X30197Y39783D01*
Y39685D01*
X30148Y39636D01*
X30000D01*
X30098D02*
X30197Y39537D01*
X30295Y39833D02*
X30492D01*
Y39783D01*
X30295Y39587D01*
Y39537D01*
X28189Y42372D02*
Y42667D01*
X28337D01*
X28386Y42618D01*
Y42520D01*
X28337Y42470D01*
X28189D01*
X28287D02*
X28386Y42372D01*
X28484Y42618D02*
X28533Y42667D01*
X28632D01*
X28681Y42618D01*
Y42569D01*
X28632Y42520D01*
X28681Y42470D01*
Y42421D01*
X28632Y42372D01*
X28533D01*
X28484Y42421D01*
Y42470D01*
X28533Y42520D01*
X28484Y42569D01*
Y42618D01*
X28533Y42520D02*
X28632D01*
X28730Y39547D02*
Y39842D01*
X28878D01*
X28927Y39793D01*
Y39695D01*
X28878Y39646D01*
X28730D01*
X28829D02*
X28927Y39547D01*
X29025D02*
X29124D01*
X29075D01*
Y39842D01*
X29025Y39793D01*
X29271Y39547D02*
X29370D01*
X29321D01*
Y39842D01*
X29271Y39793D01*
X28455Y39134D02*
Y39429D01*
X28602D01*
X28652Y39380D01*
Y39281D01*
X28602Y39232D01*
X28455D01*
X28553D02*
X28652Y39134D01*
X28750D02*
X28848D01*
X28799D01*
Y39429D01*
X28750Y39380D01*
X29193Y39134D02*
X28996D01*
X29193Y39331D01*
Y39380D01*
X29143Y39429D01*
X29045D01*
X28996Y39380D01*
X37697Y35817D02*
Y36112D01*
X37844D01*
X37894Y36063D01*
Y35965D01*
X37844Y35915D01*
X37697D01*
X37795D02*
X37894Y35817D01*
X37992D02*
X38090D01*
X38041D01*
Y36112D01*
X37992Y36063D01*
X38238D02*
X38287Y36112D01*
X38386D01*
X38435Y36063D01*
Y36014D01*
X38386Y35965D01*
X38336D01*
X38386D01*
X38435Y35915D01*
Y35866D01*
X38386Y35817D01*
X38287D01*
X38238Y35866D01*
X32156Y42362D02*
Y42657D01*
X32303D01*
X32352Y42608D01*
Y42510D01*
X32303Y42461D01*
X32156D01*
X32254D02*
X32352Y42362D01*
X32451D02*
X32549D01*
X32500D01*
Y42657D01*
X32451Y42608D01*
X32697Y42657D02*
X32893D01*
Y42608D01*
X32697Y42411D01*
Y42362D01*
X30925Y42333D02*
Y42628D01*
X31073D01*
X31122Y42579D01*
Y42480D01*
X31073Y42431D01*
X30925D01*
X31024D02*
X31122Y42333D01*
X31417D02*
X31220D01*
X31417Y42529D01*
Y42579D01*
X31368Y42628D01*
X31270D01*
X31220Y42579D01*
X31516D02*
X31565Y42628D01*
X31663D01*
X31712Y42579D01*
Y42382D01*
X31663Y42333D01*
X31565D01*
X31516Y42382D01*
Y42579D01*
X25512Y37234D02*
Y37529D01*
X25659D01*
X25709Y37480D01*
Y37382D01*
X25659Y37333D01*
X25512D01*
X25610D02*
X25709Y37234D01*
X26004D02*
X25807D01*
X26004Y37431D01*
Y37480D01*
X25955Y37529D01*
X25856D01*
X25807Y37480D01*
X26102D02*
X26151Y37529D01*
X26250D01*
X26299Y37480D01*
Y37431D01*
X26250Y37382D01*
X26201D01*
X26250D01*
X26299Y37333D01*
Y37283D01*
X26250Y37234D01*
X26151D01*
X26102Y37283D01*
X23986Y42185D02*
Y42480D01*
X24134D01*
X24183Y42431D01*
Y42333D01*
X24134Y42283D01*
X23986D01*
X24085D02*
X24183Y42185D01*
X24281Y42431D02*
X24331Y42480D01*
X24429D01*
X24478Y42431D01*
Y42382D01*
X24429Y42333D01*
X24380D01*
X24429D01*
X24478Y42283D01*
Y42234D01*
X24429Y42185D01*
X24331D01*
X24281Y42234D01*
X24577Y42431D02*
X24626Y42480D01*
X24724D01*
X24773Y42431D01*
Y42234D01*
X24724Y42185D01*
X24626D01*
X24577Y42234D01*
Y42431D01*
X23907Y34006D02*
X23612D01*
Y34153D01*
X23661Y34203D01*
X23760D01*
X23809Y34153D01*
Y34006D01*
Y34104D02*
X23907Y34203D01*
Y34449D02*
X23612D01*
X23760Y34301D01*
Y34498D01*
X23907Y34596D02*
Y34695D01*
Y34645D01*
X23612D01*
X23661Y34596D01*
X42293Y39035D02*
Y39331D01*
X42441D01*
X42490Y39281D01*
Y39183D01*
X42441Y39134D01*
X42293D01*
X42392D02*
X42490Y39035D01*
X42736D02*
Y39331D01*
X42588Y39183D01*
X42785D01*
X43080Y39035D02*
X42884D01*
X43080Y39232D01*
Y39281D01*
X43031Y39331D01*
X42933D01*
X42884Y39281D01*
X23917Y35089D02*
X23622D01*
Y35236D01*
X23671Y35285D01*
X23770D01*
X23819Y35236D01*
Y35089D01*
Y35187D02*
X23917Y35285D01*
Y35531D02*
X23622D01*
X23770Y35384D01*
Y35581D01*
X23671Y35679D02*
X23622Y35728D01*
Y35827D01*
X23671Y35876D01*
X23721D01*
X23770Y35827D01*
Y35777D01*
Y35827D01*
X23819Y35876D01*
X23868D01*
X23917Y35827D01*
Y35728D01*
X23868Y35679D01*
X37884Y45207D02*
X38081D01*
X38179Y45305D01*
X38081Y45403D01*
X37884D01*
Y45502D02*
X38179D01*
Y45649D01*
X38130Y45699D01*
X37933D01*
X37884Y45649D01*
Y45502D01*
X38179Y45994D02*
Y45797D01*
X37982Y45994D01*
X37933D01*
X37884Y45945D01*
Y45846D01*
X37933Y45797D01*
X25433Y38415D02*
Y38218D01*
X25531Y38120D01*
X25630Y38218D01*
Y38415D01*
X25728D02*
Y38120D01*
X25876D01*
X25925Y38169D01*
Y38366D01*
X25876Y38415D01*
X25728D01*
X26023Y38120D02*
X26122D01*
X26073D01*
Y38415D01*
X26023Y38366D01*
X26269D02*
X26319Y38415D01*
X26417D01*
X26466Y38366D01*
Y38169D01*
X26417Y38120D01*
X26319D01*
X26269Y38169D01*
Y38366D01*
X26752Y38691D02*
Y38494D01*
X26850Y38396D01*
X26949Y38494D01*
Y38691D01*
X27047D02*
Y38396D01*
X27195D01*
X27244Y38445D01*
Y38642D01*
X27195Y38691D01*
X27047D01*
X27342Y38396D02*
X27441D01*
X27392D01*
Y38691D01*
X27342Y38642D01*
X27588Y38396D02*
X27687D01*
X27638D01*
Y38691D01*
X27588Y38642D01*
X33475Y39488D02*
X33671D01*
X33770Y39587D01*
X33671Y39685D01*
X33475D01*
Y39783D02*
X33770D01*
Y39931D01*
X33720Y39980D01*
X33524D01*
X33475Y39931D01*
Y39783D01*
X33770Y40079D02*
Y40177D01*
Y40128D01*
X33475D01*
X33524Y40079D01*
X33770Y40472D02*
X33475D01*
X33622Y40325D01*
Y40521D01*
X30876Y40216D02*
Y40020D01*
X30974Y39921D01*
X31073Y40020D01*
Y40216D01*
X31171D02*
Y39921D01*
X31319D01*
X31368Y39970D01*
Y40167D01*
X31319Y40216D01*
X31171D01*
X31466Y39921D02*
X31565D01*
X31516D01*
Y40216D01*
X31466Y40167D01*
X31909Y40216D02*
X31712D01*
Y40069D01*
X31811Y40118D01*
X31860D01*
X31909Y40069D01*
Y39970D01*
X31860Y39921D01*
X31762D01*
X31712Y39970D01*
X42333Y46831D02*
Y46634D01*
X42431Y46535D01*
X42529Y46634D01*
Y46831D01*
X42628D02*
Y46535D01*
X42775D01*
X42825Y46585D01*
Y46781D01*
X42775Y46831D01*
X42628D01*
X42923Y46535D02*
X43021D01*
X42972D01*
Y46831D01*
X42923Y46781D01*
X43366Y46831D02*
X43267Y46781D01*
X43169Y46683D01*
Y46585D01*
X43218Y46535D01*
X43317D01*
X43366Y46585D01*
Y46634D01*
X43317Y46683D01*
X43169D01*
X20128Y41417D02*
Y41220D01*
X20226Y41122D01*
X20325Y41220D01*
Y41417D01*
X20423D02*
Y41122D01*
X20571D01*
X20620Y41171D01*
Y41368D01*
X20571Y41417D01*
X20423D01*
X20718Y41122D02*
X20817D01*
X20768D01*
Y41417D01*
X20718Y41368D01*
X20964Y41417D02*
X21161D01*
Y41368D01*
X20964Y41171D01*
Y41122D01*
X21339Y41427D02*
Y41230D01*
X21437Y41132D01*
X21535Y41230D01*
Y41427D01*
X21634D02*
Y41132D01*
X21781D01*
X21831Y41181D01*
Y41378D01*
X21781Y41427D01*
X21634D01*
X21929Y41132D02*
X22027D01*
X21978D01*
Y41427D01*
X21929Y41378D01*
X22175D02*
X22224Y41427D01*
X22323D01*
X22372Y41378D01*
Y41329D01*
X22323Y41279D01*
X22372Y41230D01*
Y41181D01*
X22323Y41132D01*
X22224D01*
X22175Y41181D01*
Y41230D01*
X22224Y41279D01*
X22175Y41329D01*
Y41378D01*
X22224Y41279D02*
X22323D01*
X22766Y39252D02*
Y39055D01*
X22864Y38957D01*
X22963Y39055D01*
Y39252D01*
X23061D02*
Y38957D01*
X23209D01*
X23258Y39006D01*
Y39203D01*
X23209Y39252D01*
X23061D01*
X23553Y38957D02*
X23356D01*
X23553Y39153D01*
Y39203D01*
X23504Y39252D01*
X23405D01*
X23356Y39203D01*
X23651D02*
X23700Y39252D01*
X23799D01*
X23848Y39203D01*
Y39006D01*
X23799Y38957D01*
X23700D01*
X23651Y39006D01*
Y39203D01*
X31506Y33209D02*
Y33012D01*
X31604Y32913D01*
X31703Y33012D01*
Y33209D01*
X31801D02*
Y32913D01*
X31949D01*
X31998Y32963D01*
Y33159D01*
X31949Y33209D01*
X31801D01*
X32293Y32913D02*
X32096D01*
X32293Y33110D01*
Y33159D01*
X32244Y33209D01*
X32145D01*
X32096Y33159D01*
X32588Y32913D02*
X32391D01*
X32588Y33110D01*
Y33159D01*
X32539Y33209D01*
X32441D01*
X32391Y33159D01*
X39203Y39518D02*
Y39321D01*
X39301Y39222D01*
X39400Y39321D01*
Y39518D01*
X39498D02*
Y39222D01*
X39646D01*
X39695Y39272D01*
Y39468D01*
X39646Y39518D01*
X39498D01*
X39990Y39222D02*
X39793D01*
X39990Y39419D01*
Y39468D01*
X39941Y39518D01*
X39842D01*
X39793Y39468D01*
X40088D02*
X40137Y39518D01*
X40236D01*
X40285Y39468D01*
Y39419D01*
X40236Y39370D01*
X40187D01*
X40236D01*
X40285Y39321D01*
Y39272D01*
X40236Y39222D01*
X40137D01*
X40088Y39272D01*
X40492Y39626D02*
X40689D01*
X40787Y39724D01*
X40689Y39823D01*
X40492D01*
Y39921D02*
X40787D01*
Y40069D01*
X40738Y40118D01*
X40541D01*
X40492Y40069D01*
Y39921D01*
X40787Y40413D02*
Y40216D01*
X40591Y40413D01*
X40541D01*
X40492Y40364D01*
Y40266D01*
X40541Y40216D01*
X40787Y40659D02*
X40492D01*
X40640Y40512D01*
Y40708D01*
X41860Y36909D02*
Y36713D01*
X41959Y36614D01*
X42057Y36713D01*
Y36909D01*
X42155D02*
Y36614D01*
X42303D01*
X42352Y36663D01*
Y36860D01*
X42303Y36909D01*
X42155D01*
X42647Y36614D02*
X42451D01*
X42647Y36811D01*
Y36860D01*
X42598Y36909D01*
X42500D01*
X42451Y36860D01*
X42746Y36909D02*
X42943D01*
Y36860D01*
X42746Y36663D01*
Y36614D01*
X22057Y44370D02*
Y44173D01*
X22155Y44075D01*
X22254Y44173D01*
Y44370D01*
X22352D02*
X22549D01*
X22451D01*
Y44075D01*
X22647D02*
X22746D01*
X22697D01*
Y44370D01*
X22647Y44321D01*
X22884Y36338D02*
X23081Y36043D01*
Y36338D02*
X22884Y36043D01*
X23179D02*
Y36338D01*
X23327D01*
X23376Y36289D01*
Y36191D01*
X23327Y36142D01*
X23179D01*
X23474Y36043D02*
X23573D01*
X23523D01*
Y36338D01*
X23474Y36289D01*
X40965Y43760D02*
X41161Y43465D01*
Y43760D02*
X40965Y43465D01*
X41260D02*
Y43760D01*
X41407D01*
X41457Y43711D01*
Y43612D01*
X41407Y43563D01*
X41260D01*
X41555Y43711D02*
X41604Y43760D01*
X41703D01*
X41752Y43711D01*
Y43661D01*
X41703Y43612D01*
X41653D01*
X41703D01*
X41752Y43563D01*
Y43514D01*
X41703Y43465D01*
X41604D01*
X41555Y43514D01*
X24990Y33848D02*
X24892D01*
X24941D01*
Y33602D01*
X24892Y33553D01*
X24843D01*
X24793Y33602D01*
X25285Y33553D02*
X25088D01*
X25285Y33750D01*
Y33799D01*
X25236Y33848D01*
X25138D01*
X25088Y33799D01*
X41968Y36378D02*
Y36181D01*
X42067Y36083D01*
X42165Y36181D01*
Y36378D01*
X42264D02*
X42460D01*
X42362D01*
Y36083D01*
X42559Y36329D02*
X42608Y36378D01*
X42706D01*
X42756Y36329D01*
Y36279D01*
X42706Y36230D01*
X42657D01*
X42706D01*
X42756Y36181D01*
Y36132D01*
X42706Y36083D01*
X42608D01*
X42559Y36132D01*
X23346Y46663D02*
X23543Y46368D01*
Y46663D02*
X23346Y46368D01*
X23642D02*
Y46663D01*
X23789D01*
X23838Y46614D01*
Y46516D01*
X23789Y46466D01*
X23642D01*
X24134Y46368D02*
X23937D01*
X24134Y46565D01*
Y46614D01*
X24084Y46663D01*
X23986D01*
X23937Y46614D01*
X33209Y30236D02*
X32894D01*
Y30394D01*
X32946Y30446D01*
X33051D01*
X33104Y30394D01*
Y30236D01*
Y30341D02*
X33209Y30446D01*
Y30709D02*
X32894D01*
X33051Y30551D01*
Y30761D01*
X33209Y31023D02*
X32894D01*
X33051Y30866D01*
Y31076D01*
X28468Y34091D02*
X28415Y34144D01*
X28310D01*
X28258Y34091D01*
Y33881D01*
X28310Y33829D01*
X28415D01*
X28468Y33881D01*
X28783Y33829D02*
X28573D01*
X28783Y34039D01*
Y34091D01*
X28730Y34144D01*
X28625D01*
X28573Y34091D01*
X29097Y34144D02*
X28888D01*
Y33986D01*
X28993Y34039D01*
X29045D01*
X29097Y33986D01*
Y33881D01*
X29045Y33829D01*
X28940D01*
X28888Y33881D01*
X33907Y44783D02*
X34039D01*
X33973D01*
Y45177D01*
X33907Y45111D01*
D66*
X31737Y31266D02*
X32087Y31766D01*
X32437Y31266D01*
X31737Y31766D02*
X32437D01*
X31737Y31266D02*
X32437D01*
X42270Y40207D02*
X42770Y39857D01*
X42270Y40207D02*
X42770Y40557D01*
X42270Y39857D02*
Y40557D01*
X42770Y39857D02*
Y40557D01*
X21845Y37917D02*
Y38717D01*
X21245Y37917D02*
Y38717D01*
Y37917D02*
X21845Y38317D01*
X21245Y38717D02*
X21845Y38317D01*
M02*
