G04*
G04 #@! TF.GenerationSoftware,Altium Limited,Altium Designer,18.1.7 (191)*
G04*
G04 Layer_Color=8388736*
%FSLAX24Y24*%
%MOIN*%
G70*
G01*
G75*
%ADD23R,0.0394X0.0315*%
%ADD24R,0.0433X0.0394*%
%ADD25R,0.0315X0.0394*%
%ADD26R,0.0276X0.0256*%
%ADD27R,0.0394X0.0433*%
%ADD28R,0.0256X0.0276*%
G04:AMPARAMS|DCode=29|XSize=35.4mil|YSize=39.4mil|CornerRadius=9.8mil|HoleSize=0mil|Usage=FLASHONLY|Rotation=0.000|XOffset=0mil|YOffset=0mil|HoleType=Round|Shape=RoundedRectangle|*
%AMROUNDEDRECTD29*
21,1,0.0354,0.0197,0,0,0.0*
21,1,0.0157,0.0394,0,0,0.0*
1,1,0.0197,0.0079,-0.0098*
1,1,0.0197,-0.0079,-0.0098*
1,1,0.0197,-0.0079,0.0098*
1,1,0.0197,0.0079,0.0098*
%
%ADD29ROUNDEDRECTD29*%
G04:AMPARAMS|DCode=30|XSize=94.5mil|YSize=86.6mil|CornerRadius=14.4mil|HoleSize=0mil|Usage=FLASHONLY|Rotation=90.000|XOffset=0mil|YOffset=0mil|HoleType=Round|Shape=RoundedRectangle|*
%AMROUNDEDRECTD30*
21,1,0.0945,0.0579,0,0,90.0*
21,1,0.0657,0.0866,0,0,90.0*
1,1,0.0287,0.0289,0.0329*
1,1,0.0287,0.0289,-0.0329*
1,1,0.0287,-0.0289,-0.0329*
1,1,0.0287,-0.0289,0.0329*
%
%ADD30ROUNDEDRECTD30*%
%ADD31R,0.0492X0.0610*%
%ADD32O,0.0150X0.0374*%
%ADD33O,0.0374X0.0150*%
%ADD34R,0.1398X0.1398*%
%ADD35R,0.0591X0.0453*%
%ADD36R,0.0610X0.0492*%
%ADD37C,0.0669*%
%ADD38R,0.0669X0.0669*%
D23*
X73465Y16939D02*
D03*
Y17549D02*
D03*
D24*
X72018Y16752D02*
D03*
X72687D02*
D03*
X73868Y23081D02*
D03*
X73199D02*
D03*
X70256Y17313D02*
D03*
X70925D02*
D03*
X70276Y25069D02*
D03*
X69606D02*
D03*
Y23602D02*
D03*
X70276D02*
D03*
X72943Y25758D02*
D03*
X73612D02*
D03*
X70571Y20030D02*
D03*
X69902D02*
D03*
X72195Y25757D02*
D03*
X71526D02*
D03*
X73169Y21191D02*
D03*
X73839D02*
D03*
X73445Y23720D02*
D03*
X72776D02*
D03*
D25*
X69616Y17313D02*
D03*
X69006D02*
D03*
D26*
X70276Y24183D02*
D03*
Y24518D02*
D03*
X69528Y22933D02*
D03*
Y22598D02*
D03*
X68660Y22648D02*
D03*
Y22982D02*
D03*
D27*
X69528Y21299D02*
D03*
Y21969D02*
D03*
X68652Y24921D02*
D03*
Y24252D02*
D03*
X68661Y21319D02*
D03*
Y21988D02*
D03*
X71260Y19587D02*
D03*
Y20256D02*
D03*
X71073Y24547D02*
D03*
Y23878D02*
D03*
D28*
X68661Y23612D02*
D03*
X68996D02*
D03*
D29*
X72687Y17372D02*
D03*
X71887D02*
D03*
D30*
X73494Y24724D02*
D03*
X71919D02*
D03*
D31*
X73287Y21939D02*
D03*
X73996D02*
D03*
D32*
X70778Y22864D02*
D03*
X70974D02*
D03*
X71171D02*
D03*
X71368D02*
D03*
X71565D02*
D03*
X71762D02*
D03*
X71959D02*
D03*
X72156D02*
D03*
Y20915D02*
D03*
X71959D02*
D03*
X71762D02*
D03*
X71565D02*
D03*
X71368D02*
D03*
X71171D02*
D03*
X70974D02*
D03*
X70778D02*
D03*
D33*
X72441Y22579D02*
D03*
Y22382D02*
D03*
Y22185D02*
D03*
Y21988D02*
D03*
Y21791D02*
D03*
Y21594D02*
D03*
Y21398D02*
D03*
Y21201D02*
D03*
X70492D02*
D03*
Y21398D02*
D03*
Y21594D02*
D03*
Y21791D02*
D03*
Y21988D02*
D03*
Y22185D02*
D03*
Y22382D02*
D03*
Y22579D02*
D03*
D34*
X71467Y21890D02*
D03*
D35*
X73175Y19661D02*
D03*
Y20409D02*
D03*
D36*
X73179Y18982D02*
D03*
Y18274D02*
D03*
D37*
X71012Y27470D02*
D03*
X72012D02*
D03*
X72049Y15344D02*
D03*
X71049D02*
D03*
X69047D02*
D03*
X68047D02*
D03*
X69537Y26969D02*
D03*
Y16329D02*
D03*
D38*
X73012Y27470D02*
D03*
X70049Y15344D02*
D03*
X67047D02*
D03*
M02*
