G04 Layer_Color=8388736*
%FSLAX24Y24*%
%MOIN*%
G70*
G01*
G75*
%ADD40R,0.7254X0.4665*%
%ADD47R,0.2836X0.1261*%
%ADD48R,0.0493X0.0631*%
G04:AMPARAMS|DCode=49|XSize=94.6mil|YSize=76.9mil|CornerRadius=21.2mil|HoleSize=0mil|Usage=FLASHONLY|Rotation=180.000|XOffset=0mil|YOffset=0mil|HoleType=Round|Shape=RoundedRectangle|*
%AMROUNDEDRECTD49*
21,1,0.0946,0.0344,0,0,180.0*
21,1,0.0522,0.0769,0,0,180.0*
1,1,0.0424,-0.0261,0.0172*
1,1,0.0424,0.0261,0.0172*
1,1,0.0424,0.0261,-0.0172*
1,1,0.0424,-0.0261,-0.0172*
%
%ADD49ROUNDEDRECTD49*%
%ADD50R,0.0631X0.0789*%
%ADD51R,0.0769X0.0493*%
%ADD52R,0.0651X0.0533*%
%ADD53R,0.2249X0.3289*%
%ADD54O,0.0749X0.0360*%
G04:AMPARAMS|DCode=55|XSize=220.6mil|YSize=122.2mil|CornerRadius=32.5mil|HoleSize=0mil|Usage=FLASHONLY|Rotation=270.000|XOffset=0mil|YOffset=0mil|HoleType=Round|Shape=RoundedRectangle|*
%AMROUNDEDRECTD55*
21,1,0.2206,0.0571,0,0,270.0*
21,1,0.1555,0.1222,0,0,270.0*
1,1,0.0651,-0.0285,-0.0778*
1,1,0.0651,-0.0285,0.0778*
1,1,0.0651,0.0285,0.0778*
1,1,0.0651,0.0285,-0.0778*
%
%ADD55ROUNDEDRECTD55*%
%ADD56R,0.0789X0.0631*%
G04:AMPARAMS|DCode=57|XSize=94.6mil|YSize=76.9mil|CornerRadius=21.2mil|HoleSize=0mil|Usage=FLASHONLY|Rotation=270.000|XOffset=0mil|YOffset=0mil|HoleType=Round|Shape=RoundedRectangle|*
%AMROUNDEDRECTD57*
21,1,0.0946,0.0344,0,0,270.0*
21,1,0.0522,0.0769,0,0,270.0*
1,1,0.0424,-0.0172,-0.0261*
1,1,0.0424,-0.0172,0.0261*
1,1,0.0424,0.0172,0.0261*
1,1,0.0424,0.0172,-0.0261*
%
%ADD57ROUNDEDRECTD57*%
G04:AMPARAMS|DCode=58|XSize=86.7mil|YSize=126.1mil|CornerRadius=23.7mil|HoleSize=0mil|Usage=FLASHONLY|Rotation=270.000|XOffset=0mil|YOffset=0mil|HoleType=Round|Shape=RoundedRectangle|*
%AMROUNDEDRECTD58*
21,1,0.0867,0.0787,0,0,270.0*
21,1,0.0394,0.1261,0,0,270.0*
1,1,0.0474,-0.0394,-0.0197*
1,1,0.0474,-0.0394,0.0197*
1,1,0.0474,0.0394,0.0197*
1,1,0.0474,0.0394,-0.0197*
%
%ADD58ROUNDEDRECTD58*%
G04:AMPARAMS|DCode=59|XSize=145.8mil|YSize=86.7mil|CornerRadius=23.7mil|HoleSize=0mil|Usage=FLASHONLY|Rotation=0.000|XOffset=0mil|YOffset=0mil|HoleType=Round|Shape=RoundedRectangle|*
%AMROUNDEDRECTD59*
21,1,0.1458,0.0394,0,0,0.0*
21,1,0.0984,0.0867,0,0,0.0*
1,1,0.0474,0.0492,-0.0197*
1,1,0.0474,-0.0492,-0.0197*
1,1,0.0474,-0.0492,0.0197*
1,1,0.0474,0.0492,0.0197*
%
%ADD59ROUNDEDRECTD59*%
G04:AMPARAMS|DCode=60|XSize=287.5mil|YSize=86.7mil|CornerRadius=23.7mil|HoleSize=0mil|Usage=FLASHONLY|Rotation=0.000|XOffset=0mil|YOffset=0mil|HoleType=Round|Shape=RoundedRectangle|*
%AMROUNDEDRECTD60*
21,1,0.2875,0.0394,0,0,0.0*
21,1,0.2402,0.0867,0,0,0.0*
1,1,0.0474,0.1201,-0.0197*
1,1,0.0474,-0.1201,-0.0197*
1,1,0.0474,-0.1201,0.0197*
1,1,0.0474,0.1201,0.0197*
%
%ADD60ROUNDEDRECTD60*%
G04:AMPARAMS|DCode=61|XSize=204.9mil|YSize=126.1mil|CornerRadius=33.5mil|HoleSize=0mil|Usage=FLASHONLY|Rotation=270.000|XOffset=0mil|YOffset=0mil|HoleType=Round|Shape=RoundedRectangle|*
%AMROUNDEDRECTD61*
21,1,0.2049,0.0591,0,0,270.0*
21,1,0.1378,0.1261,0,0,270.0*
1,1,0.0671,-0.0295,-0.0689*
1,1,0.0671,-0.0295,0.0689*
1,1,0.0671,0.0295,0.0689*
1,1,0.0671,0.0295,-0.0689*
%
%ADD61ROUNDEDRECTD61*%
G04:AMPARAMS|DCode=62|XSize=165.5mil|YSize=126.1mil|CornerRadius=33.5mil|HoleSize=0mil|Usage=FLASHONLY|Rotation=270.000|XOffset=0mil|YOffset=0mil|HoleType=Round|Shape=RoundedRectangle|*
%AMROUNDEDRECTD62*
21,1,0.1655,0.0591,0,0,270.0*
21,1,0.0984,0.1261,0,0,270.0*
1,1,0.0671,-0.0295,-0.0492*
1,1,0.0671,-0.0295,0.0492*
1,1,0.0671,0.0295,0.0492*
1,1,0.0671,0.0295,-0.0492*
%
%ADD62ROUNDEDRECTD62*%
G04:AMPARAMS|DCode=63|XSize=86.7mil|YSize=126.1mil|CornerRadius=23.7mil|HoleSize=0mil|Usage=FLASHONLY|Rotation=180.000|XOffset=0mil|YOffset=0mil|HoleType=Round|Shape=RoundedRectangle|*
%AMROUNDEDRECTD63*
21,1,0.0867,0.0787,0,0,180.0*
21,1,0.0394,0.1261,0,0,180.0*
1,1,0.0474,-0.0197,0.0394*
1,1,0.0474,0.0197,0.0394*
1,1,0.0474,0.0197,-0.0394*
1,1,0.0474,-0.0197,-0.0394*
%
%ADD63ROUNDEDRECTD63*%
G04:AMPARAMS|DCode=64|XSize=88mil|YSize=68mil|CornerRadius=19mil|HoleSize=0mil|Usage=FLASHONLY|Rotation=0.000|XOffset=0mil|YOffset=0mil|HoleType=Round|Shape=RoundedRectangle|*
%AMROUNDEDRECTD64*
21,1,0.0880,0.0300,0,0,0.0*
21,1,0.0500,0.0680,0,0,0.0*
1,1,0.0380,0.0250,-0.0150*
1,1,0.0380,-0.0250,-0.0150*
1,1,0.0380,-0.0250,0.0150*
1,1,0.0380,0.0250,0.0150*
%
%ADD64ROUNDEDRECTD64*%
G04:AMPARAMS|DCode=65|XSize=220.6mil|YSize=122.2mil|CornerRadius=32.5mil|HoleSize=0mil|Usage=FLASHONLY|Rotation=180.000|XOffset=0mil|YOffset=0mil|HoleType=Round|Shape=RoundedRectangle|*
%AMROUNDEDRECTD65*
21,1,0.2206,0.0571,0,0,180.0*
21,1,0.1555,0.1222,0,0,180.0*
1,1,0.0651,-0.0778,0.0285*
1,1,0.0651,0.0778,0.0285*
1,1,0.0651,0.0778,-0.0285*
1,1,0.0651,-0.0778,-0.0285*
%
%ADD65ROUNDEDRECTD65*%
%ADD66R,0.0493X0.0769*%
G04:AMPARAMS|DCode=67|XSize=126.1mil|YSize=204.9mil|CornerRadius=33.5mil|HoleSize=0mil|Usage=FLASHONLY|Rotation=0.000|XOffset=0mil|YOffset=0mil|HoleType=Round|Shape=RoundedRectangle|*
%AMROUNDEDRECTD67*
21,1,0.1261,0.1378,0,0,0.0*
21,1,0.0591,0.2049,0,0,0.0*
1,1,0.0671,0.0295,-0.0689*
1,1,0.0671,-0.0295,-0.0689*
1,1,0.0671,-0.0295,0.0689*
1,1,0.0671,0.0295,0.0689*
%
%ADD67ROUNDEDRECTD67*%
%ADD68C,0.3230*%
G04:AMPARAMS|DCode=69|XSize=559.2mil|YSize=401.7mil|CornerRadius=102.4mil|HoleSize=0mil|Usage=FLASHONLY|Rotation=0.000|XOffset=0mil|YOffset=0mil|HoleType=Round|Shape=RoundedRectangle|*
%AMROUNDEDRECTD69*
21,1,0.5592,0.1969,0,0,0.0*
21,1,0.3543,0.4017,0,0,0.0*
1,1,0.2049,0.1772,-0.0984*
1,1,0.2049,-0.1772,-0.0984*
1,1,0.2049,-0.1772,0.0984*
1,1,0.2049,0.1772,0.0984*
%
%ADD69ROUNDEDRECTD69*%
G36*
X37957Y49202D02*
X38053Y49163D01*
X38135Y49100D01*
X38198Y49017D01*
X38238Y48922D01*
X38251Y48819D01*
X38238Y48716D01*
X38198Y48620D01*
X38135Y48538D01*
X38053Y48475D01*
X37957Y48435D01*
X37854Y48422D01*
X37752Y48435D01*
X37656Y48475D01*
X37574Y48538D01*
X37510Y48620D01*
X37471Y48716D01*
X37457Y48819D01*
X37471Y48922D01*
X37510Y49017D01*
X37574Y49100D01*
X37656Y49163D01*
X37752Y49202D01*
X37854Y49216D01*
X37957Y49202D01*
D02*
G37*
G36*
X49552Y9468D02*
X49647Y9429D01*
X49730Y9365D01*
X49793Y9283D01*
X49832Y9187D01*
X49846Y9085D01*
X49832Y8982D01*
X49793Y8886D01*
X49730Y8804D01*
X49647Y8741D01*
X49552Y8701D01*
X49449Y8688D01*
X49346Y8701D01*
X49250Y8741D01*
X49168Y8804D01*
X49105Y8886D01*
X49065Y8982D01*
X49052Y9085D01*
X49065Y9187D01*
X49105Y9283D01*
X49168Y9365D01*
X49250Y9429D01*
X49346Y9468D01*
X49449Y9482D01*
X49552Y9468D01*
D02*
G37*
D40*
X44060Y48907D02*
D03*
D47*
X53120Y7480D02*
D03*
Y5906D02*
D03*
X53130Y50364D02*
D03*
X53120Y4331D02*
D03*
D48*
X50955Y11112D02*
D03*
X51703D02*
D03*
X50935Y37067D02*
D03*
X51683D02*
D03*
X50896Y24173D02*
D03*
X51644D02*
D03*
X39360Y10718D02*
D03*
X38612D02*
D03*
X40098Y17077D02*
D03*
X39350D02*
D03*
X40246Y25472D02*
D03*
X39498D02*
D03*
D49*
X41929Y10374D02*
D03*
X40315D02*
D03*
X41713Y18307D02*
D03*
X40098D02*
D03*
X45640Y26506D02*
D03*
X44026D02*
D03*
D50*
X37766Y9124D02*
D03*
X36624D02*
D03*
X40315Y9232D02*
D03*
X41457D02*
D03*
X37776Y16368D02*
D03*
X36634D02*
D03*
X37874Y24764D02*
D03*
X36732D02*
D03*
D51*
X39114Y9970D02*
D03*
Y8829D02*
D03*
X40945Y17077D02*
D03*
Y15935D02*
D03*
X41043Y25472D02*
D03*
Y24331D02*
D03*
X35797Y30837D02*
D03*
Y29695D02*
D03*
D52*
X37766Y10020D02*
D03*
Y10728D02*
D03*
X38573Y16368D02*
D03*
Y17077D02*
D03*
X38691Y24764D02*
D03*
Y25472D02*
D03*
D53*
X39685Y6309D02*
D03*
X39675Y21762D02*
D03*
X39685Y13337D02*
D03*
D54*
X41831Y4567D02*
D03*
Y5268D02*
D03*
Y5969D02*
D03*
Y6669D02*
D03*
Y7370D02*
D03*
Y8071D02*
D03*
X37539Y4567D02*
D03*
Y5268D02*
D03*
Y5969D02*
D03*
Y6669D02*
D03*
Y7370D02*
D03*
Y8071D02*
D03*
X41821Y20020D02*
D03*
Y20720D02*
D03*
Y21421D02*
D03*
Y22122D02*
D03*
Y22823D02*
D03*
Y23524D02*
D03*
X37530Y20020D02*
D03*
Y20720D02*
D03*
Y21421D02*
D03*
Y22122D02*
D03*
Y22823D02*
D03*
Y23524D02*
D03*
X41831Y11594D02*
D03*
Y12295D02*
D03*
Y12996D02*
D03*
Y13697D02*
D03*
Y14398D02*
D03*
Y15098D02*
D03*
X37539Y11594D02*
D03*
Y12295D02*
D03*
Y12996D02*
D03*
Y13697D02*
D03*
Y14398D02*
D03*
Y15098D02*
D03*
D55*
X47018Y15925D02*
D03*
X43120D02*
D03*
X42323Y39656D02*
D03*
X46220D02*
D03*
X36122D02*
D03*
X40020D02*
D03*
X47037Y9833D02*
D03*
X43140D02*
D03*
X47028Y22293D02*
D03*
X43130D02*
D03*
D56*
X41831Y17077D02*
D03*
Y15935D02*
D03*
X41929Y25472D02*
D03*
Y24331D02*
D03*
D57*
X42746Y28169D02*
D03*
Y26555D02*
D03*
D58*
X43583Y45394D02*
D03*
Y43394D02*
D03*
D59*
X40797Y44321D02*
D03*
Y45502D02*
D03*
D60*
X36978Y44321D02*
D03*
Y45502D02*
D03*
D61*
X43376Y35815D02*
D03*
X46201D02*
D03*
D62*
X43376Y29815D02*
D03*
X46201D02*
D03*
D63*
X36132Y33839D02*
D03*
Y35807D02*
D03*
D64*
X37726Y33807D02*
D03*
X41226D02*
D03*
X37726Y35807D02*
D03*
X41226D02*
D03*
D65*
X38907Y28169D02*
D03*
Y32067D02*
D03*
D66*
X42175Y42677D02*
D03*
X41033D02*
D03*
X38543D02*
D03*
X37402D02*
D03*
D67*
X52726Y37077D02*
D03*
X49774D02*
D03*
X52736Y11112D02*
D03*
X49783D02*
D03*
X52726Y24183D02*
D03*
X49774D02*
D03*
D68*
X44882Y5709D02*
D03*
D69*
Y48622D02*
D03*
M02*
