G04*
G04 #@! TF.GenerationSoftware,Altium Limited,Altium Designer,18.1.7 (191)*
G04*
G04 Layer_Color=32896*
%FSLAX24Y24*%
%MOIN*%
G70*
G01*
G75*
%ADD12C,0.0070*%
%ADD14C,0.0079*%
D12*
X53957Y42520D02*
X55000D01*
X53957Y42008D02*
X55000D01*
X53957D02*
Y42520D01*
X55000Y42008D02*
Y42520D01*
D14*
X54360Y22628D02*
Y23061D01*
X54990Y22628D02*
Y23061D01*
X55679Y31132D02*
X56112D01*
X55679Y30502D02*
X56112D01*
X53957Y34439D02*
Y34872D01*
X54587Y34439D02*
Y34872D01*
X48150Y24262D02*
X48583D01*
X48150Y24892D02*
X48583D01*
X38405Y39882D02*
X38195D01*
X38300D01*
Y39567D01*
X38090Y39672D02*
X37880D01*
X38090Y39777D02*
X37880D01*
X37776Y39567D02*
X37671D01*
X37723D01*
Y39882D01*
X37776Y39829D01*
X37513Y39567D02*
Y39619D01*
X37461D01*
Y39567D01*
X37513D01*
X37041Y39882D02*
X37146Y39829D01*
X37251Y39724D01*
Y39619D01*
X37198Y39567D01*
X37093D01*
X37041Y39619D01*
Y39672D01*
X37093Y39724D01*
X37251D01*
X36936Y39567D02*
Y39777D01*
X36883D01*
X36831Y39724D01*
Y39567D01*
Y39724D01*
X36778Y39777D01*
X36726Y39724D01*
Y39567D01*
X36621D02*
Y39777D01*
X36569D01*
X36516Y39724D01*
Y39567D01*
Y39724D01*
X36464Y39777D01*
X36411Y39724D01*
Y39567D01*
X35781Y39882D02*
X35991D01*
Y39567D01*
X35781D01*
X35991Y39724D02*
X35886D01*
X35676Y39777D02*
Y39567D01*
Y39672D01*
X35624Y39724D01*
X35572Y39777D01*
X35519D01*
X35362Y39672D02*
X35152D01*
X35362Y39777D02*
X35152D01*
X34889Y39567D02*
Y39882D01*
X35047Y39724D01*
X34837D01*
X34732Y39567D02*
Y39619D01*
X34679D01*
Y39567D01*
X34732D01*
X34312D02*
Y39882D01*
X34470Y39724D01*
X34260D01*
X33630Y39829D02*
X33682Y39882D01*
X33787D01*
X33840Y39829D01*
Y39619D01*
X33787Y39567D01*
X33682D01*
X33630Y39619D01*
Y39724D01*
X33735D01*
X33315Y39829D02*
X33368Y39882D01*
X33472D01*
X33525Y39829D01*
Y39777D01*
X33472Y39724D01*
X33368D01*
X33315Y39672D01*
Y39619D01*
X33368Y39567D01*
X33472D01*
X33525Y39619D01*
X33210Y39567D02*
Y39882D01*
X33105Y39777D01*
X33000Y39882D01*
Y39567D01*
X32895D02*
X32685Y39777D01*
X32580Y39829D02*
X32528Y39882D01*
X32423D01*
X32370Y39829D01*
Y39777D01*
X32423Y39724D01*
X32475D01*
X32423D01*
X32370Y39672D01*
Y39619D01*
X32423Y39567D01*
X32528D01*
X32580Y39619D01*
X32056Y39829D02*
X32108Y39882D01*
X32213D01*
X32266Y39829D01*
Y39619D01*
X32213Y39567D01*
X32108D01*
X32056Y39619D01*
Y39724D01*
X32161D01*
X54862Y42687D02*
Y43002D01*
X54705D01*
X54652Y42949D01*
Y42844D01*
X54705Y42792D01*
X54862D01*
X54757D02*
X54652Y42687D01*
X54547Y42949D02*
X54495Y43002D01*
X54390D01*
X54337Y42949D01*
Y42897D01*
X54390Y42844D01*
X54337Y42792D01*
Y42739D01*
X54390Y42687D01*
X54495D01*
X54547Y42739D01*
Y42792D01*
X54495Y42844D01*
X54547Y42897D01*
Y42949D01*
X54495Y42844D02*
X54390D01*
X54023Y42687D02*
X54232D01*
X54023Y42897D01*
Y42949D01*
X54075Y43002D01*
X54180D01*
X54232Y42949D01*
X54754Y34252D02*
X55069D01*
Y34409D01*
X55016Y34462D01*
X54911D01*
X54859Y34409D01*
Y34252D01*
Y34357D02*
X54754Y34462D01*
X55069Y34567D02*
Y34777D01*
X55016D01*
X54806Y34567D01*
X54754D01*
X54806Y34882D02*
X54754Y34934D01*
Y35039D01*
X54806Y35092D01*
X55016D01*
X55069Y35039D01*
Y34934D01*
X55016Y34882D01*
X54964D01*
X54911Y34934D01*
Y35092D01*
X48770Y23770D02*
Y24085D01*
X48612D01*
X48560Y24032D01*
Y23927D01*
X48612Y23875D01*
X48770D01*
X48665D02*
X48560Y23770D01*
X48455Y24085D02*
X48245D01*
Y24032D01*
X48455Y23822D01*
Y23770D01*
X48140Y24032D02*
X48087Y24085D01*
X47983D01*
X47930Y24032D01*
Y23980D01*
X47983Y23927D01*
X47930Y23875D01*
Y23822D01*
X47983Y23770D01*
X48087D01*
X48140Y23822D01*
Y23875D01*
X48087Y23927D01*
X48140Y23980D01*
Y24032D01*
X48087Y23927D02*
X47983D01*
X56319Y31341D02*
Y31655D01*
X56161D01*
X56109Y31603D01*
Y31498D01*
X56161Y31446D01*
X56319D01*
X56214D02*
X56109Y31341D01*
X56004Y31655D02*
X55794D01*
Y31603D01*
X56004Y31393D01*
Y31341D01*
X55689Y31655D02*
X55479D01*
Y31603D01*
X55689Y31393D01*
Y31341D01*
X55157Y22441D02*
X55472D01*
Y22598D01*
X55420Y22651D01*
X55315D01*
X55262Y22598D01*
Y22441D01*
Y22546D02*
X55157Y22651D01*
X55472Y22756D02*
Y22966D01*
X55420D01*
X55210Y22756D01*
X55157D01*
X55472Y23281D02*
X55420Y23176D01*
X55315Y23071D01*
X55210D01*
X55157Y23123D01*
Y23228D01*
X55210Y23281D01*
X55262D01*
X55315Y23228D01*
Y23071D01*
M02*
