M48
;Layer_Color=9474304
;FILE_FORMAT=2:4
INCH,LZ
;TYPE=PLATED
T1F00S00C0.0118
T2F00S00C0.0197
T3F00S00C0.0315
T4F00S00C0.0354
T5F00S00C0.0362
T6F00S00C0.0380
T7F00S00C0.0390
T8F00S00C0.0394
T9F00S00C0.0402
T10F00S00C0.0433
T11F00S00C0.0472
T12F00S00C0.0531
T13F00S00C0.0551
T14F00S00C0.0591
T15F00S00C0.0630
T16F00S00C0.1575
%
T01
X01186Y000856
X019577Y000817
X021378Y000856
X022175Y000955
X037244Y001181
X038228Y00315
X03749Y008553
X037136Y008327
X037146Y010915
X036909Y010748
X037028Y01123
X036904Y011732
X039557Y011496
X039469Y010699
X03876Y012953
X039134Y013376
X038868Y01436
X042018Y013307
X042067Y012933
X042037Y012589
X041811Y012254
X04315Y012126
Y011811
X043538
Y012126
Y0125
X043927
Y012126
Y011811
X045089Y012067
X045118Y012992
X04315Y0125
X042707Y013327
X044134Y014961
X046102
X045768Y016014
X045738Y016378
X048071Y014961
X049488Y013907
X049055Y012992
X050039Y011024
X04627Y007904
X04503Y00749
X044892Y008455
X045305Y008642
X043937Y008022
X043602Y005492
X045118Y005118
X04627Y005699
X046929Y006289
X047087Y005118
X036211Y005522
X036407Y00627
X036722Y006831
X035463Y007411
X036102Y00878
X036604Y009154
X036496Y009469
X036742Y011033
X036791Y011417
X036713Y014104
Y014439
Y014813
X036319Y014636
Y014272
X034764Y014636
X034094
X034429Y015
X034764Y015364
X034094
X032323Y014961
X032805Y016526
X03Y016594
X029941Y015955
X029528Y016289
X028917Y01622
X028425
X027411Y015778
X027254Y015157
X027313Y014823
X027303Y014439
X028425Y01438
X029163Y01437
X029372Y013543
X02942Y013228
X028878Y013317
X028848Y011063
X02936Y010718
X029419Y010285
X029173Y009508
X029213Y009213
X028888Y009705
X028386Y010315
X027244Y010748
X027116Y011181
X026614Y011004
X026329Y011388
X026004Y012283
X026053Y012648
X026663Y012756
X026811Y012283
X025433Y012884
X025482Y013455
X025256Y014006
X024828Y013967
X024557
X024208
X023799Y013258
X023996Y012884
X022087Y012539
X02251Y013691
X02185Y013888
X021437Y014026
X022461Y01624
X024331Y016161
X024636Y016447
X025236Y016358
X02622Y016339
X026506Y016112
X02532Y014488
X025846Y008238
X024911Y007598
X024065Y006939
X022411
X022451Y007589
X021949Y00872
X021632Y009055
X021496Y010768
X021831Y010817
X022156Y010669
X021594Y006762
X022608Y004606
X022884Y002923
X022717Y002037
X024341
X024252Y002923
X025217
X026289
X026211Y003819
X025906Y004606
X02812
X027431Y003819
X029175Y003238
X029508Y004449
X030177Y004606
X030758Y005
X031093Y005246
X031575Y005295
X030984Y006123
X031014Y006949
X031132Y007402
Y007785
X030787Y008002
X030443Y008081
X030335Y006929
X029843Y006949
X029429Y006427
X029301Y005876
X02935Y005433
X028661Y005561
X028888Y006152
X028858Y006732
X028268Y006939
X028278Y008228
X026988Y007608
X026319Y006939
X026703Y002037
X024951Y001663
X023858Y003819
X021358Y002913
X032323Y00315
X034291
X03626
X035699Y00503
X033583Y005128
X031939Y008819
X03065Y009203
X031024Y009783
X034823Y013317
X035797Y016132
X035276Y001181
X02063Y001506
X02062Y002402
X019577Y002825
X018868Y003169
X019055Y003386
X018622Y003346
X018396Y003169
X018187Y00189
X017776Y002018
X017422Y00189
X018691Y004931
X019429
X020167
X020876
X020965Y005384
X021033Y006211
X020138Y006959
X017776Y006949
X017943Y00811
X018189Y008858
X017205Y00875
X015433Y008563
X015372Y007716
X015541Y006132
X01565Y010404
X015699Y010699
X015813Y010945
X015827Y01126
X015984Y012992
X016161Y013465
X016112Y014833
X015876Y015079
X015423Y015118
X014715Y014941
X014793Y014498
X014771Y014173
X014852Y013839
X014547Y012953
X014193Y012598
X013622Y012992
X013563Y014636
Y01501
X013317Y014823
X013071Y014636
Y01501
X011654Y012992
X013898Y009872
Y009498
X014144Y009685
X01439Y009498
Y009872
X01811Y009882
X018593Y009705
X018868Y009439
X019478Y008947
X019242Y010384
X019075Y010718
X019429Y010994
X019843Y011053
X020344Y010935
X020778Y011073
X021201Y011033
X020856Y012224
X020571Y012598
X019646Y012382
X020167Y013612
X021083Y013858
X021093Y016024
X020315Y01561
X019911Y010482
X02063Y009892
X012421Y007707
X011654Y005118
X011152Y004616
X010276Y003671
X010699Y002549
X008888Y002293
X008366Y002707
X008573Y003356
X007717Y001181
X01001Y005856
X009941Y006654
X004764Y00315
X00378Y001181
X000827Y00315
X002106Y014321
X005561Y013671
X004311Y018278
X004793Y019459
X004375Y022126
X004016Y023022
X004252Y023819
X005364Y023976
X005472Y022589
X004531Y025827
X000827Y026772
X-001142
Y025591
X-001278Y02303
X-003287Y022136
X-003031Y024419
X006604Y024114
X006752Y023445
X007707Y023396
X009843Y023386
X010591Y022746
X011348Y022913
X010217Y022116
X010305Y021289
X010659Y021634
Y020827
X010256Y020187
X010463Y01751
X011624Y016988
X012264Y017146
X012899Y016929
X014616Y016949
X015059Y017165
X015591Y016929
X016073Y017274
X020364Y016831
X020492Y018484
X020374Y020837
X020207Y021171
X020039Y021545
X020463Y021506
X019528Y024803
X017559
X015437Y024961
X012641Y025827
X008517
X006467Y021752
X018228Y027362
X017835Y028228
Y029055
X018032Y029843
X018622Y030433
X018543Y030709
X019134Y030906
X019252Y029843
X018858Y029331
X019803Y030315
X020394Y030512
X020079Y031417
X020512Y027362
X020276Y026575
X021063Y02622
X019173Y026535
X019331Y027559
X022168Y027716
X021732Y026732
X021772Y025472
X021496Y024803
X022283Y024921
X022264Y023907
X023346Y024961
X024016Y025591
X024724Y025236
X025709
X026575
X02752
X028543
X028622Y025984
X029528
X030433
X031339
X031378Y025236
X03123Y02437
X031703Y023927
X032234Y023455
X032785Y022963
X033543Y022992
X034252
X035
X035669
X036181Y022835
X036575Y022165
X03563
X034685
X03374
X033307Y020866
X035679Y020472
X036112Y020955
X035945Y023819
X035197
X034409
X033622
X033583Y024567
X033543Y025276
X034567
X034488Y024567
X035276
X036024
X035591Y025276
X035394Y026024
X03437
X034055Y02689
X034921Y026693
X035945
X035709Y027559
X035276Y02874
X035906Y030512
X035591Y031417
X034094
X034409Y030512
X032677
X032362Y031417
X030945
X029724
X030039Y030512
X03126
X028504
X028189Y031417
X026575
X02689Y030512
X025197
X024882Y031417
X023465
X02378Y030512
X024459Y029892
X024026Y02937
X023967Y028829
X023465Y02874
X02314Y028622
X022441Y030512
X021378
X021339Y031417
X022126
X022185Y032096
X022598Y025866
X024419Y026378
X024449Y026772
X023996Y026811
X02466Y02748
X025079Y027293
X025413Y026959
X025807Y026535
X025591Y026033
X024911Y026073
X026319Y026014
X026378Y027323
X025827Y027756
X027008Y026811
X027992Y026772
X029016
X030039
X031063
X031732Y026732
X031969Y02752
X03122
X030709Y027913
X02937Y02874
X028346Y02878
X02872Y024459
X027923
X027116Y024469
X026535Y024183
X026565Y021841
X027116Y021555
X027673Y021417
X028563Y021427
X028346Y020846
X029626Y021526
X03001Y022638
X031191Y022618
X0306Y023465
X029547Y023632
X029567Y024469
X030354
X029764Y025236
X032165Y025591
X032795Y025945
X032756Y025
Y027008
X033268Y027677
X033425Y026378
X036417Y026024
X036614Y025276
X036772Y023465
X035837Y018032
X032667Y017234
X03008Y017599
X030128Y018061
X029537Y018898
X029675Y01939
X031112Y019193
X026673Y018848
X025974Y01812
X025482Y018228
X024449Y018898
X024301Y017618
X023863Y017638
X02349Y017953
X022913Y018494
X0225Y01873
X022549Y019675
X02188Y019665
X021378Y020108
X021634Y020827
X022963Y021201
X023274Y020945
X024104Y021024
X024951Y020325
X025266Y021467
X025974Y016713
X026978Y017323
X02751Y017333
X022756Y01687
X037126Y021378
X03748Y021102
X038504Y020512
X039528Y020748
X040224Y020957
X040915Y021171
X041191Y020994
X041063Y021496
X041575Y022165
X04185
X041772Y02248
X042283Y022992
X042992Y023622
X043583Y023268
X044026Y024085
X043937Y024557
X044685Y024488
X044774Y024045
X045423Y024134
X045315Y024567
X04564Y022185
X045669Y021526
X045118Y020866
X047015Y020709
X047087Y021663
X047372Y022077
X048159Y021919
X049055Y024803
X050039Y026772
X048071
X047087Y02874
X04315
X042165Y026772
X042165Y02563
X042323Y02437
X041378Y024331
X040787Y02437
Y025768
X04122Y026575
X040354Y02748
X039646Y026969
X039016Y026299
X038425Y025906
X038356Y026722
X038543Y027402
X037126
X037087Y026693
X037441Y026024
X037638Y025276
X037579Y023868
X038612Y023386
Y02189
X03936Y022628
X040108Y02189
Y023386
X039321Y024449
X039311Y02503
X039724Y025591
X039409Y028189
X039606Y029961
X040039Y030669
X038858Y030512
X038543Y031417
X037087
X037402Y030512
X037244Y022677
X039961Y019596
X041289Y019537
X042756Y019823
X042766Y021801
X04375Y021821
X046102Y018898
X047087Y016929
X045118
X050157Y017283
X041181Y032677
X039213
X037244
X038543Y034764
X042205Y034921
X036575Y034803
Y033898
X036772Y032677
X035276Y032677
X033031Y034724
X032559Y034567
X026969Y034449
X027402Y032677
X021496
X021496Y034173
X019528Y032677
X017559
T02
X01878Y000482
X037884Y003996
X01878Y001437
X-000807Y008691
X-000866Y009892
X-000955Y01122
X-002106Y011073
X-002785Y010256
X-003346Y011535
X-003445Y016585
X-001801Y016634
X-002638Y01752
X-001801Y018425
X-003445Y018465
X-002982Y020049
Y021191
X-001614Y020049
X-000148
X001545
X002953
X004252
X002274Y023022
X000876Y0231
X000325Y022736
X000315Y023593
X000295Y024882
X000472Y025945
X001329Y025915
X001811
X001535Y02503
X-0006Y025935
X00564Y025807
X006152
X009557Y025935
X010069
X013809Y025817
X014321
X013376Y019577
X009341Y01872
X006978Y019449
T03
X00799Y017365
Y019365
X010157Y018337
X012157
X00799Y022589
Y024589
T04
X019557Y013976
Y014764
Y015551
Y016339
Y017126
Y017913
Y018701
Y019488
X019272Y028442
X020272
X019772Y029442
X020772Y029442
X021772
X022772Y029442
X022272Y028442
X021272Y028442
X024772
X025772Y028442
X026772
X027772
X028272Y029442
X027272
X026272
X025272
X030772
X031772
X032772
X033772Y029442
X033272Y028442
X032272
X031272
X030272
X035772Y028442
X036772Y028442
X036272Y029442
X037272Y029442
X038272Y029442
X039272
X038772Y028442
X037772Y028442
T05
X042638Y028907
Y029695
Y030482
Y03127
T06
X0374Y015988
X0384
X0394
X0404
X0414
X0424
X0434
X0444
X048533Y01
X049911
X033159Y007146
Y005768
X013967Y005628
Y007628
X010551Y010502
Y01188
X010266Y014752
X007707Y007591
Y005591
X010266Y016752
X018376Y025217
Y026594
X034016Y020719
Y019341
X0374Y016988
X0384
X0394
X0404
X0414
X0424
X0434
X0444
X048091Y024419
X049468
T07
X03939Y001624
X04039
X034469
X033468
X010242
X009242
T08
X030663Y010591
Y011591
Y012591
Y013591
X031663
Y012591
Y011591
Y010591
Y014593
Y015593
Y016593
X030663
Y015593
Y014593
X017864Y014591
X01687
Y013591
X017864
Y012591
X01687
Y011589
X017864
Y010589
X01687
Y015593
X017864
Y016593
X01687
X016526Y005207
X017526
X017864Y017593
X01687
Y018594
X017864
Y019594
X01687
Y020594
X017864
Y021594
X01687
X019764Y022451
X020764
Y023455
X019764
X021161Y017185
X021766Y022451
X022766
X023766
X024768
X025768
X026768
X027766
Y023455
X026768
X025768
X024768
X023766
X022766
X021766
X02877
Y022451
X030663Y021596
Y020596
X031663
Y021596
Y019594
Y018594
Y017594
X030663
Y018594
Y019594
X029035Y017185
T09
X039065Y033542
X040079
X035984
X03497
X034577Y032793
X033573
X030492Y033542
X029478
X029065Y032793
X028051
X02497
X023967
X023573Y033542
X022559
X019478
X018465
T10
X030394Y002844
Y004026
X031575
Y002844
X014715
Y004026
X013533
X012352
Y002844
X013533
X006998
X005817
Y004026
X006998
X009222Y009232
Y013169
X002913Y004026
Y002844
X001732
Y004026
X001801Y031498
X002982
X005846
X007028
X009892
X011073
X013927
X015108
Y032679
X013927
X011073
X009892
X007028
X005846
X002982
X001801
T11
X000608Y005876
X004608
X-002244Y009289
Y013289
T12
X041516Y028711
X04376
Y031467
X041516
T13
X010837Y005778
Y00814
T14
X044488Y002067
T15
X043488Y001067
X045488
Y003067
X043488
X017634Y030736
X023772Y027843
X029272
X034772
X04087Y030736
T16
X049213Y006299
X-001969
Y028346
X049213
M30
