G04*
G04 #@! TF.GenerationSoftware,Altium Limited,Altium Designer,19.1.7 (138)*
G04*
G04 Layer_Color=65535*
%FSLAX24Y24*%
%MOIN*%
G70*
G01*
G75*
%ADD10C,0.0070*%
%ADD11C,0.0079*%
%ADD12C,0.0100*%
%ADD13C,0.0039*%
%ADD14C,0.0050*%
%ADD15C,0.0118*%
%ADD16C,0.0394*%
%ADD17R,0.0576X0.0100*%
D10*
X11595Y15519D02*
G03*
X12105Y15519I256J608D01*
G01*
Y16726D02*
G03*
X11595Y16726I-255J-609D01*
G01*
X17618Y15144D02*
G03*
X17108Y15145I-256J-608D01*
G01*
Y13937D02*
G03*
X17618Y13937I255J609D01*
G01*
X15721Y13524D02*
G03*
X15722Y14034I-608J256D01*
G01*
X14514D02*
G03*
X14514Y13524I609J-255D01*
G01*
X15485Y14941D02*
G03*
X15485Y15452I-608J256D01*
G01*
X14278D02*
G03*
X14278Y14941I609J-255D01*
G01*
X13373Y16083D02*
G03*
X13373Y15572I608J-256D01*
G01*
X14581D02*
G03*
X14580Y16083I-609J255D01*
G01*
X10295Y12887D02*
G03*
X9785Y12887I-256J-608D01*
G01*
Y11679D02*
G03*
X10295Y11680I255J609D01*
G01*
X11752Y12887D02*
G03*
X11241Y12887I-256J-608D01*
G01*
Y11679D02*
G03*
X11752Y11680I255J609D01*
G01*
X13012Y12513D02*
G03*
X12501Y12513I-256J-608D01*
G01*
Y11305D02*
G03*
X13012Y11306I255J609D01*
G01*
X11870Y11621D02*
G03*
X12381Y11621I256J608D01*
G01*
Y12829D02*
G03*
X11870Y12828I-255J-609D01*
G01*
X12153Y18089D02*
G03*
X12152Y17579I608J-256D01*
G01*
X13360D02*
G03*
X13360Y18089I-609J255D01*
G01*
X14776Y17579D02*
G03*
X14777Y18089I-608J256D01*
G01*
X13569D02*
G03*
X13569Y17579I609J-255D01*
G01*
X8300Y15837D02*
G03*
X8300Y16347I-608J256D01*
G01*
X7093D02*
G03*
X7093Y15837I609J-255D01*
G01*
X10453Y18079D02*
G03*
X9942Y18080I-256J-608D01*
G01*
Y16872D02*
G03*
X10453Y16873I255J609D01*
G01*
X9193Y15888D02*
G03*
X9704Y15888I256J608D01*
G01*
Y17095D02*
G03*
X9193Y17095I-255J-609D01*
G01*
X8320Y17490D02*
G03*
X8320Y18001I-608J256D01*
G01*
X7112D02*
G03*
X7113Y17490I609J-255D01*
G01*
X15728Y10696D02*
G03*
X16239Y10696I256J608D01*
G01*
Y11903D02*
G03*
X15728Y11903I-255J-609D01*
G01*
X8406Y18413D02*
G03*
X8916Y18412I256J608D01*
G01*
Y19620D02*
G03*
X8406Y19620I-255J-609D01*
G01*
X17657Y10738D02*
Y11782D01*
X17146Y10738D02*
Y11782D01*
Y10738D02*
X17657D01*
X17146Y11782D02*
X17657D01*
X12105Y15522D02*
Y16722D01*
X11594Y15522D02*
Y16722D01*
X17107Y13941D02*
Y15141D01*
X17618Y13941D02*
Y15141D01*
Y12707D02*
Y13750D01*
X17106Y12707D02*
Y13750D01*
Y12707D02*
X17618D01*
X17106Y13750D02*
X17618D01*
X14518Y14035D02*
X15718D01*
X14518Y13524D02*
X15718D01*
X14282Y15452D02*
X15482D01*
X14282Y14941D02*
X15482D01*
X13377Y15572D02*
X14577D01*
X13376Y16083D02*
X14577D01*
X16437Y12096D02*
X16949D01*
X16437Y13140D02*
X16949D01*
Y12096D02*
Y13140D01*
X16437Y12096D02*
Y13140D01*
X9784Y11683D02*
Y12883D01*
X10295Y11683D02*
Y12884D01*
X11241Y11683D02*
Y12883D01*
X11752Y11683D02*
Y12884D01*
X12501Y11309D02*
Y12509D01*
X13012Y11309D02*
Y12510D01*
X12381Y11625D02*
Y12825D01*
X11870Y11624D02*
Y12825D01*
X12156Y17579D02*
X13356D01*
X12156Y18090D02*
X13356D01*
X13573D02*
X14773D01*
X13573Y17579D02*
X14774D01*
X7096Y16348D02*
X8296D01*
X7096Y15837D02*
X8297D01*
X9942Y16876D02*
Y18076D01*
X10453Y16876D02*
Y18077D01*
X9704Y15892D02*
Y17092D01*
X9193Y15891D02*
Y17092D01*
X7116Y18001D02*
X8316D01*
X7116Y17490D02*
X8317D01*
X16239Y10700D02*
Y11900D01*
X15728Y10699D02*
Y11900D01*
X8916Y18416D02*
Y19616D01*
X8406Y18415D02*
Y19616D01*
D11*
X11663Y14833D02*
G03*
X11663Y14833I-39J0D01*
G01*
X4360Y13061D02*
Y17165D01*
X6043D01*
Y13061D02*
Y17165D01*
X4360Y13061D02*
X6043D01*
X11939Y13120D02*
X12126D01*
X11939D02*
Y13337D01*
Y14951D02*
Y15177D01*
X11949D01*
X12126D01*
X13740Y13120D02*
X13937D01*
Y13337D01*
Y14951D02*
Y15177D01*
X13740D02*
X13937D01*
X10492Y12913D02*
X11043D01*
X10492Y11693D02*
X11043D01*
X10492D02*
Y12913D01*
X11043Y11693D02*
Y12913D01*
X14409Y16187D02*
Y16226D01*
X12441Y16187D02*
X14409D01*
X12441D02*
Y16226D01*
X14409Y17407D02*
Y17447D01*
X12441D02*
X14409D01*
X12441Y17407D02*
Y17447D01*
X10000Y15980D02*
X10394D01*
X10000D02*
Y16689D01*
X10197D01*
X10394D01*
Y15980D02*
Y16689D01*
X8465Y16614D02*
X8858D01*
Y15906D02*
Y16614D01*
X8661Y15906D02*
X8858D01*
X8465D02*
X8661D01*
X8465D02*
Y16614D01*
Y17441D02*
X8858D01*
Y16732D02*
Y17441D01*
X8661Y16732D02*
X8858D01*
X8465D02*
X8661D01*
X8465D02*
Y17441D01*
Y18268D02*
X8858D01*
Y17559D02*
Y18268D01*
X8661Y17559D02*
X8858D01*
X8465D02*
X8661D01*
X8465D02*
Y18268D01*
X17835Y3071D02*
Y10157D01*
X906Y3071D02*
X17835D01*
X906D02*
Y10157D01*
X17835D01*
X17185Y11929D02*
Y12244D01*
X17342D01*
X17395Y12192D01*
Y12087D01*
X17342Y12034D01*
X17185D01*
X17290D02*
X17395Y11929D01*
X17710D02*
X17500D01*
X17710Y12139D01*
Y12192D01*
X17657Y12244D01*
X17552D01*
X17500Y12192D01*
X814Y19698D02*
X748Y19764D01*
X617D01*
X551Y19698D01*
Y19436D01*
X617Y19370D01*
X748D01*
X814Y19436D01*
X1142Y19764D02*
X1010D01*
X945Y19698D01*
Y19436D01*
X1010Y19370D01*
X1142D01*
X1207Y19436D01*
Y19698D01*
X1142Y19764D01*
X1338Y19370D02*
Y19764D01*
X1601Y19370D01*
Y19764D01*
X1994D02*
X1732D01*
Y19567D01*
X1863D01*
X1732D01*
Y19370D01*
X2125Y19764D02*
X2257D01*
X2191D01*
Y19370D01*
X2125D01*
X2257D01*
X2716Y19698D02*
X2650Y19764D01*
X2519D01*
X2453Y19698D01*
Y19436D01*
X2519Y19370D01*
X2650D01*
X2716Y19436D01*
Y19567D01*
X2585D01*
X4406Y12818D02*
X4340Y12884D01*
X4209D01*
X4144Y12818D01*
Y12556D01*
X4209Y12490D01*
X4340D01*
X4406Y12556D01*
X4734Y12884D02*
X4603D01*
X4537Y12818D01*
Y12556D01*
X4603Y12490D01*
X4734D01*
X4800Y12556D01*
Y12818D01*
X4734Y12884D01*
X4931Y12490D02*
Y12884D01*
X5193Y12490D01*
Y12884D01*
X5587D02*
X5324D01*
Y12687D01*
X5456D01*
X5324D01*
Y12490D01*
X5718Y12884D02*
X5849D01*
X5784D01*
Y12490D01*
X5718D01*
X5849D01*
X6308Y12818D02*
X6243Y12884D01*
X6112D01*
X6046Y12818D01*
Y12556D01*
X6112Y12490D01*
X6243D01*
X6308Y12556D01*
Y12687D01*
X6177D01*
X11368Y19409D02*
X11499D01*
X11434D01*
Y19016D01*
X11368D01*
X11499D01*
X11958Y19409D02*
X11696D01*
Y19213D01*
X11827D01*
X11696D01*
Y19016D01*
X12090D02*
Y19278D01*
X12221Y19409D01*
X12352Y19278D01*
Y19016D01*
Y19213D01*
X12090D01*
X13139Y19016D02*
X12877D01*
X13139Y19278D01*
Y19344D01*
X13074Y19409D01*
X12942D01*
X12877Y19344D01*
X13270Y19016D02*
Y19081D01*
X13336D01*
Y19016D01*
X13270D01*
X13795D02*
Y19409D01*
X13598Y19213D01*
X13861D01*
X14254Y19344D02*
X14189Y19409D01*
X14058D01*
X13992Y19344D01*
Y19081D01*
X14058Y19016D01*
X14189D01*
X14254Y19081D01*
Y19213D01*
X14123D01*
X14386Y19409D02*
Y19016D01*
Y19213D01*
X14648D01*
Y19409D01*
Y19016D01*
X14779Y19278D02*
X15041D01*
X14779Y19016D01*
X15041D01*
X14518Y138D02*
X14833Y348D01*
X14518D02*
X14833Y138D01*
Y453D02*
X14518D01*
Y610D01*
X14570Y663D01*
X14675D01*
X14728Y610D01*
Y453D01*
X14833Y925D02*
X14518D01*
X14675Y768D01*
Y977D01*
X4764Y17648D02*
X4974Y17333D01*
Y17648D02*
X4764Y17333D01*
X5079D02*
Y17648D01*
X5236D01*
X5289Y17595D01*
Y17490D01*
X5236Y17438D01*
X5079D01*
X5603Y17333D02*
X5393D01*
X5603Y17543D01*
Y17595D01*
X5551Y17648D01*
X5446D01*
X5393Y17595D01*
X12303Y15738D02*
Y15423D01*
X12461D01*
X12513Y15476D01*
Y15686D01*
X12461Y15738D01*
X12303D01*
X12618D02*
Y15423D01*
X12775D01*
X12828Y15476D01*
Y15686D01*
X12775Y15738D01*
X12618D01*
X12933Y15423D02*
X13038D01*
X12985D01*
Y15738D01*
X12933Y15686D01*
X16115Y13884D02*
X16063Y13937D01*
X15958D01*
X15906Y13884D01*
Y13675D01*
X15958Y13622D01*
X16063D01*
X16115Y13675D01*
X16220Y13884D02*
X16273Y13937D01*
X16378D01*
X16430Y13884D01*
Y13832D01*
X16378Y13779D01*
X16430Y13727D01*
Y13675D01*
X16378Y13622D01*
X16273D01*
X16220Y13675D01*
Y13727D01*
X16273Y13779D01*
X16220Y13832D01*
Y13884D01*
X16273Y13779D02*
X16378D01*
X4055Y19311D02*
Y19521D01*
X4160Y19626D01*
X4265Y19521D01*
Y19311D01*
Y19468D01*
X4055D01*
X4370Y19311D02*
Y19626D01*
X4580Y19311D01*
Y19626D01*
X4685D02*
X4895D01*
X4790D01*
Y19311D01*
X5000D02*
X5105D01*
X5052D01*
Y19626D01*
X5000Y19573D01*
X1211Y10994D02*
X1421Y10679D01*
Y10994D02*
X1211Y10679D01*
X1525D02*
Y10994D01*
X1683D01*
X1735Y10942D01*
Y10837D01*
X1683Y10784D01*
X1525D01*
X1840Y10942D02*
X1893Y10994D01*
X1998D01*
X2050Y10942D01*
Y10889D01*
X1998Y10837D01*
X1945D01*
X1998D01*
X2050Y10784D01*
Y10732D01*
X1998Y10679D01*
X1893D01*
X1840Y10732D01*
X17992Y3464D02*
X18202Y3150D01*
Y3464D02*
X17992Y3150D01*
X18307D02*
Y3464D01*
X18464D01*
X18517Y3412D01*
Y3307D01*
X18464Y3255D01*
X18307D01*
X18622Y3150D02*
X18727D01*
X18674D01*
Y3464D01*
X18622Y3412D01*
X17815Y10915D02*
X18025D01*
X18130Y11020D01*
X18025Y11125D01*
X17815D01*
Y11230D02*
X18130D01*
Y11388D01*
X18077Y11440D01*
X17868D01*
X17815Y11388D01*
Y11230D01*
X18130Y11545D02*
Y11650D01*
Y11598D01*
X17815D01*
X17868Y11545D01*
X18061Y12992D02*
X17746D01*
Y13150D01*
X17799Y13202D01*
X17904D01*
X17956Y13150D01*
Y12992D01*
Y13097D02*
X18061Y13202D01*
Y13307D02*
Y13412D01*
Y13359D01*
X17746D01*
X17799Y13307D01*
X15065Y16578D02*
X14855D01*
X14802Y16526D01*
Y16421D01*
X14855Y16368D01*
X15065D01*
X15117Y16421D01*
Y16526D01*
X15012Y16473D02*
X15117Y16578D01*
Y16526D02*
X15065Y16578D01*
X15117Y16683D02*
X14802D01*
Y16840D01*
X14855Y16893D01*
X14960D01*
X15012Y16840D01*
Y16683D01*
Y16788D02*
X15117Y16893D01*
Y17208D02*
Y16998D01*
X14907Y17208D01*
X14855D01*
X14802Y17155D01*
Y17050D01*
X14855Y16998D01*
X10643Y13704D02*
Y13914D01*
X10590Y13966D01*
X10486D01*
X10433Y13914D01*
Y13704D01*
X10486Y13652D01*
X10590D01*
X10538Y13757D02*
X10643Y13652D01*
X10590D02*
X10643Y13704D01*
X10748Y13652D02*
Y13966D01*
X10905D01*
X10958Y13914D01*
Y13809D01*
X10905Y13757D01*
X10748D01*
X10853D02*
X10958Y13652D01*
X11063D02*
X11168D01*
X11115D01*
Y13966D01*
X11063Y13914D01*
X8504Y15197D02*
X8819D01*
Y15407D01*
X8504Y15722D02*
X8557Y15617D01*
X8661Y15512D01*
X8766D01*
X8819Y15564D01*
Y15669D01*
X8766Y15722D01*
X8714D01*
X8661Y15669D01*
Y15512D01*
X8996Y17648D02*
X9311D01*
Y17858D01*
X8996Y18172D02*
Y17962D01*
X9154D01*
X9101Y18067D01*
Y18120D01*
X9154Y18172D01*
X9259D01*
X9311Y18120D01*
Y18015D01*
X9259Y17962D01*
X7981Y16850D02*
X8296D01*
Y17060D01*
Y17323D02*
X7981D01*
X8139Y17165D01*
Y17375D01*
X10512Y16098D02*
X10827D01*
Y16308D01*
X10564Y16413D02*
X10512Y16466D01*
Y16571D01*
X10564Y16623D01*
X10617D01*
X10669Y16571D01*
Y16518D01*
Y16571D01*
X10722Y16623D01*
X10774D01*
X10827Y16571D01*
Y16466D01*
X10774Y16413D01*
X13730Y12126D02*
X14045D01*
Y12336D01*
Y12651D02*
Y12441D01*
X13835Y12651D01*
X13783D01*
X13730Y12598D01*
Y12493D01*
X13783Y12441D01*
X15965Y12411D02*
X16280D01*
Y12621D01*
Y12726D02*
Y12831D01*
Y12779D01*
X15965D01*
X16017Y12726D01*
X15289Y11155D02*
X15236Y11102D01*
Y10997D01*
X15289Y10945D01*
X15499D01*
X15551Y10997D01*
Y11102D01*
X15499Y11155D01*
X15551Y11260D02*
Y11365D01*
Y11312D01*
X15236D01*
X15289Y11260D01*
X15499Y11522D02*
X15551Y11575D01*
Y11680D01*
X15499Y11732D01*
X15289D01*
X15236Y11680D01*
Y11575D01*
X15289Y11522D01*
X15341D01*
X15394Y11575D01*
Y11732D01*
X7493Y15656D02*
X7441Y15709D01*
X7336D01*
X7283Y15656D01*
Y15446D01*
X7336Y15394D01*
X7441D01*
X7493Y15446D01*
X7598Y15394D02*
X7703D01*
X7651D01*
Y15709D01*
X7598Y15656D01*
X7861D02*
X7913Y15709D01*
X8018D01*
X8071Y15656D01*
Y15604D01*
X8018Y15551D01*
X8071Y15499D01*
Y15446D01*
X8018Y15394D01*
X7913D01*
X7861Y15446D01*
Y15499D01*
X7913Y15551D01*
X7861Y15604D01*
Y15656D01*
X7913Y15551D02*
X8018D01*
X7592Y18402D02*
X7539Y18455D01*
X7434D01*
X7382Y18402D01*
Y18192D01*
X7434Y18140D01*
X7539D01*
X7592Y18192D01*
X7697Y18140D02*
X7802D01*
X7749D01*
Y18455D01*
X7697Y18402D01*
X7959Y18455D02*
X8169D01*
Y18402D01*
X7959Y18192D01*
Y18140D01*
X9108Y18989D02*
X9055Y18937D01*
Y18832D01*
X9108Y18780D01*
X9318D01*
X9370Y18832D01*
Y18937D01*
X9318Y18989D01*
X9370Y19094D02*
Y19199D01*
Y19147D01*
X9055D01*
X9108Y19094D01*
X9055Y19567D02*
X9108Y19462D01*
X9213Y19357D01*
X9318D01*
X9370Y19409D01*
Y19514D01*
X9318Y19567D01*
X9265D01*
X9213Y19514D01*
Y19357D01*
X10643Y17267D02*
X10591Y17215D01*
Y17110D01*
X10643Y17057D01*
X10853D01*
X10906Y17110D01*
Y17215D01*
X10853Y17267D01*
X10906Y17372D02*
Y17477D01*
Y17424D01*
X10591D01*
X10643Y17372D01*
X10591Y17844D02*
Y17634D01*
X10748D01*
X10696Y17739D01*
Y17792D01*
X10748Y17844D01*
X10853D01*
X10906Y17792D01*
Y17687D01*
X10853Y17634D01*
X9541Y17489D02*
X9488Y17436D01*
Y17331D01*
X9541Y17279D01*
X9751D01*
X9803Y17331D01*
Y17436D01*
X9751Y17489D01*
X9803Y17594D02*
Y17698D01*
Y17646D01*
X9488D01*
X9541Y17594D01*
X9803Y18013D02*
X9488D01*
X9646Y17856D01*
Y18066D01*
X14029Y18491D02*
X13976Y18543D01*
X13871D01*
X13819Y18491D01*
Y18281D01*
X13871Y18228D01*
X13976D01*
X14029Y18281D01*
X14134Y18228D02*
X14239D01*
X14186D01*
Y18543D01*
X14134Y18491D01*
X14396D02*
X14449Y18543D01*
X14554D01*
X14606Y18491D01*
Y18438D01*
X14554Y18386D01*
X14501D01*
X14554D01*
X14606Y18333D01*
Y18281D01*
X14554Y18228D01*
X14449D01*
X14396Y18281D01*
X12513Y18471D02*
X12461Y18524D01*
X12356D01*
X12303Y18471D01*
Y18261D01*
X12356Y18209D01*
X12461D01*
X12513Y18261D01*
X12618Y18209D02*
X12723D01*
X12670D01*
Y18524D01*
X12618Y18471D01*
X13090Y18209D02*
X12880D01*
X13090Y18419D01*
Y18471D01*
X13038Y18524D01*
X12933D01*
X12880Y18471D01*
X11431Y11037D02*
X11378Y10984D01*
Y10879D01*
X11431Y10827D01*
X11640D01*
X11693Y10879D01*
Y10984D01*
X11640Y11037D01*
X11693Y11142D02*
Y11247D01*
Y11194D01*
X11378D01*
X11431Y11142D01*
X11693Y11404D02*
Y11509D01*
Y11456D01*
X11378D01*
X11431Y11404D01*
X9934Y10879D02*
X9882Y10827D01*
Y10722D01*
X9934Y10669D01*
X10144D01*
X10197Y10722D01*
Y10827D01*
X10144Y10879D01*
X10197Y10984D02*
Y11089D01*
Y11037D01*
X9882D01*
X9934Y10984D01*
Y11247D02*
X9882Y11299D01*
Y11404D01*
X9934Y11456D01*
X10144D01*
X10197Y11404D01*
Y11299D01*
X10144Y11247D01*
X9934D01*
X17808Y14462D02*
X17756Y14409D01*
Y14304D01*
X17808Y14252D01*
X18018D01*
X18071Y14304D01*
Y14409D01*
X18018Y14462D01*
Y14567D02*
X18071Y14619D01*
Y14724D01*
X18018Y14777D01*
X17808D01*
X17756Y14724D01*
Y14619D01*
X17808Y14567D01*
X17861D01*
X17913Y14619D01*
Y14777D01*
X16086Y14573D02*
X16033Y14626D01*
X15928D01*
X15876Y14573D01*
Y14363D01*
X15928Y14311D01*
X16033D01*
X16086Y14363D01*
X16191Y14626D02*
X16401D01*
Y14573D01*
X16191Y14363D01*
Y14311D01*
X13793Y10988D02*
X13740Y10935D01*
Y10830D01*
X13793Y10778D01*
X14003D01*
X14055Y10830D01*
Y10935D01*
X14003Y10988D01*
X13740Y11302D02*
X13793Y11197D01*
X13898Y11092D01*
X14003D01*
X14055Y11145D01*
Y11250D01*
X14003Y11302D01*
X13950D01*
X13898Y11250D01*
Y11092D01*
X12651Y10807D02*
X12599Y10754D01*
Y10649D01*
X12651Y10597D01*
X12861D01*
X12913Y10649D01*
Y10754D01*
X12861Y10807D01*
X12599Y11122D02*
Y10912D01*
X12756D01*
X12703Y11017D01*
Y11069D01*
X12756Y11122D01*
X12861D01*
X12913Y11069D01*
Y10964D01*
X12861Y10912D01*
X12021Y11076D02*
X11969Y11024D01*
Y10919D01*
X12021Y10866D01*
X12231D01*
X12283Y10919D01*
Y11024D01*
X12231Y11076D01*
X12283Y11338D02*
X11969D01*
X12126Y11181D01*
Y11391D01*
X15958Y15302D02*
X15905Y15354D01*
X15801D01*
X15748Y15302D01*
Y15092D01*
X15801Y15039D01*
X15905D01*
X15958Y15092D01*
X16063Y15302D02*
X16115Y15354D01*
X16220D01*
X16273Y15302D01*
Y15249D01*
X16220Y15197D01*
X16168D01*
X16220D01*
X16273Y15144D01*
Y15092D01*
X16220Y15039D01*
X16115D01*
X16063Y15092D01*
X14964Y15902D02*
X14911Y15955D01*
X14806D01*
X14754Y15902D01*
Y15692D01*
X14806Y15640D01*
X14911D01*
X14964Y15692D01*
X15279Y15640D02*
X15069D01*
X15279Y15850D01*
Y15902D01*
X15226Y15955D01*
X15121D01*
X15069Y15902D01*
X11184Y16125D02*
X11132Y16073D01*
Y15968D01*
X11184Y15915D01*
X11394D01*
X11447Y15968D01*
Y16073D01*
X11394Y16125D01*
X11447Y16230D02*
Y16335D01*
Y16283D01*
X11132D01*
X11184Y16230D01*
D12*
X10364Y10D02*
X14301D01*
X10364Y1939D02*
X14301D01*
X10364Y10D02*
Y1939D01*
X14301Y10D02*
Y1939D01*
X10364Y482D02*
X10837Y10D01*
X13829D02*
X14301Y482D01*
X3307Y14242D02*
X3707D01*
X3307Y16042D02*
X3707D01*
X207Y11142D02*
X3707D01*
X207Y19142D02*
X3707D01*
X3307Y14242D02*
Y16042D01*
X3707Y11142D02*
Y14242D01*
Y16042D02*
Y19142D01*
X207Y11142D02*
Y19142D01*
X3484Y1693D02*
X4271D01*
X6713Y1978D02*
X7500D01*
X7106Y2372D02*
Y1585D01*
D13*
X14468Y14843D02*
X15768D01*
X14468Y14134D02*
X15768D01*
X14468D02*
Y14843D01*
X15768Y14134D02*
Y14843D01*
X14878Y11744D02*
Y13059D01*
X14177Y11744D02*
Y13059D01*
Y11744D02*
X14878D01*
X14177Y13059D02*
X14878D01*
X14882Y10364D02*
Y11663D01*
X14173Y10364D02*
Y11663D01*
X14882D01*
X14173Y10364D02*
X14882D01*
X3598Y22719D02*
X15243D01*
X3598Y19758D02*
Y22719D01*
X15243Y19758D02*
Y22719D01*
X3598Y19757D02*
X7050D01*
X7634Y19758D02*
X7859D01*
X8880D02*
X15243D01*
D14*
X16417Y11817D02*
X16457Y11857D01*
X16929D01*
X16968Y11463D02*
Y11817D01*
X16417Y11463D02*
Y11817D01*
Y10597D02*
X16968D01*
X16417D02*
Y10912D01*
X16929Y11857D02*
X16968Y11817D01*
Y10597D02*
Y10912D01*
D15*
X10965Y2195D02*
X11161D01*
X11063D01*
Y2785D01*
X10965Y2687D01*
X11457D02*
X11555Y2785D01*
X11752D01*
X11850Y2687D01*
Y2588D01*
X11752Y2490D01*
X11850Y2392D01*
Y2293D01*
X11752Y2195D01*
X11555D01*
X11457Y2293D01*
Y2392D01*
X11555Y2490D01*
X11457Y2588D01*
Y2687D01*
X11555Y2490D02*
X11752D01*
X12440Y2785D02*
X12047D01*
Y2490D01*
X12244Y2588D01*
X12342D01*
X12440Y2490D01*
Y2293D01*
X12342Y2195D01*
X12145D01*
X12047Y2293D01*
X12637Y2687D02*
X12736Y2785D01*
X12932D01*
X13031Y2687D01*
Y2293D01*
X12932Y2195D01*
X12736D01*
X12637Y2293D01*
Y2687D01*
X13621Y2785D02*
X13228D01*
Y2490D01*
X13424Y2588D01*
X13523D01*
X13621Y2490D01*
Y2293D01*
X13523Y2195D01*
X13326D01*
X13228Y2293D01*
X16518Y16703D02*
Y16230D01*
Y16466D01*
X16597Y16545D01*
X16754D01*
X16833Y16466D01*
Y16230D01*
X16991Y16545D02*
X17148Y16230D01*
X17305Y16545D01*
X17463Y16230D02*
X17620D01*
X17542D01*
Y16703D01*
X17463Y16624D01*
X15426Y17421D02*
Y16949D01*
X15662D01*
X15741Y17027D01*
Y17106D01*
X15662Y17185D01*
X15426D01*
X15662D01*
X15741Y17264D01*
Y17342D01*
X15662Y17421D01*
X15426D01*
X15898D02*
Y16949D01*
X16213D01*
X16685Y17421D02*
X16370D01*
Y16949D01*
X16685D01*
X16370Y17185D02*
X16528D01*
X16843Y16870D02*
X17157D01*
X17394Y17342D02*
Y17264D01*
X17315D01*
X17472D01*
X17394D01*
Y17027D01*
X17472Y16949D01*
X17787Y17264D02*
X17945D01*
X18023Y17185D01*
Y16949D01*
X17787D01*
X17708Y17027D01*
X17787Y17106D01*
X18023D01*
X18338Y16791D02*
X18417D01*
X18496Y16870D01*
Y17264D01*
X18259D01*
X18181Y17185D01*
Y17027D01*
X18259Y16949D01*
X18496D01*
D16*
X15965Y2136D02*
X14653D01*
X15309Y1480D02*
Y2792D01*
X4144Y2638D02*
X2832D01*
D17*
X16695Y11966D02*
D03*
M02*
