G04*
G04 #@! TF.GenerationSoftware,Altium Limited,Altium Designer,19.1.7 (138)*
G04*
G04 Layer_Color=16711935*
%FSLAX24Y24*%
%MOIN*%
G70*
G01*
G75*
%ADD42C,0.0789*%
%ADD43R,0.0789X0.0789*%
%ADD44C,0.0639*%
%ADD45R,0.0639X0.0639*%
%ADD46C,0.1340*%
%ADD47C,0.0630*%
%ADD48R,0.0630X0.0630*%
%ADD49C,0.1063*%
%ADD50C,0.1417*%
%ADD51C,0.0748*%
%ADD52C,0.2402*%
D42*
X3868Y994D02*
D03*
X7106D02*
D03*
X12333Y719D02*
D03*
X11348D02*
D03*
D43*
X13317D02*
D03*
D44*
X2457Y14142D02*
D03*
Y17142D02*
D03*
Y16142D02*
D03*
X1457Y14142D02*
D03*
Y13142D02*
D03*
Y17142D02*
D03*
Y16142D02*
D03*
X2457Y15142D02*
D03*
X1457D02*
D03*
D45*
X2457Y13142D02*
D03*
D46*
X9152Y1929D02*
D03*
X9144Y11181D02*
D03*
D47*
X4813Y16683D02*
D03*
Y15896D02*
D03*
Y15108D02*
D03*
Y14321D02*
D03*
Y13533D02*
D03*
X5600Y16683D02*
D03*
Y15896D02*
D03*
Y15108D02*
D03*
Y14321D02*
D03*
D48*
Y13533D02*
D03*
D49*
X16850Y6614D02*
D03*
X1890D02*
D03*
D50*
X14134D02*
D03*
X4606D02*
D03*
D51*
X16850Y3386D02*
D03*
D52*
X17323Y21220D02*
D03*
X1575D02*
D03*
X17323Y1535D02*
D03*
X1575D02*
D03*
M02*
