G04*
G04 #@! TF.GenerationSoftware,Altium Limited,Altium Designer,19.1.7 (138)*
G04*
G04 Layer_Color=8421504*
%FSLAX24Y24*%
%MOIN*%
G70*
G01*
G75*
%ADD18O,0.0110X0.0335*%
%ADD19O,0.0335X0.0110*%
%ADD20R,0.1358X0.1358*%
G04:AMPARAMS|DCode=21|XSize=43.3mil|YSize=23.6mil|CornerRadius=5.9mil|HoleSize=0mil|Usage=FLASHONLY|Rotation=270.000|XOffset=0mil|YOffset=0mil|HoleType=Round|Shape=RoundedRectangle|*
%AMROUNDEDRECTD21*
21,1,0.0433,0.0118,0,0,270.0*
21,1,0.0315,0.0236,0,0,270.0*
1,1,0.0118,-0.0059,-0.0157*
1,1,0.0118,-0.0059,0.0157*
1,1,0.0118,0.0059,0.0157*
1,1,0.0118,0.0059,-0.0157*
%
%ADD21ROUNDEDRECTD21*%
G04:AMPARAMS|DCode=22|XSize=94.5mil|YSize=59.1mil|CornerRadius=14.8mil|HoleSize=0mil|Usage=FLASHONLY|Rotation=270.000|XOffset=0mil|YOffset=0mil|HoleType=Round|Shape=RoundedRectangle|*
%AMROUNDEDRECTD22*
21,1,0.0945,0.0295,0,0,270.0*
21,1,0.0650,0.0591,0,0,270.0*
1,1,0.0295,-0.0148,-0.0325*
1,1,0.0295,-0.0148,0.0325*
1,1,0.0295,0.0148,0.0325*
1,1,0.0295,0.0148,-0.0325*
%
%ADD22ROUNDEDRECTD22*%
G04:AMPARAMS|DCode=23|XSize=90.6mil|YSize=82.7mil|CornerRadius=12.4mil|HoleSize=0mil|Usage=FLASHONLY|Rotation=90.000|XOffset=0mil|YOffset=0mil|HoleType=Round|Shape=RoundedRectangle|*
%AMROUNDEDRECTD23*
21,1,0.0906,0.0579,0,0,90.0*
21,1,0.0657,0.0827,0,0,90.0*
1,1,0.0248,0.0289,0.0329*
1,1,0.0248,0.0289,-0.0329*
1,1,0.0248,-0.0289,-0.0329*
1,1,0.0248,-0.0289,0.0329*
%
%ADD23ROUNDEDRECTD23*%
%ADD24R,0.0236X0.0217*%
G04:AMPARAMS|DCode=25|XSize=31.5mil|YSize=35.4mil|CornerRadius=7.9mil|HoleSize=0mil|Usage=FLASHONLY|Rotation=90.000|XOffset=0mil|YOffset=0mil|HoleType=Round|Shape=RoundedRectangle|*
%AMROUNDEDRECTD25*
21,1,0.0315,0.0197,0,0,90.0*
21,1,0.0157,0.0354,0,0,90.0*
1,1,0.0157,0.0098,0.0079*
1,1,0.0157,0.0098,-0.0079*
1,1,0.0157,-0.0098,-0.0079*
1,1,0.0157,-0.0098,0.0079*
%
%ADD25ROUNDEDRECTD25*%
G36*
X8839Y19154D02*
X8661Y19272D01*
X8484Y19154D01*
Y19547D01*
X8839D01*
Y19154D01*
D02*
G37*
G36*
Y18484D02*
X8484D01*
Y18878D01*
X8661Y18760D01*
X8839Y18878D01*
Y18484D01*
D02*
G37*
G36*
X14705Y17657D02*
X14311D01*
X14429Y17835D01*
X14311Y18012D01*
X14705D01*
Y17657D01*
D02*
G37*
G36*
X13917Y17835D02*
X14035Y17657D01*
X13642D01*
Y18012D01*
X14035D01*
X13917Y17835D01*
D02*
G37*
G36*
X13287Y17657D02*
X12894D01*
X13012Y17834D01*
X12894Y18011D01*
X13287D01*
Y17657D01*
D02*
G37*
G36*
X12500Y17834D02*
X12618Y17657D01*
X12224D01*
Y18011D01*
X12618D01*
X12500Y17834D01*
D02*
G37*
G36*
X10374Y17614D02*
X10197Y17732D01*
X10020Y17614D01*
Y18008D01*
X10374D01*
Y17614D01*
D02*
G37*
G36*
X8248Y17569D02*
X7854D01*
X7972Y17746D01*
X7854Y17923D01*
X8248D01*
Y17569D01*
D02*
G37*
G36*
X7461Y17746D02*
X7579Y17569D01*
X7185D01*
Y17923D01*
X7579D01*
X7461Y17746D01*
D02*
G37*
G36*
X10374Y16945D02*
X10020D01*
Y17339D01*
X10197Y17220D01*
X10374Y17339D01*
Y16945D01*
D02*
G37*
G36*
X9626Y16629D02*
X9449Y16747D01*
X9272Y16629D01*
Y17023D01*
X9626D01*
Y16629D01*
D02*
G37*
G36*
X12028Y16260D02*
X11850Y16378D01*
X11673Y16260D01*
Y16654D01*
X12028D01*
Y16260D01*
D02*
G37*
G36*
X9626Y15960D02*
X9272D01*
Y16353D01*
X9449Y16235D01*
X9626Y16353D01*
Y15960D01*
D02*
G37*
G36*
X8228Y15915D02*
X7835D01*
X7953Y16093D01*
X7835Y16270D01*
X8228D01*
Y15915D01*
D02*
G37*
G36*
X7441Y16093D02*
X7559Y15915D01*
X7165D01*
Y16270D01*
X7559D01*
X7441Y16093D01*
D02*
G37*
G36*
X12028Y15591D02*
X11673D01*
Y15984D01*
X11850Y15866D01*
X12028Y15984D01*
Y15591D01*
D02*
G37*
G36*
X14508Y15650D02*
X14114D01*
X14232Y15827D01*
X14114Y16004D01*
X14508D01*
Y15650D01*
D02*
G37*
G36*
X13720Y15827D02*
X13839Y15650D01*
X13445D01*
Y16004D01*
X13839D01*
X13720Y15827D01*
D02*
G37*
G36*
X15413Y15020D02*
X15020D01*
X15138Y15197D01*
X15020Y15374D01*
X15413D01*
Y15020D01*
D02*
G37*
G36*
X14626Y15197D02*
X14744Y15020D01*
X14350D01*
Y15374D01*
X14744D01*
X14626Y15197D01*
D02*
G37*
G36*
X17539Y14679D02*
X17362Y14797D01*
X17185Y14679D01*
Y15073D01*
X17539D01*
Y14679D01*
D02*
G37*
G36*
Y14010D02*
X17185D01*
Y14403D01*
X17362Y14285D01*
X17539Y14403D01*
Y14010D01*
D02*
G37*
G36*
X15699Y14203D02*
X15246D01*
X15374Y14488D01*
X15246Y14774D01*
X15699D01*
Y14203D01*
D02*
G37*
G36*
X14862Y14488D02*
X14990Y14203D01*
X14537D01*
Y14774D01*
X14990D01*
X14862Y14488D01*
D02*
G37*
G36*
X15650Y13602D02*
X15256D01*
X15374Y13780D01*
X15256Y13957D01*
X15650D01*
Y13602D01*
D02*
G37*
G36*
X14862Y13780D02*
X14980Y13602D01*
X14587D01*
Y13957D01*
X14980D01*
X14862Y13780D01*
D02*
G37*
G36*
X17539Y13396D02*
X17362Y13474D01*
X17185Y13396D01*
Y13671D01*
X17539D01*
Y13396D01*
D02*
G37*
G36*
Y12786D02*
X17185D01*
Y13061D01*
X17362Y12983D01*
X17539Y13061D01*
Y12786D01*
D02*
G37*
G36*
X16870Y12785D02*
X16693Y12864D01*
X16516Y12785D01*
Y13061D01*
X16870D01*
Y12785D01*
D02*
G37*
G36*
X14803Y12569D02*
X14528Y12697D01*
X14252Y12569D01*
Y12982D01*
X14803D01*
Y12569D01*
D02*
G37*
G36*
X11673Y12421D02*
X11496Y12539D01*
X11319Y12421D01*
Y12815D01*
X11673D01*
Y12421D01*
D02*
G37*
G36*
X10217D02*
X10039Y12539D01*
X9862Y12421D01*
Y12815D01*
X10217D01*
Y12421D01*
D02*
G37*
G36*
X16870Y12175D02*
X16516D01*
Y12451D01*
X16693Y12372D01*
X16870Y12451D01*
Y12175D01*
D02*
G37*
G36*
X12303Y12362D02*
X12126Y12480D01*
X11949Y12362D01*
Y12756D01*
X12303D01*
Y12362D01*
D02*
G37*
G36*
X14803Y11821D02*
X14252D01*
Y12234D01*
X14528Y12106D01*
X14803Y12234D01*
Y11821D01*
D02*
G37*
G36*
X12933Y12047D02*
X12756Y12165D01*
X12579Y12047D01*
Y12441D01*
X12933D01*
Y12047D01*
D02*
G37*
G36*
X11673Y11752D02*
X11319D01*
Y12146D01*
X11496Y12028D01*
X11673Y12146D01*
Y11752D01*
D02*
G37*
G36*
X10217D02*
X9862D01*
Y12146D01*
X10039Y12028D01*
X10217Y12146D01*
Y11752D01*
D02*
G37*
G36*
X12303Y11693D02*
X11949D01*
Y12087D01*
X12126Y11968D01*
X12303Y12087D01*
Y11693D01*
D02*
G37*
G36*
X12933Y11378D02*
X12579D01*
Y11772D01*
X12756Y11654D01*
X12933Y11772D01*
Y11378D01*
D02*
G37*
G36*
X16161Y11437D02*
X15984Y11555D01*
X15807Y11437D01*
Y11831D01*
X16161D01*
Y11437D01*
D02*
G37*
G36*
X17579Y11427D02*
X17402Y11506D01*
X17224Y11427D01*
Y11703D01*
X17579D01*
Y11427D01*
D02*
G37*
G36*
X14813Y11142D02*
X14528Y11270D01*
X14242Y11142D01*
Y11595D01*
X14813D01*
Y11142D01*
D02*
G37*
G36*
X16161Y10768D02*
X15807D01*
Y11161D01*
X15984Y11043D01*
X16161Y11161D01*
Y10768D01*
D02*
G37*
G36*
X17579Y10817D02*
X17224D01*
Y11093D01*
X17402Y11014D01*
X17579Y11093D01*
Y10817D01*
D02*
G37*
G36*
X14813Y10433D02*
X14242D01*
Y10886D01*
X14528Y10758D01*
X14813Y10886D01*
Y10433D01*
D02*
G37*
D18*
X12244Y15118D02*
D03*
X12441D02*
D03*
X12638D02*
D03*
X12835D02*
D03*
X13032D02*
D03*
X13228D02*
D03*
X13425D02*
D03*
X13622D02*
D03*
Y13169D02*
D03*
X13425D02*
D03*
X13228D02*
D03*
X13032D02*
D03*
X12835D02*
D03*
X12638D02*
D03*
X12441D02*
D03*
X12244D02*
D03*
D19*
X13907Y14833D02*
D03*
Y14636D02*
D03*
Y14439D02*
D03*
Y14242D02*
D03*
Y14045D02*
D03*
Y13848D02*
D03*
Y13652D02*
D03*
Y13455D02*
D03*
X11959D02*
D03*
Y13652D02*
D03*
Y13848D02*
D03*
Y14045D02*
D03*
Y14242D02*
D03*
Y14439D02*
D03*
Y14636D02*
D03*
Y14833D02*
D03*
D20*
X12933Y14144D02*
D03*
D21*
X10591Y13268D02*
D03*
X10945D02*
D03*
D22*
X10768Y11083D02*
D03*
D23*
X14213Y16817D02*
D03*
X12638D02*
D03*
D24*
X10197Y16167D02*
D03*
Y16502D02*
D03*
X8661Y16427D02*
D03*
Y16093D02*
D03*
Y17254D02*
D03*
Y16919D02*
D03*
Y18081D02*
D03*
Y17746D02*
D03*
D25*
X16693Y11627D02*
D03*
Y10827D02*
D03*
M02*
