G04 Layer_Physical_Order=2*
G04 Layer_Color=16711680*
%FSLAX24Y24*%
%MOIN*%
G70*
G01*
G75*
%ADD10C,0.0079*%
%ADD31C,0.0197*%
%ADD32C,0.0118*%
%ADD33C,0.0394*%
%ADD45R,0.0591X0.0591*%
%ADD46C,0.0591*%
%ADD47P,0.0849X4X270.0*%
%ADD48C,0.0600*%
%ADD49C,0.1575*%
%ADD50C,0.0236*%
%ADD51C,0.0394*%
D10*
X56220Y22638D02*
G03*
X56220Y22638I-906J0D01*
G01*
X56253Y28019D02*
G03*
X56201Y27894I125J-125D01*
G01*
X56253Y28019D02*
G03*
X56201Y27894I125J-125D01*
G01*
X58906Y22461D02*
G03*
X58906Y22146I-176J-157D01*
G01*
X56201Y27794D02*
G03*
X56614Y27638I177J-156D01*
G01*
D02*
G03*
X56555Y27794I-236J0D01*
G01*
X57746Y27766D02*
G03*
X57809Y27613I217J0D01*
G01*
X57778Y28110D02*
G03*
X57746Y27868I184J-148D01*
G01*
Y27766D02*
G03*
X57810Y27612I217J0D01*
G01*
X58179Y27868D02*
G03*
X58199Y27963I-217J94D01*
G01*
D02*
G03*
X58147Y28110I-236J0D01*
G01*
X49852Y29311D02*
G03*
X49904Y29186I177J0D01*
G01*
Y30863D02*
G03*
X49852Y30738I125J-125D01*
G01*
X50091Y28999D02*
G03*
X50217Y28947I125J125D01*
G01*
X50091Y28999D02*
G03*
X50217Y28947I125J125D01*
G01*
X53497Y28359D02*
G03*
X53622Y28307I125J125D01*
G01*
X53497Y28359D02*
G03*
X53622Y28307I125J125D01*
G01*
X49852Y29311D02*
G03*
X49904Y29186I177J0D01*
G01*
X54488Y29902D02*
G03*
X54429Y30058I-236J0D01*
G01*
X54451Y29774D02*
G03*
X54488Y29902I-199J127D01*
G01*
X54643Y29594D02*
G03*
X54603Y29624I-125J-125D01*
G01*
X54643Y29594D02*
G03*
X54603Y29624I-125J-125D01*
G01*
X49904Y30863D02*
G03*
X49852Y30738I125J-125D01*
G01*
X52490Y30549D02*
G03*
X51958Y30813I-394J-126D01*
G01*
X50187Y31073D02*
G03*
X50062Y31021I0J-177D01*
G01*
X50187Y31073D02*
G03*
X50062Y31021I0J-177D01*
G01*
X51749D02*
G03*
X51624Y31073I-125J-125D01*
G01*
X51749Y31021D02*
G03*
X51624Y31073I-125J-125D01*
G01*
X52837Y30834D02*
G03*
X52490Y30549I46J-411D01*
G01*
X53228Y31152D02*
G03*
X53103Y31100I0J-177D01*
G01*
X53228Y31152D02*
G03*
X53103Y31100I0J-177D01*
G01*
X54200D02*
G03*
X54075Y31152I-125J-125D01*
G01*
X54200Y31100D02*
G03*
X54075Y31152I-125J-125D01*
G01*
X57169Y30341D02*
G03*
X57614Y29895I223J-223D01*
G01*
X54429Y30584D02*
G03*
X56181Y30906I846J322D01*
G01*
D02*
G03*
X54370Y30929I-906J0D01*
G01*
X58789Y31831D02*
G03*
X58566Y31738I0J-315D01*
G01*
X58789Y31831D02*
G03*
X58567Y31738I0J-315D01*
G01*
X59409Y21804D02*
G03*
X59174Y21417I-59J-229D01*
G01*
X59688Y22034D02*
G03*
X59409Y21804I-42J-232D01*
G01*
X59537Y22146D02*
G03*
X59649Y22192I0J157D01*
G01*
X59828Y22215D02*
G03*
X59688Y22034I94J-217D01*
G01*
X59465Y24515D02*
G03*
X59577Y24469I111J111D01*
G01*
X59465Y24515D02*
G03*
X59577Y24469I112J111D01*
G01*
X59537Y22146D02*
G03*
X59649Y22192I0J157D01*
G01*
X59833Y22756D02*
G03*
X59721Y22710I0J-157D01*
G01*
X59833Y22756D02*
G03*
X59721Y22710I0J-157D01*
G01*
X59785Y22328D02*
G03*
X59828Y22215I235J25D01*
G01*
X60020Y23061D02*
G03*
X60066Y22949I157J0D01*
G01*
X60020Y23061D02*
G03*
X60066Y22950I157J0D01*
G01*
X61407Y23681D02*
G03*
X61356Y23806I-177J0D01*
G01*
X60787Y24646D02*
G03*
X60736Y24771I-177J0D01*
G01*
X60787Y24646D02*
G03*
X60736Y24771I-177J0D01*
G01*
X61407Y23681D02*
G03*
X61356Y23806I-177J0D01*
G01*
X59055Y24990D02*
G03*
X59101Y24879I157J0D01*
G01*
X59055Y25402D02*
G03*
X59055Y25050I157J-176D01*
G01*
Y24990D02*
G03*
X59101Y24879I157J0D01*
G01*
X60295Y25212D02*
G03*
X59904Y25375I-236J-15D01*
G01*
X59245Y26178D02*
G03*
X59055Y25748I-121J-203D01*
G01*
X59904Y26040D02*
G03*
X59841Y26194I-217J0D01*
G01*
X59904Y26040D02*
G03*
X59841Y26194I-217J0D01*
G01*
X63442Y22406D02*
G03*
X63494Y22531I-125J125D01*
G01*
X63442Y22406D02*
G03*
X63494Y22531I-125J125D01*
G01*
X62322Y25802D02*
G03*
X62072Y25552I-236J-15D01*
G01*
X64184Y26685D02*
G03*
X64776Y26094I296J-296D01*
G01*
D02*
G03*
X64898Y26389I-296J296D01*
G01*
D02*
G03*
X64184Y26685I-418J0D01*
G01*
X61433Y29200D02*
G03*
X61308Y29252I-125J-125D01*
G01*
X61433Y29200D02*
G03*
X61308Y29252I-125J-125D01*
G01*
X61529Y29116D02*
G03*
X61484Y29149I-125J-125D01*
G01*
X61529Y29116D02*
G03*
X61484Y29149I-125J-125D01*
G01*
X63494Y27078D02*
G03*
X63442Y27203I-177J0D01*
G01*
X63494Y27078D02*
G03*
X63442Y27203I-177J0D01*
G01*
X65072Y29945D02*
G03*
X65295Y29852I223J222D01*
G01*
X65073Y29945D02*
G03*
X65295Y29852I223J223D01*
G01*
X65072Y29945D02*
G03*
X65295Y29852I223J222D01*
G01*
X64170Y31738D02*
G03*
X63947Y31831I-223J-223D01*
G01*
X64170Y31738D02*
G03*
X63947Y31831I-223J-222D01*
G01*
X65295Y29852D02*
G03*
X65610Y30167I-0J315D01*
G01*
X65295Y29852D02*
G03*
X65610Y30167I0J315D01*
G01*
X65610D02*
G03*
X65518Y30390I-315J0D01*
G01*
X65295Y29852D02*
G03*
X65610Y30167I0J315D01*
G01*
X65610D02*
G03*
X65517Y30391I-315J0D01*
G01*
X65610Y30167D02*
G03*
X65517Y30391I-315J0D01*
G01*
X60581Y23370D02*
X60827Y23124D01*
X59213Y25226D02*
Y25886D01*
X59124Y25974D02*
X59213Y25886D01*
X59577Y24626D02*
X60000D01*
X59213Y24990D02*
X59577Y24626D01*
X59213Y24990D02*
Y25226D01*
X60177Y23061D02*
Y24449D01*
X60000Y24626D02*
X60177Y24449D01*
Y23061D02*
X60502Y22736D01*
X60404Y22500D02*
X60610D01*
X60827Y22717D01*
Y23124D01*
X58730Y22303D02*
X59537D01*
X59833Y22598D01*
X60306D01*
X60404Y22500D01*
X52067Y22677D02*
X54410D01*
X52067Y22736D02*
X54415D01*
X52067Y22795D02*
X54423D01*
X52067Y22500D02*
X54420D01*
X52067Y22618D02*
X54410D01*
X52067Y22559D02*
X54413D01*
X53681Y21417D02*
Y28307D01*
X52067Y21417D02*
Y28159D01*
X53622Y21417D02*
Y28307D01*
X53858Y21417D02*
Y28307D01*
X53740Y21417D02*
Y28307D01*
X53799Y21417D02*
Y28307D01*
X52067Y21968D02*
X54705D01*
X52067Y22087D02*
X54597D01*
X52067Y22028D02*
X54646D01*
X52067Y21791D02*
X54993D01*
X52067Y21909D02*
X54777D01*
X52067Y21850D02*
X54868D01*
X52067Y22323D02*
X54466D01*
X52067Y22441D02*
X54431D01*
X52067Y22382D02*
X54446D01*
X52067Y22146D02*
X54555D01*
X52067Y22264D02*
X54490D01*
X52067Y22205D02*
X54520D01*
X52067Y23031D02*
X54499D01*
X52067Y23091D02*
X54531D01*
X52067Y23150D02*
X54568D01*
X52067Y22854D02*
X54436D01*
X52067Y22913D02*
X54452D01*
X52067Y22972D02*
X54474D01*
X52067Y23386D02*
X54805D01*
X49764Y28159D02*
X52067D01*
Y23445D02*
X54904D01*
X52067Y23209D02*
X54612D01*
X52067Y23268D02*
X54664D01*
X52067Y23327D02*
X54727D01*
X52067Y27579D02*
X56149D01*
X52067Y27638D02*
X56142D01*
X52067Y27697D02*
X56149D01*
X52067Y23504D02*
X55051D01*
X52067Y27520D02*
X56173D01*
X52067Y27461D02*
X56222D01*
X52067Y27992D02*
X56231D01*
X52067Y28051D02*
X56285D01*
X52067Y28110D02*
X56344D01*
X52067Y27756D02*
X56173D01*
X52067Y27815D02*
X56201D01*
X52067Y27874D02*
X56201D01*
X52067Y27933D02*
X56205D01*
X54390Y21417D02*
Y28307D01*
X54272Y21417D02*
Y28307D01*
X54331Y21417D02*
Y28307D01*
X54567Y21417D02*
Y22128D01*
X54449Y21417D02*
Y22374D01*
X54508Y21417D02*
Y22227D01*
X54035Y21417D02*
Y28307D01*
X53917Y21417D02*
Y28307D01*
X53976Y21417D02*
Y28307D01*
X54212Y21417D02*
Y28307D01*
X54094Y21417D02*
Y28307D01*
X54153Y21417D02*
Y28307D01*
X55098Y21417D02*
Y21759D01*
X54980Y21417D02*
Y21796D01*
X55039Y21417D02*
Y21775D01*
X55275Y21417D02*
Y21733D01*
X55157Y21417D02*
Y21746D01*
X55216Y21417D02*
Y21738D01*
X54744Y21417D02*
Y21935D01*
X54626Y21417D02*
Y22050D01*
X54685Y21417D02*
Y21987D01*
X54921Y21417D02*
Y21822D01*
X56043Y21417D02*
Y22100D01*
X54803Y21417D02*
Y21891D01*
X54862Y21417D02*
Y21854D01*
X55453Y21417D02*
Y21743D01*
X55335Y21417D02*
Y21732D01*
X55394Y21417D02*
Y21736D01*
X55630Y21417D02*
Y21789D01*
X55512Y21417D02*
Y21754D01*
X55571Y21417D02*
Y21769D01*
X55748Y21417D02*
Y21843D01*
X54449Y22902D02*
Y28307D01*
X55689Y21417D02*
Y21813D01*
X55925Y21417D02*
Y21969D01*
X55807Y21417D02*
Y21878D01*
X55866Y21417D02*
Y21919D01*
X56102Y21417D02*
Y22190D01*
X55984Y21417D02*
Y22028D01*
X56398Y21417D02*
Y27402D01*
X56161Y21417D02*
Y22316D01*
X56220Y21417D02*
Y22624D01*
X56161Y22960D02*
Y27544D01*
X56201Y27794D02*
Y27894D01*
X56279Y21417D02*
Y27423D01*
X56338Y21417D02*
Y27405D01*
X56220Y22652D02*
Y27462D01*
X51673Y28159D02*
Y28947D01*
X51555Y28159D02*
Y28947D01*
X51614Y28159D02*
Y28947D01*
X51850Y28159D02*
Y28947D01*
X51732Y28159D02*
Y28947D01*
X51791Y28159D02*
Y28947D01*
X51319Y28159D02*
Y28947D01*
X51201Y28159D02*
Y28947D01*
X51260Y28159D02*
Y28947D01*
X51496Y28159D02*
Y28947D01*
X51378Y28159D02*
Y28947D01*
X51437Y28159D02*
Y28947D01*
X52382Y21417D02*
Y28947D01*
X52264Y21417D02*
Y28947D01*
X52323Y21417D02*
Y28947D01*
X52559Y21417D02*
Y28947D01*
X52441Y21417D02*
Y28947D01*
X52500Y21417D02*
Y28947D01*
X52027Y28159D02*
Y28947D01*
X51909Y28159D02*
Y28947D01*
X51968Y28159D02*
Y28947D01*
X52205Y21417D02*
Y28947D01*
X52087Y21417D02*
Y28947D01*
X52146Y21417D02*
Y28947D01*
X50197Y28159D02*
Y28948D01*
X50079Y28159D02*
Y29011D01*
X50138Y28159D02*
Y28965D01*
X50374Y28159D02*
Y28947D01*
X50256Y28159D02*
Y28947D01*
X50315Y28159D02*
Y28947D01*
X49842Y28159D02*
Y32126D01*
X49764Y28159D02*
Y32126D01*
X49783Y28159D02*
Y32126D01*
X50020Y28159D02*
Y29070D01*
X49901Y28159D02*
Y29189D01*
X49961Y28159D02*
Y29129D01*
X50964Y28159D02*
Y28947D01*
X50846Y28159D02*
Y28947D01*
X50905Y28159D02*
Y28947D01*
X51142Y28159D02*
Y28947D01*
X51024Y28159D02*
Y28947D01*
X51083Y28159D02*
Y28947D01*
X50551Y28159D02*
Y28947D01*
X50433Y28159D02*
Y28947D01*
X50492Y28159D02*
Y28947D01*
X50728Y28159D02*
Y28947D01*
X50787Y28159D02*
Y28947D01*
X50610Y28159D02*
Y28947D01*
X50669Y28159D02*
Y28947D01*
X53090Y21417D02*
Y28765D01*
X52972Y21417D02*
Y28883D01*
X53031Y21417D02*
Y28824D01*
X53268Y21417D02*
Y28588D01*
X53149Y21417D02*
Y28706D01*
X53209Y21417D02*
Y28647D01*
X52736Y21417D02*
Y28947D01*
X52618Y21417D02*
Y28947D01*
X52677Y21417D02*
Y28947D01*
X52913Y21417D02*
Y28942D01*
X52795Y21417D02*
Y28947D01*
X52854Y21417D02*
Y28947D01*
X54626Y23225D02*
Y28307D01*
X54685Y23288D02*
Y28307D01*
X55925Y23307D02*
Y28307D01*
X56102Y23085D02*
Y28307D01*
X55984Y23248D02*
Y28307D01*
X56043Y23176D02*
Y28307D01*
X53445Y21417D02*
Y28411D01*
X53327Y21417D02*
Y28529D01*
X53386Y21417D02*
Y28470D01*
X53504Y21417D02*
Y28352D01*
X53563Y21417D02*
Y28317D01*
X54508Y23048D02*
Y28307D01*
X54567Y23148D02*
Y28307D01*
X55098Y23517D02*
Y28307D01*
X55157Y23529D02*
Y28307D01*
X55216Y23538D02*
Y28307D01*
X55394Y23540D02*
Y28307D01*
X55275Y23542D02*
Y28307D01*
X55335Y23543D02*
Y28307D01*
X54744Y23341D02*
Y28307D01*
X54803Y23385D02*
Y28307D01*
X54862Y23422D02*
Y28307D01*
X54921Y23453D02*
Y28307D01*
X54980Y23479D02*
Y28307D01*
X55039Y23500D02*
Y28307D01*
X55866Y23356D02*
Y28307D01*
X56161Y27732D02*
Y28307D01*
X56220Y27975D02*
Y28307D01*
X56279Y28046D02*
Y28307D01*
X56338Y28105D02*
Y28307D01*
X56398Y28164D02*
Y28307D01*
X55571Y23506D02*
Y28307D01*
X55453Y23533D02*
Y28307D01*
X55512Y23522D02*
Y28307D01*
X55748Y23433D02*
Y28307D01*
X55807Y23398D02*
Y28307D01*
X55630Y23487D02*
Y28307D01*
X55689Y23463D02*
Y28307D01*
X52067Y21555D02*
X59115D01*
X52067Y21614D02*
X59117D01*
X52067Y21673D02*
X59136D01*
X52067Y21417D02*
X59174D01*
X52067Y21496D02*
X59128D01*
X52067Y21437D02*
X59159D01*
X52067Y24390D02*
X60014D01*
X52067Y24508D02*
X59473D01*
X52067Y24449D02*
X59955D01*
X52067Y21732D02*
X59174D01*
X52067Y23681D02*
X60020D01*
X52067Y23622D02*
X60020D01*
X52067Y23858D02*
X60020D01*
X52067Y23976D02*
X60020D01*
X52067Y23917D02*
X60020D01*
X52067Y23563D02*
X60020D01*
X52067Y23799D02*
X60020D01*
X52067Y23740D02*
X60020D01*
X52067Y24213D02*
X60020D01*
X52067Y24331D02*
X60020D01*
X52067Y24272D02*
X60020D01*
X52067Y24035D02*
X60020D01*
X52067Y24153D02*
X60020D01*
X52067Y24094D02*
X60020D01*
X52067Y26161D02*
X58980D01*
X52067Y26516D02*
X58906D01*
X52067Y26457D02*
X58965D01*
X52067Y25984D02*
X58888D01*
X52067Y26043D02*
X58898D01*
X52067Y26102D02*
X58925D01*
X52067Y26752D02*
X58670D01*
X52067Y26870D02*
X58552D01*
X52067Y26811D02*
X58611D01*
X52067Y26575D02*
X58847D01*
X52067Y26693D02*
X58729D01*
X52067Y26634D02*
X58788D01*
X52067Y24744D02*
X59236D01*
X52067Y24862D02*
X59118D01*
X52067Y24803D02*
X59177D01*
X52067Y24567D02*
X59413D01*
X52067Y24685D02*
X59295D01*
X52067Y24626D02*
X59354D01*
X52067Y26279D02*
X59143D01*
X52067Y26398D02*
X59025D01*
X52067Y26339D02*
X59084D01*
X52067Y24980D02*
X59055D01*
X52067Y24921D02*
X59071D01*
X52067Y25039D02*
X59055D01*
X52067Y26220D02*
X59202D01*
X56033Y22087D02*
X58636D01*
X56110Y22205D02*
X58516D01*
X56075Y22146D02*
X58554D01*
X58642Y21417D02*
Y22084D01*
X58524Y21417D02*
Y22189D01*
X58583Y21417D02*
Y22119D01*
X56140Y22264D02*
X58497D01*
X56164Y22323D02*
X58495D01*
X56184Y22382D02*
X58508D01*
X56199Y22441D02*
X58538D01*
X58583Y22487D02*
Y26840D01*
X56210Y22500D02*
X58600D01*
X55637Y21791D02*
X59256D01*
X55762Y21850D02*
X59415D01*
X55853Y21909D02*
X59436D01*
X55925Y21968D02*
X59479D01*
X55984Y22028D02*
X59578D01*
X56207Y22795D02*
X60220D01*
X56178Y22913D02*
X60102D01*
X56194Y22854D02*
X60161D01*
X56217Y22559D02*
X59571D01*
X56220Y22618D02*
X59630D01*
X56220Y22677D02*
X59689D01*
X56215Y22736D02*
X59756D01*
X52067Y25276D02*
X58982D01*
X52067Y25335D02*
X59003D01*
X52067Y25394D02*
X59046D01*
X52067Y25098D02*
X59014D01*
X52067Y25216D02*
X58977D01*
X52067Y25157D02*
X58987D01*
X52067Y25807D02*
X58957D01*
X52067Y25925D02*
X58893D01*
X52067Y25866D02*
X58914D01*
X52067Y25630D02*
X59055D01*
X52067Y25748D02*
X59055D01*
X52067Y25689D02*
X59055D01*
X56062Y23150D02*
X60020D01*
X55966Y23268D02*
X60020D01*
X56018Y23209D02*
X60020D01*
X56156Y22972D02*
X60047D01*
X56099Y23091D02*
X60020D01*
X56130Y23031D02*
X60022D01*
X52067Y25453D02*
X59055D01*
X52067Y25571D02*
X59055D01*
X52067Y25512D02*
X59055D01*
X55825Y23386D02*
X60020D01*
X55903Y23327D02*
X60020D01*
X55579Y23504D02*
X60020D01*
X55726Y23445D02*
X60020D01*
X56575Y21417D02*
Y27507D01*
X56457Y21417D02*
Y27415D01*
X56516Y21417D02*
Y27446D01*
X56752Y21417D02*
Y28017D01*
X56634Y21417D02*
Y27899D01*
X56693Y21417D02*
Y27958D01*
X56929Y21417D02*
Y28110D01*
X56811Y21417D02*
Y28076D01*
X56870Y21417D02*
Y28110D01*
X57106Y21417D02*
Y28110D01*
X56988Y21417D02*
Y28110D01*
X57047Y21417D02*
Y28110D01*
X52067Y27106D02*
X58316D01*
X52067Y27224D02*
X58198D01*
X52067Y27165D02*
X58257D01*
X52067Y26929D02*
X58493D01*
X52067Y27047D02*
X58375D01*
X52067Y26988D02*
X58434D01*
X57224Y21417D02*
Y28110D01*
X57165Y21417D02*
Y28110D01*
X52067Y27283D02*
X58139D01*
X57401Y21417D02*
Y28110D01*
X57283Y21417D02*
Y28110D01*
X57342Y21417D02*
Y28110D01*
X56555Y27820D02*
X56845Y28110D01*
X56575Y27769D02*
Y27840D01*
X56727Y27992D02*
X57728D01*
X56668Y27933D02*
X57728D01*
X49764Y28169D02*
X56403D01*
X49764Y28228D02*
X56462D01*
X49764Y28287D02*
X56521D01*
X56253Y28019D02*
X56541Y28307D01*
X56457Y28223D02*
Y28307D01*
X53622D02*
X56541D01*
X52067Y27342D02*
X58080D01*
X56534Y27461D02*
X57962D01*
X52067Y27402D02*
X58021D01*
X56582Y27520D02*
X57902D01*
X56614Y27638D02*
X57788D01*
X56607Y27579D02*
X57843D01*
X56607Y27697D02*
X57757D01*
X56555Y27815D02*
X57746D01*
X56583Y27756D02*
X57746D01*
X56786Y28051D02*
X57744D01*
X56609Y27874D02*
X57744D01*
X56845Y28110D02*
X57778D01*
X56845Y28110D02*
X57778D01*
X57933Y21417D02*
Y27489D01*
X57815Y21417D02*
Y27607D01*
X57874Y21417D02*
Y27548D01*
X58110Y21417D02*
Y27312D01*
X57992Y21417D02*
Y27430D01*
X58051Y21417D02*
Y27371D01*
X57579Y21417D02*
Y28110D01*
X57461Y21417D02*
Y28110D01*
X57520Y21417D02*
Y28110D01*
X57756Y21417D02*
Y27702D01*
X57638Y21417D02*
Y28110D01*
X57697Y21417D02*
Y28110D01*
X58346Y21417D02*
Y27076D01*
X58228Y21417D02*
Y27194D01*
X58287Y21417D02*
Y27135D01*
X58405Y21417D02*
Y27017D01*
X58464Y21417D02*
Y26958D01*
X58524Y22417D02*
Y26899D01*
X58169Y21417D02*
Y27253D01*
X57810Y27612D02*
X59245Y26178D01*
X58179Y27855D02*
X59841Y26194D01*
X58583Y27452D02*
Y28110D01*
X58633Y27402D02*
X61617D01*
X58524Y27511D02*
Y28110D01*
X58574Y27461D02*
X61558D01*
X57746Y27766D02*
Y27868D01*
X58346Y27688D02*
Y28110D01*
X57756Y28077D02*
Y28110D01*
X58169Y28077D02*
Y28110D01*
X58405Y27629D02*
Y28110D01*
X58228Y27806D02*
Y28110D01*
X58287Y27747D02*
Y28110D01*
X58338Y27697D02*
X61322D01*
X58220Y27815D02*
X61203D01*
X58279Y27756D02*
X61262D01*
X58515Y27520D02*
X61499D01*
X58397Y27638D02*
X61381D01*
X58456Y27579D02*
X61440D01*
X58182Y27874D02*
X61144D01*
X58147Y28110D02*
X60908D01*
X58147Y28110D02*
X60908D01*
X58464Y27570D02*
Y28110D01*
X58197Y27933D02*
X61085D01*
X58182Y28051D02*
X60967D01*
X58197Y27992D02*
X61026D01*
X49764Y29055D02*
X50035D01*
X49764Y29173D02*
X49917D01*
X49764Y29114D02*
X49976D01*
X49764Y29291D02*
X49853D01*
X49764Y29232D02*
X49871D01*
X49764Y29527D02*
X49852D01*
X49764Y29646D02*
X49852D01*
X49764Y29587D02*
X49852D01*
X49764Y29350D02*
X49852D01*
X49764Y29468D02*
X49852D01*
X49764Y29409D02*
X49852D01*
X49764Y28524D02*
X53332D01*
X49764Y28642D02*
X53214D01*
X49764Y28583D02*
X53273D01*
X49764Y28346D02*
X53511D01*
X49764Y28465D02*
X53391D01*
X49764Y28405D02*
X53450D01*
X49764Y28878D02*
X52978D01*
X49764Y28996D02*
X50094D01*
X49764Y28937D02*
X52919D01*
X49764Y28701D02*
X53155D01*
X49764Y28819D02*
X53037D01*
X49764Y28760D02*
X53096D01*
X49764Y29882D02*
X49852D01*
X49764Y30000D02*
X49852D01*
X49764Y29941D02*
X49852D01*
X49764Y29705D02*
X49852D01*
X49764Y29823D02*
X49852D01*
X49764Y29764D02*
X49852D01*
X49764Y30236D02*
X49852D01*
X49764Y30354D02*
X49852D01*
X49764Y30295D02*
X49852D01*
X49764Y30059D02*
X49852D01*
X49764Y30177D02*
X49852D01*
X49764Y30118D02*
X49852D01*
X49764Y30590D02*
X49852D01*
X49764Y30709D02*
X49852D01*
X49764Y30650D02*
X49852D01*
X49764Y30413D02*
X49852D01*
X49764Y30531D02*
X49852D01*
X49764Y30472D02*
X49852D01*
X49764Y30768D02*
X49855D01*
X49764Y30827D02*
X49876D01*
X49764Y30886D02*
X49927D01*
X49764Y30945D02*
X49986D01*
X49764Y31004D02*
X50045D01*
X49764Y31063D02*
X50129D01*
X50217Y28947D02*
X52909D01*
X53497Y28359D01*
X49904Y29186D02*
X50091Y28999D01*
X49852Y29311D02*
Y30738D01*
X54429Y30058D02*
Y30584D01*
X54449Y30032D02*
Y30536D01*
X54466Y29761D02*
X54603Y29624D01*
X54429Y30177D02*
X54738D01*
X54744Y29493D02*
Y30172D01*
X54429Y30236D02*
X54666D01*
X54429Y30354D02*
X54557D01*
X54429Y30295D02*
X54607D01*
X54626Y29609D02*
Y30275D01*
X54685Y29552D02*
Y30219D01*
X54508Y29719D02*
Y30426D01*
X54567Y29660D02*
Y30342D01*
X49904Y30863D02*
X50062Y31021D01*
X51944Y30827D02*
X52007D01*
X52474Y30590D02*
X52506D01*
X52442Y30650D02*
X52538D01*
X50187Y31073D02*
X51624D01*
X51749Y31021D02*
X51958Y30813D01*
X52396Y30709D02*
X52585D01*
X52325Y30768D02*
X52655D01*
X52186Y30827D02*
X52794D01*
X54429Y30413D02*
X54516D01*
X54429Y30472D02*
X54480D01*
X51825Y30945D02*
X52948D01*
X51766Y31004D02*
X53007D01*
X51682Y31063D02*
X53066D01*
X51884Y30886D02*
X52889D01*
X54200Y31100D02*
X54370Y30929D01*
X54296Y31004D02*
X54375D01*
X54237Y31063D02*
X54384D01*
X50433Y31073D02*
Y32126D01*
X50256Y31073D02*
Y32126D01*
X50315Y31073D02*
Y32126D01*
X50610Y31073D02*
Y32126D01*
X50492Y31073D02*
Y32126D01*
X50551Y31073D02*
Y32126D01*
X49901Y30861D02*
Y32126D01*
X49961Y30920D02*
Y32126D01*
X50020Y30979D02*
Y32126D01*
X50079Y31036D02*
Y32126D01*
X50138Y31066D02*
Y32126D01*
X50197Y31073D02*
Y32126D01*
X51968Y30816D02*
Y32126D01*
X51909Y30861D02*
Y32126D01*
X52027Y30831D02*
Y32126D01*
X52205Y30822D02*
Y32126D01*
X52087Y30836D02*
Y32126D01*
X52146Y30834D02*
Y32126D01*
X51673Y31066D02*
Y32126D01*
X50669Y31073D02*
Y32126D01*
X50728Y31073D02*
Y32126D01*
X51850Y30920D02*
Y32126D01*
X51732Y31036D02*
Y32126D01*
X51791Y30979D02*
Y32126D01*
X51201Y31073D02*
Y32126D01*
X51083Y31073D02*
Y32126D01*
X51142Y31073D02*
Y32126D01*
X51378Y31073D02*
Y32126D01*
X51260Y31073D02*
Y32126D01*
X51319Y31073D02*
Y32126D01*
X50846Y31073D02*
Y32126D01*
X50374Y31073D02*
Y32126D01*
X50787Y31073D02*
Y32126D01*
X51024Y31073D02*
Y32126D01*
X50905Y31073D02*
Y32126D01*
X50964Y31073D02*
Y32126D01*
X49764Y31299D02*
X54460D01*
X49764Y31358D02*
X54491D01*
X49764Y31417D02*
X54529D01*
X49764Y31122D02*
X53130D01*
X49764Y31181D02*
X54413D01*
X49764Y31240D02*
X54434D01*
X49764Y31476D02*
X54573D01*
X49764Y31535D02*
X54625D01*
X49764Y31594D02*
X54688D01*
X51555Y31073D02*
Y32126D01*
X51614Y31073D02*
Y32126D01*
X51437Y31073D02*
Y32126D01*
X51496Y31073D02*
Y32126D01*
X52618Y30740D02*
Y32126D01*
X52677Y30781D02*
Y32126D01*
X52736Y30809D02*
Y32126D01*
X52795Y30827D02*
Y32126D01*
X52854Y30851D02*
Y32126D01*
X52913Y30910D02*
Y32126D01*
X52382Y30722D02*
Y32126D01*
X52264Y30801D02*
Y32126D01*
X52323Y30769D02*
Y32126D01*
X52500Y30576D02*
Y32126D01*
X52441Y30652D02*
Y32126D01*
X52559Y30679D02*
Y32126D01*
X52837Y30834D02*
X53103Y31100D01*
X54173Y31122D02*
X54396D01*
X52972Y30969D02*
Y32126D01*
X53031Y31028D02*
Y32126D01*
X53090Y31087D02*
Y32126D01*
X54272Y31028D02*
Y32126D01*
X54331Y30969D02*
Y32126D01*
X54212Y31087D02*
Y32126D01*
X54390Y31093D02*
Y32126D01*
X53622Y31152D02*
Y32126D01*
X53504Y31152D02*
Y32126D01*
X53563Y31152D02*
Y32126D01*
X53799Y31152D02*
Y32126D01*
X53681Y31152D02*
Y32126D01*
X53740Y31152D02*
Y32126D01*
X53149Y31133D02*
Y32126D01*
X53209Y31150D02*
Y32126D01*
X53268Y31152D02*
Y32126D01*
X53445Y31152D02*
Y32126D01*
X53327Y31152D02*
Y32126D01*
X53386Y31152D02*
Y32126D01*
X53917Y31152D02*
Y32126D01*
X53858Y31152D02*
Y32126D01*
X53228Y31152D02*
X54075D01*
X54094Y31150D02*
Y32126D01*
X53976Y31152D02*
Y32126D01*
X54035Y31152D02*
Y32126D01*
X54153Y31133D02*
Y32126D01*
X54449Y31275D02*
Y32126D01*
X54508Y31386D02*
Y32126D01*
X54567Y31469D02*
Y32126D01*
X54626Y31536D02*
Y32126D01*
X54685Y31592D02*
Y32126D01*
X54744Y31639D02*
Y32126D01*
X55216Y29252D02*
Y30002D01*
X54643Y29594D02*
X54985Y29252D01*
X55157D02*
Y30008D01*
X55394Y29252D02*
Y30008D01*
X55275Y29252D02*
Y30000D01*
X55335Y29252D02*
Y30002D01*
X55039Y29252D02*
Y30031D01*
X54921Y29316D02*
Y30072D01*
X54980Y29257D02*
Y30050D01*
X55512Y29252D02*
Y30031D01*
X55098Y29252D02*
Y30018D01*
X55453Y29252D02*
Y30017D01*
X55571Y29252D02*
Y30049D01*
X54985Y29252D02*
X61308D01*
X54945Y29291D02*
X65984D01*
X55748Y29252D02*
Y30133D01*
X55630Y29252D02*
Y30072D01*
X55689Y29252D02*
Y30100D01*
X55925Y29252D02*
Y30275D01*
X55807Y29252D02*
Y30172D01*
X55866Y29252D02*
Y30219D01*
X56102Y29252D02*
Y30536D01*
X55984Y29252D02*
Y30342D01*
X56043Y29252D02*
Y30425D01*
X54485Y29941D02*
X57131D01*
X54429Y30059D02*
X54954D01*
X54467Y30000D02*
X57100D01*
X54862Y29375D02*
Y30100D01*
X55723Y30118D02*
X57077D01*
X55597Y30059D02*
X57082D01*
X54803Y29434D02*
Y30133D01*
X54429Y30118D02*
X54829D01*
X55814Y30177D02*
X57082D01*
X55885Y30236D02*
X57100D01*
X55945Y30295D02*
X57131D01*
X55994Y30354D02*
X57182D01*
X54709Y29527D02*
X65984D01*
X54581Y29646D02*
X65984D01*
X54650Y29587D02*
X65984D01*
X54886Y29350D02*
X65984D01*
X54768Y29468D02*
X65984D01*
X54827Y29409D02*
X65984D01*
X54463Y29764D02*
X65984D01*
X54487Y29882D02*
X57183D01*
X54475Y29823D02*
X57282D01*
X56036Y30413D02*
X57242D01*
X54522Y29705D02*
X65984D01*
X56071Y30472D02*
X57301D01*
X56100Y30531D02*
X57360D01*
X57401Y29252D02*
Y29803D01*
X57283Y29252D02*
Y29822D01*
X57342Y29252D02*
Y29807D01*
X57579Y29252D02*
Y29865D01*
X57461Y29252D02*
Y29811D01*
X57520Y29252D02*
Y29830D01*
X57165Y29252D02*
Y29899D01*
X56161Y29252D02*
Y30717D01*
X57106Y29252D02*
Y29985D01*
X57756Y29252D02*
Y30037D01*
X57638Y29252D02*
Y29919D01*
X57697Y29252D02*
Y29978D01*
X57933Y29252D02*
Y30214D01*
X57815Y29252D02*
Y30096D01*
X57874Y29252D02*
Y30155D01*
X58110Y29252D02*
Y30391D01*
X57992Y29252D02*
Y30273D01*
X58051Y29252D02*
Y30332D01*
X58287Y29252D02*
Y30568D01*
X58169Y29252D02*
Y30450D01*
X58228Y29252D02*
Y30509D01*
X58464Y29252D02*
Y30745D01*
X58524Y29252D02*
Y30804D01*
X58346Y29252D02*
Y30627D01*
X58405Y29252D02*
Y30686D01*
X56125Y30590D02*
X57419D01*
X56144Y30650D02*
X57478D01*
X57224Y29252D02*
Y29851D01*
X58369Y30650D02*
X64368D01*
X58310Y30590D02*
X64427D01*
X56159Y30709D02*
X57537D01*
X56171Y30768D02*
X57596D01*
X56178Y30827D02*
X57655D01*
X58428Y30709D02*
X64309D01*
X58546Y30827D02*
X64190D01*
X58487Y30768D02*
X64250D01*
X57501Y29823D02*
X65984D01*
X57660Y29941D02*
X65076D01*
X57600Y29882D02*
X65162D01*
X57719Y30000D02*
X65017D01*
X57837Y30118D02*
X64899D01*
X57778Y30059D02*
X64958D01*
X57896Y30177D02*
X64840D01*
X58014Y30295D02*
X64722D01*
X57955Y30236D02*
X64781D01*
X58132Y30413D02*
X64604D01*
X58073Y30354D02*
X64663D01*
X58250Y30531D02*
X64486D01*
X58191Y30472D02*
X64545D01*
X49764Y31653D02*
X54765D01*
X54803Y31678D02*
Y32126D01*
X55807Y31639D02*
Y32126D01*
X54862Y31711D02*
Y32126D01*
X55748Y31678D02*
Y32126D01*
X55984Y31469D02*
Y32126D01*
X55866Y31592D02*
Y32126D01*
X55925Y31536D02*
Y32126D01*
X56161Y31094D02*
Y32126D01*
X56043Y31386D02*
Y32126D01*
X56102Y31275D02*
Y32126D01*
X56138Y31181D02*
X58009D01*
X56117Y31240D02*
X58068D01*
X56091Y31299D02*
X58127D01*
X56176Y31004D02*
X57832D01*
X56167Y31063D02*
X57891D01*
X56155Y31122D02*
X57950D01*
X55863Y31594D02*
X58423D01*
X55786Y31653D02*
X58482D01*
X56060Y31358D02*
X58186D01*
X56023Y31417D02*
X58245D01*
X55979Y31476D02*
X58305D01*
X55926Y31535D02*
X58364D01*
X49764Y31713D02*
X54865D01*
X54921Y31739D02*
Y32126D01*
X49764Y31772D02*
X55011D01*
X54980Y31761D02*
Y32126D01*
X55039Y31780D02*
Y32126D01*
X55098Y31793D02*
Y32126D01*
X55157Y31803D02*
Y32126D01*
X55216Y31809D02*
Y32126D01*
X55275Y31811D02*
Y32126D01*
X55453Y31794D02*
Y32126D01*
X55335Y31809D02*
Y32126D01*
X55394Y31803D02*
Y32126D01*
X49764Y31890D02*
X65984D01*
X49764Y32008D02*
X65984D01*
X49764Y31949D02*
X65984D01*
X55686Y31713D02*
X58541D01*
X55540Y31772D02*
X58606D01*
X49764Y31831D02*
X58783D01*
X49764Y32067D02*
X65984D01*
X49764Y32126D02*
X65984D01*
X49764Y32126D02*
X65984D01*
X55630Y31739D02*
Y32126D01*
X55689Y31711D02*
Y32126D01*
X55512Y31780D02*
Y32126D01*
X55571Y31762D02*
Y32126D01*
X56693Y29252D02*
Y32126D01*
X56575Y29252D02*
Y32126D01*
X56634Y29252D02*
Y32126D01*
X56870Y29252D02*
Y32126D01*
X56752Y29252D02*
Y32126D01*
X56811Y29252D02*
Y32126D01*
X56338Y29252D02*
Y32126D01*
X56220Y29252D02*
Y32126D01*
X56279Y29252D02*
Y32126D01*
X56516Y29252D02*
Y32126D01*
X56398Y29252D02*
Y32126D01*
X56457Y29252D02*
Y32126D01*
X57047Y29252D02*
Y32126D01*
X57106Y30251D02*
Y32126D01*
X57169Y30341D02*
X58566Y31738D01*
X58642Y29252D02*
Y30923D01*
X58583Y29252D02*
Y30864D01*
X57614Y29895D02*
X58920Y31201D01*
X56929Y29252D02*
Y32126D01*
X56988Y29252D02*
Y32126D01*
X57165Y30337D02*
Y32126D01*
X57224Y30396D02*
Y32126D01*
X57283Y30455D02*
Y32126D01*
X57342Y30514D02*
Y32126D01*
X57401Y30573D02*
Y32126D01*
X57461Y30632D02*
Y32126D01*
X56181Y30886D02*
X57714D01*
X56180Y30945D02*
X57773D01*
X57520Y30691D02*
Y32126D01*
X57638Y30809D02*
Y32126D01*
X57697Y30869D02*
Y32126D01*
X57579Y30750D02*
Y32126D01*
X57756Y30928D02*
Y32126D01*
X57815Y30987D02*
Y32126D01*
X57874Y31046D02*
Y32126D01*
X57933Y31105D02*
Y32126D01*
X57992Y31164D02*
Y32126D01*
X58464Y31636D02*
Y32126D01*
X58524Y31695D02*
Y32126D01*
X58605Y30886D02*
X64131D01*
X58583Y31753D02*
Y32126D01*
X58051Y31223D02*
Y32126D01*
X58110Y31282D02*
Y32126D01*
X58169Y31341D02*
Y32126D01*
X58228Y31400D02*
Y32126D01*
X58287Y31459D02*
Y32126D01*
X58346Y31518D02*
Y32126D01*
X58405Y31577D02*
Y32126D01*
X58819Y21417D02*
Y22084D01*
X58701Y21417D02*
Y22069D01*
X58760Y21417D02*
Y22069D01*
X58996Y21417D02*
Y22146D01*
X58878Y21417D02*
Y22119D01*
X58937Y21417D02*
Y22146D01*
X59055Y21417D02*
Y22146D01*
X59114Y21417D02*
Y22146D01*
X59173Y21731D02*
Y22146D01*
X59232Y21779D02*
Y22146D01*
X59291Y21803D02*
Y22146D01*
X59350Y21811D02*
Y22146D01*
X58825Y22087D02*
X59702D01*
X58906Y22146D02*
X59737D01*
X59468Y21957D02*
Y22146D01*
X59527Y22006D02*
Y22146D01*
X59409Y21804D02*
Y22146D01*
X59587Y22030D02*
Y22154D01*
X59646Y22037D02*
Y22189D01*
X59705Y22092D02*
Y22248D01*
X58906Y22146D02*
X59537D01*
X58906Y22461D02*
X59472D01*
X58861Y22500D02*
X59511D01*
X59468Y22461D02*
Y24512D01*
X59527Y22516D02*
Y24476D01*
X59291Y22461D02*
Y24689D01*
X59173Y22461D02*
Y24807D01*
X59232Y22461D02*
Y24748D01*
X59350Y22461D02*
Y24630D01*
X59409Y22461D02*
Y24571D01*
X59472Y22461D02*
X59721Y22710D01*
X59649Y22192D02*
X59785Y22328D01*
X59764Y22174D02*
Y22307D01*
X59721Y22264D02*
X59801D01*
X59662Y22205D02*
X59807D01*
X59587Y22575D02*
Y24469D01*
X59646Y22634D02*
Y24469D01*
X59577D02*
X59935D01*
X59705Y22693D02*
Y24469D01*
X59764Y22740D02*
Y24469D01*
X59833Y22756D02*
X60260D01*
X60177D02*
Y22838D01*
X60059Y22756D02*
Y22957D01*
X60118Y22756D02*
Y22897D01*
X59823Y22756D02*
Y24469D01*
X59882Y22756D02*
Y24469D01*
X59941Y22756D02*
Y24462D01*
X60000Y22756D02*
Y24403D01*
X60020Y23061D02*
Y24384D01*
X60066Y22949D02*
X60260Y22756D01*
X61407Y22913D02*
X62040D01*
X61407Y22972D02*
X62099D01*
X62017Y22890D02*
X62156Y23029D01*
X61428Y22890D02*
X62017D01*
X61407Y23031D02*
X62156D01*
X61407Y22911D02*
Y23681D01*
Y23386D02*
X62156D01*
X61407Y23327D02*
X62156D01*
X61407Y23150D02*
X62156D01*
X61407Y23091D02*
X62156D01*
X61407Y23268D02*
X62156D01*
X61407Y23209D02*
X62156D01*
X61362Y23799D02*
X62156D01*
X61397Y23740D02*
X62156D01*
X61407Y23445D02*
X62156D01*
X61407Y23563D02*
X62156D01*
X61407Y23504D02*
X62156D01*
X59935Y24469D02*
X60020Y24384D01*
X60787Y24375D02*
Y24646D01*
Y24375D02*
X61356Y23806D01*
X61245Y23917D02*
X62156D01*
X60949Y24213D02*
X62156D01*
X61186Y23976D02*
X62156D01*
X61407Y23622D02*
X62156D01*
X61304Y23858D02*
X62156D01*
X61407Y23681D02*
X62156D01*
X60758Y24744D02*
X62156D01*
X60644Y24862D02*
X62156D01*
X60703Y24803D02*
X62156D01*
X60787Y24567D02*
X62156D01*
X60787Y24508D02*
X62156D01*
X60783Y24685D02*
X62156D01*
X60787Y24626D02*
X62156D01*
X58996Y22461D02*
Y25132D01*
Y25321D02*
Y25776D01*
X59055Y22461D02*
Y25050D01*
X59055Y24990D02*
Y25050D01*
X59055Y25402D02*
Y25749D01*
X59055Y25402D02*
Y25748D01*
X58642Y22522D02*
Y26781D01*
X58701Y22538D02*
Y26721D01*
X58760Y22538D02*
Y26662D01*
X58937Y22461D02*
Y25830D01*
X58819Y22522D02*
Y26603D01*
X58878Y22488D02*
Y26544D01*
X59114Y22461D02*
Y24866D01*
X59101Y24879D02*
X59465Y24515D01*
X59904Y25375D02*
Y26040D01*
X59941Y25401D02*
Y28110D01*
X59904Y25453D02*
X62156D01*
X60000Y25426D02*
Y28110D01*
X60059Y25433D02*
Y28110D01*
X60118Y25426D02*
Y28110D01*
X58937Y26119D02*
Y26485D01*
X58996Y26173D02*
Y26426D01*
X59055Y26200D02*
Y26367D01*
X59114Y26210D02*
Y26308D01*
X59173Y26205D02*
Y26249D01*
X59587Y26448D02*
Y28110D01*
X59468Y26566D02*
Y28110D01*
X59527Y26507D02*
Y28110D01*
X59764Y26271D02*
Y28110D01*
X59646Y26389D02*
Y28110D01*
X59705Y26330D02*
Y28110D01*
X59904Y25689D02*
X61872D01*
X59904Y25807D02*
X61851D01*
X59904Y25748D02*
X61854D01*
X59904Y25512D02*
X62112D01*
X59904Y25630D02*
X61911D01*
X59904Y25571D02*
X61992D01*
X59823Y26212D02*
Y28110D01*
X59904Y25866D02*
X61864D01*
X59904Y25925D02*
X61895D01*
X59882Y26137D02*
Y28110D01*
X59904Y25984D02*
X61956D01*
X61240Y23922D02*
Y27778D01*
X61122Y24040D02*
Y27896D01*
X61181Y23981D02*
Y27837D01*
X61417Y22901D02*
Y27601D01*
X61299Y23863D02*
Y27719D01*
X61358Y23804D02*
Y27660D01*
X60886Y24276D02*
Y28110D01*
X60768Y24727D02*
Y28110D01*
X60827Y24335D02*
Y28110D01*
X61063Y24099D02*
Y27955D01*
X60945Y24217D02*
Y28074D01*
X61004Y24158D02*
Y28014D01*
X62008Y22890D02*
Y25565D01*
X61890Y22890D02*
Y25657D01*
X61949Y22890D02*
Y25596D01*
X62067Y22940D02*
Y25552D01*
X62126Y22999D02*
Y25498D01*
X62156Y23029D02*
Y25468D01*
X61594Y22890D02*
Y27424D01*
X61476Y22890D02*
Y27542D01*
X61535Y22890D02*
Y27483D01*
X61772Y22890D02*
Y27247D01*
X61831Y22890D02*
Y27188D01*
X61653Y22890D02*
Y27365D01*
X61712Y22890D02*
Y27306D01*
X60295Y25212D02*
X60736Y24771D01*
X60177Y25401D02*
Y28110D01*
X60295Y25211D02*
Y28110D01*
X60413Y25093D02*
Y28110D01*
X60354Y25152D02*
Y28110D01*
X61890Y25918D02*
Y27129D01*
X60531Y24975D02*
Y28110D01*
X60236Y25353D02*
Y28110D01*
X60472Y25034D02*
Y28110D01*
X60709Y24798D02*
Y28110D01*
X60590Y24916D02*
Y28110D01*
X60649Y24857D02*
Y28110D01*
X60408Y25098D02*
X62156D01*
X60294Y25216D02*
X62156D01*
X60349Y25157D02*
X62156D01*
X60585Y24921D02*
X62156D01*
X60467Y25039D02*
X62156D01*
X60526Y24980D02*
X62156D01*
X60282Y25276D02*
X62156D01*
X60190Y25394D02*
X62156D01*
X60251Y25335D02*
X62156D01*
X61949Y25979D02*
Y27070D01*
X62008Y26010D02*
Y27011D01*
X62067Y26023D02*
Y26951D01*
X62126Y26020D02*
Y26892D01*
X62657Y21417D02*
Y21621D01*
X62539Y21417D02*
Y21503D01*
X62598Y21417D02*
Y21562D01*
X62835Y21417D02*
Y21798D01*
X62716Y21417D02*
Y21680D01*
X62775Y21417D02*
Y21739D01*
X63012Y21417D02*
Y21975D01*
X62894Y21417D02*
Y21857D01*
X62953Y21417D02*
Y21916D01*
X63189Y21417D02*
Y22152D01*
X63071Y21417D02*
Y22034D01*
X63130Y21417D02*
Y22093D01*
X62454Y21417D02*
X65984D01*
X62533Y21496D02*
X65984D01*
X62473Y21437D02*
X65984D01*
X62592Y21555D02*
X65984D01*
X62710Y21673D02*
X65984D01*
X62651Y21614D02*
X65984D01*
X63307Y21417D02*
Y22270D01*
X63248Y21417D02*
Y22211D01*
X62456Y21420D02*
X63442Y22406D01*
X63484Y21417D02*
Y22472D01*
X63366Y21417D02*
Y22330D01*
X63425Y21417D02*
Y22389D01*
X63005Y21968D02*
X65984D01*
X61068Y24094D02*
X62156D01*
X61127Y24035D02*
X62156D01*
X63064Y22028D02*
X65984D01*
X60831Y24331D02*
X62156D01*
X60787Y24449D02*
X62156D01*
X60787Y24390D02*
X62156D01*
X61008Y24153D02*
X62156D01*
X62072Y25552D02*
X62156Y25468D01*
X60890Y24272D02*
X62156D01*
X62769Y21732D02*
X65984D01*
X62887Y21850D02*
X65984D01*
X62828Y21791D02*
X65984D01*
X62946Y21909D02*
X65984D01*
X63182Y22146D02*
X65984D01*
X63123Y22087D02*
X65984D01*
X63241Y22205D02*
X65984D01*
X63359Y22323D02*
X65984D01*
X63300Y22264D02*
X65984D01*
X63469Y22441D02*
X65984D01*
X63418Y22382D02*
X65984D01*
X63494Y22736D02*
X65984D01*
X63491Y22500D02*
X65984D01*
X63494Y23563D02*
X65984D01*
X63494Y23681D02*
X65984D01*
X63494Y23622D02*
X65984D01*
X63494Y23386D02*
X65984D01*
X63494Y23504D02*
X65984D01*
X63494Y23445D02*
X65984D01*
X63494Y23917D02*
X65984D01*
X63494Y24035D02*
X65984D01*
X63494Y23976D02*
X65984D01*
X63494Y23740D02*
X65984D01*
X63494Y23858D02*
X65984D01*
X63494Y23799D02*
X65984D01*
X63494Y22795D02*
X65984D01*
X63494Y22913D02*
X65984D01*
X63494Y22854D02*
X65984D01*
X63494Y22559D02*
X65984D01*
X63494Y22677D02*
X65984D01*
X63494Y22618D02*
X65984D01*
X63494Y23209D02*
X65984D01*
X63494Y23327D02*
X65984D01*
X63494Y23268D02*
X65984D01*
X63494Y23031D02*
X65984D01*
X63494Y22972D02*
X65984D01*
X63494Y23150D02*
X65984D01*
X63494Y23091D02*
X65984D01*
X63494Y25039D02*
X65984D01*
X63494Y25157D02*
X65984D01*
X63494Y25098D02*
X65984D01*
X63494Y24862D02*
X65984D01*
X63494Y24980D02*
X65984D01*
X63494Y24921D02*
X65984D01*
X63494Y25394D02*
X65984D01*
X63494Y25512D02*
X65984D01*
X63494Y25453D02*
X65984D01*
X63494Y25216D02*
X65984D01*
X63494Y25335D02*
X65984D01*
X63494Y25276D02*
X65984D01*
X63494Y24272D02*
X65984D01*
X63494Y24390D02*
X65984D01*
X63494Y24331D02*
X65984D01*
X63494Y24094D02*
X65984D01*
X63494Y24213D02*
X65984D01*
X63494Y24153D02*
X65984D01*
X63494Y24685D02*
X65984D01*
X63494Y24803D02*
X65984D01*
X63494Y24744D02*
X65984D01*
X63494Y24508D02*
X65984D01*
X63494Y24449D02*
X65984D01*
X63494Y24626D02*
X65984D01*
X63494Y24567D02*
X65984D01*
X62279Y25925D02*
X62352D01*
X62309Y25866D02*
X62352D01*
Y25772D02*
Y26666D01*
X62322Y25807D02*
X62352D01*
X62322Y25802D02*
X62352Y25772D01*
X63543Y21417D02*
Y31201D01*
X62303Y25882D02*
Y26715D01*
X63494Y22531D02*
Y27078D01*
X63720Y21417D02*
Y31201D01*
X63602Y21417D02*
Y31201D01*
X63661Y21417D02*
Y31201D01*
X63494Y25748D02*
X65984D01*
X63494Y25866D02*
X65984D01*
X63494Y25807D02*
X65984D01*
X63494Y25571D02*
X65984D01*
X63494Y25689D02*
X65984D01*
X63494Y25630D02*
X65984D01*
X63838Y21417D02*
Y31179D01*
X63779Y21417D02*
Y31201D01*
X63494Y25925D02*
X65984D01*
X64016Y21417D02*
Y31002D01*
X64075Y21417D02*
Y26286D01*
X63898Y21417D02*
Y31120D01*
X63957Y21417D02*
Y31061D01*
X59868Y26161D02*
X62352D01*
X59755Y26279D02*
X62352D01*
X59814Y26220D02*
X62352D01*
X62217Y25984D02*
X62352D01*
X59895Y26102D02*
X62352D01*
X59904Y26043D02*
X62352D01*
X59578Y26457D02*
X62352D01*
X59460Y26575D02*
X62352D01*
X59519Y26516D02*
X62352D01*
X62244Y25964D02*
Y26774D01*
X62185Y26002D02*
Y26833D01*
X59696Y26339D02*
X62352D01*
X63494Y26161D02*
X64129D01*
X63494Y26279D02*
X64076D01*
X63494Y26220D02*
X64097D01*
X63494Y25984D02*
X64377D01*
X63494Y26102D02*
X64176D01*
X63494Y26043D02*
X64245D01*
X63494Y26339D02*
X64065D01*
X59637Y26398D02*
X62352D01*
X63494D02*
X64062D01*
X63494Y26457D02*
X64067D01*
X63494Y26516D02*
X64081D01*
X63494Y26575D02*
X64105D01*
X64429Y21417D02*
Y25974D01*
X64311Y21417D02*
Y26007D01*
X64370Y21417D02*
Y25986D01*
X64606Y21417D02*
Y25991D01*
X64488Y21417D02*
Y25971D01*
X64547Y21417D02*
Y25977D01*
X64665Y21417D02*
Y26015D01*
X64193Y21417D02*
Y26085D01*
X64252Y21417D02*
Y26039D01*
X64842Y21417D02*
Y26181D01*
X64724Y21417D02*
Y26050D01*
X64783Y21417D02*
Y26102D01*
X65020Y21417D02*
Y26673D01*
X64901Y21417D02*
Y26791D01*
X64960Y21417D02*
Y26732D01*
X65492Y21417D02*
Y26810D01*
X65079Y21417D02*
Y26614D01*
X65138Y21417D02*
Y26555D01*
X65669Y21417D02*
Y26987D01*
X65551Y21417D02*
Y26869D01*
X65610Y21417D02*
Y26928D01*
X65964Y21417D02*
Y32126D01*
X65984Y21417D02*
Y32126D01*
X65728Y21417D02*
Y27046D01*
X65905Y21417D02*
Y32126D01*
X64134Y21417D02*
Y26155D01*
X64855Y26575D02*
X65117D01*
X65256Y21417D02*
Y26574D01*
X64878Y26516D02*
X65176D01*
X65197Y21417D02*
Y26515D01*
X64075Y26492D02*
Y30942D01*
X64596Y27096D02*
X65187Y26505D01*
X65433Y21417D02*
Y26751D01*
X65315Y21417D02*
Y26633D01*
X65374Y21417D02*
Y26692D01*
X64583Y25984D02*
X65984D01*
X64784Y26102D02*
X65984D01*
X64714Y26043D02*
X65984D01*
X64830Y26161D02*
X65984D01*
X64883Y26279D02*
X65984D01*
X64862Y26220D02*
X65984D01*
X64895Y26339D02*
X65984D01*
X64893Y26457D02*
X65984D01*
X64898Y26398D02*
X65984D01*
X65787Y21417D02*
Y32126D01*
X65846Y21417D02*
Y32126D01*
X65187Y26505D02*
X65778Y27096D01*
X65198Y26516D02*
X65984D01*
X59232Y26802D02*
Y28110D01*
X59114Y26921D02*
Y28110D01*
X59173Y26861D02*
Y28110D01*
X59409Y26625D02*
Y28110D01*
X59291Y26743D02*
Y28110D01*
X59350Y26684D02*
Y28110D01*
X58878Y27157D02*
Y28110D01*
X58760Y27275D02*
Y28110D01*
X58819Y27216D02*
Y28110D01*
X59055Y26980D02*
Y28110D01*
X58937Y27098D02*
Y28110D01*
X58996Y27039D02*
Y28110D01*
X59224Y26811D02*
X62207D01*
X59105Y26929D02*
X62089D01*
X59165Y26870D02*
X62148D01*
X59401Y26634D02*
X62352D01*
X59283Y26752D02*
X62266D01*
X59342Y26693D02*
X62325D01*
X58869Y27165D02*
X61853D01*
X58751Y27283D02*
X61735D01*
X58810Y27224D02*
X61794D01*
X59046Y26988D02*
X62030D01*
X58928Y27106D02*
X61912D01*
X58987Y27047D02*
X61971D01*
X58701Y27334D02*
Y28110D01*
X58642Y27393D02*
Y28110D01*
X58701Y29252D02*
Y30982D01*
X58878Y29252D02*
Y31159D01*
X58760Y29252D02*
Y31041D01*
X58819Y29252D02*
Y31100D01*
X59055Y29252D02*
Y31201D01*
X58937Y29252D02*
Y31201D01*
X58996Y29252D02*
Y31201D01*
X59232Y29252D02*
Y31201D01*
X59114Y29252D02*
Y31201D01*
X59173Y29252D02*
Y31201D01*
X58692Y27342D02*
X61676D01*
X59705Y29252D02*
Y31201D01*
X59764Y29252D02*
Y31201D01*
X59941Y29252D02*
Y31201D01*
X59823Y29252D02*
Y31201D01*
X59882Y29252D02*
Y31201D01*
X59409Y29252D02*
Y31201D01*
X59291Y29252D02*
Y31201D01*
X59350Y29252D02*
Y31201D01*
X59587Y29252D02*
Y31201D01*
X59646Y29252D02*
Y31201D01*
X59468Y29252D02*
Y31201D01*
X59527Y29252D02*
Y31201D01*
X60908Y28110D02*
X62352Y26666D01*
X61433Y29200D02*
X61484Y29149D01*
X62008Y28638D02*
Y31201D01*
X61476Y29157D02*
Y31201D01*
X61949Y28697D02*
Y31201D01*
X62185Y28461D02*
Y31201D01*
X62067Y28579D02*
Y31201D01*
X62126Y28520D02*
Y31201D01*
X61529Y29116D02*
X63442Y27203D01*
X62953Y27693D02*
Y31201D01*
X63012Y27634D02*
Y31201D01*
X63189Y27457D02*
Y31201D01*
X63071Y27575D02*
Y31201D01*
X63130Y27516D02*
Y31201D01*
X62539Y28106D02*
Y31201D01*
X62421Y28224D02*
Y31201D01*
X62480Y28165D02*
Y31201D01*
X62716Y27929D02*
Y31201D01*
X62894Y27752D02*
Y31201D01*
X62598Y28047D02*
Y31201D01*
X62657Y27988D02*
Y31201D01*
X60472Y29252D02*
Y31201D01*
X60354Y29252D02*
Y31201D01*
X60413Y29252D02*
Y31201D01*
X60649Y29252D02*
Y31201D01*
X60531Y29252D02*
Y31201D01*
X60590Y29252D02*
Y31201D01*
X60118Y29252D02*
Y31201D01*
X60000Y29252D02*
Y31201D01*
X60059Y29252D02*
Y31201D01*
X60295Y29252D02*
Y31201D01*
X60177Y29252D02*
Y31201D01*
X60236Y29252D02*
Y31201D01*
X61240Y29252D02*
Y31201D01*
X61122Y29252D02*
Y31201D01*
X61181Y29252D02*
Y31201D01*
X61417Y29214D02*
Y31201D01*
X61299Y29252D02*
Y31201D01*
X61358Y29245D02*
Y31201D01*
X60827Y29252D02*
Y31201D01*
X60709Y29252D02*
Y31201D01*
X60768Y29252D02*
Y31201D01*
X61004Y29252D02*
Y31201D01*
X61063Y29252D02*
Y31201D01*
X60886Y29252D02*
Y31201D01*
X60945Y29252D02*
Y31201D01*
X59114Y31831D02*
Y32126D01*
X58996Y31831D02*
Y32126D01*
X59055Y31831D02*
Y32126D01*
X59291Y31831D02*
Y32126D01*
X59173Y31831D02*
Y32126D01*
X59232Y31831D02*
Y32126D01*
X58642Y31794D02*
Y32126D01*
X58701Y31818D02*
Y32126D01*
X58760Y31829D02*
Y32126D01*
X58937Y31831D02*
Y32126D01*
X58819Y31831D02*
Y32126D01*
X58878Y31831D02*
Y32126D01*
X59823Y31831D02*
Y32126D01*
X59705Y31831D02*
Y32126D01*
X59764Y31831D02*
Y32126D01*
X60000Y31831D02*
Y32126D01*
X59882Y31831D02*
Y32126D01*
X59941Y31831D02*
Y32126D01*
X59468Y31831D02*
Y32126D01*
X59350Y31831D02*
Y32126D01*
X59409Y31831D02*
Y32126D01*
X59646Y31831D02*
Y32126D01*
X59527Y31831D02*
Y32126D01*
X59587Y31831D02*
Y32126D01*
X60531Y31831D02*
Y32126D01*
X60413Y31831D02*
Y32126D01*
X60472Y31831D02*
Y32126D01*
X60709Y31831D02*
Y32126D01*
X60590Y31831D02*
Y32126D01*
X60649Y31831D02*
Y32126D01*
X60177Y31831D02*
Y32126D01*
X60059Y31831D02*
Y32126D01*
X60118Y31831D02*
Y32126D01*
X60354Y31831D02*
Y32126D01*
X60236Y31831D02*
Y32126D01*
X60295Y31831D02*
Y32126D01*
X61299Y31831D02*
Y32126D01*
X61181Y31831D02*
Y32126D01*
X61240Y31831D02*
Y32126D01*
X61476Y31831D02*
Y32126D01*
X61358Y31831D02*
Y32126D01*
X61417Y31831D02*
Y32126D01*
X60886Y31831D02*
Y32126D01*
X60768Y31831D02*
Y32126D01*
X60827Y31831D02*
Y32126D01*
X61063Y31831D02*
Y32126D01*
X61122Y31831D02*
Y32126D01*
X60945Y31831D02*
Y32126D01*
X61004Y31831D02*
Y32126D01*
X61653Y28992D02*
Y31201D01*
X61535Y29110D02*
Y31201D01*
X61594Y29051D02*
Y31201D01*
X61890Y28756D02*
Y31201D01*
X61712Y28933D02*
Y31201D01*
X61831Y28815D02*
Y31201D01*
X61653Y31831D02*
Y32126D01*
X61535Y31831D02*
Y32126D01*
X61594Y31831D02*
Y32126D01*
X61772Y28874D02*
Y31201D01*
X61712Y31831D02*
Y32126D01*
X62008Y31831D02*
Y32126D01*
X62362Y28284D02*
Y31201D01*
X62244Y28402D02*
Y31201D01*
X62303Y28343D02*
Y31201D01*
X63366Y27280D02*
Y31201D01*
X62775Y27870D02*
Y31201D01*
X62835Y27811D02*
Y31201D01*
X62185Y31831D02*
Y32126D01*
X62067Y31831D02*
Y32126D01*
X62126Y31831D02*
Y32126D01*
X63307Y27339D02*
Y31201D01*
X63425Y27221D02*
Y31201D01*
X62244Y31831D02*
Y32126D01*
X63248Y27398D02*
Y31201D01*
X62539Y31831D02*
Y32126D01*
X62421Y31831D02*
Y32126D01*
X62480Y31831D02*
Y32126D01*
X62716Y31831D02*
Y32126D01*
X62598Y31831D02*
Y32126D01*
X62657Y31831D02*
Y32126D01*
X61890Y31831D02*
Y32126D01*
X61772Y31831D02*
Y32126D01*
X61831Y31831D02*
Y32126D01*
X62362Y31831D02*
Y32126D01*
X61949Y31831D02*
Y32126D01*
X62303Y31831D02*
Y32126D01*
X63307Y31831D02*
Y32126D01*
X63189Y31831D02*
Y32126D01*
X63248Y31831D02*
Y32126D01*
X63484Y31831D02*
Y32126D01*
X63366Y31831D02*
Y32126D01*
X63425Y31831D02*
Y32126D01*
X62894Y31831D02*
Y32126D01*
X62775Y31831D02*
Y32126D01*
X62835Y31831D02*
Y32126D01*
X63071Y31831D02*
Y32126D01*
X63130Y31831D02*
Y32126D01*
X62953Y31831D02*
Y32126D01*
X63012Y31831D02*
Y32126D01*
X63494Y26929D02*
X64763D01*
X63494Y27047D02*
X64645D01*
X63494Y26988D02*
X64704D01*
X63494Y26634D02*
X64141D01*
X63494Y26693D02*
X64192D01*
X63494Y26752D02*
X64272D01*
X63421Y27224D02*
X64724D01*
X64606Y26788D02*
Y27086D01*
X63492Y27106D02*
X64605D01*
X63471Y27165D02*
X64665D01*
X63303Y27342D02*
X64842D01*
X63244Y27402D02*
X64901D01*
X63185Y27461D02*
X64960D01*
X63494Y26811D02*
X64881D01*
X63362Y27283D02*
X64783D01*
X63494Y26870D02*
X64822D01*
X63008Y27638D02*
X65137D01*
X62890Y27756D02*
X65984D01*
X62949Y27697D02*
X65984D01*
X64596Y27096D02*
X65187Y27688D01*
X63126Y27520D02*
X65019D01*
X63067Y27579D02*
X65078D01*
X61886Y28760D02*
X65984D01*
X61768Y28878D02*
X65984D01*
X61827Y28819D02*
X65984D01*
X62063Y28583D02*
X65984D01*
X61945Y28701D02*
X65984D01*
X62004Y28642D02*
X65984D01*
X61531Y29114D02*
X65984D01*
X61389Y29232D02*
X65984D01*
X61460Y29173D02*
X65984D01*
X61709Y28937D02*
X65984D01*
X61591Y29055D02*
X65984D01*
X61650Y28996D02*
X65984D01*
X62654Y27992D02*
X65984D01*
X62535Y28110D02*
X65984D01*
X62594Y28051D02*
X65984D01*
X62831Y27815D02*
X65984D01*
X62713Y27933D02*
X65984D01*
X62772Y27874D02*
X65984D01*
X62240Y28405D02*
X65984D01*
X62122Y28524D02*
X65984D01*
X62181Y28465D02*
X65984D01*
X62417Y28228D02*
X65984D01*
X62476Y28169D02*
X65984D01*
X62299Y28346D02*
X65984D01*
X62358Y28287D02*
X65984D01*
X64767Y26693D02*
X64999D01*
X64724Y26729D02*
Y26968D01*
X64688Y26752D02*
X64940D01*
X64842Y26598D02*
Y26850D01*
X64783Y26677D02*
Y26909D01*
X64819Y26634D02*
X65058D01*
X64665Y26764D02*
Y27027D01*
X65187Y27688D02*
X65778Y27096D01*
X65257Y26575D02*
X65984D01*
X65375Y26693D02*
X65984D01*
X65316Y26634D02*
X65984D01*
X65434Y26752D02*
X65984D01*
X65552Y26870D02*
X65984D01*
X65493Y26811D02*
X65984D01*
X65611Y26929D02*
X65984D01*
X65591Y27283D02*
X65984D01*
X65650Y27224D02*
X65984D01*
X65729Y27047D02*
X65984D01*
X65670Y26988D02*
X65984D01*
X65709Y27165D02*
X65984D01*
X65769Y27106D02*
X65984D01*
X65079Y27579D02*
Y29939D01*
X65138Y27638D02*
Y29895D01*
X65197Y27678D02*
Y29868D01*
X65374Y27501D02*
Y29862D01*
X65256Y27619D02*
Y29855D01*
X65315Y27560D02*
Y29853D01*
X64901Y27402D02*
Y30116D01*
X64960Y27461D02*
Y30057D01*
X65020Y27520D02*
Y29998D01*
X65355Y27520D02*
X65984D01*
X65237Y27638D02*
X65984D01*
X65296Y27579D02*
X65984D01*
X65532Y27342D02*
X65984D01*
X65414Y27461D02*
X65984D01*
X65473Y27402D02*
X65984D01*
X65492Y27383D02*
Y29921D01*
X65433Y27442D02*
Y29884D01*
X65428Y29882D02*
X65984D01*
X65551Y27324D02*
Y29984D01*
X65514Y29941D02*
X65984D01*
X65591Y30059D02*
X65984D01*
X65562Y30000D02*
X65984D01*
X64134Y26624D02*
Y30883D01*
X58664Y30945D02*
X64072D01*
X64193Y26693D02*
Y30824D01*
X64252Y26740D02*
Y30765D01*
X64311Y26772D02*
Y30706D01*
X64370Y26793D02*
Y30647D01*
X58723Y31004D02*
X64013D01*
X58841Y31122D02*
X63895D01*
X58782Y31063D02*
X63954D01*
X63484Y27137D02*
Y31201D01*
X58920D02*
X63816D01*
X58900Y31181D02*
X63836D01*
X64429Y26804D02*
Y30588D01*
X64488Y26807D02*
Y30529D01*
X63816Y31201D02*
X65072Y29945D01*
X64547Y26802D02*
Y30470D01*
X64606Y27107D02*
Y30411D01*
X64609Y31299D02*
X65984D01*
X64170Y31738D02*
X65517Y30391D01*
X64488Y31420D02*
Y32126D01*
X64432Y31476D02*
X65984D01*
X64606Y31302D02*
Y32126D01*
X64550Y31358D02*
X65984D01*
X64547Y31361D02*
Y32126D01*
X64491Y31417D02*
X65984D01*
X63602Y31831D02*
Y32126D01*
X63543Y31831D02*
Y32126D01*
X58789Y31831D02*
X63947D01*
X63779D02*
Y32126D01*
X63661Y31831D02*
Y32126D01*
X63720Y31831D02*
Y32126D01*
X63957Y31831D02*
Y32126D01*
X63838Y31831D02*
Y32126D01*
X63898Y31831D02*
Y32126D01*
X64134Y31769D02*
Y32126D01*
X64016Y31823D02*
Y32126D01*
X64075Y31804D02*
Y32126D01*
X64195Y31713D02*
X65984D01*
X63953Y31831D02*
X65984D01*
X64131Y31772D02*
X65984D01*
X64373Y31535D02*
X65984D01*
X64255Y31653D02*
X65984D01*
X64314Y31594D02*
X65984D01*
X64193Y31715D02*
Y32126D01*
X64370Y31538D02*
Y32126D01*
X64429Y31479D02*
Y32126D01*
X64252Y31656D02*
Y32126D01*
X64311Y31597D02*
Y32126D01*
X64724Y27225D02*
Y30293D01*
X64783Y27284D02*
Y30234D01*
X64842Y27343D02*
Y30175D01*
X65610Y27265D02*
Y30158D01*
X64665Y27166D02*
Y30352D01*
X65433Y30475D02*
Y32126D01*
X65492Y30416D02*
Y32126D01*
X65551Y30351D02*
Y32126D01*
X65610Y30176D02*
Y32126D01*
X65549Y30354D02*
X65984D01*
X65583Y30295D02*
X65984D01*
X65606Y30118D02*
X65984D01*
X65603Y30236D02*
X65984D01*
X65610Y30177D02*
X65984D01*
X65495Y30413D02*
X65984D01*
X65377Y30531D02*
X65984D01*
X65436Y30472D02*
X65984D01*
X65669Y27206D02*
Y32126D01*
X65728Y27147D02*
Y32126D01*
X65138Y30770D02*
Y32126D01*
X65020Y30888D02*
Y32126D01*
X65079Y30829D02*
Y32126D01*
X65315Y30593D02*
Y32126D01*
X65197Y30711D02*
Y32126D01*
X65256Y30652D02*
Y32126D01*
X64783Y31125D02*
Y32126D01*
X64665Y31243D02*
Y32126D01*
X64724Y31184D02*
Y32126D01*
X64960Y30948D02*
Y32126D01*
X64842Y31066D02*
Y32126D01*
X64901Y31007D02*
Y32126D01*
X65140Y30768D02*
X65984D01*
X65022Y30886D02*
X65984D01*
X65081Y30827D02*
X65984D01*
X65318Y30590D02*
X65984D01*
X65199Y30709D02*
X65984D01*
X65258Y30650D02*
X65984D01*
X64786Y31122D02*
X65984D01*
X64668Y31240D02*
X65984D01*
X64727Y31181D02*
X65984D01*
X65374Y30534D02*
Y32126D01*
X64963Y30945D02*
X65984D01*
X64845Y31063D02*
X65984D01*
X64904Y31004D02*
X65984D01*
D31*
X59688Y25228D02*
Y26040D01*
X57963Y27766D02*
X59688Y26040D01*
X57963Y27766D02*
Y27963D01*
D32*
X60581Y23370D02*
Y23526D01*
X51624Y30896D02*
X52096Y30423D01*
X50187Y30896D02*
X51624D01*
X50030Y30738D02*
X50187Y30896D01*
X50030Y29311D02*
Y30738D01*
Y29311D02*
X50217Y29124D01*
X52982D01*
X52884Y29636D02*
X53839Y28681D01*
X61145D01*
X54311Y28878D02*
X61226D01*
X52884Y30423D02*
Y30630D01*
X53228Y30974D01*
X54075D01*
X54252Y30797D01*
Y29902D02*
Y30797D01*
X54075Y29114D02*
X54311Y28878D01*
X53671Y29636D02*
X54341D01*
X54508Y29469D01*
X54518D01*
X54911Y29075D01*
X60020Y22352D02*
X60069Y22303D01*
X59921Y21998D02*
X60020Y22096D01*
X59646Y21801D02*
X59705Y21742D01*
X59350Y21575D02*
X59380Y21545D01*
X60069Y22303D02*
X62254D01*
X62726Y22776D01*
X62331Y21545D02*
X63317Y22531D01*
X62250Y21742D02*
X63120Y22613D01*
X62326Y22096D02*
X62923Y22694D01*
X60020Y22096D02*
X62326D01*
X59705Y21742D02*
X62250D01*
X59380Y21545D02*
X62331D01*
X60354Y23752D02*
X60581Y23526D01*
X60354Y23752D02*
Y24522D01*
X60073Y24803D02*
X60354Y24522D01*
X59911Y24803D02*
X60073D01*
X59688Y25027D02*
X59911Y24803D01*
X59688Y25027D02*
Y25228D01*
X60669Y23799D02*
X61033Y23435D01*
Y22756D02*
Y23435D01*
Y22756D02*
X61289Y22500D01*
X62156D01*
X62530Y22874D01*
X54911Y29075D02*
X61308D01*
X52982Y29124D02*
X53622Y28484D01*
X61063D01*
X61147Y28401D01*
X61159D01*
X62726Y26834D01*
Y22776D02*
Y26834D01*
X61145Y28681D02*
X61228Y28597D01*
X61241D01*
X62923Y26915D01*
Y22694D02*
Y26915D01*
X61226Y28878D02*
X61310Y28794D01*
X61322D01*
X63120Y26997D01*
Y22613D02*
Y26997D01*
X61308Y29075D02*
X61391Y28991D01*
X61404D01*
X63317Y27078D01*
Y22531D02*
Y27078D01*
X56772Y28287D02*
X60981D01*
X62530Y26739D01*
Y22874D02*
Y26739D01*
X60059Y25197D02*
X60610Y24646D01*
Y24301D02*
Y24646D01*
Y24301D02*
X61230Y23681D01*
Y22837D02*
Y23681D01*
Y22837D02*
X61355Y22713D01*
X62090D01*
X62333Y22956D01*
Y25541D01*
X62087Y25787D02*
X62333Y25541D01*
X56378Y27638D02*
Y27894D01*
X56772Y28287D01*
X64919Y27364D02*
X65187Y27096D01*
X64919Y26829D02*
X65187Y27096D01*
X65455Y26829D01*
X65187Y27096D02*
X65455Y27364D01*
D33*
X65295Y30167D02*
X65295D01*
X63947Y31516D02*
X65295Y30167D01*
X58789Y31516D02*
X63947D01*
X57392Y30118D02*
X58789Y31516D01*
D45*
X53671Y30423D02*
D03*
D46*
X52884D02*
D03*
X52096D02*
D03*
X51309D02*
D03*
X50522D02*
D03*
X53671Y29636D02*
D03*
X52884D02*
D03*
X52096D02*
D03*
X51309D02*
D03*
X50522D02*
D03*
D47*
X65187Y27096D02*
D03*
D48*
X64480Y26389D02*
D03*
D49*
X55315Y22638D02*
D03*
X55276Y30906D02*
D03*
D50*
X60581Y23370D02*
D03*
X54252Y29902D02*
D03*
X54075Y29114D02*
D03*
X63671Y28081D02*
D03*
X63868Y29587D02*
D03*
X63435Y30620D02*
D03*
X59547Y30886D02*
D03*
X59114Y30197D02*
D03*
X57392Y30118D02*
D03*
X58730Y22303D02*
D03*
X60059Y25197D02*
D03*
X59688Y25228D02*
D03*
X59213Y25226D02*
D03*
X59124Y25974D02*
D03*
X60669Y23799D02*
D03*
X60502Y22736D02*
D03*
X57963Y27963D02*
D03*
X60020Y22352D02*
D03*
X59921Y21998D02*
D03*
X59350Y21575D02*
D03*
X59646Y21801D02*
D03*
X62087Y25787D02*
D03*
X52254Y23031D02*
D03*
X52687D02*
D03*
X53110D02*
D03*
X52362Y22195D02*
D03*
X52756D02*
D03*
X53120D02*
D03*
Y21732D02*
D03*
X53976Y21673D02*
D03*
Y22067D02*
D03*
Y22480D02*
D03*
Y22923D02*
D03*
Y23307D02*
D03*
Y23691D02*
D03*
X54380D02*
D03*
X54823D02*
D03*
X54931Y24114D02*
D03*
X55010Y24518D02*
D03*
X55423D02*
D03*
X55886D02*
D03*
X56279D02*
D03*
X56663D02*
D03*
X57106D02*
D03*
X53110Y23356D02*
D03*
Y23720D02*
D03*
X52667Y23789D02*
D03*
Y24144D02*
D03*
Y24547D02*
D03*
Y24970D02*
D03*
Y25374D02*
D03*
Y25738D02*
D03*
Y26152D02*
D03*
X52795Y26486D02*
D03*
X53209Y26526D02*
D03*
X53563Y26378D02*
D03*
X53524Y26004D02*
D03*
X53504Y25659D02*
D03*
X53484Y25276D02*
D03*
X54134Y26339D02*
D03*
X54803Y25512D02*
D03*
X55177D02*
D03*
X55581D02*
D03*
X55984D02*
D03*
X56407D02*
D03*
X56782D02*
D03*
X57726Y25276D02*
D03*
X58110Y24931D02*
D03*
X56811Y23573D02*
D03*
X58789Y24262D02*
D03*
X59734D02*
D03*
X58789Y23317D02*
D03*
X59734D02*
D03*
X59262Y23789D02*
D03*
X60925Y25630D02*
D03*
X61880Y23484D02*
D03*
X55394Y28061D02*
D03*
X54724D02*
D03*
X58386Y27894D02*
D03*
X58937Y27392D02*
D03*
X61752Y24370D02*
D03*
X61988Y24114D02*
D03*
X61712Y23868D02*
D03*
X62008Y24961D02*
D03*
X64016Y21890D02*
D03*
X64803Y23150D02*
D03*
X65315Y31535D02*
D03*
X56663Y31624D02*
D03*
X57126Y31122D02*
D03*
X51063Y31476D02*
D03*
X51831Y31850D02*
D03*
X53386Y31663D02*
D03*
X54764Y31949D02*
D03*
X64429Y24222D02*
D03*
X55669Y26673D02*
D03*
X64429Y27766D02*
D03*
X60148Y25955D02*
D03*
X61329Y31988D02*
D03*
X58022Y31978D02*
D03*
X52136Y21772D02*
D03*
X56663Y22707D02*
D03*
X57205Y21919D02*
D03*
X57785Y22884D02*
D03*
X56319Y29774D02*
D03*
X50177Y28760D02*
D03*
X51703Y28720D02*
D03*
X52953Y28386D02*
D03*
X53474Y27589D02*
D03*
X56378Y27638D02*
D03*
D51*
X65295Y30167D02*
D03*
M02*
