G04 Layer_Color=8388736*
%FSLAX24Y24*%
%MOIN*%
G70*
G01*
G75*
G04:AMPARAMS|DCode=70|XSize=90.7mil|YSize=86.7mil|CornerRadius=23.7mil|HoleSize=0mil|Usage=FLASHONLY|Rotation=270.000|XOffset=0mil|YOffset=0mil|HoleType=Round|Shape=RoundedRectangle|*
%AMROUNDEDRECTD70*
21,1,0.0907,0.0394,0,0,270.0*
21,1,0.0433,0.0867,0,0,270.0*
1,1,0.0474,-0.0197,-0.0217*
1,1,0.0474,-0.0197,0.0217*
1,1,0.0474,0.0197,0.0217*
1,1,0.0474,0.0197,-0.0217*
%
%ADD70ROUNDEDRECTD70*%
G04:AMPARAMS|DCode=71|XSize=49mil|YSize=44mil|CornerRadius=5.8mil|HoleSize=0mil|Usage=FLASHONLY|Rotation=270.000|XOffset=0mil|YOffset=0mil|HoleType=Round|Shape=RoundedRectangle|*
%AMROUNDEDRECTD71*
21,1,0.0490,0.0324,0,0,270.0*
21,1,0.0374,0.0440,0,0,270.0*
1,1,0.0116,-0.0162,-0.0187*
1,1,0.0116,-0.0162,0.0187*
1,1,0.0116,0.0162,0.0187*
1,1,0.0116,0.0162,-0.0187*
%
%ADD71ROUNDEDRECTD71*%
%ADD72O,0.0880X0.0375*%
%ADD73O,0.0336X0.0887*%
G04:AMPARAMS|DCode=74|XSize=134mil|YSize=88.7mil|CornerRadius=24.2mil|HoleSize=0mil|Usage=FLASHONLY|Rotation=180.000|XOffset=0mil|YOffset=0mil|HoleType=Round|Shape=RoundedRectangle|*
%AMROUNDEDRECTD74*
21,1,0.1340,0.0404,0,0,180.0*
21,1,0.0856,0.0887,0,0,180.0*
1,1,0.0484,-0.0428,0.0202*
1,1,0.0484,0.0428,0.0202*
1,1,0.0484,0.0428,-0.0202*
1,1,0.0484,-0.0428,-0.0202*
%
%ADD74ROUNDEDRECTD74*%
%ADD75O,0.0157X0.0669*%
%ADD76O,0.0669X0.0157*%
G04:AMPARAMS|DCode=77|XSize=118.2mil|YSize=55.2mil|CornerRadius=15.8mil|HoleSize=0mil|Usage=FLASHONLY|Rotation=90.000|XOffset=0mil|YOffset=0mil|HoleType=Round|Shape=RoundedRectangle|*
%AMROUNDEDRECTD77*
21,1,0.1182,0.0236,0,0,90.0*
21,1,0.0866,0.0552,0,0,90.0*
1,1,0.0316,0.0118,0.0433*
1,1,0.0316,0.0118,-0.0433*
1,1,0.0316,-0.0118,-0.0433*
1,1,0.0316,-0.0118,0.0433*
%
%ADD77ROUNDEDRECTD77*%
G04:AMPARAMS|DCode=78|XSize=202.9mil|YSize=78.9mil|CornerRadius=21.7mil|HoleSize=0mil|Usage=FLASHONLY|Rotation=90.000|XOffset=0mil|YOffset=0mil|HoleType=Round|Shape=RoundedRectangle|*
%AMROUNDEDRECTD78*
21,1,0.2029,0.0354,0,0,90.0*
21,1,0.1594,0.0789,0,0,90.0*
1,1,0.0434,0.0177,0.0797*
1,1,0.0434,0.0177,-0.0797*
1,1,0.0434,-0.0177,-0.0797*
1,1,0.0434,-0.0177,0.0797*
%
%ADD78ROUNDEDRECTD78*%
G04:AMPARAMS|DCode=79|XSize=98.6mil|YSize=90.7mil|CornerRadius=16.4mil|HoleSize=0mil|Usage=FLASHONLY|Rotation=0.000|XOffset=0mil|YOffset=0mil|HoleType=Round|Shape=RoundedRectangle|*
%AMROUNDEDRECTD79*
21,1,0.0986,0.0579,0,0,0.0*
21,1,0.0657,0.0907,0,0,0.0*
1,1,0.0328,0.0329,-0.0289*
1,1,0.0328,-0.0329,-0.0289*
1,1,0.0328,-0.0329,0.0289*
1,1,0.0328,0.0329,0.0289*
%
%ADD79ROUNDEDRECTD79*%
G04:AMPARAMS|DCode=80|XSize=36mil|YSize=43.8mil|CornerRadius=6.8mil|HoleSize=0mil|Usage=FLASHONLY|Rotation=90.000|XOffset=0mil|YOffset=0mil|HoleType=Round|Shape=RoundedRectangle|*
%AMROUNDEDRECTD80*
21,1,0.0360,0.0302,0,0,90.0*
21,1,0.0224,0.0438,0,0,90.0*
1,1,0.0136,0.0151,0.0112*
1,1,0.0136,0.0151,-0.0112*
1,1,0.0136,-0.0151,-0.0112*
1,1,0.0136,-0.0151,0.0112*
%
%ADD80ROUNDEDRECTD80*%
G04:AMPARAMS|DCode=81|XSize=36mil|YSize=43.8mil|CornerRadius=6.8mil|HoleSize=0mil|Usage=FLASHONLY|Rotation=0.000|XOffset=0mil|YOffset=0mil|HoleType=Round|Shape=RoundedRectangle|*
%AMROUNDEDRECTD81*
21,1,0.0360,0.0302,0,0,0.0*
21,1,0.0224,0.0438,0,0,0.0*
1,1,0.0136,0.0112,-0.0151*
1,1,0.0136,-0.0112,-0.0151*
1,1,0.0136,-0.0112,0.0151*
1,1,0.0136,0.0112,0.0151*
%
%ADD81ROUNDEDRECTD81*%
G04:AMPARAMS|DCode=82|XSize=55.2mil|YSize=82.8mil|CornerRadius=15.8mil|HoleSize=0mil|Usage=FLASHONLY|Rotation=180.000|XOffset=0mil|YOffset=0mil|HoleType=Round|Shape=RoundedRectangle|*
%AMROUNDEDRECTD82*
21,1,0.0552,0.0512,0,0,180.0*
21,1,0.0236,0.0828,0,0,180.0*
1,1,0.0316,-0.0118,0.0256*
1,1,0.0316,0.0118,0.0256*
1,1,0.0316,0.0118,-0.0256*
1,1,0.0316,-0.0118,-0.0256*
%
%ADD82ROUNDEDRECTD82*%
G04:AMPARAMS|DCode=83|XSize=94.6mil|YSize=76.9mil|CornerRadius=21.2mil|HoleSize=0mil|Usage=FLASHONLY|Rotation=180.000|XOffset=0mil|YOffset=0mil|HoleType=Round|Shape=RoundedRectangle|*
%AMROUNDEDRECTD83*
21,1,0.0946,0.0344,0,0,180.0*
21,1,0.0522,0.0769,0,0,180.0*
1,1,0.0424,-0.0261,0.0172*
1,1,0.0424,0.0261,0.0172*
1,1,0.0424,0.0261,-0.0172*
1,1,0.0424,-0.0261,-0.0172*
%
%ADD83ROUNDEDRECTD83*%
G04:AMPARAMS|DCode=84|XSize=59.2mil|YSize=80mil|CornerRadius=6.6mil|HoleSize=0mil|Usage=FLASHONLY|Rotation=0.000|XOffset=0mil|YOffset=0mil|HoleType=Round|Shape=RoundedRectangle|*
%AMROUNDEDRECTD84*
21,1,0.0592,0.0669,0,0,0.0*
21,1,0.0461,0.0800,0,0,0.0*
1,1,0.0131,0.0230,-0.0335*
1,1,0.0131,-0.0230,-0.0335*
1,1,0.0131,-0.0230,0.0335*
1,1,0.0131,0.0230,0.0335*
%
%ADD84ROUNDEDRECTD84*%
%ADD85O,0.0474X0.0926*%
G04:AMPARAMS|DCode=86|XSize=287.5mil|YSize=226.5mil|CornerRadius=14.9mil|HoleSize=0mil|Usage=FLASHONLY|Rotation=270.000|XOffset=0mil|YOffset=0mil|HoleType=Round|Shape=RoundedRectangle|*
%AMROUNDEDRECTD86*
21,1,0.2875,0.1967,0,0,270.0*
21,1,0.2577,0.2265,0,0,270.0*
1,1,0.0299,-0.0983,-0.1288*
1,1,0.0299,-0.0983,0.1288*
1,1,0.0299,0.0983,0.1288*
1,1,0.0299,0.0983,-0.1288*
%
%ADD86ROUNDEDRECTD86*%
%ADD87C,0.1025*%
%ADD88R,0.0680X0.0680*%
%ADD89C,0.0680*%
%ADD90R,0.0680X0.0680*%
%ADD91C,0.1261*%
%ADD92C,0.0789*%
%ADD93R,0.0789X0.0789*%
%ADD94C,0.0828*%
G36*
X33608Y28483D02*
X33617Y28484D01*
X33688Y28465D01*
X33694Y28460D01*
X33702Y28458D01*
X33761Y28415D01*
X33766Y28408D01*
X33772Y28403D01*
X33812Y28341D01*
X33813Y28333D01*
X33817Y28326D01*
X33831Y28254D01*
X33830Y28250D01*
X33832Y28246D01*
Y25640D01*
X33830Y25636D01*
X33831Y25632D01*
X33817Y25558D01*
X33813Y25551D01*
X33811Y25543D01*
X33771Y25479D01*
X33764Y25474D01*
X33760Y25467D01*
X33699Y25422D01*
X33691Y25420D01*
X33684Y25415D01*
X33611Y25396D01*
X33603Y25397D01*
X33595Y25395D01*
X33520Y25404D01*
X33516Y25406D01*
X33512Y25405D01*
X33383Y25446D01*
X33381Y25447D01*
X33379Y25447D01*
X33229Y25507D01*
X33226Y25510D01*
X33222Y25510D01*
X33083Y25594D01*
X33081Y25596D01*
X33077Y25597D01*
X32952Y25701D01*
X32952Y25703D01*
X32950Y25704D01*
X32945Y25708D01*
X32945Y25710D01*
X32943Y25710D01*
X32794Y25876D01*
X32793Y25879D01*
X32791Y25880D01*
X32665Y26064D01*
X32664Y26067D01*
X32662Y26069D01*
X32562Y26268D01*
X32562Y26271D01*
X32560Y26274D01*
X32487Y26484D01*
X32487Y26487D01*
X32485Y26490D01*
X32441Y26708D01*
X32442Y26711D01*
X32440Y26714D01*
X32425Y26936D01*
X32426Y26939D01*
X32425Y26942D01*
X32440Y27164D01*
X32442Y27167D01*
X32441Y27170D01*
X32485Y27388D01*
X32487Y27391D01*
X32487Y27394D01*
X32560Y27604D01*
X32562Y27607D01*
X32562Y27610D01*
X32662Y27809D01*
X32664Y27811D01*
X32665Y27814D01*
X32791Y27998D01*
X32793Y27999D01*
X32794Y28002D01*
X32943Y28168D01*
X32945Y28168D01*
X32945Y28170D01*
X32948Y28172D01*
X32949Y28173D01*
X32950Y28174D01*
X33077Y28280D01*
X33080Y28281D01*
X33082Y28283D01*
X33224Y28368D01*
X33227Y28368D01*
X33230Y28371D01*
X33382Y28432D01*
X33384Y28432D01*
X33386Y28433D01*
X33520Y28475D01*
X33524Y28475D01*
X33528Y28477D01*
X33601Y28485D01*
X33608Y28483D01*
D02*
G37*
G36*
X42957Y28100D02*
X43053Y28060D01*
X43135Y27997D01*
X43198Y27915D01*
X43238Y27819D01*
X43251Y27717D01*
X43238Y27614D01*
X43198Y27518D01*
X43135Y27436D01*
X43053Y27373D01*
X42957Y27333D01*
X42854Y27319D01*
X42752Y27333D01*
X42656Y27373D01*
X42574Y27436D01*
X42510Y27518D01*
X42471Y27614D01*
X42457Y27717D01*
X42471Y27819D01*
X42510Y27915D01*
X42574Y27997D01*
X42656Y28060D01*
X42752Y28100D01*
X42854Y28114D01*
X42957Y28100D01*
D02*
G37*
G36*
X26432Y38573D02*
X26527Y38533D01*
X26610Y38470D01*
X26673Y38388D01*
X26712Y38292D01*
X26726Y38189D01*
X26712Y38086D01*
X26673Y37990D01*
X26610Y37908D01*
X26527Y37845D01*
X26432Y37805D01*
X26329Y37792D01*
X26226Y37805D01*
X26130Y37845D01*
X26048Y37908D01*
X25985Y37990D01*
X25945Y38086D01*
X25932Y38189D01*
X25945Y38292D01*
X25985Y38388D01*
X26048Y38470D01*
X26130Y38533D01*
X26226Y38573D01*
X26329Y38586D01*
X26432Y38573D01*
D02*
G37*
G36*
X35102Y28474D02*
X35106Y28472D01*
X35110Y28473D01*
X35239Y28432D01*
X35241Y28431D01*
X35243Y28431D01*
X35394Y28371D01*
X35396Y28368D01*
X35400Y28368D01*
X35539Y28284D01*
X35541Y28282D01*
X35545Y28280D01*
X35670Y28177D01*
X35671Y28175D01*
X35672Y28174D01*
X35677Y28170D01*
X35677Y28168D01*
X35679Y28168D01*
X35828Y28002D01*
X35829Y27999D01*
X35831Y27998D01*
X35957Y27814D01*
X35958Y27811D01*
X35960Y27809D01*
X36060Y27610D01*
X36060Y27607D01*
X36062Y27604D01*
X36135Y27394D01*
X36135Y27391D01*
X36137Y27388D01*
X36181Y27170D01*
X36180Y27167D01*
X36182Y27164D01*
X36197Y26942D01*
X36196Y26939D01*
X36197Y26936D01*
X36182Y26714D01*
X36180Y26711D01*
X36181Y26708D01*
X36137Y26490D01*
X36135Y26487D01*
X36135Y26484D01*
X36062Y26274D01*
X36060Y26271D01*
X36060Y26268D01*
X35960Y26069D01*
X35958Y26067D01*
X35957Y26064D01*
X35831Y25880D01*
X35829Y25879D01*
X35828Y25876D01*
X35679Y25710D01*
X35677Y25710D01*
X35677Y25708D01*
X35674Y25706D01*
X35673Y25705D01*
X35672Y25704D01*
X35545Y25598D01*
X35542Y25597D01*
X35540Y25594D01*
X35398Y25510D01*
X35395Y25510D01*
X35392Y25507D01*
X35240Y25446D01*
X35238Y25446D01*
X35236Y25445D01*
X35102Y25403D01*
X35098Y25403D01*
X35094Y25401D01*
X35021Y25393D01*
X35014Y25395D01*
X35005Y25394D01*
X34934Y25413D01*
X34928Y25418D01*
X34920Y25420D01*
X34861Y25463D01*
X34856Y25470D01*
X34850Y25475D01*
X34811Y25537D01*
X34809Y25545D01*
X34805Y25552D01*
X34791Y25624D01*
X34792Y25628D01*
X34790Y25632D01*
Y28238D01*
X34792Y28242D01*
X34791Y28246D01*
X34805Y28320D01*
X34810Y28327D01*
X34811Y28335D01*
X34851Y28399D01*
X34858Y28404D01*
X34862Y28411D01*
X34923Y28456D01*
X34931Y28458D01*
X34938Y28463D01*
X35011Y28482D01*
X35019Y28481D01*
X35027Y28483D01*
X35102Y28474D01*
D02*
G37*
D70*
X38612Y39163D02*
D03*
X36801D02*
D03*
X38612Y40837D02*
D03*
X36801D02*
D03*
D71*
X35768Y33120D02*
D03*
Y33790D02*
D03*
Y35197D02*
D03*
Y34527D02*
D03*
X34754Y38140D02*
D03*
Y37470D02*
D03*
D72*
X37156Y27549D02*
D03*
Y27049D02*
D03*
X39356D02*
D03*
Y27549D02*
D03*
X37156Y26049D02*
D03*
X39356D02*
D03*
X37156Y26549D02*
D03*
X39356D02*
D03*
D73*
X38049Y28455D02*
D03*
X38549D02*
D03*
X36549D02*
D03*
X37049D02*
D03*
X37549D02*
D03*
D74*
Y30817D02*
D03*
D75*
X38760Y32530D02*
D03*
X38957D02*
D03*
X39154D02*
D03*
X39350D02*
D03*
X39547D02*
D03*
X39744D02*
D03*
X39941D02*
D03*
X40138D02*
D03*
X40335D02*
D03*
X40532D02*
D03*
Y35837D02*
D03*
X40335D02*
D03*
X40138D02*
D03*
X39941D02*
D03*
X39744D02*
D03*
X39547D02*
D03*
X39350D02*
D03*
X39154D02*
D03*
X38957D02*
D03*
X38760D02*
D03*
X40728Y32530D02*
D03*
X40925D02*
D03*
Y35837D02*
D03*
X40728D02*
D03*
D76*
X41496Y33100D02*
D03*
Y33297D02*
D03*
Y33494D02*
D03*
Y33691D02*
D03*
Y33888D02*
D03*
Y34478D02*
D03*
Y34675D02*
D03*
Y34872D02*
D03*
Y35069D02*
D03*
Y35266D02*
D03*
Y34085D02*
D03*
Y34281D02*
D03*
X38189Y33888D02*
D03*
Y33691D02*
D03*
Y33494D02*
D03*
Y33297D02*
D03*
Y33100D02*
D03*
Y35266D02*
D03*
Y35069D02*
D03*
Y34872D02*
D03*
Y34675D02*
D03*
Y34478D02*
D03*
Y34281D02*
D03*
Y34085D02*
D03*
D77*
X35522Y39577D02*
D03*
X34380D02*
D03*
X35531Y40837D02*
D03*
X34390D02*
D03*
D78*
X44921Y38711D02*
D03*
X46654D02*
D03*
D79*
X36781Y34970D02*
D03*
Y33396D02*
D03*
D80*
X46900Y41171D02*
D03*
Y40561D02*
D03*
D81*
X36407Y36604D02*
D03*
X35797D02*
D03*
D82*
X45039Y35846D02*
D03*
X46299D02*
D03*
X46290Y34764D02*
D03*
X45030D02*
D03*
D83*
X45039Y37018D02*
D03*
X46654D02*
D03*
D84*
X44567Y33799D02*
D03*
X45867D02*
D03*
D85*
X44880Y32244D02*
D03*
X46675D02*
D03*
D86*
X45778Y29685D02*
D03*
D87*
X24600Y40050D02*
D03*
X46401Y26103D02*
D03*
D88*
X36161Y32146D02*
D03*
X33602Y30463D02*
D03*
X44951Y40896D02*
D03*
D89*
X37161Y32146D02*
D03*
X33868Y38352D02*
D03*
X42028Y26602D02*
D03*
X34980Y30463D02*
D03*
X45951Y40896D02*
D03*
X34553Y33531D02*
D03*
X33553D02*
D03*
X34553Y34532D02*
D03*
Y35531D02*
D03*
X33553Y34532D02*
D03*
D90*
X33868Y37352D02*
D03*
X42028Y28602D02*
D03*
X33553Y35531D02*
D03*
D91*
X28780Y40856D02*
D03*
X31811D02*
D03*
X42313D02*
D03*
D92*
X30295Y37974D02*
D03*
Y39156D02*
D03*
X29114Y37974D02*
D03*
Y39156D02*
D03*
X31476Y37974D02*
D03*
X32657D02*
D03*
X31476Y39156D02*
D03*
X27933D02*
D03*
Y37974D02*
D03*
X42904D02*
D03*
X41722D02*
D03*
Y39156D02*
D03*
D93*
X32657D02*
D03*
X42904D02*
D03*
D94*
X31654Y26132D02*
D03*
X28701D02*
D03*
Y33573D02*
D03*
X31654Y34833D02*
D03*
X28701Y36093D02*
D03*
X27303Y26132D02*
D03*
X24350D02*
D03*
Y33573D02*
D03*
X27303Y34833D02*
D03*
X24350Y36093D02*
D03*
M02*
