G04*
G04 #@! TF.GenerationSoftware,Altium Limited,Altium Designer,18.1.7 (191)*
G04*
G04 Layer_Color=32896*
%FSLAX24Y24*%
%MOIN*%
G70*
G01*
G75*
%ADD10C,0.0100*%
%ADD12C,0.0079*%
%ADD48C,0.0118*%
D10*
X71496Y26014D02*
X73465D01*
X68268D02*
X69055D01*
X71496Y17589D02*
X73465D01*
X68307D02*
X69094D01*
X67165Y24754D02*
X67165Y24754D01*
X67165Y18730D02*
Y24911D01*
X67165Y18730D02*
X68307Y17589D01*
X67165Y24911D02*
X68268Y26014D01*
X73465Y17589D02*
Y26014D01*
D12*
X74252Y21801D02*
G03*
X74252Y21801I-3937J0D01*
G01*
X71583Y21860D02*
G03*
X71583Y21860I-1248J0D01*
G01*
X68061Y22283D02*
X69144D01*
X68061Y21476D02*
Y22283D01*
Y21476D02*
X69134D01*
X71516Y22283D02*
X72598D01*
Y21476D02*
Y22283D01*
X71526Y21476D02*
X72598D01*
X73433Y27953D02*
X73512Y27874D01*
X70512Y27067D02*
Y27874D01*
X71433Y26988D02*
X71512Y27067D01*
X70591Y26988D02*
X71433D01*
X70591Y27953D02*
X71433D01*
X71512Y27874D01*
X72433Y27953D02*
X72512Y27874D01*
X71591Y27953D02*
X72433D01*
X71512Y27874D02*
X71591Y27953D01*
X71512Y27067D02*
Y27874D01*
Y27067D02*
X71591Y26988D01*
X72433D01*
X72512Y27067D01*
Y27874D01*
X73512Y27067D02*
Y27874D01*
X73433Y26988D02*
X73512Y27067D01*
X72591Y26988D02*
X73433D01*
X72512Y27067D02*
X72591Y26988D01*
X72512Y27874D02*
X72591Y27953D01*
X73433D01*
X73512Y27874D01*
X70512Y27067D02*
X70591Y26988D01*
X70512Y27874D02*
X70591Y27953D01*
X69549Y14941D02*
X69628Y14862D01*
X72549Y14941D02*
Y15748D01*
X71549D02*
X71628Y15827D01*
X72470D01*
X71628Y14862D02*
X72470D01*
X71549Y14941D02*
X71628Y14862D01*
X70549Y14941D02*
X70628Y14862D01*
X71470D01*
X71549Y14941D01*
Y15748D01*
X71470Y15827D02*
X71549Y15748D01*
X70628Y15827D02*
X71470D01*
X70549Y15748D02*
X70628Y15827D01*
X70549Y14941D02*
Y15748D01*
X69549Y14941D02*
Y15748D01*
X69628Y15827D01*
X70470D01*
X70549Y15748D01*
X70470Y14862D02*
X70549Y14941D01*
X69628Y14862D02*
X70470D01*
X69549Y14941D02*
X69628Y14862D01*
X72470Y15827D02*
X72549Y15748D01*
X72470Y14862D02*
X72549Y14941D01*
X66547D02*
X66626Y14862D01*
X69547Y14941D02*
Y15748D01*
X68547D02*
X68626Y15827D01*
X69468D01*
X68626Y14862D02*
X69468D01*
X68547Y14941D02*
X68626Y14862D01*
X67547Y14941D02*
X67626Y14862D01*
X68468D01*
X68547Y14941D01*
Y15748D01*
X68468Y15827D02*
X68547Y15748D01*
X67626Y15827D02*
X68468D01*
X67547Y15748D02*
X67626Y15827D01*
X67547Y14941D02*
Y15748D01*
X66547Y14941D02*
Y15748D01*
X66626Y15827D01*
X67469D01*
X67547Y15748D01*
X67469Y14862D02*
X67547Y14941D01*
X66626Y14862D02*
X67469D01*
X66547Y14941D02*
X66626Y14862D01*
X69468Y15827D02*
X69547Y15748D01*
X69468Y14862D02*
X69547Y14941D01*
X72894Y26585D02*
Y26270D01*
X72736D01*
X72684Y26322D01*
Y26375D01*
X72736Y26427D01*
X72894D01*
X72736D01*
X72684Y26480D01*
Y26532D01*
X72736Y26585D01*
X72894D01*
X72579Y26270D02*
Y26480D01*
X72474Y26585D01*
X72369Y26480D01*
Y26270D01*
Y26427D01*
X72579D01*
X72264Y26585D02*
X72054D01*
X72159D01*
Y26270D01*
X71949D02*
X71844D01*
X71897D01*
Y26585D01*
X71949Y26532D01*
X72254Y23031D02*
X72044Y22717D01*
Y23031D02*
X72254Y22717D01*
X71939D02*
X71834D01*
X71887D01*
Y23031D01*
X71939Y22979D01*
D48*
X73271Y28170D02*
G03*
X73271Y28170I-59J0D01*
G01*
M02*
