M48
;Layer_Color=9474304
;FILE_FORMAT=2:4
INCH,LZ
;TYPE=PLATED
T1F00S00C0.0394
T2F00S00C0.0591
T3F00S00C0.1181
%
T01
X008421Y000433
X008669Y003031
X008268Y005984
X006846Y008504
X013346
X012835Y011339
X010831
X016835
X012268Y005984
X012669Y003031
X014921Y000433
X005551Y001417
X002598Y002402
X004331Y011339
T02
X016457Y004055
Y006024
Y007992
X003435Y007047
Y005079
T03
X018071Y000748
X001654Y01126
M30
