M48
;Layer_Color=9474304
;FILE_FORMAT=2:4
INCH,LZ
;TYPE=PLATED
T1F00S00C0.0157
T2F00S00C0.0197
T3F00S00C0.0380
T4F00S00C0.0394
T5F00S00C0.0433
%
T01
X047628Y030404
X047707Y030915
X05372Y030335
X044026Y029705
Y031014
X046673Y034114
X040679Y033917
X051211Y031398
X053711Y032844
T02
X048671Y030285
X0494Y030758
X049488Y029764
X05376Y029626
X055177Y028986
X045315Y028907
X044213Y028937
X042913Y028878
X036634Y029183
X037057Y031693
X039144Y032608
Y034104
X040186Y035138
X03747Y035039
X042697Y033081
X043533Y033071
X044675Y032726
X042687Y031988
X048061Y032441
X047992Y033445
X048927Y033071
X049144Y032087
X048435Y031407
X050118Y034104
X050817Y033967
X05378Y032234
X053789Y031516
X055512Y031407
X056516Y033209
T03
X040974Y034754
X041974
X042974
X043974
X044974
X045974
X046974
X047974
X048974
X049974
X050974
X051974
X052974
X053974
X054974
X055974
T04
X054488Y031161
X056457
X055472Y03313
T05
X03936Y029774
X040541
Y030955
X03936
M30
