G04 Layer_Color=8388736*
%FSLAX24Y24*%
%MOIN*%
G70*
G01*
G75*
%ADD62O,0.0839X0.0335*%
%ADD63R,0.0394X0.0315*%
G04:AMPARAMS|DCode=64|XSize=74.8mil|YSize=43.3mil|CornerRadius=11.8mil|HoleSize=0mil|Usage=FLASHONLY|Rotation=0.000|XOffset=0mil|YOffset=0mil|HoleType=Round|Shape=RoundedRectangle|*
%AMROUNDEDRECTD64*
21,1,0.0748,0.0197,0,0,0.0*
21,1,0.0512,0.0433,0,0,0.0*
1,1,0.0236,0.0256,-0.0098*
1,1,0.0236,-0.0256,-0.0098*
1,1,0.0236,-0.0256,0.0098*
1,1,0.0236,0.0256,0.0098*
%
%ADD64ROUNDEDRECTD64*%
%ADD65R,0.1732X0.1732*%
%ADD66R,0.0315X0.0394*%
%ADD67R,0.0610X0.0492*%
%ADD68R,0.0394X0.0433*%
G04:AMPARAMS|DCode=69|XSize=90.6mil|YSize=72.8mil|CornerRadius=19.2mil|HoleSize=0mil|Usage=FLASHONLY|Rotation=0.000|XOffset=0mil|YOffset=0mil|HoleType=Round|Shape=RoundedRectangle|*
%AMROUNDEDRECTD69*
21,1,0.0906,0.0344,0,0,0.0*
21,1,0.0522,0.0728,0,0,0.0*
1,1,0.0384,0.0261,-0.0172*
1,1,0.0384,-0.0261,-0.0172*
1,1,0.0384,-0.0261,0.0172*
1,1,0.0384,0.0261,0.0172*
%
%ADD69ROUNDEDRECTD69*%
G04:AMPARAMS|DCode=70|XSize=198.8mil|YSize=74.8mil|CornerRadius=19.7mil|HoleSize=0mil|Usage=FLASHONLY|Rotation=0.000|XOffset=0mil|YOffset=0mil|HoleType=Round|Shape=RoundedRectangle|*
%AMROUNDEDRECTD70*
21,1,0.1988,0.0354,0,0,0.0*
21,1,0.1594,0.0748,0,0,0.0*
1,1,0.0394,0.0797,-0.0177*
1,1,0.0394,-0.0797,-0.0177*
1,1,0.0394,-0.0797,0.0177*
1,1,0.0394,0.0797,0.0177*
%
%ADD70ROUNDEDRECTD70*%
G04:AMPARAMS|DCode=71|XSize=283.5mil|YSize=222.4mil|CornerRadius=12.9mil|HoleSize=0mil|Usage=FLASHONLY|Rotation=180.000|XOffset=0mil|YOffset=0mil|HoleType=Round|Shape=RoundedRectangle|*
%AMROUNDEDRECTD71*
21,1,0.2835,0.1967,0,0,180.0*
21,1,0.2577,0.2224,0,0,180.0*
1,1,0.0258,-0.1288,0.0983*
1,1,0.0258,0.1288,0.0983*
1,1,0.0258,0.1288,-0.0983*
1,1,0.0258,-0.1288,-0.0983*
%
%ADD71ROUNDEDRECTD71*%
%ADD72O,0.0886X0.0433*%
%ADD73R,0.0748X0.0591*%
%ADD74R,0.0728X0.0453*%
%ADD75O,0.0320X0.0630*%
G04:AMPARAMS|DCode=76|XSize=86.6mil|YSize=82.7mil|CornerRadius=21.7mil|HoleSize=0mil|Usage=FLASHONLY|Rotation=0.000|XOffset=0mil|YOffset=0mil|HoleType=Round|Shape=RoundedRectangle|*
%AMROUNDEDRECTD76*
21,1,0.0866,0.0394,0,0,0.0*
21,1,0.0433,0.0827,0,0,0.0*
1,1,0.0433,0.0217,-0.0197*
1,1,0.0433,-0.0217,-0.0197*
1,1,0.0433,-0.0217,0.0197*
1,1,0.0433,0.0217,0.0197*
%
%ADD76ROUNDEDRECTD76*%
%ADD77R,0.0453X0.0728*%
%ADD78O,0.0630X0.0320*%
%ADD79R,0.0453X0.0591*%
%ADD80R,0.0433X0.0433*%
%ADD81O,0.0157X0.0630*%
%ADD82O,0.0630X0.0157*%
G04:AMPARAMS|DCode=83|XSize=94.5mil|YSize=86.6mil|CornerRadius=14.4mil|HoleSize=0mil|Usage=FLASHONLY|Rotation=90.000|XOffset=0mil|YOffset=0mil|HoleType=Round|Shape=RoundedRectangle|*
%AMROUNDEDRECTD83*
21,1,0.0945,0.0579,0,0,90.0*
21,1,0.0657,0.0866,0,0,90.0*
1,1,0.0287,0.0289,0.0329*
1,1,0.0287,0.0289,-0.0329*
1,1,0.0287,-0.0289,-0.0329*
1,1,0.0287,-0.0289,0.0329*
%
%ADD83ROUNDEDRECTD83*%
%ADD84R,0.0433X0.0394*%
%ADD85O,0.0335X0.0889*%
%ADD86C,0.0512*%
G04:AMPARAMS|DCode=87|XSize=114.2mil|YSize=63mil|CornerRadius=16.7mil|HoleSize=0mil|Usage=FLASHONLY|Rotation=0.000|XOffset=0mil|YOffset=0mil|HoleType=Round|Shape=RoundedRectangle|*
%AMROUNDEDRECTD87*
21,1,0.1142,0.0295,0,0,0.0*
21,1,0.0807,0.0630,0,0,0.0*
1,1,0.0335,0.0404,-0.0148*
1,1,0.0335,-0.0404,-0.0148*
1,1,0.0335,-0.0404,0.0148*
1,1,0.0335,0.0404,0.0148*
%
%ADD87ROUNDEDRECTD87*%
%ADD88C,0.0639*%
%ADD89R,0.0639X0.0639*%
%ADD90C,0.0748*%
%ADD91C,0.0669*%
%ADD92R,0.0669X0.0669*%
%ADD93R,0.0669X0.0669*%
%ADD94R,0.0748X0.0748*%
%ADD95C,0.1220*%
G36*
X40506Y23653D02*
X40510Y23654D01*
X40584Y23640D01*
X40591Y23635D01*
X40599Y23634D01*
X40663Y23594D01*
X40668Y23587D01*
X40675Y23583D01*
X40720Y23522D01*
X40722Y23514D01*
X40727Y23507D01*
X40746Y23434D01*
X40745Y23426D01*
X40747Y23418D01*
X40738Y23343D01*
X40736Y23339D01*
X40737Y23335D01*
X40696Y23205D01*
X40695Y23204D01*
X40695Y23202D01*
X40634Y23051D01*
X40632Y23049D01*
X40631Y23045D01*
X40548Y22906D01*
X40545Y22904D01*
X40544Y22900D01*
X40440Y22775D01*
X40439Y22774D01*
X40438Y22773D01*
X40434Y22768D01*
X40432Y22767D01*
X40432Y22766D01*
X40266Y22617D01*
X40263Y22616D01*
X40261Y22613D01*
X40077Y22488D01*
X40074Y22487D01*
X40072Y22485D01*
X39873Y22385D01*
X39870Y22384D01*
X39868Y22382D01*
X39658Y22310D01*
X39655Y22310D01*
X39652Y22308D01*
X39434Y22264D01*
X39431Y22264D01*
X39428Y22263D01*
X39206Y22248D01*
X39203Y22249D01*
X39200Y22248D01*
X38978Y22263D01*
X38975Y22264D01*
X38972Y22264D01*
X38753Y22308D01*
X38751Y22310D01*
X38748Y22310D01*
X38537Y22382D01*
X38535Y22384D01*
X38532Y22385D01*
X38333Y22485D01*
X38331Y22487D01*
X38328Y22488D01*
X38144Y22613D01*
X38142Y22616D01*
X38140Y22617D01*
X37974Y22766D01*
X37973Y22767D01*
X37972Y22768D01*
X37970Y22770D01*
X37969Y22772D01*
X37967Y22773D01*
X37862Y22900D01*
X37861Y22903D01*
X37858Y22905D01*
X37774Y23046D01*
X37773Y23050D01*
X37771Y23052D01*
X37710Y23205D01*
X37710Y23207D01*
X37709Y23208D01*
X37667Y23343D01*
X37667Y23347D01*
X37665Y23350D01*
X37656Y23423D01*
X37659Y23431D01*
X37658Y23440D01*
X37676Y23510D01*
X37681Y23517D01*
X37683Y23525D01*
X37727Y23584D01*
X37734Y23588D01*
X37739Y23595D01*
X37801Y23634D01*
X37809Y23636D01*
X37816Y23640D01*
X37888Y23654D01*
X37892Y23653D01*
X37896Y23655D01*
X40502D01*
X40506Y23653D01*
D02*
G37*
G36*
X31845Y16840D02*
X31941Y16801D01*
X32023Y16737D01*
X32086Y16655D01*
X32126Y16559D01*
X32139Y16457D01*
X32126Y16354D01*
X32086Y16258D01*
X32023Y16176D01*
X31941Y16113D01*
X31845Y16073D01*
X31742Y16060D01*
X31639Y16073D01*
X31544Y16113D01*
X31461Y16176D01*
X31398Y16258D01*
X31359Y16354D01*
X31345Y16457D01*
X31359Y16559D01*
X31398Y16655D01*
X31461Y16737D01*
X31544Y16801D01*
X31639Y16840D01*
X31742Y16854D01*
X31845Y16840D01*
D02*
G37*
G36*
X44463Y41004D02*
X44559Y40964D01*
X44641Y40901D01*
X44704Y40819D01*
X44744Y40723D01*
X44757Y40620D01*
X44744Y40517D01*
X44704Y40422D01*
X44641Y40339D01*
X44559Y40276D01*
X44463Y40237D01*
X44360Y40223D01*
X44257Y40237D01*
X44162Y40276D01*
X44079Y40339D01*
X44016Y40422D01*
X43977Y40517D01*
X43963Y40620D01*
X43977Y40723D01*
X44016Y40819D01*
X44079Y40901D01*
X44162Y40964D01*
X44257Y41004D01*
X44360Y41017D01*
X44463Y41004D01*
D02*
G37*
G36*
X39428Y26005D02*
X39431Y26003D01*
X39434Y26004D01*
X39652Y25960D01*
X39655Y25958D01*
X39658Y25958D01*
X39868Y25885D01*
X39870Y25883D01*
X39873Y25883D01*
X40072Y25783D01*
X40074Y25781D01*
X40077Y25780D01*
X40261Y25654D01*
X40263Y25652D01*
X40266Y25651D01*
X40432Y25502D01*
X40432Y25500D01*
X40434Y25500D01*
X40436Y25497D01*
X40437Y25496D01*
X40438Y25495D01*
X40543Y25368D01*
X40544Y25365D01*
X40547Y25363D01*
X40632Y25221D01*
X40632Y25218D01*
X40635Y25215D01*
X40696Y25062D01*
X40696Y25061D01*
X40697Y25059D01*
X40739Y24925D01*
X40739Y24921D01*
X40741Y24917D01*
X40749Y24844D01*
X40747Y24836D01*
X40748Y24828D01*
X40729Y24757D01*
X40724Y24751D01*
X40722Y24743D01*
X40679Y24683D01*
X40672Y24679D01*
X40667Y24673D01*
X40605Y24633D01*
X40597Y24632D01*
X40590Y24627D01*
X40518Y24614D01*
X40514Y24615D01*
X40510Y24613D01*
X37904D01*
X37900Y24615D01*
X37896Y24614D01*
X37822Y24628D01*
X37815Y24632D01*
X37806Y24634D01*
X37743Y24674D01*
X37738Y24681D01*
X37731Y24685D01*
X37686Y24746D01*
X37684Y24754D01*
X37679Y24761D01*
X37660Y24834D01*
X37661Y24842D01*
X37659Y24850D01*
X37667Y24925D01*
X37669Y24929D01*
X37669Y24933D01*
X37709Y25062D01*
X37711Y25064D01*
X37711Y25065D01*
X37771Y25216D01*
X37774Y25219D01*
X37774Y25222D01*
X37857Y25362D01*
X37860Y25364D01*
X37861Y25368D01*
X37965Y25493D01*
X37967Y25493D01*
X37967Y25495D01*
X37972Y25500D01*
X37973Y25500D01*
X37974Y25502D01*
X38140Y25651D01*
X38142Y25652D01*
X38144Y25654D01*
X38328Y25780D01*
X38331Y25781D01*
X38333Y25783D01*
X38532Y25883D01*
X38535Y25883D01*
X38537Y25885D01*
X38748Y25958D01*
X38751Y25958D01*
X38753Y25960D01*
X38972Y26004D01*
X38975Y26003D01*
X38978Y26005D01*
X39200Y26019D01*
X39203Y26019D01*
X39206Y26019D01*
X39428Y26005D01*
D02*
G37*
D62*
X42933Y31791D02*
D03*
Y31291D02*
D03*
X45133D02*
D03*
Y31791D02*
D03*
X42933Y30291D02*
D03*
X45133D02*
D03*
X42933Y30791D02*
D03*
X45133D02*
D03*
X37923Y20453D02*
D03*
Y20953D02*
D03*
X35723D02*
D03*
Y20453D02*
D03*
X37923Y21953D02*
D03*
X35723D02*
D03*
X37923Y21453D02*
D03*
X35723D02*
D03*
D63*
X32697Y39931D02*
D03*
Y39321D02*
D03*
X35482Y23514D02*
D03*
Y24124D02*
D03*
X33356Y29537D02*
D03*
Y28927D02*
D03*
X31398Y26349D02*
D03*
Y26959D02*
D03*
D64*
X40622Y35744D02*
D03*
Y36335D02*
D03*
Y36926D02*
D03*
Y37516D02*
D03*
Y38107D02*
D03*
Y38697D02*
D03*
Y39288D02*
D03*
Y39878D02*
D03*
Y40469D02*
D03*
X33536Y35744D02*
D03*
Y36335D02*
D03*
Y36926D02*
D03*
Y40469D02*
D03*
Y39878D02*
D03*
X33526Y39288D02*
D03*
X33536Y38697D02*
D03*
Y38107D02*
D03*
Y37516D02*
D03*
D65*
X37552Y37890D02*
D03*
D66*
X42037Y38691D02*
D03*
X41427D02*
D03*
X32775Y36919D02*
D03*
X32165D02*
D03*
X38740Y21831D02*
D03*
X39350D02*
D03*
X35483Y22933D02*
D03*
X36093D02*
D03*
X44695Y15837D02*
D03*
X44085D02*
D03*
X44321Y16526D02*
D03*
X44931D02*
D03*
X30374Y29990D02*
D03*
X30984D02*
D03*
D67*
X31368Y39931D02*
D03*
Y39222D02*
D03*
X36850Y28366D02*
D03*
Y27657D02*
D03*
D68*
X32077Y39931D02*
D03*
Y39262D02*
D03*
X33632Y23947D02*
D03*
Y24616D02*
D03*
X36998Y22904D02*
D03*
Y23573D02*
D03*
Y25089D02*
D03*
Y24419D02*
D03*
X29508Y26348D02*
D03*
Y27018D02*
D03*
X37569Y28337D02*
D03*
Y27667D02*
D03*
X42116Y30719D02*
D03*
Y31388D02*
D03*
X42648Y35364D02*
D03*
Y34695D02*
D03*
X40955Y30069D02*
D03*
Y30738D02*
D03*
D69*
X42608Y17835D02*
D03*
X44222D02*
D03*
X37313Y19213D02*
D03*
X38927D02*
D03*
D70*
X40492Y19557D02*
D03*
Y17825D02*
D03*
D71*
X30886Y19577D02*
D03*
D72*
X33445Y18679D02*
D03*
Y20474D02*
D03*
D73*
X40394Y17008D02*
D03*
Y15866D02*
D03*
D74*
X37224Y17283D02*
D03*
Y16142D02*
D03*
X34695Y18681D02*
D03*
Y19823D02*
D03*
D75*
X36067Y15886D02*
D03*
X35667Y16796D02*
D03*
X36467D02*
D03*
X45072Y27953D02*
D03*
X44672Y28863D02*
D03*
X45472D02*
D03*
D76*
X38524Y17943D02*
D03*
Y16132D02*
D03*
D77*
X36476Y17884D02*
D03*
X35335D02*
D03*
D78*
X34990Y16608D02*
D03*
X34080Y16208D02*
D03*
Y17008D02*
D03*
X36437Y19039D02*
D03*
X35527Y18639D02*
D03*
Y19439D02*
D03*
D79*
X33632Y21555D02*
D03*
X34380D02*
D03*
X33632Y22323D02*
D03*
X34380D02*
D03*
D80*
X39203Y25184D02*
D03*
Y23084D02*
D03*
D81*
X37717Y29301D02*
D03*
X37913D02*
D03*
X38110D02*
D03*
X38307D02*
D03*
X38504D02*
D03*
X38701D02*
D03*
X38898D02*
D03*
X39094D02*
D03*
X39291D02*
D03*
X35551D02*
D03*
X35748D02*
D03*
X35945D02*
D03*
X36142D02*
D03*
X36339D02*
D03*
X36535D02*
D03*
X36732D02*
D03*
X36929D02*
D03*
X37126D02*
D03*
X39291Y34577D02*
D03*
X39094D02*
D03*
X38898D02*
D03*
X38701D02*
D03*
X38504D02*
D03*
X38307D02*
D03*
X38110D02*
D03*
X37913D02*
D03*
X37717D02*
D03*
X37126D02*
D03*
X36929D02*
D03*
X36732D02*
D03*
X36535D02*
D03*
X36339D02*
D03*
X36142D02*
D03*
X35945D02*
D03*
X35748D02*
D03*
X35551D02*
D03*
X37323Y29301D02*
D03*
X37520D02*
D03*
Y34577D02*
D03*
X37323D02*
D03*
D82*
X40059Y30266D02*
D03*
Y30463D02*
D03*
Y30659D02*
D03*
Y30856D02*
D03*
Y31053D02*
D03*
Y31250D02*
D03*
Y31447D02*
D03*
Y31644D02*
D03*
Y31841D02*
D03*
Y32037D02*
D03*
Y32234D02*
D03*
Y32431D02*
D03*
Y32628D02*
D03*
X34783D02*
D03*
Y32431D02*
D03*
Y32234D02*
D03*
Y32037D02*
D03*
Y31841D02*
D03*
Y31644D02*
D03*
Y31447D02*
D03*
Y31250D02*
D03*
Y31053D02*
D03*
Y30856D02*
D03*
Y30659D02*
D03*
Y30463D02*
D03*
Y30266D02*
D03*
X40059Y33219D02*
D03*
Y33415D02*
D03*
Y33612D02*
D03*
Y33809D02*
D03*
X34783D02*
D03*
Y33612D02*
D03*
Y33415D02*
D03*
Y33219D02*
D03*
X40059Y30069D02*
D03*
Y32825D02*
D03*
Y33022D02*
D03*
X34783D02*
D03*
Y32825D02*
D03*
Y30069D02*
D03*
D83*
X40305Y28110D02*
D03*
X38730D02*
D03*
D84*
X40728Y27047D02*
D03*
X40059D02*
D03*
X38474D02*
D03*
X39144D02*
D03*
X32953Y27037D02*
D03*
X32283D02*
D03*
X34833Y34537D02*
D03*
X34163D02*
D03*
X33898Y32628D02*
D03*
X33228D02*
D03*
X40295Y34764D02*
D03*
X40965D02*
D03*
X33898Y30659D02*
D03*
X33228D02*
D03*
D85*
X44455Y36533D02*
D03*
Y33583D02*
D03*
X43455Y36533D02*
D03*
X43955D02*
D03*
X44955D02*
D03*
X43455Y33583D02*
D03*
X43955D02*
D03*
X44955D02*
D03*
D86*
X31742Y16457D02*
D03*
X44360Y40620D02*
D03*
D87*
X42303Y27992D02*
D03*
Y29252D02*
D03*
X43661Y27982D02*
D03*
Y29242D02*
D03*
D88*
X30264Y23199D02*
D03*
X34547Y26112D02*
D03*
D89*
X32264Y23199D02*
D03*
X35925Y26112D02*
D03*
D90*
X43504Y16524D02*
D03*
X42504D02*
D03*
X41504D02*
D03*
X43516Y21839D02*
D03*
X42335D02*
D03*
Y20658D02*
D03*
X43516Y25619D02*
D03*
X42335D02*
D03*
Y24437D02*
D03*
D91*
X30220Y33280D02*
D03*
X31220D02*
D03*
X30220Y32280D02*
D03*
Y31280D02*
D03*
X31220Y32280D02*
D03*
X32356Y28012D02*
D03*
X30463Y27348D02*
D03*
X29675Y35569D02*
D03*
Y37569D02*
D03*
Y36569D02*
D03*
Y38569D02*
D03*
Y41569D02*
D03*
Y39569D02*
D03*
Y40569D02*
D03*
D92*
X31220Y31280D02*
D03*
X30463Y26348D02*
D03*
X29675Y42569D02*
D03*
D93*
X33356Y28012D02*
D03*
D94*
X43516Y20658D02*
D03*
Y24437D02*
D03*
D95*
X45217Y21248D02*
D03*
Y25028D02*
D03*
X30130Y16445D02*
D03*
X44225Y42193D02*
D03*
M02*
