M48
;Layer_Color=9474304
;FILE_FORMAT=2:4
INCH,LZ
;TYPE=PLATED
T1F00S00C0.0118
T2F00S00C0.0197
T3F00S00C0.0315
T4F00S00C0.0380
T5F00S00C0.0394
T6F00S00C0.0433
T7F00S00C0.1181
%
T01
X035925Y017392
X035984Y017953
X037372Y017844
X037106Y018366
X037657Y018356
X039173Y018425
X039124Y017343
X038484Y017165
X03627Y019547
X034675Y019213
X034577Y020404
X036762Y021447
X036585Y02189
X036486Y022411
X036535Y022992
X036053Y023504
X03439Y023553
X034488Y02439
X034419Y025128
X0331Y024646
X032333Y025276
X033248Y025906
X031732Y026959
X031752Y028957
X032323Y029498
X031939Y030463
X031289Y030561
X032697Y030689
X033017Y031181
X034272Y030659
X03687Y030039
X03685Y02877
X037441Y02876
X038081Y028661
X038012Y027657
X037913Y027106
X037972Y026427
X039547Y026506
X039596Y027037
X039518Y027844
Y028307
X04126Y028789
X040955Y029606
X041742Y030728
X03936Y03065
X037106Y03124
X036772Y027106
X034872Y027067
X034961Y027805
X041339Y027559
X041289Y026289
X042923Y026378
X042982Y027165
X044409Y027234
X044341Y026585
X044557Y027953
X045551Y016634
X045118Y015797
X037087Y021138
X037431Y022657
X037697Y022431
X030817Y024114
X02999Y025128
X029518Y024774
X029852Y028494
X02999Y029173
X030974Y029567
X031163Y028524
X030492Y02815
X029843Y034291
X031201Y04127
X030906Y041614
X031102Y042195
X031073Y042894
X031329Y038622
X032047Y03873
X032697Y038937
X032746Y03752
X031398Y037569
X031654Y036083
X032579Y036201
X031929Y034675
X033553Y034518
X033297Y033819
X033209Y032136
X032697Y032589
X034291Y032628
X035433Y031496
X036122Y033858
X036339Y035207
X035748Y035236
X035335
X035846Y037126
X034203Y03751
X034134Y039882
X034291Y040591
X034744
X035207
X035728
X036211
X036663
X037109
X037608
X038041
X038465
X038937
X039409
X039872
X041535Y040541
X041949Y040561
X042549Y040571
X043022Y040768
X0431Y041378
X043032Y041968
X043012Y042451
X043218Y042953
X043711Y043012
X044852Y042953
X045315Y042943
X043307Y03937
X044468Y037293
X044547Y035728
X043937Y03499
X043602Y034646
X043071Y034016
X04315Y032982
X043484Y032677
X043524Y031762
X043491Y031291
X043799Y032028
X044882Y032392
X045315Y032254
X045571Y033051
X04551Y033602
X042156Y033376
X041752Y033061
X041309Y033287
X041535Y034144
X040502Y034203
X040059Y034163
X038947Y033898
X039341Y032421
X03937Y031496
X04061Y032628
X042323Y032077
X041467Y035935
X041457Y036654
X039961Y036811
X04002Y037205
X04Y037589
X039902Y036388
X039754Y036014
X03937Y03937
X037333Y039705
X035433Y03937
X037549Y032854
T02
X032884Y016693
X03313Y017224
X032884Y017717
X034006Y018169
X033474Y019439
X03377Y019892
X0331Y019843
X03499Y017185
X036124Y016812
X039341Y016093
X039665Y015748
X043514Y018829
X044154Y01878
X044675Y018593
X042411Y023278
X045012Y02886
X043917Y030413
X035925Y028386
X033839Y029547
X032215Y035472
X036998Y037343
X037552Y03789
X0381Y037343
Y038445
X036998
X042677Y036033
T03
X041504Y016524
X042504
X043504
T04
X032264Y023199
X034547Y026112
X035925
X030264Y023199
T05
X032356Y028012
X033356
X030463Y027348
Y026348
X03022Y03128
Y03228
Y03328
X03122
Y03228
Y03128
X029675Y035569
Y036569
Y037569
Y038569
Y039569
Y040569
Y041569
Y042569
T06
X042335Y020658
X043516
Y021839
X042335
Y024437
X043516
Y025619
X042335
T07
X03013Y016445
X044225Y042193
M30
