G04 Layer_Color=8388736*
%FSLAX24Y24*%
%MOIN*%
G70*
G01*
G75*
%ADD53R,0.0474X0.0434*%
%ADD54R,0.0434X0.0474*%
%ADD55R,0.0356X0.0434*%
G04:AMPARAMS|DCode=56|XSize=102.5mil|YSize=118.2mil|CornerRadius=27.6mil|HoleSize=0mil|Usage=FLASHONLY|Rotation=180.000|XOffset=0mil|YOffset=0mil|HoleType=Round|Shape=RoundedRectangle|*
%AMROUNDEDRECTD56*
21,1,0.1025,0.0630,0,0,180.0*
21,1,0.0472,0.1182,0,0,180.0*
1,1,0.0552,-0.0236,0.0315*
1,1,0.0552,0.0236,0.0315*
1,1,0.0552,0.0236,-0.0315*
1,1,0.0552,-0.0236,-0.0315*
%
%ADD56ROUNDEDRECTD56*%
%ADD57R,0.0197X0.0157*%
%ADD58R,0.0157X0.0197*%
%ADD59R,0.0533X0.0651*%
G04:AMPARAMS|DCode=60|XSize=98.6mil|YSize=90.7mil|CornerRadius=16.4mil|HoleSize=0mil|Usage=FLASHONLY|Rotation=90.000|XOffset=0mil|YOffset=0mil|HoleType=Round|Shape=RoundedRectangle|*
%AMROUNDEDRECTD60*
21,1,0.0986,0.0579,0,0,90.0*
21,1,0.0657,0.0907,0,0,90.0*
1,1,0.0328,0.0289,0.0329*
1,1,0.0328,0.0289,-0.0329*
1,1,0.0328,-0.0289,-0.0329*
1,1,0.0328,-0.0289,0.0329*
%
%ADD60ROUNDEDRECTD60*%
%ADD61R,0.1398X0.1398*%
%ADD62O,0.0374X0.0150*%
%ADD63O,0.0150X0.0374*%
%ADD64R,0.0631X0.0493*%
%ADD65R,0.0651X0.0533*%
G04:AMPARAMS|DCode=66|XSize=51.3mil|YSize=31.6mil|CornerRadius=9.9mil|HoleSize=0mil|Usage=FLASHONLY|Rotation=270.000|XOffset=0mil|YOffset=0mil|HoleType=Round|Shape=RoundedRectangle|*
%AMROUNDEDRECTD66*
21,1,0.0513,0.0118,0,0,270.0*
21,1,0.0315,0.0316,0,0,270.0*
1,1,0.0198,-0.0059,-0.0157*
1,1,0.0198,-0.0059,0.0157*
1,1,0.0198,0.0059,0.0157*
1,1,0.0198,0.0059,-0.0157*
%
%ADD66ROUNDEDRECTD66*%
G04:AMPARAMS|DCode=67|XSize=102.5mil|YSize=67.1mil|CornerRadius=18.8mil|HoleSize=0mil|Usage=FLASHONLY|Rotation=270.000|XOffset=0mil|YOffset=0mil|HoleType=Round|Shape=RoundedRectangle|*
%AMROUNDEDRECTD67*
21,1,0.1025,0.0295,0,0,270.0*
21,1,0.0650,0.0671,0,0,270.0*
1,1,0.0375,-0.0148,-0.0325*
1,1,0.0375,-0.0148,0.0325*
1,1,0.0375,0.0148,0.0325*
1,1,0.0375,0.0148,-0.0325*
%
%ADD67ROUNDEDRECTD67*%
%ADD68R,0.0434X0.0356*%
%ADD69O,0.0375X0.0930*%
G04:AMPARAMS|DCode=70|XSize=122.2mil|YSize=59.2mil|CornerRadius=16.8mil|HoleSize=0mil|Usage=FLASHONLY|Rotation=180.000|XOffset=0mil|YOffset=0mil|HoleType=Round|Shape=RoundedRectangle|*
%AMROUNDEDRECTD70*
21,1,0.1222,0.0256,0,0,180.0*
21,1,0.0886,0.0592,0,0,180.0*
1,1,0.0336,-0.0443,0.0128*
1,1,0.0336,0.0443,0.0128*
1,1,0.0336,0.0443,-0.0128*
1,1,0.0336,-0.0443,-0.0128*
%
%ADD70ROUNDEDRECTD70*%
G04:AMPARAMS|DCode=71|XSize=36mil|YSize=43.8mil|CornerRadius=6.8mil|HoleSize=0mil|Usage=FLASHONLY|Rotation=0.000|XOffset=0mil|YOffset=0mil|HoleType=Round|Shape=RoundedRectangle|*
%AMROUNDEDRECTD71*
21,1,0.0360,0.0302,0,0,0.0*
21,1,0.0224,0.0438,0,0,0.0*
1,1,0.0136,0.0112,-0.0151*
1,1,0.0136,-0.0112,-0.0151*
1,1,0.0136,-0.0112,0.0151*
1,1,0.0136,0.0112,0.0151*
%
%ADD71ROUNDEDRECTD71*%
%ADD72C,0.0789*%
%ADD73R,0.0789X0.0789*%
%ADD74C,0.0710*%
G04:AMPARAMS|DCode=75|XSize=126.1mil|YSize=47.4mil|CornerRadius=13.8mil|HoleSize=0mil|Usage=FLASHONLY|Rotation=0.000|XOffset=0mil|YOffset=0mil|HoleType=Round|Shape=RoundedRectangle|*
%AMROUNDEDRECTD75*
21,1,0.1261,0.0197,0,0,0.0*
21,1,0.0984,0.0474,0,0,0.0*
1,1,0.0277,0.0492,-0.0098*
1,1,0.0277,-0.0492,-0.0098*
1,1,0.0277,-0.0492,0.0098*
1,1,0.0277,0.0492,0.0098*
%
%ADD75ROUNDEDRECTD75*%
%ADD76C,0.0680*%
%ADD77R,0.0680X0.0680*%
G36*
X26678Y41171D02*
X26773Y41131D01*
X26856Y41068D01*
X26919Y40986D01*
X26958Y40890D01*
X26972Y40787D01*
X26958Y40685D01*
X26919Y40589D01*
X26856Y40507D01*
X26773Y40444D01*
X26678Y40404D01*
X26575Y40390D01*
X26472Y40404D01*
X26376Y40444D01*
X26294Y40507D01*
X26231Y40589D01*
X26191Y40685D01*
X26178Y40787D01*
X26191Y40890D01*
X26231Y40986D01*
X26294Y41068D01*
X26376Y41131D01*
X26472Y41171D01*
X26575Y41185D01*
X26678Y41171D01*
D02*
G37*
G36*
X41491Y32884D02*
X41586Y32844D01*
X41669Y32781D01*
X41732Y32699D01*
X41771Y32603D01*
X41785Y32500D01*
X41771Y32397D01*
X41732Y32301D01*
X41669Y32219D01*
X41586Y32156D01*
X41491Y32116D01*
X41388Y32103D01*
X41285Y32116D01*
X41189Y32156D01*
X41107Y32219D01*
X41044Y32301D01*
X41004Y32397D01*
X40991Y32500D01*
X41004Y32603D01*
X41044Y32699D01*
X41107Y32781D01*
X41189Y32844D01*
X41285Y32884D01*
X41388Y32897D01*
X41491Y32884D01*
D02*
G37*
D53*
X38976Y39478D02*
D03*
X38307D02*
D03*
X29980Y31289D02*
D03*
X29311D02*
D03*
X28652Y39400D02*
D03*
X27982D02*
D03*
X28652Y40069D02*
D03*
X27982D02*
D03*
X33524Y37392D02*
D03*
X34193D02*
D03*
X35482Y38740D02*
D03*
X34813D02*
D03*
X34134Y36063D02*
D03*
X34803D02*
D03*
X36821Y39478D02*
D03*
X37490D02*
D03*
D54*
X27096Y36181D02*
D03*
Y36850D02*
D03*
X40246Y38661D02*
D03*
Y37992D02*
D03*
X39587Y37992D02*
D03*
Y38661D02*
D03*
X36220Y38071D02*
D03*
Y38740D02*
D03*
X41033Y35531D02*
D03*
Y34862D02*
D03*
X37175Y32854D02*
D03*
Y33524D02*
D03*
X37835Y33228D02*
D03*
Y32559D02*
D03*
X34774Y33524D02*
D03*
Y32854D02*
D03*
X36201Y33524D02*
D03*
Y32854D02*
D03*
X32825Y34281D02*
D03*
Y33612D02*
D03*
D55*
X33110Y32175D02*
D03*
X32500D02*
D03*
X40187Y35541D02*
D03*
X39577D02*
D03*
X34193Y38061D02*
D03*
X34803D02*
D03*
X33524Y36752D02*
D03*
X34134D02*
D03*
X33435Y34961D02*
D03*
X32825D02*
D03*
D56*
X29989Y32717D02*
D03*
X27629D02*
D03*
D57*
X30276Y39872D02*
D03*
Y40069D02*
D03*
Y40266D02*
D03*
Y40463D02*
D03*
X29646D02*
D03*
Y40266D02*
D03*
Y40069D02*
D03*
Y39872D02*
D03*
D58*
X30059Y40482D02*
D03*
X29862D02*
D03*
Y39852D02*
D03*
X30059D02*
D03*
D59*
X27943Y40817D02*
D03*
X28652D02*
D03*
X40285Y34793D02*
D03*
X39577D02*
D03*
D60*
X37126Y38307D02*
D03*
X38701D02*
D03*
D61*
X37510Y35738D02*
D03*
D62*
X36535Y36427D02*
D03*
Y36230D02*
D03*
Y36033D02*
D03*
Y35837D02*
D03*
Y35640D02*
D03*
Y35443D02*
D03*
Y35246D02*
D03*
Y35049D02*
D03*
X38484D02*
D03*
Y35246D02*
D03*
Y35443D02*
D03*
Y35640D02*
D03*
Y35837D02*
D03*
Y36033D02*
D03*
Y36230D02*
D03*
Y36427D02*
D03*
D63*
X36821Y34764D02*
D03*
X37018D02*
D03*
X37215D02*
D03*
X37411D02*
D03*
X37608D02*
D03*
X37805D02*
D03*
X38002D02*
D03*
X38199D02*
D03*
Y36713D02*
D03*
X38002D02*
D03*
X37805D02*
D03*
X37608D02*
D03*
X37411D02*
D03*
X37215D02*
D03*
X37018D02*
D03*
X36821D02*
D03*
D64*
X39409Y34035D02*
D03*
Y33287D02*
D03*
D65*
Y31850D02*
D03*
Y32559D02*
D03*
D66*
X35305Y35039D02*
D03*
X35659D02*
D03*
D67*
X35482Y32854D02*
D03*
D68*
X34951Y37392D02*
D03*
Y36781D02*
D03*
X32825Y35591D02*
D03*
Y36201D02*
D03*
D69*
X29502Y34961D02*
D03*
X28502D02*
D03*
X28002D02*
D03*
X29502Y37911D02*
D03*
X28502D02*
D03*
X28002D02*
D03*
X29002Y34961D02*
D03*
Y37911D02*
D03*
D70*
X31535Y41752D02*
D03*
X37087D02*
D03*
D71*
X39537Y41535D02*
D03*
X38927D02*
D03*
D72*
X29980Y29941D02*
D03*
X30965D02*
D03*
D73*
X28996D02*
D03*
D74*
X34094Y34961D02*
D03*
D75*
X43110Y31181D02*
D03*
Y32362D02*
D03*
Y33543D02*
D03*
Y34724D02*
D03*
Y35906D02*
D03*
Y37087D02*
D03*
Y38268D02*
D03*
Y39449D02*
D03*
Y40630D02*
D03*
Y41811D02*
D03*
X25000D02*
D03*
Y40630D02*
D03*
Y39449D02*
D03*
Y38268D02*
D03*
Y37087D02*
D03*
Y35906D02*
D03*
Y34724D02*
D03*
Y33543D02*
D03*
Y32362D02*
D03*
Y31181D02*
D03*
D76*
X36144Y30144D02*
D03*
Y29144D02*
D03*
X37144Y30144D02*
D03*
X38144D02*
D03*
X34144D02*
D03*
X35144D02*
D03*
X37144Y29144D02*
D03*
X38144D02*
D03*
X35144D02*
D03*
D77*
X34144D02*
D03*
M02*
