G04 Layer_Physical_Order=2*
G04 Layer_Color=16711680*
%FSLAX24Y24*%
%MOIN*%
G70*
G01*
G75*
%ADD10C,0.0079*%
%ADD31C,0.0197*%
%ADD32C,0.0315*%
%ADD33C,0.0098*%
%ADD43C,0.0709*%
%ADD44R,0.0709X0.0709*%
%ADD45C,0.0630*%
G04:AMPARAMS|DCode=46|XSize=118.1mil|YSize=39.4mil|CornerRadius=9.8mil|HoleSize=0mil|Usage=FLASHONLY|Rotation=0.000|XOffset=0mil|YOffset=0mil|HoleType=Round|Shape=RoundedRectangle|*
%AMROUNDEDRECTD46*
21,1,0.1181,0.0197,0,0,0.0*
21,1,0.0984,0.0394,0,0,0.0*
1,1,0.0197,0.0492,-0.0098*
1,1,0.0197,-0.0492,-0.0098*
1,1,0.0197,-0.0492,0.0098*
1,1,0.0197,0.0492,0.0098*
%
%ADD46ROUNDEDRECTD46*%
%ADD47C,0.0600*%
%ADD48R,0.0600X0.0600*%
%ADD49C,0.0236*%
D10*
X42618Y42126D02*
G03*
X42402Y41909I0J-217D01*
G01*
X42618Y40945D02*
G03*
X42402Y40728I0J-217D01*
G01*
Y41713D02*
G03*
X42618Y41496I217J0D01*
G01*
Y39764D02*
G03*
X42402Y39547I0J-217D01*
G01*
Y40531D02*
G03*
X42618Y40315I217J0D01*
G01*
X42402Y39350D02*
G03*
X42618Y39134I217J0D01*
G01*
X42402Y38169D02*
G03*
X42618Y37953I217J0D01*
G01*
Y38583D02*
G03*
X42402Y38366I0J-217D01*
G01*
X42795Y37687D02*
G03*
X42392Y37854I-236J0D01*
G01*
X42370D02*
G03*
X41900Y37825I-234J-30D01*
G01*
X42404Y37509D02*
G03*
X42795Y37687I155J178D01*
G01*
X42618Y37402D02*
G03*
X42402Y37185I0J-217D01*
G01*
Y36988D02*
G03*
X42618Y36772I217J0D01*
G01*
X42402Y35807D02*
G03*
X42618Y35591I217J0D01*
G01*
X41883Y37057D02*
G03*
X42002Y37106I0J167D01*
G01*
X42618Y36220D02*
G03*
X42402Y36004I0J-217D01*
G01*
X41883Y37057D02*
G03*
X42002Y37106I0J167D01*
G01*
X42618Y35039D02*
G03*
X42402Y34823I0J-217D01*
G01*
Y34626D02*
G03*
X42618Y34409I217J0D01*
G01*
Y33858D02*
G03*
X42402Y33642I0J-217D01*
G01*
Y33445D02*
G03*
X42618Y33228I217J0D01*
G01*
X40994Y33209D02*
G03*
X40758Y33445I-236J0D01*
G01*
X40522Y33189D02*
G03*
X40994Y33209I235J20D01*
G01*
X39734Y37648D02*
G03*
X39616Y37697I-118J-118D01*
G01*
X40245Y37657D02*
G03*
X39847Y37535I-167J-167D01*
G01*
X39734Y37648D02*
G03*
X39616Y37697I-118J-118D01*
G01*
X39616D02*
G03*
X39578Y37331I-167J-167D01*
G01*
X38238Y37717D02*
G03*
X37835Y37884I-236J0D01*
G01*
X36722D02*
G03*
X36604Y37835I0J-167D01*
G01*
X36722Y37884D02*
G03*
X36604Y37835I0J-167D01*
G01*
X37835Y37549D02*
G03*
X38238Y37717I167J167D01*
G01*
X36486D02*
G03*
X36722Y37480I0J-236D01*
G01*
X40778Y35531D02*
G03*
X40305Y35532I-236J0D01*
G01*
X39803Y37106D02*
G03*
X39921Y37057I118J118D01*
G01*
X39803Y37106D02*
G03*
X39921Y37057I118J118D01*
G01*
X40542Y35295D02*
G03*
X40778Y35531I-0J236D01*
G01*
X40729Y33475D02*
G03*
X40610Y33524I-118J-118D01*
G01*
X40729Y33475D02*
G03*
X40610Y33524I-118J-118D01*
G01*
X40325Y35148D02*
G03*
X40443Y35197I0J167D01*
G01*
X40325Y35148D02*
G03*
X40443Y35197I0J167D01*
G01*
X40226Y33524D02*
G03*
X40226Y33189I-167J-167D01*
G01*
X39271Y35482D02*
G03*
X39271Y35148I-167J-167D01*
G01*
X39171Y34573D02*
G03*
X39321Y34793I-86J220D01*
G01*
D02*
G03*
X38865Y34880I-236J0D01*
G01*
X35719Y36161D02*
G03*
X35483Y36398I-236J0D01*
G01*
X38302Y33868D02*
G03*
X38520Y33922I65J207D01*
G01*
X38302Y33868D02*
G03*
X38519Y33922I65J207D01*
G01*
X37919Y33528D02*
G03*
X37982Y33681I-153J153D01*
G01*
X37919Y33528D02*
G03*
X37982Y33681I-153J153D01*
G01*
X37270Y34301D02*
G03*
X37270Y33868I-94J-217D01*
G01*
X42618Y32677D02*
G03*
X42402Y32461I0J-217D01*
G01*
Y32264D02*
G03*
X42618Y32047I217J0D01*
G01*
Y31496D02*
G03*
X42402Y31280I0J-217D01*
G01*
Y31083D02*
G03*
X42618Y30866I217J0D01*
G01*
X40157Y30827D02*
G03*
X40000Y30669I0J-157D01*
G01*
X40157Y30827D02*
G03*
X40000Y30669I0J-157D01*
G01*
X38562Y29144D02*
G03*
X38562Y29144I-418J0D01*
G01*
Y30144D02*
G03*
X38562Y30144I-418J0D01*
G01*
X37224Y31625D02*
G03*
X37293Y31791I-167J167D01*
G01*
D02*
G03*
X36890Y31625I-236J0D01*
G01*
X36742Y31654D02*
G03*
X36811Y31821I-167J167D01*
G01*
X36890Y31132D02*
G03*
X36939Y31014I167J0D01*
G01*
X36890Y31132D02*
G03*
X36939Y31014I167J0D01*
G01*
X37677Y30748D02*
G03*
X37441Y30984I-236J0D01*
G01*
X37205Y30748D02*
G03*
X37677Y30748I236J0D01*
G01*
X37562Y30144D02*
G03*
X36991Y30533I-418J0D01*
G01*
X36811Y31821D02*
G03*
X36407Y31654I-236J0D01*
G01*
Y30713D02*
G03*
X36456Y30594I167J0D01*
G01*
X36407Y30713D02*
G03*
X36456Y30594I167J0D01*
G01*
X36164Y32385D02*
G03*
X36470Y32079I86J-220D01*
G01*
X36562Y30144D02*
G03*
X36562Y30144I-418J0D01*
G01*
X36754Y30296D02*
G03*
X37562Y30144I389J-153D01*
G01*
Y29144D02*
G03*
X37562Y29144I-418J0D01*
G01*
X36562D02*
G03*
X36562Y29144I-418J0D01*
G01*
X33209Y40847D02*
G03*
X33278Y41014I-167J167D01*
G01*
X33160Y40443D02*
G03*
X33209Y40561I-118J118D01*
G01*
X33160Y40443D02*
G03*
X33209Y40561I-118J118D01*
G01*
X35423Y38061D02*
G03*
X35020Y38228I-236J0D01*
G01*
X34931D02*
G03*
X34813Y38179I0J-167D01*
G01*
X35020Y37894D02*
G03*
X35423Y38061I167J167D01*
G01*
X34931Y38228D02*
G03*
X34813Y38179I0J-167D01*
G01*
X34734Y38101D02*
G03*
X34685Y37982I118J-118D01*
G01*
X34734Y38101D02*
G03*
X34685Y37982I118J-118D01*
G01*
X33278Y41014D02*
G03*
X32874Y40847I-236J0D01*
G01*
X34685Y36791D02*
G03*
X34734Y36673I167J0D01*
G01*
X35246Y36161D02*
G03*
X35719Y36161I236J0D01*
G01*
X34685Y36791D02*
G03*
X34734Y36673I167J0D01*
G01*
X34528Y34961D02*
G03*
X34528Y34961I-433J0D01*
G01*
X32097Y41162D02*
G03*
X31978Y41211I-118J-118D01*
G01*
X32097Y41162D02*
G03*
X31978Y41211I-118J-118D01*
G01*
X32431Y40758D02*
G03*
X32382Y40876I-167J0D01*
G01*
X32431Y40758D02*
G03*
X32382Y40876I-167J0D01*
G01*
X31929Y40729D02*
G03*
X31811Y40778I-118J-118D01*
G01*
X31929Y40729D02*
G03*
X31811Y40778I-118J-118D01*
G01*
X25709Y41909D02*
G03*
X25492Y42126I-217J0D01*
G01*
Y41496D02*
G03*
X25709Y41713I0J217D01*
G01*
X31801Y41211D02*
G03*
X31801Y40876I-167J-167D01*
G01*
X31302Y40778D02*
G03*
X31363Y40443I-131J-197D01*
G01*
X25709Y40728D02*
G03*
X25492Y40945I-217J0D01*
G01*
Y40315D02*
G03*
X25709Y40532I0J217D01*
G01*
X32770Y39956D02*
G03*
X32844Y40128I-161J172D01*
G01*
X32608Y40364D02*
G03*
X32498Y40337I0J-236D01*
G01*
D02*
G03*
X32431Y40472I-234J-32D01*
G01*
X32923Y39734D02*
G03*
X32770Y39956I-236J0D01*
G01*
X32520Y39567D02*
G03*
X32923Y39734I167J167D01*
G01*
X32352Y39616D02*
G03*
X32470Y39567I118J118D01*
G01*
X32352Y39616D02*
G03*
X32470Y39567I118J118D01*
G01*
X31841Y40197D02*
G03*
X31890Y40079I167J0D01*
G01*
X31841Y40197D02*
G03*
X31890Y40079I167J0D01*
G01*
X25709Y38366D02*
G03*
X25492Y38583I-217J0D01*
G01*
Y39134D02*
G03*
X25709Y39350I0J217D01*
G01*
X25492Y37953D02*
G03*
X25709Y38169I0J217D01*
G01*
Y34823D02*
G03*
X25492Y35039I-217J0D01*
G01*
X25709Y36004D02*
G03*
X25492Y36220I-217J0D01*
G01*
X25709Y33642D02*
G03*
X25492Y33858I-217J0D01*
G01*
X25709Y39547D02*
G03*
X25492Y39764I-217J0D01*
G01*
Y36772D02*
G03*
X25709Y36988I0J217D01*
G01*
Y37185D02*
G03*
X25492Y37402I-217J0D01*
G01*
Y35591D02*
G03*
X25709Y35807I0J217D01*
G01*
X25492Y34409D02*
G03*
X25709Y34626I0J217D01*
G01*
X35562Y30144D02*
G03*
X35562Y30144I-418J0D01*
G01*
X34562D02*
G03*
X34562Y30144I-418J0D01*
G01*
X31437Y29941D02*
G03*
X31437Y29941I-472J0D01*
G01*
X35562Y29144D02*
G03*
X35562Y29144I-418J0D01*
G01*
X25492Y33228D02*
G03*
X25709Y33445I0J217D01*
G01*
Y32461D02*
G03*
X25492Y32677I-217J0D01*
G01*
Y32047D02*
G03*
X25709Y32264I0J217D01*
G01*
X30453Y29941D02*
G03*
X30453Y29941I-472J0D01*
G01*
X28110Y30669D02*
G03*
X27953Y30827I-157J0D01*
G01*
X28110Y30669D02*
G03*
X27953Y30827I-157J0D01*
G01*
X25709Y31280D02*
G03*
X25492Y31496I-217J0D01*
G01*
Y30866D02*
G03*
X25709Y31083I0J217D01*
G01*
X42953Y42126D02*
Y42165D01*
X42933Y42126D02*
Y42165D01*
X42953Y40945D02*
Y41496D01*
X42933Y40945D02*
Y41496D01*
X42874Y42126D02*
Y42165D01*
X42815Y42126D02*
Y42165D01*
X42618Y41496D02*
X42953D01*
X42618Y42126D02*
X42953D01*
X42874Y39764D02*
Y40315D01*
Y40945D02*
Y41496D01*
X42953Y39764D02*
Y40315D01*
X42933Y39764D02*
Y40315D01*
X42618D02*
X42953D01*
X42618Y40945D02*
X42953D01*
X42618Y39764D02*
X42953D01*
X42815D02*
Y40315D01*
X42756Y42126D02*
Y42165D01*
X42697Y42126D02*
Y42165D01*
Y40945D02*
Y41496D01*
X42638Y42126D02*
Y42165D01*
X42579Y42122D02*
Y42165D01*
X42520Y42102D02*
Y42165D01*
X42579Y40941D02*
Y41500D01*
X42520Y40921D02*
Y41520D01*
X42815Y40945D02*
Y41496D01*
X42756Y40945D02*
Y41496D01*
Y39764D02*
Y40315D01*
X42697Y39764D02*
Y40315D01*
X42638Y39764D02*
Y40315D01*
Y40945D02*
Y41496D01*
X42579Y39760D02*
Y40319D01*
X42520Y39740D02*
Y40339D01*
X42953Y38583D02*
Y39134D01*
X42933Y38583D02*
Y39134D01*
X42953Y37402D02*
Y37953D01*
X42933Y37402D02*
Y37953D01*
X42618Y39134D02*
X42953D01*
X42874Y38583D02*
Y39134D01*
X42618Y37953D02*
X42953D01*
X42618Y38583D02*
X42953D01*
X42790Y37736D02*
X42953D01*
X42769Y37795D02*
X42953D01*
X42785Y37618D02*
X42953D01*
X42795Y37677D02*
X42953D01*
X42726Y37854D02*
X42953D01*
X42627Y37913D02*
X42953D01*
X42703Y37500D02*
X42953D01*
X42758Y37559D02*
X42953D01*
X42697Y38583D02*
Y39134D01*
X42638Y38583D02*
Y39134D01*
X42815Y38583D02*
Y39134D01*
X42756Y38583D02*
Y39134D01*
X42579Y38579D02*
Y39137D01*
X42520Y38559D02*
Y39158D01*
X42579Y37922D02*
Y37956D01*
X42520Y37920D02*
Y37976D01*
X42874Y37402D02*
Y37953D01*
X42756Y37818D02*
Y37953D01*
X42815Y37402D02*
Y37953D01*
X42756Y37402D02*
Y37556D01*
X42697Y37879D02*
Y37953D01*
X42638Y37910D02*
Y37953D01*
X42697Y37402D02*
Y37495D01*
X42461Y42058D02*
Y42165D01*
Y39696D02*
Y40383D01*
Y40877D02*
Y41564D01*
Y38515D02*
Y39202D01*
X35421Y38090D02*
X42416D01*
X35406Y38150D02*
X42402D01*
X42320Y37972D02*
X42528D01*
X42250Y38031D02*
X42451D01*
X42224Y38044D02*
Y42165D01*
X42165Y38059D02*
Y42165D01*
X42342Y37939D02*
Y42165D01*
X42283Y38009D02*
Y42165D01*
X42106Y38059D02*
Y42165D01*
X42047Y38044D02*
Y42165D01*
X41988Y38009D02*
Y42165D01*
X41929Y37939D02*
Y42165D01*
X42402Y40531D02*
Y40728D01*
Y41713D02*
Y41909D01*
Y38169D02*
Y38366D01*
Y39350D02*
Y39547D01*
X35421Y38031D02*
X42021D01*
X35406Y37972D02*
X41951D01*
X38133Y37913D02*
X41917D01*
X42355D02*
X42491D01*
X42461Y37902D02*
Y38021D01*
X42401Y37863D02*
Y42165D01*
X41870Y37796D02*
Y42165D01*
X41811Y37737D02*
Y42165D01*
X41752Y37677D02*
Y42165D01*
X41732Y37657D02*
X41900Y37825D01*
X42461Y37334D02*
Y37472D01*
X42002Y37106D02*
X42404Y37509D01*
X38194Y37854D02*
X41901D01*
X38225Y37795D02*
X41870D01*
X39563Y37736D02*
X41811D01*
X40223Y37677D02*
X41751D01*
X41220Y37657D02*
Y42165D01*
X41161Y37657D02*
Y42165D01*
X41339Y37657D02*
Y42165D01*
X41279Y37657D02*
Y42165D01*
X40984Y37657D02*
Y42165D01*
X40925Y37657D02*
Y42165D01*
X41102Y37657D02*
Y42165D01*
X41043Y37657D02*
Y42165D01*
X41575Y37657D02*
Y42165D01*
X41516Y37657D02*
Y42165D01*
X41693Y37657D02*
Y42165D01*
X41634Y37657D02*
Y42165D01*
X40245Y37657D02*
X41732D01*
X41398D02*
Y42165D01*
X41457Y37657D02*
Y42165D01*
X42618Y37402D02*
X42953D01*
X42638D02*
Y37464D01*
X42953Y36220D02*
Y36772D01*
X42933Y36220D02*
Y36772D01*
X42337Y37441D02*
X42953D01*
X42618Y36772D02*
X42953D01*
X42756Y36220D02*
Y36772D01*
X42697Y36220D02*
Y36772D01*
X42874Y36220D02*
Y36772D01*
X42815Y36220D02*
Y36772D01*
X42618Y36220D02*
X42953D01*
X42638D02*
Y36772D01*
X42618Y35591D02*
X42953D01*
X42579Y37398D02*
Y37452D01*
X42277Y37382D02*
X42528D01*
X42520Y37378D02*
Y37454D01*
X42402Y36988D02*
Y37185D01*
X42218Y37323D02*
X42451D01*
X42159Y37264D02*
X42416D01*
X42100Y37205D02*
X42402D01*
X42041Y37146D02*
X42402D01*
X42579Y36217D02*
Y36775D01*
X42520Y36197D02*
Y36795D01*
X42461Y36152D02*
Y36840D01*
X42402Y35807D02*
Y36004D01*
X41978Y37087D02*
X42402D01*
X42874Y35039D02*
Y35591D01*
X42815Y35039D02*
Y35591D01*
X42953Y35039D02*
Y35591D01*
X42933Y35039D02*
Y35591D01*
X42756Y35039D02*
Y35591D01*
X42697Y35039D02*
Y35591D01*
X42618Y34409D02*
X42953D01*
X42618Y35039D02*
X42953D01*
X42874Y33858D02*
Y34409D01*
X42815Y33858D02*
Y34409D01*
X42953Y33858D02*
Y34409D01*
X42933Y33858D02*
Y34409D01*
X42618Y33858D02*
X42953D01*
X42756D02*
Y34409D01*
X40993Y33189D02*
X42953D01*
X42618Y33228D02*
X42953D01*
X42638Y35039D02*
Y35591D01*
X42579Y35036D02*
Y35594D01*
X42520Y35016D02*
Y35614D01*
X42461Y34971D02*
Y35659D01*
X42402Y34626D02*
Y34823D01*
X42461Y33790D02*
Y34477D01*
X42697Y33858D02*
Y34409D01*
X42638Y33858D02*
Y34409D01*
X42579Y33855D02*
Y34413D01*
X42520Y33835D02*
Y34433D01*
X42402Y33445D02*
Y33642D01*
X35697Y36260D02*
X42953D01*
X35715Y36201D02*
X42528D01*
X40777Y35551D02*
X42953D01*
X40764Y35610D02*
X42528D01*
X35443Y36437D02*
X42953D01*
X35384Y36496D02*
X42953D01*
X35658Y36319D02*
X42953D01*
X35577Y36378D02*
X42953D01*
X40756Y35433D02*
X42953D01*
X40774Y35492D02*
X42953D01*
X40636Y35315D02*
X42953D01*
X40717Y35374D02*
X42953D01*
X40443Y35197D02*
X42953D01*
X40502Y35256D02*
X42953D01*
X39260Y35138D02*
X42953D01*
X39152Y35020D02*
X42528D01*
X40672Y35728D02*
X42416D01*
X39921Y37057D02*
X41883D01*
X40733Y35669D02*
X42451D01*
X39251Y34961D02*
X42451D01*
X35718Y36142D02*
X42451D01*
X35705Y36083D02*
X42416D01*
X35674Y36024D02*
X42402D01*
X35613Y35965D02*
X42402D01*
X39295Y34902D02*
X42416D01*
X39316Y34842D02*
X42402D01*
X39311Y34724D02*
X42402D01*
X39321Y34783D02*
X42402D01*
X39229Y34606D02*
X42402D01*
X39283Y34665D02*
X42402D01*
X39145Y34547D02*
X42416D01*
X38968Y34370D02*
X42953D01*
X39027Y34429D02*
X42528D01*
X38849Y34252D02*
X42953D01*
X38909Y34311D02*
X42953D01*
X38731Y34134D02*
X42953D01*
X38790Y34193D02*
X42953D01*
X38613Y34016D02*
X42953D01*
X38672Y34075D02*
X42953D01*
X40981Y33130D02*
X42953D01*
X40991Y33248D02*
X42528D01*
X40888Y33012D02*
X42953D01*
X40950Y33071D02*
X42953D01*
X38491Y33898D02*
X42953D01*
X38554Y33957D02*
X42953D01*
X37285Y32894D02*
X42953D01*
X37344Y32953D02*
X42953D01*
X37982Y33839D02*
X42528D01*
X39086Y34488D02*
X42451D01*
X40984Y33276D02*
Y37057D01*
X40925Y33375D02*
Y37057D01*
X37982Y33779D02*
X42451D01*
X37982Y33720D02*
X42416D01*
X37981Y33661D02*
X42402D01*
X37967Y33602D02*
X42402D01*
X40934Y33366D02*
X42416D01*
X40852Y33425D02*
X42402D01*
X40973Y33307D02*
X42451D01*
X40718Y33484D02*
X42402D01*
X40203Y33543D02*
X42402D01*
X40748Y37657D02*
Y42165D01*
X40630Y37657D02*
Y42165D01*
X40866Y37657D02*
Y42165D01*
X40807Y37657D02*
Y42165D01*
X40394Y37657D02*
Y42165D01*
X40335Y37657D02*
Y42165D01*
X40571Y37657D02*
Y42165D01*
X40512Y37657D02*
Y42165D01*
X40157Y37713D02*
Y42165D01*
X40098Y37726D02*
Y42165D01*
X40276Y37657D02*
Y42165D01*
X40216Y37682D02*
Y42165D01*
X40039Y37723D02*
Y42165D01*
X39980Y37705D02*
Y42165D01*
X39695Y37677D02*
X39934D01*
X39921Y37666D02*
Y42165D01*
X39567Y37734D02*
Y42165D01*
X39508Y37758D02*
Y42165D01*
X39685Y37682D02*
Y42165D01*
X39626Y37697D02*
Y42165D01*
X39449Y37766D02*
Y42165D01*
X39390Y37758D02*
Y42165D01*
X39331Y37734D02*
Y42165D01*
X39272Y37686D02*
Y42165D01*
X38209Y37831D02*
Y42165D01*
X38150Y37901D02*
Y42165D01*
X38237Y37736D02*
X39334D01*
X38235Y37677D02*
X39264D01*
X38031Y37951D02*
Y42165D01*
X37972Y37951D02*
Y42165D01*
X38090Y37936D02*
Y42165D01*
X37913Y37935D02*
Y42165D01*
X40689Y37657D02*
Y42165D01*
X40453Y37657D02*
Y42165D01*
X39862Y37584D02*
Y42165D01*
X39803Y37579D02*
Y42165D01*
X39744Y37638D02*
Y42165D01*
X39094Y35551D02*
Y42165D01*
X39213Y35525D02*
Y42165D01*
X39153Y35546D02*
Y42165D01*
X39764Y37618D02*
X39880D01*
X39734Y37648D02*
X39847Y37535D01*
X38217Y37618D02*
X39230D01*
X38178Y37559D02*
X39214D01*
X39035Y35541D02*
Y42165D01*
X38976Y35513D02*
Y42165D01*
X38917Y35459D02*
Y42165D01*
X38858Y34873D02*
Y42165D01*
X38799Y34814D02*
Y42165D01*
X38740Y34755D02*
Y42165D01*
X38681Y34696D02*
Y42165D01*
X38622Y34637D02*
Y42165D01*
X38563Y34578D02*
Y42165D01*
X38504Y34519D02*
Y42165D01*
X38445Y34460D02*
Y42165D01*
X38386Y34401D02*
Y42165D01*
X38327Y34342D02*
Y42165D01*
X38268Y34301D02*
Y42165D01*
X38209Y34301D02*
Y37602D01*
X37854Y37901D02*
Y42165D01*
X37795Y37884D02*
Y42165D01*
X37736Y37884D02*
Y42165D01*
X37677Y37884D02*
Y42165D01*
X37500Y37884D02*
Y42165D01*
X37205Y37884D02*
Y42165D01*
X37618Y37884D02*
Y42165D01*
X37559Y37884D02*
Y42165D01*
X37382Y37884D02*
Y42165D01*
X37323Y37884D02*
Y42165D01*
X37441Y37884D02*
Y42165D01*
X36722Y37884D02*
X37835D01*
X37087D02*
Y42165D01*
X37264Y37884D02*
Y42165D01*
X37146Y37884D02*
Y42165D01*
X36850Y37884D02*
Y42165D01*
X36791Y37884D02*
Y42165D01*
X36968Y37884D02*
Y42165D01*
X36909Y37884D02*
Y42165D01*
X36732Y37884D02*
Y42165D01*
X36673Y37876D02*
Y42165D01*
X36496Y37727D02*
Y42165D01*
X36437Y37711D02*
Y42165D01*
X37027Y37884D02*
Y42165D01*
X36614Y37844D02*
Y42165D01*
X36486Y37717D02*
X36604Y37835D01*
X36555Y37786D02*
Y42165D01*
X36378Y37690D02*
Y42165D01*
X37795Y34301D02*
Y37549D01*
X37736Y34301D02*
Y37549D01*
X37677Y34301D02*
Y37549D01*
X36792D02*
X37835D01*
X37500Y34301D02*
Y37549D01*
X37618Y34301D02*
Y37549D01*
X37559Y34301D02*
Y37549D01*
X37382Y34301D02*
Y37549D01*
X37323Y34301D02*
Y37549D01*
X37854Y34301D02*
Y37532D01*
X37441Y34301D02*
Y37549D01*
X37205Y34319D02*
Y37549D01*
X37146Y34319D02*
Y37549D01*
X37264Y34304D02*
Y37549D01*
X37087Y34304D02*
Y37549D01*
X36319Y37647D02*
Y42165D01*
X36260Y37548D02*
Y42165D01*
X35669Y36306D02*
Y42165D01*
X35610Y36360D02*
Y42165D01*
X35433Y36447D02*
Y42165D01*
X35374Y36506D02*
Y37917D01*
X35551Y36387D02*
Y42165D01*
X35492Y36397D02*
Y42165D01*
X37027Y34269D02*
Y37549D01*
X36968Y34199D02*
Y37549D01*
X36909Y33131D02*
Y37549D01*
X36850Y33072D02*
Y37549D01*
X36722Y37480D02*
X36792Y37549D01*
X36791Y33013D02*
Y37549D01*
X40630Y35751D02*
Y37057D01*
X40571Y35766D02*
Y37057D01*
X40748Y35646D02*
Y37057D01*
X40689Y35716D02*
Y37057D01*
X40512Y35766D02*
Y37057D01*
X40453Y35750D02*
Y37057D01*
X40394Y35716D02*
Y37057D01*
X40335Y35646D02*
Y37057D01*
X40276Y35502D02*
Y37057D01*
X40255Y35482D02*
X40305Y35532D01*
X40216Y35482D02*
Y37057D01*
X40039Y35482D02*
Y37057D01*
X39980Y35482D02*
Y37057D01*
X40157Y35482D02*
Y37057D01*
X40098Y35482D02*
Y37057D01*
X39578Y37331D02*
X39803Y37106D01*
X39626Y35482D02*
Y37283D01*
X39567Y35482D02*
Y37325D01*
X39508Y35482D02*
Y37301D01*
X39331Y35482D02*
Y37325D01*
X39272Y35482D02*
Y37373D01*
X39449Y35482D02*
Y37293D01*
X39390Y35482D02*
Y37301D01*
X39803Y35482D02*
Y37106D01*
X39921Y35482D02*
Y37057D01*
X39862Y35482D02*
Y37068D01*
X39744Y35482D02*
Y37165D01*
X39685Y35482D02*
Y37224D01*
X40748Y33455D02*
Y35417D01*
X40689Y33504D02*
Y35347D01*
X40866Y33419D02*
Y37057D01*
X40807Y33440D02*
Y37057D01*
X40443Y35197D02*
X40542Y35295D01*
X40630Y33522D02*
Y35312D01*
X40571Y33524D02*
Y35297D01*
X40512Y33524D02*
Y35265D01*
X40729Y33475D02*
X40758Y33445D01*
X40226Y33524D02*
X40610D01*
X40226Y33189D02*
X40522D01*
X40126Y33130D02*
X40535D01*
X40226Y33189D02*
X40522D01*
X40335Y33524D02*
Y35148D01*
X40453Y33524D02*
Y35206D01*
X40394Y33524D02*
Y35162D01*
X39921Y33548D02*
Y35148D01*
X40276Y33524D02*
Y35148D01*
X40216Y33532D02*
Y35148D01*
X40098Y33589D02*
Y35148D01*
X40039Y33592D02*
Y35148D01*
X40157Y33571D02*
Y35148D01*
X39980Y33579D02*
Y35148D01*
X39862Y33487D02*
Y35148D01*
X39272Y34938D02*
Y35148D01*
X39110Y35551D02*
X40306D01*
X38096Y37500D02*
X39214D01*
X39261Y35492D02*
X40265D01*
X36701Y37382D02*
X39264D01*
X36719Y37441D02*
X39230D01*
X36580Y37264D02*
X39645D01*
X36662Y37323D02*
X39335D01*
X39271Y35148D02*
X40325D01*
X39271Y35482D02*
X40255D01*
X39213Y34992D02*
Y35105D01*
X39153Y35019D02*
Y35084D01*
X39094Y35029D02*
Y35079D01*
X38520Y33922D02*
X39171Y34573D01*
X38917Y34960D02*
Y35171D01*
X38150Y34301D02*
Y37532D01*
X38090Y34301D02*
Y37498D01*
X38031Y34301D02*
Y37482D01*
X36742Y37500D02*
X37908D01*
X37972Y34301D02*
Y37482D01*
X37913Y34301D02*
Y37498D01*
X39035Y35024D02*
Y35089D01*
X38976Y35003D02*
Y35116D01*
X38286Y34301D02*
X38865Y34880D01*
X37982Y33868D02*
X38302D01*
X37243Y34311D02*
X38296D01*
X37270Y34301D02*
X37766D01*
X38286D01*
X37933Y33543D02*
X39915D01*
X37982Y33681D02*
Y33868D01*
X37270D02*
X37549D01*
X37875Y33484D02*
X39860D01*
X37816Y33425D02*
X39833D01*
X37757Y33366D02*
X39823D01*
X37639Y33248D02*
X39849D01*
X37698Y33307D02*
X39828D01*
X37521Y33130D02*
X39992D01*
X37580Y33189D02*
X39892D01*
X37403Y33012D02*
X40627D01*
X37462Y33071D02*
X40566D01*
X37382Y33603D02*
Y33868D01*
X37323Y33544D02*
Y33868D01*
X37027Y33249D02*
Y33900D01*
X36968Y33190D02*
Y33970D01*
X36732Y32954D02*
Y37490D01*
X36673Y32895D02*
Y37336D01*
X36614Y32836D02*
Y37282D01*
X37549Y33771D02*
Y33868D01*
X37500Y33722D02*
Y33868D01*
X37441Y33662D02*
Y33868D01*
X37264Y33485D02*
Y33866D01*
X37205Y33426D02*
Y33850D01*
X37146Y33367D02*
Y33850D01*
X37087Y33308D02*
Y33866D01*
X42874Y32677D02*
Y33228D01*
X42815Y32677D02*
Y33228D01*
X42953Y32677D02*
Y33228D01*
X42933Y32677D02*
Y33228D01*
X42618Y32677D02*
X42953D01*
X42638D02*
Y33228D01*
X42756Y32677D02*
Y33228D01*
X42697Y32677D02*
Y33228D01*
X42874Y31496D02*
Y32047D01*
X42815Y31496D02*
Y32047D01*
X42953Y31496D02*
Y32047D01*
X42933Y31496D02*
Y32047D01*
X42618D02*
X42953D01*
X42638Y31496D02*
Y32047D01*
X42756Y31496D02*
Y32047D01*
X42697Y31496D02*
Y32047D01*
X42461Y32609D02*
Y33296D01*
X42401Y30827D02*
Y37506D01*
X42342Y30827D02*
Y37447D01*
X42283Y30827D02*
Y37388D01*
X42106Y30827D02*
Y37211D01*
X42047Y30827D02*
Y37152D01*
X42224Y30827D02*
Y37329D01*
X42165Y30827D02*
Y37270D01*
X42579Y32674D02*
Y33232D01*
X42520Y32653D02*
Y33252D01*
X42579Y31492D02*
Y32051D01*
X42520Y31472D02*
Y32071D01*
X42402Y32264D02*
Y32461D01*
X42461Y31428D02*
Y32115D01*
X41870Y30827D02*
Y37057D01*
X41811Y30827D02*
Y37057D01*
X41988Y30827D02*
Y37094D01*
X41929Y30827D02*
Y37063D01*
X41634Y30827D02*
Y37057D01*
X41575Y30827D02*
Y37057D01*
X41752Y30827D02*
Y37057D01*
X41693Y30827D02*
Y37057D01*
X41398Y30827D02*
Y37057D01*
X41339Y30827D02*
Y37057D01*
X41516Y30827D02*
Y37057D01*
X41457Y30827D02*
Y37057D01*
X41161Y30827D02*
Y37057D01*
X41102Y30827D02*
Y37057D01*
X41279Y30827D02*
Y37057D01*
X41220Y30827D02*
Y37057D01*
X40512Y30827D02*
Y33189D01*
X40453Y30827D02*
Y33189D01*
X41043Y30827D02*
Y37057D01*
X40984Y30827D02*
Y33141D01*
X40276Y30827D02*
Y33189D01*
X40216Y30827D02*
Y33180D01*
X40394Y30827D02*
Y33189D01*
X40335Y30827D02*
Y33189D01*
X40807Y30827D02*
Y32978D01*
X40748Y30827D02*
Y32973D01*
X40925Y30827D02*
Y33042D01*
X40866Y30827D02*
Y32999D01*
X40630Y30827D02*
Y33010D01*
X40571Y30827D02*
Y33064D01*
X40689Y30827D02*
Y32983D01*
X37166Y32776D02*
X42953D01*
X37225Y32835D02*
X42953D01*
X37107Y32716D02*
X42953D01*
X37048Y32657D02*
X42528D01*
X36989Y32598D02*
X42451D01*
X36930Y32539D02*
X42416D01*
X36635Y32244D02*
X42402D01*
X36871Y32480D02*
X42402D01*
X37272Y31890D02*
X42953D01*
X37233Y31949D02*
X42953D01*
X37292Y31772D02*
X42953D01*
X37290Y31831D02*
X42953D01*
X36517Y32126D02*
X42451D01*
X36576Y32185D02*
X42416D01*
X37152Y32008D02*
X42953D01*
X36465Y32067D02*
X42528D01*
X38209Y30557D02*
Y33868D01*
X38150Y30562D02*
Y33868D01*
X38327Y30520D02*
Y33862D01*
X38268Y30543D02*
Y33868D01*
X38090Y30558D02*
Y33868D01*
X36470Y32079D02*
X37919Y33528D01*
X38031Y30546D02*
Y33868D01*
X37972Y30525D02*
Y33616D01*
X40157Y30827D02*
Y33142D01*
X40098Y30815D02*
Y33123D01*
X40039Y30773D02*
Y33121D01*
X37913Y30493D02*
Y33522D01*
X36753Y32362D02*
X42402D01*
X36812Y32421D02*
X42402D01*
X36694Y32303D02*
X42402D01*
X39685Y28051D02*
Y35148D01*
X39626Y28051D02*
Y35148D01*
X39803Y28051D02*
Y35148D01*
X39744Y28051D02*
Y35148D01*
X39449Y28051D02*
Y35148D01*
X39331Y28051D02*
Y35148D01*
X39567Y28051D02*
Y35148D01*
X39508Y28051D02*
Y35148D01*
X39862Y28051D02*
Y33226D01*
X39390Y28051D02*
Y35148D01*
X39980Y28051D02*
Y33134D01*
X39921Y28051D02*
Y33164D01*
X39153Y28051D02*
Y34556D01*
X39094Y28051D02*
Y34497D01*
X39272Y28051D02*
Y34649D01*
X39213Y28051D02*
Y34595D01*
X38917Y28051D02*
Y34320D01*
X38858Y28051D02*
Y34261D01*
X39035Y28051D02*
Y34438D01*
X38976Y28051D02*
Y34379D01*
X38681Y28051D02*
Y34083D01*
X38622Y28051D02*
Y34024D01*
X38799Y28051D02*
Y34202D01*
X38740Y28051D02*
Y34143D01*
X38445Y30434D02*
Y33873D01*
X38386Y30485D02*
Y33859D01*
X38563Y28051D02*
Y33965D01*
X38504Y30356D02*
Y33908D01*
X37854Y30445D02*
Y33463D01*
X37795Y30375D02*
Y33404D01*
X37736Y30237D02*
Y33345D01*
X42618Y31496D02*
X42953D01*
X42933Y30827D02*
Y30866D01*
X42579Y30827D02*
Y30870D01*
X42520Y30827D02*
Y30890D01*
X42402Y31083D02*
Y31280D01*
X42461Y30827D02*
Y30934D01*
X42815Y30827D02*
Y30866D01*
X42756Y30827D02*
Y30866D01*
X42953Y30827D02*
Y30866D01*
X42874Y30827D02*
Y30866D01*
X42618D02*
X42953D01*
X42697Y30827D02*
Y30866D01*
X40157Y30827D02*
X42953D01*
X42638D02*
Y30866D01*
X38551Y30236D02*
X40000D01*
X38533Y30295D02*
X40000D01*
X38402Y30472D02*
X40000D01*
X38300Y30531D02*
X40000D01*
X38505Y30354D02*
X40000D01*
X38463Y30413D02*
X40000D01*
X38561Y30118D02*
X40000D01*
X38560Y30177D02*
X40000D01*
X38536Y30000D02*
X40000D01*
X38553Y30059D02*
X40000D01*
X38470Y29882D02*
X40000D01*
X38509Y29941D02*
X40000D01*
X38412Y29823D02*
X40000D01*
X38535Y29291D02*
X40000D01*
X38507Y29350D02*
X40000D01*
Y28051D02*
Y30669D01*
X38552Y29232D02*
X40000D01*
X38310Y29527D02*
X40000D01*
X38318Y29764D02*
X40000D01*
X38467Y29409D02*
X40000D01*
X38407Y29468D02*
X40000D01*
X38561Y29114D02*
X40000D01*
X38561Y29173D02*
X40000D01*
X38535Y28996D02*
X40000D01*
X38552Y29055D02*
X40000D01*
X38466Y28878D02*
X40000D01*
X38507Y28937D02*
X40000D01*
X38309Y28760D02*
X40000D01*
X38407Y28819D02*
X40000D01*
X38386Y29485D02*
Y29803D01*
X38327Y29520D02*
Y29768D01*
X38504Y29356D02*
Y29931D01*
X38445Y29434D02*
Y29854D01*
X38150Y29562D02*
Y29726D01*
X38090Y29558D02*
Y29729D01*
X38268Y29543D02*
Y29744D01*
X38209Y29557D02*
Y29731D01*
X38386Y28051D02*
Y28803D01*
X38327Y28051D02*
Y28768D01*
X38504Y28051D02*
Y28931D01*
X38445Y28051D02*
Y28854D01*
X38209Y28051D02*
Y28731D01*
X38150Y28051D02*
Y28726D01*
X38268Y28051D02*
Y28744D01*
X37249Y31653D02*
X42953D01*
X37280Y31713D02*
X42953D01*
X37224Y31535D02*
X42953D01*
X37224Y31594D02*
X42953D01*
X37224Y31476D02*
X42528D01*
X37224Y31417D02*
X42451D01*
X37224Y31358D02*
X42416D01*
X37224Y31299D02*
X42402D01*
X37572Y30945D02*
X42451D01*
X37422Y31004D02*
X42416D01*
X37633Y30886D02*
X42528D01*
X37664Y30827D02*
X40153D01*
X37245Y31181D02*
X42402D01*
X37224Y31240D02*
X42402D01*
X37363Y31063D02*
X42402D01*
X37304Y31122D02*
X42402D01*
X37676Y30768D02*
X40034D01*
X37674Y30709D02*
X40005D01*
X37656Y30650D02*
X40000D01*
X37617Y30590D02*
X40000D01*
X37535Y30531D02*
X37987D01*
X37402Y30472D02*
X37885D01*
X37463Y30413D02*
X37824D01*
X37551Y30236D02*
X37736D01*
X37536Y30000D02*
X37751D01*
X37505Y30354D02*
X37782D01*
X37533Y30295D02*
X37754D01*
X37509Y29941D02*
X37778D01*
X38031Y29546D02*
Y29741D01*
X37972Y29525D02*
Y29762D01*
X37913Y29493D02*
Y29795D01*
X37318Y29764D02*
X37969D01*
X37412Y29823D02*
X37876D01*
X37972Y28051D02*
Y28762D01*
X37913Y28051D02*
Y28795D01*
X38090Y28051D02*
Y28729D01*
X38031Y28051D02*
Y28741D01*
X37310Y29527D02*
X37978D01*
X37407Y29468D02*
X37880D01*
X37309Y28760D02*
X37978D01*
X37407Y28819D02*
X37880D01*
X37854Y29445D02*
Y29842D01*
X37795Y29375D02*
Y29913D01*
X37736Y29237D02*
Y30050D01*
X37552Y29232D02*
X37735D01*
X37467Y29409D02*
X37821D01*
X37470Y29882D02*
X37818D01*
X37507Y29350D02*
X37780D01*
X37535Y29291D02*
X37752D01*
X37736Y28051D02*
Y29050D01*
X37552Y29055D02*
X37735D01*
X37854Y28051D02*
Y28842D01*
X37795Y28051D02*
Y28913D01*
X37507Y28937D02*
X37780D01*
X37535Y28996D02*
X37753D01*
X37466Y28878D02*
X37821D01*
X37441Y30985D02*
Y33050D01*
X37382Y31044D02*
Y32991D01*
X37559Y30953D02*
Y33168D01*
X37500Y30977D02*
Y33109D01*
X37205Y31976D02*
Y32814D01*
X37146Y32010D02*
Y32755D01*
X37323Y31103D02*
Y32932D01*
X37264Y31906D02*
Y32873D01*
X37224Y31201D02*
Y31625D01*
Y31201D02*
X37441Y30984D01*
X37264Y31162D02*
Y31677D01*
X37087Y32026D02*
Y32696D01*
X37027Y32026D02*
Y32637D01*
X36968Y32010D02*
Y32578D01*
X36909Y31976D02*
Y32518D01*
X36791Y31915D02*
Y32400D01*
X36850Y31906D02*
Y32459D01*
X36801Y31890D02*
X36842D01*
X36773Y31949D02*
X36881D01*
X36785Y31713D02*
X36834D01*
X36742Y31653D02*
X36865D01*
X36890Y31132D02*
Y31625D01*
X36742Y31594D02*
X36890D01*
X36742Y31122D02*
X36890D01*
X36742Y31535D02*
X36890D01*
X36742Y31004D02*
X36948D01*
X36742Y31063D02*
X36905D01*
X37677Y30754D02*
Y33286D01*
X37618Y30904D02*
Y33227D01*
X37677Y28051D02*
Y30742D01*
X36874Y30650D02*
X37226D01*
X36815Y30709D02*
X37208D01*
X37264Y30544D02*
Y30592D01*
X37500Y30363D02*
Y30519D01*
X37441Y30438D02*
Y30512D01*
X37618Y28051D02*
Y30592D01*
X37559Y30192D02*
Y30543D01*
X37300Y30531D02*
X37347D01*
X36934Y30590D02*
X37265D01*
X37382Y30487D02*
Y30519D01*
X36939Y31014D02*
X37205Y30748D01*
X36909Y30615D02*
Y31053D01*
X37027Y30545D02*
Y30925D01*
X36968Y30556D02*
Y30984D01*
X36742Y30945D02*
X37008D01*
X36742Y30782D02*
Y31654D01*
X36850Y30674D02*
Y31677D01*
X36791Y30733D02*
Y31726D01*
X36756Y30768D02*
X37185D01*
X37146Y30562D02*
Y30807D01*
X37205Y30557D02*
Y30748D01*
X37087Y30558D02*
Y30866D01*
X36742Y30827D02*
X37126D01*
X36742Y30886D02*
X37067D01*
X36742Y30782D02*
X36991Y30533D01*
X36614Y32054D02*
Y32223D01*
X36555Y32777D02*
Y37254D01*
X36732Y31997D02*
Y32341D01*
X36673Y32036D02*
Y32282D01*
X36164Y32385D02*
X37549Y33771D01*
X36496Y32718D02*
Y37244D01*
X36555Y32056D02*
Y32164D01*
X36496Y32044D02*
Y32105D01*
X36742Y31299D02*
X36890D01*
X36742Y31358D02*
X36890D01*
X36742Y31181D02*
X36890D01*
X36742Y31240D02*
X36890D01*
X36719Y32008D02*
X36963D01*
X36742Y31417D02*
X36890D01*
X36742Y31476D02*
X36890D01*
X36437Y32659D02*
Y37249D01*
X36378Y32599D02*
Y37270D01*
X36319Y32540D02*
Y37314D01*
X36260Y32481D02*
Y37413D01*
X36201Y32422D02*
Y42165D01*
X36142Y32375D02*
Y42165D01*
X36083Y32332D02*
Y42165D01*
X36024Y32233D02*
Y42165D01*
X36407Y30713D02*
Y31654D01*
X36344Y31949D02*
X36376D01*
X36142Y30562D02*
Y31955D01*
X36201Y30558D02*
Y31934D01*
X36378Y30490D02*
Y31690D01*
X36319Y30523D02*
Y31939D01*
X36456Y30594D02*
X36754Y30296D01*
X36437Y30442D02*
Y30618D01*
X36260Y30545D02*
Y31929D01*
X36083Y30557D02*
Y31999D01*
X36505Y30354D02*
X36697D01*
X36555Y30219D02*
Y30496D01*
X36673Y28051D02*
Y30378D01*
X36614Y28051D02*
Y30437D01*
X36402Y30472D02*
X36578D01*
X36300Y30531D02*
X36519D01*
X36463Y30413D02*
X36637D01*
X36496Y30369D02*
Y30555D01*
X35965Y30521D02*
Y42165D01*
X35905Y30487D02*
Y42165D01*
X35846Y30438D02*
Y42165D01*
X35787Y30362D02*
Y42165D01*
X35728Y30191D02*
Y42165D01*
X35374Y30493D02*
Y35952D01*
X35669Y28051D02*
Y36017D01*
X35610Y28051D02*
Y35963D01*
X36024Y30544D02*
Y32098D01*
X35492Y30375D02*
Y35925D01*
X35505Y30354D02*
X35782D01*
X35551Y30238D02*
Y35935D01*
X35402Y30472D02*
X35885D01*
X35433Y30446D02*
Y35930D01*
X35463Y30413D02*
X35824D01*
X37560Y30177D02*
X37727D01*
X37561Y30118D02*
X37726D01*
X37553Y30059D02*
X37734D01*
X37500Y29363D02*
Y29925D01*
X37382Y29487D02*
Y29800D01*
X37441Y29438D02*
Y29850D01*
X36850Y29442D02*
Y29846D01*
X37205Y29557D02*
Y29730D01*
X37146Y29562D02*
Y29726D01*
X37323Y29522D02*
Y29766D01*
X37264Y29544D02*
Y29743D01*
X37087Y29558D02*
Y29730D01*
X37027Y29545D02*
Y29742D01*
X36968Y29523D02*
Y29764D01*
X36909Y29490D02*
Y29797D01*
X36732Y30218D02*
Y30319D01*
X36560Y30177D02*
X36727D01*
X36553Y30059D02*
X36734D01*
X36561Y30118D02*
X36726D01*
X36533Y30295D02*
X36754D01*
X36551Y30236D02*
X36736D01*
X36509Y29941D02*
X36778D01*
X36536Y30000D02*
X36751D01*
X36791Y29369D02*
Y29919D01*
X36496Y29369D02*
Y29919D01*
X36507Y29350D02*
X36780D01*
X36535Y29291D02*
X36753D01*
X36470Y29882D02*
X36818D01*
X36437Y29442D02*
Y29846D01*
X36467Y29409D02*
X36821D01*
X37561Y29173D02*
X37727D01*
X37559Y29192D02*
Y30095D01*
X37561Y29114D02*
X37727D01*
X37559Y28051D02*
Y29095D01*
X37382Y28051D02*
Y28800D01*
X37500Y28051D02*
Y28925D01*
X37441Y28051D02*
Y28850D01*
X37205Y28051D02*
Y28730D01*
X37146Y28051D02*
Y28726D01*
X37323Y28051D02*
Y28766D01*
X37264Y28051D02*
Y28743D01*
X36968Y28051D02*
Y28764D01*
X36909Y28051D02*
Y28797D01*
X37087Y28051D02*
Y28730D01*
X37027Y28051D02*
Y28742D01*
X36732Y29218D02*
Y30070D01*
X36561Y29173D02*
X36727D01*
X36732Y28051D02*
Y29070D01*
X36561Y29114D02*
X36727D01*
X36552Y29232D02*
X36735D01*
X36555Y29219D02*
Y30069D01*
X36552Y29055D02*
X36735D01*
X36555Y28051D02*
Y29069D01*
X36507Y28937D02*
X36780D01*
X36535Y28996D02*
X36753D01*
X36850Y28051D02*
Y28846D01*
X36791Y28051D02*
Y28919D01*
X36466Y28878D02*
X36821D01*
X36496Y28051D02*
Y28919D01*
X36437Y28051D02*
Y28846D01*
X36412Y29823D02*
X36876D01*
X36378Y29490D02*
Y29797D01*
X36319Y29523D02*
Y29764D01*
X35965Y29521D02*
Y29766D01*
X35905Y29487D02*
Y29800D01*
X36318Y29764D02*
X36969D01*
X36260Y29545D02*
Y29742D01*
X36310Y29527D02*
X36978D01*
X36407Y29468D02*
X36880D01*
X36201Y29558D02*
Y29729D01*
X36142Y29562D02*
Y29726D01*
X36083Y29557D02*
Y29730D01*
X36024Y29544D02*
Y29743D01*
X35560Y30177D02*
X35727D01*
X35561Y30118D02*
X35726D01*
X35787Y29362D02*
Y29925D01*
X35553Y30059D02*
X35734D01*
X35533Y30295D02*
X35754D01*
X35551Y30236D02*
X35736D01*
X35509Y29941D02*
X35778D01*
X35536Y30000D02*
X35751D01*
X35846Y29438D02*
Y29850D01*
X35470Y29882D02*
X35818D01*
X35467Y29409D02*
X35821D01*
X35492Y29375D02*
Y29912D01*
X35407Y29468D02*
X35880D01*
X35412Y29823D02*
X35876D01*
X35433Y29446D02*
Y29842D01*
X36407Y28819D02*
X36880D01*
X36378Y28051D02*
Y28797D01*
X35905Y28051D02*
Y28800D01*
X35846Y28051D02*
Y28850D01*
X35407Y28819D02*
X35880D01*
X35466Y28878D02*
X35821D01*
X35787Y28051D02*
Y28925D01*
X36309Y28760D02*
X36978D01*
X36319Y28051D02*
Y28764D01*
X36260Y28051D02*
Y28742D01*
X36201Y28051D02*
Y28730D01*
X36024Y28051D02*
Y28743D01*
X35965Y28051D02*
Y28766D01*
X36142Y28051D02*
Y28726D01*
X36083Y28051D02*
Y28730D01*
X35728Y29191D02*
Y30096D01*
X35561Y29173D02*
X35727D01*
X35728Y28051D02*
Y29096D01*
X35561Y29114D02*
X35727D01*
X35507Y29350D02*
X35780D01*
X35535Y29291D02*
X35752D01*
X35552Y29232D02*
X35735D01*
X35551Y29238D02*
Y30050D01*
X35535Y28996D02*
X35753D01*
X35552Y29055D02*
X35735D01*
X35507Y28937D02*
X35780D01*
X35551Y28051D02*
Y29050D01*
X35433Y28051D02*
Y28842D01*
X35374Y28051D02*
Y28795D01*
X35492Y28051D02*
Y28912D01*
X33276Y41043D02*
X42953D01*
X33260Y41102D02*
X42953D01*
X33276Y40984D02*
X42953D01*
X33260Y40925D02*
X42528D01*
X33226Y41161D02*
X42953D01*
X33156Y41220D02*
X42953D01*
X33226Y40866D02*
X42451D01*
X33209Y40807D02*
X42416D01*
X33209Y40748D02*
X42402D01*
X33209Y40689D02*
X42402D01*
X35302Y38268D02*
X42402D01*
X33209Y40630D02*
X42402D01*
X33169Y40453D02*
X42416D01*
X33201Y40512D02*
X42402D01*
X33052Y40335D02*
X42528D01*
X33111Y40394D02*
X42451D01*
X35197Y38297D02*
Y42165D01*
X35138Y38292D02*
Y42165D01*
X35256Y38287D02*
Y42165D01*
X35079Y38271D02*
Y42165D01*
X33071Y41248D02*
Y42165D01*
X33012Y41248D02*
Y42165D01*
X35020Y38228D02*
Y42165D01*
X33248Y41128D02*
Y42165D01*
X33209Y40571D02*
X42402D01*
X35315Y38260D02*
Y42165D01*
X33209Y40561D02*
Y40847D01*
X33189Y41198D02*
Y42165D01*
X33130Y41233D02*
Y42165D01*
X34931Y38228D02*
X35020D01*
X34961D02*
Y42165D01*
X35374Y38205D02*
Y42165D01*
X34902Y38226D02*
Y42165D01*
X34842Y38203D02*
Y42165D01*
X34783Y38150D02*
Y42165D01*
X34724Y38090D02*
Y42165D01*
X35371Y38209D02*
X42402D01*
X35371Y37913D02*
X37871D01*
X34734Y38101D02*
X34813Y38179D01*
X34134Y35392D02*
Y42165D01*
X34075Y35393D02*
Y42165D01*
X34016Y35386D02*
Y42165D01*
X33957Y35371D02*
Y42165D01*
X33898Y35346D02*
Y42165D01*
X33839Y35310D02*
Y42165D01*
X33779Y35258D02*
Y42165D01*
X33720Y35179D02*
Y42165D01*
X34685Y36791D02*
Y37982D01*
X34370Y35295D02*
Y42165D01*
X34488Y35141D02*
Y42165D01*
X34429Y35236D02*
Y42165D01*
X34252Y35364D02*
Y42165D01*
X34193Y35382D02*
Y42165D01*
X34311Y35336D02*
Y42165D01*
X25157Y42165D02*
X42953D01*
X25582Y41516D02*
X42528D01*
X32992Y40276D02*
X42953D01*
X31640Y41279D02*
X42953D01*
X25157Y41457D02*
X42953D01*
X25157Y42165D02*
X42953D01*
X25157Y41339D02*
X42953D01*
X25157Y41398D02*
X42953D01*
X32874Y40157D02*
X42953D01*
X32933Y40216D02*
X42953D01*
X32913Y39803D02*
X42953D01*
X32886Y39862D02*
X42953D01*
X32827Y40039D02*
X42953D01*
X32843Y40098D02*
X42953D01*
X32831Y39921D02*
X42953D01*
X32793Y39980D02*
X42953D01*
X25709Y41811D02*
X42402D01*
X25709Y41870D02*
X42402D01*
X25709Y41752D02*
X42402D01*
X32953Y41233D02*
Y42165D01*
X25583Y42106D02*
X42528D01*
X25659Y42047D02*
X42451D01*
X25694Y41988D02*
X42416D01*
X25708Y41929D02*
X42402D01*
X31790Y41220D02*
X32927D01*
X32923Y39744D02*
X42528D01*
X32844Y40128D02*
X33160Y40443D01*
X25694Y41634D02*
X42416D01*
X25708Y41693D02*
X42402D01*
X25659Y41575D02*
X42451D01*
X32918Y39685D02*
X42451D01*
X32897Y39626D02*
X42416D01*
X25659Y39213D02*
X42451D01*
X25694Y39272D02*
X42416D01*
X25157Y39094D02*
X42953D01*
X25582Y39153D02*
X42528D01*
X25157Y38976D02*
X42953D01*
X25157Y39035D02*
X42953D01*
X25157Y38622D02*
X42953D01*
X25157Y38681D02*
X42953D01*
X25583Y38563D02*
X42528D01*
X25659Y38504D02*
X42451D01*
X25157Y38858D02*
X42953D01*
X25157Y38917D02*
X42953D01*
X25157Y38740D02*
X42953D01*
X25157Y38799D02*
X42953D01*
X32854Y39567D02*
X42402D01*
X32754Y39508D02*
X42402D01*
X25709Y39390D02*
X42402D01*
X25709Y39449D02*
X42402D01*
X25694Y38445D02*
X42416D01*
X25708Y39331D02*
X42402D01*
X25708Y38386D02*
X42402D01*
X25709Y38327D02*
X42402D01*
X25709Y38268D02*
X35073D01*
X25709Y38209D02*
X34852D01*
X25708Y38150D02*
X34783D01*
X25694Y38090D02*
X34725D01*
X25659Y38031D02*
X34692D01*
X25582Y37972D02*
X34685D01*
X25157Y37913D02*
X34685D01*
X35301Y37854D02*
X36627D01*
X35020Y37795D02*
X36564D01*
X35020Y37736D02*
X36505D01*
X35020Y37677D02*
X36356D01*
X35020Y37264D02*
X36392D01*
X35020Y37323D02*
X36310D01*
X35020Y37146D02*
X39763D01*
X35020Y37205D02*
X39704D01*
X35089Y36791D02*
X42528D01*
X35030Y36850D02*
X42451D01*
X35207Y36673D02*
X42953D01*
X35148Y36732D02*
X42953D01*
X35020Y37027D02*
X42402D01*
X35020Y37087D02*
X39826D01*
X35020Y36909D02*
X42416D01*
X35020Y36968D02*
X42402D01*
X35079Y36802D02*
Y37851D01*
X35020Y37854D02*
X35073D01*
X35197Y36684D02*
Y37825D01*
X35138Y36743D02*
Y37830D01*
X35020Y37618D02*
X36294D01*
X35020Y37559D02*
X36263D01*
X35020Y37500D02*
X36251D01*
X35020Y36861D02*
Y37894D01*
Y37382D02*
X36272D01*
X35020Y37441D02*
X36253D01*
X25709Y37146D02*
X34685D01*
X25709Y37087D02*
X34685D01*
X25708Y37205D02*
X34685D01*
X25709Y37027D02*
X34685D01*
X35325Y36555D02*
X42953D01*
X35266Y36614D02*
X42953D01*
X34458Y35197D02*
X38900D01*
X34411Y35256D02*
X38876D01*
X25709Y35846D02*
X42402D01*
X25709Y35905D02*
X42402D01*
X34224Y35374D02*
X38876D01*
X34344Y35315D02*
X38868D01*
X34511Y35079D02*
X42953D01*
X34524Y35020D02*
X39017D01*
X34528Y34961D02*
X38918D01*
X34523Y34902D02*
X38875D01*
X34490Y35138D02*
X38948D01*
X34511Y34842D02*
X38828D01*
X34490Y34783D02*
X38769D01*
X34457Y34724D02*
X38709D01*
X35315Y36565D02*
Y37862D01*
X35256Y36625D02*
Y37835D01*
X35020Y36861D02*
X35483Y36398D01*
X34734Y36673D02*
X35246Y36161D01*
X25709Y35965D02*
X35352D01*
X34411Y34665D02*
X38650D01*
X25709Y34783D02*
X33699D01*
X34343Y34606D02*
X38591D01*
X34223Y34547D02*
X38532D01*
X25709Y34665D02*
X33778D01*
X25709Y34724D02*
X33732D01*
X25709Y33602D02*
X37381D01*
X25157Y36437D02*
X34970D01*
X25157Y36496D02*
X34911D01*
X25157Y36319D02*
X35088D01*
X25157Y36378D02*
X35029D01*
X25157Y36673D02*
X34734D01*
X25157Y36732D02*
X34696D01*
X25157Y36555D02*
X34852D01*
X25157Y36614D02*
X34793D01*
X25708Y36024D02*
X35290D01*
X25694Y36083D02*
X35260D01*
X25708Y35787D02*
X42402D01*
X25694Y35728D02*
X40411D01*
X25582Y36201D02*
X35206D01*
X25157Y36260D02*
X35147D01*
X25659Y35669D02*
X40349D01*
X25659Y36142D02*
X35247D01*
X25157Y37559D02*
X34685D01*
X25157Y37618D02*
X34685D01*
X25157Y37441D02*
X34685D01*
X25157Y37500D02*
X34685D01*
X25157Y37795D02*
X34685D01*
X25157Y37854D02*
X34685D01*
X25157Y37677D02*
X34685D01*
X25157Y37736D02*
X34685D01*
X25694Y37264D02*
X34685D01*
X25659Y37323D02*
X34685D01*
X25694Y36909D02*
X34685D01*
X25708Y36968D02*
X34685D01*
X25659Y36850D02*
X34685D01*
X25582Y37382D02*
X34685D01*
X25582Y36791D02*
X34685D01*
X25582Y35610D02*
X40319D01*
X25157Y35492D02*
X38948D01*
X25659Y34488D02*
X38473D01*
X25582Y34429D02*
X38414D01*
X25157Y35551D02*
X39099D01*
X25157Y35433D02*
X38900D01*
X25157Y34370D02*
X38355D01*
X25157Y34311D02*
X37107D01*
X25659Y33779D02*
X37549D01*
X25582Y33839D02*
X37549D01*
X25694Y33720D02*
X37499D01*
X25708Y33661D02*
X37440D01*
X25157Y34252D02*
X37008D01*
X25157Y34193D02*
X36965D01*
X25157Y33898D02*
X37031D01*
X25157Y33957D02*
X36977D01*
X25157Y35138D02*
X33699D01*
X25157Y35079D02*
X33678D01*
X25582Y35020D02*
X33665D01*
X25659Y34961D02*
X33661D01*
X25157Y35374D02*
X33965D01*
X25157Y35315D02*
X33845D01*
X25157Y35256D02*
X33778D01*
X25157Y35197D02*
X33731D01*
X25708Y34842D02*
X33678D01*
X25694Y34902D02*
X33665D01*
X25694Y34547D02*
X33966D01*
X25708Y34606D02*
X33846D01*
X25157Y34134D02*
X36944D01*
X25157Y34075D02*
X36939D01*
X25157Y34016D02*
X36949D01*
X32894Y41198D02*
Y42165D01*
X32835Y41128D02*
Y42165D01*
X32421Y40815D02*
Y42165D01*
X32362Y40896D02*
Y42165D01*
X32185Y41073D02*
Y42165D01*
X32126Y41132D02*
Y42165D01*
X32303Y40955D02*
Y42165D01*
X32244Y41014D02*
Y42165D01*
X32333Y40925D02*
X32822D01*
X32274Y40984D02*
X32807D01*
X32424Y40807D02*
X32874D01*
X32391Y40866D02*
X32857D01*
X32097Y41161D02*
X32857D01*
X32156Y41102D02*
X32822D01*
X32215Y41043D02*
X32807D01*
X32097Y41162D02*
X32382Y40876D01*
X31949Y41211D02*
Y42165D01*
X31890Y41211D02*
Y42165D01*
X32067Y41185D02*
Y42165D01*
X32008Y41208D02*
Y42165D01*
X31713Y41266D02*
Y42165D01*
X31653Y41279D02*
Y42165D01*
X31831Y41211D02*
Y42165D01*
X31772Y41235D02*
Y42165D01*
X31801Y41211D02*
X31978D01*
X31801Y40876D02*
X31909D01*
X31790Y40866D02*
X31919D01*
X31713Y40778D02*
Y40821D01*
X31653Y40778D02*
Y40808D01*
X31594Y40778D02*
Y40810D01*
X32835Y40591D02*
Y40900D01*
X32776Y40532D02*
Y42165D01*
X32716Y40473D02*
Y42165D01*
X32657Y40414D02*
Y42165D01*
X32480Y40400D02*
Y42165D01*
X32598Y40364D02*
Y42165D01*
X32539Y40354D02*
Y42165D01*
X32431Y40689D02*
X32874D01*
X32431Y40748D02*
X32874D01*
X32608Y40364D02*
X32874Y40630D01*
Y40847D01*
X32431Y40630D02*
X32874D01*
X32431Y40571D02*
X32814D01*
X32431Y40512D02*
X32755D01*
X31949Y40709D02*
Y40836D01*
X31890Y40758D02*
Y40876D01*
X31909D02*
X32096Y40689D01*
X32008Y40650D02*
Y40777D01*
X31831Y40776D02*
Y40876D01*
X31772Y40778D02*
Y40851D01*
X32028Y40630D02*
X32096D01*
X32067Y40591D02*
Y40718D01*
X32431Y40472D02*
Y40758D01*
X32096Y40561D02*
Y40689D01*
X31969Y40689D02*
X32096D01*
X31906Y40748D02*
X32037D01*
X31929Y40729D02*
X32096Y40561D01*
X31594Y41276D02*
Y42165D01*
X31535Y41258D02*
Y42165D01*
X31476Y41219D02*
Y42165D01*
X31417Y41138D02*
Y42165D01*
X25630Y42077D02*
Y42165D01*
X25571Y42111D02*
Y42165D01*
X25689Y42000D02*
Y42165D01*
X25709Y41713D02*
Y41909D01*
X25157Y41279D02*
X31628D01*
X25157Y41220D02*
X31478D01*
X25157Y41161D02*
X31429D01*
X25157Y41102D02*
X31405D01*
X25157Y40984D02*
X31405D01*
X25157Y41043D02*
X31398D01*
X25394Y42126D02*
Y42165D01*
X25335Y42126D02*
Y42165D01*
X25512Y42125D02*
Y42165D01*
X25453Y42126D02*
Y42165D01*
X25157Y42126D02*
X25492D01*
X25157D02*
Y42165D01*
X25276Y42126D02*
Y42165D01*
X25216Y42126D02*
Y42165D01*
X25276Y40945D02*
Y41496D01*
X25216Y40945D02*
Y41496D01*
X25394Y40945D02*
Y41496D01*
X25335Y40945D02*
Y41496D01*
X25157D02*
X25492D01*
X25157Y40945D02*
Y41496D01*
Y40945D02*
X25492D01*
X31299Y40779D02*
Y42165D01*
X31417Y40778D02*
Y40949D01*
X31358Y40778D02*
Y42165D01*
X31181Y40817D02*
Y42165D01*
X31122Y40812D02*
Y42165D01*
X31240Y40807D02*
Y42165D01*
X31063Y40791D02*
Y42165D01*
X31239Y40807D02*
X31978D01*
X31302Y40778D02*
X31811D01*
X31535D02*
Y40829D01*
X31476Y40778D02*
Y40867D01*
X25659Y40866D02*
X31478D01*
X25583Y40925D02*
X31429D01*
X25694Y40807D02*
X31104D01*
X25689Y40819D02*
Y41622D01*
X25630Y40895D02*
Y41546D01*
X31004Y40747D02*
Y42165D01*
X30945Y40648D02*
Y42165D01*
X25512Y40944D02*
Y41497D01*
X25453Y40945D02*
Y41496D01*
X25571Y40930D02*
Y41511D01*
X25709Y40689D02*
X30961D01*
X25709Y40630D02*
X30940D01*
X25709Y40571D02*
X30935D01*
X25709Y40532D02*
Y40728D01*
X25708Y40748D02*
X31004D01*
X25708Y40512D02*
X30945D01*
X32894Y39849D02*
Y40177D01*
X32835Y39919D02*
Y40060D01*
X32448Y40453D02*
X32696D01*
X32483Y40394D02*
X32637D01*
X31890Y40079D02*
X32352Y39616D01*
X32470Y39567D02*
X32520D01*
X25694Y39626D02*
X32342D01*
X25709Y39508D02*
X32620D01*
X25708Y39567D02*
X32520D01*
X31315Y40394D02*
X31791D01*
X31363Y40443D02*
X31742D01*
X31841Y40197D02*
Y40344D01*
X31742Y40443D02*
X31841Y40344D01*
X25659Y40394D02*
X31027D01*
X25694Y40453D02*
X30973D01*
X25689Y39638D02*
Y40441D01*
X25630Y39714D02*
Y40364D01*
X25659Y39685D02*
X32283D01*
X25583Y39744D02*
X32224D01*
X25582Y40335D02*
X31841D01*
X25512Y39763D02*
Y40316D01*
X25571Y39749D02*
Y40330D01*
X25709Y39350D02*
Y39547D01*
X25689Y38456D02*
Y39260D01*
X25709Y36988D02*
Y37185D01*
Y38169D02*
Y38366D01*
X25689Y37275D02*
Y38079D01*
X25709Y35807D02*
Y36004D01*
X25689Y36094D02*
Y36898D01*
X25709Y34626D02*
Y34823D01*
X25689Y34913D02*
Y35717D01*
Y33732D02*
Y34536D01*
X25630Y38533D02*
Y39183D01*
X25571Y38568D02*
Y39149D01*
X25630Y36171D02*
Y36821D01*
Y37352D02*
Y38002D01*
X25512Y37401D02*
Y37954D01*
Y38582D02*
Y39135D01*
X25571Y36206D02*
Y36786D01*
Y37387D02*
Y37968D01*
X25630Y34990D02*
Y35640D01*
X25571Y35025D02*
Y35605D01*
X25630Y33809D02*
Y34459D01*
X25571Y33843D02*
Y34424D01*
X25512Y35038D02*
Y35591D01*
Y36220D02*
Y36773D01*
Y33857D02*
Y34410D01*
X25157Y40039D02*
X31929D01*
X25157Y40098D02*
X31873D01*
X25157Y39921D02*
X32047D01*
X25157Y39980D02*
X31988D01*
X25157Y40276D02*
X31841D01*
X25157Y40315D02*
X25492D01*
X25157Y40157D02*
X31845D01*
X25157Y40216D02*
X31841D01*
X25157Y39803D02*
X32165D01*
X25157Y39764D02*
X25492D01*
X25453Y37402D02*
Y37953D01*
X25157Y39862D02*
X32106D01*
X25157Y39134D02*
X25492D01*
X25157Y37953D02*
X25492D01*
X25157Y38583D02*
X25492D01*
X25453Y39764D02*
Y40315D01*
X25394Y39764D02*
Y40315D01*
Y38583D02*
Y39134D01*
X25335Y39764D02*
Y40315D01*
X25276Y39764D02*
Y40315D01*
X25216Y39764D02*
Y40315D01*
X25157Y38583D02*
Y39134D01*
Y39764D02*
Y40315D01*
X25453Y38583D02*
Y39134D01*
X25335Y38583D02*
Y39134D01*
X25394Y37402D02*
Y37953D01*
X25335Y37402D02*
Y37953D01*
X25276Y38583D02*
Y39134D01*
X25216Y38583D02*
Y39134D01*
X25276Y37402D02*
Y37953D01*
X25453Y36220D02*
Y36772D01*
X25157D02*
X25492D01*
X25157Y37402D02*
X25492D01*
X25157Y36220D02*
X25492D01*
X25394D02*
Y36772D01*
X25453Y35039D02*
Y35591D01*
X25394Y35039D02*
Y35591D01*
X25453Y33858D02*
Y34409D01*
X25157Y35039D02*
X25492D01*
X25157Y35591D02*
X25492D01*
X25157Y33858D02*
X25492D01*
X25157Y34409D02*
X25492D01*
X25335Y36220D02*
Y36772D01*
X25276Y36220D02*
Y36772D01*
X25335Y35039D02*
Y35591D01*
X25276Y35039D02*
Y35591D01*
X25216Y37402D02*
Y37953D01*
X25157Y37402D02*
Y37953D01*
X25216Y36220D02*
Y36772D01*
X25157Y36220D02*
Y36772D01*
X25276Y33858D02*
Y34409D01*
X25216Y35039D02*
Y35591D01*
X25394Y33858D02*
Y34409D01*
X25335Y33858D02*
Y34409D01*
X25216Y33858D02*
Y34409D01*
X25157Y35039D02*
Y35591D01*
Y33858D02*
Y34409D01*
X35138Y30562D02*
Y36269D01*
X35079Y30557D02*
Y36328D01*
X35020Y30543D02*
Y36387D01*
X34961Y30520D02*
Y36447D01*
X34902Y30485D02*
Y36506D01*
X34842Y30434D02*
Y36565D01*
X34783Y30356D02*
Y36624D01*
X34724Y28051D02*
Y36684D01*
X35256Y30546D02*
Y36094D01*
X35197Y30558D02*
Y36210D01*
X35300Y30531D02*
X35987D01*
X35315Y30525D02*
Y35995D01*
X34300Y30531D02*
X34987D01*
X34402Y30472D02*
X34885D01*
X34429Y30449D02*
Y34686D01*
X34370Y30495D02*
Y34627D01*
X34547Y30253D02*
Y42165D01*
X34488Y30381D02*
Y34780D01*
X33839Y30429D02*
Y34611D01*
X33779Y30349D02*
Y34663D01*
X32598Y28051D02*
Y39515D01*
X32480Y28051D02*
Y39567D01*
X34193Y30559D02*
Y34539D01*
X34134Y30562D02*
Y34529D01*
X34311Y30527D02*
Y34586D01*
X34252Y30548D02*
Y34557D01*
X34075Y30556D02*
Y34528D01*
X34016Y30542D02*
Y34535D01*
X33957Y30518D02*
Y34550D01*
X33898Y30482D02*
Y34575D01*
X33661Y28051D02*
Y42165D01*
X33602Y28051D02*
Y42165D01*
X34665Y28051D02*
Y42165D01*
X34606Y28051D02*
Y42165D01*
X33425Y28051D02*
Y42165D01*
X33366Y28051D02*
Y42165D01*
X33543Y28051D02*
Y42165D01*
X33484Y28051D02*
Y42165D01*
X33248Y28051D02*
Y40899D01*
X33189Y28051D02*
Y40482D01*
X33720Y28051D02*
Y34742D01*
X33307Y28051D02*
Y42165D01*
X33012Y28051D02*
Y40295D01*
X32953Y28051D02*
Y40236D01*
X33130Y28051D02*
Y40413D01*
X33071Y28051D02*
Y40354D01*
X32244Y28051D02*
Y39724D01*
X32185Y28051D02*
Y39783D01*
X32894Y28051D02*
Y39620D01*
X32303Y28051D02*
Y39665D01*
X32008Y28051D02*
Y39960D01*
X31949Y28051D02*
Y40019D01*
X32126Y28051D02*
Y39842D01*
X32067Y28051D02*
Y39901D01*
X32716Y28051D02*
Y39500D01*
X32657Y28051D02*
Y39500D01*
X32835Y28051D02*
Y39550D01*
X32776Y28051D02*
Y39515D01*
X32421Y28051D02*
Y39574D01*
X32362Y28051D02*
Y39607D01*
X32539Y28051D02*
Y39550D01*
X25709Y33543D02*
X37322D01*
X25709Y33484D02*
X37263D01*
X25708Y33425D02*
X37204D01*
X25694Y33366D02*
X37144D01*
X25659Y33307D02*
X37085D01*
X25582Y33248D02*
X37026D01*
X25157Y33189D02*
X36967D01*
X25157Y33130D02*
X36908D01*
X25157Y32835D02*
X36613D01*
X25157Y32776D02*
X36554D01*
X25157Y32716D02*
X36495D01*
X25582Y32657D02*
X36436D01*
X25157Y33071D02*
X36849D01*
X25157Y33012D02*
X36790D01*
X25157Y32953D02*
X36731D01*
X25157Y32894D02*
X36672D01*
X25708Y32480D02*
X36259D01*
X25709Y32421D02*
X36200D01*
X25709Y32362D02*
X36119D01*
X25709Y32303D02*
X36058D01*
X25659Y32598D02*
X36377D01*
X25694Y32539D02*
X36318D01*
X25708Y32244D02*
X36027D01*
X25694Y32185D02*
X36015D01*
X25582Y32067D02*
X36035D01*
X25659Y32126D02*
X36017D01*
X25157Y31949D02*
X36156D01*
X25157Y32008D02*
X36074D01*
X25157Y31890D02*
X36349D01*
X25157Y31831D02*
X36339D01*
X25157Y31772D02*
X36344D01*
X25694Y31358D02*
X36407D01*
X25659Y31417D02*
X36407D01*
X25709Y31240D02*
X36407D01*
X25708Y31299D02*
X36407D01*
X25157Y31594D02*
X36407D01*
X25157Y31653D02*
X36407D01*
X25582Y31476D02*
X36407D01*
X25157Y31535D02*
X36407D01*
X28105Y30709D02*
X36408D01*
X25709Y31122D02*
X36407D01*
X28110Y30590D02*
X36460D01*
X28110Y30650D02*
X36420D01*
X25708Y31063D02*
X36407D01*
X25709Y31181D02*
X36407D01*
X25659Y30945D02*
X36407D01*
X25694Y31004D02*
X36407D01*
X31772Y28051D02*
Y40413D01*
X31713Y28051D02*
Y40443D01*
X31890Y28051D02*
Y40078D01*
X31831Y28051D02*
Y40354D01*
X31535Y28051D02*
Y40443D01*
X31476Y28051D02*
Y40443D01*
X31653Y28051D02*
Y40443D01*
X31594Y28051D02*
Y40443D01*
X28076Y30768D02*
X36407D01*
X28110Y30531D02*
X33987D01*
X28110Y30472D02*
X33885D01*
X25582Y30886D02*
X36407D01*
X25157Y31713D02*
X36365D01*
X27957Y30827D02*
X36407D01*
X35318Y29764D02*
X35969D01*
X35315Y29525D02*
Y29762D01*
X35374Y29493D02*
Y29795D01*
X34961Y29520D02*
Y29768D01*
X34318Y29764D02*
X34969D01*
X34412Y29823D02*
X34876D01*
X34902Y29485D02*
Y29803D01*
X34842Y29434D02*
Y29854D01*
X35197Y29558D02*
Y29729D01*
X35138Y29562D02*
Y29726D01*
X35310Y29527D02*
X35978D01*
X35256Y29546D02*
Y29741D01*
X35079Y29557D02*
Y29731D01*
X35020Y29543D02*
Y29744D01*
X34562Y29527D02*
X34978D01*
X34562Y29468D02*
X34880D01*
X34551Y30236D02*
X34736D01*
X34560Y30177D02*
X34727D01*
X34553Y30059D02*
X34734D01*
X34561Y30118D02*
X34726D01*
X34463Y30413D02*
X34824D01*
X34505Y30354D02*
X34782D01*
X34533Y30295D02*
X34754D01*
X34547Y29562D02*
Y30034D01*
X34509Y29941D02*
X34778D01*
X34536Y30000D02*
X34751D01*
X34470Y29882D02*
X34818D01*
X34488Y29562D02*
Y29907D01*
X34370Y29562D02*
Y29792D01*
X34311Y29562D02*
Y29760D01*
X34429Y29562D02*
Y29838D01*
X34842Y28051D02*
Y28854D01*
X34783Y28051D02*
Y28932D01*
X34961Y28051D02*
Y28768D01*
X34902Y28051D02*
Y28803D01*
X34562Y28878D02*
X34821D01*
X34562Y29409D02*
X34821D01*
X34562Y28819D02*
X34880D01*
X35309Y28760D02*
X35978D01*
X35315Y28051D02*
Y28762D01*
X35256Y28051D02*
Y28741D01*
X35197Y28051D02*
Y28729D01*
X35020Y28051D02*
Y28744D01*
X34562Y28760D02*
X34978D01*
X35138Y28051D02*
Y28726D01*
X35079Y28051D02*
Y28731D01*
X34783Y29356D02*
Y29932D01*
X34562Y29350D02*
X34780D01*
X34562Y29291D02*
X34753D01*
X34562Y28726D02*
Y29562D01*
Y29232D02*
X34735D01*
X34562Y29173D02*
X34727D01*
X34562Y29055D02*
X34735D01*
X34562Y29114D02*
X34727D01*
X34562Y28937D02*
X34780D01*
X34562Y28996D02*
X34753D01*
X34547Y28051D02*
Y28726D01*
X34488Y28051D02*
Y28726D01*
X34370Y28051D02*
Y28726D01*
X34311Y28051D02*
Y28726D01*
X34429Y28051D02*
Y28726D01*
X33898Y29562D02*
Y29806D01*
X33839Y29562D02*
Y29858D01*
X34016Y29562D02*
Y29746D01*
X33957Y29562D02*
Y29770D01*
X30972Y30413D02*
X33824D01*
X31433Y29882D02*
X33818D01*
X31403Y29764D02*
X33969D01*
X31422Y29823D02*
X33876D01*
X34134Y29562D02*
Y29726D01*
X34075Y29562D02*
Y29731D01*
X34252Y29562D02*
Y29740D01*
X34193Y29562D02*
Y29728D01*
X31333Y29646D02*
X40000D01*
X31374Y29705D02*
X40000D01*
X31277Y29587D02*
X40000D01*
X33726Y29562D02*
X34562D01*
X31422Y30059D02*
X33734D01*
X31403Y30118D02*
X33726D01*
X31437Y29941D02*
X33778D01*
X31433Y30000D02*
X33751D01*
X31193Y30354D02*
X33782D01*
X31277Y30295D02*
X33754D01*
X31333Y30236D02*
X33736D01*
X31374Y30177D02*
X33727D01*
X33779Y29562D02*
Y29938D01*
X31193Y29527D02*
X33726D01*
X28110Y29409D02*
X33726D01*
X28110Y29468D02*
X33726D01*
X28110Y29291D02*
X33726D01*
X28110Y29350D02*
X33726D01*
X28110Y29232D02*
X33726D01*
Y28726D02*
X34562D01*
X34134Y28051D02*
Y28726D01*
X34252Y28051D02*
Y28726D01*
X34193Y28051D02*
Y28726D01*
X28110Y28642D02*
X40000D01*
X28110Y28701D02*
X40000D01*
X28110Y28524D02*
X40000D01*
X28110Y28583D02*
X40000D01*
X28110Y28169D02*
X40000D01*
X28110Y28228D02*
X40000D01*
X28110Y28051D02*
X40000D01*
X28110Y28110D02*
X40000D01*
X28110Y28405D02*
X40000D01*
X28110Y28465D02*
X40000D01*
X28110Y28287D02*
X40000D01*
X28110Y28346D02*
X40000D01*
X28110Y29114D02*
X33726D01*
X28110Y29173D02*
X33726D01*
Y28726D02*
Y29562D01*
X28110Y29055D02*
X33726D01*
X28110Y28937D02*
X33726D01*
X28110Y28996D02*
X33726D01*
X28110Y28819D02*
X33726D01*
X28110Y28878D02*
X33726D01*
X33957Y28051D02*
Y28726D01*
X33898Y28051D02*
Y28726D01*
X34075Y28051D02*
Y28726D01*
X34016Y28051D02*
Y28726D01*
X33779Y28051D02*
Y28726D01*
X28110Y28760D02*
X33726D01*
X33839Y28051D02*
Y28726D01*
X29409Y30413D02*
Y42165D01*
X29350Y30413D02*
Y42165D01*
X29882Y30403D02*
Y42165D01*
X29468Y30413D02*
Y42165D01*
X29173Y30413D02*
Y42165D01*
X29114Y30413D02*
Y42165D01*
X29291Y30413D02*
Y42165D01*
X29232Y30413D02*
Y42165D01*
X31004Y30412D02*
Y40414D01*
X30945Y30413D02*
Y40513D01*
X31063Y30403D02*
Y40371D01*
X30886Y30407D02*
Y42165D01*
X30000Y30413D02*
Y42165D01*
X29941Y30412D02*
Y42165D01*
X30118Y30393D02*
Y42165D01*
X30059Y30407D02*
Y42165D01*
X28051Y30792D02*
Y42165D01*
X27992Y30822D02*
Y42165D01*
X28583Y30413D02*
Y42165D01*
X28110Y30673D02*
Y42165D01*
X27815Y30827D02*
Y42165D01*
X27756Y30827D02*
Y42165D01*
X27933Y30827D02*
Y42165D01*
X27874Y30827D02*
Y42165D01*
X28937Y30413D02*
Y42165D01*
X28878Y30413D02*
Y42165D01*
X29055Y30413D02*
Y42165D01*
X28996Y30413D02*
Y42165D01*
X28701Y30413D02*
Y42165D01*
X28642Y30413D02*
Y42165D01*
X28819Y30413D02*
Y42165D01*
X28760Y30413D02*
Y42165D01*
X30827Y30393D02*
Y42165D01*
X30768Y30370D02*
Y42165D01*
X30709Y30338D02*
Y42165D01*
X30650Y30293D02*
Y42165D01*
X30354Y30230D02*
Y42165D01*
X30295Y30293D02*
Y42165D01*
X30590Y30229D02*
Y42165D01*
X30413Y30130D02*
Y42165D01*
X31299Y30274D02*
Y40382D01*
X31240Y30325D02*
Y40355D01*
X31417Y30076D02*
Y40443D01*
X31358Y30202D02*
Y40436D01*
X31181Y30361D02*
Y40345D01*
X31122Y30386D02*
Y40350D01*
X30531Y30130D02*
Y42165D01*
X30472Y28051D02*
Y42165D01*
X29527Y30076D02*
Y42165D01*
X28524Y28051D02*
Y42165D01*
X28465Y28051D02*
Y42165D01*
X28405Y28051D02*
Y42165D01*
X28228Y28051D02*
Y42165D01*
X28169Y28051D02*
Y42165D01*
X28346Y28051D02*
Y42165D01*
X28287Y28051D02*
Y42165D01*
X30177Y30370D02*
Y42165D01*
X29823Y30386D02*
Y42165D01*
X30236Y30338D02*
Y42165D01*
X29764Y30361D02*
Y42165D01*
X29705Y30325D02*
Y42165D01*
X29646Y30274D02*
Y42165D01*
X29587Y30202D02*
Y42165D01*
X26988Y30827D02*
Y42165D01*
X25709Y33445D02*
Y33642D01*
X27165Y30827D02*
Y42165D01*
X27047Y30827D02*
Y42165D01*
X25571Y32662D02*
Y33243D01*
X25689Y32551D02*
Y33355D01*
X25630Y32628D02*
Y33278D01*
X25709Y32264D02*
Y32461D01*
X25571Y31481D02*
Y32062D01*
X25689Y31370D02*
Y32173D01*
X25630Y31447D02*
Y32097D01*
X25512Y32676D02*
Y33229D01*
Y31495D02*
Y32048D01*
X25335Y32677D02*
Y33228D01*
X25276Y32677D02*
Y33228D01*
X25453Y32677D02*
Y33228D01*
X25394Y32677D02*
Y33228D01*
X25157D02*
X25492D01*
X25216Y32677D02*
Y33228D01*
X25157Y32677D02*
X25492D01*
X25157D02*
Y33228D01*
X25335Y31496D02*
Y32047D01*
X25276Y31496D02*
Y32047D01*
X25453Y31496D02*
Y32047D01*
X25394Y31496D02*
Y32047D01*
X25157D02*
X25492D01*
X25216Y31496D02*
Y32047D01*
X25157Y31496D02*
Y32047D01*
X26929Y30827D02*
Y42165D01*
X26870Y30827D02*
Y42165D01*
X27224Y30827D02*
Y42165D01*
X27106Y30827D02*
Y42165D01*
X26693Y30827D02*
Y42165D01*
X26634Y30827D02*
Y42165D01*
X26811Y30827D02*
Y42165D01*
X26752Y30827D02*
Y42165D01*
X27579Y30827D02*
Y42165D01*
X27520Y30827D02*
Y42165D01*
X27697Y30827D02*
Y42165D01*
X27638Y30827D02*
Y42165D01*
X27342Y30827D02*
Y42165D01*
X27283Y30827D02*
Y42165D01*
X27461Y30827D02*
Y42165D01*
X27402Y30827D02*
Y42165D01*
X26043Y30827D02*
Y42165D01*
X25984Y30827D02*
Y42165D01*
X26161Y30827D02*
Y42165D01*
X26102Y30827D02*
Y42165D01*
X25807Y30827D02*
Y42165D01*
X25748Y30827D02*
Y42165D01*
X25925Y30827D02*
Y42165D01*
X25866Y30827D02*
Y42165D01*
X26457Y30827D02*
Y42165D01*
X26398Y30827D02*
Y42165D01*
X26575Y30827D02*
Y42165D01*
X26516Y30827D02*
Y42165D01*
X26279Y30827D02*
Y42165D01*
X26220Y30827D02*
Y42165D01*
X26339Y30827D02*
Y42165D01*
X30389Y30177D02*
X30555D01*
X30418Y30118D02*
X30527D01*
X30438Y30059D02*
X30507D01*
X30449Y30000D02*
X30496D01*
X29988Y30413D02*
X30957D01*
X30209Y30354D02*
X30736D01*
X30293Y30295D02*
X30652D01*
X30349Y30236D02*
X30596D01*
X30438Y29823D02*
X30507D01*
X30449Y29882D02*
X30496D01*
X31181Y28051D02*
Y29521D01*
X30418Y29764D02*
X30527D01*
X30349Y29646D02*
X30596D01*
X30389Y29705D02*
X30555D01*
X30209Y29527D02*
X30736D01*
X30293Y29587D02*
X30652D01*
X29469Y30413D02*
X29973D01*
X29469Y30354D02*
X29751D01*
X29469Y29469D02*
Y30413D01*
Y30295D02*
X29668D01*
X29469Y30236D02*
X29611D01*
X29469Y30177D02*
X29571D01*
X29469Y30000D02*
X29512D01*
X30453Y29941D02*
X30492D01*
X29469D02*
X29508D01*
X29469Y29823D02*
X29523D01*
X29469Y29882D02*
X29512D01*
X29469Y29705D02*
X29571D01*
X29469Y29764D02*
X29542D01*
X29469Y29587D02*
X29668D01*
X31299Y28051D02*
Y29607D01*
X31240Y28051D02*
Y29557D01*
X31417Y28051D02*
Y29806D01*
X31358Y28051D02*
Y29680D01*
X30531Y28051D02*
Y29752D01*
X30413Y28051D02*
Y29752D01*
X30650Y28051D02*
Y29589D01*
X30590Y28051D02*
Y29652D01*
X31004Y28051D02*
Y29470D01*
X30945Y28051D02*
Y29469D01*
X31122Y28051D02*
Y29495D01*
X31063Y28051D02*
Y29479D01*
X30768Y28051D02*
Y29511D01*
X30709Y28051D02*
Y29544D01*
X30886Y28051D02*
Y29475D01*
X30827Y28051D02*
Y29489D01*
X30236Y28051D02*
Y29544D01*
X29764Y28051D02*
Y29521D01*
X30354Y28051D02*
Y29652D01*
X30295Y28051D02*
Y29589D01*
X29587Y28051D02*
Y29680D01*
X29527Y28051D02*
Y29806D01*
X29705Y28051D02*
Y29557D01*
X29646Y28051D02*
Y29608D01*
X30059Y28051D02*
Y29475D01*
X30000Y28051D02*
Y29469D01*
X30177Y28051D02*
Y29511D01*
X30118Y28051D02*
Y29489D01*
X29882Y28051D02*
Y29479D01*
X29823Y28051D02*
Y29496D01*
X29941Y28051D02*
Y29470D01*
X28524Y30413D02*
X29469D01*
X28110Y30413D02*
X28524D01*
X28110Y30236D02*
X28524D01*
X28110Y30295D02*
X28524D01*
X25157Y30827D02*
X27953D01*
X28110Y30354D02*
X28524D01*
X29469Y30118D02*
X29542D01*
X28110D02*
X28524D01*
X29469Y30059D02*
X29523D01*
X28110D02*
X28524D01*
X28110Y30177D02*
X28524D01*
X28110Y29941D02*
X28524D01*
X28110Y30000D02*
X28524D01*
X25709Y31083D02*
Y31280D01*
X25689Y30827D02*
Y30992D01*
X25630Y30827D02*
Y30916D01*
X25571Y30827D02*
Y30881D01*
X25157Y31496D02*
X25492D01*
X25512Y30827D02*
Y30867D01*
X25335Y30827D02*
Y30866D01*
X25276Y30827D02*
Y30866D01*
X25453Y30827D02*
Y30866D01*
X25394Y30827D02*
Y30866D01*
X25157D02*
X25492D01*
X25216Y30827D02*
Y30866D01*
X25157Y30827D02*
Y30866D01*
X29469Y29527D02*
X29752D01*
X29469Y29646D02*
X29612D01*
X29409Y28051D02*
Y29469D01*
X29350Y28051D02*
Y29469D01*
X28524D02*
X29469D01*
X29232Y28051D02*
Y29469D01*
X29173Y28051D02*
Y29469D01*
X29468Y28051D02*
Y29469D01*
X29291Y28051D02*
Y29469D01*
X28996Y28051D02*
Y29469D01*
X28937Y28051D02*
Y29469D01*
X29114Y28051D02*
Y29469D01*
X29055Y28051D02*
Y29469D01*
X28110Y29823D02*
X28524D01*
X28110Y29882D02*
X28524D01*
Y29469D02*
Y30413D01*
X28110Y28051D02*
Y30669D01*
Y29705D02*
X28524D01*
X28110Y29764D02*
X28524D01*
X28110Y29587D02*
X28524D01*
X28110Y29646D02*
X28524D01*
X28760Y28051D02*
Y29469D01*
X28701Y28051D02*
Y29469D01*
X28878Y28051D02*
Y29469D01*
X28819Y28051D02*
Y29469D01*
X28583Y28051D02*
Y29469D01*
X28110Y29527D02*
X28524D01*
X28642Y28051D02*
Y29469D01*
D31*
X38144Y30144D02*
Y30522D01*
Y30144D02*
X38522D01*
X37765D02*
X38144D01*
Y29765D02*
Y30144D01*
X36144D02*
Y30522D01*
Y29765D02*
Y30144D01*
X36522D01*
X35765D02*
X36144D01*
X28996Y29941D02*
X29429D01*
X28563D02*
X28996D01*
Y30374D01*
Y29508D02*
Y29941D01*
X37766Y34085D02*
X38356D01*
X37175D02*
X37766D01*
Y33681D02*
Y34085D01*
X36250Y32165D02*
X37766Y33681D01*
X38356Y34085D02*
X38366Y34075D01*
X39085Y34793D01*
D32*
X42165Y36929D02*
X42323Y37087D01*
X43110D01*
X42047Y31181D02*
X43110D01*
X42146Y32362D02*
X43110D01*
X42126Y33543D02*
X43110D01*
X41900Y34724D02*
X43110D01*
X41949Y35906D02*
X43110D01*
X41732Y38268D02*
X43110D01*
X42037Y39449D02*
X43110D01*
X41654Y40630D02*
X43110D01*
X41831Y41811D02*
X43110D01*
X25000Y31181D02*
X26063D01*
X25000Y32362D02*
X26161D01*
X25000Y33543D02*
X26230D01*
X25000Y34724D02*
X26142D01*
X25000Y35906D02*
X26250D01*
X25000Y37087D02*
X26230D01*
X25000Y38268D02*
X26211D01*
X25000Y39449D02*
X26132D01*
X25000Y40630D02*
X26152D01*
X25000Y41811D02*
X26161D01*
D33*
X38002Y37717D02*
X38071D01*
X36722D02*
X38002D01*
X36486Y37480D02*
X36722Y37717D01*
X40325Y35315D02*
X40541Y35531D01*
X39104Y35315D02*
X40325D01*
X34931Y38061D02*
X35187D01*
X34852Y37982D02*
X34931Y38061D01*
X34852Y36791D02*
Y37982D01*
Y36791D02*
X35482Y36161D01*
X33041Y40561D02*
Y41014D01*
X32608Y40128D02*
X33041Y40561D01*
X31634Y41043D02*
X31978D01*
X32264Y40758D01*
Y40305D02*
Y40758D01*
X32470Y39734D02*
X32687D01*
X32008Y40197D02*
X32470Y39734D01*
X32008Y40197D02*
Y40413D01*
X31811Y40610D02*
X32008Y40413D01*
X31201Y40610D02*
X31811D01*
X36575Y30713D02*
Y31821D01*
Y30713D02*
X37144Y30144D01*
X37057Y31132D02*
Y31791D01*
Y31132D02*
X37441Y30748D01*
X40059Y33356D02*
X40610D01*
X40758Y33209D01*
X40079Y37490D02*
X41801D01*
X42136Y37825D01*
X39449Y37530D02*
X39616D01*
X39921Y37224D01*
X41883D01*
X42346Y37687D01*
X42559D01*
D43*
X29980Y29941D02*
D03*
X30965D02*
D03*
D44*
X28996D02*
D03*
D45*
X34094Y34961D02*
D03*
D46*
X43110Y31181D02*
D03*
Y32362D02*
D03*
Y33543D02*
D03*
Y34724D02*
D03*
Y35906D02*
D03*
Y37087D02*
D03*
Y38268D02*
D03*
Y39449D02*
D03*
Y40630D02*
D03*
Y41811D02*
D03*
X25000D02*
D03*
Y40630D02*
D03*
Y39449D02*
D03*
Y38268D02*
D03*
Y37087D02*
D03*
Y35906D02*
D03*
Y34724D02*
D03*
Y33543D02*
D03*
Y32362D02*
D03*
Y31181D02*
D03*
D47*
X36144Y30144D02*
D03*
Y29144D02*
D03*
X37144Y30144D02*
D03*
X38144D02*
D03*
X34144D02*
D03*
X35144D02*
D03*
X37144Y29144D02*
D03*
X38144D02*
D03*
X35144D02*
D03*
D48*
X34144D02*
D03*
D49*
X28789Y31289D02*
D03*
X29990Y41004D02*
D03*
X29178Y40453D02*
D03*
X27638Y31949D02*
D03*
X27628Y33484D02*
D03*
X28366Y32726D02*
D03*
X33819Y39774D02*
D03*
X34793Y39793D02*
D03*
X40689Y37972D02*
D03*
X39567Y39203D02*
D03*
X40699Y38691D02*
D03*
X40236Y39203D02*
D03*
X37894Y39872D02*
D03*
X33848Y31722D02*
D03*
X39675Y29636D02*
D03*
X39488Y28317D02*
D03*
X35689Y28563D02*
D03*
X33583Y28258D02*
D03*
X31614Y28287D02*
D03*
X28986Y29055D02*
D03*
X28780Y28248D02*
D03*
X35620Y41791D02*
D03*
X34754Y41801D02*
D03*
X33780Y41791D02*
D03*
X32844Y41772D02*
D03*
X28140Y36781D02*
D03*
X28179Y36191D02*
D03*
X39902Y31860D02*
D03*
X38917Y31348D02*
D03*
X37087Y32347D02*
D03*
X34301Y32854D02*
D03*
X35482Y33642D02*
D03*
X31762Y30591D02*
D03*
X31772Y31476D02*
D03*
X29931Y34970D02*
D03*
X29488Y35630D02*
D03*
X27490Y39400D02*
D03*
X27480Y40069D02*
D03*
X27451Y40817D02*
D03*
X30049Y38169D02*
D03*
X34281Y34380D02*
D03*
X41998Y36299D02*
D03*
X41693Y33652D02*
D03*
X41683Y31132D02*
D03*
X40797Y31388D02*
D03*
X40669Y32805D02*
D03*
X37490Y39094D02*
D03*
X38307Y39055D02*
D03*
X37766Y38553D02*
D03*
X36634Y38967D02*
D03*
X36220Y39301D02*
D03*
X35748Y38228D02*
D03*
X35571Y37884D02*
D03*
X35659Y37510D02*
D03*
X36014Y37195D02*
D03*
X36467Y37087D02*
D03*
X36309Y36801D02*
D03*
X35531Y39252D02*
D03*
X35069D02*
D03*
X34596Y39232D02*
D03*
X34281Y38976D02*
D03*
X34262Y38514D02*
D03*
X33848Y38435D02*
D03*
X33780Y38022D02*
D03*
X33494Y37854D02*
D03*
X33091Y37825D02*
D03*
X32638Y37638D02*
D03*
X32411Y37303D02*
D03*
X32343Y36870D02*
D03*
X32323Y36388D02*
D03*
Y35906D02*
D03*
X32343Y35443D02*
D03*
Y34980D02*
D03*
X32352Y34478D02*
D03*
Y34045D02*
D03*
X32402Y33228D02*
D03*
X33238Y33238D02*
D03*
X34783Y36447D02*
D03*
X33642Y36309D02*
D03*
X33307Y34547D02*
D03*
X33287Y34252D02*
D03*
Y33927D02*
D03*
X33268Y36299D02*
D03*
X33258Y35876D02*
D03*
X33278Y35472D02*
D03*
X34941Y35591D02*
D03*
X33967Y35551D02*
D03*
X34262Y35531D02*
D03*
X34528Y35394D02*
D03*
X34685Y35128D02*
D03*
X34715Y34783D02*
D03*
X34547Y34537D02*
D03*
X33957Y34360D02*
D03*
X33671Y34508D02*
D03*
X32362Y33612D02*
D03*
X32815Y33091D02*
D03*
X33278Y33612D02*
D03*
X41929Y33071D02*
D03*
X41339Y31890D02*
D03*
X37795D02*
D03*
X38386Y30709D02*
D03*
X33071Y38976D02*
D03*
X33661Y35433D02*
D03*
X33071Y29528D02*
D03*
X31890Y36614D02*
D03*
Y34252D02*
D03*
X32480Y30709D02*
D03*
X30709Y41339D02*
D03*
X31299Y37795D02*
D03*
X30709Y36614D02*
D03*
X31299Y35433D02*
D03*
X30709Y34252D02*
D03*
X31299Y33071D02*
D03*
X30709Y31890D02*
D03*
X29528Y41339D02*
D03*
Y34252D02*
D03*
Y31890D02*
D03*
X28346Y41339D02*
D03*
X28937Y33071D02*
D03*
X28346Y31890D02*
D03*
X27165Y41339D02*
D03*
Y38976D02*
D03*
Y34252D02*
D03*
Y31890D02*
D03*
X25984Y41339D02*
D03*
X26575Y40157D02*
D03*
X25984Y38976D02*
D03*
X26575Y37795D02*
D03*
X25984Y36614D02*
D03*
X26575Y35433D02*
D03*
X25984Y34252D02*
D03*
X26575Y33071D02*
D03*
X25984Y31890D02*
D03*
X30010Y39213D02*
D03*
X28907Y37008D02*
D03*
X37510Y35738D02*
D03*
X38031Y35207D02*
D03*
X36998D02*
D03*
X38031Y36260D02*
D03*
X36998D02*
D03*
X31171Y40581D02*
D03*
X31634Y41043D02*
D03*
X36250Y32165D02*
D03*
X38002Y37717D02*
D03*
X36486Y37480D02*
D03*
X40541Y35531D02*
D03*
X39104Y35315D02*
D03*
X37175Y34085D02*
D03*
X39085Y34793D02*
D03*
X37441Y30748D02*
D03*
X37057Y31791D02*
D03*
X35187Y38061D02*
D03*
X35482Y36161D02*
D03*
X32608Y40128D02*
D03*
X33041Y41014D02*
D03*
X32264Y40305D02*
D03*
X32687Y39734D02*
D03*
X36575Y31821D02*
D03*
X39449Y37530D02*
D03*
X40079Y37490D02*
D03*
X40059Y33356D02*
D03*
X40758Y33209D02*
D03*
X42559Y37687D02*
D03*
X42136Y37825D02*
D03*
X40974Y34311D02*
D03*
X40285Y34262D02*
D03*
X40684Y34842D02*
D03*
M02*
