G04*
G04 #@! TF.GenerationSoftware,Altium Limited,Altium Designer,18.1.7 (191)*
G04*
G04 Layer_Color=8388736*
%FSLAX24Y24*%
%MOIN*%
G70*
G01*
G75*
%ADD28R,0.0433X0.0394*%
%ADD29R,0.0394X0.0315*%
%ADD30R,0.0394X0.0433*%
%ADD31O,0.0150X0.0374*%
%ADD32O,0.0374X0.0150*%
%ADD33R,0.1398X0.1398*%
G04:AMPARAMS|DCode=34|XSize=47.2mil|YSize=27.6mil|CornerRadius=7.9mil|HoleSize=0mil|Usage=FLASHONLY|Rotation=270.000|XOffset=0mil|YOffset=0mil|HoleType=Round|Shape=RoundedRectangle|*
%AMROUNDEDRECTD34*
21,1,0.0472,0.0118,0,0,270.0*
21,1,0.0315,0.0276,0,0,270.0*
1,1,0.0157,-0.0059,-0.0157*
1,1,0.0157,-0.0059,0.0157*
1,1,0.0157,0.0059,0.0157*
1,1,0.0157,0.0059,-0.0157*
%
%ADD34ROUNDEDRECTD34*%
G04:AMPARAMS|DCode=35|XSize=98.4mil|YSize=63mil|CornerRadius=16.7mil|HoleSize=0mil|Usage=FLASHONLY|Rotation=270.000|XOffset=0mil|YOffset=0mil|HoleType=Round|Shape=RoundedRectangle|*
%AMROUNDEDRECTD35*
21,1,0.0984,0.0295,0,0,270.0*
21,1,0.0650,0.0630,0,0,270.0*
1,1,0.0335,-0.0148,-0.0325*
1,1,0.0335,-0.0148,0.0325*
1,1,0.0335,0.0148,0.0325*
1,1,0.0335,0.0148,-0.0325*
%
%ADD35ROUNDEDRECTD35*%
%ADD36R,0.0492X0.0610*%
%ADD37R,0.0591X0.0453*%
%ADD38R,0.0610X0.0492*%
G04:AMPARAMS|DCode=39|XSize=94.5mil|YSize=86.6mil|CornerRadius=14.4mil|HoleSize=0mil|Usage=FLASHONLY|Rotation=90.000|XOffset=0mil|YOffset=0mil|HoleType=Round|Shape=RoundedRectangle|*
%AMROUNDEDRECTD39*
21,1,0.0945,0.0579,0,0,90.0*
21,1,0.0657,0.0866,0,0,90.0*
1,1,0.0287,0.0289,0.0329*
1,1,0.0287,0.0289,-0.0329*
1,1,0.0287,-0.0289,-0.0329*
1,1,0.0287,-0.0289,0.0329*
%
%ADD39ROUNDEDRECTD39*%
%ADD40R,0.0276X0.0256*%
G04:AMPARAMS|DCode=41|XSize=35.4mil|YSize=39.4mil|CornerRadius=9.8mil|HoleSize=0mil|Usage=FLASHONLY|Rotation=90.000|XOffset=0mil|YOffset=0mil|HoleType=Round|Shape=RoundedRectangle|*
%AMROUNDEDRECTD41*
21,1,0.0354,0.0197,0,0,90.0*
21,1,0.0157,0.0394,0,0,90.0*
1,1,0.0197,0.0098,0.0079*
1,1,0.0197,0.0098,-0.0079*
1,1,0.0197,-0.0098,-0.0079*
1,1,0.0197,-0.0098,0.0079*
%
%ADD41ROUNDEDRECTD41*%
%ADD42C,0.0512*%
%ADD43C,0.2402*%
%ADD44C,0.0748*%
%ADD45R,0.0748X0.0748*%
%ADD46C,0.0639*%
%ADD47R,0.0639X0.0639*%
%ADD48C,0.1299*%
%ADD49C,0.0630*%
%ADD50R,0.0630X0.0630*%
%ADD51C,0.1063*%
%ADD52C,0.1417*%
G36*
X1424Y8297D02*
X1437Y8194D01*
X1477Y8099D01*
X1540Y8016D01*
X1622Y7953D01*
X1718Y7914D01*
X1821Y7900D01*
X1924Y7914D01*
X2019Y7953D01*
X2102Y8016D01*
X2165Y8099D01*
X2204Y8194D01*
X2218Y8297D01*
D01*
X2204Y8400D01*
X2165Y8496D01*
X2102Y8578D01*
X2019Y8641D01*
X1924Y8681D01*
X1821Y8694D01*
X1718Y8681D01*
X1622Y8641D01*
X1540Y8578D01*
X1477Y8496D01*
X1437Y8400D01*
X1424Y8297D01*
D01*
D02*
G37*
G36*
X17447Y18839D02*
X17461Y18736D01*
X17501Y18640D01*
X17564Y18558D01*
X17646Y18495D01*
X17742Y18455D01*
X17844Y18441D01*
X17947Y18455D01*
X18043Y18495D01*
X18125Y18558D01*
X18188Y18640D01*
X18228Y18736D01*
X18242Y18839D01*
D01*
X18228Y18941D01*
X18188Y19037D01*
X18125Y19119D01*
X18043Y19182D01*
X17947Y19222D01*
X17844Y19236D01*
X17742Y19222D01*
X17646Y19182D01*
X17564Y19119D01*
X17501Y19037D01*
X17461Y18941D01*
X17447Y18839D01*
D01*
D02*
G37*
D28*
X7981Y16059D02*
D03*
X8650D02*
D03*
X14783Y13780D02*
D03*
X15453D02*
D03*
X14547Y15197D02*
D03*
X15217D02*
D03*
X14311Y15827D02*
D03*
X13642D02*
D03*
X13091Y17834D02*
D03*
X12421D02*
D03*
X13839Y17835D02*
D03*
X14508D02*
D03*
X8670Y17648D02*
D03*
X8001D02*
D03*
D29*
X9587Y15453D02*
D03*
Y16063D02*
D03*
X17165Y14400D02*
D03*
Y13790D02*
D03*
Y13228D02*
D03*
Y12618D02*
D03*
D30*
X11850Y16457D02*
D03*
Y15787D02*
D03*
X17165Y15073D02*
D03*
Y15742D02*
D03*
X10039Y11949D02*
D03*
Y12618D02*
D03*
X11496Y11949D02*
D03*
Y12618D02*
D03*
X12756Y11575D02*
D03*
Y12244D02*
D03*
X12126Y12559D02*
D03*
Y11890D02*
D03*
X17884Y11772D02*
D03*
Y11102D02*
D03*
X8671Y19065D02*
D03*
Y18396D02*
D03*
D31*
X12244Y15118D02*
D03*
X12441D02*
D03*
X12638D02*
D03*
X12835D02*
D03*
X13032D02*
D03*
X13228D02*
D03*
X13425D02*
D03*
X13622D02*
D03*
Y13169D02*
D03*
X13425D02*
D03*
X13228D02*
D03*
X13032D02*
D03*
X12835D02*
D03*
X12638D02*
D03*
X12441D02*
D03*
X12244D02*
D03*
D32*
X13907Y14833D02*
D03*
Y14636D02*
D03*
Y14439D02*
D03*
Y14242D02*
D03*
Y14045D02*
D03*
Y13848D02*
D03*
Y13652D02*
D03*
Y13455D02*
D03*
X11959D02*
D03*
Y13652D02*
D03*
Y13848D02*
D03*
Y14045D02*
D03*
Y14242D02*
D03*
Y14439D02*
D03*
Y14636D02*
D03*
Y14833D02*
D03*
D33*
X12933Y14144D02*
D03*
D34*
X10591Y13268D02*
D03*
X10945D02*
D03*
D35*
X10768Y11083D02*
D03*
D36*
X14764Y14488D02*
D03*
X15472D02*
D03*
D37*
X14528Y12028D02*
D03*
Y12776D02*
D03*
D38*
X15335Y12028D02*
D03*
Y11319D02*
D03*
D39*
X14213Y16817D02*
D03*
X12638D02*
D03*
D40*
X8660Y17037D02*
D03*
Y16703D02*
D03*
D41*
X17163Y11768D02*
D03*
Y10968D02*
D03*
D42*
X1821Y8297D02*
D03*
X17844Y18839D02*
D03*
D43*
X17323Y21220D02*
D03*
Y1535D02*
D03*
X1575D02*
D03*
D44*
X12333Y719D02*
D03*
X11348D02*
D03*
X16850Y3386D02*
D03*
D45*
X13317Y719D02*
D03*
D46*
X2457Y14142D02*
D03*
Y17142D02*
D03*
Y16142D02*
D03*
X1457Y14142D02*
D03*
Y13142D02*
D03*
Y17142D02*
D03*
Y16142D02*
D03*
X2457Y15142D02*
D03*
X1457D02*
D03*
D47*
X2457Y13142D02*
D03*
D48*
X9152Y1929D02*
D03*
X9144Y11181D02*
D03*
D49*
X4813Y16683D02*
D03*
Y15896D02*
D03*
Y15108D02*
D03*
Y14321D02*
D03*
Y13533D02*
D03*
X5600Y16683D02*
D03*
Y15896D02*
D03*
Y15108D02*
D03*
Y14321D02*
D03*
D50*
Y13533D02*
D03*
D51*
X16850Y6614D02*
D03*
X1890D02*
D03*
D52*
X14134D02*
D03*
X4606D02*
D03*
M02*
