M48
;Layer_Color=9474304
;FILE_FORMAT=2:4
INCH,LZ
;TYPE=PLATED
T1F00S00C0.0118
T2F00S00C0.0354
T3F00S00C0.0380
T4F00S00C0.0472
T5F00S00C0.0630
%
T01
X017894Y010591
X018325Y011102
X015876Y011309
X015325Y010837
X012746Y011132
X012126Y011467
X011496Y011506
X010039Y011535
X009685Y009429
X008258Y010659
X005945Y011201
X000778Y013937
X000689Y015974
X000494Y018809
X002047Y019026
X00249Y019616
X002766
X003041
X003327
X003602
X003888
X004173
X004459
X004734
X00502
X005305
X005591
X005866
X006152
X006437
X006467Y019232
X006693Y019006
X006949Y01878
X007244Y018661
X007579Y018642
X007874
X008189
X008248Y018366
X008257Y0181
X007953Y018103
X007608Y018051
X00751Y017795
X007539Y01749
X007706Y017264
X008002Y017254
X008327Y017264
X008337Y016968
X008316Y016713
Y016457
X008022Y016437
X007707
X00749Y016195
Y015866
X007686Y01562
X008071Y015603
X008419Y015598
X00874Y01563
X009045Y015699
X009085Y015384
X009134Y015098
X009508Y015064
X009823Y015073
X010089Y014862
X010335Y014636
X010541Y014353
X010856Y014311
X010443Y014061
X010236Y013779
X010177Y013356
X009528Y012923
Y012598
X009596Y012283
X010472Y011959
X011043Y011939
X01126Y013071
X011575
X011909
X01254Y012805
X012441Y013671
Y014616
X012933Y014144
X013425Y013671
Y014616
X014291Y014291
X014754Y015807
X014803Y01622
X015207Y01561
X015709Y015207
X016023Y014758
X01685Y014705
X016565Y013642
Y012835
X016008Y012362
X01623Y011585
X015187Y012815
X01315Y015787
X012205Y015551
X011939Y015285
X011644Y015098
X011417Y015354
X011211Y015558
X010974Y015778
X010767Y015985
X010551Y016211
X010315Y016368
X01002Y016388
X009665Y016407
X00937Y016417
X009055Y016412
X009026Y016722
X009006Y017018
X009055Y017303
X009085Y017621
Y017923
X009065Y018248
Y018583
Y018868
X009075Y019134
X009085Y01938
Y019636
X00936
X009646
X009931
X010217
X010492
X010778
X011053
X011339
X011624
X011909
X012185
X01247
X012756
X013041
X013317
X013602
X013878
X014163
X014449
X014734
X01501
X015295
X015581
X015866
X016142
X016427
X016713
X016998
X016732Y018346
X015098Y018888
X013839Y018238
X013081Y018248
X012972Y01747
X013411Y017421
X013839Y01747
X013563Y017057
X013302Y016821
X011841Y016968
X010891Y017254
X010325Y018947
X008799Y019636
X008514
X008228
X007953
X007667
X007362
X00564Y018524
X004902Y017904
X004193Y017443
X004094Y016289
X004173Y015502
X003967Y014744
X003898Y013949
X003979Y013278
X003071Y012736
X002008Y012431
X004203Y011772
X007313Y011909
X006529Y012756
X008366Y013553
X008868Y014528
X007303Y014902
X006181Y015974
X00685Y016831
X003425Y01688
X003071Y015661
X004144Y019085
X017274Y019636
X017559
X017844
X01813
X018406
X017155Y01622
X017618Y015742
X017589Y012274
T02
X004813Y013533
Y014321
Y015108
Y015896
Y016683
X0056
Y015896
Y015108
Y014321
Y013533
T03
X001457Y013142
Y014142
Y015142
Y016142
Y017142
X002457
Y016142
Y015142
Y014142
Y013142
T04
X011348Y000719
X012333
X013317
T05
X00189Y006614
X01685
M30
