G04 Layer_Color=65535*
%FSLAX24Y24*%
%MOIN*%
G70*
G01*
G75*
%ADD10C,0.0079*%
%ADD39C,0.0039*%
%ADD40C,0.0070*%
%ADD41C,0.0100*%
%ADD42C,0.0098*%
%ADD43C,0.0071*%
%ADD44C,0.0050*%
G36*
X26439Y36677D02*
X26189D01*
Y36927D01*
X26439D01*
Y36677D01*
D02*
G37*
G36*
X38949Y36982D02*
X38699D01*
Y37232D01*
X38949D01*
Y36982D01*
D02*
G37*
D10*
X50679Y34075D02*
X53317D01*
Y33642D02*
Y34075D01*
X50679Y33642D02*
Y34075D01*
X53740Y38770D02*
Y38878D01*
Y39803D02*
Y39911D01*
X55827Y38770D02*
Y38878D01*
Y39803D02*
Y39911D01*
X53740Y38770D02*
X55827D01*
X53740Y39911D02*
X55827D01*
X36624Y45138D02*
X38553D01*
X35915Y42657D02*
X36191D01*
Y40748D02*
Y42657D01*
Y39035D02*
Y39488D01*
Y39035D02*
X37116D01*
X38553Y44685D02*
Y45138D01*
Y39035D02*
Y42480D01*
X38199Y39035D02*
X38553D01*
X35915Y42657D02*
Y43189D01*
X38356Y45138D02*
Y45728D01*
X36388D02*
X38356D01*
X36388Y45433D02*
Y45728D01*
X43848Y45138D02*
X45778D01*
X43140Y42657D02*
X43415D01*
Y40748D02*
Y42657D01*
Y39035D02*
Y39488D01*
Y39035D02*
X44341D01*
X45778Y44685D02*
Y45138D01*
Y39035D02*
Y42480D01*
X45423Y39035D02*
X45778D01*
X43140Y42657D02*
Y43189D01*
X45581Y45138D02*
Y45728D01*
X43612D02*
X45581D01*
X43612Y45433D02*
Y45728D01*
X28031Y45138D02*
X29961D01*
X27323Y42657D02*
X27598D01*
Y40748D02*
Y42657D01*
Y39035D02*
Y39488D01*
Y39035D02*
X28524D01*
X29961Y44685D02*
Y45138D01*
Y39035D02*
Y42480D01*
X29606Y39035D02*
X29961D01*
X27323Y42657D02*
Y43189D01*
X29764Y45138D02*
Y45728D01*
X27795D02*
X29764D01*
X27795Y45433D02*
Y45728D01*
D39*
X24520Y38569D02*
G03*
X24520Y38569I-1181J0D01*
G01*
X49953Y38530D02*
G03*
X49953Y38530I-1181J0D01*
G01*
X31486Y35620D02*
Y36919D01*
X30778Y35620D02*
Y36919D01*
X31486D01*
X30778Y35620D02*
X31486D01*
X43593Y36880D02*
X44892D01*
X43593Y36171D02*
X44892D01*
X43593D02*
Y36880D01*
X44892Y36171D02*
Y36880D01*
X48673Y35831D02*
X49988D01*
X48673Y36532D02*
X49988D01*
X48673Y35831D02*
Y36532D01*
X49988Y35831D02*
Y36532D01*
X50020Y43681D02*
Y43917D01*
X49862Y43681D02*
Y43917D01*
X49980Y43799D01*
X49862Y43681D02*
X49980Y43799D01*
X46890Y37205D02*
X47598D01*
X46890Y35906D02*
X47598D01*
Y37205D01*
X46890Y35906D02*
Y37205D01*
D40*
X23285Y33258D02*
G03*
X23284Y32747I608J-256D01*
G01*
X24492D02*
G03*
X24492Y33258I-609J255D01*
G01*
X26331Y32776D02*
G03*
X26332Y33286I-608J256D01*
G01*
X25124D02*
G03*
X25125Y32776I609J-255D01*
G01*
X41036Y42795D02*
G03*
X41037Y43306I-608J256D01*
G01*
X39829D02*
G03*
X39829Y42795I609J-255D01*
G01*
X26083Y35692D02*
G03*
X25572Y35692I-256J-608D01*
G01*
Y34484D02*
G03*
X26083Y34485I255J609D01*
G01*
X30780Y32776D02*
G03*
X30781Y33286I-608J256D01*
G01*
X29573D02*
G03*
X29573Y32776I609J-255D01*
G01*
X35416D02*
G03*
X35417Y33286I-608J256D01*
G01*
X34209D02*
G03*
X34209Y32776I609J-255D01*
G01*
X35059Y41036D02*
G03*
X34548Y41037I-256J-608D01*
G01*
Y39829D02*
G03*
X35059Y39829I255J609D01*
G01*
X30027Y35472D02*
G03*
X30026Y34962I608J-256D01*
G01*
X31234D02*
G03*
X31234Y35472I-609J255D01*
G01*
X40298Y32776D02*
G03*
X40298Y33286I-608J256D01*
G01*
X39091D02*
G03*
X39091Y32776I609J-255D01*
G01*
X45416D02*
G03*
X45417Y33286I-608J256D01*
G01*
X44209D02*
G03*
X44209Y32776I609J-255D01*
G01*
X47215Y42113D02*
G03*
X47725Y42113I256J608D01*
G01*
Y43321D02*
G03*
X47215Y43320I-255J-609D01*
G01*
X38651Y35997D02*
G03*
X38141Y35997I-256J-608D01*
G01*
Y34789D02*
G03*
X38651Y34790I255J609D01*
G01*
X31870Y43320D02*
G03*
X31359Y43320I-256J-608D01*
G01*
Y42112D02*
G03*
X31870Y42113I255J609D01*
G01*
X42205Y41046D02*
G03*
X41694Y41046I-256J-608D01*
G01*
Y39839D02*
G03*
X42205Y39839I255J609D01*
G01*
X43760Y35564D02*
G03*
X43249Y35564I-256J-608D01*
G01*
Y34356D02*
G03*
X43760Y34357I255J609D01*
G01*
X52025Y35945D02*
G03*
X52024Y35434I608J-256D01*
G01*
X53232D02*
G03*
X53232Y35945I-609J255D01*
G01*
X51558Y35492D02*
G03*
X51558Y36003I-608J256D01*
G01*
X50350D02*
G03*
X50351Y35492I609J-255D01*
G01*
X48464Y37119D02*
G03*
X47954Y37119I-256J-608D01*
G01*
Y35912D02*
G03*
X48464Y35912I255J609D01*
G01*
X23288Y32747D02*
X24488D01*
X23287Y33258D02*
X24488D01*
X25128Y33286D02*
X26328D01*
X25128Y32776D02*
X26329D01*
X39833Y43306D02*
X41033D01*
X39833Y42795D02*
X41033D01*
X25572Y34488D02*
Y35688D01*
X26083Y34488D02*
Y35689D01*
X29577Y33286D02*
X30777D01*
X29577Y32776D02*
X30778D01*
X34213Y33286D02*
X35413D01*
X34213Y32776D02*
X35413D01*
X34548Y39833D02*
Y41033D01*
X35059Y39833D02*
Y41033D01*
X30030Y34962D02*
X31230D01*
X30030Y35472D02*
X31230D01*
X39095Y33286D02*
X40295D01*
X39094Y32776D02*
X40295D01*
X44213Y33286D02*
X45413D01*
X44213Y32776D02*
X45413D01*
X47725Y42117D02*
Y43317D01*
X47215Y42116D02*
Y43317D01*
X38141Y34793D02*
Y35993D01*
X38652Y34793D02*
Y35994D01*
X31359Y42116D02*
Y43316D01*
X31870Y42116D02*
Y43317D01*
X41694Y39843D02*
Y41043D01*
X42205Y39843D02*
Y41043D01*
X43249Y34360D02*
Y35560D01*
X43760Y34360D02*
Y35561D01*
X52028Y35434D02*
X53228D01*
X52028Y35945D02*
X53228D01*
X50354Y36003D02*
X51554D01*
X50354Y35492D02*
X51555D01*
X47954Y35915D02*
Y37115D01*
X48465Y35915D02*
Y37116D01*
X23278Y33583D02*
X23789D01*
X23278Y34626D02*
X23789D01*
Y33583D02*
Y34626D01*
X23278Y33583D02*
Y34626D01*
X24882Y36919D02*
Y37431D01*
X25925Y36919D02*
Y37431D01*
X24882Y36919D02*
X25925D01*
X24882Y37431D02*
X25925D01*
X25610Y33474D02*
Y33986D01*
X24567Y33474D02*
Y33986D01*
X25610D01*
X24567Y33474D02*
X25610D01*
X24085Y36240D02*
X24596D01*
X24085Y35197D02*
X24596D01*
X24085D02*
Y36240D01*
X24596Y35197D02*
Y36240D01*
X41594Y43553D02*
Y44065D01*
X40551Y43553D02*
Y44065D01*
X41594D01*
X40551Y43553D02*
X41594D01*
X24813Y35630D02*
X25325D01*
X24813Y34587D02*
X25325D01*
X24813D02*
Y35630D01*
X25325Y34587D02*
Y35630D01*
X28858Y32815D02*
X29370D01*
X28858Y33858D02*
X29370D01*
Y32815D02*
Y33858D01*
X28858Y32815D02*
Y33858D01*
X28632Y33445D02*
Y33957D01*
X27589Y33445D02*
Y33957D01*
X28632D01*
X27589Y33445D02*
X28632D01*
X34695Y33465D02*
Y33976D01*
X33652Y33465D02*
Y33976D01*
X34695D01*
X33652Y33465D02*
X34695D01*
X30030Y36644D02*
X30541D01*
X30030Y35600D02*
X30541D01*
X30030D02*
Y36644D01*
X30541Y35600D02*
Y36644D01*
X33839Y39941D02*
X34350D01*
X33839Y40984D02*
X34350D01*
Y39941D02*
Y40984D01*
X33839Y39941D02*
Y40984D01*
X30079Y34291D02*
Y34803D01*
X31122Y34291D02*
Y34803D01*
X30079Y34291D02*
X31122D01*
X30079Y34803D02*
X31122D01*
X39577Y33474D02*
Y33986D01*
X38533Y33474D02*
Y33986D01*
X39577D01*
X38533Y33474D02*
X39577D01*
X37382Y36142D02*
X37894D01*
X37382Y37185D02*
X37894D01*
Y36142D02*
Y37185D01*
X37382Y36142D02*
Y37185D01*
X44695Y33474D02*
Y33986D01*
X43652Y33474D02*
Y33986D01*
X44695D01*
X43652Y33474D02*
X44695D01*
X36693Y36555D02*
X37205D01*
X36693Y35512D02*
X37205D01*
X36693D02*
Y36555D01*
X37205Y35512D02*
Y36555D01*
X47923Y43209D02*
X48435D01*
X47923Y42165D02*
X48435D01*
X47923D02*
Y43209D01*
X48435Y42165D02*
Y43209D01*
X37392Y35945D02*
X37904D01*
X37392Y34902D02*
X37904D01*
X37392D02*
Y35945D01*
X37904Y34902D02*
Y35945D01*
X31358Y41860D02*
X31870D01*
X31358Y40817D02*
X31870D01*
X31358D02*
Y41860D01*
X31870Y40817D02*
Y41860D01*
X39596Y37894D02*
Y38406D01*
X40640Y37894D02*
Y38406D01*
X39596Y37894D02*
X40640D01*
X39596Y38406D02*
X40640D01*
X42539Y36742D02*
X43051D01*
X42539Y35699D02*
X43051D01*
X42539D02*
Y36742D01*
X43051Y35699D02*
Y36742D01*
X41693Y42362D02*
X42205D01*
X41693Y41319D02*
X42205D01*
X41693D02*
Y42362D01*
X42205Y41319D02*
Y42362D01*
X42549Y35512D02*
X43061D01*
X42549Y34469D02*
X43061D01*
X42549D02*
Y35512D01*
X43061Y34469D02*
Y35512D01*
X49852Y41033D02*
X50364D01*
X49852Y42077D02*
X50364D01*
Y41033D02*
Y42077D01*
X49852Y41033D02*
Y42077D01*
D41*
X56663Y36801D02*
G03*
X56663Y36801I-1575J0D01*
G01*
X53327Y38455D02*
G03*
X53327Y38455I-1575J0D01*
G01*
X27758Y36707D02*
G03*
X28316Y36726I280J0D01*
G01*
X40268Y37012D02*
G03*
X40826Y37031I280J0D01*
G01*
X53089Y36551D02*
Y37051D01*
X52839Y36801D02*
X53339D01*
X51502Y36455D02*
X52002D01*
X51752Y36205D02*
Y36705D01*
X27539Y36727D02*
X27739D01*
X28339D02*
X28539D01*
X27539Y34527D02*
X28539D01*
X27539D02*
Y36727D01*
X28539Y34527D02*
Y36727D01*
X40049Y37032D02*
X40249D01*
X40849D02*
X41049D01*
X40049Y34832D02*
X41049D01*
X40049D02*
Y37032D01*
X41049Y34832D02*
Y37032D01*
X56142Y42713D02*
Y42582D01*
Y42648D01*
X56470D01*
X56535Y42582D01*
Y42516D01*
X56470Y42451D01*
X56535Y42844D02*
Y42976D01*
Y42910D01*
X56142D01*
X56207Y42844D01*
X47539Y31240D02*
X47802Y30846D01*
Y31240D02*
X47539Y30846D01*
X48195D02*
X47933D01*
X48195Y31109D01*
Y31174D01*
X48130Y31240D01*
X47999D01*
X47933Y31174D01*
X48327Y30846D02*
X48458D01*
X48392D01*
Y31240D01*
X48327Y31174D01*
X41339Y32013D02*
X41601Y31620D01*
Y32013D02*
X41339Y31620D01*
X41995D02*
X41732D01*
X41995Y31882D01*
Y31948D01*
X41929Y32013D01*
X41798D01*
X41732Y31948D01*
X42126D02*
X42191Y32013D01*
X42323D01*
X42388Y31948D01*
Y31685D01*
X42323Y31620D01*
X42191D01*
X42126Y31685D01*
Y31948D01*
X36476Y32013D02*
X36739Y31620D01*
Y32013D02*
X36476Y31620D01*
X36870D02*
X37001D01*
X36936D01*
Y32013D01*
X36870Y31948D01*
X37198Y31685D02*
X37264Y31620D01*
X37395D01*
X37460Y31685D01*
Y31948D01*
X37395Y32013D01*
X37264D01*
X37198Y31948D01*
Y31882D01*
X37264Y31816D01*
X37460D01*
X31870Y32013D02*
X32132Y31620D01*
Y32013D02*
X31870Y31620D01*
X32264D02*
X32395D01*
X32329D01*
Y32013D01*
X32264Y31948D01*
X32592D02*
X32657Y32013D01*
X32788D01*
X32854Y31948D01*
Y31882D01*
X32788Y31816D01*
X32854Y31751D01*
Y31685D01*
X32788Y31620D01*
X32657D01*
X32592Y31685D01*
Y31751D01*
X32657Y31816D01*
X32592Y31882D01*
Y31948D01*
X32657Y31816D02*
X32788D01*
X27698Y32013D02*
X27960Y31620D01*
Y32013D02*
X27698Y31620D01*
X28091D02*
X28223D01*
X28157D01*
Y32013D01*
X28091Y31948D01*
X28419Y32013D02*
X28682D01*
Y31948D01*
X28419Y31685D01*
Y31620D01*
X30778Y45216D02*
X31040Y44823D01*
Y45216D02*
X30778Y44823D01*
X31171D02*
X31302D01*
X31237D01*
Y45216D01*
X31171Y45151D01*
X31761Y45216D02*
X31630Y45151D01*
X31499Y45020D01*
Y44888D01*
X31565Y44823D01*
X31696D01*
X31761Y44888D01*
Y44954D01*
X31696Y45020D01*
X31499D01*
X23760Y31929D02*
X24022Y31535D01*
Y31929D02*
X23760Y31535D01*
X24153D02*
X24285D01*
X24219D01*
Y31929D01*
X24153Y31863D01*
X24744Y31929D02*
X24481D01*
Y31732D01*
X24613Y31798D01*
X24678D01*
X24744Y31732D01*
Y31601D01*
X24678Y31535D01*
X24547D01*
X24481Y31601D01*
X46654Y33228D02*
X46916Y32835D01*
Y33228D02*
X46654Y32835D01*
X47047D02*
X47178D01*
X47113D01*
Y33228D01*
X47047Y33163D01*
X47572Y32835D02*
Y33228D01*
X47375Y33031D01*
X47637D01*
X40413Y32569D02*
X40676Y32175D01*
Y32569D02*
X40413Y32175D01*
X40807D02*
X40938D01*
X40873D01*
Y32569D01*
X40807Y32503D01*
X41135D02*
X41201Y32569D01*
X41332D01*
X41397Y32503D01*
Y32438D01*
X41332Y32372D01*
X41266D01*
X41332D01*
X41397Y32306D01*
Y32241D01*
X41332Y32175D01*
X41201D01*
X41135Y32241D01*
X43602Y31270D02*
X43865Y30876D01*
Y31270D02*
X43602Y30876D01*
X43996D02*
X44127D01*
X44062D01*
Y31270D01*
X43996Y31204D01*
X44586Y30876D02*
X44324D01*
X44586Y31138D01*
Y31204D01*
X44521Y31270D01*
X44390D01*
X44324Y31204D01*
X46112Y45315D02*
X46375Y44921D01*
Y45315D02*
X46112Y44921D01*
X46506D02*
X46637D01*
X46571D01*
Y45315D01*
X46506Y45249D01*
X46834Y44921D02*
X46965D01*
X46899D01*
Y45315D01*
X46834Y45249D01*
X35482Y32510D02*
X35745Y32116D01*
Y32510D02*
X35482Y32116D01*
X35876D02*
X36007D01*
X35941D01*
Y32510D01*
X35876Y32444D01*
X36204D02*
X36269Y32510D01*
X36401D01*
X36466Y32444D01*
Y32182D01*
X36401Y32116D01*
X36269D01*
X36204Y32182D01*
Y32444D01*
X38730Y31270D02*
X38993Y30876D01*
Y31270D02*
X38730Y30876D01*
X39124Y30942D02*
X39189Y30876D01*
X39321D01*
X39386Y30942D01*
Y31204D01*
X39321Y31270D01*
X39189D01*
X39124Y31204D01*
Y31138D01*
X39189Y31073D01*
X39386D01*
X31073Y32529D02*
X31335Y32136D01*
Y32529D02*
X31073Y32136D01*
X31466Y32464D02*
X31532Y32529D01*
X31663D01*
X31729Y32464D01*
Y32398D01*
X31663Y32333D01*
X31729Y32267D01*
Y32201D01*
X31663Y32136D01*
X31532D01*
X31466Y32201D01*
Y32267D01*
X31532Y32333D01*
X31466Y32398D01*
Y32464D01*
X31532Y32333D02*
X31663D01*
X33809Y31270D02*
X34071Y30876D01*
Y31270D02*
X33809Y30876D01*
X34203Y31270D02*
X34465D01*
Y31204D01*
X34203Y30942D01*
Y30876D01*
X29272Y31270D02*
X29534Y30876D01*
Y31270D02*
X29272Y30876D01*
X29928Y31270D02*
X29796Y31204D01*
X29665Y31073D01*
Y30942D01*
X29731Y30876D01*
X29862D01*
X29928Y30942D01*
Y31007D01*
X29862Y31073D01*
X29665D01*
X26713Y32490D02*
X26975Y32096D01*
Y32490D02*
X26713Y32096D01*
X27369Y32490D02*
X27106D01*
Y32293D01*
X27237Y32359D01*
X27303D01*
X27369Y32293D01*
Y32162D01*
X27303Y32096D01*
X27172D01*
X27106Y32162D01*
X24882Y31270D02*
X25144Y30876D01*
Y31270D02*
X24882Y30876D01*
X25472D02*
Y31270D01*
X25275Y31073D01*
X25538D01*
X38907Y45197D02*
X39170Y44803D01*
Y45197D02*
X38907Y44803D01*
X39301Y45131D02*
X39367Y45197D01*
X39498D01*
X39563Y45131D01*
Y45066D01*
X39498Y45000D01*
X39432D01*
X39498D01*
X39563Y44934D01*
Y44869D01*
X39498Y44803D01*
X39367D01*
X39301Y44869D01*
X22382Y34124D02*
X22644Y33730D01*
Y34124D02*
X22382Y33730D01*
X23038D02*
X22775D01*
X23038Y33993D01*
Y34058D01*
X22972Y34124D01*
X22841D01*
X22775Y34058D01*
X20689Y31270D02*
X20951Y30876D01*
Y31270D02*
X20689Y30876D01*
X21083D02*
X21214D01*
X21148D01*
Y31270D01*
X21083Y31204D01*
X55187Y40512D02*
Y40249D01*
X55318Y40118D01*
X55449Y40249D01*
Y40512D01*
X55581D02*
Y40118D01*
X55777D01*
X55843Y40184D01*
Y40446D01*
X55777Y40512D01*
X55581D01*
X56237Y40118D02*
X55974D01*
X56237Y40380D01*
Y40446D01*
X56171Y40512D01*
X56040D01*
X55974Y40446D01*
X49587Y44695D02*
Y44432D01*
X49718Y44301D01*
X49849Y44432D01*
Y44695D01*
X49980D02*
Y44301D01*
X50177D01*
X50243Y44367D01*
Y44629D01*
X50177Y44695D01*
X49980D01*
X50374Y44301D02*
X50505D01*
X50439D01*
Y44695D01*
X50374Y44629D01*
X48750Y36663D02*
Y37057D01*
X48947D01*
X49012Y36991D01*
Y36860D01*
X48947Y36795D01*
X48750D01*
X48881D02*
X49012Y36663D01*
X49406D02*
X49144D01*
X49406Y36926D01*
Y36991D01*
X49340Y37057D01*
X49209D01*
X49144Y36991D01*
X49800Y37057D02*
X49537D01*
Y36860D01*
X49668Y36926D01*
X49734D01*
X49800Y36860D01*
Y36729D01*
X49734Y36663D01*
X49603D01*
X49537Y36729D01*
X49675Y42274D02*
Y42667D01*
X49872D01*
X49938Y42602D01*
Y42470D01*
X49872Y42405D01*
X49675D01*
X49806D02*
X49938Y42274D01*
X50331D02*
X50069D01*
X50331Y42536D01*
Y42602D01*
X50266Y42667D01*
X50134D01*
X50069Y42602D01*
X50659Y42274D02*
Y42667D01*
X50462Y42470D01*
X50725D01*
X42992Y33199D02*
X42599D01*
Y33396D01*
X42664Y33461D01*
X42795D01*
X42861Y33396D01*
Y33199D01*
Y33330D02*
X42992Y33461D01*
Y33855D02*
Y33592D01*
X42730Y33855D01*
X42664D01*
X42599Y33789D01*
Y33658D01*
X42664Y33592D01*
Y33986D02*
X42599Y34052D01*
Y34183D01*
X42664Y34248D01*
X42730D01*
X42795Y34183D01*
Y34117D01*
Y34183D01*
X42861Y34248D01*
X42927D01*
X42992Y34183D01*
Y34052D01*
X42927Y33986D01*
X41496Y41348D02*
X41102D01*
Y41545D01*
X41168Y41611D01*
X41299D01*
X41365Y41545D01*
Y41348D01*
Y41480D02*
X41496Y41611D01*
Y42004D02*
Y41742D01*
X41234Y42004D01*
X41168D01*
X41102Y41939D01*
Y41808D01*
X41168Y41742D01*
X41496Y42398D02*
Y42136D01*
X41234Y42398D01*
X41168D01*
X41102Y42332D01*
Y42201D01*
X41168Y42136D01*
X42953Y36959D02*
X42559D01*
Y37155D01*
X42625Y37221D01*
X42756D01*
X42822Y37155D01*
Y36959D01*
Y37090D02*
X42953Y37221D01*
Y37615D02*
Y37352D01*
X42690Y37615D01*
X42625D01*
X42559Y37549D01*
Y37418D01*
X42625Y37352D01*
X42953Y37746D02*
Y37877D01*
Y37811D01*
X42559D01*
X42625Y37746D01*
X39587Y38711D02*
Y39104D01*
X39783D01*
X39849Y39039D01*
Y38907D01*
X39783Y38842D01*
X39587D01*
X39718D02*
X39849Y38711D01*
X40243D02*
X39980D01*
X40243Y38973D01*
Y39039D01*
X40177Y39104D01*
X40046D01*
X39980Y39039D01*
X40374D02*
X40439Y39104D01*
X40571D01*
X40636Y39039D01*
Y38776D01*
X40571Y38711D01*
X40439D01*
X40374Y38776D01*
Y39039D01*
X31122Y40886D02*
X30728D01*
Y41083D01*
X30794Y41148D01*
X30925D01*
X30991Y41083D01*
Y40886D01*
Y41017D02*
X31122Y41148D01*
Y41279D02*
Y41411D01*
Y41345D01*
X30728D01*
X30794Y41279D01*
X31056Y41607D02*
X31122Y41673D01*
Y41804D01*
X31056Y41870D01*
X30794D01*
X30728Y41804D01*
Y41673D01*
X30794Y41607D01*
X30860D01*
X30925Y41673D01*
Y41870D01*
X37835Y33720D02*
X37441D01*
Y33917D01*
X37507Y33983D01*
X37638D01*
X37703Y33917D01*
Y33720D01*
Y33852D02*
X37835Y33983D01*
Y34114D02*
Y34245D01*
Y34180D01*
X37441D01*
X37507Y34114D01*
Y34442D02*
X37441Y34508D01*
Y34639D01*
X37507Y34704D01*
X37572D01*
X37638Y34639D01*
X37703Y34704D01*
X37769D01*
X37835Y34639D01*
Y34508D01*
X37769Y34442D01*
X37703D01*
X37638Y34508D01*
X37572Y34442D01*
X37507D01*
X37638Y34508D02*
Y34639D01*
X49075Y42175D02*
X48681D01*
Y42372D01*
X48747Y42438D01*
X48878D01*
X48944Y42372D01*
Y42175D01*
Y42306D02*
X49075Y42438D01*
Y42569D02*
Y42700D01*
Y42634D01*
X48681D01*
X48747Y42569D01*
X48681Y42897D02*
Y43159D01*
X48747D01*
X49009Y42897D01*
X49075D01*
X36467Y35541D02*
X36073D01*
Y35738D01*
X36139Y35804D01*
X36270D01*
X36335Y35738D01*
Y35541D01*
Y35673D02*
X36467Y35804D01*
Y35935D02*
Y36066D01*
Y36001D01*
X36073D01*
X36139Y35935D01*
X36073Y36525D02*
X36139Y36394D01*
X36270Y36263D01*
X36401D01*
X36467Y36328D01*
Y36460D01*
X36401Y36525D01*
X36335D01*
X36270Y36460D01*
Y36263D01*
X44911Y33524D02*
Y33917D01*
X45108D01*
X45174Y33852D01*
Y33720D01*
X45108Y33655D01*
X44911D01*
X45043D02*
X45174Y33524D01*
X45305D02*
X45436D01*
X45371D01*
Y33917D01*
X45305Y33852D01*
X45895Y33917D02*
X45633D01*
Y33720D01*
X45764Y33786D01*
X45830D01*
X45895Y33720D01*
Y33589D01*
X45830Y33524D01*
X45699D01*
X45633Y33589D01*
X37443Y37518D02*
Y37912D01*
X37640D01*
X37705Y37846D01*
Y37715D01*
X37640Y37650D01*
X37443D01*
X37574D02*
X37705Y37518D01*
X37836D02*
X37968D01*
X37902D01*
Y37912D01*
X37836Y37846D01*
X38361Y37518D02*
Y37912D01*
X38164Y37715D01*
X38427D01*
X39793Y33533D02*
Y33927D01*
X39990D01*
X40056Y33861D01*
Y33730D01*
X39990Y33665D01*
X39793D01*
X39924D02*
X40056Y33533D01*
X40187D02*
X40318D01*
X40252D01*
Y33927D01*
X40187Y33861D01*
X40515D02*
X40580Y33927D01*
X40712D01*
X40777Y33861D01*
Y33796D01*
X40712Y33730D01*
X40646D01*
X40712D01*
X40777Y33665D01*
Y33599D01*
X40712Y33533D01*
X40580D01*
X40515Y33599D01*
X31289Y34341D02*
Y34734D01*
X31486D01*
X31552Y34669D01*
Y34537D01*
X31486Y34472D01*
X31289D01*
X31421D02*
X31552Y34341D01*
X31683D02*
X31814D01*
X31749D01*
Y34734D01*
X31683Y34669D01*
X32273Y34341D02*
X32011D01*
X32273Y34603D01*
Y34669D01*
X32208Y34734D01*
X32077D01*
X32011Y34669D01*
X34281Y41161D02*
X33888D01*
Y41358D01*
X33954Y41424D01*
X34085D01*
X34150Y41358D01*
Y41161D01*
Y41293D02*
X34281Y41424D01*
Y41555D02*
Y41686D01*
Y41621D01*
X33888D01*
X33954Y41555D01*
X34281Y41883D02*
Y42014D01*
Y41949D01*
X33888D01*
X33954Y41883D01*
X30492Y36801D02*
X30099D01*
Y36998D01*
X30164Y37064D01*
X30295D01*
X30361Y36998D01*
Y36801D01*
Y36932D02*
X30492Y37064D01*
Y37195D02*
Y37326D01*
Y37260D01*
X30099D01*
X30164Y37195D01*
Y37523D02*
X30099Y37588D01*
Y37720D01*
X30164Y37785D01*
X30427D01*
X30492Y37720D01*
Y37588D01*
X30427Y37523D01*
X30164D01*
X34872Y33504D02*
Y33898D01*
X35069D01*
X35134Y33832D01*
Y33701D01*
X35069Y33635D01*
X34872D01*
X35003D02*
X35134Y33504D01*
X35266Y33570D02*
X35331Y33504D01*
X35462D01*
X35528Y33570D01*
Y33832D01*
X35462Y33898D01*
X35331D01*
X35266Y33832D01*
Y33766D01*
X35331Y33701D01*
X35528D01*
X27717Y32825D02*
Y33218D01*
X27913D01*
X27979Y33153D01*
Y33022D01*
X27913Y32956D01*
X27717D01*
X27848D02*
X27979Y32825D01*
X28110Y33153D02*
X28176Y33218D01*
X28307D01*
X28372Y33153D01*
Y33087D01*
X28307Y33022D01*
X28372Y32956D01*
Y32890D01*
X28307Y32825D01*
X28176D01*
X28110Y32890D01*
Y32956D01*
X28176Y33022D01*
X28110Y33087D01*
Y33153D01*
X28176Y33022D02*
X28307D01*
X28888Y34006D02*
Y34399D01*
X29085D01*
X29150Y34334D01*
Y34203D01*
X29085Y34137D01*
X28888D01*
X29019D02*
X29150Y34006D01*
X29281Y34399D02*
X29544D01*
Y34334D01*
X29281Y34072D01*
Y34006D01*
X25246Y35817D02*
X24852D01*
Y36014D01*
X24918Y36079D01*
X25049D01*
X25115Y36014D01*
Y35817D01*
Y35948D02*
X25246Y36079D01*
X24852Y36473D02*
X24918Y36342D01*
X25049Y36210D01*
X25180D01*
X25246Y36276D01*
Y36407D01*
X25180Y36473D01*
X25115D01*
X25049Y36407D01*
Y36210D01*
X40748Y44232D02*
Y44626D01*
X40945D01*
X41010Y44560D01*
Y44429D01*
X40945Y44363D01*
X40748D01*
X40879D02*
X41010Y44232D01*
X41404Y44626D02*
X41142D01*
Y44429D01*
X41273Y44495D01*
X41338D01*
X41404Y44429D01*
Y44298D01*
X41338Y44232D01*
X41207D01*
X41142Y44298D01*
X24537Y34400D02*
X24144D01*
Y34596D01*
X24209Y34662D01*
X24341D01*
X24406Y34596D01*
Y34400D01*
Y34531D02*
X24537Y34662D01*
Y34990D02*
X24144D01*
X24341Y34793D01*
Y35056D01*
X25827Y33553D02*
Y33947D01*
X26024D01*
X26089Y33881D01*
Y33750D01*
X26024Y33684D01*
X25827D01*
X25958D02*
X26089Y33553D01*
X26220Y33881D02*
X26286Y33947D01*
X26417D01*
X26483Y33881D01*
Y33816D01*
X26417Y33750D01*
X26352D01*
X26417D01*
X26483Y33684D01*
Y33619D01*
X26417Y33553D01*
X26286D01*
X26220Y33619D01*
X25000Y37697D02*
Y38090D01*
X25197D01*
X25262Y38025D01*
Y37894D01*
X25197Y37828D01*
X25000D01*
X25131D02*
X25262Y37697D01*
X25656D02*
X25394D01*
X25656Y37959D01*
Y38025D01*
X25590Y38090D01*
X25459D01*
X25394Y38025D01*
X23720Y34852D02*
X23327D01*
Y35049D01*
X23392Y35115D01*
X23524D01*
X23589Y35049D01*
Y34852D01*
Y34984D02*
X23720Y35115D01*
Y35246D02*
Y35377D01*
Y35312D01*
X23327D01*
X23392Y35246D01*
X53622Y31772D02*
X54016D01*
Y31968D01*
X53950Y32034D01*
X53688D01*
X53622Y31968D01*
Y31772D01*
X54016Y32165D02*
X53753D01*
X53622Y32296D01*
X53753Y32428D01*
X54016D01*
X53819D01*
Y32165D01*
X53688Y32559D02*
X53622Y32624D01*
Y32756D01*
X53688Y32821D01*
X53753D01*
X53819Y32756D01*
Y32690D01*
Y32756D01*
X53885Y32821D01*
X53950D01*
X54016Y32756D01*
Y32624D01*
X53950Y32559D01*
X39990Y37657D02*
Y37264D01*
X40187D01*
X40253Y37329D01*
Y37592D01*
X40187Y37657D01*
X39990D01*
X40384Y37264D02*
Y37526D01*
X40515Y37657D01*
X40646Y37526D01*
Y37264D01*
Y37461D01*
X40384D01*
X41040Y37264D02*
X40777D01*
X41040Y37526D01*
Y37592D01*
X40974Y37657D01*
X40843D01*
X40777Y37592D01*
X27608Y37401D02*
Y37008D01*
X27805D01*
X27871Y37073D01*
Y37336D01*
X27805Y37401D01*
X27608D01*
X28002Y37008D02*
Y37270D01*
X28133Y37401D01*
X28264Y37270D01*
Y37008D01*
Y37205D01*
X28002D01*
X28395Y37008D02*
X28527D01*
X28461D01*
Y37401D01*
X28395Y37336D01*
X47743Y35613D02*
X47677Y35679D01*
X47546D01*
X47480Y35613D01*
Y35351D01*
X47546Y35285D01*
X47677D01*
X47743Y35351D01*
X48136Y35285D02*
X47874D01*
X48136Y35548D01*
Y35613D01*
X48071Y35679D01*
X47939D01*
X47874Y35613D01*
X48464Y35285D02*
Y35679D01*
X48267Y35482D01*
X48530D01*
X50863Y40613D02*
X50797Y40679D01*
X50666D01*
X50600Y40613D01*
Y40351D01*
X50666Y40285D01*
X50797D01*
X50863Y40351D01*
X51256Y40285D02*
X50994D01*
X51256Y40548D01*
Y40613D01*
X51191Y40679D01*
X51060D01*
X50994Y40613D01*
X51650Y40285D02*
X51388D01*
X51650Y40548D01*
Y40613D01*
X51584Y40679D01*
X51453D01*
X51388Y40613D01*
X50725Y36539D02*
X50659Y36604D01*
X50528D01*
X50463Y36539D01*
Y36276D01*
X50528Y36211D01*
X50659D01*
X50725Y36276D01*
X51119Y36211D02*
X50856D01*
X51119Y36473D01*
Y36539D01*
X51053Y36604D01*
X50922D01*
X50856Y36539D01*
X51250Y36211D02*
X51381D01*
X51315D01*
Y36604D01*
X51250Y36539D01*
X52418Y36381D02*
X52352Y36447D01*
X52221D01*
X52156Y36381D01*
Y36119D01*
X52221Y36053D01*
X52352D01*
X52418Y36119D01*
X52811Y36053D02*
X52549D01*
X52811Y36316D01*
Y36381D01*
X52746Y36447D01*
X52615D01*
X52549Y36381D01*
X52943D02*
X53008Y36447D01*
X53139D01*
X53205Y36381D01*
Y36119D01*
X53139Y36053D01*
X53008D01*
X52943Y36119D01*
Y36381D01*
X55833Y35033D02*
X55768Y35098D01*
X55636D01*
X55571Y35033D01*
Y34770D01*
X55636Y34705D01*
X55768D01*
X55833Y34770D01*
X55964Y34705D02*
X56096D01*
X56030D01*
Y35098D01*
X55964Y35033D01*
X56292Y34770D02*
X56358Y34705D01*
X56489D01*
X56555Y34770D01*
Y35033D01*
X56489Y35098D01*
X56358D01*
X56292Y35033D01*
Y34967D01*
X56358Y34902D01*
X56555D01*
X44042Y34741D02*
X43976Y34675D01*
Y34544D01*
X44042Y34478D01*
X44304D01*
X44370Y34544D01*
Y34675D01*
X44304Y34741D01*
X44370Y34872D02*
Y35003D01*
Y34938D01*
X43976D01*
X44042Y34872D01*
X43976Y35200D02*
Y35462D01*
X44042D01*
X44304Y35200D01*
X44370D01*
X41129Y40193D02*
X41063Y40128D01*
Y39997D01*
X41129Y39931D01*
X41391D01*
X41457Y39997D01*
Y40128D01*
X41391Y40193D01*
X41457Y40325D02*
Y40456D01*
Y40390D01*
X41063D01*
X41129Y40325D01*
X41063Y40915D02*
X41129Y40784D01*
X41260Y40653D01*
X41391D01*
X41457Y40718D01*
Y40849D01*
X41391Y40915D01*
X41325D01*
X41260Y40849D01*
Y40653D01*
X32133Y42506D02*
X32067Y42441D01*
Y42310D01*
X32133Y42244D01*
X32395D01*
X32461Y42310D01*
Y42441D01*
X32395Y42506D01*
X32461Y42638D02*
Y42769D01*
Y42703D01*
X32067D01*
X32133Y42638D01*
X32067Y43228D02*
Y42966D01*
X32264D01*
X32198Y43097D01*
Y43162D01*
X32264Y43228D01*
X32395D01*
X32461Y43162D01*
Y43031D01*
X32395Y42966D01*
X44209Y37405D02*
X44144Y37470D01*
X44012D01*
X43947Y37405D01*
Y37142D01*
X44012Y37077D01*
X44144D01*
X44209Y37142D01*
X44340Y37077D02*
X44472D01*
X44406D01*
Y37470D01*
X44340Y37405D01*
X44865Y37077D02*
Y37470D01*
X44668Y37274D01*
X44931D01*
X38323Y34521D02*
X38258Y34586D01*
X38127D01*
X38061Y34521D01*
Y34259D01*
X38127Y34193D01*
X38258D01*
X38323Y34259D01*
X38455Y34193D02*
X38586D01*
X38520D01*
Y34586D01*
X38455Y34521D01*
X38783D02*
X38848Y34586D01*
X38979D01*
X39045Y34521D01*
Y34455D01*
X38979Y34390D01*
X38914D01*
X38979D01*
X39045Y34324D01*
Y34259D01*
X38979Y34193D01*
X38848D01*
X38783Y34259D01*
X47330Y43865D02*
X47264Y43799D01*
Y43668D01*
X47330Y43602D01*
X47592D01*
X47657Y43668D01*
Y43799D01*
X47592Y43865D01*
X47657Y43996D02*
Y44127D01*
Y44062D01*
X47264D01*
X47330Y43996D01*
X47657Y44586D02*
Y44324D01*
X47395Y44586D01*
X47330D01*
X47264Y44521D01*
Y44390D01*
X47330Y44324D01*
X44613Y32543D02*
X44547Y32608D01*
X44416D01*
X44350Y32543D01*
Y32280D01*
X44416Y32215D01*
X44547D01*
X44613Y32280D01*
X44744Y32215D02*
X44875D01*
X44810D01*
Y32608D01*
X44744Y32543D01*
X45072Y32215D02*
X45203D01*
X45138D01*
Y32608D01*
X45072Y32543D01*
X39318Y32533D02*
X39252Y32598D01*
X39121D01*
X39055Y32533D01*
Y32270D01*
X39121Y32205D01*
X39252D01*
X39318Y32270D01*
X39449Y32205D02*
X39580D01*
X39514D01*
Y32598D01*
X39449Y32533D01*
X39777D02*
X39842Y32598D01*
X39973D01*
X40039Y32533D01*
Y32270D01*
X39973Y32205D01*
X39842D01*
X39777Y32270D01*
Y32533D01*
X31749Y35348D02*
X31683Y35413D01*
X31552D01*
X31486Y35348D01*
Y35085D01*
X31552Y35020D01*
X31683D01*
X31749Y35085D01*
X31880D02*
X31945Y35020D01*
X32077D01*
X32142Y35085D01*
Y35348D01*
X32077Y35413D01*
X31945D01*
X31880Y35348D01*
Y35282D01*
X31945Y35216D01*
X32142D01*
X34711Y41581D02*
X34646Y41516D01*
Y41384D01*
X34711Y41319D01*
X34974D01*
X35039Y41384D01*
Y41516D01*
X34974Y41581D01*
X34711Y41712D02*
X34646Y41778D01*
Y41909D01*
X34711Y41975D01*
X34777D01*
X34843Y41909D01*
X34908Y41975D01*
X34974D01*
X35039Y41909D01*
Y41778D01*
X34974Y41712D01*
X34908D01*
X34843Y41778D01*
X34777Y41712D01*
X34711D01*
X34843Y41778D02*
Y41909D01*
X34692Y32513D02*
X34626Y32579D01*
X34495D01*
X34429Y32513D01*
Y32251D01*
X34495Y32185D01*
X34626D01*
X34692Y32251D01*
X34823Y32579D02*
X35085D01*
Y32513D01*
X34823Y32251D01*
Y32185D01*
X29997Y32543D02*
X29931Y32608D01*
X29800D01*
X29734Y32543D01*
Y32280D01*
X29800Y32215D01*
X29931D01*
X29997Y32280D01*
X30390Y32608D02*
X30259Y32543D01*
X30128Y32411D01*
Y32280D01*
X30193Y32215D01*
X30325D01*
X30390Y32280D01*
Y32346D01*
X30325Y32411D01*
X30128D01*
X31749Y36197D02*
X31683Y36132D01*
Y36001D01*
X31749Y35935D01*
X32011D01*
X32077Y36001D01*
Y36132D01*
X32011Y36197D01*
X31683Y36591D02*
Y36329D01*
X31880D01*
X31814Y36460D01*
Y36525D01*
X31880Y36591D01*
X32011D01*
X32077Y36525D01*
Y36394D01*
X32011Y36329D01*
X25686Y36237D02*
X25620Y36171D01*
Y36040D01*
X25686Y35974D01*
X25948D01*
X26014Y36040D01*
Y36171D01*
X25948Y36237D01*
X26014Y36565D02*
X25620D01*
X25817Y36368D01*
Y36630D01*
X40380Y42552D02*
X40315Y42618D01*
X40184D01*
X40118Y42552D01*
Y42290D01*
X40184Y42224D01*
X40315D01*
X40380Y42290D01*
X40512Y42552D02*
X40577Y42618D01*
X40708D01*
X40774Y42552D01*
Y42487D01*
X40708Y42421D01*
X40643D01*
X40708D01*
X40774Y42356D01*
Y42290D01*
X40708Y42224D01*
X40577D01*
X40512Y42290D01*
X25459Y32552D02*
X25394Y32618D01*
X25262D01*
X25197Y32552D01*
Y32290D01*
X25262Y32224D01*
X25394D01*
X25459Y32290D01*
X25853Y32224D02*
X25590D01*
X25853Y32487D01*
Y32552D01*
X25787Y32618D01*
X25656D01*
X25590Y32552D01*
X23865Y32533D02*
X23799Y32598D01*
X23668D01*
X23602Y32533D01*
Y32270D01*
X23668Y32205D01*
X23799D01*
X23865Y32270D01*
X23996Y32205D02*
X24127D01*
X24062D01*
Y32598D01*
X23996Y32533D01*
X46375Y36276D02*
X46309Y36211D01*
Y36079D01*
X46375Y36014D01*
X46637D01*
X46703Y36079D01*
Y36211D01*
X46637Y36276D01*
X46703Y36670D02*
Y36407D01*
X46440Y36670D01*
X46375D01*
X46309Y36604D01*
Y36473D01*
X46375Y36407D01*
Y36801D02*
X46309Y36867D01*
Y36998D01*
X46375Y37063D01*
X46440D01*
X46506Y36998D01*
Y36932D01*
Y36998D01*
X46572Y37063D01*
X46637D01*
X46703Y36998D01*
Y36867D01*
X46637Y36801D01*
D42*
X53366Y34970D02*
G03*
X53366Y34970I-49J0D01*
G01*
D43*
X50410Y43862D02*
G03*
X49575Y43862I-418J-418D01*
G01*
Y43027D02*
G03*
X50410Y43027I418J418D01*
G01*
D44*
X52206Y40833D02*
X52876D01*
X52206D02*
Y41303D01*
X55076Y40833D02*
X55746D01*
X52205Y46535D02*
X55748D01*
X52205D02*
X52206Y43413D01*
X55746Y40833D02*
X55748Y46535D01*
X54533Y38991D02*
Y39691D01*
X55033Y38991D02*
Y39691D01*
X54533Y38991D02*
X55033Y39341D01*
X54533Y39691D02*
X55033Y39341D01*
M02*
