M48
;Layer_Color=9474304
;FILE_FORMAT=2:4
INCH,LZ
;TYPE=PLATED
T1F00S00C0.0118
T2F00S00C0.0394
%
T01
X066191Y015561
X072785Y015571
X072726Y016368
X072372Y016358
X071978Y016083
X071575Y015807
X071301Y016329
X070965Y016368
X07068Y016565
X070229Y016555
X070718Y016043
X071575Y017362
X071496Y0181
X071585Y018406
X07127Y018337
X071004Y01815
X070768Y018366
X070591Y018681
X0702Y019065
X069902Y019616
X068967Y019646
X068366Y019596
Y019892
Y020207
X068386Y020522
Y020837
X06874Y020827
X069106Y020945
Y021299
X069104Y021604
Y021919
X069147Y022264
X068996Y022579
X069195Y022776
X069026Y022972
X068957Y023278
X069213Y023189
X069903Y0231
X069918Y022687
X07002Y022126
X06998Y021772
X070974Y021427
X070974Y022352
X071467Y02189
X071958Y022352
Y021427
X072559Y020817
X072598Y020394
X072608Y019429
X072656Y019045
X074006Y019193
X073996Y020059
X074016Y02247
X073602Y022628
X07376Y023701
X073967Y023573
X073888Y024065
X072579Y024416
Y024774
X072589Y025138
X072185Y025374
X072205Y026201
X073652Y026565
X073583Y028081
X071526Y028061
X069682Y028002
X068268Y028022
Y027598
Y027175
Y026752
Y026329
Y025905
Y025482
Y025059
Y024675
Y024301
Y023917
Y023494
Y02313
Y022766
Y022392
X069085Y023967
X069075Y024281
X069094Y024596
Y024941
X069157Y025305
X0694Y025492
X069675Y025482
X069964Y025502
X070276
X070612Y025482
X070725Y025157
X07068Y024862
X07065Y024518
X070659Y024193
X07068Y023898
X070689Y023583
X070512Y023174
X070502Y022844
X069734Y024016
X06938Y024006
X069923Y024252
X069902Y024616
X071073Y025059
X071496Y024055
X071959Y023563
X072756Y023346
X072854Y021762
X070384Y020472
X069557Y020837
X06935Y018671
X068868Y018258
X068366Y018396
Y017963
X068295Y017539
X068278Y017103
Y016791
X068396Y016427
X067382Y016093
X066959
X066447
X065926
X065541
X068366Y018829
Y019232
X070876Y019291
X07087Y019626
X073081Y017549
X073868Y017343
Y016909
X073661Y016132
X073159Y016486
T02
X067047Y015344
X068047
X069047
X070049
X071049
X072049
X072012Y02747
X071012
X073012
M30
