M48
;Layer_Color=9474304
;FILE_FORMAT=2:4
INCH,LZ
;TYPE=PLATED
T1F00S00C0.0118
T2F00S00C0.0354
%
T01
X063671Y018317
X063425Y019774
X063228Y02124
X063209Y021988
X063524Y023356
X062077Y023642
X061093Y023799
X06124Y024075
X06125Y02437
X06126Y024665
Y02498
X06125Y025285
X060998Y025384
X060689Y025394
X060423Y025285
X060413Y024983
X060433Y024685
X060434Y02437
X060413Y024065
X060128Y024006
X060108Y024301
X060118Y024557
X059901Y024724
X059636Y024715
X05938Y024744
Y025
Y025256
Y025502
X05939Y025758
X059507Y023159
X059714Y022864
X060354Y023307
X061Y023455
X061102Y023189
X061072Y022907
X06065Y02186
X060197Y022205
X059606Y021585
Y02065
X059114Y021112
X058622Y02065
Y021575
X057657Y021496
X057825Y021978
X057526Y022257
X056782Y022785
X056445Y022982
X056211Y023967
X055925Y024262
X056132Y024862
X056083Y02562
X055758Y0256
X055413Y02572
X056407
X056476Y025423
X056673Y025222
X056959Y025167
X057224Y025171
X057254Y024911
X057244Y024636
X057333Y024391
X057608Y02438
X057933Y024391
X058002Y024114
X058012Y023789
Y023455
X055659Y023465
X055138Y023907
X05501Y02252
X055226Y022254
X055685Y022175
X055374Y021801
X056073Y021604
X056083Y021033
X055689Y021014
X055472Y01878
X054341Y019232
X053976Y019656
X053878Y01877
X053809Y018415
X052894Y018317
X057126Y018061
X057894Y018445
X058602Y018396
X058622Y018839
X05894Y019765
X058041Y020079
X05747Y018937
X05686Y019528
X060325Y018652
X06063Y018819
X061181Y018799
X06248Y018583
X062146Y021537
X061713Y021772
X061339Y021496
X060827Y020797
X054085Y024823
X054961Y027362
X052854Y027549
T02
X062805Y024409
Y025197
Y025984
Y026772
Y027559
X063593
Y026772
Y025984
Y025197
Y024409
X054232Y024173
Y023386
Y022598
Y021811
Y021024
X053445
Y021811
Y022598
Y023386
Y024173
M30
