M48
;Layer_Color=9474304
;FILE_FORMAT=2:4
INCH,LZ
;TYPE=PLATED
T1F00S00C0.0118
T2F00S00C0.0197
T3F00S00C0.0380
T4F00S00C0.0390
T5F00S00C0.0394
T6F00S00C0.0472
T7F00S00C0.0591
%
T01
X03937Y01378
X041339
X043307
X045276
X046309Y013701
Y01503
X048071Y013622
X049213Y01378
Y017717
X048602Y017982
X048307Y01873
X048189Y019222
X047953Y019606
X047618Y019154
X046998Y01813
X049931Y018504
X050354Y019114
X049892Y020246
X049764Y020827
X049577Y021634
X050266Y021919
X050819Y02194
X051102Y022697
X051427Y023711
X052411
X052953Y02372
X053022Y024173
X053376Y023878
X052677Y024665
X052461Y025215
X05185Y025266
X051627Y026054
X052323Y025876
X053366Y02626
X055138Y02622
X055335Y024823
X055364Y0231
X055216Y022776
X054961Y02252
X056794Y0232
X057106Y02436
X0569Y025295
X05687Y025738
X057234Y025945
X05815Y025837
X058228Y025433
X058258Y026614
X058192Y027117
X058593Y027175
X059039Y027047
X05938Y027303
X0594Y026132
X060335
X059498Y024843
X059186Y024529
X059695Y024203
X059521Y023633
X059567Y022874
X058563Y022923
X058569Y023619
X058277Y021437
X058549Y017716
X058071Y015748
X060039
X056102
X055955Y018376
X05498Y017972
X053927Y018228
X052963Y017953
X05189Y018209
X051033Y017992
X052175Y019154
X052165Y019685
X051929Y020089
X05263Y021083
X052854Y021467
X053455Y02125
X054173Y020423
X054134Y019685
X055866Y019783
X056624Y026811
X056102Y027559
X054134
X05253Y027598
X051115Y028495
X050849Y028249
X050856Y029134
X051516Y029449
X05124Y029843
X051083Y030472
X050974Y030817
X050285Y029685
X049439Y029134
X049183Y028661
X049215Y02823
X049774Y028012
X050197Y027559
X050236Y025837
X050915
X049055Y025886
X048494Y025236
X048839Y023947
X049508Y023711
X0494Y022717
X047549Y022657
X047953Y021971
X047411Y021024
X04873Y020965
X04829Y020145
X050276Y024114
X048848Y027077
X04752Y027756
X047362Y028351
X048898Y029518
X05315Y029528
X055118
X056654Y029449
X058474Y029459
X059016Y031053
X059813Y028268
X060709Y0281
X061978
X062392Y025423
X061929Y024783
X061427Y023642
X06064Y023081
X057818Y026921
X046673Y029213
X046693Y03002
X044232Y028976
X043711Y028356
X043868Y027382
X043474Y026634
Y025994
X044301
X04372Y025216
X043179Y024547
Y024094
X042618
Y024547
X044321Y024154
X044291Y023622
X044902Y023209
X045591Y0244
X045856Y021437
X045315Y021083
X04628Y020886
X045935Y020226
X046203Y01923
X044104Y019724
X044154Y020738
X042323Y019685
X042136Y017992
X041339Y017717
X039902Y02003
X040699Y023061
X039114Y023297
X039085Y025059
X04248Y026959
X044291Y015748
X045069Y0319
X045197Y032293
X045581Y032411
X045128Y033071
X045118Y034262
X045217Y034902
X045344Y035551
X045778Y035866
X044911Y035965
X043327Y035974
X043159Y03502
X043504Y034695
X042028Y033612
Y033179
X041378Y033189
Y033602
X039262Y034213
X039636Y035138
X040354Y035433
X044026Y037648
X043937Y038593
X045167Y038169
X045679Y03753
X046626Y037905
X046618Y040508
X046014Y041604
X046624Y042451
Y044203
X046774Y034647
X046929Y03376
X047254Y033671
X047569Y033386
X047884Y033189
X048159Y032963
X048543Y035059
X04813Y035512
X048258Y036181
X04874Y03623
X049419Y036286
X04937Y03687
X049734Y03689
X050187Y036919
X049993Y037955
X050898Y037807
X050803Y039481
X051339Y039646
X051909Y039331
X052569Y039478
X052431Y038951
X0525Y038593
X052785Y038829
X052234Y038327
X053081Y037844
X053435Y037864
X053789Y037874
X054144Y037894
X053839Y035906
X05378Y035541
X053789Y034075
X053428Y034086
X053123Y03388
X052441Y034006
X052096Y033681
X051398Y033573
X051555Y034006
X05155Y035315
X050288Y034765
X050002Y03448
X049737Y035021
X047274Y035315
X04764Y035996
X047116Y036427
X047008Y03814
X048593Y038642
X049242Y03999
X049341Y040709
X050394Y040807
X051683Y040374
X05204Y040366
X052461Y040384
X052057Y041437
X055068Y041457
X055187Y042165
X055256Y042559
X055807Y042441
X05436Y042559
X053819Y042815
X053917Y044114
X054892Y044547
X055768Y044468
X055551Y03997
X057274Y040305
X057687Y040354
X058046Y040566
X059783Y039892
X059035Y037933
X058569Y037648
X057904Y037441
X057687Y037106
X059596Y036703
X059836Y03576
X059835Y0351
X059203Y034715
X05876Y034705
X058947Y03439
X059078Y034027
X059275Y033693
X059471Y033289
X059852Y033081
X060256Y033031
X059055Y031624
X057687Y031437
X057736Y032933
X057729Y033289
Y033643
Y033998
X05771Y034352
X057729Y034706
X058691Y035148
X06128Y034852
X060433Y036348
X061024Y037402
X060039Y043307
X060305Y044282
X051181Y045276
X05002Y044941
X050571Y04373
X050935Y043356
X049646Y043494
X048867Y04187
X048425Y04185
X048386Y041201
X051014Y033219
X053976Y033366
X054488Y033307
X055069Y033287
X05577Y033102
X054705Y032579
X054754Y031718
X054392Y031783
X053772Y032039
X053366Y031378
X055315Y03189
X054291Y034045
X055098Y03498
X055148Y036358
X06248Y031339
X060039Y047244
X050197
X050787Y048671
X047274Y046919
X042323Y047244
X040354
T02
X050866Y013898
X052923
X054596Y013868
X057116Y013848
X058927Y013839
X06122Y01375
X062421Y014134
X063169Y01438
X062835Y012303
X06315Y015906
X062953Y0181
X062392Y017362
X061319Y017224
X061585Y017913
X062215Y01628
X061801Y022372
X060551Y02126
X059695Y020984
X055778Y020423
X053927Y021043
X044764Y030197
X062648Y035413
X062707Y035846
X0631Y035591
X06Y048848
T03
X039388Y021457
X041388
X040718Y030876
X039341
X052043Y046746
X053043
X054043
X055043
X056043
X061171Y046205
Y045205
X062171
Y044205
Y043205
X061171
Y044205
X062171Y046205
Y047205
X061171
X056043Y047746
X055043
X054043
X053043
X052043
T04
X047425Y012687
X048425
X048612Y048317
X047612
T05
X06147Y026289
X06247
Y027579
X06147
X061467Y032154
Y033154
Y034154
X062467
Y033154
Y032154
T06
X045177Y038976
Y039961
Y040945
T07
X039203Y015482
X041171
X04314
X045108
X050827
X052795
X054764
X056968
X058937
X060906
X041358Y036673
Y038642
Y04061
X041417Y045315
X043386
X045354
X039449
M30
