G04 Layer_Color=65535*
%FSLAX24Y24*%
%MOIN*%
G70*
G01*
G75*
%ADD10C,0.0079*%
%ADD41C,0.0098*%
%ADD58C,0.0070*%
%ADD59C,0.0071*%
%ADD60C,0.0236*%
%ADD61C,0.0100*%
%ADD62C,0.0039*%
%ADD63C,0.0050*%
%ADD64C,0.0067*%
G36*
X44214Y36142D02*
X43612D01*
Y36646D01*
X43714D01*
Y36227D01*
X43859D01*
Y36646D01*
X43961D01*
Y36227D01*
X44112D01*
Y36646D01*
X44213D01*
X44214Y36142D01*
D02*
G37*
G36*
X45573Y36277D02*
X45383D01*
Y36374D01*
X45573D01*
Y36277D01*
D02*
G37*
G36*
X45787Y36648D02*
X45793Y36648D01*
X45801Y36647D01*
X45809Y36645D01*
X45817Y36644D01*
X45836Y36639D01*
X45855Y36632D01*
X45866Y36627D01*
X45874Y36622D01*
X45884Y36616D01*
X45892Y36608D01*
X45893Y36608D01*
X45894Y36607D01*
X45895Y36604D01*
X45898Y36601D01*
X45902Y36597D01*
X45906Y36592D01*
X45909Y36587D01*
X45914Y36581D01*
X45921Y36566D01*
X45928Y36549D01*
X45931Y36540D01*
X45933Y36530D01*
X45934Y36519D01*
X45935Y36508D01*
Y36506D01*
Y36502D01*
X45934Y36495D01*
X45933Y36487D01*
X45932Y36477D01*
X45930Y36466D01*
X45927Y36454D01*
X45922Y36443D01*
X45922Y36441D01*
X45920Y36438D01*
X45917Y36431D01*
X45913Y36423D01*
X45908Y36414D01*
X45901Y36403D01*
X45893Y36391D01*
X45884Y36379D01*
X45883Y36378D01*
X45880Y36374D01*
X45876Y36369D01*
X45869Y36362D01*
X45860Y36353D01*
X45850Y36341D01*
X45836Y36329D01*
X45820Y36314D01*
X45820Y36313D01*
X45818Y36312D01*
X45816Y36310D01*
X45813Y36307D01*
X45805Y36300D01*
X45796Y36291D01*
X45786Y36282D01*
X45777Y36272D01*
X45768Y36264D01*
X45765Y36261D01*
X45762Y36258D01*
X45761Y36257D01*
X45760Y36255D01*
X45758Y36253D01*
X45755Y36249D01*
X45748Y36241D01*
X45742Y36231D01*
X45935D01*
Y36142D01*
X45596D01*
Y36142D01*
Y36144D01*
X45597Y36147D01*
X45597Y36150D01*
X45598Y36155D01*
X45599Y36160D01*
X45602Y36173D01*
X45606Y36188D01*
X45612Y36204D01*
X45619Y36221D01*
X45629Y36238D01*
Y36239D01*
X45630Y36240D01*
X45632Y36243D01*
X45634Y36246D01*
X45637Y36251D01*
X45642Y36256D01*
X45647Y36263D01*
X45653Y36270D01*
X45659Y36279D01*
X45667Y36288D01*
X45676Y36298D01*
X45686Y36309D01*
X45697Y36320D01*
X45710Y36332D01*
X45723Y36345D01*
X45737Y36359D01*
X45738Y36360D01*
X45740Y36362D01*
X45743Y36365D01*
X45747Y36369D01*
X45753Y36374D01*
X45759Y36379D01*
X45772Y36393D01*
X45785Y36406D01*
X45798Y36420D01*
X45804Y36426D01*
X45810Y36433D01*
X45815Y36438D01*
X45817Y36442D01*
X45818Y36444D01*
X45820Y36447D01*
X45824Y36453D01*
X45828Y36461D01*
X45831Y36470D01*
X45835Y36480D01*
X45837Y36490D01*
X45838Y36501D01*
Y36502D01*
Y36503D01*
Y36506D01*
X45837Y36513D01*
X45836Y36520D01*
X45833Y36528D01*
X45831Y36536D01*
X45826Y36544D01*
X45820Y36551D01*
X45820Y36552D01*
X45817Y36554D01*
X45813Y36557D01*
X45808Y36560D01*
X45801Y36563D01*
X45793Y36566D01*
X45783Y36568D01*
X45772Y36569D01*
X45767D01*
X45761Y36568D01*
X45755Y36567D01*
X45747Y36565D01*
X45739Y36561D01*
X45731Y36557D01*
X45723Y36551D01*
X45723Y36550D01*
X45720Y36547D01*
X45718Y36543D01*
X45715Y36536D01*
X45711Y36528D01*
X45708Y36517D01*
X45705Y36505D01*
X45704Y36490D01*
X45607Y36500D01*
Y36500D01*
X45608Y36503D01*
Y36507D01*
X45610Y36513D01*
X45610Y36519D01*
X45613Y36527D01*
X45615Y36535D01*
X45617Y36544D01*
X45624Y36562D01*
X45633Y36581D01*
X45639Y36591D01*
X45645Y36600D01*
X45653Y36607D01*
X45661Y36614D01*
X45661Y36615D01*
X45663Y36616D01*
X45665Y36617D01*
X45669Y36620D01*
X45673Y36622D01*
X45679Y36625D01*
X45685Y36629D01*
X45692Y36632D01*
X45700Y36635D01*
X45709Y36638D01*
X45728Y36644D01*
X45750Y36648D01*
X45762Y36648D01*
X45774Y36649D01*
X45782D01*
X45787Y36648D01*
D02*
G37*
G36*
X46319Y36549D02*
X46136D01*
X46121Y36463D01*
X46121D01*
X46122Y36464D01*
X46127Y36466D01*
X46133Y36468D01*
X46141Y36472D01*
X46151Y36475D01*
X46162Y36477D01*
X46175Y36479D01*
X46187Y36480D01*
X46194D01*
X46198Y36479D01*
X46203Y36479D01*
X46210Y36478D01*
X46217Y36476D01*
X46225Y36474D01*
X46242Y36468D01*
X46251Y36465D01*
X46260Y36460D01*
X46269Y36454D01*
X46279Y36448D01*
X46288Y36441D01*
X46296Y36433D01*
X46297Y36432D01*
X46299Y36430D01*
X46301Y36428D01*
X46304Y36424D01*
X46307Y36419D01*
X46311Y36414D01*
X46315Y36407D01*
X46319Y36400D01*
X46323Y36392D01*
X46327Y36382D01*
X46331Y36372D01*
X46334Y36362D01*
X46337Y36350D01*
X46339Y36338D01*
X46341Y36325D01*
X46342Y36311D01*
Y36310D01*
Y36308D01*
Y36305D01*
X46341Y36301D01*
Y36295D01*
X46339Y36288D01*
X46339Y36281D01*
X46337Y36274D01*
X46333Y36256D01*
X46326Y36237D01*
X46322Y36227D01*
X46318Y36218D01*
X46312Y36208D01*
X46305Y36199D01*
X46304Y36198D01*
X46303Y36196D01*
X46300Y36193D01*
X46296Y36188D01*
X46291Y36183D01*
X46285Y36177D01*
X46277Y36172D01*
X46269Y36166D01*
X46260Y36159D01*
X46250Y36153D01*
X46239Y36148D01*
X46226Y36142D01*
X46213Y36138D01*
X46199Y36135D01*
X46184Y36133D01*
X46168Y36132D01*
X46162D01*
X46156Y36133D01*
X46151Y36134D01*
X46143Y36134D01*
X46136Y36135D01*
X46127Y36137D01*
X46110Y36141D01*
X46090Y36148D01*
X46081Y36152D01*
X46071Y36157D01*
X46062Y36163D01*
X46054Y36169D01*
X46053Y36170D01*
X46051Y36171D01*
X46049Y36173D01*
X46046Y36176D01*
X46043Y36180D01*
X46039Y36185D01*
X46035Y36190D01*
X46031Y36196D01*
X46026Y36203D01*
X46022Y36210D01*
X46014Y36228D01*
X46006Y36247D01*
X46004Y36258D01*
X46002Y36270D01*
X46098Y36280D01*
Y36279D01*
X46099Y36275D01*
X46100Y36269D01*
X46102Y36261D01*
X46105Y36253D01*
X46110Y36245D01*
X46116Y36237D01*
X46122Y36228D01*
X46123Y36228D01*
X46126Y36226D01*
X46130Y36223D01*
X46136Y36219D01*
X46143Y36215D01*
X46151Y36212D01*
X46160Y36210D01*
X46170Y36210D01*
X46171D01*
X46175Y36210D01*
X46180Y36211D01*
X46188Y36212D01*
X46196Y36215D01*
X46205Y36220D01*
X46213Y36226D01*
X46221Y36234D01*
X46222Y36236D01*
X46225Y36239D01*
X46228Y36245D01*
X46232Y36253D01*
X46236Y36263D01*
X46240Y36276D01*
X46242Y36291D01*
X46242Y36309D01*
Y36309D01*
Y36311D01*
Y36313D01*
Y36317D01*
X46242Y36325D01*
X46240Y36335D01*
X46237Y36347D01*
X46234Y36358D01*
X46229Y36369D01*
X46221Y36379D01*
X46221Y36379D01*
X46218Y36382D01*
X46213Y36386D01*
X46207Y36391D01*
X46199Y36395D01*
X46189Y36399D01*
X46178Y36402D01*
X46167Y36403D01*
X46162D01*
X46159Y36402D01*
X46152Y36401D01*
X46142Y36398D01*
X46130Y36394D01*
X46118Y36387D01*
X46111Y36383D01*
X46105Y36378D01*
X46098Y36372D01*
X46092Y36366D01*
X46014Y36376D01*
X46063Y36640D01*
X46319D01*
Y36549D01*
D02*
G37*
G36*
X24179Y20844D02*
X23929D01*
Y21094D01*
X24179D01*
Y20844D01*
D02*
G37*
G36*
X18240Y23449D02*
X17990D01*
Y23699D01*
X18240D01*
Y23449D01*
D02*
G37*
G36*
X45173Y36262D02*
Y36261D01*
X45172Y36259D01*
X45170Y36256D01*
X45168Y36252D01*
X45166Y36247D01*
X45163Y36241D01*
X45156Y36227D01*
X45147Y36212D01*
X45137Y36196D01*
X45126Y36181D01*
X45115Y36167D01*
X45114Y36166D01*
X45110Y36162D01*
X45104Y36157D01*
X45096Y36151D01*
X45085Y36145D01*
X45072Y36140D01*
X45058Y36137D01*
X45050Y36136D01*
X45041Y36135D01*
X45034D01*
X45026Y36136D01*
X45016D01*
X45004Y36137D01*
X44992Y36138D01*
X44981Y36140D01*
X44971Y36142D01*
Y36216D01*
X44984D01*
X44990Y36215D01*
X45016D01*
X45022Y36216D01*
X45029Y36217D01*
X45037Y36218D01*
X45046Y36220D01*
X45053Y36223D01*
X45060Y36228D01*
X45061Y36228D01*
X45063Y36231D01*
X45066Y36234D01*
X45069Y36239D01*
X45074Y36247D01*
X45079Y36257D01*
X45085Y36269D01*
X45090Y36284D01*
X44905Y36646D01*
X45018D01*
X45137Y36384D01*
X45237Y36646D01*
X45344D01*
X45173Y36262D01*
D02*
G37*
G36*
X44892Y36575D02*
X44871D01*
X44866Y36574D01*
X44860D01*
X44844Y36571D01*
X44837Y36570D01*
X44831Y36567D01*
X44830D01*
X44829Y36565D01*
X44826Y36564D01*
X44822Y36561D01*
X44819Y36558D01*
X44815Y36554D01*
X44811Y36549D01*
X44807Y36543D01*
X44806Y36543D01*
X44806Y36541D01*
X44803Y36535D01*
X44800Y36530D01*
X44797Y36520D01*
X44792Y36509D01*
X44790Y36503D01*
X44787Y36495D01*
X44784Y36487D01*
X44781Y36478D01*
X44780Y36476D01*
X44779Y36473D01*
X44777Y36468D01*
X44775Y36462D01*
X44772Y36456D01*
X44769Y36449D01*
X44765Y36441D01*
X44761Y36434D01*
X44760Y36433D01*
X44759Y36431D01*
X44756Y36428D01*
X44752Y36423D01*
X44747Y36418D01*
X44740Y36413D01*
X44732Y36407D01*
X44722Y36401D01*
X44723D01*
X44724Y36401D01*
X44728Y36399D01*
X44734Y36396D01*
X44742Y36393D01*
X44751Y36387D01*
X44760Y36380D01*
X44770Y36372D01*
X44779Y36362D01*
X44779Y36360D01*
X44782Y36357D01*
X44787Y36350D01*
X44793Y36341D01*
X44800Y36329D01*
X44808Y36314D01*
X44818Y36298D01*
X44827Y36280D01*
X44897Y36142D01*
X44776D01*
X44716Y36271D01*
Y36272D01*
X44714Y36274D01*
X44713Y36277D01*
X44710Y36282D01*
X44709Y36284D01*
X44709Y36285D01*
X44707Y36288D01*
X44706Y36290D01*
X44704Y36294D01*
X44701Y36299D01*
X44698Y36306D01*
Y36306D01*
X44697Y36307D01*
X44695Y36312D01*
X44691Y36318D01*
X44686Y36325D01*
X44681Y36333D01*
X44676Y36341D01*
X44671Y36347D01*
X44666Y36352D01*
X44665Y36353D01*
X44663Y36354D01*
X44661Y36355D01*
X44658Y36358D01*
X44653Y36360D01*
X44648Y36361D01*
X44642Y36362D01*
X44636Y36363D01*
Y36142D01*
X44537D01*
Y36363D01*
X44534D01*
X44530Y36362D01*
X44526Y36361D01*
X44515Y36358D01*
X44510Y36356D01*
X44505Y36352D01*
X44504Y36352D01*
X44503Y36350D01*
X44500Y36347D01*
X44496Y36343D01*
X44492Y36337D01*
X44487Y36329D01*
X44480Y36319D01*
X44474Y36306D01*
X44473Y36306D01*
X44472Y36303D01*
X44470Y36300D01*
X44469Y36296D01*
X44467Y36291D01*
X44464Y36288D01*
X44463Y36285D01*
X44461Y36282D01*
X44461Y36282D01*
X44460Y36280D01*
X44458Y36276D01*
X44456Y36271D01*
X44395Y36142D01*
X44276D01*
X44344Y36280D01*
Y36280D01*
X44346Y36282D01*
X44346Y36285D01*
X44349Y36288D01*
X44351Y36293D01*
X44354Y36297D01*
X44359Y36309D01*
X44367Y36322D01*
X44375Y36335D01*
X44383Y36348D01*
X44392Y36360D01*
X44393Y36362D01*
X44397Y36366D01*
X44401Y36371D01*
X44408Y36377D01*
X44416Y36384D01*
X44426Y36390D01*
X44437Y36397D01*
X44449Y36401D01*
X44448Y36402D01*
X44445Y36404D01*
X44440Y36407D01*
X44435Y36411D01*
X44428Y36416D01*
X44421Y36422D01*
X44416Y36428D01*
X44411Y36434D01*
X44410Y36435D01*
X44409Y36437D01*
X44408Y36441D01*
X44405Y36446D01*
X44402Y36452D01*
X44398Y36460D01*
X44394Y36468D01*
X44391Y36478D01*
Y36479D01*
X44390Y36480D01*
X44389Y36482D01*
X44388Y36486D01*
X44385Y36494D01*
X44381Y36504D01*
X44377Y36515D01*
X44373Y36526D01*
X44368Y36535D01*
X44366Y36539D01*
X44365Y36543D01*
X44364Y36543D01*
X44363Y36546D01*
X44361Y36549D01*
X44359Y36551D01*
X44351Y36559D01*
X44346Y36563D01*
X44341Y36567D01*
X44340Y36567D01*
X44338Y36568D01*
X44335Y36570D01*
X44330Y36571D01*
X44323Y36573D01*
X44315Y36573D01*
X44305Y36575D01*
X44281D01*
Y36650D01*
X44287D01*
X44292Y36649D01*
X44307D01*
X44314Y36648D01*
X44320Y36648D01*
X44336Y36646D01*
X44354Y36644D01*
X44370Y36640D01*
X44386Y36635D01*
X44394Y36631D01*
X44400Y36627D01*
X44401D01*
X44402Y36627D01*
X44405Y36623D01*
X44408Y36620D01*
X44412Y36616D01*
X44416Y36612D01*
X44420Y36607D01*
X44424Y36600D01*
X44429Y36593D01*
X44434Y36585D01*
X44440Y36576D01*
X44445Y36565D01*
X44451Y36554D01*
X44456Y36541D01*
X44461Y36527D01*
Y36527D01*
X44462Y36524D01*
X44464Y36522D01*
X44465Y36518D01*
X44467Y36513D01*
X44470Y36507D01*
X44475Y36495D01*
X44480Y36481D01*
X44487Y36468D01*
X44490Y36462D01*
X44493Y36457D01*
X44496Y36453D01*
X44498Y36449D01*
X44499Y36449D01*
X44500Y36446D01*
X44504Y36444D01*
X44507Y36441D01*
X44513Y36438D01*
X44520Y36435D01*
X44528Y36433D01*
X44537Y36431D01*
Y36646D01*
X44636D01*
Y36431D01*
X44637D01*
X44640Y36432D01*
X44644Y36433D01*
X44650Y36434D01*
X44656Y36436D01*
X44662Y36439D01*
X44669Y36444D01*
X44674Y36449D01*
X44674Y36450D01*
X44676Y36453D01*
X44679Y36458D01*
X44683Y36465D01*
X44685Y36471D01*
X44688Y36476D01*
X44691Y36482D01*
X44695Y36489D01*
X44698Y36497D01*
X44702Y36507D01*
X44706Y36516D01*
X44710Y36527D01*
X44711Y36528D01*
X44712Y36531D01*
X44713Y36535D01*
X44715Y36540D01*
X44718Y36546D01*
X44722Y36554D01*
X44729Y36570D01*
X44739Y36586D01*
X44749Y36603D01*
X44755Y36610D01*
X44760Y36617D01*
X44766Y36624D01*
X44772Y36628D01*
X44773D01*
X44774Y36629D01*
X44776Y36630D01*
X44778Y36632D01*
X44782Y36633D01*
X44786Y36635D01*
X44791Y36637D01*
X44797Y36639D01*
X44803Y36640D01*
X44811Y36643D01*
X44820Y36644D01*
X44830Y36646D01*
X44840Y36647D01*
X44851Y36648D01*
X44863Y36649D01*
X44884D01*
X44888Y36650D01*
X44892D01*
Y36575D01*
D02*
G37*
D10*
X31673Y19695D02*
X31713D01*
X31673D02*
Y21663D01*
X31713D01*
X32894Y19695D02*
X32933D01*
Y21663D01*
X32894D02*
X32933D01*
X31289Y14144D02*
X31398D01*
X30256D02*
X30364D01*
X31289Y16230D02*
X31398D01*
X30256D02*
X30364D01*
X31398Y14144D02*
Y16230D01*
X30256Y14144D02*
Y16230D01*
X31614Y13425D02*
Y14134D01*
X33543Y13425D02*
Y14134D01*
X27382Y17185D02*
X30020D01*
X27382D02*
Y17618D01*
X30020Y17185D02*
Y17618D01*
X27215Y14734D02*
Y15167D01*
X26585Y14734D02*
Y15167D01*
X31821Y16693D02*
X34026D01*
X31821Y15197D02*
X34026D01*
Y16506D02*
Y16693D01*
Y15197D02*
Y15384D01*
X31821Y16506D02*
Y16693D01*
Y15197D02*
Y15384D01*
X26358Y14734D02*
Y15167D01*
X25728Y14734D02*
Y15167D01*
X26093Y16919D02*
X26526D01*
X26093Y16289D02*
X26526D01*
X21594Y17677D02*
Y18543D01*
X20413Y17677D02*
Y18543D01*
X23819Y15994D02*
Y16102D01*
Y14961D02*
Y15069D01*
X21732Y15994D02*
Y16102D01*
Y14961D02*
Y15069D01*
Y16102D02*
X23819D01*
X21732Y14961D02*
X23819D01*
X34862Y19331D02*
Y21693D01*
X37224Y19331D02*
Y21693D01*
X34862Y19331D02*
X37224D01*
X34862Y21693D02*
X37224D01*
X36358Y13199D02*
Y13553D01*
X35256Y13199D02*
Y13553D01*
X37953Y13199D02*
Y13553D01*
X36850Y13199D02*
Y13553D01*
X20797Y21211D02*
X21004D01*
X20738Y21152D02*
X20797Y21211D01*
X35928Y17329D02*
X35876Y17382D01*
X35771D01*
X35719Y17329D01*
Y17119D01*
X35771Y17067D01*
X35876D01*
X35928Y17119D01*
X36033Y17067D02*
X36138D01*
X36086D01*
Y17382D01*
X36033Y17329D01*
X36296D02*
X36348Y17382D01*
X36453D01*
X36506Y17329D01*
Y17119D01*
X36453Y17067D01*
X36348D01*
X36296Y17119D01*
Y17329D01*
X36106Y16621D02*
X36053Y16673D01*
X35948D01*
X35896Y16621D01*
Y16411D01*
X35948Y16358D01*
X36053D01*
X36106Y16411D01*
X36211Y16621D02*
X36263Y16673D01*
X36368D01*
X36420Y16621D01*
Y16568D01*
X36368Y16516D01*
X36315D01*
X36368D01*
X36420Y16463D01*
Y16411D01*
X36368Y16358D01*
X36263D01*
X36211Y16411D01*
X36525Y16621D02*
X36578Y16673D01*
X36683D01*
X36735Y16621D01*
Y16411D01*
X36683Y16358D01*
X36578D01*
X36525Y16411D01*
Y16621D01*
X30020Y13474D02*
Y13789D01*
X30177D01*
X30230Y13737D01*
Y13632D01*
X30177Y13579D01*
X30020D01*
X30125D02*
X30230Y13474D01*
X30335Y13737D02*
X30387Y13789D01*
X30492D01*
X30544Y13737D01*
Y13684D01*
X30492Y13632D01*
X30544Y13579D01*
Y13527D01*
X30492Y13474D01*
X30387D01*
X30335Y13527D01*
Y13579D01*
X30387Y13632D01*
X30335Y13684D01*
Y13737D01*
X30387Y13632D02*
X30492D01*
X30768Y13474D02*
Y13789D01*
X30925D01*
X30978Y13737D01*
Y13632D01*
X30925Y13579D01*
X30768D01*
X30873D02*
X30978Y13474D01*
X31083D02*
X31188D01*
X31135D01*
Y13789D01*
X31083Y13737D01*
X31345Y13474D02*
X31450D01*
X31397D01*
Y13789D01*
X31345Y13737D01*
X32149Y22110D02*
Y22319D01*
X32096Y22372D01*
X31991D01*
X31939Y22319D01*
Y22110D01*
X31991Y22057D01*
X32096D01*
X32044Y22162D02*
X32149Y22057D01*
X32096D02*
X32149Y22110D01*
X32254Y22057D02*
Y22372D01*
X32411D01*
X32464Y22319D01*
Y22215D01*
X32411Y22162D01*
X32254D01*
X32359D02*
X32464Y22057D01*
X32569D02*
X32674D01*
X32621D01*
Y22372D01*
X32569Y22319D01*
X30555Y21283D02*
X30502Y21230D01*
Y21125D01*
X30555Y21073D01*
X30764D01*
X30817Y21125D01*
Y21230D01*
X30764Y21283D01*
X30817Y21388D02*
Y21493D01*
Y21440D01*
X30502D01*
X30555Y21388D01*
Y21650D02*
X30502Y21703D01*
Y21808D01*
X30555Y21860D01*
X30607D01*
X30659Y21808D01*
Y21755D01*
Y21808D01*
X30712Y21860D01*
X30764D01*
X30817Y21808D01*
Y21703D01*
X30764Y21650D01*
X30544Y19777D02*
X30491Y19724D01*
Y19619D01*
X30544Y19567D01*
X30754D01*
X30806Y19619D01*
Y19724D01*
X30754Y19777D01*
X30806Y19882D02*
Y19987D01*
Y19934D01*
X30491D01*
X30544Y19882D01*
X30806Y20354D02*
Y20144D01*
X30596Y20354D01*
X30544D01*
X30491Y20302D01*
Y20197D01*
X30544Y20144D01*
X27677Y14178D02*
Y13968D01*
X27782Y13863D01*
X27887Y13968D01*
Y14178D01*
X27992D02*
X28202D01*
X28097D01*
Y13863D01*
X28464D02*
Y14178D01*
X28307Y14020D01*
X28517D01*
X28258Y16762D02*
Y16552D01*
X28363Y16447D01*
X28468Y16552D01*
Y16762D01*
X28573D02*
X28783D01*
X28678D01*
Y16447D01*
X28888Y16709D02*
X28940Y16762D01*
X29045D01*
X29097Y16709D01*
Y16657D01*
X29045Y16604D01*
X28993D01*
X29045D01*
X29097Y16552D01*
Y16499D01*
X29045Y16447D01*
X28940D01*
X28888Y16499D01*
X27963Y22805D02*
Y22595D01*
X28068Y22490D01*
X28173Y22595D01*
Y22805D01*
X28277D02*
X28487D01*
X28382D01*
Y22490D01*
X28802D02*
X28592D01*
X28802Y22700D01*
Y22753D01*
X28750Y22805D01*
X28645D01*
X28592Y22753D01*
X29632Y12838D02*
X29422D01*
X29317Y12733D01*
X29422Y12628D01*
X29632D01*
Y12523D02*
Y12313D01*
Y12418D01*
X29317D01*
Y12208D02*
Y12103D01*
Y12156D01*
X29632D01*
X29580Y12208D01*
X21722Y16673D02*
Y16463D01*
X21827Y16358D01*
X21932Y16463D01*
Y16673D01*
X22037D02*
Y16358D01*
X22195D01*
X22247Y16411D01*
Y16621D01*
X22195Y16673D01*
X22037D01*
X22562D02*
X22457Y16621D01*
X22352Y16516D01*
Y16411D01*
X22405Y16358D01*
X22510D01*
X22562Y16411D01*
Y16463D01*
X22510Y16516D01*
X22352D01*
X24498Y16211D02*
Y16001D01*
X24603Y15896D01*
X24708Y16001D01*
Y16211D01*
X24813D02*
Y15896D01*
X24970D01*
X25023Y15948D01*
Y16158D01*
X24970Y16211D01*
X24813D01*
X25338D02*
X25128D01*
Y16053D01*
X25233Y16106D01*
X25285D01*
X25338Y16053D01*
Y15948D01*
X25285Y15896D01*
X25180D01*
X25128Y15948D01*
X29006Y14178D02*
Y13968D01*
X29111Y13863D01*
X29216Y13968D01*
Y14178D01*
X29321D02*
Y13863D01*
X29478D01*
X29531Y13915D01*
Y14125D01*
X29478Y14178D01*
X29321D01*
X29793Y13863D02*
Y14178D01*
X29636Y14020D01*
X29846D01*
X34695Y15581D02*
X34905D01*
X35010Y15686D01*
X34905Y15791D01*
X34695D01*
Y15896D02*
X35010D01*
Y16053D01*
X34957Y16105D01*
X34747D01*
X34695Y16053D01*
Y15896D01*
X34747Y16210D02*
X34695Y16263D01*
Y16368D01*
X34747Y16420D01*
X34800D01*
X34852Y16368D01*
Y16315D01*
Y16368D01*
X34905Y16420D01*
X34957D01*
X35010Y16368D01*
Y16263D01*
X34957Y16210D01*
X30443Y16998D02*
Y16788D01*
X30548Y16683D01*
X30653Y16788D01*
Y16998D01*
X30758D02*
Y16683D01*
X30915D01*
X30968Y16736D01*
Y16945D01*
X30915Y16998D01*
X30758D01*
X31283Y16683D02*
X31073D01*
X31283Y16893D01*
Y16945D01*
X31230Y16998D01*
X31125D01*
X31073Y16945D01*
X37362Y14774D02*
X37572D01*
X37677Y14879D01*
X37572Y14984D01*
X37362D01*
Y15088D02*
X37677D01*
Y15246D01*
X37625Y15298D01*
X37415D01*
X37362Y15246D01*
Y15088D01*
X37677Y15403D02*
Y15508D01*
Y15456D01*
X37362D01*
X37415Y15403D01*
X18061Y19744D02*
X17746D01*
Y19902D01*
X17799Y19954D01*
X17904D01*
X17956Y19902D01*
Y19744D01*
Y19849D02*
X18061Y19954D01*
Y20269D02*
Y20059D01*
X17851Y20269D01*
X17799D01*
X17746Y20216D01*
Y20111D01*
X17799Y20059D01*
Y20374D02*
X17746Y20426D01*
Y20531D01*
X17799Y20584D01*
X17851D01*
X17904Y20531D01*
Y20479D01*
Y20531D01*
X17956Y20584D01*
X18009D01*
X18061Y20531D01*
Y20426D01*
X18009Y20374D01*
X18061Y21024D02*
X17746D01*
Y21181D01*
X17799Y21234D01*
X17904D01*
X17956Y21181D01*
Y21024D01*
Y21129D02*
X18061Y21234D01*
Y21548D02*
Y21338D01*
X17851Y21548D01*
X17799D01*
X17746Y21496D01*
Y21391D01*
X17799Y21338D01*
X18061Y21863D02*
Y21653D01*
X17851Y21863D01*
X17799D01*
X17746Y21811D01*
Y21706D01*
X17799Y21653D01*
X23504Y13465D02*
Y13779D01*
X23661D01*
X23714Y13727D01*
Y13622D01*
X23661Y13570D01*
X23504D01*
X23609D02*
X23714Y13465D01*
X24029D02*
X23819D01*
X24029Y13674D01*
Y13727D01*
X23976Y13779D01*
X23871D01*
X23819Y13727D01*
X24134Y13465D02*
X24239D01*
X24186D01*
Y13779D01*
X24134Y13727D01*
X19429Y19990D02*
X19114D01*
Y20148D01*
X19167Y20200D01*
X19272D01*
X19324Y20148D01*
Y19990D01*
Y20095D02*
X19429Y20200D01*
Y20515D02*
Y20305D01*
X19219Y20515D01*
X19167D01*
X19114Y20462D01*
Y20357D01*
X19167Y20305D01*
Y20620D02*
X19114Y20672D01*
Y20777D01*
X19167Y20830D01*
X19377D01*
X19429Y20777D01*
Y20672D01*
X19377Y20620D01*
X19167D01*
X19596Y16772D02*
Y17087D01*
X19754D01*
X19806Y17034D01*
Y16929D01*
X19754Y16877D01*
X19596D01*
X19701D02*
X19806Y16772D01*
X19911D02*
X20016D01*
X19964D01*
Y17087D01*
X19911Y17034D01*
X20174Y16824D02*
X20226Y16772D01*
X20331D01*
X20384Y16824D01*
Y17034D01*
X20331Y17087D01*
X20226D01*
X20174Y17034D01*
Y16982D01*
X20226Y16929D01*
X20384D01*
X22254Y13415D02*
Y13730D01*
X22411D01*
X22464Y13678D01*
Y13573D01*
X22411Y13520D01*
X22254D01*
X22359D02*
X22464Y13415D01*
X22569D02*
X22674D01*
X22621D01*
Y13730D01*
X22569Y13678D01*
X22831D02*
X22884Y13730D01*
X22989D01*
X23041Y13678D01*
Y13625D01*
X22989Y13573D01*
X23041Y13520D01*
Y13468D01*
X22989Y13415D01*
X22884D01*
X22831Y13468D01*
Y13520D01*
X22884Y13573D01*
X22831Y13625D01*
Y13678D01*
X22884Y13573D02*
X22989D01*
X25994Y17136D02*
Y17451D01*
X26152D01*
X26204Y17398D01*
Y17293D01*
X26152Y17241D01*
X25994D01*
X26099D02*
X26204Y17136D01*
X26309D02*
X26414D01*
X26361D01*
Y17451D01*
X26309Y17398D01*
X26571Y17451D02*
X26781D01*
Y17398D01*
X26571Y17188D01*
Y17136D01*
X25561Y13740D02*
Y14055D01*
X25718D01*
X25771Y14003D01*
Y13898D01*
X25718Y13845D01*
X25561D01*
X25666D02*
X25771Y13740D01*
X25876D02*
X25981D01*
X25928D01*
Y14055D01*
X25876Y14003D01*
X26348Y14055D02*
X26243Y14003D01*
X26138Y13898D01*
Y13793D01*
X26191Y13740D01*
X26296D01*
X26348Y13793D01*
Y13845D01*
X26296Y13898D01*
X26138D01*
X26555Y13740D02*
Y14055D01*
X26713D01*
X26765Y14003D01*
Y13898D01*
X26713Y13845D01*
X26555D01*
X26660D02*
X26765Y13740D01*
X26870D02*
X26975D01*
X26922D01*
Y14055D01*
X26870Y14003D01*
X27342Y14055D02*
X27132D01*
Y13898D01*
X27237Y13950D01*
X27290D01*
X27342Y13898D01*
Y13793D01*
X27290Y13740D01*
X27185D01*
X27132Y13793D01*
X14606Y24478D02*
Y24793D01*
X14764D01*
X14816Y24741D01*
Y24636D01*
X14764Y24583D01*
X14606D01*
X14711D02*
X14816Y24478D01*
X14921D02*
X15026D01*
X14974D01*
Y24793D01*
X14921Y24741D01*
X15341Y24478D02*
Y24793D01*
X15184Y24636D01*
X15393D01*
X29518Y22756D02*
Y23071D01*
X29675D01*
X29728Y23018D01*
Y22913D01*
X29675Y22861D01*
X29518D01*
X29623D02*
X29728Y22756D01*
X29833D02*
X29938D01*
X29885D01*
Y23071D01*
X29833Y23018D01*
X30095D02*
X30147Y23071D01*
X30252D01*
X30305Y23018D01*
Y22966D01*
X30252Y22913D01*
X30200D01*
X30252D01*
X30305Y22861D01*
Y22808D01*
X30252Y22756D01*
X30147D01*
X30095Y22808D01*
X16654Y23907D02*
Y24222D01*
X16811D01*
X16863Y24170D01*
Y24065D01*
X16811Y24012D01*
X16654D01*
X16759D02*
X16863Y23907D01*
X16968D02*
X17073D01*
X17021D01*
Y24222D01*
X16968Y24170D01*
X17441Y23907D02*
X17231D01*
X17441Y24117D01*
Y24170D01*
X17388Y24222D01*
X17283D01*
X17231Y24170D01*
X37402Y18307D02*
Y18622D01*
X37559D01*
X37611Y18569D01*
Y18465D01*
X37559Y18412D01*
X37402D01*
X37507D02*
X37611Y18307D01*
X37716D02*
X37821D01*
X37769D01*
Y18622D01*
X37716Y18569D01*
X37979D02*
X38031Y18622D01*
X38136D01*
X38189Y18569D01*
Y18360D01*
X38136Y18307D01*
X38031D01*
X37979Y18360D01*
Y18569D01*
X29124Y13248D02*
Y13563D01*
X29281D01*
X29334Y13510D01*
Y13405D01*
X29281Y13353D01*
X29124D01*
X29229D02*
X29334Y13248D01*
X29439Y13301D02*
X29491Y13248D01*
X29596D01*
X29649Y13301D01*
Y13510D01*
X29596Y13563D01*
X29491D01*
X29439Y13510D01*
Y13458D01*
X29491Y13405D01*
X29649D01*
X23878Y12441D02*
Y12756D01*
X24035D01*
X24088Y12703D01*
Y12598D01*
X24035Y12546D01*
X23878D01*
X23983D02*
X24088Y12441D01*
X24193Y12703D02*
X24245Y12756D01*
X24350D01*
X24403Y12703D01*
Y12651D01*
X24350Y12598D01*
X24298D01*
X24350D01*
X24403Y12546D01*
Y12493D01*
X24350Y12441D01*
X24245D01*
X24193Y12493D01*
X24941Y11142D02*
X24626D01*
Y11299D01*
X24679Y11352D01*
X24784D01*
X24836Y11299D01*
Y11142D01*
Y11247D02*
X24941Y11352D01*
Y11667D02*
Y11457D01*
X24731Y11667D01*
X24679D01*
X24626Y11614D01*
Y11509D01*
X24679Y11457D01*
X20020Y12648D02*
X19705D01*
Y12805D01*
X19757Y12858D01*
X19862D01*
X19915Y12805D01*
Y12648D01*
Y12753D02*
X20020Y12858D01*
Y12962D02*
Y13067D01*
Y13015D01*
X19705D01*
X19757Y12962D01*
X20758Y13858D02*
Y13543D01*
X20968D01*
X21073D02*
X21178D01*
X21125D01*
Y13858D01*
X21073Y13806D01*
X33780Y13537D02*
Y13327D01*
X33937D01*
Y13432D01*
Y13327D01*
X34094D01*
X33780Y13642D02*
X34042D01*
X34094Y13694D01*
Y13799D01*
X34042Y13852D01*
X33780D01*
X33832Y13956D02*
X33780Y14009D01*
Y14114D01*
X33832Y14166D01*
X33885D01*
X33937Y14114D01*
Y14061D01*
Y14114D01*
X33990Y14166D01*
X34042D01*
X34094Y14114D01*
Y14009D01*
X34042Y13956D01*
X38100Y13222D02*
Y13012D01*
X38258D01*
Y13117D01*
Y13012D01*
X38415D01*
X38100Y13327D02*
X38363D01*
X38415Y13379D01*
Y13484D01*
X38363Y13537D01*
X38100D01*
X38415Y13851D02*
Y13642D01*
X38205Y13851D01*
X38153D01*
X38100Y13799D01*
Y13694D01*
X38153Y13642D01*
X34744Y13222D02*
Y13012D01*
X34902D01*
Y13117D01*
Y13012D01*
X35059D01*
X34744Y13327D02*
X35007D01*
X35059Y13379D01*
Y13484D01*
X35007Y13537D01*
X34744D01*
X35059Y13642D02*
Y13746D01*
Y13694D01*
X34744D01*
X34797Y13642D01*
X24715Y24675D02*
Y24360D01*
X24872D01*
X24924Y24413D01*
Y24623D01*
X24872Y24675D01*
X24715D01*
X25029D02*
Y24360D01*
X25187D01*
X25239Y24413D01*
Y24623D01*
X25187Y24675D01*
X25029D01*
X25344Y24623D02*
X25397Y24675D01*
X25502D01*
X25554Y24623D01*
Y24570D01*
X25502Y24518D01*
X25449D01*
X25502D01*
X25554Y24465D01*
Y24413D01*
X25502Y24360D01*
X25397D01*
X25344Y24413D01*
X22274Y22028D02*
X22589D01*
Y22185D01*
X22536Y22237D01*
X22326D01*
X22274Y22185D01*
Y22028D01*
Y22342D02*
X22589D01*
Y22500D01*
X22536Y22552D01*
X22326D01*
X22274Y22500D01*
Y22342D01*
X22589Y22867D02*
Y22657D01*
X22379Y22867D01*
X22326D01*
X22274Y22815D01*
Y22710D01*
X22326Y22657D01*
X34138Y23132D02*
Y22817D01*
X34296D01*
X34348Y22869D01*
Y23079D01*
X34296Y23132D01*
X34138D01*
X34453D02*
Y22817D01*
X34611D01*
X34663Y22869D01*
Y23079D01*
X34611Y23132D01*
X34453D01*
X34768Y22817D02*
X34873D01*
X34820D01*
Y23132D01*
X34768Y23079D01*
X15837Y21338D02*
Y21024D01*
X15994D01*
X16047Y21076D01*
Y21286D01*
X15994Y21338D01*
X15837D01*
X16151Y21024D02*
Y21234D01*
X16256Y21338D01*
X16361Y21234D01*
Y21024D01*
Y21181D01*
X16151D01*
X16676Y21338D02*
X16571Y21286D01*
X16466Y21181D01*
Y21076D01*
X16519Y21024D01*
X16624D01*
X16676Y21076D01*
Y21129D01*
X16624Y21181D01*
X16466D01*
X21998Y19291D02*
Y18976D01*
X22155D01*
X22208Y19029D01*
Y19239D01*
X22155Y19291D01*
X21998D01*
X22313Y18976D02*
Y19186D01*
X22418Y19291D01*
X22523Y19186D01*
Y18976D01*
Y19134D01*
X22313D01*
X22838Y19291D02*
X22628D01*
Y19134D01*
X22733Y19186D01*
X22785D01*
X22838Y19134D01*
Y19029D01*
X22785Y18976D01*
X22680D01*
X22628Y19029D01*
X37461Y27096D02*
Y26781D01*
X37618D01*
X37671Y26834D01*
Y27044D01*
X37618Y27096D01*
X37461D01*
X37775Y26781D02*
Y26991D01*
X37880Y27096D01*
X37985Y26991D01*
Y26781D01*
Y26939D01*
X37775D01*
X38248Y26781D02*
Y27096D01*
X38090Y26939D01*
X38300D01*
X42362Y23711D02*
X42677D01*
Y23868D01*
X42625Y23921D01*
X42415D01*
X42362Y23868D01*
Y23711D01*
X42677Y24025D02*
X42467D01*
X42362Y24130D01*
X42467Y24235D01*
X42677D01*
X42520D01*
Y24025D01*
X42415Y24340D02*
X42362Y24393D01*
Y24498D01*
X42415Y24550D01*
X42467D01*
X42520Y24498D01*
Y24445D01*
Y24498D01*
X42572Y24550D01*
X42625D01*
X42677Y24498D01*
Y24393D01*
X42625Y24340D01*
X45098Y29045D02*
Y28730D01*
X45256D01*
X45308Y28783D01*
Y28993D01*
X45256Y29045D01*
X45098D01*
X45413Y28730D02*
Y28940D01*
X45518Y29045D01*
X45623Y28940D01*
Y28730D01*
Y28888D01*
X45413D01*
X45938Y28730D02*
X45728D01*
X45938Y28940D01*
Y28993D01*
X45886Y29045D01*
X45781D01*
X45728Y28993D01*
X41939Y31407D02*
Y31093D01*
X42096D01*
X42149Y31145D01*
Y31355D01*
X42096Y31407D01*
X41939D01*
X42254Y31093D02*
Y31302D01*
X42359Y31407D01*
X42464Y31302D01*
Y31093D01*
Y31250D01*
X42254D01*
X42569Y31093D02*
X42674D01*
X42621D01*
Y31407D01*
X42569Y31355D01*
X17365Y19091D02*
X17313Y19144D01*
X17208D01*
X17156Y19091D01*
Y18881D01*
X17208Y18829D01*
X17313D01*
X17365Y18881D01*
X17680Y18829D02*
X17470D01*
X17680Y19039D01*
Y19091D01*
X17628Y19144D01*
X17523D01*
X17470Y19091D01*
X17785Y19144D02*
X17995D01*
Y19091D01*
X17785Y18881D01*
Y18829D01*
X14127Y18510D02*
X14075Y18563D01*
X13970D01*
X13917Y18510D01*
Y18301D01*
X13970Y18248D01*
X14075D01*
X14127Y18301D01*
X14442Y18248D02*
X14232D01*
X14442Y18458D01*
Y18510D01*
X14390Y18563D01*
X14285D01*
X14232Y18510D01*
X14757Y18563D02*
X14652Y18510D01*
X14547Y18405D01*
Y18301D01*
X14600Y18248D01*
X14704D01*
X14757Y18301D01*
Y18353D01*
X14704Y18405D01*
X14547D01*
X14541Y19160D02*
X14488Y19212D01*
X14383D01*
X14331Y19160D01*
Y18950D01*
X14383Y18898D01*
X14488D01*
X14541Y18950D01*
X14855Y18898D02*
X14646D01*
X14855Y19108D01*
Y19160D01*
X14803Y19212D01*
X14698D01*
X14646Y19160D01*
X15170Y19212D02*
X14960D01*
Y19055D01*
X15065Y19108D01*
X15118D01*
X15170Y19055D01*
Y18950D01*
X15118Y18898D01*
X15013D01*
X14960Y18950D01*
X14590Y21217D02*
X14537Y21270D01*
X14432D01*
X14380Y21217D01*
Y21007D01*
X14432Y20955D01*
X14537D01*
X14590Y21007D01*
X14905Y20955D02*
X14695D01*
X14905Y21165D01*
Y21217D01*
X14852Y21270D01*
X14747D01*
X14695Y21217D01*
X15167Y20955D02*
Y21270D01*
X15010Y21112D01*
X15220D01*
X18458Y19176D02*
X18406Y19124D01*
Y19019D01*
X18458Y18967D01*
X18668D01*
X18720Y19019D01*
Y19124D01*
X18668Y19176D01*
X18720Y19491D02*
Y19281D01*
X18511Y19491D01*
X18458D01*
X18406Y19439D01*
Y19334D01*
X18458Y19281D01*
Y19596D02*
X18406Y19649D01*
Y19754D01*
X18458Y19806D01*
X18511D01*
X18563Y19754D01*
Y19701D01*
Y19754D01*
X18616Y19806D01*
X18668D01*
X18720Y19754D01*
Y19649D01*
X18668Y19596D01*
X19137Y19117D02*
X19085Y19065D01*
Y18960D01*
X19137Y18907D01*
X19347D01*
X19400Y18960D01*
Y19065D01*
X19347Y19117D01*
X19400Y19432D02*
Y19222D01*
X19190Y19432D01*
X19137D01*
X19085Y19380D01*
Y19275D01*
X19137Y19222D01*
X19400Y19747D02*
Y19537D01*
X19190Y19747D01*
X19137D01*
X19085Y19695D01*
Y19590D01*
X19137Y19537D01*
X21302Y21286D02*
X21250Y21338D01*
X21145D01*
X21093Y21286D01*
Y21076D01*
X21145Y21024D01*
X21250D01*
X21302Y21076D01*
X21617Y21024D02*
X21407D01*
X21617Y21234D01*
Y21286D01*
X21565Y21338D01*
X21460D01*
X21407Y21286D01*
X21722Y21024D02*
X21827D01*
X21775D01*
Y21338D01*
X21722Y21286D01*
X21627Y19924D02*
X21575Y19872D01*
Y19767D01*
X21627Y19715D01*
X21837D01*
X21890Y19767D01*
Y19872D01*
X21837Y19924D01*
X21890Y20239D02*
Y20029D01*
X21680Y20239D01*
X21627D01*
X21575Y20187D01*
Y20082D01*
X21627Y20029D01*
Y20344D02*
X21575Y20397D01*
Y20502D01*
X21627Y20554D01*
X21837D01*
X21890Y20502D01*
Y20397D01*
X21837Y20344D01*
X21627D01*
X23330Y18481D02*
X23278Y18533D01*
X23173D01*
X23120Y18481D01*
Y18271D01*
X23173Y18218D01*
X23278D01*
X23330Y18271D01*
X23435Y18218D02*
X23540D01*
X23487D01*
Y18533D01*
X23435Y18481D01*
X23697Y18271D02*
X23750Y18218D01*
X23855D01*
X23907Y18271D01*
Y18481D01*
X23855Y18533D01*
X23750D01*
X23697Y18481D01*
Y18428D01*
X23750Y18376D01*
X23907D01*
X25535Y17356D02*
X25482Y17303D01*
Y17198D01*
X25535Y17146D01*
X25745D01*
X25797Y17198D01*
Y17303D01*
X25745Y17356D01*
X25797Y17461D02*
Y17565D01*
Y17513D01*
X25482D01*
X25535Y17461D01*
Y17723D02*
X25482Y17775D01*
Y17880D01*
X25535Y17933D01*
X25587D01*
X25640Y17880D01*
X25692Y17933D01*
X25745D01*
X25797Y17880D01*
Y17775D01*
X25745Y17723D01*
X25692D01*
X25640Y17775D01*
X25587Y17723D01*
X25535D01*
X25640Y17775D02*
Y17880D01*
X16381Y15607D02*
X16329Y15659D01*
X16224D01*
X16171Y15607D01*
Y15397D01*
X16224Y15344D01*
X16329D01*
X16381Y15397D01*
X16486Y15344D02*
X16591D01*
X16539D01*
Y15659D01*
X16486Y15607D01*
X16748Y15659D02*
X16958D01*
Y15607D01*
X16748Y15397D01*
Y15344D01*
X18222Y12848D02*
X18169Y12795D01*
Y12690D01*
X18222Y12638D01*
X18432D01*
X18484Y12690D01*
Y12795D01*
X18432Y12848D01*
X18484Y12953D02*
Y13058D01*
Y13005D01*
X18169D01*
X18222Y12953D01*
X18169Y13425D02*
X18222Y13320D01*
X18327Y13215D01*
X18432D01*
X18484Y13268D01*
Y13372D01*
X18432Y13425D01*
X18379D01*
X18327Y13372D01*
Y13215D01*
X22572Y17946D02*
X22520Y17894D01*
Y17789D01*
X22572Y17736D01*
X22782D01*
X22835Y17789D01*
Y17894D01*
X22782Y17946D01*
X22835Y18051D02*
Y18156D01*
Y18104D01*
X22520D01*
X22572Y18051D01*
X22520Y18523D02*
Y18313D01*
X22677D01*
X22625Y18418D01*
Y18471D01*
X22677Y18523D01*
X22782D01*
X22835Y18471D01*
Y18366D01*
X22782Y18313D01*
X32454Y18048D02*
X32401Y18100D01*
X32297D01*
X32244Y18048D01*
Y17838D01*
X32297Y17785D01*
X32401D01*
X32454Y17838D01*
X32559Y17785D02*
X32664D01*
X32611D01*
Y18100D01*
X32559Y18048D01*
X32979Y17785D02*
Y18100D01*
X32821Y17943D01*
X33031D01*
X23566Y23645D02*
X23514Y23592D01*
Y23488D01*
X23566Y23435D01*
X23776D01*
X23829Y23488D01*
Y23592D01*
X23776Y23645D01*
X23829Y23960D02*
Y23750D01*
X23619Y23960D01*
X23566D01*
X23514Y23907D01*
Y23802D01*
X23566Y23750D01*
X23776Y24065D02*
X23829Y24117D01*
Y24222D01*
X23776Y24275D01*
X23566D01*
X23514Y24222D01*
Y24117D01*
X23566Y24065D01*
X23619D01*
X23671Y24117D01*
Y24275D01*
X21263Y24268D02*
X21211Y24321D01*
X21106D01*
X21053Y24268D01*
Y24058D01*
X21106Y24006D01*
X21211D01*
X21263Y24058D01*
X21578Y24006D02*
X21368D01*
X21578Y24216D01*
Y24268D01*
X21525Y24321D01*
X21420D01*
X21368Y24268D01*
X21683D02*
X21735Y24321D01*
X21840D01*
X21893Y24268D01*
Y24216D01*
X21840Y24163D01*
X21893Y24111D01*
Y24058D01*
X21840Y24006D01*
X21735D01*
X21683Y24058D01*
Y24111D01*
X21735Y24163D01*
X21683Y24216D01*
Y24268D01*
X21735Y24163D02*
X21840D01*
X14442Y22920D02*
X14390Y22972D01*
X14285D01*
X14232Y22920D01*
Y22710D01*
X14285Y22657D01*
X14390D01*
X14442Y22710D01*
X14547Y22657D02*
X14652D01*
X14600D01*
Y22972D01*
X14547Y22920D01*
X14810Y22657D02*
X14914D01*
X14862D01*
Y22972D01*
X14810Y22920D01*
X34757Y18176D02*
X34705Y18228D01*
X34600D01*
X34547Y18176D01*
Y17966D01*
X34600Y17913D01*
X34705D01*
X34757Y17966D01*
X34862D02*
X34915Y17913D01*
X35019D01*
X35072Y17966D01*
Y18176D01*
X35019Y18228D01*
X34915D01*
X34862Y18176D01*
Y18123D01*
X34915Y18071D01*
X35072D01*
X36027Y24573D02*
X35974Y24626D01*
X35869D01*
X35817Y24573D01*
Y24364D01*
X35869Y24311D01*
X35974D01*
X36027Y24364D01*
X36132Y24573D02*
X36184Y24626D01*
X36289D01*
X36342Y24573D01*
Y24521D01*
X36289Y24468D01*
X36342Y24416D01*
Y24364D01*
X36289Y24311D01*
X36184D01*
X36132Y24364D01*
Y24416D01*
X36184Y24468D01*
X36132Y24521D01*
Y24573D01*
X36184Y24468D02*
X36289D01*
X33025Y18520D02*
X32972Y18573D01*
X32867D01*
X32815Y18520D01*
Y18310D01*
X32867Y18258D01*
X32972D01*
X33025Y18310D01*
X33130Y18573D02*
X33340D01*
Y18520D01*
X33130Y18310D01*
Y18258D01*
X35919Y26837D02*
X35866Y26890D01*
X35761D01*
X35709Y26837D01*
Y26627D01*
X35761Y26575D01*
X35866D01*
X35919Y26627D01*
X36233Y26890D02*
X36128Y26837D01*
X36024Y26732D01*
Y26627D01*
X36076Y26575D01*
X36181D01*
X36233Y26627D01*
Y26680D01*
X36181Y26732D01*
X36024D01*
X39787Y23871D02*
X39734Y23819D01*
Y23714D01*
X39787Y23661D01*
X39997D01*
X40049Y23714D01*
Y23819D01*
X39997Y23871D01*
X39734Y24186D02*
Y23976D01*
X39892D01*
X39839Y24081D01*
Y24134D01*
X39892Y24186D01*
X39997D01*
X40049Y24134D01*
Y24029D01*
X39997Y23976D01*
X45554Y26325D02*
X45502Y26378D01*
X45397D01*
X45344Y26325D01*
Y26115D01*
X45397Y26063D01*
X45502D01*
X45554Y26115D01*
X45817Y26063D02*
Y26378D01*
X45659Y26220D01*
X45869D01*
X42218Y33668D02*
X42165Y33720D01*
X42060D01*
X42008Y33668D01*
Y33458D01*
X42060Y33406D01*
X42165D01*
X42218Y33458D01*
X42323Y33668D02*
X42375Y33720D01*
X42480D01*
X42533Y33668D01*
Y33615D01*
X42480Y33563D01*
X42428D01*
X42480D01*
X42533Y33510D01*
Y33458D01*
X42480Y33406D01*
X42375D01*
X42323Y33458D01*
X24964Y13924D02*
X24911Y13976D01*
X24806D01*
X24754Y13924D01*
Y13714D01*
X24806Y13661D01*
X24911D01*
X24964Y13714D01*
X25279Y13661D02*
X25069D01*
X25279Y13871D01*
Y13924D01*
X25226Y13976D01*
X25121D01*
X25069Y13924D01*
X26755Y12762D02*
X26703Y12815D01*
X26598D01*
X26545Y12762D01*
Y12552D01*
X26598Y12500D01*
X26703D01*
X26755Y12552D01*
X26860Y12500D02*
X26965D01*
X26913D01*
Y12815D01*
X26860Y12762D01*
X26909Y24439D02*
X26516D01*
Y24144D01*
X26713D01*
X26516D01*
Y23848D01*
X27106Y24439D02*
Y23947D01*
X27204Y23848D01*
X27401D01*
X27500Y23947D01*
Y24439D01*
X28090D02*
X27696D01*
Y23848D01*
X28090D01*
X27696Y24144D02*
X27893D01*
X28287Y24439D02*
Y23848D01*
X28680D01*
X29861Y24340D02*
X29763Y24439D01*
X29566D01*
X29468Y24340D01*
Y23947D01*
X29566Y23848D01*
X29763D01*
X29861Y23947D01*
X30353Y24439D02*
X30156D01*
X30058Y24340D01*
Y23947D01*
X30156Y23848D01*
X30353D01*
X30451Y23947D01*
Y24340D01*
X30353Y24439D01*
X30648D02*
Y23947D01*
X30747Y23848D01*
X30943D01*
X31042Y23947D01*
Y24439D01*
X31239Y23848D02*
Y24439D01*
X31632Y23848D01*
Y24439D01*
X31829D02*
X32223D01*
X32026D01*
Y23848D01*
X32813Y24439D02*
X32419D01*
Y23848D01*
X32813D01*
X32419Y24144D02*
X32616D01*
X33010Y23848D02*
Y24439D01*
X33305D01*
X33403Y24340D01*
Y24144D01*
X33305Y24045D01*
X33010D01*
X33206D02*
X33403Y23848D01*
X34584Y24340D02*
X34486Y24439D01*
X34289D01*
X34190Y24340D01*
Y24242D01*
X34289Y24144D01*
X34486D01*
X34584Y24045D01*
Y23947D01*
X34486Y23848D01*
X34289D01*
X34190Y23947D01*
X35174Y24439D02*
X34978Y24340D01*
X34781Y24144D01*
Y23947D01*
X34879Y23848D01*
X35076D01*
X35174Y23947D01*
Y24045D01*
X35076Y24144D01*
X34781D01*
D41*
X27431Y16289D02*
G03*
X27431Y16289I-49J0D01*
G01*
X21703Y19154D02*
G03*
X21703Y19154I-49J0D01*
G01*
X15750Y18980D02*
G03*
X15750Y18980I-49J0D01*
G01*
X34222Y21870D02*
G03*
X34222Y21870I-49J0D01*
G01*
D58*
X37887Y16978D02*
G03*
X37887Y17489I-608J256D01*
G01*
X36679D02*
G03*
X36680Y16978I609J-255D01*
G01*
X23917Y23211D02*
G03*
X23407Y23212I-256J-608D01*
G01*
Y22004D02*
G03*
X23917Y22004I255J609D01*
G01*
X31465Y20564D02*
G03*
X30955Y20564I-256J-608D01*
G01*
Y19356D02*
G03*
X31465Y19357I255J609D01*
G01*
X30955Y20824D02*
G03*
X31465Y20824I256J608D01*
G01*
Y22031D02*
G03*
X30955Y22031I-255J-609D01*
G01*
X21880Y17507D02*
G03*
X22391Y17507I256J608D01*
G01*
Y18714D02*
G03*
X21880Y18714I-255J-609D01*
G01*
X19173Y13448D02*
G03*
X18663Y13448I-256J-608D01*
G01*
Y12240D02*
G03*
X19173Y12241I255J609D01*
G01*
X20945Y19545D02*
G03*
X21455Y19544I256J608D01*
G01*
Y20752D02*
G03*
X20945Y20751I-255J-609D01*
G01*
X20276Y19810D02*
G03*
X20786Y19810I256J608D01*
G01*
Y21018D02*
G03*
X20276Y21017I-255J-609D01*
G01*
X18986Y17517D02*
G03*
X19497Y17517I256J608D01*
G01*
Y18724D02*
G03*
X18986Y18724I-255J-609D01*
G01*
X18307Y17517D02*
G03*
X18818Y17517I256J608D01*
G01*
Y18724D02*
G03*
X18307Y18724I-255J-609D01*
G01*
X15396Y20246D02*
G03*
X15397Y20757I-608J256D01*
G01*
X14189D02*
G03*
X14190Y20246I609J-255D01*
G01*
X16680Y18612D02*
G03*
X16680Y18102I608J-256D01*
G01*
X17888D02*
G03*
X17887Y18612I-609J255D01*
G01*
X32428Y19232D02*
G03*
X32428Y18722I608J-256D01*
G01*
X33636D02*
G03*
X33635Y19232I-609J255D01*
G01*
X35485Y17195D02*
G03*
X35485Y17705I-608J256D01*
G01*
X34278D02*
G03*
X34278Y17195I609J-255D01*
G01*
X36348Y24117D02*
G03*
X35838Y24117I-256J-608D01*
G01*
Y22910D02*
G03*
X36348Y22910I255J609D01*
G01*
X14003Y23622D02*
G03*
X14003Y23111I608J-256D01*
G01*
X15211D02*
G03*
X15210Y23622I-609J255D01*
G01*
X20820Y23888D02*
G03*
X20820Y24398I-608J256D01*
G01*
X19612D02*
G03*
X19613Y23888I609J-255D01*
G01*
X44968Y27106D02*
G03*
X44967Y26596I608J-256D01*
G01*
X46175D02*
G03*
X46175Y27106I-609J255D01*
G01*
X42926Y32756D02*
G03*
X42926Y33267I-608J256D01*
G01*
X41719D02*
G03*
X41719Y32756I609J-255D01*
G01*
X35460Y27569D02*
G03*
X35459Y27058I608J-256D01*
G01*
X36667D02*
G03*
X36667Y27569I-609J255D01*
G01*
X40768Y24530D02*
G03*
X40257Y24531I-256J-608D01*
G01*
Y23323D02*
G03*
X40768Y23323I255J609D01*
G01*
X24476Y13504D02*
G03*
X24475Y12993I608J-256D01*
G01*
X25683D02*
G03*
X25683Y13504I-609J255D01*
G01*
X27276Y11880D02*
G03*
X27277Y12391I-608J256D01*
G01*
X26069D02*
G03*
X26069Y11880I609J-255D01*
G01*
X36683Y17489D02*
X37883D01*
X36683Y16978D02*
X37884D01*
X30148Y12283D02*
X30659D01*
X30148Y13327D02*
X30659D01*
Y12283D02*
Y13327D01*
X30148Y12283D02*
Y13327D01*
X23406Y22008D02*
Y23208D01*
X23917Y22008D02*
Y23209D01*
X30787Y12283D02*
X31299D01*
X30787Y13327D02*
X31299D01*
Y12283D02*
Y13327D01*
X30787Y12283D02*
Y13327D01*
X30955Y19360D02*
Y20560D01*
X31466Y19360D02*
Y20561D01*
Y20828D02*
Y22028D01*
X30955Y20827D02*
Y22028D01*
X22391Y17511D02*
Y18711D01*
X21880Y17510D02*
Y18711D01*
X18662Y12244D02*
Y13444D01*
X19173Y12244D02*
Y13445D01*
X23150Y13907D02*
Y14419D01*
X22106Y13907D02*
Y14419D01*
X23150D01*
X22106Y13907D02*
X23150D01*
X21456Y19548D02*
Y20748D01*
X20945Y19547D02*
Y20748D01*
X18375Y16770D02*
Y17282D01*
X19418Y16770D02*
Y17282D01*
X18375Y16770D02*
X19418D01*
X18375Y17282D02*
X19418D01*
X20786Y19814D02*
Y21014D01*
X20276Y19813D02*
Y21014D01*
X19497Y17520D02*
Y18720D01*
X18986Y17520D02*
Y18720D01*
X24360Y13907D02*
Y14419D01*
X23317Y13907D02*
Y14419D01*
X24360D01*
X23317Y13907D02*
X24360D01*
X19606Y20896D02*
X20118D01*
X19606Y19852D02*
X20118D01*
X19606D02*
Y20896D01*
X20118Y19852D02*
Y20896D01*
X18818Y17520D02*
Y18720D01*
X18307Y17520D02*
Y18720D01*
X17087Y20906D02*
X17598D01*
X17087Y21949D02*
X17598D01*
Y20906D02*
Y21949D01*
X17087Y20906D02*
Y21949D01*
X14193Y20757D02*
X15393D01*
X14193Y20246D02*
X15394D01*
X16684Y18101D02*
X17884D01*
X16683Y18612D02*
X17884D01*
X17087Y19675D02*
X17598D01*
X17087Y20719D02*
X17598D01*
Y19675D02*
Y20719D01*
X17087Y19675D02*
Y20719D01*
X32432Y18721D02*
X33632D01*
X32431Y19232D02*
X33632D01*
X28957Y13120D02*
Y13632D01*
X27913Y13120D02*
Y13632D01*
X28957D01*
X27913Y13120D02*
X28957D01*
X34282Y17706D02*
X35482D01*
X34281Y17195D02*
X35482D01*
X35838Y22913D02*
Y24113D01*
X36348Y22913D02*
Y24114D01*
X38012Y17648D02*
Y18159D01*
X36969Y17648D02*
Y18159D01*
X38012D01*
X36969Y17648D02*
X38012D01*
X15463Y23799D02*
Y24311D01*
X16506Y23799D02*
Y24311D01*
X15463Y23799D02*
X16506D01*
X15463Y24311D02*
X16506D01*
X30502Y22057D02*
Y22569D01*
X29459Y22057D02*
Y22569D01*
X30502D01*
X29459Y22057D02*
X30502D01*
X14007Y23111D02*
X15207D01*
X14006Y23622D02*
X15207D01*
X14114Y23799D02*
Y24311D01*
X15157Y23799D02*
Y24311D01*
X14114Y23799D02*
X15157D01*
X14114Y24311D02*
X15157D01*
X19616Y24399D02*
X20816D01*
X19616Y23888D02*
X20817D01*
X44971Y26595D02*
X46171D01*
X44970Y27106D02*
X46171D01*
X41722Y33267D02*
X42922D01*
X41722Y32756D02*
X42923D01*
X35463Y27058D02*
X36663D01*
X35463Y27569D02*
X36663D01*
X40257Y23327D02*
Y24527D01*
X40768Y23327D02*
Y24528D01*
X19616Y11467D02*
X20128D01*
X19616Y12510D02*
X20128D01*
Y11467D02*
Y12510D01*
X19616Y11467D02*
Y12510D01*
X25620Y12323D02*
Y12835D01*
X24577Y12323D02*
Y12835D01*
X25620D01*
X24577Y12323D02*
X25620D01*
X25108Y10896D02*
X25620D01*
X25108Y11939D02*
X25620D01*
Y10896D02*
Y11939D01*
X25108Y10896D02*
Y11939D01*
X24479Y12993D02*
X25679D01*
X24478Y13504D02*
X25679D01*
X26073Y12391D02*
X27273D01*
X26073Y11880D02*
X27274D01*
D59*
X19142Y13798D02*
G03*
X20442Y13768I697J2035D01*
G01*
X20378Y16374D02*
G03*
X19185Y16370I-589J-2068D01*
G01*
X16868Y19163D02*
Y20856D01*
X15651Y19163D02*
Y20856D01*
X15660Y20860D02*
X16860D01*
X15660Y19160D02*
X16860D01*
D60*
X35374Y21299D02*
G03*
X35374Y21299I-118J0D01*
G01*
D61*
X19940Y23499D02*
G03*
X20540Y23499I300J0D01*
G01*
X24150Y22413D02*
G03*
X24131Y22972I0J280D01*
G01*
X28845Y14911D02*
Y15311D01*
X29345Y14811D02*
X29545D01*
X29745Y15311D02*
X30045D01*
Y14911D02*
Y15311D01*
X28845D02*
X29145D01*
X28645Y14821D02*
Y15221D01*
X27945Y15321D02*
X28145D01*
X27445Y14821D02*
X27745D01*
X27445D02*
Y15221D01*
X28345Y14821D02*
X28645D01*
X25515Y14733D02*
Y15133D01*
X24815Y15233D02*
X25015D01*
X24315Y14733D02*
X24615D01*
X24315D02*
Y15133D01*
X25215Y14733D02*
X25515D01*
X17986Y17521D02*
Y17721D01*
X18286Y15771D02*
Y16071D01*
X18136Y15921D02*
X18436D01*
X17986D02*
Y16121D01*
X15036Y17521D02*
Y17721D01*
Y15921D02*
Y16121D01*
Y17721D02*
X17986D01*
X15036Y15921D02*
X17986D01*
X27772Y11988D02*
Y12388D01*
X28272Y11888D02*
X28472D01*
X28672Y12388D02*
X28972D01*
Y11988D02*
Y12388D01*
X27772D02*
X28072D01*
X28075Y21070D02*
X28475D01*
X28575Y21570D02*
Y21770D01*
X28075Y21970D02*
Y22270D01*
X28475D01*
X28075Y21070D02*
Y21370D01*
X19440Y23499D02*
X19940D01*
X19440Y21499D02*
X21040D01*
Y23499D01*
X19440Y21499D02*
Y23499D01*
X20540D02*
X21040D01*
X24129Y22194D02*
Y22394D01*
Y22994D02*
Y23194D01*
X26329Y22194D02*
Y23194D01*
X24129Y22194D02*
X26329D01*
X24129Y23194D02*
X26329D01*
X45210Y27320D02*
X45610D01*
X45710Y27820D02*
Y28020D01*
X45210Y28220D02*
Y28520D01*
X45610D01*
X45210Y27320D02*
Y27620D01*
X42198Y31569D02*
Y31969D01*
X41498Y32069D02*
X41698D01*
X40998Y31569D02*
X41298D01*
X40998D02*
Y31969D01*
X41898Y31569D02*
X42198D01*
X37510Y28520D02*
X37910D01*
X37410Y27820D02*
Y28020D01*
X37910Y27320D02*
Y27620D01*
X37510Y27320D02*
X37910D01*
Y28220D02*
Y28520D01*
X40991Y23898D02*
Y24298D01*
X41491Y23798D02*
X41691D01*
X41891Y24298D02*
X42191D01*
Y23898D02*
Y24298D01*
X40991D02*
X41291D01*
X36011Y15157D02*
Y15557D01*
X36511Y15057D02*
X36711D01*
X36911Y15557D02*
X37211D01*
Y15157D02*
Y15557D01*
X36011D02*
X36311D01*
D62*
X36909Y16821D02*
X38209D01*
X36909Y16112D02*
X38209D01*
X36909D02*
Y16821D01*
X38209Y16112D02*
Y16821D01*
X14124Y19380D02*
X15423D01*
X14124Y20089D02*
X15423D01*
Y19380D02*
Y20089D01*
X14124Y19380D02*
Y20089D01*
X14882Y18002D02*
X16181D01*
X14882Y18711D02*
X16181D01*
Y18002D02*
Y18711D01*
X14882Y18002D02*
Y18711D01*
D63*
X30477Y14937D02*
X31177D01*
X30477Y15437D02*
X31177D01*
X30827D02*
X31177Y14937D01*
X30477D02*
X30827Y15437D01*
X32623Y15945D02*
X33223Y15545D01*
X32623Y15945D02*
X33223Y16345D01*
Y15545D02*
Y16345D01*
X32623Y15545D02*
Y16345D01*
X23026Y15181D02*
Y15881D01*
X22526Y15181D02*
Y15881D01*
Y15531D02*
X23026Y15881D01*
X22526Y15531D02*
X23026Y15181D01*
D64*
X32411Y17628D02*
X32766D01*
X32411Y16919D02*
X32766D01*
X22963Y17008D02*
Y17362D01*
X24026Y17008D02*
Y17362D01*
X24193Y17008D02*
Y17362D01*
X25256Y17008D02*
Y17362D01*
M02*
