G04 Layer_Color=16711935*
%FSLAX24Y24*%
%MOIN*%
G70*
G01*
G75*
%ADD67C,0.0639*%
%ADD68R,0.0639X0.0639*%
%ADD69R,0.0748X0.0748*%
%ADD70C,0.0748*%
%ADD71C,0.0669*%
G04:AMPARAMS|DCode=72|XSize=122mil|YSize=51.2mil|CornerRadius=13.8mil|HoleSize=0mil|Usage=FLASHONLY|Rotation=0.000|XOffset=0mil|YOffset=0mil|HoleType=Round|Shape=RoundedRectangle|*
%AMROUNDEDRECTD72*
21,1,0.1220,0.0236,0,0,0.0*
21,1,0.0945,0.0512,0,0,0.0*
1,1,0.0276,0.0472,-0.0118*
1,1,0.0276,-0.0472,-0.0118*
1,1,0.0276,-0.0472,0.0118*
1,1,0.0276,0.0472,0.0118*
%
%ADD72ROUNDEDRECTD72*%
D67*
X38363Y23553D02*
D03*
Y24553D02*
D03*
X37363Y23553D02*
D03*
X36363D02*
D03*
X40363D02*
D03*
X39363D02*
D03*
X37363Y24553D02*
D03*
X36363D02*
D03*
X39363D02*
D03*
D68*
X40363D02*
D03*
D69*
X31216Y24350D02*
D03*
D70*
X33184D02*
D03*
X32200D02*
D03*
D71*
X36314Y29370D02*
D03*
D72*
X27220Y25590D02*
D03*
Y26771D02*
D03*
Y27952D02*
D03*
Y29133D02*
D03*
Y30315D02*
D03*
Y31496D02*
D03*
Y32677D02*
D03*
Y33858D02*
D03*
Y35039D02*
D03*
Y36220D02*
D03*
X45330D02*
D03*
Y35039D02*
D03*
Y33858D02*
D03*
Y32677D02*
D03*
Y31496D02*
D03*
Y30315D02*
D03*
Y29133D02*
D03*
Y27952D02*
D03*
Y26771D02*
D03*
Y25590D02*
D03*
M02*
