G04*
G04 #@! TF.GenerationSoftware,Altium Limited,Altium Designer,18.1.7 (191)*
G04*
G04 Layer_Color=65535*
%FSLAX24Y24*%
%MOIN*%
G70*
G01*
G75*
%ADD10C,0.0070*%
%ADD11C,0.0079*%
%ADD12C,0.0039*%
%ADD13C,0.0050*%
%ADD14R,0.0576X0.0100*%
D10*
X49167Y18092D02*
G03*
X49167Y18602I-609J255D01*
G01*
X47960D02*
G03*
X47959Y18092I608J-256D01*
G01*
X46987Y19791D02*
G03*
X46477Y19791I-255J-609D01*
G01*
Y18584D02*
G03*
X46987Y18583I256J608D01*
G01*
X41779Y18888D02*
G03*
X41778Y18377I608J-256D01*
G01*
X42986D02*
G03*
X42986Y18888I-609J255D01*
G01*
X43910Y21919D02*
G03*
X43911Y22430I-608J256D01*
G01*
X42703D02*
G03*
X42703Y21919I609J-255D01*
G01*
X47155Y25249D02*
G03*
X46645Y25249I-256J-608D01*
G01*
Y24041D02*
G03*
X47155Y24042I255J609D01*
G01*
X46034Y23098D02*
G03*
X46544Y23097I256J608D01*
G01*
Y24305D02*
G03*
X46034Y24305I-255J-609D01*
G01*
X45689Y24324D02*
G03*
X45178Y24324I-256J-608D01*
G01*
Y23116D02*
G03*
X45689Y23117I255J609D01*
G01*
X44383Y23140D02*
G03*
X44383Y23650I-608J256D01*
G01*
X43175D02*
G03*
X43176Y23140I609J-255D01*
G01*
X45059Y24609D02*
G03*
X44548Y24609I-256J-608D01*
G01*
Y23402D02*
G03*
X45059Y23402I255J609D01*
G01*
X48553Y19712D02*
G03*
X49064Y19711I256J608D01*
G01*
Y20919D02*
G03*
X48553Y20919I-255J-609D01*
G01*
X43625Y24744D02*
G03*
X43625Y25255I-608J256D01*
G01*
X42417D02*
G03*
X42418Y24744I609J-255D01*
G01*
X43617Y20526D02*
G03*
X43617Y21036I-608J256D01*
G01*
X42410D02*
G03*
X42410Y20526I609J-255D01*
G01*
X42411Y21653D02*
G03*
X42410Y21143I608J-256D01*
G01*
X43618D02*
G03*
X43618Y21653I-609J255D01*
G01*
X46555Y21680D02*
G03*
X47066Y21680I256J608D01*
G01*
Y22888D02*
G03*
X46555Y22887I-255J-609D01*
G01*
X49065Y22404D02*
G03*
X48554Y22405I-256J-608D01*
G01*
Y21197D02*
G03*
X49065Y21197I255J609D01*
G01*
X44941Y18176D02*
G03*
X45452Y18176I256J608D01*
G01*
Y19384D02*
G03*
X44941Y19383I-255J-609D01*
G01*
X47657Y19776D02*
G03*
X47147Y19777I-256J-608D01*
G01*
Y18569D02*
G03*
X47657Y18569I255J609D01*
G01*
X47963Y18602D02*
X49163D01*
X47963Y18091D02*
X49163D01*
X46476Y18587D02*
Y19787D01*
X46987Y18587D02*
Y19787D01*
X47382Y22628D02*
X47894D01*
X47382Y23671D02*
X47894D01*
Y22628D02*
Y23671D01*
X47382Y22628D02*
Y23671D01*
X41782Y18377D02*
X42982D01*
X41782Y18888D02*
X42982D01*
X43140D02*
X44183D01*
X43140Y18376D02*
X44183D01*
Y18888D01*
X43140Y18376D02*
Y18888D01*
X42707Y22430D02*
X43907D01*
X42707Y21919D02*
X43907D01*
X46645Y24045D02*
Y25245D01*
X47156Y24045D02*
Y25246D01*
X46544Y23101D02*
Y24301D01*
X46033Y23100D02*
Y24301D01*
X45178Y23120D02*
Y24320D01*
X45689Y23120D02*
Y24321D01*
X43179Y23651D02*
X44379D01*
X43179Y23140D02*
X44380D01*
X46752Y18218D02*
X47795D01*
X46752Y17707D02*
X47795D01*
Y18218D01*
X46752Y17707D02*
Y18218D01*
X44548Y23406D02*
Y24606D01*
X45059Y23406D02*
Y24606D01*
X49064Y19715D02*
Y20915D01*
X48553Y19715D02*
Y20915D01*
X42421Y25255D02*
X43621D01*
X42421Y24744D02*
X43622D01*
X42413Y21036D02*
X43613D01*
X42413Y20525D02*
X43614D01*
X42414Y21143D02*
X43614D01*
X42413Y21654D02*
X43614D01*
X49006Y18720D02*
Y19232D01*
X47963Y18720D02*
Y19232D01*
X49006D01*
X47963Y18720D02*
X49006D01*
X47066Y21684D02*
Y22884D01*
X46555Y21683D02*
Y22884D01*
X48554Y21201D02*
Y22401D01*
X49065Y21201D02*
Y22402D01*
X45452Y18180D02*
Y19380D01*
X44941Y18179D02*
Y19380D01*
X47147Y18573D02*
Y19773D01*
X47657Y18573D02*
Y19774D01*
D11*
X46004Y22274D02*
G03*
X46004Y22274I-39J0D01*
G01*
X48002Y23287D02*
X49774D01*
X48002D02*
Y24547D01*
X49774D01*
Y23287D02*
Y24547D01*
X46683Y23189D02*
X47077D01*
X46683D02*
Y23898D01*
X46880D01*
X47077D01*
Y23189D02*
Y23898D01*
X44606Y22520D02*
Y23071D01*
X43386Y22520D02*
Y23071D01*
X44606D01*
X43386Y22520D02*
X44606D01*
X45443Y25187D02*
X45837D01*
Y24478D02*
Y25187D01*
X45640Y24478D02*
X45837D01*
X45443D02*
X45640D01*
X45443D02*
Y25187D01*
X44616Y24793D02*
Y25187D01*
X45325D01*
Y24990D02*
Y25187D01*
Y24793D02*
Y24990D01*
X44616Y24793D02*
X45325D01*
X43799Y24793D02*
Y25187D01*
X44508D01*
Y24990D02*
Y25187D01*
Y24793D02*
Y24990D01*
X43799Y24793D02*
X44508D01*
X47205Y20236D02*
X47244D01*
X47205D02*
Y22205D01*
X47244D01*
X48425Y20236D02*
X48465D01*
Y22205D01*
X48425D02*
X48465D01*
X44252Y21772D02*
Y21959D01*
X44468D01*
X46083D02*
X46309D01*
Y21949D02*
Y21959D01*
Y21772D02*
Y21949D01*
X44252Y19961D02*
Y20157D01*
Y19961D02*
X44468D01*
X46083D02*
X46309D01*
Y20157D01*
X43743Y24160D02*
X43691Y24213D01*
X43586D01*
X43533Y24160D01*
Y23950D01*
X43586Y23898D01*
X43691D01*
X43743Y23950D01*
Y24055D01*
X43638D01*
X42776Y23711D02*
X42461D01*
Y23868D01*
X42513Y23921D01*
X42618D01*
X42671Y23868D01*
Y23711D01*
Y23816D02*
X42776Y23921D01*
X42461Y24025D02*
X42776Y24235D01*
X42461D02*
X42776Y24025D01*
X41457Y23740D02*
Y23950D01*
Y23845D01*
X41772D01*
X41457Y24055D02*
X41772Y24265D01*
X41457D02*
X41772Y24055D01*
X40689Y22638D02*
X40899D01*
X40794D01*
Y22323D01*
X41004Y22638D02*
Y22323D01*
X41161D01*
X41214Y22375D01*
Y22585D01*
X41161Y22638D01*
X41004D01*
X41476D02*
X41371D01*
X41319Y22585D01*
Y22375D01*
X41371Y22323D01*
X41476D01*
X41529Y22375D01*
Y22585D01*
X41476Y22638D01*
X40689Y23642D02*
X40899D01*
X40794D01*
Y23327D01*
X41004Y23642D02*
Y23327D01*
X41161D01*
X41214Y23379D01*
Y23589D01*
X41161Y23642D01*
X41004D01*
X41319D02*
X41424D01*
X41371D01*
Y23327D01*
X41319D01*
X41424D01*
X40689Y21634D02*
X40899D01*
X40794D01*
Y21319D01*
X41214Y21581D02*
X41161Y21634D01*
X41056D01*
X41004Y21581D01*
Y21371D01*
X41056Y21319D01*
X41161D01*
X41214Y21371D01*
X41319Y21634D02*
Y21319D01*
Y21424D01*
X41529Y21634D01*
X41371Y21476D01*
X41529Y21319D01*
X40689Y20640D02*
X40899D01*
X40794D01*
Y20325D01*
X41004D02*
Y20640D01*
X41109Y20535D01*
X41214Y20640D01*
Y20325D01*
X41529Y20587D02*
X41476Y20640D01*
X41371D01*
X41319Y20587D01*
Y20535D01*
X41371Y20482D01*
X41476D01*
X41529Y20430D01*
Y20377D01*
X41476Y20325D01*
X41371D01*
X41319Y20377D01*
X40689Y19321D02*
Y19636D01*
X40846D01*
X40899Y19583D01*
Y19478D01*
X40846Y19426D01*
X40689D01*
X40794D02*
X40899Y19321D01*
X41214Y19583D02*
X41161Y19636D01*
X41056D01*
X41004Y19583D01*
Y19531D01*
X41056Y19478D01*
X41161D01*
X41214Y19426D01*
Y19373D01*
X41161Y19321D01*
X41056D01*
X41004Y19373D01*
X41319Y19636D02*
X41529D01*
X41424D01*
Y19321D01*
X41634Y24714D02*
Y24400D01*
Y24557D01*
X41686Y24610D01*
X41791D01*
X41844Y24557D01*
Y24400D01*
X41949Y24610D02*
X42054Y24400D01*
X42159Y24610D01*
X42264Y24400D02*
X42369D01*
X42316D01*
Y24714D01*
X42264Y24662D01*
X40659Y24931D02*
X40869D01*
X40764D01*
Y24616D01*
X40974D02*
Y24826D01*
X41079Y24931D01*
X41184Y24826D01*
Y24616D01*
Y24774D01*
X40974D01*
X41499Y24879D02*
X41447Y24931D01*
X41342D01*
X41289Y24879D01*
Y24669D01*
X41342Y24616D01*
X41447D01*
X41499Y24669D01*
Y24774D01*
X41394D01*
X40659Y25374D02*
X40764D01*
X40712D01*
Y25059D01*
X40659D01*
X40764D01*
X40922D02*
Y25374D01*
X41027Y25269D01*
X41132Y25374D01*
Y25059D01*
X41394Y25374D02*
X41289D01*
X41237Y25321D01*
Y25112D01*
X41289Y25059D01*
X41394D01*
X41447Y25112D01*
Y25321D01*
X41394Y25374D01*
X41552D02*
Y25059D01*
X41709D01*
X41761Y25112D01*
Y25164D01*
X41709Y25216D01*
X41552D01*
X41709D01*
X41761Y25269D01*
Y25321D01*
X41709Y25374D01*
X41552D01*
X41024Y18560D02*
X41076Y18612D01*
X41181D01*
X41234Y18560D01*
Y18507D01*
X41181Y18455D01*
X41129D01*
X41181D01*
X41234Y18402D01*
Y18350D01*
X41181Y18297D01*
X41076D01*
X41024Y18350D01*
X41338Y18612D02*
Y18402D01*
X41443Y18297D01*
X41548Y18402D01*
Y18612D01*
X48930Y22940D02*
X48878Y22992D01*
X48773D01*
X48720Y22940D01*
Y22887D01*
X48773Y22835D01*
X48878D01*
X48930Y22782D01*
Y22730D01*
X48878Y22677D01*
X48773D01*
X48720Y22730D01*
X49035Y22677D02*
X49140D01*
X49088D01*
Y22992D01*
X49035Y22940D01*
X47362Y24085D02*
Y23770D01*
X47572D01*
X47677Y24085D02*
X47887D01*
Y24032D01*
X47677Y23822D01*
Y23770D01*
X46102Y25138D02*
Y25348D01*
X46207Y25453D01*
X46312Y25348D01*
Y25138D01*
Y25295D01*
X46102D01*
X46417Y25138D02*
X46522D01*
X46470D01*
Y25453D01*
X46417Y25400D01*
X49587Y20581D02*
X49797D01*
X49902Y20686D01*
X49797Y20791D01*
X49587D01*
Y20896D02*
X49902D01*
Y21053D01*
X49849Y21105D01*
X49639D01*
X49587Y21053D01*
Y20896D01*
X49902Y21420D02*
Y21210D01*
X49692Y21420D01*
X49639D01*
X49587Y21368D01*
Y21263D01*
X49639Y21210D01*
X47677Y24705D02*
X47887D01*
X47992Y24810D01*
X47887Y24915D01*
X47677D01*
Y25020D02*
X47992D01*
Y25177D01*
X47940Y25229D01*
X47730D01*
X47677Y25177D01*
Y25020D01*
X47992Y25334D02*
Y25439D01*
Y25387D01*
X47677D01*
X47730Y25334D01*
X43435Y17933D02*
Y18248D01*
X43592D01*
X43645Y18195D01*
Y18090D01*
X43592Y18038D01*
X43435D01*
X43540D02*
X43645Y17933D01*
X43960D02*
X43750D01*
X43960Y18143D01*
Y18195D01*
X43907Y18248D01*
X43802D01*
X43750Y18195D01*
X47913Y17667D02*
Y17982D01*
X48071D01*
X48123Y17930D01*
Y17825D01*
X48071Y17772D01*
X47913D01*
X48018D02*
X48123Y17667D01*
X48228D02*
X48333D01*
X48281D01*
Y17982D01*
X48228Y17930D01*
X46975Y20367D02*
X46765D01*
X46713Y20315D01*
Y20210D01*
X46765Y20157D01*
X46975D01*
X47028Y20210D01*
Y20315D01*
X46923Y20262D02*
X47028Y20367D01*
Y20315D02*
X46975Y20367D01*
X47028Y20472D02*
X46713D01*
Y20630D01*
X46765Y20682D01*
X46870D01*
X46923Y20630D01*
Y20472D01*
Y20577D02*
X47028Y20682D01*
Y20997D02*
Y20787D01*
X46818Y20997D01*
X46765D01*
X46713Y20945D01*
Y20840D01*
X46765Y20787D01*
X41676Y22799D02*
Y23008D01*
X41624Y23061D01*
X41519D01*
X41467Y23008D01*
Y22799D01*
X41519Y22746D01*
X41624D01*
X41571Y22851D02*
X41676Y22746D01*
X41624D02*
X41676Y22799D01*
X41781Y22746D02*
Y23061D01*
X41939D01*
X41991Y23008D01*
Y22903D01*
X41939Y22851D01*
X41781D01*
X41886D02*
X41991Y22746D01*
X42096D02*
X42201D01*
X42149D01*
Y23061D01*
X42096Y23008D01*
X45945Y24508D02*
X46260D01*
Y24718D01*
X45945Y25033D02*
X45997Y24928D01*
X46102Y24823D01*
X46207D01*
X46260Y24875D01*
Y24980D01*
X46207Y25033D01*
X46155D01*
X46102Y24980D01*
Y24823D01*
X47254Y24193D02*
X47569D01*
Y24403D01*
X47307Y24508D02*
X47254Y24560D01*
Y24665D01*
X47307Y24718D01*
X47359D01*
X47411Y24665D01*
Y24613D01*
Y24665D01*
X47464Y24718D01*
X47516D01*
X47569Y24665D01*
Y24560D01*
X47516Y24508D01*
X43465Y20118D02*
Y19803D01*
X43674D01*
X43989D02*
X43779D01*
X43989Y20013D01*
Y20066D01*
X43937Y20118D01*
X43832D01*
X43779Y20066D01*
X48199Y19636D02*
Y19321D01*
X48409D01*
X48514D02*
X48619D01*
X48566D01*
Y19636D01*
X48514Y19583D01*
X42598Y20413D02*
Y20098D01*
X42756D01*
X42808Y20151D01*
Y20361D01*
X42756Y20413D01*
X42598D01*
X42913D02*
Y20098D01*
X43071D01*
X43123Y20151D01*
Y20361D01*
X43071Y20413D01*
X42913D01*
X43228Y20098D02*
X43333D01*
X43281D01*
Y20413D01*
X43228Y20361D01*
X49304Y18943D02*
X49252Y18996D01*
X49147D01*
X49094Y18943D01*
Y18734D01*
X49147Y18681D01*
X49252D01*
X49304Y18734D01*
X49409Y18681D02*
X49514D01*
X49462D01*
Y18996D01*
X49409Y18943D01*
X49672Y18734D02*
X49724Y18681D01*
X49829D01*
X49882Y18734D01*
Y18943D01*
X49829Y18996D01*
X49724D01*
X49672Y18943D01*
Y18891D01*
X49724Y18839D01*
X49882D01*
X45318Y22385D02*
X45266Y22333D01*
Y22228D01*
X45318Y22175D01*
X45528D01*
X45581Y22228D01*
Y22333D01*
X45528Y22385D01*
X45581Y22490D02*
Y22595D01*
Y22543D01*
X45266D01*
X45318Y22490D01*
Y22752D02*
X45266Y22805D01*
Y22910D01*
X45318Y22962D01*
X45371D01*
X45423Y22910D01*
X45476Y22962D01*
X45528D01*
X45581Y22910D01*
Y22805D01*
X45528Y22752D01*
X45476D01*
X45423Y22805D01*
X45371Y22752D01*
X45318D01*
X45423Y22805D02*
Y22910D01*
X43861Y24623D02*
X43809Y24675D01*
X43704D01*
X43652Y24623D01*
Y24413D01*
X43704Y24360D01*
X43809D01*
X43861Y24413D01*
X43966Y24360D02*
X44071D01*
X44019D01*
Y24675D01*
X43966Y24623D01*
X44229Y24675D02*
X44439D01*
Y24623D01*
X44229Y24413D01*
Y24360D01*
X42818Y24603D02*
X42766Y24655D01*
X42661D01*
X42608Y24603D01*
Y24393D01*
X42661Y24341D01*
X42766D01*
X42818Y24393D01*
X42923Y24341D02*
X43028D01*
X42976D01*
Y24655D01*
X42923Y24603D01*
X43395Y24655D02*
X43290Y24603D01*
X43186Y24498D01*
Y24393D01*
X43238Y24341D01*
X43343D01*
X43395Y24393D01*
Y24446D01*
X43343Y24498D01*
X43186D01*
X47307Y25121D02*
X47254Y25069D01*
Y24964D01*
X47307Y24911D01*
X47516D01*
X47569Y24964D01*
Y25069D01*
X47516Y25121D01*
X47569Y25226D02*
Y25331D01*
Y25279D01*
X47254D01*
X47307Y25226D01*
X47254Y25699D02*
Y25489D01*
X47411D01*
X47359Y25594D01*
Y25646D01*
X47411Y25699D01*
X47516D01*
X47569Y25646D01*
Y25541D01*
X47516Y25489D01*
X46184Y22365D02*
X46132Y22313D01*
Y22208D01*
X46184Y22156D01*
X46394D01*
X46447Y22208D01*
Y22313D01*
X46394Y22365D01*
X46447Y22470D02*
Y22575D01*
Y22523D01*
X46132D01*
X46184Y22470D01*
X46447Y22890D02*
X46132D01*
X46289Y22733D01*
Y22943D01*
X49226Y20800D02*
X49173Y20748D01*
Y20643D01*
X49226Y20591D01*
X49436D01*
X49488Y20643D01*
Y20748D01*
X49436Y20800D01*
X49488Y20905D02*
Y21010D01*
Y20958D01*
X49173D01*
X49226Y20905D01*
Y21168D02*
X49173Y21220D01*
Y21325D01*
X49226Y21378D01*
X49278D01*
X49331Y21325D01*
Y21273D01*
Y21325D01*
X49383Y21378D01*
X49436D01*
X49488Y21325D01*
Y21220D01*
X49436Y21168D01*
X49236Y21844D02*
X49183Y21791D01*
Y21686D01*
X49236Y21634D01*
X49446D01*
X49498Y21686D01*
Y21791D01*
X49446Y21844D01*
X49498Y21949D02*
Y22054D01*
Y22001D01*
X49183D01*
X49236Y21949D01*
X49498Y22421D02*
Y22211D01*
X49288Y22421D01*
X49236D01*
X49183Y22369D01*
Y22264D01*
X49236Y22211D01*
X42060Y22251D02*
X42008Y22303D01*
X41903D01*
X41850Y22251D01*
Y22041D01*
X41903Y21988D01*
X42008D01*
X42060Y22041D01*
X42165Y21988D02*
X42270D01*
X42218D01*
Y22303D01*
X42165Y22251D01*
X42428Y21988D02*
X42533D01*
X42480D01*
Y22303D01*
X42428Y22251D01*
X42405Y23520D02*
X42352Y23573D01*
X42247D01*
X42195Y23520D01*
Y23310D01*
X42247Y23258D01*
X42352D01*
X42405Y23310D01*
X42510Y23258D02*
X42615D01*
X42562D01*
Y23573D01*
X42510Y23520D01*
X42772D02*
X42825Y23573D01*
X42930D01*
X42982Y23520D01*
Y23310D01*
X42930Y23258D01*
X42825D01*
X42772Y23310D01*
Y23520D01*
X42297Y18195D02*
X42244Y18248D01*
X42139D01*
X42087Y18195D01*
Y17986D01*
X42139Y17933D01*
X42244D01*
X42297Y17986D01*
X42401D02*
X42454Y17933D01*
X42559D01*
X42611Y17986D01*
Y18195D01*
X42559Y18248D01*
X42454D01*
X42401Y18195D01*
Y18143D01*
X42454Y18090D01*
X42611D01*
X45171Y17940D02*
X45118Y17992D01*
X45013D01*
X44961Y17940D01*
Y17730D01*
X45013Y17677D01*
X45118D01*
X45171Y17730D01*
X45275Y17940D02*
X45328Y17992D01*
X45433D01*
X45485Y17940D01*
Y17887D01*
X45433Y17835D01*
X45485Y17782D01*
Y17730D01*
X45433Y17677D01*
X45328D01*
X45275Y17730D01*
Y17782D01*
X45328Y17835D01*
X45275Y17887D01*
Y17940D01*
X45328Y17835D02*
X45433D01*
X45879Y17940D02*
X45827Y17992D01*
X45722D01*
X45669Y17940D01*
Y17730D01*
X45722Y17677D01*
X45827D01*
X45879Y17730D01*
X45984Y17992D02*
X46194D01*
Y17940D01*
X45984Y17730D01*
Y17677D01*
X41991Y20056D02*
X41939Y20108D01*
X41834D01*
X41782Y20056D01*
Y19846D01*
X41834Y19793D01*
X41939D01*
X41991Y19846D01*
X42306Y20108D02*
X42201Y20056D01*
X42096Y19951D01*
Y19846D01*
X42149Y19793D01*
X42254D01*
X42306Y19846D01*
Y19898D01*
X42254Y19951D01*
X42096D01*
X41905Y20951D02*
X41852Y21004D01*
X41747D01*
X41695Y20951D01*
Y20741D01*
X41747Y20689D01*
X41852D01*
X41905Y20741D01*
X42220Y21004D02*
X42010D01*
Y20846D01*
X42115Y20899D01*
X42167D01*
X42220Y20846D01*
Y20741D01*
X42167Y20689D01*
X42062D01*
X42010Y20741D01*
X41885Y21503D02*
X41833Y21555D01*
X41728D01*
X41675Y21503D01*
Y21293D01*
X41728Y21240D01*
X41833D01*
X41885Y21293D01*
X42147Y21240D02*
Y21555D01*
X41990Y21398D01*
X42200D01*
X46391Y18113D02*
X46339Y18061D01*
Y17956D01*
X46391Y17904D01*
X46601D01*
X46654Y17956D01*
Y18061D01*
X46601Y18113D01*
X46391Y18218D02*
X46339Y18271D01*
Y18376D01*
X46391Y18428D01*
X46444D01*
X46496Y18376D01*
Y18323D01*
Y18376D01*
X46549Y18428D01*
X46601D01*
X46654Y18376D01*
Y18271D01*
X46601Y18218D01*
X47838Y19570D02*
X47786Y19518D01*
Y19413D01*
X47838Y19360D01*
X48048D01*
X48100Y19413D01*
Y19518D01*
X48048Y19570D01*
X48100Y19885D02*
Y19675D01*
X47890Y19885D01*
X47838D01*
X47786Y19833D01*
Y19728D01*
X47838Y19675D01*
X46814Y21460D02*
X46762Y21512D01*
X46657D01*
X46604Y21460D01*
Y21250D01*
X46657Y21197D01*
X46762D01*
X46814Y21250D01*
X46919Y21197D02*
X47024D01*
X46972D01*
Y21512D01*
X46919Y21460D01*
D12*
X40571Y27687D02*
X46978D01*
Y25522D02*
Y27687D01*
X40571Y25522D02*
Y27687D01*
Y25522D02*
X46978D01*
X47041Y27114D02*
X47742D01*
X47041Y25799D02*
X47742D01*
Y27114D01*
X47041Y25799D02*
Y27114D01*
Y27076D02*
Y27197D01*
Y27196D02*
X47743D01*
X47742Y27085D02*
Y27196D01*
X46260Y18130D02*
Y19429D01*
X45551Y18130D02*
Y19429D01*
X46260D01*
X45551Y18130D02*
X46260D01*
X43079Y18984D02*
X44394D01*
X43079Y19685D02*
X44394D01*
X43079Y18984D02*
Y19685D01*
X44394Y18984D02*
Y19685D01*
X41679Y18976D02*
X42978D01*
X41679Y19685D02*
X42978D01*
Y18976D02*
Y19685D01*
X41679Y18976D02*
Y19685D01*
D13*
X47234Y26555D02*
X47549D01*
X47234Y26358D02*
X47392Y26555D01*
X47234Y26358D02*
X47549D01*
X47392Y26555D02*
X47549Y26358D01*
X49764Y19193D02*
X49803Y19232D01*
X49291Y19193D02*
X49764D01*
X49252Y19232D02*
Y19587D01*
X49803Y19232D02*
Y19587D01*
X49252Y20453D02*
X49803D01*
Y20138D02*
Y20453D01*
X49252Y19232D02*
X49291Y19193D01*
X49252Y20138D02*
Y20453D01*
D14*
X49525Y19084D02*
D03*
M02*
