G04*
G04 #@! TF.GenerationSoftware,Altium Limited,Altium Designer,18.1.7 (191)*
G04*
G04 Layer_Color=8421504*
%FSLAX24Y24*%
%MOIN*%
G70*
G01*
G75*
G04:AMPARAMS|DCode=15|XSize=63mil|YSize=43.3mil|CornerRadius=10.8mil|HoleSize=0mil|Usage=FLASHONLY|Rotation=90.000|XOffset=0mil|YOffset=0mil|HoleType=Round|Shape=RoundedRectangle|*
%AMROUNDEDRECTD15*
21,1,0.0630,0.0217,0,0,90.0*
21,1,0.0413,0.0433,0,0,90.0*
1,1,0.0217,0.0108,0.0207*
1,1,0.0217,0.0108,-0.0207*
1,1,0.0217,-0.0108,-0.0207*
1,1,0.0217,-0.0108,0.0207*
%
%ADD15ROUNDEDRECTD15*%
%ADD16C,0.0591*%
%ADD17R,0.0236X0.0217*%
G04:AMPARAMS|DCode=18|XSize=43.3mil|YSize=23.6mil|CornerRadius=5.9mil|HoleSize=0mil|Usage=FLASHONLY|Rotation=180.000|XOffset=0mil|YOffset=0mil|HoleType=Round|Shape=RoundedRectangle|*
%AMROUNDEDRECTD18*
21,1,0.0433,0.0118,0,0,180.0*
21,1,0.0315,0.0236,0,0,180.0*
1,1,0.0118,-0.0157,0.0059*
1,1,0.0118,0.0157,0.0059*
1,1,0.0118,0.0157,-0.0059*
1,1,0.0118,-0.0157,-0.0059*
%
%ADD18ROUNDEDRECTD18*%
G04:AMPARAMS|DCode=19|XSize=94.5mil|YSize=59.1mil|CornerRadius=14.8mil|HoleSize=0mil|Usage=FLASHONLY|Rotation=180.000|XOffset=0mil|YOffset=0mil|HoleType=Round|Shape=RoundedRectangle|*
%AMROUNDEDRECTD19*
21,1,0.0945,0.0295,0,0,180.0*
21,1,0.0650,0.0591,0,0,180.0*
1,1,0.0295,-0.0325,0.0148*
1,1,0.0295,0.0325,0.0148*
1,1,0.0295,0.0325,-0.0148*
1,1,0.0295,-0.0325,-0.0148*
%
%ADD19ROUNDEDRECTD19*%
%ADD20R,0.0217X0.0236*%
G04:AMPARAMS|DCode=21|XSize=31.5mil|YSize=35.4mil|CornerRadius=7.9mil|HoleSize=0mil|Usage=FLASHONLY|Rotation=270.000|XOffset=0mil|YOffset=0mil|HoleType=Round|Shape=RoundedRectangle|*
%AMROUNDEDRECTD21*
21,1,0.0315,0.0197,0,0,270.0*
21,1,0.0157,0.0354,0,0,270.0*
1,1,0.0157,-0.0098,-0.0079*
1,1,0.0157,-0.0098,0.0079*
1,1,0.0157,0.0098,0.0079*
1,1,0.0157,0.0098,-0.0079*
%
%ADD21ROUNDEDRECTD21*%
G04:AMPARAMS|DCode=22|XSize=90.6mil|YSize=82.7mil|CornerRadius=12.4mil|HoleSize=0mil|Usage=FLASHONLY|Rotation=0.000|XOffset=0mil|YOffset=0mil|HoleType=Round|Shape=RoundedRectangle|*
%AMROUNDEDRECTD22*
21,1,0.0906,0.0579,0,0,0.0*
21,1,0.0657,0.0827,0,0,0.0*
1,1,0.0248,0.0329,-0.0289*
1,1,0.0248,-0.0329,-0.0289*
1,1,0.0248,-0.0329,0.0289*
1,1,0.0248,0.0329,0.0289*
%
%ADD22ROUNDEDRECTD22*%
%ADD23O,0.0335X0.0110*%
%ADD24O,0.0110X0.0335*%
%ADD25R,0.1358X0.1358*%
G36*
X47667Y26624D02*
X47392Y26752D01*
X47116Y26624D01*
Y27037D01*
X47667D01*
Y26624D01*
D02*
G37*
G36*
Y25876D02*
X47116D01*
Y26289D01*
X47392Y26161D01*
X47667Y26289D01*
Y25876D01*
D02*
G37*
G36*
X43553Y24823D02*
X43159D01*
X43278Y25000D01*
X43159Y25177D01*
X43553D01*
Y24823D01*
D02*
G37*
G36*
X42766Y25000D02*
X42884Y24823D01*
X42490D01*
Y25177D01*
X42884D01*
X42766Y25000D01*
D02*
G37*
G36*
X47077Y24783D02*
X46900Y24902D01*
X46722Y24783D01*
Y25177D01*
X47077D01*
Y24783D01*
D02*
G37*
G36*
Y24114D02*
X46722D01*
Y24508D01*
X46900Y24390D01*
X47077Y24508D01*
Y24114D01*
D02*
G37*
G36*
X44980Y24144D02*
X44803Y24262D01*
X44626Y24144D01*
Y24537D01*
X44980D01*
Y24144D01*
D02*
G37*
G36*
X45610Y23858D02*
X45433Y23976D01*
X45256Y23858D01*
Y24252D01*
X45610D01*
Y23858D01*
D02*
G37*
G36*
X46467Y23839D02*
X46289Y23957D01*
X46112Y23839D01*
Y24232D01*
X46467D01*
Y23839D01*
D02*
G37*
G36*
X44980Y23474D02*
X44626D01*
Y23868D01*
X44803Y23750D01*
X44980Y23868D01*
Y23474D01*
D02*
G37*
G36*
X45610Y23189D02*
X45256D01*
Y23583D01*
X45433Y23465D01*
X45610Y23583D01*
Y23189D01*
D02*
G37*
G36*
X46467Y23169D02*
X46112D01*
Y23563D01*
X46289Y23445D01*
X46467Y23563D01*
Y23169D01*
D02*
G37*
G36*
X47815Y23317D02*
X47638Y23395D01*
X47461Y23317D01*
Y23592D01*
X47815D01*
Y23317D01*
D02*
G37*
G36*
X44311Y23219D02*
X43917D01*
X44035Y23396D01*
X43917Y23573D01*
X44311D01*
Y23219D01*
D02*
G37*
G36*
X43524Y23396D02*
X43642Y23219D01*
X43248D01*
Y23573D01*
X43642D01*
X43524Y23396D01*
D02*
G37*
G36*
X47815Y22707D02*
X47461D01*
Y22982D01*
X47638Y22904D01*
X47815Y22982D01*
Y22707D01*
D02*
G37*
G36*
X46988Y22421D02*
X46811Y22539D01*
X46634Y22421D01*
Y22815D01*
X46988D01*
Y22421D01*
D02*
G37*
G36*
Y21752D02*
X46634D01*
Y22146D01*
X46811Y22028D01*
X46988Y22146D01*
Y21752D01*
D02*
G37*
G36*
X43839Y21998D02*
X43445D01*
X43563Y22175D01*
X43445Y22352D01*
X43839D01*
Y21998D01*
D02*
G37*
G36*
X43051Y22175D02*
X43169Y21998D01*
X42776D01*
Y22352D01*
X43169D01*
X43051Y22175D01*
D02*
G37*
G36*
X48986Y21939D02*
X48809Y22057D01*
X48632Y21939D01*
Y22333D01*
X48986D01*
Y21939D01*
D02*
G37*
G36*
Y21270D02*
X48632D01*
Y21663D01*
X48809Y21545D01*
X48986Y21663D01*
Y21270D01*
D02*
G37*
G36*
X43545Y21220D02*
X43152D01*
X43270Y21398D01*
X43152Y21575D01*
X43545D01*
Y21220D01*
D02*
G37*
G36*
X42758Y21398D02*
X42876Y21220D01*
X42482D01*
Y21575D01*
X42876D01*
X42758Y21398D01*
D02*
G37*
G36*
X43545Y20604D02*
X43152D01*
X43270Y20781D01*
X43152Y20959D01*
X43545D01*
Y20604D01*
D02*
G37*
G36*
X42758Y20781D02*
X42876Y20604D01*
X42482D01*
Y20959D01*
X42876D01*
X42758Y20781D01*
D02*
G37*
G36*
X48986Y20453D02*
X48809Y20571D01*
X48632Y20453D01*
Y20846D01*
X48986D01*
Y20453D01*
D02*
G37*
G36*
Y19783D02*
X48632D01*
Y20177D01*
X48809Y20059D01*
X48986Y20177D01*
Y19783D01*
D02*
G37*
G36*
X46909Y19325D02*
X46732Y19443D01*
X46555Y19325D01*
Y19718D01*
X46909D01*
Y19325D01*
D02*
G37*
G36*
X47579Y19311D02*
X47402Y19429D01*
X47224Y19311D01*
Y19705D01*
X47579D01*
Y19311D01*
D02*
G37*
G36*
X44317Y19059D02*
X43904D01*
X44032Y19335D01*
X43904Y19610D01*
X44317D01*
Y19059D01*
D02*
G37*
G36*
X43441Y19335D02*
X43569Y19059D01*
X43156D01*
Y19610D01*
X43569D01*
X43441Y19335D01*
D02*
G37*
G36*
X42909Y19045D02*
X42457D01*
X42585Y19331D01*
X42457Y19616D01*
X42909D01*
Y19045D01*
D02*
G37*
G36*
X42073Y19331D02*
X42201Y19045D01*
X41748D01*
Y19616D01*
X42201D01*
X42073Y19331D01*
D02*
G37*
G36*
X46909Y18655D02*
X46555D01*
Y19049D01*
X46732Y18931D01*
X46909Y19049D01*
Y18655D01*
D02*
G37*
G36*
X45374Y18917D02*
X45197Y19035D01*
X45020Y18917D01*
Y19311D01*
X45374D01*
Y18917D01*
D02*
G37*
G36*
X47579Y18642D02*
X47224D01*
Y19035D01*
X47402Y18917D01*
X47579Y19035D01*
Y18642D01*
D02*
G37*
G36*
X46191Y18907D02*
X45906Y19035D01*
X45620Y18907D01*
Y19360D01*
X46191D01*
Y18907D01*
D02*
G37*
G36*
X48927Y18799D02*
X48652D01*
X48730Y18976D01*
X48652Y19154D01*
X48927D01*
Y18799D01*
D02*
G37*
G36*
X48238Y18976D02*
X48317Y18799D01*
X48042D01*
Y19154D01*
X48317D01*
X48238Y18976D01*
D02*
G37*
G36*
X46191Y18199D02*
X45620D01*
Y18652D01*
X45906Y18524D01*
X46191Y18652D01*
Y18199D01*
D02*
G37*
G36*
X45374Y18248D02*
X45020D01*
Y18642D01*
X45197Y18524D01*
X45374Y18642D01*
Y18248D01*
D02*
G37*
G36*
X44104Y18455D02*
X43829D01*
X43907Y18632D01*
X43829Y18809D01*
X44104D01*
Y18455D01*
D02*
G37*
G36*
X43415Y18632D02*
X43494Y18455D01*
X43218D01*
Y18809D01*
X43494D01*
X43415Y18632D01*
D02*
G37*
G36*
X42913Y18455D02*
X42520D01*
X42638Y18632D01*
X42520Y18809D01*
X42913D01*
Y18455D01*
D02*
G37*
G36*
X42126Y18632D02*
X42244Y18455D01*
X41850D01*
Y18809D01*
X42244D01*
X42126Y18632D01*
D02*
G37*
G36*
X49094Y18169D02*
X48701D01*
X48819Y18346D01*
X48701Y18524D01*
X49094D01*
Y18169D01*
D02*
G37*
G36*
X48307Y18346D02*
X48425Y18169D01*
X48032D01*
Y18524D01*
X48425D01*
X48307Y18346D01*
D02*
G37*
G36*
X47716Y17785D02*
X47441D01*
X47519Y17963D01*
X47441Y18140D01*
X47716D01*
Y17785D01*
D02*
G37*
G36*
X47028Y17963D02*
X47106Y17785D01*
X46831D01*
Y18140D01*
X47106D01*
X47028Y17963D01*
D02*
G37*
D15*
X48278Y24980D02*
D03*
X49498Y24980D02*
D03*
Y22854D02*
D03*
X48278Y22854D02*
D03*
D16*
X42116Y23986D02*
D03*
X41112Y18957D02*
D03*
Y23986D02*
D03*
Y22982D02*
D03*
Y21978D02*
D03*
Y20974D02*
D03*
Y19970D02*
D03*
X44124Y23986D02*
D03*
X43120D02*
D03*
D17*
X46880Y23376D02*
D03*
Y23711D02*
D03*
X45640Y25000D02*
D03*
Y24665D02*
D03*
D18*
X44961Y22972D02*
D03*
Y22618D02*
D03*
D19*
X42776Y22795D02*
D03*
D20*
X44803Y24990D02*
D03*
X45138D02*
D03*
X43986Y24990D02*
D03*
X44321D02*
D03*
D21*
X49528Y19423D02*
D03*
Y20223D02*
D03*
D22*
X47835Y20433D02*
D03*
Y22008D02*
D03*
D23*
X46250Y21654D02*
D03*
Y21457D02*
D03*
Y21260D02*
D03*
Y21063D02*
D03*
Y20866D02*
D03*
Y20669D02*
D03*
Y20472D02*
D03*
Y20276D02*
D03*
X44301D02*
D03*
Y20472D02*
D03*
Y20669D02*
D03*
Y20866D02*
D03*
Y21063D02*
D03*
Y21260D02*
D03*
Y21457D02*
D03*
Y21654D02*
D03*
D24*
X45965Y19990D02*
D03*
X45768D02*
D03*
X45571D02*
D03*
X45374D02*
D03*
X45177D02*
D03*
X44980D02*
D03*
X44783D02*
D03*
X44587D02*
D03*
Y21939D02*
D03*
X44783D02*
D03*
X44980D02*
D03*
X45177D02*
D03*
X45374D02*
D03*
X45571D02*
D03*
X45768D02*
D03*
X45965D02*
D03*
D25*
X45276Y20965D02*
D03*
M02*
