G04*
G04 #@! TF.GenerationSoftware,Altium Limited,Altium Designer,18.1.7 (191)*
G04*
G04 Layer_Physical_Order=1*
G04 Layer_Color=255*
%FSLAX24Y24*%
%MOIN*%
G70*
G01*
G75*
%ADD11C,0.0079*%
G04:AMPARAMS|DCode=15|XSize=63mil|YSize=43.3mil|CornerRadius=10.8mil|HoleSize=0mil|Usage=FLASHONLY|Rotation=90.000|XOffset=0mil|YOffset=0mil|HoleType=Round|Shape=RoundedRectangle|*
%AMROUNDEDRECTD15*
21,1,0.0630,0.0217,0,0,90.0*
21,1,0.0413,0.0433,0,0,90.0*
1,1,0.0217,0.0108,0.0207*
1,1,0.0217,0.0108,-0.0207*
1,1,0.0217,-0.0108,-0.0207*
1,1,0.0217,-0.0108,0.0207*
%
%ADD15ROUNDEDRECTD15*%
%ADD16C,0.0591*%
%ADD17R,0.0236X0.0217*%
G04:AMPARAMS|DCode=18|XSize=43.3mil|YSize=23.6mil|CornerRadius=5.9mil|HoleSize=0mil|Usage=FLASHONLY|Rotation=180.000|XOffset=0mil|YOffset=0mil|HoleType=Round|Shape=RoundedRectangle|*
%AMROUNDEDRECTD18*
21,1,0.0433,0.0118,0,0,180.0*
21,1,0.0315,0.0236,0,0,180.0*
1,1,0.0118,-0.0157,0.0059*
1,1,0.0118,0.0157,0.0059*
1,1,0.0118,0.0157,-0.0059*
1,1,0.0118,-0.0157,-0.0059*
%
%ADD18ROUNDEDRECTD18*%
G04:AMPARAMS|DCode=19|XSize=94.5mil|YSize=59.1mil|CornerRadius=14.8mil|HoleSize=0mil|Usage=FLASHONLY|Rotation=180.000|XOffset=0mil|YOffset=0mil|HoleType=Round|Shape=RoundedRectangle|*
%AMROUNDEDRECTD19*
21,1,0.0945,0.0295,0,0,180.0*
21,1,0.0650,0.0591,0,0,180.0*
1,1,0.0295,-0.0325,0.0148*
1,1,0.0295,0.0325,0.0148*
1,1,0.0295,0.0325,-0.0148*
1,1,0.0295,-0.0325,-0.0148*
%
%ADD19ROUNDEDRECTD19*%
%ADD20R,0.0217X0.0236*%
G04:AMPARAMS|DCode=21|XSize=31.5mil|YSize=35.4mil|CornerRadius=7.9mil|HoleSize=0mil|Usage=FLASHONLY|Rotation=270.000|XOffset=0mil|YOffset=0mil|HoleType=Round|Shape=RoundedRectangle|*
%AMROUNDEDRECTD21*
21,1,0.0315,0.0197,0,0,270.0*
21,1,0.0157,0.0354,0,0,270.0*
1,1,0.0157,-0.0098,-0.0079*
1,1,0.0157,-0.0098,0.0079*
1,1,0.0157,0.0098,0.0079*
1,1,0.0157,0.0098,-0.0079*
%
%ADD21ROUNDEDRECTD21*%
G04:AMPARAMS|DCode=22|XSize=90.6mil|YSize=82.7mil|CornerRadius=12.4mil|HoleSize=0mil|Usage=FLASHONLY|Rotation=0.000|XOffset=0mil|YOffset=0mil|HoleType=Round|Shape=RoundedRectangle|*
%AMROUNDEDRECTD22*
21,1,0.0906,0.0579,0,0,0.0*
21,1,0.0657,0.0827,0,0,0.0*
1,1,0.0248,0.0329,-0.0289*
1,1,0.0248,-0.0329,-0.0289*
1,1,0.0248,-0.0329,0.0289*
1,1,0.0248,0.0329,0.0289*
%
%ADD22ROUNDEDRECTD22*%
%ADD23O,0.0335X0.0110*%
%ADD24O,0.0110X0.0335*%
%ADD25R,0.1358X0.1358*%
%ADD45R,0.0394X0.0354*%
%ADD46R,0.0354X0.0394*%
%ADD47R,0.0354X0.0276*%
%ADD48R,0.0276X0.0354*%
%ADD49R,0.0197X0.0197*%
%ADD50R,0.0354X0.0197*%
%ADD51R,0.0551X0.0413*%
%ADD52R,0.0571X0.0453*%
%ADD53R,0.0413X0.0551*%
%ADD54R,0.0453X0.0571*%
%ADD55C,0.0197*%
%ADD56C,0.0118*%
%ADD57C,0.0280*%
%ADD58C,0.0276*%
%ADD59R,0.0719X0.0413*%
%ADD60R,0.0354X0.1890*%
%ADD61R,0.1969X0.0197*%
%ADD62R,0.0197X0.2008*%
%ADD63R,0.0197X0.1093*%
%ADD64R,0.0906X0.0197*%
%ADD65R,0.1063X0.0197*%
%ADD66R,0.0197X0.1132*%
%ADD67R,0.0984X0.0197*%
%ADD68R,0.0197X0.1663*%
%ADD69C,0.0236*%
%ADD70C,0.0315*%
G36*
X41818Y23466D02*
X41806Y23465D01*
X41795Y23463D01*
X41784Y23461D01*
X41773Y23458D01*
X41763Y23454D01*
X41753Y23450D01*
X41744Y23444D01*
X41735Y23438D01*
X41726Y23432D01*
X41718Y23424D01*
X41659Y23477D01*
X41667Y23485D01*
X41674Y23494D01*
X41679Y23502D01*
X41684Y23512D01*
X41688Y23522D01*
X41691Y23532D01*
X41694Y23542D01*
X41695Y23553D01*
X41696Y23565D01*
X41695Y23576D01*
X41818Y23466D01*
D02*
G37*
G36*
X43643Y21311D02*
X43641Y21320D01*
X43638Y21328D01*
X43634Y21335D01*
X43629Y21341D01*
X43622Y21346D01*
X43615Y21351D01*
X43606Y21354D01*
X43597Y21356D01*
X43586Y21358D01*
X43575Y21358D01*
X43593Y21437D01*
X43730Y21443D01*
X43643Y21311D01*
D02*
G37*
G36*
X43879Y21338D02*
X43882Y21330D01*
X43886Y21322D01*
X43891Y21316D01*
X43897Y21311D01*
X43905Y21307D01*
X43913Y21303D01*
X43923Y21301D01*
X43933Y21300D01*
X43945Y21299D01*
X43927Y21220D01*
X43790Y21214D01*
X43877Y21347D01*
X43879Y21338D01*
D02*
G37*
G36*
X45804Y19764D02*
X45813Y19756D01*
X45822Y19750D01*
X45830Y19745D01*
X45839Y19741D01*
X45848Y19737D01*
X45856Y19735D01*
X45865Y19733D01*
X45873Y19733D01*
X45882Y19733D01*
X45778Y19630D01*
X45779Y19638D01*
X45778Y19647D01*
X45777Y19656D01*
X45775Y19664D01*
X45771Y19673D01*
X45767Y19682D01*
X45762Y19690D01*
X45755Y19699D01*
X45748Y19708D01*
X45740Y19716D01*
X45796Y19772D01*
X45804Y19764D01*
D02*
G37*
G36*
X45020Y19717D02*
X45022Y19706D01*
X45024Y19697D01*
X45028Y19688D01*
X45032Y19680D01*
X45037Y19673D01*
X45044Y19668D01*
X45051Y19663D01*
X45059Y19659D01*
X45069Y19656D01*
X44927Y19578D01*
X44930Y19587D01*
X44934Y19605D01*
X44936Y19614D01*
X44940Y19644D01*
X44940Y19655D01*
X44941Y19677D01*
X45020Y19729D01*
X45020Y19717D01*
D02*
G37*
G36*
X44695Y19383D02*
X44697Y19364D01*
X44698Y19356D01*
X44700Y19349D01*
X44703Y19343D01*
X44706Y19338D01*
X44709Y19334D01*
X44713Y19330D01*
X44717Y19328D01*
X44594D01*
X44598Y19330D01*
X44602Y19334D01*
X44605Y19338D01*
X44608Y19343D01*
X44611Y19349D01*
X44613Y19356D01*
X44614Y19364D01*
X44615Y19373D01*
X44616Y19383D01*
X44616Y19393D01*
X44695D01*
X44695Y19383D01*
D02*
G37*
G36*
X44807Y19229D02*
X44811Y19226D01*
X44817Y19223D01*
X44824Y19220D01*
X44833Y19218D01*
X44844Y19216D01*
X44857Y19214D01*
X44887Y19213D01*
X44905Y19213D01*
X44892Y19016D01*
X44711Y19036D01*
X44805Y19233D01*
X44807Y19229D01*
D02*
G37*
G36*
X44682Y19028D02*
X44662Y19024D01*
X44625Y19015D01*
X44608Y19010D01*
X44579Y18998D01*
X44566Y18991D01*
X44555Y18984D01*
X44545Y18976D01*
X44536Y18968D01*
X44469Y19013D01*
X44479Y19024D01*
X44486Y19035D01*
X44493Y19046D01*
X44498Y19059D01*
X44502Y19073D01*
X44504Y19087D01*
X44505Y19103D01*
X44505Y19119D01*
X44504Y19136D01*
X44501Y19154D01*
X44682Y19028D01*
D02*
G37*
G36*
X46117Y19783D02*
X46128Y19784D01*
X46139Y19785D01*
X46149Y19787D01*
X46159Y19790D01*
X46169Y19794D01*
X46179Y19799D01*
X46188Y19805D01*
X46197Y19811D01*
X46206Y19819D01*
X46215Y19827D01*
Y19661D01*
X46206Y19670D01*
X46197Y19677D01*
X46188Y19684D01*
X46179Y19689D01*
X46169Y19694D01*
X46159Y19698D01*
X46149Y19701D01*
X46139Y19703D01*
X46128Y19704D01*
X46117Y19705D01*
Y19783D01*
D02*
G37*
G36*
X47028Y20548D02*
X47030Y20504D01*
X46947D01*
X46947Y20505D01*
X46947Y20506D01*
X46948Y20508D01*
X46948Y20512D01*
X46949Y20526D01*
X46949Y20548D01*
X47028D01*
D02*
G37*
G36*
X47143Y21898D02*
X47240Y21801D01*
X47086Y21780D01*
X47091Y21787D01*
X47095Y21794D01*
X47097Y21802D01*
X47098Y21809D01*
X47098Y21817D01*
X47095Y21825D01*
X47092Y21833D01*
X47087Y21841D01*
X47080Y21850D01*
X47072Y21858D01*
X47143Y21898D01*
D02*
G37*
G36*
X48622Y19380D02*
X48633Y19380D01*
X48644Y19382D01*
X48654Y19384D01*
X48662Y19388D01*
X48670Y19392D01*
X48677Y19397D01*
X48683Y19404D01*
X48688Y19411D01*
X48692Y19419D01*
X48695Y19429D01*
X48772Y19287D01*
X48764Y19290D01*
X48746Y19294D01*
X48737Y19296D01*
X48706Y19300D01*
X48696Y19300D01*
X48673Y19301D01*
X48622Y19380D01*
D02*
G37*
G36*
X49626Y20109D02*
X49626Y20091D01*
X49630Y20027D01*
X49632Y20019D01*
X49634Y20012D01*
X49636Y20007D01*
X49638Y20004D01*
X49417D01*
X49420Y20007D01*
X49422Y20012D01*
X49423Y20019D01*
X49425Y20027D01*
X49426Y20036D01*
X49428Y20060D01*
X49429Y20109D01*
X49626D01*
D02*
G37*
G36*
X47770Y22904D02*
X47782Y22904D01*
X47805Y22906D01*
X47815Y22907D01*
X47825Y22909D01*
X47833Y22912D01*
X47841Y22915D01*
X47848Y22919D01*
X47854Y22923D01*
X47859Y22927D01*
Y22762D01*
X47854Y22766D01*
X47848Y22770D01*
X47841Y22774D01*
X47833Y22777D01*
X47825Y22780D01*
X47815Y22782D01*
X47805Y22783D01*
X47794Y22784D01*
X47770Y22785D01*
Y22904D01*
D02*
G37*
G36*
X48116Y22785D02*
X48103Y22785D01*
X48081Y22783D01*
X48070Y22782D01*
X48061Y22780D01*
X48053Y22777D01*
X48045Y22774D01*
X48038Y22770D01*
X48032Y22766D01*
X48027Y22762D01*
Y22927D01*
X48032Y22923D01*
X48038Y22919D01*
X48045Y22915D01*
X48053Y22912D01*
X48061Y22909D01*
X48070Y22907D01*
X48081Y22906D01*
X48092Y22904D01*
X48116Y22904D01*
Y22785D01*
D02*
G37*
G36*
X47598Y23575D02*
X47598Y23586D01*
X47597Y23596D01*
X47594Y23607D01*
X47591Y23617D01*
X47587Y23626D01*
X47582Y23636D01*
X47576Y23644D01*
X47569Y23653D01*
X47561Y23661D01*
X47553Y23669D01*
X47717Y23683D01*
X47710Y23673D01*
X47703Y23664D01*
X47697Y23654D01*
X47692Y23644D01*
X47687Y23634D01*
X47684Y23624D01*
X47681Y23614D01*
X47679Y23603D01*
X47678Y23592D01*
X47677Y23582D01*
X47598Y23575D01*
D02*
G37*
G36*
X47953Y23938D02*
X47953Y23926D01*
X47955Y23916D01*
X47957Y23906D01*
X47961Y23898D01*
X47965Y23890D01*
X47970Y23883D01*
X47977Y23877D01*
X47984Y23873D01*
X47992Y23869D01*
X48002Y23866D01*
X47862Y23786D01*
X47864Y23794D01*
X47868Y23811D01*
X47870Y23820D01*
X47873Y23850D01*
X47874Y23861D01*
X47874Y23884D01*
X47953Y23938D01*
D02*
G37*
D11*
X49202Y25314D02*
G03*
X49163Y25187I187J-127D01*
G01*
Y24774D02*
G03*
X49321Y24558I226J0D01*
G01*
X48612Y25187D02*
G03*
X48573Y25314I-226J0D01*
G01*
X48494Y24575D02*
G03*
X48612Y24774I-108J199D01*
G01*
X47756Y23958D02*
G03*
X47397Y23710I-128J-199D01*
G01*
X47933Y23519D02*
G03*
X48061Y23531I42J233D01*
G01*
X49321Y23277D02*
G03*
X49163Y23061I69J-216D01*
G01*
Y22648D02*
G03*
X49321Y22432I226J0D01*
G01*
X48612Y23061D02*
G03*
X48494Y23260I-226J0D01*
G01*
X48061D02*
G03*
X47944Y23081I108J-199D01*
G01*
X47946Y22608D02*
G03*
X47970Y22539I223J39D01*
G01*
X48514Y22312D02*
G03*
X48408Y22261I20J-176D01*
G01*
X48514Y22312D02*
G03*
X48408Y22261I20J-176D01*
G01*
X48386Y22421D02*
G03*
X48612Y22648I0J226D01*
G01*
X48406Y21831D02*
G03*
X48514Y21868I0J177D01*
G01*
X48406Y21831D02*
G03*
X48514Y21868I0J177D01*
G01*
X47506Y22539D02*
G03*
X47264Y22297I0J-242D01*
G01*
X48406D02*
G03*
X48371Y22421I-242J0D01*
G01*
X47234Y25679D02*
G03*
X47280Y25568I157J0D01*
G01*
X47234Y25679D02*
G03*
X47281Y25568I157J0D01*
G01*
X46118Y25153D02*
G03*
X45965Y25217I-153J-153D01*
G01*
X46118Y25153D02*
G03*
X45965Y25217I-153J-153D01*
G01*
X46547Y24675D02*
G03*
X46343Y24927I-258J0D01*
G01*
X47149Y22060D02*
G03*
X47106Y22090I-111J-111D01*
G01*
X47149Y22060D02*
G03*
X47106Y22090I-112J-111D01*
G01*
X46472Y22268D02*
G03*
X46516Y22327I-182J182D01*
G01*
X46471Y22268D02*
G03*
X46516Y22327I-182J183D01*
G01*
X46237Y22175D02*
G03*
X46452Y22249I33J256D01*
G01*
X46434Y21811D02*
G03*
X46362Y21827I-72J-157D01*
G01*
X49744Y19187D02*
G03*
X49821Y19321I-118J157D01*
G01*
X48976Y19566D02*
G03*
X48594Y19498I-167J-167D01*
G01*
X48163Y21476D02*
G03*
X48406Y21719I0J242D01*
G01*
Y20722D02*
G03*
X48163Y20965I-242J0D01*
G01*
X48162Y19855D02*
G03*
X48287Y19803I125J125D01*
G01*
X48162Y19855D02*
G03*
X48287Y19803I125J125D01*
G01*
X49680Y18951D02*
G03*
X49744Y19104I-153J153D01*
G01*
X49681Y18951D02*
G03*
X49744Y19104I-153J153D01*
G01*
X49400Y18760D02*
G03*
X49553Y18824I0J217D01*
G01*
X49400Y18760D02*
G03*
X49553Y18823I0J217D01*
G01*
X49099Y18642D02*
G03*
X49050Y18716I-202J-79D01*
G01*
X49099Y18642D02*
G03*
X49051Y18716I-202J-79D01*
G01*
X48573Y18671D02*
G03*
X48583Y18607I217J0D01*
G01*
X48573Y18671D02*
G03*
X48583Y18607I217J0D01*
G01*
X47559Y19833D02*
G03*
X47543Y19902I-157J0D01*
G01*
X47283Y21299D02*
G03*
X47395Y21346I0J157D01*
G01*
X47283Y21299D02*
G03*
X47395Y21345I0J157D01*
G01*
X47506Y20965D02*
G03*
X47266Y20753I0J-242D01*
G01*
X47559Y19833D02*
G03*
X47543Y19902I-157J0D01*
G01*
X48145Y19681D02*
G03*
X47992Y19744I-153J-153D01*
G01*
X48146Y19680D02*
G03*
X47992Y19744I-153J-153D01*
G01*
X47929D02*
G03*
X47697Y19719I-94J-217D01*
G01*
Y19336D02*
G03*
X47910Y19304I138J192D01*
G01*
X46978Y19882D02*
G03*
X46900Y20058I-236J0D01*
G01*
X46974Y19837D02*
G03*
X46978Y19882I-232J45D01*
G01*
X47651Y18369D02*
G03*
X47539Y18415I-111J-111D01*
G01*
X47984Y18051D02*
G03*
X47943Y18051I-20J-235D01*
G01*
X48140Y17973D02*
G03*
X47984Y18051I-176J-157D01*
G01*
X47943D02*
G03*
X47834Y18014I20J-235D01*
G01*
X47731Y18258D02*
G03*
X47690Y18330I-153J-39D01*
G01*
X47651Y18369D02*
G03*
X47539Y18415I-112J-111D01*
G01*
X47450D02*
G03*
X47037Y18258I-176J-157D01*
G01*
X47731D02*
G03*
X47690Y18330I-153J-39D01*
G01*
X46437Y18582D02*
G03*
X46309Y18531I20J-235D01*
G01*
X46693Y18346D02*
G03*
X46596Y18537I-236J0D01*
G01*
X46656Y18219D02*
G03*
X46693Y18346I-199J127D01*
G01*
X46309Y18140D02*
G03*
X46346Y18084I148J55D01*
G01*
X46309Y18140D02*
G03*
X46345Y18084I148J55D01*
G01*
X46384Y18045D02*
G03*
X46256Y17965I56J-230D01*
G01*
X45793Y24374D02*
G03*
X45837Y24439I-153J153D01*
G01*
X45793Y24374D02*
G03*
X45837Y24439I-153J153D01*
G01*
X45850Y24236D02*
G03*
X45728Y24304I-181J-181D01*
G01*
X45850Y24236D02*
G03*
X45728Y24304I-181J-181D01*
G01*
X45280Y24474D02*
G03*
X45222Y24370I153J-153D01*
G01*
X45280Y24474D02*
G03*
X45222Y24370I153J-153D01*
G01*
X44508Y24140D02*
G03*
X43835Y23691I-384J-153D01*
G01*
X44803Y23209D02*
G03*
X44656Y23130I0J-177D01*
G01*
X44537Y23986D02*
G03*
X44536Y24026I-413J0D01*
G01*
X44413Y23691D02*
G03*
X44508Y23833I-289J295D01*
G01*
X43533Y23986D02*
G03*
X42719Y24086I-413J0D01*
G01*
X41634Y25157D02*
G03*
X41697Y25004I217J0D01*
G01*
X41854Y24847D02*
G03*
X42008Y24783I153J153D01*
G01*
X41855Y24847D02*
G03*
X42008Y24783I153J153D01*
G01*
X42530Y23986D02*
G03*
X41743Y23809I-413J0D01*
G01*
X41634Y25157D02*
G03*
X41698Y25004I217J0D01*
G01*
X41526Y23986D02*
G03*
X40731Y24146I-413J0D01*
G01*
X43409Y23691D02*
G03*
X43533Y23986I-289J295D01*
G01*
X42516Y23883D02*
G03*
X42530Y23986I-400J103D01*
G01*
X42801Y23723D02*
G03*
X43130Y23573I319J263D01*
G01*
X43366Y22943D02*
G03*
X43314Y23100I-266J0D01*
G01*
X41743Y23809D02*
G03*
X41613Y23709I71J-225D01*
G01*
X41494Y23827D02*
G03*
X41526Y23986I-382J159D01*
G01*
X40731Y23826D02*
G03*
X41271Y23605I381J160D01*
G01*
X42241Y23457D02*
G03*
X42676Y23584I199J127D01*
G01*
X42451Y23209D02*
G03*
X42185Y22943I0J-266D01*
G01*
X41368Y23307D02*
G03*
X40731Y23142I-256J-325D01*
G01*
X45532Y22795D02*
G03*
X45485Y22907I-157J0D01*
G01*
X45532Y22795D02*
G03*
X45485Y22907I-157J0D01*
G01*
X44360Y22776D02*
G03*
X44249Y22729I0J-157D01*
G01*
X44229Y22861D02*
G03*
X44341Y22815I112J111D01*
G01*
X44229Y22861D02*
G03*
X44341Y22815I111J111D01*
G01*
X44360Y22776D02*
G03*
X44249Y22729I0J-157D01*
G01*
X45571Y22372D02*
G03*
X45610Y22236I256J0D01*
G01*
Y22220D02*
G03*
X45532Y22220I-39J-169D01*
G01*
X44413Y19878D02*
G03*
X44429Y19806I173J0D01*
G01*
X44157Y20105D02*
G03*
X44189Y20102I32J170D01*
G01*
X43287Y22459D02*
G03*
X43366Y22648I-187J189D01*
G01*
X43663Y21113D02*
G03*
X43702Y21100I96J216D01*
G01*
X44892Y18760D02*
G03*
X44847Y18898I-236J0D01*
G01*
X44642Y18524D02*
G03*
X44892Y18760I13J236D01*
G01*
X44124Y18071D02*
G03*
X44236Y18117I0J157D01*
G01*
X44124Y18071D02*
G03*
X44235Y18117I0J157D01*
G01*
X43687Y19645D02*
G03*
X43724Y19672I-75J139D01*
G01*
X43687Y19645D02*
G03*
X43724Y19672I-75J139D01*
G01*
X42343Y22282D02*
G03*
X42296Y22394I-157J0D01*
G01*
X42343Y22282D02*
G03*
X42296Y22394I-157J0D01*
G01*
X42185Y22648D02*
G03*
X42451Y22382I266J0D01*
G01*
X42270Y21582D02*
G03*
X42364Y21536I112J111D01*
G01*
X42271Y21582D02*
G03*
X42364Y21536I111J111D01*
G01*
X41282Y19594D02*
G03*
X41526Y19964I-170J377D01*
G01*
X41704Y18075D02*
G03*
X41742Y18071I38J153D01*
G01*
X41704Y18075D02*
G03*
X41742Y18071I38J153D01*
G01*
X48612Y25197D02*
X49164D01*
X48612Y25039D02*
X49163D01*
X48573Y25314D02*
X49202D01*
X48594Y25276D02*
X49181D01*
X48607Y24724D02*
X49169D01*
X48573Y24646D02*
X49203D01*
X48494Y24567D02*
X49298D01*
X48612Y24774D02*
Y25187D01*
X49163Y24774D02*
Y25187D01*
X48612Y25118D02*
X49163D01*
X48612Y24961D02*
X49163D01*
X48612Y24882D02*
X49163D01*
X48612Y24803D02*
X49163D01*
X48494Y24331D02*
X49321D01*
X48494Y24252D02*
X49321D01*
X48494Y24488D02*
X49321D01*
X48494Y24409D02*
X49321D01*
X48494Y24016D02*
X49321D01*
X48494Y23937D02*
X49321D01*
X48494Y24173D02*
X49321D01*
X48494Y24094D02*
X49321D01*
Y23277D02*
Y24558D01*
X48494Y23260D02*
Y24575D01*
Y23858D02*
X49321D01*
X48494Y23779D02*
X49321D01*
X48494Y23701D02*
X49321D01*
X48494Y23622D02*
X49321D01*
X48494Y23543D02*
X49321D01*
X48061Y23260D02*
Y23531D01*
X47391Y27529D02*
X47696Y27224D01*
Y27156D02*
Y27224D01*
X46978Y27165D02*
X47696D01*
X46998Y27156D02*
X47696D01*
X47281Y25568D02*
X47756Y25092D01*
X47195Y25039D02*
X47756D01*
X46998Y26506D02*
X47696D01*
X47195Y25118D02*
X47730D01*
X46978Y27244D02*
X47676D01*
X47696Y26407D02*
Y26506D01*
X46978Y27402D02*
X47518D01*
X46978Y27323D02*
X47597D01*
X47195Y25276D02*
X47573D01*
X47195Y25197D02*
X47651D01*
X46978Y26457D02*
X47696D01*
X46998Y26407D02*
X47696D01*
X47195Y24331D02*
X47756D01*
Y23958D02*
Y25092D01*
X47195Y24252D02*
X47756D01*
X47195Y24173D02*
X47756D01*
X47195Y24094D02*
X47756D01*
X47195Y24016D02*
X47756D01*
X47195Y24803D02*
X47756D01*
X47195Y24724D02*
X47756D01*
X47195Y24961D02*
X47756D01*
X47195Y24882D02*
X47756D01*
X47195Y24488D02*
X47756D01*
X47195Y24409D02*
X47756D01*
X46547Y24646D02*
X47756D01*
X47195Y24567D02*
X47756D01*
X48612Y23071D02*
X49164D01*
X48538Y23228D02*
X49237D01*
X48594Y23150D02*
X49181D01*
X49104Y22441D02*
X49298D01*
X48607Y22598D02*
X49169D01*
X48573Y22520D02*
X49203D01*
X48612Y22648D02*
Y23061D01*
X49163Y22648D02*
Y23061D01*
X48612Y22992D02*
X49163D01*
X48612Y22913D02*
X49163D01*
X48612Y22835D02*
X49163D01*
X48612Y22756D02*
X49163D01*
X48612Y22677D02*
X49163D01*
X48514Y22451D02*
X49104D01*
Y22205D02*
X49321D01*
X49104Y22126D02*
X49321D01*
X49104Y22362D02*
X49321D01*
X49104Y22283D02*
X49321D01*
X49104Y21890D02*
X49321D01*
X49104Y21653D02*
X49321D01*
X49104Y22047D02*
X49321D01*
X49104Y21968D02*
X49321D01*
X48514Y22312D02*
Y22451D01*
X49104Y21821D02*
Y22451D01*
X48514Y21821D02*
Y21868D01*
Y21821D02*
X49104D01*
Y21575D02*
X49321D01*
X49104Y21496D02*
X49321D01*
X48514Y21781D02*
X49104D01*
Y21732D02*
X49321D01*
X48494Y23465D02*
X49321D01*
X48494Y23386D02*
X49321D01*
X47933Y23465D02*
X48061D01*
X47933Y23386D02*
X48061D01*
X48494Y23307D02*
X49321D01*
X47933D02*
X48061D01*
X47933Y23228D02*
X48017D01*
X47933Y23199D02*
Y23519D01*
X47343Y23199D02*
X47933D01*
X46585Y23150D02*
X47961D01*
X47506Y22539D02*
X47970D01*
X47343Y23100D02*
X47933D01*
X47343Y22589D02*
X47933D01*
X48397Y22362D02*
X48514D01*
X48406Y21811D02*
X49321D01*
X48358Y21575D02*
X48514D01*
X48478Y22441D02*
X48514D01*
X48406Y22258D02*
Y22297D01*
Y21732D02*
X48514D01*
X48406Y21719D02*
Y21831D01*
X48397Y21653D02*
X48514D01*
X48259Y21496D02*
X48514D01*
X47392Y26831D02*
Y27116D01*
Y26545D02*
Y26831D01*
X46978Y27529D02*
X47391D01*
X46978Y27480D02*
X47439D01*
X47037Y26831D02*
X47392D01*
X46978Y25591D02*
X47262D01*
X46998Y25758D02*
Y26407D01*
X47234Y25679D02*
Y25758D01*
X46998Y26506D02*
Y27156D01*
X46978Y25522D02*
Y27529D01*
X46998Y25758D02*
X47234D01*
X46978Y25748D02*
X47234D01*
X46978Y25669D02*
X47235D01*
X46644Y24980D02*
X46900D01*
X47195Y23996D02*
Y24626D01*
X47116Y23937D02*
X47472D01*
X47096Y23996D02*
X47195D01*
X47116Y23858D02*
X47413D01*
X47343Y23710D02*
X47397D01*
X47343Y23199D02*
Y23710D01*
X47116Y23779D02*
X47393D01*
X47116Y23701D02*
X47343D01*
X46900Y24980D02*
Y25256D01*
X47195Y24665D02*
Y25295D01*
X46900Y24980D02*
X47156D01*
X46900Y24705D02*
Y24980D01*
X47096Y23937D02*
Y23996D01*
X47116Y23602D02*
Y23937D01*
X46663D02*
Y23996D01*
X46644Y23602D02*
Y23937D01*
X46604Y25295D02*
X47195D01*
X46231Y25039D02*
X46604D01*
X46055Y25197D02*
X46604D01*
X46153Y25118D02*
X46604D01*
Y24665D02*
X47195D01*
X46604Y24626D02*
X47195D01*
X46310Y24961D02*
X46604D01*
X46444Y24882D02*
X46604D01*
X46118Y25153D02*
X46343Y24927D01*
X46604Y24665D02*
Y25295D01*
X46543Y24724D02*
X46604D01*
X46547Y24567D02*
X46604D01*
X46513Y24803D02*
X46604D01*
X46547Y24488D02*
X46604D01*
Y23996D02*
Y24626D01*
X46547Y24409D02*
X46604D01*
X46547Y24350D02*
X46585D01*
X46604Y23996D02*
X46663D01*
X46585Y23937D02*
X46644D01*
X46585Y23858D02*
X46644D01*
X46585Y23779D02*
X46644D01*
X46547Y24350D02*
Y24675D01*
X46585Y23720D02*
Y24350D01*
X45994D02*
X46031D01*
Y24627D01*
X46083Y23720D02*
X46585D01*
X46083Y23681D02*
Y23720D01*
X45913Y24173D02*
X45994D01*
Y24092D02*
Y24350D01*
X47116Y23465D02*
X47343D01*
X47116Y23386D02*
X47343D01*
X47116Y23622D02*
X47343D01*
X47116Y23543D02*
X47343D01*
X47116Y23307D02*
X47343D01*
X47116Y23228D02*
X47343D01*
X47106Y22835D02*
X47343D01*
X47106Y22756D02*
X47343D01*
X47116Y23484D02*
Y23602D01*
Y23484D02*
Y23602D01*
X46870Y23150D02*
X47116D01*
Y23484D01*
X47106Y22913D02*
X47343D01*
X47106Y22677D02*
X47343D01*
X46811Y22618D02*
X47067D01*
X46811D02*
Y22894D01*
X47106Y22598D02*
X47343D01*
Y22589D02*
Y23100D01*
X47106Y22520D02*
X47410D01*
X47106Y22441D02*
X47311D01*
X47106Y22362D02*
X47273D01*
X47264Y21948D02*
Y22297D01*
X47106Y22205D02*
X47264D01*
X47106Y22126D02*
X47264D01*
X47106Y22303D02*
Y22933D01*
Y22090D02*
Y22264D01*
X47229Y21983D02*
X47264Y21948D01*
X47214Y21995D02*
X47264Y21945D01*
X47162Y22047D02*
X47264D01*
X47149Y22060D02*
X47214Y21995D01*
X46644Y23150D02*
X46870D01*
X46644D02*
X46870D01*
X46083Y23701D02*
X46644D01*
X46585Y23071D02*
X47343D01*
X46547Y22992D02*
X47343D01*
X46811Y22343D02*
Y22618D01*
X46547Y22933D02*
X47106D01*
X46516Y22303D02*
X47106D01*
X46585Y23622D02*
X46644D01*
X46585Y23583D02*
X46644D01*
X46083Y23681D02*
X46585D01*
Y23583D02*
Y23681D01*
Y23150D02*
X46644D01*
X46585Y23051D02*
Y23150D01*
X46547Y23051D02*
X46585D01*
X46547Y22933D02*
Y23051D01*
X46486Y22283D02*
X47264D01*
X46516Y22264D02*
X47106D01*
X46394Y22205D02*
X46516D01*
Y21811D02*
Y22264D01*
X46187Y22126D02*
X46516D01*
X46138Y22047D02*
X46516D01*
X46138Y21827D02*
Y22051D01*
X46136Y22075D02*
X46237Y22175D01*
X46138Y21968D02*
X46516D01*
X46434Y21811D02*
X46516D01*
X46138Y21890D02*
X46516D01*
X46138Y21827D02*
X46362D01*
X49104Y21339D02*
X49321D01*
X49104Y21417D02*
X49321D01*
Y21038D02*
Y22432D01*
X49104Y21260D02*
X49321D01*
X49104Y21181D02*
X49321D01*
X49104Y20945D02*
X49228D01*
X49104Y20866D02*
X49149D01*
X49104Y20821D02*
X49321Y21038D01*
X49104Y20821D02*
Y20965D01*
X48809Y21467D02*
Y21742D01*
X49104Y21152D02*
Y21781D01*
X48809Y21467D02*
X49065D01*
X48514Y21152D02*
Y21781D01*
X48553Y21467D02*
X48809D01*
Y21191D02*
Y21467D01*
X48514Y20965D02*
X49104D01*
X48553Y20650D02*
X48809D01*
X48514Y20335D02*
X48976D01*
Y20295D02*
Y20335D01*
X48514Y20295D02*
X48976D01*
X48514Y19665D02*
X48976D01*
X49772Y19213D02*
X49821D01*
Y18719D02*
Y19321D01*
X49744Y19104D02*
Y19187D01*
X48809Y20650D02*
Y20925D01*
Y20374D02*
Y20650D01*
X48514Y20335D02*
Y20965D01*
Y20157D02*
Y20295D01*
X48923Y19606D02*
X48976D01*
Y19566D02*
Y19665D01*
X48514D02*
Y19803D01*
X47467Y21417D02*
X48514D01*
X47388Y21339D02*
X48514D01*
X46759Y21260D02*
X48514D01*
X46838Y21181D02*
X48514D01*
Y21152D02*
X49104D01*
X48406Y20551D02*
X48514D01*
X46916Y21102D02*
X49321D01*
X46995Y21024D02*
X49306D01*
X48259Y20945D02*
X48514D01*
X47526Y21476D02*
X48163D01*
X48406Y20709D02*
X48514D01*
X48406Y20630D02*
X48514D01*
X48358Y20866D02*
X48514D01*
X48397Y20787D02*
X48514D01*
X48406Y20236D02*
X48514D01*
X48406Y20157D02*
X48514D01*
X48406Y20394D02*
X48514D01*
X48406Y20315D02*
X48976D01*
X48298Y19528D02*
X48610D01*
X48328Y19498D02*
X48594D01*
X48287Y19803D02*
X48514D01*
X48220Y19606D02*
X48695D01*
X48406Y20472D02*
X48514D01*
X48406Y20157D02*
Y20722D01*
X48141Y19685D02*
X48514D01*
X48146Y19680D02*
X48328Y19498D01*
X47559Y19842D02*
X48176D01*
X47839Y19764D02*
X48514D01*
X49744Y19134D02*
X49821D01*
X49738Y19055D02*
X49821D01*
X49702Y18976D02*
X49821D01*
X49627Y18898D02*
X49821D01*
X49548Y18819D02*
X49821D01*
X49045Y18740D02*
X49821D01*
X49091Y18661D02*
X49764D01*
X49553Y18824D02*
X49680Y18951D01*
X49183Y18760D02*
X49400D01*
X49045D02*
X49183D01*
X49045Y18722D02*
Y18760D01*
X49213Y18504D02*
X49606D01*
X49213Y18425D02*
X49527D01*
X49213Y18583D02*
X49685D01*
X49213Y18110D02*
X49821Y18719D01*
X49213Y18346D02*
X49449D01*
X49213Y18268D02*
X49370D01*
X49213Y18189D02*
X49291D01*
X49153Y18051D02*
X49213Y18110D01*
X49099Y18642D02*
X49213D01*
Y18110D02*
Y18642D01*
X49055Y17953D02*
X49153Y18051D01*
X49055D02*
X49153D01*
X49055Y17963D02*
Y18051D01*
Y18031D02*
X49134D01*
X48686Y17973D02*
X48740Y18028D01*
X48533Y18681D02*
X48573D01*
X48435Y18898D02*
X48533D01*
X48435Y18819D02*
X48533D01*
X48543Y18583D02*
X48583D01*
X47697Y18661D02*
X48573D01*
X47913Y18642D02*
X48543D01*
X48435Y19183D02*
X48533D01*
Y18681D02*
Y19183D01*
X48435Y19134D02*
X48533D01*
X48435Y18681D02*
Y19183D01*
Y19055D02*
X48533D01*
X48435Y18976D02*
X48533D01*
X48435Y18740D02*
X48533D01*
X47923Y18681D02*
X48435D01*
X48543Y18346D02*
X48583D01*
X48543Y18268D02*
X48583D01*
X48543Y18504D02*
X48583D01*
X48543Y18425D02*
X48583D01*
X48543Y18189D02*
X48583D01*
Y18051D02*
X48740D01*
X48060Y18031D02*
X48740D01*
X48140Y17973D02*
X48686D01*
X48543Y18051D02*
Y18642D01*
X48583Y18051D02*
Y18607D01*
X48228Y18346D02*
Y18602D01*
Y18091D02*
Y18346D01*
X48504D01*
X48543Y18110D02*
X48583D01*
X47953Y18346D02*
X48228D01*
X47984Y18051D02*
X48543D01*
X48116Y19902D02*
X48162Y19855D01*
X47506Y20965D02*
X48163D01*
X47543Y19902D02*
X48116D01*
X47697Y19764D02*
X47830D01*
X47929Y19744D02*
X47992D01*
X47559Y19823D02*
X47697D01*
Y19719D02*
Y19823D01*
X47395Y21346D02*
X47526Y21476D01*
X47231Y20787D02*
X47273D01*
X47152Y20866D02*
X47311D01*
X47106Y19823D02*
X47189D01*
X47910Y19304D02*
X47942Y19272D01*
X47697Y19291D02*
X47922D01*
X47923Y18681D02*
Y19272D01*
X47697Y19213D02*
X47923D01*
X47697Y19134D02*
X47923D01*
X47697Y19193D02*
Y19336D01*
X47106Y19193D02*
X47697D01*
X47106D02*
Y19823D01*
X47402Y18839D02*
Y19114D01*
X47697Y18524D02*
Y19154D01*
X47106D02*
X47697D01*
X47106Y18524D02*
Y19154D01*
X47074Y20945D02*
X47410D01*
X46900Y20112D02*
X47189Y19823D01*
X46719Y21299D02*
X47283D01*
X46719D02*
X47266Y20753D01*
X47028Y19685D02*
X47106D01*
X47028Y19528D02*
X47106D01*
X46975Y19842D02*
X47169D01*
X47028Y19764D02*
X47106D01*
X46947Y20000D02*
X47012D01*
X46900Y20079D02*
X46933D01*
X46900Y20058D02*
Y20112D01*
X46975Y19921D02*
X47090D01*
X47028Y19606D02*
X47106D01*
X46974Y19837D02*
X47028D01*
Y19291D02*
X47106D01*
X47028Y19213D02*
X47106D01*
X47028Y19449D02*
X47106D01*
X47028Y19370D02*
X47106D01*
X47028Y19134D02*
X47106D01*
X47028Y19055D02*
X47106D01*
X46521Y19207D02*
X47028D01*
X46482Y19167D02*
X47028D01*
Y19207D02*
Y19837D01*
Y18537D02*
Y19167D01*
X46482D02*
X46521Y19207D01*
X46437Y19123D02*
X46482Y19167D01*
X46732Y18852D02*
Y19128D01*
X46437Y18582D02*
Y19123D01*
X46369Y19055D02*
X46437D01*
X46309Y18995D02*
X46437Y19123D01*
X47697Y18898D02*
X47923D01*
X47697Y18819D02*
X47923D01*
X47697Y19055D02*
X47923D01*
X47697Y18976D02*
X47923D01*
X47697Y18740D02*
X47923D01*
X47697Y18583D02*
X47913D01*
X47106Y18524D02*
X47697D01*
X47440Y18425D02*
X47913D01*
X47402Y18839D02*
X47657D01*
X47402Y18563D02*
Y18839D01*
X47028Y18976D02*
X47106D01*
X47146Y18839D02*
X47402D01*
X47450Y18415D02*
X47539D01*
X47028Y18661D02*
X47106D01*
X47028Y18583D02*
X47106D01*
X47834Y18189D02*
X47913D01*
Y18051D02*
Y18642D01*
X47674Y18346D02*
X47913D01*
X47728Y18268D02*
X47913D01*
X47834Y18110D02*
X47913D01*
X47651Y18369D02*
X47690Y18330D01*
X47834Y18031D02*
X47867D01*
X47834Y18014D02*
Y18258D01*
X47731D02*
X47834D01*
X47028Y18898D02*
X47106D01*
X46732Y18852D02*
X46988D01*
X46476D02*
X46732D01*
Y18577D02*
Y18852D01*
X47028Y18819D02*
X47106D01*
X47028Y18740D02*
X47106D01*
X46309Y18819D02*
X46437D01*
X46596Y18537D02*
X47028D01*
X46309Y18898D02*
X46437D01*
X46309Y18531D02*
Y18770D01*
Y18976D02*
X46437D01*
X46309Y18789D02*
Y18995D01*
Y18583D02*
X46437D01*
X46309Y18740D02*
X46437D01*
X46309Y18661D02*
X46437D01*
X46679Y18425D02*
X47107D01*
X46693Y18346D02*
X47055D01*
X46633Y18504D02*
X47913D01*
X46713Y18258D02*
X47037D01*
X46713Y18162D02*
Y18258D01*
X46679Y18268D02*
X47038D01*
X46656Y18219D02*
X46713Y18162D01*
X45906Y18425D02*
Y18730D01*
Y18120D02*
Y18425D01*
X46309Y18081D02*
Y18140D01*
X46346Y18084D02*
X46384Y18045D01*
X45876Y24782D02*
X46031Y24627D01*
X45876Y24724D02*
X45934D01*
X45876Y24439D02*
Y24774D01*
X45404Y25226D02*
X45876D01*
Y25217D02*
X45965D01*
X45876Y24646D02*
X46013D01*
X45876Y24567D02*
X46031D01*
X45876Y24488D02*
X46031D01*
X45837Y24439D02*
X45876D01*
X45364Y25207D02*
X45404D01*
Y24598D02*
Y24774D01*
X45364D02*
X45404D01*
X45030Y24754D02*
X45364D01*
X45098Y24646D02*
X45404D01*
X45280Y24474D02*
X45404Y24598D01*
X45098Y24567D02*
X45373D01*
X45098Y24488D02*
X45294D01*
X45821Y24409D02*
X46031D01*
X45728Y24310D02*
X45793Y24374D01*
X45749Y24331D02*
X45994D01*
X45833Y24252D02*
X45994D01*
X45098Y24409D02*
X45235D01*
X45098Y24026D02*
Y24656D01*
X45138Y24370D02*
X45222D01*
X45138Y23740D02*
Y24370D01*
X45098Y24331D02*
X45138D01*
X45098Y24252D02*
X45138D01*
X42067Y25433D02*
X47415D01*
X42067Y25354D02*
X47494D01*
X42067Y25522D02*
X46978D01*
X42067Y25512D02*
X47336D01*
X44911Y25226D02*
X45030D01*
X45364D01*
X43671Y25276D02*
X46604D01*
X44911Y25226D02*
X45030D01*
X44094Y25226D02*
X44213D01*
X44547D01*
X43760D02*
X44094D01*
X44213D01*
X44577Y25226D02*
X44911D01*
X44213Y24754D02*
X44547D01*
X44094D02*
X44213D01*
X44094D02*
X44213D01*
X45020Y24724D02*
X45404D01*
X45020Y24656D02*
Y24754D01*
X43671Y24724D02*
X44587D01*
Y24656D02*
Y24754D01*
X44508Y24656D02*
X44587D01*
X45020D02*
X45098D01*
X40731Y24646D02*
X44508D01*
X40731Y24567D02*
X44508D01*
X43760Y24754D02*
X44094D01*
X44508Y24140D02*
Y24656D01*
X40731Y24488D02*
X44508D01*
X40731Y24409D02*
X44508D01*
X44353Y24331D02*
X44508D01*
X44124Y23986D02*
Y24360D01*
X43349Y24331D02*
X43895D01*
X45098Y24173D02*
X45138D01*
X45850Y24236D02*
X45994Y24092D01*
X45098Y24094D02*
X45138D01*
X45098Y23937D02*
X45138D01*
Y23701D02*
X45571D01*
Y23740D01*
X45098Y23858D02*
X45138D01*
Y23740D02*
X45571D01*
X45098Y23779D02*
X45138D01*
X44803Y23671D02*
Y23947D01*
X44536Y24016D02*
X45138D01*
X44537Y23986D02*
X45098D01*
Y23701D02*
X45138D01*
X45098Y23622D02*
X45138D01*
X44547Y23671D02*
X44803D01*
X45059D01*
X45433Y23386D02*
Y23661D01*
Y23110D02*
Y23386D01*
X45177D02*
X45433D01*
X45321Y23071D02*
X45571D01*
X45400Y22992D02*
X45571D01*
X45479Y22913D02*
X45571D01*
X45321Y23071D02*
X45571D01*
X45321Y23071D02*
X45485Y22907D01*
X45098Y23356D02*
Y23986D01*
X45138Y23208D02*
Y23701D01*
X45098Y23543D02*
X45138D01*
X44803Y23396D02*
Y23671D01*
X45098Y23465D02*
X45138D01*
X45098Y23386D02*
X45138D01*
X44803Y23209D02*
X45118D01*
X44536Y24026D02*
X45098D01*
X44441Y24252D02*
X44508D01*
X44429Y23543D02*
X44508D01*
X44429Y23465D02*
X44508D01*
X44423Y23701D02*
X44508D01*
X44429Y23622D02*
X44508D01*
X43750Y23986D02*
X44124D01*
X44498D01*
X43437Y24252D02*
X43807D01*
X43419Y23701D02*
X43825D01*
X43799Y23691D02*
X43835D01*
X43760Y23622D02*
X43799D01*
X43760Y23543D02*
X43799D01*
X43760Y23465D02*
X43799D01*
X44508Y23356D02*
X45098D01*
X44508D02*
Y23833D01*
X44429Y23386D02*
X44508D01*
X44429Y23130D02*
Y23691D01*
Y23150D02*
X44671D01*
X44429Y23130D02*
X44656D01*
X44429Y23307D02*
X45138D01*
X44429Y23228D02*
X45138D01*
X43760Y23150D02*
X43799D01*
Y23100D02*
X43991D01*
X43760Y23307D02*
X43799D01*
X43760Y23228D02*
X43799D01*
X43366Y22913D02*
X44177D01*
X44003Y23087D02*
X44229Y22861D01*
X43333Y23071D02*
X44019D01*
X43362Y22992D02*
X44098D01*
X43041Y25295D02*
X43671D01*
Y25207D02*
Y25295D01*
X42372D02*
X43002D01*
Y25276D02*
X43041D01*
X43671Y25207D02*
X43760D01*
X43002Y25118D02*
X43041D01*
X42067Y25276D02*
X42372D01*
X43002Y25197D02*
X43041D01*
X42067Y25247D02*
Y25374D01*
Y25247D02*
Y25374D01*
Y25522D01*
Y25374D02*
Y25522D01*
X42098Y25217D02*
X42372D01*
Y25295D01*
X42067Y25247D02*
Y25374D01*
Y25247D02*
X42098Y25217D01*
X43002Y24803D02*
X43041D01*
X43671Y24705D02*
Y24774D01*
X43002Y25039D02*
X43041D01*
X43002Y24961D02*
X43041D01*
X43671Y24774D02*
X43760D01*
X43041Y24705D02*
X43671D01*
X43002Y24724D02*
X43041D01*
X43002Y24705D02*
Y25295D01*
X43041Y24705D02*
Y25295D01*
X43002Y24882D02*
X43041D01*
X42008Y24783D02*
X42372D01*
Y24705D02*
Y24783D01*
X42433Y24252D02*
X42803D01*
X42372Y24705D02*
X43002D01*
X42345Y24331D02*
X42892D01*
X41634Y25374D02*
Y25522D01*
Y25177D02*
Y25374D01*
X41319Y25522D02*
X41634D01*
X41634Y25177D02*
Y25374D01*
X41319Y25354D02*
X41634D01*
X40731Y25118D02*
X41637D01*
X40731Y25039D02*
X41669D01*
X41634Y25177D02*
Y25522D01*
X41319Y25148D02*
Y25522D01*
Y25512D02*
X41634D01*
X41319Y25295D02*
Y25522D01*
X41319Y25433D02*
X41634D01*
X41319Y25276D02*
X41634D01*
X41319Y25197D02*
X41634D01*
X40731Y25148D02*
X41319D01*
X40731Y24882D02*
X41820D01*
X41698Y25004D02*
X41854Y24847D01*
X41341Y24331D02*
X41888D01*
X40731Y24803D02*
X41918D01*
X40731Y24724D02*
X42372D01*
X40731Y24146D02*
Y25148D01*
Y24961D02*
X41741D01*
X41429Y24252D02*
X41799D01*
X41481Y24173D02*
X41747D01*
X40731Y24331D02*
X40884D01*
X40731Y24252D02*
X40796D01*
X43519Y24094D02*
X43725D01*
X43532Y24016D02*
X43712D01*
X43489Y24173D02*
X43755D01*
X43531Y23937D02*
X43714D01*
X43513Y23858D02*
X43731D01*
X43478Y23779D02*
X43766D01*
X43409Y23691D02*
X43760D01*
X42528Y24016D02*
X42649D01*
X42516Y23883D02*
X42719Y24086D01*
X42485Y24173D02*
X42751D01*
X42515Y24094D02*
X42721D01*
X42779Y23701D02*
X42821D01*
X42701Y23622D02*
X42925D01*
X42527Y23937D02*
X42570D01*
X43760Y23100D02*
Y23691D01*
X43799Y23100D02*
Y23691D01*
X43445Y23396D02*
Y23652D01*
Y23396D02*
X43720D01*
X43760Y23386D02*
X43799D01*
X43445Y23140D02*
Y23396D01*
X43169D02*
X43445D01*
X43314Y23100D02*
X43760D01*
X43130Y23207D02*
Y23573D01*
X42676Y23597D02*
X42801Y23723D01*
X42673Y23543D02*
X43130D01*
X42644Y23465D02*
X43130D01*
X42569Y23386D02*
X43130D01*
X42451Y23209D02*
X43100D01*
X41525Y24016D02*
X41704D01*
X41523Y23937D02*
X41706D01*
X41511Y24094D02*
X41717D01*
X41505Y23858D02*
X41723D01*
X42172Y23386D02*
X42311D01*
X41542Y23779D02*
X41681D01*
X41494Y23827D02*
X41613Y23709D01*
X40731Y23701D02*
X40813D01*
X40731Y23622D02*
X40917D01*
X40731Y23543D02*
X41332D01*
X41271Y23605D02*
X41368Y23508D01*
X40731Y23465D02*
X41368D01*
X40731Y23386D02*
X41022D01*
X42093Y23307D02*
X43130D01*
X42022Y23236D02*
X42227Y23441D01*
X42014Y23228D02*
X43130D01*
X41998Y23150D02*
X42284D01*
X41998Y23071D02*
X42218D01*
X41998Y22992D02*
X42190D01*
X41202Y23386D02*
X41368D01*
Y23307D02*
Y23508D01*
X40731Y23142D02*
X40731Y23826D01*
X41998Y22913D02*
X42185D01*
X41998Y22835D02*
X42185D01*
X40731Y23307D02*
X40856D01*
X40731Y23228D02*
X40780D01*
X45527Y22835D02*
X45571D01*
X45532Y22756D02*
X45571D01*
X45532Y22520D02*
X45571D01*
X45532Y22441D02*
X45571D01*
X45532Y22677D02*
X45571D01*
X45532Y22598D02*
X45571D01*
X44341Y22815D02*
X44656D01*
X44360Y22776D02*
X44656D01*
X43957Y22437D02*
X44249Y22729D01*
X43957Y22437D02*
Y22470D01*
X45571Y22372D02*
Y23071D01*
X45532Y22362D02*
X45571D01*
X45532Y22220D02*
Y22795D01*
Y22283D02*
X45587D01*
X44429Y19728D02*
Y19806D01*
X44189Y20102D02*
X44413D01*
X44413Y19878D02*
Y20102D01*
X44130Y20079D02*
X44413D01*
X44051Y20000D02*
X44413D01*
X43973Y19921D02*
X44413D01*
X43894Y19842D02*
X44417D01*
X43815Y19764D02*
X44429D01*
X43366Y22756D02*
X44284D01*
X43366Y22677D02*
X44197D01*
X43366Y22835D02*
X44264D01*
X43366Y22648D02*
Y22943D01*
X43362Y22598D02*
X44118D01*
X43333Y22520D02*
X44039D01*
X43327Y22470D02*
X43957D01*
X43287Y22362D02*
X43327D01*
X43287Y22283D02*
X43327D01*
X42776Y22795D02*
X43327D01*
X43287Y22441D02*
X43327D01*
X43287Y22205D02*
X43327D01*
X43287Y22126D02*
X43327D01*
X42972Y22175D02*
X43248D01*
X43287Y22047D02*
X43327D01*
X43663Y21061D02*
X43702Y21100D01*
X42028Y21102D02*
X43693D01*
X43033Y21077D02*
X43663D01*
X43785Y19728D02*
X44429D01*
X43785Y18941D02*
Y19728D01*
X43736Y19685D02*
X43785D01*
X43724Y19672D02*
X44157Y20105D01*
X43287Y22008D02*
Y22459D01*
X43327Y22008D02*
Y22470D01*
X43287Y22008D02*
X43327D01*
X43033Y21102D02*
X43663D01*
X43033Y20486D02*
X43413D01*
X43340Y20413D02*
X43413Y20486D01*
X42131Y20472D02*
X43399D01*
X42190Y20413D02*
X43340D01*
X45502Y18789D02*
X46309D01*
X45502D02*
Y18898D01*
X44902Y18799D02*
X45492D01*
Y18898D01*
X45502Y18770D02*
X46309D01*
X45197Y18445D02*
Y18720D01*
X44902Y18760D02*
X45492D01*
X45197Y18445D02*
X45453D01*
X44864Y18898D02*
X44899D01*
X44902Y18799D02*
Y18898D01*
X44864D02*
X44899D01*
X44870Y18661D02*
X44902D01*
X44812Y18583D02*
X44902D01*
X44622Y18504D02*
X44902D01*
X45492Y18130D02*
Y18760D01*
X45502Y18081D02*
Y18770D01*
X44941Y18445D02*
X45197D01*
Y18169D02*
Y18445D01*
X45541Y18425D02*
X45906D01*
X45502Y18081D02*
X46309D01*
X44902Y18130D02*
X45492D01*
X44228Y18110D02*
X45502D01*
X44544Y18425D02*
X44902D01*
Y18130D02*
Y18760D01*
X44465Y18346D02*
X44902D01*
X44236Y18117D02*
X44642Y18524D01*
X44386Y18268D02*
X44902D01*
X44307Y18189D02*
X44902D01*
X43687Y19449D02*
X43785D01*
X43687Y19370D02*
X43785D01*
X43687Y19606D02*
X43785D01*
X43687Y19528D02*
X43785D01*
Y18941D02*
X44230D01*
X43710Y18927D02*
X44216D01*
X43687Y19291D02*
X43785D01*
X43687Y19213D02*
X43785D01*
X43687Y19134D02*
X43785D01*
X43687Y18941D02*
Y19645D01*
Y19055D02*
X43785D01*
X43687Y18976D02*
X43785D01*
X43037Y18941D02*
X43687D01*
X43100Y18927D02*
X43612D01*
Y18740D02*
X43710D01*
X43612Y18661D02*
X43710D01*
X43612Y18898D02*
X43710D01*
X43612Y18819D02*
X43710D01*
X43612Y18583D02*
X43710D01*
X43081Y18071D02*
X44124D01*
X41748Y18031D02*
X46343D01*
X41815Y17965D02*
X46256D01*
X43612Y18386D02*
Y18927D01*
X43710Y18386D02*
Y18927D01*
X43032Y18898D02*
X43100D01*
Y18789D02*
Y18927D01*
X43612Y18425D02*
X43710D01*
X43612Y18386D02*
X43710D01*
X43032Y18819D02*
X43100D01*
X43612Y18504D02*
X43710D01*
X42994Y21496D02*
X43033D01*
X42994Y21417D02*
X43033D01*
X42697Y22175D02*
X42972D01*
X42994Y21535D02*
X43033D01*
X42994Y21260D02*
X43033D01*
X42994Y21181D02*
X43033D01*
X42679Y21398D02*
X42955D01*
X42994Y21339D02*
X43033D01*
X42776Y22795D02*
Y23169D01*
X42657Y22008D02*
Y22382D01*
X42451D02*
X42657D01*
X42343Y22178D02*
X42512Y22008D01*
X42473Y22047D02*
X42657D01*
X42512Y22008D02*
X42657D01*
X42394Y22126D02*
X42657D01*
X42404Y21398D02*
X42679D01*
X43033Y21102D02*
Y21535D01*
X43033Y20486D02*
Y21077D01*
X42364D02*
X42994D01*
Y20486D02*
Y21077D01*
Y20866D02*
X43033D01*
X42994Y20787D02*
X43033D01*
X42994Y21024D02*
X43033D01*
X42994Y20945D02*
X43033D01*
X42679Y21142D02*
Y21398D01*
X42994Y21102D02*
Y21535D01*
X42364Y21102D02*
X42994D01*
X42364D02*
Y21536D01*
X42679Y20781D02*
X42955D01*
X42679Y20525D02*
Y20781D01*
Y21037D01*
X42364Y20486D02*
Y21077D01*
X42224Y22795D02*
X42776D01*
X42343Y22205D02*
X42657D01*
X42343Y22178D02*
Y22282D01*
X42321Y22362D02*
X42657D01*
X42343Y22283D02*
X42657D01*
X41998Y22692D02*
Y23212D01*
X42185Y22648D02*
Y22943D01*
X41998Y22756D02*
X42185D01*
X41998Y22692D02*
X42296Y22394D01*
X42170Y22520D02*
X42218D01*
X42249Y22441D02*
X42284D01*
X42013Y22677D02*
X42185D01*
X42092Y22598D02*
X42190D01*
X42028Y21496D02*
X42364D01*
X42028Y21417D02*
X42364D01*
X42028Y20866D02*
X42364D01*
X42028Y20787D02*
X42364D01*
X42028Y21024D02*
X42364D01*
X42028Y20945D02*
X42364D01*
X42028Y21732D02*
X42120D01*
X42028Y21653D02*
X42199D01*
X42028Y21825D02*
X42270Y21582D01*
X42028Y20576D02*
Y21825D01*
Y21260D02*
X42364D01*
X42028Y21181D02*
X42364D01*
X42028Y21575D02*
X42278D01*
X42028Y21339D02*
X42364D01*
X42994Y20709D02*
X43033D01*
X42994Y20630D02*
X43033D01*
X42994Y20551D02*
X43033D01*
X42364Y20486D02*
X42994D01*
X43037Y18941D02*
Y19095D01*
X43028Y18927D02*
Y19095D01*
X42402Y18927D02*
X43028D01*
X42402D02*
X43028D01*
X42404Y20781D02*
X42679D01*
X42028Y20709D02*
X42364D01*
X42028Y20630D02*
X42364D01*
X42028Y20576D02*
X42190Y20413D01*
X42052Y20551D02*
X42364D01*
X42362Y18927D02*
X42402D01*
X41974Y19331D02*
X42280D01*
X41974Y18967D02*
Y19331D01*
X43032Y18789D02*
Y18927D01*
X42402Y18386D02*
Y18927D01*
X42362Y18898D02*
X42402D01*
X42362Y18819D02*
X42402D01*
X43032Y18789D02*
X43081D01*
X42362Y18740D02*
X42402D01*
X42362Y18661D02*
X42402D01*
X42362Y18425D02*
X42402D01*
X42339Y18927D02*
Y19626D01*
X42362Y18386D02*
Y18927D01*
X42319D02*
Y19626D01*
X42047Y18632D02*
Y18888D01*
X42362Y18504D02*
X42402D01*
X42362Y18386D02*
X42402D01*
X42047Y18632D02*
X42323D01*
X42362Y18583D02*
X42402D01*
X41526Y19964D02*
X41756Y19734D01*
X41630D02*
X41756D01*
X41505Y19842D02*
X41647D01*
X41470Y19764D02*
X41726D01*
X41669Y19331D02*
X41974D01*
X41732Y18927D02*
X42319D01*
X41411Y19685D02*
X41630D01*
X41308Y19606D02*
X41630D01*
X41523Y19921D02*
X41569D01*
X41630Y19246D02*
Y19734D01*
X41282Y19594D02*
X41630Y19246D01*
X41506Y19370D02*
X41630D01*
X41585Y19291D02*
X41630D01*
X41349Y19528D02*
X41630D01*
X41427Y19449D02*
X41630D01*
X41732Y18927D02*
X42319D01*
X41772Y18632D02*
X42047D01*
X41683Y18819D02*
X41732D01*
X41683Y18740D02*
X41732D01*
X41742Y18071D02*
X43081D01*
X41704Y18075D02*
X41815Y17965D01*
X41683Y18927D02*
X41732D01*
Y18461D02*
Y18927D01*
X41683Y18898D02*
X41732D01*
X41683Y18510D02*
Y18927D01*
X41689Y18504D02*
X41732D01*
X41683Y18510D02*
X41732Y18461D01*
X41683Y18661D02*
X41732D01*
X41683Y18583D02*
X41732D01*
X47913Y23813D02*
Y25157D01*
Y23813D02*
X47975Y23751D01*
X47628Y23760D02*
X47638Y23750D01*
Y23454D02*
Y23750D01*
X46536Y21260D02*
X47363Y20433D01*
X46250Y21260D02*
X46536D01*
X46102Y19744D02*
X46299D01*
X45768D02*
X45896Y19616D01*
X47283Y21457D02*
X47835Y22008D01*
X47363Y20433D02*
X47835D01*
X46811Y21703D02*
Y21949D01*
X46762Y21654D02*
X46811Y21703D01*
X46250Y21654D02*
X46762D01*
X46988Y20394D02*
Y20548D01*
Y20246D02*
Y20394D01*
X46811Y21949D02*
X47037D01*
X47175Y21811D01*
Y21703D02*
Y21811D01*
X46250Y21457D02*
X47283D01*
X46473Y21063D02*
X46988Y20548D01*
Y20246D02*
X47402Y19833D01*
Y19508D02*
Y19833D01*
X45768Y19744D02*
Y19990D01*
X45994Y19852D02*
X46102Y19744D01*
X45965Y19852D02*
X45994D01*
X45965D02*
Y19990D01*
X43681Y21398D02*
X43819Y21260D01*
X46457Y18195D02*
Y18346D01*
Y18195D02*
X46689Y17963D01*
X46968D01*
X47579D02*
Y18219D01*
X47539Y18258D02*
X47579Y18219D01*
X47274Y18258D02*
X47539D01*
X47392Y25679D02*
X47913Y25157D01*
X47392Y25679D02*
Y26083D01*
X48179Y19340D02*
X48750D01*
X48809Y19400D01*
X45965Y22126D02*
X46270Y22431D01*
X45965Y21939D02*
Y22126D01*
X45374Y21939D02*
Y22795D01*
X44961Y22451D02*
X45177Y22234D01*
X44961Y22451D02*
Y22618D01*
X45768Y21939D02*
Y22313D01*
X44114Y23199D02*
Y23396D01*
Y23199D02*
X44341Y22972D01*
X44961D01*
X45197D01*
X45374Y22795D01*
X44360Y22618D02*
X44961D01*
X43917Y22175D02*
X44360Y22618D01*
X43642Y22175D02*
X43917D01*
X45177Y21939D02*
Y22234D01*
X42842Y23986D02*
X43120D01*
X42440Y23584D02*
X42842Y23986D01*
X42116Y23553D02*
Y23986D01*
X41911Y23348D02*
X42116Y23553D01*
X41813Y23575D02*
Y23584D01*
X41683Y23445D02*
X41813Y23575D01*
X41911Y23348D02*
X41911D01*
X41841Y23278D02*
X41911Y23348D01*
X41526Y22496D02*
Y23573D01*
X41112Y23986D02*
X41526Y23573D01*
X41683Y22562D02*
Y23445D01*
X41841Y22627D02*
Y23278D01*
Y22627D02*
X42185Y22282D01*
Y22112D02*
Y22282D01*
Y22112D02*
X42447Y21850D01*
X43888D01*
X42028Y22047D02*
Y22217D01*
X41683Y22562D02*
X42028Y22217D01*
X41870Y20511D02*
Y22152D01*
X41526Y22496D02*
X41870Y22152D01*
X41713Y20445D02*
Y22087D01*
X41112Y22687D02*
X41713Y22087D01*
X42028Y22047D02*
X42382Y21693D01*
X43888Y21850D02*
X44419Y22382D01*
X44774D01*
X44498Y22224D02*
X44675D01*
X43967Y21693D02*
X44498Y22224D01*
X42382Y21693D02*
X43967D01*
X44675Y22224D02*
X44783Y22116D01*
X44774Y22382D02*
X44980Y22175D01*
Y21939D02*
Y22175D01*
X44783Y21939D02*
Y22116D01*
X44124Y18228D02*
X44656Y18760D01*
X43081Y18228D02*
X44124D01*
X44656Y19144D02*
Y19183D01*
X44144Y18632D02*
X44656Y19144D01*
X44980Y19600D02*
X45039Y19541D01*
X44980Y19600D02*
Y19990D01*
X44656Y19183D02*
Y19393D01*
X44783Y19521D01*
Y19990D01*
X41742Y18228D02*
X43081D01*
Y18632D02*
X43356D01*
X42717D02*
X43081D01*
X41112Y19541D02*
Y19970D01*
Y19541D02*
X41526Y19128D01*
Y18445D02*
Y19128D01*
Y18445D02*
X41742Y18228D01*
X43081D02*
Y18632D01*
X41750Y17807D02*
X46439D01*
X41112Y18445D02*
X41750Y17807D01*
X48898Y17963D02*
Y18346D01*
X48751Y17816D02*
X48898Y17963D01*
X47963Y17816D02*
X48751D01*
X46439Y17807D02*
Y17816D01*
X41112Y18445D02*
Y18957D01*
X43966Y18632D02*
X44144D01*
X44110Y19335D02*
X44374D01*
X44587Y19547D01*
Y19990D01*
X41112Y21978D02*
X41555Y21535D01*
Y20380D02*
Y21535D01*
Y20380D02*
X41994Y19941D01*
X41112Y20600D02*
X41929Y19783D01*
X41870Y20511D02*
X42125Y20256D01*
X41713Y20445D02*
X42060Y20098D01*
X41112Y22687D02*
Y22982D01*
Y20600D02*
Y20974D01*
X42125Y20256D02*
X43406D01*
X44016Y20866D01*
X44301D01*
X42060Y20098D02*
X43474D01*
X44045Y20669D01*
X44301D01*
X41994Y19941D02*
X43543D01*
X44075Y20472D01*
X44301D01*
X41929Y19783D02*
X43612D01*
X44104Y20276D01*
X44301D01*
X43348Y21398D02*
X43681D01*
X43819Y21260D02*
X44301D01*
X43888Y21063D02*
X44301D01*
X43606Y20781D02*
X43888Y21063D01*
X43348Y20781D02*
X43606D01*
X46250Y21063D02*
X46473D01*
X46742Y19882D02*
Y20571D01*
X46447Y20866D02*
X46742Y20571D01*
X46250Y20866D02*
X46447D01*
D15*
X48278Y24980D02*
D03*
X49498Y24980D02*
D03*
Y22854D02*
D03*
X48278Y22854D02*
D03*
D16*
X42116Y23986D02*
D03*
X41112Y18957D02*
D03*
Y23986D02*
D03*
Y22982D02*
D03*
Y21978D02*
D03*
Y20974D02*
D03*
Y19970D02*
D03*
X44124Y23986D02*
D03*
X43120D02*
D03*
D17*
X46880Y23376D02*
D03*
Y23711D02*
D03*
X45640Y25000D02*
D03*
Y24665D02*
D03*
D18*
X44961Y22972D02*
D03*
Y22618D02*
D03*
D19*
X42776Y22795D02*
D03*
D20*
X44803Y24990D02*
D03*
X45138D02*
D03*
X43986Y24990D02*
D03*
X44321D02*
D03*
D21*
X49528Y19423D02*
D03*
Y20223D02*
D03*
D22*
X47835Y20433D02*
D03*
Y22008D02*
D03*
D23*
X46250Y21654D02*
D03*
Y21457D02*
D03*
Y21260D02*
D03*
Y21063D02*
D03*
Y20866D02*
D03*
Y20669D02*
D03*
Y20472D02*
D03*
Y20276D02*
D03*
X44301D02*
D03*
Y20472D02*
D03*
Y20669D02*
D03*
Y20866D02*
D03*
Y21063D02*
D03*
Y21260D02*
D03*
Y21457D02*
D03*
Y21654D02*
D03*
D24*
X45965Y19990D02*
D03*
X45768D02*
D03*
X45571D02*
D03*
X45374D02*
D03*
X45177D02*
D03*
X44980D02*
D03*
X44783D02*
D03*
X44587D02*
D03*
Y21939D02*
D03*
X44783D02*
D03*
X44980D02*
D03*
X45177D02*
D03*
X45374D02*
D03*
X45571D02*
D03*
X45768D02*
D03*
X45965D02*
D03*
D25*
X45276Y20965D02*
D03*
D45*
X48228Y18346D02*
D03*
X48898D02*
D03*
X42717Y18632D02*
D03*
X42047D02*
D03*
X42972Y22175D02*
D03*
X43642D02*
D03*
X43445Y23396D02*
D03*
X44114D02*
D03*
X42687Y25000D02*
D03*
X43356D02*
D03*
X42679Y20781D02*
D03*
X43348D02*
D03*
X43348Y21398D02*
D03*
X42679D02*
D03*
D46*
X46732Y18852D02*
D03*
Y19522D02*
D03*
X46900Y24311D02*
D03*
Y24980D02*
D03*
X46289Y24035D02*
D03*
Y23366D02*
D03*
X45433Y23386D02*
D03*
Y24055D02*
D03*
X44803Y23671D02*
D03*
Y24341D02*
D03*
X48809Y20650D02*
D03*
Y19980D02*
D03*
X46811Y22618D02*
D03*
Y21949D02*
D03*
X48809Y21467D02*
D03*
Y22136D02*
D03*
X45197Y19114D02*
D03*
Y18445D02*
D03*
X47402Y18839D02*
D03*
Y19508D02*
D03*
D47*
X47638Y23454D02*
D03*
Y22844D02*
D03*
D48*
X43356Y18632D02*
D03*
X43966D02*
D03*
X46968Y17963D02*
D03*
X47579D02*
D03*
X48179Y18976D02*
D03*
X48789D02*
D03*
D49*
X41850Y25374D02*
D03*
D50*
X41024Y25364D02*
D03*
D51*
X47392Y26083D02*
D03*
Y26831D02*
D03*
D52*
X45906Y19134D02*
D03*
Y18425D02*
D03*
D53*
X43362Y19335D02*
D03*
X44110D02*
D03*
D54*
X42683Y19331D02*
D03*
X41974D02*
D03*
D55*
X43021D02*
X43358D01*
X42683D02*
X43021D01*
X45886Y19114D02*
X45906Y19134D01*
X45197Y19114D02*
X45886D01*
X48278Y22854D02*
Y24980D01*
X46880Y24291D02*
X46900Y24311D01*
X46880Y23711D02*
Y24291D01*
X46870Y23366D02*
X46880Y23376D01*
X46289Y23366D02*
X46870D01*
X49183Y18976D02*
X49400D01*
X48789D02*
X49183D01*
X49528Y19892D02*
Y20223D01*
X43358Y19331D02*
X43362Y19335D01*
X41850Y25157D02*
Y25374D01*
Y25157D02*
X42008Y25000D01*
X42687D01*
X43356D02*
X43366Y24990D01*
X43986D01*
X44321D02*
X44321Y24990D01*
X44803D01*
X45965Y25000D02*
X46289Y24675D01*
X45640Y25000D02*
X45965D01*
X45630Y24990D02*
X45640Y25000D01*
X45138Y24990D02*
X45630D01*
X44803D02*
X44803Y24990D01*
Y24341D02*
Y24990D01*
X45433Y24055D02*
Y24321D01*
X45640Y24528D01*
Y24665D01*
X44656Y19183D02*
X44724Y19114D01*
X45197D01*
X46732Y19872D02*
X46742Y19882D01*
X46732Y19522D02*
Y19872D01*
X46530Y19522D02*
X46732D01*
X46142Y19134D02*
X46530Y19522D01*
X45906Y19134D02*
X46142D01*
X47835Y19528D02*
X47992D01*
X48179Y19340D01*
Y18976D02*
Y19340D01*
X48789Y18671D02*
Y18976D01*
Y18671D02*
X48898Y18563D01*
Y18346D02*
Y18563D01*
X49400Y18976D02*
X49528Y19104D01*
Y19423D01*
D56*
X47943Y22844D02*
X48268D01*
X47638D02*
X47943D01*
X48268D02*
X48278Y22854D01*
X49498Y22854D02*
Y24980D01*
X47835Y22008D02*
X48406D01*
X48533Y22136D01*
X48809D01*
X47835Y20433D02*
X48287Y19980D01*
X48809D01*
X49154Y19006D02*
X49183Y18976D01*
X49154Y19006D02*
Y20620D01*
X49498Y20965D01*
Y22854D01*
D57*
X46289Y24035D02*
Y24675D01*
X46270Y22431D02*
X46289Y22451D01*
Y23366D01*
D58*
X45433Y24055D02*
X45669D01*
X45827Y23898D01*
Y22372D02*
Y23898D01*
D59*
X41058Y25354D02*
D03*
D60*
X41024Y26358D02*
D03*
D61*
X41831Y27352D02*
D03*
D62*
X41850Y26299D02*
D03*
D63*
X42716Y26757D02*
D03*
X43701D02*
D03*
X45551D02*
D03*
D64*
X43209Y26309D02*
D03*
D65*
X44134Y27352D02*
D03*
X45984D02*
D03*
D66*
X44567Y26777D02*
D03*
D67*
X45059Y26309D02*
D03*
D68*
X46417Y26511D02*
D03*
D69*
X47628Y23760D02*
D03*
X47975Y23751D02*
D03*
X41132Y23494D02*
D03*
X44423Y24665D02*
D03*
X44157Y24675D02*
D03*
X48917Y23652D02*
D03*
X48809Y24941D02*
D03*
X48081Y19813D02*
D03*
X49390Y18563D02*
D03*
X41511Y19547D02*
D03*
X45413Y18051D02*
D03*
X44852Y18045D02*
D03*
X44468Y18150D02*
D03*
X47805Y18583D02*
D03*
Y18878D02*
D03*
X47795Y19163D02*
D03*
X47559Y21358D02*
D03*
X47776Y21083D02*
D03*
X48022Y21348D02*
D03*
X48366Y21073D02*
D03*
X48371Y21417D02*
D03*
X41909Y24705D02*
D03*
X46378Y22028D02*
D03*
X47224Y22717D02*
D03*
X46811Y23041D02*
D03*
X47235Y23081D02*
D03*
X47224Y23474D02*
D03*
X47244Y23789D02*
D03*
X47450Y24114D02*
D03*
X47480Y24459D02*
D03*
X47494Y24833D02*
D03*
X47372Y25187D02*
D03*
X45906Y24390D02*
D03*
X45197Y24598D02*
D03*
X43002Y23386D02*
D03*
X43888Y24665D02*
D03*
X43622Y24598D02*
D03*
X43340Y24616D02*
D03*
X43061D02*
D03*
X42785D02*
D03*
X42490Y24606D02*
D03*
X42185Y24685D02*
D03*
X41526Y25098D02*
D03*
X41683Y24872D02*
D03*
X41476Y24528D02*
D03*
X40876Y24847D02*
D03*
X41526Y25374D02*
D03*
X41181D02*
D03*
X40837D02*
D03*
X47461Y27313D02*
D03*
X47162Y27431D02*
D03*
X47037Y25413D02*
D03*
X46703D02*
D03*
X46407Y25069D02*
D03*
X46161Y25305D02*
D03*
X45817Y25364D02*
D03*
X45479Y25384D02*
D03*
X45138D02*
D03*
X44803D02*
D03*
X44417Y25374D02*
D03*
X44039D02*
D03*
X43701Y25394D02*
D03*
X43327Y25404D02*
D03*
X42963Y25394D02*
D03*
X42589D02*
D03*
X42175Y25325D02*
D03*
X45049Y23287D02*
D03*
X44567Y23238D02*
D03*
X43612Y23839D02*
D03*
X42094Y22992D02*
D03*
X43593Y22805D02*
D03*
X44110D02*
D03*
X42470Y22224D02*
D03*
X42136Y21511D02*
D03*
X42254Y21132D02*
D03*
X42131Y20846D02*
D03*
X42270Y20512D02*
D03*
X46299Y19744D02*
D03*
X45896Y19616D02*
D03*
X47175Y21703D02*
D03*
X46988Y20394D02*
D03*
X46457Y18346D02*
D03*
X47274Y18258D02*
D03*
X47943Y22844D02*
D03*
X48809Y19400D02*
D03*
X43021Y19331D02*
D03*
X42440Y23584D02*
D03*
X41813D02*
D03*
X44656Y18760D02*
D03*
X45039Y19541D02*
D03*
X43760Y21329D02*
D03*
X47963Y17816D02*
D03*
X46439D02*
D03*
X46742Y19882D02*
D03*
X47835Y19528D02*
D03*
X44783Y20472D02*
D03*
X45768Y20463D02*
D03*
X44783Y21467D02*
D03*
X45768Y21457D02*
D03*
X45276Y20965D02*
D03*
D70*
X49528Y19892D02*
D03*
X44656Y19183D02*
D03*
M02*
