G04 Layer_Color=65535*
%FSLAX24Y24*%
%MOIN*%
G70*
G01*
G75*
%ADD10C,0.0079*%
%ADD12C,0.0394*%
D10*
X12010Y24862D02*
X69195D01*
X12010D02*
Y40906D01*
X69195Y24862D02*
Y40906D01*
X12010D02*
X69195D01*
X13701Y23681D02*
X13806D01*
X13753D01*
Y23366D01*
X13701D01*
X13806D01*
X13963D02*
Y23681D01*
X14173Y23366D01*
Y23681D01*
X14278D02*
Y23366D01*
X14435D01*
X14488Y23419D01*
Y23629D01*
X14435Y23681D01*
X14278D01*
X14593Y23366D02*
X14698D01*
X14645D01*
Y23681D01*
X14593Y23629D01*
X68238Y41417D02*
Y41207D01*
X68343Y41102D01*
X68448Y41207D01*
Y41417D01*
X68553D02*
Y41102D01*
X68710D01*
X68763Y41155D01*
Y41365D01*
X68710Y41417D01*
X68553D01*
X69078Y41102D02*
X68868D01*
X69078Y41312D01*
Y41365D01*
X69025Y41417D01*
X68920D01*
X68868Y41365D01*
X23442Y23183D02*
X23547D01*
X23495D01*
Y23498D01*
X23442Y23445D01*
X58836Y23425D02*
X58888Y23478D01*
X58993D01*
X59046Y23425D01*
Y23373D01*
X58993Y23320D01*
X58941D01*
X58993D01*
X59046Y23268D01*
Y23215D01*
X58993Y23163D01*
X58888D01*
X58836Y23215D01*
X59361Y23478D02*
X59151D01*
Y23320D01*
X59256Y23373D01*
X59308D01*
X59361Y23320D01*
Y23215D01*
X59308Y23163D01*
X59203D01*
X59151Y23215D01*
X58806Y42412D02*
X58859Y42464D01*
X58964D01*
X59016Y42412D01*
Y42359D01*
X58964Y42307D01*
X58911D01*
X58964D01*
X59016Y42254D01*
Y42202D01*
X58964Y42149D01*
X58859D01*
X58806Y42202D01*
X59331Y42464D02*
X59226Y42412D01*
X59121Y42307D01*
Y42202D01*
X59174Y42149D01*
X59279D01*
X59331Y42202D01*
Y42254D01*
X59279Y42307D01*
X59121D01*
X22930Y42464D02*
X23140D01*
Y42412D01*
X22930Y42202D01*
Y42149D01*
X23245Y42412D02*
X23298Y42464D01*
X23403D01*
X23455Y42412D01*
Y42202D01*
X23403Y42149D01*
X23298D01*
X23245Y42202D01*
Y42412D01*
X13260Y25866D02*
Y26076D01*
X13365Y26181D01*
X13470Y26076D01*
Y25866D01*
Y26024D01*
X13260D01*
X13575Y25866D02*
X13680D01*
X13628D01*
Y26181D01*
X13575Y26129D01*
X13260Y39468D02*
Y39154D01*
Y39258D01*
X13470Y39468D01*
X13313Y39311D01*
X13470Y39154D01*
X13575D02*
X13680D01*
X13628D01*
Y39468D01*
X13575Y39416D01*
X66656Y26181D02*
Y25866D01*
Y25971D01*
X66866Y26181D01*
X66708Y26024D01*
X66866Y25866D01*
X67181D02*
X66971D01*
X67181Y26076D01*
Y26129D01*
X67128Y26181D01*
X67023D01*
X66971Y26129D01*
X66656Y39154D02*
Y39363D01*
X66761Y39468D01*
X66866Y39363D01*
Y39154D01*
Y39311D01*
X66656D01*
X67181Y39154D02*
X66971D01*
X67181Y39363D01*
Y39416D01*
X67128Y39468D01*
X67023D01*
X66971Y39416D01*
D12*
X13678Y24072D02*
Y41628D01*
X67684D01*
Y24072D02*
Y41628D01*
X13678Y24072D02*
X67684D01*
X12999Y31401D02*
X13678D01*
X12999D02*
Y34019D01*
X13669D01*
M02*
