G04*
G04 #@! TF.GenerationSoftware,Altium Limited,Altium Designer,19.1.8 (144)*
G04*
G04 Layer_Color=16711935*
%FSLAX24Y24*%
%MOIN*%
G70*
G01*
G75*
%ADD48R,0.0315X0.0394*%
%ADD49R,0.0394X0.0433*%
%ADD50R,0.0610X0.0492*%
%ADD51R,0.0394X0.0315*%
%ADD52O,0.0630X0.0320*%
%ADD54O,0.0320X0.0630*%
%ADD55R,0.0728X0.0453*%
G04:AMPARAMS|DCode=56|XSize=114.2mil|YSize=63mil|CornerRadius=16.7mil|HoleSize=0mil|Usage=FLASHONLY|Rotation=270.000|XOffset=0mil|YOffset=0mil|HoleType=Round|Shape=RoundedRectangle|*
%AMROUNDEDRECTD56*
21,1,0.1142,0.0295,0,0,270.0*
21,1,0.0807,0.0630,0,0,270.0*
1,1,0.0335,-0.0148,-0.0404*
1,1,0.0335,-0.0148,0.0404*
1,1,0.0335,0.0148,0.0404*
1,1,0.0335,0.0148,-0.0404*
%
%ADD56ROUNDEDRECTD56*%
%ADD57R,0.0433X0.0394*%
%ADD62R,0.0591X0.0748*%
%ADD63R,0.0453X0.0728*%
%ADD67O,0.0335X0.0839*%
%ADD86O,0.0839X0.0335*%
%ADD89C,0.0512*%
G04:AMPARAMS|DCode=90|XSize=90.6mil|YSize=72.8mil|CornerRadius=19.2mil|HoleSize=0mil|Usage=FLASHONLY|Rotation=0.000|XOffset=0mil|YOffset=0mil|HoleType=Round|Shape=RoundedRectangle|*
%AMROUNDEDRECTD90*
21,1,0.0906,0.0344,0,0,0.0*
21,1,0.0522,0.0728,0,0,0.0*
1,1,0.0384,0.0261,-0.0172*
1,1,0.0384,-0.0261,-0.0172*
1,1,0.0384,-0.0261,0.0172*
1,1,0.0384,0.0261,0.0172*
%
%ADD90ROUNDEDRECTD90*%
%ADD91C,0.0669*%
%ADD92C,0.0630*%
%ADD93C,0.0984*%
%ADD94C,0.1319*%
%ADD95P,0.0895X8X202.5*%
%ADD96C,0.0827*%
%ADD97C,0.1220*%
%ADD98C,0.0748*%
%ADD99R,0.0748X0.0748*%
%ADD100R,0.0669X0.0669*%
%ADD101C,0.0639*%
%ADD102R,0.0639X0.0639*%
%ADD103C,0.0709*%
%ADD104P,0.0682X8X292.5*%
%ADD105R,0.0866X0.0866*%
%ADD106C,0.0866*%
%ADD107C,0.3189*%
%ADD108R,0.0639X0.0639*%
%ADD109C,0.1024*%
%ADD110C,0.0906*%
%ADD111R,0.0669X0.0669*%
%ADD112P,0.0682X8X202.5*%
%ADD113R,0.0630X0.0630*%
G04:AMPARAMS|DCode=203|XSize=131.9mil|YSize=94.5mil|CornerRadius=24.6mil|HoleSize=0mil|Usage=FLASHONLY|Rotation=270.000|XOffset=0mil|YOffset=0mil|HoleType=Round|Shape=RoundedRectangle|*
%AMROUNDEDRECTD203*
21,1,0.1319,0.0453,0,0,270.0*
21,1,0.0827,0.0945,0,0,270.0*
1,1,0.0492,-0.0226,-0.0413*
1,1,0.0492,-0.0226,0.0413*
1,1,0.0492,0.0226,0.0413*
1,1,0.0492,0.0226,-0.0413*
%
%ADD203ROUNDEDRECTD203*%
G04:AMPARAMS|DCode=204|XSize=90.6mil|YSize=72.8mil|CornerRadius=19.2mil|HoleSize=0mil|Usage=FLASHONLY|Rotation=90.000|XOffset=0mil|YOffset=0mil|HoleType=Round|Shape=RoundedRectangle|*
%AMROUNDEDRECTD204*
21,1,0.0906,0.0344,0,0,90.0*
21,1,0.0522,0.0728,0,0,90.0*
1,1,0.0384,0.0172,0.0261*
1,1,0.0384,0.0172,-0.0261*
1,1,0.0384,-0.0172,-0.0261*
1,1,0.0384,-0.0172,0.0261*
%
%ADD204ROUNDEDRECTD204*%
G04:AMPARAMS|DCode=205|XSize=198.8mil|YSize=74.8mil|CornerRadius=19.7mil|HoleSize=0mil|Usage=FLASHONLY|Rotation=180.000|XOffset=0mil|YOffset=0mil|HoleType=Round|Shape=RoundedRectangle|*
%AMROUNDEDRECTD205*
21,1,0.1988,0.0354,0,0,180.0*
21,1,0.1594,0.0748,0,0,180.0*
1,1,0.0394,-0.0797,0.0177*
1,1,0.0394,0.0797,0.0177*
1,1,0.0394,0.0797,-0.0177*
1,1,0.0394,-0.0797,-0.0177*
%
%ADD205ROUNDEDRECTD205*%
%ADD206R,0.0748X0.1378*%
G04:AMPARAMS|DCode=207|XSize=82.7mil|YSize=51.2mil|CornerRadius=13.8mil|HoleSize=0mil|Usage=FLASHONLY|Rotation=90.000|XOffset=0mil|YOffset=0mil|HoleType=Round|Shape=RoundedRectangle|*
%AMROUNDEDRECTD207*
21,1,0.0827,0.0236,0,0,90.0*
21,1,0.0551,0.0512,0,0,90.0*
1,1,0.0276,0.0118,0.0276*
1,1,0.0276,0.0118,-0.0276*
1,1,0.0276,-0.0118,-0.0276*
1,1,0.0276,-0.0118,0.0276*
%
%ADD207ROUNDEDRECTD207*%
%ADD208O,0.0433X0.0886*%
G04:AMPARAMS|DCode=209|XSize=283.5mil|YSize=222.4mil|CornerRadius=12.9mil|HoleSize=0mil|Usage=FLASHONLY|Rotation=90.000|XOffset=0mil|YOffset=0mil|HoleType=Round|Shape=RoundedRectangle|*
%AMROUNDEDRECTD209*
21,1,0.2835,0.1967,0,0,90.0*
21,1,0.2577,0.2224,0,0,90.0*
1,1,0.0258,0.0983,0.1288*
1,1,0.0258,0.0983,-0.1288*
1,1,0.0258,-0.0983,-0.1288*
1,1,0.0258,-0.0983,0.1288*
%
%ADD209ROUNDEDRECTD209*%
%ADD210R,0.0256X0.0276*%
G04:AMPARAMS|DCode=211|XSize=45.3mil|YSize=72.8mil|CornerRadius=12.3mil|HoleSize=0mil|Usage=FLASHONLY|Rotation=90.000|XOffset=0mil|YOffset=0mil|HoleType=Round|Shape=RoundedRectangle|*
%AMROUNDEDRECTD211*
21,1,0.0453,0.0482,0,0,90.0*
21,1,0.0207,0.0728,0,0,90.0*
1,1,0.0246,0.0241,0.0103*
1,1,0.0246,0.0241,-0.0103*
1,1,0.0246,-0.0241,-0.0103*
1,1,0.0246,-0.0241,0.0103*
%
%ADD211ROUNDEDRECTD211*%
G04:AMPARAMS|DCode=212|XSize=45.3mil|YSize=72.8mil|CornerRadius=12.3mil|HoleSize=0mil|Usage=FLASHONLY|Rotation=90.000|XOffset=0mil|YOffset=0mil|HoleType=Round|Shape=RoundedRectangle|*
%AMROUNDEDRECTD212*
21,1,0.0453,0.0482,0,0,90.0*
21,1,0.0207,0.0728,0,0,90.0*
1,1,0.0246,0.0241,0.0103*
1,1,0.0246,0.0241,-0.0103*
1,1,0.0246,-0.0241,-0.0103*
1,1,0.0246,-0.0241,0.0103*
%
%ADD212ROUNDEDRECTD212*%
G04:AMPARAMS|DCode=213|XSize=137.8mil|YSize=72.8mil|CornerRadius=19.2mil|HoleSize=0mil|Usage=FLASHONLY|Rotation=90.000|XOffset=0mil|YOffset=0mil|HoleType=Round|Shape=RoundedRectangle|*
%AMROUNDEDRECTD213*
21,1,0.1378,0.0344,0,0,90.0*
21,1,0.0994,0.0728,0,0,90.0*
1,1,0.0384,0.0172,0.0497*
1,1,0.0384,0.0172,-0.0497*
1,1,0.0384,-0.0172,-0.0497*
1,1,0.0384,-0.0172,0.0497*
%
%ADD213ROUNDEDRECTD213*%
G04:AMPARAMS|DCode=214|XSize=82.7mil|YSize=43.3mil|CornerRadius=11.8mil|HoleSize=0mil|Usage=FLASHONLY|Rotation=0.000|XOffset=0mil|YOffset=0mil|HoleType=Round|Shape=RoundedRectangle|*
%AMROUNDEDRECTD214*
21,1,0.0827,0.0197,0,0,0.0*
21,1,0.0591,0.0433,0,0,0.0*
1,1,0.0236,0.0295,-0.0098*
1,1,0.0236,-0.0295,-0.0098*
1,1,0.0236,-0.0295,0.0098*
1,1,0.0236,0.0295,0.0098*
%
%ADD214ROUNDEDRECTD214*%
G04:AMPARAMS|DCode=215|XSize=283.5mil|YSize=222.4mil|CornerRadius=12.9mil|HoleSize=0mil|Usage=FLASHONLY|Rotation=180.000|XOffset=0mil|YOffset=0mil|HoleType=Round|Shape=RoundedRectangle|*
%AMROUNDEDRECTD215*
21,1,0.2835,0.1967,0,0,180.0*
21,1,0.2577,0.2224,0,0,180.0*
1,1,0.0258,-0.1288,0.0983*
1,1,0.0258,0.1288,0.0983*
1,1,0.0258,0.1288,-0.0983*
1,1,0.0258,-0.1288,-0.0983*
%
%ADD215ROUNDEDRECTD215*%
%ADD216O,0.0886X0.0433*%
G36*
X7336Y7963D02*
X7323Y7860D01*
X7283Y7764D01*
X7220Y7682D01*
X7138Y7619D01*
X7042Y7579D01*
X6939Y7566D01*
X6836Y7579D01*
X6740Y7619D01*
X6658Y7682D01*
X6595Y7764D01*
X6555Y7860D01*
X6542Y7963D01*
D01*
X6555Y8065D01*
X6595Y8161D01*
X6658Y8243D01*
X6740Y8306D01*
X6836Y8346D01*
X6939Y8360D01*
X7042Y8346D01*
X7138Y8306D01*
X7220Y8243D01*
X7283Y8161D01*
X7323Y8065D01*
X7336Y7963D01*
D01*
D02*
G37*
G36*
X49984Y37854D02*
X49970Y37752D01*
X49931Y37656D01*
X49867Y37574D01*
X49785Y37510D01*
X49689Y37471D01*
X49587Y37457D01*
X49484Y37471D01*
X49388Y37510D01*
X49306Y37574D01*
X49243Y37656D01*
X49203Y37752D01*
X49190Y37854D01*
D01*
X49203Y37957D01*
X49243Y38053D01*
X49306Y38135D01*
X49388Y38198D01*
X49484Y38238D01*
X49587Y38251D01*
X49689Y38238D01*
X49785Y38198D01*
X49867Y38135D01*
X49931Y38053D01*
X49970Y37957D01*
X49984Y37854D01*
D01*
D02*
G37*
D48*
X40286Y27894D02*
D03*
X40896D02*
D03*
X41664Y27904D02*
D03*
X42274D02*
D03*
X41289Y30266D02*
D03*
X40679D02*
D03*
X42470D02*
D03*
X41860D02*
D03*
X30571Y32894D02*
D03*
X31181D02*
D03*
X32608Y30719D02*
D03*
X31998D02*
D03*
X22658Y28524D02*
D03*
X23268D02*
D03*
X26594Y29144D02*
D03*
X25984D02*
D03*
X23789Y30965D02*
D03*
X23179D02*
D03*
X24941D02*
D03*
X24331D02*
D03*
X28229Y34488D02*
D03*
X28839D02*
D03*
X40807Y34478D02*
D03*
X41417D02*
D03*
X14616Y26998D02*
D03*
X15226D02*
D03*
X23740Y35984D02*
D03*
X23130D02*
D03*
X36299Y34508D02*
D03*
X35689D02*
D03*
X15856Y23337D02*
D03*
X16466D02*
D03*
X48376Y15728D02*
D03*
X48986D02*
D03*
X51988Y17313D02*
D03*
X51378D02*
D03*
X19803Y26998D02*
D03*
X19193D02*
D03*
X15640Y27904D02*
D03*
X16250D02*
D03*
X15226Y26289D02*
D03*
X14616D02*
D03*
X18022Y23337D02*
D03*
X18632D02*
D03*
X18484Y27904D02*
D03*
X17874D02*
D03*
X19193Y26289D02*
D03*
X19803D02*
D03*
X10738Y6998D02*
D03*
X11348D02*
D03*
X46910Y34350D02*
D03*
X47520D02*
D03*
X42903Y34449D02*
D03*
X42293D02*
D03*
X34449Y34508D02*
D03*
X35059D02*
D03*
X30020Y34459D02*
D03*
X30630D02*
D03*
X48603Y27136D02*
D03*
X49213D02*
D03*
D49*
X47885Y29990D02*
D03*
Y29321D02*
D03*
X29518Y19941D02*
D03*
Y19272D02*
D03*
X28947Y17598D02*
D03*
Y18268D02*
D03*
X28917Y19272D02*
D03*
Y19941D02*
D03*
X28317Y19262D02*
D03*
Y19931D02*
D03*
X46388Y28691D02*
D03*
Y28022D02*
D03*
X46983Y29158D02*
D03*
Y28489D02*
D03*
X48475Y29321D02*
D03*
Y29990D02*
D03*
X46377Y8592D02*
D03*
Y9261D02*
D03*
X45708Y8592D02*
D03*
Y9261D02*
D03*
X44872Y10079D02*
D03*
Y10748D02*
D03*
X25463Y9281D02*
D03*
Y8612D02*
D03*
X24016Y8632D02*
D03*
Y9301D02*
D03*
X29616Y18258D02*
D03*
Y17589D02*
D03*
X46545Y25994D02*
D03*
Y26663D02*
D03*
X47943Y26762D02*
D03*
Y27431D02*
D03*
D50*
X24734Y8602D02*
D03*
Y9311D02*
D03*
X23297Y9331D02*
D03*
Y8622D02*
D03*
D51*
X18327Y8789D02*
D03*
Y9399D02*
D03*
X38681Y31624D02*
D03*
Y32234D02*
D03*
X33041Y31821D02*
D03*
Y31211D02*
D03*
X36299Y31211D02*
D03*
Y31821D02*
D03*
X26053Y30492D02*
D03*
Y29882D02*
D03*
X26516Y32037D02*
D03*
Y31427D02*
D03*
X29636Y31437D02*
D03*
Y32047D02*
D03*
X33789Y17028D02*
D03*
Y16418D02*
D03*
X14783Y37815D02*
D03*
Y37205D02*
D03*
X15207Y23484D02*
D03*
Y24094D02*
D03*
X19734Y23927D02*
D03*
Y24537D02*
D03*
X13435Y12716D02*
D03*
Y12106D02*
D03*
X15226Y24666D02*
D03*
Y25276D02*
D03*
X19104Y23927D02*
D03*
Y24537D02*
D03*
D52*
X36998Y31824D02*
D03*
X37908Y31424D02*
D03*
Y32224D02*
D03*
X26698Y29872D02*
D03*
Y30672D02*
D03*
X27608Y30272D02*
D03*
X11540Y34459D02*
D03*
Y35259D02*
D03*
X12450Y34859D02*
D03*
X49661Y15728D02*
D03*
Y16528D02*
D03*
X50571Y16128D02*
D03*
X10571Y26716D02*
D03*
X11481Y26316D02*
D03*
Y27116D02*
D03*
X7805Y25427D02*
D03*
X8715Y25027D02*
D03*
Y25827D02*
D03*
X10335Y28970D02*
D03*
X11245Y28570D02*
D03*
Y29370D02*
D03*
X8534Y21569D02*
D03*
X9444Y21168D02*
D03*
Y21969D02*
D03*
D54*
X31781Y32894D02*
D03*
X32582D02*
D03*
X32181Y31984D02*
D03*
X40496Y29517D02*
D03*
X40096Y28607D02*
D03*
X40896D02*
D03*
X42264Y28587D02*
D03*
X41464D02*
D03*
X41864Y29497D02*
D03*
X31106Y32037D02*
D03*
X30706Y31127D02*
D03*
X31506D02*
D03*
X23202Y30251D02*
D03*
X22802Y29341D02*
D03*
X23602D02*
D03*
X25043Y30230D02*
D03*
X24643Y29320D02*
D03*
X25443D02*
D03*
X14433Y13464D02*
D03*
X14833Y12554D02*
D03*
X14033D02*
D03*
X51670Y15640D02*
D03*
X52070Y16550D02*
D03*
X51270D02*
D03*
X8786Y19597D02*
D03*
X9186Y20507D02*
D03*
X8386D02*
D03*
X9622Y17766D02*
D03*
X10022Y18676D02*
D03*
X9222D02*
D03*
D55*
X22096Y30030D02*
D03*
Y31171D02*
D03*
X9783Y26713D02*
D03*
Y25571D02*
D03*
X7638Y20699D02*
D03*
Y19557D02*
D03*
X6772Y20709D02*
D03*
Y19567D02*
D03*
X12293Y27461D02*
D03*
Y26319D02*
D03*
D56*
X41634Y8839D02*
D03*
X40374D02*
D03*
D57*
X18986Y8209D02*
D03*
X18317D02*
D03*
X18986Y9951D02*
D03*
X18317D02*
D03*
X30295Y20148D02*
D03*
X30965D02*
D03*
X44656Y28947D02*
D03*
X45325D02*
D03*
X30965Y18888D02*
D03*
X30295D02*
D03*
X30295Y19518D02*
D03*
X30965D02*
D03*
X34281Y9823D02*
D03*
X34951D02*
D03*
X28258Y18543D02*
D03*
X27589D02*
D03*
X19154Y25591D02*
D03*
X19823D02*
D03*
X35246Y10935D02*
D03*
X34577D02*
D03*
X49360Y25797D02*
D03*
X48691D02*
D03*
X45374Y26339D02*
D03*
X44705D02*
D03*
X45689Y25699D02*
D03*
X45020D02*
D03*
X45659Y27293D02*
D03*
X44990D02*
D03*
X45157Y30030D02*
D03*
X45827D02*
D03*
X48652Y26388D02*
D03*
X49321D02*
D03*
D62*
X20965Y29242D02*
D03*
X22106D02*
D03*
D63*
X19646Y31407D02*
D03*
X20787D02*
D03*
X12283Y13455D02*
D03*
X13425D02*
D03*
X11073Y19488D02*
D03*
X9931D02*
D03*
X10335Y27874D02*
D03*
X11476D02*
D03*
D67*
X34453Y33430D02*
D03*
Y31230D02*
D03*
X33953Y33430D02*
D03*
Y31230D02*
D03*
X35453Y33430D02*
D03*
X34953D02*
D03*
Y31230D02*
D03*
X35453D02*
D03*
X23888Y34026D02*
D03*
Y31826D02*
D03*
X23388Y34026D02*
D03*
Y31826D02*
D03*
X24888Y34026D02*
D03*
X24388D02*
D03*
Y31826D02*
D03*
X24888D02*
D03*
X27884Y33632D02*
D03*
Y31432D02*
D03*
X27384Y33632D02*
D03*
Y31432D02*
D03*
X28884Y33632D02*
D03*
X28384D02*
D03*
Y31432D02*
D03*
X28884D02*
D03*
X41346Y33273D02*
D03*
Y31073D02*
D03*
X40846Y33273D02*
D03*
Y31073D02*
D03*
X42346Y33273D02*
D03*
X41846D02*
D03*
Y31073D02*
D03*
X42346D02*
D03*
D86*
X16028Y26091D02*
D03*
X18228D02*
D03*
X16028Y24591D02*
D03*
Y25091D02*
D03*
Y25591D02*
D03*
Y24091D02*
D03*
X18228Y24591D02*
D03*
Y25091D02*
D03*
Y25591D02*
D03*
Y24091D02*
D03*
X16028Y26591D02*
D03*
Y27091D02*
D03*
X18228Y26591D02*
D03*
Y27091D02*
D03*
D89*
X6939Y7963D02*
D03*
X49587Y37854D02*
D03*
X32244Y7352D02*
D03*
D90*
X18819Y17815D02*
D03*
X17205D02*
D03*
X37776Y8839D02*
D03*
X39390D02*
D03*
X9439Y11703D02*
D03*
X11053D02*
D03*
D91*
X47504Y35254D02*
D03*
X46602D02*
D03*
X42093D02*
D03*
X42994D02*
D03*
X41191D02*
D03*
X40289D02*
D03*
X30656D02*
D03*
X29754D02*
D03*
X27951D02*
D03*
X28852D02*
D03*
X24343D02*
D03*
X23441D02*
D03*
X34120D02*
D03*
X35022D02*
D03*
X36825D02*
D03*
X35923D02*
D03*
X9455Y35463D02*
D03*
X49695Y33691D02*
D03*
Y34478D02*
D03*
Y35266D02*
D03*
Y36053D02*
D03*
X36240Y17394D02*
D03*
X35240D02*
D03*
X36240Y18394D02*
D03*
Y16394D02*
D03*
X35240Y18394D02*
D03*
Y16394D02*
D03*
Y19396D02*
D03*
Y21396D02*
D03*
X36240Y19396D02*
D03*
Y21396D02*
D03*
X35240Y20396D02*
D03*
X36240D02*
D03*
Y26400D02*
D03*
X35240D02*
D03*
X36240Y25400D02*
D03*
X35240D02*
D03*
Y22398D02*
D03*
Y24398D02*
D03*
X36240Y22398D02*
D03*
Y24398D02*
D03*
X35240Y23398D02*
D03*
X36240D02*
D03*
X35240Y15394D02*
D03*
X30344Y27254D02*
D03*
Y28258D02*
D03*
X31344Y27254D02*
D03*
X29344D02*
D03*
X31344Y28258D02*
D03*
X29344D02*
D03*
X32343D02*
D03*
Y27254D02*
D03*
X33346Y28258D02*
D03*
X27343Y27254D02*
D03*
Y28258D02*
D03*
X28343Y27254D02*
D03*
X26343D02*
D03*
X28343Y28258D02*
D03*
X26343D02*
D03*
X25341D02*
D03*
Y27254D02*
D03*
X24341Y28258D02*
D03*
Y27254D02*
D03*
X22441Y26398D02*
D03*
X21447Y18394D02*
D03*
X22441D02*
D03*
X21447Y17394D02*
D03*
Y19394D02*
D03*
X22441Y17394D02*
D03*
Y19394D02*
D03*
Y16392D02*
D03*
X21447D02*
D03*
X22441Y15392D02*
D03*
X21447Y21396D02*
D03*
X22441D02*
D03*
X21447Y20396D02*
D03*
Y22396D02*
D03*
X22441Y20396D02*
D03*
Y22396D02*
D03*
Y25398D02*
D03*
Y23398D02*
D03*
X21447Y25398D02*
D03*
Y23398D02*
D03*
X22441Y24398D02*
D03*
X21447D02*
D03*
D92*
X23268Y23917D02*
D03*
Y22628D02*
D03*
Y19911D02*
D03*
X24272Y17805D02*
D03*
X23386Y18612D02*
D03*
X23268Y21260D02*
D03*
Y25256D02*
D03*
X10748Y32618D02*
D03*
X8337Y33917D02*
D03*
X25945Y37144D02*
D03*
X26346Y37844D02*
D03*
X25543D02*
D03*
X26748Y37144D02*
D03*
X27150Y37844D02*
D03*
X27551Y37144D02*
D03*
X25142D02*
D03*
X24740Y37844D02*
D03*
X43400D02*
D03*
X43801Y37144D02*
D03*
X46211D02*
D03*
X45809Y37844D02*
D03*
X45407Y37144D02*
D03*
X44203Y37844D02*
D03*
X45006D02*
D03*
X44604Y37144D02*
D03*
X38386D02*
D03*
X38787Y37844D02*
D03*
X37984D02*
D03*
X39189Y37144D02*
D03*
X39591Y37844D02*
D03*
X39992Y37144D02*
D03*
X37583D02*
D03*
X37181Y37844D02*
D03*
X30961D02*
D03*
X31362Y37144D02*
D03*
X33772D02*
D03*
X33370Y37844D02*
D03*
X32968Y37144D02*
D03*
X31764Y37844D02*
D03*
X32567D02*
D03*
X32165Y37144D02*
D03*
X12154Y20949D02*
D03*
X8469Y5809D02*
D03*
X24134Y21929D02*
D03*
Y21142D02*
D03*
Y22717D02*
D03*
Y23504D02*
D03*
Y20354D02*
D03*
Y19567D02*
D03*
Y18780D02*
D03*
X13833Y5809D02*
D03*
D93*
X22953Y37447D02*
D03*
X47992D02*
D03*
X32362Y34852D02*
D03*
X38583D02*
D03*
D94*
X23642Y38848D02*
D03*
X47303D02*
D03*
D95*
X25738Y21988D02*
D03*
D96*
X33612D02*
D03*
D97*
X18100Y39104D02*
D03*
X35561Y5947D02*
D03*
X6890Y39112D02*
D03*
X10974D02*
D03*
D98*
X16919Y36230D02*
D03*
Y37411D02*
D03*
X18100Y36230D02*
D03*
X19282D02*
D03*
X18100Y37411D02*
D03*
X1959Y27156D02*
D03*
Y31093D02*
D03*
X34970Y8829D02*
D03*
X36152D02*
D03*
Y7648D02*
D03*
X6299Y37411D02*
D03*
Y36230D02*
D03*
X7480D02*
D03*
X10384Y37411D02*
D03*
Y36230D02*
D03*
X11565D02*
D03*
D99*
X19282Y37411D02*
D03*
X34970Y7648D02*
D03*
X7480Y37411D02*
D03*
X11565D02*
D03*
D100*
X8455Y35463D02*
D03*
X33346Y27254D02*
D03*
D101*
X38045Y6427D02*
D03*
X19478Y30413D02*
D03*
X54488Y14803D02*
D03*
X43967Y6427D02*
D03*
X14809Y38602D02*
D03*
X13307Y23189D02*
D03*
X52726Y29695D02*
D03*
X47976Y21791D02*
D03*
X46976D02*
D03*
X44976D02*
D03*
X43976D02*
D03*
X41976D02*
D03*
X47976Y20791D02*
D03*
X46976D02*
D03*
X44976D02*
D03*
X43976D02*
D03*
X41976D02*
D03*
X45976Y21791D02*
D03*
X42976D02*
D03*
X48976Y20791D02*
D03*
X45976D02*
D03*
X42976D02*
D03*
X38593Y25522D02*
D03*
X37736Y10571D02*
D03*
X19291Y15600D02*
D03*
X21880Y11033D02*
D03*
X21693Y7146D02*
D03*
D102*
X39045Y6427D02*
D03*
X20856Y30413D02*
D03*
X53110Y14803D02*
D03*
X44967Y6427D02*
D03*
X13809Y38602D02*
D03*
X51348Y29695D02*
D03*
X48976Y21791D02*
D03*
X17291Y15600D02*
D03*
X20502Y11033D02*
D03*
X19693Y7146D02*
D03*
D103*
X27520Y13573D02*
D03*
D104*
X12154Y18949D02*
D03*
D105*
X8159Y23907D02*
D03*
D106*
X10522D02*
D03*
D107*
X53789Y11102D02*
D03*
Y33150D02*
D03*
X2608D02*
D03*
Y11102D02*
D03*
D108*
X13307Y25189D02*
D03*
X38593Y24144D02*
D03*
X37736Y11949D02*
D03*
D109*
X5530Y34459D02*
D03*
X9530D02*
D03*
X6045Y24085D02*
D03*
X2045D02*
D03*
D110*
X50065Y7870D02*
D03*
Y5870D02*
D03*
X48065Y7870D02*
D03*
Y5870D02*
D03*
X49065Y6870D02*
D03*
X48573Y36250D02*
D03*
Y33494D02*
D03*
X50817Y36250D02*
D03*
Y33494D02*
D03*
D111*
X36240Y15394D02*
D03*
X21447Y15392D02*
D03*
Y26398D02*
D03*
D112*
X6469Y5809D02*
D03*
X11833D02*
D03*
D113*
X24134Y24291D02*
D03*
D203*
X15049Y15246D02*
D03*
X12293D02*
D03*
X3012Y26457D02*
D03*
X5768D02*
D03*
D204*
X15846Y9281D02*
D03*
Y7667D02*
D03*
D205*
X50325Y30522D02*
D03*
Y32254D02*
D03*
D206*
X20512Y34547D02*
D03*
X18465D02*
D03*
X39803Y30285D02*
D03*
X37756D02*
D03*
X45128Y33081D02*
D03*
X47175D02*
D03*
X20817Y32746D02*
D03*
X18770D02*
D03*
X9291Y10089D02*
D03*
X11339D02*
D03*
X9291Y8376D02*
D03*
X11339D02*
D03*
D207*
X28382Y5475D02*
D03*
X30382D02*
D03*
X28382Y15425D02*
D03*
X30382D02*
D03*
X29382Y5475D02*
D03*
Y15425D02*
D03*
D208*
X6917Y26703D02*
D03*
X8713D02*
D03*
D209*
X7815Y29262D02*
D03*
D210*
X45876Y7874D02*
D03*
X46211D02*
D03*
D211*
X23356Y5807D02*
D03*
D212*
X23356Y6713D02*
D03*
Y7618D02*
D03*
D213*
X25955Y6713D02*
D03*
D214*
X50856Y14547D02*
D03*
Y13455D02*
D03*
X45768Y11732D02*
D03*
Y10945D02*
D03*
X50856Y11093D02*
D03*
Y12087D02*
D03*
D215*
X5620Y17783D02*
D03*
D216*
X8179Y18681D02*
D03*
Y16886D02*
D03*
M02*
