M48
;Layer_Color=9474304
;FILE_FORMAT=2:4
INCH,LZ
;TYPE=PLATED
T1F00S00C0.0118
T2F00S00C0.0157
T3F00S00C0.0197
T4F00S00C0.0380
T5F00S00C0.0394
T6F00S00C0.0472
T7F00S00C0.0512
T8F00S00C0.0551
T9F00S00C0.0591
%
T01
X028169Y013376
X03248Y01378
X034449
X036417
X038386
X038898Y013307
X040354Y01378
X040532Y012451
X040276Y011841
X041998Y013307
X041565Y014213
X044291Y013789
X045167Y01312
X047037Y01373
X049055Y01312
X050226Y013169
X050266Y01247
Y011752
X050207Y013957
X050197Y014705
X050217Y015522
Y016496
X050197Y017333
Y01814
X050177Y018878
X050167Y019508
Y020482
Y021457
Y022431
Y023406
Y02438
Y025354
X050246Y026093
X050295Y027136
X048937Y026673
X049045Y025906
X047116Y025177
X046919Y026624
X047244Y027559
X048671Y028435
X048356Y028967
X048465Y030315
X047244Y031132
X047608Y023839
X04751Y022608
X047559Y020226
X048947Y020492
X04936Y01685
X047963Y016909
X047175Y01685
X046388Y01753
X046348Y018169
X046211Y018504
X045081Y018849
X044862Y019144
X043996Y020276
X044409Y020825
X045463Y020669
X045148Y021555
Y021988
X045817
Y021555
X046791Y020709
X044331Y022411
X044154Y024508
Y02502
X045512Y026161
X045394Y027126
X04626Y025591
X046565Y028642
Y029606
X045217Y02939
X045307Y030454
X04437Y03061
X044016Y030925
X041978Y029656
X042215Y02939
X042293Y029006
X041476Y028907
X041432Y028499
X040718Y029291
X039803Y029459
X039754Y030207
X040049Y030502
X040295Y031053
X03936Y03123
X038565Y031104
X037815Y031043
X038033Y029933
X038376Y030108
X03878Y029882
X038907Y030433
X039045Y028947
X038733Y028632
X038457Y028368
X037709Y028417
X037817Y028023
X038024Y027718
X038238Y027421
X038524Y026909
X038937Y02687
X039016Y027392
X039449Y027234
X03878Y026299
X039557Y025571
X039675Y024695
X039311Y024567
X040079Y024528
X040482Y024577
X040797Y024774
X04188Y025305
X041073Y026939
X043543Y028002
X042382Y021476
X040354Y021654
X039587Y020768
X03937Y019685
X040118Y017726
X040049Y017283
X040541Y017254
X041043Y016211
X041339Y015748
X042018Y015846
X042392Y015827
X04311Y016161
X043976Y016772
X044311Y017283
X041988Y019577
X037047Y020118
X03814Y021388
X038789Y023209
X039577Y022677
X037185Y022963
X034281
X034596Y02247
X032963Y02376
X031467Y023839
Y024321
X031535Y023169
X031604Y022776
X032215Y020925
X031622Y019193
X031634Y016959
X032283Y016919
X032972Y017471
X0344Y016978
X033465Y015748
X035433
X036142Y016447
X037402Y015748
X037323Y025876
X036348Y026801
X035226Y026791
X034843Y027707
X034409Y027933
X033474Y028051
X033622Y029035
X033504Y029449
X033829Y029774
X034469Y030561
X035709Y030236
X036841Y029892
X036309Y028947
X034833Y028799
X032039Y027649
X032264Y027362
X031821Y0269
X031811Y025541
X03251Y026201
X031496Y02811
X031614Y030423
X032313Y03063
X031033Y030423
X02997Y030384
X029478Y028996
X028159Y028494
X02747Y030197
X026575Y025591
X028927Y025295
X030118Y025266
X030512Y025591
X031073Y026201
X030325Y026791
X031102Y024321
Y023839
X030896Y021594
X030531
Y021112
X030896
X030187Y019419
X029577Y019341
X029134Y018632
X027638Y018819
X027815Y019656
X0294Y022116
X028681Y022953
X030935Y018278
X029921Y017136
X024754Y027047
X026742Y031309
Y033888
X027618Y034547
X028415Y034311
X028642Y033386
X028199Y033287
X029142Y033344
X030049Y033465
X029549Y034185
X030778Y034823
X030612Y035523
X030699Y035886
X031181Y037096
X028071Y037362
X027569Y036496
X027431Y036093
X026939Y03565
X025472Y035079
X027067Y038907
X027313Y040571
X027667Y040285
X028022Y039872
X028543Y040295
X030089Y040128
X030384Y039862
X028494Y038337
X027687Y041752
X024626Y042126
X024537Y039852
X029439Y046624
X030915Y046772
X033051Y04686
X035492Y046722
X037461Y046782
X038937Y046083
X038386Y045276
X03937Y043307
X040935Y042421
X040915Y041033
X041467Y041457
X043051
X043022Y042293
X044291Y041339
X044498Y039862
X04498Y03933
X043307Y03937
X044075Y038425
X044508Y037815
X045482Y03748
X045453Y036614
X045276Y035433
X044518Y035768
X043268
X042795Y03501
X043386Y033356
X043878Y032756
X044537Y032205
X045384Y032165
X044537Y034321
X046762Y034478
Y035384
X046713Y038819
X046715Y039766
X046634Y042126
X045945Y041644
X041339Y03937
X040167Y039902
X037943Y040069
X037746Y040472
X036742Y039931
X03685Y039469
X03561Y039449
X035728Y040472
X03497Y040965
X032844Y041112
X031841Y03936
X03312Y038632
X034104Y039075
X035059Y037825
X03508Y037394
X034951Y03689
X034263Y03696
X03435Y036604
X034459Y036161
X034094Y036024
X033563Y035906
Y035285
X033061Y034823
Y034301
X034016Y034045
X034931Y033711
X036211Y033898
X037156Y033494
X037352Y032677
X037785
X03764Y031704
X037982Y031535
X03823Y031271
X0389Y031832
X040256Y031447
X040884Y031832
X041004Y032411
X040925Y032854
X041496Y033868
X040472Y034734
X03998Y034675
X039902Y034242
X039656Y033937
X039242Y033947
X038937Y033681
X039281Y033396
X038179Y033425
X038425Y034183
X038268Y034705
X036665Y035208
X036476Y036102
X036112Y035915
X036331Y036508
X03751Y03687
X038888Y037785
X038652Y038553
X040187Y037323
X0406Y036673
X041132Y036978
X041614Y036388
X042539Y031575
X035856Y031467
X035512Y032264
X034173Y031555
X033829Y032717
X033524Y032923
X032738Y033092
X032392Y032559
X032205Y032234
X031978Y03189
X031457Y033425
X031476Y033947
X032008Y033967
X03187Y034843
X03248Y035482
X031773Y036104
X031358Y036673
X031458Y037325
X032254Y037293
X032598Y037283
X036024Y038716
X035728Y035423
X035354Y03498
X035433Y043307
X048425Y040856
X047579Y039941
X048484Y038986
X046968Y037766
X047461Y035679
X048474Y034587
X047362Y033366
X041526Y047707
X040256Y047618
T02
X025305Y017864
X028801Y018249
T03
X041024Y01936
X042756Y022992
X042165Y027175
X044608Y028446
X024537Y02437
T04
X038169Y018917
Y020295
X041122Y021063
Y022441
X026191Y02315
Y02515
X026472Y036423
X025472
Y037423
X026472
Y038423
Y039423
X025472
Y040423
X026472
X025472Y038423
T05
X0261Y012313
X0281
X02622Y027931
Y028931
X02522
Y029931
X02622
X02522Y027931
X025039Y032248
Y033248
X02624
Y032248
X028484Y041801
X029484
X030484
X025217Y044407
Y046407
X03235Y041801
X03335
X03435
X036287
X037287
X038287
T06
X049065Y021752
Y022736
Y02372
T07
X053543Y019075
Y021043
X056339
Y019075
X059016
Y021043
Y025335
Y027303
X056339
Y025335
X053543
Y027303
X056496Y029646
X047795
Y032598
Y034134
Y037087
Y038504
Y041457
X055236
X057756
X056496Y038504
X055236Y037087
X057756
X056496Y034134
X055236Y032598
X057756
T08
X028661Y014035
Y016398
T09
X030945Y014774
X032913
X034882
X03685
X044675
X046644
X048612
X053474
X055443
X057411
X029409Y045069
X027441
X031378
X033346
X035315
X037283
X044291
X04626
X052421
X05439
X056358
X058563
X060532
M30
