G04 Layer_Color=16711935*
%FSLAX24Y24*%
%MOIN*%
G70*
G01*
G75*
%ADD69C,0.0748*%
%ADD126C,0.2402*%
%ADD127C,0.1614*%
%ADD128R,0.1220X0.1220*%
%ADD129C,0.1220*%
%ADD130R,0.0669X0.0669*%
%ADD131C,0.0669*%
%ADD132C,0.1261*%
%ADD133R,0.1261X0.1261*%
%ADD134C,0.0710*%
%ADD135R,0.0710X0.0710*%
%ADD136R,0.0669X0.0669*%
%ADD137R,0.0748X0.0748*%
%ADD138R,0.0866X0.0866*%
%ADD139C,0.0866*%
%ADD140C,0.0787*%
%ADD141C,0.1063*%
%ADD142C,0.0639*%
%ADD143R,0.0639X0.0639*%
%ADD144C,0.0680*%
%ADD145R,0.0680X0.0680*%
D69*
X49065Y22736D02*
D03*
Y21752D02*
D03*
D126*
X39818Y15198D02*
D03*
Y44725D02*
D03*
D127*
X28460Y30778D02*
D03*
X41846D02*
D03*
D128*
X37283Y45069D02*
D03*
X33346D02*
D03*
X29409D02*
D03*
X46260D02*
D03*
X60532D02*
D03*
X34882Y14774D02*
D03*
X30945D02*
D03*
D129*
X35315Y45069D02*
D03*
X31378D02*
D03*
X27441D02*
D03*
X44291D02*
D03*
X58563D02*
D03*
X36850Y14774D02*
D03*
X32913D02*
D03*
D130*
X25220Y29931D02*
D03*
X25039Y33248D02*
D03*
X26240D02*
D03*
D131*
X25220Y28931D02*
D03*
X26220Y29931D02*
D03*
Y28931D02*
D03*
X25220Y27931D02*
D03*
X26220D02*
D03*
X32350Y41801D02*
D03*
X33350D02*
D03*
X36287D02*
D03*
X37287D02*
D03*
X25039Y32248D02*
D03*
X26240D02*
D03*
X26100Y12313D02*
D03*
X28100D02*
D03*
X25217Y44407D02*
D03*
Y46407D02*
D03*
D132*
X52421Y45069D02*
D03*
X54390D02*
D03*
X48612Y14774D02*
D03*
X46644D02*
D03*
X57411D02*
D03*
X55443D02*
D03*
D133*
X56358Y45069D02*
D03*
X44675Y14774D02*
D03*
X53474D02*
D03*
D134*
X29484Y41801D02*
D03*
X30484D02*
D03*
D135*
X28484D02*
D03*
D136*
X34350D02*
D03*
X38287D02*
D03*
D137*
X49065Y23720D02*
D03*
D138*
X28661Y16398D02*
D03*
D139*
Y14035D02*
D03*
D140*
X57756Y41457D02*
D03*
X56496Y38504D02*
D03*
X55236Y41457D02*
D03*
X47795D02*
D03*
Y38504D02*
D03*
X57756Y37087D02*
D03*
X56496Y34134D02*
D03*
X55236Y37087D02*
D03*
X47795D02*
D03*
Y34134D02*
D03*
X57756Y32598D02*
D03*
X56496Y29646D02*
D03*
X55236Y32598D02*
D03*
X47795D02*
D03*
Y29646D02*
D03*
D141*
X53543Y21043D02*
D03*
Y19075D02*
D03*
Y27303D02*
D03*
Y25335D02*
D03*
X56339Y21043D02*
D03*
Y19075D02*
D03*
Y27303D02*
D03*
Y25335D02*
D03*
X59016Y21043D02*
D03*
Y19075D02*
D03*
Y27303D02*
D03*
Y25335D02*
D03*
D142*
X41122Y21063D02*
D03*
X26191Y25150D02*
D03*
X38169Y20295D02*
D03*
D143*
X41122Y22441D02*
D03*
X26191Y23150D02*
D03*
X38169Y18917D02*
D03*
D144*
X25472Y39423D02*
D03*
Y36423D02*
D03*
Y37423D02*
D03*
X26472Y39423D02*
D03*
Y40423D02*
D03*
Y36423D02*
D03*
Y37423D02*
D03*
X25472Y38423D02*
D03*
X26472D02*
D03*
D145*
X25472Y40423D02*
D03*
M02*
