G04*
G04 #@! TF.GenerationSoftware,Altium Limited,Altium Designer,18.0.9 (584)*
G04*
G04 Layer_Color=65535*
%FSLAX24Y24*%
%MOIN*%
G70*
G01*
G75*
%ADD10C,0.0236*%
%ADD11C,0.0098*%
%ADD12C,0.0070*%
%ADD13C,0.0100*%
%ADD14C,0.0079*%
%ADD15C,0.0039*%
G36*
X36226Y31285D02*
Y30565D01*
X36336D01*
Y31285D01*
X36226D01*
D02*
G37*
G36*
X36973Y33136D02*
X37693D01*
Y33246D01*
X36973D01*
Y33136D01*
D02*
G37*
G36*
X37977D02*
X38697D01*
Y33246D01*
X37977D01*
Y33136D01*
D02*
G37*
G36*
X38971D02*
X39691D01*
Y33246D01*
X38971D01*
Y33136D01*
D02*
G37*
G36*
X40979D02*
X41699D01*
Y33246D01*
X40979D01*
Y33136D01*
D02*
G37*
D10*
X44439Y30295D02*
G03*
X44439Y30295I-118J0D01*
G01*
D11*
X44781Y31299D02*
G03*
X44781Y31299I-49J0D01*
G01*
D12*
X45610Y29471D02*
G03*
X45100Y29472I-256J-608D01*
G01*
Y28264D02*
G03*
X45610Y28264I255J609D01*
G01*
X34380Y30650D02*
X34892D01*
X34380Y31693D02*
X34892D01*
Y30650D02*
Y31693D01*
X34380Y30650D02*
Y31693D01*
X33533Y30650D02*
X34045D01*
X33533Y31693D02*
X34045D01*
Y30650D02*
Y31693D01*
X33533Y30650D02*
Y31693D01*
X45059Y30325D02*
Y30837D01*
X46103Y30325D02*
Y30837D01*
X45059Y30325D02*
X46103D01*
X45059Y30837D02*
X46103D01*
X46102Y29705D02*
Y30217D01*
X45059Y29705D02*
Y30217D01*
X46102D01*
X45059Y29705D02*
X46102D01*
X40049Y31339D02*
Y31850D01*
X39006Y31339D02*
Y31850D01*
X40049D01*
X39006Y31339D02*
X40049D01*
X39419Y28041D02*
X39931D01*
X39419Y29085D02*
X39931D01*
Y28041D02*
Y29085D01*
X39419Y28041D02*
Y29085D01*
X38809Y28031D02*
X39321D01*
X38809Y29075D02*
X39321D01*
Y28031D02*
Y29075D01*
X38809Y28031D02*
Y29075D01*
X45758Y32136D02*
Y32648D01*
X44715Y32136D02*
Y32648D01*
X45758D01*
X44715Y32136D02*
X45758D01*
X45059Y31043D02*
Y31555D01*
X46102Y31043D02*
Y31555D01*
X45059Y31043D02*
X46102D01*
X45059Y31555D02*
X46102D01*
X45099Y28268D02*
Y29468D01*
X45610Y28268D02*
Y29469D01*
X35453Y33701D02*
X35965D01*
X35453Y32657D02*
X35965D01*
X35453D02*
Y33701D01*
X35965Y32657D02*
Y33701D01*
X33553D02*
X34065D01*
X33553Y32657D02*
X34065D01*
X33553D02*
Y33701D01*
X34065Y32657D02*
Y33701D01*
X34193D02*
X34705D01*
X34193Y32657D02*
X34705D01*
X34193D02*
Y33701D01*
X34705Y32657D02*
Y33701D01*
X34823D02*
X35335D01*
X34823Y32657D02*
X35335D01*
X34823D02*
Y33701D01*
X35335Y32657D02*
Y33701D01*
D13*
X44461Y25939D02*
Y26339D01*
X42661Y25939D02*
Y26339D01*
X47561Y22839D02*
Y26339D01*
X39561Y22839D02*
Y26339D01*
X42661Y25939D02*
X44461D01*
Y26339D02*
X47561D01*
X39561D02*
X42661D01*
X39561Y22839D02*
X47561D01*
X35739Y35972D02*
X45939D01*
X35739Y34972D02*
X45939D01*
X35739D02*
Y35972D01*
X45939Y34972D02*
Y35972D01*
X37008Y26220D02*
X37638D01*
X32913D02*
X33543D01*
X32913Y22717D02*
X37638D01*
X32913D02*
Y26220D01*
X37638Y22717D02*
Y26220D01*
D14*
X36706Y30595D02*
Y31255D01*
X36276Y30925D02*
X36706Y31255D01*
X36276Y30925D02*
X36706Y30595D01*
X36585Y29026D02*
Y29380D01*
X37687Y29026D02*
Y29380D01*
X37003Y33616D02*
X37663D01*
X37003D02*
X37333Y33186D01*
X37663Y33616D01*
X38007D02*
X38667D01*
X38007D02*
X38337Y33186D01*
X38667Y33616D01*
X39001D02*
X39661D01*
X39001D02*
X39331Y33186D01*
X39661Y33616D01*
X41009D02*
X41669D01*
X41009D02*
X41339Y33186D01*
X41669Y33616D01*
X40581Y28327D02*
Y30689D01*
X44715Y28327D02*
Y30689D01*
X40581Y28327D02*
X44715D01*
X40581Y30689D02*
X44715D01*
X44350Y32953D02*
X44783D01*
X44350Y33583D02*
X44783D01*
X34213Y28868D02*
Y29222D01*
X35315Y28868D02*
Y29222D01*
X32933Y28868D02*
Y29222D01*
X34035Y28868D02*
Y29222D01*
X33002Y26437D02*
Y26568D01*
Y26503D01*
X33396D01*
Y26437D01*
Y26568D01*
Y27027D02*
Y26765D01*
X33133Y27027D01*
X33068D01*
X33002Y26962D01*
Y26831D01*
X33068Y26765D01*
Y27421D02*
X33002Y27355D01*
Y27224D01*
X33068Y27159D01*
X33330D01*
X33396Y27224D01*
Y27355D01*
X33330Y27421D01*
X42579Y26929D02*
X42710D01*
X42644D01*
Y26535D01*
X42579D01*
X42710D01*
X42907Y26929D02*
Y26535D01*
X43103D01*
X43169Y26601D01*
Y26863D01*
X43103Y26929D01*
X42907D01*
X43563Y26863D02*
X43497Y26929D01*
X43366D01*
X43300Y26863D01*
Y26601D01*
X43366Y26535D01*
X43497D01*
X43563Y26601D01*
X43694Y26535D02*
X43825D01*
X43759D01*
Y26929D01*
X43694Y26863D01*
X44022D02*
X44087Y26929D01*
X44219D01*
X44284Y26863D01*
Y26601D01*
X44219Y26535D01*
X44087D01*
X44022Y26601D01*
Y26863D01*
X37884Y25709D02*
X38278D01*
X38146D01*
X37884Y25971D01*
X38081Y25774D01*
X38278Y25971D01*
Y26299D02*
Y26168D01*
X38212Y26102D01*
X38081D01*
X38015Y26168D01*
Y26299D01*
X38081Y26365D01*
X38146D01*
Y26102D01*
X38015Y26496D02*
X38212D01*
X38278Y26561D01*
Y26758D01*
X38343D01*
X38409Y26693D01*
Y26627D01*
X38278Y26758D02*
X38015D01*
X37884Y26889D02*
X38278D01*
Y27086D01*
X38212Y27152D01*
X38146D01*
X38081D01*
X38015Y27086D01*
Y26889D01*
X38278Y27349D02*
Y27480D01*
X38212Y27545D01*
X38081D01*
X38015Y27480D01*
Y27349D01*
X38081Y27283D01*
X38212D01*
X38278Y27349D01*
X38015Y27742D02*
Y27873D01*
X38081Y27939D01*
X38278D01*
Y27742D01*
X38212Y27677D01*
X38146Y27742D01*
Y27939D01*
X38015Y28070D02*
X38278D01*
X38146D01*
X38081Y28136D01*
X38015Y28201D01*
Y28267D01*
X37884Y28726D02*
X38278D01*
Y28529D01*
X38212Y28464D01*
X38081D01*
X38015Y28529D01*
Y28726D01*
X37950Y29513D02*
X37884Y29448D01*
Y29316D01*
X37950Y29251D01*
X38015D01*
X38081Y29316D01*
Y29448D01*
X38146Y29513D01*
X38212D01*
X38278Y29448D01*
Y29316D01*
X38212Y29251D01*
X37884Y29644D02*
X38278D01*
X38081D01*
X38015Y29710D01*
Y29841D01*
X38081Y29907D01*
X38278D01*
Y30038D02*
Y30169D01*
Y30104D01*
X38015D01*
Y30038D01*
X38278Y30563D02*
Y30432D01*
X38212Y30366D01*
X38081D01*
X38015Y30432D01*
Y30563D01*
X38081Y30628D01*
X38146D01*
Y30366D01*
X38278Y30760D02*
Y30891D01*
Y30825D01*
X37884D01*
Y30760D01*
Y31350D02*
X38278D01*
Y31153D01*
X38212Y31088D01*
X38081D01*
X38015Y31153D01*
Y31350D01*
X38996Y22854D02*
X39311Y23064D01*
X38996D02*
X39311Y22854D01*
Y23169D02*
X38996D01*
Y23327D01*
X39049Y23379D01*
X39154D01*
X39206Y23327D01*
Y23169D01*
X39311Y23694D02*
Y23484D01*
X39101Y23694D01*
X39049D01*
X38996Y23641D01*
Y23537D01*
X39049Y23484D01*
X37795Y22766D02*
X38110Y22976D01*
X37795D02*
X38110Y22766D01*
Y23081D02*
X37795D01*
Y23238D01*
X37848Y23291D01*
X37953D01*
X38005Y23238D01*
Y23081D01*
X37848Y23395D02*
X37795Y23448D01*
Y23553D01*
X37848Y23605D01*
X37900D01*
X37953Y23553D01*
Y23500D01*
Y23553D01*
X38005Y23605D01*
X38058D01*
X38110Y23553D01*
Y23448D01*
X38058Y23395D01*
X45059Y34744D02*
X45269Y34429D01*
Y34744D02*
X45059Y34429D01*
X45374D02*
Y34744D01*
X45531D01*
X45584Y34692D01*
Y34587D01*
X45531Y34534D01*
X45374D01*
X45689Y34429D02*
X45794D01*
X45741D01*
Y34744D01*
X45689Y34692D01*
X36083Y31899D02*
Y31690D01*
X36188Y31585D01*
X36293Y31690D01*
Y31899D01*
X36398D02*
Y31585D01*
X36555D01*
X36607Y31637D01*
Y31847D01*
X36555Y31899D01*
X36398D01*
X36922D02*
X36712D01*
Y31742D01*
X36817Y31795D01*
X36870D01*
X36922Y31742D01*
Y31637D01*
X36870Y31585D01*
X36765D01*
X36712Y31637D01*
X40974Y34793D02*
Y34583D01*
X41079Y34478D01*
X41184Y34583D01*
Y34793D01*
X41289D02*
Y34478D01*
X41447D01*
X41499Y34531D01*
Y34741D01*
X41447Y34793D01*
X41289D01*
X41762Y34478D02*
Y34793D01*
X41604Y34636D01*
X41814D01*
X38976Y34793D02*
Y34583D01*
X39081Y34478D01*
X39186Y34583D01*
Y34793D01*
X39291D02*
Y34478D01*
X39449D01*
X39501Y34531D01*
Y34741D01*
X39449Y34793D01*
X39291D01*
X39606Y34741D02*
X39659Y34793D01*
X39764D01*
X39816Y34741D01*
Y34688D01*
X39764Y34636D01*
X39711D01*
X39764D01*
X39816Y34583D01*
Y34531D01*
X39764Y34478D01*
X39659D01*
X39606Y34531D01*
X37953Y34774D02*
Y34564D01*
X38058Y34459D01*
X38163Y34564D01*
Y34774D01*
X38268D02*
Y34459D01*
X38425D01*
X38478Y34511D01*
Y34721D01*
X38425Y34774D01*
X38268D01*
X38792Y34459D02*
X38582D01*
X38792Y34669D01*
Y34721D01*
X38740Y34774D01*
X38635D01*
X38582Y34721D01*
X36969Y34783D02*
Y34573D01*
X37073Y34469D01*
X37178Y34573D01*
Y34783D01*
X37283D02*
Y34469D01*
X37441D01*
X37493Y34521D01*
Y34731D01*
X37441Y34783D01*
X37283D01*
X37598Y34469D02*
X37703D01*
X37651D01*
Y34783D01*
X37598Y34731D01*
X43524Y32323D02*
Y32060D01*
X43576Y32008D01*
X43681D01*
X43734Y32060D01*
Y32323D01*
X43838Y32008D02*
X43943D01*
X43891D01*
Y32323D01*
X43838Y32270D01*
X35217Y33819D02*
X34902D01*
Y33976D01*
X34954Y34029D01*
X35059D01*
X35112Y33976D01*
Y33819D01*
Y33924D02*
X35217Y34029D01*
Y34134D02*
Y34239D01*
Y34186D01*
X34902D01*
X34954Y34134D01*
X34902Y34606D02*
Y34396D01*
X35059D01*
X35007Y34501D01*
Y34554D01*
X35059Y34606D01*
X35164D01*
X35217Y34554D01*
Y34449D01*
X35164Y34396D01*
X34616Y33839D02*
X34301D01*
Y33996D01*
X34354Y34048D01*
X34459D01*
X34511Y33996D01*
Y33839D01*
Y33944D02*
X34616Y34048D01*
Y34153D02*
Y34258D01*
Y34206D01*
X34301D01*
X34354Y34153D01*
Y34416D02*
X34301Y34468D01*
Y34573D01*
X34354Y34626D01*
X34406D01*
X34459Y34573D01*
Y34521D01*
Y34573D01*
X34511Y34626D01*
X34564D01*
X34616Y34573D01*
Y34468D01*
X34564Y34416D01*
X33967Y33829D02*
X33652D01*
Y33986D01*
X33704Y34039D01*
X33809D01*
X33862Y33986D01*
Y33829D01*
Y33934D02*
X33967Y34039D01*
Y34144D02*
Y34249D01*
Y34196D01*
X33652D01*
X33704Y34144D01*
X33967Y34616D02*
Y34406D01*
X33757Y34616D01*
X33704D01*
X33652Y34563D01*
Y34458D01*
X33704Y34406D01*
X35846Y33839D02*
X35532D01*
Y33996D01*
X35584Y34048D01*
X35689D01*
X35742Y33996D01*
Y33839D01*
Y33944D02*
X35846Y34048D01*
Y34153D02*
Y34258D01*
Y34206D01*
X35532D01*
X35584Y34153D01*
X35846Y34416D02*
Y34521D01*
Y34468D01*
X35532D01*
X35584Y34416D01*
X44104Y33799D02*
Y34114D01*
X44262D01*
X44314Y34062D01*
Y33957D01*
X44262Y33904D01*
X44104D01*
X44209D02*
X44314Y33799D01*
X44419D02*
X44524D01*
X44472D01*
Y34114D01*
X44419Y34062D01*
X44682D02*
X44734Y34114D01*
X44839D01*
X44891Y34062D01*
Y33852D01*
X44839Y33799D01*
X44734D01*
X44682Y33852D01*
Y34062D01*
X46260Y31112D02*
Y31427D01*
X46417D01*
X46470Y31375D01*
Y31270D01*
X46417Y31217D01*
X46260D01*
X46365D02*
X46470Y31112D01*
X46575Y31165D02*
X46627Y31112D01*
X46732D01*
X46785Y31165D01*
Y31375D01*
X46732Y31427D01*
X46627D01*
X46575Y31375D01*
Y31322D01*
X46627Y31270D01*
X46785D01*
X46280Y30413D02*
Y30728D01*
X46437D01*
X46489Y30676D01*
Y30571D01*
X46437Y30518D01*
X46280D01*
X46384D02*
X46489Y30413D01*
X46594Y30676D02*
X46647Y30728D01*
X46752D01*
X46804Y30676D01*
Y30623D01*
X46752Y30571D01*
X46804Y30518D01*
Y30466D01*
X46752Y30413D01*
X46647D01*
X46594Y30466D01*
Y30518D01*
X46647Y30571D01*
X46594Y30623D01*
Y30676D01*
X46647Y30571D02*
X46752D01*
X46299Y29813D02*
Y30128D01*
X46457D01*
X46509Y30075D01*
Y29970D01*
X46457Y29918D01*
X46299D01*
X46404D02*
X46509Y29813D01*
X46614Y30128D02*
X46824D01*
Y30075D01*
X46614Y29865D01*
Y29813D01*
X39134Y30906D02*
Y31220D01*
X39291D01*
X39344Y31168D01*
Y31063D01*
X39291Y31010D01*
X39134D01*
X39239D02*
X39344Y30906D01*
X39659Y31220D02*
X39554Y31168D01*
X39449Y31063D01*
Y30958D01*
X39501Y30906D01*
X39606D01*
X39659Y30958D01*
Y31010D01*
X39606Y31063D01*
X39449D01*
X39833Y29242D02*
X39518D01*
Y29400D01*
X39570Y29452D01*
X39675D01*
X39728Y29400D01*
Y29242D01*
Y29347D02*
X39833Y29452D01*
X39518Y29767D02*
Y29557D01*
X39675D01*
X39623Y29662D01*
Y29714D01*
X39675Y29767D01*
X39780D01*
X39833Y29714D01*
Y29609D01*
X39780Y29557D01*
X39203Y29232D02*
X38888D01*
Y29390D01*
X38940Y29442D01*
X39045D01*
X39098Y29390D01*
Y29232D01*
Y29337D02*
X39203Y29442D01*
Y29705D02*
X38888D01*
X39045Y29547D01*
Y29757D01*
X45896Y32215D02*
Y32529D01*
X46053D01*
X46106Y32477D01*
Y32372D01*
X46053Y32320D01*
X45896D01*
X46001D02*
X46106Y32215D01*
X46211Y32477D02*
X46263Y32529D01*
X46368D01*
X46420Y32477D01*
Y32424D01*
X46368Y32372D01*
X46315D01*
X46368D01*
X46420Y32320D01*
Y32267D01*
X46368Y32215D01*
X46263D01*
X46211Y32267D01*
X35335Y30935D02*
X35020D01*
Y31092D01*
X35072Y31145D01*
X35177D01*
X35230Y31092D01*
Y30935D01*
Y31040D02*
X35335Y31145D01*
Y31460D02*
Y31250D01*
X35125Y31460D01*
X35072D01*
X35020Y31407D01*
Y31302D01*
X35072Y31250D01*
X33406Y30945D02*
X33091D01*
Y31102D01*
X33143Y31155D01*
X33248D01*
X33301Y31102D01*
Y30945D01*
Y31050D02*
X33406Y31155D01*
Y31260D02*
Y31365D01*
Y31312D01*
X33091D01*
X33143Y31260D01*
X33232Y30453D02*
X33022D01*
Y30295D01*
X33127D01*
X33022D01*
Y30138D01*
X33337Y30453D02*
Y30190D01*
X33389Y30138D01*
X33494D01*
X33546Y30190D01*
Y30453D01*
X33651Y30400D02*
X33704Y30453D01*
X33809D01*
X33861Y30400D01*
Y30348D01*
X33809Y30295D01*
X33756D01*
X33809D01*
X33861Y30243D01*
Y30190D01*
X33809Y30138D01*
X33704D01*
X33651Y30190D01*
X37031Y28120D02*
X36821D01*
Y27963D01*
X36926D01*
X36821D01*
Y27805D01*
X37136Y28120D02*
Y27858D01*
X37188Y27805D01*
X37293D01*
X37346Y27858D01*
Y28120D01*
X37660Y27805D02*
X37451D01*
X37660Y28015D01*
Y28068D01*
X37608Y28120D01*
X37503D01*
X37451Y28068D01*
X34590Y30433D02*
X34380D01*
Y30276D01*
X34485D01*
X34380D01*
Y30118D01*
X34695Y30433D02*
Y30171D01*
X34747Y30118D01*
X34852D01*
X34905Y30171D01*
Y30433D01*
X35010Y30118D02*
X35115D01*
X35062D01*
Y30433D01*
X35010Y30380D01*
X45791Y28940D02*
X45738Y28888D01*
Y28783D01*
X45791Y28730D01*
X46001D01*
X46053Y28783D01*
Y28888D01*
X46001Y28940D01*
X46053Y29255D02*
Y29045D01*
X45843Y29255D01*
X45791D01*
X45738Y29203D01*
Y29098D01*
X45791Y29045D01*
X46017Y28481D02*
X45965Y28533D01*
X45860D01*
X45807Y28481D01*
Y28271D01*
X45860Y28219D01*
X45965D01*
X46017Y28271D01*
X46122Y28219D02*
X46227D01*
X46174D01*
Y28533D01*
X46122Y28481D01*
D15*
X45059Y28071D02*
X46358D01*
X45059Y27362D02*
X46358D01*
X45059D02*
Y28071D01*
X46358Y27362D02*
Y28071D01*
M02*
