G04*
G04 #@! TF.GenerationSoftware,Altium Limited,Altium Designer,18.1.7 (191)*
G04*
G04 Layer_Physical_Order=1*
G04 Layer_Color=255*
%FSLAX24Y24*%
%MOIN*%
G70*
G01*
G75*
%ADD11C,0.0079*%
%ADD17C,0.0197*%
%ADD18C,0.0394*%
%ADD20O,0.0110X0.0335*%
%ADD21O,0.0335X0.0110*%
%ADD22R,0.1358X0.1358*%
G04:AMPARAMS|DCode=23|XSize=43.3mil|YSize=23.6mil|CornerRadius=5.9mil|HoleSize=0mil|Usage=FLASHONLY|Rotation=270.000|XOffset=0mil|YOffset=0mil|HoleType=Round|Shape=RoundedRectangle|*
%AMROUNDEDRECTD23*
21,1,0.0433,0.0118,0,0,270.0*
21,1,0.0315,0.0236,0,0,270.0*
1,1,0.0118,-0.0059,-0.0157*
1,1,0.0118,-0.0059,0.0157*
1,1,0.0118,0.0059,0.0157*
1,1,0.0118,0.0059,-0.0157*
%
%ADD23ROUNDEDRECTD23*%
G04:AMPARAMS|DCode=24|XSize=94.5mil|YSize=59.1mil|CornerRadius=14.8mil|HoleSize=0mil|Usage=FLASHONLY|Rotation=270.000|XOffset=0mil|YOffset=0mil|HoleType=Round|Shape=RoundedRectangle|*
%AMROUNDEDRECTD24*
21,1,0.0945,0.0295,0,0,270.0*
21,1,0.0650,0.0591,0,0,270.0*
1,1,0.0295,-0.0148,-0.0325*
1,1,0.0295,-0.0148,0.0325*
1,1,0.0295,0.0148,0.0325*
1,1,0.0295,0.0148,-0.0325*
%
%ADD24ROUNDEDRECTD24*%
G04:AMPARAMS|DCode=25|XSize=90.6mil|YSize=82.7mil|CornerRadius=12.4mil|HoleSize=0mil|Usage=FLASHONLY|Rotation=90.000|XOffset=0mil|YOffset=0mil|HoleType=Round|Shape=RoundedRectangle|*
%AMROUNDEDRECTD25*
21,1,0.0906,0.0579,0,0,90.0*
21,1,0.0657,0.0827,0,0,90.0*
1,1,0.0248,0.0289,0.0329*
1,1,0.0248,0.0289,-0.0329*
1,1,0.0248,-0.0289,-0.0329*
1,1,0.0248,-0.0289,0.0329*
%
%ADD25ROUNDEDRECTD25*%
%ADD26R,0.0236X0.0217*%
G04:AMPARAMS|DCode=27|XSize=31.5mil|YSize=35.4mil|CornerRadius=7.9mil|HoleSize=0mil|Usage=FLASHONLY|Rotation=90.000|XOffset=0mil|YOffset=0mil|HoleType=Round|Shape=RoundedRectangle|*
%AMROUNDEDRECTD27*
21,1,0.0315,0.0197,0,0,90.0*
21,1,0.0157,0.0354,0,0,90.0*
1,1,0.0157,0.0098,0.0079*
1,1,0.0157,0.0098,-0.0079*
1,1,0.0157,-0.0098,-0.0079*
1,1,0.0157,-0.0098,0.0079*
%
%ADD27ROUNDEDRECTD27*%
%ADD53C,0.0138*%
%ADD54R,0.0412X0.0197*%
%ADD55R,0.0189X0.0189*%
%ADD56R,0.0394X0.0354*%
%ADD57R,0.0354X0.0276*%
%ADD58R,0.0354X0.0394*%
%ADD59R,0.0453X0.0571*%
%ADD60R,0.0551X0.0413*%
%ADD61R,0.0571X0.0453*%
%ADD62C,0.0472*%
%ADD63C,0.0236*%
%ADD64C,0.0189*%
%ADD65C,0.0378*%
%ADD66C,0.0335*%
%ADD67C,0.0217*%
%ADD68C,0.0315*%
%ADD69R,0.1683X0.0181*%
%ADD70C,0.2362*%
%ADD71C,0.0709*%
%ADD72R,0.0709X0.0709*%
%ADD73C,0.0600*%
%ADD74R,0.0600X0.0600*%
%ADD75C,0.1260*%
%ADD76C,0.0591*%
%ADD77R,0.0591X0.0591*%
%ADD78C,0.1024*%
%ADD79C,0.1378*%
%ADD80C,0.0236*%
G36*
X12924Y22580D02*
X12924Y22083D01*
X6169Y22082D01*
Y21807D01*
X6168Y21341D01*
X6169D01*
X6580Y21341D01*
Y21180D01*
X6955Y20629D01*
Y19887D01*
X6766Y19887D01*
Y20571D01*
X6580Y20842D01*
X6579Y20843D01*
X5262D01*
Y21341D01*
X5674D01*
Y21670D01*
X5674Y21670D01*
X3285D01*
X3285Y21670D01*
Y20571D01*
X6580D01*
X6580Y20570D01*
Y19734D01*
X6169D01*
Y20039D01*
X5674D01*
Y19734D01*
X5262D01*
Y20039D01*
X2387D01*
Y22581D01*
X12924D01*
X12924Y22580D01*
D02*
G37*
G36*
X5941Y16217D02*
X5932Y16199D01*
X5924Y16179D01*
X5917Y16155D01*
X5910Y16129D01*
X5905Y16099D01*
X5898Y16029D01*
X5895Y15946D01*
X5896Y15900D01*
X5602Y16191D01*
X5646Y16192D01*
X5724Y16198D01*
X5758Y16204D01*
X5788Y16211D01*
X5814Y16220D01*
X5837Y16231D01*
X5856Y16243D01*
X5872Y16257D01*
X5884Y16273D01*
X5941Y16217D01*
D02*
G37*
G36*
X661Y15860D02*
X656Y15861D01*
X650Y15860D01*
X645Y15859D01*
X639Y15857D01*
X632Y15854D01*
X626Y15851D01*
X619Y15846D01*
X612Y15840D01*
X604Y15834D01*
X596Y15826D01*
X541Y15882D01*
X548Y15890D01*
X560Y15904D01*
X565Y15911D01*
X569Y15918D01*
X572Y15924D01*
X574Y15930D01*
X575Y15936D01*
X575Y15941D01*
X574Y15946D01*
X661Y15860D01*
D02*
G37*
G36*
X13216Y15886D02*
X13226Y15881D01*
X13237Y15877D01*
X13247Y15874D01*
X13258Y15871D01*
X13269Y15869D01*
X13280Y15867D01*
X13302Y15866D01*
X13314Y15866D01*
X13333Y15787D01*
X13323Y15787D01*
X13314Y15785D01*
X13305Y15783D01*
X13296Y15779D01*
X13288Y15774D01*
X13281Y15768D01*
X13273Y15761D01*
X13267Y15753D01*
X13260Y15743D01*
X13255Y15733D01*
X13153Y15779D01*
X13206Y15891D01*
X13216Y15886D01*
D02*
G37*
G36*
X13153Y15779D02*
X13105Y15678D01*
X13094Y15682D01*
X13083Y15685D01*
X13072Y15687D01*
X13062Y15687D01*
X13052Y15687D01*
X13042Y15685D01*
X13032Y15682D01*
X13023Y15677D01*
X13014Y15672D01*
X13006Y15665D01*
X12974Y15741D01*
X12982Y15748D01*
X12999Y15764D01*
X13006Y15772D01*
X13013Y15781D01*
X13019Y15790D01*
X13025Y15799D01*
X13030Y15809D01*
X13035Y15819D01*
X13039Y15830D01*
X13153Y15779D01*
D02*
G37*
G36*
X12173Y15716D02*
X12190Y15700D01*
X12199Y15693D01*
X12217Y15680D01*
X12226Y15674D01*
X12245Y15663D01*
X12255Y15658D01*
X12099Y15603D01*
X12103Y15613D01*
X12107Y15623D01*
X12109Y15632D01*
X12111Y15640D01*
X12111Y15648D01*
X12111Y15656D01*
X12109Y15663D01*
X12106Y15669D01*
X12103Y15675D01*
X12098Y15681D01*
X12165Y15725D01*
X12173Y15716D01*
D02*
G37*
G36*
X5880Y15795D02*
X5877Y15772D01*
X5875Y15751D01*
X5876Y15730D01*
X5879Y15710D01*
X5884Y15692D01*
X5892Y15674D01*
X5901Y15657D01*
X5912Y15641D01*
X5926Y15626D01*
X5870Y15570D01*
X5855Y15584D01*
X5839Y15595D01*
X5822Y15604D01*
X5804Y15612D01*
X5786Y15617D01*
X5766Y15620D01*
X5745Y15621D01*
X5724Y15620D01*
X5701Y15616D01*
X5678Y15611D01*
X5885Y15818D01*
X5880Y15795D01*
D02*
G37*
G36*
X2454Y14842D02*
X2408Y14842D01*
X2288Y14835D01*
X2255Y14830D01*
X2198Y14817D01*
X2174Y14809D01*
X2153Y14800D01*
X2135Y14789D01*
X2079Y14846D01*
X2094Y14859D01*
X2108Y14875D01*
X2120Y14895D01*
X2130Y14919D01*
X2138Y14946D01*
X2145Y14977D01*
X2151Y15012D01*
X2154Y15051D01*
X2157Y15139D01*
X2454Y14842D01*
D02*
G37*
G36*
X16937Y14786D02*
X16947Y14780D01*
X16956Y14774D01*
X16966Y14768D01*
X16976Y14764D01*
X16986Y14760D01*
X16997Y14758D01*
X17007Y14756D01*
X17018Y14754D01*
X17029Y14754D01*
X17036Y14675D01*
X17025Y14675D01*
X17014Y14673D01*
X17003Y14671D01*
X16994Y14668D01*
X16984Y14664D01*
X16975Y14659D01*
X16966Y14653D01*
X16957Y14646D01*
X16949Y14638D01*
X16941Y14629D01*
X16928Y14794D01*
X16937Y14786D01*
D02*
G37*
G36*
X1847Y14421D02*
X1830Y14409D01*
X1815Y14394D01*
X1802Y14375D01*
X1790Y14353D01*
X1780Y14326D01*
X1772Y14296D01*
X1765Y14263D01*
X1761Y14225D01*
X1758Y14184D01*
X1757Y14140D01*
X1465Y14442D01*
X1513Y14441D01*
X1670Y14448D01*
X1701Y14452D01*
X1729Y14457D01*
X1753Y14464D01*
X1773Y14471D01*
X1791Y14479D01*
X1847Y14421D01*
D02*
G37*
G36*
X14366Y14198D02*
X14358Y14189D01*
X14352Y14180D01*
X14346Y14171D01*
X14342Y14161D01*
X14338Y14151D01*
X14335Y14141D01*
X14332Y14131D01*
X14331Y14120D01*
X14331Y14109D01*
X14252D01*
X14252Y14120D01*
X14250Y14131D01*
X14248Y14141D01*
X14245Y14151D01*
X14241Y14161D01*
X14236Y14171D01*
X14231Y14180D01*
X14224Y14189D01*
X14217Y14198D01*
X14209Y14207D01*
X14374D01*
X14366Y14198D01*
D02*
G37*
G36*
X2453Y13842D02*
X2407Y13842D01*
X2288Y13835D01*
X2254Y13830D01*
X2197Y13818D01*
X2173Y13810D01*
X2152Y13801D01*
X2134Y13791D01*
X2078Y13847D01*
X2093Y13860D01*
X2107Y13876D01*
X2119Y13896D01*
X2129Y13920D01*
X2138Y13947D01*
X2145Y13978D01*
X2151Y14013D01*
X2154Y14051D01*
X2157Y14139D01*
X2453Y13842D01*
D02*
G37*
G36*
X1454Y13842D02*
X1408Y13842D01*
X1290Y13832D01*
X1258Y13827D01*
X1229Y13819D01*
X1203Y13811D01*
X1181Y13801D01*
X1162Y13789D01*
X1147Y13776D01*
X1091Y13832D01*
X1104Y13847D01*
X1116Y13866D01*
X1126Y13888D01*
X1134Y13914D01*
X1142Y13943D01*
X1147Y13975D01*
X1152Y14011D01*
X1156Y14093D01*
X1157Y14139D01*
X1454Y13842D01*
D02*
G37*
G36*
X11300Y13242D02*
X11301Y13231D01*
X11303Y13221D01*
X11306Y13211D01*
X11310Y13201D01*
X11315Y13191D01*
X11320Y13182D01*
X11327Y13173D01*
X11334Y13164D01*
X11343Y13155D01*
X11177Y13155D01*
X11185Y13164D01*
X11193Y13173D01*
X11199Y13182D01*
X11205Y13191D01*
X11210Y13201D01*
X11214Y13211D01*
X11217Y13221D01*
X11219Y13231D01*
X11220Y13242D01*
X11220Y13253D01*
X11299Y13253D01*
X11300Y13242D01*
D02*
G37*
G36*
X11816Y13220D02*
X11824Y13213D01*
X11833Y13208D01*
X11843Y13203D01*
X11852Y13198D01*
X11863Y13195D01*
X11873Y13192D01*
X11884Y13190D01*
X11896Y13189D01*
X11908Y13189D01*
X11791Y13072D01*
X11790Y13084D01*
X11789Y13095D01*
X11788Y13106D01*
X11785Y13117D01*
X11781Y13127D01*
X11777Y13137D01*
X11772Y13146D01*
X11766Y13155D01*
X11760Y13164D01*
X11752Y13172D01*
X11808Y13228D01*
X11816Y13220D01*
D02*
G37*
G36*
X12648Y12956D02*
X12645Y12945D01*
X12643Y12934D01*
X12641Y12923D01*
X12640Y12912D01*
X12640Y12901D01*
X12640Y12890D01*
X12642Y12879D01*
X12644Y12869D01*
X12647Y12858D01*
X12650Y12847D01*
X12500Y12916D01*
X12512Y12921D01*
X12522Y12926D01*
X12532Y12932D01*
X12541Y12938D01*
X12549Y12945D01*
X12556Y12953D01*
X12563Y12961D01*
X12568Y12970D01*
X12573Y12979D01*
X12576Y12989D01*
X12648Y12956D01*
D02*
G37*
G36*
X1544Y12854D02*
X1534Y12848D01*
X1525Y12841D01*
X1518Y12832D01*
X1511Y12823D01*
X1506Y12812D01*
X1501Y12800D01*
X1498Y12787D01*
X1497Y12772D01*
X1496Y12757D01*
X1417D01*
X1417Y12772D01*
X1415Y12787D01*
X1412Y12800D01*
X1408Y12812D01*
X1402Y12823D01*
X1396Y12832D01*
X1388Y12841D01*
X1379Y12848D01*
X1369Y12854D01*
X1358Y12859D01*
X1556D01*
X1544Y12854D01*
D02*
G37*
G36*
X12531Y12687D02*
X12520Y12688D01*
X12508Y12687D01*
X12497Y12686D01*
X12487Y12684D01*
X12477Y12681D01*
X12467Y12677D01*
X12458Y12672D01*
X12449Y12666D01*
X12440Y12659D01*
X12432Y12652D01*
X12380Y12711D01*
X12387Y12719D01*
X12394Y12728D01*
X12400Y12737D01*
X12405Y12746D01*
X12410Y12756D01*
X12414Y12766D01*
X12417Y12777D01*
X12419Y12788D01*
X12421Y12799D01*
X12422Y12811D01*
X12531Y12687D01*
D02*
G37*
D11*
X16772Y15364D02*
G03*
X16708Y15517I-217J0D01*
G01*
X16772Y15364D02*
G03*
X16708Y15518I-217J0D01*
G01*
X15852Y16373D02*
G03*
X15699Y16437I-153J-153D01*
G01*
X15852Y16374D02*
G03*
X15699Y16437I-153J-153D01*
G01*
X14898D02*
G03*
X14741Y16448I-94J-217D01*
G01*
X14626Y16064D02*
G03*
X14898Y16004I177J156D01*
G01*
X17541Y14511D02*
G03*
X17460Y14554I-112J-111D01*
G01*
X17541Y14511D02*
G03*
X17460Y14554I-111J-111D01*
G01*
X17746Y14241D02*
G03*
X17700Y14352I-157J0D01*
G01*
X17746Y14241D02*
G03*
X17700Y14352I-157J0D01*
G01*
X16870Y14940D02*
G03*
X16772Y14927I-20J-235D01*
G01*
X16339Y13709D02*
G03*
X16435Y13445I226J-67D01*
G01*
X16408Y13012D02*
G03*
X16348Y12740I157J-177D01*
G01*
X14894Y14892D02*
G03*
X14862Y14946I-668J-351D01*
G01*
X15423Y12815D02*
G03*
X15404Y12909I-236J0D01*
G01*
X14970D02*
G03*
X15423Y12815I217J-94D01*
G01*
X14921Y13035D02*
G03*
X14970Y13017I99J193D01*
G01*
X14921Y13035D02*
G03*
X14970Y13017I99J193D01*
G01*
X14339Y17388D02*
G03*
X14350Y17526I-831J139D01*
G01*
X14744Y17146D02*
G03*
X14650Y17337I-242J0D01*
G01*
X14650D02*
G03*
X14665Y17526I-1142J189D01*
G01*
X13923Y17388D02*
G03*
X13681Y17146I0J-242D01*
G01*
X14741Y16448D02*
G03*
X14744Y16488I-239J40D01*
G01*
X14570Y16256D02*
G03*
X14588Y16122I234J-35D01*
G01*
X14502Y16246D02*
G03*
X14570Y16256I0J242D01*
G01*
X14588Y16122D02*
G03*
X14626Y16064I215J98D01*
G01*
X13681Y16889D02*
G03*
X13299Y16635I437J-1072D01*
G01*
X13681Y16537D02*
G03*
X13522Y16413I437J-721D01*
G01*
X13681Y16488D02*
G03*
X13923Y16246I242J0D01*
G01*
X13169Y17146D02*
G03*
X12927Y17388I-242J0D01*
G01*
X12264Y17373D02*
G03*
X12106Y17146I85J-227D01*
G01*
X12146Y16356D02*
G03*
X12283Y16255I203J132D01*
G01*
X13247Y16003D02*
G03*
X13132Y16023I-97J-215D01*
G01*
X10403Y16230D02*
G03*
X10236Y16299I-167J-167D01*
G01*
X10403Y16230D02*
G03*
X10236Y16299I-167J-167D01*
G01*
X14206Y15387D02*
G03*
X14011Y15532I-587J-587D01*
G01*
X14298Y13235D02*
G03*
X14148Y13297I-150J-150D01*
G01*
X14206Y15387D02*
G03*
X14232Y15367I79J79D01*
G01*
X14020Y13282D02*
G03*
X14092Y13297I0J173D01*
G01*
X12237Y15820D02*
G03*
X12146Y15890I-301J-301D01*
G01*
X13996Y15539D02*
G03*
X13957Y15558I-377J-739D01*
G01*
X11982Y15472D02*
G03*
X12087Y15347I223J79D01*
G01*
Y15302D02*
G03*
X12071Y15230I157J-72D01*
G01*
X11846Y15006D02*
G03*
X11774Y14990I0J-173D01*
G01*
X11678Y14478D02*
G03*
X11678Y14400I169J-39D01*
G01*
X14367Y13100D02*
G03*
X14298Y13235I-243J-39D01*
G01*
X13780Y12985D02*
G03*
X13795Y13057I-157J72D01*
G01*
X13839Y12594D02*
G03*
X13780Y12744I-221J0D01*
G01*
X11791Y12866D02*
G03*
X11831Y12848I118J205D01*
G01*
X12539Y12569D02*
G03*
X12608Y12579I1J236D01*
G01*
X12461Y12518D02*
G03*
X12505Y12557I-335J421D01*
G01*
X12421Y12490D02*
G03*
X12461Y12518I-295J449D01*
G01*
X11476Y15059D02*
G03*
X11407Y15226I-236J0D01*
G01*
X11073Y14892D02*
G03*
X11253Y14823I167J167D01*
G01*
X11200Y14793D02*
G03*
X11024Y14872I-176J-157D01*
G01*
X10196Y15620D02*
G03*
X10029Y15689I-167J-167D01*
G01*
X10196Y15620D02*
G03*
X10029Y15689I-167J-167D01*
G01*
X11024Y14400D02*
G03*
X11200Y14478I0J236D01*
G01*
X10679Y14469D02*
G03*
X10846Y14400I167J167D01*
G01*
X10679Y14469D02*
G03*
X10846Y14400I167J167D01*
G01*
X11585D02*
G03*
X10767Y14061I0J-1157D01*
G01*
X10789Y12962D02*
G03*
X10952Y12605I559J40D01*
G01*
D02*
G03*
X11201Y12471I349J349D01*
G01*
X10758Y14051D02*
G03*
X10483Y13595I783J-783D01*
G01*
D02*
G03*
X10354Y13425I49J-170D01*
G01*
X10623Y12684D02*
G03*
X10747Y12963I-301J301D01*
G01*
X10401Y12907D02*
G03*
X10431Y12964I-79J78D01*
G01*
X10354Y13110D02*
G03*
X10431Y12964I177J0D01*
G01*
X10335Y12503D02*
G03*
X10623Y12684I-251J720D01*
G01*
X10335Y12852D02*
G03*
X10400Y12906I-251J371D01*
G01*
X17733Y12087D02*
G03*
X17825Y12274I-144J187D01*
G01*
D02*
G03*
X17746Y12450I-236J0D01*
G01*
X17438Y10804D02*
G03*
X17458Y10889I-177J86D01*
G01*
X17261Y11493D02*
G03*
X17426Y11581I0J197D01*
G01*
X16900D02*
G03*
X17064Y11493I164J108D01*
G01*
X17458Y11047D02*
G03*
X17261Y11244I-197J0D01*
G01*
X17064D02*
G03*
X16867Y11047I0J-197D01*
G01*
Y10889D02*
G03*
X16887Y10804I197J0D01*
G01*
X16697Y10330D02*
G03*
X16752Y10463I-132J132D01*
G01*
X17358Y8818D02*
G03*
X17438Y9013I-195J195D01*
G01*
X17358Y8818D02*
G03*
X17438Y9013I-195J195D01*
G01*
X16697Y10330D02*
G03*
X16752Y10463I-132J132D01*
G01*
X16656Y8896D02*
G03*
X16575Y8701I195J-195D01*
G01*
X16656Y8896D02*
G03*
X16575Y8701I195J-195D01*
G01*
X17480Y6614D02*
G03*
X17126Y7181I-630J0D01*
G01*
X16575D02*
G03*
X16340Y6244I276J-566D01*
G01*
X16986Y5999D02*
G03*
X17480Y6614I-135J615D01*
G01*
X17323Y3386D02*
G03*
X17323Y3386I-472J0D01*
G01*
X18622Y1535D02*
G03*
X18622Y1535I-1299J0D01*
G01*
X17323Y3386D02*
G03*
X17323Y3386I-472J0D01*
G01*
X16163Y11811D02*
G03*
X16073Y11409I67J-226D01*
G01*
X12819Y10663D02*
G03*
X12992Y11080I-417J417D01*
G01*
X11181Y11407D02*
G03*
X10915Y11673I-266J0D01*
G01*
X10620D02*
G03*
X10354Y11407I0J-266D01*
G01*
X13500Y9940D02*
G03*
X13839Y10759I-818J818D01*
G01*
X15532Y9242D02*
G03*
X15664Y9297I0J187D01*
G01*
X15532Y9242D02*
G03*
X15664Y9297I0J187D01*
G01*
X13369Y9833D02*
G03*
X13500Y9940I-485J723D01*
G01*
X14941Y6614D02*
G03*
X14941Y6614I-807J0D01*
G01*
D02*
G03*
X14941Y6614I-807J0D01*
G01*
X12550Y10551D02*
G03*
X12819Y10662I0J380D01*
G01*
X11082Y10551D02*
G03*
X11181Y10758I-167J207D01*
G01*
X10354D02*
G03*
X10453Y10551I266J0D01*
G01*
X12110Y2014D02*
G03*
X12018Y1791I223J-223D01*
G01*
X12110Y2014D02*
G03*
X12018Y1791I222J-223D01*
G01*
Y1071D02*
G03*
X12805Y719I315J-352D01*
G01*
D02*
G03*
X12648Y1071I-472J0D01*
G01*
X11821Y719D02*
G03*
X11821Y719I-472J0D01*
G01*
X8978Y19065D02*
G03*
X8967Y19149I-307J0D01*
G01*
Y18981D02*
G03*
X8978Y19065I-295J84D01*
G01*
X7056Y18848D02*
G03*
X7274Y18758I217J217D01*
G01*
X7056Y18848D02*
G03*
X7274Y18758I217J217D01*
G01*
X6586Y19616D02*
G03*
X6643Y19261I274J-138D01*
G01*
X6220Y16772D02*
G03*
X5945Y17437I-942J0D01*
G01*
X5168Y18214D02*
G03*
X4350Y18553I-818J-818D01*
G01*
X4945Y17991D02*
G03*
X4350Y18238I-596J-596D01*
G01*
X5861Y17004D02*
G03*
X5722Y17215I-582J-232D01*
G01*
X5861Y17004D02*
G03*
X5441Y17065I-260J-321D01*
G01*
X5020Y17041D02*
G03*
X4447Y16875I-207J-358D01*
G01*
X6053Y16173D02*
G03*
X6220Y16772I-988J599D01*
G01*
X4687Y16289D02*
G03*
X4431Y16053I126J-394D01*
G01*
X4419Y16557D02*
G03*
X4687Y16289I394J126D01*
G01*
X6413Y15927D02*
G03*
X6417Y15974I-231J47D01*
G01*
D02*
G03*
X6053Y16173I-236J0D01*
G01*
X6506Y15570D02*
G03*
X6413Y15927I-729J0D01*
G01*
X5726Y14715D02*
G03*
X6013Y15077I-126J394D01*
G01*
X4431Y15738D02*
G03*
X4687Y15502I382J157D01*
G01*
D02*
G03*
X4431Y15266I126J-394D01*
G01*
X6033Y14891D02*
G03*
X6013Y15077I-843J0D01*
G01*
X4431Y14951D02*
G03*
X4687Y14715I382J157D01*
G01*
X4627Y17879D02*
G03*
X3808Y18218I-818J-818D01*
G01*
X4404Y17657D02*
G03*
X3808Y17904I-596J-596D01*
G01*
X3623Y17555D02*
G03*
X2804Y17894I-818J-818D01*
G01*
X3400Y17332D02*
G03*
X2804Y17579I-596J-596D01*
G01*
X2277Y19623D02*
G03*
X2323Y19734I-111J112D01*
G01*
X2277Y19623D02*
G03*
X2323Y19734I-111J111D01*
G01*
X1890Y19301D02*
G03*
X2001Y19347I0J157D01*
G01*
X2372Y17894D02*
G03*
X1713Y17621I0J-932D01*
G01*
X1890Y19301D02*
G03*
X2001Y19347I0J157D01*
G01*
X2372Y17579D02*
G03*
X1936Y17398I0J-617D01*
G01*
X4090Y17087D02*
G03*
X4447Y16875I596J596D01*
G01*
X3867Y16865D02*
G03*
X4419Y16557I818J818D01*
G01*
X3228Y16113D02*
G03*
X2889Y16932I-1157J0D01*
G01*
X2842Y16979D02*
G03*
X2875Y17142I-385J163D01*
G01*
D02*
G03*
X2619Y16757I-418J0D01*
G01*
X1875Y17142D02*
G03*
X1842Y17304I-418J0D01*
G01*
X2913Y16113D02*
G03*
X2667Y16709I-843J0D01*
G01*
X2875Y16142D02*
G03*
X2289Y16525I-418J0D01*
G01*
X1891Y18218D02*
G03*
X1072Y17879I0J-1157D01*
G01*
X1645Y18238D02*
G03*
X1049Y17991I0J-843D01*
G01*
X1645Y18553D02*
G03*
X826Y18214I0J-1157D01*
G01*
X1891Y17904D02*
G03*
X1295Y17657I0J-843D01*
G01*
X1235Y17597D02*
G03*
X1090Y17343I393J-393D01*
G01*
X1024Y17967D02*
G03*
X778Y17390I596J-596D01*
G01*
X1013Y17820D02*
G03*
X778Y17390I615J-615D01*
G01*
X802Y18190D02*
G03*
X463Y17371I818J-818D01*
G01*
X2289Y16525D02*
G03*
X1674Y16785I-739J-891D01*
G01*
D02*
G03*
X1875Y17142I-218J357D01*
G01*
X1619Y17527D02*
G03*
X1090Y17343I-163J-385D01*
G01*
X463Y16764D02*
G03*
X656Y16296I662J0D01*
G01*
X4282Y16053D02*
G03*
X3464Y15714I0J-1157D01*
G01*
X2069Y16298D02*
G03*
X2875Y16142I388J-156D01*
G01*
X4282Y15738D02*
G03*
X3687Y15491I0J-843D01*
G01*
X3643Y15266D02*
G03*
X3434Y15247I0J-1157D01*
G01*
X3643Y14951D02*
G03*
X3047Y14704I0J-843D01*
G01*
X3232Y15489D02*
G03*
X3307Y15661I-162J172D01*
G01*
X3232Y15489D02*
G03*
X3296Y15546I-532J653D01*
G01*
X3307Y15661D02*
G03*
X3228Y15837I-236J0D01*
G01*
X2913D02*
G03*
X3197Y15461I157J-176D01*
G01*
X2839Y15311D02*
G03*
X2039Y15153I-382J-169D01*
G01*
X3434Y15247D02*
G03*
X3518Y15323I-734J895D01*
G01*
X2839Y15311D02*
G03*
X3197Y15461I-139J831D01*
G01*
X1875Y16142D02*
G03*
X1732Y16457I-418J0D01*
G01*
X2069Y16298D02*
G03*
X1732Y16457I-518J-664D01*
G01*
X1049Y16047D02*
G03*
X1875Y16142I407J95D01*
G01*
X861Y16136D02*
G03*
X1049Y16047I548J913D01*
G01*
X773Y16195D02*
G03*
X453Y15964I-84J-221D01*
G01*
X656Y16296D02*
G03*
X773Y16195I753J753D01*
G01*
X678Y15738D02*
G03*
X925Y15974I10J236D01*
G01*
D02*
G03*
X861Y16136I-236J0D01*
G01*
X1875Y15142D02*
G03*
X1247Y14780I-418J0D01*
G01*
X1727Y14823D02*
G03*
X1999Y14935I-181J823D01*
G01*
X1727Y14823D02*
G03*
X1875Y15142I-270J319D01*
G01*
X448Y15956D02*
G03*
X157Y15446I828J-809D01*
G01*
X671Y15734D02*
G03*
X433Y15147I604J-587D01*
G01*
X9764Y12933D02*
G03*
X9351Y13080I-236J-10D01*
G01*
X6506Y14174D02*
G03*
X6753Y13578I843J0D01*
G01*
X7004Y13327D02*
G03*
X7599Y13080I596J596D01*
G01*
X6820Y12780D02*
G03*
X7639Y12441I818J818D01*
G01*
X9547Y10551D02*
G03*
X9892Y11181I-403J630D01*
G01*
X9547Y10551D02*
G03*
X9892Y11181I-403J630D01*
G01*
X9420Y12126D02*
G03*
X9744Y12099I176J157D01*
G01*
X9892Y11181D02*
G03*
X8740Y10551I-748J0D01*
G01*
X9892Y11181D02*
G03*
X8740Y10551I-748J0D01*
G01*
X9466Y9518D02*
G03*
X9829Y9242I219J-89D01*
G01*
X8468Y10551D02*
G03*
X8494Y10659I-210J108D01*
G01*
D02*
G03*
X8114Y10846I-236J0D01*
G01*
X6033Y14046D02*
G03*
X6372Y13228I1157J0D01*
G01*
X6014Y14321D02*
G03*
X5726Y14715I-413J0D01*
G01*
X5776Y13947D02*
G03*
X6014Y14321I-176J374D01*
G01*
X5674Y12801D02*
G03*
X5787Y13076I-275J275D01*
G01*
X5114Y12569D02*
G03*
X5674Y12801I0J792D01*
G01*
X9900Y1929D02*
G03*
X9900Y1929I-748J0D01*
G01*
D02*
G03*
X9900Y1929I-748J0D01*
G01*
X4431Y14163D02*
G03*
X4687Y13927I382J157D01*
G01*
Y14715D02*
G03*
X4431Y14478I126J-394D01*
G01*
X4687Y13927D02*
G03*
X4481Y13780I126J-394D01*
G01*
X4405Y13465D02*
G03*
X5187Y13357I408J69D01*
G01*
X3050Y14163D02*
G03*
X2875Y14145I0J-843D01*
G01*
X3050Y14478D02*
G03*
X2751Y14439I0J-1157D01*
G01*
X2703Y14479D02*
G03*
X3038Y14695I-331J881D01*
G01*
X2666Y13780D02*
G03*
X2875Y14142I-209J362D01*
G01*
X2751Y14439D02*
G03*
X2703Y14479I-294J-297D01*
G01*
X3607Y13085D02*
G03*
X3018Y13329I-588J-588D01*
G01*
X5114Y12943D02*
G03*
X5409Y13065I0J418D01*
G01*
X3342Y12821D02*
G03*
X3950Y12569I607J607D01*
G01*
X3607Y13085D02*
G03*
X3950Y12943I343J343D01*
G01*
X3342Y12821D02*
G03*
X3247Y12893I-324J-324D01*
G01*
X3342Y12688D02*
G03*
X3938Y12441I596J596D01*
G01*
X3119Y12465D02*
G03*
X3938Y12126I818J818D01*
G01*
X3307Y12736D02*
G03*
X3247Y12893I-236J0D01*
G01*
X2835Y12724D02*
G03*
X3084Y12500I236J13D01*
G01*
X2644Y12249D02*
G03*
X2882Y11674I813J0D01*
G01*
X2270Y12249D02*
G03*
X2617Y11410I1187J0D01*
G01*
X1144Y14420D02*
G03*
X1039Y14151I312J-278D01*
G01*
X1247Y14780D02*
G03*
X659Y14464I230J-1134D01*
G01*
X1144Y14420D02*
G03*
X881Y14241I333J-774D01*
G01*
X2039Y13404D02*
G03*
X1845Y13296I313J-782D01*
G01*
X615Y14420D02*
G03*
X433Y14184I818J-818D01*
G01*
X837Y14197D02*
G03*
X591Y13602I596J-596D01*
G01*
X851Y13759D02*
G03*
X591Y13360I818J-818D01*
G01*
X1875Y13142D02*
G03*
X1845Y13296I-418J0D01*
G01*
X1617Y12755D02*
G03*
X1875Y13142I-160J386D01*
G01*
X1614Y12743D02*
G03*
X1861Y12161I842J13D01*
G01*
X157Y11914D02*
G03*
X457Y11395I1118J299D01*
G01*
X3471Y11085D02*
G03*
X4046Y10846I575J575D01*
G01*
X3224Y10798D02*
G03*
X3407Y10659I596J596D01*
G01*
X3207Y10820D02*
G03*
X3407Y10659I839J839D01*
G01*
X1995Y9857D02*
G03*
X2813Y9518I818J818D01*
G01*
X5413Y6614D02*
G03*
X5413Y6614I-807J0D01*
G01*
D02*
G03*
X5413Y6614I-807J0D01*
G01*
X2520D02*
G03*
X2520Y6614I-630J0D01*
G01*
X2874Y1535D02*
G03*
X2874Y1535I-1299J0D01*
G01*
X14551Y13780D02*
G03*
X14456Y13740I0J-134D01*
G01*
X14094Y15276D02*
G03*
X14285Y15197I190J190D01*
G01*
X14094Y15276D02*
G03*
X13619Y15472I-475J-475D01*
G01*
X14242Y13652D02*
G03*
X14456Y13740I0J302D01*
G01*
X13209Y15472D02*
G03*
X13091Y15424I0J-167D01*
G01*
D02*
G03*
X13032Y15281I143J-143D01*
G01*
X12126Y12559D02*
G03*
X12395Y12670I0J380D01*
G01*
X3071Y16113D02*
G03*
X2778Y16820I-1000J0D01*
G01*
X3231Y12576D02*
G03*
X3938Y12283I707J707D01*
G01*
X6932Y12891D02*
G03*
X7639Y12598I707J707D01*
G01*
X5057Y18103D02*
G03*
X4350Y18396I-707J-707D01*
G01*
X1645D02*
G03*
X937Y18103I0J-1000D01*
G01*
X6063Y16772D02*
G03*
X5833Y17326I-784J0D01*
G01*
X913Y18078D02*
G03*
X620Y17371I707J-707D01*
G01*
Y16764D02*
G03*
X768Y16407I504J0D01*
G01*
X5771Y16066D02*
G03*
X6063Y16772I-706J706D01*
G01*
X6191Y14891D02*
G03*
X5898Y15598I-1000J0D01*
G01*
X6191Y14046D02*
G03*
X6484Y13339I1000J0D01*
G01*
X768Y16407D02*
G03*
X1409Y16142I642J642D01*
G01*
X6348Y15570D02*
G03*
X6181Y15974I-571J0D01*
G01*
X6348Y14174D02*
G03*
X6641Y13467I1000J0D01*
G01*
X6892Y13216D02*
G03*
X7599Y12923I707J707D01*
G01*
X4515Y17768D02*
G03*
X3808Y18061I-707J-707D01*
G01*
X1891D02*
G03*
X1183Y17768I0J-1000D01*
G01*
X1124Y17709D02*
G03*
X915Y17205I504J-504D01*
G01*
X1096Y16768D02*
G03*
X1420Y16634I324J324D01*
G01*
X915Y17205D02*
G03*
X1096Y16768I618J0D01*
G01*
X2257Y16341D02*
G03*
X1550Y16634I-707J-707D01*
G01*
X13228Y12708D02*
G03*
X13290Y12559I211J0D01*
G01*
X3050Y14321D02*
G03*
X2343Y14028I0J-1000D01*
G01*
X13307Y12518D02*
G03*
X13290Y12559I-58J0D01*
G01*
X12621Y10217D02*
G03*
X13120Y10423I0J706D01*
G01*
X2788Y10509D02*
G03*
X3495Y10217I707J707D01*
G01*
X1552Y13652D02*
G03*
X2259Y13944I0J1000D01*
G01*
X1364Y13652D02*
G03*
X1102Y13543I0J-370D01*
G01*
X906Y12806D02*
G03*
X1198Y12099I1000J0D01*
G01*
X1102Y13543D02*
G03*
X906Y13068I475J-475D01*
G01*
X4282Y15896D02*
G03*
X3575Y15603I0J-1000D01*
G01*
X2700Y15142D02*
G03*
X3407Y15435I0J1000D01*
G01*
X13681Y12594D02*
G03*
X13662Y12639I-64J0D01*
G01*
X13388Y10051D02*
G03*
X13681Y10759I-707J707D01*
G01*
X13622Y12736D02*
G03*
X13662Y12639I138J0D01*
G01*
X12884Y9843D02*
G03*
X13388Y10051I0J713D01*
G01*
X1546Y14646D02*
G03*
X2254Y14939I0J1000D01*
G01*
X1477Y14646D02*
G03*
X770Y14353I0J-1000D01*
G01*
X2217Y10135D02*
G03*
X2924Y9843I707J707D01*
G01*
X726Y14309D02*
G03*
X433Y13602I707J-707D01*
G01*
Y12334D02*
G03*
X726Y11626I1000J0D01*
G01*
X3643Y15108D02*
G03*
X2935Y14815I0J-1000D01*
G01*
X13504Y12543D02*
G03*
X13465Y12638I-134J0D01*
G01*
X13302Y10280D02*
G03*
X13504Y10769I-489J489D01*
G01*
X13425Y12733D02*
G03*
X13465Y12638I134J0D01*
G01*
X12697Y10030D02*
G03*
X13302Y10280I0J855D01*
G01*
X2372Y14577D02*
G03*
X2927Y14806I0J784D01*
G01*
X2306Y14577D02*
G03*
X1599Y14284I0J-1000D01*
G01*
X2512Y10322D02*
G03*
X3219Y10030I707J707D01*
G01*
X962Y13647D02*
G03*
X669Y12940I707J-707D01*
G01*
Y12580D02*
G03*
X962Y11872I1000J0D01*
G01*
X13032Y12710D02*
G03*
X13110Y12520I269J0D01*
G01*
X4813Y13533D02*
G03*
X4599Y13622I-214J-214D01*
G01*
X13150Y12425D02*
G03*
X13110Y12520I-134J0D01*
G01*
X12931Y10551D02*
G03*
X13150Y11080I-529J529D01*
G01*
X12550Y10394D02*
G03*
X12931Y10551I0J538D01*
G01*
X2351Y13622D02*
G03*
X1644Y13329I0J-1000D01*
G01*
X3113Y10687D02*
G03*
X3820Y10394I707J707D01*
G01*
X1457Y12757D02*
G03*
X1750Y12050I1000J0D01*
G01*
X13333Y15827D02*
G03*
X12953Y15669I0J-538D01*
G01*
X12126Y15709D02*
G03*
X11936Y15787I-190J-190D01*
G01*
X12953Y15669D02*
G03*
X12835Y15384I285J-285D01*
G01*
X12244Y15424D02*
G03*
X12126Y15709I-403J0D01*
G01*
X12795Y12598D02*
G03*
X12835Y12693I-95J95D01*
G01*
X12795Y12598D02*
G03*
X12756Y12503I95J-95D01*
G01*
X12421Y17340D02*
G03*
X12638Y16817I739J0D01*
G01*
D02*
G03*
X12441Y16342I475J-475D01*
G01*
X14215Y16819D02*
G03*
X14508Y17526I-707J707D01*
G01*
X14118Y16817D02*
G03*
X13411Y16524I0J-1000D01*
G01*
X12931Y16044D02*
G03*
X12638Y15337I707J-707D01*
G01*
X14528Y13061D02*
G03*
X14409Y13346I-403J0D01*
G01*
D02*
G03*
X14148Y13455I-261J-261D01*
G01*
X3511Y17443D02*
G03*
X2804Y17736I-707J-707D01*
G01*
X3979Y16976D02*
G03*
X4686Y16683I707J707D01*
G01*
X2372Y17736D02*
G03*
X1824Y17509I0J-775D01*
G01*
X2106Y9968D02*
G03*
X2813Y9675I707J707D01*
G01*
X568Y15854D02*
G03*
X276Y15147I707J-707D01*
G01*
Y12213D02*
G03*
X568Y11506I1000J0D01*
G01*
X11585Y14242D02*
G03*
X10878Y13949I0J-1000D01*
G01*
X10869Y13940D02*
G03*
X10591Y13268I672J-672D01*
G01*
X10512Y12795D02*
G03*
X10591Y12985I-190J190D01*
G01*
X10084Y12618D02*
G03*
X10512Y12795I0J605D01*
G01*
X11744Y14045D02*
G03*
X11102Y13780I0J-907D01*
G01*
X11063Y12717D02*
G03*
X11301Y12618I238J238D01*
G01*
X11102Y13780D02*
G03*
X10945Y13399I380J-380D01*
G01*
Y13002D02*
G03*
X11063Y12717I403J0D01*
G01*
X13120Y10423D02*
G03*
X13307Y10875I-451J451D01*
G01*
X12480Y12756D02*
G03*
X12638Y13136I-380J380D01*
G01*
X18366Y18740D02*
X18740D01*
X18366Y18819D02*
X18740D01*
X18366Y18583D02*
X18740D01*
X18366Y18661D02*
X18740D01*
X18366Y19134D02*
X18740D01*
X18366Y19291D02*
X18740D01*
X18366Y18898D02*
X18740D01*
X18366Y18976D02*
X18740D01*
X18366Y18425D02*
X18740D01*
X18366Y18504D02*
X18740D01*
X17460Y15827D02*
X18740D01*
X18366Y18346D02*
X18740D01*
X16005Y16220D02*
X18740D01*
X15926Y16299D02*
X18740D01*
X17460Y15905D02*
X18740D01*
X16084Y16142D02*
X18740D01*
X18366Y19055D02*
X18740D01*
X18366Y19213D02*
X18740D01*
X17323Y18307D02*
X18366Y18307D01*
X18366Y19360D02*
X18366Y18307D01*
X17323Y19360D02*
X18366Y19360D01*
X17323Y19360D02*
X17323Y18307D01*
X16163Y16063D02*
X18740D01*
X16870Y16057D02*
X17460D01*
Y15748D02*
X18740D01*
X17460Y15984D02*
X18740D01*
X17165Y15742D02*
X17421D01*
X16909D02*
X17165D01*
X16320Y15905D02*
X16870D01*
X16241Y15984D02*
X16870D01*
X16478Y15748D02*
X16870D01*
X16399Y15827D02*
X16870D01*
X17460Y15590D02*
X18740D01*
X17460Y15669D02*
X18740D01*
X17460Y15433D02*
X18740D01*
X17460Y15427D02*
Y16057D01*
Y15512D02*
X18740D01*
X17165Y15742D02*
Y16017D01*
X16870Y15427D02*
X17460D01*
X17165Y15466D02*
Y15742D01*
X17460Y15276D02*
X18740D01*
X17460Y15354D02*
X18740D01*
X17460Y15197D02*
X18740D01*
X17460Y14758D02*
Y15388D01*
Y15118D02*
X18740D01*
X16870Y15388D02*
X17460D01*
Y14961D02*
X18740D01*
X17460Y15039D02*
X18740D01*
X16760Y15433D02*
X16870D01*
X16714Y15512D02*
X16870D01*
Y14940D02*
Y15388D01*
Y15427D02*
Y16057D01*
X16635Y15590D02*
X16870D01*
X16556Y15669D02*
X16870D01*
X16772Y15276D02*
X16870D01*
X16772Y15354D02*
X16870D01*
X16772Y15197D02*
X16870D01*
X16772Y14927D02*
Y15364D01*
Y15039D02*
X16870D01*
X16772Y15118D02*
X16870D01*
X16772Y14961D02*
X16870D01*
X16339Y13709D02*
Y15274D01*
X14823Y17716D02*
X18740D01*
X14823Y17795D02*
X18740D01*
X14823Y17559D02*
X18740D01*
X14823Y17638D02*
X18740D01*
X14823Y18031D02*
X18740D01*
X14823Y18110D02*
X18740D01*
X14823Y17874D02*
X18740D01*
X14823Y17953D02*
X18740D01*
X14744Y17087D02*
X18740D01*
X14743Y17165D02*
X18740D01*
X14744Y16535D02*
X18740D01*
X14744Y17008D02*
X18740D01*
X14659Y17401D02*
X18740D01*
X14664Y17480D02*
X18740D01*
X14723Y17244D02*
X18740D01*
X14667Y17323D02*
X18740D01*
X14744Y16929D02*
X18740D01*
X14823Y17539D02*
Y18130D01*
X14744Y16614D02*
X18740D01*
X14744Y16850D02*
X18740D01*
X14665Y17539D02*
X14823D01*
X14193Y18130D02*
X14823D01*
X14744Y16693D02*
X18740D01*
X14744Y16772D02*
X18740D01*
X15848Y16378D02*
X18740D01*
X14898Y16437D02*
X15699D01*
X14809Y16457D02*
X18740D01*
X14898Y16004D02*
X15609D01*
X14626Y15905D02*
X15708D01*
X14626Y15984D02*
X15629D01*
X15852Y16373D02*
X16708Y15518D01*
X15609Y16004D02*
X16339Y15274D01*
X14626Y15748D02*
X15865D01*
X14626Y15827D02*
X15786D01*
X14626Y15590D02*
X16023D01*
X14626Y15669D02*
X15944D01*
X15532Y15118D02*
X16339D01*
X15532Y15197D02*
X16339D01*
X15532Y14961D02*
X16339D01*
X15532Y15039D02*
X16339D01*
X15532Y15433D02*
X16180D01*
X14046Y15512D02*
X16101D01*
X15532Y15276D02*
X16338D01*
X15532Y15354D02*
X16259D01*
X14902Y15492D02*
X15532D01*
X15217Y15197D02*
Y15453D01*
X15532Y14902D02*
Y15492D01*
X14902Y14902D02*
Y15492D01*
X14862Y15433D02*
X14902D01*
X14232Y15492D02*
X14862D01*
Y15354D02*
X14902D01*
X14862Y14946D02*
Y15492D01*
X15217Y15197D02*
X15492D01*
X14941D02*
X15217D01*
Y14941D02*
Y15197D01*
X14862Y14961D02*
X14902D01*
X14862Y15197D02*
X14902D01*
X14862Y15276D02*
X14902D01*
X14862Y15039D02*
X14902D01*
X14862Y15118D02*
X14902D01*
X17460Y14803D02*
X18740D01*
X17460Y14882D02*
X18740D01*
X17460Y14646D02*
X18740D01*
X17323Y14724D02*
X18740D01*
X17323Y14758D02*
X17460D01*
Y14567D02*
X18740D01*
X17746Y14252D02*
X18740D01*
X17718Y14331D02*
X18740D01*
X17746Y14173D02*
X18740D01*
X17643Y14409D02*
X18740D01*
X17564Y14488D02*
X18740D01*
X17541Y14511D02*
X17700Y14352D01*
X17323Y14656D02*
X17460D01*
X17323Y14715D02*
Y14758D01*
X17460Y14554D02*
Y14656D01*
X17323D02*
Y14715D01*
X15817Y14882D02*
X16339D01*
X15817Y14724D02*
X16339D01*
X15817Y14803D02*
X16339D01*
X15817Y14252D02*
X16339D01*
X15817Y14331D02*
X16339D01*
X15817Y14094D02*
X16339D01*
X15817Y14173D02*
X16339D01*
X15817Y14567D02*
X16339D01*
X15817Y14646D02*
X16339D01*
X15817Y14409D02*
X16339D01*
X15817Y14488D02*
X16339D01*
X17746Y13701D02*
X18740D01*
X17746Y13779D02*
X18740D01*
X17746Y13543D02*
X18740D01*
X17746Y13622D02*
X18740D01*
X17746Y14016D02*
X18740D01*
X17746Y14094D02*
X18740D01*
X17746Y13858D02*
X18740D01*
X17746Y13937D02*
X18740D01*
X17746Y13071D02*
X18740D01*
X17746Y13150D02*
X18740D01*
X17746Y12520D02*
X18740D01*
X17746Y12598D02*
X18740D01*
X17746Y13386D02*
X18740D01*
X17746Y13464D02*
X18740D01*
X17746Y13228D02*
X18740D01*
X17746Y13307D02*
X18740D01*
X17746Y12992D02*
X18740D01*
X17746Y12450D02*
Y14241D01*
X15768Y13937D02*
X16339D01*
X15817Y14085D02*
Y14892D01*
X15768Y13858D02*
X16339D01*
X15768Y13484D02*
Y14075D01*
X17755Y12441D02*
X18740D01*
X17746Y12756D02*
X18740D01*
X17825Y12283D02*
X18740D01*
X17808Y12362D02*
X18740D01*
X17746Y12835D02*
X18740D01*
X17746Y12913D02*
X18740D01*
X17746Y12677D02*
X18740D01*
X16348Y12432D02*
Y12740D01*
X15472Y14488D02*
Y14852D01*
X15167Y14488D02*
X15472D01*
X15778D01*
X15472Y14124D02*
Y14488D01*
X15128Y14892D02*
X15817D01*
X14902Y14902D02*
X15532D01*
X15128Y14085D02*
X15817D01*
X15138Y14075D02*
X15768D01*
Y13779D02*
X16339D01*
X15768Y14016D02*
X16339D01*
X15768Y13543D02*
X16350D01*
X15768Y13701D02*
X16336D01*
X15768Y13622D02*
X16330D01*
X15453Y13780D02*
X15728D01*
X15138Y13484D02*
X15768D01*
X15453Y13524D02*
Y13780D01*
X15128Y14085D02*
Y14892D01*
X15108Y14085D02*
Y14892D01*
X15453Y13780D02*
Y14035D01*
X15138Y13484D02*
Y14075D01*
X14894Y14892D02*
X15108D01*
X14980Y14085D02*
X15108D01*
X14980Y14075D02*
X15098D01*
Y13937D02*
X15138D01*
X15098Y14016D02*
X15138D01*
X15177Y13780D02*
X15453D01*
X15098Y13858D02*
X15138D01*
X15098Y13701D02*
X15138D01*
X15098Y13779D02*
X15138D01*
X15098Y13543D02*
X15138D01*
X15098Y13622D02*
X15138D01*
X15404Y13012D02*
X16408D01*
X15404Y12992D02*
X16389D01*
X15404Y12909D02*
Y13012D01*
X15197Y13445D02*
X16435D01*
X15090Y13464D02*
X16409D01*
X15404Y12913D02*
X16342D01*
X15416Y12756D02*
X16342D01*
X15422Y12835D02*
X16329D01*
X15379Y12677D02*
X16348D01*
X15738Y12362D02*
X16278D01*
X14921Y12520D02*
X16348D01*
X15281Y12598D02*
X16348D01*
X13839Y12441D02*
X16348D01*
X14931Y12372D02*
X15738D01*
X15110Y13445D02*
X15197D01*
X15098Y13484D02*
Y14075D01*
X15070Y13484D02*
X15110Y13445D01*
X14970Y12909D02*
Y13017D01*
X14921Y12992D02*
X14970D01*
X14921Y12451D02*
Y13035D01*
Y12913D02*
X14970D01*
X14921Y12835D02*
X14952D01*
X14921Y12677D02*
X14995D01*
X14921Y12756D02*
X14958D01*
X14921Y12598D02*
X15093D01*
X14134Y12451D02*
X14921D01*
X13839Y12362D02*
X14931D01*
X14134Y12352D02*
X14921D01*
X14154Y18031D02*
X14193D01*
X14154Y18110D02*
X14193D01*
Y17539D02*
Y18130D01*
X14154Y17539D02*
Y18130D01*
Y17953D02*
X14193D01*
X13524Y18130D02*
X14154D01*
Y17795D02*
X14193D01*
X14154Y17874D02*
X14193D01*
Y17539D02*
X14350D01*
X14154Y17638D02*
X14193D01*
X14154Y17716D02*
X14193D01*
X13923Y17388D02*
X14339D01*
X14154Y17559D02*
X14193D01*
X13839Y17835D02*
Y18091D01*
X13406Y18110D02*
X13524D01*
X13839Y17579D02*
Y17835D01*
X13524Y17539D02*
Y18130D01*
X13406Y17953D02*
X13524D01*
X13406Y18031D02*
X13524D01*
X13406Y17874D02*
X13524D01*
X13406Y17538D02*
Y18129D01*
X13839Y17835D02*
X14114D01*
X13563D02*
X13839D01*
X13524Y17539D02*
X14154D01*
X13406Y17716D02*
X13524D01*
X13406Y17795D02*
X13524D01*
X13406Y17559D02*
X13524D01*
X13406Y17638D02*
X13524D01*
X14742Y16457D02*
X14797D01*
X14744Y16488D02*
Y17146D01*
X13923Y16246D02*
X14502D01*
X13251Y16142D02*
X14580D01*
X13330Y16220D02*
X14567D01*
X14311Y15827D02*
Y16083D01*
X14626Y15532D02*
Y16064D01*
X13996Y15539D02*
Y16122D01*
X14588D01*
X13327D02*
X13957D01*
Y15984D02*
X13996D01*
X13957Y16063D02*
X13996D01*
X13681Y16889D02*
Y17146D01*
Y16488D02*
Y16537D01*
X13169Y16850D02*
X13596D01*
X13169Y16693D02*
X13361D01*
X13169Y16614D02*
X13278D01*
X13169Y16505D02*
Y17146D01*
X13487Y16378D02*
X13708D01*
X13569Y16457D02*
X13683D01*
X13957Y15558D02*
Y16122D01*
X13408Y16299D02*
X13772D01*
X13169Y16535D02*
X13199D01*
X13327Y15985D02*
Y16122D01*
X13172Y16063D02*
X13327D01*
X13091Y17834D02*
X13366D01*
X13091D02*
Y18090D01*
Y17578D02*
Y17834D01*
X12815D02*
X13091D01*
X12776Y18129D02*
X13406D01*
X12736Y17638D02*
X12776D01*
X12579Y17480D02*
X14349D01*
X12776Y17538D02*
X13406D01*
X13148Y17244D02*
X13702D01*
X13168Y17165D02*
X13682D01*
X13169Y17008D02*
X13681D01*
X13169Y17087D02*
X13681D01*
X12579Y17401D02*
X14341D01*
X12579Y17388D02*
X12927D01*
X13092Y17323D02*
X13758D01*
X12736Y17874D02*
X12776D01*
X12736Y18110D02*
X12776D01*
Y17538D02*
Y18129D01*
X12736Y17538D02*
Y18129D01*
Y18031D02*
X12776D01*
X12106Y18129D02*
X12736D01*
Y17953D02*
X12776D01*
X12106Y17538D02*
Y18129D01*
X12736Y17716D02*
X12776D01*
X12736Y17795D02*
X12776D01*
X12736Y17559D02*
X12776D01*
X12579Y17388D02*
Y17538D01*
X12736D01*
X12106D02*
X12264D01*
Y17373D02*
Y17538D01*
X13169Y16929D02*
X13681D01*
X13169Y16772D02*
X13463D01*
X13132Y16023D02*
X13522Y16412D01*
X13169Y16505D02*
X13299Y16635D01*
X12146Y16299D02*
X12197D01*
X12283Y15780D02*
Y16255D01*
X12146Y16142D02*
Y16356D01*
Y16063D02*
X12283D01*
X12146Y16220D02*
X12283D01*
X12146Y15905D02*
X12283D01*
X10492Y16142D02*
X12283D01*
X11555Y16142D02*
X12146D01*
Y15984D02*
X12283D01*
X11555Y16102D02*
X12146D01*
X12106Y16772D02*
Y17146D01*
X11850Y16457D02*
Y16732D01*
Y16181D02*
Y16457D01*
X11594D02*
X11850D01*
X11555Y16772D02*
X12106D01*
X11555Y16142D02*
Y16772D01*
X10728Y15905D02*
X11555D01*
X10649Y15984D02*
X11555D01*
X12146Y15890D02*
Y16102D01*
X11555Y15472D02*
Y16102D01*
X10413Y16220D02*
X11555D01*
X10242Y16299D02*
X11555D01*
X10570Y16063D02*
X11555D01*
X10403Y16230D02*
X11407Y15226D01*
X14311Y15827D02*
X14587D01*
X14035D02*
X14311D01*
Y15571D02*
Y15827D01*
X13957Y15827D02*
X13996D01*
X13957Y15905D02*
X13996D01*
X13957Y15590D02*
X13996D01*
X13957Y15748D02*
X13996D01*
X14232Y15367D02*
Y15492D01*
X14156Y15433D02*
X14232D01*
X14011Y15532D02*
X14626D01*
X14092Y13297D02*
X14148D01*
X13795Y13282D02*
X14020D01*
X12230Y15827D02*
X12283D01*
X13957Y15669D02*
X13996D01*
X11555Y15472D02*
X11982D01*
X12087Y15302D02*
Y15347D01*
X12071Y15006D02*
Y15230D01*
X11846Y15006D02*
X12071D01*
X11483Y15039D02*
X12071D01*
X11532Y14990D02*
X11774D01*
X11585Y14400D02*
X11678D01*
X11476Y15046D02*
X11532Y14990D01*
X13795Y13228D02*
X14305D01*
X14134Y13100D02*
X14367D01*
X14134Y12451D02*
Y13100D01*
X13795Y13150D02*
X14354D01*
X13795Y13071D02*
X14134D01*
X13795Y13057D02*
Y13282D01*
X13822Y12677D02*
X14134D01*
X13783Y12992D02*
X14134D01*
X13839Y12520D02*
X14134D01*
X13839Y12598D02*
X14134D01*
X13780Y12835D02*
X14134D01*
X13780Y12913D02*
X14134D01*
X13780Y12756D02*
X14134D01*
X13780Y12744D02*
Y12985D01*
X11791Y12303D02*
Y12866D01*
Y12756D02*
X11831D01*
X11791Y12835D02*
X11831D01*
X11791Y12598D02*
X11831D01*
X11791Y12677D02*
X11831D01*
X12507Y12559D02*
X12604D01*
X12421Y12362D02*
X12461D01*
X12421Y12441D02*
X12461D01*
X11791Y12520D02*
X11831D01*
X11791Y12362D02*
X11831D01*
X11791Y12441D02*
X11831D01*
X11200Y15433D02*
X12000D01*
X11122Y15512D02*
X11555D01*
X11358Y15276D02*
X12077D01*
X11279Y15354D02*
X12074D01*
X10885Y15748D02*
X11555D01*
X10807Y15827D02*
X11555D01*
X11043Y15590D02*
X11555D01*
X10964Y15669D02*
X11555D01*
X11469Y15118D02*
X12071D01*
X11432Y15197D02*
X12071D01*
X11253Y14823D02*
X11283Y14793D01*
X11190Y14803D02*
X11273D01*
X11200Y14793D02*
X11283D01*
X10305Y15512D02*
X10453D01*
X10226Y15590D02*
X10375D01*
X10196Y15620D02*
X10944Y14872D01*
X10383Y15433D02*
X10532D01*
X10124Y15669D02*
X10296D01*
X10138Y15827D02*
X11073Y14892D01*
X10856Y14961D02*
X11005D01*
X10777Y15039D02*
X10926D01*
X10935Y14882D02*
X11084D01*
X10944Y14872D02*
X11024D01*
X10541Y15276D02*
X10690D01*
X10462Y15354D02*
X10611D01*
X10698Y15118D02*
X10847D01*
X10620Y15197D02*
X10768D01*
X11200Y14478D02*
X11678D01*
X11091Y14409D02*
X11676D01*
X10846Y14400D02*
X11024D01*
X10616Y12677D02*
X10891D01*
X11201Y12303D02*
X11791D01*
X11201D02*
Y12471D01*
X10378Y12520D02*
X11067D01*
X10521Y12598D02*
X10959D01*
X10335Y12362D02*
X11201D01*
X10335Y12441D02*
X11201D01*
X9931Y15217D02*
X10679Y14469D01*
X10354Y13110D02*
Y13425D01*
X10335Y12852D02*
Y12933D01*
X10742Y12913D02*
X10794D01*
X10335D02*
X10407D01*
X10681Y12756D02*
X10844D01*
X10720Y12835D02*
X10813D01*
X10335Y12303D02*
Y12503D01*
X18179Y11968D02*
X18740D01*
X18179Y12047D02*
X18740D01*
X18179Y11653D02*
X18740D01*
X18179Y11890D02*
X18740D01*
X17773Y12126D02*
X18740D01*
X17815Y12205D02*
X18740D01*
X18179Y11732D02*
X18740D01*
X18179Y11811D02*
X18740D01*
X18179Y11181D02*
X18740D01*
X18179Y11260D02*
X18740D01*
X18179Y10945D02*
X18740D01*
X18179Y11024D02*
X18740D01*
X18179Y11496D02*
X18740D01*
X18179Y11575D02*
X18740D01*
X18179Y11339D02*
X18740D01*
X18179Y11417D02*
X18740D01*
X18179Y11457D02*
Y12087D01*
X17884Y11102D02*
Y11378D01*
X17589Y11457D02*
X18179D01*
X17733Y12087D02*
X18179D01*
X17589Y11417D02*
X18179D01*
X17589Y11457D02*
Y11581D01*
X17884Y11102D02*
X18140D01*
X17628D02*
X17884D01*
X18179Y11102D02*
X18740D01*
X17458Y10889D02*
Y11047D01*
Y11024D02*
X17589D01*
X17450Y11102D02*
X17589D01*
X17457Y10866D02*
X17589D01*
X17458Y10945D02*
X17589D01*
X17438Y10787D02*
X18740D01*
X18179Y10866D02*
X18740D01*
X17438Y10630D02*
X18740D01*
X17438Y10709D02*
X18740D01*
X17438Y10472D02*
X18740D01*
X17438Y10551D02*
X18740D01*
X17438Y10315D02*
X18740D01*
X17438Y10394D02*
X18740D01*
X17438Y9842D02*
X18740D01*
X17438Y9921D02*
X18740D01*
X17438Y9134D02*
X18740D01*
X17438Y9213D02*
X18740D01*
X17438Y10157D02*
X18740D01*
X17438Y10236D02*
X18740D01*
X17438Y10000D02*
X18740D01*
X17438Y10079D02*
X18740D01*
X18179Y10787D02*
Y11417D01*
X17884Y10827D02*
Y11102D01*
X18740Y157D02*
Y19734D01*
X17589Y10787D02*
X18179D01*
X17589D02*
Y11417D01*
X17438Y9764D02*
X18740D01*
X17438Y9013D02*
Y10804D01*
Y9606D02*
X18740D01*
X17438Y9685D02*
X18740D01*
X17438Y9449D02*
X18740D01*
X17438Y9528D02*
X18740D01*
X17438Y9291D02*
X18740D01*
X17438Y9370D02*
X18740D01*
X17436Y8976D02*
X18740D01*
X17438Y9055D02*
X18740D01*
X17421Y11575D02*
X17589D01*
X17426Y11581D02*
X17589D01*
X17298Y11496D02*
X17589D01*
X16780D02*
X17028D01*
X16859Y11575D02*
X16904D01*
X17064Y11493D02*
X17261D01*
X17405Y11181D02*
X17589D01*
X17064Y11244D02*
X17261D01*
X16752Y11339D02*
X17589D01*
X16752Y11417D02*
X17589D01*
X16752Y11260D02*
X17589D01*
X16752Y11181D02*
X16920D01*
X16865Y11581D02*
X16900D01*
X16867Y10889D02*
Y11047D01*
X16752Y10463D02*
Y11468D01*
Y11102D02*
X16875D01*
X16752Y11468D02*
X16865Y11581D01*
X16752Y10945D02*
X16867D01*
X16752Y11024D02*
X16867D01*
X16752Y10787D02*
X16887D01*
X16752Y10866D02*
X16869D01*
X16752Y10630D02*
X16887D01*
X16752Y10709D02*
X16887D01*
X16752Y10472D02*
X16887D01*
X16752Y10551D02*
X16887D01*
X16739Y10394D02*
X16887D01*
X17413Y8898D02*
X18740D01*
X16288Y9921D02*
X16887D01*
X16131Y9764D02*
X16887D01*
X16209Y9842D02*
X16887D01*
X15973Y9606D02*
X16887D01*
X16052Y9685D02*
X16887D01*
X17279Y8740D02*
X18740D01*
X17358Y8819D02*
X18740D01*
X17201Y8661D02*
X18740D01*
X17126Y8587D02*
X17358Y8818D01*
X17126Y8504D02*
X18740D01*
X17126Y8583D02*
X18740D01*
X17126Y8425D02*
X18740D01*
X17126Y7181D02*
Y8587D01*
X16682Y10315D02*
X16887D01*
Y9127D02*
Y10804D01*
X16603Y10236D02*
X16887D01*
X16446Y10079D02*
X16887D01*
X16524Y10157D02*
X16887D01*
X16367Y10000D02*
X16887D01*
X15664Y9297D02*
X16697Y10330D01*
X16656Y8896D02*
X16887Y9127D01*
X16575Y7181D02*
Y8701D01*
X15816Y9449D02*
X16887D01*
X15894Y9528D02*
X16887D01*
X15658Y9291D02*
X16887D01*
X15737Y9370D02*
X16887D01*
X17434Y6378D02*
X18740D01*
X17460Y6457D02*
X18740D01*
X17342Y6220D02*
X18740D01*
X17396Y6299D02*
X18740D01*
X17155Y6063D02*
X18740D01*
X17267Y6142D02*
X18740D01*
X17260Y3622D02*
X18740D01*
X17203Y3701D02*
X18740D01*
X17323Y3386D02*
X18740D01*
X17316Y3465D02*
X18740D01*
X17334Y2835D02*
X18740D01*
X17316Y3307D02*
X18740D01*
X17296Y3228D02*
X18740D01*
X17296Y3543D02*
X18740D01*
X17202Y3071D02*
X18740D01*
X17260Y3150D02*
X18740D01*
X17126Y7716D02*
X18740D01*
X17126Y7795D02*
X18740D01*
X17155Y7165D02*
X18740D01*
X17126Y7638D02*
X18740D01*
X17126Y8189D02*
X18740D01*
X17126Y8268D02*
X18740D01*
X17126Y8031D02*
X18740D01*
X17126Y8110D02*
X18740D01*
X17475Y6693D02*
X18740D01*
X17460Y6772D02*
X18740D01*
X17475Y6535D02*
X18740D01*
X17480Y6614D02*
X18740D01*
X17342Y7008D02*
X18740D01*
X17267Y7087D02*
X18740D01*
X17434Y6850D02*
X18740D01*
X17396Y6929D02*
X18740D01*
X18617Y1417D02*
X18740D01*
X18621Y1496D02*
X18740D01*
X18592Y1260D02*
X18740D01*
X18607Y1339D02*
X18740D01*
X18548Y1102D02*
X18740D01*
X18573Y1181D02*
X18740D01*
X18480Y945D02*
X18740D01*
X18517Y1024D02*
X18740D01*
X18385Y787D02*
X18740D01*
X18436Y866D02*
X18740D01*
X18254Y630D02*
X18740D01*
X18325Y709D02*
X18740D01*
X18070Y472D02*
X18740D01*
X18171Y551D02*
X18740D01*
X17768Y315D02*
X18740D01*
X17943Y394D02*
X18740D01*
X18325Y2362D02*
X18740D01*
X18255Y2441D02*
X18740D01*
X18436Y2205D02*
X18740D01*
X18385Y2283D02*
X18740D01*
X17943Y2677D02*
X18740D01*
X17768Y2756D02*
X18740D01*
X18171Y2520D02*
X18740D01*
X18070Y2598D02*
X18740D01*
X18607Y1732D02*
X18740D01*
X18592Y1811D02*
X18740D01*
X18621Y1575D02*
X18740D01*
X18617Y1654D02*
X18740D01*
X18517Y2047D02*
X18740D01*
X18480Y2126D02*
X18740D01*
X18573Y1890D02*
X18740D01*
X18548Y1968D02*
X18740D01*
X17126Y7402D02*
X18740D01*
X17126Y7480D02*
X18740D01*
X17126Y7244D02*
X18740D01*
X17126Y7323D02*
X18740D01*
X17126Y7953D02*
X18740D01*
X17126Y8346D02*
X18740D01*
X17126Y7559D02*
X18740D01*
X17126Y7874D02*
X18740D01*
X16892Y5905D02*
X18740D01*
X16971Y5984D02*
X18740D01*
X16735Y5748D02*
X18740D01*
X16813Y5827D02*
X18740D01*
X16262Y5276D02*
X18740D01*
X16656Y5669D02*
X18740D01*
X15790Y4803D02*
X18740D01*
X15869Y4882D02*
X18740D01*
X16577Y5591D02*
X18740D01*
X14520Y7323D02*
X16575D01*
X14311Y7402D02*
X16575D01*
X14638Y7244D02*
X16575D01*
X14723Y7165D02*
X16545D01*
X16420Y5433D02*
X18740D01*
X16499Y5512D02*
X18740D01*
X16184Y5197D02*
X18740D01*
X16341Y5354D02*
X18740D01*
X16026Y5039D02*
X18740D01*
X16105Y5118D02*
X18740D01*
X15711Y4724D02*
X18740D01*
X15947Y4961D02*
X18740D01*
X15554Y4567D02*
X18740D01*
X15632Y4646D02*
X18740D01*
X15396Y4409D02*
X18740D01*
X15475Y4488D02*
X18740D01*
X15239Y4252D02*
X18740D01*
X15317Y4331D02*
X18740D01*
X15081Y4094D02*
X18740D01*
X15160Y4173D02*
X18740D01*
X17112Y3779D02*
X18740D01*
X16857Y3858D02*
X18740D01*
X17111Y2992D02*
X18740D01*
X14924Y3937D02*
X18740D01*
X15002Y4016D02*
X18740D01*
X13900Y2913D02*
X18740D01*
X14845Y3858D02*
X16844D01*
X14766Y3779D02*
X16589D01*
X14688Y3701D02*
X16498D01*
X13979Y2992D02*
X16589D01*
X14058Y3071D02*
X16498D01*
X13821Y2835D02*
X17312D01*
X12648Y1661D02*
X16986Y5999D01*
X13789Y472D02*
X16576D01*
X13789Y551D02*
X16475D01*
X13789Y315D02*
X16878D01*
X13789Y394D02*
X16703D01*
X13743Y2756D02*
X16877D01*
X13664Y2677D02*
X16703D01*
X13585Y2598D02*
X16576D01*
X13506Y2520D02*
X16475D01*
X16160Y12244D02*
X16348Y12432D01*
X15738Y12283D02*
X16200D01*
X15738Y11683D02*
Y11811D01*
Y12244D02*
Y12372D01*
Y12244D02*
X16160D01*
X14931D02*
Y12372D01*
X14921Y12244D02*
Y12352D01*
X13839Y12047D02*
X14134D01*
X15738Y11811D02*
X16163D01*
X15738Y11811D02*
X16163D01*
X15738Y11732D02*
X16046D01*
X14931Y11683D02*
Y11811D01*
X14134Y11703D02*
X14921D01*
Y11811D01*
X14931Y11663D02*
X15738D01*
X14931Y11683D02*
X15738D01*
X13839Y12205D02*
X14134D01*
X13839Y12283D02*
X14134D01*
Y11703D02*
Y12352D01*
X13839Y12126D02*
X14134D01*
X12421Y12283D02*
X12461D01*
X12421Y12244D02*
Y12490D01*
X12461Y11929D02*
Y12518D01*
X12421Y12047D02*
X12461D01*
X13839Y11890D02*
X14134D01*
X13839Y11968D02*
X14134D01*
X13839Y11732D02*
X14134D01*
X13839Y11811D02*
X14134D01*
X12461Y11929D02*
X12992D01*
X12421Y11968D02*
X12461D01*
X12992Y11890D02*
Y11929D01*
X12461Y11890D02*
X12992D01*
X15738Y11653D02*
X16004D01*
X15738Y11575D02*
X15994D01*
X15738Y10974D02*
Y11663D01*
Y11496D02*
X16011D01*
X13839D02*
X14931D01*
X15738Y11417D02*
X16064D01*
X15335Y11319D02*
Y11624D01*
X15738Y11260D02*
X16073D01*
X15738Y11339D02*
X16073D01*
Y10597D02*
Y11409D01*
X15738Y11102D02*
X16073D01*
X15335Y11319D02*
X15699D01*
X14970D02*
X15335D01*
X15738Y11181D02*
X16073D01*
X15335Y11014D02*
Y11319D01*
X13839Y11575D02*
X14931D01*
X13839Y11653D02*
X14931D01*
Y10974D02*
Y11663D01*
X13839Y10759D02*
Y12594D01*
X12500Y11575D02*
X12756D01*
Y11850D01*
Y11299D02*
Y11575D01*
X12461Y11260D02*
Y11890D01*
X13839Y11339D02*
X14931D01*
X13839Y11417D02*
X14931D01*
X13839Y11181D02*
X14931D01*
X13839Y11260D02*
X14931D01*
X13839Y11102D02*
X14931D01*
X12461Y11260D02*
X12992D01*
Y11080D02*
Y11260D01*
X12421Y12205D02*
X12461D01*
X11831Y12205D02*
X12421D01*
Y12126D02*
X12461D01*
X12126Y11890D02*
Y12165D01*
X11831Y12244D02*
X12421D01*
X11791Y12205D02*
X11831D01*
X11791Y12047D02*
X11831D01*
X11791Y12126D02*
X11831D01*
X12421Y11890D02*
X12461D01*
X12126Y11890D02*
X12382D01*
X12421Y11732D02*
X12461D01*
X12421Y11811D02*
X12461D01*
X11870Y11890D02*
X12126D01*
X11791Y11968D02*
X11831D01*
X11791Y11811D02*
X11831D01*
X11791Y11890D02*
X11831D01*
Y12244D02*
Y12848D01*
X11201Y12264D02*
X11791D01*
X11496Y11949D02*
Y12224D01*
X10335Y11968D02*
X11201D01*
X10335Y12126D02*
X11201D01*
X10335Y12205D02*
X11201D01*
X10335Y12047D02*
X11201D01*
X10039Y11949D02*
Y12224D01*
X11496Y11949D02*
X11752D01*
X11240D02*
X11496D01*
X11791Y11732D02*
X11831D01*
X10335Y11890D02*
X11201D01*
X10335Y11811D02*
X11201D01*
X10039Y11949D02*
X10295D01*
X10335Y11732D02*
X11201D01*
X10039Y11673D02*
Y11949D01*
X12421Y11653D02*
X12461D01*
X12126Y11614D02*
Y11890D01*
X11831Y11575D02*
X12421D01*
Y12205D01*
X11791Y11653D02*
X11831D01*
X11791Y11634D02*
Y12264D01*
X11831Y11575D02*
Y12205D01*
X11201Y11634D02*
X11791D01*
X11181Y11181D02*
X12992D01*
X11181Y11260D02*
X12992D01*
X11181Y11102D02*
X12992D01*
X11181Y11024D02*
X12989D01*
X11166Y11496D02*
X12461D01*
X11122Y11575D02*
X12461D01*
X11181Y11339D02*
X12461D01*
X11181Y11417D02*
X12461D01*
X11496Y11673D02*
Y11949D01*
X11016Y11653D02*
X11201D01*
Y11634D02*
Y12264D01*
X10620Y11673D02*
X10915D01*
X10335Y11653D02*
X10520D01*
X10335Y11634D02*
Y12264D01*
X10768Y11083D02*
X11142D01*
X10394D02*
X10768D01*
X11181Y10758D02*
Y11407D01*
X10768Y11083D02*
Y11634D01*
X9892Y11181D02*
X10354D01*
X9888Y11260D02*
X10354D01*
Y10758D02*
Y11407D01*
X9888Y11102D02*
X10354D01*
X13839Y10945D02*
X16073D01*
X15738Y11024D02*
X16073D01*
X15309Y9833D02*
X16073Y10597D01*
X13839Y10866D02*
X16073D01*
X13837Y10709D02*
X16073D01*
X13839Y10787D02*
X16073D01*
X13831Y10630D02*
X16073D01*
X13820Y10551D02*
X16027D01*
X14925Y6772D02*
X16240D01*
X14937Y6693D02*
X16225D01*
X14937Y6535D02*
X16225D01*
X14941Y6614D02*
X16220D01*
X14788Y7087D02*
X16434D01*
X14838Y7008D02*
X16359D01*
X14877Y6929D02*
X16305D01*
X14906Y6850D02*
X16266D01*
X14931Y10974D02*
X15738D01*
X13839Y11024D02*
X14931D01*
X13803Y10472D02*
X15948D01*
X13780Y10394D02*
X15870D01*
X13750Y10315D02*
X15791D01*
X13714Y10236D02*
X15712D01*
X13670Y10157D02*
X15634D01*
X13618Y10079D02*
X15555D01*
X13555Y10000D02*
X15476D01*
X13480Y9921D02*
X15397D01*
X13383Y9842D02*
X15319D01*
X13369Y9833D02*
X15309D01*
X14906Y6378D02*
X16266D01*
X14925Y6457D02*
X16240D01*
X14838Y6220D02*
X16316D01*
X14877Y6299D02*
X16305D01*
X14609Y3622D02*
X16441D01*
X14530Y3543D02*
X16405D01*
X14451Y3465D02*
X16385D01*
X14373Y3386D02*
X16378D01*
X14215Y3228D02*
X16405D01*
X14294Y3307D02*
X16385D01*
X14136Y3150D02*
X16441D01*
X13789Y630D02*
X16391D01*
X13428Y2441D02*
X16391D01*
X13349Y2362D02*
X16321D01*
X13789Y709D02*
X16321D01*
X13789Y787D02*
X16261D01*
X14788Y6142D02*
X16238D01*
X14723Y6063D02*
X16159D01*
X14638Y5984D02*
X16080D01*
X14520Y5905D02*
X16001D01*
X14311Y5827D02*
X15923D01*
X13789Y246D02*
Y1191D01*
Y1102D02*
X16098D01*
X13789Y1181D02*
X16073D01*
X13789Y945D02*
X16166D01*
X13789Y1024D02*
X16129D01*
X13789Y866D02*
X16209D01*
X13317Y719D02*
X13750D01*
X13317Y285D02*
Y719D01*
Y1152D01*
X13270Y2283D02*
X16261D01*
X13191Y2205D02*
X16209D01*
X13113Y2126D02*
X16166D01*
X13034Y2047D02*
X16129D01*
X12110Y2014D02*
X16340Y6244D01*
X12955Y1968D02*
X16098D01*
X12876Y1890D02*
X16073D01*
X12798Y1811D02*
X16053D01*
X12719Y1732D02*
X16039D01*
X12648Y1654D02*
X16029D01*
X12648Y1575D02*
X16024D01*
X12844Y1191D02*
X13789D01*
X12648Y1417D02*
X16029D01*
X12648Y1496D02*
X16024D01*
X12648Y1260D02*
X16053D01*
X12648Y1339D02*
X16039D01*
X11181Y10945D02*
X12976D01*
X11181Y10866D02*
X12952D01*
X11181Y10787D02*
X12915D01*
X11176Y10709D02*
X12861D01*
X11148Y10630D02*
X12782D01*
X11082Y10551D02*
X12550D01*
X11445Y1181D02*
X12018D01*
X9890Y2047D02*
X12143D01*
X9899Y1968D02*
X12072D01*
X9899Y1890D02*
X12033D01*
X9890Y1811D02*
X12018D01*
X12781Y866D02*
X12844D01*
X12747Y945D02*
X12844D01*
Y246D02*
Y1191D01*
X12800Y787D02*
X12844D01*
X12648Y1102D02*
X12844D01*
X12648Y1181D02*
X12844D01*
X12693Y1024D02*
X12844D01*
X12884Y719D02*
X13317D01*
X12805Y709D02*
X12844D01*
Y246D02*
X13789D01*
X12797Y630D02*
X12844D01*
X12736Y472D02*
X12844D01*
X12774Y551D02*
X12844D01*
X12578Y315D02*
X12844D01*
X12676Y394D02*
X12844D01*
X12648Y1071D02*
Y1661D01*
X12018Y1071D02*
Y1791D01*
X11797Y866D02*
X11884D01*
X11624Y1102D02*
X12018D01*
X11709Y1024D02*
X11972D01*
X11763Y945D02*
X11918D01*
X11816Y787D02*
X11865D01*
X11821Y709D02*
X11860D01*
X11790Y551D02*
X11891D01*
X11812Y630D02*
X11869D01*
X11691Y394D02*
X11990D01*
X11752Y472D02*
X11929D01*
X11594Y315D02*
X12087D01*
X8967Y19370D02*
X18740D01*
X8967Y19291D02*
X17323D01*
X8978Y19055D02*
X17323D01*
X8971Y19134D02*
X17323D01*
X7167Y19606D02*
X18740D01*
X7088Y19685D02*
X18740D01*
X7324Y19449D02*
X18740D01*
X7245Y19527D02*
X18740D01*
X8967Y18346D02*
X17323D01*
X8967Y18425D02*
X17323D01*
X8967Y18189D02*
X18740D01*
X8967Y18268D02*
X18740D01*
X8967Y18661D02*
X17323D01*
X8967Y18819D02*
X17323D01*
X8967Y18504D02*
X17323D01*
X8967Y18583D02*
X17323D01*
X8967Y19213D02*
X17323D01*
X8967Y19149D02*
Y19380D01*
Y18976D02*
X17323D01*
X8376Y19380D02*
X8967D01*
X7401Y19372D02*
X8376D01*
X8967Y18750D02*
Y18981D01*
Y18898D02*
X17323D01*
X8967Y18110D02*
X12106D01*
X8956Y18031D02*
X12106D01*
X8967Y18081D02*
Y18711D01*
X8376Y18750D02*
X8967D01*
X7274Y18758D02*
X8376D01*
Y18711D02*
X8967D01*
X8376Y18081D02*
Y18711D01*
X8985Y17795D02*
X12106D01*
X8985Y17874D02*
X12106D01*
X8985Y17638D02*
X12106D01*
X8985Y17352D02*
Y17943D01*
X8956Y17953D02*
X12106D01*
X8956Y17943D02*
Y18081D01*
X8985Y17716D02*
X12106D01*
X8385Y17943D02*
Y18081D01*
X8985Y17480D02*
X12264D01*
X8985Y17559D02*
X12106D01*
X8985Y17401D02*
X12264D01*
X8887Y17352D02*
X8985D01*
X8887Y17323D02*
X12183D01*
X8355Y17352D02*
X8434D01*
X8887Y17264D02*
Y17352D01*
X8434Y17264D02*
Y17352D01*
X8316Y17716D02*
X8355D01*
X8316Y17874D02*
X8355D01*
Y17352D02*
Y17943D01*
X8316Y17352D02*
Y17943D01*
Y17795D02*
X8355D01*
X7686Y17943D02*
X8316D01*
X8001Y17648D02*
Y17904D01*
X7686Y17352D02*
Y17943D01*
X8316Y17559D02*
X8355D01*
X8316Y17638D02*
X8355D01*
X8316Y17401D02*
X8355D01*
X8316Y17480D02*
X8355D01*
X8001Y17648D02*
X8276D01*
X7725D02*
X8001D01*
X7686Y17352D02*
X8316D01*
X8001Y17392D02*
Y17648D01*
X7073Y19734D02*
X18740D01*
X7073Y19700D02*
Y19734D01*
X7077Y19695D02*
X7401Y19372D01*
X6643Y19261D02*
X7056Y18848D01*
X157Y19055D02*
X6849D01*
X193Y19134D02*
X6771D01*
X157Y18898D02*
X7007D01*
X157Y18976D02*
X6928D01*
X4879Y18425D02*
X8376D01*
X4684Y18504D02*
X8376D01*
X157Y18740D02*
X17323D01*
X157Y18819D02*
X7090D01*
X157Y18583D02*
X8376D01*
X157Y18661D02*
X8376D01*
X5792Y19734D02*
X6050D01*
X5792Y19616D02*
Y19734D01*
X6050Y19616D02*
X6586D01*
X6050D02*
Y19734D01*
X5792Y19685D02*
X6050D01*
X2323Y19734D02*
X5144D01*
Y19616D02*
Y19734D01*
X2315Y19685D02*
X5144D01*
X2260Y19606D02*
X6581D01*
X5144Y19616D02*
X5792D01*
X2181Y19527D02*
X6557D01*
X2024Y19370D02*
X6573D01*
X2103Y19449D02*
X6555D01*
X272Y19213D02*
X6692D01*
X351Y19291D02*
X6617D01*
X5351Y18031D02*
X8385D01*
X5272Y18110D02*
X8376D01*
X5429Y17953D02*
X8385D01*
X5508Y17874D02*
X7686D01*
X5111Y18268D02*
X8376D01*
X5010Y18346D02*
X8376D01*
X5193Y18189D02*
X8376D01*
X5168Y18214D02*
X5944Y17438D01*
X5979Y17401D02*
X7686D01*
X5902Y17480D02*
X7686D01*
X6042Y17323D02*
X8434D01*
X5666Y17716D02*
X7686D01*
X5587Y17795D02*
X7686D01*
X5823Y17559D02*
X7686D01*
X5744Y17638D02*
X7686D01*
X4632Y17874D02*
X5063D01*
X4546Y17953D02*
X4984D01*
X4946Y17991D02*
X5722Y17215D01*
X4627Y17879D02*
X5441Y17065D01*
X4297Y18110D02*
X4796D01*
X4439Y18031D02*
X4902D01*
X4947Y17559D02*
X5378D01*
X4868Y17638D02*
X5299D01*
X5105Y17401D02*
X5535D01*
X5026Y17480D02*
X5457D01*
X4790Y17716D02*
X5220D01*
X4711Y17795D02*
X5142D01*
X4404Y17657D02*
X5020Y17041D01*
X3855Y17323D02*
X4738D01*
X8896Y16850D02*
X12106D01*
X8896Y16929D02*
X12106D01*
X8896Y16693D02*
X11555D01*
X8896Y16772D02*
X11555D01*
X8896Y17244D02*
X12127D01*
X8896Y17165D02*
X12107D01*
X8896Y17008D02*
X12106D01*
X8896Y17087D02*
X12106D01*
X8896Y16535D02*
X11555D01*
X9291Y16319D02*
X9882D01*
Y16299D02*
X10236D01*
X8965Y16299D02*
X9291D01*
X8896Y16457D02*
X11555D01*
X8896Y16614D02*
X11555D01*
X8896Y16378D02*
X11555D01*
X8896Y16354D02*
X8965D01*
X8896Y16811D02*
Y16929D01*
Y17264D01*
Y16703D02*
Y16811D01*
Y16929D01*
X8424Y16811D02*
Y16929D01*
Y17264D01*
Y16703D02*
Y16811D01*
Y16929D01*
X8896Y16476D02*
Y16703D01*
X8424Y16476D02*
Y16703D01*
X8896Y16354D02*
Y16476D01*
Y16703D01*
X8424Y16354D02*
Y16476D01*
Y16703D01*
X8335Y16354D02*
X8424D01*
X7666D02*
X8296D01*
X9882Y15827D02*
X10138D01*
X9882Y15827D02*
X10138D01*
X9291Y15709D02*
X9882D01*
X9291Y15807D02*
X9882D01*
X8965Y15823D02*
X9291D01*
X8965Y16295D02*
X9291D01*
X8335Y15764D02*
X8965D01*
Y15823D01*
X9882Y15689D02*
X10029D01*
X9882Y15217D02*
X9931D01*
X9291Y15197D02*
X9882D01*
X9291D02*
Y15709D01*
X6506Y15433D02*
X9291D01*
X6506Y15512D02*
X9291D01*
X6506Y15276D02*
X9291D01*
X6506Y15354D02*
X9291D01*
X8965Y16295D02*
Y16354D01*
X8296Y16142D02*
X8335D01*
Y15764D02*
Y16354D01*
X8296Y15764D02*
Y16354D01*
Y16220D02*
X8335D01*
X8296Y16299D02*
X8335D01*
X7981Y16059D02*
Y16315D01*
X7666Y15764D02*
Y16354D01*
X8296Y15984D02*
X8335D01*
X8296Y16063D02*
X8335D01*
X8296Y15827D02*
X8335D01*
X8296Y15905D02*
X8335D01*
X7981Y16059D02*
X8257D01*
X7706D02*
X7981D01*
X7666Y15764D02*
X8296D01*
X7981Y15803D02*
Y16059D01*
X6217Y16850D02*
X8424D01*
X6207Y16929D02*
X8424D01*
X6218Y16693D02*
X8424D01*
X6220Y16772D02*
X8424D01*
X6134Y17165D02*
X8424D01*
X6093Y17244D02*
X8424D01*
X6190Y17008D02*
X8424D01*
X6166Y17087D02*
X8424D01*
X6196Y16535D02*
X8424D01*
X6210Y16614D02*
X8424D01*
X6400Y16063D02*
X7666D01*
X6348Y16142D02*
X7666D01*
X6151Y16378D02*
X8424D01*
X6177Y16457D02*
X8424D01*
X6080Y16220D02*
X7666D01*
X6119Y16299D02*
X7666D01*
X5341Y17165D02*
X5766D01*
X5262Y17244D02*
X5693D01*
X5183Y17323D02*
X5614D01*
X3933Y17244D02*
X4817D01*
X4012Y17165D02*
X4895D01*
X5420Y17087D02*
X5510D01*
X4903D02*
X4974D01*
X5690D02*
X5821D01*
X4091D02*
X4723D01*
X3213Y16299D02*
X4660D01*
X6506Y15590D02*
X9291D01*
X6499Y15669D02*
X9291D01*
X6506Y15118D02*
X10030D01*
X6506Y15197D02*
X9951D01*
X6424Y15905D02*
X7666D01*
X6417Y15984D02*
X7666D01*
X6484Y15748D02*
X10217D01*
X6459Y15827D02*
X7666D01*
X6506Y14646D02*
X10503D01*
X6506Y14724D02*
X10424D01*
X6506Y14488D02*
X10660D01*
X6506Y14567D02*
X10581D01*
X6506Y14961D02*
X10188D01*
X6506Y15039D02*
X10109D01*
X6506Y14803D02*
X10345D01*
X6506Y14882D02*
X10266D01*
X3708Y15512D02*
X4660D01*
X5600Y15108D02*
X5974D01*
X5986Y14961D02*
X6031D01*
X5933Y14567D02*
X6033D01*
X5946Y14882D02*
X6033D01*
X5754Y14724D02*
X6033D01*
X5879Y14803D02*
X6033D01*
X5856Y14646D02*
X6033D01*
X4068Y18189D02*
X4634D01*
X3272Y17795D02*
X4222D01*
X1891Y17904D02*
X3808D01*
X1891Y18218D02*
X3808D01*
X3017Y17874D02*
X4030D01*
X3618Y17559D02*
X4502D01*
X3530Y17638D02*
X4423D01*
X3776Y17401D02*
X4659D01*
X3697Y17480D02*
X4581D01*
X3420Y17716D02*
X4338D01*
X2784Y17401D02*
X3321D01*
X2834Y17323D02*
X3409D01*
X2372Y17579D02*
X2804D01*
X2372Y17894D02*
X2804D01*
X2001Y19347D02*
X2277Y19623D01*
X2484Y17559D02*
X2986D01*
X2217D02*
X2430D01*
X2702Y17480D02*
X3200D01*
X2038D02*
X2211D01*
X1939Y17401D02*
X2129D01*
X1860Y17323D02*
X2080D01*
X1842Y17304D02*
X1935Y17398D01*
X4182Y17008D02*
X4557D01*
X3623Y17554D02*
X4090Y17088D01*
X3400Y17332D02*
X3867Y16865D01*
X2874Y17165D02*
X3567D01*
X2862Y17244D02*
X3488D01*
X2853Y17008D02*
X3724D01*
X2871Y17087D02*
X3645D01*
X4310Y16929D02*
X4481D01*
X3073Y16693D02*
X4087D01*
X3114Y16614D02*
X4242D01*
X2963Y16850D02*
X3882D01*
X2892Y16929D02*
X3803D01*
X3023Y16772D02*
X3972D01*
X1874Y17165D02*
X2039D01*
X2842Y16979D02*
X2889Y16932D01*
X1862Y17244D02*
X2051D01*
X1853Y17008D02*
X2061D01*
X1871Y17087D02*
X2042D01*
X2166Y16614D02*
X2748D01*
X2619Y16757D02*
X2666Y16709D01*
X1757Y16850D02*
X2157D01*
X1817Y16929D02*
X2097D01*
X2018Y16693D02*
X2682D01*
X1763Y16772D02*
X2262D01*
X1645Y18238D02*
X4350D01*
X1645Y18553D02*
X4350D01*
X361Y19301D02*
X1890D01*
X157Y18504D02*
X1310D01*
X157Y18425D02*
X1115D01*
X1669Y17874D02*
X2181D01*
X1361Y18189D02*
X1630D01*
X1477Y17795D02*
X1955D01*
X1361Y17716D02*
X1825D01*
X1198Y18110D02*
X1402D01*
X1092Y18031D02*
X1260D01*
X1010Y17953D02*
X1153D01*
X157Y18346D02*
X984D01*
X157Y18268D02*
X883D01*
X1025Y17967D02*
X1049Y17991D01*
X802Y18190D02*
X826Y18214D01*
X157Y18189D02*
X801D01*
X157Y19098D02*
X361Y19301D01*
X157Y18110D02*
X729D01*
X157Y18031D02*
X669D01*
X1013Y17820D02*
X1072Y17879D01*
X944Y17874D02*
X1067D01*
X892Y17795D02*
X989D01*
X852Y17716D02*
X924D01*
X157Y17953D02*
X619D01*
X157Y17874D02*
X577D01*
X157Y17795D02*
X543D01*
X157Y17716D02*
X515D01*
X1276Y17638D02*
X1730D01*
X1236Y17598D02*
X1295Y17657D01*
X1619Y17527D02*
X1713Y17621D01*
X821Y17638D02*
X873D01*
X1484Y17559D02*
X1651D01*
X1200D02*
X1430D01*
X1146Y17480D02*
X1211D01*
X799Y17559D02*
X833D01*
X157Y17638D02*
X494D01*
X157Y17559D02*
X478D01*
X463Y16764D02*
Y17371D01*
X157Y15446D02*
Y19098D01*
Y17480D02*
X468D01*
X157Y17401D02*
X463D01*
X157Y17244D02*
X463D01*
X157Y17323D02*
X463D01*
X157Y16772D02*
X463D01*
X157Y16850D02*
X463D01*
X157Y16614D02*
X480D01*
X157Y16693D02*
X466D01*
X157Y17087D02*
X463D01*
X157Y17165D02*
X463D01*
X157Y16929D02*
X463D01*
X157Y17008D02*
X463D01*
X3228Y16142D02*
X4481D01*
X3228Y16063D02*
X4435D01*
X4282Y16053D02*
X4431D01*
X3228Y15837D02*
Y16113D01*
X3176Y16457D02*
X4467D01*
X3149Y16535D02*
X4427D01*
X3223Y16220D02*
X4557D01*
X3198Y16378D02*
X4534D01*
X4282Y15738D02*
X4431D01*
X3948Y15669D02*
X4467D01*
X3307D02*
X3419D01*
X3228Y15984D02*
X3889D01*
X3228Y15905D02*
X3717D01*
X3239Y15827D02*
X3595D01*
X3291Y15748D02*
X3499D01*
X2802Y16378D02*
X2871D01*
X2732Y16457D02*
X2840D01*
X2867Y16220D02*
X2907D01*
X2844Y16299D02*
X2893D01*
X2598Y16535D02*
X2800D01*
X2276D02*
X2316D01*
X1867Y16220D02*
X2046D01*
X2867Y16063D02*
X2913D01*
X2875Y16142D02*
X2913D01*
X2913Y15837D02*
Y16113D01*
X2844Y15984D02*
X2913D01*
X2802Y15905D02*
X2913D01*
X1875Y16142D02*
X2039D01*
X2732Y15827D02*
X2902D01*
X2597Y15748D02*
X2851D01*
X3806Y15590D02*
X4534D01*
X3628Y15433D02*
X4557D01*
X3643Y15266D02*
X4431D01*
X3549Y15354D02*
X4481D01*
X3519Y15323D02*
X3686Y15491D01*
X3468Y15276D02*
X4435D01*
X3309Y14882D02*
X4467D01*
X3643Y14951D02*
X4431D01*
X3068Y14724D02*
X4660D01*
X3166Y14803D02*
X4534D01*
X2984Y14646D02*
X4557D01*
X2878Y14567D02*
X4481D01*
X2725Y14488D02*
X4435D01*
X3296Y15546D02*
X3464Y15714D01*
X3296Y15590D02*
X3340D01*
X2651Y15512D02*
X2888D01*
X2757Y15433D02*
X3010D01*
X2817Y15354D02*
X3000D01*
X1871Y15197D02*
X2042D01*
X1874Y15118D02*
X2036D01*
X2034Y15058D02*
X2036Y15142D01*
X2031Y15027D02*
X2034Y15058D01*
X1844Y16299D02*
X2067D01*
X1802Y16378D02*
X1946D01*
X1867Y16063D02*
X2046D01*
X908D02*
X1008D01*
X1802Y15905D02*
X2112D01*
X1844Y15984D02*
X2069D01*
X1597Y15748D02*
X2316D01*
X1732Y15827D02*
X2182D01*
X915Y15905D02*
X1112D01*
X925Y15984D02*
X1069D01*
X756Y15748D02*
X1316D01*
X873Y15827D02*
X1182D01*
X157Y16378D02*
X587D01*
X157Y16535D02*
X503D01*
X157Y16299D02*
X653D01*
X157Y16457D02*
X538D01*
X157Y16220D02*
X741D01*
X157Y16142D02*
X522D01*
X157Y16063D02*
X470D01*
X157Y15984D02*
X453D01*
X157Y15905D02*
X401D01*
X157Y15827D02*
X339D01*
X157Y15748D02*
X286D01*
X157Y15669D02*
X243D01*
X1651Y15512D02*
X2262D01*
X1757Y15433D02*
X2157D01*
X1817Y15354D02*
X2097D01*
X1457Y15142D02*
Y15520D01*
X559Y15590D02*
X2845D01*
X615Y15669D02*
X2835D01*
X516Y15512D02*
X1262D01*
X1853Y15276D02*
X2061D01*
X1862Y15039D02*
X2032D01*
X1834Y14961D02*
X2017D01*
X1784Y14882D02*
X1902D01*
X1457Y15142D02*
X1835D01*
X1078D02*
X1457D01*
X483Y15433D02*
X1157D01*
X459Y15354D02*
X1097D01*
X443Y15276D02*
X1061D01*
X435Y15197D02*
X1042D01*
X157Y15590D02*
X207D01*
X433Y15118D02*
X1039D01*
X433Y14803D02*
X1211D01*
X433Y14724D02*
X1057D01*
X433Y14646D02*
X894D01*
X433Y14567D02*
X776D01*
X433Y14961D02*
X1080D01*
X433Y15039D02*
X1051D01*
X433Y14882D02*
X1129D01*
X6521Y14016D02*
X10724D01*
X6540Y13937D02*
X10658D01*
X6567Y13858D02*
X10604D01*
X6604Y13779D02*
X10558D01*
X6506Y14331D02*
X11192D01*
X6506Y14409D02*
X10779D01*
X6506Y14173D02*
X10898D01*
X6510Y14094D02*
X10802D01*
X9712Y13071D02*
X10359D01*
X6945Y13386D02*
X10354D01*
X9833Y12283D02*
X11831D01*
X9753Y12992D02*
X10400D01*
X6651Y13701D02*
X10521D01*
X6712Y13622D02*
X10491D01*
X6788Y13543D02*
X10399D01*
X6866Y13464D02*
X10359D01*
X7123Y13228D02*
X10354D01*
X7025Y13307D02*
X10354D01*
X9594Y13150D02*
X10354D01*
X6506Y14174D02*
Y15570D01*
X6753Y13578D02*
X7004Y13327D01*
X9764Y12933D02*
X10335D01*
X7639Y12441D02*
X9351D01*
X9832Y12264D02*
X10335D01*
X9832Y12303D02*
X10335D01*
X7265Y13150D02*
X9461D01*
X7599Y13080D02*
X9351D01*
X7639Y12441D02*
X9351D01*
X9822Y11496D02*
X10370D01*
X9853Y11417D02*
X10355D01*
X9875Y11024D02*
X10354D01*
X9875Y11339D02*
X10354D01*
X9744Y11634D02*
X10335D01*
X9783Y11949D02*
X10039D01*
X9780Y11575D02*
X10414D01*
X9822Y10866D02*
X10354D01*
X9853Y10945D02*
X10354D01*
X9829Y9242D02*
X15532D01*
X9780Y10787D02*
X10354D01*
X9649Y10630D02*
X10387D01*
X9724Y10709D02*
X10359D01*
X9779Y9213D02*
X16887D01*
X9547Y10551D02*
X10453D01*
X9649Y11732D02*
X9744D01*
X9547Y11811D02*
X9744D01*
Y11634D02*
Y12099D01*
X9383Y11890D02*
X9744D01*
X8492Y10630D02*
X8638D01*
X8489Y10709D02*
X8564D01*
X8468Y10551D02*
X8740D01*
X8456Y10787D02*
X8508D01*
X8372Y10866D02*
X8465D01*
X6506Y14252D02*
X11020D01*
X6014Y13622D02*
X6114D01*
X6014Y13543D02*
X6148D01*
X6014Y13386D02*
X6240D01*
X6014Y13464D02*
X6190D01*
X6014Y13228D02*
X6372D01*
X6014Y13307D02*
X6300D01*
X5787Y13071D02*
X6529D01*
X6014Y13150D02*
X6451D01*
X6373Y13227D02*
X6820Y12780D01*
X5778Y12992D02*
X6608D01*
X5704Y12835D02*
X6766D01*
X5752Y12913D02*
X6687D01*
X5513Y12677D02*
X6938D01*
X5625Y12756D02*
X6845D01*
X5986Y14173D02*
X6033D01*
X5978Y14488D02*
X6033D01*
Y14046D02*
Y14891D01*
X5946Y14094D02*
X6033D01*
X5600Y14321D02*
X5974D01*
X5879Y14016D02*
X6034D01*
X6014Y13779D02*
X6065D01*
X6014Y13858D02*
X6049D01*
X6014Y13701D02*
X6086D01*
X6014Y13120D02*
Y13947D01*
X5787Y13120D02*
X6014D01*
X5776Y13947D02*
X6014D01*
X5787Y13076D02*
Y13120D01*
X3938Y12126D02*
X9420D01*
X2772Y11811D02*
X8740D01*
X2813Y9518D02*
X9466D01*
X2829Y11732D02*
X8638D01*
X2669Y12047D02*
X9744D01*
X2653Y12126D02*
X9420D01*
X2694Y11968D02*
X9744D01*
X2727Y11890D02*
X8904D01*
X157Y9134D02*
X16887D01*
X157Y9055D02*
X16815D01*
X157Y8976D02*
X16736D01*
X157Y8898D02*
X16657D01*
X157Y9370D02*
X9456D01*
X157Y9449D02*
X9450D01*
X157Y9213D02*
X9591D01*
X157Y9291D02*
X9493D01*
X5328Y12598D02*
X7056D01*
X3938Y12441D02*
X7639D01*
X3582Y12520D02*
X7219D01*
X2902Y11653D02*
X8564D01*
X2981Y11575D02*
X8508D01*
X3060Y11496D02*
X8465D01*
X3139Y11417D02*
X8434D01*
X3658Y10945D02*
X8434D01*
X3540Y11024D02*
X8412D01*
X3869Y10866D02*
X8143D01*
X4046Y10846D02*
X8114D01*
X3217Y11339D02*
X8412D01*
X3296Y11260D02*
X8400D01*
X3454Y11102D02*
X8400D01*
X3375Y11181D02*
X8396D01*
X5261Y7087D02*
X13479D01*
X5311Y7008D02*
X13429D01*
X5349Y6929D02*
X13391D01*
X5378Y6850D02*
X13362D01*
X4784Y7402D02*
X13956D01*
X4993Y7323D02*
X13748D01*
X5111Y7244D02*
X13629D01*
X5196Y7165D02*
X13544D01*
X5349Y6299D02*
X13391D01*
X5378Y6378D02*
X13362D01*
X5261Y6142D02*
X13480D01*
X5311Y6220D02*
X13429D01*
X5111Y5984D02*
X13629D01*
X5196Y6063D02*
X13544D01*
X4783Y5827D02*
X13957D01*
X4992Y5905D02*
X13748D01*
X5413Y6614D02*
X13327D01*
X9160Y2677D02*
X12773D01*
X9486Y2598D02*
X12694D01*
X9611Y2520D02*
X12616D01*
X5398Y6772D02*
X13342D01*
X5410Y6693D02*
X13331D01*
X5398Y6457D02*
X13342D01*
X5410Y6535D02*
X13331D01*
X9697Y2441D02*
X12537D01*
X9762Y2362D02*
X12458D01*
X9811Y2283D02*
X12379D01*
X2688Y2205D02*
X8456D01*
X2423Y2520D02*
X8693D01*
X2507Y2441D02*
X8606D01*
X2577Y2362D02*
X8542D01*
X2637Y2283D02*
X8493D01*
X9847Y2205D02*
X12301D01*
X9873Y2126D02*
X12222D01*
X9847Y1654D02*
X12018D01*
X9873Y1732D02*
X12018D01*
X9762Y1496D02*
X12018D01*
X9811Y1575D02*
X12018D01*
X9611Y1339D02*
X12018D01*
X9697Y1417D02*
X12018D01*
X9486Y1260D02*
X12018D01*
X2825Y1181D02*
X11252D01*
X2800Y1102D02*
X11073D01*
X2769Y1024D02*
X10988D01*
X2732Y945D02*
X10934D01*
X2688Y866D02*
X10900D01*
X2423Y551D02*
X10907D01*
X2506Y630D02*
X10884D01*
X2859Y1732D02*
X8430D01*
X2844Y1811D02*
X8413D01*
X2732Y2126D02*
X8430D01*
X2769Y2047D02*
X8413D01*
X2825Y1890D02*
X8405D01*
X2800Y1968D02*
X8405D01*
X2873Y1575D02*
X8493D01*
X2869Y1654D02*
X8456D01*
X2869Y1417D02*
X8606D01*
X2873Y1496D02*
X8542D01*
X2844Y1260D02*
X8818D01*
X2859Y1339D02*
X8693D01*
X2637Y787D02*
X10881D01*
X2577Y709D02*
X10876D01*
X2343Y8425D02*
X16575D01*
X2343Y8504D02*
X16575D01*
X2343Y8268D02*
X16575D01*
X2343Y8346D02*
X16575D01*
X2343Y8819D02*
X16601D01*
X2343Y8740D02*
X16578D01*
X2343Y8583D02*
X16575D01*
X2343Y8661D02*
X16575D01*
X2343Y8110D02*
X16575D01*
X2343Y8189D02*
X16575D01*
X2343Y7953D02*
X16575D01*
X2343Y8031D02*
X16575D01*
X2343Y7795D02*
X16575D01*
X2343Y7874D02*
X16575D01*
X157Y7638D02*
X16575D01*
X157Y7716D02*
X16575D01*
X157Y5591D02*
X15686D01*
X157Y5512D02*
X15608D01*
X157Y5433D02*
X15529D01*
X157Y5354D02*
X15450D01*
X157Y7480D02*
X16575D01*
X157Y7559D02*
X16575D01*
X157Y5748D02*
X15844D01*
X157Y5669D02*
X15765D01*
X157Y4961D02*
X15057D01*
X157Y4882D02*
X14978D01*
X157Y4803D02*
X14899D01*
X157Y4724D02*
X14820D01*
X157Y5276D02*
X15371D01*
X157Y5197D02*
X15293D01*
X157Y5118D02*
X15214D01*
X157Y5039D02*
X15135D01*
X157Y4331D02*
X14427D01*
X157Y4252D02*
X14348D01*
X157Y4173D02*
X14269D01*
X157Y4094D02*
X14190D01*
X157Y4646D02*
X14742D01*
X157Y4567D02*
X14663D01*
X157Y4488D02*
X14584D01*
X157Y4409D02*
X14505D01*
X157Y3701D02*
X13797D01*
X157Y3622D02*
X13718D01*
X157Y157D02*
X18740D01*
X157Y236D02*
X18740D01*
X157Y4016D02*
X14112D01*
X157Y3937D02*
X14033D01*
X157Y3858D02*
X13954D01*
X157Y3779D02*
X13875D01*
X157Y3228D02*
X13324D01*
X157Y3150D02*
X13245D01*
X157Y3071D02*
X13167D01*
X157Y2992D02*
X13088D01*
X157Y3543D02*
X13639D01*
X157Y3465D02*
X13560D01*
X157Y3386D02*
X13482D01*
X157Y3307D02*
X13403D01*
X2195Y2677D02*
X9144D01*
X2322Y2598D02*
X8818D01*
X2195Y394D02*
X11005D01*
X2322Y472D02*
X10945D01*
X157Y2913D02*
X13009D01*
X1586Y2835D02*
X12931D01*
X2020Y2756D02*
X12852D01*
X2020Y315D02*
X11103D01*
X5187Y13120D02*
Y13357D01*
X2821Y13937D02*
X4660D01*
X2855Y14016D02*
X4534D01*
X2764Y13858D02*
X4557D01*
X4966Y13150D02*
X5187D01*
X5092Y13228D02*
X5187D01*
X5413Y13076D02*
Y13120D01*
X5187D02*
X5413D01*
X3534Y13150D02*
X4660D01*
X3415Y13228D02*
X4534D01*
X3621Y13071D02*
X5413D01*
X3737Y12992D02*
X5310D01*
X3050Y14163D02*
X4431D01*
X3050Y14478D02*
X4431D01*
X2872Y14094D02*
X4467D01*
X2875Y13386D02*
X4427D01*
X2875Y13329D02*
X3018D01*
X3207Y13307D02*
X4467D01*
X2666Y13780D02*
X4481D01*
X2875Y13465D02*
X4405D01*
X2875Y13464D02*
X4405D01*
X2875Y13329D02*
Y13465D01*
X3950Y12943D02*
X5114D01*
X3286Y12835D02*
X3327D01*
X3306Y12756D02*
X3415D01*
X3307Y12723D02*
X3342Y12688D01*
X3447Y12598D02*
X3727D01*
X3353Y12677D02*
X3532D01*
X3950Y12569D02*
X5114D01*
X2645Y12205D02*
X3518D01*
X2644Y12283D02*
X3355D01*
X2882Y11674D02*
X3471Y11085D01*
X2644Y12724D02*
X2835D01*
X2644Y12249D02*
Y12724D01*
Y12598D02*
X2879D01*
X2644Y12677D02*
X2842D01*
X2644Y12520D02*
X2977D01*
X2270Y12249D02*
Y12724D01*
X2644Y12441D02*
X3144D01*
X3084Y12500D02*
X3119Y12465D01*
X2644Y12362D02*
X3237D01*
X2368Y11653D02*
X2430D01*
X2290Y11732D02*
X2388D01*
X2447Y11575D02*
X2480D01*
X987Y14331D02*
X1084D01*
X1036Y14096D02*
X1036Y14139D01*
X1032Y14022D02*
X1036Y14096D01*
X892Y14252D02*
X1053D01*
X814Y14173D02*
X1040D01*
X1995Y13386D02*
X2039D01*
X851Y13759D02*
X996Y13904D01*
X1861Y13307D02*
X2039D01*
X750Y14094D02*
X1036D01*
X699Y14016D02*
X1031D01*
X660Y13937D02*
X1015D01*
X631Y13858D02*
X950D01*
X433Y14488D02*
X683D01*
X615Y14420D02*
X659Y14464D01*
X838Y14197D02*
X881Y14241D01*
X433Y14184D02*
Y15147D01*
Y14409D02*
X604D01*
X433Y14331D02*
X534D01*
X433Y14252D02*
X476D01*
X610Y13779D02*
X872D01*
X596Y13701D02*
X797D01*
X591Y13622D02*
X734D01*
X591Y13464D02*
X637D01*
X591Y13543D02*
X681D01*
X591Y13360D02*
Y13602D01*
X1740Y12835D02*
X2039D01*
X1807Y12913D02*
X2039D01*
X1712Y12362D02*
X2270D01*
X2039Y12724D02*
X2270D01*
X1629Y12598D02*
X2270D01*
X1618Y12677D02*
X2270D01*
X1676Y12441D02*
X2270D01*
X1648Y12520D02*
X2270D01*
X2053Y11968D02*
X2303D01*
X1975Y12047D02*
X2287D01*
X2211Y11811D02*
X2353D01*
X2132Y11890D02*
X2325D01*
X1820Y12205D02*
X2271D01*
X1760Y12283D02*
X2270D01*
X1861Y12161D02*
X3224Y10798D01*
X1896Y12126D02*
X2276D01*
X1875Y13150D02*
X2039D01*
X1866Y13228D02*
X2039D01*
Y12724D02*
Y13404D01*
X1869Y13071D02*
X2039D01*
X1847Y12992D02*
X2039D01*
X1618Y12756D02*
X2039D01*
X157Y11811D02*
X190D01*
X157Y157D02*
Y11914D01*
Y11653D02*
X262D01*
X157Y11732D02*
X223D01*
X157Y11496D02*
X367D01*
X157Y11575D02*
X310D01*
X2617Y11410D02*
X3207Y10820D01*
X157Y9842D02*
X2009D01*
X457Y11394D02*
X1995Y9857D01*
X157Y9764D02*
X2100D01*
X157Y9606D02*
X2369D01*
X157Y9685D02*
X2214D01*
X157Y9528D02*
X2663D01*
X1299Y8819D02*
X2343Y8819D01*
X157Y8031D02*
X1299D01*
X157Y8110D02*
X1299D01*
X157Y7874D02*
X1299D01*
X157Y7953D02*
X1299D01*
X157Y10787D02*
X1064D01*
X157Y10866D02*
X986D01*
X157Y8819D02*
X1299D01*
X157Y10709D02*
X1143D01*
X157Y11260D02*
X592D01*
X157Y11417D02*
X435D01*
X157Y10945D02*
X907D01*
X157Y11181D02*
X671D01*
X157Y8346D02*
X1299D01*
X157Y8425D02*
X1299D01*
X157Y8189D02*
X1299D01*
X157Y8268D02*
X1299D01*
X157Y8661D02*
X1299D01*
X157Y8740D02*
X1299D01*
X157Y8504D02*
X1299D01*
X157Y8583D02*
X1299D01*
X2435Y6929D02*
X3863D01*
X2474Y6850D02*
X3835D01*
X1898Y7244D02*
X4102D01*
X2195Y7165D02*
X4017D01*
X2306Y7087D02*
X3952D01*
X2382Y7008D02*
X3902D01*
X2500Y6772D02*
X3815D01*
X2515Y6535D02*
X3803D01*
X2474Y6378D02*
X3835D01*
X2500Y6457D02*
X3815D01*
X2381Y6220D02*
X3902D01*
X2435Y6299D02*
X3863D01*
X2195Y6063D02*
X4017D01*
X2306Y6142D02*
X3952D01*
X2515Y6693D02*
X3803D01*
X2343Y8819D02*
X2343Y7766D01*
X1890Y6614D02*
X2480D01*
X1890D02*
Y7205D01*
X1299Y7766D02*
X2343Y7766D01*
X157Y7795D02*
X1299D01*
X1299Y8819D02*
X1299Y7766D01*
X2520Y6614D02*
X3799D01*
X1299Y6614D02*
X1890D01*
Y6024D02*
Y6614D01*
X157Y551D02*
X727D01*
X157Y1496D02*
X276D01*
X157Y315D02*
X1129D01*
X157Y472D02*
X828D01*
X157Y10000D02*
X1852D01*
X157Y10079D02*
X1773D01*
X157Y7402D02*
X4429D01*
X157Y9921D02*
X1930D01*
X157Y10315D02*
X1537D01*
X157Y10394D02*
X1458D01*
X157Y10157D02*
X1694D01*
X157Y10236D02*
X1616D01*
X157Y6142D02*
X1473D01*
X157Y6220D02*
X1398D01*
X157Y5984D02*
X4102D01*
X157Y6063D02*
X1585D01*
X157Y7323D02*
X4220D01*
X157Y7244D02*
X1882D01*
X157Y7165D02*
X1585D01*
X157Y7087D02*
X1473D01*
X157Y10472D02*
X1379D01*
X157Y10551D02*
X1301D01*
X157Y7008D02*
X1398D01*
X157Y6929D02*
X1344D01*
X157Y11102D02*
X749D01*
X157Y11339D02*
X513D01*
X157Y10630D02*
X1222D01*
X157Y11024D02*
X828D01*
X157Y6457D02*
X1280D01*
X157Y6535D02*
X1265D01*
X157Y6299D02*
X1344D01*
X157Y6378D02*
X1306D01*
X157Y6850D02*
X1306D01*
X157Y6772D02*
X1280D01*
X157Y6693D02*
X1265D01*
X157Y6614D02*
X1260D01*
X157Y2677D02*
X955D01*
X157Y2598D02*
X828D01*
X157Y2520D02*
X727D01*
X157Y2441D02*
X643D01*
X157Y5827D02*
X4429D01*
X157Y5905D02*
X4220D01*
X157Y2835D02*
X1564D01*
X157Y2756D02*
X1129D01*
X157Y709D02*
X573D01*
X157Y787D02*
X513D01*
X157Y394D02*
X955D01*
X157Y630D02*
X643D01*
X157Y2362D02*
X573D01*
X157Y2283D02*
X513D01*
X157Y866D02*
X461D01*
X157Y2205D02*
X461D01*
X157Y1811D02*
X305D01*
X157Y1732D02*
X291D01*
X157Y1654D02*
X281D01*
X157Y1575D02*
X276D01*
X157Y2126D02*
X418D01*
X157Y2047D02*
X381D01*
X157Y1968D02*
X350D01*
X157Y1890D02*
X325D01*
X157Y1102D02*
X350D01*
X157Y1181D02*
X325D01*
X157Y945D02*
X418D01*
X157Y1024D02*
X381D01*
X157Y1339D02*
X291D01*
X157Y1417D02*
X281D01*
X157Y1260D02*
X305D01*
X14551Y13780D02*
X14783D01*
X14285Y15197D02*
X14547D01*
X13907Y13652D02*
X14242D01*
X13209Y15472D02*
X13619D01*
X13032Y15118D02*
Y15281D01*
X12395Y12670D02*
X12480Y12756D01*
X3071Y15661D02*
Y16113D01*
X2457Y17142D02*
X2778Y16820D01*
X3071Y12736D02*
X3231Y12576D01*
X3938Y12283D02*
X9596D01*
X11496Y13168D02*
X11593Y13071D01*
X6484Y13339D02*
X6932Y12891D01*
X7639Y12598D02*
X9528D01*
X1645Y18396D02*
X4350D01*
X5057Y18103D02*
X5833Y17326D01*
X913Y18078D02*
X937Y18103D01*
X620Y16764D02*
Y17371D01*
X1409Y16142D02*
X1457D01*
X5600Y15896D02*
X5898Y15598D01*
X6191Y14046D02*
Y14891D01*
X5600Y15896D02*
X5771Y16066D01*
X6348Y14174D02*
Y15570D01*
X6641Y13467D02*
X6892Y13216D01*
X7599Y12923D02*
X9528D01*
X1891Y18061D02*
X3808D01*
X4515Y17768D02*
X5600Y16683D01*
X1420Y16634D02*
X1550D01*
X1124Y17709D02*
X1183Y17768D01*
X2257Y16341D02*
X2457Y16142D01*
X13228Y12708D02*
Y13169D01*
X3050Y14321D02*
X4813D01*
X13307Y10875D02*
Y12518D01*
X3495Y10217D02*
X12621D01*
X2343Y14028D02*
X2457Y14142D01*
X2305Y13990D02*
X2343Y14028D01*
X2259Y13944D02*
X2305Y13990D01*
X1364Y13652D02*
X1552D01*
X1198Y12099D02*
X2788Y10509D01*
X906Y12806D02*
Y13068D01*
X4282Y15896D02*
X4813D01*
X13622Y12736D02*
Y13169D01*
X3407Y15435D02*
X3575Y15603D01*
X13681Y10759D02*
Y12594D01*
X2924Y9843D02*
X12884D01*
X2457Y15142D02*
X2700D01*
X2254Y14939D02*
X2457Y15142D01*
X1477Y14646D02*
X1546D01*
X726Y11626D02*
X2217Y10135D01*
X726Y14309D02*
X770Y14353D01*
X433Y12334D02*
Y13602D01*
X13425Y12733D02*
Y13169D01*
X3643Y15108D02*
X4813D01*
X2927Y14806D02*
X2935Y14815D01*
X13504Y10769D02*
Y12543D01*
X3219Y10030D02*
X12697D01*
X2306Y14577D02*
X2372D01*
X1457Y14142D02*
X1599Y14284D01*
X962Y11872D02*
X2512Y10322D01*
X962Y13647D02*
X1457Y14142D01*
X669Y12580D02*
Y12940D01*
X13032Y12710D02*
Y13169D01*
X13150Y11080D02*
Y12425D01*
X2351Y13622D02*
X4599D01*
X1457Y13142D02*
X1644Y13329D01*
X1457Y12757D02*
Y13142D01*
X3820Y10394D02*
X12550D01*
X1750Y12050D02*
X3113Y10687D01*
X13333Y15827D02*
X13642D01*
X11850Y15787D02*
X11936D01*
X12835Y15118D02*
Y15384D01*
X12244Y15118D02*
Y15424D01*
X12756Y12244D02*
Y12503D01*
X12421Y17340D02*
Y17834D01*
X12441Y15118D02*
Y16342D01*
X14213Y16817D02*
X14215Y16819D01*
X14118Y16817D02*
X14213D01*
X12931Y16044D02*
X13411Y16524D01*
X12638Y15118D02*
Y15337D01*
X14528Y12776D02*
Y13061D01*
X13907Y13455D02*
X14148D01*
X3511Y17443D02*
X3979Y16976D01*
X2372Y17736D02*
X2804D01*
X4686Y16683D02*
X4813D01*
X1457Y17142D02*
X1824Y17509D01*
X2813Y9675D02*
X15374D01*
X568Y11506D02*
X2106Y9968D01*
X568Y15854D02*
X689Y15974D01*
X276Y12213D02*
Y15147D01*
X11585Y14242D02*
X11959D01*
X10869Y13940D02*
X10878Y13949D01*
X10591Y12985D02*
Y13268D01*
X10039Y12618D02*
X10084D01*
X11744Y14045D02*
X11959D01*
X11301Y12618D02*
X11496D01*
X10945Y13268D02*
Y13399D01*
Y13002D02*
Y13268D01*
X11467Y14833D02*
X11959D01*
X11240Y15059D02*
X11467Y14833D01*
X17165Y14400D02*
X17430D01*
X17589Y14241D01*
Y12274D02*
Y14241D01*
X16230Y10532D02*
Y11585D01*
X15374Y9675D02*
X16230Y10532D01*
X17165Y14715D02*
Y15073D01*
Y14400D02*
Y14715D01*
X16860D02*
X17165D01*
X16850Y14705D02*
X16860Y14715D01*
X11024Y14636D02*
X11959D01*
X11437Y13236D02*
X11496Y13177D01*
Y13168D02*
Y13177D01*
X11437Y13236D02*
Y13498D01*
X11591Y13652D01*
X11683Y13390D02*
X11748Y13455D01*
X11683Y13297D02*
Y13390D01*
Y13297D02*
X11909Y13071D01*
X11748Y13455D02*
X11959D01*
X11575Y13071D02*
X11593D01*
X11591Y13652D02*
X11959D01*
X11260Y13071D02*
X11260Y13071D01*
X11260Y13071D02*
Y13543D01*
X11565Y13848D01*
X11959D01*
X12835Y12693D02*
Y13169D01*
X12638Y13136D02*
Y13169D01*
X14508Y17526D02*
Y17835D01*
X14291Y14016D02*
Y14291D01*
X14124Y13848D02*
X14291Y14016D01*
X14291Y14291D02*
X14291Y14291D01*
X14213Y14291D02*
X14291D01*
X13907Y13848D02*
X14124D01*
D17*
X14764Y14541D02*
G03*
X14606Y14921I-538J0D01*
G01*
X14764Y13827D02*
G03*
X14783Y13780I67J0D01*
G01*
X14547Y15064D02*
G03*
X14606Y14921I202J0D01*
G01*
X14764Y14488D02*
Y14541D01*
Y13827D02*
Y14488D01*
X14547Y15064D02*
Y15197D01*
X14783Y13465D02*
Y13780D01*
X15197Y13228D02*
X17165D01*
X15020D02*
X15197D01*
X15187Y13218D02*
X15197Y13228D01*
X15187Y12815D02*
Y13218D01*
X14803Y16220D02*
X15699D01*
X16555Y15364D01*
Y13652D02*
Y15364D01*
X15335Y12028D02*
X16250D01*
X16565Y12343D01*
Y12835D01*
X16555Y13652D02*
X16565Y13642D01*
X14783Y13465D02*
X15020Y13228D01*
X14528Y12028D02*
X15335D01*
X17165Y13228D02*
Y13790D01*
X17165Y11932D02*
X17165Y11932D01*
Y12618D01*
D18*
X16850Y6309D02*
Y6614D01*
X12333Y1791D02*
X16850Y6309D01*
X12333Y719D02*
Y1791D01*
D20*
X12244Y15118D02*
D03*
X12441D02*
D03*
X12638D02*
D03*
X12835D02*
D03*
X13032D02*
D03*
X13228D02*
D03*
X13425D02*
D03*
X13622D02*
D03*
Y13169D02*
D03*
X13425D02*
D03*
X13228D02*
D03*
X13032D02*
D03*
X12835D02*
D03*
X12638D02*
D03*
X12441D02*
D03*
X12244D02*
D03*
D21*
X13907Y14833D02*
D03*
Y14636D02*
D03*
Y14439D02*
D03*
Y14242D02*
D03*
Y14045D02*
D03*
Y13848D02*
D03*
Y13652D02*
D03*
Y13455D02*
D03*
X11959D02*
D03*
Y13652D02*
D03*
Y13848D02*
D03*
Y14045D02*
D03*
Y14242D02*
D03*
Y14439D02*
D03*
Y14636D02*
D03*
Y14833D02*
D03*
D22*
X12933Y14144D02*
D03*
D23*
X10591Y13268D02*
D03*
X10945D02*
D03*
D24*
X10768Y11083D02*
D03*
D25*
X14213Y16817D02*
D03*
X12638D02*
D03*
D26*
X8660Y17037D02*
D03*
Y16703D02*
D03*
D27*
X17163Y11768D02*
D03*
Y10968D02*
D03*
D53*
X5541Y12933D02*
G03*
X5600Y13076I-143J143D01*
G01*
X5114Y12756D02*
G03*
X5541Y12933I0J605D01*
G01*
X3474Y12953D02*
G03*
X3018Y13142I-456J-456D01*
G01*
X3339Y10952D02*
G03*
X4046Y10659I707J707D01*
G01*
X3474Y12953D02*
G03*
X3950Y12756I475J475D01*
G01*
X2457Y12249D02*
G03*
X2750Y11542I1000J0D01*
G01*
X3950Y12756D02*
X5114D01*
X2457Y13142D02*
X3018D01*
X4046Y10659D02*
X8258D01*
X2457Y12249D02*
Y13142D01*
X2750Y11542D02*
X3339Y10952D01*
X16788Y11768D02*
X17163D01*
X16565Y11545D02*
X16788Y11768D01*
X16565Y10463D02*
Y11545D01*
X15532Y9429D02*
X16565Y10463D01*
X9685Y9429D02*
X15532D01*
X17880Y11768D02*
X17884Y11772D01*
X17163Y11768D02*
X17880D01*
X5600Y13076D02*
Y13533D01*
D54*
X6374Y19833D02*
D03*
X5468D02*
D03*
D55*
X6860Y19981D02*
D03*
D56*
X7981Y16059D02*
D03*
X8650D02*
D03*
X14783Y13780D02*
D03*
X15453D02*
D03*
X14547Y15197D02*
D03*
X15217D02*
D03*
X14311Y15827D02*
D03*
X13642D02*
D03*
X13091Y17834D02*
D03*
X12421D02*
D03*
X13839Y17835D02*
D03*
X14508D02*
D03*
X8670Y17648D02*
D03*
X8001D02*
D03*
D57*
X9587Y15453D02*
D03*
Y16063D02*
D03*
X17165Y14400D02*
D03*
Y13790D02*
D03*
Y13228D02*
D03*
Y12618D02*
D03*
D58*
X11850Y16457D02*
D03*
Y15787D02*
D03*
X17165Y15073D02*
D03*
Y15742D02*
D03*
X10039Y11949D02*
D03*
Y12618D02*
D03*
X11496Y11949D02*
D03*
Y12618D02*
D03*
X12756Y11575D02*
D03*
Y12244D02*
D03*
X12126Y12559D02*
D03*
Y11890D02*
D03*
X17884Y11772D02*
D03*
Y11102D02*
D03*
X8671Y19065D02*
D03*
Y18396D02*
D03*
D59*
X14764Y14488D02*
D03*
X15472D02*
D03*
D60*
X14528Y12028D02*
D03*
Y12776D02*
D03*
D61*
X15335Y12028D02*
D03*
Y11319D02*
D03*
D62*
X1821Y8297D02*
D03*
X17844Y18839D02*
D03*
D63*
X8650Y16059D02*
X8660Y16069D01*
Y16703D01*
X8650Y16059D02*
X9583D01*
X9587Y16063D01*
Y15453D02*
X10029D01*
X10846Y14636D01*
X11024D01*
X9587Y16063D02*
X10236D01*
X11240Y15059D01*
D64*
X6860Y19478D02*
Y19981D01*
D65*
Y19478D02*
X7274Y19065D01*
X8671D01*
D66*
X8670Y18394D02*
X8671Y18396D01*
X8670Y17648D02*
Y18394D01*
D67*
X8660Y17638D02*
X8670Y17648D01*
X8660Y17037D02*
Y17638D01*
D68*
X16850Y6614D02*
Y8701D01*
X17163Y9013D01*
Y10968D01*
D69*
X5743Y19677D02*
D03*
D70*
X17323Y21220D02*
D03*
Y1535D02*
D03*
X1575D02*
D03*
D71*
X12333Y719D02*
D03*
X11348D02*
D03*
X16850Y3386D02*
D03*
D72*
X13317Y719D02*
D03*
D73*
X2457Y14142D02*
D03*
Y17142D02*
D03*
Y16142D02*
D03*
X1457Y14142D02*
D03*
Y13142D02*
D03*
Y17142D02*
D03*
Y16142D02*
D03*
X2457Y15142D02*
D03*
X1457D02*
D03*
D74*
X2457Y13142D02*
D03*
D75*
X9152Y1929D02*
D03*
X9144Y11181D02*
D03*
D76*
X4813Y16683D02*
D03*
Y15896D02*
D03*
Y15108D02*
D03*
Y14321D02*
D03*
Y13533D02*
D03*
X5600Y16683D02*
D03*
Y15896D02*
D03*
Y15108D02*
D03*
Y14321D02*
D03*
D77*
Y13533D02*
D03*
D78*
X16850Y6614D02*
D03*
X1890D02*
D03*
D79*
X14134D02*
D03*
X4606D02*
D03*
D80*
X4144Y19085D02*
D03*
X2047Y19026D02*
D03*
X16732Y18346D02*
D03*
X15098Y18888D02*
D03*
X11841Y16968D02*
D03*
X10891Y17254D02*
D03*
X10325Y18947D02*
D03*
X6850Y16831D02*
D03*
X5640Y18524D02*
D03*
X8868Y14528D02*
D03*
X8366Y13553D02*
D03*
X7303Y14902D02*
D03*
X10177Y13356D02*
D03*
X10236Y13779D02*
D03*
X10443Y14061D02*
D03*
X10472Y11959D02*
D03*
X11043Y11939D02*
D03*
X18325Y11102D02*
D03*
X17894Y10591D02*
D03*
X15876Y11309D02*
D03*
X15325Y10837D02*
D03*
X16008Y12362D02*
D03*
X17618Y15742D02*
D03*
X17155Y16220D02*
D03*
X16023Y14758D02*
D03*
X15709Y15207D02*
D03*
X9085Y19380D02*
D03*
X7362Y19636D02*
D03*
X7667D02*
D03*
X9075Y19134D02*
D03*
X9065Y18868D02*
D03*
Y18583D02*
D03*
Y18248D02*
D03*
X9085Y17923D02*
D03*
Y17621D02*
D03*
X9055Y17303D02*
D03*
X9006Y17018D02*
D03*
X9026Y16722D02*
D03*
X9055Y16412D02*
D03*
X9370Y16417D02*
D03*
X9665Y16407D02*
D03*
X10020Y16388D02*
D03*
X10315Y16368D02*
D03*
X10551Y16211D02*
D03*
X10767Y15985D02*
D03*
X10974Y15778D02*
D03*
X11211Y15558D02*
D03*
X11644Y15098D02*
D03*
X10856Y14311D02*
D03*
X10541Y14353D02*
D03*
X10335Y14636D02*
D03*
X10089Y14862D02*
D03*
X9823Y15073D02*
D03*
X9508Y15064D02*
D03*
X9134Y15098D02*
D03*
X9085Y15384D02*
D03*
X9045Y15699D02*
D03*
X8740Y15630D02*
D03*
X8419Y15598D02*
D03*
X8071Y15603D02*
D03*
X7686Y15620D02*
D03*
X7490Y15866D02*
D03*
Y16195D02*
D03*
X7707Y16437D02*
D03*
X8022D02*
D03*
X8316Y16457D02*
D03*
Y16713D02*
D03*
X8337Y16968D02*
D03*
X8327Y17264D02*
D03*
X8002Y17254D02*
D03*
X7706Y17264D02*
D03*
X7539Y17490D02*
D03*
X7510Y17795D02*
D03*
X7608Y18051D02*
D03*
X7953Y18103D02*
D03*
X8257Y18100D02*
D03*
X8248Y18366D02*
D03*
X8189Y18642D02*
D03*
X7874D02*
D03*
X7579D02*
D03*
X7244Y18661D02*
D03*
X6949Y18780D02*
D03*
X6693Y19006D02*
D03*
X6467Y19232D02*
D03*
X2490Y19616D02*
D03*
X6152D02*
D03*
X5866D02*
D03*
X5591D02*
D03*
X4459D02*
D03*
X4734D02*
D03*
X5020D02*
D03*
X5305D02*
D03*
X3327D02*
D03*
X3602D02*
D03*
X3888D02*
D03*
X4173D02*
D03*
X3041D02*
D03*
X2766D02*
D03*
X6437D02*
D03*
X8799Y19636D02*
D03*
X8514D02*
D03*
X8228D02*
D03*
X7953D02*
D03*
X9931D02*
D03*
X9646D02*
D03*
X9360D02*
D03*
X9085D02*
D03*
X10217D02*
D03*
X10492D02*
D03*
X11624D02*
D03*
X11339D02*
D03*
X11053D02*
D03*
X10778D02*
D03*
X12756D02*
D03*
X12470D02*
D03*
X12185D02*
D03*
X11909D02*
D03*
X13041D02*
D03*
X15187Y12815D02*
D03*
X17589Y12274D02*
D03*
X16230Y11585D02*
D03*
X16565Y12835D02*
D03*
Y13642D02*
D03*
X16850Y14705D02*
D03*
X778Y13937D02*
D03*
X2008Y12431D02*
D03*
X494Y18809D02*
D03*
X6529Y12756D02*
D03*
X7313Y11909D02*
D03*
X5945Y11201D02*
D03*
X4203Y11772D02*
D03*
X3979Y13278D02*
D03*
X3898Y13949D02*
D03*
X4902Y17904D02*
D03*
X4193Y17443D02*
D03*
X3967Y14744D02*
D03*
X4173Y15502D02*
D03*
X4094Y16289D02*
D03*
X3425Y16880D02*
D03*
X3071Y15661D02*
D03*
Y12736D02*
D03*
X9596Y12283D02*
D03*
X6181Y15974D02*
D03*
X9685Y9429D02*
D03*
X8258Y10659D02*
D03*
X689Y15974D02*
D03*
X12746Y11132D02*
D03*
X12126Y11467D02*
D03*
X11496Y11506D02*
D03*
X10039Y11535D02*
D03*
X15207Y15610D02*
D03*
X14754Y15807D02*
D03*
X13839Y18238D02*
D03*
X13081Y18248D02*
D03*
X12972Y17470D02*
D03*
X13839D02*
D03*
X13411Y17421D02*
D03*
X13563Y17057D02*
D03*
X13302Y16821D02*
D03*
X12441Y13671D02*
D03*
X13425D02*
D03*
Y14616D02*
D03*
X12441D02*
D03*
X12933Y14144D02*
D03*
X11939Y15285D02*
D03*
X11417Y15354D02*
D03*
X18130Y19636D02*
D03*
X18406D02*
D03*
X16998D02*
D03*
X17274D02*
D03*
X17559D02*
D03*
X17844D02*
D03*
X15866D02*
D03*
X16142D02*
D03*
X16427D02*
D03*
X16713D02*
D03*
X14734D02*
D03*
X15010D02*
D03*
X15295D02*
D03*
X15581D02*
D03*
X13602D02*
D03*
X13878D02*
D03*
X14163D02*
D03*
X14449D02*
D03*
X13317D02*
D03*
X12540Y12805D02*
D03*
X11909Y13071D02*
D03*
X11575D02*
D03*
X11260D02*
D03*
X9528Y12598D02*
D03*
Y12923D02*
D03*
X14803Y16220D02*
D03*
X13150Y15787D02*
D03*
X12205Y15551D02*
D03*
X14291Y14291D02*
D03*
M02*
