G04*
G04 #@! TF.GenerationSoftware,Altium Limited,Altium Designer,18.1.7 (191)*
G04*
G04 Layer_Color=8421504*
%FSLAX24Y24*%
%MOIN*%
G70*
G01*
G75*
%ADD20O,0.0110X0.0335*%
%ADD21O,0.0335X0.0110*%
%ADD22R,0.1358X0.1358*%
G04:AMPARAMS|DCode=23|XSize=43.3mil|YSize=23.6mil|CornerRadius=5.9mil|HoleSize=0mil|Usage=FLASHONLY|Rotation=270.000|XOffset=0mil|YOffset=0mil|HoleType=Round|Shape=RoundedRectangle|*
%AMROUNDEDRECTD23*
21,1,0.0433,0.0118,0,0,270.0*
21,1,0.0315,0.0236,0,0,270.0*
1,1,0.0118,-0.0059,-0.0157*
1,1,0.0118,-0.0059,0.0157*
1,1,0.0118,0.0059,0.0157*
1,1,0.0118,0.0059,-0.0157*
%
%ADD23ROUNDEDRECTD23*%
G04:AMPARAMS|DCode=24|XSize=94.5mil|YSize=59.1mil|CornerRadius=14.8mil|HoleSize=0mil|Usage=FLASHONLY|Rotation=270.000|XOffset=0mil|YOffset=0mil|HoleType=Round|Shape=RoundedRectangle|*
%AMROUNDEDRECTD24*
21,1,0.0945,0.0295,0,0,270.0*
21,1,0.0650,0.0591,0,0,270.0*
1,1,0.0295,-0.0148,-0.0325*
1,1,0.0295,-0.0148,0.0325*
1,1,0.0295,0.0148,0.0325*
1,1,0.0295,0.0148,-0.0325*
%
%ADD24ROUNDEDRECTD24*%
G04:AMPARAMS|DCode=25|XSize=90.6mil|YSize=82.7mil|CornerRadius=12.4mil|HoleSize=0mil|Usage=FLASHONLY|Rotation=90.000|XOffset=0mil|YOffset=0mil|HoleType=Round|Shape=RoundedRectangle|*
%AMROUNDEDRECTD25*
21,1,0.0906,0.0579,0,0,90.0*
21,1,0.0657,0.0827,0,0,90.0*
1,1,0.0248,0.0289,0.0329*
1,1,0.0248,0.0289,-0.0329*
1,1,0.0248,-0.0289,-0.0329*
1,1,0.0248,-0.0289,0.0329*
%
%ADD25ROUNDEDRECTD25*%
%ADD26R,0.0236X0.0217*%
G04:AMPARAMS|DCode=27|XSize=31.5mil|YSize=35.4mil|CornerRadius=7.9mil|HoleSize=0mil|Usage=FLASHONLY|Rotation=90.000|XOffset=0mil|YOffset=0mil|HoleType=Round|Shape=RoundedRectangle|*
%AMROUNDEDRECTD27*
21,1,0.0315,0.0197,0,0,90.0*
21,1,0.0157,0.0354,0,0,90.0*
1,1,0.0157,0.0098,0.0079*
1,1,0.0157,0.0098,-0.0079*
1,1,0.0157,-0.0098,-0.0079*
1,1,0.0157,-0.0098,0.0079*
%
%ADD27ROUNDEDRECTD27*%
G36*
X8848Y18868D02*
X8671Y18986D01*
X8494Y18868D01*
Y19262D01*
X8848D01*
Y18868D01*
D02*
G37*
G36*
Y18199D02*
X8494D01*
Y18593D01*
X8671Y18474D01*
X8848Y18593D01*
Y18199D01*
D02*
G37*
G36*
X14705Y17657D02*
X14311D01*
X14429Y17835D01*
X14311Y18012D01*
X14705D01*
Y17657D01*
D02*
G37*
G36*
X13917Y17835D02*
X14035Y17657D01*
X13642D01*
Y18012D01*
X14035D01*
X13917Y17835D01*
D02*
G37*
G36*
X13287Y17657D02*
X12894D01*
X13012Y17834D01*
X12894Y18011D01*
X13287D01*
Y17657D01*
D02*
G37*
G36*
X12500Y17834D02*
X12618Y17657D01*
X12224D01*
Y18011D01*
X12618D01*
X12500Y17834D01*
D02*
G37*
G36*
X8867Y17470D02*
X8473D01*
X8591Y17648D01*
X8473Y17825D01*
X8867D01*
Y17470D01*
D02*
G37*
G36*
X8080Y17648D02*
X8198Y17470D01*
X7804D01*
Y17825D01*
X8198D01*
X8080Y17648D01*
D02*
G37*
G36*
X12028Y16260D02*
X11850Y16378D01*
X11673Y16260D01*
Y16654D01*
X12028D01*
Y16260D01*
D02*
G37*
G36*
X9764Y15925D02*
X9587Y16004D01*
X9409Y15925D01*
Y16201D01*
X9764D01*
Y15925D01*
D02*
G37*
G36*
X8847Y15882D02*
X8454D01*
X8572Y16059D01*
X8454Y16236D01*
X8847D01*
Y15882D01*
D02*
G37*
G36*
X8060Y16059D02*
X8178Y15882D01*
X7784D01*
Y16236D01*
X8178D01*
X8060Y16059D01*
D02*
G37*
G36*
X12028Y15591D02*
X11673D01*
Y15984D01*
X11850Y15866D01*
X12028Y15984D01*
Y15591D01*
D02*
G37*
G36*
X14508Y15650D02*
X14114D01*
X14232Y15827D01*
X14114Y16004D01*
X14508D01*
Y15650D01*
D02*
G37*
G36*
X13720Y15827D02*
X13839Y15650D01*
X13445D01*
Y16004D01*
X13839D01*
X13720Y15827D01*
D02*
G37*
G36*
X17342Y15545D02*
X17165Y15663D01*
X16988Y15545D01*
Y15939D01*
X17342D01*
Y15545D01*
D02*
G37*
G36*
X9764Y15315D02*
X9409D01*
Y15591D01*
X9587Y15512D01*
X9764Y15591D01*
Y15315D01*
D02*
G37*
G36*
X17342Y14876D02*
X16988D01*
Y15269D01*
X17165Y15151D01*
X17342Y15269D01*
Y14876D01*
D02*
G37*
G36*
X15413Y15020D02*
X15020D01*
X15138Y15197D01*
X15020Y15374D01*
X15413D01*
Y15020D01*
D02*
G37*
G36*
X14626Y15197D02*
X14744Y15020D01*
X14350D01*
Y15374D01*
X14744D01*
X14626Y15197D01*
D02*
G37*
G36*
X17342Y14262D02*
X17165Y14341D01*
X16988Y14262D01*
Y14537D01*
X17342D01*
Y14262D01*
D02*
G37*
G36*
X15699Y14203D02*
X15246D01*
X15374Y14488D01*
X15246Y14774D01*
X15699D01*
Y14203D01*
D02*
G37*
G36*
X14862Y14488D02*
X14990Y14203D01*
X14537D01*
Y14774D01*
X14990D01*
X14862Y14488D01*
D02*
G37*
G36*
X17342Y13652D02*
X16988D01*
Y13927D01*
X17165Y13849D01*
X17342Y13927D01*
Y13652D01*
D02*
G37*
G36*
X15650Y13602D02*
X15256D01*
X15374Y13780D01*
X15256Y13957D01*
X15650D01*
Y13602D01*
D02*
G37*
G36*
X14862Y13780D02*
X14980Y13602D01*
X14587D01*
Y13957D01*
X14980D01*
X14862Y13780D01*
D02*
G37*
G36*
X17342Y13090D02*
X17165Y13169D01*
X16988Y13090D01*
Y13366D01*
X17342D01*
Y13090D01*
D02*
G37*
G36*
Y12480D02*
X16988D01*
Y12756D01*
X17165Y12677D01*
X17342Y12756D01*
Y12480D01*
D02*
G37*
G36*
X14803Y12569D02*
X14528Y12697D01*
X14252Y12569D01*
Y12982D01*
X14803D01*
Y12569D01*
D02*
G37*
G36*
X11673Y12421D02*
X11496Y12539D01*
X11319Y12421D01*
Y12815D01*
X11673D01*
Y12421D01*
D02*
G37*
G36*
X10217D02*
X10039Y12539D01*
X9862Y12421D01*
Y12815D01*
X10217D01*
Y12421D01*
D02*
G37*
G36*
X12303Y12362D02*
X12126Y12480D01*
X11949Y12362D01*
Y12756D01*
X12303D01*
Y12362D01*
D02*
G37*
G36*
X14803Y11821D02*
X14252D01*
Y12234D01*
X14528Y12106D01*
X14803Y12234D01*
Y11821D01*
D02*
G37*
G36*
X12933Y12047D02*
X12756Y12165D01*
X12579Y12047D01*
Y12441D01*
X12933D01*
Y12047D01*
D02*
G37*
G36*
X11673Y11752D02*
X11319D01*
Y12146D01*
X11496Y12028D01*
X11673Y12146D01*
Y11752D01*
D02*
G37*
G36*
X10217D02*
X9862D01*
Y12146D01*
X10039Y12028D01*
X10217Y12146D01*
Y11752D01*
D02*
G37*
G36*
X12303Y11693D02*
X11949D01*
Y12087D01*
X12126Y11968D01*
X12303Y12087D01*
Y11693D01*
D02*
G37*
G36*
X15620Y11801D02*
X15335Y11929D01*
X15049Y11801D01*
Y12254D01*
X15620D01*
Y11801D01*
D02*
G37*
G36*
X12933Y11378D02*
X12579D01*
Y11772D01*
X12756Y11654D01*
X12933Y11772D01*
Y11378D01*
D02*
G37*
G36*
X18061Y11575D02*
X17884Y11693D01*
X17707Y11575D01*
Y11968D01*
X18061D01*
Y11575D01*
D02*
G37*
G36*
X15620Y11093D02*
X15049D01*
Y11545D01*
X15335Y11417D01*
X15620Y11545D01*
Y11093D01*
D02*
G37*
G36*
X18061Y10906D02*
X17707D01*
Y11299D01*
X17884Y11181D01*
X18061Y11299D01*
Y10906D01*
D02*
G37*
D20*
X12244Y15118D02*
D03*
X12441D02*
D03*
X12638D02*
D03*
X12835D02*
D03*
X13032D02*
D03*
X13228D02*
D03*
X13425D02*
D03*
X13622D02*
D03*
Y13169D02*
D03*
X13425D02*
D03*
X13228D02*
D03*
X13032D02*
D03*
X12835D02*
D03*
X12638D02*
D03*
X12441D02*
D03*
X12244D02*
D03*
D21*
X13907Y14833D02*
D03*
Y14636D02*
D03*
Y14439D02*
D03*
Y14242D02*
D03*
Y14045D02*
D03*
Y13848D02*
D03*
Y13652D02*
D03*
Y13455D02*
D03*
X11959D02*
D03*
Y13652D02*
D03*
Y13848D02*
D03*
Y14045D02*
D03*
Y14242D02*
D03*
Y14439D02*
D03*
Y14636D02*
D03*
Y14833D02*
D03*
D22*
X12933Y14144D02*
D03*
D23*
X10591Y13268D02*
D03*
X10945D02*
D03*
D24*
X10768Y11083D02*
D03*
D25*
X14213Y16817D02*
D03*
X12638D02*
D03*
D26*
X8660Y17037D02*
D03*
Y16703D02*
D03*
D27*
X17163Y11768D02*
D03*
Y10968D02*
D03*
M02*
