M48
;Layer_Color=9474304
;FILE_FORMAT=2:4
INCH,LZ
;TYPE=PLATED
T1F00S00C0.0157
T2F00S00C0.1575
%
T01
X079547Y030955
X080157Y030591
X075433Y030561
X074705Y031161
X070394Y03062
X069675Y031161
X065738Y03063
X064882Y031152
X061014Y030679
X060157Y031112
X056496Y0306
X055778Y030965
X051604Y030679
X046831Y030866
X041476Y030738
X036693Y030876
X032904Y030669
X032274Y031024
X027451Y03062
X026398
X025177Y0306
X024124Y030581
X023041Y030591
X026663Y031634
X027598Y031654
X027638Y032579
X026673Y032618
X029547Y033337
X030344Y032707
X031033Y032136
X030413Y034439
X03122Y035453
X030059Y036841
X02936Y036821
X029291Y038169
X029951
X030305Y039144
X029429Y040069
X029843Y041457
X030472Y042195
X029941Y042746
X029321Y042756
X029331Y043996
X029951Y044006
X030157Y045118
X02937Y046742
X027589Y045787
X026939
X026909Y044272
X027224Y04314
X026988Y041122
X027559Y041142
X027608Y039921
X026998
X026634Y038543
X025709Y039026
X025246Y038238
X024606Y038258
X024567Y036929
X025236Y036919
X027303Y03751
X024488Y039616
X024577Y040906
X025512Y041713
X025197Y042707
X024665
X024606Y044094
X025295Y044114
X025541Y044941
X024449Y046102
X022963Y045679
X022313Y045659
X022264Y041211
X022953Y041191
X023002Y039734
X022333Y039744
X031663Y039931
X032313Y039921
X032333Y041122
X031713
X031555Y042844
X032037Y043652
X031358Y044577
X031703Y045778
X032382Y045797
X034006Y046093
X034656Y045089
X034616Y044026
X033996
X034055Y042746
X034685Y042756
X035098Y042205
X034459Y041447
X033986Y040285
X034793Y039252
X034596Y038189
X034045Y038179
X034065Y03687
X034695Y0369
X036673Y036496
X036722Y037657
X035984Y038671
X036427Y039931
X037067Y039921
X037057Y041171
X036486Y041161
X036437Y043002
X036594Y043868
X035866Y044429
X036427Y045807
X037047Y045797
X039094Y04564
X038622Y046486
X03877Y044085
X0394
X039793Y04498
X040758Y044488
X041467Y043612
X040571Y042864
X039419Y042746
X038809Y042736
X039065Y041427
X039685Y042028
X041112Y041191
X041762Y041201
X041821Y039892
X041112Y039911
X04123Y038435
X041624Y037795
X041309Y036791
X040856Y036033
X040443Y035404
X039911Y034695
X03936Y033917
X038907Y033337
X039528Y032539
X040108Y031969
X040797Y031358
X036033Y031506
X035413Y032087
X034902Y032598
X034301Y033327
X03499Y034252
X035512Y03501
X036122Y035817
X038711Y036781
X0394Y036801
X039321Y03815
X038711
X03937Y0394
X040315Y038789
X038593Y040276
X043622Y039764
X043642Y040974
X044331Y041732
X044754Y042333
X044232Y042657
X043583
X043553Y044154
X044183
X044222Y045217
X043396Y045935
X043661Y046673
X041821Y045768
X041161Y045758
X045846Y045778
X046476Y045768
X04626Y044183
X046112Y043268
X045374Y042923
X045344Y044577
X045876Y041161
X046486
X046447Y039882
X045807Y039902
X045325Y03872
X04435Y039104
X044094Y03812
X043474Y03813
X043484Y036821
X044183Y036841
X046132Y036801
X045846Y036083
X045217Y035463
X044626Y034616
X044065Y033533
X044488Y032884
X045236Y031988
X046102Y031348
X046063Y038061
X032274Y037963
X031476Y038711
X031909Y036339
X031683Y031585
X049419Y032707
X048819Y033317
X049282Y034124
X04998Y03502
X050423Y035797
X050817Y036496
X05061Y037805
X049705Y038809
X048839Y039508
X048258Y040344
X048671Y041211
X049291Y042028
X048888Y042667
X048248Y042677
X048287Y044134
X048868
X048799Y045089
X049783Y044744
X050472Y044193
X050669Y043209
X049754Y042677
X050561Y041122
X051181Y041132
X051201Y039921
X050551
X052913Y040532
X053218Y04128
X053848Y042067
X053681Y042687
X052992Y042677
X053012Y044134
X053602
X053789Y04502
X054547Y044528
X055364Y044065
X05563Y043228
X054537Y042776
X055364Y041122
X055974
X056004Y039911
X055315Y039921
X055098Y038445
X055561Y037657
X0556Y036663
X055305Y036093
X054754Y035413
X054085Y034724
X053553Y034006
X0531Y033337
X053829Y032628
X054488Y032077
X055276Y031457
X058543Y032549
X057805Y033337
X058524Y034272
X059094Y03499
X059744Y035659
X060226Y036142
X060315Y036939
X060197Y037943
X059705Y038553
X058937Y038907
X058248Y03937
Y038219
X057628Y038189
X057598Y036791
X058337
X057844Y040138
X057943Y041132
X058327Y041949
Y042717
X057687Y042697
X057677Y044055
X058278Y044075
X058701Y044911
X058091Y045344
X057835Y046093
X055955Y045797
X055295Y045807
X053159Y045827
X053228Y046831
X05126Y045787
X050581
X048386Y046073
X048632Y046821
X04877Y038091
X048159
X048199Y036752
X048868
X052904Y036722
X053612
X053543Y03814
X052904Y03813
X05312Y039429
X054075Y038907
X06Y039921
X060659Y039902
X060689Y041102
X060059
X060276Y043169
X059508Y043012
X058937Y042392
X059468Y044459
X060148Y043986
X060059Y045807
X060699Y045797
X062362Y046821
X062411Y044085
X062431Y042667
X062392Y038169
X062441Y036791
X059341Y031791
X050758Y031437
X050089Y032067
X06253Y033337
X063169Y032726
X06375Y032264
X064291Y031673
X064203Y034764
X063514Y034124
X064951Y035728
X064813Y036624
Y03747
X064665Y038346
X063839Y038799
X062982Y039163
X063012Y038199
X063051Y036801
X062569Y039852
X062677Y040669
X062815Y041398
X063465Y041998
X063051Y042687
X064193Y042913
X065059Y043691
X064459Y044468
X064783Y045797
X065354Y045787
X067146Y046073
X067648Y045157
X067667Y044055
X067077
X067096Y042697
X067746Y042677
X068789
X069537Y043012
X069557Y044026
X068642Y044587
X069439Y045827
X070089Y045787
X072106Y046289
X072205Y045315
X072923Y044852
X073671Y044508
X074242Y044016
X074075Y043159
X073533Y042726
X07248Y042677
X071821Y042648
X071831Y044085
X072441Y044124
X072913Y042037
X072136Y041132
X072018Y040197
X072431Y039321
Y038169
X071791Y038159
Y036791
X072451Y036801
X070246Y036398
X069626Y035846
X069085Y035364
X068435Y034764
X067756Y034075
X067264Y033337
X067795Y032766
X068406Y032195
X069035Y031614
X072008Y033317
X072598Y034065
X072785Y032736
X073396Y032224
X074006Y031772
X073366Y034892
X074124Y035502
X074705Y036211
X074459Y037461
X074282Y038386
X073632Y038829
X074213Y039931
X074852Y039921
X074911Y041161
X074252Y041132
X076998Y040965
Y040108
X077165Y039439
X077224Y038179
X076555Y038159
X076506Y036752
X077224Y036781
X078012Y03875
X077283Y041713
X077264Y042687
X076575Y042677
X076545Y044075
X077215Y044114
X077264Y045167
X078061Y044636
X076673Y046181
X074803Y045807
X074183Y045837
X070207Y041211
X069557Y041191
X069508Y039941
X070148
X06938Y038366
X069783Y03753
X067815Y036821
X067126
X067037Y038179
X067677Y038199
X068287Y038907
X06747Y039695
X067372Y040974
X06815Y041821
X065374Y041161
X064783
X064724Y039911
X065325Y039931
X063032Y044085
X063248Y045089
X062638Y045925
X076683Y033327
X07749Y032618
X077628Y034242
X078376Y035039
X079085Y035856
X079715Y036447
X079301Y037116
X079114Y038258
X078868Y039921
X079547
X079724Y04122
X078957
X079331Y04312
X078986Y044134
X078947Y045787
X079665Y045758
X08125Y046309
X081752Y045305
X081939Y044104
X081289
X081348Y042648
X082156Y042618
X082874Y042894
X082854Y041732
X081939Y040906
X08125Y040118
X081919Y03939
X081939Y038287
X08125Y038258
X081348Y036742
X082047Y036752
X082884Y036526
X082953Y035827
X082441Y035059
X081841Y034222
X081417Y033317
X081791Y032333
X078848Y031486
X078199Y031998
Y042815
X082785Y04435
X082992Y038602
X082087Y046998
X082687Y047805
X082884Y04876
X081978Y048573
X081329Y048593
X081348Y04998
X081998Y04999
X082884Y050079
X082677Y050876
X08188Y051772
X081289Y052323
X081004Y05315
X079577Y052963
X078947
X078937Y051594
X079547
X079085Y049783
X079232Y048927
X079026Y047067
X079705Y047087
X078406Y050404
X079715Y055148
X079262Y055856
X078937Y056447
X078435Y057156
X078553Y058376
X079272Y058356
X079026Y059803
X078484Y059843
X078711Y061043
X079321Y061407
X079075Y06247
X080925Y061358
X081535Y061339
X082904Y061732
X082953Y060305
X082411Y058711
X082697Y057392
X081476Y056909
X080925Y056929
X080915Y055364
X081526Y055374
X082805Y055285
X082618Y054262
X076831Y055354
X07622
X0756Y055344
X075108Y055866
X075069Y056476
X074006Y05626
X07439Y055492
X072087Y055404
X071398Y055433
X070364Y055906
X070344Y056555
X069183Y056289
X069596Y055394
X067283Y055354
X066545Y055384
X065669Y055778
X065679Y056526
X064596Y056102
X064823Y055335
X064222Y056909
X063563Y057431
X062943Y057697
X063169Y058799
X063209Y059537
X064232Y059951
X064892Y059961
X065079Y058376
X064301Y058337
X066959Y058317
X06687Y059213
X06688Y059961
X067283Y060748
X068425Y060837
X069252Y06123
X069468Y061939
X070443Y061791
X070404Y062441
X069724Y059921
X069016Y059882
X068091Y05936
X068081Y05877
X067756Y057785
X06872Y057136
X069124Y058307
X069744Y058248
X072096Y058366
X071959Y059262
X072175Y060246
X072805Y06063
X073898Y061004
X074203Y061732
X075187Y061811
X075197Y062461
X074439Y059862
X073898Y059902
X073848Y058435
X074537Y058366
X076654Y058406
X076575Y059321
X07689Y060433
X077589Y060679
X077333Y057825
X073474Y057116
X072785Y057785
X071585Y05314
X071811Y052451
X072264Y051594
X072874Y050837
X073583Y050325
X074193Y05001
X074488Y049301
X074026Y04878
X073022Y04815
X07248Y048583
X07187Y048563
Y05002
X07247Y05001
X07251Y047293
X074213Y047087
X074823Y047126
X077018Y047106
X07752Y047844
X077244Y048563
X076594Y048602
X076585Y04997
X077224
X077618Y050945
X076998Y051614
X076604Y052402
X076289Y05315
X074813Y052972
X074203Y052933
X074183Y051575
X074921Y051594
X070108Y051565
X069557Y051575
X069488Y052923
X07003
X066939Y053189
X066978Y052323
X067372Y051722
X067972Y051024
X067726Y04998
X067136Y04999
X067116Y048553
X067726Y048583
X068346Y048179
X068888Y048947
X068829Y050384
X069852Y049567
X070118Y047057
X069528
X067539Y047244
X065364Y047106
X064783Y047096
X064902Y048957
X064744Y049852
X06377Y050413
X062982Y04998
X062923Y051329
X064793Y051565
X065472Y051585
X065492Y052992
X064813
X062608Y055384
X062559Y060404
X063622Y060817
X064301Y061211
X064646Y062254
X06565Y062431
X065699Y061742
X063799Y048455
X063091Y048612
X0625
X06314Y047441
X078081Y048504
X062441Y04997
X062451Y052254
X062126Y053238
X06062Y052923
X060069
Y051594
X06062
X060335Y049577
X059478Y050236
X05874Y050876
X05812Y051476
X057697Y052274
X057441Y053179
X055955Y052923
X055305Y052913
Y051654
X056004
X055394Y050266
X055807Y049606
X055492Y048888
X05435Y048455
X053622Y048553
X052963Y048573
X052972Y04998
X053533Y04997
X05375Y051014
X05314Y051575
X052835Y052343
X05124Y051663
X0506Y051654
X050591Y050167
X05064Y048967
X049596Y048287
X048917Y048602
X048278Y048593
X048218Y05002
X048819Y050039
X049124Y050837
X048356Y051644
X048012Y052677
X047835Y053435
X047776Y055443
X048376Y055433
X050354Y055984
X050098Y056742
X049675Y057402
X050217Y058278
X050984Y058268
X050807Y059833
X050167Y059862
X049833Y060935
X048967Y060404
X048287Y059616
X048159Y058789
X04878Y057943
X051427Y056545
X051457Y055807
X055217Y055965
X056122Y055807
X056102Y056545
X054872Y056939
X054843Y058307
X05563Y058346
X055571Y05998
X054911Y059951
X054144Y060758
X053376Y060246
X052943Y058986
X05315Y058199
X054094Y057687
X055541Y055157
X057146Y055364
X057835Y055384
X060039Y055423
X059852Y056152
X059547Y05687
X058907Y057726
X059626Y058366
X060305Y058337
X060236Y059911
X059537Y059902
X059616Y061191
X058809Y060758
X057953Y060236
X057805Y059488
X057913Y058465
X062067Y058474
X062018Y059508
X060945Y061762
X060935Y062421
X059951Y062116
X056161Y061772
X056152Y062461
X054833Y061634
X051457Y061654
X051447Y062451
X050433Y061791
X05062Y047047
X05122Y047057
X049154Y04753
X05376Y047746
X055335Y047136
X055965Y047156
X05812Y047096
X058652Y047835
X058346Y048652
X057677Y048612
X057638Y05001
X058258Y04999
X05938Y048661
X060089Y047077
X060709Y047067
X060866Y055886
X060817Y056624
X061929Y055404
X054596Y050581
X046526Y051594
X045837Y051604
Y052884
X046437
X045896Y055276
X045709Y056053
X045364Y0569
X044961Y057717
X044173Y058051
X043652Y058967
X043563Y059813
X044114Y060335
X044892Y060778
X04563Y06124
X045591Y062067
X046752Y062421
X046772Y061713
X046033Y059852
X045443
X045512Y058445
X046063
X046742Y056457
X046772Y055896
X043652Y055492
X0431Y055453
X042077Y055846
X041949Y056516
X041083Y055974
X041368Y055138
X040699Y056772
X040167Y05748
X039203Y057844
X038839Y058661
X038907Y059606
X03937Y060472
X040256Y060896
X040718Y061565
X042028Y061782
X042018Y062421
X04126Y059911
X040571Y059921
X040758Y058337
X041565Y058317
X036683Y058346
X036024Y058376
X035699Y057382
X03622Y056545
X037313Y056457
Y055837
X036614Y055492
X038366Y055374
X039016Y055364
X038386Y053396
X038622Y05252
X039134Y051644
X039724Y050856
X039469Y05002
X038829Y05001
X038848Y048671
X039439Y048691
X039941Y048022
X039262Y047431
X04125Y047077
X041811
X041437Y04937
X040699Y048652
X040748Y050236
X041161Y051634
X041782Y051644
X041791Y052953
X041161Y052963
X043179Y053415
X043356Y052677
X043602Y051988
X043907Y051339
X04439Y050728
X044173Y05002
X043514
Y048573
X044193Y048563
X044951
X044557Y047884
X044163Y047411
X045856Y047067
X046516Y047077
X046181Y049026
X045581Y05002
X036752Y04935
X036093Y048593
X034744Y048671
X034075
X034016Y05001
X034665Y050039
X035049Y050955
X034459Y051782
X033927Y052667
X033642Y053396
X032274Y052894
X031673Y052904
X031693Y051663
X032343Y051654
X031398Y050335
X032224Y049203
X032333Y047028
X031693Y047008
X034557Y047274
X035089Y048061
X036427Y047047
X037028
X035965Y050335
X036457Y051654
X037087Y051663
X037047Y052963
X036457Y052933
X034144Y055443
X033533Y055472
X032648Y055837
X032569Y056447
X03128Y056457
X031752Y055256
X031998Y058346
X031319Y058366
X031811Y059862
X031368Y061732
X032667
X032608Y062441
X036457Y062008
X037343Y061703
X037303Y062421
X035807Y060974
X035925Y059941
X036555Y059951
X034774Y06003
X034183Y058848
X034774Y057815
X030591Y057569
X029862Y058032
X029409Y059163
X029951Y060354
X030778Y060846
X03123Y059882
X027156Y059862
X026496
X026014Y060906
X025217Y060502
X024587Y059468
X024459Y058563
X025305Y057776
X026053Y057323
X026575Y058406
X027323Y058356
X027776Y056555
X027795Y055955
X027175Y055226
X026644Y056289
X024882Y055404
X024183
X023189Y055187
X023041Y055846
X022992Y056545
X022303Y057224
X02247Y058386
X021762Y058425
X021004Y057736
X021171Y055571
X022352Y055118
X022195Y052894
X022726
X022776Y051624
X022215
X024813Y05187
X024675Y050039
X025325Y050049
X026161Y05062
X026939Y051585
X02753
X02748Y052943
X02689
X02878Y053415
X029104Y052766
X029774Y05187
X030443Y050876
X029931Y05002
X029331Y05001
X029311Y048602
X029951Y048593
X030886Y048553
X030226Y047815
X027559Y046929
X026978Y046949
X026555Y048691
X025207Y048602
X024577Y048612
X025236Y047549
X022972Y047037
X022352Y047057
X027372Y049646
X023996Y053297
X028848Y055325
X029478
X027884Y061762
X027825Y062421
X026713Y061604
X023071Y061654
X022992Y062372
X022392Y059941
X021742Y059911
X020984Y06128
X021713Y062943
X021919Y064222
X022559Y064242
X022402Y065837
X021781Y065866
X021073Y066112
X021909Y068012
X022904Y068287
X022963Y067628
X022461Y070148
X021811Y070157
X021801Y071742
X022559Y071722
X024203Y071703
X024852Y072343
X025463Y072953
X026053Y073543
X026594Y074085
X027057Y075
X026388Y075718
X025906Y075955
X025246Y076467
X024577Y076811
X023957Y077402
X022372Y076614
X021988Y075118
X022421Y07378
X021004Y072894
X020994Y069213
X024902Y069705
X024695Y07061
X026575Y070167
X027185Y070177
X027146Y071782
X026496Y071821
X029094Y072165
X029055Y071339
X0294Y070669
X029902Y069902
X031102Y069065
X030748Y06685
X029931Y066358
X029488Y065413
X029744Y064242
X030778Y063435
X031211Y065876
X027126Y065856
X026506Y065876
X025994Y066762
X025246Y066329
X024783Y065413
X024803Y064409
X025413Y063632
X026299Y063238
X026742Y06251
X026535Y064272
X027264Y064252
X026644Y06751
X026713Y068514
X027776Y068159
X027854Y067579
X026053Y069301
X029803Y072589
X030492Y07315
X030876Y073622
X031191Y075443
X030344Y075965
X029665Y076467
X029065Y076959
X028543Y07748
X03124Y071732
X03186
X031998Y070236
X031378Y070246
X03128Y067805
X032618Y067559
X03253Y068189
X03186Y065876
X031959Y064262
X03126Y064272
X031476Y062687
X034685Y064026
X034026Y064852
X034203Y066132
X035315Y066811
X035906Y065846
X036535Y065856
X036683Y064272
X036033Y064291
X035807Y0631
X038947Y064596
X038898Y065482
X038996Y066378
X039783Y066713
X040591Y066988
X040856Y067894
X040965Y06877
X040532Y06936
X040797Y070197
X041378
X041319Y071624
X040778Y071614
X040079Y073386
X039478Y072835
X038789Y072303
X03812Y071821
X038602Y071122
X039006Y070453
X039587Y069675
X036683Y070187
X036063Y070197
X035374Y069409
X034488Y070413
X03372Y071398
X03376Y072156
X034557Y072785
X03562Y073622
X036122Y074154
X036535Y07497
X035915Y07563
X035207Y07627
X03438Y076831
X033819Y077234
X033159Y077736
X031732Y074931
X031368Y074154
X035965Y071693
X036634Y071713
X037234Y068218
X037333Y067618
X036132Y067854
X042018Y067628
X041968Y068248
X04127Y065787
X04065Y065768
X040748Y064272
X041467Y064252
X04064Y063543
X040935Y062657
X039528Y064026
X043907Y064144
X043632Y064941
X043593Y065876
X044449Y066486
X045413Y066959
X04565Y067864
X045512Y068799
X045079Y069557
X045512Y070217
X046122
X046083Y071654
X045482Y071634
X04501Y073563
X044488Y07315
X043681Y07252
X04311Y071978
X043425Y071083
X043583Y070039
X046585Y06814
X046732Y067559
X045945Y065758
X045285Y065768
X045325Y064321
X045955Y064291
X045532Y062943
X044764Y063563
X045561Y074272
X045984Y074961
X045394Y075512
X044852Y075837
X044272Y07628
X043563Y076772
X043012Y077244
X042579Y077766
X04126Y074961
X04061Y075512
X039961Y076043
X03937Y076427
X038868Y076831
X038287Y077274
X037726Y077746
X0406Y074085
X047746Y072451
X048012Y071634
X048238Y070728
X048937Y069813
X049852Y06938
X050236Y070285
X050797Y070305
X050817Y071663
X050177Y071673
X049833Y073878
X050344Y07435
X050728Y074951
X050118Y075581
X0494Y076171
X048484Y076634
X047953Y077146
X047402Y077589
X052037Y077835
X052657Y077313
X053337Y076909
X053927Y076467
X05438Y075994
X05502Y075482
X055561Y07497
X055108Y074331
X054577Y073661
X053996Y073159
X053278Y072697
X052953Y071565
X053189Y070659
X053907Y069646
X054882Y070157
X055581Y070207
X055551Y071634
X054872Y071673
X055079Y068878
X055207Y067736
X056161Y06752
X056093Y06814
X055522Y065807
X054872Y065797
X05436Y066821
X053632Y066447
X0531Y065778
X05315Y064715
X053907Y063701
X054774Y063199
X055226Y06252
X054882Y064222
X055669Y064242
X057982Y063937
X057844Y06499
X057835Y066014
X058346Y066614
X05937Y066801
X059705Y067589
X059646Y06872
X059144Y06938
X058455Y069852
X057736Y070699
X057815Y071545
X058337Y072343
X059035Y073199
X059675Y073937
X060157Y07497
X05935Y075797
X058632Y07628
X058071Y076683
X057618Y077047
X057126Y077392
X056673Y077854
X061486Y077825
X062116Y077175
X062382Y07186
X062333Y071053
X060295Y071594
X059665
X059695Y070177
X060394Y070138
X060886Y068189
X060915Y067648
X060295Y065659
X059695Y06565
X059665Y064203
X060394Y064154
X059656Y063002
X059006Y063524
X06247Y064557
Y065738
X050718Y065827
X050098Y065866
X049508Y066683
X048543Y066289
X048327Y065069
X04872Y064055
X049528Y063563
X050157Y064272
X050945Y064242
X050413Y062904
X050226Y067402
X050295Y068484
X051358Y06812
X051388Y067579
X049085Y073307
X048415Y072894
X063032Y072667
X063661Y073209
X064232Y073996
X064508Y074961
X064045Y075492
X063376Y076073
X062638Y076693
X066329Y077618
X06687Y077077
X067451Y076634
X068091Y076112
X068789Y075591
X069606Y074951
X069144Y074232
X068612Y073602
X068002Y073002
X067215Y072411
X06689Y071594
X067008Y070768
X067638Y069833
X06872Y069262
X069065Y070138
X069803Y070148
X069646Y071742
X068976
X071742Y071545
X071909Y070532
X072874Y069606
X07378Y070177
X07439Y070167
X074429Y071654
X07376Y071624
X072126Y072392
X072776Y073189
X073602Y074094
X073593Y075512
X073061Y076033
X072461Y076496
X07189Y077008
X071191Y077579
X075965Y077431
X076634Y076919
X07748Y076319
X077717Y073415
X077283Y072785
X076673Y072303
X076693Y07126
X076811Y070236
X077628Y069724
X077352Y066506
X076604Y066112
X076496Y065098
X077008Y064173
X077884Y063789
X074488Y064272
X073858Y064321
X073445Y063533
X072539Y063937
X071831Y064951
X071909Y065955
X072628Y066447
X073287Y066713
X073957Y06752
X075167Y067667
X075138Y068179
X07378Y06878
X073878Y065778
X074429Y065797
X074045Y062608
X068976Y062943
X068465Y063563
X067687Y064085
X067037Y064685
X067067Y06561
X067667Y06627
X068563Y066644
X069252Y067224
X069409Y068396
X070364Y068179
X070394Y067667
X069715Y065797
X069134Y065778
X069203Y064321
X069803Y064272
X064941Y064242
X064104
X063366Y06378
X064213Y06313
X064193Y065925
X064921Y065856
X064173Y06689
X063376Y066496
X064705Y067667
X065669Y067657
X065581Y068199
X064557Y068868
X063839Y069488
X064262Y070187
X065Y070157
Y071703
X064321Y071732
X062717Y070069
X074321Y074961
X078228Y075709
X079065Y07497
X078297Y074134
X078524Y071585
X079085Y071555
X079173Y070236
X078563Y070246
X078465Y069468
X079203Y06878
X079419Y068012
X079203Y067165
X078455Y066752
X078593Y06562
X079114Y06561
X079173Y06438
X078583Y0644
X078661Y063396
X080837Y062726
X081447
X082707Y06374
X081545Y067264
X080945Y067283
X080994Y068671
X081516Y068681
X080778Y070945
X082539Y070984
X082244Y073898
X082146Y077096
T02
X052087Y0542
M30
