G04*
G04 #@! TF.GenerationSoftware,Altium Limited,Altium Designer,18.1.6 (161)*
G04*
G04 Layer_Color=8388736*
%FSLAX24Y24*%
%MOIN*%
G70*
G01*
G75*
%ADD22O,0.0930X0.0375*%
%ADD23C,0.0512*%
%ADD24R,0.0433X0.0394*%
%ADD25R,0.0276X0.0256*%
%ADD26R,0.0394X0.0433*%
G04:AMPARAMS|DCode=27|XSize=47.2mil|YSize=27.6mil|CornerRadius=7.9mil|HoleSize=0mil|Usage=FLASHONLY|Rotation=0.000|XOffset=0mil|YOffset=0mil|HoleType=Round|Shape=RoundedRectangle|*
%AMROUNDEDRECTD27*
21,1,0.0472,0.0118,0,0,0.0*
21,1,0.0315,0.0276,0,0,0.0*
1,1,0.0157,0.0157,-0.0059*
1,1,0.0157,-0.0157,-0.0059*
1,1,0.0157,-0.0157,0.0059*
1,1,0.0157,0.0157,0.0059*
%
%ADD27ROUNDEDRECTD27*%
G04:AMPARAMS|DCode=28|XSize=98.4mil|YSize=63mil|CornerRadius=16.7mil|HoleSize=0mil|Usage=FLASHONLY|Rotation=0.000|XOffset=0mil|YOffset=0mil|HoleType=Round|Shape=RoundedRectangle|*
%AMROUNDEDRECTD28*
21,1,0.0984,0.0295,0,0,0.0*
21,1,0.0650,0.0630,0,0,0.0*
1,1,0.0335,0.0325,-0.0148*
1,1,0.0335,-0.0325,-0.0148*
1,1,0.0335,-0.0325,0.0148*
1,1,0.0335,0.0325,0.0148*
%
%ADD28ROUNDEDRECTD28*%
G04:AMPARAMS|DCode=29|XSize=94.5mil|YSize=86.6mil|CornerRadius=14.4mil|HoleSize=0mil|Usage=FLASHONLY|Rotation=180.000|XOffset=0mil|YOffset=0mil|HoleType=Round|Shape=RoundedRectangle|*
%AMROUNDEDRECTD29*
21,1,0.0945,0.0579,0,0,180.0*
21,1,0.0657,0.0866,0,0,180.0*
1,1,0.0287,-0.0329,0.0289*
1,1,0.0287,0.0329,0.0289*
1,1,0.0287,0.0329,-0.0289*
1,1,0.0287,-0.0329,-0.0289*
%
%ADD29ROUNDEDRECTD29*%
%ADD30O,0.0374X0.0150*%
%ADD31O,0.0150X0.0374*%
%ADD32R,0.1398X0.1398*%
%ADD33R,0.0591X0.0453*%
%ADD34R,0.0610X0.0492*%
%ADD35R,0.0394X0.0315*%
%ADD36R,0.0315X0.0394*%
%ADD37C,0.0630*%
%ADD38R,0.0630X0.0630*%
%ADD39R,0.0630X0.0630*%
G36*
X27713Y29272D02*
X27727Y29169D01*
X27766Y29073D01*
X27829Y28991D01*
X27912Y28928D01*
X28007Y28888D01*
X28110Y28875D01*
X28213Y28888D01*
X28309Y28928D01*
X28391Y28991D01*
X28454Y29073D01*
X28494Y29169D01*
X28507Y29272D01*
D01*
X28494Y29374D01*
X28454Y29470D01*
X28391Y29552D01*
X28309Y29616D01*
X28213Y29655D01*
X28110Y29669D01*
X28007Y29655D01*
X27912Y29616D01*
X27829Y29552D01*
X27766Y29470D01*
X27727Y29374D01*
X27713Y29272D01*
D01*
D02*
G37*
G36*
X38416Y38270D02*
X38429Y38167D01*
X38469Y38072D01*
X38532Y37989D01*
X38614Y37926D01*
X38710Y37887D01*
X38813Y37873D01*
X38916Y37887D01*
X39011Y37926D01*
X39094Y37989D01*
X39157Y38072D01*
X39196Y38167D01*
X39210Y38270D01*
D01*
X39196Y38373D01*
X39157Y38469D01*
X39094Y38551D01*
X39011Y38614D01*
X38916Y38654D01*
X38813Y38667D01*
X38710Y38654D01*
X38614Y38614D01*
X38532Y38551D01*
X38469Y38469D01*
X38429Y38373D01*
X38416Y38270D01*
D01*
D02*
G37*
D22*
X33142Y38236D02*
D03*
Y37236D02*
D03*
Y36736D02*
D03*
X30192Y38236D02*
D03*
Y37236D02*
D03*
Y36736D02*
D03*
X33142Y37736D02*
D03*
X30192D02*
D03*
D23*
X28110Y29272D02*
D03*
X38813Y38270D02*
D03*
D24*
X34843Y28888D02*
D03*
X34173D02*
D03*
X35482Y29793D02*
D03*
X34813D02*
D03*
X36742Y33012D02*
D03*
X36073D02*
D03*
X36801Y31555D02*
D03*
X36132D02*
D03*
X36890Y34055D02*
D03*
X36220D02*
D03*
X34882Y37274D02*
D03*
X35551D02*
D03*
D25*
X34173Y29469D02*
D03*
Y29803D02*
D03*
Y30315D02*
D03*
Y30650D02*
D03*
Y31142D02*
D03*
Y31476D02*
D03*
X32815Y31811D02*
D03*
Y31476D02*
D03*
D26*
X33504Y31142D02*
D03*
Y31811D02*
D03*
X34931Y30630D02*
D03*
Y31299D02*
D03*
X32815Y30856D02*
D03*
Y30187D02*
D03*
X31015Y33356D02*
D03*
Y32687D02*
D03*
X31014Y34114D02*
D03*
Y34783D02*
D03*
X29331Y37421D02*
D03*
Y36752D02*
D03*
D27*
X34783Y32096D02*
D03*
Y32451D02*
D03*
D28*
X36969Y32274D02*
D03*
D29*
X32096Y34557D02*
D03*
Y32982D02*
D03*
D30*
X33415Y33524D02*
D03*
Y33720D02*
D03*
Y33917D02*
D03*
Y34114D02*
D03*
Y34311D02*
D03*
Y34508D02*
D03*
Y34705D02*
D03*
Y34902D02*
D03*
X35364D02*
D03*
Y34705D02*
D03*
Y34508D02*
D03*
Y34311D02*
D03*
Y34114D02*
D03*
Y33917D02*
D03*
Y33720D02*
D03*
Y33524D02*
D03*
D31*
X33701Y35187D02*
D03*
X33898D02*
D03*
X34094D02*
D03*
X34291D02*
D03*
X34488D02*
D03*
X34685D02*
D03*
X34882D02*
D03*
X35079D02*
D03*
Y33238D02*
D03*
X34882D02*
D03*
X34685D02*
D03*
X34488D02*
D03*
X34291D02*
D03*
X34094D02*
D03*
X33898D02*
D03*
X33701D02*
D03*
D32*
X34390Y34213D02*
D03*
D33*
X35709Y36535D02*
D03*
Y35787D02*
D03*
D34*
X36476Y36535D02*
D03*
Y35827D02*
D03*
D35*
X34882Y36624D02*
D03*
Y36014D02*
D03*
D36*
X32657Y35738D02*
D03*
X32047D02*
D03*
D37*
X40511Y36065D02*
D03*
Y36853D02*
D03*
Y37640D02*
D03*
X27559Y35236D02*
D03*
Y36969D02*
D03*
Y37756D02*
D03*
X40236Y32333D02*
D03*
Y33120D02*
D03*
Y33907D02*
D03*
Y34695D02*
D03*
X39449Y31545D02*
D03*
Y32333D02*
D03*
Y33120D02*
D03*
Y33907D02*
D03*
Y34695D02*
D03*
D38*
X40511Y38428D02*
D03*
X27559Y36024D02*
D03*
Y38543D02*
D03*
D39*
X40236Y31545D02*
D03*
M02*
