G04 Layer_Physical_Order=1*
G04 Layer_Color=255*
%FSLAX24Y24*%
%MOIN*%
G70*
G01*
G75*
%ADD10C,0.0079*%
%ADD11C,0.0197*%
%ADD12C,0.0394*%
%ADD13C,0.0709*%
%ADD14C,0.1181*%
%ADD15R,0.0709X0.0709*%
%ADD16C,0.0394*%
D10*
X29947Y28425D02*
G03*
X29947Y28425I-748J0D01*
G01*
D02*
G03*
X29947Y28425I-748J0D01*
G01*
X29980Y28465D02*
G03*
X30056Y28283I256J0D01*
G01*
X29980Y28465D02*
G03*
X30055Y28284I256J0D01*
G01*
X30399Y27940D02*
G03*
X30703Y27362I501J-105D01*
G01*
X31097D02*
G03*
X31412Y27835I-197J472D01*
G01*
D02*
G03*
X30741Y28321I-512J0D01*
G01*
X32218Y28328D02*
G03*
X31884Y27362I-137J-493D01*
G01*
X32278D02*
G03*
X32593Y27835I-197J472D01*
G01*
X31727Y29385D02*
G03*
X32593Y29016I354J-369D01*
G01*
D02*
G03*
X32490Y29324I-512J0D01*
G01*
D02*
G03*
X32777Y29320I148J322D01*
G01*
X30055Y30023D02*
G03*
X29980Y29843I181J-181D01*
G01*
X30056Y30024D02*
G03*
X29980Y29843I181J-181D01*
G01*
X30644Y30810D02*
G03*
X30535Y30503I242J-259D01*
G01*
X29947Y32598D02*
G03*
X29947Y32598I-748J0D01*
G01*
D02*
G03*
X29947Y32598I-748J0D01*
G01*
X30960Y30205D02*
G03*
X31240Y30551I-75J346D01*
G01*
D02*
G03*
X31156Y30780I-354J0D01*
G01*
X31831Y30063D02*
G03*
X31727Y29813I251J-251D01*
G01*
X31831Y30064D02*
G03*
X31727Y29813I250J-251D01*
G01*
X32426Y30512D02*
G03*
X32175Y30408I0J-354D01*
G01*
X32426Y30512D02*
G03*
X32175Y30408I0J-354D01*
G01*
X31412Y32008D02*
G03*
X30644Y31565I-512J0D01*
G01*
X31156D02*
G03*
X31412Y32008I-256J443D01*
G01*
X31884Y33661D02*
G03*
X31828Y32744I197J-472D01*
G01*
X32241Y32494D02*
G03*
X32593Y32008I-160J-486D01*
G01*
X31828Y32744D02*
G03*
X32081Y32638I253J248D01*
G01*
X32593Y27835D02*
G03*
X32577Y27963I-512J0D01*
G01*
X33386Y27362D02*
G03*
X33701Y27835I-197J472D01*
G01*
D02*
G03*
X32992Y27362I-512J0D01*
G01*
X32777Y29320D02*
G03*
X32714Y28824I412J-304D01*
G01*
X33122Y28508D02*
G03*
X33701Y29016I67J507D01*
G01*
D02*
G03*
X33538Y29390I-512J0D01*
G01*
X33876Y29148D02*
G03*
X34882Y29016I494J-132D01*
G01*
D02*
G03*
X34805Y29286I-512J0D01*
G01*
X34321Y29525D02*
G03*
X34238Y29510I49J-509D01*
G01*
X36819Y28425D02*
G03*
X36819Y28425I-748J0D01*
G01*
D02*
G03*
X36819Y28425I-748J0D01*
G01*
X35259Y29740D02*
G03*
X35335Y29921I-181J181D01*
G01*
X35260Y29740D02*
G03*
X35335Y29921I-181J181D01*
G01*
X32593Y32008D02*
G03*
X32567Y32168I-512J0D01*
G01*
X32679Y32056D02*
G03*
X33701Y32008I510J-48D01*
G01*
D02*
G03*
X33218Y32519I-512J0D01*
G01*
X33929Y29818D02*
G03*
X34094Y30118I-189J300D01*
G01*
X33952Y30408D02*
G03*
X33701Y30512I-251J-250D01*
G01*
X34094Y30118D02*
G03*
X33991Y30369I-354J0D01*
G01*
X33951Y30408D02*
G03*
X33701Y30512I-251J-251D01*
G01*
X33929Y29818D02*
G03*
X34094Y30118I-189J300D01*
G01*
D02*
G03*
X33990Y30369I-354J0D01*
G01*
X33037Y32700D02*
G03*
X33701Y33189I152J489D01*
G01*
D02*
G03*
X33386Y33661I-512J0D01*
G01*
X34173D02*
G03*
X34589Y32726I197J-472D01*
G01*
X35335Y32466D02*
G03*
X36819Y32598I736J132D01*
G01*
X35335Y32466D02*
G03*
X36819Y32598I736J132D01*
G01*
X35326Y32665D02*
G03*
X35259Y32780I-247J-67D01*
G01*
X35326Y32665D02*
G03*
X35260Y32779I-247J-67D01*
G01*
X36819Y32598D02*
G03*
X35326Y32665I-748J0D01*
G01*
X36819Y32598D02*
G03*
X35326Y32665I-748J0D01*
G01*
X34881Y33158D02*
G03*
X34882Y33189I-511J31D01*
G01*
D02*
G03*
X34567Y33661I-512J0D01*
G01*
X28760Y27362D02*
Y27820D01*
X28701Y27362D02*
Y27867D01*
X28878Y27362D02*
Y27750D01*
X28819Y27362D02*
Y27781D01*
X28524Y27362D02*
Y28104D01*
X28465Y27362D02*
Y28285D01*
X28642Y27362D02*
Y27926D01*
X28583Y27362D02*
Y28002D01*
X29114Y27362D02*
Y27682D01*
X28346Y27520D02*
X30497D01*
X29232Y27362D02*
Y27678D01*
X29173Y27362D02*
Y27678D01*
X28996Y27362D02*
Y27705D01*
X28937Y27362D02*
Y27725D01*
X29350Y27362D02*
Y27693D01*
X29055Y27362D02*
Y27691D01*
X29291Y27362D02*
Y27683D01*
X28346Y28169D02*
X28496D01*
X28346Y28228D02*
X28478D01*
X28346Y28051D02*
X28551D01*
X28346Y28110D02*
X28521D01*
X28346Y28405D02*
X28451D01*
X28346Y28465D02*
X28452D01*
X28346Y28287D02*
X28464D01*
X28346Y28346D02*
X28455D01*
X28346Y27579D02*
X30457D01*
X28346Y27638D02*
X30428D01*
X29369Y27697D02*
X30407D01*
X28346D02*
X29029D01*
X28346Y27933D02*
X28636D01*
X28346Y27992D02*
X28589D01*
X28346Y27756D02*
X28865D01*
X28346Y27874D02*
X28694D01*
X28346Y27815D02*
X28767D01*
X29468Y27362D02*
Y27727D01*
X29409Y27362D02*
Y27707D01*
X29587Y27362D02*
Y27785D01*
X29527Y27362D02*
Y27753D01*
X29705Y27362D02*
Y27874D01*
X29646Y27362D02*
Y27825D01*
X29823Y27362D02*
Y28012D01*
X29764Y27362D02*
Y27934D01*
X30413Y27362D02*
Y27676D01*
X30354Y27362D02*
Y27985D01*
X30531Y27362D02*
Y27480D01*
X30472Y27362D02*
Y27553D01*
X29941Y27362D02*
Y28328D01*
X29882Y27362D02*
Y28119D01*
X30295Y27362D02*
Y28044D01*
X30000Y27362D02*
Y28366D01*
X30236Y27362D02*
Y28103D01*
X29902Y28169D02*
X30170D01*
X29921Y28228D02*
X30111D01*
X30118Y27362D02*
Y28221D01*
X30059Y27362D02*
Y28280D01*
X29934Y28287D02*
X30052D01*
X29943Y28346D02*
X30009D01*
X29947Y28405D02*
X29987D01*
X29946Y28465D02*
X29980D01*
X29533Y27756D02*
X30394D01*
X29632Y27815D02*
X30389D01*
X29705Y27874D02*
X30390D01*
X29763Y27933D02*
X30398D01*
X29809Y27992D02*
X30347D01*
X29847Y28051D02*
X30288D01*
X30177Y27362D02*
Y28162D01*
X29878Y28110D02*
X30229D01*
X30056Y28283D02*
X30399Y27940D01*
X28346Y28642D02*
X28483D01*
X28346Y28701D02*
X28504D01*
X28346Y28524D02*
X28458D01*
X28346Y28583D02*
X28468D01*
X28405Y27362D02*
Y33661D01*
X28346Y27362D02*
Y33661D01*
X28465Y28566D02*
Y32458D01*
X28524Y28746D02*
Y32277D01*
X28346Y28878D02*
X28604D01*
X28346Y28937D02*
X28654D01*
X28346Y28760D02*
X28530D01*
X28346Y28819D02*
X28563D01*
X28583Y28849D02*
Y32175D01*
X28642Y28924D02*
Y32100D01*
X28701Y28983D02*
Y32041D01*
X28346Y29114D02*
X28908D01*
X28346Y29173D02*
X29190D01*
X28346Y28996D02*
X28716D01*
X28346Y29055D02*
X28796D01*
X28760Y29031D02*
Y31993D01*
X28346Y29232D02*
X29980D01*
X28819Y29069D02*
Y31954D01*
X28878Y29101D02*
Y31923D01*
X28346Y29409D02*
X29980D01*
X28346Y29468D02*
X29980D01*
X28346Y29291D02*
X29980D01*
X28346Y29350D02*
X29980D01*
X28346Y29705D02*
X29980D01*
X28346Y29764D02*
X29980D01*
X28346Y29527D02*
X29980D01*
X28346Y29646D02*
X29980D01*
X28346Y29587D02*
X29980D01*
X29915Y28642D02*
X29980D01*
X29705Y28977D02*
Y32047D01*
X29980Y28465D02*
Y29843D01*
X29930Y28583D02*
X29980D01*
X29823Y28838D02*
Y32185D01*
X29764Y28916D02*
Y32108D01*
X29941Y28523D02*
Y32501D01*
X29882Y28731D02*
Y32293D01*
X29941Y28524D02*
X29980D01*
X29895Y28701D02*
X29980D01*
X29745Y28937D02*
X29980D01*
X29683Y28996D02*
X29980D01*
X29868Y28760D02*
X29980D01*
X29795Y28878D02*
X29980D01*
X29835Y28819D02*
X29980D01*
X29114Y29168D02*
Y31855D01*
X29173Y29173D02*
Y31851D01*
X29291Y29168D02*
Y31856D01*
X29232Y29172D02*
Y31851D01*
X28937Y29126D02*
Y31898D01*
X28996Y29145D02*
Y31879D01*
X29409Y29143D02*
Y31881D01*
X29055Y29159D02*
Y31864D01*
X29350Y29158D02*
Y31866D01*
X29491Y29114D02*
X29980D01*
X29209Y29173D02*
X29980D01*
X29603Y29055D02*
X29980D01*
X30492Y29567D02*
Y29737D01*
X29527Y29097D02*
Y31926D01*
X29468Y29123D02*
Y31901D01*
X29646Y29025D02*
Y31998D01*
X29587Y29065D02*
Y31958D01*
X30531Y29567D02*
Y29776D01*
X28346Y27362D02*
X30703D01*
X28346Y27402D02*
X30627D01*
X31181Y27362D02*
Y27407D01*
X30590Y27362D02*
Y27427D01*
X28346Y27461D02*
X30551D01*
X31240Y27362D02*
Y27452D01*
Y28217D02*
Y28465D01*
X31097Y27362D02*
X31884D01*
X31173Y27402D02*
X31808D01*
X31299Y27362D02*
Y27514D01*
X31249Y27461D02*
X31732D01*
X31299Y28155D02*
Y28465D01*
X31287Y28169D02*
X31694D01*
X31227Y28228D02*
X31754D01*
X30598Y28465D02*
X30741Y28321D01*
X30650Y28413D02*
Y28465D01*
X30716Y28346D02*
X30892D01*
X30709Y28354D02*
Y28465D01*
X30768Y28329D02*
Y28465D01*
X30827Y28341D02*
Y28465D01*
X30945Y28344D02*
Y28465D01*
X30886Y28346D02*
Y28465D01*
X30657Y28405D02*
X32296D01*
X30598Y28465D02*
X32355D01*
X31139Y28287D02*
X31842D01*
X30908Y28346D02*
X32073D01*
X31004Y28336D02*
Y28465D01*
X30598D02*
X31451D01*
X31181Y28262D02*
Y28465D01*
X31063Y28320D02*
Y28465D01*
X31122Y28296D02*
Y28465D01*
X31653Y27362D02*
Y27553D01*
X31303Y27520D02*
X31678D01*
X31772Y27362D02*
Y27427D01*
X31713Y27362D02*
Y27480D01*
X31417Y27362D02*
Y28465D01*
X31358Y27362D02*
Y27607D01*
X31594Y27362D02*
Y27676D01*
X32278Y27362D02*
X32992D01*
X32354Y27402D02*
X32916D01*
X32421Y27362D02*
Y27452D01*
X32362Y27362D02*
Y27407D01*
X32430Y27461D02*
X32840D01*
X32480Y27362D02*
Y27514D01*
X32524Y27579D02*
X32746D01*
X32484Y27520D02*
X32786D01*
X31372Y27638D02*
X31609D01*
X31393Y27697D02*
X31588D01*
X31406Y27756D02*
X31575D01*
X31411Y27815D02*
X31570D01*
X31364Y28051D02*
X31617D01*
X31358Y28063D02*
Y28465D01*
X31410Y27874D02*
X31571D01*
X31402Y27933D02*
X31579D01*
X31387Y27992D02*
X31594D01*
X31343Y27579D02*
X31638D01*
X31331Y28110D02*
X31650D01*
X32067Y28346D02*
Y28504D01*
X32089Y28346D02*
X32236D01*
X31949Y28329D02*
Y28521D01*
X31451Y28524D02*
X31941D01*
X32185Y28336D02*
Y28515D01*
X32008Y28341D02*
Y28509D01*
X32126Y28344D02*
Y28506D01*
X31451Y28996D02*
X31570D01*
X31451Y29055D02*
X31571D01*
X30590Y29567D02*
Y29835D01*
X30827Y29567D02*
Y30071D01*
X30768Y29567D02*
Y30012D01*
X31451Y28878D02*
X31588D01*
X31451Y28937D02*
X31575D01*
X31451Y28701D02*
X31678D01*
X31451Y28760D02*
X31638D01*
X31451Y29291D02*
X31650D01*
X31451Y29350D02*
X31694D01*
X31451Y29114D02*
X31579D01*
X31451Y29173D02*
X31594D01*
X31451Y29232D02*
X31617D01*
X30709Y29567D02*
Y29953D01*
X30650Y29567D02*
Y29894D01*
X30945Y29567D02*
Y30189D01*
X30886Y29567D02*
Y30130D01*
X31004Y29567D02*
Y30217D01*
X30492Y29737D02*
X30960Y30205D01*
X31122Y29567D02*
Y30287D01*
X31063Y29567D02*
Y30244D01*
X30492Y29646D02*
X31727D01*
X30492Y29705D02*
X31727D01*
X30492Y29567D02*
X31451D01*
X30492Y29587D02*
X31727D01*
X31240Y29567D02*
Y30550D01*
X31181Y29567D02*
Y30355D01*
X31417Y29567D02*
Y32638D01*
X31299Y29567D02*
Y31688D01*
X31358Y29567D02*
Y31780D01*
X31653Y28116D02*
Y28735D01*
X31713Y28190D02*
Y28661D01*
X31772Y28242D02*
Y28608D01*
X31831Y28281D02*
Y28569D01*
X31476Y27362D02*
Y33661D01*
X31451Y28465D02*
Y29567D01*
X31535Y27362D02*
Y33661D01*
X31594Y27993D02*
Y28857D01*
X31890Y28309D02*
Y28541D01*
X32221Y28524D02*
X32414D01*
X32244Y28354D02*
Y28531D01*
X32303Y28413D02*
Y28555D01*
X32218Y28328D02*
X32714Y28824D01*
X32362Y28472D02*
Y28588D01*
X32421Y28531D02*
Y28633D01*
X32354Y28583D02*
X32473D01*
X31451Y29409D02*
X31727D01*
X31451Y29468D02*
X31727D01*
X31451Y28642D02*
X31732D01*
X31451Y28819D02*
X31609D01*
X31594Y29174D02*
Y31849D01*
X31451Y29527D02*
X31727D01*
X31653Y29297D02*
Y31727D01*
X31713Y29371D02*
Y31653D01*
X31727Y29385D02*
Y29813D01*
X31451Y28583D02*
X31808D01*
X32430Y28642D02*
X32532D01*
X32480Y28590D02*
Y28695D01*
X32484Y28701D02*
X32591D01*
X32539Y28649D02*
Y28788D01*
X32524Y28760D02*
X32650D01*
X32512Y29291D02*
X32758D01*
X28346Y29941D02*
X30000D01*
X28346Y30000D02*
X30034D01*
X28346Y29823D02*
X29980D01*
X28346Y29882D02*
X29983D01*
X28346Y30177D02*
X30209D01*
X28346Y30236D02*
X30268D01*
X28346Y30059D02*
X30091D01*
X28346Y30118D02*
X30150D01*
X28346Y30413D02*
X30445D01*
X28346Y30472D02*
X30504D01*
X28346Y30295D02*
X30327D01*
X28346Y30354D02*
X30386D01*
X28346Y30709D02*
X30568D01*
X28346Y30768D02*
X30605D01*
X28346Y30531D02*
X30532D01*
X28346Y30590D02*
X30534D01*
X28346Y30650D02*
X30545D01*
X28346Y31535D02*
X30644D01*
X28346Y31594D02*
X30598D01*
X28346Y31417D02*
X30644D01*
X28346Y31476D02*
X30644D01*
X28346Y32185D02*
X28576D01*
X28346Y32244D02*
X28540D01*
X28346Y31653D02*
X30531D01*
X28346Y32126D02*
X28619D01*
X28346Y31004D02*
X30644D01*
X28346Y31063D02*
X30644D01*
X28346Y30886D02*
X30644D01*
X28346Y30945D02*
X30644D01*
X28346Y31299D02*
X30644D01*
X28346Y31358D02*
X30644D01*
X28346Y31122D02*
X30644D01*
X28346Y31240D02*
X30644D01*
X28346Y31181D02*
X30644D01*
X28346Y31831D02*
X30420D01*
X30413Y30382D02*
Y31849D01*
X28346Y31890D02*
X28960D01*
X28346Y31949D02*
X28828D01*
X30354Y30322D02*
Y32638D01*
X29439Y31890D02*
X30402D01*
X30056Y30024D02*
X30535Y30503D01*
X30531Y30500D02*
Y30550D01*
X30644Y30810D02*
Y31565D01*
X28346Y31713D02*
X30482D01*
X28346Y31772D02*
X30446D01*
X30472Y30441D02*
Y31727D01*
X30531Y30552D02*
Y31653D01*
X30590Y30747D02*
Y31600D01*
X28346Y32067D02*
X28673D01*
X28346Y32303D02*
X28512D01*
X29658Y32008D02*
X30388D01*
X28346D02*
X28740D01*
X28346Y32539D02*
X28454D01*
X28346Y32598D02*
X28451D01*
X28346Y32362D02*
X28489D01*
X28346Y32480D02*
X28461D01*
X28346Y32421D02*
X28472D01*
X29570Y31949D02*
X30392D01*
X29726Y32067D02*
X30392D01*
X29779Y32126D02*
X30402D01*
X29823Y32185D02*
X30420D01*
X29858Y32244D02*
X30446D01*
X29886Y32303D02*
X30482D01*
X29909Y32362D02*
X30531D01*
X30531Y32363D02*
Y32638D01*
X29926Y32421D02*
X30598D01*
X28346Y32776D02*
X28472D01*
X28346Y32835D02*
X28489D01*
X28346Y32657D02*
X28454D01*
X28346Y32716D02*
X28461D01*
X28346Y32894D02*
X28512D01*
X28346Y32953D02*
X28540D01*
X28465Y32739D02*
Y33661D01*
X28524Y32919D02*
Y33661D01*
X28346Y33130D02*
X28673D01*
X28346Y33189D02*
X28740D01*
X28346Y33012D02*
X28576D01*
X28346Y33071D02*
X28619D01*
X28583Y33022D02*
Y33661D01*
X28642Y33097D02*
Y33661D01*
X28701Y33156D02*
Y33661D01*
X28346Y33248D02*
X28828D01*
X28346Y33307D02*
X28960D01*
X28760Y33204D02*
Y33661D01*
X28819Y33243D02*
Y33661D01*
X28878Y33274D02*
Y33661D01*
X28937Y33299D02*
Y33661D01*
X28996Y33318D02*
Y33661D01*
X29055Y33332D02*
Y33661D01*
X28346Y33484D02*
X30349D01*
X28346Y33543D02*
X30349D01*
X28346Y33366D02*
X30349D01*
X28346Y33425D02*
X30349D01*
X28346Y33602D02*
X30349D01*
X28346Y33661D02*
X30349D01*
X29114Y33342D02*
Y33661D01*
X29173Y33346D02*
Y33661D01*
X28346D02*
X30349D01*
X30118Y30086D02*
Y33661D01*
X30177Y30145D02*
Y33661D01*
X30236Y30204D02*
Y33661D01*
X30295Y30263D02*
Y33661D01*
X29941Y32696D02*
Y33661D01*
X29882Y32904D02*
Y33661D01*
X30000Y29941D02*
Y33661D01*
X30059Y30027D02*
Y33661D01*
X30413Y32166D02*
Y32638D01*
X29945Y32657D02*
X30349D01*
X30472Y32289D02*
Y32638D01*
X30590Y32415D02*
Y32638D01*
X29909Y32835D02*
X30349D01*
X29887Y32894D02*
X30349D01*
Y32638D02*
Y33661D01*
X29926Y32776D02*
X30349D01*
X29938Y32716D02*
X30349D01*
X29587Y33238D02*
Y33661D01*
X29527Y33271D02*
Y33661D01*
X29705Y33150D02*
Y33661D01*
X29646Y33199D02*
Y33661D01*
X29291Y33341D02*
Y33661D01*
X29232Y33346D02*
Y33661D01*
X29468Y33296D02*
Y33661D01*
X29350Y33331D02*
Y33661D01*
X29409Y33316D02*
Y33661D01*
X29779Y33071D02*
X30349D01*
X29726Y33130D02*
X30349D01*
X29858Y32953D02*
X30349D01*
X29823Y33012D02*
X30349D01*
X29570Y33248D02*
X30349D01*
X29439Y33307D02*
X30349D01*
X29823Y33012D02*
Y33661D01*
X29764Y33089D02*
Y33661D01*
X29658Y33189D02*
X30349D01*
X30519Y29764D02*
X31727D01*
X30578Y29823D02*
X31727D01*
X30637Y29882D02*
X31734D01*
X30696Y29941D02*
X31751D01*
X30756Y30000D02*
X31780D01*
X31181Y30747D02*
Y31580D01*
X30815Y30059D02*
X31826D01*
X30874Y30118D02*
X31885D01*
X30933Y30177D02*
X31944D01*
X31048Y30236D02*
X32003D01*
X31131Y30295D02*
X32062D01*
X31180Y30354D02*
X32121D01*
X31212Y30413D02*
X32181D01*
X31203Y30709D02*
X34823D01*
X31226Y30650D02*
X34823D01*
X28346Y30827D02*
X30644D01*
X31156Y30886D02*
X34823D01*
X31156Y30945D02*
X34823D01*
X31156Y31004D02*
X34823D01*
X31156Y31476D02*
X33819D01*
X31156Y31535D02*
X31884D01*
X31156Y30780D02*
Y31565D01*
X31202Y31594D02*
X31779D01*
X31156Y31063D02*
X34823D01*
X31156Y31122D02*
X34823D01*
X31166Y30768D02*
X34823D01*
X31156Y30827D02*
X34823D01*
X31156Y31358D02*
X34823D01*
X31156Y31417D02*
X34823D01*
X31156Y31181D02*
X34823D01*
X31156Y31299D02*
X34823D01*
X31156Y31240D02*
X34823D01*
X32008Y30241D02*
Y31501D01*
X32067Y30300D02*
Y31496D01*
X31772Y29985D02*
Y31600D01*
X31831Y30063D02*
Y31562D01*
X31890Y30122D02*
Y31533D01*
X31949Y30182D02*
Y31513D01*
X31831Y30064D02*
X32175Y30408D01*
X31231Y30472D02*
X32263D01*
X32126Y30359D02*
Y31498D01*
X32185Y30417D02*
Y31507D01*
X32244Y30462D02*
Y31523D01*
X32303Y30490D02*
Y31547D01*
X32362Y30506D02*
Y31580D01*
X31240Y30552D02*
Y31625D01*
X31269Y31653D02*
X31712D01*
X32421Y30512D02*
Y31625D01*
X31318Y31713D02*
X31663D01*
X31354Y31772D02*
X31627D01*
X31380Y31831D02*
X31601D01*
X31398Y31890D02*
X31583D01*
X31412Y32008D02*
X31569D01*
X31408Y31949D02*
X31573D01*
X31240Y30531D02*
X34823D01*
X31238Y30590D02*
X34823D01*
X32426Y30512D02*
X33701D01*
X32278Y31535D02*
X32992D01*
X32383Y31594D02*
X32887D01*
X32450Y31653D02*
X32820D01*
X32480Y30512D02*
Y31688D01*
X32535Y31772D02*
X32735D01*
X32499Y31713D02*
X32771D01*
X29938Y32480D02*
X30703D01*
X30650Y32454D02*
Y32638D01*
X31122Y32469D02*
Y32638D01*
X31240Y32390D02*
Y32638D01*
X31181Y32436D02*
Y32638D01*
X31358Y32236D02*
Y32638D01*
X31299Y32328D02*
Y32638D01*
X31380Y32185D02*
X31601D01*
X31408Y32067D02*
X31573D01*
X31398Y32126D02*
X31583D01*
X31202Y32421D02*
X31779D01*
X31097Y32480D02*
X31884D01*
X31354Y32244D02*
X31627D01*
X31318Y32303D02*
X31663D01*
X31269Y32362D02*
X31712D01*
X30709Y32483D02*
Y32638D01*
X30768Y32502D02*
Y32638D01*
X30827Y32514D02*
Y32638D01*
X30886Y32519D02*
Y32638D01*
X31004Y32509D02*
Y32638D01*
X30945Y32518D02*
Y32638D01*
X29945Y32539D02*
X32196D01*
X29947Y32598D02*
X32137D01*
X31063Y32493D02*
Y32638D01*
X30349D02*
X31451D01*
Y32716D02*
X31858D01*
X31451Y32657D02*
X31965D01*
X31451Y33366D02*
X31601D01*
X31451Y33425D02*
X31627D01*
X31713Y32363D02*
Y32834D01*
X31451Y32776D02*
X31779D01*
X31772Y32415D02*
Y32781D01*
X31831Y32454D02*
Y32741D01*
X31451Y32638D02*
Y33661D01*
X31594Y32166D02*
Y33031D01*
X31653Y32289D02*
Y32908D01*
X32097Y32638D02*
X32241Y32494D01*
X32185Y32509D02*
Y32550D01*
X32126Y32518D02*
Y32609D01*
X31890Y32483D02*
Y32694D01*
X31949Y32502D02*
Y32663D01*
X32008Y32514D02*
Y32645D01*
X32067Y32519D02*
Y32638D01*
X31451Y33071D02*
X31583D01*
X31451Y33130D02*
X31573D01*
X31451Y32953D02*
X31627D01*
X31451Y33012D02*
X31601D01*
X31451Y33189D02*
X31569D01*
X31451Y33248D02*
X31573D01*
X31451Y33307D02*
X31583D01*
X31594Y33347D02*
Y33661D01*
X31653Y33470D02*
Y33661D01*
X31451Y33484D02*
X31663D01*
X31451Y33543D02*
X31712D01*
X31451Y32835D02*
X31712D01*
X31451Y32894D02*
X31663D01*
X31451Y33602D02*
X31779D01*
X31451Y33661D02*
X31884D01*
X31713Y33544D02*
Y33661D01*
X31772Y33597D02*
Y33661D01*
X31451D02*
X31884D01*
X32539Y27362D02*
Y27607D01*
X32587Y27756D02*
X32683D01*
X32593Y27815D02*
X32678D01*
X32591Y27874D02*
X32679D01*
X32583Y27933D02*
X32687D01*
X32657Y27362D02*
Y28044D01*
X32598Y27362D02*
Y27984D01*
X32835Y27362D02*
Y27465D01*
X32776Y27362D02*
Y27533D01*
X33386Y27362D02*
X33819D01*
X32894D02*
Y27417D01*
X32554Y27638D02*
X32717D01*
X32574Y27697D02*
X32696D01*
X32716Y27362D02*
Y27638D01*
X32606Y27992D02*
X32702D01*
X32665Y28051D02*
X32725D01*
X32716Y28031D02*
Y28103D01*
X32724Y28110D02*
X32758D01*
X32901Y28287D02*
X32950D01*
X32953Y28289D02*
Y28339D01*
X33012Y28315D02*
Y28398D01*
X33071Y28333D02*
Y28457D01*
X32960Y28346D02*
X33181D01*
X33189Y28346D02*
Y28504D01*
X33248Y28343D02*
Y28507D01*
X33197Y28346D02*
X33819D01*
X32577Y27963D02*
X33122Y28508D01*
X33130Y28343D02*
Y28507D01*
X33366Y28315D02*
Y28536D01*
X33307Y28333D02*
Y28518D01*
X33329Y28524D02*
X34230D01*
X33484Y27362D02*
Y27417D01*
X33462Y27402D02*
X33819D01*
X33543Y27362D02*
Y27465D01*
X33538Y27461D02*
X33819D01*
X33602Y27362D02*
Y27533D01*
X33592Y27520D02*
X33819D01*
Y27362D02*
Y28386D01*
X33661Y27362D02*
Y27638D01*
X33632Y27579D02*
X33819D01*
X33661Y27638D02*
X33819D01*
X33682Y27697D02*
X33819D01*
X33695Y27756D02*
X33819D01*
X33699Y27874D02*
X33819D01*
X33691Y27933D02*
X33819D01*
X33700Y27815D02*
X33819D01*
X33620Y28110D02*
X33819D01*
X33576Y28169D02*
X33819D01*
X33676Y27992D02*
X33819D01*
X33653Y28051D02*
X33819D01*
X33428Y28287D02*
X33819D01*
X33425Y28289D02*
Y28562D01*
X33516Y28228D02*
X33819D01*
X33462Y28583D02*
X34097D01*
X34134Y28386D02*
Y28562D01*
X34370Y28386D02*
Y28504D01*
X34311Y28386D02*
Y28507D01*
X34488Y28386D02*
Y28518D01*
X34429Y28386D02*
Y28507D01*
X34252Y28386D02*
Y28518D01*
X34193Y28386D02*
Y28536D01*
X34665Y28386D02*
Y28598D01*
X34547Y28386D02*
Y28536D01*
X34606Y28386D02*
Y28562D01*
X32554Y28819D02*
X32709D01*
X32574Y28878D02*
X32696D01*
X33543Y28204D02*
Y28646D01*
X33484Y28253D02*
Y28598D01*
X32598Y28708D02*
Y29294D01*
X32587Y28937D02*
X32683D01*
X32657Y28767D02*
Y29292D01*
X33538Y28642D02*
X34021D01*
X33592Y28701D02*
X33967D01*
X33602Y28137D02*
Y28714D01*
X33632Y28760D02*
X33927D01*
X33661Y28032D02*
Y28819D01*
X33661Y28819D02*
X33898D01*
X33695Y28937D02*
X33864D01*
X33682Y28878D02*
X33877D01*
X32583Y29114D02*
X32687D01*
X32568Y29173D02*
X32702D01*
X32593Y28996D02*
X32678D01*
X32591Y29055D02*
X32679D01*
X32545Y29232D02*
X32725D01*
X32539Y29244D02*
Y29305D01*
X32716Y29212D02*
Y29300D01*
X33602Y29318D02*
Y29390D01*
X33653Y29232D02*
X33792D01*
X33620Y29291D02*
X33733D01*
X33691Y29114D02*
X33868D01*
X33676Y29173D02*
X33851D01*
X33538Y29390D02*
X33634D01*
X33876Y29148D01*
X33661Y29213D02*
Y29363D01*
X33576Y29350D02*
X33674D01*
X33898Y28386D02*
Y28819D01*
X33700Y28996D02*
X33859D01*
X34016Y28386D02*
Y28646D01*
X33957Y28386D02*
Y28714D01*
X33720Y27362D02*
Y29304D01*
X33699Y29055D02*
X33860D01*
X33779Y27362D02*
Y29244D01*
X33839Y28386D02*
Y29185D01*
X34724Y28386D02*
Y28646D01*
X34075Y28386D02*
Y28598D01*
X34842Y28386D02*
Y28819D01*
X34783Y28386D02*
Y28714D01*
X33929Y29818D02*
X34238Y29510D01*
X34842Y29213D02*
Y29323D01*
X34016Y29732D02*
Y29895D01*
X33957Y29791D02*
Y29838D01*
X34220Y29527D02*
X34323D01*
X34075Y29673D02*
Y30001D01*
X34193Y29555D02*
Y31457D01*
X34134Y29614D02*
Y31457D01*
X34252Y29514D02*
Y31457D01*
X34311Y29524D02*
Y31457D01*
X34370Y29574D02*
Y31457D01*
X34043Y29705D02*
X34500D01*
X33984Y29764D02*
X34559D01*
X34161Y29587D02*
X34382D01*
X34102Y29646D02*
X34441D01*
X34321Y29525D02*
X34823Y30027D01*
X34429Y29633D02*
Y31457D01*
X34488Y29693D02*
Y31457D01*
X34547Y29752D02*
Y31457D01*
X34606Y29811D02*
Y31457D01*
X35551Y27362D02*
Y27887D01*
X35492Y27362D02*
Y27951D01*
X35669Y27362D02*
Y27794D01*
X35610Y27362D02*
Y27836D01*
X34921Y27362D02*
Y28386D01*
X35433Y27362D02*
Y28034D01*
X35374Y27362D02*
Y28153D01*
X34921Y27461D02*
X36969D01*
X34921Y27520D02*
X36969D01*
X34921Y27362D02*
X36969D01*
X34921Y27402D02*
X36969D01*
X34921Y27579D02*
X36969D01*
X34921Y27638D02*
X36969D01*
X35728Y27362D02*
Y27760D01*
X34921Y27756D02*
X35737D01*
X34921Y27697D02*
X35901D01*
X34921Y28346D02*
X35327D01*
X33819Y28386D02*
X34921D01*
Y28228D02*
X35349D01*
X34921Y28287D02*
X35336D01*
X33019Y28405D02*
X35323D01*
X33078Y28465D02*
X35324D01*
X34510Y28524D02*
X35329D01*
X34643Y28583D02*
X35340D01*
X34921Y27933D02*
X35508D01*
X34921Y27992D02*
X35461D01*
X34921Y27815D02*
X35638D01*
X34921Y27874D02*
X35565D01*
X34719Y28642D02*
X35355D01*
X34773Y28701D02*
X35375D01*
X34921Y28051D02*
X35423D01*
X34921Y28169D02*
X35368D01*
X34921Y28110D02*
X35392D01*
X36024Y27362D02*
Y27679D01*
X35965Y27362D02*
Y27685D01*
X36201Y27362D02*
Y27689D01*
X36142Y27362D02*
Y27681D01*
X35846Y27362D02*
Y27712D01*
X35787Y27362D02*
Y27733D01*
X36260Y27362D02*
Y27701D01*
X35905Y27362D02*
Y27696D01*
X36378Y27362D02*
Y27743D01*
X36319Y27362D02*
Y27719D01*
X36496Y27362D02*
Y27810D01*
X36437Y27362D02*
Y27773D01*
X36614Y27362D02*
Y27911D01*
X36555Y27362D02*
Y27855D01*
X36791Y27362D02*
Y28224D01*
X36673Y27362D02*
Y27982D01*
X36732Y27362D02*
Y28076D01*
X36083Y27362D02*
Y27677D01*
X36241Y27697D02*
X36969D01*
X36405Y27756D02*
X36969D01*
X36503Y27815D02*
X36969D01*
X36577Y27874D02*
X36969D01*
X36634Y27933D02*
X36969D01*
X36681Y27992D02*
X36969D01*
X36749Y28110D02*
X36969D01*
X36719Y28051D02*
X36969D01*
X36774Y28169D02*
X36969D01*
X36793Y28228D02*
X36969D01*
X36806Y28287D02*
X36969D01*
X36815Y28346D02*
X36969D01*
X36802Y28583D02*
X36969D01*
X36787Y28642D02*
X36969D01*
X36819Y28405D02*
X36969D01*
X36812Y28524D02*
X36969D01*
X36818Y28465D02*
X36969D01*
X34961Y27362D02*
Y29441D01*
X34902Y28386D02*
Y29382D01*
X35079Y27362D02*
Y29559D01*
X35020Y27362D02*
Y29500D01*
X35197Y27362D02*
Y29677D01*
X35138Y27362D02*
Y29618D01*
X35315Y27362D02*
Y29823D01*
X35256Y27362D02*
Y29736D01*
X34813Y28760D02*
X35402D01*
X34843Y28819D02*
X35435D01*
X34863Y28878D02*
X35475D01*
X34876Y28937D02*
X35525D01*
X35374Y28697D02*
Y32327D01*
X35433Y28816D02*
Y32208D01*
X35492Y28899D02*
Y32125D01*
X34872Y29114D02*
X35779D01*
X34857Y29173D02*
X36062D01*
X34882Y28996D02*
X35587D01*
X34880Y29055D02*
X35667D01*
X34805Y29286D02*
X35259Y29740D01*
X34811Y29291D02*
X36969D01*
X34834Y29232D02*
X36969D01*
X34870Y29350D02*
X36969D01*
X34929Y29409D02*
X36969D01*
X34988Y29468D02*
X36969D01*
X35047Y29527D02*
X36969D01*
X35106Y29587D02*
X36969D01*
X35165Y29646D02*
X36969D01*
X35280Y29764D02*
X36969D01*
X35224Y29705D02*
X36969D01*
X35551Y28963D02*
Y32060D01*
X35610Y29015D02*
Y32009D01*
X36614Y28939D02*
Y32084D01*
X36555Y28995D02*
Y32028D01*
X36732Y28775D02*
Y32249D01*
X36673Y28869D02*
Y32155D01*
X36850Y27362D02*
Y33661D01*
X36791Y28627D02*
Y32397D01*
X36707Y28819D02*
X36969D01*
X36666Y28878D02*
X36969D01*
X36766Y28701D02*
X36969D01*
X36740Y28760D02*
X36969D01*
X36616Y28937D02*
X36969D01*
X36554Y28996D02*
X36969D01*
Y27362D02*
Y33661D01*
X36909Y27362D02*
Y33661D01*
X36968Y27362D02*
Y33661D01*
X35965Y29166D02*
Y31858D01*
X36024Y29172D02*
Y31852D01*
X36142Y29170D02*
Y31854D01*
X36083Y29173D02*
Y31850D01*
X35669Y29056D02*
Y31967D01*
X35728Y29090D02*
Y31933D01*
X35787Y29117D02*
Y31906D01*
X35846Y29139D02*
Y31885D01*
X35905Y29155D02*
Y31869D01*
X36201Y29162D02*
Y31862D01*
X36080Y29173D02*
X36969D01*
X36474Y29055D02*
X36969D01*
X36362Y29114D02*
X36969D01*
X36319Y29131D02*
Y31893D01*
X36260Y29149D02*
Y31875D01*
X36496Y29041D02*
Y31983D01*
X36378Y29107D02*
Y31916D01*
X36437Y29078D02*
Y31946D01*
X32835Y30512D02*
Y31639D01*
X32776Y30512D02*
Y31706D01*
X32953Y30512D02*
Y31554D01*
X32894Y30512D02*
Y31590D01*
X32598Y30512D02*
Y32137D01*
X32539Y30512D02*
Y31780D01*
X32716Y30512D02*
Y31811D01*
X32657Y30512D02*
Y32078D01*
X33130Y30512D02*
Y31499D01*
X33071Y30512D02*
Y31510D01*
X33248Y30512D02*
Y31499D01*
X33189Y30512D02*
Y31496D01*
X33366Y30512D02*
Y31528D01*
X33012Y30512D02*
Y31528D01*
X33543Y30512D02*
Y31638D01*
X33425Y30512D02*
Y31554D01*
X33484Y30512D02*
Y31590D01*
X32561Y31831D02*
X32709D01*
X32579Y31890D02*
X32691D01*
X32589Y31949D02*
X32681D01*
X32593Y32008D02*
X32677D01*
X32567Y32168D02*
X32679Y32056D01*
X32589Y32067D02*
X32668D01*
X32579Y32126D02*
X32609D01*
X33307Y30512D02*
Y31510D01*
X33386Y31535D02*
X33819D01*
X33491Y31594D02*
X33819D01*
X33558Y31653D02*
X33819D01*
X33558Y32362D02*
X33819D01*
X33386Y32480D02*
X33819D01*
X33491Y32421D02*
X33819D01*
X33952Y30408D02*
X33990Y30369D01*
X33957Y30403D02*
Y31457D01*
X34075Y30235D02*
Y31457D01*
X34016Y30341D02*
Y31457D01*
X33936Y29823D02*
X34618D01*
X34004Y29882D02*
X34677D01*
X34047Y29941D02*
X34736D01*
X34074Y30000D02*
X34796D01*
X34665Y29870D02*
Y31457D01*
X34724Y29929D02*
Y31457D01*
X34783Y29988D02*
Y31457D01*
X33602Y30512D02*
Y31706D01*
X33607Y31713D02*
X33819D01*
X33661Y30512D02*
Y31811D01*
X33643Y31772D02*
X33819D01*
X33669Y31831D02*
X33819D01*
X33643Y32244D02*
X33819D01*
X33687Y31890D02*
X33819D01*
X33669Y32185D02*
X33819D01*
X33697Y31949D02*
X33819D01*
X33839Y30484D02*
Y31457D01*
X33701Y32008D02*
X33819D01*
X33946Y30413D02*
X34823D01*
X33898Y30452D02*
Y31457D01*
X33687Y32126D02*
X33819D01*
X33607Y32303D02*
X33819D01*
X33697Y32067D02*
X33819D01*
X33189Y32548D02*
Y32677D01*
X33130Y32607D02*
Y32681D01*
X33307Y32506D02*
Y32691D01*
X33248Y32516D02*
Y32681D01*
X33366Y32488D02*
Y32709D01*
X33037Y32700D02*
X33218Y32519D01*
X33484Y32426D02*
Y32771D01*
X33425Y32462D02*
Y32735D01*
X33139Y32598D02*
X34717D01*
X33080Y32657D02*
X34658D01*
X33198Y32539D02*
X33819D01*
X33386Y32716D02*
X34173D01*
X33491Y32776D02*
X34068D01*
X33661Y32205D02*
Y32992D01*
X33543Y32377D02*
Y32820D01*
X33602Y32310D02*
Y32887D01*
X33669Y33012D02*
X33890D01*
X33543Y33558D02*
Y33661D01*
X33687Y33071D02*
X33872D01*
X33669Y33366D02*
X33890D01*
X33484Y33607D02*
Y33661D01*
X33661Y33386D02*
Y33661D01*
X33602Y33491D02*
Y33661D01*
X33558Y32835D02*
X34001D01*
X33607Y32894D02*
X33952D01*
X33643Y32953D02*
X33916D01*
X33643Y33425D02*
X33916D01*
X33386Y33661D02*
X34173D01*
X33386Y33661D02*
X34173D01*
X33607Y33484D02*
X33952D01*
X33558Y33543D02*
X34001D01*
X33491Y33602D02*
X34068D01*
X33819Y31457D02*
Y32559D01*
X33957D02*
Y32887D01*
X34075Y32559D02*
Y32771D01*
X34016Y32559D02*
Y32820D01*
X33779Y30503D02*
Y33661D01*
X33720Y30511D02*
Y33661D01*
X33898Y32559D02*
Y32992D01*
X33839Y32559D02*
Y33661D01*
X33819Y32559D02*
X34756D01*
X34724D02*
Y32591D01*
X34665Y32559D02*
Y32650D01*
X34193Y32559D02*
Y32709D01*
X34134Y32559D02*
Y32735D01*
X34606Y32559D02*
Y32709D01*
X34252Y32559D02*
Y32691D01*
X34589Y32726D02*
X34756Y32559D01*
X33697Y33130D02*
X33862D01*
X33697Y33248D02*
X33862D01*
X34311Y32559D02*
Y32681D01*
X33701Y33189D02*
X33858D01*
X33687Y33307D02*
X33872D01*
X33898Y33386D02*
Y33661D01*
X33957Y33491D02*
Y33661D01*
X34016Y33558D02*
Y33661D01*
X34075Y33607D02*
Y33661D01*
X34429Y32559D02*
Y32681D01*
X34370Y32559D02*
Y32677D01*
X34547Y32559D02*
Y32709D01*
X34488Y32559D02*
Y32691D01*
X34567Y32716D02*
X34599D01*
X34783Y33491D02*
Y33661D01*
X34665Y33607D02*
Y33661D01*
X34724Y33558D02*
Y33661D01*
X34090Y30059D02*
X34823D01*
X34090Y30177D02*
X34823D01*
X35335Y30000D02*
X36969D01*
X34094Y30118D02*
X34823D01*
X34047Y30295D02*
X34823D01*
X34004Y30354D02*
X34823D01*
Y30027D02*
Y31457D01*
X34074Y30236D02*
X34823D01*
X35315Y29823D02*
X36969D01*
X35332Y29882D02*
X36969D01*
X35335Y29941D02*
X36969D01*
X35335Y30059D02*
X36969D01*
X35335Y30295D02*
X36969D01*
X35335Y30354D02*
X36969D01*
X35335Y30118D02*
X36969D01*
X35335Y30236D02*
X36969D01*
X35335Y30177D02*
X36969D01*
X35335Y30413D02*
X36969D01*
X33863Y30472D02*
X34823D01*
X35335Y30531D02*
X36969D01*
X35335Y30650D02*
X36969D01*
X35335Y30827D02*
X36969D01*
X33819Y31457D02*
X34823D01*
X35335Y30709D02*
X36969D01*
X35335Y30768D02*
X36969D01*
X35335Y30945D02*
X36969D01*
X35335Y31004D02*
X36969D01*
X35335Y30590D02*
X36969D01*
X35335Y30886D02*
X36969D01*
X35335Y31240D02*
X36969D01*
X35335Y31299D02*
X36969D01*
X35335Y31063D02*
X36969D01*
X35335Y31181D02*
X36969D01*
X35335Y31122D02*
X36969D01*
X35335Y31535D02*
X36969D01*
X35335Y31890D02*
X35832D01*
X35335Y31417D02*
X36969D01*
X35335Y31476D02*
X36969D01*
X35335Y29921D02*
Y32466D01*
Y31949D02*
X35700D01*
X35335Y31594D02*
X36969D01*
X35335Y31653D02*
X36969D01*
X35335Y30472D02*
X36969D01*
X35335Y31358D02*
X36969D01*
X35335Y31713D02*
X36969D01*
X35335Y31772D02*
X36969D01*
X35335Y31831D02*
X36969D01*
X36442Y31949D02*
X36969D01*
X36310Y31890D02*
X36969D01*
X35335Y32008D02*
X35612D01*
X35335Y32067D02*
X35545D01*
X36530Y32008D02*
X36969D01*
X35335Y32126D02*
X35491D01*
X35335Y32185D02*
X35447D01*
X35335Y32244D02*
X35412D01*
X36651Y32126D02*
X36969D01*
X35335Y32303D02*
X35384D01*
X36694Y32185D02*
X36969D01*
X36597Y32067D02*
X36969D01*
X36730Y32244D02*
X36969D01*
X36758Y32303D02*
X36969D01*
X36781Y32362D02*
X36969D01*
X36798Y32421D02*
X36969D01*
X36809Y32480D02*
X36969D01*
X36817Y32539D02*
X36969D01*
X36817Y32657D02*
X36969D01*
X36819Y32598D02*
X36969D01*
X34881Y33158D02*
X35259Y32780D01*
X35079Y32960D02*
Y33661D01*
X35138Y32901D02*
Y33661D01*
X35197Y32842D02*
Y33661D01*
X35020Y33019D02*
Y33661D01*
X35315Y32697D02*
Y33661D01*
X35256Y32783D02*
Y33661D01*
X35204Y32835D02*
X35361D01*
X35145Y32894D02*
X35384D01*
X35263Y32776D02*
X35344D01*
X35086Y32953D02*
X35412D01*
X35027Y33012D02*
X35447D01*
X35374Y32870D02*
Y33661D01*
X34882Y33189D02*
X35612D01*
X34968Y33071D02*
X35491D01*
X34909Y33130D02*
X35544D01*
X34842Y33386D02*
Y33661D01*
X34961Y33079D02*
Y33661D01*
X34902Y33138D02*
Y33661D01*
X34850Y33366D02*
X36969D01*
X34824Y33425D02*
X36969D01*
X34878Y33248D02*
X35700D01*
X34868Y33307D02*
X35831D01*
X34567Y33661D02*
X36969D01*
X34567Y33661D02*
X36969D01*
X34788Y33484D02*
X36969D01*
X34672Y33602D02*
X36969D01*
X34739Y33543D02*
X36969D01*
X36614Y33113D02*
Y33661D01*
X36555Y33169D02*
Y33661D01*
X36732Y32948D02*
Y33661D01*
X36673Y33042D02*
Y33661D01*
X35433Y32989D02*
Y33661D01*
X35492Y33072D02*
Y33661D01*
X35551Y33136D02*
Y33661D01*
X35610Y33188D02*
Y33661D01*
X36781Y32835D02*
X36969D01*
X36758Y32894D02*
X36969D01*
X36810Y32716D02*
X36969D01*
X36798Y32776D02*
X36969D01*
X36651Y33071D02*
X36969D01*
X36597Y33130D02*
X36969D01*
X36791Y32800D02*
Y33661D01*
X36694Y33012D02*
X36969D01*
X36730Y32953D02*
X36969D01*
X35965Y33339D02*
Y33661D01*
X36024Y33345D02*
Y33661D01*
X36142Y33343D02*
Y33661D01*
X36083Y33346D02*
Y33661D01*
X35669Y33229D02*
Y33661D01*
X35728Y33263D02*
Y33661D01*
X35787Y33291D02*
Y33661D01*
X35846Y33312D02*
Y33661D01*
X35905Y33328D02*
Y33661D01*
X36319Y33304D02*
Y33661D01*
X36311Y33307D02*
X36969D01*
X36530Y33189D02*
X36969D01*
X36442Y33248D02*
X36969D01*
X36260Y33322D02*
Y33661D01*
X36201Y33335D02*
Y33661D01*
X36496Y33214D02*
Y33661D01*
X36378Y33281D02*
Y33661D01*
X36437Y33251D02*
Y33661D01*
D11*
X30236Y29843D02*
X30900Y30506D01*
X34370Y29213D02*
X35079Y29921D01*
X34370Y33189D02*
X34488D01*
X35079Y32598D01*
Y29921D02*
Y32598D01*
X32081Y28031D02*
X32283D01*
X30236Y28465D02*
Y29843D01*
X32283Y28031D02*
X33248Y28996D01*
X30236Y28465D02*
X30866Y27835D01*
X30900D01*
X32638Y29646D02*
X33740D01*
X34370Y29016D01*
X30900Y30551D02*
Y31811D01*
D12*
X32081Y32992D02*
X32244D01*
X33189Y32047D01*
X33701Y30157D02*
X33740Y30118D01*
X32426Y30157D02*
X33701D01*
X32081Y29813D02*
X32426Y30157D01*
X32081Y29016D02*
Y29813D01*
X30900Y28504D02*
Y29016D01*
X31412D01*
X30900D02*
Y29528D01*
Y32677D02*
Y33189D01*
X30388D02*
X30900D01*
X31412D01*
X34370Y27835D02*
Y28346D01*
X33858Y27835D02*
X34370D01*
X34882D01*
X34370Y31496D02*
Y32008D01*
X33858D02*
X34370D01*
Y32520D01*
D13*
X32081Y29016D02*
D03*
Y27835D02*
D03*
X30900D02*
D03*
X32081Y33189D02*
D03*
Y32008D02*
D03*
X30900D02*
D03*
X33189Y32008D02*
D03*
Y33189D02*
D03*
X34370D02*
D03*
X33189Y27835D02*
D03*
Y29016D02*
D03*
X34370D02*
D03*
D14*
X29199Y28425D02*
D03*
Y32598D02*
D03*
X36071Y32598D02*
D03*
Y28425D02*
D03*
D15*
X30900Y29016D02*
D03*
Y33189D02*
D03*
X34370Y32008D02*
D03*
Y27835D02*
D03*
D16*
X35787Y31260D02*
D03*
X34392Y29941D02*
D03*
X29921Y31220D02*
D03*
X35157Y33425D02*
D03*
X32638Y29646D02*
D03*
X29173Y29823D02*
D03*
X30886Y30551D02*
D03*
X31496Y31476D02*
D03*
X33740Y30118D02*
D03*
X34567Y30768D02*
D03*
X31004Y29882D02*
D03*
M02*
