G04 Layer_Physical_Order=2*
G04 Layer_Color=16711680*
%FSLAX24Y24*%
%MOIN*%
G70*
G01*
G75*
%ADD10C,0.0197*%
%ADD11R,0.0394X0.0354*%
%ADD12R,0.0354X0.0276*%
%ADD13R,0.0354X0.0394*%
%ADD14R,0.0276X0.0354*%
%ADD16R,0.0453X0.0571*%
%ADD18O,0.0591X0.0281*%
%ADD19C,0.0472*%
G04:AMPARAMS|DCode=22|XSize=86.6mil|YSize=68.9mil|CornerRadius=17.2mil|HoleSize=0mil|Usage=FLASHONLY|Rotation=0.000|XOffset=0mil|YOffset=0mil|HoleType=Round|Shape=RoundedRectangle|*
%AMROUNDEDRECTD22*
21,1,0.0866,0.0344,0,0,0.0*
21,1,0.0522,0.0689,0,0,0.0*
1,1,0.0344,0.0261,-0.0172*
1,1,0.0344,-0.0261,-0.0172*
1,1,0.0344,-0.0261,0.0172*
1,1,0.0344,0.0261,0.0172*
%
%ADD22ROUNDEDRECTD22*%
G04:AMPARAMS|DCode=24|XSize=110.2mil|YSize=59.1mil|CornerRadius=14.8mil|HoleSize=0mil|Usage=FLASHONLY|Rotation=90.000|XOffset=0mil|YOffset=0mil|HoleType=Round|Shape=RoundedRectangle|*
%AMROUNDEDRECTD24*
21,1,0.1102,0.0295,0,0,90.0*
21,1,0.0807,0.0591,0,0,90.0*
1,1,0.0295,0.0148,0.0404*
1,1,0.0295,0.0148,-0.0404*
1,1,0.0295,-0.0148,-0.0404*
1,1,0.0295,-0.0148,0.0404*
%
%ADD24ROUNDEDRECTD24*%
G04:AMPARAMS|DCode=25|XSize=82.7mil|YSize=78.7mil|CornerRadius=19.7mil|HoleSize=0mil|Usage=FLASHONLY|Rotation=180.000|XOffset=0mil|YOffset=0mil|HoleType=Round|Shape=RoundedRectangle|*
%AMROUNDEDRECTD25*
21,1,0.0827,0.0394,0,0,180.0*
21,1,0.0433,0.0787,0,0,180.0*
1,1,0.0394,-0.0217,0.0197*
1,1,0.0394,0.0217,0.0197*
1,1,0.0394,0.0217,-0.0197*
1,1,0.0394,-0.0217,-0.0197*
%
%ADD25ROUNDEDRECTD25*%
%ADD26O,0.0281X0.0591*%
%ADD33C,0.0079*%
%ADD34C,0.0118*%
%ADD35C,0.0394*%
%ADD37C,0.0984*%
%ADD38R,0.0630X0.0630*%
%ADD39C,0.0630*%
%ADD40C,0.1181*%
%ADD41C,0.0709*%
%ADD42R,0.0709X0.0709*%
%ADD43C,0.0748*%
%ADD44C,0.0600*%
%ADD45R,0.0600X0.0600*%
%ADD46R,0.0630X0.0630*%
%ADD47C,0.0236*%
%ADD48C,0.0394*%
%ADD49C,0.0315*%
%ADD50C,0.0787*%
G04:AMPARAMS|DCode=51|XSize=82.7mil|YSize=78.7mil|CornerRadius=19.7mil|HoleSize=0mil|Usage=FLASHONLY|Rotation=270.000|XOffset=0mil|YOffset=0mil|HoleType=Round|Shape=RoundedRectangle|*
%AMROUNDEDRECTD51*
21,1,0.0827,0.0394,0,0,270.0*
21,1,0.0433,0.0787,0,0,270.0*
1,1,0.0394,-0.0197,-0.0217*
1,1,0.0394,-0.0197,0.0217*
1,1,0.0394,0.0197,0.0217*
1,1,0.0394,0.0197,-0.0217*
%
%ADD51ROUNDEDRECTD51*%
%ADD52R,0.0551X0.0413*%
%ADD53R,0.0551X0.0709*%
G04:AMPARAMS|DCode=54|XSize=194.9mil|YSize=70.9mil|CornerRadius=17.7mil|HoleSize=0mil|Usage=FLASHONLY|Rotation=180.000|XOffset=0mil|YOffset=0mil|HoleType=Round|Shape=RoundedRectangle|*
%AMROUNDEDRECTD54*
21,1,0.1949,0.0354,0,0,180.0*
21,1,0.1594,0.0709,0,0,180.0*
1,1,0.0354,-0.0797,0.0177*
1,1,0.0354,0.0797,0.0177*
1,1,0.0354,0.0797,-0.0177*
1,1,0.0354,-0.0797,-0.0177*
%
%ADD54ROUNDEDRECTD54*%
G04:AMPARAMS|DCode=55|XSize=51.2mil|YSize=72mil|CornerRadius=2.6mil|HoleSize=0mil|Usage=FLASHONLY|Rotation=270.000|XOffset=0mil|YOffset=0mil|HoleType=Round|Shape=RoundedRectangle|*
%AMROUNDEDRECTD55*
21,1,0.0512,0.0669,0,0,270.0*
21,1,0.0461,0.0720,0,0,270.0*
1,1,0.0051,-0.0335,-0.0230*
1,1,0.0051,-0.0335,0.0230*
1,1,0.0051,0.0335,0.0230*
1,1,0.0051,0.0335,-0.0230*
%
%ADD55ROUNDEDRECTD55*%
%ADD56R,0.0413X0.0551*%
%ADD57C,0.0335*%
%ADD58C,0.0315*%
%ADD59C,0.0591*%
%ADD60C,0.0630*%
D10*
X36654Y21161D02*
G03*
X36725Y20977I276J0D01*
G01*
X36654Y21161D02*
G03*
X36725Y20977I276J0D01*
G01*
X40965Y20797D02*
G03*
X41339Y20423I374J0D01*
G01*
Y21565D02*
G03*
X40965Y21191I0J-374D01*
G01*
X41772Y20423D02*
G03*
X42146Y20797I0J374D01*
G01*
Y21191D02*
G03*
X41772Y21565I-374J0D01*
G01*
X44449Y21412D02*
G03*
X44798Y21063I349J0D01*
G01*
X45320D02*
G03*
X45669Y21412I0J349D01*
G01*
X46419Y21183D02*
G03*
X46386Y21150I321J-353D01*
G01*
X46657Y21299D02*
G03*
X46497Y21240I82J-470D01*
G01*
X46982D02*
G03*
X46821Y21299I-242J-411D01*
G01*
X44798Y22106D02*
G03*
X44449Y21757I0J-349D01*
G01*
X44361Y22225D02*
G03*
X44576Y22440I-119J334D01*
G01*
X45669Y21757D02*
G03*
X45320Y22106I-349J0D01*
G01*
X33570Y20252D02*
G03*
X33570Y20252I-768J0D01*
G01*
D02*
G03*
X33570Y20252I-768J0D01*
G01*
X33740Y19722D02*
G03*
X33858Y19367I276J-106D01*
G01*
X35187Y20118D02*
G03*
X35382Y20199I0J276D01*
G01*
X35187Y20118D02*
G03*
X35382Y20199I0J276D01*
G01*
X35474Y20291D02*
G03*
X35650Y20561I-120J270D01*
G01*
D02*
G03*
X35615Y20699I-295J0D01*
G01*
X35264Y20842D02*
G03*
X35085Y20681I90J-281D01*
G01*
X33821Y23276D02*
G03*
X33740Y23081I195J-195D01*
G01*
X33821Y23276D02*
G03*
X33740Y23081I195J-195D01*
G01*
X34675Y24016D02*
G03*
X34480Y23935I0J-276D01*
G01*
X34675Y24016D02*
G03*
X34480Y23935I0J-276D01*
G01*
X34803Y21417D02*
G03*
X34884Y21222I276J0D01*
G01*
X34803Y21417D02*
G03*
X34884Y21222I276J0D01*
G01*
X31917Y30140D02*
G03*
X32441Y30482I150J342D01*
G01*
X31917Y30140D02*
G03*
X32441Y30482I150J342D01*
G01*
X33858Y35167D02*
G03*
X33939Y34972I276J0D01*
G01*
X32441Y35813D02*
G03*
X33360Y36057I427J244D01*
G01*
D02*
G03*
X32441Y36301I-492J0D01*
G01*
X33874Y35565D02*
G03*
X33858Y35472I260J-93D01*
G01*
X34360Y36057D02*
G03*
X33874Y35565I-492J0D01*
G01*
X34478Y31722D02*
G03*
X34576Y31486I335J0D01*
G01*
X34478Y31722D02*
G03*
X34576Y31486I335J0D01*
G01*
X33932Y32235D02*
G03*
X34439Y31933I261J-139D01*
G01*
X33998Y32341D02*
G03*
X33932Y32235I195J-195D01*
G01*
X33998Y32341D02*
G03*
X33932Y32235I195J-195D01*
G01*
X34301Y32530D02*
G03*
X34106Y32449I0J-276D01*
G01*
X34439Y31933D02*
G03*
X34464Y31978I-246J163D01*
G01*
X34911Y31151D02*
G03*
X35148Y31053I237J237D01*
G01*
X35494Y30313D02*
G03*
X35413Y30118I195J-195D01*
G01*
X35494Y30313D02*
G03*
X35413Y30118I195J-195D01*
G01*
X34911Y31151D02*
G03*
X35148Y31053I237J237D01*
G01*
X34301Y32530D02*
G03*
X34106Y32449I0J-276D01*
G01*
X34576Y34115D02*
G03*
X34478Y33878I237J-237D01*
G01*
X34576Y34115D02*
G03*
X34478Y33878I237J-237D01*
G01*
X33858Y35167D02*
G03*
X33939Y34972I276J0D01*
G01*
X34110Y34801D02*
G03*
X34675Y34921I270J120D01*
G01*
X33874Y35565D02*
G03*
X33858Y35472I260J-93D01*
G01*
X34310Y35841D02*
G03*
X34360Y36057I-442J217D01*
G01*
X35217Y34616D02*
G03*
X34980Y34518I0J-335D01*
G01*
X35217Y34616D02*
G03*
X34980Y34518I0J-335D01*
G01*
X35123Y34951D02*
G03*
X35210Y34965I0J276D01*
G01*
X35123Y34951D02*
G03*
X35210Y34965I0J276D01*
G01*
X35348Y36166D02*
G03*
X34426Y35841I-480J-109D01*
G01*
X35403Y36171D02*
G03*
X35348Y36166I0J-276D01*
G01*
X35210Y34965D02*
G03*
X35655Y34913I245J165D01*
G01*
X35403Y36171D02*
G03*
X35348Y36166I0J-276D01*
G01*
X36722Y20699D02*
G03*
X36918Y20781I0J276D01*
G01*
X36951Y20750D02*
G03*
X37146Y20669I195J195D01*
G01*
X36951Y20750D02*
G03*
X37146Y20669I195J195D01*
G01*
X38538Y20226D02*
G03*
X38538Y20226I-477J0D01*
G01*
X37707Y20669D02*
G03*
X37902Y20750I0J276D01*
G01*
X37707Y20669D02*
G03*
X37902Y20750I0J276D01*
G01*
X37175Y23071D02*
G03*
X36980Y22990I0J-276D01*
G01*
X37175Y23071D02*
G03*
X36980Y22990I0J-276D01*
G01*
X36557Y29441D02*
G03*
X36752Y29360I195J195D01*
G01*
X36557Y29441D02*
G03*
X36752Y29360I195J195D01*
G01*
X37772Y23423D02*
G03*
X38147Y23268I270J120D01*
G01*
X37756Y28078D02*
G03*
X38327Y27972I276J-106D01*
G01*
Y28986D02*
G03*
X37756Y28880I-295J0D01*
G01*
X37352Y29360D02*
G03*
X37547Y29441I0J276D01*
G01*
X37352Y29360D02*
G03*
X37547Y29441I0J276D01*
G01*
X38039Y23935D02*
G03*
X37844Y24016I-195J-195D01*
G01*
X38039Y23935D02*
G03*
X37844Y24016I-195J-195D01*
G01*
X35866Y30571D02*
G03*
X35671Y30490I0J-276D01*
G01*
X35866Y30571D02*
G03*
X35671Y30490I0J-276D01*
G01*
X35414Y29538D02*
G03*
X36004Y29528I295J-10D01*
G01*
D02*
G03*
X35990Y29618I-295J0D01*
G01*
D02*
G03*
X36179Y29626I83J283D01*
G01*
X35671Y34913D02*
G03*
X35897Y34767I256J148D01*
G01*
Y34767D02*
G03*
X35909Y34656I294J-23D01*
G01*
X36473D02*
G03*
X36484Y34706I-282J89D01*
G01*
X37301Y29974D02*
G03*
X37313Y30069I-362J95D01*
G01*
X37904Y29892D02*
G03*
X37338Y30012I-295J0D01*
G01*
X37313Y30069D02*
G03*
X37057Y30424I-374J0D01*
G01*
X37728Y29622D02*
G03*
X37904Y29892I-120J270D01*
G01*
X37272Y36091D02*
G03*
X37077Y36171I-195J-195D01*
G01*
X37272Y36091D02*
G03*
X37077Y36171I-195J-195D01*
G01*
X37352Y34862D02*
G03*
X37547Y34943I0J276D01*
G01*
X37352Y34862D02*
G03*
X37547Y34943I0J276D01*
G01*
X32943Y39530D02*
G03*
X32249Y38975I-143J-532D01*
G01*
X32441Y36813D02*
G03*
X33360Y37057I427J244D01*
G01*
D02*
G03*
X32441Y37301I-492J0D01*
G01*
X32778Y38446D02*
G03*
X33351Y38997I22J551D01*
G01*
X34360Y37057D02*
G03*
X34360Y37057I-492J0D01*
G01*
X33351Y38997D02*
G03*
X33332Y39140I-551J0D01*
G01*
X33304Y41056D02*
G03*
X33499Y40975I195J195D01*
G01*
X33332Y41807D02*
G03*
X33351Y41950I-532J143D01*
G01*
X33304Y41056D02*
G03*
X33499Y40975I195J195D01*
G01*
X33754Y40226D02*
G03*
X33559Y40146I0J-276D01*
G01*
X33754Y40226D02*
G03*
X33559Y40146I0J-276D01*
G01*
X34468Y39675D02*
G03*
X34665Y39518I198J45D01*
G01*
Y40384D02*
G03*
X34468Y40226I0J-203D01*
G01*
X35444Y40352D02*
G03*
X35335Y40384I-109J-171D01*
G01*
Y39518D02*
G03*
X35537Y39720I0J203D01*
G01*
X34468Y40975D02*
G03*
X34665Y40818I198J45D01*
G01*
Y41684D02*
G03*
X34468Y41526I0J-203D01*
G01*
X35335Y40818D02*
G03*
X35532Y40975I0J203D01*
G01*
Y41526D02*
G03*
X35335Y41684I-198J-45D01*
G01*
X33351Y41950D02*
G03*
X32943Y41418I-551J0D01*
G01*
Y43780D02*
G03*
X33351Y43247I-143J-532D01*
G01*
D02*
G03*
X33332Y43390I-551J0D01*
G01*
X33558Y44281D02*
G03*
X33363Y44200I0J-276D01*
G01*
X33558Y44281D02*
G03*
X33363Y44200I0J-276D01*
G01*
X33351Y46200D02*
G03*
X32943Y45668I-551J0D01*
G01*
X33332Y46057D02*
G03*
X33351Y46200I-532J143D01*
G01*
X34468Y43730D02*
G03*
X34665Y43572I198J45D01*
G01*
Y44439D02*
G03*
X34468Y44281I0J-203D01*
G01*
X35335Y43572D02*
G03*
X35537Y43775I0J203D01*
G01*
Y43966D02*
G03*
X35581Y43943I169J269D01*
G01*
X33500Y45111D02*
G03*
X33694Y45030I195J195D01*
G01*
X33500Y45111D02*
G03*
X33694Y45030I195J195D01*
G01*
X34468D02*
G03*
X34665Y44872I198J45D01*
G01*
Y45739D02*
G03*
X34468Y45581I0J-203D01*
G01*
X35388Y44431D02*
G03*
X35335Y44439I-54J-195D01*
G01*
Y44872D02*
G03*
X35531Y45024I0J203D01*
G01*
X35534Y45575D02*
G03*
X35335Y45739I-199J-40D01*
G01*
X36957Y37839D02*
G03*
X37347Y37449I120J-270D01*
G01*
X35537Y39970D02*
G03*
X35640Y39902I224J225D01*
G01*
X36012Y40000D02*
G03*
X36079Y40195I-251J195D01*
G01*
Y40505D02*
G03*
X35444Y40505I-318J0D01*
G01*
X36244Y40195D02*
G03*
X36286Y40037I318J0D01*
G01*
X36837D02*
G03*
X36879Y40195I-276J158D01*
G01*
Y40505D02*
G03*
X36244Y40505I-318J0D01*
G01*
X37174Y38655D02*
G03*
X37037Y38691I-136J-240D01*
G01*
X36919Y38126D02*
G03*
X37274Y38156I157J250D01*
G01*
X37174Y38655D02*
G03*
X37037Y38691I-136J-240D01*
G01*
X37274Y38596D02*
G03*
X37174Y38655I-197J-220D01*
G01*
X38268Y37063D02*
G03*
X38268Y37063I-492J0D01*
G01*
X37744Y37846D02*
G03*
X37825Y38041I-195J195D01*
G01*
X37744Y37846D02*
G03*
X37825Y38041I-195J195D01*
G01*
X35968Y44055D02*
G03*
X36023Y44235I-262J180D01*
G01*
X36335Y41680D02*
G03*
X35864Y41526I-174J-266D01*
G01*
X36230Y41900D02*
G03*
X36311Y41705I276J0D01*
G01*
X35872Y40975D02*
G03*
X36479Y41105I290J130D01*
G01*
X36230Y41900D02*
G03*
X36311Y41705I276J0D01*
G01*
X36188Y44235D02*
G03*
X36230Y44077I318J0D01*
G01*
X36023Y44545D02*
G03*
X35388Y44545I-318J0D01*
G01*
X35812Y45024D02*
G03*
X36423Y45145I294J121D01*
G01*
Y45455D02*
G03*
X35812Y45575I-318J0D01*
G01*
X36823Y44545D02*
G03*
X36188Y44545I-318J0D01*
G01*
X36479Y41415D02*
G03*
X36427Y41589I-318J0D01*
G01*
X37825Y40856D02*
G03*
X37744Y41051I-276J0D01*
G01*
X37825Y40856D02*
G03*
X37744Y41051I-276J0D01*
G01*
X36781Y44077D02*
G03*
X36823Y44235I-276J158D01*
G01*
X39016Y20945D02*
G03*
X39211Y21026I0J276D01*
G01*
X39016Y20945D02*
G03*
X39211Y21026I0J276D01*
G01*
X39459Y21900D02*
G03*
X39378Y22094I-276J0D01*
G01*
X39459Y21900D02*
G03*
X39378Y22094I-276J0D01*
G01*
Y21193D02*
G03*
X39459Y21388I-195J195D01*
G01*
X39378Y21193D02*
G03*
X39459Y21388I-195J195D01*
G01*
X38630Y22990D02*
G03*
X38435Y23071I-195J-195D01*
G01*
X38630Y22990D02*
G03*
X38435Y23071I-195J-195D01*
G01*
X38907Y22598D02*
G03*
X38827Y22793I-276J0D01*
G01*
X38907Y22598D02*
G03*
X38827Y22793I-276J0D01*
G01*
X39220Y22252D02*
G03*
X39026Y22333I-195J-195D01*
G01*
X39220Y22252D02*
G03*
X39026Y22333I-195J-195D01*
G01*
X40177Y19843D02*
G03*
X40258Y19648I276J0D01*
G01*
X40177Y19843D02*
G03*
X40258Y19648I276J0D01*
G01*
Y21405D02*
G03*
X40177Y21211I195J-195D01*
G01*
X40258Y21405D02*
G03*
X40177Y21211I195J-195D01*
G01*
X40876Y21909D02*
G03*
X40681Y21829I0J-276D01*
G01*
X40876Y21909D02*
G03*
X40681Y21829I0J-276D01*
G01*
X42419D02*
G03*
X42224Y21909I-195J-195D01*
G01*
X42419Y21829D02*
G03*
X42224Y21909I-195J-195D01*
G01*
X42972Y22035D02*
G03*
X42835Y21757I212J-278D01*
G01*
X40965Y22608D02*
G03*
X41339Y22234I374J0D01*
G01*
Y23376D02*
G03*
X40965Y23002I0J-374D01*
G01*
X41772Y22234D02*
G03*
X42146Y22608I0J374D01*
G01*
Y23002D02*
G03*
X41772Y23376I-374J0D01*
G01*
X42293Y22559D02*
G03*
X42648Y22205I354J0D01*
G01*
Y23268D02*
G03*
X42293Y22913I0J-354D01*
G01*
X38327Y27972D02*
G03*
X38307Y28078I-295J0D01*
G01*
X40089Y28433D02*
G03*
X40659Y28327I276J-106D01*
G01*
D02*
G03*
X40640Y28433I-295J0D01*
G01*
X41186Y26309D02*
G03*
X41186Y26309I-477J0D01*
G01*
X41499Y28836D02*
G03*
X41868Y28425I262J-135D01*
G01*
X42293Y24291D02*
G03*
X42648Y23937I354J0D01*
G01*
Y25000D02*
G03*
X42293Y24646I0J-354D01*
G01*
X44242Y23937D02*
G03*
X44404Y23976I0J354D01*
G01*
Y24961D02*
G03*
X44242Y25000I-162J-315D01*
G01*
X43111Y25738D02*
G03*
X42972Y25404I334J-334D01*
G01*
X43111Y25738D02*
G03*
X42972Y25404I334J-334D01*
G01*
X42559Y27598D02*
G03*
X42559Y26988I-138J-305D01*
G01*
X43868Y28425D02*
G03*
X44063Y28506I0J276D01*
G01*
X43868Y28425D02*
G03*
X44063Y28506I0J276D01*
G01*
X44744Y19636D02*
G03*
X44939Y19717I0J276D01*
G01*
X44744Y19636D02*
G03*
X44939Y19717I0J276D01*
G01*
X45876Y20364D02*
G03*
X46071Y20445I0J276D01*
G01*
X45876Y20364D02*
G03*
X46071Y20445I0J276D01*
G01*
X46291Y20665D02*
G03*
X47217Y20829I448J164D01*
G01*
X44596Y22913D02*
G03*
X44242Y23268I-354J0D01*
G01*
X44798Y23976D02*
G03*
X45539Y24465I209J489D01*
G01*
X47217Y20829D02*
G03*
X47197Y20965I-477J0D01*
G01*
X47352D02*
G03*
X47547Y21045I0J276D01*
G01*
X47352Y20965D02*
G03*
X47547Y21045I0J276D01*
G01*
X47646Y21144D02*
G03*
X47724Y21299I-195J195D01*
G01*
X47717Y21412D02*
G03*
X47480Y21613I-266J-73D01*
G01*
Y22238D02*
G03*
X47510Y22362I-246J124D01*
G01*
X47480Y22238D02*
G03*
X47510Y22362I-246J124D01*
G01*
X47350Y22636D02*
G03*
X47156Y22717I-195J-195D01*
G01*
X47350Y22636D02*
G03*
X47156Y22717I-195J-195D01*
G01*
X47510Y22362D02*
G03*
X47429Y22557I-276J0D01*
G01*
X47510Y22362D02*
G03*
X47429Y22557I-276J0D01*
G01*
X47726Y21339D02*
G03*
X47717Y21412I-276J0D01*
G01*
X47724Y21299D02*
G03*
X47726Y21339I-273J39D01*
G01*
X45539Y24465D02*
G03*
X44815Y24961I-531J0D01*
G01*
X44494Y25784D02*
G03*
X45539Y25646I513J-138D01*
G01*
D02*
G03*
X44869Y26159I-531J0D01*
G01*
X45341Y26632D02*
G03*
X45480Y26966I-334J334D01*
G01*
X45341Y26632D02*
G03*
X45480Y26966I-334J334D01*
G01*
X44597Y28583D02*
G03*
X44535Y28001I410J-338D01*
G01*
X45539Y28244D02*
G03*
X45417Y28583I-531J0D01*
G01*
X45480Y28001D02*
G03*
X45539Y28244I-472J243D01*
G01*
X46720Y25646D02*
G03*
X46720Y25646I-531J0D01*
G01*
X48413Y25617D02*
G03*
X48413Y24494I-524J-561D01*
G01*
Y25617D02*
G03*
X48413Y24494I-524J-561D01*
G01*
X46929Y28406D02*
G03*
X46993Y28252I217J0D01*
G01*
X46929Y28406D02*
G03*
X46993Y28252I217J0D01*
G01*
X47504Y27741D02*
G03*
X47657Y27677I153J153D01*
G01*
X47504Y27741D02*
G03*
X47657Y27677I153J153D01*
G01*
X47752D02*
G03*
X48248Y27894I201J217D01*
G01*
X48150Y28113D02*
G03*
X48413Y28274I-261J722D01*
G01*
X48150Y28113D02*
G03*
X48413Y28274I-261J722D01*
G01*
X48248Y27894D02*
G03*
X48150Y28113I-295J0D01*
G01*
X38307Y28880D02*
G03*
X38327Y28986I-276J106D01*
G01*
X40640Y28900D02*
G03*
X40659Y29006I-276J106D01*
G01*
D02*
G03*
X40089Y28900I-295J0D01*
G01*
X40352Y30242D02*
G03*
X40352Y29607I0J-318D01*
G01*
X41035Y29510D02*
G03*
X41230Y29429I195J195D01*
G01*
X41035Y29510D02*
G03*
X41230Y29429I195J195D01*
G01*
X40662Y29607D02*
G03*
X40820Y29649I0J318D01*
G01*
Y30200D02*
G03*
X40662Y30242I-158J-276D01*
G01*
Y30407D02*
G03*
X40820Y30449I0J318D01*
G01*
X40970D02*
G03*
X40970Y30200I292J-124D01*
G01*
X38465Y32165D02*
G03*
X38528Y32012I217J0D01*
G01*
X38465Y32165D02*
G03*
X38528Y32012I217J0D01*
G01*
X38474Y32914D02*
G03*
X38537Y32762I217J0D01*
G01*
D02*
G03*
X38465Y32320I154J-252D01*
G01*
X38474Y32914D02*
G03*
X38537Y32762I217J0D01*
G01*
X39512Y31028D02*
G03*
X39665Y30965I153J153D01*
G01*
X40144D02*
G03*
X40352Y30407I208J-240D01*
G01*
X39512Y31028D02*
G03*
X39665Y30965I153J153D01*
G01*
X38538Y33568D02*
G03*
X38474Y33415I153J-153D01*
G01*
X38538Y33569D02*
G03*
X38474Y33415I153J-153D01*
G01*
X38868Y33809D02*
G03*
X38715Y33745I0J-217D01*
G01*
X38868Y33809D02*
G03*
X38715Y33746I0J-217D01*
G01*
X39852Y34242D02*
G03*
X40226Y33868I374J0D01*
G01*
X40620D02*
G03*
X40994Y34242I0J374D01*
G01*
X41779Y29350D02*
G03*
X41499Y28836I-106J-276D01*
G01*
X41631Y29429D02*
G03*
X42156Y29705I190J276D01*
G01*
D02*
G03*
X41631Y29980I-335J0D01*
G01*
X41572Y30007D02*
G03*
X41890Y30325I0J318D01*
G01*
D02*
G03*
X41863Y30453I-318J0D01*
G01*
Y30453D02*
G03*
X42116Y30778I-81J325D01*
G01*
D02*
G03*
X41939Y31073I-335J0D01*
G01*
X41522Y33745D02*
G03*
X41368Y33809I-153J-153D01*
G01*
X41521Y33746D02*
G03*
X41368Y33809I-153J-153D01*
G01*
X41663Y34242D02*
G03*
X42037Y33868I374J0D01*
G01*
X42431D02*
G03*
X42680Y33963I0J374D01*
G01*
X43237Y31506D02*
G03*
X43258Y31614I-275J108D01*
G01*
D02*
G03*
X43053Y31895I-295J0D01*
G01*
X42680Y33963D02*
G03*
X42736Y33874I273J112D01*
G01*
X42906Y34904D02*
G03*
X43002Y34841I195J195D01*
G01*
X42906Y34904D02*
G03*
X43002Y34841I195J195D01*
G01*
X39114Y35157D02*
G03*
X39309Y35238I0J276D01*
G01*
X39114Y35157D02*
G03*
X39309Y35238I0J276D01*
G01*
X39526Y35455D02*
G03*
X39595Y35571I-195J195D01*
G01*
X39526Y35455D02*
G03*
X39595Y35571I-195J195D01*
G01*
X39606Y36555D02*
G03*
X39526Y36750I-276J0D01*
G01*
X39606Y36555D02*
G03*
X39526Y36750I-276J0D01*
G01*
X39840Y37535D02*
G03*
X40285Y36677I141J-472D01*
G01*
X38622Y37208D02*
G03*
X38564Y36988I276J-190D01*
G01*
X39225Y36948D02*
G03*
X39231Y36988I-327J69D01*
G01*
X39232Y37018D02*
G03*
X39173Y37208I-335J0D01*
G01*
X38703Y38197D02*
G03*
X38622Y38002I195J-195D01*
G01*
X38703Y38197D02*
G03*
X38622Y38002I195J-195D01*
G01*
X39408Y36868D02*
G03*
X39252Y36946I-195J-195D01*
G01*
X39408Y36868D02*
G03*
X39252Y36946I-195J-195D01*
G01*
X39173Y37874D02*
G03*
X39272Y37967I-148J256D01*
G01*
Y38293D02*
G03*
X38756Y38250I-246J-163D01*
G01*
X39841Y37667D02*
G03*
X39840Y37535I287J-69D01*
G01*
X40226Y35049D02*
G03*
X39852Y34675I0J-374D01*
G01*
X40994D02*
G03*
X40620Y35049I-374J0D01*
G01*
X40207Y35571D02*
G03*
X40605Y35294I295J0D01*
G01*
X40605D02*
G03*
X41161Y35433I261J139D01*
G01*
D02*
G03*
X41083Y35634I-295J0D01*
G01*
X42037Y35049D02*
G03*
X41663Y34675I0J-374D01*
G01*
X42800Y34734D02*
G03*
X42431Y35049I-369J-59D01*
G01*
X42697Y35226D02*
G03*
X42778Y35032I276J0D01*
G01*
X42697Y35226D02*
G03*
X42778Y35032I276J0D01*
G01*
X41083Y37266D02*
G03*
X41102Y37372I-276J106D01*
G01*
D02*
G03*
X40538Y37494I-295J0D01*
G01*
X40423Y37610D02*
G03*
X40415Y37667I-295J-11D01*
G01*
X43327Y35827D02*
G03*
X43248Y35817I0J-325D01*
G01*
X43268Y36024D02*
G03*
X42697Y35918I-295J0D01*
G01*
X43248D02*
G03*
X43268Y36024I-276J106D01*
G01*
X44033Y31073D02*
G03*
X44321Y31021I190J226D01*
G01*
Y31578D02*
G03*
X44012Y31506I-98J-278D01*
G01*
X43116Y31959D02*
G03*
X43622Y32165I211J207D01*
G01*
D02*
G03*
X43602Y32271I-295J0D01*
G01*
X44650Y32146D02*
G03*
X44251Y31662I-492J0D01*
G01*
X44641Y32052D02*
G03*
X44650Y32146I-483J93D01*
G01*
X45621Y28583D02*
G03*
X45657Y28585I0J276D01*
G01*
X45621Y28583D02*
G03*
X45657Y28585I0J276D01*
G01*
X46062Y28909D02*
G03*
X46720Y29426I126J516D01*
G01*
D02*
G03*
X46062Y29942I-531J0D01*
G01*
X48413Y29396D02*
G03*
X47445Y29461I-524J-561D01*
G01*
X48413Y29396D02*
G03*
X47445Y29461I-524J-561D01*
G01*
X47445D02*
G03*
X47461Y29557I-279J96D01*
G01*
D02*
G03*
X46929Y29380I-295J0D01*
G01*
X46516Y31590D02*
G03*
X46906Y31201I120J-270D01*
G01*
X47764Y32058D02*
G03*
X47844Y32253I-195J195D01*
G01*
X47764Y32058D02*
G03*
X47844Y32253I-195J195D01*
G01*
X45256Y32844D02*
G03*
X45451Y32925I0J276D01*
G01*
X45256Y32844D02*
G03*
X45451Y32925I0J276D01*
G01*
X45580Y33055D02*
G03*
X46072Y33109I224J225D01*
G01*
X46082Y33745D02*
G03*
X46058Y33782I-277J-155D01*
G01*
D02*
G03*
X46105Y33889I-278J187D01*
G01*
X46072Y33109D02*
G03*
X46328Y33124I109J316D01*
G01*
X46319Y33730D02*
G03*
X46082Y33745I-138J-305D01*
G01*
X46328Y33124D02*
G03*
X46888Y33138I277J156D01*
G01*
D02*
G03*
X47235Y32969I284J142D01*
G01*
X46888Y33732D02*
G03*
X46319Y33730I-284J-142D01*
G01*
X46105Y33889D02*
G03*
X46522Y34190I99J302D01*
G01*
X47255Y34348D02*
G03*
X46890Y33836I-90J-322D01*
G01*
X46522Y34500D02*
G03*
X46480Y34658I-318J0D01*
G01*
X43928Y35610D02*
G03*
X43622Y35827I-306J-108D01*
G01*
X47087Y35394D02*
G03*
X47006Y35589I-276J0D01*
G01*
X47087Y35394D02*
G03*
X47006Y35589I-276J0D01*
G01*
X46915Y35680D02*
G03*
X47165Y36004I-84J324D01*
G01*
D02*
G03*
X47106Y36194I-335J0D01*
G01*
X47235Y32969D02*
G03*
X47293Y32792I334J14D01*
G01*
X47844D02*
G03*
X47903Y32970I-276J190D01*
G01*
X47293Y34651D02*
G03*
X47255Y34500I279J-151D01*
G01*
X47890D02*
G03*
X47844Y34664I-318J0D01*
G01*
X47848Y34032D02*
G03*
X47890Y34190I-276J158D01*
G01*
X47903Y32970D02*
G03*
X48290Y33280I69J310D01*
G01*
Y33590D02*
G03*
X47848Y33882I-318J0D01*
G01*
X47844Y36437D02*
G03*
X47764Y36632I-276J0D01*
G01*
X47844Y36437D02*
G03*
X47764Y36632I-276J0D01*
G01*
X47748Y36647D02*
G03*
X48413Y36828I152J753D01*
G01*
X47748Y36647D02*
G03*
X48413Y36828I152J753D01*
G01*
X36506Y43080D02*
Y44390D01*
X38041Y23543D02*
X38898D01*
X35187Y20394D02*
X35354Y20561D01*
X34646Y20394D02*
X35187D01*
X34675Y23740D02*
X37844D01*
X34016Y23081D02*
X34675Y23740D01*
X34016Y19616D02*
Y23081D01*
X37844Y23740D02*
X38041Y23543D01*
X46811Y35030D02*
Y35394D01*
X46199Y36006D02*
X46811Y35394D01*
X46199Y36006D02*
Y36554D01*
X46201Y35030D02*
X46204Y35026D01*
Y34345D02*
Y35026D01*
X46831Y36004D02*
Y37096D01*
X46841Y37106D01*
X47116Y36890D02*
Y39793D01*
Y36890D02*
X47569Y36437D01*
Y35659D02*
Y36437D01*
X46813Y40097D02*
X47116Y39793D01*
X46841Y37106D02*
X46841Y37106D01*
X32800Y46200D02*
X33694Y45306D01*
X35000D01*
X32800Y43247D02*
X33558Y44006D01*
X35000D01*
Y45306D02*
X35006Y45300D01*
X36106D01*
X37077Y37569D02*
X37549Y38041D01*
Y40856D01*
X36506Y41900D02*
X37549Y40856D01*
X36506Y41900D02*
Y42470D01*
X37037Y38415D02*
X37077Y38376D01*
X36565Y38415D02*
X37037D01*
X36152Y41251D02*
X36161Y41260D01*
X35000Y41251D02*
X36152D01*
X32800Y38997D02*
X33754Y39951D01*
X35000D01*
X32800Y41950D02*
X33499Y41251D01*
X35000D01*
X36561Y39649D02*
X36565Y39646D01*
X36561Y39649D02*
Y40350D01*
X36565Y39026D02*
X36565Y39025D01*
X36565Y39026D02*
Y39646D01*
X34508Y35226D02*
X35123D01*
X37077Y35896D02*
X37234Y35738D01*
Y35610D02*
Y35738D01*
X34134Y35167D02*
X34380Y34921D01*
X34134Y35167D02*
Y35472D01*
X37776Y36063D02*
X38898D01*
Y36673D02*
Y37018D01*
X41496Y32392D02*
X41506Y32382D01*
Y31988D02*
Y32382D01*
X41555Y32923D02*
X41687Y32792D01*
X42406D01*
X44734Y33858D02*
X45197D01*
X45423Y34085D01*
Y34469D01*
X45600Y34646D01*
X46171Y33435D02*
X46181Y33425D01*
X45780Y33968D02*
Y34264D01*
X46199Y38916D02*
X46841Y38274D01*
Y37106D02*
Y38274D01*
X45433Y35098D02*
X45600Y35266D01*
X44734Y35098D02*
X45433D01*
X45861Y34345D02*
X46204D01*
X45780Y34264D02*
X45861Y34345D01*
X47165Y33442D02*
X47172Y33435D01*
X47165Y33442D02*
Y34026D01*
X45804Y33435D02*
X46171D01*
X46199Y36554D02*
X46201Y36552D01*
X47569Y32982D02*
X47572Y32986D01*
Y34345D01*
X46199Y40097D02*
X46813D01*
X47569Y34349D02*
X47572Y34345D01*
X47569Y34349D02*
Y35049D01*
X42421Y27293D02*
X42963D01*
X40709Y24931D02*
X40709Y24931D01*
X41762Y28701D02*
X43868D01*
X44026Y28858D01*
X45621D01*
X46188Y29426D01*
X36781Y30226D02*
Y31388D01*
X36181Y30413D02*
Y31388D01*
X36486Y29902D02*
X36752Y29636D01*
X37352D01*
X37608Y29892D01*
X39990Y31486D02*
X40768D01*
X39409Y31900D02*
X40394D01*
X40561Y32067D01*
X36191Y34281D02*
Y34744D01*
X35477Y35581D02*
X36821D01*
X35123Y35226D02*
X35477Y35581D01*
X35403Y35896D02*
X37077D01*
X35072Y35565D02*
X35403Y35896D01*
X34226Y35565D02*
X35072D01*
X34134Y35472D02*
X34226Y35565D01*
X34301Y32254D02*
X34813D01*
X38031Y27972D02*
Y28986D01*
X40364Y28327D02*
Y29006D01*
X45256Y33120D02*
X45571Y33435D01*
X45804D01*
X36063Y30295D02*
X36181Y30413D01*
X35866Y30295D02*
X36063D01*
X35689Y30118D02*
X35866Y30295D01*
X35689Y29547D02*
Y30118D01*
X36781Y30226D02*
X36939Y30069D01*
X36073Y29902D02*
X36486D01*
X35689Y29547D02*
X35709Y29528D01*
X36191Y34744D02*
Y34803D01*
X36526Y35138D01*
X37352D01*
X37648Y35433D01*
X39114D01*
X39331Y35650D01*
X38898Y36673D02*
X39213D01*
X39331Y35650D02*
Y36555D01*
X39213Y36673D02*
X39331Y36555D01*
X38957Y33297D02*
X41181D01*
X41555Y32923D01*
X40925Y31978D02*
Y32697D01*
Y31978D02*
X41299Y31604D01*
X42953D01*
X40659Y32963D02*
X40925Y32697D01*
X38976Y32963D02*
X40659D01*
X38681Y32500D02*
X38691Y32510D01*
X38976Y32333D02*
X39409Y31900D01*
X38898Y38002D02*
X39026Y38130D01*
X38898Y37018D02*
Y38002D01*
X34193Y32146D02*
X34301Y32254D01*
X34193Y32096D02*
Y32146D01*
X42234Y34459D02*
X43091D01*
X43474Y34075D01*
Y33858D02*
Y34075D01*
X42963Y32657D02*
X43474Y33169D01*
Y33858D01*
X43947Y33120D02*
X45256D01*
X43327Y32500D02*
X43947Y33120D01*
X42953Y31604D02*
X42963Y31614D01*
X42406Y31992D02*
X42759D01*
X42963Y32195D01*
X43327Y32165D02*
Y32500D01*
X46636Y31320D02*
X47569Y32253D01*
Y32982D01*
X40507Y30725D02*
X41443D01*
X41496Y30778D01*
X41782D01*
X42648Y29075D02*
Y30384D01*
X42648Y29075D02*
X42648Y29075D01*
X41673Y29075D02*
X42648D01*
X43396Y30384D02*
X44114D01*
X44596Y30866D01*
Y31707D01*
X44157Y32146D02*
X44596Y31707D01*
X40507Y29925D02*
X41010D01*
X41230Y29705D01*
X41821D01*
X45157Y30456D02*
X46188Y29426D01*
X45157Y30456D02*
Y32146D01*
X42648Y29075D02*
X43632D01*
X43983Y29426D01*
X45007D01*
X42963Y32195D02*
Y32657D01*
X42972Y35226D02*
Y36024D01*
Y35226D02*
X43100Y35098D01*
X43474D01*
X36929Y21161D02*
X37146Y20945D01*
X36929Y21161D02*
Y22549D01*
X37008Y21083D02*
Y22628D01*
X37638Y20945D02*
Y21749D01*
X37087Y21004D02*
Y22707D01*
X37146Y20945D02*
X37707D01*
X37323D02*
Y22795D01*
X37165Y20945D02*
Y22785D01*
X37244Y20945D02*
Y22795D01*
X37559Y20945D02*
Y22795D01*
X37401Y20945D02*
Y22795D01*
X37480Y20945D02*
Y22795D01*
X36929Y21181D02*
X37943D01*
X36929Y21260D02*
X39055D01*
X36929Y21339D02*
X39134D01*
X37707Y20945D02*
X37982Y21220D01*
X37067Y21024D02*
X37785D01*
X36988Y21102D02*
X37864D01*
X36929Y21417D02*
X39183D01*
X36929Y21575D02*
X39183D01*
X36929Y21496D02*
X39183D01*
X37716Y20955D02*
Y21749D01*
X37795Y21033D02*
Y21749D01*
X36929Y21653D02*
X39183D01*
X36929Y22047D02*
X37584D01*
X36929Y22205D02*
X37584D01*
X36929Y22126D02*
X37584D01*
X36929Y21811D02*
X37584D01*
X36929Y21968D02*
X37584D01*
X36929Y21890D02*
X37584D01*
X36929Y22362D02*
X37584D01*
X36929Y22549D02*
X37175Y22795D01*
X36929Y22441D02*
X37584D01*
Y21749D02*
Y22704D01*
X37057Y22677D02*
X37584D01*
X36929Y22283D02*
X37584D01*
X36929Y21732D02*
X39183D01*
X36978Y22598D02*
X37584D01*
X36929Y22520D02*
X37584D01*
Y21749D02*
X38538D01*
X37584Y22704D02*
X38527D01*
X37638D02*
Y22795D01*
X37175D02*
X38435D01*
X37136Y22756D02*
X38474D01*
X37874Y22704D02*
Y22795D01*
X37716Y22704D02*
Y22795D01*
X37795Y22704D02*
Y22795D01*
X37874Y21112D02*
Y21749D01*
X37953Y21191D02*
Y21749D01*
X38031Y21220D02*
Y21749D01*
X38268Y21220D02*
Y21749D01*
X38110Y21220D02*
Y21749D01*
X38189Y21220D02*
Y21749D01*
X38425Y21220D02*
Y21749D01*
X38346Y21220D02*
Y21749D01*
X38504Y21220D02*
Y21749D01*
X38538D02*
Y22692D01*
X38583Y21220D02*
Y22648D01*
X37982Y21220D02*
X39016D01*
X38538Y21890D02*
X39183D01*
X38538Y21811D02*
X39183D01*
X39016Y21220D02*
X39183Y21388D01*
X39134Y21339D02*
Y21949D01*
X39183Y21388D02*
Y21900D01*
X38819Y21220D02*
Y22057D01*
X38661Y21220D02*
Y22205D01*
X38740Y21220D02*
Y22126D01*
X38898Y21220D02*
Y22057D01*
X38976Y21220D02*
Y22057D01*
X39055Y21260D02*
Y22028D01*
X38031Y22704D02*
Y22795D01*
X38632Y22234D02*
Y22598D01*
X38110Y22704D02*
Y22795D01*
X38538Y22283D02*
X38632D01*
X38268Y22704D02*
Y22795D01*
X37953Y22704D02*
Y22795D01*
X38189Y22704D02*
Y22795D01*
X38435D02*
X38527Y22704D01*
X38346D02*
Y22795D01*
X38425Y22704D02*
Y22795D01*
X38538Y21968D02*
X39114D01*
X38538Y22205D02*
X38661D01*
X38538Y22047D02*
X39035D01*
X39026Y22057D02*
X39183Y21900D01*
X38538Y22126D02*
X38740D01*
X38809Y22057D02*
X39026D01*
X38538Y22520D02*
X38632D01*
X38538Y22692D02*
X38632Y22598D01*
X38538Y22598D02*
X38632D01*
Y22234D02*
X38809Y22057D01*
X38538Y22441D02*
X38632D01*
X38538Y22362D02*
X38632D01*
X35590Y20974D02*
Y21417D01*
X35748Y20974D02*
Y21417D01*
X35669Y20974D02*
Y21417D01*
X35079D02*
X35522Y20974D01*
X35512Y20984D02*
Y21417D01*
X35433Y21063D02*
Y21417D01*
X35394Y21102D02*
X36660D01*
X35522Y20974D02*
X36722D01*
X35472Y21024D02*
X36690D01*
X35827Y20974D02*
Y21417D01*
X35984Y20974D02*
Y21417D01*
X35905Y20974D02*
Y21417D01*
X35118Y21378D02*
Y21417D01*
X35276Y21221D02*
Y21417D01*
X35197Y21299D02*
Y21417D01*
X35079D02*
X35551D01*
X35354Y21142D02*
Y21417D01*
X35158Y21339D02*
X36654D01*
X35315Y21181D02*
X36654D01*
X35236Y21260D02*
X36654D01*
X35079Y21417D02*
X36654D01*
X35551Y21417D02*
X35669D01*
X36457D01*
X35551D02*
X35669D01*
X36299Y20974D02*
Y21417D01*
X36457Y20974D02*
Y21417D01*
X36378Y20974D02*
Y21417D01*
X36063Y20974D02*
Y21417D01*
X36220Y20974D02*
Y21417D01*
X36142Y20974D02*
Y21417D01*
X36693Y20974D02*
Y21020D01*
X36535Y20974D02*
Y22215D01*
X36457Y21417D02*
Y22165D01*
X36614Y20974D02*
Y22215D01*
X36654Y21161D02*
Y22215D01*
X36457Y21653D02*
X36654D01*
X36457Y21496D02*
X36654D01*
X36457Y21575D02*
X36654D01*
X36457Y21732D02*
X36654D01*
X36457Y21968D02*
X36654D01*
X36457Y21811D02*
X36654D01*
X36457Y21890D02*
X36654D01*
X36457Y22205D02*
X36654D01*
X36457Y22215D02*
X36654D01*
X36457Y22047D02*
X36654D01*
X36457Y22126D02*
X36654D01*
X40453Y19843D02*
X40929Y19367D01*
X42191D01*
X41260D02*
Y20432D01*
X40925Y19370D02*
X42195D01*
X41181Y19367D02*
Y20458D01*
X40847Y19449D02*
X42274D01*
X40768Y19528D02*
X42352D01*
X41732Y19367D02*
Y20423D01*
X41653Y19367D02*
Y20423D01*
X41811Y19367D02*
Y20425D01*
X41890Y19367D02*
Y20442D01*
X41417Y19367D02*
Y20423D01*
X41339Y19367D02*
Y20423D01*
X41575Y19367D02*
Y20423D01*
X41496Y19367D02*
Y20423D01*
X40709Y19587D02*
Y21466D01*
X40787Y19508D02*
Y21545D01*
X40866Y19429D02*
Y21624D01*
X40945Y19367D02*
Y21634D01*
X40453Y19843D02*
Y21211D01*
X40472Y19823D02*
Y21230D01*
X40551Y19744D02*
Y21309D01*
X40630Y19665D02*
Y21388D01*
X41102Y19367D02*
Y20507D01*
X41024Y19367D02*
Y20596D01*
X41968Y19367D02*
Y20479D01*
X42047Y19367D02*
Y20544D01*
X42126Y19367D02*
Y20677D01*
X42205Y19380D02*
Y21634D01*
X42362Y19537D02*
Y21496D01*
X42283Y19459D02*
Y21575D01*
X40532Y19764D02*
X42589D01*
X40453Y19842D02*
X42667D01*
X40453Y19921D02*
X44754D01*
X40453Y20000D02*
X44833D01*
X40453Y20079D02*
X44911D01*
X40453Y20157D02*
X44990D01*
X40453Y20236D02*
X45069D01*
X40453Y20315D02*
X45148D01*
X40689Y19606D02*
X42431D01*
X40610Y19685D02*
X42510D01*
X42736Y19911D02*
X44744D01*
X42191Y19367D02*
X42736Y19911D01*
X42992D02*
Y20974D01*
X42913Y19911D02*
Y20974D01*
X43150Y19911D02*
Y20974D01*
X43071Y19911D02*
Y20974D01*
X42520Y19695D02*
Y21339D01*
X42441Y19616D02*
Y21417D01*
X42677Y19852D02*
Y21181D01*
X42598Y19774D02*
Y21260D01*
X42835Y19911D02*
Y21024D01*
X42756Y19911D02*
Y21102D01*
X43307Y19911D02*
Y20974D01*
X43228Y19911D02*
Y20974D01*
X43779Y19911D02*
Y20974D01*
X43701Y19911D02*
Y20974D01*
X43858Y19911D02*
Y21014D01*
X43937Y19911D02*
Y21092D01*
X43464Y19911D02*
Y20974D01*
X43386Y19911D02*
Y20974D01*
X43622Y19911D02*
Y20974D01*
X43543Y19911D02*
Y20974D01*
X40453Y20630D02*
X41004D01*
X40453Y20709D02*
X40975D01*
X40453Y20472D02*
X41153D01*
X40453Y20551D02*
X41057D01*
X40453Y20945D02*
X40965D01*
X40453Y21024D02*
X40965D01*
X40453Y20787D02*
X40965D01*
X40453Y20866D02*
X40965D01*
Y20797D02*
Y21191D01*
X41339Y20423D02*
X41772D01*
X40453Y21102D02*
X40965D01*
X40453Y21181D02*
X40965D01*
X40502Y21260D02*
X40971D01*
X40581Y21339D02*
X40995D01*
X40453Y21211D02*
X40876Y21634D01*
X41024Y21393D02*
Y21634D01*
X40659Y21417D02*
X41041D01*
X41102Y21481D02*
Y21634D01*
X40738Y21496D02*
X41122D01*
X41181Y21530D02*
Y21634D01*
X41339Y21565D02*
Y21634D01*
X41260Y21557D02*
Y21634D01*
X41417Y21565D02*
Y21634D01*
X41575Y21565D02*
Y21634D01*
X41496Y21565D02*
Y21634D01*
X41732Y21565D02*
Y21634D01*
X41653Y21565D02*
Y21634D01*
X40453Y20394D02*
X45226D01*
X41957Y20472D02*
X45305D01*
X42053Y20551D02*
X45384D01*
X42106Y20630D02*
X45463D01*
X42135Y20709D02*
X45945D01*
X42146Y20787D02*
X46024D01*
X42884Y20974D02*
X43819D01*
X42146Y21024D02*
X42835D01*
X42146Y20866D02*
X46102D01*
X42146Y20945D02*
X46181D01*
X42146Y21102D02*
X42756D01*
X42146Y21181D02*
X42677D01*
X43868Y21024D02*
X46260D01*
X43947Y21102D02*
X44637D01*
X41968Y21509D02*
Y21634D01*
X41890Y21546D02*
Y21634D01*
X41988Y21496D02*
X42362D01*
X41339Y21565D02*
X41772D01*
X41811Y21563D02*
Y21634D01*
X40817Y21575D02*
X42284D01*
X40876Y21634D02*
X42224D01*
X42146Y20797D02*
Y21191D01*
X42139Y21260D02*
X42598D01*
X43819Y20974D02*
X44272Y21427D01*
X42224Y21634D02*
X42884Y20974D01*
X42126Y21311D02*
Y21634D01*
X42047Y21444D02*
Y21634D01*
X42115Y21339D02*
X42520D01*
X42069Y21417D02*
X42441D01*
X44567Y19911D02*
Y21151D01*
X44016Y19911D02*
Y21171D01*
X44724Y19911D02*
Y21071D01*
X44646Y19911D02*
Y21098D01*
X44882Y20049D02*
Y21063D01*
X44803Y19970D02*
Y21063D01*
X44744Y19911D02*
X45472Y20640D01*
X44798Y21063D02*
X45320D01*
X45039Y20207D02*
Y21063D01*
X44961Y20128D02*
Y21063D01*
X45197Y20364D02*
Y21063D01*
X45118Y20285D02*
Y21063D01*
X45276Y20443D02*
Y21063D01*
X45354Y20522D02*
Y21065D01*
X45433Y20600D02*
Y21082D01*
X45512Y20640D02*
Y21120D01*
X44094Y19911D02*
Y21250D01*
X44173Y19911D02*
Y21329D01*
X44252Y19911D02*
Y21407D01*
X44409Y19911D02*
Y22247D01*
X44183Y21339D02*
X44457D01*
X44331Y19911D02*
Y22195D01*
X44026Y21181D02*
X44536D01*
X44104Y21260D02*
X44484D01*
X45590Y20640D02*
Y21191D01*
X44488Y19911D02*
Y21251D01*
X45669Y20640D02*
Y21404D01*
X45827Y20640D02*
Y22441D01*
X45748Y20640D02*
Y22441D01*
X45472Y20640D02*
X45876D01*
X45481Y21102D02*
X46339D01*
X45876Y20640D02*
X46386Y21150D01*
X45582Y21181D02*
X46417D01*
X46419Y21183D02*
X46476Y21240D01*
X45634Y21260D02*
X46534D01*
X47323Y21240D02*
Y21299D01*
X47244Y21240D02*
Y21299D01*
X46982Y21240D02*
X47352D01*
X47411Y21299D01*
X46929Y21267D02*
Y21299D01*
X46575D02*
X46657D01*
X46945Y21260D02*
X47372D01*
X46821Y21299D02*
X47411D01*
X45984Y20748D02*
Y22441D01*
X45905Y20669D02*
Y22441D01*
X46142Y20905D02*
Y22441D01*
X46063Y20827D02*
Y22441D01*
X46299Y21063D02*
Y22441D01*
X46220Y20984D02*
Y22441D01*
X45661Y21339D02*
X46575D01*
X46378Y21142D02*
Y22441D01*
X46457Y21220D02*
Y22441D01*
X47165Y21240D02*
Y21299D01*
X47008Y21240D02*
Y21299D01*
X46575D02*
Y22362D01*
X46535Y21260D02*
Y22441D01*
X47087Y21240D02*
Y21299D01*
X47411D02*
X47451Y21339D01*
X44272Y21575D02*
X44449D01*
X44272Y21653D02*
X44449D01*
X44262Y21417D02*
X44449D01*
X44272Y21496D02*
X44449D01*
X44272Y21732D02*
X44449D01*
X44272Y21811D02*
X44453D01*
X44272Y21890D02*
X44475D01*
X44272Y22047D02*
X44604D01*
X44449Y21412D02*
Y21757D01*
X44272Y21427D02*
Y22136D01*
Y21968D02*
X44520D01*
X44798Y22106D02*
X45320D01*
X44488Y21918D02*
Y22304D01*
X44567Y22019D02*
Y22417D01*
X44724Y22098D02*
Y22441D01*
X44646Y22071D02*
Y22441D01*
X44272Y22136D02*
X44361Y22225D01*
X44882Y22106D02*
Y22441D01*
X44803Y22106D02*
Y22441D01*
X45354Y22105D02*
Y22441D01*
X45276Y22106D02*
Y22441D01*
X45512Y22049D02*
Y22441D01*
X45433Y22087D02*
Y22441D01*
X45039Y22106D02*
Y22441D01*
X44961Y22106D02*
Y22441D01*
X45197Y22106D02*
Y22441D01*
X45118Y22106D02*
Y22441D01*
X45669Y21575D02*
X46575D01*
X45665Y21811D02*
X46575D01*
X45643Y21890D02*
X46575D01*
X44272Y22126D02*
X46575D01*
X44341Y22205D02*
X46575D01*
X45598Y21968D02*
X46575D01*
X45514Y22047D02*
X46575D01*
X45669Y21417D02*
X46575D01*
X45669Y21412D02*
Y21757D01*
Y21496D02*
X46575D01*
X45669Y21653D02*
X46575D01*
X45669Y21732D02*
X46575D01*
X45669Y21765D02*
Y22441D01*
X45590Y21978D02*
Y22441D01*
X44465Y22283D02*
X46575D01*
X44537Y22362D02*
X46575D01*
X44577Y22441D02*
X47156D01*
X46614Y22362D02*
Y22441D01*
X46575Y22362D02*
X47234D01*
X44577Y22441D02*
X47156D01*
X47087Y22362D02*
Y22441D01*
X47008Y22362D02*
Y22441D01*
X47165Y22362D02*
Y22431D01*
X47156Y22441D02*
X47234Y22362D01*
X46772D02*
Y22441D01*
X46693Y22362D02*
Y22441D01*
X46929Y22362D02*
Y22441D01*
X46850Y22362D02*
Y22441D01*
X31917Y19764D02*
X32210D01*
X31917Y19606D02*
X32388D01*
X31917Y19685D02*
X32285D01*
X31917Y20000D02*
X32077D01*
X31917Y20079D02*
X32055D01*
X31917Y19842D02*
X32153D01*
X31917Y19921D02*
X32110D01*
X32283Y19367D02*
Y19687D01*
X32441Y19367D02*
Y19575D01*
X32362Y19367D02*
Y19623D01*
X32047Y19367D02*
Y20114D01*
X31917Y20157D02*
X32041D01*
X32205Y19367D02*
Y19771D01*
X32126Y19367D02*
Y19889D01*
X31917Y20236D02*
X32035D01*
X31917Y20315D02*
X32037D01*
X31917Y20394D02*
X32048D01*
X31917Y20472D02*
X32067D01*
X31917Y20551D02*
X32095D01*
X31917Y20630D02*
X32134D01*
X31917Y20709D02*
X32185D01*
X32126Y20615D02*
Y21073D01*
X32047Y20391D02*
Y21073D01*
X31917Y20787D02*
X32252D01*
X32205Y20734D02*
Y21073D01*
X31917Y20866D02*
X32341D01*
X32283Y20818D02*
Y21073D01*
X32441Y20930D02*
Y21073D01*
X32362Y20881D02*
Y21073D01*
X32520Y19367D02*
Y19539D01*
X32677Y19367D02*
Y19495D01*
X32598Y19367D02*
Y19512D01*
X31917Y19449D02*
X33772D01*
X31917Y19528D02*
X32549D01*
X31917Y19367D02*
X33858D01*
X31917Y19370D02*
X33853D01*
X32756Y19367D02*
Y19486D01*
X32835Y19367D02*
Y19485D01*
X32913Y19367D02*
Y19493D01*
X32992Y19367D02*
Y19508D01*
X33071Y19367D02*
Y19533D01*
X33055Y19528D02*
X33734D01*
X33150Y19367D02*
Y19568D01*
X31917Y20945D02*
X32471D01*
X32598Y20992D02*
Y21073D01*
X32520Y20966D02*
Y21073D01*
X32756Y21019D02*
Y21073D01*
X32677Y21010D02*
Y21073D01*
X33228Y19367D02*
Y19614D01*
X33307Y19367D02*
Y19674D01*
X33217Y19606D02*
X33721D01*
X33320Y19685D02*
X33729D01*
X32992Y20996D02*
Y21073D01*
X32913Y21012D02*
Y21073D01*
X33264Y20866D02*
X33740D01*
X33134Y20945D02*
X33740D01*
X31917Y21181D02*
X31988D01*
Y21073D02*
X33031Y21073D01*
X31917Y21102D02*
X31988D01*
X31917Y21417D02*
X31988D01*
X31917Y21496D02*
X31988D01*
X31917Y21260D02*
X31988D01*
X31917Y21339D02*
X31988D01*
X32835Y21019D02*
Y21073D01*
X33031Y21102D02*
X33740D01*
X33031Y21181D02*
X33740D01*
X33031Y21417D02*
X33740D01*
X33031Y21496D02*
X33740D01*
X33031Y21260D02*
X33740D01*
X33031Y21339D02*
X33740D01*
X31917Y21575D02*
X31988D01*
X31917Y21653D02*
X31988D01*
X31917Y21732D02*
X31988D01*
X31917Y21968D02*
X31988D01*
X31917Y22126D02*
X31988D01*
X31917Y21811D02*
X31988D01*
X31917Y21890D02*
X31988D01*
X33031Y21073D02*
X33031Y22126D01*
X31988Y21073D02*
X31988Y22126D01*
X33031Y21575D02*
X33740D01*
X33031Y21732D02*
X33740D01*
X31917Y22047D02*
X31988D01*
Y22126D02*
X33031Y22126D01*
Y21811D02*
X33740D01*
X33031Y21890D02*
X33740D01*
X31917Y22283D02*
X33740D01*
X31917Y21024D02*
X33740D01*
X31917Y22205D02*
X33740D01*
X31917Y22520D02*
X33740D01*
X31917Y22835D02*
X33740D01*
X31917Y22362D02*
X33740D01*
X31917Y22441D02*
X33740D01*
X33031Y22047D02*
X33740D01*
X33031Y22126D02*
X33740D01*
X33031Y21653D02*
X33740D01*
X33031Y21968D02*
X33740D01*
X31917Y22756D02*
X33740D01*
X31917Y22913D02*
X33740D01*
X31917Y22598D02*
X33740D01*
X31917Y22677D02*
X33740D01*
X31917Y23622D02*
X34167D01*
X31917Y23701D02*
X34246D01*
X31917Y23779D02*
X34325D01*
X31917Y23858D02*
X34404D01*
X31917Y23937D02*
X34482D01*
X31917Y24016D02*
X34670D01*
X31917Y29291D02*
X35532D01*
X31917Y22992D02*
X33740D01*
X31917Y23071D02*
X33740D01*
X31917Y23150D02*
X33749D01*
X31917Y23228D02*
X33783D01*
X31917Y23307D02*
X33852D01*
X31917Y23386D02*
X33931D01*
X31917Y23465D02*
X34010D01*
X31917Y23543D02*
X34089D01*
X33386Y19367D02*
Y19753D01*
X33465Y19367D02*
Y19864D01*
X33543Y19367D02*
Y20051D01*
X33495Y19921D02*
X33740D01*
X33527Y20000D02*
X33740D01*
X33395Y19764D02*
X33740D01*
X33451Y19842D02*
X33740D01*
X33779Y19367D02*
Y19439D01*
X34291Y19722D02*
Y20020D01*
X33550Y20079D02*
X33740D01*
X34291Y20020D02*
Y20098D01*
Y19722D02*
Y20020D01*
Y20098D01*
X33557Y20394D02*
X33740D01*
X33564Y20157D02*
X33740D01*
X33568Y20315D02*
X33740D01*
X33471Y20630D02*
X33740D01*
X33420Y20709D02*
X33740D01*
X33538Y20472D02*
X33740D01*
X33510Y20551D02*
X33740D01*
X34291Y20020D02*
Y20098D01*
X33740Y19722D02*
Y23081D01*
X34291Y20098D02*
Y20768D01*
Y20098D02*
Y20768D01*
X33570Y20236D02*
X33740D01*
X34291Y20768D02*
Y22967D01*
X34331Y20768D02*
Y23006D01*
X34409Y20768D02*
Y23085D01*
X35000Y19367D02*
Y20020D01*
X35039Y19367D02*
Y20118D01*
X35000Y20020D02*
Y20098D01*
Y20020D02*
Y20098D01*
Y20118D02*
X35187D01*
X35118Y19367D02*
Y20118D01*
X35197Y19367D02*
Y20118D01*
X35276Y19367D02*
Y20133D01*
X35433Y19367D02*
Y20250D01*
X35354Y19367D02*
Y20175D01*
X35382Y20199D02*
X35474Y20291D01*
X34961Y20768D02*
Y21146D01*
X35000Y20669D02*
X35073D01*
X35000Y20709D02*
X35099D01*
X34646Y20768D02*
Y23321D01*
X34724Y20768D02*
Y23400D01*
X34291Y20768D02*
X35000D01*
X34882D02*
Y21225D01*
X35512Y19367D02*
Y20311D01*
X35590Y19367D02*
Y20384D01*
X35000Y20669D02*
Y20768D01*
X35039Y20669D02*
Y21067D01*
X35118Y20738D02*
Y20988D01*
X33353Y20787D02*
X33740D01*
X34291Y21496D02*
X34764D01*
X34291Y21575D02*
X34764D01*
X34291Y21811D02*
X34764D01*
X34291Y21890D02*
X34764D01*
X34291Y21653D02*
X34764D01*
X34291Y21732D02*
X34764D01*
X34291Y22047D02*
X34764D01*
X34291Y21968D02*
X34764D01*
Y21417D02*
Y22165D01*
X34291Y22283D02*
X34764D01*
X34291Y22362D02*
X34764D01*
X34291Y22126D02*
X34764D01*
X34291Y22205D02*
X34764D01*
X34291Y22835D02*
X34764D01*
X34291Y22677D02*
X34764D01*
X34291Y22756D02*
X34764D01*
X34291Y22913D02*
X34764D01*
X33821Y23276D02*
X34480Y23935D01*
X34488Y20768D02*
Y23163D01*
X34567Y20768D02*
Y23242D01*
X34291Y22441D02*
X34764D01*
Y22185D02*
Y22933D01*
X34291Y22520D02*
X34764D01*
X34291Y22598D02*
X34764D01*
X34291Y20945D02*
X35161D01*
X34291Y20787D02*
X35165D01*
X34291Y20866D02*
X35240D01*
X34291Y21181D02*
X34925D01*
X34291Y21260D02*
X34853D01*
X34291Y21024D02*
X35083D01*
X34291Y21102D02*
X35004D01*
X34803Y20768D02*
Y21417D01*
X35197Y20811D02*
Y20910D01*
X34884Y21222D02*
X35264Y20842D01*
X34291Y21417D02*
X34803D01*
X34764Y21417D02*
X34803D01*
X34291Y21339D02*
X34815D01*
X34961Y22933D02*
Y23465D01*
X35118Y22933D02*
Y23465D01*
X35039Y22933D02*
Y23465D01*
X34803Y22933D02*
Y23465D01*
X34291Y22967D02*
X34789Y23465D01*
X34764Y22933D02*
X35551D01*
X34882D02*
Y23465D01*
X35276Y22933D02*
Y23465D01*
X35197Y22933D02*
Y23465D01*
X35433Y22933D02*
Y23465D01*
X35354Y22933D02*
Y23465D01*
X35590Y22933D02*
Y23465D01*
X35512Y22933D02*
Y23465D01*
X35669Y24016D02*
Y29235D01*
X35590Y24016D02*
Y29257D01*
X31917Y19367D02*
Y30140D01*
X31968Y19367D02*
Y30121D01*
X32205Y22126D02*
Y30135D01*
X32047Y22126D02*
Y30109D01*
X32126Y22126D02*
Y30113D01*
X32362Y22126D02*
Y30253D01*
X32835Y22126D02*
Y35566D01*
X32913Y22126D02*
Y35567D01*
X32283Y22126D02*
Y30177D01*
X32441Y22126D02*
Y30475D01*
X33858Y23313D02*
Y35565D01*
X33779Y23223D02*
Y35573D01*
X32756Y22126D02*
Y35578D01*
X32992Y22126D02*
Y35581D01*
X33071Y20972D02*
Y35609D01*
X32520Y22126D02*
Y35710D01*
X32441Y30483D02*
Y35813D01*
X32677Y22126D02*
Y35604D01*
X32598Y22126D02*
Y35645D01*
X33543Y20454D02*
Y35687D01*
X33465Y20641D02*
Y35776D01*
X33701Y19367D02*
Y35594D01*
X33622Y19367D02*
Y35631D01*
X33150Y20937D02*
Y35653D01*
X33228Y20891D02*
Y35722D01*
X33307Y20831D02*
Y35835D01*
X33386Y20751D02*
Y35959D01*
X31917Y29527D02*
X35413D01*
X31917Y29370D02*
X35459D01*
X31917Y29449D02*
X35424D01*
X31917Y29764D02*
X35413D01*
X31917Y29842D02*
X35413D01*
X31917Y29606D02*
X35413D01*
X31917Y29685D02*
X35413D01*
X31917Y30079D02*
X35413D01*
X31917Y29921D02*
X35413D01*
X31917Y30000D02*
X35413D01*
X32252Y30157D02*
X35416D01*
X32349Y30236D02*
X35440D01*
X32401Y30315D02*
X35496D01*
X32430Y30394D02*
X35575D01*
X32441Y31181D02*
X34881D01*
X32441Y30472D02*
X35654D01*
X32441Y31102D02*
X34973D01*
X32441Y31417D02*
X34645D01*
X32441Y31496D02*
X34567D01*
X32441Y31260D02*
X34802D01*
X32441Y31339D02*
X34724D01*
X32441Y31732D02*
X34478D01*
X32441Y31811D02*
X34118D01*
X32441Y31575D02*
X34513D01*
X32441Y31653D02*
X34486D01*
X32441Y32047D02*
X33902D01*
X32441Y32126D02*
X33899D01*
X32441Y31890D02*
X33982D01*
X32441Y31968D02*
X33927D01*
X32441Y32205D02*
X33918D01*
X32441Y32283D02*
X33954D01*
X32441Y32362D02*
X34020D01*
X32441Y34882D02*
X34030D01*
X32441Y34961D02*
X33951D01*
X32441Y32441D02*
X34098D01*
X32441Y34803D02*
X34108D01*
X32441Y35118D02*
X33863D01*
X32441Y35039D02*
X33890D01*
X32441Y35354D02*
X33858D01*
X32441Y35433D02*
X33858D01*
X32441Y35197D02*
X33858D01*
X32441Y35276D02*
X33858D01*
X32441Y35590D02*
X32712D01*
X32441Y35512D02*
X33861D01*
X32441Y35669D02*
X32565D01*
X32441Y35748D02*
X32485D01*
X33025Y35590D02*
X33712D01*
X33171Y35669D02*
X33565D01*
X33251Y35748D02*
X33485D01*
X33858Y35167D02*
Y35472D01*
X33353Y36142D02*
X33383D01*
X33386Y36155D02*
Y36959D01*
X33303Y35827D02*
X33433D01*
X33336Y35905D02*
X33400D01*
X32441Y33307D02*
X34478D01*
X32441Y33150D02*
X34478D01*
X32441Y33228D02*
X34478D01*
X32441Y33543D02*
X34478D01*
X32441Y33622D02*
X34478D01*
X32441Y33386D02*
X34478D01*
X32441Y33465D02*
X34478D01*
X32441Y32520D02*
X34228D01*
X32441Y32598D02*
X34439D01*
X32441Y32677D02*
X34478D01*
X32441Y32756D02*
X34478D01*
X32441Y32992D02*
X34478D01*
X32441Y33071D02*
X34478D01*
X32441Y32835D02*
X34478D01*
X32441Y32913D02*
X34478D01*
X32441Y33858D02*
X34478D01*
X32441Y33701D02*
X34478D01*
X32441Y33779D02*
X34478D01*
X32441Y33937D02*
X34484D01*
X32441Y34016D02*
X34508D01*
X32441Y34094D02*
X34558D01*
X32441Y34173D02*
X34635D01*
X32441Y34252D02*
X34714D01*
X32441Y34331D02*
X34792D01*
X32441Y34409D02*
X34871D01*
X32441Y34488D02*
X34950D01*
X32441Y34646D02*
X34274D01*
X32441Y34724D02*
X34160D01*
X32441Y34567D02*
X35042D01*
X34016Y23470D02*
Y31860D01*
X34173Y23628D02*
Y31802D01*
X34094Y23549D02*
Y31818D01*
X34252Y23707D02*
Y31807D01*
X34331Y23785D02*
Y31835D01*
X34268Y31811D02*
X34478D01*
X34488Y23943D02*
Y31642D01*
X34646Y24014D02*
Y31417D01*
X34567Y23994D02*
Y31496D01*
X34724Y24016D02*
Y31338D01*
X34882Y24016D02*
Y31180D01*
X34803Y24016D02*
Y31259D01*
X33937Y23392D02*
Y31949D01*
Y32248D02*
Y34975D01*
X33998Y32341D02*
X34106Y32449D01*
X34016Y32358D02*
Y34896D01*
X34409Y23864D02*
Y31896D01*
X34478Y31722D02*
Y31900D01*
X34404Y31890D02*
X34478D01*
X34439Y31900D02*
X34478D01*
X34094Y32437D02*
Y34817D01*
X34439Y31900D02*
Y31933D01*
X35197Y24016D02*
Y31053D01*
X35354Y24016D02*
Y31053D01*
X35276Y24016D02*
Y31053D01*
X35039Y24016D02*
Y31071D01*
X34961Y24016D02*
Y31110D01*
X35118Y24016D02*
Y31054D01*
X35433Y24016D02*
Y29422D01*
X35413Y29547D02*
Y30118D01*
X35512Y24016D02*
Y29308D01*
X35433Y30220D02*
Y31053D01*
X35590Y30409D02*
Y31053D01*
X35512Y30331D02*
Y31053D01*
X34576Y31486D02*
X34911Y31151D01*
X35148Y31861D02*
X35286Y31722D01*
X35148Y31900D02*
X35187D01*
X35148Y31861D02*
Y31900D01*
X35197Y31812D02*
Y31900D01*
X35148D02*
X35187D01*
X35433Y31722D02*
Y31900D01*
X35354Y31722D02*
Y31900D01*
X35669Y31722D02*
Y31900D01*
X35512Y31722D02*
Y31900D01*
X35276Y31733D02*
Y31900D01*
X35590Y31722D02*
Y31900D01*
X34173Y32498D02*
Y34710D01*
X34252Y32525D02*
Y34655D01*
X34409Y32530D02*
Y34627D01*
X34331Y32530D02*
Y34630D01*
X34301Y32530D02*
X34439D01*
Y32608D01*
X34478D02*
Y33878D01*
X34439Y32608D02*
X34478D01*
X34488Y33958D02*
Y34647D01*
X34567Y34105D02*
Y34693D01*
X34576Y34115D02*
X34980Y34518D01*
X33939Y34972D02*
X34110Y34801D01*
X34331Y35841D02*
Y35889D01*
X34310Y35841D02*
X34426D01*
X34646Y34184D02*
Y34792D01*
X34724Y34263D02*
Y34951D01*
X34882Y34420D02*
Y34951D01*
X34803Y34341D02*
Y34951D01*
X34336Y35905D02*
X34400D01*
X34353Y36142D02*
X34383D01*
X34961Y34499D02*
Y34951D01*
X34409Y35841D02*
Y35879D01*
X35148Y32608D02*
Y33739D01*
Y32608D02*
X35187D01*
X35197D02*
Y33788D01*
X35148Y32608D02*
X35187D01*
X35148Y33739D02*
X35355Y33947D01*
X35276Y32608D02*
Y33867D01*
X35354Y32608D02*
Y33946D01*
X35512Y32608D02*
Y33947D01*
X35433Y32608D02*
Y33947D01*
Y34616D02*
Y34835D01*
X35354Y34616D02*
Y34852D01*
X35590Y32608D02*
Y33947D01*
X35512Y34616D02*
Y34840D01*
X35039Y34565D02*
Y34951D01*
X34673Y34882D02*
X35294D01*
X35118Y34601D02*
Y34951D01*
X34674D02*
X35123D01*
X35276Y34616D02*
Y34895D01*
X35197Y34616D02*
Y34961D01*
X35590Y34616D02*
Y34868D01*
X35669Y34616D02*
Y34913D01*
X35354Y36167D02*
Y36565D01*
X35329Y20157D02*
X37589D01*
X35000Y20000D02*
X37641D01*
X35000Y20079D02*
X37607D01*
X35419Y20236D02*
X37584D01*
X35615Y20699D02*
X36722D01*
X35517Y20315D02*
X37592D01*
X35598Y20394D02*
X37614D01*
X35984Y19367D02*
Y20699D01*
X36142Y19367D02*
Y20699D01*
X36063Y19367D02*
Y20699D01*
X35748Y19367D02*
Y20699D01*
X35669Y19367D02*
Y20699D01*
X35905Y19367D02*
Y20699D01*
X35827Y19367D02*
Y20699D01*
X35669Y22933D02*
Y23465D01*
X35551Y22933D02*
X35669D01*
X35551D02*
X35669D01*
X36457D01*
X35748Y24016D02*
Y29235D01*
X34317Y22992D02*
X36982D01*
X34396Y23071D02*
X37170D01*
X35827Y22933D02*
Y23465D01*
X35748Y22933D02*
Y23465D01*
X35984Y22933D02*
Y23465D01*
X35905Y22933D02*
Y23465D01*
X35827Y24016D02*
Y29257D01*
X35905Y24016D02*
Y29307D01*
X36063Y22933D02*
Y23465D01*
X35984Y24016D02*
Y29421D01*
X35000Y19528D02*
X40378D01*
X35000Y19367D02*
X40539D01*
X35000Y19370D02*
X40535D01*
X35000Y19685D02*
X40227D01*
X34553Y23228D02*
X38524D01*
X35000Y19606D02*
X40299D01*
X34474Y23150D02*
X40995D01*
X35000Y19842D02*
X37778D01*
X35000Y19449D02*
X40457D01*
X35000Y19764D02*
X37944D01*
X35000Y19921D02*
X37694D01*
X35636Y20472D02*
X37652D01*
X35649Y20551D02*
X37711D01*
X35641Y20630D02*
X37806D01*
X31917Y24252D02*
X42296D01*
X31917Y24094D02*
X42353D01*
X31917Y24173D02*
X42314D01*
X31917Y24724D02*
X40231D01*
X31917Y24803D02*
X40231D01*
X31917Y24331D02*
X42293D01*
X31917Y24409D02*
X42293D01*
X34789Y23465D02*
X37730D01*
X34789Y23465D02*
X37730D01*
X34632Y23307D02*
X37864D01*
X34711Y23386D02*
X37792D01*
X34675Y24016D02*
X37844D01*
X31917Y24488D02*
X40231D01*
X31917Y24567D02*
X40231D01*
X31917Y24646D02*
X40231D01*
X31917Y27874D02*
X37753D01*
X31917Y27716D02*
X37884D01*
X31917Y27795D02*
X37795D01*
X31917Y27953D02*
X37737D01*
X31917Y28031D02*
X37742D01*
X31917Y28110D02*
X37756D01*
X31917Y28189D02*
X37756D01*
X31917Y25039D02*
X40231D01*
X31917Y24882D02*
X40231D01*
X31917Y24961D02*
X40231D01*
X31917Y25276D02*
X40231D01*
X31917Y25354D02*
X40231D01*
X31917Y25118D02*
X40231D01*
X31917Y25197D02*
X40231D01*
X31917Y28425D02*
X37756D01*
X31917Y28268D02*
X37756D01*
X31917Y28346D02*
X37756D01*
X31917Y28661D02*
X37756D01*
X31917Y28740D02*
X37756D01*
X31917Y28504D02*
X37756D01*
X31917Y28583D02*
X37756D01*
X31917Y28976D02*
X37736D01*
X31917Y29055D02*
X37744D01*
X31917Y28819D02*
X37756D01*
X31917Y28898D02*
X37750D01*
X35958Y29370D02*
X36679D01*
X35993Y29449D02*
X36549D01*
X31917Y29134D02*
X37776D01*
X31917Y29213D02*
X37842D01*
X31917Y26220D02*
X40240D01*
X31917Y26063D02*
X40300D01*
X31917Y26142D02*
X40262D01*
X31917Y26299D02*
X40232D01*
X31917Y26378D02*
X40236D01*
X31917Y26457D02*
X40255D01*
X31917Y26535D02*
X40289D01*
X31917Y25433D02*
X42973D01*
X31917Y25512D02*
X42985D01*
X31917Y25591D02*
X43011D01*
X31917Y25669D02*
X43054D01*
X31917Y25905D02*
X40454D01*
X31917Y25984D02*
X40359D01*
X31917Y25748D02*
X43121D01*
X31917Y25827D02*
X43200D01*
X31917Y26614D02*
X40342D01*
X31917Y26693D02*
X40425D01*
X31917Y26772D02*
X40591D01*
X31917Y27008D02*
X42247D01*
X31917Y27087D02*
X42158D01*
X31917Y26850D02*
X42559D01*
X31917Y26929D02*
X42559D01*
X31917Y27244D02*
X42090D01*
X31917Y27323D02*
X42088D01*
X31917Y27165D02*
X42112D01*
X31917Y27402D02*
X42105D01*
X31917Y27480D02*
X42144D01*
X35886Y29291D02*
X40288D01*
X31917Y27559D02*
X42218D01*
X31917Y27638D02*
X42559D01*
X36535Y19367D02*
Y20699D01*
X36693Y19367D02*
Y20699D01*
X36614Y19367D02*
Y20699D01*
X36299Y19367D02*
Y20699D01*
X36220Y19367D02*
Y20699D01*
X36457Y19367D02*
Y20699D01*
X36378Y19367D02*
Y20699D01*
X37244Y19367D02*
Y20669D01*
X37401Y19367D02*
Y20669D01*
X37323Y19367D02*
Y20669D01*
X36772Y19367D02*
Y20703D01*
X37008Y19367D02*
Y20706D01*
X37165Y19367D02*
Y20669D01*
X37087Y19367D02*
Y20676D01*
X36535Y22884D02*
Y23465D01*
X36457Y22884D02*
X36874D01*
X36457D02*
Y22933D01*
X36614Y22884D02*
Y23465D01*
X36772Y22884D02*
Y23465D01*
X36693Y22884D02*
Y23465D01*
X36850Y19367D02*
Y20730D01*
X36929Y19367D02*
Y20772D01*
X36919Y20782D02*
X36951Y20750D01*
X36850Y22884D02*
Y23465D01*
X36795Y20709D02*
X37004D01*
X36874Y22884D02*
X36980Y22990D01*
X37480Y19367D02*
Y20669D01*
X37638Y19367D02*
Y20006D01*
X37559Y19367D02*
Y20669D01*
X37146D02*
X37707D01*
X37638Y20447D02*
Y20669D01*
X37716Y19367D02*
Y19896D01*
X37953Y19367D02*
Y19762D01*
X37874Y19367D02*
Y19787D01*
X38031Y19367D02*
Y19750D01*
X38110Y19367D02*
Y19752D01*
X37795Y19367D02*
Y19830D01*
X37716Y20556D02*
Y20669D01*
X37795Y20623D02*
Y20684D01*
X37874Y20665D02*
Y20726D01*
X37849Y20709D02*
X40177D01*
X37953Y20691D02*
Y20801D01*
X38031Y20703D02*
Y20880D01*
X38110Y20701D02*
Y20945D01*
X37902Y20750D02*
X38096Y20945D01*
X38096Y20945D02*
X40177D01*
X38096Y20945D02*
X39016D01*
X37939Y20787D02*
X40177D01*
X38018Y20866D02*
X40177D01*
X36220Y22933D02*
Y23465D01*
X36457Y22913D02*
X36904D01*
X36299Y22933D02*
Y23465D01*
X36378Y22933D02*
Y23465D01*
X36142Y22933D02*
Y23465D01*
X36929Y22939D02*
Y23465D01*
X36457Y22933D02*
Y23465D01*
X37008Y23014D02*
Y23465D01*
X37244Y23071D02*
Y23465D01*
X37087Y23056D02*
Y23465D01*
X37401Y23071D02*
Y23465D01*
X37323Y23071D02*
Y23465D01*
X36614Y24016D02*
Y29397D01*
X36850Y24016D02*
Y29360D01*
X36693Y24016D02*
Y29367D01*
X36752Y29360D02*
X37352D01*
X36772Y24016D02*
Y29360D01*
X37008Y24016D02*
Y29360D01*
X36929Y24016D02*
Y29360D01*
X37165Y23071D02*
Y23465D01*
X37087Y24016D02*
Y29360D01*
X37244Y24016D02*
Y29360D01*
X37165Y24016D02*
Y29360D01*
X37323Y24016D02*
Y29360D01*
X37401Y24016D02*
Y29365D01*
X37480Y23071D02*
Y23465D01*
X37175Y23071D02*
X38435D01*
X37559D02*
Y23465D01*
X37716Y23071D02*
Y23465D01*
X37638Y23071D02*
Y23465D01*
X37730D02*
X37772Y23423D01*
X37874Y23071D02*
Y23300D01*
X37795Y23071D02*
Y23380D01*
X38031Y23071D02*
Y23248D01*
X37953Y23071D02*
Y23262D01*
X38110Y23071D02*
Y23256D01*
X38039Y23935D02*
X38155Y23819D01*
X38037Y23937D02*
X44946D01*
X37850Y24016D02*
X42425D01*
X37480Y24016D02*
Y29392D01*
X37425Y29370D02*
X41667D01*
X37555Y29449D02*
X41128D01*
X38031Y23943D02*
Y27677D01*
X38110Y23864D02*
Y27688D01*
X37795Y24016D02*
Y27795D01*
X37756Y28078D02*
Y28880D01*
X37953Y23994D02*
Y27688D01*
X37874Y24014D02*
Y27723D01*
X32441Y30551D02*
X35764D01*
X32441Y30630D02*
X35906D01*
X32441Y30709D02*
X35906D01*
X32441Y31024D02*
X35827D01*
X35148Y31053D02*
X35827D01*
X32441Y30787D02*
X35906D01*
X32441Y30866D02*
X35906D01*
X35494Y30313D02*
X35671Y30490D01*
X35905Y30571D02*
Y31014D01*
X35827Y30568D02*
Y31053D01*
X35866Y30571D02*
X35906D01*
Y31014D01*
X35669Y30488D02*
Y31053D01*
X35748Y30544D02*
Y31053D01*
X35286Y31722D02*
X35827D01*
X35148Y31890D02*
X35827D01*
X35187Y31900D02*
X35827D01*
X35276Y31732D02*
X35827D01*
X35198Y31811D02*
X35827D01*
X35827Y31722D02*
Y31900D01*
X35748Y31722D02*
Y31900D01*
X35827Y31014D02*
Y31053D01*
Y31722D02*
Y31762D01*
Y31722D02*
Y31762D01*
Y31900D01*
X35856Y32431D02*
Y32608D01*
X35905Y32431D02*
Y33238D01*
X36063Y24016D02*
Y29606D01*
X36142Y24016D02*
Y29614D01*
X36004Y29527D02*
X36471D01*
X35993Y29606D02*
X36392D01*
X36220Y24016D02*
Y29626D01*
X36378Y24016D02*
Y29620D01*
X36299Y24016D02*
Y29626D01*
X36457Y24016D02*
Y29541D01*
X36179Y29626D02*
X36372D01*
X36535Y24016D02*
Y29463D01*
X36372Y29626D02*
X36557Y29441D01*
X32441Y30945D02*
X35906D01*
X35827Y31014D02*
X35906D01*
X35856Y32431D02*
X36427D01*
X36063D02*
Y33238D01*
X35984Y32431D02*
Y33238D01*
X35856Y32441D02*
X38404D01*
X36142Y32431D02*
Y33238D01*
X36220Y32431D02*
Y33238D01*
X36378Y32431D02*
Y33238D01*
X36299Y32431D02*
Y33238D01*
X36535Y32432D02*
Y33238D01*
X36457Y32432D02*
Y33238D01*
X36427Y32431D02*
X36535D01*
X36427Y32432D02*
X37136D01*
X35148Y33386D02*
X35837D01*
X35187Y32608D02*
X35856D01*
X35148Y33307D02*
X35837D01*
X35148Y33622D02*
X35837D01*
X35148Y33701D02*
X35837D01*
X35148Y33465D02*
X35837D01*
X35148Y33543D02*
X35837D01*
X35827Y32608D02*
Y33947D01*
X35188Y33779D02*
X35837D01*
Y33238D02*
Y33907D01*
X35345Y33937D02*
X35837D01*
Y33907D02*
Y33947D01*
X35266Y33858D02*
X35837D01*
Y33907D02*
Y33947D01*
X34486Y34646D02*
X35837D01*
X35355Y33947D02*
X35837D01*
X35217Y34616D02*
X35837D01*
X35615Y34882D02*
X35692D01*
X35669Y36171D02*
Y39291D01*
X34600Y34724D02*
X35896D01*
X34651Y34803D02*
X35783D01*
X35748Y32608D02*
Y33947D01*
X35669Y32608D02*
Y33947D01*
X35837Y34616D02*
Y34656D01*
X35748Y34616D02*
Y34826D01*
X35827Y34616D02*
Y34783D01*
Y36171D02*
Y39291D01*
X35905Y36171D02*
Y39291D01*
X35148Y32677D02*
X38448D01*
X35148Y32756D02*
X38528D01*
X35148Y32835D02*
X38489D01*
X35148Y33071D02*
X38474D01*
X35148Y33150D02*
X38474D01*
X35148Y32913D02*
X38474D01*
X35148Y32992D02*
X38474D01*
X35856Y32520D02*
X38396D01*
X35837Y33238D02*
X36545D01*
X35856Y32598D02*
X38409D01*
X35148Y33228D02*
X38474D01*
X36545Y33907D02*
Y33986D01*
X35837Y34656D02*
X35909D01*
X36469Y34646D02*
X36545D01*
X35837D02*
X35913D01*
X36378Y36171D02*
Y38100D01*
X36473Y34656D02*
X36545D01*
X35403Y36171D02*
X37077D01*
X36545Y33907D02*
Y33986D01*
Y34016D02*
X39929D01*
X36545Y34173D02*
X39859D01*
X36535Y34656D02*
Y34758D01*
Y36171D02*
Y38100D01*
X36502Y34724D02*
X39856D01*
X36484Y34706D02*
X36640Y34862D01*
X37301Y29974D02*
X37338Y30012D01*
X37087Y30413D02*
Y31014D01*
X37313Y30079D02*
X37380D01*
X37302Y30157D02*
X37479D01*
X37559Y24016D02*
Y29453D01*
X37638Y24016D02*
Y29531D01*
X37716Y24016D02*
Y29610D01*
X37547Y29441D02*
X37728Y29622D01*
X37795Y29163D02*
Y29663D01*
X37874Y29236D02*
Y29763D01*
X37165Y30367D02*
Y34862D01*
X37323Y29996D02*
Y34862D01*
X37244Y30285D02*
Y34862D01*
X37057Y31014D02*
X37136D01*
X37057Y30424D02*
Y31014D01*
X37136D02*
Y31684D01*
Y31763D01*
X37401Y30103D02*
Y34867D01*
X37795Y30120D02*
Y35157D01*
X37953Y29271D02*
Y35157D01*
X37874Y30021D02*
Y35157D01*
X37480Y30158D02*
Y34894D01*
X37559Y30183D02*
Y34955D01*
X37638Y30186D02*
Y35033D01*
X37716Y30166D02*
Y35112D01*
X37274Y30236D02*
X40290D01*
X37634Y29527D02*
X41018D01*
X37221Y30315D02*
X40945D01*
X37057Y30551D02*
X40087D01*
X37057Y30630D02*
X40049D01*
X37125Y30394D02*
X40952D01*
X37057Y30472D02*
X40160D01*
X37874Y29764D02*
X40079D01*
X37899Y29842D02*
X40046D01*
X37713Y29606D02*
X40939D01*
X37819Y29685D02*
X40144D01*
X37902Y29921D02*
X40035D01*
X37883Y30000D02*
X40044D01*
X37837Y30079D02*
X40075D01*
X37737Y30157D02*
X40136D01*
X37057Y30709D02*
X40035D01*
X37057Y30787D02*
X40041D01*
X37057Y30866D02*
X40068D01*
X37136Y31102D02*
X39438D01*
X37136Y31181D02*
X39359D01*
X37057Y30945D02*
X40123D01*
X37136Y31024D02*
X39517D01*
X38110Y29271D02*
Y35157D01*
X38031Y29281D02*
Y35157D01*
X37136Y31260D02*
X39280D01*
X37136Y31339D02*
X39202D01*
X37136Y31575D02*
X38965D01*
X37136Y31653D02*
X38887D01*
X37136Y31417D02*
X39123D01*
X37136Y31496D02*
X39044D01*
X36772Y32432D02*
Y34862D01*
X36545Y33238D02*
Y33907D01*
Y33986D02*
Y34656D01*
X36614Y32432D02*
Y34837D01*
X36693Y32432D02*
Y34862D01*
X37136Y31684D02*
Y31763D01*
Y32362D02*
X38435D01*
X37136Y31763D02*
Y32432D01*
X36929D02*
Y34862D01*
X36850Y32432D02*
Y34862D01*
X37087Y32432D02*
Y34862D01*
X37008Y32432D02*
Y34862D01*
X36640D02*
X37352D01*
X36693Y36171D02*
Y38100D01*
X36614Y36171D02*
Y38100D01*
X37008Y36171D02*
Y37282D01*
X36772Y36171D02*
Y38100D01*
X37283Y36079D02*
Y36555D01*
X37547Y34943D02*
X37762Y35157D01*
X37087Y36171D02*
Y37274D01*
X37165Y36157D02*
Y37287D01*
X37201Y36142D02*
X37283D01*
X37244Y36115D02*
Y37326D01*
X36545Y33307D02*
X38474D01*
X36545Y33386D02*
X38474D01*
X36545Y33465D02*
X38480D01*
X36545Y33543D02*
X38516D01*
X36545Y33622D02*
X38591D01*
X36545Y33701D02*
X38670D01*
X36545Y33779D02*
X38759D01*
X37136Y31890D02*
X38651D01*
X37136Y31968D02*
X38572D01*
X37136Y31732D02*
X38808D01*
X37136Y31811D02*
X38729D01*
X37136Y32205D02*
X38465D01*
X37136Y32283D02*
X38465D01*
X37136Y32047D02*
X38500D01*
X37136Y32126D02*
X38468D01*
X36545Y34094D02*
X39883D01*
X36545Y33858D02*
X42736D01*
X36545Y33937D02*
X40010D01*
X36545Y34409D02*
X39852D01*
X36545Y34488D02*
X39852D01*
X36545Y34252D02*
X39852D01*
X36545Y34331D02*
X39852D01*
X36545Y34567D02*
X39852D01*
X36545Y34646D02*
X39852D01*
X36581Y34803D02*
X39875D01*
X37454Y34882D02*
X39915D01*
X37565Y34961D02*
X39985D01*
X37762Y35157D02*
X39114D01*
X37644Y35039D02*
X40141D01*
X37722Y35118D02*
X42719D01*
X32441Y36378D02*
X32495D01*
X32441Y36457D02*
X32581D01*
X32441Y36535D02*
X32752D01*
X32441Y36693D02*
X32537D01*
X32441Y37401D02*
X32517D01*
X32441Y36614D02*
X32654D01*
X32441Y37480D02*
X32617D01*
X32441Y36301D02*
Y36813D01*
X32598Y36469D02*
Y36645D01*
X32520Y36405D02*
Y36710D01*
X32756Y36536D02*
Y36578D01*
X32677Y36511D02*
Y36604D01*
X31917Y38740D02*
X32014D01*
X32441Y38109D02*
X32778Y38446D01*
X31917Y38643D02*
X32249Y38975D01*
X31917Y38819D02*
X32093D01*
X31917Y38898D02*
X32171D01*
X31917Y38976D02*
X32249D01*
X32441Y37301D02*
Y38109D01*
X32520Y37405D02*
Y38188D01*
X32598Y37469D02*
Y38267D01*
X32677Y37511D02*
Y38345D01*
X32756Y37536D02*
Y38424D01*
X32835Y37548D02*
Y38447D01*
X32913Y37547D02*
Y38458D01*
X32992Y37533D02*
Y38481D01*
X33071Y36506D02*
Y36609D01*
X33155Y36457D02*
X33581D01*
X33150Y36461D02*
Y36653D01*
X32992Y36533D02*
Y36581D01*
X33199Y36693D02*
X33537D01*
X32984Y36535D02*
X33752D01*
X33082Y36614D02*
X33654D01*
X33307Y36280D02*
Y36834D01*
X33332Y36220D02*
X33404D01*
X33297Y36299D02*
X33440D01*
X33228Y36392D02*
Y36722D01*
X33315Y36850D02*
X33422D01*
X33241Y36378D02*
X33495D01*
X33269Y36772D02*
X33467D01*
X33071Y37506D02*
Y38517D01*
X33150Y37461D02*
Y38571D01*
X33119Y37480D02*
X33617D01*
X33343Y36929D02*
X33393D01*
X33348Y37165D02*
X33388D01*
X33323Y37244D02*
X33413D01*
X33228Y37392D02*
Y38650D01*
X33307Y37280D02*
Y38781D01*
X33282Y37323D02*
X33454D01*
X33220Y37401D02*
X33517D01*
X31917Y39055D02*
X32252D01*
X31917Y39134D02*
X32266D01*
X31917Y39213D02*
X32293D01*
X31917Y39291D02*
X32334D01*
X31917Y39370D02*
X32394D01*
X31917Y39449D02*
X32484D01*
X31917Y39527D02*
X32650D01*
X32756Y39547D02*
Y41401D01*
X32992Y39579D02*
Y41368D01*
X32835Y39547D02*
Y41400D01*
X31917Y39606D02*
X33019D01*
X31917Y41339D02*
X33022D01*
X31917Y39685D02*
X33098D01*
X33071Y39658D02*
Y41289D01*
X31917Y41575D02*
X32396D01*
X31917Y41417D02*
X32659D01*
X31917Y41496D02*
X32487D01*
X31917Y41890D02*
X32252D01*
X31917Y41968D02*
X32249D01*
X31917Y41653D02*
X32335D01*
X31917Y41732D02*
X32294D01*
X32362Y39332D02*
Y41615D01*
X32283Y39189D02*
Y41758D01*
X32520Y39472D02*
Y41475D01*
X32441Y39415D02*
Y41532D01*
X32598Y39510D02*
Y41437D01*
X31917Y41811D02*
X32267D01*
X32913Y39537D02*
Y41411D01*
X32677Y39535D02*
Y41413D01*
X31917Y39764D02*
X33177D01*
X31917Y39842D02*
X33255D01*
X31917Y39921D02*
X33334D01*
X31917Y40000D02*
X33413D01*
X31917Y40079D02*
X33492D01*
X31917Y40157D02*
X33571D01*
X31917Y40472D02*
X35444D01*
X32943Y39530D02*
X33559Y40146D01*
X33332Y39140D02*
X33868Y39675D01*
X31917Y40236D02*
X34470D01*
X31917Y40315D02*
X34513D01*
X31917Y40394D02*
X35444D01*
X31917Y40551D02*
X35447D01*
X31917Y40630D02*
X35470D01*
X31917Y40945D02*
X34477D01*
X31917Y40709D02*
X35518D01*
X31917Y40866D02*
X34534D01*
X31917Y41181D02*
X33179D01*
X31917Y41260D02*
X33101D01*
X31917Y41024D02*
X33343D01*
X31917Y41102D02*
X33258D01*
X33228Y39815D02*
Y41132D01*
X33150Y39737D02*
Y41211D01*
X33307Y39894D02*
Y41053D01*
X32943Y41418D02*
X33304Y41056D01*
X33332Y41807D02*
X33613Y41526D01*
X33465Y36339D02*
Y36776D01*
X33622Y36483D02*
Y36631D01*
X33543Y36427D02*
Y36687D01*
X33779Y36541D02*
Y36573D01*
X33701Y36520D02*
Y36594D01*
X34016Y36527D02*
Y36588D01*
X34082Y36614D02*
X34376D01*
X34173Y36443D02*
Y36671D01*
X34252Y36365D02*
Y36749D01*
X34331Y36225D02*
Y36889D01*
X34094Y36494D02*
Y36620D01*
X34199Y36693D02*
X34376D01*
X34269Y36772D02*
X34376D01*
X34282Y37323D02*
X34376D01*
X33386Y37155D02*
Y39193D01*
X33465Y37339D02*
Y39272D01*
X33543Y37427D02*
Y39351D01*
X33622Y37483D02*
Y39429D01*
X33701Y37520D02*
Y39508D01*
X33779Y37541D02*
Y39587D01*
X33858Y37549D02*
Y39666D01*
X34331Y37225D02*
Y39675D01*
X34252Y37365D02*
Y39675D01*
X34220Y37401D02*
X34376D01*
Y36565D02*
Y37549D01*
X34016Y37527D02*
Y39675D01*
X33937Y37544D02*
Y39675D01*
X34173Y37443D02*
Y39675D01*
X34094Y37494D02*
Y39675D01*
X34332Y36220D02*
X34404D01*
X34297Y36299D02*
X34440D01*
X34409Y36235D02*
Y36565D01*
X34241Y36378D02*
X34495D01*
X34155Y36457D02*
X34581D01*
X33984Y36535D02*
X34752D01*
X34376Y36565D02*
X35360D01*
X34567Y36446D02*
Y36565D01*
X34488Y36370D02*
Y36565D01*
X35276Y36333D02*
Y36565D01*
X35197Y36423D02*
Y36565D01*
X34724Y36528D02*
Y36565D01*
X34646Y36496D02*
Y36565D01*
X35118Y36481D02*
Y36565D01*
X35039Y36518D02*
Y36565D01*
X34323Y37244D02*
X34376D01*
X34315Y36850D02*
X34376D01*
X34343Y36929D02*
X34376D01*
X34119Y37480D02*
X34376D01*
X34488Y37549D02*
Y39622D01*
X34803Y37549D02*
Y39518D01*
X34646Y37549D02*
Y39519D01*
X35360Y36565D02*
Y37549D01*
X35276D02*
Y39518D01*
X35433Y36171D02*
Y39543D01*
X35512Y36171D02*
Y39622D01*
X35039Y37549D02*
Y39518D01*
X34961Y37549D02*
Y39518D01*
X35197Y37549D02*
Y39518D01*
X35118Y37549D02*
Y39518D01*
X33868Y39675D02*
X34468D01*
X33720Y39527D02*
X34603D01*
X33799Y39606D02*
X34498D01*
X33754Y40226D02*
X34468D01*
X33858D02*
Y40975D01*
X33937Y40226D02*
Y40975D01*
X34567Y37549D02*
Y39543D01*
X34409Y37549D02*
Y39675D01*
X34488Y40280D02*
Y40922D01*
X34016Y40226D02*
Y40975D01*
X34646Y40383D02*
Y40819D01*
X34567Y40358D02*
Y40843D01*
X33386Y39973D02*
Y41000D01*
X33543Y40130D02*
Y40975D01*
X33465Y40051D02*
Y40977D01*
X33499Y40975D02*
X34468D01*
X33613Y41526D02*
X34468D01*
X33565Y41575D02*
X34485D01*
X33486Y41653D02*
X34559D01*
X33701Y40221D02*
Y40975D01*
X33622Y40193D02*
Y40975D01*
X34094Y40226D02*
Y40975D01*
X33779Y40226D02*
Y40975D01*
X34252Y40226D02*
Y40975D01*
X34173Y40226D02*
Y40975D01*
X34409Y40226D02*
Y40975D01*
X34331Y40226D02*
Y40975D01*
X34724Y37549D02*
Y39518D01*
X34376Y37549D02*
X35360D01*
X34882D02*
Y39518D01*
X34665D02*
X35335D01*
X34665Y40384D02*
X35335D01*
X35354Y37549D02*
Y39519D01*
X35537Y39720D02*
Y39970D01*
X35039Y40384D02*
Y40818D01*
X34961Y40384D02*
Y40818D01*
X35444Y40352D02*
Y40505D01*
X35118Y40384D02*
Y40818D01*
X34724Y40384D02*
Y40818D01*
X34882Y40384D02*
Y40818D01*
X34803Y40384D02*
Y40818D01*
X34665D02*
X35335D01*
X34665Y41684D02*
X35335D01*
X35276Y40384D02*
Y40818D01*
X35197Y40384D02*
Y40818D01*
X35354Y40383D02*
Y40819D01*
X35433Y40358D02*
Y40843D01*
X35512Y40701D02*
Y40922D01*
X35590Y40772D02*
Y40975D01*
X31917Y42047D02*
X32257D01*
X31917Y42126D02*
X32278D01*
X31917Y42205D02*
X32311D01*
X31917Y42283D02*
X32361D01*
X31917Y42992D02*
X32311D01*
X31917Y42362D02*
X32434D01*
X31917Y42835D02*
X32435D01*
X32283Y42142D02*
Y43055D01*
X32441Y42368D02*
Y42829D01*
X32362Y42285D02*
Y42912D01*
X31917Y43071D02*
X32278D01*
X31917Y43150D02*
X32258D01*
X32520Y42425D02*
Y42773D01*
X31917Y42913D02*
X32362D01*
X31917Y43228D02*
X32249D01*
X31917Y43307D02*
X32252D01*
X31917Y43386D02*
X32266D01*
X31917Y43464D02*
X32293D01*
X31917Y43543D02*
X32335D01*
X31917Y43622D02*
X32396D01*
X31917Y43701D02*
X32487D01*
X31968Y38695D02*
Y46886D01*
X31917Y38643D02*
Y46886D01*
X32126Y38852D02*
Y46886D01*
X32047Y38773D02*
Y46886D01*
X32283Y43439D02*
Y46008D01*
X32205Y38931D02*
Y46886D01*
X32441Y43665D02*
Y45782D01*
X32362Y43582D02*
Y45865D01*
X31917Y42441D02*
X32549D01*
X32598Y42463D02*
Y42734D01*
X32677Y42487D02*
Y42710D01*
X31917Y42756D02*
X32550D01*
X32835Y42500D02*
Y42697D01*
X32756Y42499D02*
Y42698D01*
X33150Y42376D02*
Y42821D01*
X33228Y42297D02*
Y42900D01*
X33307Y42166D02*
Y43031D01*
X32913Y42489D02*
Y42708D01*
X32992Y42467D02*
Y42731D01*
X33071Y42430D02*
Y42767D01*
X33333Y43386D02*
X35581D01*
X32520Y43722D02*
Y45725D01*
X32598Y43760D02*
Y45687D01*
X31917Y43779D02*
X32657D01*
X32677Y43785D02*
Y45663D01*
X31917Y43858D02*
X33021D01*
X31917Y43937D02*
X33100D01*
X32913Y43787D02*
Y45661D01*
X33332Y43390D02*
X33672Y43730D01*
X32943Y43780D02*
X33363Y44200D01*
X32835Y43797D02*
Y45650D01*
X32756Y43797D02*
Y45651D01*
X33071Y43908D02*
Y45539D01*
X32992Y43829D02*
Y45618D01*
X31917Y46142D02*
X32252D01*
X31917Y45984D02*
X32293D01*
X31917Y46063D02*
X32266D01*
X31917Y46220D02*
X32249D01*
X31917Y46299D02*
X32258D01*
X31917Y46378D02*
X32278D01*
X31917Y46457D02*
X32312D01*
X31917Y45590D02*
X33020D01*
X33150Y43987D02*
Y45461D01*
X31917Y45512D02*
X33099D01*
X31917Y45827D02*
X32394D01*
X31917Y45905D02*
X32334D01*
X31917Y45669D02*
X32652D01*
X31917Y45748D02*
X32485D01*
X32283Y46392D02*
Y46886D01*
X31917Y46535D02*
X32363D01*
X32362Y46535D02*
Y46886D01*
X31917Y46614D02*
X32436D01*
X32441Y46618D02*
Y46886D01*
X31917Y46693D02*
X32553D01*
X32520Y46675D02*
Y46886D01*
X32992Y46717D02*
Y46886D01*
X32598Y46713D02*
Y46886D01*
X33150Y46626D02*
Y46886D01*
X33071Y46680D02*
Y46886D01*
X32756Y46749D02*
Y46886D01*
X32677Y46737D02*
Y46886D01*
X32913Y46739D02*
Y46886D01*
X32835Y46750D02*
Y46886D01*
X31917Y44016D02*
X33179D01*
X31917Y44094D02*
X33257D01*
X31917Y44173D02*
X33336D01*
X31917Y44252D02*
X33435D01*
X31917Y44331D02*
X34486D01*
X31917Y44409D02*
X34560D01*
X31917Y44488D02*
X35388D01*
X31917Y44567D02*
X35389D01*
X31917Y44646D02*
X35405D01*
X31917Y44882D02*
X34604D01*
X31917Y44961D02*
X34498D01*
X31917Y44724D02*
X35444D01*
X31917Y44803D02*
X35521D01*
X31917Y45197D02*
X33414D01*
X31917Y45039D02*
X33623D01*
X31917Y45118D02*
X33492D01*
X31917Y45354D02*
X33256D01*
X31917Y45433D02*
X33177D01*
X31917Y45276D02*
X33335D01*
X33307Y44144D02*
Y45303D01*
X33228Y44065D02*
Y45382D01*
X32943Y45668D02*
X33500Y45111D01*
X33332Y46057D02*
X33809Y45581D01*
X33307Y46416D02*
Y46886D01*
X33228Y46547D02*
Y46886D01*
X33386Y46004D02*
Y46886D01*
X33622Y41526D02*
Y43679D01*
X33779Y41526D02*
Y43730D01*
X33701Y41526D02*
Y43730D01*
X33386Y41754D02*
Y43443D01*
X33465Y41675D02*
Y43522D01*
X33543Y41596D02*
Y43601D01*
X33643Y43701D02*
X34477D01*
X34252Y41526D02*
Y43730D01*
X34409Y41526D02*
Y43730D01*
X34331Y41526D02*
Y43730D01*
X33937Y41526D02*
Y43730D01*
X33858Y41526D02*
Y43730D01*
X34094Y41526D02*
Y43730D01*
X34016Y41526D02*
Y43730D01*
X33386Y44220D02*
Y45224D01*
X33672Y43730D02*
X34468D01*
X33465Y44265D02*
Y45146D01*
X33701Y44281D02*
Y45030D01*
X33543Y44281D02*
Y45075D01*
X33858Y44281D02*
Y45030D01*
X33779Y44281D02*
Y45030D01*
X34016Y44281D02*
Y45030D01*
X33937Y44281D02*
Y45030D01*
X34173Y41526D02*
Y43730D01*
X34094Y44281D02*
Y45030D01*
X34252Y44281D02*
Y45030D01*
X34173Y44281D02*
Y45030D01*
X34409Y44281D02*
Y45030D01*
X34331Y44281D02*
Y45030D01*
X34646Y41683D02*
Y43573D01*
X34882Y41684D02*
Y43572D01*
X34724Y41684D02*
Y43572D01*
X34665D02*
X35335D01*
X34803Y41684D02*
Y43572D01*
X33407Y43464D02*
X35581D01*
X33486Y43543D02*
X35581D01*
X35276Y41684D02*
Y43572D01*
X35354Y41683D02*
Y43573D01*
X35590Y41526D02*
Y43346D01*
X35433Y41658D02*
Y43598D01*
X35039Y41684D02*
Y43572D01*
X34961Y41684D02*
Y43572D01*
X35197Y41684D02*
Y43572D01*
X35118Y41684D02*
Y43572D01*
X34488Y41580D02*
Y43677D01*
X34567Y41658D02*
Y43598D01*
X33564Y43622D02*
X34533D01*
X35467D02*
X35581D01*
X35512Y41580D02*
Y43676D01*
X35537Y43775D02*
Y43966D01*
X35523Y43701D02*
X35581D01*
Y43346D02*
Y43943D01*
X35537Y43937D02*
X35581D01*
X35537Y43779D02*
X35581D01*
X35537Y43858D02*
X35581D01*
X33622Y44281D02*
Y45040D01*
X33558Y44281D02*
X34468D01*
X33701Y45689D02*
Y46886D01*
X33694Y45030D02*
X34468D01*
X33721Y45669D02*
X34513D01*
X34488Y44334D02*
Y44977D01*
X34646Y44438D02*
Y44873D01*
X34567Y44413D02*
Y44898D01*
X33809Y45581D02*
X34468D01*
X33799Y45590D02*
X34470D01*
X33858Y45581D02*
Y46886D01*
X34016Y45581D02*
Y46886D01*
X33937Y45581D02*
Y46886D01*
X33543Y45847D02*
Y46886D01*
X33465Y45925D02*
Y46886D01*
X33779Y45610D02*
Y46886D01*
X33622Y45768D02*
Y46886D01*
X34173Y45581D02*
Y46886D01*
X34094Y45581D02*
Y46886D01*
X34331Y45581D02*
Y46886D01*
X34252Y45581D02*
Y46886D01*
X34488Y45634D02*
Y46886D01*
X34409Y45581D02*
Y46886D01*
X34646Y45738D02*
Y46886D01*
X34567Y45713D02*
Y46886D01*
X34882Y44439D02*
Y44872D01*
X35039Y44439D02*
Y44872D01*
X34961Y44439D02*
Y44872D01*
X34803Y44439D02*
Y44872D01*
X34724Y44439D02*
Y44872D01*
X34665Y44439D02*
X35335D01*
X34665Y44872D02*
X35335D01*
X35197Y44439D02*
Y44872D01*
X35354Y44438D02*
Y44873D01*
X35388Y44431D02*
Y44545D01*
X35276Y44439D02*
Y44872D01*
X35118Y44439D02*
Y44872D01*
X35433Y44707D02*
Y44898D01*
X35512Y44796D02*
Y44976D01*
X34961Y45739D02*
Y46886D01*
X35118Y45739D02*
Y46886D01*
X35039Y45739D02*
Y46886D01*
X34803Y45739D02*
Y46886D01*
X34724Y45739D02*
Y46886D01*
X34665Y45739D02*
X35335D01*
X34882D02*
Y46886D01*
X35512Y45635D02*
Y46886D01*
X35590Y44840D02*
Y45024D01*
X35276Y45739D02*
Y46886D01*
X35197Y45739D02*
Y46886D01*
X35433Y45713D02*
Y46886D01*
X35354Y45738D02*
Y46886D01*
X32599Y38268D02*
X36211D01*
X32442Y38110D02*
X36211D01*
X32521Y38189D02*
X36211D01*
X33046Y38504D02*
X36211D01*
X33163Y38583D02*
X36211D01*
X32678Y38346D02*
X36211D01*
X32757Y38425D02*
X36211D01*
Y38100D02*
Y38710D01*
X36299Y36171D02*
Y38100D01*
X36220Y36171D02*
Y38100D01*
X33321Y38819D02*
X36211D01*
X33342Y38898D02*
X36211D01*
X33237Y38661D02*
X36211D01*
X33288Y38740D02*
X36211D01*
X35590Y36171D02*
Y39927D01*
X33351Y38976D02*
X36211D01*
X33348Y39055D02*
X36211D01*
X33484Y39291D02*
X36211D01*
X35640Y39291D02*
Y39902D01*
X33334Y39134D02*
X36211D01*
X33405Y39213D02*
X36211D01*
X35984Y36171D02*
Y39291D01*
X35748Y36171D02*
Y39291D01*
X36142Y36171D02*
Y39291D01*
X36063Y36171D02*
Y39291D01*
X36211Y38730D02*
Y39291D01*
X35640D02*
X36211D01*
X36250D01*
Y39340D01*
X35241Y36378D02*
X37283D01*
X35332Y36220D02*
X37283D01*
X35297Y36299D02*
X37283D01*
X35155Y36457D02*
X37283D01*
X34984Y36535D02*
X37283D01*
X35360Y36614D02*
X37574D01*
X35360Y36693D02*
X37451D01*
X35360Y36929D02*
X37302D01*
X35360Y36772D02*
X37379D01*
X35360Y36850D02*
X37332D01*
X35360Y37008D02*
X37287D01*
X35360Y37087D02*
X37284D01*
X35360Y37165D02*
X37294D01*
X35360Y37244D02*
X37318D01*
X32441Y37559D02*
X36782D01*
X32441Y37638D02*
X36790D01*
X32441Y37716D02*
X36821D01*
X32441Y37795D02*
X36887D01*
X32441Y37874D02*
X36992D01*
X32441Y37953D02*
X37071D01*
X32441Y38031D02*
X37150D01*
X36850Y36171D02*
Y37379D01*
X36457Y36171D02*
Y38100D01*
X35360Y37323D02*
X36914D01*
X35360Y37401D02*
X36834D01*
X35360Y37480D02*
X36795D01*
X36211Y38100D02*
X36919D01*
X36850Y37758D02*
Y38100D01*
X35397Y39527D02*
X35640D01*
X33563Y39370D02*
X35640D01*
X33641Y39449D02*
X35640D01*
X35537Y39764D02*
X35640D01*
X35537Y39921D02*
X35601D01*
X35502Y39606D02*
X35640D01*
X35534Y39685D02*
X35640D01*
X35537Y39842D02*
X35640D01*
X36063Y40000D02*
Y40095D01*
X31917Y40787D02*
X35617D01*
X35748Y40822D02*
Y40975D01*
X35466Y40866D02*
X35952D01*
X35523Y40945D02*
X35887D01*
X36079Y40195D02*
Y40505D01*
X36142Y40000D02*
Y40788D01*
X35905Y40788D02*
Y40917D01*
X35827Y40816D02*
Y40975D01*
X36063Y40604D02*
Y40803D01*
X35984Y40731D02*
Y40841D01*
X36077Y40157D02*
X36246D01*
X36012Y40000D02*
X36250D01*
X36057Y40079D02*
X36266D01*
X36079Y40394D02*
X36244D01*
X36079Y40472D02*
X36244D01*
X36079Y40236D02*
X36244D01*
X36079Y40315D02*
X36244D01*
X36837Y40000D02*
Y40037D01*
X36286Y40000D02*
Y40037D01*
X36840Y39340D02*
X36880D01*
X36837Y40000D02*
X36880D01*
X36850D02*
Y40063D01*
X36857Y40079D02*
X37274D01*
X36220Y40000D02*
Y40793D01*
X36244Y40195D02*
Y40505D01*
X36076Y40551D02*
X36247D01*
X36053Y40630D02*
X36270D01*
X36005Y40709D02*
X36318D01*
X35906Y40787D02*
X36417D01*
X36876Y40551D02*
X37274D01*
X36299Y40684D02*
Y40819D01*
X36853Y40630D02*
X37274D01*
X36805Y40709D02*
X37274D01*
X36378Y40764D02*
Y40873D01*
X36436Y40945D02*
X37071D01*
X36706Y40787D02*
X37228D01*
X36371Y40866D02*
X37150D01*
X36929Y36171D02*
Y37313D01*
X37323Y36555D02*
Y36870D01*
Y37256D02*
Y37406D01*
X37240Y37323D02*
X37358D01*
X37401Y37383D02*
Y37504D01*
X37320Y37401D02*
X37418D01*
X37378Y37480D02*
X37515D01*
X37401Y36555D02*
Y36743D01*
X37559Y36555D02*
Y36621D01*
X37480Y36555D02*
Y36669D01*
Y37457D02*
Y37583D01*
X37559Y37505D02*
Y37661D01*
X37638Y36555D02*
Y36591D01*
X36929Y37825D02*
Y38120D01*
X37008Y37890D02*
Y38089D01*
X36957Y37839D02*
X37274Y38155D01*
X37087Y37968D02*
Y38081D01*
X37165Y38047D02*
Y38094D01*
X37638Y37535D02*
Y37740D01*
X37716Y37552D02*
Y37819D01*
X37244Y38619D02*
Y40772D01*
X37165Y38659D02*
Y40850D01*
X37162Y38661D02*
X37274D01*
Y38596D02*
Y40742D01*
X37283Y36555D02*
X38268D01*
X37614Y37716D02*
X38622D01*
X37693Y37795D02*
X38622D01*
X37457Y37559D02*
X38622D01*
X37535Y37638D02*
X38622D01*
X37953Y36555D02*
Y36604D01*
X38031Y36555D02*
Y36643D01*
X37977Y36614D02*
X38543D01*
X38110Y36555D02*
Y36702D01*
X38100Y36693D02*
X38543D01*
X38037Y37480D02*
X38622D01*
X37347Y37449D02*
X37744Y37846D01*
X37795Y37555D02*
Y37917D01*
X37768Y37874D02*
X38622D01*
X37810Y37953D02*
X38622D01*
X37825Y38031D02*
X38624D01*
X37825Y38110D02*
X38644D01*
X37825Y38041D02*
Y40856D01*
Y38189D02*
X38695D01*
X37825Y38268D02*
X38764D01*
X37825Y38346D02*
X38825D01*
X37825Y38425D02*
X39019D01*
X37825Y38504D02*
X39272D01*
X37825Y38583D02*
X39272D01*
X36919Y38976D02*
X37274D01*
X36919Y38819D02*
X37274D01*
X36919Y38898D02*
X37274D01*
X36880Y39340D02*
X36919D01*
X36880Y39291D02*
Y39340D01*
Y39370D02*
X37274D01*
X36880Y39449D02*
X37274D01*
X36919Y38730D02*
Y39340D01*
Y38691D02*
X37037D01*
X36919Y38740D02*
X37274D01*
X36919Y39213D02*
X37274D01*
X36919Y39291D02*
X37274D01*
X36919Y39055D02*
X37274D01*
X36919Y39134D02*
X37274D01*
X36879Y40195D02*
Y40505D01*
X36880Y39685D02*
X37274D01*
X36877Y40157D02*
X37274D01*
X36879Y40394D02*
X37274D01*
X36879Y40472D02*
X37274D01*
X36879Y40236D02*
X37274D01*
X36879Y40315D02*
X37274D01*
X36880Y39340D02*
Y40000D01*
X37087Y38687D02*
Y40929D01*
X36880Y39527D02*
X37274D01*
X36880Y39606D02*
X37274D01*
X36880Y39921D02*
X37274D01*
X36880Y40000D02*
X37274D01*
X36880Y39764D02*
X37274D01*
X36880Y39842D02*
X37274D01*
X37825Y39449D02*
X39272D01*
X37825Y39291D02*
X39272D01*
X37825Y39370D02*
X39272D01*
X37825Y39685D02*
X39272D01*
X37825Y39764D02*
X39272D01*
X37825Y39527D02*
X39272D01*
X37825Y39606D02*
X39272D01*
X37825Y38819D02*
X39272D01*
X37825Y38898D02*
X39272D01*
X37825Y38661D02*
X39272D01*
X37825Y38740D02*
X39272D01*
X37825Y39134D02*
X39272D01*
X37825Y39213D02*
X39272D01*
X37825Y38976D02*
X39272D01*
X37825Y39055D02*
X39272D01*
X37825Y40630D02*
X39272D01*
X37825Y40472D02*
X39272D01*
X37825Y40551D02*
X39272D01*
X37825Y40866D02*
X39272D01*
X37810Y40945D02*
X39272D01*
X37825Y40709D02*
X39272D01*
X37825Y40787D02*
X39272D01*
X37825Y40000D02*
X39272D01*
X37825Y40079D02*
X39272D01*
X37825Y39842D02*
X39272D01*
X37825Y39921D02*
X39272D01*
X37825Y40315D02*
X39272D01*
X37825Y40394D02*
X39272D01*
X37825Y40157D02*
X39272D01*
X37825Y40236D02*
X39272D01*
X33166Y42362D02*
X36152D01*
X33289Y42205D02*
X36152D01*
X33239Y42283D02*
X36152D01*
X33289Y42992D02*
X36152D01*
X33322Y43071D02*
X36152D01*
X33051Y42441D02*
X36152D01*
X31917Y42520D02*
X36152D01*
X35669Y40809D02*
Y40975D01*
X35532D02*
X35872D01*
X35532Y41526D02*
X35864D01*
X35515Y41575D02*
X35887D01*
X35441Y41653D02*
X35952D01*
X36152Y42156D02*
Y42766D01*
X33342Y43150D02*
X36152D01*
X35669Y41526D02*
Y43346D01*
X35827Y41526D02*
Y43346D01*
X35748Y41526D02*
Y43346D01*
X33351Y43228D02*
X36152D01*
X35905Y41603D02*
Y43346D01*
X35984Y41678D02*
Y43346D01*
X36142Y41732D02*
Y43346D01*
X36063Y41717D02*
Y43346D01*
X36142Y44055D02*
Y44829D01*
X36063Y44055D02*
Y44830D01*
X33408Y41732D02*
X36154D01*
X33333Y41811D02*
X36245D01*
X33343Y42047D02*
X36230D01*
X33322Y42126D02*
X36230D01*
X33348Y41890D02*
X36230D01*
X33351Y41968D02*
X36230D01*
X36311Y41705D02*
X36335Y41680D01*
X36230Y41900D02*
Y42156D01*
X36220Y41727D02*
Y42156D01*
X36169Y41732D02*
X36287D01*
X33050Y42756D02*
X36152D01*
X31917Y42598D02*
X36152D01*
X31917Y42677D02*
X36152D01*
X33348Y43307D02*
X36152D01*
X35581Y43346D02*
X36152D01*
X33165Y42835D02*
X36152D01*
X33238Y42913D02*
X36152D01*
Y43346D02*
X36191D01*
X36152Y42785D02*
Y43346D01*
Y42156D02*
X36230D01*
X36191Y43346D02*
Y43395D01*
X35968Y44055D02*
X36191D01*
X36220D02*
Y44096D01*
X35991Y44094D02*
X36221D01*
X35502Y44961D02*
X35847D01*
X35827Y44838D02*
Y44994D01*
X35396Y44882D02*
X35928D01*
X36023Y44235D02*
Y44545D01*
Y44252D02*
X36188D01*
Y44235D02*
Y44545D01*
X35984Y44698D02*
Y44852D01*
X35905Y44792D02*
Y44899D01*
X36023Y44409D02*
X36188D01*
X36023Y44488D02*
X36188D01*
X35590Y45575D02*
Y46886D01*
X35531Y45024D02*
X35812D01*
X35669Y44860D02*
Y45024D01*
X35534Y45575D02*
X35812D01*
X35530Y45590D02*
X35819D01*
X35487Y45669D02*
X35872D01*
X33642Y45748D02*
X35984D01*
X35748Y44859D02*
Y45024D01*
X35669Y45575D02*
Y46886D01*
X35827Y45606D02*
Y46886D01*
X35748Y45575D02*
Y46886D01*
X35984Y45748D02*
Y46886D01*
X35905Y45701D02*
Y46886D01*
X36142Y45770D02*
Y46886D01*
X36063Y45769D02*
Y46886D01*
X36007Y44646D02*
X36205D01*
X35968Y44724D02*
X36244D01*
X35890Y44803D02*
X36321D01*
X33563Y45827D02*
X39272D01*
X33484Y45905D02*
X39272D01*
X36023Y44331D02*
X36188D01*
X36023Y44567D02*
X36189D01*
X36017Y44173D02*
X36194D01*
X36220Y44684D02*
Y44849D01*
X36299Y44786D02*
Y44893D01*
X36284Y44882D02*
X39272D01*
X36228Y45748D02*
X39272D01*
X33164Y46614D02*
X39272D01*
X33288Y46457D02*
X39272D01*
X33237Y46535D02*
X39272D01*
X31917Y46850D02*
X39272D01*
X31917Y46886D02*
X39272D01*
X33047Y46693D02*
X39272D01*
X31917Y46772D02*
X39272D01*
X36299Y45707D02*
Y46886D01*
X36220Y45751D02*
Y46886D01*
X33406Y45984D02*
X39272D01*
X33334Y46063D02*
X39272D01*
X33342Y46299D02*
X39272D01*
X33322Y46378D02*
X39272D01*
X33348Y46142D02*
X39272D01*
X33351Y46220D02*
X39272D01*
X36457Y40804D02*
Y40988D01*
X36468Y41024D02*
X36992D01*
X36479Y41102D02*
X36913D01*
X36479Y41105D02*
Y41415D01*
X36479Y41417D02*
X36599D01*
X36479Y41181D02*
X36835D01*
X36479Y41339D02*
X36677D01*
X36850Y40637D02*
Y41165D01*
X37008Y38691D02*
Y41008D01*
X36929Y38691D02*
Y41087D01*
X36693Y40794D02*
Y41323D01*
X36614Y40818D02*
Y41402D01*
X36772Y40743D02*
Y41244D01*
X36479Y41260D02*
X36756D01*
X36535Y40821D02*
Y41480D01*
X36427Y41589D02*
X37274Y40742D01*
X36468Y41496D02*
X36520D01*
X36781Y42014D02*
Y42156D01*
X36860D01*
X36850Y41945D02*
Y42156D01*
X37244Y41551D02*
Y46886D01*
X37165Y41630D02*
Y46886D01*
X37401Y41394D02*
Y46886D01*
X37323Y41473D02*
Y46886D01*
X36860Y42156D02*
Y42766D01*
X36929Y41866D02*
Y46886D01*
X37087Y41709D02*
Y46886D01*
X37008Y41787D02*
Y46886D01*
X37142Y41653D02*
X39272D01*
X37299Y41496D02*
X39272D01*
X37221Y41575D02*
X39272D01*
X36906Y41890D02*
X39272D01*
X36827Y41968D02*
X39272D01*
X37063Y41732D02*
X39272D01*
X36984Y41811D02*
X39272D01*
X37768Y41024D02*
X39272D01*
X37693Y41102D02*
X39272D01*
X37457Y41339D02*
X39272D01*
X37378Y41417D02*
X39272D01*
X37614Y41181D02*
X39272D01*
X37536Y41260D02*
X39272D01*
X37480Y41315D02*
Y46886D01*
X36781Y42014D02*
X37744Y41051D01*
X36781Y42047D02*
X39272D01*
X36860Y42283D02*
X39272D01*
X36860Y42362D02*
X39272D01*
X36781Y42126D02*
X39272D01*
X36860Y42205D02*
X39272D01*
X37953Y37522D02*
Y46886D01*
X37874Y37545D02*
Y46886D01*
X38110Y37424D02*
Y46886D01*
X38031Y37483D02*
Y46886D01*
X37638Y41158D02*
Y46886D01*
X37559Y41236D02*
Y46886D01*
X37795Y40981D02*
Y46886D01*
X37716Y41079D02*
Y46886D01*
X36821Y43346D02*
Y43395D01*
Y43386D02*
X36860D01*
X36781Y43395D02*
X36821D01*
X36860D01*
X36821D02*
Y44055D01*
Y43464D02*
X39272D01*
X36821Y43543D02*
X39272D01*
X36860Y42756D02*
X39272D01*
X36860Y42598D02*
X39272D01*
X36860Y42677D02*
X39272D01*
X36860Y43228D02*
X39272D01*
X36860Y42785D02*
Y43395D01*
Y43307D02*
X39272D01*
X36860Y43386D02*
X39272D01*
X36378Y44835D02*
Y44981D01*
X36423Y45145D02*
Y45455D01*
X36457Y44858D02*
Y46886D01*
X36418Y45512D02*
X39272D01*
X36378Y45619D02*
Y46886D01*
X36393Y45590D02*
X39272D01*
X36340Y45669D02*
X39272D01*
X36781Y44055D02*
X36821D01*
X36823Y44235D02*
Y44545D01*
X36850Y43395D02*
Y46886D01*
X36614Y44843D02*
Y46886D01*
X36535Y44861D02*
Y46886D01*
X36772Y44719D02*
Y46886D01*
X36693Y44801D02*
Y46886D01*
X36821Y43779D02*
X39272D01*
X36821Y43622D02*
X39272D01*
X36821Y43701D02*
X39272D01*
X36791Y44094D02*
X39272D01*
X36817Y44173D02*
X39272D01*
X36821Y43937D02*
X39272D01*
X36821Y44016D02*
X39272D01*
X36860Y42835D02*
X39272D01*
X36860Y42913D02*
X39272D01*
X36860Y42441D02*
X39272D01*
X36860Y42520D02*
X39272D01*
X36860Y43150D02*
X39272D01*
X36821Y43858D02*
X39272D01*
X36860Y42992D02*
X39272D01*
X36860Y43071D02*
X39272D01*
X36422Y45118D02*
X39272D01*
X36364Y44961D02*
X39272D01*
X36405Y45039D02*
X39272D01*
X36423Y45354D02*
X39272D01*
X36423Y45433D02*
X39272D01*
X36423Y45197D02*
X39272D01*
X36423Y45276D02*
X39272D01*
X36823Y44409D02*
X39272D01*
X36823Y44488D02*
X39272D01*
X36823Y44252D02*
X39272D01*
X36823Y44331D02*
X39272D01*
X36768Y44724D02*
X39272D01*
X36690Y44803D02*
X39272D01*
X36823Y44567D02*
X39272D01*
X36807Y44646D02*
X39272D01*
X38189Y19367D02*
Y19767D01*
X38268Y19367D02*
Y19796D01*
X38346Y19367D02*
Y19844D01*
X38268Y20656D02*
Y20945D01*
X38189Y20686D02*
Y20945D01*
X38425Y19367D02*
Y19918D01*
X38346Y20609D02*
Y20945D01*
X38504Y19367D02*
Y20049D01*
X38661Y19367D02*
Y20945D01*
X38583Y19367D02*
Y20945D01*
X38504Y20404D02*
Y20945D01*
X38425Y20535D02*
Y20945D01*
X38819Y19367D02*
Y20945D01*
X38740Y19367D02*
Y20945D01*
X38898Y19367D02*
Y20945D01*
X38976Y19367D02*
Y20945D01*
X39055Y19367D02*
Y20948D01*
X39134Y19367D02*
Y20971D01*
X39211Y21026D02*
X39378Y21193D01*
X39213Y19367D02*
Y21028D01*
X39291Y19367D02*
Y21106D01*
X39370Y19367D02*
Y21185D01*
X39449Y19367D02*
Y21315D01*
X39459Y21388D02*
Y21900D01*
X38428Y19921D02*
X40177D01*
X38178Y19764D02*
X40189D01*
X38344Y19842D02*
X40177D01*
X38411Y20551D02*
X40177D01*
X38316Y20630D02*
X40177D01*
X38481Y20000D02*
X40177D01*
X38470Y20472D02*
X40177D01*
X38538Y20236D02*
X40177D01*
X38515Y20079D02*
X40177D01*
X38533Y20157D02*
X40177D01*
X39209Y21024D02*
X40177D01*
X39287Y21102D02*
X40177D01*
X38530Y20315D02*
X40177D01*
X38508Y20394D02*
X40177D01*
X39366Y21181D02*
X40177D01*
X39427Y21260D02*
X40182D01*
X39454Y21339D02*
X40209D01*
X39459Y21417D02*
X40270D01*
X39459Y21496D02*
X40348D01*
X39459Y21575D02*
X40427D01*
X39606Y19367D02*
Y23189D01*
X39527Y19367D02*
Y23189D01*
X39764Y19367D02*
Y23189D01*
X39685Y19367D02*
Y23189D01*
X39459Y21653D02*
X40506D01*
X39459Y21732D02*
X40585D01*
X39459Y21811D02*
X40663D01*
X39459Y21890D02*
X40774D01*
X38630Y22990D02*
X38722Y22898D01*
X38733Y22887D02*
X38827Y22793D01*
X38740Y22880D02*
Y23189D01*
X38583Y23028D02*
Y23189D01*
X38661Y22959D02*
Y23189D01*
X38976Y22333D02*
Y23189D01*
X39213Y22260D02*
Y23189D01*
X39055Y22331D02*
Y23189D01*
X38923Y22333D02*
X39026D01*
X38907Y22348D02*
Y22598D01*
X38189Y23071D02*
Y23268D01*
X38425Y23071D02*
Y23268D01*
X38268Y23071D02*
Y23268D01*
X38147D02*
X38524D01*
X38346Y23071D02*
Y23268D01*
X38155Y23819D02*
X38524D01*
X38116Y23858D02*
X38524D01*
X38819Y22801D02*
Y23189D01*
X38504Y23062D02*
Y23268D01*
X39134Y22311D02*
Y23189D01*
X38898Y22672D02*
Y23189D01*
X38524D02*
Y23268D01*
Y23819D02*
Y23898D01*
Y23189D02*
X39193D01*
X38524Y23898D02*
X39193D01*
X38907Y22520D02*
X40975D01*
X38907Y22362D02*
X41057D01*
X38907Y22441D02*
X41004D01*
X38858Y22756D02*
X40965D01*
X38785Y22835D02*
X40965D01*
X38907Y22598D02*
X40965D01*
X38896Y22677D02*
X40965D01*
X39450Y21968D02*
X42906D01*
X39220Y22252D02*
X39378Y22094D01*
X39416Y22047D02*
X42972D01*
X39346Y22126D02*
X42972D01*
X39268Y22205D02*
X42972D01*
X39183Y22283D02*
X41153D01*
X38707Y22913D02*
X40965D01*
X38628Y22992D02*
X40965D01*
X38440Y23071D02*
X40971D01*
X39193Y23898D02*
X39272D01*
X39193D02*
X39272D01*
X39193Y23189D02*
X39272D01*
X39193D02*
X39272D01*
X39370Y22102D02*
Y23189D01*
X39291Y22181D02*
Y23189D01*
X39272D02*
X39941D01*
X39449Y21973D02*
Y23189D01*
X39272Y23898D02*
X39941D01*
X40236Y19367D02*
Y19672D01*
X40258Y19648D02*
X40539Y19367D01*
X40177Y19843D02*
Y21211D01*
X42677Y19367D02*
Y19463D01*
X42756Y19367D02*
Y19541D01*
X42835Y19367D02*
Y19620D01*
X40394Y19367D02*
Y19512D01*
X40315Y19367D02*
Y19591D01*
X40472Y19367D02*
Y19433D01*
X40258Y21405D02*
X40681Y21829D01*
X39842Y19367D02*
Y23189D01*
X39921Y19367D02*
Y23189D01*
X41575Y21909D02*
Y22234D01*
X41732Y21909D02*
Y22234D01*
X41653Y21909D02*
Y22234D01*
X42598Y21650D02*
Y22208D01*
X42520Y21728D02*
Y22229D01*
X42756Y21492D02*
Y22205D01*
X42677Y21571D02*
Y22205D01*
X42362Y21873D02*
Y22349D01*
X42441Y21807D02*
Y22271D01*
X43150Y19367D02*
Y19636D01*
X43307Y19367D02*
Y19636D01*
X43228Y19367D02*
Y19636D01*
X42913Y19367D02*
Y19636D01*
X42581Y19367D02*
X42850Y19636D01*
X43071Y19367D02*
Y19636D01*
X42992Y19367D02*
Y19636D01*
X44173Y19367D02*
Y19636D01*
X44094Y19367D02*
Y19636D01*
X44331Y19367D02*
Y19636D01*
X44252Y19367D02*
Y19636D01*
X43464Y19367D02*
Y19636D01*
X43386Y19367D02*
Y19636D01*
X44016Y19367D02*
Y19636D01*
X43543Y19367D02*
Y19636D01*
X42673Y21575D02*
X42835D01*
X42752Y21496D02*
X42835D01*
X42419Y21829D02*
X42835Y21413D01*
X42595Y21653D02*
X42835D01*
X42516Y21732D02*
X42835D01*
X42437Y21811D02*
X42839D01*
X42327Y21890D02*
X42861D01*
X43701Y19367D02*
Y19636D01*
X43622Y19367D02*
Y19636D01*
X43937Y19367D02*
Y19636D01*
X43779Y19367D02*
Y19636D01*
X42835Y21413D02*
Y21757D01*
X42835Y21413D02*
Y22205D01*
X43858Y19367D02*
Y19636D01*
X41024Y21909D02*
Y22407D01*
X40876Y21909D02*
X42224D01*
X41102D02*
Y22318D01*
X41260Y21909D02*
Y22243D01*
X41181Y21909D02*
Y22269D01*
X41339Y22234D02*
X41772D01*
X41339Y21909D02*
Y22234D01*
X41968Y21909D02*
Y22290D01*
X42047Y21909D02*
Y22355D01*
X42126Y21909D02*
Y22488D01*
X41496Y21909D02*
Y22234D01*
X41417Y21909D02*
Y22234D01*
X41811Y21909D02*
Y22236D01*
X41890Y21909D02*
Y22253D01*
X40965Y22608D02*
Y23002D01*
X39941Y23228D02*
X41041D01*
X39941Y23189D02*
Y23898D01*
Y23307D02*
X41122D01*
X42293Y22559D02*
Y22913D01*
X42146Y22608D02*
Y23002D01*
X41339Y23376D02*
X41772D01*
X42106Y22441D02*
X42314D01*
X41957Y22283D02*
X42425D01*
X42053Y22362D02*
X42353D01*
X42146Y22598D02*
X42293D01*
X42146Y22913D02*
X42293D01*
X42135Y22520D02*
X42296D01*
X42139Y23071D02*
X42330D01*
X42913Y21978D02*
Y22205D01*
X42648D02*
X42972D01*
Y22035D02*
Y22205D01*
X42146Y22677D02*
X42293D01*
X42146Y22756D02*
X42293D01*
X42146Y22835D02*
X42293D01*
X42146Y22992D02*
X42302D01*
X42115Y23150D02*
X42383D01*
X42069Y23228D02*
X42485D01*
X42992Y23268D02*
Y23937D01*
X42677Y23268D02*
Y23937D01*
X42648Y23268D02*
X44242D01*
X43071D02*
Y23937D01*
X43779Y23268D02*
Y23937D01*
X43543Y23268D02*
Y23937D01*
X44173Y23268D02*
Y23937D01*
X44094Y23268D02*
Y23937D01*
X43307Y23268D02*
Y23937D01*
X43150Y23268D02*
Y23937D01*
X43464Y23268D02*
Y23937D01*
X43386Y23268D02*
Y23937D01*
X38189Y23819D02*
Y27723D01*
X38268Y23819D02*
Y27795D01*
X39527Y23898D02*
Y31014D01*
X39685Y23898D02*
Y30965D01*
X39606Y23898D02*
Y30973D01*
X39842Y23898D02*
Y30965D01*
X39764Y23898D02*
Y30965D01*
X40000Y19367D02*
Y30965D01*
X40157Y19367D02*
Y28116D01*
X40079Y19367D02*
Y28251D01*
X40231Y24454D02*
Y25408D01*
X39921Y23898D02*
Y30965D01*
X40315Y21463D02*
Y24454D01*
X40236Y21381D02*
Y24454D01*
X38346Y23819D02*
Y35157D01*
X38504Y23819D02*
Y32041D01*
X38425Y23819D02*
Y32381D01*
X38661Y23898D02*
Y31879D01*
X38583Y23898D02*
Y31958D01*
X38819Y23898D02*
Y31721D01*
X38740Y23898D02*
Y31800D01*
X39291Y23898D02*
Y31249D01*
X39213Y23898D02*
Y31328D01*
X39449Y23898D02*
Y31091D01*
X39370Y23898D02*
Y31170D01*
X38976Y23898D02*
Y31564D01*
X38898Y23898D02*
Y31643D01*
X39134Y23898D02*
Y31406D01*
X39055Y23898D02*
Y31485D01*
X40394Y21541D02*
Y24454D01*
X40551Y21699D02*
Y24454D01*
X40472Y21620D02*
Y24454D01*
X40709Y21853D02*
Y24454D01*
X40630Y21777D02*
Y24454D01*
X40231D02*
X41186D01*
X40787Y21895D02*
Y24454D01*
X40866Y21909D02*
Y24454D01*
X41024Y23204D02*
Y24454D01*
X40945Y21909D02*
Y24454D01*
X41181Y23341D02*
Y24454D01*
X41102Y23292D02*
Y24454D01*
X41186Y24488D02*
X42293D01*
X41186Y24567D02*
X42293D01*
X41186Y24724D02*
X42302D01*
X41186Y24803D02*
X42330D01*
X41186Y24882D02*
X42383D01*
X41186Y24961D02*
X42485D01*
X40472Y25408D02*
Y25895D01*
X41186Y25039D02*
X42972D01*
X41186Y25118D02*
X42972D01*
X41186Y24454D02*
Y25408D01*
X41260Y23368D02*
Y29429D01*
X41417Y23376D02*
Y28928D01*
X41339Y23376D02*
Y29429D01*
X41186Y24646D02*
X42293D01*
X41186Y25197D02*
X42972D01*
X41186Y25276D02*
X42972D01*
X41186Y25354D02*
X42972D01*
X40236Y25408D02*
Y26243D01*
X40315Y25408D02*
Y26040D01*
X40236Y26375D02*
Y28061D01*
X40394Y26667D02*
Y28033D01*
X40315Y26579D02*
Y28036D01*
X40394Y25408D02*
Y25951D01*
X40630Y25408D02*
Y25838D01*
X40551Y25408D02*
Y25859D01*
X40472Y26724D02*
Y28052D01*
X40709Y25408D02*
Y25832D01*
X38307Y28078D02*
Y28880D01*
Y28110D02*
X40163D01*
X38307Y28189D02*
X40103D01*
X38307Y28268D02*
X40075D01*
X38307Y28346D02*
X40070D01*
X38307Y28425D02*
X40086D01*
X38307Y28504D02*
X40089D01*
X40551Y26759D02*
Y28098D01*
X40630Y26780D02*
Y28198D01*
X40709Y26786D02*
Y29611D01*
X40089Y28433D02*
Y28900D01*
X40079Y28402D02*
Y28931D01*
X40640Y28433D02*
Y28900D01*
X40787Y25408D02*
Y25838D01*
X40231Y25408D02*
X41186D01*
X40866D02*
Y25859D01*
X40945Y25408D02*
Y25894D01*
X41024Y25408D02*
Y25951D01*
X40963Y25905D02*
X43279D01*
X41102Y25408D02*
Y26039D01*
X41181Y25408D02*
Y26242D01*
X41058Y25984D02*
X43357D01*
X41117Y26063D02*
X43436D01*
X41156Y26142D02*
X43515D01*
X41178Y26220D02*
X43594D01*
X41186Y26299D02*
X43672D01*
X41181Y26378D02*
X43751D01*
X40866Y26760D02*
Y29649D01*
X40945Y26724D02*
Y29601D01*
X40643Y28425D02*
X41656D01*
X40787Y26780D02*
Y29633D01*
X40826Y26772D02*
X44145D01*
X38179Y27716D02*
X42559D01*
X41181Y26377D02*
Y29434D01*
X41102Y26579D02*
Y29461D01*
X41162Y26457D02*
X43830D01*
X41129Y26535D02*
X43909D01*
X41024Y26668D02*
Y29522D01*
X41076Y26614D02*
X43987D01*
X40992Y26693D02*
X44066D01*
X42362Y23123D02*
Y24082D01*
X42520Y23244D02*
Y23961D01*
X42441Y23201D02*
Y24004D01*
X42598Y23264D02*
Y23940D01*
X42293Y24291D02*
Y24646D01*
X42756Y23268D02*
Y23937D01*
X42913Y23268D02*
Y23937D01*
X42835Y23268D02*
Y23937D01*
X42677Y25000D02*
Y26831D01*
X42598Y24997D02*
Y26831D01*
X42913Y25000D02*
Y26831D01*
X42835Y25000D02*
Y26831D01*
X41811Y23374D02*
Y28410D01*
X41968Y23320D02*
Y28425D01*
X41890Y23357D02*
Y28425D01*
X41575Y23376D02*
Y28472D01*
X41496Y23376D02*
Y28572D01*
X41732Y23376D02*
Y28407D01*
X41653Y23376D02*
Y28426D01*
X42126Y23122D02*
Y27136D01*
X42047Y23255D02*
Y28425D01*
X42283Y21903D02*
Y26988D01*
X42205Y21909D02*
Y27038D01*
X42441Y24933D02*
Y26959D01*
X42362Y24855D02*
Y26964D01*
X42756Y25000D02*
Y26831D01*
X42520Y24976D02*
Y26973D01*
X43228Y23268D02*
Y23937D01*
X43701Y23268D02*
Y23937D01*
X43622Y23268D02*
Y23937D01*
X43858Y23268D02*
Y23937D01*
X42648Y25000D02*
X42972D01*
X42648Y23937D02*
X44242D01*
X43917Y25000D02*
X44242D01*
X44016Y23268D02*
Y23937D01*
X44252Y23268D02*
Y23937D01*
X44331Y23256D02*
Y23948D01*
X44409Y23226D02*
Y23976D01*
X43937Y23268D02*
Y23937D01*
X43917Y25000D02*
Y25208D01*
X42972Y25000D02*
Y25404D01*
X43071Y25692D02*
Y26831D01*
X42992Y25538D02*
Y26831D01*
X43228Y25855D02*
Y26831D01*
X43150Y25776D02*
Y26831D01*
X43937Y25000D02*
Y25227D01*
X44016Y25000D02*
Y25306D01*
X44252Y25000D02*
Y25542D01*
X44331Y24989D02*
Y25621D01*
X43386Y26013D02*
Y26831D01*
X43307Y25934D02*
Y26831D01*
X44094Y25000D02*
Y25385D01*
X44173Y25000D02*
Y25464D01*
X42559Y26831D02*
X43268D01*
X42559D02*
Y26988D01*
X42520Y27613D02*
Y28425D01*
X42205Y27548D02*
Y28425D01*
X42559Y27756D02*
X43268D01*
X42559Y27598D02*
Y27756D01*
X43268Y26831D02*
X43366D01*
X43543Y26170D02*
Y26831D01*
X43464Y26091D02*
Y26831D01*
X43268D02*
X43366D01*
X42598Y27756D02*
Y28425D01*
X43268Y27756D02*
X43366D01*
X43268D02*
X43366D01*
X42126Y27451D02*
Y28425D01*
X42362Y27623D02*
Y28425D01*
X42283Y27598D02*
Y28425D01*
X42677Y27756D02*
Y28425D01*
X42441Y27627D02*
Y28425D01*
X42835Y27756D02*
Y28425D01*
X42756Y27756D02*
Y28425D01*
X43307Y27756D02*
Y28425D01*
X43228Y27756D02*
Y28425D01*
X43464Y27756D02*
Y28425D01*
X43386Y27756D02*
Y28425D01*
X42992Y27756D02*
Y28425D01*
X42913Y27756D02*
Y28425D01*
X43150Y27756D02*
Y28425D01*
X43071Y27756D02*
Y28425D01*
X43622Y26249D02*
Y26831D01*
X43366D02*
X44075D01*
X43701Y26327D02*
Y26831D01*
X43366Y27756D02*
X44075D01*
X43858Y26485D02*
Y26831D01*
X43779Y26406D02*
Y26831D01*
X44016Y26642D02*
Y26831D01*
X43937Y26564D02*
Y26831D01*
X44075Y26850D02*
X44224D01*
X44075Y26831D02*
Y27756D01*
Y26929D02*
X44302D01*
X44075Y27008D02*
X44381D01*
X43543Y27756D02*
Y28425D01*
X43701Y27756D02*
Y28425D01*
X43622Y27756D02*
Y28425D01*
X43858Y27756D02*
Y28425D01*
X43779Y27756D02*
Y28425D01*
X41868D02*
X43868D01*
X44094Y26721D02*
Y28537D01*
X44173Y26800D02*
Y28583D01*
X44331Y26957D02*
Y28583D01*
X44252Y26879D02*
Y28583D01*
X43937Y27756D02*
Y28434D01*
X44016Y27756D02*
Y28468D01*
X44409Y27036D02*
Y28583D01*
Y19367D02*
Y19636D01*
X44567Y19367D02*
Y19636D01*
X44488Y19367D02*
Y19636D01*
X44724Y19367D02*
Y19636D01*
X44646Y19367D02*
Y19636D01*
X42850D02*
X44744D01*
X45039Y19367D02*
Y19817D01*
X45118Y19367D02*
Y19896D01*
X45197Y19367D02*
Y19974D01*
X44803Y19367D02*
Y19642D01*
X44882Y19367D02*
Y19673D01*
X44961Y19367D02*
Y19738D01*
X45276Y19367D02*
Y20053D01*
X45354Y19367D02*
Y20132D01*
X45433Y19367D02*
Y20211D01*
X45512Y19367D02*
Y20289D01*
X44939Y19717D02*
X45587Y20364D01*
X45876D01*
X45590Y19367D02*
Y20364D01*
X45748Y19367D02*
Y20364D01*
X45669Y19367D02*
Y20364D01*
X45827Y19367D02*
Y20364D01*
X46063Y19367D02*
Y20437D01*
X45905Y19367D02*
Y20366D01*
X45984Y19367D02*
Y20386D01*
X42663Y19449D02*
X46262D01*
X42581Y19367D02*
X46262D01*
X42585Y19370D02*
X46262D01*
X44901Y19685D02*
X46262D01*
X44986Y19764D02*
X46262D01*
X42742Y19528D02*
X46262D01*
X42821Y19606D02*
X46262D01*
X45065Y19842D02*
X46262D01*
X45144Y19921D02*
X46262D01*
X45380Y20157D02*
X46262D01*
X45459Y20236D02*
X46262D01*
X45222Y20000D02*
X46262D01*
X45301Y20079D02*
X46262D01*
X46142Y19367D02*
Y20516D01*
X45537Y20315D02*
X48413D01*
X46220Y19367D02*
Y20594D01*
X46177Y20551D02*
X46352D01*
X46071Y20445D02*
X46291Y20665D01*
X46000Y20394D02*
X46544D01*
X46098Y20472D02*
X46422D01*
X46262Y19367D02*
Y20306D01*
X46299D02*
Y20645D01*
X46262Y20306D02*
X47217D01*
X46457D02*
Y20445D01*
X46378Y20306D02*
Y20518D01*
X46256Y20630D02*
X46306D01*
X46535Y20306D02*
Y20398D01*
X44596Y22717D02*
Y22913D01*
X44961Y22717D02*
Y23936D01*
X44803Y22717D02*
Y23974D01*
X44567Y23055D02*
Y23976D01*
X44488Y23168D02*
Y23976D01*
X44882Y22717D02*
Y23948D01*
X45039Y22717D02*
Y23934D01*
X45118Y22717D02*
Y23945D01*
X45197Y22717D02*
Y23968D01*
X45669Y22717D02*
Y23933D01*
X45068Y23937D02*
X45657D01*
X45827Y22717D02*
Y23933D01*
X45748Y22717D02*
Y23933D01*
X44724Y22717D02*
Y23976D01*
X45276Y22717D02*
Y24006D01*
X45354Y22717D02*
Y24062D01*
X44404Y23976D02*
X44798D01*
X44646Y22717D02*
Y23976D01*
X45291Y24016D02*
X45657D01*
X45433Y22717D02*
Y24147D01*
X45512Y22717D02*
Y24298D01*
X45388Y24094D02*
X45657D01*
X45451Y24173D02*
X45657D01*
X45536Y24409D02*
X45657D01*
X45538Y24488D02*
X45657D01*
X45494Y24252D02*
X45657D01*
X45521Y24331D02*
X45657D01*
X39941Y23465D02*
X48413D01*
X41988Y23307D02*
X48413D01*
X39941Y23386D02*
X48413D01*
X39941Y23701D02*
X48413D01*
X39941Y23779D02*
X48413D01*
X39941Y23543D02*
X48413D01*
X39941Y23622D02*
X48413D01*
X44596Y22717D02*
X47156D01*
X44596Y22756D02*
X48413D01*
X44596Y22835D02*
X48413D01*
X44596Y22913D02*
X48413D01*
X44506Y23150D02*
X48413D01*
X44405Y23228D02*
X48413D01*
X44588Y22992D02*
X48413D01*
X44560Y23071D02*
X48413D01*
X45905Y22717D02*
Y23933D01*
X46142Y22717D02*
Y23933D01*
X45984Y22717D02*
Y23933D01*
X46063Y22717D02*
Y23933D01*
X39941Y23858D02*
X48413D01*
X45657Y23933D02*
X46720D01*
X46299Y22717D02*
Y23933D01*
X46220Y22717D02*
Y23933D01*
X46614Y22717D02*
Y23933D01*
X46378Y22717D02*
Y23933D01*
X46457Y22717D02*
Y23933D01*
X46535Y22717D02*
Y23933D01*
X46693Y20306D02*
Y20354D01*
X46772Y20306D02*
Y20353D01*
X46614Y20306D02*
Y20369D01*
X46850Y20306D02*
Y20365D01*
X46929Y20306D02*
Y20391D01*
X47217Y19367D02*
Y20306D01*
X47323Y19367D02*
Y20965D01*
X47244Y19367D02*
Y20965D01*
X47008Y20306D02*
Y20435D01*
X47087Y20306D02*
Y20502D01*
X47165Y20306D02*
Y20614D01*
X47401Y19367D02*
Y20969D01*
X47480Y19367D02*
Y20996D01*
X47559Y19367D02*
Y21057D01*
X47197Y20965D02*
X47352D01*
X47547Y21045D02*
X47606Y21104D01*
X47638Y19367D02*
Y21136D01*
X47716Y19367D02*
Y21265D01*
X48031Y19367D02*
Y21299D01*
X47795Y19367D02*
Y21299D01*
X47606Y21104D02*
X47646Y21144D01*
X47953Y19367D02*
Y21299D01*
X47874Y19367D02*
Y21299D01*
X47217Y19528D02*
X48413D01*
X47217Y19367D02*
X48413D01*
X47217Y19370D02*
X48413D01*
X46934Y20394D02*
X48413D01*
X47056Y20472D02*
X48413D01*
X47217Y19606D02*
X48413D01*
X47217Y19685D02*
X48413D01*
X47217Y19842D02*
X48413D01*
X47217Y19921D02*
X48413D01*
X47217Y19449D02*
X48413D01*
X47217Y19764D02*
X48413D01*
X47217Y20157D02*
X48413D01*
X47217Y20236D02*
X48413D01*
X47217Y20000D02*
X48413D01*
X47217Y20079D02*
X48413D01*
X47201Y20709D02*
X48413D01*
X47127Y20551D02*
X48413D01*
X47173Y20630D02*
X48413D01*
X47202Y20945D02*
X48413D01*
X47523Y21024D02*
X48413D01*
X47215Y20787D02*
X48413D01*
X47215Y20866D02*
X48413D01*
X48189Y19367D02*
Y21299D01*
X48110Y19367D02*
Y21299D01*
X48413Y19367D02*
Y21299D01*
X48268Y19367D02*
Y21299D01*
X47604Y21102D02*
X48413D01*
X48346Y19367D02*
Y21299D01*
X47677Y21181D02*
X48413D01*
X47715Y21260D02*
X48413D01*
X47480Y21732D02*
X47717D01*
X47480Y21653D02*
X47717D01*
X47480Y22047D02*
X47717D01*
X47480Y22126D02*
X47717D01*
X47480Y21890D02*
X47717D01*
X47480Y21968D02*
X47717D01*
X47480Y21613D02*
Y22238D01*
X47593Y21575D02*
X47717D01*
X47480Y22205D02*
X47717D01*
X47498Y22283D02*
X47717D01*
X47510Y22362D02*
X47717D01*
X47323Y22660D02*
Y24537D01*
X46693Y22717D02*
Y23933D01*
X46720Y24488D02*
X47372D01*
X46720Y24331D02*
X47636D01*
X46720Y24409D02*
X47474D01*
X47559Y21592D02*
Y24362D01*
X47716Y21412D02*
Y24307D01*
X47638Y21541D02*
Y24330D01*
X47350Y22636D02*
X47429Y22557D01*
X47401Y22585D02*
Y24462D01*
X47480Y22487D02*
Y24406D01*
X47677Y21496D02*
X47717D01*
X47480Y21811D02*
X47717D01*
X47498Y22441D02*
X48413D01*
X47298Y22677D02*
X48413D01*
X46720Y23937D02*
X48413D01*
X47460Y22520D02*
X48413D01*
X47388Y22598D02*
X48413D01*
X47717Y21412D02*
Y22362D01*
X47724Y21299D02*
X48413D01*
X47717Y22362D02*
X48413D01*
X47795D02*
Y24294D01*
X47874Y22362D02*
Y24288D01*
X47953Y22362D02*
Y24290D01*
X46720Y24173D02*
X48413D01*
X46720Y24252D02*
X48413D01*
X46720Y24016D02*
X48413D01*
X46720Y24094D02*
X48413D01*
X48031Y22362D02*
Y24301D01*
X48110Y22362D02*
Y24320D01*
X48189Y22362D02*
Y24349D01*
X48268Y22362D02*
Y24388D01*
X48346Y22362D02*
Y24439D01*
X48413Y22362D02*
Y24494D01*
X48142Y24331D02*
X48413D01*
X48304Y24409D02*
X48413D01*
X44646Y24961D02*
Y25256D01*
X44404Y24961D02*
X44815D01*
X44803D02*
Y25155D01*
X43917Y25197D02*
X44723D01*
X43985Y25276D02*
X44626D01*
X43917Y25118D02*
X44946D01*
X44724Y24961D02*
Y25196D01*
X45197Y24961D02*
Y25150D01*
X45276Y24924D02*
Y25187D01*
X45354Y24867D02*
Y25244D01*
X44961Y24994D02*
Y25117D01*
X44882Y24981D02*
Y25130D01*
X45039Y24995D02*
Y25116D01*
X45118Y24985D02*
Y25126D01*
X43917Y25208D02*
X44494Y25784D01*
X44064Y25354D02*
X44563D01*
X44142Y25433D02*
X44520D01*
X44300Y25591D02*
X44479D01*
X44379Y25669D02*
X44476D01*
X44221Y25512D02*
X44493D01*
X43111Y25738D02*
X44535Y27161D01*
X44488Y24961D02*
Y25531D01*
X44409Y24961D02*
Y25700D01*
X44567Y24961D02*
Y25348D01*
X45354Y26049D02*
Y26645D01*
X45118Y26166D02*
Y26409D01*
X45197Y26143D02*
Y26487D01*
X45276Y26105D02*
Y26566D01*
X44869Y26159D02*
X45341Y26632D01*
X45337Y24882D02*
X45657D01*
X45199Y24961D02*
X45657D01*
X45291Y25197D02*
X45904D01*
X45388Y25276D02*
X45807D01*
X43917Y25039D02*
X47121D01*
X45068Y25118D02*
X46127D01*
X45471Y24724D02*
X45657D01*
X45529Y24567D02*
X45657D01*
X45507Y24646D02*
X45657D01*
X45417Y24803D02*
X45657D01*
X45433Y24783D02*
Y25328D01*
X45451Y25354D02*
X45744D01*
X45494Y25433D02*
X45701D01*
X45471Y25905D02*
X45724D01*
X45417Y25984D02*
X45778D01*
X45433Y25964D02*
Y26761D01*
X45337Y26063D02*
X45858D01*
X45199Y26142D02*
X45996D01*
X45512Y24632D02*
Y25479D01*
X45590Y22717D02*
Y28583D01*
X45521Y25512D02*
X45674D01*
X45536Y25591D02*
X45660D01*
X45538Y25669D02*
X45657D01*
X45512Y25813D02*
Y28078D01*
X45529Y25748D02*
X45667D01*
X45507Y25827D02*
X45688D01*
X44075Y27087D02*
X44460D01*
X44075Y27165D02*
X44535D01*
X44075Y27244D02*
X44535D01*
X44075Y27638D02*
X44535D01*
X38268Y27795D02*
X44535D01*
X44075Y27323D02*
X44535D01*
X44075Y27402D02*
X44535D01*
X44961Y26176D02*
Y26251D01*
X45039Y26177D02*
Y26330D01*
X44075Y27559D02*
X44535D01*
X44075Y27716D02*
X44535D01*
X44075Y27480D02*
X44535D01*
X38321Y28031D02*
X44520D01*
X38310Y27874D02*
X44535D01*
X38326Y27953D02*
X44535D01*
X40625Y28189D02*
X44479D01*
X40653Y28268D02*
X44476D01*
X40565Y28110D02*
X44493D01*
X40659Y28346D02*
X44485D01*
X44535Y27161D02*
Y28001D01*
X44488Y27115D02*
Y28130D01*
X45480Y26966D02*
Y28001D01*
X41868Y28425D02*
X44507D01*
X44488Y28359D02*
Y28583D01*
X45512Y28411D02*
Y28583D01*
X45087Y26378D02*
X48413D01*
X44930Y26220D02*
X48413D01*
X45009Y26299D02*
X48413D01*
X45324Y26614D02*
X48413D01*
X45393Y26693D02*
X48413D01*
X45166Y26457D02*
X48413D01*
X45245Y26535D02*
X48413D01*
X45478Y26929D02*
X48413D01*
X45480Y27008D02*
X48413D01*
X45438Y26772D02*
X48413D01*
X45465Y26850D02*
X48413D01*
X45480Y27244D02*
X48413D01*
X45480Y27323D02*
X48413D01*
X45480Y27087D02*
X48413D01*
X45480Y27165D02*
X48413D01*
X45480Y27559D02*
X48413D01*
X45480Y27402D02*
X48413D01*
X45480Y27480D02*
X48413D01*
X45480Y27795D02*
X45657D01*
X45480Y27874D02*
X45657D01*
X45480Y27638D02*
X47806D01*
X45480Y27716D02*
X45657D01*
X45480Y27953D02*
X45657D01*
X45494Y28031D02*
X45657D01*
X45521Y28110D02*
X45657D01*
X45529Y28346D02*
X45657D01*
X45507Y28425D02*
X45657D01*
X45536Y28189D02*
X45657D01*
X45538Y28268D02*
X45657D01*
Y23933D02*
Y24996D01*
X45984D02*
Y25155D01*
X46142Y24996D02*
Y25117D01*
X46063Y24996D02*
Y25130D01*
X45657Y24996D02*
X46720D01*
X46220D02*
Y25116D01*
X46720Y23933D02*
Y24996D01*
Y24882D02*
X47141D01*
X46720Y24961D02*
X47127D01*
X46299Y24996D02*
Y25126D01*
X46378Y24996D02*
Y25150D01*
X46249Y25118D02*
X47124D01*
X46457Y24996D02*
Y25187D01*
X45669Y24996D02*
Y25531D01*
X45827Y24996D02*
Y25256D01*
X45748Y24996D02*
Y25348D01*
X45905Y24996D02*
Y25196D01*
X45669Y25761D02*
Y27713D01*
X46472Y25197D02*
X47134D01*
X46929Y22717D02*
Y29380D01*
X46850Y22717D02*
Y31117D01*
X47087Y22717D02*
Y28158D01*
X47008Y22717D02*
Y28237D01*
X46535Y24996D02*
Y25244D01*
X46614Y24996D02*
Y25328D01*
X46693Y24996D02*
Y25479D01*
X46772Y22717D02*
Y31058D01*
X46569Y25276D02*
X47153D01*
X46632Y25354D02*
X47182D01*
X46675Y25433D02*
X47220D01*
X46702Y25512D02*
X47272D01*
X46717Y25591D02*
X47338D01*
X46719Y25669D02*
X47428D01*
X46710Y25748D02*
X47558D01*
X46720Y24646D02*
X47240D01*
X47165Y22716D02*
Y24799D01*
X46720Y24567D02*
X47297D01*
X47244Y22702D02*
Y24639D01*
X46720Y24724D02*
X47196D01*
X46720Y24803D02*
X47164D01*
X48350Y25669D02*
X48413D01*
X48220Y25748D02*
X48413D01*
X47165Y25312D02*
Y28080D01*
X47323Y25574D02*
Y27922D01*
X47244Y25472D02*
Y28001D01*
X47480Y25705D02*
Y27765D01*
X47401Y25649D02*
Y27843D01*
X47559Y25749D02*
Y27701D01*
X48268Y25723D02*
Y28167D01*
X48346Y25672D02*
Y28218D01*
X48413Y25617D02*
Y28274D01*
X47716Y25804D02*
Y27677D01*
X47638Y25781D02*
Y27678D01*
X48110Y25791D02*
Y27644D01*
X48189Y25762D02*
Y27716D01*
X45748Y25944D02*
Y27713D01*
X45905Y26096D02*
Y27713D01*
X45827Y26036D02*
Y27713D01*
X46063Y26163D02*
Y27713D01*
X45984Y26137D02*
Y27713D01*
X45657D02*
X46720D01*
X46142Y26176D02*
Y27713D01*
X46535Y26049D02*
Y27713D01*
X46693Y25813D02*
Y27713D01*
X46614Y25964D02*
Y27713D01*
X46299Y26166D02*
Y27713D01*
X46220Y26177D02*
Y27713D01*
X46457Y26105D02*
Y27713D01*
X46378Y26143D02*
Y27713D01*
X45657D02*
Y28585D01*
X46720Y28031D02*
X47214D01*
X46720Y28110D02*
X47135D01*
X46720Y27713D02*
Y28776D01*
Y28189D02*
X47056D01*
X46720Y28425D02*
X46929D01*
Y28406D02*
Y29380D01*
X46720Y28268D02*
X46979D01*
X46720Y28346D02*
X46937D01*
X46598Y25984D02*
X48413D01*
X46688Y25827D02*
X48413D01*
X46652Y25905D02*
X48413D01*
X46720Y27716D02*
X47533D01*
X46518Y26063D02*
X48413D01*
X46380Y26142D02*
X48413D01*
X47874Y25823D02*
Y27609D01*
X47795Y25817D02*
Y27644D01*
X47953Y25821D02*
Y27598D01*
X48031Y25810D02*
Y27609D01*
X47657Y27677D02*
X47752D01*
X48100Y27638D02*
X48413D01*
X48189Y27716D02*
X48413D01*
X46720Y27795D02*
X47450D01*
X46993Y28252D02*
X47504Y27741D01*
X46720Y27874D02*
X47371D01*
X46720Y27953D02*
X47292D01*
X48231Y27795D02*
X48413D01*
X48247Y27874D02*
X48413D01*
X48242Y27953D02*
X48413D01*
X48214Y28031D02*
X48413D01*
X48189Y28071D02*
Y28128D01*
X48154Y28110D02*
X48413D01*
X48304Y28189D02*
X48413D01*
X38307Y28740D02*
X40089D01*
X38307Y28583D02*
X40089D01*
X38307Y28661D02*
X40089D01*
X38307Y28819D02*
X40089D01*
X38287Y29134D02*
X40098D01*
X38221Y29213D02*
X40153D01*
X38313Y28898D02*
X40089D01*
X38327Y28976D02*
X40070D01*
X38319Y29055D02*
X40073D01*
X40630Y29135D02*
Y29607D01*
X40551Y29234D02*
Y29607D01*
X40079Y29081D02*
Y29764D01*
X40236Y29272D02*
Y29629D01*
X40157Y29217D02*
Y29674D01*
Y30175D02*
Y30474D01*
X40079Y30086D02*
Y30564D01*
X40236Y30220D02*
Y30429D01*
X40315Y29297D02*
Y29610D01*
Y30240D02*
Y30410D01*
X40472Y29281D02*
Y29607D01*
X40394Y29300D02*
Y29607D01*
X40472Y30242D02*
Y30407D01*
X40394Y30242D02*
Y30407D01*
X40630Y30242D02*
Y30407D01*
X40551Y30242D02*
Y30407D01*
X40640Y28898D02*
X41437D01*
X40640Y28740D02*
X41469D01*
X40640Y28819D02*
X41491D01*
X40630Y29134D02*
X41384D01*
X40352Y29607D02*
X40662D01*
X40575Y29213D02*
X41412D01*
X40440Y29291D02*
X41472D01*
X40640Y28661D02*
X41469D01*
X40640Y28504D02*
X41542D01*
X40640Y28583D02*
X41491D01*
X40658Y28976D02*
X41395D01*
X40655Y29055D02*
X41379D01*
X40725Y30236D02*
X40958D01*
X40352Y30242D02*
X40662D01*
X40352Y30407D02*
X40662D01*
X40709Y30239D02*
Y30411D01*
X40820Y29649D02*
X40896D01*
X40866Y30200D02*
Y30449D01*
X40896Y29649D02*
X41035Y29510D01*
X40820Y30200D02*
X40970D01*
X40787Y30217D02*
Y30433D01*
X40945Y30200D02*
Y30449D01*
X38465Y32165D02*
Y32320D01*
X38474Y32914D02*
Y33415D01*
X40079Y30886D02*
Y30965D01*
X38528Y32012D02*
X39512Y31028D01*
X38504Y32738D02*
Y32805D01*
X39665Y30965D02*
X40144D01*
X38538Y33569D02*
X38715Y33745D01*
X39852Y34242D02*
Y34675D01*
X40000Y33809D02*
Y33944D01*
X39921Y33809D02*
Y34026D01*
X40157Y33809D02*
Y33875D01*
X40079Y33809D02*
Y33899D01*
X40315Y33809D02*
Y33868D01*
X40236Y33809D02*
Y33868D01*
X40394Y33809D02*
Y33868D01*
X38868Y33809D02*
X41368D01*
X40472D02*
Y33868D01*
X40226D02*
X40620D01*
X40551Y33809D02*
Y33868D01*
X40630Y33809D02*
Y33868D01*
X40709Y33809D02*
Y33879D01*
X40787Y33809D02*
Y33908D01*
X40866Y33809D02*
Y33960D01*
X40820Y30449D02*
X40970D01*
X40945Y33809D02*
Y34057D01*
X40964Y34094D02*
X41694D01*
X40988Y34173D02*
X41670D01*
X40836Y33937D02*
X41821D01*
X40918Y34016D02*
X41740D01*
X40972Y34803D02*
X41686D01*
X40932Y34882D02*
X41726D01*
X40862Y34961D02*
X41796D01*
X40706Y35039D02*
X41952D01*
X40994Y34252D02*
X41663D01*
X40994Y34242D02*
Y34675D01*
Y34331D02*
X41663D01*
X40994Y34409D02*
X41663D01*
X40994Y34488D02*
X41663D01*
X40994Y34567D02*
X41663D01*
X40994Y34646D02*
X41663D01*
X40991Y34724D02*
X41667D01*
X41417Y29222D02*
Y29429D01*
X41230D02*
X41631D01*
X41318Y30007D02*
X41572D01*
X41318D02*
X41344Y29980D01*
X41631D01*
X41325Y30000D02*
X41663D01*
X41496Y29311D02*
Y29429D01*
X41968Y29350D02*
Y29404D01*
X42126Y29350D02*
Y29567D01*
X41653Y29369D02*
Y29415D01*
X41575Y29353D02*
Y29429D01*
X42047Y29350D02*
Y29458D01*
X41811Y30039D02*
Y30115D01*
X42047Y29951D02*
Y30574D01*
X42126Y29842D02*
Y31073D01*
X42264Y29931D02*
Y30837D01*
X42205Y29350D02*
Y31073D01*
X41890Y30032D02*
Y30317D01*
Y30332D02*
Y30461D01*
X41968Y30005D02*
Y30500D01*
X42036Y29449D02*
X42372D01*
X41779Y29350D02*
X42372D01*
X41679Y29370D02*
X42372D01*
X41978Y30000D02*
X42264D01*
X41773Y30079D02*
X42264D01*
X42105Y29527D02*
X42372D01*
X42076Y29921D02*
X42372D01*
X42362Y29350D02*
Y29931D01*
X42283Y29350D02*
Y29931D01*
X42141Y29606D02*
X42372D01*
Y29350D02*
Y29931D01*
X42126Y29842D02*
X42372D01*
X42264Y29931D02*
X42372D01*
X42155Y29685D02*
X42372D01*
X42150Y29764D02*
X42372D01*
X41890Y30315D02*
X42264D01*
X41842Y30157D02*
X42264D01*
X41877Y30236D02*
X42264D01*
X42028Y30551D02*
X42264D01*
X42082Y30630D02*
X42264D01*
X41882Y30394D02*
X42264D01*
X41919Y30472D02*
X42264D01*
X42109Y30709D02*
X42264D01*
X42116Y30787D02*
X42264D01*
X42598Y30837D02*
Y31073D01*
X42283Y30837D02*
Y31073D01*
X42992Y30837D02*
Y31073D01*
X42913Y30837D02*
Y31073D01*
X43150Y30837D02*
Y31073D01*
X43071Y30837D02*
Y31073D01*
X41522Y33745D02*
X41832Y33435D01*
X42047Y30981D02*
Y31073D01*
X41832Y33435D02*
X42627D01*
X41802Y33465D02*
X42656D01*
X41724Y33543D02*
X42735D01*
X42441Y30837D02*
Y31073D01*
X42677Y30837D02*
Y31073D01*
X42520Y30837D02*
Y31073D01*
X42205Y33435D02*
Y33868D01*
X42047Y33435D02*
Y33868D01*
X42362Y30837D02*
Y31073D01*
X42283Y33435D02*
Y33868D01*
X41811Y33456D02*
Y33944D01*
X41968Y33435D02*
Y33875D01*
X41890Y33435D02*
Y33899D01*
X41732Y33535D02*
Y34026D01*
X41663Y34242D02*
Y34675D01*
X42037Y33868D02*
X42431D01*
X42362Y33435D02*
Y33868D01*
X42126Y33435D02*
Y33868D01*
X42441Y33435D02*
Y33868D01*
X42520Y33435D02*
Y33879D01*
X42598Y33435D02*
Y33908D01*
X42677Y33485D02*
Y33960D01*
X42647Y33937D02*
X42692D01*
X42756Y30837D02*
Y31073D01*
X42264Y30837D02*
X43012D01*
X42835D02*
Y31073D01*
X41645Y33622D02*
X42736D01*
X41566Y33701D02*
X42736D01*
X43053Y31895D02*
X43116Y31959D01*
X42627Y33435D02*
X42736Y33544D01*
X43228Y30837D02*
Y31073D01*
X43307Y30837D02*
Y31073D01*
Y31506D02*
Y31871D01*
X43069Y31890D02*
X43221D01*
X43150Y31843D02*
Y31929D01*
X43228Y31743D02*
Y31887D01*
X41477Y33779D02*
X42736D01*
Y33544D02*
Y33874D01*
X42673Y34961D02*
X42849D01*
X42517Y35039D02*
X42770D01*
X42743Y34882D02*
X42930D01*
X42778Y35032D02*
X42906Y34904D01*
X42913Y34734D02*
Y34896D01*
X42835Y34734D02*
Y34975D01*
X42800Y34734D02*
X43002D01*
Y34841D01*
X42783Y34803D02*
X43002D01*
X42992Y34734D02*
Y34845D01*
X38189Y29236D02*
Y35157D01*
X38425Y32638D02*
Y35157D01*
X38268Y29163D02*
Y35157D01*
X38583Y33613D02*
Y35157D01*
X38504Y33524D02*
Y35157D01*
X38740Y33767D02*
Y35157D01*
X38661Y33692D02*
Y35157D01*
X38819Y33803D02*
Y35157D01*
X38976Y33809D02*
Y35157D01*
X38898Y33809D02*
Y35157D01*
X39055Y33809D02*
Y35157D01*
X39134Y33809D02*
Y35158D01*
X39213Y33809D02*
Y35176D01*
X39291Y33809D02*
Y35222D01*
X38268Y36339D02*
Y36555D01*
Y36457D02*
X38543D01*
X38268Y36535D02*
X38543D01*
X38189Y36555D02*
Y36796D01*
X38268Y36555D02*
Y37054D01*
X38172Y36772D02*
X38543D01*
X38219Y36850D02*
X38543D01*
X38268Y36339D02*
X38543D01*
X38346D02*
Y46886D01*
X38504Y36339D02*
Y46886D01*
X38425Y36339D02*
Y46886D01*
X38268Y36378D02*
X38543D01*
Y36378D02*
Y36988D01*
X39370Y33809D02*
Y35299D01*
X39256Y35197D02*
X40689D01*
X39449Y33809D02*
Y35378D01*
X39504Y35433D02*
X40241D01*
X39309Y35238D02*
X39526Y35455D01*
X39346Y35276D02*
X40616D01*
X39425Y35354D02*
X40301D01*
X39527Y33809D02*
Y35457D01*
X39764Y33809D02*
Y35571D01*
X39606Y33809D02*
Y35571D01*
X39569Y35512D02*
X40213D01*
X39685Y33809D02*
Y35571D01*
X39408Y36868D02*
X39526Y36750D01*
X39449Y36827D02*
Y37667D01*
X39504Y36772D02*
X39584D01*
X39425Y36850D02*
X39537D01*
X39764Y36555D02*
Y36621D01*
X39685Y36555D02*
Y36669D01*
X39595Y35571D02*
X40207D01*
X39606Y36555D02*
X40285D01*
X39606Y36562D02*
Y36743D01*
X39527Y36748D02*
Y36870D01*
X39600Y36614D02*
X39779D01*
X39569Y36693D02*
X39656D01*
X38249Y36929D02*
X38543D01*
X38265Y37008D02*
X38563D01*
X38267Y37087D02*
X38570D01*
X38257Y37165D02*
X38597D01*
X38233Y37244D02*
X38622D01*
X38194Y37323D02*
X38622D01*
X38133Y37401D02*
X38622D01*
X39252Y36946D02*
Y36988D01*
X39173Y37208D02*
Y37874D01*
X39213Y37131D02*
Y37901D01*
X39173Y37795D02*
X39272D01*
X38268Y37072D02*
Y46886D01*
X38622Y37208D02*
Y38002D01*
X38583Y37131D02*
Y46886D01*
X38661Y38144D02*
Y46886D01*
X38189Y37330D02*
Y46886D01*
X38703Y38197D02*
X38756Y38250D01*
X38740Y38234D02*
Y46886D01*
X39213Y38358D02*
Y46886D01*
X38819Y38341D02*
Y46886D01*
X38976Y38421D02*
Y46886D01*
X38898Y38396D02*
Y46886D01*
X39134Y38405D02*
Y46886D01*
X39055Y38424D02*
Y46886D01*
X39198Y37165D02*
X39499D01*
X39173Y37244D02*
X39523D01*
X39173Y37323D02*
X39562D01*
X39173Y37401D02*
X39623D01*
X39173Y37480D02*
X39719D01*
X39173Y37559D02*
X39835D01*
X39173Y37638D02*
X39835D01*
X39291Y36937D02*
Y37667D01*
X39315Y36929D02*
X39507D01*
X39232Y37008D02*
X39491D01*
X39225Y37087D02*
X39489D01*
X39272Y37667D02*
X39841D01*
X39173Y37716D02*
X39272D01*
X39173Y37874D02*
X39272D01*
X39032Y38425D02*
X39272D01*
Y39557D02*
Y46886D01*
X39226Y38346D02*
X39272D01*
X39527Y37256D02*
Y37667D01*
X39370Y36899D02*
Y37667D01*
X39685Y37457D02*
Y37667D01*
X39606Y37383D02*
Y37667D01*
X39272D02*
Y37967D01*
Y38293D02*
Y39557D01*
X39764Y37505D02*
Y37667D01*
X40315Y35049D02*
Y35342D01*
X40472Y35049D02*
Y35277D01*
X40394Y35049D02*
Y35296D01*
X40226Y35049D02*
X40620D01*
X40551D02*
Y35280D01*
X40945Y34861D02*
Y35148D01*
X41024Y33809D02*
Y35183D01*
X41102Y33809D02*
Y35256D01*
X40709Y35039D02*
Y35183D01*
X40630Y35049D02*
Y35256D01*
X40866Y34957D02*
Y35138D01*
X40787Y35010D02*
Y35149D01*
X39842Y33809D02*
Y35571D01*
X40000Y34973D02*
Y35571D01*
X39921Y34891D02*
Y35571D01*
X40157Y35043D02*
Y35571D01*
X40079Y35019D02*
Y35571D01*
X40236Y35049D02*
Y35442D01*
X41260Y33809D02*
Y37667D01*
X41181Y33809D02*
Y37667D01*
X41417Y33803D02*
Y37667D01*
X41339Y33809D02*
Y37667D01*
X41083Y35634D02*
Y37266D01*
X41102Y35610D02*
Y37365D01*
X41151Y35354D02*
X42697D01*
X41043Y35197D02*
X42698D01*
X41116Y35276D02*
X42697D01*
X41116Y35590D02*
X42697D01*
X41083Y35669D02*
X42697D01*
X41161Y35433D02*
X42697D01*
X41151Y35512D02*
X42697D01*
X42677Y34957D02*
Y36923D01*
X42756Y34861D02*
Y35056D01*
X42037Y35049D02*
X42431D01*
X42697Y35226D02*
Y35918D01*
X41496Y33767D02*
Y37667D01*
X41653Y33613D02*
Y37667D01*
X41575Y33692D02*
Y37667D01*
X41811Y34973D02*
Y37667D01*
X41732Y34891D02*
Y37667D01*
X41968Y35043D02*
Y37577D01*
X41890Y35019D02*
Y37649D01*
X42441Y35049D02*
Y37141D01*
X42362Y35049D02*
Y37213D01*
X42598Y35010D02*
Y36995D01*
X42520Y35039D02*
Y37068D01*
X42126Y35049D02*
Y37431D01*
X42047Y35049D02*
Y37504D01*
X42283Y35049D02*
Y37286D01*
X42205Y35049D02*
Y37359D01*
X39842Y36555D02*
Y36591D01*
X40157Y36555D02*
Y36604D01*
X40236Y36555D02*
Y36643D01*
X40285Y36555D02*
Y36677D01*
X40182Y36614D02*
X40285D01*
X41083Y36929D02*
X42670D01*
X41083Y37165D02*
X42414D01*
X41083Y37008D02*
X42585D01*
X41083Y37087D02*
X42499D01*
X41101Y37401D02*
X42158D01*
X41083Y37244D02*
X42329D01*
X41098Y37323D02*
X42243D01*
X40423Y37610D02*
X40538Y37494D01*
X40474Y37559D02*
X40579D01*
X40472Y37560D02*
Y37667D01*
X40421Y37638D02*
X40678D01*
X40415Y37667D02*
X41870D01*
X41102Y37379D02*
Y37667D01*
X40551Y37519D02*
Y37667D01*
X41082Y37480D02*
X42073D01*
X41036Y37559D02*
X41987D01*
X40945Y37633D02*
Y37667D01*
X40630Y37608D02*
Y37667D01*
X40936Y37638D02*
X41902D01*
X41024Y37573D02*
Y37667D01*
X41083Y35905D02*
X42697D01*
X41083Y35748D02*
X42697D01*
X41083Y35827D02*
X42697D01*
X41083Y35984D02*
X42680D01*
X41083Y36063D02*
X42680D01*
X41083Y36142D02*
X42702D01*
X41083Y36299D02*
X42866D01*
X43248Y35827D02*
X43320D01*
X43248Y35817D02*
Y35918D01*
X43386Y35827D02*
Y36269D01*
X41083Y36220D02*
X42752D01*
X43079Y36299D02*
X43353D01*
X41083Y36535D02*
X43097D01*
X41083Y36378D02*
X43267D01*
X41083Y36457D02*
X43182D01*
X41083Y36772D02*
X42841D01*
X41083Y36850D02*
X42755D01*
X41083Y36614D02*
X43011D01*
X41083Y36693D02*
X42926D01*
X43150Y36260D02*
Y36487D01*
X42756Y36224D02*
Y36850D01*
X43307Y35826D02*
Y36341D01*
X43228Y36171D02*
Y36414D01*
X42913Y36313D02*
Y36705D01*
X42835Y36285D02*
Y36777D01*
X43071Y36302D02*
Y36559D01*
X42992Y36318D02*
Y36632D01*
X43543Y30837D02*
Y31073D01*
X43701Y30837D02*
Y31073D01*
X43622Y30837D02*
Y31073D01*
X43464Y30837D02*
Y31073D01*
X43386Y30837D02*
Y31073D01*
X43032Y30837D02*
X43780D01*
X42008Y31024D02*
X44117D01*
X43780Y30659D02*
Y30837D01*
X44063Y28506D02*
X44140Y28583D01*
X43780Y30659D02*
X44000D01*
X43780Y30709D02*
X44049D01*
X43779Y30837D02*
Y31073D01*
X43780Y30787D02*
X44128D01*
X44094Y30754D02*
Y31033D01*
X43386Y31506D02*
Y31876D01*
X41939Y31073D02*
X44033D01*
X43237Y31506D02*
X44012D01*
X43464D02*
Y31904D01*
X43543Y31506D02*
Y31965D01*
X43701Y31506D02*
Y31963D01*
X43622Y31506D02*
Y32158D01*
X43858Y30659D02*
Y31073D01*
X43779Y31506D02*
Y31831D01*
X44016Y30675D02*
Y31073D01*
X43937Y30659D02*
Y31073D01*
Y31506D02*
Y31706D01*
X43858Y31506D02*
Y31755D01*
X44094Y31565D02*
Y31658D01*
X44016Y31510D02*
Y31674D01*
X44061Y28504D02*
X44543D01*
X44140Y28583D02*
X44597D01*
X44567Y28542D02*
Y28583D01*
X42104Y30866D02*
X44207D01*
X42071Y30945D02*
X44285D01*
X45417Y28583D02*
X45621D01*
X44140D02*
X44597D01*
X45417Y28583D02*
X45657D01*
X45433Y30570D02*
X46062Y29942D01*
X45433Y30630D02*
X48413D01*
X45433Y30866D02*
X48413D01*
X45433Y30945D02*
X48413D01*
X45433Y30709D02*
X48413D01*
X45433Y30787D02*
X48413D01*
X44173Y30833D02*
Y31008D01*
X44000Y30659D02*
X44321Y30980D01*
X44252Y30911D02*
Y31005D01*
X44321Y30980D02*
Y31021D01*
X45433Y31102D02*
X46437D01*
X45433Y31260D02*
X46347D01*
X45433Y30570D02*
Y31654D01*
Y31024D02*
X48413D01*
X45433Y31181D02*
X46376D01*
X45433Y31339D02*
X46341D01*
X45433Y31417D02*
X46357D01*
X45433Y31496D02*
X46399D01*
X45433Y31575D02*
X46486D01*
X43233Y31732D02*
X43891D01*
X43255Y31575D02*
X44116D01*
X43255Y31653D02*
X44260D01*
X43547Y31968D02*
X43698D01*
X43183Y31811D02*
X43797D01*
X43433Y31890D02*
X43737D01*
X43597Y32047D02*
X43675D01*
X44173Y31590D02*
Y31654D01*
X44252Y31593D02*
Y31662D01*
X43619Y32126D02*
X43666D01*
X43619Y32205D02*
X43669D01*
X43602Y32283D02*
X43685D01*
X43602Y32271D02*
Y32386D01*
X43622Y32173D02*
Y32405D01*
X43701Y32329D02*
Y32484D01*
X43602Y32362D02*
X43716D01*
X43657Y32441D02*
X43764D01*
X43736Y32520D02*
X43838D01*
X43602Y32386D02*
X44061Y32844D01*
X43779Y32461D02*
Y32563D01*
X43858Y32536D02*
Y32642D01*
X43815Y32598D02*
X43964D01*
X43937Y32586D02*
Y32720D01*
X44016Y32617D02*
Y32799D01*
X44094Y32634D02*
Y32844D01*
X44252Y32629D02*
Y32844D01*
X44173Y32638D02*
Y32844D01*
X44251Y31662D02*
X44321Y31593D01*
X44599Y32362D02*
X44665D01*
X44551Y32441D02*
X44665D01*
X44477Y32520D02*
X44665D01*
X44351Y32598D02*
X44665D01*
X43894Y32677D02*
X47293D01*
X44641Y32052D02*
X44665Y32028D01*
Y32638D01*
X45433Y31653D02*
X46579D01*
X45433Y31654D02*
X45650D01*
X44646Y32047D02*
Y32083D01*
X44630Y32283D02*
X44665D01*
Y32638D02*
X45650D01*
X44409Y32568D02*
Y32844D01*
X44567Y32419D02*
Y32844D01*
X44488Y32510D02*
Y32844D01*
X44061D02*
X45256D01*
X44331Y32606D02*
Y32844D01*
X43972Y32756D02*
X47293D01*
X44051Y32835D02*
X47269D01*
X44724Y32638D02*
Y32844D01*
X44646Y32208D02*
Y32844D01*
X44882Y32638D02*
Y32844D01*
X44803Y32638D02*
Y32844D01*
X45039Y32638D02*
Y32844D01*
X44961Y32638D02*
Y32844D01*
X45197Y32638D02*
Y32844D01*
X45118Y32638D02*
Y32844D01*
X45471Y28504D02*
X45657D01*
X45984Y28776D02*
Y28832D01*
X45928Y28776D02*
X46062Y28909D01*
X45928Y28776D02*
X46720D01*
X46050Y28898D02*
X46127D01*
X46063Y28776D02*
Y28909D01*
X46220Y28776D02*
Y28895D01*
X46142Y28776D02*
Y28896D01*
X46299Y28776D02*
Y28906D01*
X46378Y28776D02*
Y28929D01*
X46457Y28776D02*
Y28967D01*
X46472Y28976D02*
X46929D01*
X46535Y28776D02*
Y29023D01*
X46614Y28776D02*
Y29108D01*
Y29744D02*
Y31026D01*
X46535Y29828D02*
Y31043D01*
X46569Y29055D02*
X46929D01*
X46693Y28776D02*
Y29259D01*
X46710Y29527D02*
X46872D01*
X46632Y29134D02*
X46929D01*
X46719Y29449D02*
X46891D01*
X46688Y29606D02*
X46874D01*
X46693Y29592D02*
Y31031D01*
X46652Y29685D02*
X46899D01*
X46929Y29734D02*
Y31224D01*
X45971Y28819D02*
X46929D01*
X46720Y28661D02*
X46929D01*
X46720Y28740D02*
X46929D01*
X46702Y29291D02*
X46929D01*
X46717Y29370D02*
X46929D01*
X46249Y28898D02*
X46929D01*
X46675Y29213D02*
X46929D01*
X46720Y28504D02*
X46929D01*
X46720Y28583D02*
X46929D01*
X47459Y29527D02*
X47557D01*
X48350Y29449D02*
X48413D01*
X48220Y29527D02*
X48413D01*
X46598Y29764D02*
X46954D01*
X47376D02*
X48413D01*
X47008Y29807D02*
Y31302D01*
X47087Y29842D02*
Y31381D01*
X47244Y29842D02*
Y31539D01*
X47323Y29807D02*
Y31617D01*
X47480Y29485D02*
Y31775D01*
X47559Y29528D02*
Y31854D01*
X47638Y29560D02*
Y31932D01*
X47716Y29583D02*
Y32011D01*
X47401Y29734D02*
Y31696D01*
X47795Y29597D02*
Y32096D01*
X47457Y29606D02*
X48413D01*
X47431Y29685D02*
X48413D01*
X45512Y30492D02*
Y31654D01*
X45610Y30394D02*
X48413D01*
X45590Y30413D02*
Y31654D01*
X45650Y31811D02*
X46737D01*
X45650Y31890D02*
X46816D01*
X45650Y31968D02*
X46894D01*
X45650Y32047D02*
X46973D01*
X46457Y29884D02*
Y31086D01*
X46518Y29842D02*
X47090D01*
X47165Y29852D02*
Y31460D01*
X46378Y29922D02*
Y31177D01*
X45650Y31732D02*
X46658D01*
X46835Y31102D02*
X48413D01*
X45650Y32126D02*
X47052D01*
X45650Y32205D02*
X47131D01*
X45650Y32283D02*
X47209D01*
X45650Y32362D02*
X47288D01*
X45650Y32441D02*
X47293D01*
X45650Y32520D02*
X47293D01*
X45650Y32598D02*
X47293D01*
X46516Y31590D02*
X47293Y32367D01*
X45650Y31654D02*
Y32638D01*
X46906Y31201D02*
X47764Y32058D01*
X47293Y32367D02*
Y32792D01*
X47844Y32598D02*
X48413D01*
X47844Y32253D02*
Y32792D01*
X45846Y30157D02*
X48413D01*
X46004Y30000D02*
X48413D01*
X45925Y30079D02*
X48413D01*
X45531Y30472D02*
X48413D01*
X45452Y30551D02*
X48413D01*
X45767Y30236D02*
X48413D01*
X45689Y30315D02*
X48413D01*
X46896Y31181D02*
X48413D01*
X46965Y31260D02*
X48413D01*
X47241Y29842D02*
X48413D01*
X46380Y29921D02*
X48413D01*
X47201Y31496D02*
X48413D01*
X47280Y31575D02*
X48413D01*
X47044Y31339D02*
X48413D01*
X47123Y31417D02*
X48413D01*
X47516Y31811D02*
X48413D01*
X47359Y31653D02*
X48413D01*
X47438Y31732D02*
X48413D01*
X47753Y32047D02*
X48413D01*
X47813Y32126D02*
X48413D01*
X47595Y31890D02*
X48413D01*
X47674Y31968D02*
X48413D01*
X47844Y32362D02*
X48413D01*
X47844Y32441D02*
X48413D01*
X47840Y32205D02*
X48413D01*
X47844Y32283D02*
X48413D01*
X47844Y32756D02*
X48413D01*
X47869Y32835D02*
X48413D01*
X47844Y32520D02*
X48413D01*
X47844Y32677D02*
X48413D01*
X45276Y32638D02*
Y32845D01*
X45354Y32638D02*
Y32863D01*
X45433Y32638D02*
Y32909D01*
X45512Y32638D02*
Y32986D01*
X45451Y32925D02*
X45580Y33055D01*
X45827Y30177D02*
Y32963D01*
X45905Y30098D02*
Y32979D01*
X45984Y30019D02*
Y33018D01*
X45669Y30334D02*
Y32993D01*
X45590Y32638D02*
Y33045D01*
X45748Y30256D02*
Y32968D01*
X45518Y32992D02*
X45671D01*
X46063Y29942D02*
Y33096D01*
X46043Y33071D02*
X46366D01*
X46059Y33779D02*
X46350D01*
X46220Y29956D02*
Y33093D01*
X46142Y29955D02*
Y33093D01*
X46378Y31464D02*
Y33058D01*
X46299Y29945D02*
Y33112D01*
X46220Y33758D02*
Y33873D01*
X46142Y33758D02*
Y33879D01*
X46299Y33738D02*
Y33887D01*
X46457Y31555D02*
Y32999D01*
X46614Y31688D02*
Y32963D01*
X46535Y31609D02*
Y32970D01*
X46693Y31767D02*
Y32975D01*
X45938Y32992D02*
X46471D01*
X45438Y32913D02*
X47241D01*
X46772Y31846D02*
Y33010D01*
X46850Y31924D02*
Y33079D01*
X47008Y32082D02*
Y33009D01*
X46929Y32003D02*
Y33076D01*
X46738Y32992D02*
X47039D01*
X46843Y33071D02*
X46934D01*
X47087Y32161D02*
Y32974D01*
X46378Y33813D02*
Y33924D01*
X46096Y33858D02*
X46434D01*
X46457Y33871D02*
Y33997D01*
X46535Y33900D02*
Y34675D01*
X46850Y33791D02*
Y33913D01*
X46859Y33779D02*
X46890D01*
Y33735D02*
Y33836D01*
X46772Y33860D02*
Y34675D01*
X46693Y33895D02*
Y34675D01*
X46774Y33858D02*
X46876D01*
X44016Y35610D02*
Y35688D01*
X44099Y35610D02*
X44280D01*
X44099D02*
X44280D01*
X43834Y35748D02*
X43950D01*
X43937Y35610D02*
Y35760D01*
X43928Y35610D02*
X44099D01*
X43900Y35669D02*
X44035D01*
X46614Y33907D02*
Y34675D01*
X46396Y33937D02*
X46843D01*
X46470Y34016D02*
X46831D01*
X46522Y34190D02*
Y34500D01*
X46507Y34094D02*
X46838D01*
X46850Y34138D02*
Y34675D01*
X43327Y35827D02*
X43622D01*
X43248Y35905D02*
X43779D01*
X41870Y37667D02*
X44099Y35610D01*
X43243Y36142D02*
X43523D01*
X43193Y36220D02*
X43438D01*
X43265Y35984D02*
X43694D01*
X43265Y36063D02*
X43609D01*
X43779Y35786D02*
Y35905D01*
X43701Y35817D02*
Y35978D01*
X43858Y35725D02*
Y35833D01*
X43543Y35827D02*
Y36123D01*
X43464Y35827D02*
Y36196D01*
X43629Y35827D02*
X43865D01*
X43622Y35827D02*
Y36051D01*
X46521Y34173D02*
X46865D01*
X46522Y34252D02*
X46919D01*
X46522Y34409D02*
X47255D01*
X46522Y34488D02*
X47255D01*
X46516Y34675D02*
X47126D01*
X46515Y34567D02*
X47262D01*
X46486Y34646D02*
X47290D01*
X47008Y34321D02*
Y34675D01*
X46929Y34263D02*
Y34675D01*
X46522Y34331D02*
X47028D01*
X47087Y34351D02*
Y34675D01*
X47087Y35384D02*
X47126D01*
X47084Y35433D02*
X47215D01*
X47060Y35512D02*
X47215D01*
X46915Y35680D02*
X47006Y35589D01*
X47008Y35587D02*
Y35720D01*
X47004Y35590D02*
X47215D01*
X46925Y35669D02*
X47215D01*
X47046Y35748D02*
X47215D01*
X47087Y35401D02*
Y35788D01*
X47106Y36194D02*
Y36510D01*
Y36220D02*
X47293D01*
X47106Y36378D02*
X47238D01*
X47106Y36457D02*
X47160D01*
X47106Y36299D02*
X47293D01*
X47106Y36510D02*
X47293Y36323D01*
X47165Y32239D02*
Y32963D01*
X47874Y29603D02*
Y32845D01*
X47244Y32318D02*
Y32902D01*
X47848Y33882D02*
Y34032D01*
X47874Y33892D02*
Y34090D01*
X48031Y29589D02*
Y32968D01*
X48110Y29570D02*
Y32994D01*
X48189Y29542D02*
Y33048D01*
X47953Y29600D02*
Y32963D01*
X47165Y34360D02*
Y35996D01*
X47255Y34348D02*
Y34500D01*
X47244Y34351D02*
Y34734D01*
X47293Y34651D02*
Y34734D01*
X47126Y34675D02*
Y35384D01*
X47844Y34664D02*
Y34734D01*
X47953Y33907D02*
Y36634D01*
X48031Y33902D02*
Y36644D01*
X48110Y33876D02*
Y36662D01*
X48189Y33822D02*
Y36689D01*
X47874Y34600D02*
Y34734D01*
X47890Y34190D02*
Y34500D01*
X48268Y29503D02*
Y33163D01*
X47896Y32913D02*
X48413D01*
X48262Y33150D02*
X48413D01*
X48227Y33779D02*
X48413D01*
X48106Y32992D02*
X48413D01*
X48211Y33071D02*
X48413D01*
X48286Y33228D02*
X48413D01*
X48290Y33280D02*
Y33590D01*
Y33307D02*
X48413D01*
X48290Y33386D02*
X48413D01*
X48288Y33622D02*
X48413D01*
X48270Y33701D02*
X48413D01*
X48290Y33465D02*
X48413D01*
X48290Y33543D02*
X48413D01*
X47848Y33937D02*
X48413D01*
X47848Y34016D02*
X48413D01*
X47883Y34567D02*
X48413D01*
X47855Y34646D02*
X48413D01*
X47875Y34094D02*
X48413D01*
X47890Y34173D02*
X48413D01*
X48268Y33707D02*
Y36726D01*
X48346Y29452D02*
Y36775D01*
X48142Y33858D02*
X48413D01*
Y29396D02*
Y36828D01*
X47890Y34409D02*
X48413D01*
X47890Y34488D02*
X48413D01*
X47890Y34252D02*
X48413D01*
X47890Y34331D02*
X48413D01*
X47126Y34882D02*
X47215D01*
X47126Y34724D02*
X47293D01*
X47126Y34803D02*
X47215D01*
X47126Y35118D02*
X47215D01*
X47115Y35827D02*
X47215D01*
X47126Y34961D02*
X47215D01*
X47126Y35039D02*
X47215D01*
Y34734D02*
Y35344D01*
X47844Y34734D02*
X47923D01*
Y35344D01*
X47126Y35276D02*
X47215D01*
X47126Y35354D02*
X47215D01*
Y34734D02*
X47293D01*
X47126Y35197D02*
X47215D01*
Y35364D02*
Y35974D01*
X47151Y35905D02*
X47215D01*
Y35974D02*
X47293D01*
X47165Y35984D02*
X47293D01*
X47165Y36012D02*
Y36451D01*
X47160Y36063D02*
X47293D01*
X47136Y36142D02*
X47293D01*
Y35974D02*
Y36323D01*
X47244Y35974D02*
Y36372D01*
X47923Y35364D02*
Y35974D01*
X47874D02*
Y36633D01*
X47795Y36594D02*
Y36639D01*
X47844Y35974D02*
Y36437D01*
X47923Y34882D02*
X48413D01*
X47844Y34724D02*
X48413D01*
X47923Y34803D02*
X48413D01*
X47923Y35118D02*
X48413D01*
X47923Y35197D02*
X48413D01*
X47923Y34961D02*
X48413D01*
X47923Y35039D02*
X48413D01*
X47923Y35433D02*
X48413D01*
X47923Y35512D02*
X48413D01*
X47923Y35276D02*
X48413D01*
X47923Y35354D02*
X48413D01*
X47923Y35748D02*
X48413D01*
X47923Y35827D02*
X48413D01*
X47923Y35590D02*
X48413D01*
X47923Y35669D02*
X48413D01*
X47844Y36457D02*
X48413D01*
X47844Y36063D02*
X48413D01*
X47844Y36142D02*
X48413D01*
X47826Y36535D02*
X48413D01*
X47780Y36614D02*
X48413D01*
X47923Y35905D02*
X48413D01*
X47844Y35974D02*
X47923D01*
X47844Y35984D02*
X48413D01*
X47844Y36220D02*
X48413D01*
X48199Y36693D02*
X48413D01*
X48341Y36772D02*
X48413D01*
X47844Y36299D02*
X48413D01*
X47844Y36378D02*
X48413D01*
D11*
X34813Y32254D02*
D03*
X35482D02*
D03*
X39567Y23543D02*
D03*
X38898D02*
D03*
D12*
Y36063D02*
D03*
Y36673D02*
D03*
X47569Y35659D02*
D03*
Y35049D02*
D03*
X36565Y38415D02*
D03*
Y39025D02*
D03*
X36506Y42470D02*
D03*
Y43080D02*
D03*
D13*
X36191Y33612D02*
D03*
Y34281D02*
D03*
X36781Y32058D02*
D03*
Y31388D02*
D03*
X36181Y31388D02*
D03*
Y32057D02*
D03*
X34646Y19724D02*
D03*
Y20394D02*
D03*
D14*
X46811Y35030D02*
D03*
X46201D02*
D03*
X35955Y39646D02*
D03*
X36565D02*
D03*
X35896Y43701D02*
D03*
X36506D02*
D03*
D16*
X43671Y27293D02*
D03*
X42963D02*
D03*
D18*
X42406Y32792D02*
D03*
Y31992D02*
D03*
X41496Y32392D02*
D03*
X40507Y29925D02*
D03*
Y30725D02*
D03*
X41417Y30325D02*
D03*
D19*
X47638Y43691D02*
D03*
X32510Y21604D02*
D03*
D22*
X45059Y21585D02*
D03*
X43445D02*
D03*
D24*
X44734Y35098D02*
D03*
X43474D02*
D03*
X44734Y33858D02*
D03*
X43474D02*
D03*
D25*
X41555Y20994D02*
D03*
Y22805D02*
D03*
D26*
X45804Y33435D02*
D03*
X46604D02*
D03*
X46204Y34345D02*
D03*
X47172Y33435D02*
D03*
X47972D02*
D03*
X47572Y34345D02*
D03*
X36561Y40350D02*
D03*
X35761D02*
D03*
X36161Y41260D02*
D03*
X36506Y44390D02*
D03*
X35706D02*
D03*
X36106Y45300D02*
D03*
D33*
X35858Y35130D02*
X35927Y35061D01*
X35454Y35130D02*
X35858D01*
X40502Y35571D02*
Y37224D01*
X40866Y35433D02*
Y37313D01*
X40807Y37372D02*
X40866Y37313D01*
X38957Y32648D02*
X38999D01*
X38691Y32914D02*
X38957Y32648D01*
X38691Y32914D02*
Y33415D01*
X38868Y33593D01*
X41368D01*
X41742Y33219D01*
X42717D01*
X42953Y33455D01*
Y34075D01*
X47657Y27894D02*
X47953D01*
X47146Y28406D02*
X47657Y27894D01*
X47146Y28406D02*
Y29537D01*
X47165Y29557D01*
X38681Y32165D02*
Y32500D01*
X40128Y37598D02*
X40502Y37224D01*
X38681Y32165D02*
X39665Y31181D01*
X40994D01*
X41102Y31289D02*
X44213D01*
X44222Y31299D01*
X40994Y31181D02*
X41102Y31289D01*
D34*
X37682Y22226D02*
X38061D01*
Y21848D02*
Y22226D01*
X38440D01*
X38061D02*
Y22605D01*
X35217Y21516D02*
Y21801D01*
X36004D02*
X36358D01*
X36004Y21516D02*
Y21801D01*
X41555Y20522D02*
Y20994D01*
X41063D02*
X41555D01*
Y21467D01*
Y20994D02*
X42047D01*
X45059Y21161D02*
Y21585D01*
X44547D02*
X45059D01*
Y22008D01*
Y21585D02*
X45571D01*
X47028Y21398D02*
Y21831D01*
X46673D02*
X47028D01*
Y22264D01*
X34646Y19724D02*
X34902D01*
X34390D02*
X34646D01*
X35482Y31998D02*
Y32254D01*
Y32510D01*
X37682Y20226D02*
X38061D01*
Y19848D02*
Y20226D01*
X38440D01*
X38061D02*
Y20605D01*
X36181Y32057D02*
Y32333D01*
X35935Y33612D02*
X36191D01*
Y33337D02*
Y33612D01*
X36447D01*
X36781Y32058D02*
Y32333D01*
Y32058D02*
X37037D01*
X32868Y36663D02*
Y37057D01*
Y37451D01*
Y37057D02*
X33262D01*
X35738Y39646D02*
X35955D01*
Y39390D02*
Y39646D01*
Y39902D01*
X35542Y40350D02*
X35761D01*
Y40724D01*
Y40350D02*
X35981D01*
X35761Y39976D02*
Y40350D01*
X37776Y36669D02*
Y37063D01*
X37382D02*
X37776D01*
X38169D01*
X37776D02*
Y37457D01*
X35679Y43701D02*
X35896D01*
X35706Y44016D02*
Y44390D01*
X35896Y43445D02*
Y43701D01*
Y43957D01*
X35706Y44390D02*
Y44764D01*
Y44390D02*
X35925D01*
X35487D02*
X35706D01*
X39567Y23287D02*
Y23543D01*
Y23799D01*
Y23543D02*
X39843D01*
X41063Y22805D02*
X41555D01*
Y22333D02*
Y22805D01*
Y23278D01*
Y22805D02*
X42047D01*
X40330Y26309D02*
X40709D01*
Y26688D01*
Y25930D02*
Y26309D01*
X41087D01*
X43671Y26929D02*
Y27293D01*
Y27657D01*
Y27293D02*
X43976D01*
X46361Y19829D02*
X46739D01*
X45755Y24465D02*
X46188D01*
Y24032D02*
Y24465D01*
X46621D01*
X46739Y19829D02*
X47118D01*
X46739D02*
Y20208D01*
X48169Y21398D02*
Y21831D01*
X47815D02*
X48169D01*
Y22264D01*
X46188Y24465D02*
Y24898D01*
Y27811D02*
Y28244D01*
X45755D02*
X46188D01*
Y28678D01*
Y28244D02*
X46621D01*
X41043Y30325D02*
X41417D01*
X39951Y34459D02*
X40423D01*
Y34951D01*
Y33967D02*
Y34459D01*
X40896D01*
X41417Y30325D02*
X41791D01*
X41417Y30106D02*
Y30325D01*
X39587Y37063D02*
X39980D01*
Y36669D02*
Y37063D01*
X46604Y33435D02*
Y33809D01*
Y33061D02*
Y33435D01*
X47972Y33061D02*
Y33435D01*
Y33809D01*
Y33435D02*
X48192D01*
D35*
X32067Y30482D02*
Y38264D01*
X32800Y38997D01*
X46188Y27650D02*
Y28244D01*
Y27650D02*
X46220Y27618D01*
X46188Y28244D02*
X46800D01*
X46831Y28275D01*
Y28406D01*
X46188Y24465D02*
X46837D01*
X46860Y24488D01*
X46188Y24465D02*
Y24964D01*
X46220Y24996D01*
D37*
X41501Y41383D02*
Y43247D01*
X40241Y46186D02*
X41713Y44715D01*
X41501Y38997D02*
X42223D01*
X44667Y36554D01*
X45018D01*
X43543Y44715D02*
X44459Y43799D01*
X41713Y44715D02*
X43543D01*
X42761Y46200D02*
X44331D01*
X44459Y41837D02*
Y43799D01*
Y41837D02*
X45018Y41278D01*
X41501Y41383D02*
X42787Y40097D01*
X45018D01*
X40241Y46186D02*
Y46200D01*
X44331D02*
X46199Y44332D01*
Y41278D02*
Y44332D01*
D38*
X39980Y36063D02*
D03*
X37776D02*
D03*
D39*
X39980Y37063D02*
D03*
X37776D02*
D03*
X33868Y37057D02*
D03*
X34868Y36057D02*
D03*
X33868D02*
D03*
X32868Y37057D02*
D03*
Y36057D02*
D03*
X44157Y32146D02*
D03*
D40*
X46897Y46000D02*
D03*
X32802Y20252D02*
D03*
X47889Y25056D02*
D03*
Y28835D02*
D03*
X47900Y37400D02*
D03*
Y40431D02*
D03*
D41*
X45007Y24465D02*
D03*
Y25646D02*
D03*
X46188D02*
D03*
Y29426D02*
D03*
X45007D02*
D03*
Y28244D02*
D03*
X45018Y36554D02*
D03*
Y37735D02*
D03*
Y40097D02*
D03*
Y38916D02*
D03*
Y41278D02*
D03*
X46199Y37735D02*
D03*
Y40097D02*
D03*
Y38916D02*
D03*
Y41278D02*
D03*
D42*
X46188Y24465D02*
D03*
Y28244D02*
D03*
X46199Y36554D02*
D03*
D43*
X42761Y41950D02*
D03*
X41501Y38997D02*
D03*
X40241Y41950D02*
D03*
X32800D02*
D03*
Y38997D02*
D03*
X42761Y46200D02*
D03*
X41501Y43247D02*
D03*
X40241Y46200D02*
D03*
X32800D02*
D03*
Y43247D02*
D03*
D44*
X46739Y20829D02*
D03*
X40709Y26309D02*
D03*
X38061Y20226D02*
D03*
D45*
X46739Y19829D02*
D03*
X40709Y24931D02*
D03*
X38061Y22226D02*
D03*
D46*
X34868Y37057D02*
D03*
X45157Y32146D02*
D03*
D47*
X36486Y23238D02*
D03*
X45037Y19449D02*
D03*
X44360Y25472D02*
D03*
X44144Y25177D02*
D03*
X35354Y20561D02*
D03*
X46575Y21831D02*
D03*
X37077Y37569D02*
D03*
Y38376D02*
D03*
X36781Y33533D02*
D03*
X32913Y30669D02*
D03*
X33898Y30797D02*
D03*
X32884Y32539D02*
D03*
X33327Y32648D02*
D03*
X33720Y32559D02*
D03*
X33858Y34055D02*
D03*
X34173Y32928D02*
D03*
X34508Y35226D02*
D03*
X36772Y34685D02*
D03*
X37234Y35610D02*
D03*
X34380Y34921D02*
D03*
X41673Y29075D02*
D03*
X41762Y28701D02*
D03*
X34016Y19616D02*
D03*
X38041Y23543D02*
D03*
X37608Y29892D02*
D03*
X39990Y31486D02*
D03*
X40768D02*
D03*
X40561Y32067D02*
D03*
X36191Y34744D02*
D03*
X36821Y35581D02*
D03*
X35454Y35130D02*
D03*
X35927Y35061D02*
D03*
X38031Y28986D02*
D03*
Y27972D02*
D03*
X40364Y29006D02*
D03*
Y28327D02*
D03*
X36063Y30295D02*
D03*
X36073Y29902D02*
D03*
X35709Y29528D02*
D03*
X40502Y35571D02*
D03*
X40866Y35433D02*
D03*
X40807Y37372D02*
D03*
X38957Y33297D02*
D03*
X38976Y32963D02*
D03*
X38999Y32648D02*
D03*
X38691Y32510D02*
D03*
X38976Y32333D02*
D03*
X42953Y34075D02*
D03*
X47953Y27894D02*
D03*
X47165Y29557D02*
D03*
X44222Y31299D02*
D03*
X40128Y37598D02*
D03*
X39026Y38130D02*
D03*
X35433Y19685D02*
D03*
Y27559D02*
D03*
X39370Y19685D02*
D03*
Y27559D02*
D03*
X45276Y23622D02*
D03*
X40876Y29124D02*
D03*
X39813Y29163D02*
D03*
X36171Y32618D02*
D03*
X36781D02*
D03*
X35531Y32795D02*
D03*
X35630Y33494D02*
D03*
X37382Y31673D02*
D03*
X38012Y31073D02*
D03*
X38976Y31378D02*
D03*
X38514Y29793D02*
D03*
X34892Y30906D02*
D03*
X37244Y34783D02*
D03*
X38455Y34941D02*
D03*
X38307Y34173D02*
D03*
X47520Y31033D02*
D03*
X48169Y31201D02*
D03*
X48022Y29872D02*
D03*
X47746Y27057D02*
D03*
X47116Y26171D02*
D03*
X45866Y23543D02*
D03*
X47293Y23494D02*
D03*
X41447Y28061D02*
D03*
X41211Y28297D02*
D03*
X40472Y27579D02*
D03*
X42313Y26575D02*
D03*
X42992Y26792D02*
D03*
X33041Y24567D02*
D03*
Y25837D02*
D03*
X32057Y25207D02*
D03*
X33012Y26732D02*
D03*
X32904Y28642D02*
D03*
X34085Y29685D02*
D03*
X32539Y35128D02*
D03*
X37215Y19587D02*
D03*
X33327Y23829D02*
D03*
X34035Y24134D02*
D03*
X32126Y22490D02*
D03*
X33337Y19488D02*
D03*
X32106Y19587D02*
D03*
X45748Y20207D02*
D03*
X46654Y34026D02*
D03*
X48032Y34045D02*
D03*
X48258Y34803D02*
D03*
X48290Y33465D02*
D03*
X36781Y45797D02*
D03*
X38406Y44478D02*
D03*
X38612Y41821D02*
D03*
X38780Y39193D02*
D03*
X36289Y36713D02*
D03*
X36772Y37239D02*
D03*
X34193Y32096D02*
D03*
X42963Y31614D02*
D03*
X43327Y32165D02*
D03*
X46636Y31320D02*
D03*
X34970Y34744D02*
D03*
X42972Y36024D02*
D03*
D48*
X36289Y21112D02*
D03*
X36939Y30069D02*
D03*
X32067Y30482D02*
D03*
D49*
X46831Y36004D02*
D03*
X38898Y37018D02*
D03*
X41506Y31988D02*
D03*
X41555Y32923D02*
D03*
X45600Y34646D02*
D03*
X46181Y33425D02*
D03*
X45780Y33968D02*
D03*
X45600Y35266D02*
D03*
X47165Y34026D02*
D03*
X47569Y32982D02*
D03*
X41821Y29705D02*
D03*
X41782Y30778D02*
D03*
X42421Y27293D02*
D03*
X45758Y21447D02*
D03*
D50*
X41693Y19872D02*
D03*
D51*
X42234Y34459D02*
D03*
X40423D02*
D03*
D52*
X35217Y21801D02*
D03*
Y22549D02*
D03*
X36004Y21801D02*
D03*
Y22549D02*
D03*
D53*
X47028Y21831D02*
D03*
X48169D02*
D03*
D54*
X43445Y22736D02*
D03*
Y24469D02*
D03*
D55*
X35000Y45306D02*
D03*
Y44006D02*
D03*
Y41251D02*
D03*
Y39951D02*
D03*
D56*
X43396Y30384D02*
D03*
X42648D02*
D03*
D57*
X36004Y21398D02*
X36289Y21112D01*
X36004Y21398D02*
Y21801D01*
X35217D02*
X36004D01*
D58*
Y22549D02*
X37441D01*
X35217D02*
X36004D01*
X34813Y32254D02*
Y33878D01*
X35217Y34281D01*
X36191D01*
X35148Y31388D02*
X36181D01*
X34813Y31722D02*
X35148Y31388D01*
X34813Y31722D02*
Y32254D01*
D59*
X45007Y26966D02*
Y28244D01*
X43445Y25404D02*
X45007Y26966D01*
X43445Y24469D02*
Y25404D01*
Y21585D02*
Y22736D01*
D60*
X45004Y24469D02*
X45007Y24465D01*
X43445Y24469D02*
X45004D01*
M02*
