G04 Layer_Physical_Order=1*
G04 Layer_Color=255*
%FSLAX24Y24*%
%MOIN*%
G70*
G01*
G75*
%ADD10C,0.0079*%
%ADD11C,0.0472*%
%ADD12R,0.0551X0.0413*%
%ADD13R,0.0413X0.0551*%
%ADD14O,0.0800X0.0295*%
%ADD15R,0.0571X0.0453*%
%ADD16R,0.0453X0.0571*%
%ADD17O,0.0591X0.0281*%
G04:AMPARAMS|DCode=18|XSize=51.2mil|YSize=72mil|CornerRadius=2.6mil|HoleSize=0mil|Usage=FLASHONLY|Rotation=0.000|XOffset=0mil|YOffset=0mil|HoleType=Round|Shape=RoundedRectangle|*
%AMROUNDEDRECTD18*
21,1,0.0512,0.0669,0,0,0.0*
21,1,0.0461,0.0720,0,0,0.0*
1,1,0.0051,0.0230,-0.0335*
1,1,0.0051,-0.0230,-0.0335*
1,1,0.0051,-0.0230,0.0335*
1,1,0.0051,0.0230,0.0335*
%
%ADD18ROUNDEDRECTD18*%
%ADD19C,0.0315*%
%ADD20C,0.0236*%
%ADD21C,0.0197*%
%ADD22C,0.1181*%
%ADD23C,0.0630*%
%ADD24R,0.0600X0.0600*%
%ADD25C,0.0600*%
%ADD26C,0.0800*%
%ADD27R,0.0800X0.0800*%
%ADD28C,0.0315*%
D10*
X38223Y27392D02*
G03*
X38258Y26614I349J-374D01*
G01*
X38888D02*
G03*
X39085Y27018I-315J404D01*
G01*
D02*
G03*
X39016Y27274I-512J0D01*
G01*
X38322Y27583D02*
G03*
X38223Y27392I251J-251D01*
G01*
X38323Y27583D02*
G03*
X38223Y27392I250J-251D01*
G01*
X39089Y27348D02*
G03*
X39193Y27598I-250J251D01*
G01*
X39089Y27348D02*
G03*
X39193Y27598I-251J251D01*
G01*
X40974Y27018D02*
G03*
X40384Y26614I-433J0D01*
G01*
X40699D02*
G03*
X40974Y27018I-157J404D01*
G01*
X42253Y27461D02*
G03*
X42195Y26614I256J-443D01*
G01*
X40086Y27727D02*
G03*
X40778Y27835I337J108D01*
G01*
D02*
G03*
X40531Y28172I-354J0D01*
G01*
X42331Y28161D02*
G03*
X42253Y27461I-77J-346D01*
G01*
X40312Y28392D02*
G03*
X40089Y28484I-223J-222D01*
G01*
X40311Y28392D02*
G03*
X40089Y28484I-223J-223D01*
G01*
X42523Y28638D02*
G03*
X42431Y28415I223J-223D01*
G01*
X42524Y28638D02*
G03*
X42431Y28415I222J-223D01*
G01*
X42825Y26614D02*
G03*
X43022Y27018I-315J404D01*
G01*
X45630Y27557D02*
G03*
X46477Y27205I350J-352D01*
G01*
X45630Y28976D02*
G03*
X45734Y28726I354J0D01*
G01*
X45630Y28976D02*
G03*
X45734Y28726I354J0D01*
G01*
X43658Y28882D02*
G03*
X43750Y29104I-223J223D01*
G01*
X43657Y28881D02*
G03*
X43750Y29104I-222J223D01*
G01*
Y30349D02*
G03*
X44227Y30197I315J162D01*
G01*
Y30827D02*
G03*
X43788Y30733I-162J-315D01*
G01*
X43788D02*
G03*
X43120Y30539I-353J-31D01*
G01*
X44963Y30020D02*
G03*
X45012Y30089I-229J217D01*
G01*
X44252Y30159D02*
G03*
X44232Y30049I295J-110D01*
G01*
X44963Y30020D02*
G03*
X45012Y30089I-229J217D01*
G01*
X44252Y30159D02*
G03*
X44232Y30049I295J-110D01*
G01*
X44269Y30197D02*
G03*
X44252Y30159I278J-148D01*
G01*
X44269Y30197D02*
G03*
X44252Y30159I278J-148D01*
G01*
X45338Y31214D02*
G03*
X45319Y30827I173J-202D01*
G01*
X45371Y30197D02*
G03*
X45510Y30167I140J315D01*
G01*
X46015D02*
G03*
X46359Y30512I0J344D01*
G01*
D02*
G03*
X46188Y30810I-344J0D01*
G01*
D02*
G03*
X46281Y31012I-173J202D01*
G01*
D02*
G03*
X46188Y31214I-266J0D01*
G01*
X40128Y31651D02*
G03*
X40318Y31571I191J185D01*
G01*
X39494Y32280D02*
G03*
X39498Y31964I319J-154D01*
G01*
X39429Y32274D02*
G03*
X39494Y32280I0J315D01*
G01*
X39429Y32274D02*
G03*
X39494Y32280I0J315D01*
G01*
X40005Y33652D02*
G03*
X39680Y33652I-162J-315D01*
G01*
X40823Y31571D02*
G03*
X41089Y31837I0J266D01*
G01*
D02*
G03*
X40996Y32039I-266J0D01*
G01*
D02*
G03*
X41168Y32337I-173J298D01*
G01*
D02*
G03*
X41060Y32587I-344J0D01*
G01*
D02*
G03*
X41168Y32837I-237J250D01*
G01*
X42346Y32039D02*
G03*
X42519Y31571I173J-202D01*
G01*
X42281Y32587D02*
G03*
X42346Y32039I237J-250D01*
G01*
X42281Y33087D02*
G03*
X42281Y32587I237J-250D01*
G01*
X41168Y33337D02*
G03*
X40823Y33681I-344J0D01*
G01*
X41168Y32837D02*
G03*
X41060Y33087I-344J0D01*
G01*
D02*
G03*
X41168Y33337I-237J250D01*
G01*
X40318Y33681D02*
G03*
X40179Y33652I0J-344D01*
G01*
X42456Y33675D02*
G03*
X42281Y33087I63J-339D01*
G01*
X38976Y36614D02*
G03*
X38976Y36614I-787J0D01*
G01*
D02*
G03*
X38976Y36614I-787J0D01*
G01*
X39961Y34667D02*
G03*
X39961Y34014I-138J-326D01*
G01*
X43023Y31571D02*
G03*
X43289Y31837I0J266D01*
G01*
D02*
G03*
X43214Y32022I-266J0D01*
G01*
X43468D02*
G03*
X43783Y32337I0J315D01*
G01*
X43616Y33059D02*
G03*
X43394Y33152I-223J-223D01*
G01*
X43468Y32022D02*
G03*
X43783Y32337I0J315D01*
G01*
X43617Y33059D02*
G03*
X43394Y33152I-223J-222D01*
G01*
X43783Y32762D02*
G03*
X43691Y32985I-315J0D01*
G01*
X43783Y32762D02*
G03*
X43691Y32985I-315J0D01*
G01*
X43368Y33337D02*
G03*
X43086Y33675I-344J0D01*
G01*
X43314Y33152D02*
G03*
X43368Y33337I-291J185D01*
G01*
X43322Y33937D02*
G03*
X43839Y34252I162J315D01*
G01*
D02*
G03*
X43322Y34567I-354J0D01*
G01*
X45338Y31810D02*
G03*
X45338Y31214I173J-298D01*
G01*
Y32810D02*
G03*
X45338Y32214I173J-298D01*
G01*
D02*
G03*
X45338Y31810I173J-202D01*
G01*
X46188Y31214D02*
G03*
X46359Y31512I-173J298D01*
G01*
D02*
G03*
X46188Y31810I-344J0D01*
G01*
D02*
G03*
X46281Y32012I-173J202D01*
G01*
D02*
G03*
X46188Y32214I-266J0D01*
G01*
D02*
G03*
X46359Y32512I-173J298D01*
G01*
D02*
G03*
X46188Y32810I-344J0D01*
G01*
D02*
G03*
X46281Y33012I-173J202D01*
G01*
X45338Y33214D02*
G03*
X45338Y32810I173J-202D01*
G01*
X45510Y33856D02*
G03*
X45338Y33214I0J-344D01*
G01*
X46281Y33012D02*
G03*
X46188Y33214I-266J0D01*
G01*
D02*
G03*
X46359Y33512I-173J298D01*
G01*
D02*
G03*
X46015Y33856I-344J0D01*
G01*
X44693Y36063D02*
G03*
X44693Y35354I-480J-354D01*
G01*
X43946Y37953D02*
G03*
X44731Y37509I267J-444D01*
G01*
D02*
G03*
X44479Y37953I-518J0D01*
G01*
X46496D02*
G03*
X47281Y37509I267J-444D01*
G01*
X46477Y27205D02*
G03*
X46339Y27549I-497J0D01*
G01*
X47355Y27726D02*
G03*
X47555Y27602I199J98D01*
G01*
X48015D02*
G03*
X48238Y27825I0J222D01*
G01*
Y28494D02*
G03*
X48098Y28701I-222J0D01*
G01*
X48622Y27421D02*
G03*
X48622Y26614I315J-403D01*
G01*
X49252D02*
G03*
X49449Y27018I-315J404D01*
G01*
D02*
G03*
X49264Y27411I-512J0D01*
G01*
X48671Y27699D02*
G03*
X48622Y27530I266J-169D01*
G01*
X48671Y27699D02*
G03*
X48622Y27530I266J-169D01*
G01*
X48632Y27825D02*
G03*
X48671Y27699I222J0D01*
G01*
X48855Y28717D02*
G03*
X48632Y28494I0J-222D01*
G01*
X49307Y27454D02*
G03*
X49394Y27617I-222J223D01*
G01*
X49308Y27455D02*
G03*
X49394Y27617I-223J223D01*
G01*
D02*
G03*
X49538Y27825I-79J208D01*
G01*
X49734Y27844D02*
G03*
X49957Y27937I0J315D01*
G01*
X49734Y27844D02*
G03*
X49957Y27937I0J315D01*
G01*
X49538Y28494D02*
G03*
X49315Y28717I-222J0D01*
G01*
X47674Y29770D02*
G03*
X47451Y29862I-223J-223D01*
G01*
X47674Y29770D02*
G03*
X47451Y29862I-223J-222D01*
G01*
X47821Y29587D02*
G03*
X47752Y29691I-292J-118D01*
G01*
X47821Y29587D02*
G03*
X47752Y29692I-292J-118D01*
G01*
X47825Y30167D02*
G03*
X48282Y29656I295J-197D01*
G01*
X46490Y31286D02*
G03*
X46398Y31063I223J-223D01*
G01*
X46490Y31286D02*
G03*
X46398Y31063I222J-223D01*
G01*
X47571Y30197D02*
G03*
X47710Y30167I140J315D01*
G01*
X47159Y30289D02*
G03*
X47382Y30197I223J222D01*
G01*
X47159Y30289D02*
G03*
X47382Y30197I223J223D01*
G01*
X47028Y30378D02*
G03*
X47107Y30342I187J301D01*
G01*
X48986Y31224D02*
G03*
X48535Y31327I-285J-210D01*
G01*
X48506D02*
G03*
X48559Y31512I-291J185D01*
G01*
D02*
G03*
X48506Y31697I-344J0D01*
G01*
X48563Y29656D02*
G03*
X48786Y29748I0J315D01*
G01*
X48563Y29656D02*
G03*
X48786Y29748I0J315D01*
G01*
X49931Y29978D02*
G03*
X50026Y30043I-128J288D01*
G01*
X49931Y29978D02*
G03*
X50026Y30043I-128J288D01*
G01*
X50146Y30163D02*
G03*
X50167Y29947I346J-74D01*
G01*
X49537Y31614D02*
G03*
X49613Y31417I295J0D01*
G01*
X49537Y31614D02*
G03*
X49613Y31417I295J0D01*
G01*
X51220Y26614D02*
G03*
X51417Y27018I-315J404D01*
G01*
X50551Y27387D02*
G03*
X50591Y26614I354J-369D01*
G01*
X51417Y27018D02*
G03*
X51260Y27387I-512J0D01*
G01*
X51678Y27603D02*
G03*
X52352Y27451I320J-152D01*
G01*
X53307Y27018D02*
G03*
X52717Y26614I-433J0D01*
G01*
X53031D02*
G03*
X53307Y27018I-157J404D01*
G01*
X52352Y27451D02*
G03*
X52315Y27608I-354J0D01*
G01*
X53310Y28523D02*
G03*
X53332Y28474I297J104D01*
G01*
X53310Y28523D02*
G03*
X53332Y28474I297J104D01*
G01*
X53511Y28278D02*
G03*
X54094Y28131I337J108D01*
G01*
X50705Y28684D02*
G03*
X50797Y28907I-222J223D01*
G01*
X50705Y28685D02*
G03*
X50797Y28907I-223J223D01*
G01*
X52276Y28986D02*
G03*
X52358Y28946I168J243D01*
G01*
X52276Y28986D02*
G03*
X52358Y28946I168J243D01*
G01*
X53452Y29166D02*
G03*
X53310Y28523I0J-337D01*
G01*
X52358Y28946D02*
G03*
X52542Y28892I184J282D01*
G01*
X52852D02*
G03*
X53189Y29229I0J337D01*
G01*
X52423Y29667D02*
G03*
X52333Y29729I-209J-209D01*
G01*
X52423Y29667D02*
G03*
X52333Y29729I-209J-209D01*
G01*
X52257Y30217D02*
G03*
X52435Y30167I177J295D01*
G01*
X53189Y29229D02*
G03*
X52852Y29566I-337J0D01*
G01*
X52939Y30167D02*
G03*
X53284Y30512I0J344D01*
G01*
X53452Y29887D02*
G03*
X53452Y29370I0J-258D01*
G01*
X54094Y28886D02*
G03*
X53762Y29166I-332J-57D01*
G01*
Y29370D02*
G03*
X54021Y29629I0J258D01*
G01*
D02*
G03*
X53762Y29887I-258J0D01*
G01*
X53284Y30512D02*
G03*
X53176Y30762I-344J0D01*
G01*
D02*
G03*
X53284Y31012I-237J250D01*
G01*
D02*
G03*
X53227Y31201I-344J0D01*
G01*
X53263D02*
G03*
X53780Y31516I162J315D01*
G01*
D02*
G03*
X53710Y31726I-354J0D01*
G01*
X47161Y31827D02*
G03*
X46939Y31735I0J-315D01*
G01*
X47161Y31827D02*
G03*
X46938Y31734I0J-315D01*
G01*
X47537Y32310D02*
G03*
X47420Y31827I173J-298D01*
G01*
X48406Y32327D02*
G03*
X48481Y32512I-191J185D01*
G01*
X47537Y33310D02*
G03*
X47537Y32714I173J-298D01*
G01*
D02*
G03*
X47537Y32310I173J-202D01*
G01*
X48481Y32512D02*
G03*
X48388Y32714I-266J0D01*
G01*
D02*
G03*
X48559Y33012I-173J298D01*
G01*
D02*
G03*
X48388Y33310I-344J0D01*
G01*
X49400Y33258D02*
G03*
X48702Y33169I-354J0D01*
G01*
X47710Y33778D02*
G03*
X47537Y33310I0J-266D01*
G01*
X47569Y34478D02*
G03*
X47673Y34228I354J0D01*
G01*
X47569Y34478D02*
G03*
X47673Y34228I354J0D01*
G01*
X48388Y33310D02*
G03*
X48481Y33512I-173J202D01*
G01*
D02*
G03*
X48447Y33642I-266J0D01*
G01*
X49624Y32108D02*
G03*
X49537Y31900I209J-209D01*
G01*
X49624Y32108D02*
G03*
X49537Y31900I209J-209D01*
G01*
X49388Y33169D02*
G03*
X49400Y33258I-343J89D01*
G01*
X49945Y32307D02*
G03*
X49736Y32221I0J-295D01*
G01*
X49945Y32307D02*
G03*
X49736Y32221I0J-295D01*
G01*
X49998Y32762D02*
G03*
X49958Y32307I237J-250D01*
G01*
X49998Y33262D02*
G03*
X49998Y32762I237J-250D01*
G01*
X50235Y33856D02*
G03*
X49998Y33262I0J-344D01*
G01*
X49065Y33642D02*
G03*
X49316Y33746I0J354D01*
G01*
X49065Y33642D02*
G03*
X49316Y33746I0J354D01*
G01*
X49007Y34439D02*
G03*
X49016Y34518I-345J79D01*
G01*
D02*
G03*
X49007Y34596I-354J0D01*
G01*
X49748Y34178D02*
G03*
X49852Y34429I-250J251D01*
G01*
X49749Y34179D02*
G03*
X49852Y34429I-251J251D01*
G01*
X47152Y34818D02*
G03*
X47402Y34715I251J251D01*
G01*
X47152Y34819D02*
G03*
X47402Y34715I251J250D01*
G01*
X47281Y37509D02*
G03*
X47029Y37953I-518J0D01*
G01*
X48986Y35827D02*
G03*
X48894Y36049I-315J0D01*
G01*
X48986Y35827D02*
G03*
X48894Y36050I-315J0D01*
G01*
X48746Y36197D02*
G03*
X48602Y36280I-223J-223D01*
G01*
X48747Y36197D02*
G03*
X48602Y36280I-223J-222D01*
G01*
X50831Y33844D02*
G03*
X50739Y33856I-92J-332D01*
G01*
X50797Y33986D02*
G03*
X50831Y33844I315J0D01*
G01*
X50797Y33986D02*
G03*
X50831Y33844I315J0D01*
G01*
X51722Y33691D02*
G03*
X51630Y33914I-315J0D01*
G01*
X51722Y33691D02*
G03*
X51630Y33914I-315J0D01*
G01*
X52185Y33307D02*
G03*
X51976Y33221I0J-295D01*
G01*
X52185Y33307D02*
G03*
X51976Y33221I0J-295D01*
G01*
X49852Y34464D02*
G03*
X50406Y34636I217J280D01*
G01*
X50878Y34659D02*
G03*
X50797Y34449I234J-210D01*
G01*
X50878Y34659D02*
G03*
X50797Y34449I234J-210D01*
G01*
X50483Y34681D02*
G03*
X50603Y34659I120J315D01*
G01*
X52100Y34049D02*
G03*
X52156Y34005I223J223D01*
G01*
X51823Y34259D02*
G03*
X51884Y34265I0J337D01*
G01*
X52100Y34049D02*
G03*
X52156Y34005I223J222D01*
G01*
X51427Y34270D02*
G03*
X51513Y34259I86J326D01*
G01*
Y35734D02*
G03*
X51350Y35692I0J-337D01*
G01*
X52327Y35619D02*
G03*
X52104Y35711I-223J-222D01*
G01*
X52326Y35619D02*
G03*
X52104Y35711I-223J-223D01*
G01*
X51944D02*
G03*
X51823Y35734I-120J-315D01*
G01*
X53268Y33116D02*
G03*
X53112Y33310I-328J-104D01*
G01*
D02*
G03*
X53205Y33512I-173J202D01*
G01*
X52435Y33778D02*
G03*
X52262Y33310I0J-266D01*
G01*
X53205Y33512D02*
G03*
X52939Y33778I-266J0D01*
G01*
X53710Y31726D02*
G03*
X53799Y31789I-133J285D01*
G01*
X53710Y31726D02*
G03*
X53800Y31790I-133J285D01*
G01*
X53487Y33799D02*
G03*
X53441Y33711I253J-187D01*
G01*
X53962Y31952D02*
G03*
X54054Y32156I-222J223D01*
G01*
X53963Y31952D02*
G03*
X54054Y32156I-223J223D01*
G01*
X53487Y33799D02*
G03*
X53441Y33711I253J-187D01*
G01*
X53815Y34494D02*
G03*
X53711Y34564I-223J-223D01*
G01*
X53816Y34494D02*
G03*
X53711Y34564I-223J-222D01*
G01*
X53622Y34774D02*
G03*
X53530Y34996I-315J0D01*
G01*
X53622Y34774D02*
G03*
X53529Y34997I-315J0D01*
G01*
X53363Y35163D02*
G03*
X53140Y35256I-223J-222D01*
G01*
X53362Y35164D02*
G03*
X53140Y35256I-223J-223D01*
G01*
X54094Y34269D02*
G03*
X53976Y34334I-226J-273D01*
G01*
X51104Y35849D02*
G03*
X50896Y35935I-209J-209D01*
G01*
X51104Y35849D02*
G03*
X50896Y35935I-209J-209D01*
G01*
X53543Y36614D02*
G03*
X53543Y36614I-787J0D01*
G01*
D02*
G03*
X53543Y36614I-787J0D01*
G01*
X36850Y26929D02*
X38069D01*
X36850Y26811D02*
X38105D01*
X36850Y26870D02*
X38083D01*
X36850Y27047D02*
X38062D01*
X36850Y26988D02*
X38062D01*
X36850Y27106D02*
X38069D01*
X37559Y26614D02*
Y27756D01*
X38090Y26614D02*
Y26847D01*
X37618Y26614D02*
Y27756D01*
X37441Y26614D02*
Y27756D01*
X36850Y27165D02*
X38083D01*
X37500Y26614D02*
Y27756D01*
X37382Y26614D02*
Y27756D01*
X37736Y26614D02*
Y27756D01*
X37677Y26614D02*
Y27756D01*
X37205Y26614D02*
Y27756D01*
X37323Y26614D02*
Y27756D01*
X37264Y26614D02*
Y27756D01*
X37795Y26614D02*
Y27756D01*
X37913Y26614D02*
Y27756D01*
X37854Y26614D02*
Y27756D01*
X37972Y26614D02*
Y27756D01*
X38090Y27189D02*
Y27756D01*
X38031Y26614D02*
Y27756D01*
X38150Y26614D02*
Y26730D01*
X36850Y26614D02*
X38258D01*
X38209D02*
Y26658D01*
X36850Y26752D02*
X38135D01*
X36850Y26634D02*
X38234D01*
X36850Y26693D02*
X38177D01*
X38976Y26614D02*
Y26703D01*
X38888Y26614D02*
X40384D01*
X39035D02*
Y26799D01*
X39010Y26752D02*
X40199D01*
X38911Y26634D02*
X40341D01*
X38968Y26693D02*
X40255D01*
X39041Y26811D02*
X40161D01*
X39063Y26870D02*
X40134D01*
X39063Y27165D02*
X40134D01*
X39094Y26614D02*
Y27353D01*
X39077Y26929D02*
X40117D01*
X39153Y26614D02*
Y27436D01*
X39084Y27047D02*
X40109D01*
X39084Y26988D02*
X40109D01*
X39077Y27106D02*
X40117D01*
X36850Y27224D02*
X38105D01*
X36850Y27283D02*
X38135D01*
X36850Y27342D02*
X38177D01*
X36850Y27402D02*
X38225D01*
X36850Y27461D02*
X38242D01*
X36850Y27520D02*
X38272D01*
X36850Y27579D02*
X38318D01*
X37185Y27756D02*
X38130D01*
X36850Y27638D02*
X38377D01*
X36850Y27756D02*
X38435D01*
X36850Y28287D02*
X37185D01*
X36850Y28169D02*
X37185D01*
X36850Y28228D02*
X37185D01*
X36850Y28465D02*
X37185D01*
X36850Y28346D02*
X37185D01*
X36850Y28405D02*
X37185D01*
X36850Y27933D02*
X37185D01*
X36850Y27815D02*
X37185D01*
X36850Y27874D02*
X37185D01*
X36850Y28110D02*
X37185D01*
X36850Y27992D02*
X37185D01*
X36850Y28051D02*
X37185D01*
X39035Y27237D02*
Y27294D01*
X39025Y27283D02*
X40199D01*
X39016Y27274D02*
X39089Y27348D01*
X36850Y27697D02*
X38436D01*
X38323Y27583D02*
X38436Y27697D01*
X38484Y27745D01*
X39041Y27224D02*
X40161D01*
X39084Y27342D02*
X40255D01*
X39133Y27402D02*
X40341D01*
X39165Y27461D02*
X42253D01*
X38130Y28287D02*
X38435D01*
X38130Y28169D02*
X38435D01*
X38130Y28228D02*
X38435D01*
X38130Y28465D02*
X38435D01*
X38130Y28346D02*
X38435D01*
X38130Y28405D02*
X38435D01*
X38130Y27933D02*
X38435D01*
X38130Y27815D02*
X38435D01*
X38130Y27874D02*
X38435D01*
X38130Y28110D02*
X38435D01*
X38130Y27992D02*
X38435D01*
X38130Y28051D02*
X38435D01*
X39449Y26614D02*
Y27697D01*
X39567Y26614D02*
Y27697D01*
X39508Y26614D02*
Y27697D01*
X40098Y26614D02*
Y27693D01*
X40157Y26614D02*
Y26817D01*
X40216Y26614D02*
Y26731D01*
X40807Y26614D02*
Y26676D01*
X40276Y26614D02*
Y26676D01*
X40157Y27218D02*
Y27600D01*
X40216Y27304D02*
Y27547D01*
X39390Y26614D02*
Y27697D01*
X39685Y26614D02*
Y27697D01*
X39626Y26614D02*
Y27697D01*
X39213Y26614D02*
Y27697D01*
X39331Y26614D02*
Y27697D01*
X39272Y26614D02*
Y27697D01*
X39921Y26614D02*
Y27697D01*
X39980Y26614D02*
Y27697D01*
X40039Y26614D02*
Y27773D01*
X39744Y26614D02*
Y27697D01*
X39862Y26614D02*
Y27697D01*
X39803Y26614D02*
Y27697D01*
X40866Y26614D02*
Y26731D01*
X40699Y26614D02*
X42195D01*
X40742Y26634D02*
X42171D01*
X40922Y26811D02*
X42042D01*
X40828Y26693D02*
X42114D01*
X40883Y26752D02*
X42072D01*
X40925Y26614D02*
Y26817D01*
X42106Y26614D02*
Y26703D01*
X42047Y26614D02*
Y26799D01*
X40973Y26988D02*
X41999D01*
X40948Y26870D02*
X42020D01*
X40965Y26929D02*
X42006D01*
X40948Y27165D02*
X42020D01*
X40922Y27224D02*
X42042D01*
X40883Y27283D02*
X42072D01*
X41929Y26614D02*
Y27674D01*
X41988Y26614D02*
Y27581D01*
X40973Y27047D02*
X41999D01*
X40965Y27106D02*
X42006D01*
X42047Y27237D02*
Y27527D01*
X40276Y27360D02*
Y27513D01*
X40394Y27425D02*
Y27482D01*
X40335Y27398D02*
Y27492D01*
X39193Y27638D02*
X40129D01*
X39184Y27520D02*
X40261D01*
X39192Y27579D02*
X40178D01*
X40453Y27442D02*
Y27482D01*
X40689Y27425D02*
Y27600D01*
X40748Y27398D02*
Y27693D01*
X40512Y27450D02*
Y27492D01*
X40571Y27450D02*
Y27513D01*
X40630Y27442D02*
Y27547D01*
X39193Y27598D02*
Y27697D01*
Y27697D02*
X40097D01*
X39193Y27697D02*
X39242D01*
X39193D02*
X39242D01*
X39990D01*
Y27756D02*
X40057D01*
X39990Y27697D02*
Y27822D01*
X40086Y27727D01*
X40312Y28392D02*
X40531Y28172D01*
X40777Y27815D02*
X41900D01*
X40668Y27579D02*
X41990D01*
X40742Y27402D02*
X42171D01*
X40585Y27520D02*
X42058D01*
X40750Y27697D02*
X41920D01*
X40718Y27638D02*
X41947D01*
X40741Y27992D02*
X41947D01*
X42106Y27332D02*
Y27493D01*
X40828Y27342D02*
X42114D01*
X42165Y27396D02*
Y27472D01*
X40775Y27874D02*
X41905D01*
X40769Y27756D02*
X41905D01*
X40764Y27933D02*
X41920D01*
X40540Y28169D02*
X42248D01*
X40475Y28228D02*
X42399D01*
X40416Y28287D02*
X42431D01*
X40357Y28346D02*
X42431D01*
X40297Y28405D02*
X42431D01*
X40198Y28465D02*
X42435D01*
X40704Y28051D02*
X41990D01*
X40646Y28110D02*
X42058D01*
X42260Y28169D02*
X42340D01*
X42331Y28161D02*
X42431Y28260D01*
Y28415D01*
X36850Y28583D02*
X37185D01*
X36850Y28524D02*
X37185D01*
Y27756D02*
Y28701D01*
X36850Y28642D02*
X37185D01*
X36850Y28701D02*
X37185D01*
X37559Y28701D02*
Y36142D01*
X37795Y28701D02*
Y35932D01*
X37913Y28701D02*
Y35877D01*
X37854Y28701D02*
Y35901D01*
X37618Y28701D02*
Y36072D01*
X37736Y28701D02*
Y35970D01*
X37677Y28701D02*
Y36016D01*
X37027Y26614D02*
Y37953D01*
X37146Y26614D02*
Y37953D01*
X37087Y26614D02*
Y37953D01*
X36850Y26614D02*
Y37953D01*
X36968Y26614D02*
Y37953D01*
X36909Y26614D02*
Y37953D01*
X37382Y28701D02*
Y37953D01*
X37500Y28701D02*
Y36233D01*
X37441Y28701D02*
Y36369D01*
X37205Y28701D02*
Y37953D01*
X37323Y28701D02*
Y37953D01*
X37264Y28701D02*
Y37953D01*
X37185Y28701D02*
X38130D01*
Y28642D02*
X38415D01*
X36850Y28760D02*
X38415D01*
X36850Y28937D02*
X38415D01*
X36850Y28819D02*
X38415D01*
X36850Y28878D02*
X38415D01*
X38130Y27756D02*
Y28701D01*
Y28524D02*
X38435D01*
Y27697D02*
Y28553D01*
X38130Y28701D02*
X38415D01*
X38130Y28583D02*
X38415D01*
X38435Y28553D02*
Y28642D01*
X37972Y28701D02*
Y35857D01*
X38090Y28701D02*
Y35833D01*
X38031Y28701D02*
Y35843D01*
X36850Y29114D02*
X38415D01*
X36850Y28996D02*
X38415D01*
X36850Y29055D02*
X38415D01*
X38150Y27305D02*
Y35828D01*
X38209Y27377D02*
Y35827D01*
X38268Y27513D02*
Y35831D01*
X38327Y27588D02*
Y35839D01*
X38415Y28553D02*
Y29390D01*
X38386Y27647D02*
Y32185D01*
X36850Y29646D02*
X38396D01*
X36850Y29527D02*
X38396D01*
X36850Y29587D02*
X38396D01*
X36850Y29823D02*
X38396D01*
X36850Y29705D02*
X38396D01*
X36850Y29764D02*
X38396D01*
X36850Y29291D02*
X38415D01*
X36850Y29173D02*
X38415D01*
X36850Y29232D02*
X38415D01*
X36850Y29468D02*
X38396D01*
X36850Y29350D02*
X38415D01*
X36850Y29409D02*
X38396D01*
X36850Y30000D02*
X38396D01*
X36850Y29882D02*
X38396D01*
X36850Y29941D02*
X38396D01*
X36850Y30177D02*
X38396D01*
X36850Y30059D02*
X38396D01*
X36850Y30118D02*
X38396D01*
X36850Y30295D02*
X38396D01*
X36850Y30236D02*
X38396D01*
Y29390D02*
Y30335D01*
X38445D02*
Y32185D01*
X38396Y30335D02*
X38484D01*
Y32185D01*
X36850Y30472D02*
X38484D01*
X36850Y30354D02*
X38484D01*
X36850Y30413D02*
X38484D01*
X36850Y30650D02*
X38484D01*
X36850Y30531D02*
X38484D01*
X36850Y30590D02*
X38484D01*
X39114D02*
X39409D01*
X39114Y30472D02*
X39409D01*
X39114Y30531D02*
X39409D01*
X36850Y30709D02*
X38484D01*
X39114Y30650D02*
X39409D01*
X39114Y30709D02*
X39409D01*
X36850Y30886D02*
X38484D01*
X36850Y30768D02*
X38484D01*
X36850Y30827D02*
X38484D01*
X36850Y31063D02*
X38484D01*
X36850Y30945D02*
X38484D01*
X36850Y31004D02*
X38484D01*
X39114Y30335D02*
Y32185D01*
Y30768D02*
X39409D01*
X39114Y30827D02*
X39409D01*
X39114Y31122D02*
X39409D01*
X39114Y30886D02*
X39409D01*
X39114Y31063D02*
X39409D01*
X40098Y28484D02*
Y30453D01*
X39990Y28484D02*
Y28642D01*
Y28484D02*
X40089D01*
X40039D02*
Y30453D01*
X40335Y28369D02*
Y30531D01*
X40453Y28251D02*
Y30531D01*
X40394Y28310D02*
Y30531D01*
X40157Y28477D02*
Y30453D01*
X40216Y28457D02*
Y30453D01*
X40276Y28423D02*
Y30531D01*
X40689Y28069D02*
Y30531D01*
X40807Y27360D02*
Y30531D01*
X40748Y27976D02*
Y30531D01*
X40512Y28192D02*
Y30531D01*
X40630Y28122D02*
Y30531D01*
X40571Y28157D02*
Y30531D01*
X41043Y26614D02*
Y31688D01*
X41102Y26614D02*
Y32135D01*
X41161Y26614D02*
Y32271D01*
X40866Y27304D02*
Y30531D01*
X40925Y27218D02*
Y31591D01*
X40984Y26614D02*
Y31625D01*
X41634Y26614D02*
Y33829D01*
X41752Y26614D02*
Y33829D01*
X41693Y26614D02*
Y33829D01*
X41457Y26614D02*
Y33829D01*
X39990Y28524D02*
X42450D01*
X41516Y26614D02*
Y33829D01*
X42224Y28168D02*
Y32157D01*
X42342Y28172D02*
Y31638D01*
X42283Y28168D02*
Y31713D01*
X42401Y28231D02*
Y31598D01*
X41398Y26614D02*
Y33868D01*
X41811Y26614D02*
Y33829D01*
X41575Y26614D02*
Y33829D01*
X41220Y26614D02*
Y33868D01*
X41339Y26614D02*
Y33868D01*
X41279Y26614D02*
Y33868D01*
X41870Y26614D02*
Y33829D01*
X41988Y28049D02*
Y33829D01*
X41929Y27956D02*
Y33829D01*
X42047Y28103D02*
Y33829D01*
X42165Y28158D02*
Y33829D01*
X42106Y28137D02*
Y33829D01*
X39449Y30335D02*
Y30453D01*
X39567Y30335D02*
Y30453D01*
X39508Y30335D02*
Y30453D01*
X39144Y30335D02*
X39203D01*
X39951D01*
X39144D02*
X39203D01*
X39970Y28553D02*
Y28642D01*
Y29518D01*
X39980Y28642D02*
Y30453D01*
X39626Y30335D02*
Y30453D01*
X39951Y29518D02*
Y30335D01*
X39862D02*
Y30453D01*
X39153Y30335D02*
Y32185D01*
X39213Y30335D02*
Y32185D01*
X39331Y30335D02*
Y32274D01*
X39272Y30335D02*
Y32185D01*
X39114Y30945D02*
X39409D01*
X39114Y31004D02*
X39409D01*
X39390Y30335D02*
Y32274D01*
X39744Y30335D02*
Y30453D01*
X39685Y30335D02*
Y30453D01*
X39409D02*
Y31398D01*
X39921Y30335D02*
Y30453D01*
X39803Y30335D02*
Y30453D01*
X39970Y28701D02*
X42586D01*
X39970Y28760D02*
X42645D01*
X39970Y28819D02*
X42704D01*
X39409Y30453D02*
X40217D01*
X39970Y28878D02*
X42763D01*
X39970Y28937D02*
X42822D01*
X39990Y28583D02*
X42479D01*
X39990Y28642D02*
X42527D01*
X40236Y30531D02*
X40886D01*
X40217Y30453D02*
Y31398D01*
X42520Y28634D02*
Y31571D01*
X42461Y28548D02*
Y31577D01*
X40236Y30531D02*
Y31319D01*
X40886Y30531D02*
Y31319D01*
X42579Y28693D02*
Y31571D01*
X42697Y28811D02*
Y31571D01*
X42638Y28752D02*
Y31571D01*
X42756Y28871D02*
Y31571D01*
X42874Y28989D02*
Y31571D01*
X42815Y28930D02*
Y31571D01*
X43287Y26614D02*
Y26978D01*
X43405Y26614D02*
Y26978D01*
X43346Y26614D02*
Y26978D01*
X42874Y26614D02*
Y26658D01*
X42933Y26614D02*
Y26730D01*
X42992Y26614D02*
Y26846D01*
X43878Y26614D02*
Y26978D01*
X43996Y26614D02*
Y26978D01*
X43937Y26614D02*
Y26978D01*
X43464Y26614D02*
Y26978D01*
X43819Y26614D02*
Y26978D01*
X43524Y26614D02*
Y26978D01*
X43169Y26614D02*
Y27028D01*
X43051Y26614D02*
Y27028D01*
X43110Y26614D02*
Y27028D01*
X43021Y26988D02*
X43228D01*
X43022Y27028D02*
X43228D01*
X43228Y26614D02*
Y27028D01*
X43642Y26614D02*
Y26978D01*
X43583Y26614D02*
Y26978D01*
X43228D02*
Y27028D01*
X43760Y26614D02*
Y26978D01*
X43701Y26614D02*
Y26978D01*
X42905Y26693D02*
X48542D01*
X42825Y26614D02*
X48622D01*
X42848Y26634D02*
X48599D01*
X43000Y26870D02*
X44562D01*
X42947Y26752D02*
X45776D01*
X42978Y26811D02*
X44562D01*
X44055Y26614D02*
Y26978D01*
X44587Y26614D02*
Y26787D01*
X44114Y26614D02*
Y26978D01*
X43228D02*
X44173D01*
X44562Y26787D02*
X45398D01*
X43014Y26929D02*
X44562D01*
X44173Y26614D02*
Y26978D01*
X44173D02*
Y27726D01*
X44232Y26614D02*
Y27844D01*
X44173Y27106D02*
X44562D01*
X44173Y26988D02*
X44562D01*
X44173Y27047D02*
X44562D01*
X44291Y26614D02*
Y27844D01*
X44409Y26614D02*
Y27844D01*
X44350Y26614D02*
Y27844D01*
X44468Y26614D02*
Y27844D01*
X44562Y26787D02*
Y27623D01*
X44527Y26614D02*
Y27844D01*
X43228Y28452D02*
X43310Y28533D01*
X44173Y27461D02*
X44562D01*
X44173Y27520D02*
X44562D01*
X43346Y28533D02*
Y28570D01*
X43310Y28533D02*
X44173D01*
X43405D02*
Y28629D01*
X44173Y27726D02*
Y27785D01*
Y27342D02*
X44562D01*
X44173Y27402D02*
X44562D01*
X44173Y28474D02*
Y28533D01*
Y27726D02*
Y27785D01*
Y27844D01*
X43464Y28533D02*
Y28688D01*
X43524Y28533D02*
Y28747D01*
X43583Y28533D02*
Y28806D01*
X39970Y28996D02*
X42881D01*
X43310Y28533D02*
X43657Y28881D01*
X39970Y29055D02*
X42940D01*
X44350Y28474D02*
Y29075D01*
X44527Y28474D02*
Y29075D01*
X44409Y28474D02*
Y29075D01*
X43642Y28533D02*
Y28866D01*
X43701Y28533D02*
Y28935D01*
X44291Y28474D02*
Y29075D01*
X44173Y27283D02*
X44562D01*
X44173Y27165D02*
X44562D01*
X44173Y27224D02*
X44562D01*
X44173Y27579D02*
X44562D01*
X44173Y27638D02*
X45630D01*
X44173Y27815D02*
X44823D01*
X44587Y27623D02*
Y27844D01*
X44562Y27623D02*
X45398D01*
X44173Y27844D02*
X44823D01*
X44173Y27697D02*
X44823D01*
X44173Y27756D02*
X44823D01*
X43359Y28583D02*
X44823D01*
X43418Y28642D02*
X45818D01*
X43477Y28701D02*
X45759D01*
X43654Y28878D02*
X45644D01*
X43536Y28760D02*
X45704D01*
X43595Y28819D02*
X45667D01*
X44587Y28474D02*
Y29075D01*
X44173Y28474D02*
X44823D01*
X44173Y28524D02*
X44823D01*
X43746Y29055D02*
X45630D01*
X43702Y28937D02*
X45632D01*
X43731Y28996D02*
X45630D01*
X44823Y26614D02*
Y26787D01*
X44941Y26614D02*
Y26787D01*
X44882Y26614D02*
Y26787D01*
X44646Y26614D02*
Y26787D01*
X44764Y26614D02*
Y26787D01*
X44705Y26614D02*
Y26787D01*
X45177Y26614D02*
Y26787D01*
X45354Y26614D02*
Y26787D01*
X45236Y26614D02*
Y26787D01*
X45000Y26614D02*
Y26787D01*
X45118Y26614D02*
Y26787D01*
X45059Y26614D02*
Y26787D01*
X45295Y26614D02*
Y26787D01*
X45398Y27106D02*
X45493D01*
X45398Y27224D02*
X45484D01*
X45398Y26787D02*
Y27623D01*
X45472Y26614D02*
Y27687D01*
X45413Y26614D02*
Y27687D01*
X45398Y27165D02*
X45485D01*
X45398Y27283D02*
X45490D01*
X45398Y27342D02*
X45503D01*
X45827Y26614D02*
Y26732D01*
X45945Y26614D02*
Y26709D01*
X45886Y26614D02*
Y26717D01*
X45398Y26811D02*
X45677D01*
X45768Y26614D02*
Y26756D01*
X45709Y26614D02*
Y26789D01*
X46004Y26614D02*
Y26708D01*
X46063Y26614D02*
Y26715D01*
X46122Y26614D02*
Y26728D01*
X46181Y26614D02*
Y26750D01*
X46185Y26752D02*
X48500D01*
X46240Y26614D02*
Y26781D01*
X45398Y26929D02*
X45567D01*
X45398Y26870D02*
X45613D01*
X45398Y27047D02*
X45509D01*
X45398Y26988D02*
X45533D01*
X45398Y27402D02*
X45524D01*
X45531Y26614D02*
Y26992D01*
X45650Y26614D02*
Y26834D01*
X45590Y26614D02*
Y26897D01*
X45531Y27418D02*
Y27687D01*
X46283Y26811D02*
X48469D01*
X46299Y26614D02*
Y26824D01*
X44646Y27623D02*
Y27844D01*
X44882Y27623D02*
Y27687D01*
X44823Y27623D02*
Y27844D01*
X44823Y27687D02*
Y27844D01*
X45000Y27623D02*
Y27687D01*
X44941Y27623D02*
Y27687D01*
X45236Y27623D02*
Y27687D01*
X45354Y27623D02*
Y27687D01*
X45295Y27623D02*
Y27687D01*
X45059Y27623D02*
Y27687D01*
X45177Y27623D02*
Y27687D01*
X45118Y27623D02*
Y27687D01*
X44646Y28474D02*
Y29075D01*
X44764Y27623D02*
Y27844D01*
X44705Y27623D02*
Y27844D01*
Y28474D02*
Y29075D01*
X44823Y28474D02*
Y29075D01*
X44764Y28474D02*
Y29075D01*
X44823Y28474D02*
Y28632D01*
X45059D02*
Y29075D01*
X45000Y28632D02*
Y29075D01*
X44892D02*
X44951D01*
X45295Y28632D02*
Y29075D01*
X45177Y28632D02*
Y29075D01*
X45398Y27461D02*
X45554D01*
X45398Y27520D02*
X45596D01*
X45398Y27579D02*
X45630D01*
X44823Y27687D02*
X45571D01*
X45630D01*
X44823Y28632D02*
X45571D01*
X45590Y27513D02*
Y27687D01*
X45571D02*
X45630D01*
Y27557D02*
Y27687D01*
X45571Y28632D02*
X45630D01*
X45828D01*
X45571D02*
X45630D01*
X45531D02*
Y29075D01*
X45590Y28632D02*
Y29075D01*
X44951Y29075D02*
X45581D01*
Y29075D02*
X45630D01*
X45581Y29075D02*
X45630D01*
X45650Y28632D02*
Y28860D01*
X45768Y28632D02*
Y28692D01*
X45709Y28632D02*
Y28754D01*
X45630Y28976D02*
Y29075D01*
X45734Y28726D02*
X45828Y28632D01*
X39970Y29114D02*
X42999D01*
X39970Y29173D02*
X43058D01*
X39970Y29232D02*
X43118D01*
X39951Y29587D02*
X43120D01*
X39970Y29291D02*
X43120D01*
X39951Y29527D02*
X43120D01*
X42524Y28638D02*
X43120Y29235D01*
X39970Y29468D02*
X43120D01*
X39970Y29350D02*
X43120D01*
X39970Y29409D02*
X43120D01*
X39951Y29764D02*
X43120D01*
X39951Y29646D02*
X43120D01*
X39951Y29705D02*
X43120D01*
X39951Y29941D02*
X43120D01*
X39951Y29823D02*
X43120D01*
X39951Y29882D02*
X43120D01*
X42933Y29048D02*
Y31571D01*
X42992Y29107D02*
Y31571D01*
X43051Y29166D02*
Y31572D01*
X43110Y29225D02*
Y30560D01*
X39951Y30000D02*
X43120D01*
Y29235D02*
Y30539D01*
X43750Y29587D02*
X44144D01*
X43750Y29468D02*
X44144D01*
X43750Y29527D02*
X44144D01*
X43750Y29764D02*
X44144D01*
X43750Y29646D02*
X44144D01*
X43750Y29705D02*
X44144D01*
X43750Y29232D02*
X44144D01*
X43750Y29114D02*
X44144D01*
X43750Y29173D02*
X44144D01*
X43750Y29409D02*
X44144D01*
X43750Y29291D02*
X44144D01*
X43750Y29350D02*
X44144D01*
X43750Y29104D02*
Y30349D01*
Y29823D02*
X44144D01*
X43760Y28533D02*
Y30332D01*
X43750Y30000D02*
X44144D01*
X43750Y29882D02*
X44144D01*
X43750Y29941D02*
X44144D01*
X43996Y28533D02*
Y30164D01*
X44055Y28533D02*
Y30158D01*
X44114Y28533D02*
Y30161D01*
X43819Y28533D02*
Y30257D01*
X43937Y28533D02*
Y30181D01*
X43878Y28533D02*
Y30211D01*
X39951Y30236D02*
X43120D01*
X39951Y30118D02*
X43120D01*
X39951Y30177D02*
X43120D01*
X39114Y30413D02*
X43120D01*
X39951Y30295D02*
X43120D01*
X39114Y30354D02*
X43120D01*
X40217Y30531D02*
X43120D01*
X39951Y30059D02*
X43120D01*
X40217Y30472D02*
X43120D01*
X40886Y30709D02*
X43081D01*
X40886Y30590D02*
X43098D01*
X40886Y30650D02*
X43085D01*
X40886Y30768D02*
X43087D01*
X40886Y30827D02*
X43104D01*
X43110Y30843D02*
Y31585D01*
X40886Y30886D02*
X43133D01*
X40886Y30945D02*
X43178D01*
X40886Y31004D02*
X43251D01*
X43169Y30936D02*
Y31615D01*
X43228Y30989D02*
Y31668D01*
X43287Y31023D02*
Y31807D01*
X43346Y31044D02*
Y32022D01*
X43464Y31054D02*
Y32022D01*
X43405Y31054D02*
Y32022D01*
X43750Y30295D02*
X43785D01*
X43750Y30236D02*
X43842D01*
X43738Y30886D02*
X44252D01*
X43692Y30945D02*
X44331D01*
X43619Y31004D02*
X44331D01*
X43750Y30177D02*
X43949D01*
X43750Y30059D02*
X44232D01*
X43750Y30118D02*
X44240D01*
X43783Y30768D02*
X43820D01*
X43766Y30827D02*
X43903D01*
X43642Y30989D02*
Y32074D01*
X43701Y30936D02*
Y32124D01*
X43524Y31044D02*
Y32027D01*
X40886Y31063D02*
X44331D01*
X43583Y31023D02*
Y32043D01*
X43819Y30767D02*
Y34135D01*
X43937Y30842D02*
Y35179D01*
X43878Y30813D02*
Y35215D01*
X43760Y30843D02*
Y32217D01*
X44055Y30866D02*
Y35133D01*
X43996Y30859D02*
Y35153D01*
X44173Y28533D02*
Y29075D01*
X44468Y28474D02*
Y29075D01*
X44232Y28474D02*
Y29075D01*
X44144D02*
Y30020D01*
Y29075D02*
X44892D01*
X44144Y30020D02*
X44232D01*
X44882Y28632D02*
Y29075D01*
X45236Y28632D02*
Y29075D01*
X44941Y28632D02*
Y29075D01*
X44892D02*
X44951D01*
X45118Y28632D02*
Y29075D01*
X45000Y30020D02*
Y30067D01*
X44173Y30020D02*
Y30174D01*
X44232Y30020D02*
Y30197D01*
X45059Y30020D02*
Y30089D01*
X45177Y30020D02*
Y30089D01*
X45118Y30020D02*
Y30089D01*
X45217D02*
Y30197D01*
X45295Y30020D02*
Y30197D01*
X45236Y30020D02*
Y30197D01*
X45354Y28632D02*
Y29075D01*
X45472Y28632D02*
Y29075D01*
X45413Y28632D02*
Y29075D01*
X45531Y30020D02*
Y30167D01*
X44963Y30020D02*
X45699D01*
X44995Y30059D02*
X46398D01*
X45581Y30020D02*
X45699D01*
X46329D01*
X45768D02*
Y30167D01*
X45590Y30020D02*
Y30167D01*
X45709Y30020D02*
Y30167D01*
X45650Y30020D02*
Y30167D01*
X45827Y30020D02*
Y30167D01*
X45945Y30020D02*
Y30167D01*
X45886Y30020D02*
Y30167D01*
X45354Y30020D02*
Y30197D01*
X45472Y30020D02*
Y30169D01*
X45413Y30020D02*
Y30181D01*
X46181Y30020D02*
Y30210D01*
X46240Y30020D02*
Y30251D01*
X46299Y30020D02*
Y30317D01*
X46004Y30020D02*
Y30167D01*
X46063Y30020D02*
Y30171D01*
X46122Y30020D02*
Y30184D01*
X44252Y30159D02*
Y30197D01*
X44181Y30177D02*
X44252D01*
Y30935D02*
X44331D01*
X44252Y30827D02*
Y30935D01*
X45012Y30089D02*
X45217D01*
Y30197D02*
X45371D01*
X45217Y30827D02*
Y30935D01*
X45138D02*
X45217D01*
Y30827D02*
X45319D01*
X45217Y30886D02*
X45276D01*
X44114Y30863D02*
Y35120D01*
X44232Y30827D02*
Y35112D01*
X44173Y30849D02*
Y35113D01*
X44291Y30935D02*
Y35117D01*
X45138Y31063D02*
X45249D01*
X44331Y30935D02*
Y31565D01*
X45177Y30935D02*
Y31424D01*
X45236Y30827D02*
Y31303D01*
X45138Y30935D02*
Y31565D01*
Y30945D02*
X45253D01*
X45138Y31004D02*
X45245D01*
X45217Y30118D02*
X46398D01*
X45510Y30167D02*
X46015D01*
X45217Y30177D02*
X45429D01*
X46096D02*
X46398D01*
X46321Y30354D02*
X46398D01*
X46222Y30236D02*
X46398D01*
X46283Y30295D02*
X46398D01*
X46298Y30709D02*
X46398D01*
X46246Y30768D02*
X46398D01*
X46240Y30773D02*
Y30871D01*
X46206Y30827D02*
X46398D01*
X46299Y30707D02*
Y31317D01*
X46249Y30886D02*
X46398D01*
X46272Y30945D02*
X46398D01*
X46281Y31004D02*
X46398D01*
X46276Y31063D02*
X46398D01*
X46257Y31122D02*
X46403D01*
X36850Y31240D02*
X38484D01*
X36850Y31122D02*
X38484D01*
X36850Y31181D02*
X38484D01*
X36850Y31594D02*
X38484D01*
X36850Y31299D02*
X38484D01*
X36850Y31358D02*
X38484D01*
X39114D02*
X39409D01*
X39114Y31181D02*
X39409D01*
X39114Y31240D02*
X39409D01*
X36850Y31535D02*
X38484D01*
X36850Y31417D02*
X38484D01*
X36850Y31476D02*
X38484D01*
X36850Y31772D02*
X38484D01*
X36850Y31653D02*
X38484D01*
X36850Y31713D02*
X38484D01*
X36850Y31949D02*
X38484D01*
X36850Y31831D02*
X38484D01*
X36850Y31890D02*
X38484D01*
X36850Y32126D02*
X38484D01*
X36850Y32008D02*
X38484D01*
X36850Y32067D02*
X38484D01*
X36850Y32185D02*
X38484D01*
X39114Y32185D02*
X39272D01*
X38327D02*
X38484D01*
X39114Y31299D02*
X39409D01*
X39114Y31417D02*
X39498D01*
X39114Y31476D02*
X39498D01*
X39114Y31653D02*
X39498D01*
X39114Y31535D02*
X39498D01*
X39114Y31594D02*
X39498D01*
X40128Y31398D02*
Y31651D01*
Y31398D02*
X40217D01*
X40157D02*
Y31625D01*
X39409Y31398D02*
X39498D01*
X40128Y31594D02*
X40209D01*
X39114Y31831D02*
X39498D01*
X39114Y31713D02*
X39498D01*
X39114Y31772D02*
X39498D01*
X39114Y32008D02*
X39479D01*
X39114Y31890D02*
X39498D01*
X39114Y31949D02*
X39498D01*
X39449Y31398D02*
Y32274D01*
X39498Y31398D02*
Y31964D01*
X39114Y32126D02*
X39459D01*
X39114Y32067D02*
X39464D01*
X39114Y32185D02*
X39464D01*
X36850Y32716D02*
X38327D01*
X36850Y32598D02*
X38327D01*
X36850Y32657D02*
X38327D01*
X36850Y32894D02*
X38327D01*
X36850Y32776D02*
X38327D01*
X36850Y32835D02*
X38327D01*
X36850Y32362D02*
X38327D01*
X36850Y32244D02*
X38327D01*
X36850Y32303D02*
X38327D01*
X36850Y32539D02*
X38327D01*
X36850Y32421D02*
X38327D01*
X36850Y32480D02*
X38327D01*
X36850Y33071D02*
X38327D01*
X36850Y32953D02*
X38327D01*
X36850Y33012D02*
X38327D01*
X36850Y33602D02*
X38327D01*
X36850Y33130D02*
X38327D01*
X36850Y33189D02*
X38327D01*
Y32933D02*
Y32992D01*
Y32185D02*
Y32933D01*
Y32992D01*
X36850Y33543D02*
X38327D01*
X36850Y33248D02*
X38327D01*
Y32992D02*
Y33740D01*
X36850Y33366D02*
X38327D01*
X39272Y32185D02*
Y32274D01*
X36850Y33307D02*
X38327D01*
X36850Y33661D02*
X38327D01*
X36850Y33425D02*
X38327D01*
X36850Y33484D02*
X38327D01*
X39272Y32274D02*
X39429D01*
X39272Y32244D02*
X39479D01*
X40005Y33652D02*
X40179D01*
X39272D02*
X39680D01*
X36850Y33720D02*
X38327D01*
X39272Y33661D02*
X39701D01*
X39272Y33720D02*
X42456D01*
X38327Y33740D02*
X39272D01*
X36850Y33779D02*
X42456D01*
X36850Y33839D02*
X41447D01*
X39272Y33652D02*
Y33740D01*
X40098Y33652D02*
Y33868D01*
X39980Y33663D02*
Y33868D01*
X39984Y33661D02*
X40204D01*
X40039Y33652D02*
Y33868D01*
X40335Y31319D02*
Y31571D01*
X40236Y31319D02*
X40886D01*
X40394D02*
Y31571D01*
X40453Y31319D02*
Y31571D01*
X40318D02*
X40823D01*
X40512Y31319D02*
Y31571D01*
X40748Y31319D02*
Y31571D01*
X40807Y31319D02*
Y31571D01*
X40866Y31319D02*
Y31574D01*
X40571Y31319D02*
Y31571D01*
X40689Y31319D02*
Y31571D01*
X40630Y31319D02*
Y31571D01*
X40216Y31398D02*
Y31591D01*
X40276Y31319D02*
Y31574D01*
X41043Y31986D02*
Y32072D01*
X41102Y32539D02*
Y32635D01*
X41161Y32403D02*
Y32771D01*
X41058Y31713D02*
X42284D01*
X40933Y31594D02*
X42409D01*
X41016Y31653D02*
X42326D01*
X41064Y31949D02*
X42278D01*
X41026Y32008D02*
X42315D01*
X41037Y32067D02*
X42304D01*
X41089Y31831D02*
X42253D01*
X41081Y31772D02*
X42261D01*
X41096Y32126D02*
X42246D01*
X41084Y31890D02*
X42258D01*
X42283Y31960D02*
Y32085D01*
X41155Y32244D02*
X42187D01*
X41133Y32185D02*
X42209D01*
X41136Y32480D02*
X42205D01*
X41117Y32657D02*
X42224D01*
X41102Y32539D02*
X42240D01*
X41072Y32598D02*
X42270D01*
X41167Y32362D02*
X42175D01*
X41166Y32303D02*
X42176D01*
X41157Y32421D02*
X42185D01*
X42224Y32516D02*
Y32657D01*
X40318Y33681D02*
X40823D01*
X40866Y33678D02*
Y33868D01*
X41161Y32903D02*
Y33271D01*
X41168Y32835D02*
X42174D01*
X41163Y32894D02*
X42179D01*
X41102Y33039D02*
Y33135D01*
X41166Y33307D02*
X42175D01*
X41166Y33366D02*
X42175D01*
X40157Y33652D02*
Y33868D01*
X40925Y33666D02*
Y33868D01*
X40748Y33681D02*
Y33868D01*
X40709D02*
X40768D01*
X41447D01*
X40709D02*
X40768D01*
X41043Y33602D02*
Y33868D01*
X41161Y33403D02*
Y33868D01*
X41102Y33539D02*
Y33868D01*
X40984Y33641D02*
Y33868D01*
X41457Y33829D02*
Y33868D01*
X41447Y33829D02*
Y33868D01*
X41120Y33012D02*
X42222D01*
X41076Y33071D02*
X42266D01*
X41099Y33130D02*
X42243D01*
X41135Y33484D02*
X42207D01*
X41134Y33189D02*
X42207D01*
X41099Y33543D02*
X42243D01*
X41162Y32776D02*
X42179D01*
X41146Y32716D02*
X42196D01*
X41148Y32953D02*
X42194D01*
X41156Y33425D02*
X42186D01*
X42224Y33016D02*
Y33157D01*
X41156Y33248D02*
X42186D01*
X42224Y33516D02*
Y33829D01*
X42283Y33588D02*
Y33829D01*
X41447D02*
X42283D01*
X41043Y33602D02*
X42299D01*
X40938Y33661D02*
X42404D01*
X42342Y33633D02*
Y33829D01*
X42456Y33675D02*
Y33829D01*
X42401Y33661D02*
Y33829D01*
X42283D02*
X42411D01*
X42456D01*
X42283D02*
X42411D01*
X36850Y35905D02*
X37846D01*
X36850Y35846D02*
X38014D01*
X38386Y33740D02*
Y35852D01*
X36850Y36083D02*
X37608D01*
X36850Y35965D02*
X37744D01*
X36850Y36024D02*
X37668D01*
X38622Y33740D02*
Y35957D01*
X38681Y33740D02*
Y35999D01*
X38740Y33740D02*
Y36052D01*
X38445Y33740D02*
Y35869D01*
X38504Y33740D02*
Y35892D01*
X38563Y33740D02*
Y35921D01*
X38799Y33740D02*
Y36116D01*
X38858Y33740D02*
Y36199D01*
X38917Y33740D02*
Y36315D01*
X36850Y36142D02*
X37559D01*
X39153Y33740D02*
Y37953D01*
X39272Y33740D02*
Y37953D01*
X39213Y33740D02*
Y37953D01*
X38976Y33740D02*
Y36603D01*
X39094Y33740D02*
Y37953D01*
X39035Y33740D02*
Y37953D01*
X36850Y34370D02*
X39470D01*
X36850Y34252D02*
X39480D01*
X36850Y34311D02*
X39470D01*
X36850Y34429D02*
X39480D01*
X36850Y34488D02*
X39501D01*
X36850Y34547D02*
X39535D01*
X36850Y34016D02*
X39681D01*
X36850Y33898D02*
X39961D01*
X36850Y33957D02*
X39961D01*
X36850Y34193D02*
X39501D01*
X36850Y34075D02*
X39589D01*
X36850Y34134D02*
X39535D01*
X36850Y35079D02*
X41526D01*
X36850Y34961D02*
X41526D01*
X36850Y35020D02*
X41526D01*
X36850Y35256D02*
X41526D01*
X36850Y35138D02*
X41526D01*
X36850Y35197D02*
X41526D01*
X36850Y34606D02*
X39588D01*
X36850Y34665D02*
X39681D01*
X36850Y34724D02*
X39961D01*
X36850Y34783D02*
X39961D01*
X36850Y34842D02*
X41526D01*
X36850Y34902D02*
X41526D01*
X36850Y36614D02*
X37402D01*
X36850Y36555D02*
X37404D01*
X36850Y36673D02*
X37404D01*
X36850Y36732D02*
X37410D01*
X36850Y36791D02*
X37422D01*
X36850Y36850D02*
X37438D01*
X36850Y36319D02*
X37459D01*
X36850Y36201D02*
X37519D01*
X36850Y36260D02*
X37486D01*
X36850Y36496D02*
X37411D01*
X36850Y36378D02*
X37438D01*
X36850Y36437D02*
X37422D01*
X36850Y36909D02*
X37459D01*
X36850Y36968D02*
X37486D01*
X36850Y37027D02*
X37519D01*
X36850Y37087D02*
X37559D01*
X36850Y37146D02*
X37608D01*
X36850Y37205D02*
X37668D01*
X37441Y36860D02*
Y37953D01*
X37559Y37087D02*
Y37953D01*
X37500Y36995D02*
Y37953D01*
X37618Y37156D02*
Y37953D01*
X37736Y37258D02*
Y37953D01*
X37677Y37212D02*
Y37953D01*
X36850Y37264D02*
X37744D01*
X36850Y37323D02*
X37846D01*
X37795Y37296D02*
Y37953D01*
X37854Y37327D02*
Y37953D01*
X36850Y37382D02*
X38014D01*
X37913Y37352D02*
Y37953D01*
X37972Y37371D02*
Y37953D01*
X38090Y37395D02*
Y37953D01*
X38031Y37386D02*
Y37953D01*
X38150Y37401D02*
Y37953D01*
X38268Y37398D02*
Y37953D01*
X38209Y37401D02*
Y37953D01*
X38504Y37336D02*
Y37953D01*
X38622Y37272D02*
Y37953D01*
X38563Y37307D02*
Y37953D01*
X38327Y37389D02*
Y37953D01*
X38445Y37359D02*
Y37953D01*
X38386Y37377D02*
Y37953D01*
X38858Y37029D02*
Y37953D01*
X38976Y36625D02*
Y37953D01*
X38917Y36914D02*
Y37953D01*
X38681Y37229D02*
Y37953D01*
X38799Y37112D02*
Y37953D01*
X38740Y37177D02*
Y37953D01*
X39449Y33652D02*
Y37953D01*
X39567Y33652D02*
Y34096D01*
X39508Y33652D02*
Y34178D01*
X39626Y33652D02*
Y34046D01*
X39685Y33654D02*
Y34014D01*
X39744Y33677D02*
Y33995D01*
X39803Y33689D02*
Y33987D01*
X39921Y33682D02*
Y34000D01*
X39862Y33690D02*
Y33988D01*
X39961Y33868D02*
Y34014D01*
Y34667D02*
Y34813D01*
X39331Y33652D02*
Y37953D01*
X39508Y34503D02*
Y37953D01*
X39390Y33652D02*
Y37953D01*
X39567Y34586D02*
Y37953D01*
X39685Y34667D02*
Y37953D01*
X39626Y34635D02*
Y37953D01*
X39744Y34686D02*
Y37953D01*
X39921Y34681D02*
Y37953D01*
X39862Y34693D02*
Y37953D01*
X39803Y34694D02*
Y37953D01*
X40039Y34813D02*
Y37953D01*
X39980Y34813D02*
Y37953D01*
X40216Y33666D02*
Y33868D01*
X40335Y33681D02*
Y33868D01*
X40276Y33678D02*
Y33868D01*
X40394Y33681D02*
Y33868D01*
X39961D02*
X40709D01*
X40453Y33681D02*
Y33868D01*
X40512Y33681D02*
Y33868D01*
X40630Y33681D02*
Y33868D01*
X40571Y33681D02*
Y33868D01*
X40689Y33681D02*
Y33868D01*
X41447D02*
X41516D01*
X41516Y33829D02*
Y33868D01*
X40453Y34813D02*
Y37953D01*
X40571Y34813D02*
Y37953D01*
X40512Y34813D02*
Y37953D01*
X40098Y34813D02*
Y37953D01*
X39961Y34813D02*
X40709D01*
X40157D02*
Y37953D01*
X40807Y33681D02*
Y33868D01*
X41516Y34675D02*
Y34813D01*
X41526Y34675D02*
Y35305D01*
X42333Y34675D02*
Y35305D01*
X42362Y34675D02*
Y35305D01*
X42342Y34675D02*
Y37953D01*
X40394Y34813D02*
Y37953D01*
X40689Y34813D02*
Y37953D01*
X40630Y34813D02*
Y37953D01*
X40216Y34813D02*
Y37953D01*
X40335Y34813D02*
Y37953D01*
X40276Y34813D02*
Y37953D01*
X40807Y34813D02*
Y37953D01*
X40768Y34813D02*
X41516D01*
X40866D02*
Y37953D01*
X40748Y34813D02*
Y37953D01*
X40709Y34813D02*
X40768D01*
X40709D02*
X40768D01*
X41102D02*
Y37953D01*
X41220Y34813D02*
Y37953D01*
X41161Y34813D02*
Y37953D01*
X40925Y34813D02*
Y37953D01*
X41043Y34813D02*
Y37953D01*
X40984Y34813D02*
Y37953D01*
X41279Y34813D02*
Y37953D01*
X41398Y34813D02*
Y37953D01*
X41339Y34813D02*
Y37953D01*
X41457Y34813D02*
Y37953D01*
X41575Y35305D02*
Y37953D01*
X41516Y34813D02*
Y37953D01*
X41634Y35305D02*
Y37953D01*
X41526Y35305D02*
X42333D01*
X41693D02*
Y37953D01*
X41870Y35305D02*
Y37953D01*
X41752Y35305D02*
Y37953D01*
X41929Y35305D02*
Y37953D01*
X41988Y35305D02*
Y37953D01*
X42106Y35305D02*
Y37953D01*
X42047Y35305D02*
Y37953D01*
X42283Y35305D02*
Y37953D01*
X42461Y35305D02*
Y37953D01*
X42401Y35305D02*
Y37953D01*
X41811Y35305D02*
Y37953D01*
X42224Y35305D02*
Y37953D01*
X42165Y35305D02*
Y37953D01*
X42697Y35305D02*
Y37953D01*
X42815Y35305D02*
Y37953D01*
X42756Y35305D02*
Y37953D01*
X42520Y35305D02*
Y37953D01*
X42638Y35305D02*
Y37953D01*
X42579Y35305D02*
Y37953D01*
X40128Y31535D02*
X44331D01*
X40886Y31122D02*
X44331D01*
X40886Y31299D02*
X44331D01*
X42519Y31571D02*
X43023D01*
X43287Y31866D02*
Y32022D01*
X43214D02*
X43468D01*
X43464Y33144D02*
Y33898D01*
X43524Y33124D02*
Y33900D01*
X43583Y33089D02*
Y33912D01*
X43760Y32882D02*
Y34029D01*
X43642Y33034D02*
Y33935D01*
X43617Y33059D02*
X43691Y32985D01*
X43701Y32975D02*
Y33971D01*
X40217Y31358D02*
X44331D01*
X40886Y31181D02*
X44331D01*
X40886Y31240D02*
X44331D01*
X40128Y31417D02*
X44331D01*
X40128Y31476D02*
X44331D01*
X43133Y31594D02*
X45176D01*
X43216Y31653D02*
X45196D01*
X43258Y31713D02*
X45230D01*
X43281Y31772D02*
X45284D01*
X43264Y31949D02*
X45252D01*
X43289Y31831D02*
X45316D01*
X43284Y31890D02*
X45274D01*
X43226Y32008D02*
X45245D01*
X43631Y32067D02*
X45250D01*
X43703Y32126D02*
X45270D01*
X43664Y33012D02*
X45244D01*
X43604Y33071D02*
X45251D01*
X43509Y33130D02*
X45272D01*
X43782Y32303D02*
X45236D01*
X43745Y32185D02*
X45309D01*
X43770Y32244D02*
X45294D01*
X43719Y32953D02*
X45251D01*
X43775Y32835D02*
X45312D01*
X43755Y32894D02*
X45272D01*
X43169Y33649D02*
Y33829D01*
X43228Y33613D02*
Y33829D01*
X43086Y33675D02*
Y33829D01*
X43248D01*
X43110Y33670D02*
Y33829D01*
X43314Y33152D02*
X43394D01*
X43405Y33151D02*
Y33907D01*
X43346Y33152D02*
Y33217D01*
X43335Y33484D02*
X45167D01*
X43299Y33543D02*
X45167D01*
X43248Y33829D02*
Y33937D01*
X43322D01*
X43248Y34567D02*
X43322D01*
X43169Y34675D02*
X43248D01*
X43287Y33558D02*
Y33937D01*
X43346Y33456D02*
Y33926D01*
X43248Y34567D02*
Y34675D01*
Y34606D02*
X43477D01*
X43243Y33602D02*
X45178D01*
X43138Y33661D02*
X45200D01*
X43086Y33720D02*
X45236D01*
X43086Y33779D02*
X45293D01*
X43248Y33839D02*
X45401D01*
X43248Y33898D02*
X48003D01*
X43366Y33307D02*
X45233D01*
X43334Y33189D02*
X45312D01*
X43356Y33248D02*
X45289D01*
X43356Y33425D02*
X45177D01*
X43366Y33366D02*
X45198D01*
X43680Y33957D02*
X47944D01*
X43169Y34842D02*
X47128D01*
X43169Y34724D02*
X47320D01*
X43169Y34783D02*
X47193D01*
X43169Y35079D02*
X46891D01*
X43169Y34902D02*
X47069D01*
X43169Y35020D02*
X46951D01*
X43680Y34547D02*
X47569D01*
X43748Y34016D02*
X47885D01*
X43748Y34488D02*
X47569D01*
X43169Y34961D02*
X47010D01*
X43491Y34606D02*
X47520D01*
X43248Y34665D02*
X47520D01*
X45138Y31122D02*
X45268D01*
X45138Y31240D02*
X45298D01*
X44331Y31565D02*
X45138D01*
X45295Y31168D02*
Y31243D01*
X45138Y31181D02*
X45305D01*
X46240Y31153D02*
Y31251D01*
X45138Y31417D02*
X45179D01*
X45138Y31299D02*
X45239D01*
X45138Y31358D02*
X45202D01*
X45177Y31599D02*
Y32424D01*
X43783Y32337D02*
Y32762D01*
Y32362D02*
X45200D01*
X43783Y32421D02*
X45178D01*
X45236Y31720D02*
Y32303D01*
X45295Y31781D02*
Y31856D01*
X46240Y31773D02*
Y31871D01*
X45295Y32168D02*
Y32243D01*
X46220Y31181D02*
X46421D01*
X46227Y31240D02*
X46452D01*
X46241Y31772D02*
X46983D01*
X46209Y31831D02*
X47417D01*
X46286Y31299D02*
X46503D01*
X46323Y31358D02*
X46562D01*
X46295Y31713D02*
X46917D01*
X46281Y32008D02*
X47366D01*
X46251Y31890D02*
X47388D01*
X46273Y31949D02*
X47372D01*
X46217Y32185D02*
X47412D01*
X46232Y32244D02*
X47456D01*
X46299Y31707D02*
Y32317D01*
X46275Y32067D02*
X47370D01*
X46255Y32126D02*
X47385D01*
X46240Y32153D02*
Y32251D01*
X46289Y32303D02*
X47526D01*
X46325Y32362D02*
X47491D01*
X43783Y32539D02*
X45167D01*
X43783Y32480D02*
X45167D01*
X43783Y32598D02*
X45177D01*
X43783Y32657D02*
X45198D01*
X43783Y32716D02*
X45233D01*
X43783Y32776D02*
X45289D01*
X45295Y32781D02*
Y32856D01*
X46240Y32773D02*
Y32871D01*
X45177Y32599D02*
Y33424D01*
X45236Y32720D02*
Y33303D01*
X45295Y33168D02*
Y33243D01*
X45510Y33856D02*
X46015D01*
X46240Y33153D02*
Y33251D01*
X46299Y32707D02*
Y33317D01*
X46181Y33814D02*
Y35112D01*
X46299Y33707D02*
Y35112D01*
X46240Y33773D02*
Y35112D01*
X46253Y32894D02*
X47387D01*
X46237Y32776D02*
X47460D01*
X46213Y32835D02*
X47415D01*
X46213Y33189D02*
X47415D01*
X46236Y33248D02*
X47459D01*
X46281Y33012D02*
X47366D01*
X46292Y32716D02*
X47533D01*
X46274Y32953D02*
X47371D01*
X46274Y33071D02*
X47371D01*
X46253Y33130D02*
X47387D01*
X46292Y33307D02*
X47533D01*
X43834Y34193D02*
X47708D01*
X43791Y34075D02*
X47826D01*
X43818Y34134D02*
X47767D01*
X43791Y34429D02*
X47572D01*
X43834Y34311D02*
X47611D01*
X43818Y34370D02*
X47586D01*
X46289Y33720D02*
X47546D01*
X46232Y33779D02*
X48121D01*
X46166Y35112D02*
X46858D01*
X46124Y33839D02*
X48062D01*
X43839Y34252D02*
X47651D01*
X36850Y35669D02*
X43617D01*
X36850Y35551D02*
X43637D01*
X36850Y35610D02*
X43624D01*
X36850Y35728D02*
X43616D01*
X36850Y35787D02*
X43621D01*
X38364Y35846D02*
X43632D01*
X43169Y34675D02*
Y35305D01*
X43642Y34569D02*
Y35535D01*
X43110Y35305D02*
Y37953D01*
X42362Y35305D02*
X43169D01*
X43169D02*
Y37953D01*
X43051Y35305D02*
Y37953D01*
X43287Y34567D02*
Y37953D01*
X43228Y34675D02*
Y37953D01*
X42874Y35305D02*
Y37953D01*
X42992Y35305D02*
Y37953D01*
X42933Y35305D02*
Y37953D01*
X43346Y34578D02*
Y37953D01*
X43583Y34592D02*
Y37953D01*
X43405Y34597D02*
Y37953D01*
X43464Y34606D02*
Y37953D01*
X43642Y35883D02*
Y37953D01*
X43524Y34604D02*
Y37953D01*
X43169Y35256D02*
X43824D01*
X43169Y35138D02*
X44039D01*
X43169Y35197D02*
X43906D01*
X36850Y35433D02*
X43683D01*
X36850Y35315D02*
X43764D01*
X36850Y35374D02*
X43718D01*
X43819Y34369D02*
Y35260D01*
X44350Y31565D02*
Y35128D01*
X44409Y31565D02*
Y35145D01*
X43701Y34532D02*
Y35402D01*
X44387Y35138D02*
X46166D01*
X43760Y34475D02*
Y35320D01*
X38532Y35905D02*
X43649D01*
X36850Y35492D02*
X43656D01*
X38634Y35965D02*
X43673D01*
X38710Y36024D02*
X43706D01*
X38770Y36083D02*
X43747D01*
X38819Y36142D02*
X43802D01*
X43701Y36016D02*
Y37429D01*
X43760Y36097D02*
Y37257D01*
X43819Y36157D02*
Y37172D01*
X38859Y36201D02*
X43875D01*
X43878Y36203D02*
Y37113D01*
X38532Y37323D02*
X43729D01*
X38710Y37205D02*
X43793D01*
X38634Y37264D02*
X43756D01*
X36850Y37500D02*
X43695D01*
X38364Y37382D02*
X43710D01*
X36850Y37441D02*
X43699D01*
X43937Y36238D02*
Y37070D01*
X38892Y36260D02*
X43983D01*
X43996Y36265D02*
Y37038D01*
X38770Y37146D02*
X43843D01*
X38859Y37027D02*
X44020D01*
X38819Y37087D02*
X43912D01*
X36850Y37559D02*
X43697D01*
X36850Y37618D02*
X43706D01*
X36850Y37677D02*
X43723D01*
X36850Y37736D02*
X43747D01*
X36850Y37795D02*
X43781D01*
X36850Y37854D02*
X43827D01*
X43701Y37589D02*
Y37953D01*
X43819Y37845D02*
Y37953D01*
X43760Y37760D02*
Y37953D01*
X43878Y37904D02*
Y37953D01*
X36850Y37913D02*
X43889D01*
X36850Y37953D02*
X43946D01*
X38919Y36319D02*
X47510D01*
X38940Y36378D02*
X47510D01*
X38956Y36437D02*
X47589D01*
X38892Y36968D02*
X47589D01*
X38940Y36850D02*
X47589D01*
X38919Y36909D02*
X47589D01*
X38976Y36614D02*
X47589D01*
X38967Y36496D02*
X47589D01*
X38974Y36555D02*
X47589D01*
X38956Y36791D02*
X47589D01*
X38974Y36673D02*
X47589D01*
X38967Y36732D02*
X47589D01*
X44055Y36284D02*
Y37015D01*
X44114Y36297D02*
Y37000D01*
X44291Y36300D02*
Y36997D01*
X44350Y36289D02*
Y37009D01*
X44409Y36272D02*
Y37029D01*
X44173Y36304D02*
Y36992D01*
X44232Y36305D02*
Y36991D01*
X44405Y37027D02*
X46570D01*
X44646Y31565D02*
Y35298D01*
X44764Y31565D02*
Y35354D01*
X44705Y31565D02*
Y35354D01*
X44468Y31565D02*
Y35169D01*
X44527Y31565D02*
Y35202D01*
X44587Y31565D02*
Y35243D01*
X44823Y31565D02*
Y35354D01*
X44941Y31565D02*
Y35354D01*
X44882Y31565D02*
Y35354D01*
X45000Y31565D02*
Y35354D01*
X45236Y33720D02*
Y35354D01*
X45177Y33599D02*
Y35354D01*
X44882Y36063D02*
Y37953D01*
X45000Y36063D02*
Y37953D01*
X44941Y36063D02*
Y37953D01*
X44705Y36063D02*
Y37346D01*
X44823Y36063D02*
Y37953D01*
X44764Y36063D02*
Y37953D01*
X45059Y31565D02*
Y35354D01*
X45295Y33781D02*
Y35354D01*
X45118Y31565D02*
Y35354D01*
X45059Y36063D02*
Y37953D01*
X45413Y33842D02*
Y35354D01*
X45354Y33819D02*
Y35354D01*
X45531Y33856D02*
Y35354D01*
X45650Y33856D02*
Y35354D01*
X45590Y33856D02*
Y35354D01*
X44661Y35315D02*
X46166D01*
X44520Y35197D02*
X46166D01*
X44601Y35256D02*
X46166D01*
X45886Y33856D02*
Y35354D01*
X46122Y33839D02*
Y35354D01*
X45945Y33856D02*
Y35354D01*
X45709Y33856D02*
Y35354D01*
X45827Y33856D02*
Y35354D01*
X45768Y33856D02*
Y35354D01*
X45472Y33854D02*
Y35354D01*
X44693D02*
X46166D01*
X44693Y36063D02*
X46166D01*
X45531D02*
Y37953D01*
X45945Y36063D02*
Y37953D01*
X45590Y36063D02*
Y37953D01*
X46004Y33856D02*
Y35354D01*
X46166Y35112D02*
Y35354D01*
X46063Y33853D02*
Y35354D01*
X46004Y36063D02*
Y37953D01*
X46166Y36063D02*
Y36306D01*
X46122Y36063D02*
Y37953D01*
X44468Y36248D02*
Y37058D01*
X44527Y36216D02*
Y37097D01*
X44587Y36174D02*
Y37150D01*
X44527Y37920D02*
Y37953D01*
X44442Y36260D02*
X46166D01*
X44646Y36119D02*
Y37224D01*
X45177Y36063D02*
Y37953D01*
X45118Y36063D02*
Y37953D01*
X44587Y37867D02*
Y37953D01*
X44623Y36142D02*
X46166D01*
X44705Y37671D02*
Y37953D01*
X45354Y36063D02*
Y37953D01*
X45472Y36063D02*
Y37953D01*
X45413Y36063D02*
Y37953D01*
X44646Y37793D02*
Y37953D01*
X45295Y36063D02*
Y37953D01*
X45236Y36063D02*
Y37953D01*
X45827Y36063D02*
Y37953D01*
X46063Y36063D02*
Y37953D01*
X45886Y36063D02*
Y37953D01*
X45650Y36063D02*
Y37953D01*
X45768Y36063D02*
Y37953D01*
X45709Y36063D02*
Y37953D01*
X44678Y36083D02*
X46166D01*
X44550Y36201D02*
X46166D01*
X44513Y37087D02*
X46462D01*
X44669Y37264D02*
X46306D01*
X44582Y37146D02*
X46393D01*
X44632Y37205D02*
X46343D01*
X44696Y37323D02*
X46279D01*
X46166Y36306D02*
X47359D01*
X46299D02*
Y37277D01*
X44731Y37500D02*
X46245D01*
X44715Y37382D02*
X46260D01*
X44726Y37441D02*
X46249D01*
X44703Y37677D02*
X46273D01*
X44678Y37736D02*
X46297D01*
X44644Y37795D02*
X46331D01*
X44599Y37854D02*
X46377D01*
X44536Y37913D02*
X46439D01*
X44479Y37953D02*
X46496D01*
X46181Y36306D02*
Y37953D01*
X46240Y36306D02*
Y37953D01*
X44728Y37559D02*
X46247D01*
X44719Y37618D02*
X46256D01*
X46299Y37740D02*
Y37953D01*
X46594Y26614D02*
Y27096D01*
X46713Y26614D02*
Y27096D01*
X46653Y26614D02*
Y27096D01*
X46358Y26614D02*
Y26882D01*
X46417Y26614D02*
Y26968D01*
X46535Y26614D02*
Y27096D01*
X47126Y26614D02*
Y27096D01*
X47244Y26614D02*
Y27096D01*
X47185Y26614D02*
Y27096D01*
X46772Y26614D02*
Y27096D01*
X46890Y26614D02*
Y27096D01*
X46831Y26614D02*
Y27096D01*
X46476Y26614D02*
Y27175D01*
X46467Y27106D02*
X46526D01*
X46476Y27165D02*
X46526D01*
X46476Y27234D02*
Y27726D01*
X46477Y27224D02*
X46526D01*
X47008Y26614D02*
Y27096D01*
X47303Y26614D02*
Y27096D01*
X47067Y26614D02*
Y27096D01*
X46526D02*
Y27726D01*
X46949Y26614D02*
Y27096D01*
X46427Y26988D02*
X48426D01*
X46348Y26870D02*
X48447D01*
X46394Y26929D02*
X48433D01*
X46526Y27096D02*
X47333D01*
X46452Y27047D02*
X48426D01*
X47333Y27106D02*
X48433D01*
X47716Y26614D02*
Y27602D01*
X47835Y26614D02*
Y27602D01*
X47776Y26614D02*
Y27602D01*
X47598Y26614D02*
Y27602D01*
X47333Y27165D02*
X48447D01*
X47333Y27224D02*
X48469D01*
X47480Y26614D02*
Y27615D01*
X47657Y26614D02*
Y27602D01*
X47539Y26614D02*
Y27603D01*
X47333Y27096D02*
Y27726D01*
X47421Y26614D02*
Y27647D01*
X47362Y26614D02*
Y27714D01*
X48071Y26614D02*
Y27609D01*
X48130Y26614D02*
Y27634D01*
X48189Y26614D02*
Y27686D01*
X47894Y26614D02*
Y27602D01*
X48012Y26614D02*
Y27602D01*
X47953Y26614D02*
Y27602D01*
X46339Y27549D02*
Y27687D01*
X46365Y27520D02*
X46526D01*
X46358Y27527D02*
Y27687D01*
X46339D02*
X46378D01*
X46339Y27638D02*
X46526D01*
X46378Y27933D02*
X46447D01*
X46378Y27756D02*
X46447D01*
X46471Y27283D02*
X46526D01*
X46437Y27402D02*
X46526D01*
X46378Y27992D02*
X46447D01*
X46378Y27815D02*
X46447D01*
X46378Y27874D02*
X46447D01*
X46378Y28169D02*
X46447D01*
X46378Y28051D02*
X46447D01*
X46378Y28110D02*
X46447D01*
X46378Y28346D02*
X46447D01*
X46378Y28228D02*
X46447D01*
X46378Y28287D02*
X46447D01*
X46378Y27687D02*
Y28465D01*
X46447Y27726D02*
Y28465D01*
X46417Y27441D02*
Y28465D01*
X46378D02*
X46447D01*
X46378Y28405D02*
X46447D01*
X46378Y28465D02*
X46447D01*
X46458Y27342D02*
X46526D01*
X46339Y27579D02*
X46526D01*
X47333Y27402D02*
X48598D01*
X46406Y27461D02*
X46526D01*
X47333Y27283D02*
X48500D01*
X47333Y27342D02*
X48541D01*
X47333Y27461D02*
X48622D01*
X47555Y27602D02*
X48015D01*
X47333Y27520D02*
X48622D01*
X47333Y27579D02*
X48626D01*
X47333Y27638D02*
X47434D01*
X46378Y27697D02*
X46526D01*
X47333D02*
X47373D01*
X46447Y27726D02*
X46526D01*
X48189Y28633D02*
Y28701D01*
X48136Y27638D02*
X48641D01*
X48098Y28701D02*
X48583D01*
X48182Y28642D02*
X48688D01*
X48098Y28701D02*
X48772D01*
X48484Y26614D02*
Y26779D01*
X48543Y26614D02*
Y26691D01*
X49264Y27411D02*
X49307Y27454D01*
X49311Y26614D02*
Y26668D01*
X49370Y26614D02*
Y26745D01*
X49429Y26614D02*
Y26877D01*
X49311Y27367D02*
Y27458D01*
X49370Y27291D02*
Y27543D01*
X49429Y27159D02*
Y27634D01*
X48248Y26614D02*
Y28701D01*
X48366Y26614D02*
Y28701D01*
X48307Y26614D02*
Y28701D01*
X48425Y26614D02*
Y28701D01*
X48543Y27345D02*
Y28701D01*
X48484Y27256D02*
Y28701D01*
X49665Y26614D02*
Y27844D01*
X49724Y26614D02*
Y27844D01*
X49783Y26614D02*
Y27848D01*
X49488Y26614D02*
Y27685D01*
X49606Y26614D02*
Y27844D01*
X49547Y26614D02*
Y27844D01*
X49427Y26870D02*
X50415D01*
X49374Y26752D02*
X50468D01*
X49405Y26811D02*
X50437D01*
X49427Y27165D02*
X50415D01*
X49405Y27224D02*
X50437D01*
X49374Y27283D02*
X50468D01*
X49441Y26929D02*
X50401D01*
X50492Y26614D02*
Y26716D01*
X50433Y26614D02*
Y26821D01*
X49448Y27047D02*
X50395D01*
X49448Y26988D02*
X50395D01*
X49441Y27106D02*
X50401D01*
X50020Y26614D02*
Y27999D01*
X50079Y26614D02*
Y28058D01*
X50138Y26614D02*
Y28117D01*
X49842Y26614D02*
Y27864D01*
X49901Y26614D02*
Y27893D01*
X49961Y26614D02*
Y27940D01*
X50197Y26614D02*
Y28177D01*
X50256Y26614D02*
Y28236D01*
X50315Y26614D02*
Y28295D01*
X50374Y26614D02*
Y28354D01*
X50433Y27214D02*
Y28413D01*
X50492Y27319D02*
Y28472D01*
X48238Y27815D02*
X48632D01*
X48197Y27697D02*
X48670D01*
X48227Y27756D02*
X48643D01*
X48238Y28051D02*
X48632D01*
X48238Y27933D02*
X48632D01*
X48238Y27992D02*
X48632D01*
X48622Y27421D02*
Y27530D01*
X48238Y27874D02*
X48632D01*
X48661Y27682D02*
Y27715D01*
X48238Y28287D02*
X48632D01*
X48238Y28110D02*
X48632D01*
X48238Y28228D02*
X48632D01*
X48238Y28346D02*
X48632D01*
X48236Y28524D02*
X48634D01*
X48219Y28583D02*
X48651D01*
X48238Y27825D02*
Y28494D01*
Y28169D02*
X48632D01*
Y27825D02*
Y28494D01*
X48238Y28405D02*
X48632D01*
X48238Y28465D02*
X48632D01*
X49536Y28524D02*
X49653D01*
X49519Y28583D02*
X49712D01*
X49482Y28642D02*
X49771D01*
X49538Y27844D02*
X49734D01*
X49538Y28474D02*
X49604D01*
X50367Y28346D02*
X50492D01*
X50426Y28405D02*
X50492D01*
X48583Y28760D02*
X49889D01*
X48583Y28819D02*
X49948D01*
X48583Y28878D02*
X50007D01*
X48583Y29055D02*
X50059D01*
X48583Y28937D02*
X50066D01*
X48583Y28996D02*
X50059D01*
X49488Y28634D02*
Y29055D01*
X49604Y28474D02*
X50106Y28976D01*
X48855Y28717D02*
X49315D01*
X49398Y28701D02*
X49830D01*
X50059Y28976D02*
X50106D01*
X47603Y29823D02*
X47798D01*
X47136Y29862D02*
X47451D01*
X47136Y29882D02*
X47777D01*
X47136Y29941D02*
X47767D01*
X47835Y29587D02*
Y29761D01*
X47674Y29770D02*
X47752Y29692D01*
X47680Y29764D02*
X47832D01*
X47776Y29665D02*
Y29888D01*
X47244Y29862D02*
Y30229D01*
X47362Y29862D02*
Y30197D01*
X47303Y29862D02*
Y30207D01*
X47136Y29862D02*
Y30020D01*
Y30000D02*
X47767D01*
X47185Y29862D02*
Y30266D01*
X47598Y29826D02*
Y30186D01*
X47716Y29727D02*
Y30167D01*
X47657Y29785D02*
Y30171D01*
X47421Y29862D02*
Y30197D01*
X47539Y29850D02*
Y30197D01*
X47480Y29861D02*
Y30197D01*
X47953Y29508D02*
Y29587D01*
Y29508D02*
X48583D01*
X48012D02*
Y29633D01*
X47821Y29587D02*
X47953D01*
Y29527D02*
X49429D01*
X47953Y29587D02*
X49429D01*
X48071Y29508D02*
Y29620D01*
X48130Y29508D02*
Y29616D01*
X48189Y29508D02*
Y29623D01*
X47894Y29587D02*
Y29698D01*
X48248Y29508D02*
Y29640D01*
X47953Y29587D02*
Y29658D01*
X47739Y29705D02*
X47886D01*
X47790Y29646D02*
X47979D01*
X48307Y29508D02*
Y29656D01*
X48484Y29508D02*
Y29656D01*
X48366Y29508D02*
Y29656D01*
X48425Y29508D02*
Y29656D01*
X48262Y29646D02*
X49429D01*
X48282Y29656D02*
X48563D01*
X46329Y30020D02*
X46388D01*
X46329D02*
X46388D01*
X46345Y30413D02*
X46398D01*
X46350Y30590D02*
X46398D01*
X46331Y30650D02*
X46398D01*
X46346Y31417D02*
X46621D01*
X46358Y30020D02*
Y30482D01*
X46357Y30472D02*
X46398D01*
Y30020D02*
Y31063D01*
X46359Y30531D02*
X46398D01*
X46358Y30541D02*
Y31482D01*
X46358Y31476D02*
X46680D01*
X46417Y31172D02*
Y35112D01*
X46358Y31541D02*
Y32482D01*
X46359Y31535D02*
X46740D01*
X46349Y31594D02*
X46799D01*
X46476Y31271D02*
Y35112D01*
X46594Y31390D02*
Y35112D01*
X46535Y31331D02*
Y35112D01*
X46653Y31449D02*
Y35112D01*
X46772Y31567D02*
Y35112D01*
X46713Y31508D02*
Y35112D01*
X47028Y30020D02*
X47136D01*
X47028Y30059D02*
X47777D01*
X47028Y30118D02*
X47798D01*
X47028Y30295D02*
X47153D01*
X47028Y30177D02*
X47629D01*
X47028Y30236D02*
X47230D01*
X47710Y30167D02*
X47825D01*
X47776Y30053D02*
Y30167D01*
X47382Y30197D02*
X47571D01*
X47028Y30020D02*
Y30378D01*
X47107Y30342D02*
X47159Y30289D01*
X47067Y30020D02*
Y30357D01*
X46490Y31286D02*
X46938Y31734D01*
X47028Y30354D02*
X47073D01*
X47126Y30020D02*
Y30322D01*
X48543Y31331D02*
Y31407D01*
X48523Y31358D02*
X48618D01*
X48583Y28701D02*
Y29508D01*
Y29291D02*
X49429D01*
X48583Y29350D02*
X49429D01*
X48543Y29508D02*
Y29656D01*
X48602Y27405D02*
Y29658D01*
X48661Y28604D02*
Y29671D01*
X48720Y28671D02*
Y29698D01*
X48779Y28703D02*
Y29742D01*
X48838Y28716D02*
Y29801D01*
X48861Y29823D02*
X49429D01*
X49016Y28717D02*
Y29862D01*
X49134Y28717D02*
Y29862D01*
X49075Y28717D02*
Y29862D01*
X48898Y28717D02*
Y29860D01*
X48957Y28717D02*
Y29919D01*
X48786Y29748D02*
X48986Y29948D01*
X49252Y28717D02*
Y29862D01*
X49429Y28685D02*
Y29862D01*
X49370Y28710D02*
Y29862D01*
X49193Y28717D02*
Y29862D01*
X49429Y29055D02*
Y29862D01*
X49311Y28717D02*
Y29862D01*
X49547Y28474D02*
Y29055D01*
X49665Y28536D02*
Y29055D01*
X49606Y28477D02*
Y29055D01*
X48583Y29114D02*
X49429D01*
Y29055D02*
X50059D01*
X49724Y28595D02*
Y29055D01*
X49783Y28654D02*
Y29055D01*
X49901Y28772D02*
Y29055D01*
X49842Y28713D02*
Y29055D01*
X49961Y28831D02*
Y29055D01*
X50059Y28976D02*
Y29055D01*
X50020Y28890D02*
Y29055D01*
X48583Y29409D02*
X49429D01*
X48583Y29173D02*
X49429D01*
X48583Y29232D02*
X49429D01*
X48802Y29764D02*
X49429D01*
X48583Y29468D02*
X49429D01*
X48732Y29705D02*
X49429D01*
Y29862D02*
X50059D01*
X49961D02*
Y29993D01*
X50059Y29862D02*
Y29941D01*
X50020Y29862D02*
Y30037D01*
X48602Y31354D02*
Y31614D01*
X48784Y31358D02*
X48986D01*
X48898Y31308D02*
Y31614D01*
X48661Y31366D02*
Y31614D01*
X48546Y31417D02*
X48986D01*
X48720Y31368D02*
Y31614D01*
X48986Y31224D02*
Y31417D01*
X48920Y29882D02*
X48986D01*
Y29862D02*
Y29948D01*
X48957Y31259D02*
Y31614D01*
X48911Y31299D02*
X48986D01*
X49488Y31417D02*
Y31614D01*
X48779Y31359D02*
Y31614D01*
X49016Y31417D02*
Y31614D01*
X48838Y31340D02*
Y31614D01*
X48543Y31616D02*
Y31697D01*
X49075Y31417D02*
Y31614D01*
X48573D02*
Y31697D01*
X49311Y31417D02*
Y31614D01*
X49429Y31417D02*
Y31614D01*
X49370Y31417D02*
Y31614D01*
X49134Y31417D02*
Y31614D01*
X49252Y31417D02*
Y31614D01*
X49193Y31417D02*
Y31614D01*
X49931Y29862D02*
Y29978D01*
X48986Y29862D02*
X49931D01*
Y29882D02*
X50059D01*
X49931Y29941D02*
X50059D01*
X50079Y29941D02*
Y30096D01*
X50059Y29941D02*
X50167D01*
X50138D02*
Y30155D01*
X50101Y30118D02*
X50139D01*
X49972Y30000D02*
X50149D01*
X50042Y30059D02*
X50139D01*
X48559Y31535D02*
X49548D01*
X48986Y31417D02*
X49613D01*
X48558Y31476D02*
X49572D01*
X48573Y31614D02*
X49518D01*
X48549Y31594D02*
X49538D01*
X49518Y31614D02*
Y32362D01*
X49547Y31417D02*
Y31539D01*
X50026Y30043D02*
X50146Y30163D01*
X49537Y31614D02*
Y31900D01*
X50551Y26614D02*
Y26648D01*
X49252Y26614D02*
X50591D01*
X51260D02*
Y26648D01*
X49333Y26693D02*
X50510D01*
X49275Y26634D02*
X50567D01*
X51319Y26614D02*
Y26716D01*
X51378Y26614D02*
Y26821D01*
X51732Y26614D02*
Y27217D01*
X51343Y27283D02*
X51686D01*
X51396Y27165D02*
X51788D01*
X51374Y27224D02*
X51725D01*
X51319Y27320D02*
Y27608D01*
X49333Y27342D02*
X50510D01*
X51301D02*
X51661D01*
X50551Y27387D02*
Y27608D01*
X51555Y26614D02*
Y27608D01*
X51673Y26614D02*
Y27309D01*
X51614Y26614D02*
Y27608D01*
X51378Y27215D02*
Y27608D01*
X51496Y26614D02*
Y27608D01*
X51437Y26614D02*
Y27608D01*
X51301Y26693D02*
X52588D01*
X51220Y26614D02*
X52717D01*
X51244Y26634D02*
X52674D01*
X51396Y26870D02*
X52467D01*
X51343Y26752D02*
X52532D01*
X51374Y26811D02*
X52493D01*
X51968Y26614D02*
Y27098D01*
X51410Y26929D02*
X52450D01*
X52027Y26614D02*
Y27098D01*
X51410Y27106D02*
X51915D01*
X51416Y26988D02*
X52442D01*
X51416Y27047D02*
X52442D01*
X51791Y26614D02*
Y27163D01*
X51909Y26614D02*
Y27108D01*
X51850Y26614D02*
Y27129D01*
X52087Y26614D02*
Y27108D01*
X52081Y27106D02*
X52450D01*
X52146Y26614D02*
Y27129D01*
X52205Y26614D02*
Y27163D01*
X52264Y26614D02*
Y27216D01*
X52208Y27165D02*
X52467D01*
X52271Y27224D02*
X52493D01*
X52310Y27283D02*
X52532D01*
X49358Y27520D02*
X50551D01*
X49276Y27402D02*
X50551D01*
X49313Y27461D02*
X50551D01*
X49497Y27697D02*
X50492D01*
X49384Y27579D02*
X50551D01*
X49436Y27638D02*
X50492D01*
X49527Y27756D02*
X50492D01*
X50551Y27387D02*
Y27608D01*
X50492D02*
X50551D01*
X49953Y27933D02*
X50492D01*
X49538Y27815D02*
X50492D01*
X49867Y27874D02*
X50492D01*
X50071Y28051D02*
X50492D01*
X50012Y27992D02*
X50492D01*
X49957Y27937D02*
X50492Y28472D01*
X50249Y28228D02*
X50492D01*
X50130Y28110D02*
X50492D01*
X50189Y28169D02*
X50492D01*
Y27608D02*
Y28472D01*
X50308Y28287D02*
X50492D01*
Y28472D02*
X50573Y28553D01*
X50610D02*
Y28590D01*
X50669Y28553D02*
Y28649D01*
X50573Y28553D02*
X50705Y28684D01*
X51260Y27402D02*
X51647D01*
X51260Y27520D02*
X51650D01*
X51260Y27579D02*
X51668D01*
X50573Y28553D02*
X51240D01*
X51299D01*
X51240D02*
X51299D01*
X51260Y27387D02*
Y27608D01*
Y27461D02*
X51644D01*
X51260Y27608D02*
X51299D01*
X51260D02*
X51299D01*
X52315D02*
X52746D01*
X51299D02*
X51678D01*
X50728Y28553D02*
Y28711D01*
X50603Y28583D02*
X53222D01*
X50662Y28642D02*
X53172D01*
X50785Y28819D02*
X53115D01*
X50720Y28701D02*
X53140D01*
X50760Y28760D02*
X53122D01*
X50787Y28553D02*
Y28829D01*
X51939Y28553D02*
X52047D01*
X51299D02*
X51939D01*
X52047D01*
X52746D01*
X50796Y28878D02*
X53119D01*
X52323Y26614D02*
Y27309D01*
X52559Y26614D02*
Y26721D01*
X52500Y26614D02*
Y26800D01*
X52335Y27342D02*
X52588D01*
X52618Y26614D02*
Y26668D01*
X53149Y26614D02*
Y26684D01*
X53209Y26614D02*
Y26743D01*
X53268Y26614D02*
Y26837D01*
X52382Y26614D02*
Y27608D01*
X52441Y26614D02*
Y27608D01*
X52500Y27236D02*
Y27608D01*
X52559Y27315D02*
Y27608D01*
X53209Y27293D02*
Y27687D01*
X53445Y26614D02*
Y28344D01*
X53563Y26614D02*
Y28176D01*
X53504Y26614D02*
Y28285D01*
X53268Y27198D02*
Y27687D01*
X53386Y26614D02*
Y27687D01*
X53327Y26614D02*
Y27687D01*
X53160Y26693D02*
X54094D01*
X53031Y26614D02*
X54094D01*
X53074Y26634D02*
X54094D01*
X53255Y27224D02*
X54094D01*
X53216Y26752D02*
X54094D01*
X53255Y26811D02*
X54094D01*
X53306Y26988D02*
X54094D01*
X53281Y26870D02*
X54094D01*
X53298Y26929D02*
X54094D01*
X53281Y27165D02*
X54094D01*
X53306Y27047D02*
X54094D01*
X53298Y27106D02*
X54094D01*
X53681Y26614D02*
Y28074D01*
X53799Y26614D02*
Y28035D01*
X53740Y26614D02*
Y28048D01*
X53622Y26614D02*
Y28113D01*
X53216Y27283D02*
X54094D01*
X53161Y27342D02*
X54094D01*
X54035Y26614D02*
Y28085D01*
X54094Y26614D02*
Y28131D01*
X54094Y26614D02*
Y28131D01*
X53858Y26614D02*
Y28032D01*
X53917Y26614D02*
Y28038D01*
X53976Y26614D02*
Y28055D01*
X52618Y27367D02*
Y27608D01*
X52349Y27402D02*
X52673D01*
X52677Y27403D02*
Y27608D01*
X52736Y27428D02*
Y27608D01*
X52795Y27444D02*
Y27687D01*
X53031Y27421D02*
Y27687D01*
X53149Y27352D02*
Y27687D01*
X53090Y27393D02*
Y27687D01*
X52854Y27450D02*
Y27687D01*
X52972Y27439D02*
Y27687D01*
X52913Y27449D02*
Y27687D01*
X52746Y27608D02*
Y28553D01*
X52766Y27687D02*
Y28474D01*
X52795D02*
Y28892D01*
X52746Y28524D02*
X53309D01*
X52542Y28892D02*
X52852D01*
X53149Y28474D02*
Y28680D01*
X53209Y28474D02*
Y28596D01*
X53268Y28474D02*
Y28547D01*
X52346Y27520D02*
X54094D01*
X53075Y27402D02*
X54094D01*
X52352Y27461D02*
X54094D01*
X52766Y27687D02*
X53415D01*
X52328Y27579D02*
X54094D01*
X52746Y27638D02*
X54094D01*
X53415Y27815D02*
X54094D01*
X53415Y27697D02*
X54094D01*
X53415Y27756D02*
X54094D01*
X53415Y27992D02*
X54094D01*
X53415Y27874D02*
X54094D01*
X53415Y27933D02*
X54094D01*
X53415Y28110D02*
X53626D01*
X53415Y28169D02*
X53568D01*
X53415Y28228D02*
X53531D01*
X52766Y28474D02*
X53332D01*
X53415Y27687D02*
Y28373D01*
Y28051D02*
X53732D01*
X53415Y28287D02*
X53501D01*
X53965Y28051D02*
X54094D01*
X53415Y28373D02*
X53511Y28278D01*
X50846Y28553D02*
Y28976D01*
X50905Y28553D02*
Y28976D01*
X50964Y28553D02*
Y28986D01*
X50797Y28907D02*
Y28976D01*
X51201Y28553D02*
Y28986D01*
X51319Y28553D02*
Y28986D01*
X51260Y28553D02*
Y28986D01*
X51024Y28553D02*
Y28986D01*
X51142Y28553D02*
Y28986D01*
X51083Y28553D02*
Y28986D01*
X51555Y28553D02*
Y28986D01*
X51673Y28553D02*
Y28986D01*
X51614Y28553D02*
Y28986D01*
X51378Y28553D02*
Y28986D01*
X51496Y28553D02*
Y28986D01*
X51437Y28553D02*
Y28986D01*
X51909Y28553D02*
Y28986D01*
X52027Y28553D02*
Y28986D01*
X51968Y28553D02*
Y28986D01*
X51732Y28553D02*
Y28986D01*
X51850Y28553D02*
Y28986D01*
X51791Y28553D02*
Y28986D01*
X52500Y28553D02*
Y28894D01*
X52618Y28553D02*
Y28892D01*
X52559Y28553D02*
Y28892D01*
X50797Y28937D02*
X52373D01*
X52441Y28553D02*
Y28907D01*
X52382Y28553D02*
Y28932D01*
X52854Y28474D02*
Y28892D01*
X52913Y28474D02*
Y28897D01*
X52972Y28474D02*
Y28914D01*
X52677Y28553D02*
Y28892D01*
X52736Y28553D02*
Y28892D01*
X53021Y28937D02*
X53133D01*
X52087Y28553D02*
Y28986D01*
X52205Y28553D02*
Y28986D01*
X52146Y28553D02*
Y28986D01*
X52264Y28553D02*
Y28986D01*
X53031Y28474D02*
Y28943D01*
X53090Y28474D02*
Y28990D01*
X52323Y28553D02*
Y28960D01*
X50797Y28976D02*
X50906D01*
Y28986D02*
X51526D01*
X50797D02*
X50906D01*
X51526D02*
X51585D01*
X52276D01*
X51526D02*
X51585D01*
X52423Y29667D02*
X52525Y29566D01*
X52618Y29566D02*
Y30167D01*
X52224Y29931D02*
X52333D01*
Y29729D02*
Y29931D01*
X52224D02*
Y30203D01*
X52382Y29702D02*
Y30171D01*
X52264Y29931D02*
Y30213D01*
X52323Y29931D02*
Y30186D01*
X52224Y30177D02*
X52353D01*
X52677Y29566D02*
Y30167D01*
X52795Y29566D02*
Y30167D01*
X52736Y29566D02*
Y30167D01*
X52441Y29650D02*
Y30167D01*
X52559Y29566D02*
Y30167D01*
X52500Y29591D02*
Y30167D01*
X52445Y29646D02*
X53194D01*
X52504Y29587D02*
X53197D01*
X52378Y29705D02*
X53205D01*
X52333Y29764D02*
X53232D01*
X52333Y29823D02*
X53282D01*
X52333Y29882D02*
X53400D01*
X53096Y28996D02*
X53159D01*
X53137Y29409D02*
X53316D01*
X52542Y29566D02*
X52852D01*
X53089Y29468D02*
X53250D01*
X53008Y29527D02*
X53214D01*
X52854Y29566D02*
Y30167D01*
X52224Y29941D02*
X54094D01*
X52224Y30000D02*
X54094D01*
X52435Y30167D02*
X52939D01*
X52224Y30059D02*
X54094D01*
X52224Y30118D02*
X54094D01*
X52972Y29544D02*
Y30169D01*
X53031Y29514D02*
Y30180D01*
X53090Y29467D02*
Y30202D01*
X52913Y29560D02*
Y30167D01*
X53021Y30177D02*
X54094D01*
X53149Y28977D02*
Y29070D01*
X53141Y29055D02*
X53202D01*
X53169Y29114D02*
X53273D01*
X53445Y29166D02*
Y29370D01*
X53452Y29166D02*
X53762D01*
X53452Y29370D02*
X53762D01*
X53681Y29166D02*
Y29370D01*
X53740Y29166D02*
Y29370D01*
X53799Y29164D02*
Y29373D01*
X53504Y29166D02*
Y29370D01*
X53622Y29166D02*
Y29370D01*
X53563Y29166D02*
Y29370D01*
X53209Y29062D02*
Y29543D01*
X53268Y29111D02*
Y29448D01*
X53149Y29388D02*
Y30239D01*
X53209Y29715D02*
Y30297D01*
X53327Y29142D02*
Y29403D01*
X53386Y29159D02*
Y29379D01*
X53858Y29152D02*
Y29389D01*
X53268Y29810D02*
Y30407D01*
X53189Y29232D02*
X54094D01*
X53185Y29173D02*
X54094D01*
X53899Y29409D02*
X54094D01*
X53183Y29291D02*
X54094D01*
X53167Y29350D02*
X54094D01*
X53976Y29089D02*
Y29484D01*
X54055Y28996D02*
X54094D01*
X54012Y29055D02*
X54094D01*
X53917Y29128D02*
Y29422D01*
X53942Y29114D02*
X54094D01*
X53965Y29468D02*
X54094D01*
X54000Y29527D02*
X54094D01*
X53976Y29773D02*
Y31967D01*
X53983Y29764D02*
X54094D01*
X54035Y29026D02*
Y32065D01*
X54094Y28886D02*
Y32156D01*
X54094Y28886D02*
Y32156D01*
X54009Y29705D02*
X54094D01*
X54017Y29587D02*
X54094D01*
X54020Y29646D02*
X54094D01*
X53268Y30616D02*
Y30907D01*
X53269Y30413D02*
X54094D01*
X53209Y30727D02*
Y30797D01*
X53239Y31181D02*
X53309D01*
X53327Y29855D02*
Y31175D01*
X53933Y29823D02*
X54094D01*
X53386Y29878D02*
Y31164D01*
X53445Y29887D02*
Y31162D01*
X53452Y29887D02*
X53762D01*
X53504D02*
Y31170D01*
X53563Y29887D02*
Y31189D01*
X53622Y29887D02*
Y31221D01*
X53227Y31201D02*
X53263D01*
X53268Y31116D02*
Y31198D01*
X53799Y29885D02*
Y31789D01*
X53858Y29869D02*
Y31848D01*
X53917Y29836D02*
Y31907D01*
X53681Y29887D02*
Y31271D01*
X53740Y29887D02*
Y31353D01*
X53246Y30354D02*
X54094D01*
X53146Y30236D02*
X54094D01*
X53207Y30295D02*
X54094D01*
X53230Y30827D02*
X54094D01*
X53222Y30709D02*
X54094D01*
X53182Y30768D02*
X54094D01*
X53283Y30531D02*
X54094D01*
X53815Y29882D02*
X54094D01*
X53282Y30472D02*
X54094D01*
X53260Y30886D02*
X54094D01*
X53275Y30590D02*
X54094D01*
X53255Y30650D02*
X54094D01*
X53280Y31063D02*
X54094D01*
X53277Y30945D02*
X54094D01*
X53284Y31004D02*
X54094D01*
X53648Y31240D02*
X54094D01*
X53266Y31122D02*
X54094D01*
X53541Y31181D02*
X54094D01*
X53766Y31417D02*
X54094D01*
X53706Y31299D02*
X54094D01*
X53743Y31358D02*
X54094D01*
X53771Y31594D02*
X54094D01*
X53777Y31476D02*
X54094D01*
X53779Y31535D02*
X54094D01*
X46329Y31653D02*
X46858D01*
X46358Y32539D02*
X47446D01*
X46347Y32421D02*
X47460D01*
X46358Y32480D02*
X47446D01*
X47161Y31827D02*
X47420D01*
X47480Y32268D02*
Y32379D01*
X46358Y32541D02*
Y33482D01*
X47362Y31827D02*
Y34717D01*
X47303Y31827D02*
Y34729D01*
X46348Y32598D02*
X47459D01*
X46327Y32657D02*
X47488D01*
X47421Y32199D02*
Y32824D01*
X48484Y32327D02*
Y32797D01*
X47480Y32645D02*
Y32755D01*
X48425Y32674D02*
Y32739D01*
X48465Y32421D02*
X48573D01*
X48406Y32327D02*
X48573D01*
X48435Y32362D02*
X48573D01*
X48437Y32657D02*
X48573D01*
X48479Y32480D02*
X48573D01*
X48466Y32598D02*
X48573D01*
Y32327D02*
Y32362D01*
X48529Y31653D02*
X48573D01*
X48506Y31697D02*
X48573D01*
X48479Y32539D02*
X48573D01*
Y32362D02*
Y32421D01*
Y32362D02*
Y32421D01*
X48392Y32716D02*
X48573D01*
X48466Y32776D02*
X48573D01*
X48510Y32835D02*
X48573D01*
X48539Y32894D02*
X48573D01*
X48543Y32327D02*
Y32907D01*
X48573Y32421D02*
Y33169D01*
X48543Y33116D02*
Y33642D01*
X48539Y33130D02*
X48573D01*
X48602Y33169D02*
Y33642D01*
X46358Y33484D02*
X47446D01*
X46327Y33366D02*
X47488D01*
X46348Y33425D02*
X47459D01*
X46358Y33543D02*
X47446D01*
X46347Y33602D02*
X47460D01*
X46325Y33661D02*
X47491D01*
X47480Y33268D02*
Y33379D01*
X47776Y33778D02*
Y34125D01*
X47835Y33778D02*
Y34066D01*
X47953Y33778D02*
Y33948D01*
X47894Y33778D02*
Y34007D01*
X47421Y33199D02*
Y34715D01*
X47539Y33715D02*
Y34596D01*
X47480Y33645D02*
Y34715D01*
X47520Y34596D02*
Y34715D01*
Y34596D02*
X47569D01*
X47402Y34715D02*
X47520D01*
X47598Y33753D02*
Y34337D01*
X47716Y33778D02*
Y34184D01*
X47657Y33772D02*
Y34244D01*
X47569Y34478D02*
Y34596D01*
X48425Y33285D02*
Y33349D01*
X48393Y33307D02*
X48694D01*
X48437Y33366D02*
X48708D01*
X48466Y33248D02*
X48691D01*
X48573Y33169D02*
X48702D01*
X48510Y33189D02*
X48698D01*
X48466Y33425D02*
X48733D01*
X48479Y33484D02*
X48773D01*
X48479Y33543D02*
X48835D01*
X48447Y33642D02*
X49065D01*
X47710Y33778D02*
X48123D01*
X48012D02*
Y33889D01*
X48071Y33778D02*
Y33830D01*
X47673Y34228D02*
X48123Y33778D01*
X48484Y33227D02*
Y33642D01*
X48720Y33399D02*
Y33642D01*
X48661Y33169D02*
Y33642D01*
X48465Y33602D02*
X48962D01*
X48779Y33492D02*
Y33642D01*
X49518Y32008D02*
X49558D01*
X49518Y32067D02*
X49589D01*
X49518Y32126D02*
X49641D01*
X49518Y32185D02*
X49700D01*
X49518Y32244D02*
X49763D01*
X49518Y32480D02*
X49892D01*
X49624Y32108D02*
X49736Y32221D01*
X49518Y32362D02*
Y32421D01*
Y32362D02*
Y32421D01*
Y32539D02*
X49891D01*
X49518Y33012D02*
X49890D01*
X49518Y32421D02*
Y33169D01*
X49429D02*
Y33859D01*
X49388Y33169D02*
X49518D01*
X49488D02*
Y33918D01*
X49547Y31975D02*
Y33977D01*
X49606Y32089D02*
Y34036D01*
X49665Y32150D02*
Y34095D01*
X49724Y32209D02*
Y34154D01*
X49783Y32259D02*
Y34219D01*
X49842Y32289D02*
Y34346D01*
X49518Y32303D02*
X49896D01*
X49518Y32362D02*
X49924D01*
X49518Y32421D02*
X49902D01*
X49518Y32598D02*
X49901D01*
X49518Y32657D02*
X49922D01*
X49518Y32776D02*
X49984D01*
X49901Y32304D02*
Y32424D01*
X49518Y32716D02*
X49958D01*
X49961Y32720D02*
Y32803D01*
X49518Y32953D02*
X49895D01*
X49518Y32835D02*
X49939D01*
X49518Y32894D02*
X49911D01*
X49518Y33071D02*
X49895D01*
X49393Y33189D02*
X49939D01*
X49399Y33248D02*
X49984D01*
X49901Y32599D02*
Y32924D01*
Y33099D02*
Y33424D01*
X49518Y33130D02*
X49911D01*
X49961Y33220D02*
Y33303D01*
X48838Y33546D02*
Y33642D01*
X48957Y33601D02*
Y33642D01*
X48898Y33580D02*
Y33642D01*
X49016Y33611D02*
Y33642D01*
X49252Y33546D02*
Y33695D01*
X49311Y33492D02*
Y33741D01*
X49370Y33400D02*
Y33800D01*
X49075Y33611D02*
Y33642D01*
X49134Y33601D02*
Y33648D01*
X49193Y33580D02*
Y33666D01*
X49015Y34488D02*
X49056D01*
X49007Y34439D02*
X49144Y34576D01*
X49015Y34547D02*
X49115D01*
X49007Y34596D02*
X49075D01*
X49016Y34448D02*
Y34509D01*
X49075Y34507D02*
Y34596D01*
X49016Y34526D02*
Y34596D01*
X49075Y34724D02*
X49144D01*
X49075Y34606D02*
X49144D01*
X49075Y34665D02*
X49144D01*
X49318Y33484D02*
X49891D01*
X49255Y33543D02*
X49892D01*
X49128Y33602D02*
X49902D01*
X49316Y33746D02*
X49748Y34178D01*
X49181Y33661D02*
X49924D01*
X49288Y33720D02*
X49960D01*
X49358Y33425D02*
X49901D01*
X49396Y33307D02*
X49958D01*
X49383Y33366D02*
X49922D01*
X49349Y33779D02*
X50018D01*
X49409Y33839D02*
X50125D01*
X50079Y33819D02*
Y34390D01*
X49961Y33720D02*
Y34407D01*
X49901Y33599D02*
Y34432D01*
X49852Y34429D02*
X49907D01*
X49852Y34429D02*
Y34464D01*
X50020Y33781D02*
Y34393D01*
X50138Y33842D02*
Y34397D01*
X50197Y33854D02*
Y34414D01*
X50256Y33856D02*
Y34443D01*
X50315Y33856D02*
Y34489D01*
X50374Y33856D02*
Y34564D01*
X46831Y31626D02*
Y35112D01*
X46949Y31744D02*
Y35021D01*
X46890Y31685D02*
Y35080D01*
X46358Y33541D02*
Y35112D01*
X47008Y31787D02*
Y34962D01*
X46858Y35112D02*
X47152Y34819D01*
X47067Y31812D02*
Y34903D01*
X47185Y31827D02*
Y34789D01*
X47126Y31825D02*
Y34844D01*
X47244Y31827D02*
Y34752D01*
X47359Y35613D02*
Y36306D01*
X46890D02*
Y37006D01*
X46949Y36306D02*
Y37025D01*
X47008Y36306D02*
Y37052D01*
X46476Y36306D02*
Y37077D01*
X46772Y36306D02*
Y36991D01*
X46831Y36306D02*
Y36995D01*
X47244Y36306D02*
Y37317D01*
X47362Y35610D02*
Y37953D01*
X47303Y36306D02*
Y37953D01*
X47067Y36306D02*
Y37089D01*
X47126Y36306D02*
Y37139D01*
X47185Y36306D02*
Y37209D01*
X47421Y35551D02*
X48356D01*
X47359Y35613D02*
X47520Y35453D01*
X47359Y35728D02*
X47510D01*
X47362Y35610D02*
X47510D01*
X47359Y35669D02*
X47510D01*
X47520Y35453D02*
Y35541D01*
X47480Y35492D02*
X47520D01*
Y35541D02*
X48268D01*
X48327D01*
X48268D02*
X48327D01*
X47510Y35551D02*
X48356D01*
X47359Y35905D02*
X47510D01*
X47359Y35787D02*
X47510D01*
X47359Y35846D02*
X47510D01*
X47359Y36083D02*
X47510D01*
X47359Y35965D02*
X47510D01*
X47359Y36024D02*
X47510D01*
X47421Y35551D02*
Y37953D01*
X47510Y35551D02*
Y36398D01*
X47480Y35492D02*
Y37953D01*
X47359Y36260D02*
X47510D01*
X47359Y36142D02*
X47510D01*
X47359Y36201D02*
X47510D01*
X46358Y36306D02*
Y37185D01*
X46535Y36306D02*
Y37043D01*
X46417Y36306D02*
Y37122D01*
X46594Y36306D02*
Y37019D01*
X46653Y36306D02*
Y37002D01*
X46713Y36306D02*
Y36993D01*
X47510Y36398D02*
X47589D01*
Y37028D01*
X47126Y37878D02*
Y37953D01*
X46955Y37027D02*
X47589D01*
X47244Y37700D02*
Y37953D01*
X47539Y36398D02*
Y37953D01*
X46358Y37833D02*
Y37953D01*
X47185Y37809D02*
Y37953D01*
X46417Y37895D02*
Y37953D01*
X47776Y37028D02*
Y37953D01*
X47894Y37028D02*
Y37953D01*
X47835Y37028D02*
Y37953D01*
X47598Y37028D02*
Y37953D01*
X47716Y37028D02*
Y37953D01*
X47657Y37028D02*
Y37953D01*
X48396Y36437D02*
X48445D01*
X48396Y36496D02*
X48445D01*
X48396Y36732D02*
X48445D01*
X47589Y37028D02*
X48396D01*
Y36850D02*
X48445D01*
X48396Y36673D02*
X48445D01*
X48396Y36791D02*
X48445D01*
X48396Y37027D02*
X48445D01*
X48396Y36909D02*
X48445D01*
X48396Y36968D02*
X48445D01*
X47953Y37028D02*
Y37953D01*
X48071Y37028D02*
Y37953D01*
X48012Y37028D02*
Y37953D01*
X47063Y37087D02*
X48445D01*
X47132Y37146D02*
X49075D01*
X48307Y37028D02*
Y37953D01*
X48396Y36398D02*
Y37028D01*
X48366D02*
Y37953D01*
X48130Y37028D02*
Y37953D01*
X48248Y37028D02*
Y37953D01*
X48189Y37028D02*
Y37953D01*
X48986Y35541D02*
Y35827D01*
Y35728D02*
X49094D01*
X48986Y35787D02*
X49094D01*
X48955Y35965D02*
X49094D01*
X48986Y35846D02*
X49094D01*
X48976Y35905D02*
X49094D01*
X48986Y35541D02*
X49075D01*
X49134Y34566D02*
Y35167D01*
X49075Y34596D02*
Y35541D01*
X48986Y35669D02*
X49094D01*
X48986Y35551D02*
X49094D01*
X48986Y35610D02*
X49094D01*
X48898Y36046D02*
Y36280D01*
X48838Y36105D02*
Y36280D01*
X48861Y36083D02*
X49094D01*
X48747Y36197D02*
X48894Y36050D01*
X49016Y35541D02*
Y36280D01*
X49094Y35167D02*
Y36112D01*
X49075Y35541D02*
Y36280D01*
X48957Y35960D02*
Y36280D01*
X48917Y36024D02*
X49094D01*
X49134Y36112D02*
Y36201D01*
X49075Y34902D02*
X49144D01*
X49075Y34783D02*
X49144D01*
X49075Y34842D02*
X49144D01*
X49075Y35079D02*
X49144D01*
X49075Y34961D02*
X49144D01*
X49075Y35020D02*
X49144D01*
X49094Y35167D02*
X49144D01*
X49075Y35138D02*
X49144D01*
Y34576D02*
Y35167D01*
X49094Y36112D02*
X49183D01*
X49843D02*
X49902D01*
X49843D02*
X49902D01*
X49901D02*
Y36201D01*
X50020Y36112D02*
Y37953D01*
X49961Y36112D02*
Y37953D01*
X49183Y36112D02*
Y36201D01*
X49842Y36112D02*
Y36201D01*
X49813Y36112D02*
Y36201D01*
X50256Y36112D02*
Y37953D01*
X50374Y36112D02*
Y37953D01*
X50315Y36112D02*
Y37953D01*
X50079Y36112D02*
Y37953D01*
X50197Y36112D02*
Y37953D01*
X50138Y36112D02*
Y37953D01*
X48445Y36398D02*
Y37087D01*
X48396Y36398D02*
X48445D01*
X48396Y36555D02*
X48445D01*
X48396Y36614D02*
X48445D01*
X48720Y36220D02*
Y36280D01*
X48779Y36164D02*
Y36280D01*
X48657Y36260D02*
X49075D01*
X48425Y36398D02*
Y37953D01*
X48543Y37087D02*
Y37953D01*
X48484Y37087D02*
Y37953D01*
X48602Y37087D02*
Y37953D01*
X48720Y37087D02*
Y37953D01*
X48661Y37087D02*
Y37953D01*
X48957Y37087D02*
Y37953D01*
X49075Y37087D02*
Y37953D01*
X49016Y37087D02*
Y37953D01*
X48779Y37087D02*
Y37953D01*
X48898Y37087D02*
Y37953D01*
X48838Y37087D02*
Y37953D01*
X49075Y36201D02*
Y36280D01*
X48802Y36142D02*
X49183D01*
X48743Y36201D02*
X49183D01*
X48445Y37087D02*
X49075D01*
Y36201D02*
X49183D01*
X48602Y36280D02*
X49075D01*
Y37087D02*
Y37165D01*
X49813Y36201D02*
X49921D01*
Y37165D01*
X49193D02*
Y37953D01*
X49075Y37165D02*
X49921D01*
X49252D02*
Y37953D01*
X49429Y37165D02*
Y37953D01*
X49547Y37165D02*
Y37953D01*
X49488Y37165D02*
Y37953D01*
X49134Y37165D02*
Y37953D01*
X49370Y37165D02*
Y37953D01*
X49311Y37165D02*
Y37953D01*
X49783Y37165D02*
Y37953D01*
X49901Y37165D02*
Y37953D01*
X49842Y37165D02*
Y37953D01*
X49606Y37165D02*
Y37953D01*
X49724Y37165D02*
Y37953D01*
X49665Y37165D02*
Y37953D01*
X50235Y33856D02*
X50739D01*
X49468Y33898D02*
X50810D01*
X51427Y34117D02*
X51630Y33914D01*
X51722Y33162D02*
X51774Y33110D01*
X51866D01*
X51755Y33130D02*
X51885D01*
X51722Y33162D02*
Y33691D01*
X50610Y33856D02*
Y34659D01*
X50728Y33856D02*
Y34659D01*
X50669Y33856D02*
Y34659D01*
X50433Y33856D02*
Y34663D01*
X50551Y33856D02*
Y34663D01*
X50492Y33856D02*
Y34678D01*
X51732Y33152D02*
Y34259D01*
X51791Y33110D02*
Y34259D01*
X51850Y33110D02*
Y34260D01*
X50787Y33853D02*
Y34659D01*
X51673Y33860D02*
Y34259D01*
X51614Y33930D02*
Y34259D01*
X51722Y33189D02*
X51945D01*
X51722Y33248D02*
X52008D01*
X51722Y33307D02*
X52179D01*
X51722Y33543D02*
X52171D01*
X51722Y33366D02*
X52212D01*
X51722Y33425D02*
X52183D01*
X51866Y33110D02*
X51976Y33221D01*
X51722Y33484D02*
X52170D01*
X51722Y33602D02*
X52185D01*
X51909Y33154D02*
Y34240D01*
X51722Y33661D02*
X52215D01*
X51721Y33720D02*
X52270D01*
X51645Y33898D02*
X52156D01*
X51710Y33779D02*
X53473D01*
X51686Y33839D02*
X52156D01*
X51968Y33213D02*
Y34181D01*
X52087Y33290D02*
Y34063D01*
X52027Y33262D02*
Y34122D01*
X52146Y33304D02*
Y34011D01*
X52156Y33799D02*
X52904D01*
X52156D02*
Y34005D01*
X49645Y34075D02*
X50797D01*
X49527Y33957D02*
X50799D01*
X49586Y34016D02*
X50797D01*
X49805Y34252D02*
X50797D01*
X49704Y34134D02*
X50797D01*
X49762Y34193D02*
X50797D01*
Y33986D02*
Y34449D01*
X51427Y34117D02*
Y34270D01*
X49832Y34311D02*
X50797D01*
X49847Y34370D02*
X50797D01*
X50231Y34429D02*
X50797D01*
X50314Y34488D02*
X50800D01*
X50363Y34547D02*
X50813D01*
X50395Y34606D02*
X50839D01*
X50406Y34636D02*
X50452Y34681D01*
X50436Y34665D02*
X50540D01*
X50452Y34681D02*
X50483D01*
X50846Y34618D02*
Y34659D01*
X50603D02*
X50878D01*
X51261Y35692D02*
X51350D01*
X51496Y34048D02*
Y34260D01*
X51469Y34075D02*
X52074D01*
X51427Y34134D02*
X52015D01*
X51513Y34259D02*
X51823D01*
X51427Y34193D02*
X51956D01*
X51427Y34252D02*
X51897D01*
X51555Y33989D02*
Y34259D01*
X51587Y33957D02*
X52156D01*
X51528Y34016D02*
X52139D01*
X51437Y34107D02*
Y34268D01*
X51225Y35728D02*
X51453D01*
X51513Y35734D02*
X51823D01*
X51166Y35787D02*
X54094D01*
X51884Y34265D02*
X52100Y34049D01*
X51944Y35711D02*
X52104D01*
X51883Y35728D02*
X54094D01*
X52205Y33307D02*
Y33379D01*
X53117Y33307D02*
X53268D01*
X52185Y33307D02*
X52257D01*
X53149Y33285D02*
Y33349D01*
X53235Y33189D02*
X53268D01*
X53190Y33248D02*
X53268D01*
X53203Y33543D02*
X53268D01*
X53162Y33366D02*
X53268D01*
X53204Y33484D02*
X53268D01*
X52205Y33645D02*
Y33799D01*
X53090Y33730D02*
Y33799D01*
X52264Y33715D02*
Y33799D01*
X53209Y33227D02*
Y33799D01*
X53268Y33116D02*
Y33711D01*
X53268Y33116D02*
Y33799D01*
X53149Y33674D02*
Y33799D01*
X53189Y33602D02*
X53268D01*
X53159Y33661D02*
X53268D01*
X53740Y31678D02*
Y31742D01*
X53752Y31653D02*
X54094D01*
X53720Y31713D02*
X54094D01*
X53780Y31772D02*
X54094D01*
X53800Y31790D02*
X53962Y31952D01*
X53841Y31831D02*
X54094D01*
X53900Y31890D02*
X54094D01*
X54036Y32067D02*
X54094D01*
X53959Y31949D02*
X54094D01*
X54007Y32008D02*
X54094D01*
X53191Y33425D02*
X53268D01*
Y33711D02*
X53441D01*
X53327D02*
Y33799D01*
X53386Y33711D02*
Y33799D01*
X53104Y33720D02*
X53444D01*
X54051Y32126D02*
X54094D01*
X53445Y33722D02*
Y33799D01*
X54054Y32156D02*
X54094D01*
X52323Y33753D02*
Y33799D01*
X52435Y33778D02*
X52939D01*
X53031Y33761D02*
Y33799D01*
X52904D02*
X52963D01*
X53487D01*
X52904D02*
X52963D01*
X53816Y34494D02*
X53976Y34334D01*
X53711Y34564D02*
Y34744D01*
Y34606D02*
X54094D01*
X53622Y34744D02*
X53711D01*
X52327Y35619D02*
X52690Y35256D01*
X53140D01*
X52795D02*
Y35828D01*
X52618Y35327D02*
Y35839D01*
X52736Y35256D02*
Y35827D01*
X52677Y35268D02*
Y35831D01*
X53363Y35163D02*
X53529Y34997D01*
X52854Y35256D02*
Y35833D01*
X53622Y34783D02*
X54094D01*
X53711Y34665D02*
X54094D01*
X53711Y34724D02*
X54094D01*
X53561Y34961D02*
X54094D01*
X53614Y34842D02*
X54094D01*
X53595Y34902D02*
X54094D01*
X53940Y34370D02*
X54094D01*
X54031Y34311D02*
X54094D01*
X53745Y34547D02*
X54094D01*
X53881Y34429D02*
X54094D01*
X53821Y34488D02*
X54094D01*
X52453Y35492D02*
X54094D01*
X52571Y35374D02*
X54094D01*
X52512Y35433D02*
X54094D01*
X52261Y35669D02*
X54094D01*
X52394Y35551D02*
X54094D01*
X52335Y35610D02*
X54094D01*
X53388Y35138D02*
X54094D01*
X53507Y35020D02*
X54094D01*
X53447Y35079D02*
X54094D01*
X52631Y35315D02*
X54094D01*
X53323Y35197D02*
X54094D01*
X53146Y35256D02*
X54094D01*
X50669Y35935D02*
Y36880D01*
X50650Y35935D02*
X50896D01*
X50728D02*
Y36880D01*
X50610Y36112D02*
Y36880D01*
X49902Y36112D02*
X50650D01*
Y35935D02*
Y36112D01*
X51104Y35849D02*
X51261Y35692D01*
X51319D02*
Y36880D01*
X50787Y35935D02*
Y36880D01*
X50846Y35935D02*
Y36880D01*
X50433Y36112D02*
Y37953D01*
X50905Y35935D02*
Y36880D01*
X50492Y36112D02*
Y37953D01*
X50551Y36112D02*
Y37953D01*
X49921Y36909D02*
X50561D01*
Y36880D02*
Y37825D01*
X51142Y35811D02*
Y36880D01*
X51260Y35693D02*
Y36880D01*
X51201Y35752D02*
Y36880D01*
X50964Y35927D02*
Y36880D01*
X51083Y35868D02*
Y36880D01*
X51024Y35906D02*
Y36880D01*
X49921Y36260D02*
X52053D01*
X49813Y36142D02*
X52126D01*
X49813Y36201D02*
X52086D01*
X49921Y36496D02*
X51977D01*
X49921Y36378D02*
X52005D01*
X49921Y36437D02*
X51989D01*
X50650Y35965D02*
X52311D01*
X51107Y35846D02*
X52581D01*
X51025Y35905D02*
X52413D01*
X49921Y36319D02*
X52026D01*
X50650Y36024D02*
X52235D01*
X50650Y36083D02*
X52175D01*
X49921Y36614D02*
X51968D01*
X49921Y36555D02*
X51971D01*
X49921Y36673D02*
X51971D01*
X49921Y36732D02*
X51977D01*
X49921Y36791D02*
X51989D01*
X49921Y36850D02*
X52005D01*
X51378Y35705D02*
Y36880D01*
X51496Y35733D02*
Y36880D01*
X51437Y35725D02*
Y36880D01*
X50561D02*
X51506D01*
Y36909D02*
X52026D01*
X51506Y36880D02*
Y37825D01*
X47246Y37323D02*
X50561D01*
X47182Y37205D02*
X50561D01*
X47219Y37264D02*
X50561D01*
X47269Y37618D02*
X50561D01*
X47265Y37382D02*
X50561D01*
X47276Y37441D02*
X50561D01*
X49921Y37087D02*
X50561D01*
X49921Y36968D02*
X50561D01*
X49921Y37027D02*
X50561D01*
X47278Y37559D02*
X50561D01*
X49921Y37146D02*
X50561D01*
X47281Y37500D02*
X50561D01*
X47194Y37795D02*
X50561D01*
X47253Y37677D02*
X50561D01*
X47228Y37736D02*
X50561D01*
X50610Y37825D02*
Y37953D01*
X50728Y37825D02*
Y37953D01*
X50669Y37825D02*
Y37953D01*
X50964Y37825D02*
Y37953D01*
X51083Y37825D02*
Y37953D01*
X51024Y37825D02*
Y37953D01*
X50787Y37825D02*
Y37953D01*
X50905Y37825D02*
Y37953D01*
X50846Y37825D02*
Y37953D01*
X51506Y37323D02*
X52413D01*
X51506Y37500D02*
X54094D01*
X51506Y37559D02*
X54094D01*
X51506Y37736D02*
X54094D01*
X51506Y37618D02*
X54094D01*
X51506Y37677D02*
X54094D01*
X51506Y36968D02*
X52053D01*
X51506Y37027D02*
X52086D01*
X51506Y37087D02*
X52126D01*
X51506Y37146D02*
X52175D01*
X51506Y37205D02*
X52235D01*
X51506Y37264D02*
X52311D01*
X51142Y37825D02*
Y37953D01*
X50561Y37825D02*
X51506D01*
X51201D02*
Y37953D01*
X47029D02*
X54094D01*
X47149Y37854D02*
X54094D01*
X47086Y37913D02*
X54094D01*
X51437Y37825D02*
Y37953D01*
X51506Y37795D02*
X54094D01*
X51496Y37825D02*
Y37953D01*
X51260Y37825D02*
Y37953D01*
X51378Y37825D02*
Y37953D01*
X51319Y37825D02*
Y37953D01*
X52441Y35505D02*
Y35893D01*
X52559Y35386D02*
Y35852D01*
X52500Y35446D02*
Y35870D01*
X52264Y35668D02*
Y36000D01*
X52382Y35564D02*
Y35921D01*
X52323Y35623D02*
Y35957D01*
X53090Y35256D02*
Y35901D01*
X53149Y35256D02*
Y35932D01*
X53209Y35248D02*
Y35970D01*
X52913Y35256D02*
Y35843D01*
X52972Y35256D02*
Y35857D01*
X53031Y35256D02*
Y35877D01*
X51732Y35734D02*
Y37953D01*
X51850Y35733D02*
Y37953D01*
X51791Y35734D02*
Y37953D01*
X51555Y35734D02*
Y37953D01*
X51673Y35734D02*
Y37953D01*
X51614Y35734D02*
Y37953D01*
X52087Y35711D02*
Y36200D01*
X52205Y35695D02*
Y36052D01*
X52146Y35709D02*
Y36117D01*
X51909Y35722D02*
Y37953D01*
X52027Y35711D02*
Y36315D01*
X51968Y35711D02*
Y37953D01*
X53268Y35229D02*
Y36016D01*
X52931Y35846D02*
X54094D01*
X53277Y36024D02*
X54094D01*
X53099Y35905D02*
X54094D01*
X53201Y35965D02*
X54094D01*
X53386Y35140D02*
Y36142D01*
X53445Y35081D02*
Y36233D01*
X53504Y35022D02*
Y36368D01*
X53327Y35194D02*
Y36072D01*
X53337Y36083D02*
X54094D01*
X53386Y36142D02*
X54094D01*
X53681Y34744D02*
Y37953D01*
X53799Y34509D02*
Y37953D01*
X53740Y34550D02*
Y37953D01*
X53622Y34782D02*
Y37953D01*
X53563Y34957D02*
Y37953D01*
X54035Y34308D02*
Y37953D01*
X54094Y34269D02*
Y37953D01*
X54094Y34269D02*
Y37953D01*
X53858Y34451D02*
Y37953D01*
X53976Y34333D02*
Y37953D01*
X53917Y34392D02*
Y37953D01*
X52027Y36913D02*
Y37953D01*
X52146Y37112D02*
Y37953D01*
X52087Y37029D02*
Y37953D01*
X52205Y37176D02*
Y37953D01*
X51506Y37382D02*
X52581D01*
X52264Y37229D02*
Y37953D01*
X52323Y37272D02*
Y37953D01*
X52441Y37336D02*
Y37953D01*
X52382Y37307D02*
Y37953D01*
X52500Y37359D02*
Y37953D01*
X52618Y37389D02*
Y37953D01*
X52559Y37377D02*
Y37953D01*
X52854Y37395D02*
Y37953D01*
X52972Y37371D02*
Y37953D01*
X52913Y37386D02*
Y37953D01*
X52677Y37398D02*
Y37953D01*
X52795Y37401D02*
Y37953D01*
X52736Y37401D02*
Y37953D01*
X53209Y37258D02*
Y37953D01*
X53327Y37157D02*
Y37953D01*
X53268Y37213D02*
Y37953D01*
X53031Y37352D02*
Y37953D01*
X53149Y37296D02*
Y37953D01*
X53090Y37327D02*
Y37953D01*
X53486Y36319D02*
X54094D01*
X53426Y36201D02*
X54094D01*
X53459Y36260D02*
X54094D01*
X53507Y36850D02*
X54094D01*
X53507Y36378D02*
X54094D01*
X53523Y36437D02*
X54094D01*
X53543Y36614D02*
X54094D01*
X53534Y36496D02*
X54094D01*
X53541Y36555D02*
X54094D01*
X53523Y36791D02*
X54094D01*
X53541Y36673D02*
X54094D01*
X53534Y36732D02*
X54094D01*
X53201Y37264D02*
X54094D01*
X53337Y37146D02*
X54094D01*
X53277Y37205D02*
X54094D01*
X51506Y37441D02*
X54094D01*
X53099Y37323D02*
X54094D01*
X52931Y37382D02*
X54094D01*
X53504Y36860D02*
Y37953D01*
X53486Y36909D02*
X54094D01*
X53459Y36968D02*
X54094D01*
X53445Y36996D02*
Y37953D01*
X53386Y37087D02*
Y37953D01*
X53426Y37027D02*
X54094D01*
X53386Y37087D02*
X54094D01*
D11*
X37657Y28228D02*
D03*
X51033Y37352D02*
D03*
D12*
X43701Y28130D02*
D03*
Y27382D02*
D03*
X38799Y32589D02*
D03*
Y33337D02*
D03*
X49045Y32018D02*
D03*
Y32766D02*
D03*
X49459Y31014D02*
D03*
Y30266D02*
D03*
X53740Y32559D02*
D03*
Y33307D02*
D03*
D13*
X45226Y28159D02*
D03*
X45974D02*
D03*
X39813Y30925D02*
D03*
X40561D02*
D03*
X53091Y28081D02*
D03*
X52343D02*
D03*
X41112Y34341D02*
D03*
X40364D02*
D03*
X39587Y28169D02*
D03*
X38839D02*
D03*
X39547Y29862D02*
D03*
X38799D02*
D03*
X51644Y28081D02*
D03*
X50896D02*
D03*
X47923Y35069D02*
D03*
X48671D02*
D03*
X51929Y29459D02*
D03*
X51181D02*
D03*
X52559Y34272D02*
D03*
X53307D02*
D03*
X45984Y29547D02*
D03*
X46732D02*
D03*
X49498Y35640D02*
D03*
X50246D02*
D03*
X45295Y29547D02*
D03*
X44547D02*
D03*
D14*
X40571Y33337D02*
D03*
Y32837D02*
D03*
X42771D02*
D03*
Y33337D02*
D03*
X40571Y31837D02*
D03*
X42771D02*
D03*
X40571Y32337D02*
D03*
X42771D02*
D03*
X47963Y30512D02*
D03*
Y31012D02*
D03*
X45763Y30512D02*
D03*
Y31012D02*
D03*
X47963Y33512D02*
D03*
Y32012D02*
D03*
Y32512D02*
D03*
Y33012D02*
D03*
X45763Y33512D02*
D03*
Y32012D02*
D03*
Y32512D02*
D03*
Y33012D02*
D03*
X47963Y31512D02*
D03*
X45763D02*
D03*
X52687Y30512D02*
D03*
Y31012D02*
D03*
X50487Y30512D02*
D03*
Y31012D02*
D03*
X52687Y33512D02*
D03*
Y32012D02*
D03*
Y32512D02*
D03*
Y33012D02*
D03*
X50487Y33512D02*
D03*
Y32012D02*
D03*
Y32512D02*
D03*
Y33012D02*
D03*
X52687Y31512D02*
D03*
X50487D02*
D03*
D15*
X42766Y34252D02*
D03*
Y34961D02*
D03*
X44734Y31220D02*
D03*
Y30512D02*
D03*
X47992Y36683D02*
D03*
Y35974D02*
D03*
X46929Y27441D02*
D03*
Y28150D02*
D03*
X41929Y34961D02*
D03*
Y34252D02*
D03*
D16*
X39547Y29035D02*
D03*
X38839D02*
D03*
X48789Y36683D02*
D03*
X49498D02*
D03*
X49774Y29459D02*
D03*
X50482D02*
D03*
X48238Y29104D02*
D03*
X47530D02*
D03*
D17*
X53607Y28829D02*
D03*
Y29629D02*
D03*
X52697Y29229D02*
D03*
X51668Y34596D02*
D03*
Y35396D02*
D03*
X50758Y34996D02*
D03*
D18*
X47785Y28159D02*
D03*
X49085D02*
D03*
D19*
X45984Y27209D02*
Y28140D01*
X45980Y27205D02*
X45984Y27209D01*
X42874Y27382D02*
X43701D01*
X42510Y27018D02*
X42874Y27382D01*
X47402Y35069D02*
X47923D01*
X46763Y35709D02*
X47402Y35069D01*
X50896Y28081D02*
X50906Y28071D01*
Y27018D02*
Y28071D01*
X47923Y34478D02*
Y35069D01*
Y34478D02*
X48388Y34014D01*
X48423D01*
X48441Y33996D01*
X49065D01*
X49498Y34429D01*
Y35640D01*
X45295Y29547D02*
X45984D01*
X45984Y29547D01*
Y28976D02*
Y29547D01*
Y28976D02*
X46142Y28819D01*
X46713D01*
X46929Y28602D01*
Y28150D02*
Y28602D01*
Y28150D02*
X47775D01*
X47785Y28159D01*
X44213Y35709D02*
X46763D01*
X38839Y27598D02*
Y28169D01*
X38573Y27333D02*
X38839Y27598D01*
X38573Y27018D02*
Y27333D01*
X38839Y28169D02*
Y29035D01*
X38839Y28169D02*
X38839Y28169D01*
D20*
X47992Y35974D02*
X48524D01*
X48671Y35827D01*
Y35069D02*
Y35827D01*
X50487Y32512D02*
X50953D01*
X51202Y32263D01*
Y31241D02*
Y32263D01*
X50972Y31012D02*
X51202Y31241D01*
X50487Y31012D02*
X50972D01*
X49461D02*
X50487D01*
X49459Y31014D02*
X49461Y31012D01*
X50482Y29459D02*
X51181D01*
X47963Y31012D02*
X48699D01*
X48701Y31014D01*
X52691Y31516D02*
X53425D01*
X52687Y31512D02*
X52691Y31516D01*
X47963Y32012D02*
X49039D01*
X49045Y32018D01*
Y32766D02*
Y33258D01*
X53607Y28627D02*
Y28829D01*
Y28627D02*
X53848Y28386D01*
X52687Y32012D02*
X53577D01*
X53740Y32175D01*
Y32559D01*
X53307Y34272D02*
Y34774D01*
X51407Y33031D02*
Y33691D01*
Y33031D02*
X51644Y32795D01*
X51968D01*
X47382Y30512D02*
X47963D01*
X47215Y30679D02*
X47382Y30512D01*
X48661Y34518D02*
Y35059D01*
X48671Y35069D01*
X44734Y30512D02*
X45763D01*
X44734Y30512D02*
X44734Y30512D01*
X43730Y28159D02*
X45226D01*
X43701Y28130D02*
X43730Y28159D01*
X47161Y31512D02*
X47963D01*
X46713Y31063D02*
X47161Y31512D01*
X49498Y35640D02*
Y36683D01*
X47451Y29547D02*
X47530Y29469D01*
Y29104D02*
Y29469D01*
X48858Y30266D02*
X49459D01*
X48563Y29970D02*
X48858Y30266D01*
X48120Y29970D02*
X48563D01*
X46732Y29547D02*
X47451D01*
X46713Y29567D02*
Y31063D01*
Y29567D02*
X46732Y29547D01*
X51668Y35396D02*
X52104D01*
X52559Y34941D01*
X53140D01*
X53307Y34774D01*
X51260Y34596D02*
X51668D01*
X51112Y34449D02*
X51260Y34596D01*
X51112Y33986D02*
Y34449D01*
Y33986D02*
X51407Y33691D01*
X51668Y34596D02*
X51998D01*
X52323Y34272D01*
X52559D01*
X42771Y32837D02*
X43394D01*
X42771Y32337D02*
X43468D01*
Y32762D01*
X43394Y32837D02*
X43468Y32762D01*
X40024Y32337D02*
X40571D01*
X39813Y32126D02*
X40024Y32337D01*
X39813Y30925D02*
Y32126D01*
X39587Y28169D02*
X40089D01*
X40423Y27835D01*
X39547Y29035D02*
Y29862D01*
Y29035D02*
X39547Y29035D01*
X38799Y29862D02*
Y32589D01*
X38799Y29862D02*
X38799Y29862D01*
X39677Y32837D02*
X40571D01*
X39429Y32589D02*
X39677Y32837D01*
X38799Y32589D02*
X39429D01*
X41929Y34252D02*
X42766D01*
X39823Y34341D02*
X40364D01*
X51993Y27456D02*
Y28081D01*
Y27456D02*
X51998Y27451D01*
X51644Y28081D02*
X51993D01*
X52343D01*
X38799Y33337D02*
X39843D01*
X40571D01*
X42746Y28130D02*
X43701D01*
X42431Y27815D02*
X42746Y28130D01*
X42254Y27815D02*
X42431D01*
X43435Y29104D02*
Y30701D01*
X42746Y28415D02*
X43435Y29104D01*
X42746Y28130D02*
Y28415D01*
X49459Y30266D02*
X49803D01*
X50049Y30512D01*
X50487D01*
X50482Y30507D02*
X50487Y30512D01*
X53307Y34272D02*
X53593D01*
X53868Y33996D01*
X53740Y33307D02*
Y33612D01*
X53868Y33740D01*
Y33996D01*
X48937Y27018D02*
Y27530D01*
X49085Y27678D01*
Y28159D01*
X50482Y28907D02*
Y29459D01*
X49734Y28159D02*
X50482Y28907D01*
X49085Y28159D02*
X49734D01*
X50482Y29459D02*
Y30507D01*
X44734Y30236D02*
Y30512D01*
X44547Y30049D02*
X44734Y30236D01*
X44547Y29547D02*
Y30049D01*
X44065Y30512D02*
X44734D01*
X44734Y30512D01*
X41112Y34341D02*
X41368D01*
X41457Y34252D01*
X41929D01*
X42771Y33337D02*
Y34247D01*
X42766Y34252D02*
X42771Y34247D01*
X42766Y34252D02*
X43484D01*
X50321Y34996D02*
X50758D01*
X50069Y34744D02*
X50321Y34996D01*
D21*
X49945Y32012D02*
X50487D01*
X49833Y31900D02*
X49945Y32012D01*
X49833Y31614D02*
Y31900D01*
Y31614D02*
X49935Y31512D01*
X50487D01*
X52059Y31012D02*
X52687D01*
X51968Y31102D02*
X52059Y31012D01*
X51968Y31102D02*
Y32795D01*
X52185Y33012D01*
X52687D01*
Y29239D02*
X52697Y29229D01*
X50246Y35640D02*
X50896D01*
X51139Y35396D01*
X51668D01*
X49370Y29350D02*
X49665D01*
X49774Y29459D01*
X51929D02*
X52215D01*
X52116Y30512D02*
X52687D01*
X51929Y30325D02*
X52116Y30512D01*
X51929Y29459D02*
Y30325D01*
X52444Y29229D02*
X52697D01*
X52215Y29459D02*
X52444Y29229D01*
X40148Y27018D02*
X40541D01*
Y27411D01*
Y27018D02*
X40935D01*
X40561Y30571D02*
Y30925D01*
X40276D02*
X40561D01*
X40846D01*
X40561D02*
Y31280D01*
X44602Y27205D02*
X44980D01*
Y26826D02*
Y27205D01*
Y27583D01*
Y27205D02*
X45359D01*
X45284Y31012D02*
X45763D01*
X46241D01*
X40571Y31610D02*
Y31837D01*
X41050D01*
X41565Y34961D02*
X41929D01*
X42293D01*
X41929D02*
Y35266D01*
X42771Y31610D02*
Y31837D01*
X42292D02*
X42771D01*
X43250D01*
X42402Y34961D02*
X42766D01*
X43130D01*
X44370Y31220D02*
X44734D01*
X45098D01*
X44734D02*
Y31526D01*
X45284Y32012D02*
X45763D01*
X46241D01*
X45284Y33012D02*
X45763D01*
X46241D01*
X42766Y34961D02*
Y35266D01*
X44213Y37030D02*
Y37509D01*
X43734D02*
X44213D01*
X44691D01*
X46284D02*
X46763D01*
X46929Y27136D02*
Y27441D01*
X47293D01*
X46565D02*
X46929D01*
X48238Y28740D02*
Y29104D01*
X48543D01*
X48238D02*
Y29469D01*
X49774Y29094D02*
Y29459D01*
X49468D02*
X49774D01*
X52480Y27018D02*
X52874D01*
X53268D01*
X52874D02*
Y27411D01*
X52805Y28081D02*
X53091D01*
Y27726D02*
Y28081D01*
Y28435D01*
Y28081D02*
X53376D01*
X53233Y29629D02*
X53607D01*
Y29410D02*
Y29629D01*
Y29848D01*
Y29629D02*
X53981D01*
X47484Y32512D02*
X47963D01*
X48441D01*
X47484Y33512D02*
X47963D01*
X48441D01*
X47963D02*
Y33738D01*
X46763Y37030D02*
Y37509D01*
X47241D01*
X47992Y36683D02*
X48356D01*
X47628D02*
X47992D01*
Y36988D01*
X48484Y36683D02*
X48789D01*
Y37047D01*
Y36319D02*
Y36683D01*
X52208Y33512D02*
X52687D01*
X53166D01*
X52687D02*
Y33738D01*
D22*
X52756Y36614D02*
D03*
X38189D02*
D03*
D23*
X40541Y27018D02*
D03*
X38573D02*
D03*
X52874D02*
D03*
X50906D02*
D03*
X48937D02*
D03*
X42510D02*
D03*
D24*
X44980Y27205D02*
D03*
D25*
X45980D02*
D03*
D26*
X44213Y37509D02*
D03*
Y35709D02*
D03*
X46763Y37509D02*
D03*
D27*
Y35709D02*
D03*
D28*
X48701Y31014D02*
D03*
X53425Y31516D02*
D03*
X49045Y33258D02*
D03*
X53848Y28386D02*
D03*
X53868Y33996D02*
D03*
X51171Y30118D02*
D03*
X47215Y30679D02*
D03*
X48661Y34518D02*
D03*
X48120Y29970D02*
D03*
X50069Y34744D02*
D03*
X40423Y27835D02*
D03*
X39813Y32126D02*
D03*
X39823Y34341D02*
D03*
X39843Y33337D02*
D03*
X51998Y27451D02*
D03*
X42254Y27815D02*
D03*
X37795Y27165D02*
D03*
Y29528D02*
D03*
Y31890D02*
D03*
Y34252D02*
D03*
X38386Y35433D02*
D03*
X39567D02*
D03*
X40748Y28346D02*
D03*
Y35433D02*
D03*
X40157Y36614D02*
D03*
X41339Y27165D02*
D03*
Y29528D02*
D03*
X41929Y30709D02*
D03*
X41339Y31890D02*
D03*
X41929Y33071D02*
D03*
Y35433D02*
D03*
X41339Y36614D02*
D03*
X42520Y29528D02*
D03*
Y36614D02*
D03*
X43701Y31890D02*
D03*
X44291Y33071D02*
D03*
X43701Y36614D02*
D03*
X44882Y31890D02*
D03*
Y34252D02*
D03*
Y36614D02*
D03*
X46654Y33071D02*
D03*
X46063Y34252D02*
D03*
Y36614D02*
D03*
X47244D02*
D03*
X50787D02*
D03*
X48809Y29380D02*
D03*
X53819Y27717D02*
D03*
X43435Y30701D02*
D03*
X50492Y30089D02*
D03*
X44065Y30512D02*
D03*
X43484Y34252D02*
D03*
X42766Y31299D02*
D03*
X42776Y35453D02*
D03*
X51880Y33396D02*
D03*
X51791Y34045D02*
D03*
X50344Y34104D02*
D03*
X47116Y33524D02*
D03*
X46614Y32018D02*
D03*
X47067Y32510D02*
D03*
X50039Y37500D02*
D03*
X43907Y28868D02*
D03*
M02*
