M48
;Layer_Color=9474304
;FILE_FORMAT=2:4
INCH,LZ
;TYPE=PLATED
T1F00S00C0.0118
T2F00S00C0.0315
T3F00S00C0.0472
%
T01
X0219Y0371
X022Y0376
Y03805
Y03855
X0219Y039
X0227
Y03855
Y03805
Y0376
Y03715
X02335Y0371
Y0376
Y03805
Y03855
Y039
X024
Y03855
Y03805
Y0376
Y0371
X02485
X0247Y0376
Y03805
Y03855
X02485Y039
T02
X02945Y03975
X03145
Y0499
Y05985
X02945
Y0499
X0266Y06605
Y068018
X02945Y06965
X0266Y0739
Y0759
X03145Y06965
T03
X02075Y0463
X02675
Y05605
X02075
M30
