G04 Layer_Color=8388736*
%FSLAX24Y24*%
%MOIN*%
G70*
G01*
G75*
%ADD74O,0.0296X0.0591*%
%ADD75R,0.0473X0.0611*%
G04:AMPARAMS|DCode=76|XSize=285.5mil|YSize=224.5mil|CornerRadius=13.9mil|HoleSize=0mil|Usage=FLASHONLY|Rotation=0.000|XOffset=0mil|YOffset=0mil|HoleType=Round|Shape=RoundedRectangle|*
%AMROUNDEDRECTD76*
21,1,0.2855,0.1967,0,0,0.0*
21,1,0.2577,0.2245,0,0,0.0*
1,1,0.0278,0.1288,-0.0983*
1,1,0.0278,-0.1288,-0.0983*
1,1,0.0278,-0.1288,0.0983*
1,1,0.0278,0.1288,0.0983*
%
%ADD76ROUNDEDRECTD76*%
%ADD77O,0.0906X0.0454*%
G04:AMPARAMS|DCode=78|XSize=88.7mil|YSize=84.7mil|CornerRadius=22.7mil|HoleSize=0mil|Usage=FLASHONLY|Rotation=0.000|XOffset=0mil|YOffset=0mil|HoleType=Round|Shape=RoundedRectangle|*
%AMROUNDEDRECTD78*
21,1,0.0887,0.0394,0,0,0.0*
21,1,0.0433,0.0847,0,0,0.0*
1,1,0.0454,0.0217,-0.0197*
1,1,0.0454,-0.0217,-0.0197*
1,1,0.0454,-0.0217,0.0197*
1,1,0.0454,0.0217,0.0197*
%
%ADD78ROUNDEDRECTD78*%
%ADD79O,0.0355X0.0910*%
%ADD80R,0.0414X0.0454*%
%ADD81R,0.0414X0.0335*%
%ADD82R,0.0454X0.0414*%
G04:AMPARAMS|DCode=83|XSize=96.5mil|YSize=88.7mil|CornerRadius=15.4mil|HoleSize=0mil|Usage=FLASHONLY|Rotation=0.000|XOffset=0mil|YOffset=0mil|HoleType=Round|Shape=RoundedRectangle|*
%AMROUNDEDRECTD83*
21,1,0.0965,0.0579,0,0,0.0*
21,1,0.0657,0.0887,0,0,0.0*
1,1,0.0308,0.0329,-0.0289*
1,1,0.0308,-0.0329,-0.0289*
1,1,0.0308,-0.0329,0.0289*
1,1,0.0308,0.0329,0.0289*
%
%ADD83ROUNDEDRECTD83*%
%ADD84O,0.0669X0.0157*%
%ADD85O,0.0157X0.0669*%
%ADD86R,0.0335X0.0414*%
%ADD87R,0.0631X0.0513*%
G04:AMPARAMS|DCode=88|XSize=92.6mil|YSize=74.9mil|CornerRadius=20.2mil|HoleSize=0mil|Usage=FLASHONLY|Rotation=90.000|XOffset=0mil|YOffset=0mil|HoleType=Round|Shape=RoundedRectangle|*
%AMROUNDEDRECTD88*
21,1,0.0926,0.0344,0,0,90.0*
21,1,0.0522,0.0749,0,0,90.0*
1,1,0.0404,0.0172,0.0261*
1,1,0.0404,0.0172,-0.0261*
1,1,0.0404,-0.0172,-0.0261*
1,1,0.0404,-0.0172,0.0261*
%
%ADD88ROUNDEDRECTD88*%
%ADD89O,0.0650X0.0341*%
%ADD90O,0.0860X0.0355*%
G04:AMPARAMS|DCode=91|XSize=92.6mil|YSize=74.9mil|CornerRadius=20.2mil|HoleSize=0mil|Usage=FLASHONLY|Rotation=180.000|XOffset=0mil|YOffset=0mil|HoleType=Round|Shape=RoundedRectangle|*
%AMROUNDEDRECTD91*
21,1,0.0926,0.0344,0,0,180.0*
21,1,0.0522,0.0749,0,0,180.0*
1,1,0.0404,-0.0261,0.0172*
1,1,0.0404,0.0261,0.0172*
1,1,0.0404,0.0261,-0.0172*
1,1,0.0404,-0.0261,-0.0172*
%
%ADD91ROUNDEDRECTD91*%
G04:AMPARAMS|DCode=92|XSize=116.2mil|YSize=65mil|CornerRadius=17.8mil|HoleSize=0mil|Usage=FLASHONLY|Rotation=90.000|XOffset=0mil|YOffset=0mil|HoleType=Round|Shape=RoundedRectangle|*
%AMROUNDEDRECTD92*
21,1,0.1162,0.0295,0,0,90.0*
21,1,0.0807,0.0650,0,0,90.0*
1,1,0.0355,0.0148,0.0404*
1,1,0.0355,0.0148,-0.0404*
1,1,0.0355,-0.0148,-0.0404*
1,1,0.0355,-0.0148,0.0404*
%
%ADD92ROUNDEDRECTD92*%
G04:AMPARAMS|DCode=93|XSize=116.2mil|YSize=65mil|CornerRadius=17.8mil|HoleSize=0mil|Usage=FLASHONLY|Rotation=180.000|XOffset=0mil|YOffset=0mil|HoleType=Round|Shape=RoundedRectangle|*
%AMROUNDEDRECTD93*
21,1,0.1162,0.0295,0,0,180.0*
21,1,0.0807,0.0650,0,0,180.0*
1,1,0.0355,-0.0404,0.0148*
1,1,0.0355,0.0404,0.0148*
1,1,0.0355,0.0404,-0.0148*
1,1,0.0355,-0.0404,-0.0148*
%
%ADD93ROUNDEDRECTD93*%
%ADD94R,0.0768X0.0611*%
%ADD95R,0.0749X0.0473*%
%ADD96O,0.0341X0.0650*%
%ADD97R,0.0473X0.0749*%
%ADD98C,0.0887*%
%ADD99R,0.0887X0.0887*%
%ADD100C,0.0690*%
%ADD101R,0.0690X0.0690*%
%ADD102C,0.0660*%
%ADD103R,0.0660X0.0660*%
%ADD104R,0.0660X0.0660*%
%ADD105R,0.1044X0.1044*%
%ADD106C,0.1044*%
%ADD107R,0.0690X0.0690*%
%ADD108R,0.1044X0.1044*%
%ADD109C,0.2422*%
G36*
X17307Y42598D02*
X17403Y42558D01*
X17486Y42495D01*
X17549Y42413D01*
X17588Y42317D01*
X17602Y42215D01*
X17588Y42112D01*
X17549Y42016D01*
X17486Y41934D01*
X17403Y41871D01*
X17307Y41831D01*
X17205Y41817D01*
X17102Y41831D01*
X17006Y41871D01*
X16924Y41934D01*
X16861Y42016D01*
X16821Y42112D01*
X16808Y42215D01*
X16821Y42317D01*
X16861Y42413D01*
X16924Y42495D01*
X17006Y42558D01*
X17102Y42598D01*
X17205Y42612D01*
X17307Y42598D01*
D02*
G37*
G36*
X50358Y40345D02*
X50362Y40342D01*
X50366Y40343D01*
X50495Y40302D01*
X50497Y40301D01*
X50499Y40301D01*
X50649Y40241D01*
X50652Y40238D01*
X50655Y40238D01*
X50795Y40154D01*
X50797Y40152D01*
X50801Y40151D01*
X50926Y40047D01*
X50926Y40045D01*
X50928Y40044D01*
X50933Y40040D01*
X50933Y40038D01*
X50935Y40038D01*
X51084Y39872D01*
X51085Y39869D01*
X51087Y39868D01*
X51213Y39684D01*
X51214Y39681D01*
X51216Y39679D01*
X51316Y39480D01*
X51316Y39477D01*
X51318Y39474D01*
X51391Y39264D01*
X51391Y39261D01*
X51393Y39258D01*
X51437Y39040D01*
X51436Y39037D01*
X51438Y39034D01*
X51453Y38812D01*
X51452Y38809D01*
X51453Y38806D01*
X51438Y38584D01*
X51436Y38581D01*
X51437Y38578D01*
X51393Y38360D01*
X51391Y38357D01*
X51391Y38354D01*
X51318Y38144D01*
X51316Y38141D01*
X51316Y38138D01*
X51216Y37939D01*
X51214Y37937D01*
X51213Y37934D01*
X51087Y37750D01*
X51085Y37749D01*
X51084Y37746D01*
X50935Y37580D01*
X50933Y37580D01*
X50933Y37578D01*
X50930Y37576D01*
X50929Y37575D01*
X50928Y37574D01*
X50801Y37468D01*
X50798Y37467D01*
X50796Y37465D01*
X50654Y37380D01*
X50651Y37380D01*
X50648Y37377D01*
X50496Y37316D01*
X50494Y37316D01*
X50492Y37315D01*
X50358Y37273D01*
X50354Y37273D01*
X50350Y37271D01*
X50277Y37263D01*
X50269Y37265D01*
X50261Y37264D01*
X50190Y37283D01*
X50184Y37288D01*
X50176Y37290D01*
X50117Y37333D01*
X50112Y37340D01*
X50106Y37345D01*
X50066Y37407D01*
X50065Y37415D01*
X50061Y37422D01*
X50047Y37494D01*
X50048Y37498D01*
X50046Y37502D01*
Y40108D01*
X50048Y40112D01*
X50047Y40116D01*
X50061Y40190D01*
X50065Y40197D01*
X50067Y40205D01*
X50107Y40269D01*
X50114Y40274D01*
X50118Y40281D01*
X50179Y40326D01*
X50187Y40328D01*
X50194Y40333D01*
X50267Y40352D01*
X50275Y40351D01*
X50283Y40353D01*
X50358Y40345D01*
D02*
G37*
G36*
X48864Y40353D02*
X48873Y40354D01*
X48944Y40335D01*
X48950Y40330D01*
X48958Y40329D01*
X49017Y40285D01*
X49022Y40278D01*
X49028Y40273D01*
X49067Y40211D01*
X49069Y40203D01*
X49073Y40196D01*
X49087Y40124D01*
X49086Y40120D01*
X49088Y40116D01*
Y37510D01*
X49086Y37506D01*
X49087Y37502D01*
X49073Y37428D01*
X49068Y37421D01*
X49067Y37413D01*
X49027Y37349D01*
X49020Y37344D01*
X49016Y37337D01*
X48955Y37292D01*
X48947Y37290D01*
X48940Y37285D01*
X48867Y37266D01*
X48859Y37267D01*
X48851Y37265D01*
X48776Y37274D01*
X48772Y37276D01*
X48768Y37275D01*
X48639Y37316D01*
X48637Y37317D01*
X48635Y37317D01*
X48484Y37377D01*
X48482Y37380D01*
X48478Y37380D01*
X48339Y37464D01*
X48337Y37467D01*
X48333Y37468D01*
X48208Y37571D01*
X48207Y37573D01*
X48206Y37574D01*
X48201Y37578D01*
X48201Y37580D01*
X48199Y37580D01*
X48050Y37746D01*
X48049Y37749D01*
X48047Y37750D01*
X47921Y37934D01*
X47920Y37937D01*
X47918Y37939D01*
X47818Y38138D01*
X47818Y38141D01*
X47815Y38144D01*
X47743Y38354D01*
X47743Y38357D01*
X47741Y38360D01*
X47697Y38578D01*
X47697Y38581D01*
X47696Y38584D01*
X47681Y38806D01*
X47682Y38809D01*
X47681Y38812D01*
X47696Y39034D01*
X47697Y39037D01*
X47697Y39040D01*
X47741Y39258D01*
X47743Y39261D01*
X47743Y39264D01*
X47815Y39474D01*
X47818Y39477D01*
X47818Y39480D01*
X47918Y39679D01*
X47920Y39681D01*
X47921Y39684D01*
X48047Y39868D01*
X48049Y39869D01*
X48050Y39872D01*
X48199Y40038D01*
X48201Y40038D01*
X48201Y40040D01*
X48203Y40042D01*
X48205Y40043D01*
X48206Y40044D01*
X48333Y40150D01*
X48336Y40151D01*
X48338Y40154D01*
X48479Y40238D01*
X48483Y40238D01*
X48486Y40241D01*
X48638Y40302D01*
X48640Y40302D01*
X48642Y40303D01*
X48776Y40345D01*
X48780Y40345D01*
X48784Y40347D01*
X48856Y40355D01*
X48864Y40353D01*
D02*
G37*
G36*
X80516Y21407D02*
X80612Y21368D01*
X80694Y21304D01*
X80757Y21222D01*
X80797Y21126D01*
X80810Y21024D01*
X80797Y20921D01*
X80757Y20825D01*
X80694Y20743D01*
X80612Y20680D01*
X80516Y20640D01*
X80413Y20627D01*
X80311Y20640D01*
X80215Y20680D01*
X80133Y20743D01*
X80069Y20825D01*
X80030Y20921D01*
X80016Y21024D01*
X80030Y21126D01*
X80069Y21222D01*
X80133Y21304D01*
X80215Y21368D01*
X80311Y21407D01*
X80413Y21421D01*
X80516Y21407D01*
D02*
G37*
D74*
X45463Y43307D02*
D03*
Y42323D02*
D03*
X46211Y43307D02*
D03*
Y42323D02*
D03*
X45837Y43307D02*
D03*
D75*
X44724Y28150D02*
D03*
X43976D02*
D03*
X64173Y36585D02*
D03*
X64921D02*
D03*
X64665Y40935D02*
D03*
X63917D02*
D03*
X64665Y38907D02*
D03*
X63917D02*
D03*
X58140Y40551D02*
D03*
X58888D02*
D03*
X58140Y39774D02*
D03*
X58888D02*
D03*
X75472Y28150D02*
D03*
X74724D02*
D03*
X69291D02*
D03*
X68543D02*
D03*
X63150D02*
D03*
X62402D02*
D03*
X57008D02*
D03*
X56260D02*
D03*
X50866D02*
D03*
X50118D02*
D03*
X38583D02*
D03*
X37835D02*
D03*
X32441D02*
D03*
X31693D02*
D03*
X26299D02*
D03*
X25551D02*
D03*
X20157D02*
D03*
X19409D02*
D03*
D76*
X75423Y44055D02*
D03*
D77*
X72864Y44953D02*
D03*
Y43157D02*
D03*
D78*
X64724Y30945D02*
D03*
Y32756D02*
D03*
X34016Y30945D02*
D03*
Y32756D02*
D03*
X27874Y30945D02*
D03*
Y32756D02*
D03*
X21732Y30945D02*
D03*
Y32756D02*
D03*
X40157Y30945D02*
D03*
Y32756D02*
D03*
X46299Y30945D02*
D03*
Y32756D02*
D03*
X52441Y30945D02*
D03*
Y32756D02*
D03*
X58583Y30945D02*
D03*
Y32756D02*
D03*
X70866Y30945D02*
D03*
Y32756D02*
D03*
X77047Y30945D02*
D03*
Y32756D02*
D03*
D79*
X42240Y39348D02*
D03*
Y36398D02*
D03*
X41240Y39348D02*
D03*
X41740D02*
D03*
X42740D02*
D03*
X41240Y36398D02*
D03*
X41740D02*
D03*
X42740D02*
D03*
D80*
X40315Y38100D02*
D03*
Y38770D02*
D03*
X24990Y38957D02*
D03*
Y39626D02*
D03*
X22244Y39626D02*
D03*
Y38957D02*
D03*
X31122Y36270D02*
D03*
Y36939D02*
D03*
X58563Y38681D02*
D03*
Y38012D02*
D03*
X43317Y42972D02*
D03*
Y43642D02*
D03*
X53592Y38642D02*
D03*
Y37972D02*
D03*
D81*
X27815Y40610D02*
D03*
Y40000D02*
D03*
X25020Y41211D02*
D03*
Y40601D02*
D03*
X33051Y42766D02*
D03*
Y43376D02*
D03*
X44843Y42933D02*
D03*
Y42323D02*
D03*
X53602Y39921D02*
D03*
Y39311D02*
D03*
X74724Y28829D02*
D03*
Y29439D02*
D03*
X68543Y28829D02*
D03*
Y29439D02*
D03*
X62402Y28829D02*
D03*
Y29439D02*
D03*
X56260Y28829D02*
D03*
Y29439D02*
D03*
X50118Y28829D02*
D03*
Y29439D02*
D03*
X43976Y28829D02*
D03*
Y29439D02*
D03*
X37835Y28829D02*
D03*
Y29439D02*
D03*
X31693Y28829D02*
D03*
Y29439D02*
D03*
X19409Y28868D02*
D03*
Y29478D02*
D03*
X25551Y28829D02*
D03*
Y29439D02*
D03*
D82*
X28780Y37244D02*
D03*
X28110D02*
D03*
X28780Y38819D02*
D03*
X28110D02*
D03*
X35167Y35423D02*
D03*
X35837D02*
D03*
X33278Y35187D02*
D03*
X32608D02*
D03*
X33740Y40768D02*
D03*
X34409D02*
D03*
X45591Y40768D02*
D03*
X46260D02*
D03*
X48051Y40876D02*
D03*
X47382D02*
D03*
X75079Y33061D02*
D03*
X75748D02*
D03*
X68888D02*
D03*
X69557D02*
D03*
X62746D02*
D03*
X63415D02*
D03*
X56614D02*
D03*
X57283D02*
D03*
X50472D02*
D03*
X51142D02*
D03*
X44321D02*
D03*
X44990D02*
D03*
X38179D02*
D03*
X38848D02*
D03*
X32028D02*
D03*
X32697D02*
D03*
X25886D02*
D03*
X26555D02*
D03*
X19764D02*
D03*
X20433D02*
D03*
D83*
X30098Y38819D02*
D03*
Y37244D02*
D03*
D84*
X32382Y37933D02*
D03*
Y38130D02*
D03*
Y38327D02*
D03*
Y38524D02*
D03*
Y38720D02*
D03*
Y38917D02*
D03*
Y39114D02*
D03*
Y36949D02*
D03*
Y37146D02*
D03*
Y37343D02*
D03*
Y37539D02*
D03*
Y37736D02*
D03*
X35689Y38130D02*
D03*
Y37933D02*
D03*
Y39114D02*
D03*
Y38917D02*
D03*
Y38720D02*
D03*
Y38524D02*
D03*
Y38327D02*
D03*
Y37736D02*
D03*
Y37539D02*
D03*
Y37343D02*
D03*
Y37146D02*
D03*
Y36949D02*
D03*
D85*
X34921Y39685D02*
D03*
X35118D02*
D03*
Y36378D02*
D03*
X34921D02*
D03*
X32953Y39685D02*
D03*
X33150D02*
D03*
X33346D02*
D03*
X33543D02*
D03*
X33740D02*
D03*
X33937D02*
D03*
X34134D02*
D03*
X34331D02*
D03*
X34528D02*
D03*
X34724D02*
D03*
Y36378D02*
D03*
X34528D02*
D03*
X34331D02*
D03*
X34134D02*
D03*
X33937D02*
D03*
X33740D02*
D03*
X33543D02*
D03*
X33346D02*
D03*
X33150D02*
D03*
X32953D02*
D03*
D86*
X62539Y40935D02*
D03*
X63149D02*
D03*
X62539Y38907D02*
D03*
X63149D02*
D03*
X45532Y41476D02*
D03*
X46142D02*
D03*
X57283Y38061D02*
D03*
X56673D02*
D03*
X56102D02*
D03*
X55492D02*
D03*
X75689Y32392D02*
D03*
X75079D02*
D03*
X69498D02*
D03*
X68888D02*
D03*
X63356D02*
D03*
X62746D02*
D03*
X57224D02*
D03*
X56614D02*
D03*
X51083D02*
D03*
X50473D02*
D03*
X44931D02*
D03*
X44321D02*
D03*
X38789D02*
D03*
X38179D02*
D03*
X32638D02*
D03*
X32028D02*
D03*
X26496D02*
D03*
X25886D02*
D03*
X73307Y31348D02*
D03*
X72697D02*
D03*
X67126D02*
D03*
X66516D02*
D03*
X60984D02*
D03*
X60374D02*
D03*
X54843D02*
D03*
X54233D02*
D03*
X48701D02*
D03*
X48091D02*
D03*
X42559D02*
D03*
X41949D02*
D03*
X36417D02*
D03*
X35807D02*
D03*
X30266D02*
D03*
X29656D02*
D03*
X24124D02*
D03*
X23514D02*
D03*
X17992D02*
D03*
X17382D02*
D03*
X20374Y32392D02*
D03*
X19764D02*
D03*
D87*
X44094Y42933D02*
D03*
Y43642D02*
D03*
D88*
X52470Y39931D02*
D03*
Y38317D02*
D03*
D89*
X58292Y37028D02*
D03*
Y36228D02*
D03*
X59202Y36628D02*
D03*
X38184Y30945D02*
D03*
Y31745D02*
D03*
X37274Y31345D02*
D03*
X32032Y30955D02*
D03*
Y31755D02*
D03*
X31122Y31355D02*
D03*
X25891Y30945D02*
D03*
Y31745D02*
D03*
X24981Y31345D02*
D03*
X75074Y30945D02*
D03*
Y31745D02*
D03*
X74164Y31345D02*
D03*
X68893Y30945D02*
D03*
Y31745D02*
D03*
X67983Y31345D02*
D03*
X62751Y30945D02*
D03*
Y31745D02*
D03*
X61841Y31345D02*
D03*
X56609Y30945D02*
D03*
Y31745D02*
D03*
X55699Y31345D02*
D03*
X50467Y30955D02*
D03*
Y31755D02*
D03*
X49557Y31355D02*
D03*
X44326Y30945D02*
D03*
Y31745D02*
D03*
X43416Y31345D02*
D03*
X19759Y30945D02*
D03*
Y31745D02*
D03*
X18849Y31345D02*
D03*
X57141Y41486D02*
D03*
Y42286D02*
D03*
X56231Y41886D02*
D03*
D90*
X56885Y39423D02*
D03*
X54685D02*
D03*
X56885Y38923D02*
D03*
X54685D02*
D03*
X56885Y40423D02*
D03*
Y39923D02*
D03*
X54685D02*
D03*
Y40423D02*
D03*
D91*
X68435Y43947D02*
D03*
X70049D02*
D03*
D92*
X60118Y37559D02*
D03*
X61378D02*
D03*
X60118Y35581D02*
D03*
X61378D02*
D03*
D93*
X77047Y28189D02*
D03*
Y29449D02*
D03*
X17795D02*
D03*
Y28189D02*
D03*
X48504Y29449D02*
D03*
Y28189D02*
D03*
X23937Y29449D02*
D03*
Y28189D02*
D03*
X54646Y29449D02*
D03*
Y28189D02*
D03*
X30079Y29449D02*
D03*
Y28189D02*
D03*
X60787Y29449D02*
D03*
Y28189D02*
D03*
X36220Y29449D02*
D03*
Y28189D02*
D03*
X66929Y29449D02*
D03*
Y28189D02*
D03*
X42362Y29449D02*
D03*
Y28189D02*
D03*
X73110Y29449D02*
D03*
Y28189D02*
D03*
X21732D02*
D03*
Y29449D02*
D03*
X27874Y28189D02*
D03*
Y29449D02*
D03*
X34016Y28189D02*
D03*
Y29449D02*
D03*
X40157Y28189D02*
D03*
Y29449D02*
D03*
X46299Y28189D02*
D03*
Y29449D02*
D03*
X52441Y28189D02*
D03*
Y29449D02*
D03*
X58583Y28189D02*
D03*
Y29449D02*
D03*
X64724Y28189D02*
D03*
Y29449D02*
D03*
X70866Y28189D02*
D03*
Y29449D02*
D03*
D94*
X58553Y42805D02*
D03*
Y41663D02*
D03*
D95*
X56978Y43583D02*
D03*
Y44724D02*
D03*
X58002D02*
D03*
Y43583D02*
D03*
D96*
X58809Y43588D02*
D03*
X59609D02*
D03*
X59209Y44498D02*
D03*
X61329Y44582D02*
D03*
X60529D02*
D03*
X60929Y43672D02*
D03*
D97*
X62146Y45118D02*
D03*
X63287D02*
D03*
D98*
X60768Y39183D02*
D03*
D99*
Y41545D02*
D03*
D100*
X65876Y43957D02*
D03*
X63876D02*
D03*
X23652Y38793D02*
D03*
X26339Y38803D02*
D03*
X30240Y44370D02*
D03*
X31240Y43370D02*
D03*
X30240D02*
D03*
X29240Y44370D02*
D03*
Y43370D02*
D03*
X62943Y35585D02*
D03*
D101*
X23652Y39793D02*
D03*
X26339Y39803D02*
D03*
X62943Y36585D02*
D03*
D102*
X49498Y43691D02*
D03*
X52675Y43041D02*
D03*
X45856Y36949D02*
D03*
D103*
X49498Y42313D02*
D03*
X45856Y38327D02*
D03*
D104*
X54675Y43041D02*
D03*
D105*
X68543Y39528D02*
D03*
Y35591D02*
D03*
D106*
Y41496D02*
D03*
Y37559D02*
D03*
X19764Y24213D02*
D03*
X21732D02*
D03*
X50472D02*
D03*
X52441D02*
D03*
X25906D02*
D03*
X27874D02*
D03*
X56614D02*
D03*
X58583D02*
D03*
X32047D02*
D03*
X34016D02*
D03*
X62756D02*
D03*
X64724D02*
D03*
X38189D02*
D03*
X40157D02*
D03*
X68898Y24213D02*
D03*
X70866D02*
D03*
X44331Y24213D02*
D03*
X46299D02*
D03*
X75079Y24213D02*
D03*
X77047D02*
D03*
D107*
X31240Y44370D02*
D03*
D108*
X17795Y24213D02*
D03*
X48504D02*
D03*
X23937D02*
D03*
X54646D02*
D03*
X30079D02*
D03*
X60787D02*
D03*
X36220D02*
D03*
X66929Y24213D02*
D03*
X42362Y24213D02*
D03*
X73110Y24213D02*
D03*
D109*
X12894D02*
D03*
X81988D02*
D03*
X12894Y39961D02*
D03*
X81988D02*
D03*
X81988Y32087D02*
D03*
X12894D02*
D03*
M02*
