G04*
G04 #@! TF.GenerationSoftware,Altium Limited,Altium Designer,19.1.9 (167)*
G04*
G04 Layer_Color=32896*
%FSLAX24Y24*%
%MOIN*%
G70*
G01*
G75*
%ADD10C,0.0050*%
%ADD12C,0.0070*%
%ADD14C,0.0098*%
%ADD16C,0.0100*%
%ADD18C,0.0079*%
%ADD19C,0.0039*%
%ADD20C,0.0394*%
%ADD168C,0.0067*%
G36*
X22553Y9709D02*
X23273D01*
Y9599D01*
X22553D01*
Y9709D01*
D02*
G37*
G36*
X25517Y22338D02*
X24797D01*
Y22448D01*
X25517D01*
Y22338D01*
D02*
G37*
G36*
X43774Y18843D02*
X44494D01*
Y18733D01*
X43774D01*
Y18843D01*
D02*
G37*
G36*
X45724Y16923D02*
Y17643D01*
X45834D01*
Y16923D01*
X45724D01*
D02*
G37*
G36*
X43774Y21106D02*
X44494D01*
Y20996D01*
X43774D01*
Y21106D01*
D02*
G37*
G36*
X25517Y27181D02*
X24797D01*
Y27291D01*
X25517D01*
Y27181D01*
D02*
G37*
G36*
Y31354D02*
X24797D01*
Y31464D01*
X25517D01*
Y31354D01*
D02*
G37*
G36*
X43774Y23410D02*
X44494D01*
Y23300D01*
X43774D01*
Y23410D01*
D02*
G37*
G36*
X46526Y24959D02*
Y25209D01*
X46776D01*
Y24959D01*
X46526D01*
D02*
G37*
G36*
X46914Y36266D02*
Y35546D01*
X46804D01*
Y36266D01*
X46914D01*
D02*
G37*
D10*
X27801Y11973D02*
Y12673D01*
X28301Y11973D02*
Y12673D01*
X27801D02*
X28301Y12323D01*
X27801Y11973D02*
X28301Y12323D01*
X27091Y15911D02*
X27791D01*
X27091Y16411D02*
X27791D01*
X27091Y15911D02*
X27441Y16411D01*
X27791Y15911D01*
X32289Y10516D02*
X32789Y10866D01*
X32289Y11216D02*
X32789Y10866D01*
Y10516D02*
Y11216D01*
X32289Y10516D02*
Y11216D01*
D12*
X47341Y28163D02*
G03*
X46831Y28162I-255J-609D01*
G01*
Y26955D02*
G03*
X47341Y26955I256J608D01*
G01*
X36982Y26240D02*
G03*
X36982Y26751I-608J256D01*
G01*
X35774D02*
G03*
X35775Y26240I609J-255D01*
G01*
X36595Y26916D02*
G03*
X37105Y26915I256J608D01*
G01*
Y28123D02*
G03*
X36595Y28123I-255J-609D01*
G01*
X36201Y24869D02*
G03*
X36711Y24868I256J608D01*
G01*
Y26076D02*
G03*
X36201Y26076I-255J-609D01*
G01*
X36831Y24869D02*
G03*
X37341Y24868I256J608D01*
G01*
Y26076D02*
G03*
X36831Y26076I-255J-609D01*
G01*
X35302Y13837D02*
G03*
X35302Y13327I609J-255D01*
G01*
X36509D02*
G03*
X36510Y13837I-608J256D01*
G01*
X25963Y8399D02*
G03*
X25453Y8398I-255J-609D01*
G01*
Y7191D02*
G03*
X25963Y7191I256J608D01*
G01*
X25453Y5735D02*
G03*
X25964Y5736I255J609D01*
G01*
Y6942D02*
G03*
X25453Y6943I-256J-608D01*
G01*
X25502Y15571D02*
X26545D01*
X25502Y15059D02*
X26545D01*
X25502D02*
Y15571D01*
X26545Y15059D02*
Y15571D01*
X24665Y10502D02*
Y11545D01*
X24154Y10502D02*
Y11545D01*
X24665D01*
X24154Y10502D02*
X24665D01*
X41437Y33100D02*
Y34144D01*
X41949Y33100D02*
Y34144D01*
X41437Y33100D02*
X41949D01*
X41437Y34144D02*
X41949D01*
X29557Y31870D02*
Y32382D01*
X30600Y31870D02*
Y32382D01*
X29557D02*
X30600D01*
X29557Y31870D02*
X30600D01*
X31161Y33760D02*
X31673D01*
X31161Y32717D02*
X31673D01*
Y33760D01*
X31161Y32717D02*
Y33760D01*
X32736D02*
X33248D01*
X32736Y32717D02*
X33248D01*
Y33760D01*
X32736Y32717D02*
Y33760D01*
X43051Y34675D02*
X43563D01*
X43051Y35719D02*
X43563D01*
X43051Y34675D02*
Y35719D01*
X43563Y34675D02*
Y35719D01*
X40571Y33917D02*
X41083D01*
X40571Y32874D02*
X41083D01*
Y33917D01*
X40571Y32874D02*
Y33917D01*
X38927Y32028D02*
Y32539D01*
X39970Y32028D02*
Y32539D01*
X38927D02*
X39970D01*
X38927Y32028D02*
X39970D01*
X34163D02*
Y32539D01*
X35207Y32028D02*
Y32539D01*
X34163D02*
X35207D01*
X34163Y32028D02*
X35207D01*
X35807Y33947D02*
X36319D01*
X35807Y32904D02*
X36319D01*
Y33947D01*
X35807Y32904D02*
Y33947D01*
X36988D02*
X37500D01*
X36988Y32904D02*
X37500D01*
Y33947D01*
X36988Y32904D02*
Y33947D01*
X47342Y26959D02*
Y28159D01*
X46831Y26959D02*
Y28159D01*
X35778Y26240D02*
X36978D01*
X35778Y26751D02*
X36978D01*
X36594Y26919D02*
Y28120D01*
X37105Y26919D02*
Y28119D01*
X36201Y24872D02*
Y26073D01*
X36712Y24872D02*
Y26072D01*
X36831Y24872D02*
Y26073D01*
X37342Y24872D02*
Y26072D01*
X35306Y13838D02*
X36506D01*
X35305Y13327D02*
X36506D01*
X35531Y9242D02*
Y10285D01*
X35020Y9242D02*
Y10285D01*
X35531D01*
X35020Y9242D02*
X35531D01*
Y10413D02*
Y11457D01*
X35020Y10413D02*
Y11457D01*
X35531D01*
X35020Y10413D02*
X35531D01*
X45059Y23573D02*
Y24616D01*
X45571Y23573D02*
Y24616D01*
X45059Y23573D02*
X45571D01*
X45059Y24616D02*
X45571D01*
X45807Y23573D02*
Y24616D01*
X46319Y23573D02*
Y24616D01*
X45807Y23573D02*
X46319D01*
X45807Y24616D02*
X46319D01*
X46516Y23573D02*
Y24616D01*
X47028Y23573D02*
Y24616D01*
X46516Y23573D02*
X47028D01*
X46516Y24616D02*
X47028D01*
X47224Y23573D02*
Y24616D01*
X47736Y23573D02*
Y24616D01*
X47224Y23573D02*
X47736D01*
X47224Y24616D02*
X47736D01*
X31565Y7657D02*
X32608D01*
X31565Y8169D02*
X32608D01*
Y7657D02*
Y8169D01*
X31565Y7657D02*
Y8169D01*
X27500Y21407D02*
Y22451D01*
X28012Y21407D02*
Y22451D01*
X27500Y21407D02*
X28012D01*
X27500Y22451D02*
X28012D01*
X27461Y27254D02*
X27972D01*
X27461Y26211D02*
X27972D01*
Y27254D01*
X27461Y26211D02*
Y27254D01*
X25856Y31988D02*
X26900D01*
X25856Y32500D02*
X26900D01*
Y31988D02*
Y32500D01*
X25856Y31988D02*
Y32500D01*
X23868Y11201D02*
Y11713D01*
X22825Y11201D02*
Y11713D01*
Y11201D02*
X23868D01*
X22825Y11713D02*
X23868D01*
X25964Y7195D02*
Y8395D01*
X25453Y7195D02*
Y8396D01*
Y5739D02*
Y6939D01*
X25964Y5738D02*
Y6939D01*
D14*
X25128Y8358D02*
G03*
X25128Y8358I-49J0D01*
G01*
D16*
X46574Y27086D02*
G03*
X46555Y26528I-19J-279D01*
G01*
X29974Y33528D02*
Y33828D01*
Y32628D02*
X30374D01*
X29974D02*
Y32928D01*
X30474Y33128D02*
Y33328D01*
X29974Y33828D02*
X30374D01*
X34576Y33640D02*
Y33940D01*
Y32740D02*
X34976D01*
X34576D02*
Y33040D01*
X35076Y33240D02*
Y33440D01*
X34576Y33940D02*
X34976D01*
X39364Y33640D02*
Y33940D01*
Y32740D02*
X39764D01*
X39364D02*
Y33040D01*
X39864Y33240D02*
Y33440D01*
X39364Y33940D02*
X39764D01*
X44913Y35312D02*
Y35612D01*
X44513Y36512D02*
X44913D01*
Y36212D02*
Y36512D01*
X44413Y35812D02*
Y36012D01*
X44513Y35312D02*
X44913D01*
X44376Y27309D02*
X46576D01*
X44376Y26309D02*
X46576D01*
X44376D02*
Y27309D01*
X46576Y27109D02*
Y27309D01*
Y26309D02*
Y26509D01*
X42002Y12912D02*
Y13212D01*
Y12012D02*
X42402D01*
X42002D02*
Y12312D01*
X42502Y12512D02*
Y12712D01*
X42002Y13212D02*
X42402D01*
X40056Y15073D02*
X40356D01*
X41256D02*
Y15473D01*
X40956Y15073D02*
X41256D01*
X40556Y15573D02*
X40756D01*
X40056Y15073D02*
Y15473D01*
X41670Y14325D02*
X41970D01*
X42870D02*
Y14725D01*
X42570Y14325D02*
X42870D01*
X42170Y14825D02*
X42370D01*
X41670Y14325D02*
Y14725D01*
X33732Y7713D02*
Y8013D01*
X33331Y8913D02*
X33732D01*
Y8613D02*
Y8913D01*
X33231Y8213D02*
Y8413D01*
X33331Y7713D02*
X33732D01*
X26332Y22243D02*
Y22543D01*
Y21343D02*
X26732D01*
X26332D02*
Y21643D01*
X26832Y21843D02*
Y22043D01*
X26332Y22543D02*
X26732D01*
X26293Y27085D02*
Y27385D01*
Y26185D02*
X26693D01*
X26293D02*
Y26485D01*
X26793Y26685D02*
Y26885D01*
X26293Y27385D02*
X26693D01*
X25765Y30860D02*
X26065D01*
X26965D02*
Y31260D01*
X26665Y30860D02*
X26965D01*
X26265Y31360D02*
X26465D01*
X25765Y30860D02*
Y31260D01*
X21608Y11676D02*
X22008D01*
X22108Y10976D02*
Y11176D01*
X21608Y10476D02*
Y10776D01*
Y10476D02*
X22008D01*
X21608Y11376D02*
Y11676D01*
D18*
X22583Y9229D02*
X23243D01*
X22583D02*
X22913Y9659D01*
X23243Y9229D01*
X46434Y35576D02*
Y36236D01*
X46864Y35906D01*
X46434Y35576D02*
X46864Y35906D01*
X46870Y32126D02*
Y32835D01*
X44941Y32126D02*
Y32835D01*
X27008Y12785D02*
Y12894D01*
Y11752D02*
Y11860D01*
X29094Y12785D02*
Y12894D01*
Y11752D02*
Y11860D01*
X27008Y12894D02*
X29094D01*
X27008Y11752D02*
X29094D01*
X26870Y15118D02*
X26978D01*
X27904D02*
X28012D01*
X26870Y17205D02*
X26978D01*
X27904D02*
X28012D01*
X26870Y15118D02*
Y17205D01*
X28012Y15118D02*
Y17205D01*
X31496Y10295D02*
X33583D01*
X31496Y11437D02*
X33583D01*
Y10295D02*
Y10404D01*
Y11329D02*
Y11437D01*
X31496Y10295D02*
Y10404D01*
Y11329D02*
Y11437D01*
X46204Y16953D02*
Y17613D01*
X45774Y17283D02*
X46204Y16953D01*
X45774Y17283D02*
X46204Y17613D01*
X43804Y20626D02*
X44464D01*
X43804D02*
X44134Y21056D01*
X44464Y20626D01*
X43804Y22930D02*
X44464D01*
X43804D02*
X44134Y23360D01*
X44464Y22930D01*
X43804Y18363D02*
X44464D01*
X43804D02*
X44134Y18793D01*
X44464Y18363D01*
X39902Y13701D02*
X40335D01*
X39902Y14331D02*
X40335D01*
X39843Y15138D02*
Y15571D01*
X39213Y15138D02*
Y15571D01*
X42717Y16516D02*
Y16949D01*
X43346Y16516D02*
Y16949D01*
X39862Y10276D02*
X40217D01*
X39862Y9173D02*
X40217D01*
X37953Y8799D02*
Y9154D01*
X36850Y8799D02*
Y9154D01*
X24827Y22818D02*
X25487D01*
X25157Y22388D02*
X25487Y22818D01*
X24827D02*
X25157Y22388D01*
X24827Y27661D02*
X25487D01*
X25157Y27231D02*
X25487Y27661D01*
X24827D02*
X25157Y27231D01*
X24827Y31834D02*
X25487D01*
X25157Y31404D02*
X25487Y31834D01*
X24827D02*
X25157Y31404D01*
X20856Y12175D02*
X22431D01*
X20856D02*
Y15167D01*
X22431D01*
Y12175D02*
Y15167D01*
X22864Y12175D02*
X24439D01*
X22864D02*
Y15167D01*
X24439D01*
Y12175D02*
Y15167D01*
X24183Y5720D02*
Y8358D01*
X23750D02*
X24183D01*
X23750Y5720D02*
X24183D01*
X23707Y9882D02*
X23497D01*
X23392Y9987D01*
X23497Y10092D01*
X23707D01*
Y10197D02*
X23392D01*
Y10355D01*
X23444Y10407D01*
X23654D01*
X23707Y10355D01*
Y10197D01*
X23392Y10722D02*
Y10512D01*
X23602Y10722D01*
X23654D01*
X23707Y10669D01*
Y10564D01*
X23654Y10512D01*
X23707Y11037D02*
Y10827D01*
X23549D01*
X23602Y10932D01*
Y10984D01*
X23549Y11037D01*
X23444D01*
X23392Y10984D01*
Y10879D01*
X23444Y10827D01*
X28543Y11575D02*
Y11365D01*
X28438Y11260D01*
X28333Y11365D01*
Y11575D01*
X28228D02*
Y11260D01*
X28071D01*
X28019Y11312D01*
Y11522D01*
X28071Y11575D01*
X28228D01*
X27914Y11260D02*
X27809D01*
X27861D01*
Y11575D01*
X27914Y11522D01*
X27441Y11575D02*
X27546Y11522D01*
X27651Y11417D01*
Y11312D01*
X27599Y11260D01*
X27494D01*
X27441Y11312D01*
Y11365D01*
X27494Y11417D01*
X27651D01*
X21378Y11693D02*
Y12008D01*
X21221D01*
X21168Y11955D01*
Y11850D01*
X21221Y11798D01*
X21378D01*
X21273D02*
X21168Y11693D01*
X20853Y12008D02*
X21063D01*
Y11850D01*
X20958Y11903D01*
X20906D01*
X20853Y11850D01*
Y11745D01*
X20906Y11693D01*
X21011D01*
X21063Y11745D01*
X20748Y11693D02*
X20643D01*
X20696D01*
Y12008D01*
X20748Y11955D01*
X47165Y35354D02*
Y35144D01*
X47060Y35039D01*
X46955Y35144D01*
Y35354D01*
X46851D02*
Y35039D01*
X46693D01*
X46641Y35092D01*
Y35302D01*
X46693Y35354D01*
X46851D01*
X46536Y35039D02*
X46431D01*
X46483D01*
Y35354D01*
X46536Y35302D01*
X46116Y35039D02*
Y35354D01*
X46273Y35197D01*
X46063D01*
X40827Y17165D02*
Y17480D01*
X40669D01*
X40617Y17428D01*
Y17323D01*
X40669Y17270D01*
X40827D01*
X40722D02*
X40617Y17165D01*
X40302Y17480D02*
X40407Y17428D01*
X40512Y17323D01*
Y17218D01*
X40459Y17165D01*
X40354D01*
X40302Y17218D01*
Y17270D01*
X40354Y17323D01*
X40512D01*
X40197Y17428D02*
X40145Y17480D01*
X40040D01*
X39987Y17428D01*
Y17375D01*
X40040Y17323D01*
X40092D01*
X40040D01*
X39987Y17270D01*
Y17218D01*
X40040Y17165D01*
X40145D01*
X40197Y17218D01*
X39311Y19055D02*
Y19370D01*
X39154D01*
X39101Y19318D01*
Y19213D01*
X39154Y19160D01*
X39311D01*
X39206D02*
X39101Y19055D01*
X38786Y19370D02*
X38891Y19318D01*
X38996Y19213D01*
Y19108D01*
X38944Y19055D01*
X38839D01*
X38786Y19108D01*
Y19160D01*
X38839Y19213D01*
X38996D01*
X38471Y19055D02*
X38681D01*
X38471Y19265D01*
Y19318D01*
X38524Y19370D01*
X38629D01*
X38681Y19318D01*
X24882Y6567D02*
X24567D01*
Y6724D01*
X24619Y6777D01*
X24829D01*
X24882Y6724D01*
Y6567D01*
X24567Y6882D02*
X24777D01*
X24882Y6987D01*
X24777Y7092D01*
X24567D01*
X24724D01*
Y6882D01*
X24567Y7354D02*
X24882D01*
X24724Y7197D01*
Y7407D01*
X26404Y6273D02*
X26457Y6220D01*
Y6115D01*
X26404Y6063D01*
X26194D01*
X26142Y6115D01*
Y6220D01*
X26194Y6273D01*
X26404Y6378D02*
X26457Y6430D01*
Y6535D01*
X26404Y6588D01*
X26352D01*
X26299Y6535D01*
Y6483D01*
Y6535D01*
X26247Y6588D01*
X26194D01*
X26142Y6535D01*
Y6430D01*
X26194Y6378D01*
X26142Y6850D02*
X26457D01*
X26299Y6693D01*
Y6903D01*
X26404Y7651D02*
X26457Y7598D01*
Y7493D01*
X26404Y7441D01*
X26194D01*
X26142Y7493D01*
Y7598D01*
X26194Y7651D01*
X26404Y7756D02*
X26457Y7808D01*
Y7913D01*
X26404Y7966D01*
X26352D01*
X26299Y7913D01*
Y7861D01*
Y7913D01*
X26247Y7966D01*
X26194D01*
X26142Y7913D01*
Y7808D01*
X26194Y7756D01*
X26142Y8281D02*
Y8071D01*
X26352Y8281D01*
X26404D01*
X26457Y8228D01*
Y8123D01*
X26404Y8071D01*
X41102Y16575D02*
Y16365D01*
X40997Y16260D01*
X40892Y16365D01*
Y16575D01*
X40788D02*
X40578D01*
X40683D01*
Y16260D01*
X40473D02*
X40368D01*
X40420D01*
Y16575D01*
X40473Y16522D01*
X40210Y16260D02*
X40105D01*
X40158D01*
Y16575D01*
X40210Y16522D01*
X26890Y27874D02*
Y27664D01*
X26785Y27559D01*
X26680Y27664D01*
Y27874D01*
X26575D02*
X26365D01*
X26470D01*
Y27559D01*
X26260Y27612D02*
X26208Y27559D01*
X26103D01*
X26050Y27612D01*
Y27821D01*
X26103Y27874D01*
X26208D01*
X26260Y27821D01*
Y27769D01*
X26208Y27716D01*
X26050D01*
X26850Y30236D02*
Y30026D01*
X26745Y29921D01*
X26640Y30026D01*
Y30236D01*
X26536D02*
X26326D01*
X26431D01*
Y29921D01*
X26221Y30184D02*
X26168Y30236D01*
X26063D01*
X26011Y30184D01*
Y30131D01*
X26063Y30079D01*
X26011Y30026D01*
Y29974D01*
X26063Y29921D01*
X26168D01*
X26221Y29974D01*
Y30026D01*
X26168Y30079D01*
X26221Y30131D01*
Y30184D01*
X26168Y30079D02*
X26063D01*
X27008Y23031D02*
Y22821D01*
X26903Y22717D01*
X26798Y22821D01*
Y23031D01*
X26693D02*
X26483D01*
X26588D01*
Y22717D01*
X26378Y23031D02*
X26168D01*
Y22979D01*
X26378Y22769D01*
Y22717D01*
X45039Y35157D02*
Y34947D01*
X44934Y34843D01*
X44829Y34947D01*
Y35157D01*
X44725D02*
X44515D01*
X44620D01*
Y34843D01*
X44200Y35157D02*
X44305Y35105D01*
X44410Y35000D01*
Y34895D01*
X44357Y34843D01*
X44252D01*
X44200Y34895D01*
Y34947D01*
X44252Y35000D01*
X44410D01*
X33937Y9449D02*
Y9239D01*
X33832Y9134D01*
X33727Y9239D01*
Y9449D01*
X33622D02*
X33412D01*
X33517D01*
Y9134D01*
X33097Y9449D02*
X33307D01*
Y9291D01*
X33202Y9344D01*
X33150D01*
X33097Y9291D01*
Y9186D01*
X33150Y9134D01*
X33255D01*
X33307Y9186D01*
X30551Y34370D02*
Y34160D01*
X30446Y34055D01*
X30341Y34160D01*
Y34370D01*
X30236D02*
X30026D01*
X30131D01*
Y34055D01*
X29764D02*
Y34370D01*
X29921Y34213D01*
X29712D01*
X38779Y32913D02*
X38570D01*
X38465Y33018D01*
X38570Y33123D01*
X38779D01*
Y33228D02*
Y33438D01*
Y33333D01*
X38465D01*
X38727Y33543D02*
X38779Y33596D01*
Y33701D01*
X38727Y33753D01*
X38674D01*
X38622Y33701D01*
Y33648D01*
Y33701D01*
X38570Y33753D01*
X38517D01*
X38465Y33701D01*
Y33596D01*
X38517Y33543D01*
X35236Y34488D02*
Y34278D01*
X35131Y34173D01*
X35026Y34278D01*
Y34488D01*
X34921D02*
X34711D01*
X34816D01*
Y34173D01*
X34397D02*
X34606D01*
X34397Y34383D01*
Y34436D01*
X34449Y34488D01*
X34554D01*
X34606Y34436D01*
X20866Y10669D02*
X20656D01*
X20551Y10774D01*
X20656Y10879D01*
X20866D01*
Y10984D02*
Y11194D01*
Y11089D01*
X20551D01*
Y11299D02*
Y11404D01*
Y11351D01*
X20866D01*
X20814Y11299D01*
X43583Y22638D02*
X43373D01*
X43268Y22743D01*
X43373Y22848D01*
X43583D01*
Y22953D02*
X43268D01*
Y23110D01*
X43320Y23163D01*
X43530D01*
X43583Y23110D01*
Y22953D01*
X43530Y23268D02*
X43583Y23320D01*
Y23425D01*
X43530Y23477D01*
X43478D01*
X43425Y23425D01*
Y23372D01*
Y23425D01*
X43373Y23477D01*
X43320D01*
X43268Y23425D01*
Y23320D01*
X43320Y23268D01*
X43530Y23582D02*
X43583Y23635D01*
Y23740D01*
X43530Y23792D01*
X43320D01*
X43268Y23740D01*
Y23635D01*
X43320Y23582D01*
X43530D01*
X43583Y18032D02*
X43373D01*
X43268Y18136D01*
X43373Y18241D01*
X43583D01*
Y18346D02*
X43268D01*
Y18504D01*
X43320Y18556D01*
X43530D01*
X43583Y18504D01*
Y18346D01*
X43268Y18871D02*
Y18661D01*
X43478Y18871D01*
X43530D01*
X43583Y18819D01*
Y18714D01*
X43530Y18661D01*
X43320Y18976D02*
X43268Y19029D01*
Y19133D01*
X43320Y19186D01*
X43530D01*
X43583Y19133D01*
Y19029D01*
X43530Y18976D01*
X43478D01*
X43425Y19029D01*
Y19186D01*
X43583Y20295D02*
X43373D01*
X43268Y20400D01*
X43373Y20505D01*
X43583D01*
Y20610D02*
X43268D01*
Y20767D01*
X43320Y20820D01*
X43530D01*
X43583Y20767D01*
Y20610D01*
X43268Y21135D02*
Y20925D01*
X43478Y21135D01*
X43530D01*
X43583Y21082D01*
Y20977D01*
X43530Y20925D01*
Y21239D02*
X43583Y21292D01*
Y21397D01*
X43530Y21449D01*
X43478D01*
X43425Y21397D01*
X43373Y21449D01*
X43320D01*
X43268Y21397D01*
Y21292D01*
X43320Y21239D01*
X43373D01*
X43425Y21292D01*
X43478Y21239D01*
X43530D01*
X43425Y21292D02*
Y21397D01*
X46575Y18149D02*
Y17940D01*
X46470Y17835D01*
X46365Y17940D01*
Y18149D01*
X46260D02*
Y17835D01*
X46103D01*
X46050Y17887D01*
Y18097D01*
X46103Y18149D01*
X46260D01*
X45735Y17835D02*
X45945D01*
X45735Y18045D01*
Y18097D01*
X45788Y18149D01*
X45893D01*
X45945Y18097D01*
X45630Y18149D02*
X45420D01*
Y18097D01*
X45630Y17887D01*
Y17835D01*
X33189Y11968D02*
Y11759D01*
X33084Y11654D01*
X32979Y11759D01*
Y11968D01*
X32874D02*
Y11654D01*
X32717D01*
X32664Y11706D01*
Y11916D01*
X32717Y11968D01*
X32874D01*
X32349Y11654D02*
X32559D01*
X32349Y11863D01*
Y11916D01*
X32402Y11968D01*
X32507D01*
X32559Y11916D01*
X32087Y11654D02*
Y11968D01*
X32244Y11811D01*
X32034D01*
X43504Y12126D02*
X43294D01*
X43189Y12231D01*
X43294Y12336D01*
X43504D01*
Y12441D02*
X43189D01*
Y12598D01*
X43241Y12651D01*
X43451D01*
X43504Y12598D01*
Y12441D01*
X43189Y12966D02*
Y12756D01*
X43399Y12966D01*
X43451D01*
X43504Y12913D01*
Y12808D01*
X43451Y12756D01*
Y13071D02*
X43504Y13123D01*
Y13228D01*
X43451Y13280D01*
X43399D01*
X43346Y13228D01*
Y13176D01*
Y13228D01*
X43294Y13280D01*
X43241D01*
X43189Y13228D01*
Y13123D01*
X43241Y13071D01*
X43425Y14094D02*
X43215D01*
X43110Y14199D01*
X43215Y14304D01*
X43425D01*
Y14409D02*
X43110D01*
Y14567D01*
X43163Y14619D01*
X43373D01*
X43425Y14567D01*
Y14409D01*
X43110Y14934D02*
Y14724D01*
X43320Y14934D01*
X43373D01*
X43425Y14882D01*
Y14777D01*
X43373Y14724D01*
Y15039D02*
X43425Y15092D01*
Y15196D01*
X43373Y15249D01*
X43163D01*
X43110Y15196D01*
Y15092D01*
X43163Y15039D01*
X43373D01*
X25236Y25276D02*
X25026D01*
X24921Y25381D01*
X25026Y25485D01*
X25236D01*
Y25590D02*
X24921D01*
Y25748D01*
X24974Y25800D01*
X25184D01*
X25236Y25748D01*
Y25590D01*
X24921Y25905D02*
Y26010D01*
Y25958D01*
X25236D01*
X25184Y25905D01*
X25236Y26168D02*
Y26378D01*
X25184D01*
X24974Y26168D01*
X24921D01*
X25315Y29488D02*
X25105D01*
X25000Y29593D01*
X25105Y29698D01*
X25315D01*
Y29803D02*
X25000D01*
Y29960D01*
X25052Y30013D01*
X25262D01*
X25315Y29960D01*
Y29803D01*
X25000Y30118D02*
Y30223D01*
Y30170D01*
X25315D01*
X25262Y30118D01*
X25000Y30380D02*
Y30485D01*
Y30433D01*
X25315D01*
X25262Y30380D01*
X25275Y20433D02*
X25066D01*
X24961Y20538D01*
X25066Y20643D01*
X25275D01*
Y20748D02*
X24961D01*
Y20905D01*
X25013Y20958D01*
X25223D01*
X25275Y20905D01*
Y20748D01*
X24961Y21063D02*
Y21168D01*
Y21115D01*
X25275D01*
X25223Y21063D01*
Y21325D02*
X25275Y21378D01*
Y21483D01*
X25223Y21535D01*
X25013D01*
X24961Y21483D01*
Y21378D01*
X25013Y21325D01*
X25223D01*
X27835Y17874D02*
Y17664D01*
X27730Y17559D01*
X27625Y17664D01*
Y17874D01*
X27520D02*
Y17559D01*
X27362D01*
X27310Y17612D01*
Y17821D01*
X27362Y17874D01*
X27520D01*
X27205Y17612D02*
X27152Y17559D01*
X27048D01*
X26995Y17612D01*
Y17821D01*
X27048Y17874D01*
X27152D01*
X27205Y17821D01*
Y17769D01*
X27152Y17716D01*
X26995D01*
X28150Y26417D02*
X28464D01*
Y26575D01*
X28412Y26627D01*
X28307D01*
X28255Y26575D01*
Y26417D01*
Y26522D02*
X28150Y26627D01*
X28464Y26942D02*
X28412Y26837D01*
X28307Y26732D01*
X28202D01*
X28150Y26785D01*
Y26890D01*
X28202Y26942D01*
X28255D01*
X28307Y26890D01*
Y26732D01*
X28150Y27047D02*
Y27152D01*
Y27100D01*
X28464D01*
X28412Y27047D01*
X47323Y24803D02*
X47638D01*
Y24961D01*
X47585Y25013D01*
X47480D01*
X47428Y24961D01*
Y24803D01*
Y24908D02*
X47323Y25013D01*
X47638Y25328D02*
Y25118D01*
X47480D01*
X47533Y25223D01*
Y25275D01*
X47480Y25328D01*
X47375D01*
X47323Y25275D01*
Y25170D01*
X47375Y25118D01*
Y25433D02*
X47323Y25485D01*
Y25590D01*
X47375Y25643D01*
X47585D01*
X47638Y25590D01*
Y25485D01*
X47585Y25433D01*
X47533D01*
X47480Y25485D01*
Y25643D01*
X47165Y23110D02*
Y23425D01*
X47008D01*
X46955Y23373D01*
Y23268D01*
X47008Y23215D01*
X47165D01*
X47060D02*
X46955Y23110D01*
X46641Y23425D02*
X46851D01*
Y23268D01*
X46746Y23320D01*
X46693D01*
X46641Y23268D01*
Y23163D01*
X46693Y23110D01*
X46798D01*
X46851Y23163D01*
X46536Y23373D02*
X46483Y23425D01*
X46378D01*
X46326Y23373D01*
Y23320D01*
X46378Y23268D01*
X46326Y23215D01*
Y23163D01*
X46378Y23110D01*
X46483D01*
X46536Y23163D01*
Y23215D01*
X46483Y23268D01*
X46536Y23320D01*
Y23373D01*
X46483Y23268D02*
X46378D01*
X46260Y24803D02*
Y25118D01*
X46102D01*
X46050Y25066D01*
Y24961D01*
X46102Y24908D01*
X46260D01*
X46155D02*
X46050Y24803D01*
X45735Y25118D02*
X45945D01*
Y24961D01*
X45840Y25013D01*
X45788D01*
X45735Y24961D01*
Y24856D01*
X45788Y24803D01*
X45893D01*
X45945Y24856D01*
X45630Y25118D02*
X45420D01*
Y25066D01*
X45630Y24856D01*
Y24803D01*
X44567Y23701D02*
X44882D01*
Y23858D01*
X44829Y23911D01*
X44724D01*
X44672Y23858D01*
Y23701D01*
Y23806D02*
X44567Y23911D01*
X44882Y24226D02*
Y24016D01*
X44724D01*
X44777Y24121D01*
Y24173D01*
X44724Y24226D01*
X44619D01*
X44567Y24173D01*
Y24068D01*
X44619Y24016D01*
X44882Y24540D02*
X44829Y24435D01*
X44724Y24330D01*
X44619D01*
X44567Y24383D01*
Y24488D01*
X44619Y24540D01*
X44672D01*
X44724Y24488D01*
Y24330D01*
X26417Y15748D02*
Y16063D01*
X26260D01*
X26207Y16010D01*
Y15905D01*
X26260Y15853D01*
X26417D01*
X26312D02*
X26207Y15748D01*
X25893Y16063D02*
X26102D01*
Y15905D01*
X25998Y15958D01*
X25945D01*
X25893Y15905D01*
Y15801D01*
X25945Y15748D01*
X26050D01*
X26102Y15801D01*
X25630Y15748D02*
Y16063D01*
X25788Y15905D01*
X25578D01*
X24606Y13189D02*
X24921D01*
Y13346D01*
X24869Y13399D01*
X24764D01*
X24711Y13346D01*
Y13189D01*
Y13294D02*
X24606Y13399D01*
X24921Y13714D02*
Y13504D01*
X24764D01*
X24816Y13609D01*
Y13661D01*
X24764Y13714D01*
X24659D01*
X24606Y13661D01*
Y13556D01*
X24659Y13504D01*
X24869Y13819D02*
X24921Y13871D01*
Y13976D01*
X24869Y14029D01*
X24659D01*
X24606Y13976D01*
Y13871D01*
X24659Y13819D01*
X24869D01*
X35748Y9331D02*
X36063D01*
Y9488D01*
X36010Y9541D01*
X35905D01*
X35853Y9488D01*
Y9331D01*
Y9436D02*
X35748Y9541D01*
Y9803D02*
X36063D01*
X35905Y9646D01*
Y9855D01*
X35801Y9960D02*
X35748Y10013D01*
Y10118D01*
X35801Y10170D01*
X36010D01*
X36063Y10118D01*
Y10013D01*
X36010Y9960D01*
X35958D01*
X35905Y10013D01*
Y10170D01*
X35709Y10512D02*
X36024D01*
Y10669D01*
X35971Y10722D01*
X35866D01*
X35814Y10669D01*
Y10512D01*
Y10617D02*
X35709Y10722D01*
Y10984D02*
X36024D01*
X35866Y10827D01*
Y11037D01*
X36024Y11351D02*
X35971Y11246D01*
X35866Y11142D01*
X35761D01*
X35709Y11194D01*
Y11299D01*
X35761Y11351D01*
X35814D01*
X35866Y11299D01*
Y11142D01*
X43543Y16260D02*
X43858D01*
Y16417D01*
X43806Y16470D01*
X43701D01*
X43648Y16417D01*
Y16260D01*
Y16365D02*
X43543Y16470D01*
Y16732D02*
X43858D01*
X43701Y16575D01*
Y16785D01*
X43858Y17099D02*
Y16890D01*
X43701D01*
X43753Y16995D01*
Y17047D01*
X43701Y17099D01*
X43596D01*
X43543Y17047D01*
Y16942D01*
X43596Y16890D01*
X38661Y14882D02*
X38976D01*
Y15039D01*
X38924Y15092D01*
X38819D01*
X38766Y15039D01*
Y14882D01*
Y14987D02*
X38661Y15092D01*
Y15354D02*
X38976D01*
X38819Y15197D01*
Y15407D01*
X38661Y15669D02*
X38976D01*
X38819Y15512D01*
Y15722D01*
X41890Y13819D02*
Y14134D01*
X41732D01*
X41680Y14081D01*
Y13976D01*
X41732Y13924D01*
X41890D01*
X41785D02*
X41680Y13819D01*
X41417D02*
Y14134D01*
X41575Y13976D01*
X41365D01*
X41050Y13819D02*
X41260D01*
X41050Y14029D01*
Y14081D01*
X41103Y14134D01*
X41208D01*
X41260Y14081D01*
X27913Y32126D02*
Y32441D01*
X27756D01*
X27703Y32388D01*
Y32283D01*
X27756Y32231D01*
X27913D01*
X27808D02*
X27703Y32126D01*
X27599Y32388D02*
X27546Y32441D01*
X27441D01*
X27389Y32388D01*
Y32336D01*
X27441Y32283D01*
X27494D01*
X27441D01*
X27389Y32231D01*
Y32178D01*
X27441Y32126D01*
X27546D01*
X27599Y32178D01*
X27284D02*
X27231Y32126D01*
X27126D01*
X27074Y32178D01*
Y32388D01*
X27126Y32441D01*
X27231D01*
X27284Y32388D01*
Y32336D01*
X27231Y32283D01*
X27074D01*
X28189Y21535D02*
X28504D01*
Y21693D01*
X28451Y21745D01*
X28346D01*
X28294Y21693D01*
Y21535D01*
Y21640D02*
X28189Y21745D01*
X28451Y21850D02*
X28504Y21903D01*
Y22008D01*
X28451Y22060D01*
X28399D01*
X28346Y22008D01*
Y21955D01*
Y22008D01*
X28294Y22060D01*
X28241D01*
X28189Y22008D01*
Y21903D01*
X28241Y21850D01*
X28451Y22165D02*
X28504Y22218D01*
Y22323D01*
X28451Y22375D01*
X28399D01*
X28346Y22323D01*
X28294Y22375D01*
X28241D01*
X28189Y22323D01*
Y22218D01*
X28241Y22165D01*
X28294D01*
X28346Y22218D01*
X28399Y22165D01*
X28451D01*
X28346Y22218D02*
Y22323D01*
X42598Y34764D02*
X42913D01*
Y34921D01*
X42861Y34974D01*
X42756D01*
X42703Y34921D01*
Y34764D01*
Y34869D02*
X42598Y34974D01*
X42861Y35079D02*
X42913Y35131D01*
Y35236D01*
X42861Y35289D01*
X42808D01*
X42756Y35236D01*
Y35184D01*
Y35236D01*
X42703Y35289D01*
X42651D01*
X42598Y35236D01*
Y35131D01*
X42651Y35079D01*
X42913Y35603D02*
Y35394D01*
X42756D01*
X42808Y35498D01*
Y35551D01*
X42756Y35603D01*
X42651D01*
X42598Y35551D01*
Y35446D01*
X42651Y35394D01*
X32283Y7205D02*
Y7520D01*
X32126D01*
X32074Y7467D01*
Y7362D01*
X32126Y7310D01*
X32283D01*
X32179D02*
X32074Y7205D01*
X31969Y7467D02*
X31916Y7520D01*
X31811D01*
X31759Y7467D01*
Y7415D01*
X31811Y7362D01*
X31864D01*
X31811D01*
X31759Y7310D01*
Y7257D01*
X31811Y7205D01*
X31916D01*
X31969Y7257D01*
X31496Y7205D02*
Y7520D01*
X31654Y7362D01*
X31444D01*
X31850Y32835D02*
X32165D01*
Y32992D01*
X32113Y33045D01*
X32008D01*
X31955Y32992D01*
Y32835D01*
Y32940D02*
X31850Y33045D01*
X32113Y33149D02*
X32165Y33202D01*
Y33307D01*
X32113Y33359D01*
X32060D01*
X32008Y33307D01*
Y33254D01*
Y33307D01*
X31955Y33359D01*
X31903D01*
X31850Y33307D01*
Y33202D01*
X31903Y33149D01*
X31850Y33674D02*
Y33464D01*
X32060Y33674D01*
X32113D01*
X32165Y33622D01*
Y33517D01*
X32113Y33464D01*
X33425Y32835D02*
X33740D01*
Y32992D01*
X33688Y33045D01*
X33583D01*
X33530Y32992D01*
Y32835D01*
Y32940D02*
X33425Y33045D01*
X33688Y33149D02*
X33740Y33202D01*
Y33307D01*
X33688Y33359D01*
X33635D01*
X33583Y33307D01*
Y33254D01*
Y33307D01*
X33530Y33359D01*
X33478D01*
X33425Y33307D01*
Y33202D01*
X33478Y33149D01*
X33688Y33464D02*
X33740Y33517D01*
Y33622D01*
X33688Y33674D01*
X33478D01*
X33425Y33622D01*
Y33517D01*
X33478Y33464D01*
X33688D01*
X31654Y31969D02*
Y32283D01*
X31496D01*
X31444Y32231D01*
Y32126D01*
X31496Y32073D01*
X31654D01*
X31549D02*
X31444Y31969D01*
X31129D02*
X31339D01*
X31129Y32178D01*
Y32231D01*
X31181Y32283D01*
X31286D01*
X31339Y32231D01*
X31024Y32021D02*
X30971Y31969D01*
X30866D01*
X30814Y32021D01*
Y32231D01*
X30866Y32283D01*
X30971D01*
X31024Y32231D01*
Y32178D01*
X30971Y32126D01*
X30814D01*
X41181Y34094D02*
Y34409D01*
X41024D01*
X40971Y34357D01*
Y34252D01*
X41024Y34199D01*
X41181D01*
X41076D02*
X40971Y34094D01*
X40656D02*
X40866D01*
X40656Y34304D01*
Y34357D01*
X40709Y34409D01*
X40814D01*
X40866Y34357D01*
X40341Y34409D02*
X40446Y34357D01*
X40551Y34252D01*
Y34147D01*
X40499Y34094D01*
X40394D01*
X40341Y34147D01*
Y34199D01*
X40394Y34252D01*
X40551D01*
X42126Y33228D02*
X42441D01*
Y33386D01*
X42388Y33438D01*
X42283D01*
X42231Y33386D01*
Y33228D01*
Y33333D02*
X42126Y33438D01*
Y33753D02*
Y33543D01*
X42336Y33753D01*
X42388D01*
X42441Y33701D01*
Y33596D01*
X42388Y33543D01*
X42126Y34015D02*
X42441D01*
X42283Y33858D01*
Y34068D01*
X40984Y32126D02*
Y32441D01*
X40827D01*
X40774Y32388D01*
Y32283D01*
X40827Y32231D01*
X40984D01*
X40879D02*
X40774Y32126D01*
X40459D02*
X40669D01*
X40459Y32336D01*
Y32388D01*
X40512Y32441D01*
X40617D01*
X40669Y32388D01*
X40355D02*
X40302Y32441D01*
X40197D01*
X40145Y32388D01*
Y32336D01*
X40197Y32283D01*
X40250D01*
X40197D01*
X40145Y32231D01*
Y32178D01*
X40197Y32126D01*
X40302D01*
X40355Y32178D01*
X35866Y34094D02*
X36181D01*
Y34252D01*
X36129Y34304D01*
X36024D01*
X35971Y34252D01*
Y34094D01*
Y34199D02*
X35866Y34304D01*
Y34619D02*
Y34409D01*
X36076Y34619D01*
X36129D01*
X36181Y34567D01*
Y34462D01*
X36129Y34409D01*
Y34724D02*
X36181Y34777D01*
Y34882D01*
X36129Y34934D01*
X35919D01*
X35866Y34882D01*
Y34777D01*
X35919Y34724D01*
X36129D01*
X37087Y34094D02*
X37401D01*
Y34252D01*
X37349Y34304D01*
X37244D01*
X37192Y34252D01*
Y34094D01*
Y34199D02*
X37087Y34304D01*
Y34409D02*
Y34514D01*
Y34462D01*
X37401D01*
X37349Y34409D01*
Y34672D02*
X37401Y34724D01*
Y34829D01*
X37349Y34882D01*
X37297D01*
X37244Y34829D01*
X37192Y34882D01*
X37139D01*
X37087Y34829D01*
Y34724D01*
X37139Y34672D01*
X37192D01*
X37244Y34724D01*
X37297Y34672D01*
X37349D01*
X37244Y34724D02*
Y34829D01*
X36142Y32087D02*
Y32401D01*
X35984D01*
X35932Y32349D01*
Y32244D01*
X35984Y32192D01*
X36142D01*
X36037D02*
X35932Y32087D01*
X35827D02*
X35722D01*
X35774D01*
Y32401D01*
X35827Y32349D01*
X35564Y32401D02*
X35355D01*
Y32349D01*
X35564Y32139D01*
Y32087D01*
X39882Y12126D02*
Y12441D01*
X39724D01*
X39672Y12388D01*
Y12283D01*
X39724Y12231D01*
X39882D01*
X39777D02*
X39672Y12126D01*
X39567D02*
X39462D01*
X39515D01*
Y12441D01*
X39567Y12388D01*
X39305D02*
X39252Y12441D01*
X39147D01*
X39095Y12388D01*
Y12336D01*
X39147Y12283D01*
X39200D01*
X39147D01*
X39095Y12231D01*
Y12178D01*
X39147Y12126D01*
X39252D01*
X39305Y12178D01*
X24803Y11693D02*
Y12008D01*
X24646D01*
X24593Y11955D01*
Y11850D01*
X24646Y11798D01*
X24803D01*
X24698D02*
X24593Y11693D01*
X24488D02*
X24383D01*
X24436D01*
Y12008D01*
X24488Y11955D01*
X24016Y11693D02*
X24226D01*
X24016Y11903D01*
Y11955D01*
X24068Y12008D01*
X24173D01*
X24226Y11955D01*
X24843Y10630D02*
X25157D01*
Y10787D01*
X25105Y10840D01*
X25000D01*
X24947Y10787D01*
Y10630D01*
Y10735D02*
X24843Y10840D01*
Y10945D02*
Y11050D01*
Y10997D01*
X25157D01*
X25105Y10945D01*
Y11207D02*
X25157Y11260D01*
Y11365D01*
X25105Y11417D01*
X24895D01*
X24843Y11365D01*
Y11260D01*
X24895Y11207D01*
X25105D01*
X47520Y32297D02*
Y32087D01*
X47362D01*
Y32192D01*
Y32087D01*
X47205D01*
X47520Y32401D02*
X47257D01*
X47205Y32454D01*
Y32559D01*
X47257Y32611D01*
X47520D01*
Y32926D02*
Y32716D01*
X47362D01*
X47415Y32821D01*
Y32874D01*
X47362Y32926D01*
X47257D01*
X47205Y32874D01*
Y32769D01*
X47257Y32716D01*
X40223Y8976D02*
X40433D01*
Y8819D01*
X40328D01*
X40433D01*
Y8661D01*
X40118Y8976D02*
Y8714D01*
X40066Y8661D01*
X39961D01*
X39908Y8714D01*
Y8976D01*
X39593Y8661D02*
X39803D01*
X39593Y8871D01*
Y8924D01*
X39646Y8976D01*
X39751D01*
X39803Y8924D01*
X38464Y8871D02*
Y8661D01*
X38307D01*
Y8766D01*
Y8661D01*
X38150D01*
X38464Y8976D02*
X38202D01*
X38150Y9029D01*
Y9134D01*
X38202Y9186D01*
X38464D01*
X38150Y9291D02*
Y9396D01*
Y9344D01*
X38464D01*
X38412Y9291D01*
X47638Y26614D02*
Y26299D01*
X47480D01*
X47428Y26352D01*
Y26562D01*
X47480Y26614D01*
X47638D01*
X47323D02*
Y26299D01*
X47166D01*
X47113Y26352D01*
Y26562D01*
X47166Y26614D01*
X47323D01*
X47008Y26562D02*
X46956Y26614D01*
X46851D01*
X46798Y26562D01*
Y26509D01*
X46851Y26457D01*
X46903D01*
X46851D01*
X46798Y26404D01*
Y26352D01*
X46851Y26299D01*
X46956D01*
X47008Y26352D01*
X37349Y13688D02*
X37402Y13740D01*
X37507D01*
X37559Y13688D01*
Y13478D01*
X37507Y13425D01*
X37402D01*
X37349Y13478D01*
X37244Y13425D02*
X37139D01*
X37192D01*
Y13740D01*
X37244Y13688D01*
X36982Y13478D02*
X36929Y13425D01*
X36824D01*
X36772Y13478D01*
Y13688D01*
X36824Y13740D01*
X36929D01*
X36982Y13688D01*
Y13635D01*
X36929Y13583D01*
X36772D01*
X38845Y13215D02*
X38898Y13268D01*
X39003D01*
X39055Y13215D01*
Y13005D01*
X39003Y12953D01*
X38898D01*
X38845Y13005D01*
X38740Y12953D02*
X38635D01*
X38688D01*
Y13268D01*
X38740Y13215D01*
X38268Y13268D02*
X38478D01*
Y13110D01*
X38373Y13163D01*
X38320D01*
X38268Y13110D01*
Y13005D01*
X38320Y12953D01*
X38425D01*
X38478Y13005D01*
X47743Y27572D02*
X47795Y27520D01*
Y27415D01*
X47743Y27362D01*
X47533D01*
X47480Y27415D01*
Y27520D01*
X47533Y27572D01*
X47795Y27677D02*
Y27887D01*
X47743D01*
X47533Y27677D01*
X47480D01*
X36129Y27192D02*
X36181Y27244D01*
X36286D01*
X36339Y27192D01*
Y26982D01*
X36286Y26929D01*
X36181D01*
X36129Y26982D01*
X35866Y26929D02*
Y27244D01*
X36024Y27087D01*
X35814D01*
X37782Y25446D02*
X37835Y25394D01*
Y25289D01*
X37782Y25236D01*
X37572D01*
X37520Y25289D01*
Y25394D01*
X37572Y25446D01*
X37782Y25551D02*
X37835Y25604D01*
Y25709D01*
X37782Y25761D01*
X37730D01*
X37677Y25709D01*
Y25656D01*
Y25709D01*
X37625Y25761D01*
X37572D01*
X37520Y25709D01*
Y25604D01*
X37572Y25551D01*
X35971Y25446D02*
X36024Y25394D01*
Y25289D01*
X35971Y25236D01*
X35761D01*
X35709Y25289D01*
Y25394D01*
X35761Y25446D01*
X35709Y25761D02*
Y25551D01*
X35919Y25761D01*
X35971D01*
X36024Y25709D01*
Y25604D01*
X35971Y25551D01*
X37546Y27533D02*
X37598Y27480D01*
Y27375D01*
X37546Y27323D01*
X37336D01*
X37283Y27375D01*
Y27480D01*
X37336Y27533D01*
X37283Y27638D02*
Y27743D01*
Y27690D01*
X37598D01*
X37546Y27638D01*
D19*
X39461Y19524D02*
X40776D01*
X39461Y18823D02*
X40776D01*
X39461D02*
Y19524D01*
X40776Y18823D02*
Y19524D01*
X40996Y17673D02*
X42311D01*
X40996Y16972D02*
X42311D01*
X40996D02*
Y17673D01*
X42311Y16972D02*
Y17673D01*
X39138Y10681D02*
Y11996D01*
X39839Y10681D02*
Y11996D01*
X39138Y10681D02*
X39839D01*
X39138Y11996D02*
X39839D01*
D20*
X25827Y36063D02*
Y41535D01*
X24370Y34606D02*
X25827Y36063D01*
X24370Y16535D02*
Y34606D01*
X23425Y15591D02*
X24370Y16535D01*
X20551Y15591D02*
X23425D01*
X20236Y15276D02*
X20551Y15591D01*
X20236Y5512D02*
Y15276D01*
X19094Y4370D02*
X20236Y5512D01*
X19094Y2362D02*
Y4370D01*
D168*
X39961Y12756D02*
X40315D01*
X39961Y13465D02*
X40315D01*
M02*
