M48
;Layer_Color=9474304
;FILE_FORMAT=2:4
INCH,LZ
;TYPE=PLATED
T1F00S00C0.0118
T2F00S00C0.0197
T3F00S00C0.0380
T4F00S00C0.0394
T5F00S00C0.0472
T6F00S00C0.0512
T7F00S00C0.0591
T8F00S00C0.1181
%
T01
X0281Y013238
X028091Y014242
Y015187
X034163Y015433
X036526Y013022
X038209Y012884
X04065Y012815
X042697Y013228
X044478Y013022
X046821
X051102Y017884
X051486Y017943
X052175Y018258
X052972Y018218
X054203Y019006
X054862Y019803
X055551Y019498
X053464Y019813
X053218Y020531
X052244Y019833
X052042Y022126
X052224Y023829
X052894Y023976
X053346
X051457Y024587
X050955Y024469
X050581Y024577
X051722Y02497
X05186Y025866
X05065Y027057
X050974Y028317
X050965Y029941
X050079Y030039
X05003Y030571
X049488Y030502
X049045Y030482
X048425Y030758
X048091Y030974
X048346Y03003
X047717Y028898
X047549Y028199
X047972Y026063
X04937Y025925
X048829Y024823
X048376Y023986
X049769Y031024
X051968Y030482
X052746Y029793
X0531Y028976
X053701Y030197
X056693Y030974
X056348Y026407
X056309Y024646
X056929Y024508
X046663Y024173
Y023711
X046358Y023947
X046093Y024173
Y023711
X044882Y022254
X044823Y021752
X044675Y021142
X04372Y020955
X043661Y019764
X043396Y01874
X04249Y019468
X040965Y020285
X041398Y020955
X039232Y02063
X039222Y020236
X037795Y020561
X037283Y020571
X036929Y020561
X037018Y021506
X037285Y021694
X037581Y021517
X037904Y021565
X038287
X03877Y02187
X038819Y02248
X039016Y023091
X03937Y023445
X039872Y023593
X040128Y024026
X040197Y024606
X040453Y02502
X040817Y025413
X041348Y025896
X041909Y026132
X042461Y026575
X042884Y026909
X043848Y0281
X044616Y02749
X04518Y027874
X046033Y027913
X046299Y028209
X045827Y028554
X046211Y03003
X045256Y030512
X044646Y031083
X043878Y030384
X043976Y030069
X043996Y029793
X042982Y02935
X042175Y02937
X041191Y02939
X040453Y029272
X039665Y028209
X039409Y027913
X039478Y027539
X038819Y027067
X037982Y026329
X037933Y028209
X038189Y028494
X037598Y027933
X036467Y027953
X03626Y027687
X035276Y028022
X034951Y028337
X034492Y029055
X034833Y030453
X034734Y030846
X036161Y029803
X038671Y02938
X041565Y030709
X042677Y030784
X04002Y026083
X03874Y024902
X036486Y024685
X036368Y025876
X035177Y026368
X034173Y025325
X033346Y025256
X031791Y02499
X032402Y027982
X032746Y028041
X034016Y022943
X03378Y022018
X034557Y021762
X03561Y021614
X036033Y021309
X035512Y022323
X033224Y020315
X033081Y019449
X033593
X033337Y019075
X033593Y018661
X033081
X03252Y01759
X031929Y017077
X03125Y01753
X03423Y017638
X034144Y017953
X036398Y017648
X037687Y017313
X039213Y017992
X040896Y017047
X033632Y01564
X045827Y026417
X046102Y026634
X046378Y026467
X046457Y026801
X030364Y022943
X030482Y018563
X030659Y017215
X034744Y031516
X036299Y032008
X037598Y03188
X038406Y032116
X039104
X039862Y032766
X040177Y033061
X039803Y033445
X040316Y034331
X040266Y034872
X041152Y035148
X041437Y034498
X041132Y033957
X04122Y033543
X041506Y032441
X042549Y03248
X043022Y03249
X043445
X043986Y032953
X044085Y032116
X045453Y031772
X045738Y032776
X046703Y032441
X046467Y034764
X045276Y035285
X04503Y035778
X044764Y036043
X045305
X045689Y0369
X045955Y036673
X046191Y036437
X046486Y036978
X04622Y038976
X045404Y039094
X045325Y039764
X044508Y039646
X044035Y038287
X043337Y038228
X04251Y037411
X041496Y038248
X040354Y038425
X040344Y03753
X03873Y037608
X03876Y037992
X037854Y0381
X037923Y038642
X03814Y038967
X039026Y039557
X040069Y039222
X039596Y038701
X039931Y040256
X040571Y039734
X041161Y040374
Y04124
X041998Y041683
X042746Y040915
X042028Y040177
X037392Y040453
X036919Y041722
X037362Y043032
X037835Y042943
X038425Y043238
X035344Y03998
X03497Y038386
X035325Y037707
X034911Y034262
X034862Y033888
X038051Y033858
X040689Y03564
X043839Y035315
X044518Y035285
X044468Y034252
X046427Y041378
X046919Y040246
X048297Y040876
X047638Y038376
X047795Y037274
X047461Y037132
X048317Y036929
X048681Y037234
X049301Y037559
X049528Y037008
X050453Y037815
X052382Y037982
X052234Y038494
X052579Y038602
X05311Y038661
X05314Y040423
X054094
X054783Y040413
X054606Y041565
X055896Y03939
X052392Y036988
X052402Y035994
X052333Y035049
X051191
X051181Y034626
X051378Y034321
X051407Y033957
Y033573
X051289Y032736
X050482Y032717
Y033612
X050472Y034124
X049852Y034114
X049528Y034144
X049823Y033632
X049587Y033337
X048504Y034035
X048543Y034705
X048199Y034872
X047953Y034646
X047628Y035039
X04763Y035671
X047303Y035679
X046904Y035905
X048012Y035709
X051083Y035778
X051063Y035364
X053435Y034222
X053543Y03377
X053494Y032963
X053819Y032805
X054816Y032659
X054931Y032982
X055039Y033327
X056693Y032953
Y031575
X054468Y03186
X053701Y031526
X049124Y031565
X047057Y031457
X04689Y033504
X052657Y046978
X053494Y04751
T02
X049882Y013583
X051181
X052028Y013681
X052953Y01372
X053071Y01565
X052677Y016447
X052549Y017323
X052421Y017864
X049311Y018041
X048002Y027205
X047274Y028553
X056791Y028022
X046604Y027894
X036348Y026545
X034252Y023996
X034606Y019094
X035443Y017972
X038002Y016496
X032352Y015787
X034213Y031673
X034173Y036033
X034193Y040335
X044852Y043238
X044921Y034764
X044911Y033937
X054577Y03373
X049331Y042411
X046949Y042333
X051929Y047047
X051496Y048091
X056053Y048396
X057267Y047089
T03
X050089Y023268
Y025268
X040118Y022185
Y020807
X055171Y03399
Y03499
X056171
Y03399
Y03599
Y03699
X055171
Y03799
X056171
X055171Y03599
T04
X056831Y020904
Y022904
X037461Y031053
X036461
X036299Y033346
X037299
X037333Y035614
X036333
Y036614
X037333
Y037614
X036333
X053297Y042278
Y043278
X053689Y045502
X054689
X055689
X056689
X056486Y043278
Y042278
X056079Y047283
X055079
X054079
T05
X030551Y01936
Y020344
Y021329
T06
X031575Y029606
X024134
X021614
X021486Y027628
Y025659
X025177
Y027628
Y021368
Y0194
X021486
Y021368
X022874Y032559
X024134Y033937
X021614
X022874Y03689
X024134Y038268
X021614
X022874Y04122
X031575
Y038268
Y03689
Y033937
Y032559
T07
X022638Y014724
X024606
X026575
X038514Y014646
X040482
X042451
X044419
X046388
X048356
X050325
X052293
X054262
X05623
X055089Y026457
Y028425
X030866Y045325
X027707
X025738
X02377
X021801
X032835
X039715Y045295
X041683
X043652
X04562
X04876
X050728
T08
X035871Y044794
M30
