G04 Layer_Color=65535*
%FSLAX24Y24*%
%MOIN*%
G70*
G01*
G75*
%ADD10C,0.0079*%
%ADD30C,0.0100*%
%ADD32C,0.0098*%
%ADD36C,0.0236*%
%ADD65C,0.0070*%
%ADD66C,0.0071*%
%ADD67C,0.0050*%
%ADD68C,0.0070*%
%ADD69C,0.0039*%
G36*
X36656Y27799D02*
X36406D01*
Y28049D01*
X36656D01*
Y27799D01*
D02*
G37*
G36*
X45067Y33439D02*
X44957D01*
Y34159D01*
X45067D01*
Y33439D01*
D02*
G37*
D10*
X36604Y39911D02*
X38809D01*
X36604Y38415D02*
X38809D01*
Y39724D02*
Y39911D01*
Y38415D02*
Y38602D01*
X36604Y39724D02*
Y39911D01*
Y38415D02*
Y38602D01*
Y41585D02*
X38809D01*
X36604Y40089D02*
X38809D01*
Y41398D02*
Y41585D01*
Y40089D02*
Y40276D01*
X36604Y41398D02*
Y41585D01*
Y40089D02*
Y40276D01*
X38848Y29006D02*
Y30266D01*
X36250Y29006D02*
Y30266D01*
X38848D01*
X36250Y29006D02*
X38848D01*
X38661Y33002D02*
Y35364D01*
X41024Y33002D02*
Y35364D01*
X38661Y33002D02*
X41024D01*
X38661Y35364D02*
X41024D01*
X34774Y40128D02*
X35128D01*
X34774Y39026D02*
X35128D01*
X34783Y41388D02*
X35138D01*
X34783Y40285D02*
X35138D01*
X45433Y39675D02*
X46142D01*
X45433Y37746D02*
X46142D01*
X37372Y35167D02*
X37411D01*
Y33199D02*
Y35167D01*
X37372Y33199D02*
X37411D01*
X36152Y35167D02*
X36191D01*
X36152Y33199D02*
Y35167D01*
Y33199D02*
X36191D01*
X44803Y36447D02*
X46890D01*
X44803Y37589D02*
X46890D01*
X44803Y36447D02*
Y36555D01*
Y37480D02*
Y37589D01*
X46890Y36447D02*
Y36555D01*
Y37480D02*
Y37589D01*
X45437Y33469D02*
Y34129D01*
X45007Y33799D02*
X45437Y34129D01*
X45007Y33799D02*
X45437Y33469D01*
X44459Y31230D02*
Y31663D01*
X47096Y31230D02*
Y31663D01*
X44459D02*
X47096D01*
D30*
X47464Y26103D02*
G03*
X47464Y26103I-1063J0D01*
G01*
X25663Y40050D02*
G03*
X25663Y40050I-1063J0D01*
G01*
X43996Y27602D02*
G03*
X43996Y27602I-1969J0D01*
G01*
X35866Y30463D02*
G03*
X35866Y30463I-1575J0D01*
G01*
X37974Y27829D02*
G03*
X38533Y27848I280J0D01*
G01*
X26762Y39156D02*
X27392D01*
X26752D02*
Y42659D01*
X33839Y39156D02*
Y42659D01*
X26752D02*
X33839D01*
X33209Y39156D02*
X33839D01*
X42028Y29852D02*
Y30352D01*
X41778Y30102D02*
X42278D01*
X32041Y30463D02*
X32541D01*
X32291Y30213D02*
Y30713D01*
X37756Y27849D02*
X37956D01*
X38556D02*
X38756D01*
X37756Y25649D02*
X38756D01*
X37756D02*
Y27849D01*
X38756Y25649D02*
Y27849D01*
X28189Y25384D02*
X32165D01*
X28189Y36604D02*
X32165D01*
Y25384D02*
Y36604D01*
X28189Y25384D02*
Y36604D01*
X23839Y25384D02*
X27815D01*
X23839Y36604D02*
X27815D01*
Y25384D02*
Y36604D01*
X23839Y25384D02*
Y36604D01*
X35301Y32705D02*
X35303Y34281D01*
X32782Y32705D02*
Y36366D01*
X32803Y32682D02*
X35303D01*
X32803Y36381D02*
X35303D01*
X35301Y34240D02*
X35303Y36381D01*
X40541Y42659D02*
X44085D01*
X43455Y39156D02*
X44085D01*
X40541D02*
X41171D01*
X44085D02*
Y42659D01*
X40541Y39156D02*
Y42659D01*
D32*
X36260Y28140D02*
G03*
X36260Y28140I-49J0D01*
G01*
X38022Y35541D02*
G03*
X38022Y35541I-49J0D01*
G01*
X47146Y32559D02*
G03*
X47146Y32559I-49J0D01*
G01*
D36*
X39173Y34970D02*
G03*
X39173Y34970I-118J0D01*
G01*
D65*
X36023Y34058D02*
G03*
X35513Y34059I-256J-608D01*
G01*
Y32851D02*
G03*
X36023Y32851I255J609D01*
G01*
X35512Y34259D02*
G03*
X36022Y34258I256J608D01*
G01*
Y35466D02*
G03*
X35512Y35466I-255J-609D01*
G01*
X34499Y37201D02*
G03*
X35010Y37202I255J609D01*
G01*
Y38409D02*
G03*
X34499Y38409I-256J-608D01*
G01*
X35513Y32855D02*
Y34055D01*
X36024Y32855D02*
Y34055D01*
X36023Y34262D02*
Y35462D01*
X35512Y34261D02*
Y35462D01*
X46644Y40345D02*
X47156D01*
X46644Y41388D02*
X47156D01*
Y40345D02*
Y41388D01*
X46644Y40345D02*
Y41388D01*
X35581Y36348D02*
Y36860D01*
X36624Y36348D02*
Y36860D01*
X35581Y36348D02*
X36624D01*
X35581Y36860D02*
X36624D01*
X35010Y37205D02*
Y38406D01*
X34499Y37205D02*
Y38405D01*
D66*
X34958Y28624D02*
G03*
X33657Y28653I-697J-2035D01*
G01*
X33722Y25221D02*
G03*
X34915Y25225I589J2068D01*
G01*
X45033Y40478D02*
G03*
X45868Y40478I418J418D01*
G01*
Y41313D02*
G03*
X45033Y41313I-418J-418D01*
G01*
D67*
X37661Y31646D02*
Y32646D01*
X35661D02*
X37661D01*
X35661Y31646D02*
Y32646D01*
Y31646D02*
X37661D01*
X33368Y38852D02*
X34368D01*
X33368Y36852D02*
Y38852D01*
Y36852D02*
X34368D01*
Y38852D01*
X37407Y39163D02*
X38007Y38763D01*
X37407Y39163D02*
X38007Y39563D01*
Y38763D02*
Y39563D01*
X37407Y38763D02*
Y39563D01*
Y40837D02*
X38007Y40437D01*
X37407Y40837D02*
X38007Y41237D01*
Y40437D02*
Y41237D01*
X37407Y40437D02*
Y41237D01*
X45596Y37018D02*
X46096Y36668D01*
X45596Y37018D02*
X46096Y37368D01*
X45596Y36668D02*
Y37368D01*
X46096Y36668D02*
Y37368D01*
D68*
X44699Y35366D02*
X46629D01*
X44699Y36326D02*
X46629D01*
X44699Y35366D02*
Y36326D01*
X46629Y35366D02*
Y36326D01*
X44700Y35244D02*
X46630D01*
X44700Y34284D02*
X46630D01*
Y35244D01*
X44700Y34284D02*
Y35244D01*
D69*
X45423Y40423D02*
Y40659D01*
X45581Y40423D02*
Y40659D01*
X45463Y40541D02*
X45581Y40423D01*
X45463Y40541D02*
X45581Y40659D01*
X44026Y38087D02*
Y37904D01*
X44163D01*
Y37995D01*
Y37904D01*
X44301D01*
X44026Y38179D02*
X44255D01*
X44301Y38225D01*
Y38317D01*
X44255Y38363D01*
X44026D01*
Y38638D02*
Y38455D01*
X44163D01*
X44118Y38546D01*
Y38592D01*
X44163Y38638D01*
X44255D01*
X44301Y38592D01*
Y38500D01*
X44255Y38455D01*
X39587Y39636D02*
X39770Y39360D01*
Y39636D02*
X39587Y39360D01*
X39862D02*
Y39636D01*
X40000D01*
X40046Y39590D01*
Y39498D01*
X40000Y39452D01*
X39862D01*
X40138Y39590D02*
X40184Y39636D01*
X40275D01*
X40321Y39590D01*
Y39544D01*
X40275Y39498D01*
X40229D01*
X40275D01*
X40321Y39452D01*
Y39406D01*
X40275Y39360D01*
X40184D01*
X40138Y39406D01*
X32352Y33976D02*
X32628Y34160D01*
X32352D02*
X32628Y33976D01*
Y34252D02*
X32352D01*
Y34390D01*
X32398Y34436D01*
X32490D01*
X32536Y34390D01*
Y34252D01*
X32628Y34527D02*
Y34619D01*
Y34573D01*
X32352D01*
X32398Y34527D01*
X45384Y32214D02*
Y32031D01*
X45476Y31939D01*
X45568Y32031D01*
Y32214D01*
X45659D02*
X45843D01*
X45751D01*
Y31939D01*
X46073D02*
Y32214D01*
X45935Y32077D01*
X46119D01*
X44567Y33258D02*
Y33074D01*
X44659Y32982D01*
X44751Y33074D01*
Y33258D01*
X44842D02*
Y32982D01*
X44980D01*
X45026Y33028D01*
Y33212D01*
X44980Y33258D01*
X44842D01*
X45118Y32982D02*
X45210D01*
X45164D01*
Y33258D01*
X45118Y33212D01*
X45531Y33258D02*
X45348D01*
Y33120D01*
X45439Y33166D01*
X45485D01*
X45531Y33120D01*
Y33028D01*
X45485Y32982D01*
X45393D01*
X45348Y33028D01*
X43563Y37037D02*
Y36854D01*
X43655Y36762D01*
X43747Y36854D01*
Y37037D01*
X43838D02*
Y36762D01*
X43976D01*
X44022Y36808D01*
Y36991D01*
X43976Y37037D01*
X43838D01*
X44114Y36762D02*
X44206D01*
X44160D01*
Y37037D01*
X44114Y36991D01*
X44527Y36762D02*
X44344D01*
X44527Y36945D01*
Y36991D01*
X44481Y37037D01*
X44390D01*
X44344Y36991D01*
X44350Y40216D02*
Y40033D01*
X44442Y39941D01*
X44534Y40033D01*
Y40216D01*
X44626D02*
Y39941D01*
X44764D01*
X44810Y39987D01*
Y40171D01*
X44764Y40216D01*
X44626D01*
X44901Y40171D02*
X44947Y40216D01*
X45039D01*
X45085Y40171D01*
Y40125D01*
X45039Y40079D01*
X44993D01*
X45039D01*
X45085Y40033D01*
Y39987D01*
X45039Y39941D01*
X44947D01*
X44901Y39987D01*
X43770Y34370D02*
Y34646D01*
X43907D01*
X43953Y34600D01*
Y34508D01*
X43907Y34462D01*
X43770D01*
X43862D02*
X43953Y34370D01*
X44229D02*
X44045D01*
X44229Y34554D01*
Y34600D01*
X44183Y34646D01*
X44091D01*
X44045Y34600D01*
X44321D02*
X44367Y34646D01*
X44458D01*
X44504Y34600D01*
Y34554D01*
X44458Y34508D01*
X44413D01*
X44458D01*
X44504Y34462D01*
Y34416D01*
X44458Y34370D01*
X44367D01*
X44321Y34416D01*
X43780Y35817D02*
Y36092D01*
X43917D01*
X43963Y36047D01*
Y35955D01*
X43917Y35909D01*
X43780D01*
X43871D02*
X43963Y35817D01*
X44239D02*
X44055D01*
X44239Y36001D01*
Y36047D01*
X44193Y36092D01*
X44101D01*
X44055Y36047D01*
X44514Y35817D02*
X44331D01*
X44514Y36001D01*
Y36047D01*
X44468Y36092D01*
X44376D01*
X44331Y36047D01*
X35915Y37047D02*
Y37323D01*
X36053D01*
X36099Y37277D01*
Y37185D01*
X36053Y37139D01*
X35915D01*
X36007D02*
X36099Y37047D01*
X36191Y37277D02*
X36237Y37323D01*
X36329D01*
X36375Y37277D01*
Y37231D01*
X36329Y37185D01*
X36375Y37139D01*
Y37093D01*
X36329Y37047D01*
X36237D01*
X36191Y37093D01*
Y37139D01*
X36237Y37185D01*
X36191Y37231D01*
Y37277D01*
X36237Y37185D02*
X36329D01*
X46722Y39911D02*
Y40187D01*
X46860D01*
X46906Y40141D01*
Y40049D01*
X46860Y40003D01*
X46722D01*
X46814D02*
X46906Y39911D01*
X47182Y40187D02*
X47090Y40141D01*
X46998Y40049D01*
Y39957D01*
X47044Y39911D01*
X47136D01*
X47182Y39957D01*
Y40003D01*
X47136Y40049D01*
X46998D01*
X37129Y35735D02*
X36946D01*
X36900Y35689D01*
Y35597D01*
X36946Y35551D01*
X37129D01*
X37175Y35597D01*
Y35689D01*
X37083Y35643D02*
X37175Y35735D01*
Y35689D02*
X37129Y35735D01*
X37175Y35827D02*
X36900D01*
Y35964D01*
X36946Y36010D01*
X37037D01*
X37083Y35964D01*
Y35827D01*
Y35919D02*
X37175Y36010D01*
Y36102D02*
Y36194D01*
Y36148D01*
X36900D01*
X36946Y36102D01*
X32461Y28770D02*
Y28494D01*
X32644D01*
X32736D02*
X32828D01*
X32782D01*
Y28770D01*
X32736Y28724D01*
X25669Y37087D02*
Y36811D01*
Y36903D01*
X25853Y37087D01*
X25715Y36949D01*
X25853Y36811D01*
X25945D02*
X26037D01*
X25991D01*
Y37087D01*
X25945Y37041D01*
X29764Y37067D02*
Y36791D01*
Y36883D01*
X29947Y37067D01*
X29810Y36929D01*
X29947Y36791D01*
X30223D02*
X30039D01*
X30223Y36975D01*
Y37021D01*
X30177Y37067D01*
X30085D01*
X30039Y37021D01*
X35984Y40026D02*
Y39843D01*
X36122D01*
Y39934D01*
Y39843D01*
X36260D01*
X35984Y40118D02*
X36214D01*
X36260Y40164D01*
Y40256D01*
X36214Y40302D01*
X35984D01*
X36260Y40531D02*
X35984D01*
X36122Y40394D01*
Y40577D01*
X35134Y38838D02*
X34951D01*
Y38701D01*
X35043D01*
X34951D01*
Y38563D01*
X35226Y38838D02*
Y38609D01*
X35272Y38563D01*
X35364D01*
X35410Y38609D01*
Y38838D01*
X35502Y38793D02*
X35548Y38838D01*
X35640D01*
X35685Y38793D01*
Y38747D01*
X35640Y38701D01*
X35594D01*
X35640D01*
X35685Y38655D01*
Y38609D01*
X35640Y38563D01*
X35548D01*
X35502Y38609D01*
X37870Y36706D02*
Y36430D01*
X38008D01*
X38054Y36476D01*
Y36660D01*
X38008Y36706D01*
X37870D01*
X38145D02*
Y36430D01*
X38283D01*
X38329Y36476D01*
Y36660D01*
X38283Y36706D01*
X38145D01*
X38421Y36430D02*
X38513D01*
X38467D01*
Y36706D01*
X38421Y36660D01*
X35984Y31466D02*
Y31191D01*
X36122D01*
X36168Y31237D01*
Y31421D01*
X36122Y31466D01*
X35984D01*
X36260Y31191D02*
Y31375D01*
X36352Y31466D01*
X36443Y31375D01*
Y31191D01*
Y31329D01*
X36260D01*
X36719Y31191D02*
X36535D01*
X36719Y31375D01*
Y31421D01*
X36673Y31466D01*
X36581D01*
X36535Y31421D01*
X39006Y28277D02*
Y28002D01*
X39144D01*
X39190Y28048D01*
Y28232D01*
X39144Y28277D01*
X39006D01*
X39281Y28002D02*
Y28186D01*
X39373Y28277D01*
X39465Y28186D01*
Y28002D01*
Y28140D01*
X39281D01*
X39557Y28002D02*
X39649D01*
X39603D01*
Y28277D01*
X39557Y28232D01*
X32546Y31883D02*
X32500Y31929D01*
X32408D01*
X32362Y31883D01*
Y31699D01*
X32408Y31654D01*
X32500D01*
X32546Y31699D01*
X32638Y31654D02*
X32730D01*
X32684D01*
Y31929D01*
X32638Y31883D01*
X33051Y31929D02*
X32959Y31883D01*
X32867Y31791D01*
Y31699D01*
X32913Y31654D01*
X33005D01*
X33051Y31699D01*
Y31745D01*
X33005Y31791D01*
X32867D01*
X39524Y28832D02*
X39478Y28878D01*
X39386D01*
X39341Y28832D01*
Y28648D01*
X39386Y28602D01*
X39478D01*
X39524Y28648D01*
X39800Y28602D02*
X39616D01*
X39800Y28786D01*
Y28832D01*
X39754Y28878D01*
X39662D01*
X39616Y28832D01*
X39892D02*
X39937Y28878D01*
X40029D01*
X40075Y28832D01*
Y28648D01*
X40029Y28602D01*
X39937D01*
X39892Y28648D01*
Y28832D01*
X35656Y35909D02*
X35610Y35955D01*
X35518D01*
X35472Y35909D01*
Y35725D01*
X35518Y35679D01*
X35610D01*
X35656Y35725D01*
X35748Y35679D02*
X35840D01*
X35794D01*
Y35955D01*
X35748Y35909D01*
X35978D02*
X36023Y35955D01*
X36115D01*
X36161Y35909D01*
Y35725D01*
X36115Y35679D01*
X36023D01*
X35978Y35725D01*
Y35909D01*
X37467Y32976D02*
X37421Y33022D01*
X37329D01*
X37283Y32976D01*
Y32792D01*
X37329Y32746D01*
X37421D01*
X37467Y32792D01*
X37559Y32746D02*
X37651D01*
X37605D01*
Y33022D01*
X37559Y32976D01*
X37789Y32746D02*
X37880D01*
X37834D01*
Y33022D01*
X37789Y32976D01*
X39331Y38750D02*
Y38566D01*
X39422Y38474D01*
X39514Y38566D01*
Y38750D01*
X39606D02*
Y38474D01*
X39744D01*
X39790Y38520D01*
Y38704D01*
X39744Y38750D01*
X39606D01*
X39882D02*
X40065D01*
Y38704D01*
X39882Y38520D01*
Y38474D01*
X39360Y40886D02*
Y40702D01*
X39452Y40610D01*
X39544Y40702D01*
Y40886D01*
X39636D02*
Y40610D01*
X39773D01*
X39819Y40656D01*
Y40840D01*
X39773Y40886D01*
X39636D01*
X39911Y40840D02*
X39957Y40886D01*
X40049D01*
X40095Y40840D01*
Y40794D01*
X40049Y40748D01*
X40095Y40702D01*
Y40656D01*
X40049Y40610D01*
X39957D01*
X39911Y40656D01*
Y40702D01*
X39957Y40748D01*
X39911Y40794D01*
Y40840D01*
X39957Y40748D02*
X40049D01*
X25758Y41083D02*
X25942Y40807D01*
Y41083D02*
X25758Y40807D01*
X26033D02*
Y41083D01*
X26171D01*
X26217Y41037D01*
Y40945D01*
X26171Y40899D01*
X26033D01*
X26493Y40807D02*
X26309D01*
X26493Y40991D01*
Y41037D01*
X26447Y41083D01*
X26355D01*
X26309Y41037D01*
X32772Y37372D02*
X32680D01*
X32726D01*
Y37142D01*
X32680Y37096D01*
X32634D01*
X32589Y37142D01*
X33048Y37096D02*
X32864D01*
X33048Y37280D01*
Y37326D01*
X33002Y37372D01*
X32910D01*
X32864Y37326D01*
X37979Y31791D02*
X37887D01*
X37933D01*
Y31562D01*
X37887Y31516D01*
X37841D01*
X37795Y31562D01*
X38071Y31516D02*
X38163D01*
X38117D01*
Y31791D01*
X38071Y31745D01*
X35400Y37946D02*
X35354Y37992D01*
X35262D01*
X35217Y37946D01*
Y37762D01*
X35262Y37717D01*
X35354D01*
X35400Y37762D01*
X35492Y37717D02*
X35584D01*
X35538D01*
Y37992D01*
X35492Y37946D01*
X35905Y37717D02*
X35722D01*
X35905Y37900D01*
Y37946D01*
X35859Y37992D01*
X35768D01*
X35722Y37946D01*
M02*
