G04 Layer_Physical_Order=1*
G04 Layer_Color=255*
%FSLAX24Y24*%
%MOIN*%
G70*
G01*
G75*
%ADD10C,0.0079*%
G04:AMPARAMS|DCode=11|XSize=51.2mil|YSize=72mil|CornerRadius=2.6mil|HoleSize=0mil|Usage=FLASHONLY|Rotation=90.000|XOffset=0mil|YOffset=0mil|HoleType=Round|Shape=RoundedRectangle|*
%AMROUNDEDRECTD11*
21,1,0.0512,0.0669,0,0,90.0*
21,1,0.0461,0.0720,0,0,90.0*
1,1,0.0051,0.0335,0.0230*
1,1,0.0051,0.0335,-0.0230*
1,1,0.0051,-0.0335,-0.0230*
1,1,0.0051,-0.0335,0.0230*
%
%ADD11ROUNDEDRECTD11*%
%ADD12R,0.0354X0.0276*%
%ADD13O,0.0236X0.0906*%
%ADD14R,0.0276X0.0354*%
%ADD15R,0.0354X0.0394*%
%ADD16R,0.0453X0.0571*%
%ADD17R,0.0689X0.0413*%
G04:AMPARAMS|DCode=18|XSize=110.2mil|YSize=59.1mil|CornerRadius=14.8mil|HoleSize=0mil|Usage=FLASHONLY|Rotation=180.000|XOffset=0mil|YOffset=0mil|HoleType=Round|Shape=RoundedRectangle|*
%AMROUNDEDRECTD18*
21,1,0.1102,0.0295,0,0,180.0*
21,1,0.0807,0.0591,0,0,180.0*
1,1,0.0295,-0.0404,0.0148*
1,1,0.0295,0.0404,0.0148*
1,1,0.0295,0.0404,-0.0148*
1,1,0.0295,-0.0404,-0.0148*
%
%ADD18ROUNDEDRECTD18*%
G04:AMPARAMS|DCode=19|XSize=86.6mil|YSize=68.9mil|CornerRadius=17.2mil|HoleSize=0mil|Usage=FLASHONLY|Rotation=180.000|XOffset=0mil|YOffset=0mil|HoleType=Round|Shape=RoundedRectangle|*
%AMROUNDEDRECTD19*
21,1,0.0866,0.0344,0,0,180.0*
21,1,0.0522,0.0689,0,0,180.0*
1,1,0.0344,-0.0261,0.0172*
1,1,0.0344,0.0261,0.0172*
1,1,0.0344,0.0261,-0.0172*
1,1,0.0344,-0.0261,-0.0172*
%
%ADD19ROUNDEDRECTD19*%
G04:AMPARAMS|DCode=20|XSize=133.9mil|YSize=51.2mil|CornerRadius=12.8mil|HoleSize=0mil|Usage=FLASHONLY|Rotation=180.000|XOffset=0mil|YOffset=0mil|HoleType=Round|Shape=RoundedRectangle|*
%AMROUNDEDRECTD20*
21,1,0.1339,0.0256,0,0,180.0*
21,1,0.1083,0.0512,0,0,180.0*
1,1,0.0256,-0.0541,0.0128*
1,1,0.0256,0.0541,0.0128*
1,1,0.0256,0.0541,-0.0128*
1,1,0.0256,-0.0541,-0.0128*
%
%ADD20ROUNDEDRECTD20*%
%ADD21C,0.0118*%
%ADD22C,0.0197*%
%ADD23C,0.0157*%
%ADD24C,0.0394*%
%ADD25C,0.1181*%
%ADD26C,0.0630*%
%ADD27R,0.0630X0.0630*%
%ADD28C,0.0600*%
%ADD29R,0.0600X0.0600*%
%ADD30R,0.0709X0.0709*%
%ADD31C,0.0709*%
%ADD32C,0.0236*%
D10*
X45811Y35472D02*
G03*
X45811Y35472I-472J0D01*
G01*
X44705Y35174D02*
G03*
X44811Y35472I-366J299D01*
G01*
D02*
G03*
X43996Y35147I-472J0D01*
G01*
X44695Y34055D02*
G03*
X44852Y34213I0J157D01*
G01*
Y34626D02*
G03*
X44705Y34783I-157J0D01*
G01*
X47136Y32638D02*
G03*
X47078Y32777I-197J0D01*
G01*
X47136Y32638D02*
G03*
X47078Y32777I-197J0D01*
G01*
X46871Y32984D02*
G03*
X46732Y33041I-139J-139D01*
G01*
X46871Y32984D02*
G03*
X46732Y33041I-139J-139D01*
G01*
X46260D02*
G03*
X46063Y32844I0J-197D01*
G01*
X46260Y33041D02*
G03*
X46063Y32844I0J-197D01*
G01*
X47078Y31603D02*
G03*
X47136Y31742I-139J139D01*
G01*
X47078Y31603D02*
G03*
X47136Y31742I-139J139D01*
G01*
X46787Y31525D02*
G03*
X47029Y31554I103J168D01*
G01*
X46787Y31525D02*
G03*
X47029Y31554I103J168D01*
G01*
X46732Y31516D02*
G03*
X46787Y31525I0J157D01*
G01*
X46890Y31339D02*
G03*
X46732Y31496I-157J0D01*
G01*
X46830Y30939D02*
G03*
X46890Y31063I-97J124D01*
G01*
Y30768D02*
G03*
X46830Y30891I-157J0D01*
G01*
X46230Y30437D02*
G03*
X46378Y30335I148J55D01*
G01*
X46732D02*
G03*
X46890Y30492I0J157D01*
G01*
X45699Y33169D02*
G03*
X45541Y33327I-157J0D01*
G01*
X45187D02*
G03*
X45030Y33169I0J-157D01*
G01*
X44852Y33484D02*
G03*
X44695Y33642I-157J0D01*
G01*
Y32913D02*
G03*
X44852Y33071I0J157D01*
G01*
X45807Y32756D02*
G03*
X45671Y32677I0J-157D01*
G01*
X45541Y32736D02*
G03*
X45699Y32893I0J157D01*
G01*
X45689Y30687D02*
G03*
X45718Y30666I128J150D01*
G01*
X45679Y30428D02*
G03*
X45689Y30482I-148J54D01*
G01*
X45645Y32677D02*
G03*
X45541Y32717I-104J-118D01*
G01*
X45187D02*
G03*
X45083Y32677I0J-157D01*
G01*
X45030Y32893D02*
G03*
X45187Y32736I157J0D01*
G01*
X44531Y32693D02*
G03*
X44606Y32874I-181J181D01*
G01*
X44531Y32693D02*
G03*
X44606Y32874I-181J181D01*
G01*
X44026Y30591D02*
G03*
X44083Y30451I197J0D01*
G01*
X44026Y30591D02*
G03*
X44083Y30451I197J0D01*
G01*
X43996Y34783D02*
G03*
X43848Y34626I10J-157D01*
G01*
X43811Y35472D02*
G03*
X43083Y35075I-472J0D01*
G01*
X43594D02*
G03*
X43811Y35472I-256J397D01*
G01*
X42594Y35075D02*
G03*
X42811Y35472I-256J397D01*
G01*
D02*
G03*
X42083Y35075I-472J0D01*
G01*
X41693Y35160D02*
G03*
X41811Y35472I-354J312D01*
G01*
X43848Y34213D02*
G03*
X44006Y34055I157J0D01*
G01*
Y33642D02*
G03*
X43848Y33484I0J-157D01*
G01*
Y33071D02*
G03*
X44006Y32913I157J0D01*
G01*
X43945Y30693D02*
G03*
X44026Y30720I-47J272D01*
G01*
X43947Y30659D02*
G03*
X43945Y30693I-276J0D01*
G01*
X43688Y30384D02*
G03*
X43947Y30659I-17J275D01*
G01*
X43614Y32669D02*
G03*
X43594Y32772I-276J0D01*
G01*
X43083Y33183D02*
G03*
X43002Y33236I-189J-201D01*
G01*
X43430Y32409D02*
G03*
X43614Y32669I-91J260D01*
G01*
X43498Y32392D02*
G03*
X43430Y32409I-102J-256D01*
G01*
X42083Y33537D02*
G03*
X42158Y33356I256J0D01*
G01*
X42083Y33537D02*
G03*
X42158Y33356I256J0D01*
G01*
X41856Y34276D02*
G03*
X41693Y34458I-183J0D01*
G01*
X41673Y33632D02*
G03*
X41856Y33815I0J183D01*
G01*
X42142Y31762D02*
G03*
X41648Y31750I-244J-128D01*
G01*
X41855Y33002D02*
G03*
X41673Y33159I-181J-26D01*
G01*
X46732Y29725D02*
G03*
X46890Y29882I0J157D01*
G01*
X46919Y29252D02*
G03*
X46762Y29409I-157J0D01*
G01*
X46890Y30158D02*
G03*
X46732Y30315I-157J0D01*
G01*
X46762Y28819D02*
G03*
X46919Y28976I0J157D01*
G01*
X46762Y28209D02*
G03*
X46919Y28366I0J157D01*
G01*
Y28642D02*
G03*
X46762Y28799I-157J0D01*
G01*
X46378Y30315D02*
G03*
X46230Y30213I0J-157D01*
G01*
Y29827D02*
G03*
X46378Y29725I148J55D01*
G01*
X45709Y30325D02*
G03*
X45679Y30428I-197J0D01*
G01*
X45674Y30214D02*
G03*
X45709Y30325I-163J111D01*
G01*
X45689Y30148D02*
G03*
X45674Y30214I-157J0D01*
G01*
X45532Y29715D02*
G03*
X45689Y29872I0J157D01*
G01*
Y29400D02*
G03*
X45532Y29557I-157J0D01*
G01*
X46407Y29409D02*
G03*
X46303Y29370I0J-157D01*
G01*
Y28858D02*
G03*
X46407Y28819I104J118D01*
G01*
X45912Y28933D02*
G03*
X46093Y28858I181J181D01*
G01*
X45912Y28933D02*
G03*
X46093Y28858I181J181D01*
G01*
X46407Y28799D02*
G03*
X46303Y28760I0J-157D01*
G01*
Y28248D02*
G03*
X46407Y28209I104J118D01*
G01*
X45718Y29232D02*
G03*
X45793Y29051I256J0D01*
G01*
X45718Y29232D02*
G03*
X45794Y29051I256J0D01*
G01*
X46002Y28760D02*
G03*
X45946Y28870I-195J-30D01*
G01*
X46002Y28760D02*
G03*
X45946Y28870I-195J-30D01*
G01*
X45808Y29007D02*
G03*
X45689Y29064I-139J-139D01*
G01*
X45808Y29007D02*
G03*
X45689Y29064I-139J-139D01*
G01*
X46585Y25433D02*
G03*
X46510Y25614I-256J0D01*
G01*
X46585Y25433D02*
G03*
X46509Y25614I-256J0D01*
G01*
Y23687D02*
G03*
X46585Y23868I-181J181D01*
G01*
X46510Y23687D02*
G03*
X46585Y23868I-181J181D01*
G01*
X46447Y28002D02*
G03*
X46289Y28159I-157J0D01*
G01*
Y27274D02*
G03*
X46447Y27431I0J157D01*
G01*
X46319Y26792D02*
G03*
X46244Y26973I-256J0D01*
G01*
X46319Y26792D02*
G03*
X46244Y26973I-256J0D01*
G01*
X45995Y28159D02*
G03*
X46004Y28219I-188J59D01*
G01*
X45995Y28159D02*
G03*
X46004Y28219I-188J59D01*
G01*
X46014Y23297D02*
G03*
X46195Y23372I0J256D01*
G01*
X46014Y23297D02*
G03*
X46195Y23372I0J256D01*
G01*
X45020Y29872D02*
G03*
X45177Y29715I157J0D01*
G01*
Y29557D02*
G03*
X45020Y29400I0J-157D01*
G01*
X44349Y30186D02*
G03*
X44488Y30128I139J139D01*
G01*
X44349Y30186D02*
G03*
X44488Y30128I139J139D01*
G01*
X44154Y29813D02*
G03*
X44079Y29994I-256J0D01*
G01*
X44154Y29813D02*
G03*
X44078Y29994I-256J0D01*
G01*
X44783Y29065D02*
G03*
X44644Y29007I0J-197D01*
G01*
X44783Y29065D02*
G03*
X44644Y29007I0J-197D01*
G01*
X44169Y28532D02*
G03*
X44154Y28587I-271J-48D01*
G01*
X43018Y25089D02*
G03*
X42926Y25364I-457J0D01*
G01*
X42018Y25089D02*
G03*
X41933Y25354I-457J0D01*
G01*
X43190Y25356D02*
G03*
X43828Y24717I371J-267D01*
G01*
X42189Y25354D02*
G03*
X43018Y25089I372J-266D01*
G01*
X44117Y24199D02*
G03*
X44199Y23809I444J-110D01*
G01*
X43828Y24585D02*
G03*
X43897Y24418I236J0D01*
G01*
X43828Y24585D02*
G03*
X43897Y24418I236J0D01*
G01*
X44019Y24089D02*
G03*
X43199Y23809I-457J0D01*
G01*
X43923D02*
G03*
X44019Y24089I-362J280D01*
G01*
X42923Y23809D02*
G03*
X43018Y24089I-362J280D01*
G01*
D02*
G03*
X42199Y23809I-457J0D01*
G01*
X41923D02*
G03*
X42018Y24089I-362J280D01*
G01*
X41811Y35472D02*
G03*
X40984Y35160I-472J0D01*
G01*
X40594Y35075D02*
G03*
X40811Y35472I-256J397D01*
G01*
X40821Y33815D02*
G03*
X41004Y33632I183J0D01*
G01*
X40984Y34458D02*
G03*
X40821Y34276I20J-182D01*
G01*
X40811Y35472D02*
G03*
X40304Y35944I-472J0D01*
G01*
X39893Y35631D02*
G03*
X40083Y35075I445J-158D01*
G01*
X39811Y35472D02*
G03*
X39699Y35778I-472J0D01*
G01*
X39685Y35151D02*
G03*
X39811Y35472I-346J321D01*
G01*
X39665Y33632D02*
G03*
X39848Y33815I0J183D01*
G01*
Y34276D02*
G03*
X39685Y34458I-183J0D01*
G01*
X41004Y33159D02*
G03*
X40825Y33014I0J-183D01*
G01*
X40825D02*
G03*
X40660Y33236I-274J-32D01*
G01*
X40185Y32987D02*
G03*
X40099Y33002I-86J-241D01*
G01*
X40185Y32987D02*
G03*
X40099Y33002I-86J-241D01*
G01*
X40083Y33195D02*
G03*
X40158Y33014I256J0D01*
G01*
X40083Y33195D02*
G03*
X40158Y33014I256J0D01*
G01*
X40409Y32073D02*
G03*
X40591Y31998I181J181D01*
G01*
X40410Y32073D02*
G03*
X40591Y31998I181J181D01*
G01*
X41648Y31750D02*
G03*
X41148Y31750I-250J-116D01*
G01*
D02*
G03*
X40622Y31634I-250J-116D01*
G01*
Y30965D02*
G03*
X40756Y30728I276J0D01*
G01*
X40049D02*
G03*
X40098Y30886I-226J157D01*
G01*
X40417Y30728D02*
G03*
X40213Y30728I-102J-256D01*
G01*
X39847Y33002D02*
G03*
X39665Y33159I-181J-26D01*
G01*
Y32332D02*
G03*
X39847Y32490I0J183D01*
G01*
X40098Y30886D02*
G03*
X39721Y31142I-276J0D01*
G01*
X38834Y33731D02*
G03*
X38996Y33632I162J84D01*
G01*
X38671D02*
G03*
X38834Y33731I0J183D01*
G01*
X37835Y33741D02*
G03*
X38002Y33632I167J74D01*
G01*
X37667D02*
G03*
X37835Y33741I0J183D01*
G01*
X38996Y33159D02*
G03*
X38834Y33060I0J-183D01*
G01*
X38834Y32431D02*
G03*
X38996Y32332I162J84D01*
G01*
X38834Y33060D02*
G03*
X38671Y33159I-162J-84D01*
G01*
Y32332D02*
G03*
X38834Y32431I0J183D01*
G01*
X38002Y33159D02*
G03*
X37835Y33050I0J-183D01*
G01*
X37835D02*
G03*
X37667Y33159I-167J-74D01*
G01*
X37963Y30020D02*
G03*
X38206Y29984I157J226D01*
G01*
X37746Y29605D02*
G03*
X37963Y29882I-69J277D01*
G01*
X36978Y35778D02*
G03*
X36984Y35160I361J-305D01*
G01*
Y34459D02*
G03*
X36815Y34276I14J-183D01*
G01*
X36654Y35000D02*
G03*
X36811Y35157I0J157D01*
G01*
X36815Y33815D02*
G03*
X36998Y33632I183J0D01*
G01*
X36880Y33386D02*
G03*
X36805Y33567I-256J0D01*
G01*
X36880Y33386D02*
G03*
X36805Y33567I-256J0D01*
G01*
X36998Y33159D02*
G03*
X36880Y33116I0J-183D01*
G01*
X36329Y29778D02*
G03*
X36516Y29608I266J104D01*
G01*
X36171Y29262D02*
G03*
X36329Y29419I0J157D01*
G01*
Y28691D02*
G03*
X36171Y28848I-157J0D01*
G01*
X37677Y27982D02*
G03*
X37963Y28268I0J285D01*
G01*
Y28524D02*
G03*
X37746Y28801I-285J0D01*
G01*
X36516Y28798D02*
G03*
X36329Y28628I79J-274D01*
G01*
X36315Y28212D02*
G03*
X36594Y27982I280J56D01*
G01*
X36171Y28120D02*
G03*
X36315Y28212I0J157D01*
G01*
X36007Y27772D02*
G03*
X36083Y27953I-181J181D01*
G01*
X36008Y27772D02*
G03*
X36083Y27953I-181J181D01*
G01*
X35375Y29304D02*
G03*
X35482Y29262I107J115D01*
G01*
X35236Y29230D02*
G03*
X35375Y29304I-69J297D01*
G01*
X35482Y28848D02*
G03*
X35365Y28796I0J-157D01*
G01*
D02*
G03*
X35236Y28860I-197J-233D01*
G01*
X35787Y27402D02*
G03*
X35770Y27534I-512J0D01*
G01*
X33366Y27683D02*
G03*
X33384Y27751I-256J102D01*
G01*
X40669Y26428D02*
G03*
X40717Y26362I228J116D01*
G01*
X40669Y26428D02*
G03*
X40717Y26362I228J116D01*
G01*
X40186Y26486D02*
G03*
X40669Y26428I257J99D01*
G01*
X39902Y26868D02*
G03*
X39971Y26701I236J0D01*
G01*
X39902Y26868D02*
G03*
X39971Y26701I236J0D01*
G01*
X41534Y25545D02*
G03*
X42018Y25089I27J-457D01*
G01*
X37317Y26738D02*
G03*
X37392Y26919I-181J181D01*
G01*
X37317Y26738D02*
G03*
X37392Y26919I-181J181D01*
G01*
X36880Y27689D02*
G03*
X36880Y27114I-423J-288D01*
G01*
X36969Y26220D02*
G03*
X36947Y26368I-512J0D01*
G01*
X36573Y26719D02*
G03*
X36969Y26220I-117J-498D01*
G01*
X39331Y24546D02*
G03*
X38452Y23809I-748J0D01*
G01*
X39331Y24546D02*
G03*
X38452Y23809I-748J0D01*
G01*
X42018Y24089D02*
G03*
X41199Y23809I-457J0D01*
G01*
X38713D02*
G03*
X39331Y24546I-130J737D01*
G01*
X38713Y23809D02*
G03*
X39331Y24546I-130J737D01*
G01*
X34961Y26998D02*
G03*
X35787Y27402I315J403D01*
G01*
Y26220D02*
G03*
X35143Y26715I-512J0D01*
G01*
X34781Y26353D02*
G03*
X35787Y26220I494J-132D01*
G01*
X33600Y27534D02*
G03*
X34449Y27032I494J-132D01*
G01*
Y26791D02*
G03*
X34456Y26732I256J0D01*
G01*
X34449Y26791D02*
G03*
X34456Y26732I256J0D01*
G01*
X33740Y26732D02*
G03*
X33583Y26575I0J-157D01*
G01*
X34449Y25709D02*
G03*
X34606Y25866I0J157D01*
G01*
X33583D02*
G03*
X33740Y25709I157J0D01*
G01*
X36024Y24528D02*
G03*
X35068Y23809I-748J0D01*
G01*
X35484D02*
G03*
X36024Y24528I-208J719D01*
G01*
D02*
G03*
X35068Y23809I-748J0D01*
G01*
X35484D02*
G03*
X36024Y24528I-208J719D01*
G01*
X33333Y23372D02*
G03*
X33514Y23297I181J181D01*
G01*
X33333Y23372D02*
G03*
X33514Y23297I181J181D01*
G01*
X32874Y23858D02*
G03*
X32930Y23775I236J98D01*
G01*
X32874Y23858D02*
G03*
X32929Y23776I236J98D01*
G01*
X34213Y31732D02*
G03*
X34055Y31890I-157J0D01*
G01*
X33701D02*
G03*
X33543Y31732I0J-157D01*
G01*
X34055Y31299D02*
G03*
X34213Y31456I0J157D01*
G01*
X33543D02*
G03*
X33701Y31299I157J0D01*
G01*
X33474Y31732D02*
G03*
X33317Y31890I-157J0D01*
G01*
X32963D02*
G03*
X32874Y31862I0J-157D01*
G01*
X33317Y31299D02*
G03*
X33474Y31456I0J157D01*
G01*
X46850Y32598D02*
G03*
X46693Y32756I-157J0D01*
G01*
X46763Y32103D02*
G03*
X46850Y32244I-70J141D01*
G01*
X46260Y32235D02*
G03*
X46347Y32103I157J9D01*
G01*
X46890Y31949D02*
G03*
X46763Y32103I-157J0D01*
G01*
X46417Y32756D02*
G03*
X46260Y32607I0J-157D01*
G01*
X46347Y32103D02*
G03*
X46220Y31949I31J-154D01*
G01*
X45827Y31654D02*
G03*
X45806Y31741I-197J0D01*
G01*
X45827Y31654D02*
G03*
X45806Y31741I-197J0D01*
G01*
X46220Y31673D02*
G03*
X46327Y31524I157J0D01*
G01*
X46251Y31448D02*
G03*
X46102Y31555I-149J-50D01*
G01*
Y30886D02*
G03*
X46185Y30909I0J157D01*
G01*
X45745Y30909D02*
G03*
X45827Y30886I82J135D01*
G01*
X45630Y31474D02*
G03*
X45492Y31555I-138J-76D01*
G01*
X45217D02*
G03*
X45059Y31398I0J-157D01*
G01*
Y31043D02*
G03*
X45134Y30909I157J0D01*
G01*
Y30909D02*
G03*
X45020Y30758I43J-151D01*
G01*
Y30482D02*
G03*
X45177Y30325I157J0D01*
G01*
X44673Y31634D02*
G03*
X44500Y31890I-276J0D01*
G01*
X44222Y30752D02*
G03*
X44673Y30965I175J213D01*
G01*
X45689Y28730D02*
G03*
X45608Y28868I-157J0D01*
G01*
X45532Y28179D02*
G03*
X45689Y28337I0J157D01*
G01*
X45101Y28868D02*
G03*
X45020Y28730I76J-138D01*
G01*
Y28337D02*
G03*
X45177Y28179I157J0D01*
G01*
X45699Y28106D02*
G03*
X45581Y28159I-118J-104D01*
G01*
Y27274D02*
G03*
X45699Y27327I0J157D01*
G01*
X45530Y27095D02*
G03*
X45308Y26929I31J-274D01*
G01*
X45128Y28159D02*
G03*
X44970Y28002I0J-157D01*
G01*
Y27431D02*
G03*
X45128Y27274I157J0D01*
G01*
X45211Y26929D02*
G03*
X44927Y26929I-142J-236D01*
G01*
X44673Y28051D02*
G03*
X44148Y28167I-276J0D01*
G01*
Y27266D02*
G03*
X44673Y27382I250J116D01*
G01*
X36043Y33012D02*
G03*
X36000Y33120I-157J0D01*
G01*
X35886Y32579D02*
G03*
X36043Y32736I0J157D01*
G01*
X35394Y32660D02*
G03*
X35531Y32579I138J76D01*
G01*
X35256D02*
G03*
X35394Y32660I0J157D01*
G01*
X36102Y31363D02*
G03*
X35773Y31693I-330J0D01*
G01*
Y30689D02*
G03*
X36102Y31019I0J330D01*
G01*
X34626Y32579D02*
G03*
X34764Y32660I0J157D01*
G01*
X34764D02*
G03*
X34902Y32579I138J76D01*
G01*
X34129Y32670D02*
G03*
X34272Y32579I143J67D01*
G01*
X33986D02*
G03*
X34129Y32670I0J157D01*
G01*
X35251Y31693D02*
G03*
X34921Y31363I0J-330D01*
G01*
Y31019D02*
G03*
X35251Y30689I330J0D01*
G01*
X45768Y35669D02*
X46336D01*
X45791Y35610D02*
X46395D01*
X45768Y35670D02*
Y36093D01*
X45913D02*
X47598Y34407D01*
X45804Y35551D02*
X46454D01*
X45627Y35846D02*
X46159D01*
X45691Y35787D02*
X46218D01*
X45528Y35905D02*
X46100D01*
X45736Y35728D02*
X46277D01*
X45809Y35433D02*
X46572D01*
X45801Y35374D02*
X46631D01*
X45811Y35492D02*
X46513D01*
X45758Y35256D02*
X46749D01*
X45784Y35315D02*
X46690D01*
X45672Y35138D02*
X46867D01*
X45722Y35197D02*
X46808D01*
X45473Y35020D02*
X46985D01*
X45600Y35079D02*
X46926D01*
X45531Y35904D02*
Y36093D01*
X45590Y35872D02*
Y36093D01*
X45472Y35926D02*
Y36093D01*
X45709Y35766D02*
Y36093D01*
X45650Y35828D02*
Y36093D01*
X45354Y35945D02*
Y36093D01*
X45413Y35939D02*
Y36093D01*
X45118Y35890D02*
Y36093D01*
X45059Y35853D02*
Y36093D01*
X44941Y35727D02*
Y36093D01*
X45295Y35943D02*
Y36093D01*
X45472Y33327D02*
Y35019D01*
X45354Y33327D02*
Y35000D01*
X45236Y35934D02*
Y36093D01*
X45177Y35916D02*
Y36093D01*
X45000Y35802D02*
Y36093D01*
X46417Y33041D02*
Y35588D01*
X46476Y33041D02*
Y35529D01*
X46358Y33041D02*
Y35647D01*
X46594Y33041D02*
Y35411D01*
X46535Y33041D02*
Y35470D01*
X46240Y33040D02*
Y35765D01*
X46299Y33041D02*
Y35706D01*
X46181Y33025D02*
Y35824D01*
X46122Y32985D02*
Y35883D01*
X46063Y32756D02*
Y35942D01*
X46949Y32906D02*
Y35056D01*
X47008Y32847D02*
Y34997D01*
X46890Y32965D02*
Y35115D01*
X47126Y32700D02*
Y34879D01*
X47067Y32788D02*
Y34938D01*
X46713Y33041D02*
Y35293D01*
X46653Y33041D02*
Y35352D01*
X46831Y33015D02*
Y35174D01*
X46772Y33037D02*
Y35234D01*
X45945Y32756D02*
Y36060D01*
X46004Y32756D02*
Y36001D01*
X45886Y32756D02*
Y36093D01*
X45827Y32756D02*
Y36093D01*
X45768Y32751D02*
Y35275D01*
X45709Y32721D02*
Y35179D01*
X45000Y32677D02*
Y35143D01*
X44941Y32677D02*
Y35217D01*
X44882Y32677D02*
Y35352D01*
X45531Y33327D02*
Y35041D01*
X45413Y33327D02*
Y35006D01*
X45295Y33327D02*
Y35002D01*
X45650Y33284D02*
Y35117D01*
X45590Y33319D02*
Y35073D01*
X45236Y33327D02*
Y35011D01*
X45177Y33326D02*
Y35028D01*
X45118Y33311D02*
Y35055D01*
X45059Y33261D02*
Y35092D01*
X44882Y35593D02*
Y36093D01*
X44791Y35610D02*
X44887D01*
X44801Y35374D02*
X44877D01*
X44784Y35315D02*
X44893D01*
X44528Y35905D02*
X45150D01*
X44627Y35846D02*
X45050D01*
X44691Y35787D02*
X44986D01*
X44736Y35728D02*
X44941D01*
X44768Y35669D02*
X44909D01*
X44722Y35197D02*
X44955D01*
X44705Y35138D02*
X45005D01*
X44758Y35256D02*
X44919D01*
X44705Y35020D02*
X45204D01*
X44705Y35079D02*
X45078D01*
X44705Y34902D02*
X47104D01*
X44705Y34961D02*
X47045D01*
X44705Y34783D02*
X47222D01*
X44705Y34842D02*
X47163D01*
X44587Y35875D02*
Y36093D01*
X44646Y35832D02*
Y36093D01*
X44527Y35905D02*
Y36093D01*
X44764Y35679D02*
Y36093D01*
X44705Y35771D02*
Y36093D01*
X44468Y35927D02*
Y36093D01*
X44409Y35940D02*
Y36093D01*
X44173Y35915D02*
Y36093D01*
X44114Y35888D02*
Y36093D01*
X44804Y35551D02*
X44873D01*
X44811Y35492D02*
X44867D01*
X44350Y35945D02*
Y36093D01*
X44809Y35433D02*
X44868D01*
X44291Y35943D02*
Y36093D01*
X44232Y35933D02*
Y36093D01*
X43528Y35905D02*
X44150D01*
X44852Y34429D02*
X47576D01*
X44852Y34370D02*
X47598D01*
X44852Y34488D02*
X47517D01*
X44852Y34252D02*
X47598D01*
X44852Y34311D02*
X47598D01*
X44847Y34665D02*
X47340D01*
X44852Y34606D02*
X47399D01*
X44818Y34724D02*
X47281D01*
X44852Y34547D02*
X47458D01*
X44852Y34213D02*
Y34626D01*
X44831Y34134D02*
X47598D01*
X44771Y34075D02*
X47598D01*
X44851Y34193D02*
X47598D01*
X43594Y34016D02*
X47598D01*
X43594Y33898D02*
X47598D01*
X43594Y33957D02*
X47598D01*
X43594Y33779D02*
X47598D01*
X43594Y33839D02*
X47598D01*
X44823Y34718D02*
Y36093D01*
X44764Y34768D02*
Y35266D01*
X44705Y34783D02*
Y35174D01*
X44823Y33576D02*
Y34121D01*
X44764Y33626D02*
Y34071D01*
X44006Y34055D02*
X44695D01*
X44705Y33641D02*
Y34055D01*
X44646Y33642D02*
Y34055D01*
X44409Y33642D02*
Y34055D01*
X44468Y33642D02*
Y34055D01*
X44350Y33642D02*
Y34055D01*
X44587Y33642D02*
Y34055D01*
X44527Y33642D02*
Y34055D01*
X44173Y33642D02*
Y34055D01*
X44114Y33642D02*
Y34055D01*
X44291Y33642D02*
Y34055D01*
X44232Y33642D02*
Y34055D01*
X47135Y32657D02*
X47598D01*
X47136Y32598D02*
X47598D01*
X47119Y32716D02*
X47598D01*
X47136Y32480D02*
X47598D01*
X47136Y32539D02*
X47598D01*
X46902Y32953D02*
X47598D01*
X46962Y32894D02*
X47598D01*
X46836Y33012D02*
X47598D01*
X47080Y32776D02*
X47598D01*
X47021Y32835D02*
X47598D01*
X47136Y32362D02*
X47598D01*
X47136Y32303D02*
X47598D01*
X47136Y32421D02*
X47598D01*
X47136Y32185D02*
X47598D01*
X47136Y32244D02*
X47598D01*
X47134Y31713D02*
X47598D01*
X47136Y31772D02*
X47598D01*
X47008Y31535D02*
X47598D01*
X47115Y31653D02*
X47598D01*
X46871Y32984D02*
X47078Y32777D01*
X47136Y32126D02*
X47598D01*
X47136Y31742D02*
Y32638D01*
X46260Y33041D02*
X46732D01*
X47136Y32008D02*
X47598D01*
X47136Y31949D02*
X47598D01*
X47136Y32067D02*
X47598D01*
X47136Y31831D02*
X47598D01*
X47136Y31890D02*
X47598D01*
X47070Y31594D02*
X47598D01*
X47029Y31554D02*
X47078Y31603D01*
X46890Y31240D02*
X47598D01*
X46890Y31181D02*
X47598D01*
X46890Y31299D02*
X47598D01*
X46890Y31063D02*
X47598D01*
X46890Y31122D02*
X47598D01*
X46869Y31417D02*
X47598D01*
X46889Y31358D02*
X47598D01*
X46809Y31476D02*
X47598D01*
X46836Y30945D02*
X47598D01*
X46878Y31004D02*
X47598D01*
X46890Y30650D02*
X47598D01*
X46890Y30590D02*
X47598D01*
X46890Y30768D02*
X47598D01*
X46889Y30472D02*
X47598D01*
X46890Y30531D02*
X47598D01*
X46878Y30827D02*
X47598D01*
X46837Y30886D02*
X47598D01*
X46808Y30354D02*
X47598D01*
X46869Y30413D02*
X47598D01*
X46831Y31462D02*
Y31505D01*
X46890Y31063D02*
Y31339D01*
X46890Y31344D02*
Y31496D01*
X46524Y31516D02*
X46732D01*
X46522Y31496D02*
X46732D01*
X46890Y30773D02*
Y31058D01*
X46890Y30709D02*
X47598D01*
X46890Y30492D02*
Y30768D01*
X46230Y30354D02*
X46302D01*
X46378Y30335D02*
X46732D01*
X44852Y33484D02*
X47598D01*
X44852Y33425D02*
X47598D01*
X45187Y33327D02*
X45541D01*
X45617Y33307D02*
X47598D01*
X43594Y33661D02*
X47598D01*
X44799Y33602D02*
X47598D01*
X43594Y33720D02*
X47598D01*
X44852Y33366D02*
X47598D01*
X44841Y33543D02*
X47598D01*
X45699Y33130D02*
X47598D01*
X45699Y33071D02*
X47598D01*
X45699Y32953D02*
X46095D01*
X45699Y32894D02*
X46069D01*
X45699Y32893D02*
Y33169D01*
X45698Y33189D02*
X47598D01*
X45678Y33248D02*
X47598D01*
X45699Y33012D02*
X46156D01*
X44852Y33307D02*
X45111D01*
X44852Y33071D02*
Y33484D01*
X45030Y32893D02*
Y33169D01*
X44006Y33642D02*
X44695D01*
X44852Y33248D02*
X45051D01*
X44852Y33189D02*
X45031D01*
X44852Y33071D02*
X45030D01*
X44841Y33012D02*
X45030D01*
X44852Y33130D02*
X45030D01*
X44799Y32953D02*
X45030D01*
X44606Y32913D02*
X44695D01*
X44606Y32894D02*
X45030D01*
X44606Y32874D02*
Y32913D01*
X46063Y32756D02*
Y32844D01*
X45807Y32756D02*
X46063D01*
X45687Y32835D02*
X46063D01*
X45650Y32677D02*
Y32779D01*
X45646Y32776D02*
X46063D01*
X45590Y32709D02*
Y32744D01*
X45187Y32736D02*
X45541D01*
X45689Y30482D02*
Y30687D01*
X45688Y30413D02*
X45718D01*
X45709Y30331D02*
Y30672D01*
X45546Y32716D02*
X45703D01*
X45187Y32717D02*
X45541D01*
X45059Y32677D02*
Y32802D01*
X44823Y32677D02*
Y32979D01*
X44764Y32677D02*
Y32929D01*
X44705Y32677D02*
Y32914D01*
X44603Y32835D02*
X45041D01*
X44646Y32677D02*
Y32913D01*
X45118Y32701D02*
Y32752D01*
X44552Y32716D02*
X45182D01*
X44587Y32776D02*
X45083D01*
X44515Y32677D02*
X45083D01*
X44587D02*
Y32775D01*
X43718Y30354D02*
X44180D01*
X43795Y30413D02*
X44121D01*
X43996Y35798D02*
Y36093D01*
X44055Y35850D02*
Y36093D01*
X43937Y35721D02*
Y36093D01*
X43878Y35577D02*
Y36093D01*
X43760Y35686D02*
Y36093D01*
X43524Y35907D02*
Y36093D01*
X43583Y35877D02*
Y36093D01*
X43464Y35928D02*
Y36093D01*
X43701Y35776D02*
Y36093D01*
X43642Y35835D02*
Y36093D01*
X43790Y35610D02*
X43887D01*
X43804Y35551D02*
X43873D01*
X43811Y35492D02*
X43867D01*
X43801Y35374D02*
X43877D01*
X43809Y35433D02*
X43868D01*
X43627Y35846D02*
X44050D01*
X43691Y35787D02*
X43986D01*
X43736Y35728D02*
X43941D01*
X43768Y35669D02*
X43909D01*
X43346Y35945D02*
Y36093D01*
X43405Y35940D02*
Y36093D01*
X43287Y35942D02*
Y36093D01*
X43228Y35932D02*
Y36093D01*
X43169Y35913D02*
Y36093D01*
X43051Y35847D02*
Y36093D01*
X43110Y35886D02*
Y36093D01*
X42992Y35794D02*
Y36093D01*
X42933Y35715D02*
Y36093D01*
X42697Y35781D02*
Y36093D01*
X42874Y35558D02*
Y36093D01*
X42804Y35551D02*
X42873D01*
X42811Y35492D02*
X42867D01*
X42801Y35374D02*
X42877D01*
X42809Y35433D02*
X42868D01*
X42736Y35728D02*
X42941D01*
X42756Y35694D02*
Y36093D01*
X42768Y35669D02*
X42909D01*
X42790Y35610D02*
X42887D01*
X43996Y34783D02*
Y35147D01*
X43996Y34783D02*
Y35147D01*
X43784Y35315D02*
X43893D01*
X43937Y34768D02*
Y35224D01*
X43878Y34718D02*
Y35368D01*
X43722Y35197D02*
X43955D01*
X43672Y35138D02*
X43996D01*
X43758Y35256D02*
X43919D01*
X43594Y35020D02*
X43996D01*
X43600Y35079D02*
X43996D01*
X43594Y34902D02*
X43996D01*
X43594Y34842D02*
X43996D01*
X43594Y34961D02*
X43996D01*
X43848Y34213D02*
Y34626D01*
X43594Y34783D02*
X43996D01*
X43594Y34724D02*
X43883D01*
X43594Y34665D02*
X43853D01*
X43594Y34606D02*
X43848D01*
X42874Y33364D02*
Y35387D01*
X43819Y32704D02*
Y36093D01*
X43760Y32645D02*
Y35258D01*
X42758Y35256D02*
X42919D01*
X42784Y35315D02*
X42893D01*
X42815Y33423D02*
Y36093D01*
X42756Y33482D02*
Y35251D01*
X43083Y33183D02*
Y35075D01*
X43594Y32772D02*
Y35075D01*
X43051Y33209D02*
Y35098D01*
X43701Y32586D02*
Y35169D01*
X43642Y32527D02*
Y35110D01*
X42722Y35197D02*
X42955D01*
X42697Y33541D02*
Y35164D01*
X42992Y33246D02*
Y35151D01*
X42933Y33305D02*
Y35230D01*
X42461Y35929D02*
Y36093D01*
X42520Y35909D02*
Y36093D01*
X42401Y35941D02*
Y36093D01*
X42638Y35838D02*
Y36093D01*
X42579Y35879D02*
Y36093D01*
X42283Y35942D02*
Y36093D01*
X42342Y35945D02*
Y36093D01*
X42224Y35931D02*
Y36093D01*
X42047Y35844D02*
Y36093D01*
X41988Y35789D02*
Y36093D01*
X42165Y35912D02*
Y36093D01*
X42528Y35905D02*
X43150D01*
X42106Y35884D02*
Y36093D01*
X42627Y35846D02*
X43050D01*
X42691Y35787D02*
X42986D01*
X41528Y35905D02*
X42150D01*
X41627Y35846D02*
X42050D01*
X41691Y35787D02*
X41986D01*
X41736Y35728D02*
X41941D01*
X41752Y35701D02*
Y36093D01*
X41929Y35708D02*
Y36093D01*
X41693Y35785D02*
Y36093D01*
X41870Y35533D02*
Y36093D01*
X41811Y35481D02*
Y36093D01*
X41279Y35941D02*
Y36093D01*
X41161Y35910D02*
Y36093D01*
X41634Y35841D02*
Y36093D01*
X41575Y35882D02*
Y36093D01*
X41768Y35669D02*
X41909D01*
X41790Y35610D02*
X41887D01*
X41516Y35910D02*
Y36093D01*
X41804Y35551D02*
X41873D01*
X41811Y35492D02*
X41867D01*
X41398Y35941D02*
Y36093D01*
X41339Y35945D02*
Y36093D01*
X41457Y35930D02*
Y36093D01*
X41220Y35930D02*
Y36093D01*
X42672Y35138D02*
X43005D01*
X42600Y35079D02*
X43078D01*
X42594Y34961D02*
X43083D01*
X42638Y33600D02*
Y35107D01*
X42594Y35020D02*
X43083D01*
X41693D02*
X42083D01*
X42594Y33643D02*
Y35075D01*
X41693Y34961D02*
X42083D01*
X42594Y34842D02*
X43083D01*
X42594Y34783D02*
X43083D01*
X42594Y34902D02*
X43083D01*
X42594Y34606D02*
X43083D01*
X42594Y34724D02*
X43083D01*
X41693Y34842D02*
X42083D01*
X41693Y34902D02*
X42083D01*
X42594Y34665D02*
X43083D01*
X41693D02*
X42083D01*
X41809Y35433D02*
X41868D01*
X41801Y35374D02*
X41877D01*
X41811Y34397D02*
Y35464D01*
X41929Y33002D02*
Y35237D01*
X41870Y33002D02*
Y35412D01*
X41758Y35256D02*
X41919D01*
X41784Y35315D02*
X41893D01*
X41752Y34441D02*
Y35244D01*
X41722Y35197D02*
X41955D01*
X42083Y33537D02*
Y35075D01*
X41693Y34458D02*
Y35160D01*
X42047Y33002D02*
Y35101D01*
X41988Y33002D02*
Y35156D01*
X41693Y35079D02*
X42078D01*
X41693Y35138D02*
X42005D01*
X41693Y34724D02*
X42083D01*
X41693Y34783D02*
X42083D01*
X43594Y34429D02*
X43848D01*
X43594Y34370D02*
X43848D01*
X43594Y34488D02*
X43848D01*
X43878Y33576D02*
Y34121D01*
X43594Y34311D02*
X43848D01*
X43594Y34252D02*
X43848D01*
X43594Y34547D02*
X43848D01*
X43594Y34134D02*
X43870D01*
X43594Y34193D02*
X43850D01*
X43996Y33641D02*
Y34055D01*
X44055Y33642D02*
Y34055D01*
X43937Y33626D02*
Y34071D01*
X43594Y33307D02*
X43848D01*
X43594Y34075D02*
X43930D01*
X43594Y33602D02*
X43902D01*
X43594Y33543D02*
X43860D01*
X43594Y33484D02*
X43848D01*
X42594Y33898D02*
X43083D01*
X42594Y33839D02*
X43083D01*
X42594Y34252D02*
X43083D01*
X42594Y33720D02*
X43083D01*
X42594Y33779D02*
X43083D01*
X42594Y34488D02*
X43083D01*
X42594Y34429D02*
X43083D01*
X42594Y34547D02*
X43083D01*
X42594Y34311D02*
X43083D01*
X42594Y34370D02*
X43083D01*
X43594Y33425D02*
X43848D01*
X43594Y33366D02*
X43848D01*
X42813Y33425D02*
X43083D01*
X42931Y33307D02*
X43083D01*
X42872Y33366D02*
X43083D01*
X42636Y33602D02*
X43083D01*
X42594Y33661D02*
X43083D01*
X42754Y33484D02*
X43083D01*
X42695Y33543D02*
X43083D01*
X43996Y32882D02*
Y32914D01*
X43594Y33012D02*
X43860D01*
X43937Y32822D02*
Y32929D01*
X43878Y32763D02*
Y32979D01*
X43594Y32953D02*
X43902D01*
X43594Y32894D02*
X44008D01*
X43594Y33130D02*
X43848D01*
X43506Y32392D02*
X44028Y32913D01*
X43594Y32835D02*
X43949D01*
X43947Y30650D02*
X44026D01*
X43938Y30590D02*
X44026D01*
Y30591D02*
Y30720D01*
X43915Y30531D02*
X44035D01*
X43594Y32776D02*
X43890D01*
X43874Y30472D02*
X44065D01*
X43848Y33071D02*
Y33484D01*
X43594Y33189D02*
X43848D01*
X43594Y33248D02*
X43848D01*
X43610Y32716D02*
X43831D01*
X42990Y33248D02*
X43083D01*
X42594Y33643D02*
X43002Y33236D01*
X43594Y33071D02*
X43848D01*
X43614Y32657D02*
X43772D01*
X43605Y32598D02*
X43713D01*
X43582Y32539D02*
X43654D01*
X43539Y32480D02*
X43595D01*
X43583Y32468D02*
Y32541D01*
X43459Y32421D02*
X43536D01*
X43524Y32409D02*
Y32465D01*
X41856Y34252D02*
X42083D01*
X42594Y34193D02*
X43083D01*
X41853Y34311D02*
X42083D01*
X42594Y34134D02*
X43083D01*
X41856Y34193D02*
X42083D01*
X41693Y34547D02*
X42083D01*
X41693Y34488D02*
X42083D01*
X41693Y34606D02*
X42083D01*
X41830Y34370D02*
X42083D01*
X41774Y34429D02*
X42083D01*
X42594Y34016D02*
X43083D01*
X42594Y33957D02*
X43083D01*
X42594Y34075D02*
X43083D01*
X41856D02*
X42083D01*
X41856Y34134D02*
X42083D01*
X41856Y33957D02*
X42083D01*
X41856Y34016D02*
X42083D01*
X41856Y33898D02*
X42083D01*
X41856Y33839D02*
X42083D01*
X41856Y33815D02*
Y34276D01*
X41830Y33720D02*
X42083D01*
X41853Y33779D02*
X42083D01*
X41772Y33661D02*
X42083D01*
X41752Y33141D02*
Y33650D01*
X41516Y33159D02*
Y33632D01*
X41575Y33159D02*
Y33632D01*
X41457Y33159D02*
Y33632D01*
X41693Y33158D02*
Y33633D01*
X41634Y33159D02*
Y33632D01*
X41279Y33159D02*
Y33632D01*
X41220Y33159D02*
Y33632D01*
X41398Y33159D02*
Y33632D01*
X41339Y33159D02*
Y33632D01*
X42283Y33002D02*
Y33231D01*
X42342Y33002D02*
Y33172D01*
X42224Y33002D02*
Y33290D01*
X42461Y33002D02*
Y33054D01*
X42401Y33002D02*
Y33113D01*
X41772Y33130D02*
X42384D01*
X41830Y33071D02*
X42443D01*
X42106Y33002D02*
Y33430D01*
X42158Y33356D02*
X42513Y33002D01*
X42165D02*
Y33349D01*
X42069Y31998D02*
X42142Y31925D01*
X42091Y31831D02*
X42142D01*
X42047Y31865D02*
Y31998D01*
X42142Y31762D02*
Y31925D01*
X42106Y31814D02*
Y31961D01*
X41855Y33002D02*
X42513D01*
X41853Y33012D02*
X42502D01*
X42000Y31890D02*
X42142D01*
X41870Y31908D02*
Y31998D01*
X41929Y31908D02*
Y31998D01*
X41811Y33097D02*
Y33695D01*
X41988Y31894D02*
Y31998D01*
X41811Y31895D02*
Y31998D01*
X41339Y31903D02*
Y31998D01*
X41752Y31868D02*
Y31998D01*
X41693Y31818D02*
Y31998D01*
X41575Y31845D02*
Y31998D01*
X41500Y31890D02*
X41795D01*
X41516Y31883D02*
Y31998D01*
X41591Y31831D02*
X41705D01*
X41634Y31776D02*
Y31998D01*
X41457Y31903D02*
Y31998D01*
X41398Y31909D02*
Y31998D01*
X41279Y31883D02*
Y31998D01*
X41220Y31845D02*
Y31998D01*
X46890Y30059D02*
X47598D01*
X46890Y30000D02*
X47598D01*
X46890Y30118D02*
X47598D01*
X46890Y29882D02*
X47598D01*
X46890Y29882D02*
Y30158D01*
X46869Y30236D02*
X47598D01*
X46889Y30177D02*
X47598D01*
X46809Y30295D02*
X47598D01*
X46890Y29941D02*
X47598D01*
X46919Y29232D02*
X47598D01*
X46919Y29173D02*
X47598D01*
X46914Y29291D02*
X47598D01*
X46919Y29055D02*
X47598D01*
X46919Y29114D02*
X47598D01*
X46836Y29764D02*
X47598D01*
X46878Y29823D02*
X47598D01*
X46885Y29350D02*
X47598D01*
X46890Y30163D02*
Y30487D01*
X46831Y30281D02*
Y30369D01*
X46772Y29409D02*
Y29730D01*
X46890Y29344D02*
Y29877D01*
X46831Y29393D02*
Y29759D01*
X46378Y30315D02*
X46732D01*
X46535Y29409D02*
Y29725D01*
X46594Y29409D02*
Y29725D01*
X46476Y29409D02*
Y29725D01*
X46713Y29409D02*
Y29725D01*
X46653Y29409D02*
Y29725D01*
X46378D02*
X46732D01*
X46417Y29409D02*
Y29725D01*
X46407Y29409D02*
X46762D01*
X46358Y29401D02*
Y29726D01*
X47480Y22785D02*
Y34525D01*
X47539Y22785D02*
Y34466D01*
X47421Y22785D02*
Y34584D01*
X47598Y22785D02*
Y34407D01*
X47598Y22785D02*
Y34407D01*
X46914Y28937D02*
X47598D01*
X46885Y28878D02*
X47598D01*
X46919Y28996D02*
X47598D01*
X46769Y28819D02*
X47598D01*
X47362Y22785D02*
Y34643D01*
X46919Y28583D02*
X47598D01*
X46919Y28524D02*
X47598D01*
X46919Y28642D02*
X47598D01*
X46919Y28405D02*
X47598D01*
X46919Y28465D02*
X47598D01*
X46908Y28701D02*
X47598D01*
X46866Y28760D02*
X47598D01*
X46898Y28287D02*
X47598D01*
X46918Y28346D02*
X47598D01*
X47185Y22785D02*
Y34820D01*
X47126Y22785D02*
Y31680D01*
X47067Y22785D02*
Y31592D01*
X47303Y22785D02*
Y34702D01*
X47244Y22785D02*
Y34761D01*
X46919Y28976D02*
Y29252D01*
X47008Y22785D02*
Y31535D01*
X46949Y22785D02*
Y31505D01*
X46890Y28734D02*
Y28884D01*
X46919Y28366D02*
Y28642D01*
X46831Y28783D02*
Y28834D01*
X46890Y22785D02*
Y28274D01*
X46407Y28799D02*
X46762D01*
X46407Y28819D02*
X46762D01*
X46358Y28791D02*
Y28827D01*
X46299Y30294D02*
Y30356D01*
X46230Y30295D02*
X46301D01*
X46240Y30234D02*
Y30416D01*
X46230Y30213D02*
Y30437D01*
X45686Y30177D02*
X45718D01*
X45681Y29823D02*
X45718D01*
X45688Y30236D02*
X45718D01*
X46230Y29370D02*
Y29827D01*
Y29705D02*
X47598D01*
X46230Y29646D02*
X47598D01*
X46230Y29764D02*
X46274D01*
X46230Y29468D02*
X47598D01*
X46299Y29370D02*
Y29746D01*
X46230Y29587D02*
X47598D01*
X45646Y29764D02*
X45718D01*
X46230Y29409D02*
X47598D01*
X46230Y29527D02*
X47598D01*
X45689Y29872D02*
Y30148D01*
X45650Y29504D02*
Y29768D01*
X45590Y29546D02*
Y29726D01*
X45531Y29557D02*
Y29715D01*
X45177D02*
X45532D01*
X45623Y29527D02*
X45718D01*
X45472Y29557D02*
Y29715D01*
X45673Y29468D02*
X45718D01*
X44154Y29646D02*
X45718D01*
X44154Y29705D02*
X45718D01*
X44154Y29587D02*
X45718D01*
X45177Y29557D02*
X45532D01*
X46230Y29370D02*
X46303D01*
X46240D02*
Y29806D01*
X46299Y28760D02*
Y28858D01*
X46093D02*
X46303D01*
X46063Y28760D02*
Y28860D01*
X46004Y28760D02*
Y28874D01*
X46240Y28760D02*
Y28858D01*
X46181Y28760D02*
Y28858D01*
X46299Y28159D02*
Y28248D01*
X45983Y28819D02*
X46400D01*
X46122Y28760D02*
Y28858D01*
X46002Y28760D02*
X46303D01*
X46063Y28159D02*
Y28248D01*
X45718Y29232D02*
Y30666D01*
X45709Y29061D02*
Y30319D01*
X45768Y29039D02*
Y29082D01*
X45689Y29173D02*
X45725D01*
X45689Y29114D02*
X45747D01*
X45689Y29064D02*
Y29400D01*
X45808Y29007D02*
X45946Y28870D01*
X45938Y28878D02*
X45994D01*
X45945Y28871D02*
Y28905D01*
X45731Y29055D02*
X45790D01*
X45794Y29051D02*
X45912Y28933D01*
X46447Y27992D02*
X47598D01*
X46447Y27933D02*
X47598D01*
X46838Y28228D02*
X47598D01*
X46447Y27697D02*
X47598D01*
X46447Y27874D02*
X47598D01*
X46439Y28051D02*
X47598D01*
X46447Y27815D02*
X47598D01*
X46404Y28110D02*
X47598D01*
X46447Y27638D02*
X47598D01*
X46447Y27756D02*
X47598D01*
X46447Y27461D02*
X47598D01*
X46544Y25571D02*
X47598D01*
X46447Y27520D02*
X47598D01*
X46584Y25453D02*
X47598D01*
X46572Y25512D02*
X47598D01*
X46444Y27402D02*
X47598D01*
X46447Y27579D02*
X47598D01*
X46376Y25748D02*
X47598D01*
X46420Y27342D02*
X47598D01*
X46476Y25647D02*
Y28209D01*
X46435Y25689D02*
X47598D01*
X46447Y27431D02*
Y28002D01*
X46494Y25630D02*
X47598D01*
X46535Y25584D02*
Y28209D01*
X46417Y28094D02*
Y28209D01*
X46407D02*
X46762D01*
X46358Y28144D02*
Y28217D01*
X46417Y25706D02*
Y27339D01*
X46358Y25766D02*
Y27289D01*
X46585Y25216D02*
X47598D01*
X46585Y25157D02*
X47598D01*
X46585Y25276D02*
X47598D01*
X46585Y25039D02*
X47598D01*
X46585Y25098D02*
X47598D01*
X46585Y25335D02*
X47598D01*
X46585Y25394D02*
X47598D01*
X46585Y24626D02*
X47598D01*
X46585Y24567D02*
X47598D01*
X46585Y24685D02*
X47598D01*
X46585Y24449D02*
X47598D01*
X46585Y24508D02*
X47598D01*
X46585Y24921D02*
X47598D01*
X46585Y24862D02*
X47598D01*
X46585Y24980D02*
X47598D01*
X46585Y24744D02*
X47598D01*
X46585Y24803D02*
X47598D01*
X46585Y24094D02*
X47598D01*
X46585Y24035D02*
X47598D01*
X46585Y24153D02*
X47598D01*
X46585Y23917D02*
X47598D01*
X46585Y23976D02*
X47598D01*
X46585Y24331D02*
X47598D01*
X46585Y24390D02*
X47598D01*
X46585Y24213D02*
X47598D01*
X46585Y24272D02*
X47598D01*
X46653Y22785D02*
Y28209D01*
X46713Y22785D02*
Y28209D01*
X46594Y22785D02*
Y28209D01*
X46831Y22785D02*
Y28224D01*
X46772Y22785D02*
Y28209D01*
X46584Y23858D02*
X47598D01*
X46585Y23868D02*
Y25433D01*
X46550Y23740D02*
X47598D01*
X46504Y23681D02*
X47598D01*
X46575Y23799D02*
X47598D01*
X46535Y22785D02*
Y23717D01*
X46476Y22785D02*
Y23654D01*
X46385Y23563D02*
X47598D01*
X46445Y23622D02*
X47598D01*
X46417Y22785D02*
Y23595D01*
X46358Y22785D02*
Y23536D01*
X46344Y27283D02*
X47598D01*
X46170Y27047D02*
X47598D01*
X46111Y27106D02*
X47598D01*
X45998Y28169D02*
X47598D01*
X46004Y28228D02*
X46331D01*
X46052Y27165D02*
X47598D01*
X45993Y27224D02*
X47598D01*
X46318Y26811D02*
X47598D01*
X46319Y26752D02*
X47598D01*
X46307Y26870D02*
X47598D01*
X46319Y26634D02*
X47598D01*
X46319Y26693D02*
X47598D01*
X46279Y26929D02*
X47598D01*
X46229Y26988D02*
X47598D01*
X46240Y28159D02*
Y28248D01*
X46004D02*
X46303D01*
X46181Y28159D02*
Y28248D01*
X46122Y28159D02*
Y28248D01*
X45995Y28159D02*
X46289D01*
X46004D02*
Y28212D01*
X46122Y27095D02*
Y27274D01*
X46181Y27036D02*
Y27274D01*
X46063Y27154D02*
Y27274D01*
X46299Y26891D02*
Y27274D01*
X46240Y26977D02*
Y27274D01*
X45943D02*
X46289D01*
X45943D02*
X46244Y26973D01*
X46004Y27213D02*
Y27274D01*
X46319Y26220D02*
X47598D01*
X46319Y26161D02*
X47598D01*
X46319Y26279D02*
X47598D01*
X46319Y26043D02*
X47598D01*
X46319Y26102D02*
X47598D01*
X46319Y26516D02*
X47598D01*
X46319Y26457D02*
X47598D01*
X46319Y26575D02*
X47598D01*
X46319Y26339D02*
X47598D01*
X46319Y26398D02*
X47598D01*
X46319Y25925D02*
X47598D01*
X46319Y25866D02*
X47598D01*
X46319Y25984D02*
X47598D01*
X46326Y23504D02*
X47598D01*
X46319Y25807D02*
X47598D01*
X46267Y23445D02*
X47598D01*
X46319Y25805D02*
X46509Y25614D01*
X46133Y23327D02*
X47598D01*
X46208Y23386D02*
X47598D01*
X46319Y25805D02*
Y26792D01*
X46195Y23372D02*
X46509Y23687D01*
X46299Y22785D02*
Y23477D01*
X46240Y22785D02*
Y23418D01*
X46181Y22785D02*
Y23359D01*
X46122Y22785D02*
Y23321D01*
X46063Y22785D02*
Y23302D01*
X45827Y22785D02*
Y23297D01*
X45886Y22785D02*
Y23297D01*
X45768Y22785D02*
Y23297D01*
X46004Y22785D02*
Y23297D01*
X45945Y22785D02*
Y23297D01*
X45590Y22785D02*
Y23297D01*
X45531Y22785D02*
Y23297D01*
X45709Y22785D02*
Y23297D01*
X45650Y22785D02*
Y23297D01*
X45295Y29557D02*
Y29715D01*
X45118Y29546D02*
Y29726D01*
X45059Y29504D02*
Y29768D01*
X44119Y29941D02*
X45020D01*
X44153Y29823D02*
X45028D01*
X44073Y30000D02*
X45020D01*
X44154Y29764D02*
X45063D01*
X45354Y29557D02*
Y29715D01*
X45413Y29557D02*
Y29715D01*
X45236Y29557D02*
Y29715D01*
X45177Y29557D02*
Y29715D01*
X44154Y29527D02*
X45085D01*
X44154Y29468D02*
X45036D01*
X44154Y29409D02*
X45020D01*
X44154Y29232D02*
X45020D01*
X44083Y30451D02*
X44349Y30186D01*
X44114Y29950D02*
Y30421D01*
X44055Y30017D02*
Y30487D01*
X43836Y30236D02*
X44298D01*
X43895Y30177D02*
X44358D01*
X43878Y30195D02*
Y30477D01*
X43996Y30077D02*
Y30707D01*
X43937Y30136D02*
Y30586D01*
X45020Y29872D02*
Y30128D01*
X44144Y29882D02*
X45020D01*
X44488Y30128D02*
X45020D01*
X44154Y29291D02*
X45020D01*
X44154Y29350D02*
X45020D01*
X44014Y30059D02*
X45020D01*
X43954Y30118D02*
X45020D01*
Y29065D02*
Y29400D01*
X45000Y29065D02*
Y30128D01*
X44941Y29065D02*
Y30128D01*
X44882Y29065D02*
Y30128D01*
X44764Y29064D02*
Y30128D01*
X44823Y29065D02*
Y30128D01*
X44705Y29048D02*
Y30128D01*
X44646Y29009D02*
Y30128D01*
X44587Y28950D02*
Y30128D01*
X44783Y29065D02*
X45020D01*
X44169Y28532D02*
X44644Y29007D01*
X44154Y29114D02*
X45020D01*
X44154Y29173D02*
X45020D01*
X44154Y29055D02*
X44722D01*
X44154Y28996D02*
X44633D01*
X44468Y28831D02*
Y30129D01*
X44527Y28891D02*
Y30128D01*
X44409Y28772D02*
Y30144D01*
X44350Y28713D02*
Y30184D01*
X44291Y28654D02*
Y30243D01*
X44154Y28937D02*
X44574D01*
X44232Y28595D02*
Y30302D01*
X44173Y28536D02*
Y30361D01*
X44154Y28587D02*
Y29813D01*
Y28878D02*
X44515D01*
X44154Y28819D02*
X44456D01*
X44154Y28760D02*
X44397D01*
X44154Y28701D02*
X44338D01*
X44155Y28583D02*
X44220D01*
X44154Y28642D02*
X44279D01*
X43828Y24585D02*
Y24717D01*
X43819Y24467D02*
Y24711D01*
Y30254D02*
Y30427D01*
X43777Y30295D02*
X44239D01*
X43760Y30313D02*
Y30398D01*
X43688Y30384D02*
X44078Y29994D01*
X43169Y25325D02*
Y25364D01*
X42992Y25242D02*
Y25364D01*
X42926D02*
X43181D01*
X41933Y25354D02*
X42189D01*
X43110Y25166D02*
Y25364D01*
X43000Y25216D02*
X43122D01*
X43013Y25157D02*
X43109D01*
X43018Y25098D02*
X43104D01*
X43005Y24980D02*
X43117D01*
X43016Y25039D02*
X43106D01*
X42947Y25335D02*
X43175D01*
X42979Y25276D02*
X43143D01*
X42959Y24862D02*
X43164D01*
X42987Y24921D02*
X43135D01*
X41988Y25253D02*
Y25354D01*
X42165Y25318D02*
Y25354D01*
X41457Y25534D02*
Y25622D01*
X42106Y25138D02*
Y25354D01*
X41398Y25516D02*
Y25681D01*
X41339Y25488D02*
Y25741D01*
X41279Y25449D02*
Y25800D01*
X41220Y25394D02*
Y25859D01*
X42000Y25216D02*
X42122D01*
X42013Y25157D02*
X42109D01*
X42018Y25098D02*
X42104D01*
X42006Y24980D02*
X42117D01*
X42016Y25039D02*
X42106D01*
X41947Y25335D02*
X42175D01*
X41979Y25276D02*
X42143D01*
X41959Y24862D02*
X42164D01*
X41987Y24921D02*
X42135D01*
X43228Y24403D02*
Y24775D01*
X43169Y24325D02*
Y24852D01*
X43110Y24166D02*
Y25011D01*
X43051Y23809D02*
Y25364D01*
X42919Y24803D02*
X43204D01*
X42874Y24422D02*
Y24755D01*
X42992Y24242D02*
Y24935D01*
X42933Y24355D02*
Y24822D01*
X43776Y24685D02*
X43828D01*
X43760Y24501D02*
Y24677D01*
X42862Y24744D02*
X43260D01*
X43346Y24493D02*
Y24685D01*
X43287Y24455D02*
Y24722D01*
X42776Y24685D02*
X43346D01*
X42401Y24517D02*
Y24660D01*
X42815Y24469D02*
Y24708D01*
X42756Y24503D02*
Y24675D01*
X42165Y24318D02*
Y24859D01*
X42224Y24398D02*
Y24779D01*
X41988Y24253D02*
Y24925D01*
X42106Y24138D02*
Y25039D01*
X42047Y23809D02*
Y25354D01*
X41919Y24803D02*
X42204D01*
X41870Y24426D02*
Y24751D01*
X41929Y24360D02*
Y24817D01*
X41220Y24394D02*
Y24783D01*
X42342Y24490D02*
Y24687D01*
X41776Y24685D02*
X42346D01*
X41862Y24744D02*
X42260D01*
X42283Y24452D02*
Y24725D01*
X41811Y24472D02*
Y24705D01*
X41752Y24504D02*
Y24673D01*
X41398Y24516D02*
Y24661D01*
X41339Y24488D02*
Y24689D01*
X41279Y24449D02*
Y24728D01*
X44015Y24035D02*
X44107D01*
X44114Y23809D02*
Y23991D01*
X44018Y24094D02*
X44104D01*
X44055Y23809D02*
Y24261D01*
X43897Y24418D02*
X44117Y24199D01*
X44001Y24213D02*
X44103D01*
X43980Y24272D02*
X44044D01*
X44005Y23976D02*
X44118D01*
X44014Y24153D02*
X44108D01*
X44587Y22785D02*
Y23297D01*
X44646Y22785D02*
Y23297D01*
X44527Y22785D02*
Y23297D01*
X44764Y22785D02*
Y23297D01*
X44705Y22785D02*
Y23297D01*
X43956Y23858D02*
X44166D01*
X43985Y23917D02*
X44137D01*
X43923Y23809D02*
X44199D01*
X44173D02*
Y23846D01*
X43701Y24524D02*
Y24653D01*
X43642Y24539D02*
Y24638D01*
X43583Y24546D02*
Y24632D01*
X43524Y24545D02*
Y24633D01*
X43464Y24536D02*
Y24641D01*
X43405Y24519D02*
Y24658D01*
X43949Y24331D02*
X43985D01*
X43996Y24230D02*
Y24320D01*
X43744Y24508D02*
X43841D01*
X43996Y23809D02*
Y23947D01*
X43015Y24035D02*
X43107D01*
X43018Y24094D02*
X43104D01*
X43169Y23809D02*
Y23852D01*
X43110Y23809D02*
Y24011D01*
X44468Y22785D02*
Y23297D01*
X44823Y22785D02*
Y23297D01*
X44409Y22785D02*
Y23297D01*
X44941Y22785D02*
Y23297D01*
X44882Y22785D02*
Y23297D01*
X44173Y22785D02*
Y23297D01*
X44232Y22785D02*
Y23297D01*
X44114Y22785D02*
Y23297D01*
X44350Y22785D02*
Y23297D01*
X44291Y22785D02*
Y23297D01*
X45295Y22785D02*
Y23297D01*
X45354Y22785D02*
Y23297D01*
X45236Y22785D02*
Y23297D01*
X45472Y22785D02*
Y23297D01*
X45413Y22785D02*
Y23297D01*
X45059Y22785D02*
Y23297D01*
X45000Y22785D02*
Y23297D01*
X45177Y22785D02*
Y23297D01*
X45118Y22785D02*
Y23297D01*
X43346Y22785D02*
Y23297D01*
X43405Y22785D02*
Y23297D01*
X43287Y22785D02*
Y23297D01*
X43524Y22785D02*
Y23297D01*
X43464Y22785D02*
Y23297D01*
X43110Y22785D02*
Y23297D01*
X43051Y22785D02*
Y23297D01*
X43228Y22785D02*
Y23297D01*
X43169Y22785D02*
Y23297D01*
X43878Y22785D02*
Y23297D01*
X43937Y22785D02*
Y23297D01*
X43819Y22785D02*
Y23297D01*
X44055Y22785D02*
Y23297D01*
X43996Y22785D02*
Y23297D01*
X43642Y22785D02*
Y23297D01*
X43583Y22785D02*
Y23297D01*
X43760Y22785D02*
Y23297D01*
X43701Y22785D02*
Y23297D01*
X42697Y24525D02*
Y24652D01*
X42744Y24508D02*
X43378D01*
X42638Y24540D02*
Y24638D01*
X42843Y24449D02*
X43279D01*
X42905Y24390D02*
X43217D01*
X42520Y24544D02*
Y24633D01*
X42579Y24546D02*
Y24631D01*
X42461Y24535D02*
Y24642D01*
X41744Y24508D02*
X42378D01*
X41843Y24449D02*
X42279D01*
X42980Y24272D02*
X43142D01*
X43001Y24213D02*
X43121D01*
X43014Y24153D02*
X43108D01*
X42985Y23917D02*
X43137D01*
X43005Y23976D02*
X43118D01*
X42949Y24331D02*
X43173D01*
X41905Y24390D02*
X42217D01*
X42956Y23858D02*
X43166D01*
X41693Y24527D02*
Y24650D01*
X41949Y24331D02*
X42173D01*
X41634Y24540D02*
Y24637D01*
X41980Y24272D02*
X42142D01*
X42001Y24213D02*
X42121D01*
X41575Y24546D02*
Y24631D01*
X41516Y24544D02*
Y24633D01*
X41457Y24534D02*
Y24643D01*
X42014Y24153D02*
X42108D01*
X42015Y24035D02*
X42107D01*
X42018Y24094D02*
X42104D01*
X42165Y23809D02*
Y23859D01*
X42106Y23809D02*
Y24039D01*
X42005Y23976D02*
X42118D01*
X41956Y23858D02*
X42166D01*
X41985Y23917D02*
X42137D01*
X42992Y23809D02*
Y23935D01*
X42923Y23809D02*
X43199D01*
X42992Y22785D02*
Y23297D01*
X42933Y22785D02*
Y23297D01*
X42874Y22785D02*
Y23297D01*
X42697Y22785D02*
Y23297D01*
X41923Y23809D02*
X42199D01*
X42815Y22785D02*
Y23297D01*
X42756Y22785D02*
Y23297D01*
X42461Y22785D02*
Y23297D01*
X42520Y22785D02*
Y23297D01*
X42401Y22785D02*
Y23297D01*
X42638Y22785D02*
Y23297D01*
X42579Y22785D02*
Y23297D01*
X42224Y22785D02*
Y23297D01*
X42165Y22785D02*
Y23297D01*
X42342Y22785D02*
Y23297D01*
X42283Y22785D02*
Y23297D01*
X42047Y22785D02*
Y23297D01*
X42106Y22785D02*
Y23297D01*
X41988Y23809D02*
Y23925D01*
Y22785D02*
Y23297D01*
X41929Y22785D02*
Y23297D01*
X41870Y22785D02*
Y23297D01*
X41811Y22785D02*
Y23297D01*
X41752Y22785D02*
Y23297D01*
X41516Y22785D02*
Y23297D01*
X41575Y22785D02*
Y23297D01*
X41457Y22785D02*
Y23297D01*
X41693Y22785D02*
Y23297D01*
X41634Y22785D02*
Y23297D01*
X41279Y22785D02*
Y23297D01*
X41220Y22785D02*
Y23297D01*
X41398Y22785D02*
Y23297D01*
X41339Y22785D02*
Y23297D01*
X41043Y35841D02*
Y36093D01*
X41102Y35882D02*
Y36093D01*
X40984Y35785D02*
Y36093D01*
X40736Y35728D02*
X40941D01*
X40528Y35905D02*
X41150D01*
X40627Y35846D02*
X41050D01*
X40691Y35787D02*
X40986D01*
X40672Y35138D02*
X40984D01*
X40722Y35197D02*
X40955D01*
X40594Y35020D02*
X40984D01*
X40594Y34961D02*
X40984D01*
X40600Y35079D02*
X40984D01*
X40594Y34842D02*
X40984D01*
X40594Y34902D02*
X40984D01*
X40594Y34724D02*
X40984D01*
X40594Y34783D02*
X40984D01*
X40594Y34606D02*
X40984D01*
X40594Y34665D02*
X40984D01*
X40689Y35789D02*
Y36093D01*
X40748Y35708D02*
Y36093D01*
X40630Y35844D02*
Y36093D01*
X40925Y35701D02*
Y36093D01*
X40807Y35534D02*
Y36093D01*
X40394Y35942D02*
Y36093D01*
X40453Y35931D02*
Y36093D01*
X40335Y35945D02*
Y36093D01*
X40571Y35884D02*
Y36093D01*
X40512Y35912D02*
Y36093D01*
X40791Y35610D02*
X40887D01*
X40804Y35551D02*
X40873D01*
X40811Y35492D02*
X40867D01*
X40801Y35374D02*
X40877D01*
X40809Y35433D02*
X40868D01*
X40768Y35669D02*
X40909D01*
X40784Y35315D02*
X40893D01*
X40758Y35256D02*
X40919D01*
X40984Y34458D02*
Y35160D01*
X40984Y34458D02*
Y35160D01*
X40925Y34441D02*
Y35244D01*
X40866Y33096D02*
Y33695D01*
Y34396D02*
Y36093D01*
X40594Y34547D02*
X40984D01*
X40594Y34488D02*
X40984D01*
X40594Y34429D02*
X40904D01*
X41161Y33159D02*
Y33632D01*
X41004D02*
X41673D01*
X41102Y33159D02*
Y33632D01*
X41043Y33159D02*
Y33632D01*
X40984Y33158D02*
Y33633D01*
X40594Y33602D02*
X42083D01*
X40594Y33661D02*
X40905D01*
X40594Y33543D02*
X42083D01*
X40925Y33141D02*
Y33650D01*
X40689Y33221D02*
Y35155D01*
X40821Y33815D02*
Y34276D01*
X40630Y33266D02*
Y35100D01*
X40807Y33085D02*
Y35411D01*
X40748Y33175D02*
Y35237D01*
X40594Y34370D02*
X40847D01*
X40594Y34311D02*
X40824D01*
X40594Y34252D02*
X40821D01*
X40594Y33301D02*
Y35075D01*
Y33898D02*
X40821D01*
X40594Y33839D02*
X40821D01*
X40594Y33957D02*
X40821D01*
X40594Y33720D02*
X40847D01*
X40594Y33779D02*
X40824D01*
X40594Y34134D02*
X40821D01*
X40594Y34193D02*
X40821D01*
X40594Y34016D02*
X40821D01*
X40594Y34075D02*
X40821D01*
X40276Y35972D02*
Y36093D01*
X40224Y36024D02*
X45982D01*
X40216Y36031D02*
Y36093D01*
X40283Y35965D02*
X46041D01*
X40155Y36093D02*
X45913D01*
X40165Y36083D02*
X45922D01*
X40155Y36093D02*
X40304Y35944D01*
X39685Y35020D02*
X40083D01*
X39685Y34665D02*
X40083D01*
X39685Y34606D02*
X40083D01*
X39685Y34724D02*
X40083D01*
X39685Y34488D02*
X40083D01*
X39685Y34547D02*
X40083D01*
X39685Y34902D02*
X40083D01*
X39685Y34961D02*
X40083D01*
X39685Y34783D02*
X40083D01*
X39685Y34842D02*
X40083D01*
X39746Y35778D02*
X39893Y35631D01*
X39790Y35610D02*
X39887D01*
X39768Y35669D02*
X39855D01*
X39804Y35551D02*
X39873D01*
X39803Y35559D02*
Y35721D01*
X39736Y35728D02*
X39796D01*
X39699Y35778D02*
X39746D01*
X39744Y35715D02*
Y35778D01*
X39809Y35433D02*
X39868D01*
X39801Y35374D02*
X39877D01*
X39811Y35492D02*
X39867D01*
X39758Y35256D02*
X39919D01*
X39784Y35315D02*
X39893D01*
X39722Y35197D02*
X39955D01*
X39685Y35079D02*
X40078D01*
X39685Y35138D02*
X40005D01*
X40083Y33195D02*
Y35075D01*
X39848Y34075D02*
X40083D01*
X39848Y34252D02*
X40083D01*
X40039Y33002D02*
Y35107D01*
X39980Y33002D02*
Y35165D01*
X39822Y34370D02*
X40083D01*
X39845Y34311D02*
X40083D01*
X39766Y34429D02*
X40083D01*
X39848Y34134D02*
X40083D01*
X39848Y34193D02*
X40083D01*
X39848Y33957D02*
X40083D01*
X39848Y33898D02*
X40083D01*
X39848Y34016D02*
X40083D01*
X39845Y33779D02*
X40083D01*
X39848Y33839D02*
X40083D01*
X39764Y33661D02*
X40083D01*
X39822Y33720D02*
X40083D01*
X36826Y33543D02*
X40083D01*
X36769Y33602D02*
X40083D01*
X39803Y34397D02*
Y35386D01*
X39848Y33815D02*
Y34276D01*
X39803Y33097D02*
Y33695D01*
X39921Y33002D02*
Y35251D01*
X39862Y33002D02*
Y35662D01*
X39744Y34441D02*
Y35230D01*
X39685Y34458D02*
Y35151D01*
X39567Y33159D02*
Y33632D01*
X39626Y33159D02*
Y33632D01*
X39508Y33159D02*
Y33632D01*
X39744Y33141D02*
Y33650D01*
X39685Y33158D02*
Y33633D01*
X38996Y33632D02*
X39665D01*
X39331Y33159D02*
Y33632D01*
X39449Y33159D02*
Y33632D01*
X39390Y33159D02*
Y33632D01*
X40734Y33189D02*
X42325D01*
X41004Y33159D02*
X41673D01*
X40784Y33130D02*
X40905D01*
X40594Y33425D02*
X42109D01*
X40594Y33366D02*
X42148D01*
X40594Y33484D02*
X42088D01*
X40647Y33248D02*
X42266D01*
X40594Y33307D02*
X42207D01*
X41043Y31868D02*
Y31998D01*
X41000Y31890D02*
X41295D01*
X40984Y31896D02*
Y31998D01*
X41091Y31831D02*
X41205D01*
X41102Y31818D02*
Y31998D01*
X40591D02*
X42069D01*
X40812Y33071D02*
X40847D01*
X40925Y31908D02*
Y31998D01*
X40866Y31908D02*
Y31998D01*
X40594Y33301D02*
X40660Y33236D01*
X40158Y33014D02*
X40185Y32987D01*
X40098Y33002D02*
Y33107D01*
X39822Y33071D02*
X40115D01*
X39845Y33012D02*
X40160D01*
X39847Y33002D02*
X40099D01*
X39993Y32490D02*
X40409Y32073D01*
X40807Y31894D02*
Y31998D01*
X40748Y31865D02*
Y31998D01*
X39845Y32480D02*
X40002D01*
X39847Y32490D02*
X39993D01*
X39766Y32362D02*
X40120D01*
X39822Y32421D02*
X40061D01*
X41161Y31776D02*
Y31998D01*
X40689Y31814D02*
Y31998D01*
X40630Y31699D02*
Y31998D01*
X39965Y31122D02*
X40622D01*
Y30965D02*
Y31634D01*
X40034Y31063D02*
X40622D01*
X40417Y30728D02*
X40756D01*
X40098Y30886D02*
X40634D01*
X40689Y30728D02*
Y30785D01*
X40630Y30728D02*
Y30900D01*
X40092Y30945D02*
X40623D01*
X40072Y31004D02*
X40622D01*
X40072Y30768D02*
X40705D01*
X40092Y30827D02*
X40659D01*
X40098Y30892D02*
Y32384D01*
X40276Y30745D02*
Y32207D01*
X40039Y31056D02*
Y32443D01*
X40216Y30730D02*
Y32266D01*
X40157Y30728D02*
Y32325D01*
X39862Y31159D02*
Y32490D01*
X39803Y31161D02*
Y32395D01*
X39980Y31112D02*
Y32490D01*
X39921Y31143D02*
Y32490D01*
X40394Y30737D02*
Y32089D01*
X40453Y30728D02*
Y32038D01*
X40335Y30747D02*
Y32148D01*
X40571Y30728D02*
Y31999D01*
X40512Y30728D02*
Y32010D01*
X40049Y30728D02*
X40213D01*
X40098D02*
Y30879D01*
X38839Y31949D02*
X42118D01*
X38898Y31890D02*
X40795D01*
X38957Y31831D02*
X40705D01*
X39016Y31772D02*
X40659D01*
X39075Y31713D02*
X40634D01*
X38603Y32185D02*
X40298D01*
X38662Y32126D02*
X40357D01*
X38593Y32244D02*
X40239D01*
X38780Y32008D02*
X40520D01*
X38721Y32067D02*
X40416D01*
X39429Y31358D02*
X40622D01*
X39488Y31299D02*
X40622D01*
X39370Y31417D02*
X40622D01*
X39607Y31181D02*
X40622D01*
X39548Y31240D02*
X40622D01*
X39134Y31653D02*
X40623D01*
X39193Y31594D02*
X40622D01*
X39311Y31476D02*
X40622D01*
X39252Y31535D02*
X40622D01*
X36880Y33366D02*
X40083D01*
X36880Y33307D02*
X40083D01*
X38996Y33159D02*
X39665D01*
X39765Y33130D02*
X40091D01*
X36877Y33425D02*
X40083D01*
X36860Y33484D02*
X40083D01*
X36880Y33189D02*
X40083D01*
X36880Y33248D02*
X40083D01*
X39567Y31221D02*
Y32332D01*
X39508Y31280D02*
Y32332D01*
X39744Y31150D02*
Y32350D01*
X39626Y31162D02*
Y32332D01*
X38593Y32303D02*
X40180D01*
X38996Y32332D02*
X39665D01*
X39449Y31339D02*
Y32332D01*
X39390Y31398D02*
Y32332D01*
X38206Y29984D02*
X39902Y28288D01*
X37963Y28287D02*
X39902D01*
X37945Y28169D02*
X39902D01*
X37960Y28228D02*
X39902D01*
X37863Y28051D02*
X39902D01*
X37751Y27992D02*
X39902D01*
X37915Y28110D02*
X39902D01*
X37392Y27874D02*
X39902D01*
X37392Y27933D02*
X39902D01*
X37392Y27165D02*
X39902D01*
X37392Y27106D02*
X39902D01*
X37392Y27224D02*
X39902D01*
X37392Y26988D02*
X39902D01*
X37392Y27047D02*
X39902D01*
X37392Y27756D02*
X39902D01*
X37392Y27815D02*
X39902D01*
X37392Y27283D02*
X39902D01*
X37392Y27697D02*
X39902D01*
X39685Y31142D02*
Y32333D01*
X39646Y31142D02*
X39721D01*
X38593Y32195D02*
X39646Y31142D01*
X37963Y28524D02*
X39666D01*
X37956Y28583D02*
X39607D01*
X37837Y28760D02*
X39430D01*
X37746Y28819D02*
X39371D01*
X37937Y28642D02*
X39548D01*
X37901Y28701D02*
X39489D01*
X37963Y28405D02*
X39784D01*
X37963Y28346D02*
X39843D01*
X37963Y28465D02*
X39725D01*
X37392Y27579D02*
X39902D01*
X37392Y27638D02*
X39902D01*
X37392Y27461D02*
X39902D01*
X37392Y27520D02*
X39902D01*
X37392Y27342D02*
X39902D01*
X37392Y27402D02*
X39902D01*
X39035Y33159D02*
Y33632D01*
X39094Y33159D02*
Y33632D01*
X38976Y33158D02*
Y33633D01*
X38917Y33141D02*
Y33650D01*
X38770Y33661D02*
X38897D01*
X38386Y33159D02*
Y33632D01*
X38740Y33146D02*
Y33646D01*
X38681Y33159D02*
Y33633D01*
X38622Y33159D02*
Y33632D01*
X39153Y33159D02*
Y33632D01*
X38563Y33159D02*
Y33632D01*
X39272Y33159D02*
Y33632D01*
X39213Y33159D02*
Y33632D01*
X38002Y33159D02*
X38671D01*
X38002Y33632D02*
X38671D01*
X38504Y33159D02*
Y33632D01*
X38445Y33159D02*
Y33632D01*
X38090Y33159D02*
Y33632D01*
X38150Y33159D02*
Y33632D01*
X38031Y33159D02*
Y33632D01*
X37972Y33157D02*
Y33635D01*
X37913Y33136D02*
Y33655D01*
X37766Y33661D02*
X37903D01*
X37736Y33146D02*
Y33646D01*
X37677Y33159D02*
Y33633D01*
X38268Y33159D02*
Y33632D01*
X38327Y33159D02*
Y33632D01*
X38209Y33159D02*
Y33632D01*
X37767Y33130D02*
X37903D01*
X37618Y33159D02*
Y33632D01*
X37441Y33159D02*
Y33632D01*
X37382Y33159D02*
Y33632D01*
X37559Y33159D02*
Y33632D01*
X37500Y33159D02*
Y33632D01*
X38858Y33096D02*
Y33695D01*
Y31929D02*
Y32395D01*
X38799Y31988D02*
Y32384D01*
X38770Y33130D02*
X38897D01*
X38799Y33107D02*
Y33684D01*
X38771Y32362D02*
X38896D01*
X39153Y31634D02*
Y32332D01*
X39213Y31575D02*
Y32332D01*
X39094Y31693D02*
Y32332D01*
X39331Y31457D02*
Y32332D01*
X39272Y31516D02*
Y32332D01*
X38917Y31870D02*
Y32350D01*
X38740Y32048D02*
Y32346D01*
X39035Y31752D02*
Y32332D01*
X38976Y31811D02*
Y32333D01*
X38622Y32166D02*
Y32332D01*
X38593D02*
X38671D01*
X38593Y32195D02*
Y32332D01*
X38681Y32107D02*
Y32333D01*
X37963Y29882D02*
Y30020D01*
X37854Y33084D02*
Y33707D01*
X37795Y33107D02*
Y33684D01*
X37963Y29941D02*
X38249D01*
X37963Y30000D02*
X37996D01*
X37956Y29823D02*
X38367D01*
X37963Y29882D02*
X38308D01*
X37901Y29705D02*
X38485D01*
X37937Y29764D02*
X38426D01*
X37913Y28684D02*
Y29722D01*
X36811Y35197D02*
X36955D01*
X36811Y35728D02*
X36941D01*
X36984Y34459D02*
Y35160D01*
X36968Y34457D02*
Y35179D01*
X36810Y35138D02*
X36984D01*
X36790Y35079D02*
X36984D01*
X36811Y35778D02*
X36978D01*
X36594Y34961D02*
X36984D01*
X36730Y35020D02*
X36984D01*
X36594Y34606D02*
X36984D01*
X36594Y34547D02*
X36984D01*
X36594Y34665D02*
X36984D01*
X36594Y34488D02*
X36984D01*
X36594Y34842D02*
X36984D01*
X36594Y34902D02*
X36984D01*
X36594Y34724D02*
X36984D01*
X36594Y34783D02*
X36984D01*
X36909Y35670D02*
Y35778D01*
X36811Y35669D02*
X36909D01*
X36811Y35610D02*
X36887D01*
X36850Y34384D02*
Y35778D01*
X36811Y35157D02*
Y35778D01*
Y35551D02*
X36873D01*
X36811Y35492D02*
X36867D01*
X36811Y35374D02*
X36877D01*
X36811Y35433D02*
X36868D01*
X36811Y35315D02*
X36893D01*
X36811Y35256D02*
X36919D01*
X36909Y34436D02*
Y35275D01*
X36594Y35000D02*
X36654D01*
X36594Y34429D02*
X36898D01*
X36594Y34370D02*
X36841D01*
X36594Y34311D02*
X36818D01*
X36594Y34252D02*
X36815D01*
X37146Y33159D02*
Y33632D01*
X37205Y33159D02*
Y33632D01*
X37087Y33159D02*
Y33632D01*
X36968Y33157D02*
Y33635D01*
X36909Y33136D02*
Y33655D01*
X36651Y33720D02*
X36842D01*
X36710Y33661D02*
X36899D01*
X36594Y33779D02*
X36819D01*
X36850Y33505D02*
Y33707D01*
X37323Y33159D02*
Y33632D01*
X36998D02*
X37667D01*
X37264Y33159D02*
Y33632D01*
X36998Y33159D02*
X37667D01*
X37027D02*
Y33632D01*
X36880Y33116D02*
Y33386D01*
X36673Y33699D02*
Y35001D01*
X36815Y33815D02*
Y34276D01*
X36614Y33758D02*
Y35000D01*
X36791Y33580D02*
Y35081D01*
X36732Y33640D02*
Y35021D01*
X36594Y34134D02*
X36815D01*
X36594Y34193D02*
X36815D01*
X36594Y34075D02*
X36815D01*
X36594Y33777D02*
Y35000D01*
Y33957D02*
X36815D01*
X36594Y33898D02*
X36815D01*
X36594Y34016D02*
X36815D01*
X36594Y33839D02*
X36815D01*
X36594Y33777D02*
X36805Y33567D01*
X36329Y29705D02*
X36371D01*
X36378Y28710D02*
Y29696D01*
X36329Y29419D02*
Y29778D01*
X37837Y29646D02*
X38544D01*
X37746Y29587D02*
X38603D01*
X37746Y28801D02*
Y29605D01*
X37854Y28747D02*
Y29658D01*
X37795Y28784D02*
Y29622D01*
X37746Y29527D02*
X38662D01*
X37746Y29468D02*
X38721D01*
X36329D02*
X36516D01*
X37746Y29409D02*
X38780D01*
X36328D02*
X36516D01*
X37746Y29055D02*
X39135D01*
X37746Y28996D02*
X39194D01*
X37746Y29114D02*
X39075D01*
X37746Y28878D02*
X39312D01*
X37746Y28937D02*
X39253D01*
X37746Y29291D02*
X38898D01*
X37746Y29350D02*
X38839D01*
X37746Y29173D02*
X39016D01*
X37746Y29232D02*
X38957D01*
X36516Y28798D02*
Y29608D01*
X36329Y29587D02*
X36516D01*
X36329Y29646D02*
X36434D01*
X36496Y28792D02*
Y29614D01*
X36437Y28762D02*
Y29644D01*
X36313Y29350D02*
X36516D01*
X36329Y29527D02*
X36516D01*
X36319Y28746D02*
Y29364D01*
X36263Y29291D02*
X36516D01*
X36263Y28819D02*
X36516D01*
X36313Y28760D02*
X36434D01*
X36328Y28701D02*
X36371D01*
X36329Y28628D02*
Y28691D01*
X36201Y28846D02*
Y29265D01*
X36142Y28848D02*
Y29262D01*
X36260Y28821D02*
Y29289D01*
X37963Y28268D02*
Y28524D01*
X37392Y27982D02*
X37677D01*
X36880Y27689D02*
Y27982D01*
X36673Y27865D02*
Y27982D01*
X36594D02*
X36880D01*
X36614Y27889D02*
Y27982D01*
X36791Y27789D02*
Y27982D01*
X36732Y27833D02*
Y27982D01*
X36826Y27756D02*
X36880D01*
X36826Y27047D02*
X36880D01*
X36850Y27729D02*
Y27982D01*
X36880Y27025D02*
Y27114D01*
X36850Y26996D02*
Y27074D01*
X36759Y27815D02*
X36880D01*
X36654Y27874D02*
X36880D01*
X36758Y26988D02*
X36843D01*
X36791Y26937D02*
Y27014D01*
X36286Y28169D02*
X36327D01*
X36319Y27894D02*
Y28194D01*
X36260Y27874D02*
Y28147D01*
X36083Y27953D02*
Y28120D01*
X36201Y27845D02*
Y28123D01*
X36142Y27805D02*
Y28120D01*
X36437Y27913D02*
Y28030D01*
X36496Y27912D02*
Y28000D01*
X36378Y27907D02*
Y28082D01*
X36555Y27904D02*
Y27985D01*
X36083Y28110D02*
X36356D01*
X36083Y28120D02*
X36171D01*
X36083Y27992D02*
X36520D01*
X36083Y28051D02*
X36409D01*
X35965Y28848D02*
Y29262D01*
X35482D02*
X36171D01*
X35905Y28848D02*
Y29262D01*
X36083Y28848D02*
Y29262D01*
X36024Y28848D02*
Y29262D01*
X35236Y29173D02*
X36516D01*
X35236Y29114D02*
X36516D01*
X35244Y29232D02*
X36516D01*
X35236Y28996D02*
X36516D01*
X35236Y29055D02*
X36516D01*
X36082Y27933D02*
X36880D01*
X36070Y27874D02*
X36260D01*
X36042Y27815D02*
X36155D01*
X35236Y28878D02*
X36516D01*
X35236Y28937D02*
X36516D01*
X35482Y28848D02*
X36171D01*
X35992Y27756D02*
X36087D01*
X35610Y28848D02*
Y29262D01*
X35669Y28848D02*
Y29262D01*
X35551Y28848D02*
Y29262D01*
X35492Y28848D02*
Y29262D01*
X35433Y28841D02*
Y29270D01*
X35360Y29291D02*
X35391D01*
X35374Y28805D02*
Y29303D01*
X35787Y28848D02*
Y29262D01*
X35846Y28848D02*
Y29262D01*
X35728Y28848D02*
Y29262D01*
X35334Y28819D02*
X35390D01*
X35256Y28855D02*
Y29236D01*
X35236Y28860D02*
Y29230D01*
X35315Y28830D02*
Y29260D01*
X36083Y27751D02*
Y27947D01*
X35933Y27697D02*
X36039D01*
X36024Y27674D02*
Y27789D01*
X35874Y27638D02*
X36003D01*
X35965Y27542D02*
Y27729D01*
X35770Y27534D02*
X36007Y27772D01*
X35815Y27579D02*
X35977D01*
X35774Y27520D02*
X35959D01*
X35784Y27461D02*
X35948D01*
X35784Y27342D02*
X35948D01*
X35787Y27402D02*
X35945D01*
X35756Y27224D02*
X35977D01*
X35774Y27283D02*
X35959D01*
X35694Y27106D02*
X36039D01*
X35730Y27165D02*
X36003D01*
X35577Y26988D02*
X36155D01*
X35645Y27047D02*
X36087D01*
X33371Y27697D02*
X33437D01*
X33366Y27638D02*
X33496D01*
X35787Y27410D02*
Y27551D01*
X33384Y27751D02*
X33600Y27534D01*
X33366Y27520D02*
X33596D01*
X33366Y27579D02*
X33555D01*
X33366Y27461D02*
X33586D01*
X33366Y27402D02*
X33583D01*
X33366Y27283D02*
X33596D01*
X33366Y27224D02*
X33614D01*
X33366Y27342D02*
X33586D01*
X34961Y26929D02*
X35079D01*
X34396Y26988D02*
X34449D01*
X33366Y27106D02*
X33676D01*
X33366Y27165D02*
X33640D01*
X33366Y26988D02*
X33793D01*
X33366Y27047D02*
X33725D01*
X40645Y26398D02*
X40687D01*
X39971Y26701D02*
X40186Y26486D01*
X39902Y26868D02*
Y28288D01*
X39153Y25029D02*
Y29036D01*
X39094Y25091D02*
Y29095D01*
X40717Y26362D02*
X41534Y25545D01*
X41161Y25311D02*
Y25918D01*
X40567Y26339D02*
X40741D01*
X39192Y24980D02*
X41117D01*
X39145Y25039D02*
X41106D01*
X38747Y25276D02*
X41143D01*
X38914Y25216D02*
X41122D01*
X39013Y25157D02*
X41109D01*
X39087Y25098D02*
X41104D01*
X38445Y25281D02*
Y29745D01*
X38504Y25290D02*
Y29686D01*
X38386Y25267D02*
Y29804D01*
X38327Y25249D02*
Y29863D01*
X38268Y25224D02*
Y29922D01*
X38209Y25193D02*
Y29981D01*
X38150Y25156D02*
Y29972D01*
X38090Y25109D02*
Y29972D01*
X38031Y25051D02*
Y29985D01*
X37972Y24978D02*
Y30013D01*
X38858Y25241D02*
Y29331D01*
X38917Y25215D02*
Y29272D01*
X38799Y25262D02*
Y29390D01*
X39035Y25141D02*
Y29154D01*
X38976Y25182D02*
Y29213D01*
X38622Y25293D02*
Y29568D01*
X38563Y25293D02*
Y29627D01*
X38740Y25277D02*
Y29449D01*
X38681Y25287D02*
Y29509D01*
X40689Y23809D02*
Y26395D01*
X40630Y23809D02*
Y26382D01*
X40571Y23809D02*
Y26341D01*
X40807Y23809D02*
Y26272D01*
X40748Y23809D02*
Y26331D01*
X40335Y23809D02*
Y26331D01*
X40394Y23809D02*
Y26314D01*
X40276Y23809D02*
Y26366D01*
X40512Y23809D02*
Y26318D01*
X40453Y23809D02*
Y26309D01*
X41161Y24311D02*
Y24866D01*
X41102Y23809D02*
Y25977D01*
X41043Y23809D02*
Y26036D01*
X40984Y23809D02*
Y26095D01*
X39260Y24862D02*
X41164D01*
X39230Y24921D02*
X41135D01*
X40925Y23809D02*
Y26154D01*
X40866Y23809D02*
Y26213D01*
X39508Y23809D02*
Y28682D01*
X39567Y23809D02*
Y28623D01*
X39449Y23809D02*
Y28741D01*
X39685Y23809D02*
Y28505D01*
X39626Y23809D02*
Y28564D01*
X39272Y24837D02*
Y28918D01*
X39213Y24949D02*
Y28977D01*
X39390Y23809D02*
Y28800D01*
X39331Y24556D02*
Y28859D01*
X40039Y23809D02*
Y26632D01*
X40098Y23809D02*
Y26573D01*
X39980Y23809D02*
Y26691D01*
X40216Y23809D02*
Y26428D01*
X40157Y23809D02*
Y26514D01*
X39803Y23809D02*
Y28386D01*
X39744Y23809D02*
Y28446D01*
X39921Y23809D02*
Y26773D01*
X39862Y23809D02*
Y28327D01*
X37212Y26634D02*
X40037D01*
X37153Y26575D02*
X40097D01*
X37271Y26693D02*
X39978D01*
X37035Y26457D02*
X40199D01*
X37094Y26516D02*
X40156D01*
X36955Y26339D02*
X40319D01*
X36965Y26279D02*
X40800D01*
X36976Y26398D02*
X40241D01*
X36965Y26161D02*
X40918D01*
X36969Y26220D02*
X40859D01*
X36937Y26043D02*
X41036D01*
X36911Y25984D02*
X41095D01*
X36955Y26102D02*
X40977D01*
X36826Y25866D02*
X41213D01*
X36875Y25925D02*
X41154D01*
X36653Y25748D02*
X41331D01*
X36758Y25807D02*
X41272D01*
X33366Y25630D02*
X41449D01*
X33366Y25689D02*
X41390D01*
X37392Y26919D02*
Y27982D01*
Y26929D02*
X39902D01*
X36732Y26878D02*
Y26970D01*
X36653Y26929D02*
X36784D01*
X36573Y26719D02*
X36880Y27025D01*
X36673Y26819D02*
Y26938D01*
X37368Y26811D02*
X39908D01*
X37329Y26752D02*
X39932D01*
X37387Y26870D02*
X39902D01*
X36968Y26229D02*
Y26390D01*
X34988Y26870D02*
X36725D01*
X35047Y26811D02*
X36666D01*
X36947Y26368D02*
X37317Y26738D01*
X37913Y24880D02*
Y28107D01*
X37854Y24716D02*
Y28044D01*
X37795Y23809D02*
Y28008D01*
X37736Y23809D02*
Y27988D01*
X37677Y23809D02*
Y27982D01*
X33366Y25571D02*
X41508D01*
X33366Y25512D02*
X41387D01*
X33366Y25453D02*
X41284D01*
X33366Y25394D02*
X41220D01*
X33366Y25335D02*
X41175D01*
X35821Y25039D02*
X38021D01*
X35871Y24980D02*
X37974D01*
X35912Y24921D02*
X37936D01*
X35284Y25276D02*
X38419D01*
X35567Y25216D02*
X38252D01*
X35679Y25157D02*
X38152D01*
X35759Y25098D02*
X38079D01*
X37441Y23809D02*
Y27982D01*
X37500Y23809D02*
Y27982D01*
X37382Y23809D02*
Y26849D01*
X37618Y23809D02*
Y27982D01*
X37559Y23809D02*
Y27982D01*
X37205Y23809D02*
Y26626D01*
X37146Y23809D02*
Y26567D01*
X37323Y23809D02*
Y26745D01*
X37264Y23809D02*
Y26685D01*
X36968Y23809D02*
Y26212D01*
X36909Y23809D02*
Y25982D01*
X36850Y23809D02*
Y25893D01*
X37087Y23809D02*
Y26508D01*
X37027Y23809D02*
Y26449D01*
X36673Y23809D02*
Y25757D01*
X36614Y23809D02*
Y25733D01*
X36791Y23809D02*
Y25833D01*
X36732Y23809D02*
Y25789D01*
X39326Y24626D02*
X43828D01*
X39330Y24567D02*
X43829D01*
X39330Y24508D02*
X41378D01*
X39324Y24449D02*
X41279D01*
X39304Y24744D02*
X41260D01*
X39318Y24685D02*
X41346D01*
X39285Y24803D02*
X41204D01*
X39314Y24390D02*
X41217D01*
X39299Y24331D02*
X41173D01*
X39279Y24272D02*
X41142D01*
X39252Y24213D02*
X41121D01*
X39220Y24153D02*
X41108D01*
X41161Y23809D02*
Y23866D01*
X38988Y23917D02*
X41137D01*
X39068Y23976D02*
X41118D01*
X38713Y23809D02*
X41199D01*
X38878Y23858D02*
X41166D01*
X39331Y23809D02*
Y24535D01*
X39179Y24094D02*
X41104D01*
X39272Y23809D02*
Y24254D01*
X39213Y23809D02*
Y24142D01*
X39153Y23809D02*
Y24062D01*
X39130Y24035D02*
X41107D01*
X39094Y23809D02*
Y24000D01*
X39035Y23809D02*
Y23950D01*
X40453Y22785D02*
Y23297D01*
X40512Y22785D02*
Y23297D01*
X40394Y22785D02*
Y23297D01*
X40630Y22785D02*
Y23297D01*
X40571Y22785D02*
Y23297D01*
X38917Y23809D02*
Y23877D01*
X38858Y23809D02*
Y23850D01*
X40276Y22785D02*
Y23297D01*
X38976Y23809D02*
Y23910D01*
X40098Y22785D02*
Y23297D01*
X40157Y22785D02*
Y23297D01*
X40039Y22785D02*
Y23297D01*
X40335Y22785D02*
Y23297D01*
X40216Y22785D02*
Y23297D01*
X39803Y22785D02*
Y23297D01*
X39862Y22785D02*
Y23297D01*
X39744Y22785D02*
Y23297D01*
X39980Y22785D02*
Y23297D01*
X39921Y22785D02*
Y23297D01*
X40984Y22785D02*
Y23297D01*
X41043Y22785D02*
Y23297D01*
X40925Y22785D02*
Y23297D01*
X41161Y22785D02*
Y23297D01*
X41102Y22785D02*
Y23297D01*
X40748Y22785D02*
Y23297D01*
X40689Y22785D02*
Y23297D01*
X40866Y22785D02*
Y23297D01*
X40807Y22785D02*
Y23297D01*
X38976Y22785D02*
Y23297D01*
X39035Y22785D02*
Y23297D01*
X38917Y22785D02*
Y23297D01*
X39153Y22785D02*
Y23297D01*
X39094Y22785D02*
Y23297D01*
X38740Y22785D02*
Y23297D01*
X38681Y22785D02*
Y23297D01*
X38858Y22785D02*
Y23297D01*
X38799Y22785D02*
Y23297D01*
X39508Y22785D02*
Y23297D01*
X39567Y22785D02*
Y23297D01*
X39449Y22785D02*
Y23297D01*
X39685Y22785D02*
Y23297D01*
X39626Y22785D02*
Y23297D01*
X39272Y22785D02*
Y23297D01*
X39213Y22785D02*
Y23297D01*
X39390Y22785D02*
Y23297D01*
X39331Y22785D02*
Y23297D01*
X38150Y23809D02*
Y23936D01*
X38209Y23809D02*
Y23898D01*
X38090Y23809D02*
Y23982D01*
X38327Y23809D02*
Y23843D01*
X38268Y23809D02*
Y23867D01*
X35781Y23976D02*
X38097D01*
X35708Y23917D02*
X38177D01*
X35839Y24035D02*
X38036D01*
X35484Y23809D02*
X38452D01*
X35610Y23858D02*
X38288D01*
X32874Y23268D02*
X47598D01*
X32874Y23209D02*
X47598D01*
X33514Y23297D02*
X46014D01*
X32874Y23091D02*
X47598D01*
X32874Y23150D02*
X47598D01*
X32874Y22972D02*
X47598D01*
X32874Y23031D02*
X47598D01*
X32874Y22854D02*
X47598D01*
X32874Y22913D02*
X47598D01*
X36017Y24626D02*
X37839D01*
X36023Y24508D02*
X37836D01*
X36023Y24567D02*
X37835D01*
X36011Y24390D02*
X37851D01*
X36019Y24449D02*
X37841D01*
X35945Y24862D02*
X37905D01*
X35971Y24803D02*
X37880D01*
X35992Y24744D02*
X37861D01*
X36007Y24685D02*
X37848D01*
X35997Y24331D02*
X37866D01*
X37913Y23809D02*
Y24212D01*
X37854Y23809D02*
Y24376D01*
X38031Y23809D02*
Y24040D01*
X37972Y23809D02*
Y24113D01*
X35954Y24213D02*
X37913D01*
X35978Y24272D02*
X37887D01*
X35885Y24094D02*
X37986D01*
X35923Y24153D02*
X37946D01*
X38445Y22785D02*
Y23297D01*
X38504Y22785D02*
Y23297D01*
X38386Y22785D02*
Y23297D01*
X38622Y22785D02*
Y23297D01*
X38563Y22785D02*
Y23297D01*
X38150Y22785D02*
Y23297D01*
X38209Y22785D02*
Y23297D01*
X37795Y22785D02*
Y23297D01*
X38327Y22785D02*
Y23297D01*
X38268Y22785D02*
Y23297D01*
X37913Y22785D02*
Y23297D01*
X37972Y22785D02*
Y23297D01*
X37854Y22785D02*
Y23297D01*
X38090Y22785D02*
Y23297D01*
X38031Y22785D02*
Y23297D01*
X32874Y22785D02*
X47598D01*
X32874Y22795D02*
X47598D01*
X37736Y22785D02*
Y23297D01*
X37677Y22785D02*
Y23297D01*
X36909Y22785D02*
Y23297D01*
X36968Y22785D02*
Y23297D01*
X36850Y22785D02*
Y23297D01*
X37087Y22785D02*
Y23297D01*
X37027Y22785D02*
Y23297D01*
X36673Y22785D02*
Y23297D01*
X36614Y22785D02*
Y23297D01*
X36791Y22785D02*
Y23297D01*
X36732Y22785D02*
Y23297D01*
X37441Y22785D02*
Y23297D01*
X37500Y22785D02*
Y23297D01*
X37382Y22785D02*
Y23297D01*
X37618Y22785D02*
Y23297D01*
X37559Y22785D02*
Y23297D01*
X37205Y22785D02*
Y23297D01*
X37146Y22785D02*
Y23297D01*
X37323Y22785D02*
Y23297D01*
X37264Y22785D02*
Y23297D01*
X36614Y26759D02*
Y26915D01*
X36555Y26723D02*
Y26899D01*
X36319Y26713D02*
Y26909D01*
X36260Y26693D02*
Y26929D01*
X36201Y26664D02*
Y26958D01*
X35472Y26929D02*
X36260D01*
X36142Y26624D02*
Y26998D01*
X36083Y26570D02*
Y27052D01*
X36024Y26493D02*
Y27129D01*
X36496Y26731D02*
Y26891D01*
X36437Y26732D02*
Y26890D01*
X36378Y26726D02*
Y26896D01*
X35694Y26516D02*
X36039D01*
X35730Y26457D02*
X36003D01*
X35106Y26752D02*
X36607D01*
X35473Y26693D02*
X36260D01*
X35577Y26634D02*
X36155D01*
X35645Y26575D02*
X36087D01*
X35669Y26548D02*
Y27074D01*
X35610Y26608D02*
Y27014D01*
X35551Y26652D02*
Y26970D01*
X35965Y26361D02*
Y27261D01*
X35728Y26459D02*
Y27163D01*
X35020Y26838D02*
Y26958D01*
X34961Y26897D02*
Y26998D01*
X35492Y26684D02*
Y26938D01*
X35079Y26779D02*
Y26929D01*
X35433Y26707D02*
Y26915D01*
X35374Y26723D02*
Y26899D01*
X35315Y26731D02*
Y26891D01*
X35756Y26398D02*
X35977D01*
X35774Y26339D02*
X35959D01*
X35256Y26732D02*
Y26890D01*
X35197Y26726D02*
Y26896D01*
X34961Y26897D02*
X35143Y26715D01*
X35138Y26720D02*
Y26909D01*
X35905Y24931D02*
Y27670D01*
X35787Y26220D02*
X35945D01*
X35846Y25011D02*
Y27610D01*
X36024Y24538D02*
Y25948D01*
X35965Y24819D02*
Y26080D01*
X35784Y26161D02*
X35948D01*
X35774Y26102D02*
X35959D01*
X35784Y26279D02*
X35948D01*
X35730Y25984D02*
X36003D01*
X35756Y26043D02*
X35977D01*
X36142Y23809D02*
Y25817D01*
X36201Y23809D02*
Y25777D01*
X36083Y23809D02*
Y25871D01*
X36319Y23809D02*
Y25728D01*
X36260Y23809D02*
Y25748D01*
X35645Y25866D02*
X36087D01*
X35694Y25925D02*
X36039D01*
X35472Y25748D02*
X36260D01*
X35577Y25807D02*
X36155D01*
X35787Y26229D02*
Y27393D01*
X35669Y25164D02*
Y25893D01*
X35787Y25073D02*
Y26212D01*
X35728Y25123D02*
Y25982D01*
X34842Y25137D02*
Y25948D01*
X34783Y25091D02*
Y26080D01*
X34724Y25033D02*
Y26410D01*
X35492Y25244D02*
Y25757D01*
X35433Y25259D02*
Y25733D01*
X35138Y25263D02*
Y25728D01*
X35610Y25197D02*
Y25833D01*
X35551Y25223D02*
Y25789D01*
X35079Y25249D02*
Y25748D01*
X35020Y25230D02*
Y25777D01*
X34961Y25206D02*
Y25817D01*
X34902Y25175D02*
Y25871D01*
X34449Y26791D02*
Y27032D01*
X34291Y26929D02*
X34449D01*
X34429Y26732D02*
Y27014D01*
X34370Y26732D02*
Y26970D01*
X34311Y26732D02*
Y26938D01*
X33366Y26870D02*
X34449D01*
X34252Y26732D02*
Y26915D01*
X34193Y26732D02*
Y26899D01*
X34134Y26732D02*
Y26891D01*
X34606Y26457D02*
X34678D01*
X34606Y26398D02*
X34737D01*
X34606Y26528D02*
X34781Y26353D01*
X34606Y26339D02*
X34778D01*
X33366Y26752D02*
X34452D01*
X33366Y26811D02*
X34449D01*
X33740Y26732D02*
X34449D01*
X33839D02*
Y26958D01*
X33898Y26732D02*
Y26929D01*
X33779Y26732D02*
Y26998D01*
X34016Y26732D02*
Y26896D01*
X33957Y26732D02*
Y26909D01*
X33366Y26929D02*
X33898D01*
X33720Y26731D02*
Y27052D01*
X33661Y26711D02*
Y27129D01*
X33602Y26651D02*
Y27261D01*
X34075Y26732D02*
Y26890D01*
X33366Y26693D02*
X33636D01*
X33366Y26634D02*
X33594D01*
X33366Y26575D02*
X33583D01*
X33366Y26457D02*
X33583D01*
X33366Y26516D02*
X33583D01*
X33366Y26339D02*
X33583D01*
X33366Y26398D02*
X33583D01*
X34606Y26161D02*
X34767D01*
X34606Y26102D02*
X34778D01*
X34606Y26279D02*
X34767D01*
X34665Y24960D02*
Y26469D01*
X34606Y25866D02*
Y26528D01*
Y26220D02*
X34764D01*
X34606Y25984D02*
X34822D01*
X34606Y25925D02*
X34858D01*
X34606Y26043D02*
X34795D01*
X34606Y25866D02*
X34906D01*
X34606Y24861D02*
Y25861D01*
X34553Y25748D02*
X35079D01*
X34595Y25807D02*
X34974D01*
X34547Y24698D02*
Y25743D01*
X33425Y24004D02*
Y27709D01*
X33583Y25866D02*
Y26575D01*
X33366Y24063D02*
Y27683D01*
X33543Y23886D02*
Y27591D01*
X33484Y23945D02*
Y27650D01*
X33366Y26220D02*
X33583D01*
X33366Y26279D02*
X33583D01*
X33366Y26102D02*
X33583D01*
X33366Y26161D02*
X33583D01*
X33366Y25925D02*
X33583D01*
X33366Y26043D02*
X33583D01*
X33661Y23809D02*
Y25730D01*
X33602Y23827D02*
Y25790D01*
X33366Y25866D02*
X33583D01*
X33366Y25984D02*
X33583D01*
X33366Y25748D02*
X33636D01*
X33366Y25807D02*
X33594D01*
X36378Y23809D02*
Y25715D01*
X36437Y23809D02*
Y25709D01*
X36024Y23809D02*
Y24517D01*
X36555Y23809D02*
Y25718D01*
X36496Y23809D02*
Y25710D01*
X35965Y23809D02*
Y24236D01*
X36201Y22785D02*
Y23297D01*
X36260Y22785D02*
Y23297D01*
X35905Y23809D02*
Y24124D01*
X36555Y22785D02*
Y23297D01*
X36496Y22785D02*
Y23297D01*
X35728Y23809D02*
Y23932D01*
X35669Y23809D02*
Y23891D01*
X35846Y23809D02*
Y24044D01*
X35787Y23809D02*
Y23982D01*
X35315Y25275D02*
Y25710D01*
X35256Y25275D02*
Y25709D01*
X35197Y25271D02*
Y25715D01*
X35374Y25269D02*
Y25718D01*
X34488Y23809D02*
Y25714D01*
X34311Y23809D02*
Y25709D01*
X34252Y23809D02*
Y25709D01*
X34429Y23809D02*
Y25709D01*
X34370Y23809D02*
Y25709D01*
X34842Y23809D02*
Y23918D01*
X34902Y23809D02*
Y23880D01*
X34783Y23809D02*
Y23964D01*
X35610Y23809D02*
Y23859D01*
X34961Y23809D02*
Y23849D01*
X34606Y23809D02*
Y24194D01*
X34547Y23809D02*
Y24357D01*
X34724Y23809D02*
Y24022D01*
X34665Y23809D02*
Y24095D01*
X35610Y22785D02*
Y23297D01*
X35669Y22785D02*
Y23297D01*
X35551Y22785D02*
Y23297D01*
X35787Y22785D02*
Y23297D01*
X35728Y22785D02*
Y23297D01*
X35315Y22785D02*
Y23297D01*
X35374Y22785D02*
Y23297D01*
X35256Y22785D02*
Y23297D01*
X35492Y22785D02*
Y23297D01*
X35433Y22785D02*
Y23297D01*
X36142Y22785D02*
Y23297D01*
X36319Y22785D02*
Y23297D01*
X36083Y22785D02*
Y23297D01*
X36437Y22785D02*
Y23297D01*
X36378Y22785D02*
Y23297D01*
X35905Y22785D02*
Y23297D01*
X35846Y22785D02*
Y23297D01*
X36024Y22785D02*
Y23297D01*
X35965Y22785D02*
Y23297D01*
X34488Y22785D02*
Y23297D01*
X34547Y22785D02*
Y23297D01*
X34429Y22785D02*
Y23297D01*
X34665Y22785D02*
Y23297D01*
X34606Y22785D02*
Y23297D01*
X34252Y22785D02*
Y23297D01*
X34193Y22785D02*
Y23297D01*
X34370Y22785D02*
Y23297D01*
X34311Y22785D02*
Y23297D01*
X35020Y22785D02*
Y23297D01*
X35079Y22785D02*
Y23297D01*
X34961Y22785D02*
Y23297D01*
X35197Y22785D02*
Y23297D01*
X35138Y22785D02*
Y23297D01*
X34783Y22785D02*
Y23297D01*
X34724Y22785D02*
Y23297D01*
X34902Y22785D02*
Y23297D01*
X34842Y22785D02*
Y23297D01*
X33366Y24980D02*
X34680D01*
X33366Y24921D02*
X34640D01*
X33366Y24862D02*
X34607D01*
X33366Y24803D02*
X34580D01*
X33366Y24744D02*
X34560D01*
X33366Y25276D02*
X35267D01*
X33366Y25216D02*
X34984D01*
X33366Y25157D02*
X34872D01*
X33366Y25098D02*
X34792D01*
X33366Y25039D02*
X34730D01*
X33452Y23976D02*
X34770D01*
X33512Y23917D02*
X34843D01*
X33393Y24035D02*
X34712D01*
X33620Y23809D02*
X35068D01*
X33571Y23858D02*
X34942D01*
X33366Y24213D02*
X34597D01*
X33366Y24272D02*
X34573D01*
X33366Y24094D02*
X34666D01*
X33366Y24153D02*
X34628D01*
X34016Y23809D02*
Y25709D01*
X34075Y23809D02*
Y25709D01*
X33957Y23809D02*
Y25709D01*
X34193Y23809D02*
Y25709D01*
X34134Y23809D02*
Y25709D01*
X33740D02*
X34449D01*
X33839Y23809D02*
Y25709D01*
X33779Y23809D02*
Y25709D01*
X33720Y23809D02*
Y25710D01*
X33366Y24685D02*
X34544D01*
X33366Y24626D02*
X34534D01*
X33366Y24567D02*
X34529D01*
X33366Y24508D02*
X34528D01*
X33898Y23809D02*
Y25709D01*
X33366Y24390D02*
X34540D01*
X33366Y24449D02*
X34532D01*
X33366Y24331D02*
X34554D01*
X33366Y24063D02*
X33620Y23809D01*
X33425Y22785D02*
Y23313D01*
X33484Y22785D02*
Y23299D01*
X33366Y22785D02*
Y23344D01*
X33957Y22785D02*
Y23297D01*
X33898Y22785D02*
Y23297D01*
X32930Y23775D02*
X33333Y23372D01*
X32874Y23327D02*
X33395D01*
X32874Y23386D02*
X33319D01*
X33839Y22785D02*
Y23297D01*
X34016Y22785D02*
Y23297D01*
X33779Y22785D02*
Y23297D01*
X34134Y22785D02*
Y23297D01*
X34075Y22785D02*
Y23297D01*
X33602Y22785D02*
Y23297D01*
X33543Y22785D02*
Y23297D01*
X33720Y22785D02*
Y23297D01*
X33661Y22785D02*
Y23297D01*
X32894Y22785D02*
Y23820D01*
X32874Y22785D02*
Y23858D01*
X33012Y22785D02*
Y23693D01*
X32953Y22785D02*
Y23752D01*
X32874Y23799D02*
X32909D01*
X32874Y23681D02*
X33024D01*
X32874Y23740D02*
X32965D01*
X33130Y22785D02*
Y23575D01*
X33189Y22785D02*
Y23516D01*
X33071Y22785D02*
Y23634D01*
X33307Y22785D02*
Y23398D01*
X33248Y22785D02*
Y23457D01*
X32874Y23563D02*
X33142D01*
X32874Y23622D02*
X33083D01*
X32874Y23445D02*
X33260D01*
X32874Y23504D02*
X33201D01*
X34178Y31831D02*
X34431D01*
X34134Y31868D02*
Y32206D01*
X34193Y31808D02*
Y32132D01*
X34075Y31888D02*
Y32281D01*
X33839Y32579D02*
X34665Y31535D01*
X34213Y31653D02*
X34572D01*
X34213Y31713D02*
X34525D01*
X34213Y31535D02*
X34665D01*
X34213Y31594D02*
X34619D01*
X34208Y31772D02*
X34478D01*
X33839Y31890D02*
Y32579D01*
X33779Y31890D02*
Y32579D01*
X33898Y31890D02*
Y32504D01*
X33720Y31890D02*
Y32579D01*
X33661Y31885D02*
Y32579D01*
X33602Y31855D02*
Y32579D01*
X34016Y31890D02*
Y32355D01*
X33957Y31890D02*
Y32430D01*
X33701Y31890D02*
X34055D01*
X34547Y31417D02*
Y31685D01*
X34488Y31358D02*
Y31759D01*
X34429Y31299D02*
Y31834D01*
X34311Y31289D02*
Y31983D01*
X34252Y31289D02*
Y32057D01*
X34370Y31289D02*
Y31908D01*
X34213Y31476D02*
X34606D01*
X34606Y31476D02*
Y31610D01*
X34419Y31289D02*
X34665Y31535D01*
X34208Y31417D02*
X34547D01*
X34178Y31358D02*
X34488D01*
X34063Y31299D02*
X34429D01*
X34213Y31456D02*
Y31732D01*
X33543Y31456D02*
Y31732D01*
X33543Y31289D02*
Y32579D01*
X33484Y31289D02*
Y32579D01*
X34134Y31289D02*
Y31320D01*
X33701Y31299D02*
X34055D01*
X34193Y31289D02*
Y31380D01*
X33602Y31289D02*
Y31334D01*
X33189Y32480D02*
X33917D01*
X33248Y32539D02*
X33870D01*
X33130Y32421D02*
X33964D01*
X33012Y32303D02*
X34057D01*
X33071Y32362D02*
X34010D01*
X32953Y32244D02*
X34104D01*
X32874Y32126D02*
X34197D01*
X32894Y32185D02*
X34151D01*
X32874Y32067D02*
X34244D01*
X32874Y31949D02*
X34338D01*
X32874Y32008D02*
X34291D01*
X32874Y31890D02*
X34385D01*
X33288Y32579D02*
X33839D01*
X33307Y31890D02*
Y32579D01*
X33366Y31882D02*
Y32579D01*
X32874Y32165D02*
X33288Y32579D01*
X33189Y31890D02*
Y32480D01*
X33248Y31890D02*
Y32539D01*
X33071Y31890D02*
Y32362D01*
X33012Y31890D02*
Y32303D01*
X33130Y31890D02*
Y32421D01*
X32963Y31890D02*
X33317D01*
X32953Y31889D02*
Y32244D01*
X33474Y31653D02*
X33543D01*
X33474Y31713D02*
X33543D01*
X33474Y31594D02*
X33543D01*
X33440Y31831D02*
X33578D01*
X33469Y31772D02*
X33548D01*
X33474Y31476D02*
X33543D01*
X33474Y31535D02*
X33543D01*
X33469Y31417D02*
X33548D01*
X33324Y31299D02*
X33693D01*
X33440Y31358D02*
X33578D01*
X33002Y31289D02*
X34419D01*
X33425Y31846D02*
Y32579D01*
X33474Y31456D02*
Y31732D01*
X32894Y31874D02*
Y32185D01*
X32874Y31862D02*
Y32165D01*
X33425Y31289D02*
Y31342D01*
X32992Y31299D02*
X33317D01*
X46797Y32716D02*
X46860D01*
X46772Y32735D02*
Y32805D01*
X46732Y32844D02*
X46939Y32638D01*
X46831Y32674D02*
Y32746D01*
X46260Y32835D02*
X46742D01*
X46260Y32844D02*
X46732D01*
X46850Y32539D02*
X46939D01*
X46850Y32598D02*
X46939D01*
X46850Y32480D02*
X46939D01*
X46850Y32421D02*
X46939D01*
X46839Y32657D02*
X46919D01*
X46653Y32756D02*
Y32844D01*
X46594Y32756D02*
Y32844D01*
X46713Y32755D02*
Y32844D01*
X46535Y32756D02*
Y32844D01*
X46476Y32756D02*
Y32844D01*
X46260Y32607D02*
Y32844D01*
X46417Y32756D02*
X46693D01*
X46417D02*
Y32844D01*
X46358Y32744D02*
Y32844D01*
X46260Y32716D02*
X46313D01*
X46299Y32703D02*
Y32844D01*
X46850Y32303D02*
X46939D01*
X46850Y32362D02*
X46939D01*
Y31742D02*
Y32638D01*
X46839Y32185D02*
X46939D01*
X46850Y32244D02*
X46939D01*
X46797Y32126D02*
X46939D01*
X46890Y31772D02*
X46939D01*
X46890Y31831D02*
X46939D01*
X46890Y31693D02*
X46939Y31742D01*
X46878Y32008D02*
X46939D01*
X46836Y32067D02*
X46939D01*
X46890Y31949D02*
X46939D01*
X46850Y32244D02*
Y32598D01*
X46831Y32072D02*
Y32168D01*
X46890Y31954D02*
Y32687D01*
X46260Y32195D02*
Y32235D01*
X46890Y31890D02*
X46939D01*
X46890Y31693D02*
Y31949D01*
X46299Y32085D02*
Y32140D01*
Y31496D02*
Y31537D01*
X46260Y32776D02*
X46801D01*
X46240Y32025D02*
Y32175D01*
X46191Y32126D02*
X46313D01*
X46132Y32067D02*
X46274D01*
X45806Y31741D02*
X46260Y32195D01*
X46073Y32008D02*
X46232D01*
X46014Y31949D02*
X46220D01*
X45827Y31653D02*
X46222D01*
X45896Y31831D02*
X46220D01*
X45827Y31594D02*
X46241D01*
X46220Y31673D02*
Y31949D01*
X46063Y31555D02*
Y31998D01*
X46004Y31555D02*
Y31939D01*
X45837Y31772D02*
X46220D01*
X45955Y31890D02*
X46220D01*
X45945Y31555D02*
Y31880D01*
X45827Y31555D02*
X46102D01*
X45827Y31660D02*
Y31762D01*
X45827Y31555D02*
Y31654D01*
X45818Y31713D02*
X46220D01*
X46181Y31534D02*
Y32116D01*
X46240Y31474D02*
Y31597D01*
X46178Y31535D02*
X46301D01*
X46122Y31554D02*
Y32057D01*
X46251Y31448D02*
X46327Y31524D01*
X46239Y31476D02*
X46279D01*
X46122Y30846D02*
X46185Y30909D01*
X45768Y30886D02*
X46161D01*
X45827Y30846D02*
X46122D01*
X46122D02*
Y30887D01*
X45886Y31555D02*
Y31821D01*
X45745Y30909D02*
X45817Y30837D01*
X46004Y30846D02*
Y30886D01*
X45945Y30846D02*
Y30886D01*
X46063Y30846D02*
Y30886D01*
X45827D02*
X46102D01*
X45886Y30846D02*
Y30886D01*
X45827Y30846D02*
Y30886D01*
X45531Y31550D02*
Y31752D01*
X45472Y31555D02*
Y31811D01*
X45590Y31521D02*
Y31693D01*
X45394Y31890D02*
X45630Y31654D01*
X45413Y31555D02*
Y31870D01*
X45630Y31474D02*
Y31654D01*
X45568Y31535D02*
X45630D01*
X44673Y31594D02*
X45630D01*
X45217Y31555D02*
X45492D01*
X45295D02*
Y31890D01*
X45236Y31555D02*
Y31890D01*
X45354Y31555D02*
Y31890D01*
X45177Y31550D02*
Y31890D01*
X45118Y31521D02*
Y31890D01*
X44673Y31535D02*
X45140D01*
X44673Y31476D02*
X45080D01*
X44673Y31358D02*
X45059D01*
X44673Y31299D02*
X45059D01*
X44673Y31063D02*
X45059D01*
Y31043D02*
Y31398D01*
X45177Y30325D02*
X45512D01*
X45059Y30862D02*
Y31890D01*
X45000Y30325D02*
Y31890D01*
X44941Y30325D02*
Y31890D01*
X44705Y30325D02*
Y31890D01*
X44882Y30325D02*
Y31890D01*
X45059Y30325D02*
Y30378D01*
X45020Y30482D02*
Y30758D01*
X44823Y30325D02*
Y31890D01*
X44673Y30965D02*
Y31634D01*
X44764Y30325D02*
Y31890D01*
X44636Y31772D02*
X45512D01*
X44591Y31831D02*
X45453D01*
X44662Y31713D02*
X45571D01*
X44500Y31890D02*
X45394D01*
X44500Y31890D02*
X45394D01*
X44673Y31653D02*
X45630D01*
X44673Y31417D02*
X45060D01*
X44673Y31004D02*
X45064D01*
X44673Y30945D02*
X45094D01*
X44662Y30886D02*
X45085D01*
X44646Y31754D02*
Y31890D01*
X44587Y31835D02*
Y31890D01*
X44673Y31181D02*
X45059D01*
X44673Y31240D02*
X45059D01*
X44673Y31122D02*
X45059D01*
X44636Y30827D02*
X45036D01*
X44590Y30768D02*
X45020D01*
X44222Y30590D02*
X45020D01*
X44500Y30709D02*
X45020D01*
X44646Y30325D02*
Y30844D01*
X44222Y30650D02*
X45020D01*
X44459Y30354D02*
X45085D01*
X44400Y30413D02*
X45036D01*
X44488Y30325D02*
X45177D01*
X44282Y30531D02*
X45020D01*
X44341Y30472D02*
X45020D01*
X44527Y30325D02*
Y30721D01*
X44291Y30522D02*
Y30710D01*
X44587Y30325D02*
Y30764D01*
X44222Y30591D02*
Y30752D01*
X44232Y30581D02*
Y30744D01*
X44409Y30404D02*
Y30689D01*
X44350Y30463D02*
Y30693D01*
X44468Y30345D02*
Y30698D01*
X44222Y30709D02*
X44296D01*
X44222Y30591D02*
X44488Y30325D01*
X45689Y28701D02*
X45807D01*
X45689Y28642D02*
X45807D01*
X45689Y28337D02*
Y28730D01*
X45807Y28219D02*
Y28730D01*
X45768Y28179D02*
Y28770D01*
X45686Y28760D02*
X45778D01*
X45662Y28819D02*
X45719D01*
X45669Y28868D02*
X45807Y28730D01*
X45689Y28524D02*
X45807D01*
X45689Y28583D02*
X45807D01*
X45689Y28405D02*
X45807D01*
X45689Y28465D02*
X45807D01*
X45681Y28287D02*
X45807D01*
X45689Y28346D02*
X45807D01*
X45646Y28228D02*
X45807D01*
X45608Y28868D02*
X45669D01*
X45650Y28835D02*
Y28868D01*
X44783D02*
X45101D01*
X45059Y28834D02*
Y28868D01*
X45020Y28337D02*
Y28730D01*
X45128Y28159D02*
X45581D01*
X45177Y28179D02*
X45532D01*
X45650Y28144D02*
Y28232D01*
X45590Y28159D02*
Y28191D01*
X45118Y28159D02*
Y28191D01*
X45059Y28144D02*
Y28233D01*
X45709Y28120D02*
Y28829D01*
X45699Y28110D02*
X45807Y28219D01*
X45699Y27264D02*
Y27327D01*
X45650Y27214D02*
Y27289D01*
X45635Y27283D02*
X45699D01*
X45590Y27155D02*
Y27274D01*
X45530Y27095D02*
X45699Y27264D01*
X45531Y27096D02*
Y27274D01*
X45128D02*
X45581D01*
X45472Y27082D02*
Y27274D01*
X45413Y27054D02*
Y27274D01*
X45000Y28094D02*
Y28868D01*
Y26960D02*
Y27339D01*
X44970Y27431D02*
Y28002D01*
X44941Y26937D02*
Y28868D01*
X44882Y26929D02*
Y28868D01*
X44823Y26929D02*
Y28868D01*
X45354Y27003D02*
Y27274D01*
X45295Y26929D02*
Y27274D01*
X45211Y26929D02*
X45308D01*
X45236D02*
Y27274D01*
X45118Y26964D02*
Y27274D01*
X45059Y26968D02*
Y27290D01*
X45177Y26946D02*
Y27274D01*
X44734Y28819D02*
X45047D01*
X44675Y28760D02*
X45022D01*
X44616Y28701D02*
X45020D01*
X44498Y28583D02*
X45020D01*
X44557Y28642D02*
X45020D01*
X44380Y28465D02*
X45020D01*
X44439Y28524D02*
X45020D01*
X44262Y28346D02*
X45020D01*
X44321Y28405D02*
X45020D01*
X44673Y28051D02*
X44978D01*
X44673Y27874D02*
X44970D01*
X44673Y27756D02*
X44970D01*
X44673Y27815D02*
X44970D01*
X44609Y28228D02*
X45063D01*
X44540Y28287D02*
X45028D01*
X44647Y28169D02*
X45758D01*
X44667Y28110D02*
X45014D01*
X44527Y28294D02*
Y28612D01*
X44468Y28318D02*
Y28553D01*
X44646Y28171D02*
Y28730D01*
X44587Y28252D02*
Y28671D01*
X44409Y28327D02*
Y28494D01*
X44350Y28323D02*
Y28435D01*
X44144Y28228D02*
X44783Y28868D01*
X44291Y28305D02*
Y28376D01*
X44203Y28287D02*
X44256D01*
X44232Y28272D02*
Y28317D01*
X44673Y27933D02*
X44970D01*
X44673Y27992D02*
X44970D01*
X44144Y28228D02*
X44186D01*
X44173Y28211D02*
Y28258D01*
X44144Y28175D02*
Y28228D01*
X44673Y27697D02*
X44970D01*
X44673Y27638D02*
X44970D01*
X44673Y27382D02*
Y28051D01*
X44764Y26929D02*
Y28848D01*
X44705Y26929D02*
Y28789D01*
X44673Y27520D02*
X44970D01*
X44673Y27579D02*
X44970D01*
X44673Y27402D02*
X44973D01*
X44673Y27461D02*
X44970D01*
X44655Y27283D02*
X45073D01*
X44670Y27342D02*
X44998D01*
X44624Y27224D02*
X45659D01*
X44568Y27165D02*
X45600D01*
X44213Y27106D02*
X45541D01*
X44272Y27047D02*
X45404D01*
X44331Y26988D02*
X45342D01*
X44390Y26929D02*
X44927D01*
X44646D02*
Y27262D01*
X44587Y26929D02*
Y27181D01*
X44144Y27175D02*
Y27258D01*
X44173Y27146D02*
Y27222D01*
X44409Y26929D02*
Y27107D01*
X44350Y26969D02*
Y27110D01*
X44527Y26929D02*
Y27139D01*
X44468Y26929D02*
Y27116D01*
X44232Y27087D02*
Y27161D01*
X44154Y27165D02*
X44227D01*
X44144Y27175D02*
X44390Y26929D01*
X44291Y27028D02*
Y27128D01*
X36043Y32953D02*
X36191D01*
X36043Y32894D02*
X36211D01*
X36043Y33012D02*
X36132D01*
X36043Y32835D02*
X36211D01*
X36043Y32776D02*
X36211D01*
X36043Y32736D02*
Y33012D01*
X36032Y33071D02*
X36073D01*
X36024Y33088D02*
Y33120D01*
X36024D02*
X36211Y32933D01*
X36042Y32716D02*
X36211D01*
X36022Y32657D02*
X36211D01*
X36024Y31577D02*
Y32660D01*
X36082Y31476D02*
X36211D01*
X36054Y31535D02*
X36211D01*
X35962Y32598D02*
X36211D01*
X35929Y31653D02*
X36211D01*
X36008Y31594D02*
X36211D01*
X35965Y31631D02*
Y32600D01*
X35728Y31693D02*
Y32579D01*
X35492Y31693D02*
Y32584D01*
X35905Y31665D02*
Y32580D01*
X35433Y31693D02*
Y32614D01*
X35332Y32598D02*
X35456D01*
X35374Y31693D02*
Y32632D01*
X35315Y31693D02*
Y32590D01*
X35079Y31644D02*
Y32579D01*
X35610Y31693D02*
Y32579D01*
X35669Y31693D02*
Y32579D01*
X35551Y31693D02*
Y32579D01*
X35846Y31685D02*
Y32579D01*
X35787Y31693D02*
Y32579D01*
X35531D02*
X35886D01*
X35251Y31693D02*
X35773D01*
X35256D02*
Y32579D01*
X35197Y31688D02*
Y32579D01*
X35138Y31673D02*
Y32579D01*
X36102Y31358D02*
X36211D01*
X36102Y31240D02*
X36211D01*
X36102Y31019D02*
Y31363D01*
X36201Y30659D02*
Y32943D01*
X36211Y30669D02*
Y32933D01*
X36142Y30600D02*
Y33002D01*
X36098Y31417D02*
X36211D01*
X36102Y31299D02*
X36211D01*
X36102Y31181D02*
X36211D01*
X36102Y31063D02*
X36211D01*
X36102Y31004D02*
X36211D01*
X36102Y31122D02*
X36211D01*
X36074Y30886D02*
X36211D01*
X36094Y30945D02*
X36211D01*
X35986Y30768D02*
X36211D01*
X35885Y30709D02*
X36211D01*
X36041Y30827D02*
X36211D01*
X35925Y30384D02*
X36211Y30669D01*
X36083Y31476D02*
Y33061D01*
Y30541D02*
Y30906D01*
X36024Y30482D02*
Y30805D01*
X35965Y30423D02*
Y30751D01*
X35905Y30384D02*
Y30717D01*
X35846Y30384D02*
Y30697D01*
X35787Y30384D02*
Y30689D01*
X35197Y30384D02*
Y30693D01*
X35138Y30384D02*
Y30709D01*
X35551Y30384D02*
Y30689D01*
X35610Y30384D02*
Y30689D01*
X35492Y30384D02*
Y30689D01*
X35728Y30384D02*
Y30689D01*
X35669Y30384D02*
Y30689D01*
X35315Y30384D02*
Y30689D01*
X35251D02*
X35773D01*
X35256Y30384D02*
Y30689D01*
X35433Y30384D02*
Y30689D01*
X35374Y30384D02*
Y30689D01*
X34902Y32579D02*
X35256D01*
X34702Y32598D02*
X34826D01*
X34272Y32579D02*
X34626D01*
X33780Y32480D02*
X36211D01*
X33839Y32421D02*
X36211D01*
X33721Y32539D02*
X36211D01*
X33957Y32303D02*
X36211D01*
X33898Y32362D02*
X36211D01*
X34370Y31890D02*
X36211D01*
X34429Y31831D02*
X36211D01*
X34311Y31949D02*
X36211D01*
X34547Y31713D02*
X36211D01*
X34488Y31772D02*
X36211D01*
X34075Y32185D02*
X36211D01*
X34134Y32126D02*
X36211D01*
X34016Y32244D02*
X36211D01*
X34252Y32008D02*
X36211D01*
X34193Y32067D02*
X36211D01*
X34134Y32126D02*
Y32660D01*
X34252Y32008D02*
Y32580D01*
X34429Y31831D02*
Y32579D01*
X34193Y32067D02*
Y32600D01*
X34062Y32598D02*
X34196D01*
X34075Y32185D02*
Y32606D01*
X34016Y32244D02*
Y32582D01*
X34311Y31949D02*
Y32579D01*
X34370Y31890D02*
Y32579D01*
X33957Y32303D02*
Y32579D01*
X34547Y31713D02*
Y32579D01*
X34488Y31772D02*
Y32579D01*
X33779Y32480D02*
Y32579D01*
X33681D02*
X33986D01*
X33720Y32539D02*
Y32579D01*
X33898Y32362D02*
Y32579D01*
X33839Y32421D02*
Y32579D01*
X35020Y31598D02*
Y32579D01*
X34961Y31519D02*
Y32579D01*
X35020Y30384D02*
Y30784D01*
X34961Y30384D02*
Y30863D01*
X34606Y31653D02*
X35095D01*
X34665Y31594D02*
X35016D01*
X34665Y31535D02*
X34970D01*
X34665Y30827D02*
X34983D01*
X34813Y30531D02*
X36073D01*
X34872Y30472D02*
X36014D01*
X34931Y30413D02*
X35955D01*
X34961Y30384D02*
X35925D01*
X35079D02*
Y30738D01*
X34665Y30709D02*
X35139D01*
X34695Y30650D02*
X36191D01*
X34665Y30768D02*
X35037D01*
X34754Y30590D02*
X36132D01*
X34665Y30679D02*
X34961Y30384D01*
X34783Y30561D02*
Y32632D01*
X34665Y31417D02*
X34926D01*
X34724Y30620D02*
Y32613D01*
X34902Y30443D02*
Y32579D01*
X34842Y30502D02*
Y32590D01*
X34665Y31595D02*
Y32584D01*
X33681Y32579D02*
X34665Y31594D01*
X34606Y31654D02*
Y32579D01*
X34665Y31476D02*
X34941D01*
X34665Y30679D02*
Y31594D01*
Y31299D02*
X34921D01*
X34665Y31240D02*
X34921D01*
X34665Y31358D02*
X34921D01*
Y31019D02*
Y31363D01*
X34665Y31181D02*
X34921D01*
X34665Y31063D02*
X34921D01*
X34665Y31004D02*
X34922D01*
X34665Y31122D02*
X34921D01*
X34665Y30886D02*
X34949D01*
X34665Y30945D02*
X34930D01*
D11*
X37333Y32746D02*
D03*
Y34046D02*
D03*
X38337Y32746D02*
D03*
Y34046D02*
D03*
X39331Y32746D02*
D03*
Y34046D02*
D03*
X41339Y32746D02*
D03*
Y34046D02*
D03*
D12*
X33878Y31594D02*
D03*
Y30984D02*
D03*
X33140Y31594D02*
D03*
Y30984D02*
D03*
X46555Y30020D02*
D03*
Y30630D02*
D03*
X45364Y33031D02*
D03*
Y32421D02*
D03*
X45354Y30010D02*
D03*
Y30620D02*
D03*
X46555Y31811D02*
D03*
Y31201D02*
D03*
X46585Y29114D02*
D03*
Y28504D02*
D03*
X35709Y32874D02*
D03*
Y33484D02*
D03*
X33809Y32874D02*
D03*
Y33484D02*
D03*
X34449Y32874D02*
D03*
Y33484D02*
D03*
X35079Y32874D02*
D03*
Y33484D02*
D03*
D13*
X40898Y27717D02*
D03*
X41398D02*
D03*
X41898D02*
D03*
X42398D02*
D03*
X42898D02*
D03*
X43398D02*
D03*
X43898D02*
D03*
X44398D02*
D03*
X40898Y31299D02*
D03*
X41398D02*
D03*
X41898D02*
D03*
X42398D02*
D03*
X42898D02*
D03*
X43398D02*
D03*
X43898D02*
D03*
X44398D02*
D03*
D14*
X45964Y31220D02*
D03*
X45354D02*
D03*
X46555Y32421D02*
D03*
X45945D02*
D03*
D15*
X45354Y28533D02*
D03*
Y29203D02*
D03*
D16*
X45354Y27717D02*
D03*
X46063D02*
D03*
D17*
X44350Y33278D02*
D03*
Y34419D02*
D03*
X35827Y28484D02*
D03*
Y29626D02*
D03*
D18*
X34764Y29675D02*
D03*
Y28415D02*
D03*
X33484Y29675D02*
D03*
Y28415D02*
D03*
D19*
X37126Y31191D02*
D03*
X35512D02*
D03*
D20*
X37136Y28396D02*
D03*
Y30010D02*
D03*
D21*
X45339Y35472D02*
X45772D01*
X45339D02*
Y35906D01*
Y35039D02*
Y35472D01*
X44906D02*
X45339D01*
X45364Y33031D02*
X45659D01*
X45364D02*
Y33287D01*
X45069Y33031D02*
X45364D01*
Y32775D02*
Y33031D01*
X46555Y30020D02*
X46850D01*
X46555Y29764D02*
Y30020D01*
Y30276D01*
X45354Y30010D02*
X45650D01*
X45354Y29203D02*
X45650D01*
X46063Y27717D02*
X46407D01*
X46063D02*
Y28120D01*
Y27313D02*
Y27717D01*
X45354Y29754D02*
Y30010D01*
X45059D02*
X45354D01*
Y29203D02*
Y29518D01*
X45059Y29203D02*
X45354D01*
X41561Y24089D02*
Y24507D01*
Y24089D02*
X41979D01*
X40898Y31299D02*
Y31870D01*
X40661Y31299D02*
X40898D01*
X36457Y27402D02*
Y27874D01*
X35984Y27402D02*
X36457D01*
X41143Y24089D02*
X41561D01*
X36457Y26929D02*
Y27402D01*
X34094Y26220D02*
Y26693D01*
X33622Y26220D02*
X34094D01*
X34567D01*
X34094Y25748D02*
Y26220D01*
X33878Y31594D02*
X34173D01*
X33878D02*
Y31850D01*
X33583Y31594D02*
X33878D01*
Y31338D02*
Y31594D01*
X33140D02*
Y31850D01*
Y31594D02*
X33435D01*
X33140Y31338D02*
Y31594D01*
X46555Y32421D02*
X46811D01*
X46555D02*
Y32717D01*
X46555Y31811D02*
X46850D01*
X46260D02*
X46555D01*
X45964Y30925D02*
Y31220D01*
Y31516D01*
X45098Y31220D02*
X45354D01*
Y31516D01*
Y30364D02*
Y30620D01*
X45059D02*
X45354D01*
X44398Y31299D02*
X44634D01*
X44398Y30728D02*
Y31299D01*
X45354Y28533D02*
X45650D01*
X45354Y28219D02*
Y28533D01*
X45059D02*
X45354D01*
X45354Y27717D02*
Y28120D01*
X45010Y27717D02*
X45354D01*
Y27313D02*
Y27717D01*
X44398D02*
X44634D01*
X44398Y27146D02*
Y27717D01*
Y28287D01*
X35709Y32874D02*
X36004D01*
X35709Y32618D02*
Y32874D01*
X35512Y31191D02*
X36063D01*
X35512Y30728D02*
Y31191D01*
Y31654D01*
X35079Y32618D02*
Y32874D01*
X34449Y32618D02*
Y32874D01*
X33809Y32618D02*
Y32874D01*
X34961Y31191D02*
X35512D01*
D22*
X33110Y23957D02*
Y27785D01*
Y23957D02*
X33514Y23553D01*
X46014D01*
X46329Y23868D01*
Y25433D01*
X46063Y25699D02*
X46329Y25433D01*
X46063Y25699D02*
Y26792D01*
X45700Y27156D02*
X46063Y26792D01*
X45374Y27156D02*
X45700D01*
X45354Y27136D02*
X45374Y27156D01*
X45561Y25089D02*
Y26821D01*
X33140Y30620D02*
X33445Y30315D01*
X42398Y26785D02*
X42943Y26240D01*
X40898Y26543D02*
X41831Y25610D01*
X42605D01*
X42615Y25620D02*
X43287D01*
X42605Y25610D02*
X42615Y25620D01*
X42352Y26220D02*
Y26220D01*
X41898Y26675D02*
X42352Y26220D01*
X43287Y25620D02*
X43561Y25346D01*
X33878Y30709D02*
X34390Y30197D01*
X36624Y32313D02*
X37126Y31811D01*
X37648D01*
X39744Y29715D01*
X37844Y32136D02*
X39508Y30472D01*
X37402Y32136D02*
X37844D01*
X37333Y32205D02*
X37402Y32136D01*
X37333Y32205D02*
Y32746D01*
X38337Y32089D02*
X39540Y30886D01*
X38337Y32089D02*
Y32746D01*
X40898Y26543D02*
Y27717D01*
X42398Y26785D02*
Y27717D01*
X41898Y26675D02*
Y27717D01*
X44561Y25089D02*
Y26305D01*
X43561Y25089D02*
Y25346D01*
X43898Y28484D02*
Y29813D01*
X43366Y30344D02*
X43898Y29813D01*
X40315Y30472D02*
X41309D01*
X39508D02*
X40315D01*
X41289Y29705D02*
X41543D01*
X42362Y30524D01*
Y30709D01*
X42398Y30744D01*
X41898Y30569D02*
Y31299D01*
X41467Y30138D02*
X41898Y30569D01*
X42697Y30413D02*
Y30522D01*
X41398Y29114D02*
X42697Y30413D01*
X41398Y27717D02*
Y29114D01*
X42398Y30744D02*
Y31299D01*
X43354Y30344D02*
X43366D01*
X42898Y30801D02*
X43354Y30344D01*
X43484Y30659D02*
X43671D01*
X42898Y30801D02*
Y31299D01*
X43398Y30746D02*
X43484Y30659D01*
X43398Y30746D02*
Y31299D01*
X35827Y29626D02*
Y30108D01*
X36339Y33671D02*
X36624Y33386D01*
Y32313D02*
Y33386D01*
X34390Y30197D02*
X34547D01*
X33878Y30709D02*
Y30984D01*
X34764Y29675D02*
Y29980D01*
X34547Y30197D02*
X34764Y29980D01*
X33484Y29675D02*
Y30276D01*
X33140Y30620D02*
Y30984D01*
X40898Y27717D02*
Y29388D01*
X40571Y29715D02*
X40898Y29388D01*
X39744Y29715D02*
X40571D01*
X42398Y27717D02*
Y29051D01*
X42697Y29350D01*
X41898Y29132D02*
X42746Y29980D01*
X41898Y27717D02*
Y29132D01*
X40339Y33195D02*
X40551Y32982D01*
X40339Y33195D02*
Y35472D01*
X42339Y33537D02*
X42894Y32982D01*
X42339Y33537D02*
Y35472D01*
X42898Y31299D02*
Y32368D01*
X42520Y32746D02*
X42898Y32368D01*
X43339Y32669D02*
Y35472D01*
X44350Y32874D02*
Y33278D01*
X43612Y32136D02*
X44350Y32874D01*
X43396Y32136D02*
X43612D01*
X44390Y32421D02*
X45364D01*
X43898Y31929D02*
X44390Y32421D01*
X39823Y30138D02*
X41467D01*
X39540Y30886D02*
X39823D01*
X41309Y30472D02*
X41398Y30561D01*
Y31299D01*
X40591Y32254D02*
X42175D01*
X39331Y32746D02*
X40099D01*
X40591Y32254D01*
X42175D02*
X42398Y32032D01*
Y31299D02*
Y32032D01*
X41339Y32746D02*
X42520D01*
X46555Y30915D02*
Y31201D01*
Y30630D02*
Y30915D01*
X43898Y31299D02*
Y31929D01*
X45364Y32421D02*
X45945D01*
X45974Y29232D02*
Y31644D01*
Y29232D02*
X46093Y29114D01*
X46585D01*
X45728Y28504D02*
X46585D01*
X33809Y33484D02*
Y33878D01*
X34449Y33484D02*
Y33986D01*
X37333Y35467D02*
X37339Y35472D01*
X40339D02*
Y35547D01*
X39852Y36033D02*
X40339Y35547D01*
X35768Y36033D02*
X39852D01*
X35079Y35344D02*
X35768Y36033D01*
X35079Y33484D02*
Y35344D01*
X35709Y33484D02*
X36152D01*
X36339Y33671D01*
Y35472D01*
X36457Y26240D02*
X37136Y26919D01*
Y28396D01*
X33484Y28012D02*
X34094Y27402D01*
X33484Y28012D02*
Y28415D01*
X35276Y27402D02*
X35827Y27953D01*
Y28484D01*
X34705Y26791D02*
X35276Y26220D01*
X34705Y26791D02*
Y28356D01*
X34764Y28415D01*
D23*
X45064Y24585D02*
Y26688D01*
X45069Y26693D01*
X38120Y30246D02*
X38278D01*
X40138Y28386D01*
X37697Y30630D02*
X38317D01*
X40482Y28465D01*
X40138Y26868D02*
Y28386D01*
Y26868D02*
X40421Y26585D01*
X40443D01*
X41398Y26461D02*
X41953Y25906D01*
X42483D01*
X42493Y25915D02*
X43711D01*
X42483Y25906D02*
X42493Y25915D01*
X43711D02*
X43780Y25846D01*
X42992Y26969D02*
X43228D01*
X43533Y26585D02*
X43898Y26949D01*
Y27717D01*
X40482Y26969D02*
Y28465D01*
X43228Y26969D02*
X43398Y27138D01*
Y27717D01*
X41398Y26461D02*
Y27717D01*
X44193Y25423D02*
Y26063D01*
X44064Y24585D02*
X44561Y24089D01*
X44064Y24585D02*
Y25294D01*
X44193Y25423D01*
X45064Y24585D02*
X45561Y24089D01*
D24*
X37126Y30020D02*
Y31191D01*
Y30020D02*
X37136Y30010D01*
X44339Y35472D02*
X44350Y35461D01*
Y34419D02*
Y35461D01*
X41339Y34046D02*
Y35472D01*
X39331Y35465D02*
X39339Y35472D01*
X39331Y34046D02*
Y35465D01*
X38337Y35470D02*
X38339Y35472D01*
X38337Y34046D02*
Y35470D01*
X37333Y34046D02*
X37339Y34052D01*
Y35472D01*
D25*
X38583Y24546D02*
D03*
X35276Y24528D02*
D03*
D26*
X45339Y35472D02*
D03*
X44339D02*
D03*
X38339D02*
D03*
X39339D02*
D03*
X37339D02*
D03*
X40339D02*
D03*
X42339D02*
D03*
X41339D02*
D03*
X43339D02*
D03*
D27*
X36339D02*
D03*
D28*
X44561Y25089D02*
D03*
X41561D02*
D03*
X42561D02*
D03*
X44561Y24089D02*
D03*
X45561D02*
D03*
X41561D02*
D03*
X42561D02*
D03*
X43561Y25089D02*
D03*
Y24089D02*
D03*
D29*
X45561Y25089D02*
D03*
D30*
X34094Y26220D02*
D03*
D31*
X35276D02*
D03*
X34094Y27402D02*
D03*
X35276D02*
D03*
X36457Y26220D02*
D03*
Y27402D02*
D03*
D32*
X41811Y33396D02*
D03*
X43986Y30295D02*
D03*
X38671Y28514D02*
D03*
X38573Y26969D02*
D03*
X44872Y32864D02*
D03*
X46427Y33612D02*
D03*
X45768Y34035D02*
D03*
X44301Y33868D02*
D03*
X42884Y33809D02*
D03*
X39902Y33406D02*
D03*
X37323Y33465D02*
D03*
X35827Y29006D02*
D03*
X37028Y24222D02*
D03*
X36929Y25413D02*
D03*
X34193Y24154D02*
D03*
X33681Y25413D02*
D03*
X33937Y23022D02*
D03*
X36181Y23091D02*
D03*
X38228Y23022D02*
D03*
X41358Y22972D02*
D03*
X45374Y23071D02*
D03*
X47224Y23268D02*
D03*
X46850Y24360D02*
D03*
X47254Y25187D02*
D03*
X46634Y26024D02*
D03*
X46614Y27717D02*
D03*
X47303Y28041D02*
D03*
X47411Y30807D02*
D03*
X46555Y29587D02*
D03*
X45354Y29715D02*
D03*
X44833Y29232D02*
D03*
X44843Y29980D02*
D03*
X40463Y31880D02*
D03*
X40108Y31732D02*
D03*
X39754Y32126D02*
D03*
X38996Y32106D02*
D03*
X33110D02*
D03*
Y27785D02*
D03*
X45561Y26821D02*
D03*
X45069Y26693D02*
D03*
X33435Y30305D02*
D03*
X38120Y30246D02*
D03*
X37697Y30630D02*
D03*
X40443Y26585D02*
D03*
X42943Y26240D02*
D03*
X42352Y26220D02*
D03*
X42992Y26969D02*
D03*
X43533Y26585D02*
D03*
X34173Y30394D02*
D03*
X40482Y26969D02*
D03*
X44193Y26063D02*
D03*
X44561Y26305D02*
D03*
X43780Y25846D02*
D03*
X43898Y28484D02*
D03*
X40315Y30472D02*
D03*
X41289Y29705D02*
D03*
X43671Y30659D02*
D03*
X35827Y30108D02*
D03*
X42697Y29350D02*
D03*
X40551Y32982D02*
D03*
X42746Y29980D02*
D03*
X42697Y30522D02*
D03*
X42894Y32982D02*
D03*
X43339Y32669D02*
D03*
X43396Y32136D02*
D03*
X39823Y30138D02*
D03*
Y30886D02*
D03*
X46555Y30915D02*
D03*
X33809Y33878D02*
D03*
X34449Y33986D02*
D03*
M02*
