M48
;Layer_Color=9474304
;FILE_FORMAT=2:4
INCH,LZ
;TYPE=PLATED
T1F00S00C0.0118
T2F00S00C0.0380
T3F00S00C0.0394
T4F00S00C0.0433
%
T01
X047224Y023268
X047254Y025187
X047303Y028041
X047411Y030807
X046555Y030915
Y029587
X045354Y029715
X044843Y02998
X044833Y029232
X043898Y028484
X043986Y030295
X043671Y030659
X042697Y030522
X042746Y02998
X042697Y02935
X041289Y029705
X040315Y030472
X039823Y030138
Y030886
X03812Y030246
X037697Y03063
X035827Y030108
Y029006
X034173Y030394
X033435Y030305
X03311Y027785
X033681Y025413
X034193Y024154
X033937Y023022
X036181Y023091
X037028Y024222
X036929Y025413
X038573Y026969
X038671Y028514
X040482Y026969
X040443Y026585
X042352Y02622
X042943Y02624
X042992Y026969
X043533Y026585
X04378Y025846
X044193Y026063
X044561Y026305
X045069Y026693
X045561Y026821
X046634Y026024
X046614Y027717
X04685Y02436
X045374Y023071
X041358Y022972
X038228Y023022
X038996Y032106
X039754Y032126
X040108Y031732
X040463Y03188
X040551Y032982
X039902Y033406
X041811Y033396
X042884Y033809
X042894Y032982
X043339Y032669
X043396Y032136
X044872Y032864
X044301Y033868
X045768Y034035
X046427Y033612
X037323Y033465
X034449Y033986
X033809Y033878
X03311Y032106
T02
X041561Y024089
Y025089
X042561
Y024089
X043561
X044561
Y025089
X045561
Y024089
X043561Y025089
T03
X036339Y035472
X037339
X038339
X039339
X040339
X041339
X042339
X043339
X044339
X045339
T04
X034094Y02622
X035276
Y027402
X034094
X036457
Y02622
M30
