G04 Layer_Physical_Order=2*
G04 Layer_Color=16711680*
%FSLAX24Y24*%
%MOIN*%
G70*
G01*
G75*
%ADD10C,0.0079*%
%ADD11C,0.0394*%
%ADD12C,0.0197*%
%ADD13C,0.0630*%
%ADD14R,0.0630X0.0630*%
%ADD15C,0.0600*%
%ADD16R,0.0600X0.0600*%
%ADD17C,0.0394*%
D10*
X40321Y34118D02*
G03*
X41068Y34472I289J354D01*
G01*
X39478Y34892D02*
G03*
X39582Y34641I354J0D01*
G01*
X39478Y34892D02*
G03*
X39582Y34641I354J0D01*
G01*
X40001Y34222D02*
G03*
X40252Y34118I251J250D01*
G01*
X40001Y34222D02*
G03*
X40252Y34118I251J251D01*
G01*
X41068Y34472D02*
G03*
X40366Y34859I-457J0D01*
G01*
X43256Y33919D02*
G03*
X43360Y33668I354J0D01*
G01*
X43256Y33919D02*
G03*
X43360Y33669I354J0D01*
G01*
X42068Y34472D02*
G03*
X42068Y34472I-457J0D01*
G01*
X43068D02*
G03*
X43068Y34472I-457J0D01*
G01*
X42068Y35472D02*
G03*
X42068Y35472I-457J0D01*
G01*
X43068D02*
G03*
X43068Y35472I-457J0D01*
G01*
X44068Y34472D02*
G03*
X43256Y34183I-457J0D01*
G01*
X44068Y35472D02*
G03*
X44068Y35472I-457J0D01*
G01*
X39582Y36441D02*
G03*
X39478Y36191I251J-251D01*
G01*
X39582Y36442D02*
G03*
X39478Y36191I250J-251D01*
G01*
X40108Y36821D02*
G03*
X39857Y36717I0J-354D01*
G01*
X40108Y36821D02*
G03*
X39858Y36717I0J-354D01*
G01*
X40531Y36112D02*
G03*
X40782Y36216I0J354D01*
G01*
X40531Y36112D02*
G03*
X40782Y36216I0J354D01*
G01*
X41197Y39075D02*
G03*
X41089Y38359I246J-404D01*
G01*
X41693Y37127D02*
G03*
X41797Y37378I-250J251D01*
G01*
X41693Y37127D02*
G03*
X41797Y37378I-251J251D01*
G01*
X43089Y37217D02*
G03*
X43193Y36966I354J0D01*
G01*
X43089Y37217D02*
G03*
X43192Y36966I354J0D01*
G01*
X43716Y36443D02*
G03*
X43967Y36339I251J250D01*
G01*
X43716Y36442D02*
G03*
X43967Y36339I251J251D01*
G01*
X41797Y38359D02*
G03*
X41915Y38671I-354J312D01*
G01*
X42197Y39075D02*
G03*
X42915Y38671I246J-404D01*
G01*
X41915D02*
G03*
X41689Y39075I-472J0D01*
G01*
X43197D02*
G03*
X43089Y38359I246J-404D01*
G01*
X43797D02*
G03*
X43915Y38671I-354J312D01*
G01*
X42915D02*
G03*
X42689Y39075I-472J0D01*
G01*
X43915Y38671D02*
G03*
X43689Y39075I-472J0D01*
G01*
X43965Y34183D02*
G03*
X44068Y34472I-354J289D01*
G01*
X45068D02*
G03*
X45068Y34472I-457J0D01*
G01*
Y35472D02*
G03*
X45068Y35472I-457J0D01*
G01*
X46447Y33809D02*
G03*
X46529Y33583I354J0D01*
G01*
X47788D02*
G03*
X47825Y33740I-317J157D01*
G01*
X46447Y33809D02*
G03*
X46529Y33583I354J0D01*
G01*
X47788D02*
G03*
X47825Y33740I-317J157D01*
G01*
X47825Y34592D02*
G03*
X47721Y34843I-354J0D01*
G01*
X47825Y34592D02*
G03*
X47721Y34842I-354J0D01*
G01*
X48967Y35616D02*
G03*
X48967Y35321I-433J-147D01*
G01*
X44896Y36943D02*
G03*
X44646Y37047I-251J-251D01*
G01*
X44896Y36943D02*
G03*
X44646Y37047I-251J-250D01*
G01*
X45089Y38100D02*
G03*
X45193Y37850I354J0D01*
G01*
X45089Y38100D02*
G03*
X45192Y37850I354J0D01*
G01*
X44197Y39075D02*
G03*
X44915Y38671I246J-404D01*
G01*
D02*
G03*
X44689Y39075I-472J0D01*
G01*
X45197D02*
G03*
X45089Y38359I246J-404D01*
G01*
X45797D02*
G03*
X45915Y38671I-354J312D01*
G01*
D02*
G03*
X45689Y39075I-472J0D01*
G01*
X47156Y36742D02*
G03*
X47051Y36993I-354J0D01*
G01*
X47156Y36742D02*
G03*
X47052Y36993I-354J0D01*
G01*
X49656Y38069D02*
G03*
X49571Y38203I-335J-116D01*
G01*
X49656Y38069D02*
G03*
X49571Y38204I-335J-116D01*
G01*
X46197Y39075D02*
G03*
X46915Y38671I246J-404D01*
G01*
D02*
G03*
X46689Y39075I-472J0D01*
G01*
X47197D02*
G03*
X47755Y38317I246J-404D01*
G01*
Y39026D02*
G03*
X47689Y39075I-312J-354D01*
G01*
X48853Y38922D02*
G03*
X48602Y39026I-251J-251D01*
G01*
X48853Y38922D02*
G03*
X48602Y39026I-251J-250D01*
G01*
X39862Y33071D02*
Y34361D01*
X39803Y33071D02*
Y34420D01*
X39980Y33071D02*
Y34243D01*
X39921Y33071D02*
Y34302D01*
X39567Y33071D02*
Y34657D01*
X39508Y33071D02*
Y34750D01*
X39744Y33071D02*
Y34479D01*
X39626Y33071D02*
Y34597D01*
X39685Y33071D02*
Y34538D01*
X38632Y34016D02*
X40585D01*
X38632Y34075D02*
X40384D01*
X40394Y33071D02*
Y34069D01*
X40276Y33071D02*
Y34118D01*
X40335Y33071D02*
Y34107D01*
X40098Y33071D02*
Y34153D01*
X40039Y33071D02*
Y34189D01*
X40157Y33071D02*
Y34131D01*
X40216Y33071D02*
Y34120D01*
X38632Y34606D02*
X39617D01*
X38632Y34665D02*
X39560D01*
X38632Y34488D02*
X39735D01*
X38632Y34547D02*
X39676D01*
X38632Y34724D02*
X39520D01*
X38632Y34783D02*
X39495D01*
X38632Y34842D02*
X39482D01*
X38632Y34134D02*
X40148D01*
X38632Y34193D02*
X40034D01*
X40252Y34118D02*
X40321D01*
X38632Y34252D02*
X39971D01*
X38632Y34311D02*
X39912D01*
X39582Y34641D02*
X40001Y34222D01*
X38632Y34429D02*
X39794D01*
X38632Y34370D02*
X39853D01*
X40571Y33071D02*
Y34017D01*
X40512Y33071D02*
Y34026D01*
X40689Y33071D02*
Y34022D01*
X40630Y33071D02*
Y34015D01*
X40748Y33071D02*
Y34036D01*
X40453Y33071D02*
Y34043D01*
X40925Y33071D02*
Y34141D01*
X40807Y33071D02*
Y34059D01*
X40866Y33071D02*
Y34093D01*
X41575Y33071D02*
Y34016D01*
X41516Y33071D02*
Y34025D01*
X41752Y33071D02*
Y34037D01*
X41634Y33071D02*
Y34016D01*
X41693Y33071D02*
Y34022D01*
X41043Y33071D02*
Y34325D01*
X40984Y33071D02*
Y34209D01*
X41811Y33071D02*
Y34061D01*
X41161Y33071D02*
Y34384D01*
X41339Y33071D02*
Y34104D01*
X41011Y34252D02*
X41209D01*
X41038Y34311D02*
X41182D01*
X41220Y33071D02*
Y34233D01*
X41056Y34370D02*
X41164D01*
X41048Y34606D02*
X41173D01*
X41025Y34665D02*
X41195D01*
X41066Y34429D02*
X41155D01*
X41067Y34488D02*
X41153D01*
X41062Y34547D02*
X41159D01*
X40636Y34016D02*
X41585D01*
X40836Y34075D02*
X41384D01*
X41457Y33071D02*
Y34042D01*
X40918Y34134D02*
X41303D01*
X41398Y33071D02*
Y34067D01*
X40946Y34783D02*
X41275D01*
X40879Y34842D02*
X41341D01*
X41279Y33071D02*
Y34156D01*
X40992Y34724D02*
X41228D01*
X40972Y34193D02*
X41248D01*
X38681Y33071D02*
Y39075D01*
X38632Y33071D02*
Y36368D01*
X38799Y33071D02*
Y39075D01*
X38740Y33071D02*
Y39075D01*
X38917Y33071D02*
Y39075D01*
X38858Y33071D02*
Y39075D01*
X39094Y33071D02*
Y39075D01*
X38976Y33071D02*
Y39075D01*
X39035Y33071D02*
Y39075D01*
X39449Y33071D02*
Y39075D01*
X40211Y35015D02*
X40366Y34859D01*
X40335Y34891D02*
Y35015D01*
X40394Y34875D02*
Y35015D01*
X39213Y33071D02*
Y39075D01*
X39153Y33071D02*
Y39075D01*
X39390Y33071D02*
Y39075D01*
X39272Y33071D02*
Y39075D01*
X39331Y33071D02*
Y39075D01*
X38632Y35020D02*
X39478D01*
X38632Y35079D02*
X39478D01*
X38632Y34902D02*
X39478D01*
X38632Y34961D02*
X39478D01*
X38632Y35138D02*
X39478D01*
X38632Y35197D02*
X39478D01*
Y34892D02*
Y36191D01*
X38632Y35610D02*
X39478D01*
X38632Y35492D02*
X39478D01*
X40211Y35015D02*
X41068D01*
X40187Y35038D02*
X40211Y35015D01*
X40324Y34902D02*
X40452D01*
X40276Y34950D02*
Y35015D01*
X40453Y34902D02*
Y35015D01*
X38632Y35433D02*
X39478D01*
X38632Y35551D02*
X39478D01*
X38632Y35256D02*
X39478D01*
X38632Y35374D02*
X39478D01*
X38632Y35315D02*
X39478D01*
X40748Y34909D02*
Y35015D01*
X40512Y34919D02*
Y35015D01*
X40866Y34852D02*
Y35015D01*
X40807Y34885D02*
Y35015D01*
X40984Y34736D02*
Y35015D01*
X40925Y34804D02*
Y35015D01*
X41102Y33071D02*
Y36536D01*
X41043Y34620D02*
Y35015D01*
X41161Y34561D02*
Y35384D01*
X40769Y34902D02*
X41452D01*
X41457Y34903D02*
Y35042D01*
X41752Y34907D02*
Y35037D01*
X41516Y34920D02*
Y35025D01*
X41693Y34922D02*
Y35022D01*
X41220Y34712D02*
Y35233D01*
X41279Y34788D02*
Y35156D01*
X41339Y34840D02*
Y35104D01*
X41398Y34877D02*
Y35067D01*
X41811Y34884D02*
Y35061D01*
X40571Y34928D02*
Y35015D01*
X40630Y34929D02*
Y35015D01*
X40689Y34923D02*
Y35015D01*
X41068Y35374D02*
X41163D01*
X41068Y35433D02*
X41154D01*
X41068Y35492D02*
X41153D01*
X41068Y35015D02*
Y35930D01*
Y35551D02*
X41160D01*
X41161Y35561D02*
Y36595D01*
X41068Y35079D02*
X41377D01*
X41068Y35138D02*
X41298D01*
X41575Y34929D02*
Y35016D01*
X41068Y35020D02*
X41545D01*
X41634Y34929D02*
Y35016D01*
X41068Y35610D02*
X41174D01*
X41068Y35669D02*
X41197D01*
X41068Y35197D02*
X41245D01*
X41068Y35315D02*
X41181D01*
X41068Y35256D02*
X41207D01*
X41929Y33071D02*
Y34144D01*
X41870Y33071D02*
Y34096D01*
X42401Y33071D02*
Y34065D01*
X42342Y33071D02*
Y34102D01*
X42047Y33071D02*
Y34337D01*
X41988Y33071D02*
Y34215D01*
X42283Y33071D02*
Y34152D01*
X42165Y33071D02*
Y34366D01*
X42224Y33071D02*
Y34227D01*
X38632Y33248D02*
X43780D01*
X38632Y33307D02*
X43721D01*
X38632Y33071D02*
X43958D01*
X38632Y33189D02*
X43840D01*
X38632Y33130D02*
X43899D01*
X38632Y33543D02*
X43485D01*
X38632Y33602D02*
X43426D01*
X38632Y33366D02*
X43662D01*
X38632Y33484D02*
X43544D01*
X38632Y33425D02*
X43603D01*
X42011Y34252D02*
X42209D01*
X42038Y34311D02*
X42182D01*
X42056Y34370D02*
X42164D01*
X42066Y34429D02*
X42155D01*
X42025Y34665D02*
X42195D01*
X41992Y34724D02*
X42228D01*
X42067Y34488D02*
X42153D01*
X42062Y34547D02*
X42159D01*
X42048Y34606D02*
X42173D01*
X38632Y33839D02*
X43265D01*
X38632Y33898D02*
X43257D01*
X38632Y33661D02*
X43367D01*
X38632Y33779D02*
X43285D01*
X38632Y33720D02*
X43317D01*
X38632Y33957D02*
X43256D01*
X41636Y34016D02*
X42585D01*
X41836Y34075D02*
X42384D01*
X41972Y34193D02*
X42248D01*
X41918Y34134D02*
X42303D01*
X42579Y33071D02*
Y34016D01*
X42520Y33071D02*
Y34024D01*
X42697Y33071D02*
Y34023D01*
X42638Y33071D02*
Y34016D01*
X42756Y33071D02*
Y34039D01*
X42461Y33071D02*
Y34040D01*
X42933Y33071D02*
Y34148D01*
X42815Y33071D02*
Y34063D01*
X42874Y33071D02*
Y34099D01*
X43524Y33071D02*
Y33505D01*
X43464Y33071D02*
Y33564D01*
X43760Y33071D02*
Y33269D01*
X43583Y33071D02*
Y33446D01*
X43701Y33071D02*
Y33328D01*
X43051Y33071D02*
Y34350D01*
X42992Y33071D02*
Y34220D01*
X43405Y33071D02*
Y33623D01*
X43169Y33071D02*
Y34351D01*
X43228Y33071D02*
Y34221D01*
X42972Y34193D02*
X43248D01*
X43011Y34252D02*
X43209D01*
X43038Y34311D02*
X43182D01*
X43056Y34370D02*
X43164D01*
X43048Y34606D02*
X43173D01*
X43025Y34665D02*
X43195D01*
X43066Y34429D02*
X43155D01*
X43067Y34488D02*
X43153D01*
X43062Y34547D02*
X43159D01*
X43287Y33071D02*
Y33773D01*
X43642Y33071D02*
Y33387D01*
X43346Y33071D02*
Y33683D01*
X43360Y33668D02*
X43958Y33071D01*
X42636Y34016D02*
X43256D01*
X42836Y34075D02*
X43256D01*
X42918Y34134D02*
X43256D01*
Y33919D02*
Y34183D01*
X41870Y34849D02*
Y35096D01*
X41946Y34783D02*
X42275D01*
X41929Y34801D02*
Y35144D01*
X42047Y34608D02*
Y35337D01*
X41988Y34730D02*
Y35215D01*
X42106Y33071D02*
Y38340D01*
X42165Y34579D02*
Y35366D01*
X42224Y34718D02*
Y35227D01*
X41879Y34842D02*
X42341D01*
X41769Y34902D02*
X42452D01*
X42520Y34921D02*
Y35024D01*
X42697Y34922D02*
Y35023D01*
X42283Y34793D02*
Y35152D01*
X42342Y34843D02*
Y35102D01*
X42401Y34880D02*
Y35065D01*
X42461Y34905D02*
Y35040D01*
X42756Y34906D02*
Y35039D01*
X42040Y35315D02*
X42181D01*
X42057Y35374D02*
X42163D01*
X42066Y35433D02*
X42154D01*
X42067Y35492D02*
X42153D01*
X42046Y35610D02*
X42174D01*
X42061Y35551D02*
X42160D01*
X42047Y35608D02*
Y38413D01*
X42165Y35579D02*
Y38289D01*
X40265Y34961D02*
X45877D01*
X41675Y35020D02*
X42545D01*
X42579Y34929D02*
Y35016D01*
X42638Y34929D02*
Y35016D01*
X42675Y35020D02*
X43545D01*
X41843Y35079D02*
X42377D01*
X41922Y35138D02*
X42298D01*
X42013Y35256D02*
X42207D01*
X41975Y35197D02*
X42245D01*
X42874Y34846D02*
Y35099D01*
X42815Y34882D02*
Y35063D01*
X42992Y34724D02*
X43228D01*
X42933Y34797D02*
Y35148D01*
X43051Y34595D02*
Y35350D01*
X42992Y34724D02*
Y35220D01*
X43110Y33071D02*
Y37095D01*
X43169Y34594D02*
Y35351D01*
X43228Y34724D02*
Y35221D01*
X42879Y34842D02*
X43341D01*
X42769Y34902D02*
X43452D01*
X42946Y34783D02*
X43275D01*
X43769Y34902D02*
X44452D01*
X43287Y34796D02*
Y35148D01*
X43346Y34846D02*
Y35099D01*
X43405Y34882D02*
Y35063D01*
X43464Y34906D02*
Y35039D01*
X43760Y34905D02*
Y35040D01*
X43040Y35315D02*
X43181D01*
X43057Y35374D02*
X43163D01*
X43066Y35433D02*
X43154D01*
X43067Y35492D02*
X43153D01*
X43046Y35610D02*
X43174D01*
X43023Y35669D02*
X43197D01*
X43061Y35551D02*
X43160D01*
X43051Y35595D02*
Y38407D01*
X43169Y35594D02*
Y36992D01*
X43524Y34922D02*
Y35023D01*
X43583Y34929D02*
Y35016D01*
X43701Y34921D02*
Y35024D01*
X43642Y34929D02*
Y35016D01*
X43675Y35020D02*
X44545D01*
X42843Y35079D02*
X43377D01*
X42922Y35138D02*
X43298D01*
X43013Y35256D02*
X43207D01*
X42975Y35197D02*
X43245D01*
X38632Y35787D02*
X39478D01*
X38632Y35846D02*
X39478D01*
X38632Y35669D02*
X39478D01*
X38632Y35728D02*
X39478D01*
X38632Y36083D02*
X39478D01*
X38632Y36142D02*
X39478D01*
X38632Y35905D02*
X39478D01*
X38632Y36024D02*
X39478D01*
X38632Y35965D02*
X39478D01*
X38632Y36378D02*
X39532D01*
X38632Y36437D02*
X39578D01*
X38632Y36201D02*
X39478D01*
X38632Y36260D02*
X39485D01*
X38632Y36319D02*
X39502D01*
X38632Y36496D02*
X39637D01*
X38632Y36555D02*
X39696D01*
X39582Y36442D02*
X39857Y36717D01*
X38632Y36732D02*
X39874D01*
X38632Y36791D02*
X39966D01*
X38632Y36614D02*
X39755D01*
X38632Y36673D02*
X39814D01*
X38632Y37027D02*
X40591D01*
X38632Y37087D02*
X40650D01*
X38632Y36850D02*
X40414D01*
X38632Y36909D02*
X40473D01*
X38632Y36968D02*
X40532D01*
X38632Y37323D02*
X40887D01*
X38632Y37382D02*
X40946D01*
X38632Y37146D02*
X40709D01*
X38632Y37205D02*
X40769D01*
X38632Y37264D02*
X40828D01*
X38632Y37618D02*
X41089D01*
X38632Y37677D02*
X41089D01*
X38632Y37441D02*
X41005D01*
X38632Y37500D02*
X41064D01*
X38632Y37559D02*
X41089D01*
X40187Y35930D02*
X41068D01*
X40187D02*
Y36044D01*
X41068Y35728D02*
X41231D01*
X41068Y35787D02*
X41278D01*
X40394Y35930D02*
Y36112D01*
X40335Y35930D02*
Y36112D01*
X41220Y35712D02*
Y36654D01*
X40453Y35930D02*
Y36112D01*
X40512Y35930D02*
Y36112D01*
X41068Y35846D02*
X41347D01*
X41068Y35905D02*
X41463D01*
X41279Y35788D02*
Y36713D01*
X41339Y35840D02*
Y36772D01*
X41398Y35877D02*
Y36832D01*
X41457Y35903D02*
Y36891D01*
X41516Y35920D02*
Y36950D01*
X41693Y35922D02*
Y37127D01*
X41575Y35929D02*
Y37009D01*
X41634Y35929D02*
Y37068D01*
X40216Y35930D02*
Y36074D01*
X40187Y36044D02*
X40255Y36112D01*
X40276Y35930D02*
Y36112D01*
X40255D02*
X40531D01*
X40630Y35930D02*
Y36126D01*
X40108Y36821D02*
X40385D01*
X40571Y35930D02*
Y36114D01*
X40807Y35930D02*
Y36241D01*
X40689Y35930D02*
Y36149D01*
X40748Y35930D02*
Y36186D01*
X40866Y35930D02*
Y36300D01*
X40385Y36821D02*
X41089Y37525D01*
X41043Y35930D02*
Y36477D01*
X40925Y35930D02*
Y36359D01*
X40984Y35930D02*
Y36418D01*
X39744Y36603D02*
Y39075D01*
X39803Y36662D02*
Y39075D01*
X39862Y36721D02*
Y39075D01*
X39921Y36767D02*
Y39075D01*
X39508Y36332D02*
Y39075D01*
X38632Y36368D02*
Y39075D01*
X39567Y36425D02*
Y39075D01*
X39626Y36485D02*
Y39075D01*
X39685Y36544D02*
Y39075D01*
X38632Y37913D02*
X41089D01*
X38632Y37972D02*
X41089D01*
X38632Y37736D02*
X41089D01*
X38632Y37854D02*
X41089D01*
X38632Y37795D02*
X41089D01*
X38632Y38031D02*
X41089D01*
X38632Y38090D02*
X41089D01*
X39980Y36797D02*
Y38199D01*
X40039Y36814D02*
Y38199D01*
X40098Y36821D02*
Y38199D01*
X38632Y38327D02*
X39970D01*
X38632Y38386D02*
X39970D01*
X38632Y38209D02*
X39970D01*
X38632Y38268D02*
X39970D01*
X38632Y38445D02*
X39970D01*
X38632Y38504D02*
X39970D01*
Y38199D02*
Y39075D01*
X38632Y38622D02*
X39970D01*
X38632Y38563D02*
X39970D01*
X38632Y38150D02*
X41089D01*
X38632Y38681D02*
X39970D01*
Y38199D02*
X40915D01*
X38632Y38799D02*
X39970D01*
X38632Y38740D02*
X39970D01*
X38632Y39035D02*
X39970D01*
X38632Y39075D02*
X39970D01*
X38632Y38858D02*
X39970D01*
X38632Y38976D02*
X39970D01*
X38632Y38917D02*
X39970D01*
X40453Y36889D02*
Y38199D01*
X40512Y36948D02*
Y38199D01*
X40571Y37007D02*
Y38199D01*
X40630Y37066D02*
Y38199D01*
X40216Y36821D02*
Y38199D01*
X40157Y36821D02*
Y38199D01*
X40276Y36821D02*
Y38199D01*
X40335Y36821D02*
Y38199D01*
X40394Y36830D02*
Y38199D01*
X40689Y37125D02*
Y38199D01*
X40748Y37184D02*
Y38199D01*
X40807Y37243D02*
Y38199D01*
X40866Y37302D02*
Y38199D01*
X40915Y38209D02*
X41089D01*
X40925Y37361D02*
Y39075D01*
X40915Y38199D02*
Y39075D01*
X40984Y37420D02*
Y38558D01*
X41043Y37479D02*
Y38419D01*
X41089Y37525D02*
Y38359D01*
X40915Y38563D02*
X40983D01*
X40915Y38622D02*
X40973D01*
X40915Y38445D02*
X41028D01*
X40915Y38504D02*
X41001D01*
X40915Y38681D02*
X40971D01*
X40915Y38740D02*
X40976D01*
X40984Y38784D02*
Y39075D01*
X40915Y38799D02*
X40988D01*
X40915Y38858D02*
X41009D01*
X40915Y38917D02*
X41040D01*
X40915Y38976D02*
X41082D01*
X40915Y38268D02*
X41089D01*
X40915Y38386D02*
X41066D01*
X40915Y38327D02*
X41089D01*
X40915Y39035D02*
X41142D01*
X40915Y39075D02*
X41197D01*
X41043Y38923D02*
Y39075D01*
X41102Y38999D02*
Y39075D01*
X41121Y36555D02*
X43603D01*
X41180Y36614D02*
X43544D01*
X41758Y35905D02*
X42463D01*
X41239Y36673D02*
X43485D01*
X40782Y36216D02*
X41693Y37127D01*
X41298Y36732D02*
X43426D01*
X41752Y35907D02*
Y37204D01*
X41416Y36850D02*
X43308D01*
X41357Y36791D02*
X43367D01*
X40187Y35965D02*
X44873D01*
X40187Y36024D02*
X44814D01*
X40225Y36083D02*
X44755D01*
X40766Y36201D02*
X44637D01*
X40673Y36142D02*
X44696D01*
X40826Y36260D02*
X44578D01*
X40885Y36319D02*
X44519D01*
X40944Y36378D02*
X43804D01*
X41062Y36496D02*
X43662D01*
X41003Y36437D02*
X43722D01*
X41778Y37264D02*
X43089D01*
X41793Y37323D02*
X43089D01*
X41797Y38031D02*
X43089D01*
X41797Y38150D02*
X43089D01*
X41797Y37677D02*
X43089D01*
X41797Y37795D02*
X43089D01*
X41797Y37736D02*
X43089D01*
X41475Y36909D02*
X43249D01*
X41534Y36968D02*
X43190D01*
X41594Y37027D02*
X43143D01*
X41710Y37146D02*
X43096D01*
X41653Y37087D02*
X43113D01*
X41752Y37205D02*
X43089D01*
X41797Y37854D02*
X43089D01*
X41797Y37913D02*
X43089D01*
X41797Y38090D02*
X43089D01*
X41797Y37972D02*
X43089D01*
X41989Y35728D02*
X42231D01*
X41942Y35787D02*
X42278D01*
X42023Y35669D02*
X42197D01*
X42989Y35728D02*
X43231D01*
X41874Y35846D02*
X42347D01*
X42401Y35880D02*
Y38201D01*
X43228Y35724D02*
Y36930D01*
X42461Y35905D02*
Y38199D01*
X42942Y35787D02*
X43278D01*
X42874Y35846D02*
X43347D01*
X42758Y35905D02*
X43463D01*
X43760Y35905D02*
Y36405D01*
X43701Y35921D02*
Y36458D01*
X43758Y35905D02*
X44463D01*
X43287Y35796D02*
Y36871D01*
X43346Y35846D02*
Y36812D01*
X43405Y35882D02*
Y36753D01*
X43464Y35906D02*
Y36694D01*
X43524Y35922D02*
Y36635D01*
X43642Y35929D02*
Y36517D01*
X43583Y35929D02*
Y36576D01*
X41797Y37559D02*
X43089D01*
X41797Y37618D02*
X43089D01*
X41797Y37382D02*
X43089D01*
X41797Y37500D02*
X43089D01*
X41797Y37441D02*
X43089D01*
X43193Y36966D02*
X43716Y36443D01*
X43797Y37441D02*
X45601D01*
X43797Y37382D02*
X45660D01*
X43797Y37854D02*
X45188D01*
X43797Y37913D02*
X45142D01*
X43797Y37559D02*
X45483D01*
X43797Y37677D02*
X45365D01*
X43797Y37618D02*
X45424D01*
X41797Y38268D02*
X42197D01*
X41797Y38327D02*
X42120D01*
X41811Y35884D02*
Y38375D01*
X41797Y37378D02*
Y38359D01*
X41819Y38386D02*
X42066D01*
X41988Y35730D02*
Y38543D01*
X41870Y35849D02*
Y38469D01*
X41929Y35801D02*
Y39075D01*
X42342Y35843D02*
Y38210D01*
X41797Y38209D02*
X42347D01*
X42520Y35921D02*
Y38205D01*
X42579Y35929D02*
Y38219D01*
X42538Y38209D02*
X43089D01*
X42224Y35718D02*
Y38252D01*
X42283Y35793D02*
Y38227D01*
X42638Y35929D02*
Y38241D01*
X42688Y38268D02*
X43089D01*
X41903Y38563D02*
X41983D01*
X41910Y38740D02*
X41976D01*
X41913Y38622D02*
X41973D01*
X41915Y38681D02*
X41971D01*
X41752Y39029D02*
Y39075D01*
X41988Y38799D02*
Y39075D01*
X41811Y38967D02*
Y39075D01*
X41870Y38873D02*
Y39075D01*
X41858Y38445D02*
X42028D01*
X41846Y38917D02*
X42040D01*
X41885Y38504D02*
X42001D01*
X41898Y38799D02*
X41988D01*
X41877Y38858D02*
X42009D01*
X41744Y39035D02*
X42142D01*
X41689Y39075D02*
X42197D01*
X42047Y38929D02*
Y39075D01*
X41804Y38976D02*
X42082D01*
X42106Y39003D02*
Y39075D01*
X42756Y35906D02*
Y38317D01*
X42697Y35922D02*
Y38273D01*
X42874Y35846D02*
Y38478D01*
X42815Y35882D02*
Y38380D01*
X42885Y38504D02*
X43001D01*
X42903Y38563D02*
X42983D01*
X42992Y35724D02*
Y38530D01*
X42933Y35797D02*
Y39075D01*
X42913Y38622D02*
X42973D01*
X43089Y37217D02*
Y38359D01*
X42766Y38327D02*
X43089D01*
X43797Y38209D02*
X44347D01*
X43797Y38327D02*
X44120D01*
X43797Y38268D02*
X44197D01*
X42819Y38386D02*
X43067D01*
X42858Y38445D02*
X43028D01*
X43797Y37363D02*
Y38359D01*
X42898Y38799D02*
X42988D01*
X42877Y38858D02*
X43009D01*
X42915Y38681D02*
X42971D01*
X42910Y38740D02*
X42976D01*
X42756Y39025D02*
Y39075D01*
X42992Y38812D02*
Y39075D01*
X42815Y38963D02*
Y39075D01*
X42874Y38865D02*
Y39075D01*
X42804Y38976D02*
X43082D01*
X42744Y39035D02*
X43142D01*
X42846Y38917D02*
X43040D01*
X43110Y39007D02*
Y39075D01*
X43744Y39035D02*
X44142D01*
X43051Y38935D02*
Y39075D01*
X42689D02*
X43197D01*
X43760Y39022D02*
Y39075D01*
X43689D02*
X44197D01*
X43878Y33071D02*
Y33151D01*
X43819Y33071D02*
Y33210D01*
X43965Y34066D02*
Y34183D01*
X43972Y34193D02*
X44248D01*
X43996Y34035D02*
Y34226D01*
X44232Y33798D02*
Y34215D01*
X44055Y33976D02*
Y34365D01*
X44173Y33857D02*
Y34337D01*
X43965Y34066D02*
X44448Y33583D01*
X44015Y34016D02*
X44585D01*
X44527Y33583D02*
Y34023D01*
X44409Y33621D02*
Y34061D01*
X44468Y33583D02*
Y34037D01*
X43965Y34075D02*
X44384D01*
X43965Y34134D02*
X44303D01*
X44350Y33680D02*
Y34096D01*
X44291Y33739D02*
Y34145D01*
X44011Y34252D02*
X44209D01*
X44038Y34311D02*
X44182D01*
X44056Y34370D02*
X44164D01*
X44066Y34429D02*
X44155D01*
X44025Y34665D02*
X44195D01*
X43819Y34880D02*
Y35065D01*
X44067Y34488D02*
X44153D01*
X44062Y34547D02*
X44159D01*
X44048Y34606D02*
X44173D01*
X43946Y34783D02*
X44275D01*
X43879Y34842D02*
X44341D01*
X43992Y34724D02*
X44228D01*
X44350Y34849D02*
Y35096D01*
X43843Y35079D02*
X44377D01*
X44409Y34883D02*
Y35061D01*
X44468Y34907D02*
Y35038D01*
X44527Y34922D02*
Y35023D01*
X44646Y33583D02*
Y34016D01*
X44587Y33583D02*
Y34016D01*
X44764Y33583D02*
Y34041D01*
X44705Y33583D02*
Y34025D01*
X44882Y33583D02*
Y34104D01*
X44823Y33583D02*
Y34067D01*
X45059Y33583D02*
Y34383D01*
X44941Y33583D02*
Y34156D01*
X45000Y33583D02*
Y34233D01*
X46181Y33583D02*
Y34656D01*
X46122Y33583D02*
Y34716D01*
X46358Y33583D02*
Y34479D01*
X46240Y33583D02*
Y34597D01*
X46299Y33583D02*
Y34538D01*
X45827Y33583D02*
Y35011D01*
X45768Y33583D02*
Y35070D01*
X46063Y33583D02*
Y34775D01*
X45886Y33583D02*
Y34952D01*
X46004Y33583D02*
Y34834D01*
X44646Y34929D02*
Y35016D01*
X44587Y34929D02*
Y35016D01*
X44705Y34920D02*
Y35025D01*
X44675Y35020D02*
X45818D01*
X44823Y34878D02*
Y35067D01*
X44764Y34903D02*
Y35041D01*
X44843Y35079D02*
X45759D01*
X45048Y34606D02*
X46231D01*
X45025Y34665D02*
X46172D01*
X45066Y34429D02*
X46408D01*
X45062Y34547D02*
X46290D01*
X45067Y34488D02*
X46349D01*
X44879Y34842D02*
X45995D01*
X44769Y34902D02*
X45936D01*
X45945Y33583D02*
Y34893D01*
X44946Y34783D02*
X46054D01*
X44992Y34724D02*
X46113D01*
X43937Y34793D02*
Y35152D01*
X43878Y34843D02*
Y35101D01*
X44055Y34579D02*
Y35365D01*
X43996Y34718D02*
Y35226D01*
X44061Y35551D02*
X44160D01*
X44055Y35579D02*
Y36339D01*
X44114Y33917D02*
Y36339D01*
X44067Y35492D02*
X44153D01*
X44066Y35433D02*
X44154D01*
X43922Y35138D02*
X44298D01*
X43975Y35197D02*
X44245D01*
X44232Y34730D02*
Y35215D01*
X44291Y34800D02*
Y35145D01*
X44882Y34841D02*
Y35104D01*
X44013Y35256D02*
X44207D01*
X44040Y35315D02*
X44181D01*
X44173Y34607D02*
Y35337D01*
X44057Y35374D02*
X44163D01*
X43996Y35718D02*
Y36339D01*
X43989Y35728D02*
X44231D01*
X44046Y35610D02*
X44174D01*
X44023Y35669D02*
X44197D01*
X43878Y35843D02*
Y36350D01*
X43819Y35880D02*
Y36371D01*
X44173Y35607D02*
Y36339D01*
X43937Y35793D02*
Y36340D01*
X44232Y35730D02*
Y36339D01*
X43942Y35787D02*
X44278D01*
X43874Y35846D02*
X44347D01*
X44882Y35841D02*
Y35956D01*
X44758Y35905D02*
X44932D01*
X44874Y35846D02*
X44991D01*
X44291Y35800D02*
Y36339D01*
X44350Y35849D02*
Y36339D01*
X44823Y35878D02*
Y36015D01*
X44409Y35883D02*
Y36339D01*
X44764Y35903D02*
Y36074D01*
X45000Y34712D02*
Y35233D01*
X44941Y34789D02*
Y35156D01*
X45413Y33583D02*
Y35424D01*
X45059Y34562D02*
Y35383D01*
X45177Y33583D02*
Y35660D01*
X45118Y33583D02*
Y35719D01*
X45354Y33583D02*
Y35483D01*
X45236Y33583D02*
Y35601D01*
X45295Y33583D02*
Y35542D01*
X44922Y35138D02*
X45700D01*
X44975Y35197D02*
X45641D01*
X45709Y33583D02*
Y35129D01*
X45590Y33583D02*
Y35247D01*
X45650Y33583D02*
Y35188D01*
X45013Y35256D02*
X45582D01*
X45040Y35315D02*
X45523D01*
X45531Y33583D02*
Y35306D01*
X45057Y35374D02*
X45464D01*
X45472Y33583D02*
Y35365D01*
X45046Y35610D02*
X45227D01*
X45023Y35669D02*
X45168D01*
X45067Y35492D02*
X45345D01*
X45061Y35551D02*
X45286D01*
X44942Y35787D02*
X45050D01*
X44941Y35789D02*
Y35897D01*
X45059Y35561D02*
Y35779D01*
X45000Y35712D02*
Y35838D01*
X44989Y35728D02*
X45109D01*
X45066Y35433D02*
X45404D01*
X46240Y35600D02*
Y36802D01*
X46417Y35422D02*
Y36625D01*
X46299Y35541D02*
Y36743D01*
X46358Y35482D02*
Y36684D01*
X46004Y35836D02*
Y37038D01*
X45945Y35895D02*
Y37097D01*
X46181Y35659D02*
Y36861D01*
X46063Y35777D02*
Y36979D01*
X46122Y35718D02*
Y36920D01*
X44369Y33661D02*
X46479D01*
X44310Y33720D02*
X46458D01*
X46476Y33583D02*
Y33668D01*
X44428Y33602D02*
X46513D01*
X44251Y33779D02*
X46448D01*
X44192Y33839D02*
X46447D01*
X46417Y33583D02*
Y34420D01*
X46447Y33809D02*
Y34391D01*
X47788Y33583D02*
X48751D01*
X44448D02*
X46529D01*
X47797Y33602D02*
X48770D01*
X47816Y33661D02*
X48830D01*
X47824Y33720D02*
X48889D01*
X47825Y33779D02*
X48948D01*
X47825Y33839D02*
X48967D01*
X44133Y33898D02*
X46447D01*
X44074Y33957D02*
X46447D01*
X44636Y34016D02*
X46447D01*
X44836Y34075D02*
X46447D01*
X44918Y34134D02*
X46447D01*
X44972Y34193D02*
X46447D01*
X45011Y34252D02*
X46447D01*
X45056Y34370D02*
X46447D01*
X45038Y34311D02*
X46447D01*
X47799Y34724D02*
X48076D01*
X47769Y34783D02*
X48076D01*
X47825Y33957D02*
X48967D01*
X47817Y34665D02*
X48076D01*
X47825Y34606D02*
X48076D01*
X47662Y34902D02*
X48076D01*
X47603Y34961D02*
X48967D01*
X47721Y34842D02*
X48076D01*
X48425Y33583D02*
Y34011D01*
X48366Y33583D02*
Y34011D01*
X48543Y33583D02*
Y34011D01*
X48484Y33583D02*
Y34011D01*
X48130Y33583D02*
Y34011D01*
X47825Y33741D02*
Y34592D01*
X48307Y33583D02*
Y34011D01*
X48189Y33583D02*
Y34011D01*
X48248Y33583D02*
Y34011D01*
X48602Y33583D02*
Y34011D01*
X47825Y33898D02*
X48967D01*
X48720Y33583D02*
Y34011D01*
X48779Y33611D02*
Y34011D01*
X48751Y33583D02*
X48967Y33798D01*
X48661Y33583D02*
Y34011D01*
X48838Y33670D02*
Y34011D01*
X48898Y33729D02*
Y34011D01*
X48957Y33788D02*
Y34011D01*
X48967Y33798D02*
Y34011D01*
X47825Y34134D02*
X48076D01*
X47825Y34193D02*
X48076D01*
X47825Y34016D02*
X48076D01*
X47825Y34075D02*
X48076D01*
X47825Y34252D02*
X48076D01*
X47825Y34311D02*
X48076D01*
Y34011D02*
Y34926D01*
X47825Y34488D02*
X48076D01*
X47825Y34370D02*
X48076D01*
X47825Y34429D02*
X48076D01*
X47825Y34547D02*
X48076D01*
Y34011D02*
X48967D01*
X48076Y34926D02*
X48967D01*
X48602D02*
Y35016D01*
X48484Y34926D02*
Y35014D01*
X48543Y34926D02*
Y35011D01*
X44499Y36339D02*
X46447Y34391D01*
X47362Y35201D02*
Y38206D01*
X47480Y35083D02*
Y38200D01*
X47421Y35142D02*
Y38199D01*
X47244Y35319D02*
Y38243D01*
X47185Y35379D02*
Y38275D01*
X47598Y34965D02*
Y38225D01*
X47303Y35260D02*
Y38220D01*
X47539Y35024D02*
Y38209D01*
X47367Y35197D02*
X48165D01*
X47308Y35256D02*
X48128D01*
X47544Y35020D02*
X48445D01*
X47426Y35138D02*
X48217D01*
X47485Y35079D02*
X48294D01*
X47156Y35408D02*
X47721Y34843D01*
X47190Y35374D02*
X48086D01*
X47716Y34847D02*
Y38286D01*
X47657Y34906D02*
Y38250D01*
X47249Y35315D02*
X48103D01*
X46289Y35551D02*
X46447D01*
X46230Y35610D02*
X46447D01*
X46407Y35433D02*
X46447D01*
X46348Y35492D02*
X46447D01*
X44896Y36943D02*
X46447Y35393D01*
X45993Y35846D02*
X46447D01*
Y35393D02*
Y36595D01*
X46111Y35728D02*
X46447D01*
X46170Y35669D02*
X46447D01*
X47156Y35610D02*
X48098D01*
X47156Y35669D02*
X48122D01*
X47156Y35433D02*
X48077D01*
X47156Y35492D02*
X48077D01*
X47156Y35551D02*
X48084D01*
X47156Y35728D02*
X48157D01*
X46052Y35787D02*
X46447D01*
X47156Y35408D02*
Y36742D01*
Y35787D02*
X48205D01*
X47156Y35846D02*
X48276D01*
X48071Y33583D02*
Y38317D01*
X48130Y34926D02*
Y35253D01*
X48248Y34926D02*
Y35111D01*
X48189Y34926D02*
Y35168D01*
X47835Y33583D02*
Y38317D01*
X47776Y34772D02*
Y38317D01*
X48012Y33583D02*
Y38317D01*
X47894Y33583D02*
Y38317D01*
X47953Y33583D02*
Y38317D01*
X48366Y34926D02*
Y35043D01*
X48307Y34926D02*
Y35071D01*
X48720Y34926D02*
Y35051D01*
X48425Y34926D02*
Y35024D01*
X48661Y34926D02*
Y35029D01*
X48838Y34926D02*
Y35128D01*
X48779Y34926D02*
Y35083D01*
X48967Y34926D02*
Y35321D01*
X48898Y34926D02*
Y35191D01*
X48957Y34926D02*
Y35295D01*
X48779Y35854D02*
Y37993D01*
X48720Y35886D02*
Y38052D01*
X48898Y35746D02*
Y37875D01*
X48838Y35809D02*
Y37934D01*
X48130Y35684D02*
Y38317D01*
X48189Y35769D02*
Y38317D01*
X48248Y35826D02*
Y38317D01*
X48307Y35866D02*
Y38317D01*
X48366Y35894D02*
Y38317D01*
X48622Y35020D02*
X48967D01*
X48773Y35079D02*
X48967D01*
X48849Y35138D02*
X48967D01*
X48910Y35728D02*
X48967D01*
X48902Y35197D02*
X48967D01*
X48791Y35846D02*
X48967D01*
Y35616D02*
Y37806D01*
X48957Y35642D02*
Y37816D01*
X48862Y35787D02*
X48967D01*
X43967Y36339D02*
X44499D01*
X43797Y37363D02*
X44113Y37047D01*
X44468Y35907D02*
Y36339D01*
X44527Y35922D02*
Y36310D01*
X44173Y37047D02*
Y38283D01*
X44114Y37047D02*
Y38332D01*
X44350Y37047D02*
Y38208D01*
X44232Y37047D02*
Y38248D01*
X44291Y37047D02*
Y38224D01*
X44587Y35929D02*
Y36251D01*
X44113Y37047D02*
X44646D01*
X44705Y35920D02*
Y36133D01*
X44646Y35929D02*
Y36192D01*
X44762Y37027D02*
X46015D01*
X44587Y37047D02*
Y38221D01*
X44705Y37042D02*
Y38278D01*
X44764Y37027D02*
Y38324D01*
X43797Y38090D02*
X45089D01*
X43797Y38150D02*
X45089D01*
X44468Y37047D02*
Y38200D01*
X44409Y37047D02*
Y38200D01*
X44527Y37047D02*
Y38206D01*
X44538Y38209D02*
X45089D01*
X44646Y37047D02*
Y38245D01*
X44766Y38327D02*
X45089D01*
X44688Y38268D02*
X45089D01*
X43897Y37264D02*
X45778D01*
X43838Y37323D02*
X45719D01*
X44074Y37087D02*
X45956D01*
X43956Y37205D02*
X45838D01*
X44015Y37146D02*
X45897D01*
X43797Y37972D02*
X45113D01*
X43797Y38031D02*
X45095D01*
X43797Y37500D02*
X45542D01*
X43797Y37795D02*
X45247D01*
X43797Y37736D02*
X45306D01*
X45590Y36249D02*
Y37452D01*
X45531Y36308D02*
Y37511D01*
X45709Y36131D02*
Y37334D01*
X45650Y36190D02*
Y37393D01*
X45295Y36544D02*
Y37747D01*
X45236Y36604D02*
Y37806D01*
X45472Y36367D02*
Y37570D01*
X45354Y36485D02*
Y37688D01*
X45413Y36426D02*
Y37629D01*
X45639Y36201D02*
X46447D01*
X45580Y36260D02*
X46447D01*
X45875Y35965D02*
X46447D01*
X45698Y36142D02*
X46447D01*
X45816Y36024D02*
X46447D01*
X45521Y36319D02*
X46447D01*
X45226Y36614D02*
X46428D01*
X45886Y35954D02*
Y37156D01*
X45768Y36072D02*
Y37275D01*
X45827Y36013D02*
Y37216D01*
X44930Y36909D02*
X46133D01*
X44868Y36968D02*
X46074D01*
X45177Y36663D02*
Y37866D01*
X45118Y36722D02*
Y37959D01*
X46181Y37863D02*
Y38278D01*
X45797Y38327D02*
X46120D01*
X46122Y37922D02*
Y38325D01*
X45048Y36791D02*
X46251D01*
X44989Y36850D02*
X46192D01*
X45167Y36673D02*
X46369D01*
X45107Y36732D02*
X46310D01*
X46417Y37627D02*
Y38200D01*
X45836Y38209D02*
X46347D01*
X45797Y38268D02*
X46197D01*
X46358Y37686D02*
Y38206D01*
X46240Y37804D02*
Y38245D01*
X46299Y37745D02*
Y38221D01*
X43819Y37342D02*
Y38385D01*
X43858Y38445D02*
X44028D01*
X43878Y37283D02*
Y38487D01*
X43885Y38504D02*
X44001D01*
X43903Y38563D02*
X43983D01*
X43913Y38622D02*
X43973D01*
X43996Y37165D02*
Y38518D01*
X43937Y37224D02*
Y39075D01*
X43915Y38681D02*
X43971D01*
X44055Y37106D02*
Y38402D01*
X43819Y38386D02*
X44067D01*
X44823Y37000D02*
Y38390D01*
X44858Y38445D02*
X45028D01*
X44819Y38386D02*
X45066D01*
X44882Y36957D02*
Y38496D01*
X44903Y38563D02*
X44983D01*
X44885Y38504D02*
X45001D01*
X43877Y38858D02*
X44009D01*
X43846Y38917D02*
X44040D01*
X43910Y38740D02*
X43976D01*
X43898Y38799D02*
X43988D01*
X43819Y38957D02*
Y39075D01*
X43804Y38976D02*
X44082D01*
X43996Y38824D02*
Y39075D01*
X43878Y38856D02*
Y39075D01*
X44055Y38941D02*
Y39075D01*
X44804Y38976D02*
X45082D01*
X44744Y39035D02*
X45142D01*
X44898Y38799D02*
X44988D01*
X44877Y38858D02*
X45009D01*
X44846Y38917D02*
X45040D01*
X44114Y39010D02*
Y39075D01*
X44689D02*
X45197D01*
X44882Y38846D02*
Y39075D01*
X44764Y39018D02*
Y39075D01*
X44823Y38952D02*
Y39075D01*
X45059Y36781D02*
Y38396D01*
X45089Y38100D02*
Y38359D01*
X45827Y38218D02*
Y38396D01*
X45797Y38247D02*
Y38359D01*
X44941Y36899D02*
Y39075D01*
X44913Y38622D02*
X44973D01*
X45000Y36840D02*
Y38507D01*
X45886Y38159D02*
Y38507D01*
X45819Y38386D02*
X46066D01*
X45858Y38445D02*
X46028D01*
X46063Y37982D02*
Y38391D01*
X45885Y38504D02*
X46001D01*
X46004Y38041D02*
Y38497D01*
X45945Y38100D02*
Y39075D01*
X45913Y38622D02*
X45973D01*
X45903Y38563D02*
X45983D01*
X44915Y38681D02*
X44971D01*
X44910Y38740D02*
X44976D01*
X45915Y38681D02*
X45971D01*
X45059Y38947D02*
Y39075D01*
X45000Y38835D02*
Y39075D01*
X45118Y39014D02*
Y39075D01*
X45886Y38836D02*
Y39075D01*
X45768Y39014D02*
Y39075D01*
X45827Y38947D02*
Y39075D01*
X45846Y38917D02*
X46040D01*
X45804Y38976D02*
X46082D01*
X45910Y38740D02*
X45976D01*
X45898Y38799D02*
X45988D01*
X45877Y38858D02*
X46009D01*
X45744Y39035D02*
X46142D01*
X45689Y39075D02*
X46197D01*
X46004Y38846D02*
Y39075D01*
X46063Y38952D02*
Y39075D01*
X46122Y39018D02*
Y39075D01*
X45462Y36378D02*
X46447D01*
X45403Y36437D02*
X46447D01*
X45934Y35905D02*
X46447D01*
X45757Y36083D02*
X46447D01*
X45285Y36555D02*
X46447D01*
X45193Y37850D02*
X46447Y36595D01*
X45344Y36496D02*
X46447D01*
X46653Y37391D02*
Y38248D01*
X46713Y37332D02*
Y38283D01*
X46899Y37146D02*
X48967D01*
X46840Y37205D02*
X48967D01*
X46958Y37087D02*
X48967D01*
X47017Y37027D02*
X48967D01*
X45797Y38247D02*
X47051Y36993D01*
X46663Y37382D02*
X48967D01*
X46781Y37264D02*
X48967D01*
X46772Y37273D02*
Y38332D01*
X46722Y37323D02*
X48967D01*
X45954Y38090D02*
X48682D01*
X45895Y38150D02*
X48623D01*
X46476Y37568D02*
Y38200D01*
X46013Y38031D02*
X48741D01*
X46535Y37509D02*
Y38208D01*
X46538Y38209D02*
X47347D01*
X46594Y37450D02*
Y38224D01*
X46766Y38327D02*
X47120D01*
X46688Y38268D02*
X47197D01*
X46426Y37618D02*
X48967D01*
X46367Y37677D02*
X48967D01*
X46604Y37441D02*
X48967D01*
X46485Y37559D02*
X48967D01*
X46544Y37500D02*
X48967D01*
X46131Y37913D02*
X48859D01*
X46072Y37972D02*
X48800D01*
X46308Y37736D02*
X48967D01*
X46190Y37854D02*
X48918D01*
X46249Y37795D02*
X48967D01*
X47156Y35905D02*
X48398D01*
X47156Y35965D02*
X48967D01*
X48669Y35905D02*
X48967D01*
X47156Y36024D02*
X48967D01*
X48425Y35913D02*
Y38317D01*
X48484Y35923D02*
Y38288D01*
X48661Y35908D02*
Y38111D01*
X48543Y35926D02*
Y38229D01*
X48602Y35921D02*
Y38170D01*
X47156Y36260D02*
X48967D01*
X47156Y36319D02*
X48967D01*
X47156Y36083D02*
X48967D01*
X47156Y36201D02*
X48967D01*
X47156Y36142D02*
X48967D01*
X47156Y36555D02*
X48967D01*
X47156Y36614D02*
X48967D01*
X47156Y36378D02*
X48967D01*
X47156Y36496D02*
X48967D01*
X47156Y36437D02*
X48967D01*
X47114Y36909D02*
X48967D01*
X47156Y36673D02*
X48967D01*
X47156Y36732D02*
X48967D01*
X47126Y36884D02*
Y38321D01*
X47067Y36977D02*
Y38385D01*
X47538Y38209D02*
X48564D01*
X47755Y38317D02*
X48456D01*
X47688Y38268D02*
X48505D01*
X47139Y36850D02*
X48967D01*
X47074Y36968D02*
X48967D01*
X47152Y36791D02*
X48967D01*
X49616Y38150D02*
X49656D01*
X48456Y38317D02*
X48967Y37806D01*
X49448Y38327D02*
X49656D01*
X49507Y38268D02*
X49656D01*
X49566Y38209D02*
X49656D01*
X46890Y37155D02*
Y38518D01*
X46831Y37214D02*
Y38401D01*
X46913Y38622D02*
X46973D01*
X46915Y38681D02*
X46971D01*
X46949Y37096D02*
Y39075D01*
X46890Y38825D02*
Y39075D01*
X46910Y38740D02*
X46976D01*
X46819Y38386D02*
X47066D01*
X46858Y38445D02*
X47028D01*
X47008Y37037D02*
Y38487D01*
X46903Y38563D02*
X46983D01*
X46885Y38504D02*
X47001D01*
X46877Y38858D02*
X47009D01*
X46846Y38917D02*
X47040D01*
X46898Y38799D02*
X46988D01*
X47008Y38855D02*
Y39075D01*
X46772Y39011D02*
Y39075D01*
X46744Y39035D02*
X47142D01*
X47067Y38957D02*
Y39075D01*
X46804Y38976D02*
X47082D01*
X46831Y38941D02*
Y39075D01*
X46689D02*
X47197D01*
X47126Y39022D02*
Y39075D01*
X47776Y39026D02*
Y39075D01*
X47755Y39026D02*
X48602D01*
X47744Y39035D02*
X49656D01*
X48012Y39026D02*
Y39075D01*
X47835Y39026D02*
Y39075D01*
X47953Y39026D02*
Y39075D01*
X47894Y39026D02*
Y39075D01*
X47689D02*
X49656D01*
X48189Y39026D02*
Y39075D01*
X48071Y39026D02*
Y39075D01*
X48130Y39026D02*
Y39075D01*
X49429Y38346D02*
Y39075D01*
X49370Y38405D02*
Y39075D01*
X49547Y38228D02*
Y39075D01*
X49488Y38287D02*
Y39075D01*
X49134Y38641D02*
Y39075D01*
X49075Y38700D02*
Y39075D01*
X49311Y38464D02*
Y39075D01*
X49193Y38582D02*
Y39075D01*
X49252Y38523D02*
Y39075D01*
X49212Y38563D02*
X49656D01*
X49153Y38622D02*
X49656D01*
X49389Y38386D02*
X49656D01*
X49271Y38504D02*
X49656D01*
X49330Y38445D02*
X49656D01*
X48853Y38922D02*
X49571Y38204D01*
X49035Y38740D02*
X49656D01*
Y38069D02*
Y39075D01*
X49606Y38163D02*
Y39075D01*
X49094Y38681D02*
X49656D01*
X48602Y39026D02*
Y39075D01*
X48543Y39026D02*
Y39075D01*
X48779Y38978D02*
Y39075D01*
X48661Y39021D02*
Y39075D01*
X48720Y39005D02*
Y39075D01*
X48307Y39026D02*
Y39075D01*
X48248Y39026D02*
Y39075D01*
X48484Y39026D02*
Y39075D01*
X48366Y39026D02*
Y39075D01*
X48425Y39026D02*
Y39075D01*
X48783Y38976D02*
X49656D01*
X48976Y38799D02*
X49656D01*
X48857Y38917D02*
X49656D01*
X48917Y38858D02*
X49656D01*
X48838Y38935D02*
Y39075D01*
X49016Y38759D02*
Y39075D01*
X48898Y38877D02*
Y39075D01*
X48957Y38818D02*
Y39075D01*
D11*
X41443Y37378D02*
Y38671D01*
X40531Y36467D02*
X41443Y37378D01*
X40108Y36467D02*
X40531D01*
X39833Y36191D02*
X40108Y36467D01*
X39833Y34892D02*
Y36191D01*
Y34892D02*
X40252Y34472D01*
X40610D01*
X43443Y37217D02*
Y38671D01*
Y37217D02*
X43967Y36693D01*
X43610Y33919D02*
Y34472D01*
X49321Y33652D02*
Y37953D01*
X48602Y38671D02*
X49321Y37953D01*
X47443Y38671D02*
X48602D01*
X43610Y33919D02*
X44301Y33228D01*
X48898D01*
X49321Y33652D01*
X43967Y36693D02*
X44646D01*
X46801Y34537D01*
Y33809D02*
Y34537D01*
Y33809D02*
X46811Y33799D01*
X47470Y33740D02*
Y34592D01*
X46801Y35261D02*
X47470Y34592D01*
X46801Y35261D02*
Y36742D01*
X45443Y38100D02*
X46801Y36742D01*
X45443Y38100D02*
Y38671D01*
D12*
X44610Y34472D02*
X45028D01*
X44192D02*
X44610D01*
Y34054D02*
Y34472D01*
Y34891D01*
X48533Y34050D02*
Y34469D01*
X48115D02*
X48533D01*
Y34887D01*
D13*
X42443Y38671D02*
D03*
X43443D02*
D03*
X41443D02*
D03*
X44443D02*
D03*
X46443D02*
D03*
X45443D02*
D03*
X47443D02*
D03*
D14*
X40443D02*
D03*
D15*
X42610Y34472D02*
D03*
Y35472D02*
D03*
X43610Y34472D02*
D03*
X44610D02*
D03*
X40610D02*
D03*
X41610D02*
D03*
X43610Y35472D02*
D03*
X44610D02*
D03*
X41610D02*
D03*
X48533Y35468D02*
D03*
D16*
X40610Y35472D02*
D03*
X48533Y34469D02*
D03*
D17*
X46811Y33799D02*
D03*
X47470Y33740D02*
D03*
X38927Y38829D02*
D03*
X39065Y33543D02*
D03*
X49380Y38789D02*
D03*
X48130Y37382D02*
D03*
X46004Y36319D02*
D03*
M02*
