G04 Layer_Color=8388736*
%FSLAX24Y24*%
%MOIN*%
G70*
G01*
G75*
G04:AMPARAMS|DCode=40|XSize=118.2mil|YSize=67.1mil|CornerRadius=18.8mil|HoleSize=0mil|Usage=FLASHONLY|Rotation=90.000|XOffset=0mil|YOffset=0mil|HoleType=Round|Shape=RoundedRectangle|*
%AMROUNDEDRECTD40*
21,1,0.1182,0.0295,0,0,90.0*
21,1,0.0807,0.0671,0,0,90.0*
1,1,0.0375,0.0148,0.0404*
1,1,0.0375,0.0148,-0.0404*
1,1,0.0375,-0.0148,-0.0404*
1,1,0.0375,-0.0148,0.0404*
%
%ADD40ROUNDEDRECTD40*%
G04:AMPARAMS|DCode=41|XSize=141.9mil|YSize=59.2mil|CornerRadius=16.8mil|HoleSize=0mil|Usage=FLASHONLY|Rotation=270.000|XOffset=0mil|YOffset=0mil|HoleType=Round|Shape=RoundedRectangle|*
%AMROUNDEDRECTD41*
21,1,0.1419,0.0256,0,0,270.0*
21,1,0.1083,0.0592,0,0,270.0*
1,1,0.0336,-0.0128,-0.0541*
1,1,0.0336,-0.0128,0.0541*
1,1,0.0336,0.0128,0.0541*
1,1,0.0336,0.0128,-0.0541*
%
%ADD41ROUNDEDRECTD41*%
G04:AMPARAMS|DCode=42|XSize=94.6mil|YSize=76.9mil|CornerRadius=21.2mil|HoleSize=0mil|Usage=FLASHONLY|Rotation=270.000|XOffset=0mil|YOffset=0mil|HoleType=Round|Shape=RoundedRectangle|*
%AMROUNDEDRECTD42*
21,1,0.0946,0.0344,0,0,270.0*
21,1,0.0522,0.0769,0,0,270.0*
1,1,0.0424,-0.0172,-0.0261*
1,1,0.0424,-0.0172,0.0261*
1,1,0.0424,0.0172,0.0261*
1,1,0.0424,0.0172,-0.0261*
%
%ADD42ROUNDEDRECTD42*%
%ADD43R,0.0356X0.0434*%
%ADD44R,0.0434X0.0356*%
%ADD45R,0.0651X0.0533*%
%ADD46R,0.0434X0.0474*%
%ADD47O,0.0361X0.0671*%
%ADD48R,0.0769X0.0493*%
%ADD49O,0.0986X0.0316*%
%ADD50R,0.0533X0.0651*%
%ADD51C,0.0789*%
%ADD52C,0.1261*%
%ADD53R,0.0789X0.0789*%
%ADD54C,0.0710*%
%ADD55C,0.0680*%
%ADD56R,0.0680X0.0680*%
G36*
X36599Y35325D02*
X36695Y35285D01*
X36777Y35222D01*
X36840Y35139D01*
X36880Y35044D01*
X36893Y34941D01*
X36880Y34838D01*
X36840Y34742D01*
X36777Y34660D01*
X36695Y34597D01*
X36599Y34557D01*
X36496Y34544D01*
X36393Y34557D01*
X36298Y34597D01*
X36215Y34660D01*
X36152Y34742D01*
X36112Y34838D01*
X36099Y34941D01*
X36112Y35044D01*
X36152Y35139D01*
X36215Y35222D01*
X36298Y35285D01*
X36393Y35325D01*
X36496Y35338D01*
X36599Y35325D01*
D02*
G37*
G36*
X56107Y30039D02*
X56202Y29999D01*
X56285Y29936D01*
X56348Y29854D01*
X56388Y29758D01*
X56401Y29656D01*
X56388Y29553D01*
X56348Y29457D01*
X56285Y29375D01*
X56202Y29312D01*
X56107Y29272D01*
X56004Y29258D01*
X55901Y29272D01*
X55805Y29312D01*
X55723Y29375D01*
X55660Y29457D01*
X55620Y29553D01*
X55607Y29656D01*
X55620Y29758D01*
X55660Y29854D01*
X55723Y29936D01*
X55805Y29999D01*
X55901Y30039D01*
X56004Y30053D01*
X56107Y30039D01*
D02*
G37*
D40*
X42274Y31014D02*
D03*
X43533D02*
D03*
X42283Y29705D02*
D03*
X43543D02*
D03*
D41*
X36358Y33091D02*
D03*
X37972D02*
D03*
D42*
X39144Y33297D02*
D03*
Y34911D02*
D03*
D43*
X41654Y31959D02*
D03*
X41044D02*
D03*
X54803Y30167D02*
D03*
X54193D02*
D03*
X52667Y32844D02*
D03*
X53277D02*
D03*
X52667Y31043D02*
D03*
X53277D02*
D03*
X52667Y30433D02*
D03*
X53277D02*
D03*
X52667Y29823D02*
D03*
X53277D02*
D03*
X52667Y31644D02*
D03*
X53277D02*
D03*
X52667Y32244D02*
D03*
X53277D02*
D03*
D44*
X40443Y33287D02*
D03*
Y32677D02*
D03*
X44577Y30669D02*
D03*
Y31279D02*
D03*
X44970Y29498D02*
D03*
Y30108D02*
D03*
D45*
X45728Y31516D02*
D03*
Y30807D02*
D03*
D46*
X45728Y29439D02*
D03*
Y30108D02*
D03*
D47*
X41043Y32682D02*
D03*
X41843D02*
D03*
X41443Y33592D02*
D03*
D48*
X42687Y33652D02*
D03*
Y32510D02*
D03*
X43543Y33652D02*
D03*
Y32510D02*
D03*
D49*
X50502Y29904D02*
D03*
Y30404D02*
D03*
Y30904D02*
D03*
Y31404D02*
D03*
Y31904D02*
D03*
Y32404D02*
D03*
Y32904D02*
D03*
Y33404D02*
D03*
X46919Y29904D02*
D03*
Y30404D02*
D03*
Y30904D02*
D03*
Y31404D02*
D03*
Y31904D02*
D03*
Y32404D02*
D03*
Y32904D02*
D03*
Y33404D02*
D03*
D50*
X53356Y33760D02*
D03*
X52648D02*
D03*
D51*
X40541Y30955D02*
D03*
Y29774D02*
D03*
X39360D02*
D03*
D52*
X37659Y30364D02*
D03*
D53*
X39360Y30955D02*
D03*
D54*
X54488Y31161D02*
D03*
X56457D02*
D03*
X55472Y33130D02*
D03*
D55*
X40974Y34754D02*
D03*
X43974D02*
D03*
X46974D02*
D03*
X49974D02*
D03*
X52974D02*
D03*
X41974D02*
D03*
X42974D02*
D03*
X44974D02*
D03*
X45974D02*
D03*
X47974D02*
D03*
X48974D02*
D03*
X50974D02*
D03*
X51974D02*
D03*
X53974D02*
D03*
X54974D02*
D03*
D56*
X55974D02*
D03*
M02*
