G04 Layer_Color=8421504*
%FSLAX24Y24*%
%MOIN*%
G70*
G01*
G75*
G04:AMPARAMS|DCode=11|XSize=110.2mil|YSize=59.1mil|CornerRadius=14.8mil|HoleSize=0mil|Usage=FLASHONLY|Rotation=90.000|XOffset=0mil|YOffset=0mil|HoleType=Round|Shape=RoundedRectangle|*
%AMROUNDEDRECTD11*
21,1,0.1102,0.0295,0,0,90.0*
21,1,0.0807,0.0591,0,0,90.0*
1,1,0.0295,0.0148,0.0404*
1,1,0.0295,0.0148,-0.0404*
1,1,0.0295,-0.0148,-0.0404*
1,1,0.0295,-0.0148,0.0404*
%
%ADD11ROUNDEDRECTD11*%
G04:AMPARAMS|DCode=12|XSize=133.9mil|YSize=51.2mil|CornerRadius=12.8mil|HoleSize=0mil|Usage=FLASHONLY|Rotation=270.000|XOffset=0mil|YOffset=0mil|HoleType=Round|Shape=RoundedRectangle|*
%AMROUNDEDRECTD12*
21,1,0.1339,0.0256,0,0,270.0*
21,1,0.1083,0.0512,0,0,270.0*
1,1,0.0256,-0.0128,-0.0541*
1,1,0.0256,-0.0128,0.0541*
1,1,0.0256,0.0128,0.0541*
1,1,0.0256,0.0128,-0.0541*
%
%ADD12ROUNDEDRECTD12*%
G04:AMPARAMS|DCode=13|XSize=86.6mil|YSize=68.9mil|CornerRadius=17.2mil|HoleSize=0mil|Usage=FLASHONLY|Rotation=270.000|XOffset=0mil|YOffset=0mil|HoleType=Round|Shape=RoundedRectangle|*
%AMROUNDEDRECTD13*
21,1,0.0866,0.0344,0,0,270.0*
21,1,0.0522,0.0689,0,0,270.0*
1,1,0.0344,-0.0172,-0.0261*
1,1,0.0344,-0.0172,0.0261*
1,1,0.0344,0.0172,0.0261*
1,1,0.0344,0.0172,-0.0261*
%
%ADD13ROUNDEDRECTD13*%
%ADD18O,0.0281X0.0591*%
%ADD20O,0.0906X0.0236*%
G36*
X53583Y33474D02*
X53130D01*
X53258Y33760D01*
X53130Y34045D01*
X53583D01*
Y33474D01*
D02*
G37*
G36*
X52746Y33760D02*
X52874Y33474D01*
X52421D01*
Y34045D01*
X52874D01*
X52746Y33760D01*
D02*
G37*
G36*
X43888Y33445D02*
X43543Y33563D01*
X43199Y33445D01*
Y33858D01*
X43888D01*
Y33445D01*
D02*
G37*
G36*
X43032D02*
X42687Y33563D01*
X42343Y33445D01*
Y33858D01*
X43032D01*
Y33445D01*
D02*
G37*
G36*
X40620Y33150D02*
X40443Y33228D01*
X40266Y33150D01*
Y33425D01*
X40620D01*
Y33150D01*
D02*
G37*
G36*
Y32540D02*
X40266D01*
Y32815D01*
X40443Y32736D01*
X40620Y32815D01*
Y32540D01*
D02*
G37*
G36*
X53415Y32667D02*
X53140D01*
X53218Y32844D01*
X53140Y33022D01*
X53415D01*
Y32667D01*
D02*
G37*
G36*
X52726Y32844D02*
X52805Y32667D01*
X52530D01*
Y33022D01*
X52805D01*
X52726Y32844D01*
D02*
G37*
G36*
X43888Y32303D02*
X43199D01*
Y32717D01*
X43543Y32598D01*
X43888Y32717D01*
Y32303D01*
D02*
G37*
G36*
X43032D02*
X42343D01*
Y32717D01*
X42687Y32598D01*
X43032Y32717D01*
Y32303D01*
D02*
G37*
G36*
X53415Y32067D02*
X53140D01*
X53218Y32244D01*
X53140Y32421D01*
X53415D01*
Y32067D01*
D02*
G37*
G36*
X52726Y32244D02*
X52805Y32067D01*
X52530D01*
Y32421D01*
X52805D01*
X52726Y32244D01*
D02*
G37*
G36*
X41791Y31781D02*
X41516D01*
X41594Y31959D01*
X41516Y32136D01*
X41791D01*
Y31781D01*
D02*
G37*
G36*
X41103Y31959D02*
X41181Y31781D01*
X40906D01*
Y32136D01*
X41181D01*
X41103Y31959D01*
D02*
G37*
G36*
X53415Y31467D02*
X53140D01*
X53218Y31644D01*
X53140Y31821D01*
X53415D01*
Y31467D01*
D02*
G37*
G36*
X52726Y31644D02*
X52805Y31467D01*
X52530D01*
Y31821D01*
X52805D01*
X52726Y31644D01*
D02*
G37*
G36*
X46014Y31289D02*
X45728Y31417D01*
X45443Y31289D01*
Y31742D01*
X46014D01*
Y31289D01*
D02*
G37*
G36*
X44754Y31142D02*
X44577Y31220D01*
X44400Y31142D01*
Y31417D01*
X44754D01*
Y31142D01*
D02*
G37*
G36*
X46014Y30581D02*
X45443D01*
Y31033D01*
X45728Y30906D01*
X46014Y31033D01*
Y30581D01*
D02*
G37*
G36*
X53415Y30866D02*
X53140D01*
X53218Y31043D01*
X53140Y31220D01*
X53415D01*
Y30866D01*
D02*
G37*
G36*
X52726Y31043D02*
X52805Y30866D01*
X52530D01*
Y31220D01*
X52805D01*
X52726Y31043D01*
D02*
G37*
G36*
X44754Y30531D02*
X44400D01*
Y30807D01*
X44577Y30728D01*
X44754Y30807D01*
Y30531D01*
D02*
G37*
G36*
X53415Y30256D02*
X53140D01*
X53218Y30433D01*
X53140Y30610D01*
X53415D01*
Y30256D01*
D02*
G37*
G36*
X52726Y30433D02*
X52805Y30256D01*
X52530D01*
Y30610D01*
X52805D01*
X52726Y30433D01*
D02*
G37*
G36*
X54941Y29990D02*
X54665D01*
X54744Y30167D01*
X54665Y30344D01*
X54941D01*
Y29990D01*
D02*
G37*
G36*
X54252Y30167D02*
X54331Y29990D01*
X54055D01*
Y30344D01*
X54331D01*
X54252Y30167D01*
D02*
G37*
G36*
X45148Y29970D02*
X44970Y30049D01*
X44793Y29970D01*
Y30246D01*
X45148D01*
Y29970D01*
D02*
G37*
G36*
X45906Y29911D02*
X45728Y30030D01*
X45551Y29911D01*
Y30305D01*
X45906D01*
Y29911D01*
D02*
G37*
G36*
X53415Y29646D02*
X53140D01*
X53218Y29823D01*
X53140Y30000D01*
X53415D01*
Y29646D01*
D02*
G37*
G36*
X52726Y29823D02*
X52805Y29646D01*
X52530D01*
Y30000D01*
X52805D01*
X52726Y29823D01*
D02*
G37*
G36*
X45148Y29360D02*
X44793D01*
Y29636D01*
X44970Y29557D01*
X45148Y29636D01*
Y29360D01*
D02*
G37*
G36*
X45906Y29242D02*
X45551D01*
Y29636D01*
X45728Y29518D01*
X45906Y29636D01*
Y29242D01*
D02*
G37*
D11*
X42274Y31014D02*
D03*
X43533D02*
D03*
X42283Y29705D02*
D03*
X43543D02*
D03*
D12*
X36358Y33091D02*
D03*
X37972D02*
D03*
D13*
X39144Y33297D02*
D03*
Y34911D02*
D03*
D18*
X41043Y32682D02*
D03*
X41843D02*
D03*
X41443Y33592D02*
D03*
D20*
X50502Y29904D02*
D03*
Y30404D02*
D03*
Y30904D02*
D03*
Y31404D02*
D03*
Y31904D02*
D03*
Y32404D02*
D03*
Y32904D02*
D03*
Y33404D02*
D03*
X46919Y29904D02*
D03*
Y30404D02*
D03*
Y30904D02*
D03*
Y31404D02*
D03*
Y31904D02*
D03*
Y32404D02*
D03*
Y32904D02*
D03*
Y33404D02*
D03*
M02*
