G04*
G04 #@! TF.GenerationSoftware,Altium Limited,Altium Designer,19.1.8 (144)*
G04*
G04 Layer_Color=65535*
%FSLAX24Y24*%
%MOIN*%
G70*
G01*
G75*
%ADD10C,0.0070*%
%ADD11C,0.0098*%
%ADD12C,0.0100*%
%ADD13C,0.0071*%
%ADD14C,0.0079*%
%ADD15C,0.0236*%
%ADD16C,0.0039*%
%ADD17C,0.0067*%
%ADD18C,0.0118*%
%ADD19C,0.0050*%
G36*
X44451Y9545D02*
Y9795D01*
X44201D01*
Y9545D01*
X44451D01*
D02*
G37*
G36*
X32256Y16573D02*
Y16823D01*
X32006D01*
Y16573D01*
X32256D01*
D02*
G37*
G36*
X29900Y25098D02*
X30150D01*
Y25348D01*
X29900D01*
Y25098D01*
D02*
G37*
G36*
X18438Y28001D02*
X18442Y28001D01*
X18447Y28000D01*
X18456Y27997D01*
X18457D01*
X18458Y27996D01*
X18460Y27995D01*
X18463Y27994D01*
X18470Y27990D01*
X18476Y27985D01*
X18476Y27984D01*
X18477Y27984D01*
X18478Y27982D01*
X18480Y27980D01*
X18483Y27974D01*
X18486Y27967D01*
Y27966D01*
X18486Y27965D01*
X18487Y27963D01*
X18488Y27960D01*
X18489Y27954D01*
X18489Y27946D01*
Y27942D01*
X18489Y27940D01*
X18488Y27933D01*
X18486Y27926D01*
Y27925D01*
X18486Y27924D01*
X18485Y27923D01*
X18484Y27920D01*
X18482Y27917D01*
X18479Y27913D01*
X18476Y27910D01*
X18472Y27905D01*
X18292Y27704D01*
X18484D01*
Y27611D01*
X18212D01*
X18211D01*
X18209D01*
X18206D01*
X18202Y27612D01*
X18193Y27613D01*
X18184Y27616D01*
X18183D01*
X18182Y27617D01*
X18180Y27618D01*
X18177Y27619D01*
X18171Y27623D01*
X18165Y27628D01*
X18164Y27629D01*
X18164Y27630D01*
X18162Y27631D01*
X18160Y27633D01*
X18157Y27639D01*
X18154Y27646D01*
Y27646D01*
X18153Y27647D01*
X18153Y27650D01*
X18152Y27652D01*
X18151Y27659D01*
X18150Y27667D01*
Y27670D01*
X18151Y27673D01*
X18151Y27679D01*
X18153Y27685D01*
Y27686D01*
X18154Y27687D01*
X18155Y27689D01*
X18157Y27692D01*
X18158Y27695D01*
X18161Y27699D01*
X18164Y27703D01*
X18168Y27708D01*
X18349Y27909D01*
X18156D01*
Y28002D01*
X18428D01*
X18429D01*
X18431D01*
X18434D01*
X18438Y28001D01*
D02*
G37*
G36*
X18328Y27561D02*
X18334Y27560D01*
X18342Y27560D01*
X18350Y27558D01*
X18359Y27556D01*
X18369Y27554D01*
X18379Y27550D01*
X18390Y27546D01*
X18401Y27542D01*
X18412Y27536D01*
X18422Y27529D01*
X18432Y27521D01*
X18441Y27511D01*
X18449Y27501D01*
X18449Y27501D01*
X18450Y27498D01*
X18453Y27495D01*
X18455Y27490D01*
X18458Y27484D01*
X18461Y27476D01*
X18465Y27467D01*
X18469Y27456D01*
X18473Y27444D01*
X18477Y27431D01*
X18480Y27416D01*
X18483Y27400D01*
X18485Y27382D01*
X18488Y27363D01*
X18489Y27342D01*
X18489Y27320D01*
Y27312D01*
X18489Y27309D01*
Y27301D01*
X18488Y27290D01*
X18487Y27279D01*
X18486Y27266D01*
X18484Y27253D01*
X18482Y27238D01*
X18479Y27223D01*
X18476Y27208D01*
X18472Y27193D01*
X18467Y27178D01*
X18462Y27165D01*
X18456Y27152D01*
X18449Y27140D01*
X18448Y27139D01*
X18447Y27137D01*
X18444Y27134D01*
X18441Y27130D01*
X18437Y27126D01*
X18431Y27121D01*
X18425Y27116D01*
X18418Y27110D01*
X18409Y27104D01*
X18400Y27099D01*
X18389Y27094D01*
X18377Y27089D01*
X18365Y27086D01*
X18351Y27083D01*
X18336Y27081D01*
X18320Y27080D01*
X18319D01*
X18316D01*
X18312Y27081D01*
X18306Y27081D01*
X18298Y27082D01*
X18290Y27083D01*
X18281Y27085D01*
X18271Y27088D01*
X18260Y27091D01*
X18250Y27095D01*
X18239Y27100D01*
X18228Y27105D01*
X18218Y27112D01*
X18209Y27121D01*
X18199Y27130D01*
X18191Y27140D01*
X18190Y27141D01*
X18189Y27143D01*
X18187Y27147D01*
X18184Y27152D01*
X18182Y27158D01*
X18178Y27165D01*
X18174Y27175D01*
X18170Y27186D01*
X18166Y27197D01*
X18163Y27211D01*
X18159Y27225D01*
X18157Y27242D01*
X18154Y27259D01*
X18152Y27278D01*
X18151Y27299D01*
X18150Y27320D01*
Y27332D01*
X18151Y27340D01*
X18151Y27350D01*
X18152Y27361D01*
X18153Y27374D01*
X18155Y27388D01*
X18157Y27402D01*
X18160Y27417D01*
X18163Y27432D01*
X18168Y27447D01*
X18172Y27462D01*
X18177Y27475D01*
X18184Y27489D01*
X18191Y27501D01*
X18192Y27501D01*
X18193Y27503D01*
X18195Y27506D01*
X18199Y27510D01*
X18203Y27515D01*
X18209Y27520D01*
X18215Y27525D01*
X18223Y27531D01*
X18231Y27537D01*
X18241Y27542D01*
X18251Y27547D01*
X18263Y27552D01*
X18275Y27556D01*
X18289Y27558D01*
X18304Y27561D01*
X18320Y27561D01*
X18321D01*
X18324D01*
X18328Y27561D01*
D02*
G37*
G36*
X18484Y26926D02*
X18156D01*
Y27027D01*
X18484D01*
Y26926D01*
D02*
G37*
G36*
X18241Y26827D02*
Y26709D01*
X18484D01*
Y26608D01*
X18241D01*
Y26454D01*
X18156Y26519D01*
Y26893D01*
X18241Y26827D01*
D02*
G37*
G36*
X18484Y26320D02*
X18156D01*
Y26421D01*
X18484D01*
Y26320D01*
D02*
G37*
G36*
X18326Y26266D02*
X18330D01*
X18339Y26265D01*
X18349Y26263D01*
X18360Y26260D01*
X18372Y26256D01*
X18384Y26251D01*
X18384D01*
X18385Y26251D01*
X18387Y26250D01*
X18389Y26249D01*
X18395Y26245D01*
X18402Y26241D01*
X18410Y26235D01*
X18419Y26228D01*
X18428Y26220D01*
X18437Y26210D01*
Y26210D01*
X18438Y26209D01*
X18439Y26208D01*
X18441Y26205D01*
X18444Y26200D01*
X18449Y26193D01*
X18455Y26184D01*
X18461Y26173D01*
X18467Y26161D01*
X18472Y26148D01*
Y26147D01*
X18472Y26146D01*
X18473Y26144D01*
X18474Y26141D01*
X18474Y26138D01*
X18476Y26134D01*
X18477Y26130D01*
X18478Y26124D01*
X18480Y26113D01*
X18482Y26099D01*
X18484Y26084D01*
X18484Y26068D01*
Y25848D01*
X18280D01*
Y25950D01*
X18400D01*
Y26072D01*
X18400Y26076D01*
Y26082D01*
X18399Y26088D01*
X18398Y26094D01*
X18395Y26108D01*
X18394Y26108D01*
X18394Y26111D01*
X18392Y26114D01*
X18390Y26118D01*
X18388Y26123D01*
X18385Y26128D01*
X18378Y26138D01*
X18378Y26139D01*
X18377Y26140D01*
X18375Y26143D01*
X18371Y26146D01*
X18368Y26149D01*
X18364Y26153D01*
X18359Y26156D01*
X18354Y26159D01*
X18353Y26159D01*
X18351Y26160D01*
X18348Y26161D01*
X18344Y26162D01*
X18340Y26164D01*
X18334Y26165D01*
X18328Y26166D01*
X18322Y26166D01*
X18321D01*
X18319D01*
X18315Y26166D01*
X18311Y26165D01*
X18306Y26165D01*
X18301Y26163D01*
X18295Y26161D01*
X18289Y26159D01*
X18289Y26158D01*
X18287Y26157D01*
X18284Y26156D01*
X18281Y26153D01*
X18277Y26150D01*
X18272Y26147D01*
X18268Y26143D01*
X18264Y26138D01*
X18264Y26137D01*
X18263Y26136D01*
X18260Y26133D01*
X18258Y26129D01*
X18255Y26125D01*
X18252Y26119D01*
X18249Y26113D01*
X18247Y26107D01*
X18247Y26106D01*
X18246Y26103D01*
X18245Y26100D01*
X18244Y26095D01*
X18243Y26090D01*
X18242Y26083D01*
X18241Y26076D01*
Y25848D01*
X18156Y25913D01*
Y26076D01*
X18156Y26080D01*
Y26084D01*
X18157Y26089D01*
X18157Y26095D01*
X18158Y26107D01*
X18160Y26120D01*
X18164Y26134D01*
X18168Y26148D01*
Y26149D01*
X18168Y26150D01*
X18169Y26152D01*
X18170Y26154D01*
X18171Y26157D01*
X18172Y26161D01*
X18176Y26170D01*
X18181Y26180D01*
X18187Y26190D01*
X18193Y26201D01*
X18201Y26211D01*
Y26211D01*
X18202Y26212D01*
X18205Y26215D01*
X18209Y26220D01*
X18215Y26226D01*
X18223Y26232D01*
X18231Y26239D01*
X18241Y26246D01*
X18252Y26252D01*
X18253D01*
X18253Y26252D01*
X18255Y26254D01*
X18257Y26254D01*
X18260Y26255D01*
X18263Y26257D01*
X18271Y26260D01*
X18281Y26262D01*
X18292Y26264D01*
X18304Y26266D01*
X18317Y26267D01*
X18318D01*
X18319D01*
X18320D01*
X18323D01*
X18326Y26266D01*
D02*
G37*
G36*
X18484Y25748D02*
Y25432D01*
X18156D01*
Y25813D01*
X18241Y25747D01*
Y25534D01*
X18281D01*
Y25794D01*
X18355Y25736D01*
Y25534D01*
X18400D01*
Y25814D01*
X18484Y25748D01*
D02*
G37*
G36*
Y25143D02*
Y24827D01*
X18156D01*
Y25208D01*
X18241Y25142D01*
Y24929D01*
X18281D01*
Y25189D01*
X18355Y25131D01*
Y24929D01*
X18400D01*
Y25209D01*
X18484Y25143D01*
D02*
G37*
G36*
X18328Y24775D02*
X18334Y24774D01*
X18342Y24774D01*
X18350Y24772D01*
X18359Y24771D01*
X18369Y24768D01*
X18379Y24765D01*
X18390Y24761D01*
X18401Y24756D01*
X18412Y24750D01*
X18422Y24743D01*
X18432Y24735D01*
X18441Y24726D01*
X18449Y24715D01*
X18449Y24715D01*
X18450Y24713D01*
X18453Y24709D01*
X18455Y24704D01*
X18458Y24698D01*
X18461Y24690D01*
X18465Y24681D01*
X18469Y24670D01*
X18473Y24658D01*
X18477Y24645D01*
X18480Y24630D01*
X18483Y24614D01*
X18485Y24596D01*
X18488Y24577D01*
X18489Y24557D01*
X18489Y24535D01*
Y24527D01*
X18489Y24523D01*
Y24515D01*
X18488Y24505D01*
X18487Y24493D01*
X18486Y24481D01*
X18484Y24467D01*
X18482Y24452D01*
X18479Y24438D01*
X18476Y24423D01*
X18472Y24407D01*
X18467Y24393D01*
X18462Y24379D01*
X18456Y24366D01*
X18449Y24354D01*
X18448Y24353D01*
X18447Y24351D01*
X18444Y24349D01*
X18441Y24345D01*
X18437Y24340D01*
X18431Y24335D01*
X18425Y24330D01*
X18418Y24324D01*
X18409Y24318D01*
X18400Y24314D01*
X18389Y24308D01*
X18377Y24304D01*
X18365Y24300D01*
X18351Y24297D01*
X18336Y24295D01*
X18320Y24294D01*
X18319D01*
X18316D01*
X18312Y24295D01*
X18306Y24296D01*
X18298Y24296D01*
X18290Y24298D01*
X18281Y24299D01*
X18271Y24302D01*
X18260Y24305D01*
X18250Y24309D01*
X18239Y24314D01*
X18228Y24320D01*
X18218Y24327D01*
X18209Y24335D01*
X18199Y24344D01*
X18191Y24355D01*
X18190Y24355D01*
X18189Y24357D01*
X18187Y24361D01*
X18184Y24366D01*
X18182Y24372D01*
X18178Y24380D01*
X18174Y24389D01*
X18170Y24400D01*
X18166Y24411D01*
X18163Y24425D01*
X18159Y24440D01*
X18157Y24456D01*
X18154Y24474D01*
X18152Y24493D01*
X18151Y24513D01*
X18150Y24535D01*
Y24546D01*
X18151Y24554D01*
X18151Y24564D01*
X18152Y24576D01*
X18153Y24589D01*
X18155Y24602D01*
X18157Y24617D01*
X18160Y24631D01*
X18163Y24647D01*
X18168Y24661D01*
X18172Y24676D01*
X18177Y24690D01*
X18184Y24703D01*
X18191Y24715D01*
X18192Y24715D01*
X18193Y24718D01*
X18195Y24720D01*
X18199Y24724D01*
X18203Y24729D01*
X18209Y24734D01*
X18215Y24739D01*
X18223Y24745D01*
X18231Y24751D01*
X18241Y24756D01*
X18251Y24761D01*
X18263Y24766D01*
X18275Y24770D01*
X18289Y24773D01*
X18304Y24775D01*
X18320Y24775D01*
X18321D01*
X18324D01*
X18328Y24775D01*
D02*
G37*
G36*
X18289Y24253D02*
X18296Y24252D01*
X18304Y24251D01*
X18312Y24249D01*
X18320Y24246D01*
X18329Y24243D01*
X18330Y24242D01*
X18333Y24240D01*
X18337Y24238D01*
X18342Y24234D01*
X18348Y24230D01*
X18355Y24225D01*
X18361Y24218D01*
X18367Y24211D01*
X18368Y24210D01*
X18370Y24207D01*
X18373Y24203D01*
X18376Y24197D01*
X18380Y24190D01*
X18384Y24181D01*
X18388Y24171D01*
X18392Y24160D01*
Y24160D01*
X18393Y24159D01*
Y24157D01*
X18393Y24155D01*
X18394Y24152D01*
X18395Y24149D01*
X18396Y24140D01*
X18398Y24130D01*
X18399Y24119D01*
X18400Y24106D01*
X18401Y24092D01*
Y23920D01*
X18484D01*
Y23818D01*
X18317D01*
Y24106D01*
X18316Y24110D01*
X18316Y24115D01*
X18314Y24121D01*
X18312Y24127D01*
X18310Y24133D01*
X18306Y24138D01*
X18306Y24139D01*
X18304Y24140D01*
X18302Y24143D01*
X18299Y24145D01*
X18295Y24147D01*
X18290Y24149D01*
X18284Y24151D01*
X18278Y24151D01*
X18278D01*
X18276D01*
X18272Y24151D01*
X18269Y24150D01*
X18264Y24148D01*
X18260Y24146D01*
X18255Y24143D01*
X18252Y24138D01*
X18251Y24138D01*
X18250Y24136D01*
X18248Y24133D01*
X18246Y24129D01*
X18245Y24124D01*
X18243Y24118D01*
X18242Y24110D01*
X18241Y24102D01*
Y23818D01*
X18156Y23886D01*
Y24102D01*
X18156Y24106D01*
X18157Y24115D01*
X18158Y24126D01*
X18159Y24137D01*
X18162Y24149D01*
X18165Y24161D01*
Y24161D01*
X18165Y24162D01*
X18166Y24163D01*
X18166Y24166D01*
X18169Y24171D01*
X18171Y24178D01*
X18175Y24186D01*
X18180Y24195D01*
X18184Y24203D01*
X18190Y24211D01*
X18191Y24212D01*
X18193Y24214D01*
X18197Y24218D01*
X18201Y24223D01*
X18207Y24228D01*
X18213Y24233D01*
X18221Y24238D01*
X18229Y24243D01*
X18230Y24243D01*
X18233Y24244D01*
X18238Y24246D01*
X18244Y24248D01*
X18251Y24250D01*
X18260Y24252D01*
X18269Y24253D01*
X18279Y24254D01*
X18280D01*
X18280D01*
X18282D01*
X18284D01*
X18289Y24253D01*
D02*
G37*
G36*
X19038Y28760D02*
X19043Y28759D01*
X19050Y28759D01*
X19057Y28757D01*
X19065Y28756D01*
X19073Y28753D01*
X19082Y28751D01*
X19092Y28747D01*
X19101Y28743D01*
X19110Y28738D01*
X19119Y28732D01*
X19128Y28725D01*
X19135Y28717D01*
X19142Y28708D01*
X19143Y28708D01*
X19144Y28706D01*
X19146Y28702D01*
X19148Y28698D01*
X19151Y28693D01*
X19153Y28686D01*
X19157Y28678D01*
X19160Y28669D01*
X19163Y28658D01*
X19167Y28647D01*
X19169Y28634D01*
X19172Y28620D01*
X19174Y28605D01*
X19176Y28588D01*
X19177Y28570D01*
X19177Y28551D01*
Y28544D01*
X19177Y28541D01*
Y28534D01*
X19177Y28525D01*
X19176Y28515D01*
X19175Y28505D01*
X19173Y28493D01*
X19171Y28480D01*
X19169Y28467D01*
X19166Y28454D01*
X19163Y28441D01*
X19159Y28428D01*
X19154Y28417D01*
X19149Y28405D01*
X19142Y28395D01*
X19142Y28394D01*
X19141Y28392D01*
X19139Y28390D01*
X19136Y28387D01*
X19132Y28383D01*
X19127Y28379D01*
X19122Y28374D01*
X19116Y28369D01*
X19108Y28364D01*
X19100Y28360D01*
X19090Y28355D01*
X19081Y28351D01*
X19070Y28348D01*
X19058Y28346D01*
X19045Y28344D01*
X19031Y28343D01*
X19030D01*
X19028D01*
X19024Y28344D01*
X19019Y28344D01*
X19012Y28345D01*
X19005Y28346D01*
X18997Y28348D01*
X18988Y28350D01*
X18979Y28353D01*
X18970Y28356D01*
X18961Y28360D01*
X18951Y28365D01*
X18943Y28371D01*
X18934Y28378D01*
X18926Y28386D01*
X18919Y28395D01*
X18919Y28396D01*
X18918Y28398D01*
X18916Y28401D01*
X18914Y28405D01*
X18911Y28410D01*
X18908Y28417D01*
X18905Y28425D01*
X18901Y28435D01*
X18898Y28445D01*
X18895Y28456D01*
X18892Y28469D01*
X18889Y28483D01*
X18887Y28498D01*
X18885Y28515D01*
X18884Y28533D01*
X18884Y28551D01*
Y28561D01*
X18884Y28568D01*
X18885Y28577D01*
X18886Y28587D01*
X18887Y28598D01*
X18888Y28610D01*
X18890Y28622D01*
X18892Y28635D01*
X18895Y28648D01*
X18899Y28661D01*
X18903Y28674D01*
X18907Y28686D01*
X18913Y28697D01*
X18919Y28708D01*
X18920Y28708D01*
X18921Y28710D01*
X18923Y28712D01*
X18926Y28716D01*
X18930Y28720D01*
X18934Y28724D01*
X18940Y28729D01*
X18947Y28734D01*
X18954Y28739D01*
X18962Y28743D01*
X18971Y28748D01*
X18981Y28752D01*
X18992Y28755D01*
X19004Y28758D01*
X19017Y28760D01*
X19031Y28760D01*
X19032D01*
X19034D01*
X19038Y28760D01*
D02*
G37*
G36*
X19173Y28266D02*
Y27991D01*
X18888D01*
Y28322D01*
X18963Y28264D01*
Y28080D01*
X18997D01*
Y28305D01*
X19062Y28255D01*
Y28080D01*
X19100D01*
Y28322D01*
X19173Y28266D01*
D02*
G37*
G36*
X19037Y27946D02*
X19040D01*
X19047Y27945D01*
X19056Y27944D01*
X19066Y27941D01*
X19076Y27938D01*
X19086Y27934D01*
X19087D01*
X19087Y27933D01*
X19089Y27932D01*
X19090Y27931D01*
X19096Y27928D01*
X19102Y27925D01*
X19109Y27919D01*
X19117Y27913D01*
X19125Y27906D01*
X19132Y27898D01*
Y27898D01*
X19133Y27897D01*
X19134Y27896D01*
X19135Y27894D01*
X19139Y27889D01*
X19143Y27883D01*
X19148Y27875D01*
X19153Y27866D01*
X19158Y27855D01*
X19162Y27844D01*
Y27843D01*
X19163Y27842D01*
X19163Y27840D01*
X19164Y27838D01*
X19165Y27835D01*
X19166Y27832D01*
X19167Y27828D01*
X19168Y27823D01*
X19170Y27814D01*
X19171Y27802D01*
X19173Y27789D01*
X19173Y27775D01*
Y27585D01*
X18996D01*
Y27673D01*
X19100D01*
Y27779D01*
X19100Y27782D01*
Y27787D01*
X19099Y27792D01*
X19098Y27797D01*
X19096Y27809D01*
X19095Y27810D01*
X19095Y27812D01*
X19093Y27815D01*
X19092Y27818D01*
X19090Y27823D01*
X19088Y27827D01*
X19081Y27836D01*
X19081Y27836D01*
X19080Y27838D01*
X19078Y27840D01*
X19075Y27842D01*
X19072Y27845D01*
X19069Y27848D01*
X19064Y27851D01*
X19060Y27853D01*
X19060Y27854D01*
X19058Y27854D01*
X19055Y27855D01*
X19052Y27857D01*
X19048Y27858D01*
X19043Y27859D01*
X19038Y27859D01*
X19032Y27860D01*
X19032D01*
X19030D01*
X19027Y27859D01*
X19023Y27859D01*
X19019Y27858D01*
X19014Y27857D01*
X19009Y27856D01*
X19004Y27853D01*
X19004Y27853D01*
X19002Y27852D01*
X19000Y27851D01*
X18997Y27849D01*
X18993Y27846D01*
X18990Y27843D01*
X18986Y27840D01*
X18983Y27835D01*
X18982Y27835D01*
X18981Y27833D01*
X18979Y27831D01*
X18977Y27828D01*
X18975Y27824D01*
X18972Y27819D01*
X18970Y27814D01*
X18968Y27808D01*
X18967Y27808D01*
X18967Y27806D01*
X18966Y27803D01*
X18965Y27798D01*
X18964Y27794D01*
X18964Y27788D01*
X18963Y27782D01*
Y27585D01*
X18888Y27641D01*
Y27782D01*
X18889Y27785D01*
Y27789D01*
X18889Y27793D01*
X18890Y27798D01*
X18891Y27809D01*
X18893Y27820D01*
X18896Y27832D01*
X18899Y27844D01*
Y27845D01*
X18899Y27846D01*
X18900Y27848D01*
X18901Y27849D01*
X18902Y27852D01*
X18903Y27856D01*
X18906Y27863D01*
X18911Y27872D01*
X18915Y27881D01*
X18921Y27890D01*
X18928Y27899D01*
Y27899D01*
X18929Y27900D01*
X18931Y27902D01*
X18935Y27907D01*
X18940Y27911D01*
X18947Y27917D01*
X18954Y27923D01*
X18963Y27929D01*
X18972Y27934D01*
X18973D01*
X18973Y27935D01*
X18975Y27936D01*
X18976Y27936D01*
X18979Y27937D01*
X18982Y27938D01*
X18989Y27941D01*
X18997Y27943D01*
X19007Y27945D01*
X19017Y27946D01*
X19028Y27947D01*
X19029D01*
X19030D01*
X19031D01*
X19034D01*
X19037Y27946D01*
D02*
G37*
G36*
X19173Y27442D02*
X18888D01*
Y27530D01*
X19173D01*
Y27442D01*
D02*
G37*
G36*
X19146Y27227D02*
X19147Y27227D01*
X19148Y27225D01*
X19151Y27223D01*
X19153Y27220D01*
X19157Y27217D01*
X19160Y27213D01*
X19164Y27209D01*
X19168Y27204D01*
X19168Y27203D01*
X19169Y27201D01*
X19171Y27199D01*
X19173Y27195D01*
X19175Y27190D01*
X19176Y27184D01*
X19177Y27177D01*
X19177Y27170D01*
Y27166D01*
X19177Y27163D01*
X19177Y27158D01*
X19176Y27153D01*
X19174Y27147D01*
X19172Y27141D01*
X19169Y27136D01*
X19168Y27136D01*
X19168Y27134D01*
X19165Y27131D01*
X19163Y27129D01*
X19160Y27125D01*
X19156Y27121D01*
X19151Y27118D01*
X19146Y27114D01*
X18888Y26935D01*
Y27043D01*
X19078Y27172D01*
X18888Y27306D01*
Y27409D01*
X19146Y27227D01*
D02*
G37*
G36*
X19144Y26912D02*
X19148Y26911D01*
X19153Y26910D01*
X19158Y26907D01*
X19163Y26903D01*
X19167Y26899D01*
X19168Y26898D01*
X19168Y26896D01*
X19170Y26894D01*
X19172Y26889D01*
X19174Y26885D01*
X19176Y26878D01*
X19177Y26872D01*
X19177Y26865D01*
Y26861D01*
X19177Y26858D01*
X19176Y26853D01*
X19175Y26848D01*
X19173Y26842D01*
X19170Y26836D01*
X19167Y26831D01*
X19167Y26830D01*
X19165Y26829D01*
X19163Y26826D01*
X19160Y26824D01*
X19155Y26821D01*
X19150Y26819D01*
X19144Y26817D01*
X19137Y26817D01*
X19136D01*
X19134D01*
X19130Y26818D01*
X19126Y26819D01*
X19121Y26820D01*
X19116Y26823D01*
X19111Y26826D01*
X19107Y26831D01*
X19106Y26831D01*
X19105Y26833D01*
X19103Y26836D01*
X19101Y26840D01*
X19099Y26845D01*
X19098Y26851D01*
X19096Y26858D01*
X19096Y26865D01*
Y26868D01*
X19096Y26872D01*
X19097Y26877D01*
X19098Y26882D01*
X19100Y26888D01*
X19103Y26894D01*
X19107Y26899D01*
X19107Y26899D01*
X19108Y26901D01*
X19111Y26903D01*
X19115Y26906D01*
X19119Y26909D01*
X19124Y26911D01*
X19130Y26912D01*
X19137Y26913D01*
X19138D01*
X19141D01*
X19144Y26912D01*
D02*
G37*
G36*
X19173Y26664D02*
X19098Y26578D01*
X19098Y26577D01*
X19095Y26574D01*
X19092Y26570D01*
X19088Y26565D01*
X19083Y26560D01*
X19078Y26554D01*
X19073Y26549D01*
X19069Y26544D01*
X19069Y26544D01*
X19067Y26542D01*
X19065Y26540D01*
X19063Y26537D01*
X19057Y26531D01*
X19051Y26525D01*
X19051D01*
X19053D01*
X19054D01*
X19057Y26526D01*
X19060D01*
X19063D01*
X19071D01*
X19072D01*
X19073D01*
X19075D01*
X19078Y26526D01*
X19081D01*
X19084D01*
X19092D01*
X19173D01*
Y26438D01*
X18888D01*
Y26526D01*
X18955D01*
X18955D01*
X18957D01*
X18959D01*
X18963D01*
X18967D01*
X18971D01*
X18981Y26526D01*
X18981D01*
X18983D01*
X18985D01*
X18988D01*
X18992D01*
X18996Y26525D01*
X19004Y26525D01*
X19004Y26525D01*
X19003Y26526D01*
X19002Y26528D01*
X18999Y26530D01*
X18996Y26533D01*
X18993Y26537D01*
X18985Y26545D01*
X18985Y26545D01*
X18984Y26547D01*
X18981Y26550D01*
X18978Y26553D01*
X18974Y26558D01*
X18969Y26564D01*
X18964Y26570D01*
X18958Y26577D01*
X18888Y26659D01*
Y26787D01*
X18970Y26678D01*
X18971Y26677D01*
X18972Y26676D01*
X18974Y26673D01*
X18977Y26669D01*
X18980Y26666D01*
X18983Y26661D01*
X18989Y26653D01*
X18990Y26652D01*
X18991Y26651D01*
X18992Y26649D01*
X18994Y26646D01*
X18999Y26640D01*
X19003Y26633D01*
X19004Y26633D01*
X19004Y26632D01*
X19005Y26631D01*
X19007Y26628D01*
X19010Y26623D01*
X19014Y26618D01*
Y26617D01*
X19015Y26617D01*
X19016Y26615D01*
X19017Y26614D01*
X19020Y26609D01*
X19023Y26604D01*
X19023Y26605D01*
X19024Y26606D01*
X19026Y26609D01*
X19028Y26613D01*
X19032Y26617D01*
X19036Y26622D01*
X19039Y26628D01*
X19044Y26634D01*
X19045Y26635D01*
X19046Y26637D01*
X19049Y26641D01*
X19053Y26646D01*
X19058Y26653D01*
X19064Y26660D01*
X19072Y26669D01*
X19080Y26679D01*
X19173Y26797D01*
Y26664D01*
D02*
G37*
G36*
Y26351D02*
Y26077D01*
X18888D01*
Y26407D01*
X18963Y26350D01*
Y26165D01*
X18997D01*
Y26391D01*
X19062Y26340D01*
Y26165D01*
X19100D01*
Y26408D01*
X19173Y26351D01*
D02*
G37*
G36*
Y25927D02*
X19098Y25864D01*
Y25729D01*
X19173D01*
Y25640D01*
X19028D01*
Y25891D01*
X19028Y25895D01*
X19027Y25900D01*
X19026Y25905D01*
X19024Y25911D01*
X19022Y25917D01*
X19020Y25922D01*
X19019Y25923D01*
X19018Y25925D01*
X19016Y25927D01*
X19013Y25930D01*
X19010Y25932D01*
X19006Y25934D01*
X19001Y25936D01*
X18996Y25937D01*
X18995D01*
X18993D01*
X18990Y25936D01*
X18986Y25935D01*
X18983Y25933D01*
X18978Y25931D01*
X18975Y25928D01*
X18971Y25924D01*
X18971Y25923D01*
X18970Y25922D01*
X18968Y25919D01*
X18967Y25914D01*
X18966Y25910D01*
X18964Y25904D01*
X18963Y25896D01*
X18963Y25888D01*
Y25640D01*
X18888Y25698D01*
Y25890D01*
X18889Y25896D01*
X18889Y25904D01*
X18890Y25912D01*
X18892Y25922D01*
X18893Y25931D01*
Y25932D01*
X18894Y25933D01*
X18894Y25935D01*
X18895Y25940D01*
X18897Y25947D01*
X18899Y25954D01*
X18902Y25962D01*
X18905Y25970D01*
X18909Y25978D01*
Y25979D01*
X18910Y25979D01*
X18911Y25982D01*
X18914Y25986D01*
X18917Y25991D01*
X18922Y25996D01*
X18927Y26002D01*
X18933Y26008D01*
X18941Y26013D01*
X18941Y26014D01*
X18944Y26016D01*
X18948Y26018D01*
X18954Y26020D01*
X18961Y26023D01*
X18970Y26025D01*
X18979Y26027D01*
X18990Y26027D01*
X18991D01*
X18993D01*
X18996Y26027D01*
X19001D01*
X19005Y26026D01*
X19011Y26025D01*
X19017Y26024D01*
X19022Y26022D01*
X19023D01*
X19025Y26021D01*
X19028Y26020D01*
X19031Y26019D01*
X19035Y26016D01*
X19040Y26014D01*
X19049Y26007D01*
X19049Y26007D01*
X19051Y26005D01*
X19053Y26003D01*
X19056Y26001D01*
X19059Y25997D01*
X19063Y25993D01*
X19066Y25989D01*
X19069Y25984D01*
X19070Y25984D01*
X19071Y25982D01*
X19072Y25979D01*
X19073Y25975D01*
X19075Y25970D01*
X19077Y25965D01*
X19079Y25959D01*
X19081Y25953D01*
X19081Y25953D01*
X19081Y25954D01*
X19083Y25956D01*
X19084Y25957D01*
X19089Y25963D01*
X19095Y25969D01*
X19095Y25969D01*
X19096Y25971D01*
X19098Y25973D01*
X19101Y25975D01*
X19104Y25979D01*
X19108Y25983D01*
X19113Y25988D01*
X19118Y25993D01*
X19173Y26045D01*
Y25927D01*
D02*
G37*
G36*
X18963Y25557D02*
Y25455D01*
X19173D01*
Y25367D01*
X18963D01*
Y25234D01*
X18888Y25291D01*
Y25614D01*
X18963Y25557D01*
D02*
G37*
G36*
X19173Y25117D02*
X18888D01*
Y25205D01*
X19173D01*
Y25117D01*
D02*
G37*
G36*
X19097Y25071D02*
X19101D01*
X19107Y25070D01*
X19112Y25069D01*
X19118Y25068D01*
X19124Y25066D01*
X19124D01*
X19126Y25065D01*
X19129Y25064D01*
X19133Y25062D01*
X19136Y25059D01*
X19141Y25056D01*
X19145Y25052D01*
X19150Y25047D01*
X19150Y25047D01*
X19151Y25045D01*
X19153Y25042D01*
X19156Y25038D01*
X19159Y25033D01*
X19161Y25027D01*
X19164Y25020D01*
X19167Y25012D01*
Y25011D01*
X19168Y25011D01*
Y25010D01*
X19168Y25008D01*
X19169Y25003D01*
X19170Y24997D01*
X19171Y24988D01*
X19172Y24979D01*
X19173Y24968D01*
X19173Y24956D01*
Y24705D01*
X19000D01*
Y24961D01*
X19000Y24963D01*
X18999Y24969D01*
X18996Y24975D01*
Y24975D01*
X18995Y24976D01*
X18994Y24977D01*
X18993Y24978D01*
X18991Y24980D01*
X18988Y24981D01*
X18985Y24982D01*
X18981Y24982D01*
X18981D01*
X18979D01*
X18977Y24982D01*
X18975Y24981D01*
X18973Y24980D01*
X18970Y24979D01*
X18968Y24977D01*
X18967Y24975D01*
Y24974D01*
X18966Y24973D01*
X18965Y24972D01*
X18965Y24970D01*
X18963Y24964D01*
X18963Y24958D01*
Y24705D01*
X18888Y24765D01*
Y24958D01*
X18889Y24963D01*
Y24969D01*
X18890Y24976D01*
X18891Y24984D01*
X18892Y24992D01*
X18894Y25000D01*
Y25001D01*
X18895Y25003D01*
X18896Y25007D01*
X18897Y25012D01*
X18899Y25018D01*
X18902Y25023D01*
X18905Y25029D01*
X18908Y25035D01*
X18909Y25036D01*
X18910Y25038D01*
X18912Y25040D01*
X18915Y25044D01*
X18919Y25047D01*
X18923Y25051D01*
X18928Y25055D01*
X18933Y25058D01*
X18933Y25058D01*
X18935Y25059D01*
X18939Y25060D01*
X18943Y25062D01*
X18948Y25064D01*
X18954Y25064D01*
X18960Y25065D01*
X18967Y25066D01*
X18968D01*
X18970D01*
X18972D01*
X18975Y25065D01*
X18983Y25064D01*
X18990Y25062D01*
X18991D01*
X18992Y25062D01*
X18993Y25061D01*
X18996Y25060D01*
X19002Y25057D01*
X19007Y25054D01*
X19008D01*
X19009Y25053D01*
X19011Y25050D01*
X19016Y25046D01*
X19020Y25041D01*
Y25041D01*
X19020Y25040D01*
X19021Y25038D01*
X19022Y25037D01*
X19025Y25032D01*
X19027Y25027D01*
X19028Y25028D01*
X19028Y25030D01*
X19030Y25034D01*
X19032Y25038D01*
X19035Y25043D01*
X19038Y25048D01*
X19043Y25053D01*
X19049Y25058D01*
X19050Y25059D01*
X19052Y25060D01*
X19055Y25063D01*
X19060Y25065D01*
X19066Y25067D01*
X19073Y25070D01*
X19081Y25071D01*
X19090Y25072D01*
X19091D01*
X19093D01*
X19097Y25071D01*
D02*
G37*
G36*
X19189Y24533D02*
Y24478D01*
X18873Y24627D01*
Y24678D01*
X19189Y24533D01*
D02*
G37*
G36*
Y24332D02*
Y24277D01*
X18873Y24426D01*
Y24477D01*
X19189Y24332D01*
D02*
G37*
G36*
X19144Y24244D02*
X19148Y24243D01*
X19153Y24241D01*
X19158Y24239D01*
X19163Y24236D01*
X19167Y24231D01*
X19168Y24231D01*
X19168Y24229D01*
X19170Y24226D01*
X19172Y24222D01*
X19174Y24217D01*
X19176Y24211D01*
X19177Y24204D01*
X19177Y24197D01*
Y24194D01*
X19177Y24190D01*
X19176Y24185D01*
X19175Y24180D01*
X19173Y24174D01*
X19170Y24168D01*
X19167Y24163D01*
X19167Y24162D01*
X19165Y24161D01*
X19163Y24159D01*
X19160Y24156D01*
X19155Y24153D01*
X19150Y24152D01*
X19144Y24150D01*
X19137Y24149D01*
X19136D01*
X19134D01*
X19130Y24150D01*
X19126Y24151D01*
X19121Y24153D01*
X19116Y24155D01*
X19111Y24158D01*
X19107Y24163D01*
X19106Y24163D01*
X19105Y24165D01*
X19103Y24168D01*
X19101Y24172D01*
X19099Y24177D01*
X19098Y24183D01*
X19096Y24190D01*
X19096Y24197D01*
Y24200D01*
X19096Y24204D01*
X19097Y24209D01*
X19098Y24214D01*
X19100Y24220D01*
X19103Y24226D01*
X19107Y24231D01*
X19107Y24232D01*
X19108Y24233D01*
X19111Y24235D01*
X19115Y24238D01*
X19119Y24241D01*
X19124Y24243D01*
X19130Y24244D01*
X19137Y24245D01*
X19138D01*
X19141D01*
X19144Y24244D01*
D02*
G37*
G36*
X19006D02*
X19011Y24243D01*
X19016Y24241D01*
X19021Y24239D01*
X19026Y24236D01*
X19030Y24231D01*
X19031Y24231D01*
X19032Y24229D01*
X19034Y24226D01*
X19036Y24222D01*
X19037Y24217D01*
X19039Y24211D01*
X19040Y24204D01*
X19041Y24197D01*
Y24194D01*
X19040Y24190D01*
X19039Y24185D01*
X19038Y24180D01*
X19037Y24174D01*
X19034Y24168D01*
X19030Y24163D01*
X19030Y24162D01*
X19028Y24161D01*
X19026Y24159D01*
X19022Y24156D01*
X19018Y24153D01*
X19012Y24152D01*
X19006Y24150D01*
X18999Y24149D01*
X18998D01*
X18996D01*
X18993Y24150D01*
X18988Y24151D01*
X18983Y24153D01*
X18978Y24155D01*
X18973Y24158D01*
X18969Y24163D01*
X18968Y24163D01*
X18967Y24165D01*
X18966Y24168D01*
X18963Y24172D01*
X18961Y24177D01*
X18960Y24183D01*
X18958Y24190D01*
X18958Y24197D01*
Y24200D01*
X18958Y24204D01*
X18959Y24209D01*
X18961Y24214D01*
X18963Y24220D01*
X18965Y24226D01*
X18969Y24231D01*
X18969Y24232D01*
X18971Y24233D01*
X18973Y24235D01*
X18977Y24238D01*
X18981Y24241D01*
X18986Y24243D01*
X18992Y24244D01*
X18999Y24245D01*
X19000D01*
X19002D01*
X19006Y24244D01*
D02*
G37*
G36*
X19088Y24107D02*
X19093Y24107D01*
X19099Y24106D01*
X19106Y24105D01*
X19113Y24103D01*
X19119Y24100D01*
X19120Y24100D01*
X19122Y24099D01*
X19125Y24098D01*
X19130Y24095D01*
X19134Y24092D01*
X19139Y24089D01*
X19144Y24084D01*
X19149Y24079D01*
X19149Y24078D01*
X19151Y24076D01*
X19153Y24073D01*
X19155Y24068D01*
X19158Y24063D01*
X19161Y24056D01*
X19164Y24049D01*
X19167Y24041D01*
Y24040D01*
X19168Y24040D01*
Y24039D01*
X19168Y24037D01*
X19169Y24032D01*
X19170Y24025D01*
X19171Y24017D01*
X19172Y24008D01*
X19173Y23997D01*
X19173Y23986D01*
Y23720D01*
X19100Y23777D01*
Y23995D01*
X19100Y23998D01*
Y24001D01*
X19098Y24009D01*
X19097Y24013D01*
X19096Y24015D01*
X19095Y24016D01*
X19095Y24016D01*
X19093Y24018D01*
X19092Y24019D01*
X19090Y24020D01*
X19087Y24021D01*
X19083Y24022D01*
X19080Y24022D01*
X19079D01*
X19078D01*
X19076Y24022D01*
X19073Y24021D01*
X19071Y24021D01*
X19068Y24020D01*
X19065Y24018D01*
X19063Y24015D01*
Y24015D01*
X19063Y24014D01*
X19062Y24012D01*
X19061Y24010D01*
X19060Y24006D01*
X19060Y24003D01*
X19059Y23998D01*
Y23833D01*
X19058Y23828D01*
X19058Y23821D01*
X19057Y23813D01*
X19056Y23806D01*
X19055Y23797D01*
X19053Y23790D01*
X19053Y23789D01*
X19052Y23786D01*
X19051Y23783D01*
X19049Y23778D01*
X19046Y23773D01*
X19044Y23767D01*
X19040Y23762D01*
X19037Y23757D01*
X19036Y23756D01*
X19035Y23754D01*
X19032Y23752D01*
X19029Y23749D01*
X19025Y23746D01*
X19021Y23743D01*
X19016Y23740D01*
X19011Y23737D01*
X19010Y23736D01*
X19008Y23736D01*
X19005Y23735D01*
X19001Y23734D01*
X18996Y23732D01*
X18990Y23732D01*
X18984Y23731D01*
X18977Y23731D01*
X18977D01*
X18976D01*
X18974D01*
X18970Y23731D01*
X18965Y23732D01*
X18959Y23732D01*
X18953Y23733D01*
X18947Y23735D01*
X18941Y23737D01*
X18940Y23738D01*
X18938Y23739D01*
X18935Y23740D01*
X18931Y23742D01*
X18927Y23746D01*
X18922Y23750D01*
X18917Y23754D01*
X18913Y23759D01*
X18913Y23760D01*
X18911Y23762D01*
X18909Y23765D01*
X18906Y23769D01*
X18904Y23775D01*
X18900Y23782D01*
X18897Y23789D01*
X18895Y23797D01*
Y23798D01*
X18895Y23798D01*
Y23800D01*
X18894Y23802D01*
X18893Y23806D01*
X18892Y23813D01*
X18890Y23821D01*
X18889Y23830D01*
X18889Y23841D01*
X18888Y23853D01*
Y24100D01*
X18963Y24043D01*
Y23841D01*
X18963Y23837D01*
X18965Y23829D01*
X18966Y23826D01*
X18967Y23823D01*
Y23822D01*
X18968Y23822D01*
X18969Y23820D01*
X18970Y23820D01*
X18973Y23818D01*
X18975Y23817D01*
X18978Y23816D01*
X18982Y23816D01*
X18983D01*
X18984D01*
X18986Y23816D01*
X18988Y23817D01*
X18991Y23818D01*
X18993Y23819D01*
X18996Y23820D01*
X18998Y23823D01*
Y23823D01*
X18999Y23824D01*
X19000Y23826D01*
X19000Y23829D01*
X19001Y23832D01*
X19002Y23836D01*
X19002Y23840D01*
Y24006D01*
X19003Y24009D01*
Y24014D01*
X19003Y24019D01*
X19004Y24024D01*
X19005Y24030D01*
X19007Y24043D01*
X19011Y24056D01*
X19015Y24069D01*
X19019Y24075D01*
X19022Y24080D01*
Y24081D01*
X19023Y24082D01*
X19024Y24083D01*
X19026Y24084D01*
X19030Y24089D01*
X19037Y24094D01*
X19045Y24099D01*
X19054Y24103D01*
X19060Y24105D01*
X19066Y24107D01*
X19073Y24107D01*
X19080Y24108D01*
X19081D01*
X19084D01*
X19088Y24107D01*
D02*
G37*
G36*
X19004Y23692D02*
X19010Y23691D01*
X19017Y23690D01*
X19024Y23689D01*
X19031Y23686D01*
X19039Y23683D01*
X19040Y23682D01*
X19042Y23681D01*
X19046Y23679D01*
X19050Y23676D01*
X19055Y23672D01*
X19061Y23667D01*
X19067Y23662D01*
X19072Y23655D01*
X19072Y23654D01*
X19074Y23652D01*
X19077Y23648D01*
X19080Y23643D01*
X19083Y23637D01*
X19087Y23629D01*
X19090Y23621D01*
X19093Y23611D01*
Y23611D01*
X19094Y23610D01*
Y23609D01*
X19094Y23607D01*
X19095Y23604D01*
X19096Y23601D01*
X19097Y23594D01*
X19098Y23585D01*
X19099Y23575D01*
X19100Y23565D01*
X19101Y23552D01*
Y23403D01*
X19173D01*
Y23315D01*
X19028D01*
Y23564D01*
X19028Y23568D01*
X19027Y23573D01*
X19026Y23577D01*
X19024Y23583D01*
X19022Y23588D01*
X19019Y23592D01*
X19019Y23593D01*
X19017Y23594D01*
X19015Y23596D01*
X19012Y23598D01*
X19009Y23600D01*
X19005Y23602D01*
X19000Y23603D01*
X18995Y23604D01*
X18994D01*
X18993D01*
X18990Y23603D01*
X18986Y23602D01*
X18983Y23601D01*
X18979Y23599D01*
X18975Y23596D01*
X18972Y23592D01*
X18971Y23592D01*
X18970Y23591D01*
X18969Y23588D01*
X18967Y23584D01*
X18966Y23580D01*
X18964Y23575D01*
X18963Y23568D01*
X18963Y23561D01*
Y23315D01*
X18888Y23374D01*
Y23561D01*
X18889Y23565D01*
X18889Y23573D01*
X18890Y23582D01*
X18892Y23592D01*
X18894Y23602D01*
X18897Y23612D01*
Y23612D01*
X18897Y23613D01*
X18897Y23614D01*
X18898Y23616D01*
X18900Y23621D01*
X18902Y23627D01*
X18906Y23634D01*
X18909Y23641D01*
X18914Y23648D01*
X18919Y23655D01*
X18919Y23656D01*
X18921Y23658D01*
X18924Y23662D01*
X18928Y23666D01*
X18933Y23670D01*
X18939Y23675D01*
X18945Y23679D01*
X18952Y23683D01*
X18953Y23683D01*
X18956Y23684D01*
X18960Y23686D01*
X18965Y23688D01*
X18971Y23689D01*
X18979Y23691D01*
X18987Y23692D01*
X18995Y23692D01*
X18996D01*
X18996D01*
X18998D01*
X19000D01*
X19004Y23692D01*
D02*
G37*
G36*
X18963Y23233D02*
Y23130D01*
X19173D01*
Y23042D01*
X18963D01*
Y22909D01*
X18888Y22966D01*
Y23289D01*
X18963Y23233D01*
D02*
G37*
G36*
Y22852D02*
Y22750D01*
X19173D01*
Y22662D01*
X18963D01*
Y22528D01*
X18888Y22585D01*
Y22909D01*
X18963Y22852D01*
D02*
G37*
G36*
X19173Y22413D02*
X19063D01*
Y22243D01*
X19173D01*
Y22155D01*
X18888D01*
Y22243D01*
X18990D01*
Y22413D01*
X18888D01*
Y22501D01*
X19173D01*
Y22413D01*
D02*
G37*
G36*
X18221Y31768D02*
X18224Y31767D01*
X18227Y31767D01*
X18231Y31766D01*
X18235Y31765D01*
X18243Y31763D01*
X18248Y31761D01*
X18252Y31759D01*
X18256Y31756D01*
X18261Y31753D01*
X18265Y31750D01*
X18268Y31746D01*
X18269Y31745D01*
X18269Y31745D01*
X18270Y31744D01*
X18271Y31742D01*
X18273Y31739D01*
X18274Y31736D01*
X18276Y31733D01*
X18278Y31729D01*
X18280Y31724D01*
X18282Y31719D01*
X18283Y31713D01*
X18284Y31707D01*
X18286Y31699D01*
X18287Y31692D01*
X18287Y31683D01*
X18287Y31674D01*
Y31501D01*
X18231Y31545D01*
Y31681D01*
X18231Y31684D01*
Y31686D01*
X18230Y31692D01*
X18229Y31695D01*
X18228Y31697D01*
X18227Y31697D01*
X18227Y31698D01*
X18226Y31699D01*
X18225Y31700D01*
X18223Y31701D01*
X18221Y31702D01*
X18218Y31703D01*
X18215Y31703D01*
X18215D01*
X18214D01*
X18212Y31703D01*
X18211Y31702D01*
X18208Y31701D01*
X18206Y31700D01*
X18204Y31699D01*
X18203Y31697D01*
Y31697D01*
X18202Y31696D01*
X18202Y31695D01*
X18201Y31693D01*
X18200Y31690D01*
X18200Y31687D01*
X18199Y31684D01*
Y31513D01*
X18068D01*
Y31760D01*
X18125Y31717D01*
Y31579D01*
X18156D01*
Y31690D01*
X18156Y31693D01*
Y31696D01*
X18157Y31700D01*
X18157Y31704D01*
X18158Y31709D01*
X18160Y31719D01*
X18162Y31729D01*
X18166Y31738D01*
X18168Y31743D01*
X18171Y31747D01*
Y31747D01*
X18172Y31748D01*
X18172Y31749D01*
X18174Y31750D01*
X18177Y31753D01*
X18182Y31757D01*
X18188Y31762D01*
X18196Y31765D01*
X18200Y31766D01*
X18205Y31767D01*
X18210Y31768D01*
X18216Y31768D01*
X18216D01*
X18217D01*
X18219D01*
X18221Y31768D01*
D02*
G37*
G36*
X18265Y31347D02*
X18268Y31347D01*
X18272Y31345D01*
X18276Y31343D01*
X18279Y31341D01*
X18283Y31337D01*
X18283Y31337D01*
X18284Y31335D01*
X18285Y31333D01*
X18287Y31330D01*
X18288Y31326D01*
X18290Y31321D01*
X18290Y31316D01*
X18291Y31311D01*
Y31308D01*
X18290Y31305D01*
X18290Y31302D01*
X18289Y31298D01*
X18287Y31293D01*
X18285Y31289D01*
X18283Y31285D01*
X18282Y31284D01*
X18281Y31283D01*
X18279Y31281D01*
X18277Y31280D01*
X18274Y31277D01*
X18270Y31276D01*
X18265Y31274D01*
X18260Y31274D01*
X18259D01*
X18257D01*
X18254Y31275D01*
X18251Y31276D01*
X18247Y31277D01*
X18243Y31278D01*
X18239Y31281D01*
X18236Y31285D01*
X18236Y31285D01*
X18235Y31286D01*
X18234Y31289D01*
X18232Y31292D01*
X18230Y31296D01*
X18229Y31300D01*
X18228Y31305D01*
X18228Y31311D01*
Y31313D01*
X18228Y31316D01*
X18229Y31320D01*
X18230Y31324D01*
X18231Y31329D01*
X18233Y31333D01*
X18236Y31337D01*
X18236Y31337D01*
X18238Y31339D01*
X18239Y31341D01*
X18242Y31343D01*
X18246Y31345D01*
X18250Y31346D01*
X18254Y31348D01*
X18260Y31348D01*
X18260D01*
X18262D01*
X18265Y31347D01*
D02*
G37*
G36*
X18261Y31198D02*
X18262Y31198D01*
X18264Y31198D01*
X18266Y31197D01*
X18270Y31195D01*
X18274Y31193D01*
X18277Y31190D01*
X18281Y31187D01*
X18284Y31183D01*
X18284Y31183D01*
X18285Y31182D01*
X18286Y31179D01*
X18287Y31177D01*
X18288Y31173D01*
X18290Y31170D01*
X18290Y31165D01*
X18291Y31161D01*
Y31158D01*
X18290Y31156D01*
X18290Y31153D01*
X18289Y31149D01*
X18288Y31146D01*
X18287Y31142D01*
X18285Y31138D01*
X18284Y31138D01*
X18284Y31137D01*
X18282Y31135D01*
X18280Y31133D01*
X18278Y31131D01*
X18275Y31128D01*
X18272Y31126D01*
X18268Y31123D01*
X18206Y31088D01*
X18205Y31088D01*
X18204Y31087D01*
X18202Y31086D01*
X18198Y31084D01*
X18195Y31082D01*
X18191Y31080D01*
X18184Y31076D01*
X18183Y31075D01*
X18182Y31075D01*
X18180Y31074D01*
X18178Y31073D01*
X18172Y31070D01*
X18166Y31066D01*
X18166Y31066D01*
X18165Y31066D01*
X18163Y31065D01*
X18161Y31064D01*
X18157Y31061D01*
X18152Y31059D01*
X18152D01*
X18151Y31058D01*
X18150Y31058D01*
X18148Y31057D01*
X18144Y31055D01*
X18140Y31053D01*
X18140D01*
X18141Y31052D01*
X18142Y31052D01*
X18144Y31051D01*
X18148Y31049D01*
X18152Y31047D01*
X18153D01*
X18153Y31047D01*
X18155Y31046D01*
X18156Y31045D01*
X18161Y31043D01*
X18166Y31040D01*
X18167D01*
X18168Y31039D01*
X18169Y31038D01*
X18171Y31037D01*
X18174Y31036D01*
X18177Y31034D01*
X18183Y31030D01*
X18184Y31030D01*
X18185Y31029D01*
X18187Y31028D01*
X18189Y31027D01*
X18193Y31025D01*
X18197Y31023D01*
X18201Y31021D01*
X18205Y31018D01*
X18268Y30983D01*
X18268Y30983D01*
X18270Y30982D01*
X18271Y30981D01*
X18274Y30979D01*
X18276Y30977D01*
X18279Y30974D01*
X18282Y30971D01*
X18284Y30968D01*
X18285Y30968D01*
X18286Y30967D01*
X18286Y30964D01*
X18287Y30962D01*
X18289Y30959D01*
X18290Y30955D01*
X18290Y30951D01*
X18291Y30946D01*
Y30944D01*
X18290Y30941D01*
X18290Y30938D01*
X18289Y30934D01*
X18288Y30930D01*
X18286Y30926D01*
X18284Y30922D01*
X18283Y30922D01*
X18282Y30921D01*
X18280Y30919D01*
X18278Y30917D01*
X18275Y30914D01*
X18271Y30912D01*
X18267Y30910D01*
X18261Y30908D01*
X18068Y30852D01*
Y30920D01*
X18145Y30940D01*
X18145D01*
X18145Y30941D01*
X18147D01*
X18148Y30941D01*
X18151Y30942D01*
X18156Y30944D01*
X18161Y30945D01*
X18166Y30946D01*
X18172Y30948D01*
X18177Y30949D01*
X18178D01*
X18180Y30950D01*
X18183Y30951D01*
X18186Y30951D01*
X18191Y30952D01*
X18195Y30953D01*
X18205Y30955D01*
X18205Y30956D01*
X18203Y30956D01*
X18201Y30957D01*
X18197Y30959D01*
X18194Y30960D01*
X18189Y30963D01*
X18185Y30965D01*
X18180Y30967D01*
X18179Y30968D01*
X18177Y30969D01*
X18174Y30970D01*
X18170Y30972D01*
X18165Y30975D01*
X18159Y30978D01*
X18152Y30982D01*
X18144Y30986D01*
X18089Y31015D01*
X18089Y31016D01*
X18088Y31016D01*
X18086Y31017D01*
X18085Y31018D01*
X18080Y31021D01*
X18076Y31024D01*
X18076Y31024D01*
X18076Y31024D01*
X18074Y31027D01*
X18071Y31029D01*
X18069Y31033D01*
Y31033D01*
X18069Y31033D01*
X18068Y31036D01*
X18066Y31039D01*
X18066Y31043D01*
Y31043D01*
X18065Y31044D01*
Y31045D01*
X18065Y31046D01*
X18065Y31050D01*
Y31058D01*
X18065Y31062D01*
X18066Y31066D01*
Y31066D01*
X18066Y31069D01*
X18068Y31072D01*
X18069Y31075D01*
Y31076D01*
X18069Y31076D01*
X18071Y31079D01*
X18073Y31082D01*
X18076Y31085D01*
X18077Y31085D01*
X18077Y31086D01*
X18078Y31086D01*
X18080Y31088D01*
X18081Y31089D01*
X18084Y31090D01*
X18086Y31092D01*
X18089Y31094D01*
X18145Y31123D01*
X18145Y31123D01*
X18147Y31124D01*
X18149Y31125D01*
X18152Y31126D01*
X18155Y31128D01*
X18158Y31130D01*
X18165Y31133D01*
X18165Y31134D01*
X18167Y31134D01*
X18168Y31135D01*
X18170Y31136D01*
X18175Y31139D01*
X18181Y31142D01*
X18181D01*
X18182Y31142D01*
X18183Y31143D01*
X18185Y31144D01*
X18189Y31146D01*
X18193Y31148D01*
X18194D01*
X18195Y31148D01*
X18196Y31149D01*
X18197Y31150D01*
X18201Y31151D01*
X18205Y31153D01*
X18204D01*
X18203Y31154D01*
X18200Y31154D01*
X18197Y31155D01*
X18193Y31156D01*
X18188Y31157D01*
X18183Y31158D01*
X18177Y31159D01*
X18177Y31160D01*
X18175Y31160D01*
X18172Y31161D01*
X18168Y31162D01*
X18163Y31163D01*
X18157Y31165D01*
X18151Y31167D01*
X18145Y31169D01*
X18068Y31189D01*
Y31255D01*
X18261Y31198D01*
D02*
G37*
G36*
X18287Y30759D02*
X18203D01*
Y30629D01*
X18287D01*
Y30561D01*
X18068D01*
Y30629D01*
X18146D01*
Y30759D01*
X18068D01*
Y30827D01*
X18287D01*
Y30759D01*
D02*
G37*
G36*
X17885Y30825D02*
X17889D01*
X17895Y30824D01*
X17902Y30822D01*
X17909Y30821D01*
X17915Y30819D01*
X17916Y30818D01*
X17918Y30818D01*
X17921Y30816D01*
X17925Y30814D01*
X17930Y30810D01*
X17935Y30807D01*
X17940Y30802D01*
X17945Y30797D01*
X17946Y30796D01*
X17947Y30794D01*
X17950Y30791D01*
X17952Y30786D01*
X17956Y30780D01*
X17959Y30773D01*
X17962Y30765D01*
X17965Y30756D01*
Y30755D01*
X17966Y30755D01*
Y30753D01*
X17966Y30751D01*
X17968Y30745D01*
X17969Y30738D01*
X17970Y30729D01*
X17971Y30718D01*
X17972Y30705D01*
X17972Y30691D01*
Y30402D01*
X17888Y30466D01*
Y30695D01*
X17888Y30697D01*
Y30701D01*
X17886Y30709D01*
X17885Y30712D01*
X17882Y30715D01*
X17882Y30716D01*
X17881Y30717D01*
X17880Y30718D01*
X17878Y30719D01*
X17873Y30722D01*
X17869Y30723D01*
X17865Y30723D01*
X17864D01*
X17863D01*
X17861Y30723D01*
X17859Y30722D01*
X17854Y30720D01*
X17851Y30718D01*
X17849Y30715D01*
X17849Y30715D01*
X17848Y30714D01*
X17847Y30712D01*
X17846Y30710D01*
X17845Y30707D01*
X17844Y30702D01*
X17843Y30697D01*
Y30495D01*
X17773Y30547D01*
Y30697D01*
X17772Y30700D01*
X17771Y30707D01*
X17768Y30713D01*
Y30714D01*
X17767Y30715D01*
X17766Y30716D01*
X17764Y30718D01*
X17762Y30719D01*
X17759Y30721D01*
X17755Y30721D01*
X17751Y30722D01*
X17750D01*
X17749D01*
X17746Y30721D01*
X17744Y30721D01*
X17741Y30720D01*
X17738Y30718D01*
X17736Y30716D01*
X17734Y30713D01*
Y30712D01*
X17733Y30711D01*
X17732Y30709D01*
X17732Y30707D01*
X17730Y30701D01*
X17729Y30693D01*
Y30418D01*
X17644Y30483D01*
Y30694D01*
X17644Y30699D01*
Y30707D01*
X17645Y30715D01*
X17646Y30724D01*
X17648Y30733D01*
X17650Y30742D01*
Y30743D01*
X17651Y30746D01*
X17652Y30751D01*
X17654Y30756D01*
X17656Y30763D01*
X17659Y30769D01*
X17663Y30777D01*
X17667Y30783D01*
X17667Y30784D01*
X17669Y30786D01*
X17671Y30789D01*
X17674Y30793D01*
X17679Y30797D01*
X17684Y30801D01*
X17689Y30805D01*
X17695Y30809D01*
X17696Y30809D01*
X17698Y30810D01*
X17702Y30812D01*
X17707Y30814D01*
X17712Y30815D01*
X17719Y30816D01*
X17727Y30818D01*
X17735Y30818D01*
X17735D01*
X17738D01*
X17740D01*
X17744Y30818D01*
X17752Y30816D01*
X17761Y30814D01*
X17762D01*
X17763Y30814D01*
X17765Y30813D01*
X17768Y30812D01*
X17774Y30808D01*
X17781Y30804D01*
X17781D01*
X17782Y30803D01*
X17786Y30800D01*
X17791Y30795D01*
X17795Y30790D01*
Y30789D01*
X17796Y30788D01*
X17797Y30786D01*
X17798Y30785D01*
X17801Y30779D01*
X17804Y30773D01*
X17804Y30774D01*
X17805Y30777D01*
X17807Y30781D01*
X17809Y30786D01*
X17812Y30792D01*
X17817Y30798D01*
X17822Y30804D01*
X17829Y30810D01*
X17830Y30810D01*
X17832Y30812D01*
X17836Y30815D01*
X17842Y30818D01*
X17849Y30820D01*
X17857Y30823D01*
X17867Y30825D01*
X17877Y30825D01*
X17878D01*
X17880D01*
X17885Y30825D01*
D02*
G37*
G36*
X17816Y30376D02*
X17822D01*
X17830Y30375D01*
X17838Y30374D01*
X17847Y30373D01*
X17857Y30370D01*
X17868Y30368D01*
X17879Y30364D01*
X17889Y30360D01*
X17900Y30355D01*
X17910Y30349D01*
X17920Y30342D01*
X17929Y30334D01*
X17937Y30324D01*
X17938Y30324D01*
X17939Y30322D01*
X17941Y30319D01*
X17944Y30315D01*
X17946Y30309D01*
X17950Y30303D01*
X17953Y30294D01*
X17957Y30285D01*
X17961Y30275D01*
X17965Y30263D01*
X17968Y30250D01*
X17971Y30236D01*
X17974Y30221D01*
X17976Y30204D01*
X17977Y30186D01*
X17977Y30167D01*
Y30163D01*
X17977Y30157D01*
Y30150D01*
X17976Y30141D01*
X17975Y30131D01*
X17974Y30120D01*
X17972Y30108D01*
X17970Y30095D01*
X17968Y30083D01*
X17964Y30070D01*
X17960Y30056D01*
X17956Y30043D01*
X17950Y30031D01*
X17944Y30020D01*
X17937Y30009D01*
X17936Y30009D01*
X17935Y30007D01*
X17933Y30005D01*
X17929Y30001D01*
X17925Y29997D01*
X17919Y29993D01*
X17913Y29988D01*
X17906Y29983D01*
X17897Y29978D01*
X17888Y29973D01*
X17877Y29969D01*
X17865Y29965D01*
X17853Y29962D01*
X17839Y29959D01*
X17824Y29958D01*
X17808Y29957D01*
X17807D01*
X17804D01*
X17800Y29958D01*
X17794Y29958D01*
X17786Y29959D01*
X17778Y29960D01*
X17769Y29961D01*
X17759Y29964D01*
X17749Y29966D01*
X17738Y29970D01*
X17727Y29974D01*
X17716Y29979D01*
X17707Y29985D01*
X17697Y29992D01*
X17687Y30000D01*
X17679Y30009D01*
X17679Y30010D01*
X17678Y30012D01*
X17675Y30015D01*
X17673Y30019D01*
X17670Y30025D01*
X17666Y30032D01*
X17662Y30040D01*
X17658Y30049D01*
X17655Y30060D01*
X17651Y30071D01*
X17648Y30084D01*
X17645Y30098D01*
X17642Y30114D01*
X17640Y30130D01*
X17639Y30148D01*
X17638Y30167D01*
Y30177D01*
X17639Y30184D01*
X17639Y30193D01*
X17640Y30203D01*
X17642Y30214D01*
X17643Y30226D01*
X17645Y30238D01*
X17648Y30251D01*
X17651Y30264D01*
X17656Y30278D01*
X17660Y30290D01*
X17666Y30302D01*
X17672Y30314D01*
X17679Y30324D01*
X17680Y30324D01*
X17681Y30326D01*
X17684Y30329D01*
X17687Y30332D01*
X17691Y30336D01*
X17697Y30341D01*
X17703Y30345D01*
X17711Y30351D01*
X17719Y30356D01*
X17729Y30360D01*
X17739Y30365D01*
X17751Y30369D01*
X17763Y30372D01*
X17778Y30375D01*
X17792Y30376D01*
X17808Y30377D01*
X17809D01*
X17812D01*
X17816Y30376D01*
D02*
G37*
G36*
X17972Y29829D02*
X17858Y29798D01*
X17858D01*
X17857Y29798D01*
X17856D01*
X17853Y29797D01*
X17849Y29795D01*
X17841Y29793D01*
X17834Y29791D01*
X17826Y29789D01*
X17817Y29787D01*
X17809Y29784D01*
X17808D01*
X17805Y29784D01*
X17802Y29783D01*
X17796Y29782D01*
X17790Y29780D01*
X17782Y29778D01*
X17768Y29775D01*
X17768Y29775D01*
X17771Y29774D01*
X17774Y29772D01*
X17779Y29770D01*
X17785Y29767D01*
X17791Y29764D01*
X17798Y29760D01*
X17806Y29757D01*
X17807Y29756D01*
X17810Y29755D01*
X17814Y29752D01*
X17820Y29750D01*
X17828Y29746D01*
X17837Y29741D01*
X17847Y29736D01*
X17859Y29730D01*
X17941Y29686D01*
X17942Y29685D01*
X17944Y29685D01*
X17946Y29683D01*
X17948Y29682D01*
X17954Y29677D01*
X17960Y29673D01*
X17961Y29672D01*
X17962Y29671D01*
X17964Y29668D01*
X17968Y29664D01*
X17971Y29659D01*
Y29658D01*
X17972Y29658D01*
X17974Y29655D01*
X17975Y29650D01*
X17976Y29644D01*
Y29643D01*
X17977Y29641D01*
Y29639D01*
X17977Y29634D01*
Y29622D01*
X17977Y29616D01*
X17976Y29610D01*
Y29609D01*
X17975Y29605D01*
X17974Y29600D01*
X17971Y29595D01*
Y29594D01*
X17971Y29594D01*
X17969Y29591D01*
X17965Y29586D01*
X17960Y29581D01*
X17960Y29581D01*
X17959Y29580D01*
X17958Y29579D01*
X17956Y29578D01*
X17953Y29575D01*
X17950Y29573D01*
X17941Y29569D01*
X17858Y29525D01*
X17858Y29524D01*
X17856Y29523D01*
X17852Y29521D01*
X17848Y29519D01*
X17844Y29516D01*
X17839Y29514D01*
X17828Y29508D01*
X17828Y29508D01*
X17826Y29507D01*
X17823Y29506D01*
X17821Y29504D01*
X17813Y29500D01*
X17805Y29496D01*
X17804D01*
X17803Y29495D01*
X17801Y29493D01*
X17798Y29492D01*
X17792Y29489D01*
X17785Y29486D01*
X17785D01*
X17784Y29485D01*
X17782Y29484D01*
X17780Y29484D01*
X17774Y29481D01*
X17768Y29478D01*
X17769D01*
X17771Y29478D01*
X17775Y29477D01*
X17780Y29475D01*
X17786Y29474D01*
X17793Y29473D01*
X17801Y29471D01*
X17809Y29469D01*
X17810D01*
X17812Y29468D01*
X17817Y29467D01*
X17823Y29465D01*
X17830Y29463D01*
X17839Y29461D01*
X17848Y29459D01*
X17858Y29456D01*
X17972Y29425D01*
Y29325D01*
X17684Y29410D01*
X17683Y29411D01*
X17680Y29412D01*
X17676Y29413D01*
X17671Y29416D01*
X17665Y29419D01*
X17660Y29423D01*
X17654Y29427D01*
X17650Y29433D01*
X17649Y29433D01*
X17648Y29436D01*
X17646Y29439D01*
X17644Y29443D01*
X17642Y29448D01*
X17640Y29454D01*
X17639Y29461D01*
X17638Y29468D01*
Y29471D01*
X17639Y29475D01*
X17639Y29479D01*
X17640Y29485D01*
X17643Y29490D01*
X17645Y29496D01*
X17648Y29501D01*
X17649Y29502D01*
X17650Y29503D01*
X17652Y29506D01*
X17655Y29509D01*
X17658Y29513D01*
X17663Y29516D01*
X17668Y29520D01*
X17673Y29524D01*
X17766Y29576D01*
X17767Y29576D01*
X17769Y29578D01*
X17773Y29580D01*
X17778Y29582D01*
X17783Y29585D01*
X17789Y29588D01*
X17800Y29595D01*
X17801Y29596D01*
X17803Y29597D01*
X17805Y29598D01*
X17809Y29600D01*
X17817Y29604D01*
X17826Y29609D01*
X17827Y29610D01*
X17828Y29610D01*
X17830Y29611D01*
X17833Y29613D01*
X17839Y29616D01*
X17846Y29620D01*
X17847D01*
X17848Y29621D01*
X17850Y29621D01*
X17852Y29623D01*
X17858Y29626D01*
X17864Y29629D01*
X17864D01*
X17863Y29629D01*
X17861Y29631D01*
X17859Y29632D01*
X17853Y29634D01*
X17847Y29638D01*
X17846D01*
X17845Y29639D01*
X17843Y29639D01*
X17841Y29641D01*
X17834Y29644D01*
X17826Y29649D01*
X17826Y29649D01*
X17824Y29650D01*
X17822Y29651D01*
X17818Y29652D01*
X17815Y29655D01*
X17810Y29657D01*
X17800Y29663D01*
X17800Y29663D01*
X17798Y29664D01*
X17795Y29666D01*
X17791Y29668D01*
X17786Y29671D01*
X17780Y29674D01*
X17774Y29678D01*
X17767Y29682D01*
X17673Y29734D01*
X17673Y29735D01*
X17671Y29736D01*
X17668Y29738D01*
X17665Y29740D01*
X17660Y29744D01*
X17656Y29747D01*
X17652Y29752D01*
X17648Y29757D01*
X17648Y29757D01*
X17646Y29759D01*
X17645Y29762D01*
X17643Y29766D01*
X17642Y29771D01*
X17640Y29776D01*
X17639Y29783D01*
X17638Y29790D01*
Y29793D01*
X17639Y29797D01*
X17640Y29802D01*
X17641Y29807D01*
X17643Y29813D01*
X17646Y29819D01*
X17650Y29825D01*
X17650Y29825D01*
X17652Y29828D01*
X17655Y29830D01*
X17658Y29834D01*
X17663Y29837D01*
X17669Y29841D01*
X17675Y29845D01*
X17684Y29847D01*
X17972Y29930D01*
Y29829D01*
D02*
G37*
G36*
X17941Y29103D02*
X17942Y29102D01*
X17944Y29100D01*
X17946Y29098D01*
X17950Y29095D01*
X17954Y29091D01*
X17958Y29087D01*
X17962Y29081D01*
X17966Y29076D01*
X17967Y29075D01*
X17968Y29073D01*
X17970Y29070D01*
X17972Y29065D01*
X17974Y29059D01*
X17976Y29053D01*
X17977Y29045D01*
X17977Y29036D01*
Y29033D01*
X17977Y29028D01*
X17976Y29023D01*
X17975Y29017D01*
X17973Y29010D01*
X17971Y29004D01*
X17968Y28998D01*
X17967Y28997D01*
X17966Y28995D01*
X17963Y28992D01*
X17960Y28989D01*
X17957Y28985D01*
X17952Y28980D01*
X17947Y28976D01*
X17941Y28972D01*
X17644Y28766D01*
Y28891D01*
X17862Y29039D01*
X17644Y29193D01*
Y29313D01*
X17941Y29103D01*
D02*
G37*
G36*
X17972Y28430D02*
X17886Y28357D01*
Y28201D01*
X17972D01*
Y28099D01*
X17805D01*
Y28389D01*
X17804Y28393D01*
X17804Y28399D01*
X17803Y28405D01*
X17800Y28412D01*
X17798Y28418D01*
X17795Y28425D01*
X17794Y28426D01*
X17793Y28428D01*
X17791Y28430D01*
X17788Y28433D01*
X17784Y28436D01*
X17779Y28439D01*
X17774Y28441D01*
X17768Y28441D01*
X17767D01*
X17764D01*
X17761Y28441D01*
X17757Y28440D01*
X17752Y28438D01*
X17747Y28435D01*
X17743Y28432D01*
X17739Y28427D01*
X17739Y28426D01*
X17738Y28424D01*
X17736Y28421D01*
X17734Y28416D01*
X17733Y28410D01*
X17731Y28403D01*
X17730Y28394D01*
X17729Y28385D01*
Y28099D01*
X17644Y28166D01*
Y28387D01*
X17644Y28394D01*
X17645Y28403D01*
X17646Y28413D01*
X17648Y28424D01*
X17649Y28435D01*
Y28436D01*
X17650Y28438D01*
X17650Y28440D01*
X17651Y28446D01*
X17654Y28453D01*
X17656Y28462D01*
X17659Y28470D01*
X17663Y28480D01*
X17668Y28489D01*
Y28490D01*
X17668Y28490D01*
X17670Y28494D01*
X17673Y28498D01*
X17677Y28504D01*
X17683Y28510D01*
X17689Y28517D01*
X17696Y28524D01*
X17704Y28530D01*
X17705Y28530D01*
X17708Y28533D01*
X17713Y28535D01*
X17719Y28538D01*
X17728Y28541D01*
X17738Y28543D01*
X17749Y28546D01*
X17761Y28546D01*
X17762D01*
X17764D01*
X17768Y28546D01*
X17773D01*
X17779Y28545D01*
X17785Y28543D01*
X17792Y28542D01*
X17798Y28540D01*
X17799D01*
X17801Y28539D01*
X17804Y28537D01*
X17809Y28536D01*
X17813Y28533D01*
X17818Y28530D01*
X17829Y28523D01*
X17829Y28522D01*
X17831Y28521D01*
X17834Y28518D01*
X17837Y28515D01*
X17840Y28511D01*
X17845Y28507D01*
X17849Y28501D01*
X17852Y28496D01*
X17853Y28495D01*
X17854Y28493D01*
X17856Y28490D01*
X17857Y28486D01*
X17859Y28480D01*
X17862Y28474D01*
X17864Y28467D01*
X17865Y28460D01*
X17866Y28460D01*
X17867Y28462D01*
X17868Y28463D01*
X17870Y28465D01*
X17875Y28471D01*
X17882Y28478D01*
X17882Y28479D01*
X17883Y28481D01*
X17886Y28483D01*
X17889Y28486D01*
X17893Y28490D01*
X17897Y28495D01*
X17903Y28500D01*
X17909Y28506D01*
X17972Y28566D01*
Y28430D01*
D02*
G37*
G36*
X17941Y27854D02*
X17942Y27853D01*
X17944Y27852D01*
X17946Y27849D01*
X17950Y27846D01*
X17954Y27842D01*
X17958Y27838D01*
X17962Y27833D01*
X17966Y27827D01*
X17967Y27827D01*
X17968Y27824D01*
X17970Y27821D01*
X17972Y27817D01*
X17974Y27811D01*
X17976Y27804D01*
X17977Y27797D01*
X17977Y27788D01*
Y27784D01*
X17977Y27780D01*
X17976Y27774D01*
X17975Y27768D01*
X17973Y27762D01*
X17971Y27755D01*
X17968Y27749D01*
X17967Y27748D01*
X17966Y27746D01*
X17963Y27744D01*
X17960Y27740D01*
X17957Y27736D01*
X17952Y27732D01*
X17947Y27728D01*
X17941Y27723D01*
X17644Y27517D01*
Y27642D01*
X17862Y27790D01*
X17644Y27944D01*
Y28064D01*
X17941Y27854D01*
D02*
G37*
G36*
X17815Y27491D02*
X17818D01*
X17827Y27490D01*
X17837Y27487D01*
X17849Y27485D01*
X17860Y27481D01*
X17872Y27476D01*
X17873D01*
X17873Y27475D01*
X17875Y27474D01*
X17877Y27473D01*
X17883Y27470D01*
X17890Y27466D01*
X17898Y27460D01*
X17907Y27453D01*
X17916Y27444D01*
X17925Y27435D01*
Y27435D01*
X17926Y27434D01*
X17927Y27432D01*
X17929Y27430D01*
X17933Y27425D01*
X17938Y27418D01*
X17944Y27408D01*
X17949Y27397D01*
X17955Y27385D01*
X17960Y27372D01*
Y27372D01*
X17960Y27371D01*
X17961Y27368D01*
X17962Y27366D01*
X17963Y27362D01*
X17964Y27359D01*
X17965Y27354D01*
X17966Y27349D01*
X17969Y27337D01*
X17970Y27324D01*
X17972Y27309D01*
X17972Y27293D01*
Y27073D01*
X17768D01*
Y27175D01*
X17888D01*
Y27297D01*
X17888Y27301D01*
Y27306D01*
X17887Y27312D01*
X17886Y27319D01*
X17883Y27332D01*
X17882Y27333D01*
X17882Y27336D01*
X17880Y27339D01*
X17879Y27343D01*
X17876Y27348D01*
X17874Y27353D01*
X17867Y27363D01*
X17866Y27364D01*
X17865Y27365D01*
X17863Y27367D01*
X17859Y27371D01*
X17856Y27374D01*
X17852Y27377D01*
X17847Y27380D01*
X17842Y27383D01*
X17841Y27384D01*
X17839Y27384D01*
X17836Y27385D01*
X17832Y27387D01*
X17828Y27389D01*
X17822Y27390D01*
X17816Y27390D01*
X17810Y27391D01*
X17809D01*
X17807D01*
X17803Y27390D01*
X17799Y27390D01*
X17794Y27389D01*
X17789Y27388D01*
X17783Y27386D01*
X17778Y27383D01*
X17777Y27383D01*
X17775Y27382D01*
X17772Y27380D01*
X17769Y27378D01*
X17765Y27375D01*
X17761Y27372D01*
X17756Y27367D01*
X17752Y27362D01*
X17752Y27362D01*
X17751Y27360D01*
X17749Y27358D01*
X17746Y27354D01*
X17744Y27349D01*
X17740Y27344D01*
X17738Y27338D01*
X17735Y27331D01*
X17735Y27331D01*
X17734Y27328D01*
X17733Y27325D01*
X17732Y27320D01*
X17731Y27314D01*
X17731Y27308D01*
X17729Y27301D01*
Y27073D01*
X17644Y27138D01*
Y27301D01*
X17644Y27305D01*
Y27309D01*
X17645Y27314D01*
X17645Y27319D01*
X17646Y27332D01*
X17649Y27345D01*
X17652Y27359D01*
X17656Y27373D01*
Y27373D01*
X17656Y27374D01*
X17657Y27377D01*
X17658Y27379D01*
X17659Y27382D01*
X17661Y27386D01*
X17665Y27395D01*
X17669Y27404D01*
X17675Y27415D01*
X17681Y27425D01*
X17689Y27436D01*
Y27436D01*
X17690Y27437D01*
X17693Y27440D01*
X17697Y27445D01*
X17703Y27450D01*
X17711Y27457D01*
X17720Y27464D01*
X17729Y27471D01*
X17740Y27477D01*
X17741D01*
X17741Y27477D01*
X17743Y27478D01*
X17745Y27479D01*
X17748Y27480D01*
X17751Y27481D01*
X17759Y27484D01*
X17769Y27486D01*
X17780Y27489D01*
X17792Y27491D01*
X17805Y27491D01*
X17806D01*
X17807D01*
X17809D01*
X17811D01*
X17815Y27491D01*
D02*
G37*
G36*
X17972Y26935D02*
X17858Y26904D01*
X17858D01*
X17857Y26903D01*
X17856D01*
X17853Y26903D01*
X17849Y26901D01*
X17841Y26899D01*
X17834Y26897D01*
X17826Y26895D01*
X17817Y26892D01*
X17809Y26890D01*
X17808D01*
X17805Y26890D01*
X17802Y26889D01*
X17796Y26887D01*
X17790Y26886D01*
X17782Y26884D01*
X17768Y26881D01*
X17768Y26880D01*
X17771Y26879D01*
X17774Y26878D01*
X17779Y26875D01*
X17785Y26873D01*
X17791Y26869D01*
X17798Y26866D01*
X17806Y26862D01*
X17807Y26862D01*
X17810Y26861D01*
X17814Y26858D01*
X17820Y26855D01*
X17828Y26851D01*
X17837Y26846D01*
X17847Y26842D01*
X17859Y26836D01*
X17941Y26791D01*
X17942Y26791D01*
X17944Y26790D01*
X17946Y26789D01*
X17948Y26788D01*
X17954Y26783D01*
X17960Y26778D01*
X17961Y26778D01*
X17962Y26777D01*
X17964Y26774D01*
X17968Y26769D01*
X17971Y26765D01*
Y26764D01*
X17972Y26763D01*
X17974Y26760D01*
X17975Y26756D01*
X17976Y26750D01*
Y26749D01*
X17977Y26747D01*
Y26745D01*
X17977Y26739D01*
Y26727D01*
X17977Y26721D01*
X17976Y26715D01*
Y26714D01*
X17975Y26711D01*
X17974Y26706D01*
X17971Y26701D01*
Y26700D01*
X17971Y26700D01*
X17969Y26696D01*
X17965Y26692D01*
X17960Y26687D01*
X17960Y26686D01*
X17959Y26686D01*
X17958Y26685D01*
X17956Y26683D01*
X17953Y26681D01*
X17950Y26679D01*
X17941Y26674D01*
X17858Y26630D01*
X17858Y26630D01*
X17856Y26629D01*
X17852Y26627D01*
X17848Y26625D01*
X17844Y26622D01*
X17839Y26619D01*
X17828Y26614D01*
X17828Y26613D01*
X17826Y26613D01*
X17823Y26612D01*
X17821Y26610D01*
X17813Y26606D01*
X17805Y26601D01*
X17804D01*
X17803Y26600D01*
X17801Y26599D01*
X17798Y26598D01*
X17792Y26595D01*
X17785Y26591D01*
X17785D01*
X17784Y26591D01*
X17782Y26590D01*
X17780Y26589D01*
X17774Y26587D01*
X17768Y26584D01*
X17769D01*
X17771Y26583D01*
X17775Y26582D01*
X17780Y26581D01*
X17786Y26580D01*
X17793Y26578D01*
X17801Y26577D01*
X17809Y26575D01*
X17810D01*
X17812Y26573D01*
X17817Y26572D01*
X17823Y26571D01*
X17830Y26569D01*
X17839Y26567D01*
X17848Y26564D01*
X17858Y26561D01*
X17972Y26531D01*
Y26431D01*
X17684Y26516D01*
X17683Y26517D01*
X17680Y26517D01*
X17676Y26519D01*
X17671Y26522D01*
X17665Y26524D01*
X17660Y26528D01*
X17654Y26533D01*
X17650Y26539D01*
X17649Y26539D01*
X17648Y26541D01*
X17646Y26545D01*
X17644Y26549D01*
X17642Y26554D01*
X17640Y26560D01*
X17639Y26566D01*
X17638Y26573D01*
Y26577D01*
X17639Y26581D01*
X17639Y26585D01*
X17640Y26590D01*
X17643Y26596D01*
X17645Y26601D01*
X17648Y26607D01*
X17649Y26607D01*
X17650Y26609D01*
X17652Y26612D01*
X17655Y26615D01*
X17658Y26618D01*
X17663Y26622D01*
X17668Y26626D01*
X17673Y26629D01*
X17766Y26682D01*
X17767Y26682D01*
X17769Y26683D01*
X17773Y26685D01*
X17778Y26688D01*
X17783Y26691D01*
X17789Y26694D01*
X17800Y26701D01*
X17801Y26701D01*
X17803Y26702D01*
X17805Y26703D01*
X17809Y26706D01*
X17817Y26710D01*
X17826Y26715D01*
X17827Y26715D01*
X17828Y26716D01*
X17830Y26717D01*
X17833Y26719D01*
X17839Y26722D01*
X17846Y26725D01*
X17847D01*
X17848Y26726D01*
X17850Y26727D01*
X17852Y26729D01*
X17858Y26731D01*
X17864Y26735D01*
X17864D01*
X17863Y26735D01*
X17861Y26736D01*
X17859Y26737D01*
X17853Y26740D01*
X17847Y26743D01*
X17846D01*
X17845Y26744D01*
X17843Y26745D01*
X17841Y26747D01*
X17834Y26750D01*
X17826Y26754D01*
X17826Y26755D01*
X17824Y26755D01*
X17822Y26756D01*
X17818Y26758D01*
X17815Y26760D01*
X17810Y26763D01*
X17800Y26768D01*
X17800Y26769D01*
X17798Y26770D01*
X17795Y26772D01*
X17791Y26774D01*
X17786Y26777D01*
X17780Y26780D01*
X17774Y26784D01*
X17767Y26788D01*
X17673Y26840D01*
X17673Y26840D01*
X17671Y26842D01*
X17668Y26843D01*
X17665Y26846D01*
X17660Y26849D01*
X17656Y26853D01*
X17652Y26857D01*
X17648Y26862D01*
X17648Y26863D01*
X17646Y26865D01*
X17645Y26868D01*
X17643Y26872D01*
X17642Y26876D01*
X17640Y26882D01*
X17639Y26889D01*
X17638Y26896D01*
Y26899D01*
X17639Y26903D01*
X17640Y26908D01*
X17641Y26913D01*
X17643Y26919D01*
X17646Y26925D01*
X17650Y26931D01*
X17650Y26931D01*
X17652Y26933D01*
X17655Y26936D01*
X17658Y26939D01*
X17663Y26943D01*
X17669Y26946D01*
X17675Y26950D01*
X17684Y26953D01*
X17972Y27036D01*
Y26935D01*
D02*
G37*
G36*
Y26079D02*
X17886Y25979D01*
X17885Y25978D01*
X17882Y25975D01*
X17879Y25971D01*
X17874Y25965D01*
X17868Y25959D01*
X17863Y25953D01*
X17857Y25946D01*
X17852Y25941D01*
X17852Y25940D01*
X17850Y25938D01*
X17848Y25936D01*
X17845Y25933D01*
X17838Y25926D01*
X17831Y25919D01*
X17832D01*
X17833D01*
X17835D01*
X17838Y25919D01*
X17842D01*
X17846D01*
X17854D01*
X17855D01*
X17857D01*
X17859D01*
X17862Y25920D01*
X17865D01*
X17870D01*
X17879D01*
X17972D01*
Y25818D01*
X17644D01*
Y25920D01*
X17720D01*
X17721D01*
X17723D01*
X17726D01*
X17729D01*
X17734D01*
X17739D01*
X17750Y25919D01*
X17751D01*
X17753D01*
X17756D01*
X17759D01*
X17763D01*
X17768Y25919D01*
X17778Y25918D01*
X17777Y25919D01*
X17776Y25920D01*
X17774Y25922D01*
X17772Y25925D01*
X17768Y25928D01*
X17764Y25932D01*
X17756Y25942D01*
X17755Y25942D01*
X17753Y25944D01*
X17751Y25947D01*
X17747Y25952D01*
X17742Y25957D01*
X17737Y25964D01*
X17731Y25971D01*
X17724Y25979D01*
X17644Y26073D01*
Y26221D01*
X17738Y26095D01*
X17739Y26095D01*
X17740Y26092D01*
X17743Y26089D01*
X17746Y26085D01*
X17749Y26081D01*
X17753Y26076D01*
X17760Y26066D01*
X17761Y26066D01*
X17762Y26064D01*
X17763Y26062D01*
X17766Y26059D01*
X17771Y26051D01*
X17776Y26044D01*
X17777Y26043D01*
X17778Y26042D01*
X17779Y26041D01*
X17780Y26038D01*
X17784Y26032D01*
X17788Y26026D01*
Y26025D01*
X17790Y26025D01*
X17791Y26023D01*
X17792Y26021D01*
X17795Y26016D01*
X17799Y26010D01*
X17799Y26011D01*
X17800Y26013D01*
X17803Y26015D01*
X17805Y26020D01*
X17809Y26025D01*
X17814Y26031D01*
X17818Y26037D01*
X17823Y26044D01*
X17824Y26045D01*
X17826Y26048D01*
X17829Y26053D01*
X17834Y26059D01*
X17840Y26066D01*
X17847Y26075D01*
X17855Y26085D01*
X17864Y26097D01*
X17972Y26233D01*
Y26079D01*
D02*
G37*
G36*
Y25718D02*
Y25401D01*
X17644D01*
Y25782D01*
X17729Y25716D01*
Y25503D01*
X17769D01*
Y25764D01*
X17844Y25705D01*
Y25503D01*
X17888D01*
Y25783D01*
X17972Y25718D01*
D02*
G37*
G36*
Y25229D02*
X17886Y25156D01*
Y24999D01*
X17972D01*
Y24897D01*
X17805D01*
Y25187D01*
X17804Y25192D01*
X17804Y25197D01*
X17803Y25204D01*
X17800Y25210D01*
X17798Y25217D01*
X17795Y25223D01*
X17794Y25224D01*
X17793Y25226D01*
X17791Y25229D01*
X17788Y25231D01*
X17784Y25235D01*
X17779Y25237D01*
X17774Y25239D01*
X17768Y25240D01*
X17767D01*
X17764D01*
X17761Y25239D01*
X17757Y25238D01*
X17752Y25236D01*
X17747Y25234D01*
X17743Y25230D01*
X17739Y25225D01*
X17739Y25224D01*
X17738Y25222D01*
X17736Y25219D01*
X17734Y25214D01*
X17733Y25208D01*
X17731Y25201D01*
X17730Y25193D01*
X17729Y25183D01*
Y24897D01*
X17644Y24964D01*
Y25186D01*
X17644Y25193D01*
X17645Y25201D01*
X17646Y25211D01*
X17648Y25222D01*
X17649Y25233D01*
Y25234D01*
X17650Y25236D01*
X17650Y25238D01*
X17651Y25244D01*
X17654Y25251D01*
X17656Y25260D01*
X17659Y25269D01*
X17663Y25278D01*
X17668Y25288D01*
Y25288D01*
X17668Y25289D01*
X17670Y25292D01*
X17673Y25296D01*
X17677Y25302D01*
X17683Y25308D01*
X17689Y25315D01*
X17696Y25322D01*
X17704Y25328D01*
X17705Y25329D01*
X17708Y25331D01*
X17713Y25333D01*
X17719Y25336D01*
X17728Y25340D01*
X17738Y25342D01*
X17749Y25344D01*
X17761Y25344D01*
X17762D01*
X17764D01*
X17768Y25344D01*
X17773D01*
X17779Y25343D01*
X17785Y25342D01*
X17792Y25341D01*
X17798Y25338D01*
X17799D01*
X17801Y25337D01*
X17804Y25336D01*
X17809Y25334D01*
X17813Y25331D01*
X17818Y25329D01*
X17829Y25321D01*
X17829Y25320D01*
X17831Y25319D01*
X17834Y25317D01*
X17837Y25313D01*
X17840Y25309D01*
X17845Y25305D01*
X17849Y25300D01*
X17852Y25294D01*
X17853Y25294D01*
X17854Y25291D01*
X17856Y25288D01*
X17857Y25284D01*
X17859Y25278D01*
X17862Y25272D01*
X17864Y25265D01*
X17865Y25258D01*
X17866Y25259D01*
X17867Y25260D01*
X17868Y25261D01*
X17870Y25264D01*
X17875Y25270D01*
X17882Y25277D01*
X17882Y25277D01*
X17883Y25279D01*
X17886Y25281D01*
X17889Y25284D01*
X17893Y25288D01*
X17897Y25293D01*
X17903Y25299D01*
X17909Y25305D01*
X17972Y25365D01*
Y25229D01*
D02*
G37*
G36*
X17729Y24802D02*
Y24684D01*
X17972D01*
Y24582D01*
X17729D01*
Y24428D01*
X17644Y24494D01*
Y24867D01*
X17729Y24802D01*
D02*
G37*
G36*
X17972Y24294D02*
X17644D01*
Y24395D01*
X17972D01*
Y24294D01*
D02*
G37*
G36*
X17885Y24240D02*
X17889D01*
X17895Y24239D01*
X17902Y24238D01*
X17909Y24237D01*
X17915Y24234D01*
X17916D01*
X17918Y24233D01*
X17921Y24232D01*
X17925Y24229D01*
X17930Y24227D01*
X17935Y24223D01*
X17940Y24219D01*
X17945Y24213D01*
X17946Y24213D01*
X17947Y24210D01*
X17950Y24207D01*
X17952Y24202D01*
X17956Y24196D01*
X17959Y24190D01*
X17962Y24181D01*
X17965Y24172D01*
Y24172D01*
X17966Y24171D01*
Y24169D01*
X17966Y24168D01*
X17968Y24162D01*
X17969Y24155D01*
X17970Y24145D01*
X17971Y24134D01*
X17972Y24121D01*
X17972Y24107D01*
Y23818D01*
X17773D01*
Y24113D01*
X17772Y24116D01*
X17771Y24122D01*
X17768Y24129D01*
Y24130D01*
X17767Y24131D01*
X17766Y24132D01*
X17764Y24133D01*
X17762Y24135D01*
X17759Y24137D01*
X17755Y24137D01*
X17751Y24138D01*
X17750D01*
X17749D01*
X17746Y24137D01*
X17744Y24137D01*
X17741Y24136D01*
X17738Y24134D01*
X17736Y24132D01*
X17734Y24129D01*
Y24128D01*
X17733Y24127D01*
X17732Y24126D01*
X17732Y24124D01*
X17730Y24117D01*
X17729Y24109D01*
Y23818D01*
X17644Y23887D01*
Y24110D01*
X17644Y24115D01*
Y24122D01*
X17645Y24131D01*
X17646Y24140D01*
X17648Y24149D01*
X17650Y24158D01*
Y24159D01*
X17651Y24162D01*
X17652Y24167D01*
X17654Y24172D01*
X17656Y24179D01*
X17659Y24185D01*
X17663Y24192D01*
X17667Y24199D01*
X17667Y24199D01*
X17669Y24202D01*
X17671Y24205D01*
X17674Y24209D01*
X17679Y24213D01*
X17684Y24217D01*
X17689Y24221D01*
X17695Y24225D01*
X17696Y24226D01*
X17698Y24227D01*
X17702Y24228D01*
X17707Y24230D01*
X17712Y24232D01*
X17719Y24233D01*
X17727Y24234D01*
X17735Y24234D01*
X17735D01*
X17738D01*
X17740D01*
X17744Y24234D01*
X17752Y24233D01*
X17761Y24230D01*
X17762D01*
X17763Y24229D01*
X17765Y24228D01*
X17768Y24227D01*
X17774Y24224D01*
X17781Y24220D01*
X17781D01*
X17782Y24219D01*
X17786Y24216D01*
X17791Y24211D01*
X17795Y24206D01*
Y24205D01*
X17796Y24204D01*
X17797Y24203D01*
X17798Y24201D01*
X17801Y24196D01*
X17804Y24190D01*
X17804Y24191D01*
X17805Y24193D01*
X17807Y24197D01*
X17809Y24202D01*
X17812Y24208D01*
X17817Y24214D01*
X17822Y24220D01*
X17829Y24226D01*
X17830Y24226D01*
X17832Y24228D01*
X17836Y24231D01*
X17842Y24233D01*
X17849Y24236D01*
X17857Y24239D01*
X17867Y24240D01*
X17877Y24241D01*
X17878D01*
X17880D01*
X17885Y24240D01*
D02*
G37*
%LPC*%
G36*
X18320Y27460D02*
X18319D01*
X18319D01*
X18316D01*
X18311Y27459D01*
X18305Y27459D01*
X18298Y27458D01*
X18290Y27456D01*
X18283Y27455D01*
X18277Y27452D01*
X18276Y27451D01*
X18274Y27451D01*
X18271Y27449D01*
X18267Y27447D01*
X18264Y27443D01*
X18259Y27439D01*
X18255Y27434D01*
X18252Y27429D01*
X18251Y27428D01*
X18250Y27426D01*
X18248Y27422D01*
X18247Y27417D01*
X18245Y27411D01*
X18242Y27403D01*
X18241Y27395D01*
X18239Y27385D01*
Y27384D01*
X18239Y27383D01*
Y27380D01*
X18238Y27375D01*
X18237Y27367D01*
X18237Y27358D01*
X18236Y27347D01*
X18236Y27335D01*
Y27307D01*
X18236Y27298D01*
Y27288D01*
X18237Y27277D01*
X18238Y27266D01*
X18239Y27255D01*
Y27254D01*
X18240Y27251D01*
X18241Y27246D01*
X18242Y27240D01*
X18243Y27234D01*
X18246Y27226D01*
X18248Y27219D01*
X18252Y27213D01*
X18252Y27212D01*
X18253Y27210D01*
X18255Y27207D01*
X18258Y27204D01*
X18261Y27200D01*
X18266Y27196D01*
X18271Y27192D01*
X18277Y27189D01*
X18277Y27188D01*
X18280Y27188D01*
X18283Y27187D01*
X18288Y27186D01*
X18294Y27184D01*
X18302Y27183D01*
X18311Y27182D01*
X18320Y27182D01*
X18320D01*
X18321D01*
X18324D01*
X18329Y27182D01*
X18335Y27183D01*
X18342Y27183D01*
X18349Y27185D01*
X18356Y27187D01*
X18363Y27189D01*
X18364Y27189D01*
X18366Y27190D01*
X18369Y27192D01*
X18372Y27195D01*
X18377Y27198D01*
X18381Y27202D01*
X18385Y27207D01*
X18389Y27213D01*
X18389Y27213D01*
X18390Y27216D01*
X18392Y27219D01*
X18394Y27224D01*
X18396Y27230D01*
X18398Y27238D01*
X18400Y27246D01*
X18401Y27255D01*
Y27257D01*
X18402Y27258D01*
Y27260D01*
X18402Y27266D01*
X18403Y27273D01*
X18403Y27283D01*
X18404Y27294D01*
X18405Y27307D01*
Y27334D01*
X18404Y27343D01*
Y27353D01*
X18403Y27364D01*
X18402Y27375D01*
X18401Y27385D01*
Y27386D01*
X18401Y27390D01*
X18400Y27395D01*
X18399Y27401D01*
X18397Y27408D01*
X18395Y27415D01*
X18392Y27422D01*
X18389Y27429D01*
X18388Y27429D01*
X18387Y27431D01*
X18385Y27434D01*
X18382Y27438D01*
X18378Y27442D01*
X18374Y27445D01*
X18369Y27449D01*
X18363Y27452D01*
X18362Y27453D01*
X18360Y27453D01*
X18356Y27454D01*
X18352Y27456D01*
X18345Y27457D01*
X18338Y27459D01*
X18329Y27459D01*
X18320Y27460D01*
D02*
G37*
G36*
Y24674D02*
X18319D01*
X18319D01*
X18316D01*
X18311Y24673D01*
X18305Y24673D01*
X18298Y24672D01*
X18290Y24671D01*
X18283Y24669D01*
X18277Y24666D01*
X18276Y24666D01*
X18274Y24665D01*
X18271Y24663D01*
X18267Y24661D01*
X18264Y24658D01*
X18259Y24653D01*
X18255Y24648D01*
X18252Y24643D01*
X18251Y24642D01*
X18250Y24640D01*
X18248Y24636D01*
X18247Y24631D01*
X18245Y24625D01*
X18242Y24618D01*
X18241Y24609D01*
X18239Y24600D01*
Y24599D01*
X18239Y24597D01*
Y24595D01*
X18238Y24589D01*
X18237Y24582D01*
X18237Y24572D01*
X18236Y24561D01*
X18236Y24549D01*
Y24521D01*
X18236Y24512D01*
Y24502D01*
X18237Y24491D01*
X18238Y24480D01*
X18239Y24470D01*
Y24469D01*
X18240Y24465D01*
X18241Y24460D01*
X18242Y24454D01*
X18243Y24448D01*
X18246Y24441D01*
X18248Y24434D01*
X18252Y24427D01*
X18252Y24427D01*
X18253Y24424D01*
X18255Y24422D01*
X18258Y24418D01*
X18261Y24414D01*
X18266Y24410D01*
X18271Y24406D01*
X18277Y24403D01*
X18277Y24403D01*
X18280Y24402D01*
X18283Y24401D01*
X18288Y24400D01*
X18294Y24398D01*
X18302Y24397D01*
X18311Y24397D01*
X18320Y24396D01*
X18320D01*
X18321D01*
X18324D01*
X18329Y24397D01*
X18335Y24397D01*
X18342Y24398D01*
X18349Y24399D01*
X18356Y24401D01*
X18363Y24403D01*
X18364Y24404D01*
X18366Y24405D01*
X18369Y24406D01*
X18372Y24409D01*
X18377Y24412D01*
X18381Y24417D01*
X18385Y24422D01*
X18389Y24427D01*
X18389Y24428D01*
X18390Y24430D01*
X18392Y24434D01*
X18394Y24439D01*
X18396Y24445D01*
X18398Y24452D01*
X18400Y24460D01*
X18401Y24470D01*
Y24471D01*
X18402Y24472D01*
Y24475D01*
X18402Y24480D01*
X18403Y24488D01*
X18403Y24498D01*
X18404Y24508D01*
X18405Y24521D01*
Y24548D01*
X18404Y24558D01*
Y24567D01*
X18403Y24578D01*
X18402Y24589D01*
X18401Y24600D01*
Y24601D01*
X18401Y24604D01*
X18400Y24609D01*
X18399Y24615D01*
X18397Y24622D01*
X18395Y24629D01*
X18392Y24636D01*
X18389Y24643D01*
X18388Y24643D01*
X18387Y24646D01*
X18385Y24648D01*
X18382Y24652D01*
X18378Y24656D01*
X18374Y24660D01*
X18369Y24663D01*
X18363Y24666D01*
X18362Y24667D01*
X18360Y24667D01*
X18356Y24668D01*
X18352Y24670D01*
X18345Y24672D01*
X18338Y24673D01*
X18329Y24673D01*
X18320Y24674D01*
D02*
G37*
G36*
X19031Y28672D02*
X19030D01*
X19030D01*
X19027D01*
X19023Y28672D01*
X19018Y28671D01*
X19011Y28671D01*
X19005Y28669D01*
X18999Y28668D01*
X18993Y28665D01*
X18993Y28665D01*
X18991Y28664D01*
X18989Y28663D01*
X18985Y28661D01*
X18982Y28658D01*
X18978Y28654D01*
X18975Y28650D01*
X18972Y28645D01*
X18971Y28645D01*
X18970Y28643D01*
X18969Y28639D01*
X18967Y28635D01*
X18966Y28630D01*
X18964Y28623D01*
X18962Y28616D01*
X18961Y28608D01*
Y28607D01*
X18960Y28605D01*
Y28603D01*
X18960Y28599D01*
X18959Y28592D01*
X18959Y28584D01*
X18958Y28575D01*
X18958Y28564D01*
Y28540D01*
X18958Y28532D01*
Y28523D01*
X18959Y28514D01*
X18960Y28504D01*
X18961Y28495D01*
Y28494D01*
X18961Y28491D01*
X18962Y28487D01*
X18963Y28482D01*
X18965Y28476D01*
X18967Y28470D01*
X18969Y28464D01*
X18972Y28458D01*
X18972Y28458D01*
X18973Y28456D01*
X18975Y28454D01*
X18977Y28450D01*
X18980Y28447D01*
X18984Y28444D01*
X18988Y28440D01*
X18993Y28437D01*
X18994Y28437D01*
X18996Y28436D01*
X18999Y28436D01*
X19003Y28435D01*
X19009Y28433D01*
X19015Y28432D01*
X19023Y28432D01*
X19031Y28431D01*
X19031D01*
X19032D01*
X19035D01*
X19039Y28432D01*
X19044Y28432D01*
X19050Y28433D01*
X19056Y28434D01*
X19063Y28436D01*
X19068Y28437D01*
X19069Y28438D01*
X19071Y28439D01*
X19073Y28440D01*
X19076Y28443D01*
X19080Y28445D01*
X19083Y28449D01*
X19087Y28454D01*
X19090Y28458D01*
X19091Y28459D01*
X19092Y28461D01*
X19093Y28464D01*
X19095Y28468D01*
X19097Y28473D01*
X19098Y28480D01*
X19100Y28487D01*
X19101Y28495D01*
Y28496D01*
X19102Y28498D01*
Y28499D01*
X19102Y28504D01*
X19103Y28511D01*
X19103Y28519D01*
X19104Y28529D01*
X19104Y28540D01*
Y28563D01*
X19104Y28571D01*
Y28580D01*
X19103Y28589D01*
X19102Y28599D01*
X19101Y28608D01*
Y28609D01*
X19101Y28611D01*
X19100Y28616D01*
X19099Y28621D01*
X19098Y28627D01*
X19096Y28633D01*
X19093Y28639D01*
X19090Y28645D01*
X19090Y28646D01*
X19089Y28647D01*
X19087Y28650D01*
X19085Y28653D01*
X19081Y28656D01*
X19078Y28660D01*
X19073Y28663D01*
X19068Y28665D01*
X19068Y28666D01*
X19066Y28666D01*
X19063Y28667D01*
X19058Y28669D01*
X19053Y28670D01*
X19046Y28671D01*
X19039Y28672D01*
X19031Y28672D01*
D02*
G37*
G36*
X19080Y24984D02*
X19080D01*
X19079D01*
X19077Y24983D01*
X19075Y24983D01*
X19071Y24981D01*
X19068Y24979D01*
X19066Y24977D01*
X19066Y24976D01*
X19065Y24976D01*
X19064Y24974D01*
X19063Y24972D01*
X19063Y24969D01*
X19062Y24966D01*
X19061Y24961D01*
Y24794D01*
X19100D01*
Y24959D01*
X19100Y24961D01*
Y24964D01*
X19098Y24971D01*
X19097Y24974D01*
X19095Y24977D01*
X19095Y24977D01*
X19094Y24978D01*
X19093Y24979D01*
X19091Y24980D01*
X19087Y24983D01*
X19083Y24983D01*
X19080Y24984D01*
D02*
G37*
G36*
X17817Y30276D02*
X17808D01*
X17808D01*
X17807D01*
X17804D01*
X17799Y30276D01*
X17793D01*
X17786Y30275D01*
X17779Y30274D01*
X17772Y30273D01*
X17765Y30270D01*
X17764D01*
X17762Y30269D01*
X17759Y30268D01*
X17756Y30266D01*
X17752Y30263D01*
X17747Y30260D01*
X17744Y30256D01*
X17740Y30252D01*
X17739Y30251D01*
X17738Y30250D01*
X17737Y30247D01*
X17735Y30243D01*
X17733Y30238D01*
X17731Y30232D01*
X17729Y30226D01*
X17727Y30218D01*
Y30217D01*
X17727Y30214D01*
X17726Y30210D01*
X17726Y30204D01*
X17725Y30197D01*
X17725Y30188D01*
X17724Y30178D01*
Y30156D01*
X17725Y30149D01*
Y30141D01*
X17725Y30132D01*
X17726Y30124D01*
X17727Y30115D01*
Y30114D01*
X17728Y30112D01*
X17729Y30108D01*
X17730Y30103D01*
X17732Y30098D01*
X17734Y30092D01*
X17737Y30087D01*
X17740Y30082D01*
X17740Y30082D01*
X17741Y30080D01*
X17744Y30078D01*
X17746Y30075D01*
X17750Y30072D01*
X17754Y30069D01*
X17759Y30066D01*
X17765Y30064D01*
X17766D01*
X17768Y30062D01*
X17772Y30062D01*
X17776Y30061D01*
X17782Y30060D01*
X17790Y30059D01*
X17799Y30058D01*
X17808Y30057D01*
X17809D01*
X17809D01*
X17812D01*
X17817Y30058D01*
X17823D01*
X17830Y30059D01*
X17838Y30060D01*
X17845Y30061D01*
X17851Y30064D01*
X17852Y30064D01*
X17854Y30065D01*
X17857Y30066D01*
X17861Y30068D01*
X17865Y30071D01*
X17869Y30074D01*
X17873Y30078D01*
X17877Y30082D01*
X17877Y30083D01*
X17879Y30084D01*
X17880Y30087D01*
X17882Y30091D01*
X17884Y30096D01*
X17886Y30101D01*
X17888Y30108D01*
X17889Y30115D01*
Y30116D01*
X17890Y30119D01*
X17891Y30124D01*
X17891Y30130D01*
X17892Y30137D01*
X17892Y30146D01*
X17893Y30156D01*
Y30178D01*
X17892Y30185D01*
Y30193D01*
X17891Y30201D01*
X17891Y30210D01*
X17889Y30218D01*
Y30219D01*
X17889Y30221D01*
X17888Y30226D01*
X17887Y30230D01*
X17885Y30235D01*
X17883Y30241D01*
X17880Y30247D01*
X17877Y30252D01*
X17876Y30252D01*
X17875Y30254D01*
X17873Y30256D01*
X17870Y30259D01*
X17867Y30262D01*
X17862Y30266D01*
X17857Y30268D01*
X17851Y30270D01*
X17851Y30271D01*
X17849Y30272D01*
X17845Y30273D01*
X17840Y30274D01*
X17833Y30275D01*
X17826Y30275D01*
X17817Y30276D01*
D02*
G37*
G36*
X17865Y24139D02*
X17864D01*
X17863D01*
X17861Y24139D01*
X17859Y24138D01*
X17854Y24136D01*
X17851Y24134D01*
X17849Y24132D01*
X17849Y24131D01*
X17848Y24131D01*
X17847Y24128D01*
X17846Y24126D01*
X17845Y24123D01*
X17844Y24119D01*
X17843Y24114D01*
Y23920D01*
X17888D01*
Y24110D01*
X17888Y24114D01*
Y24117D01*
X17886Y24125D01*
X17885Y24128D01*
X17882Y24132D01*
X17882Y24132D01*
X17881Y24133D01*
X17880Y24134D01*
X17878Y24136D01*
X17873Y24138D01*
X17869Y24139D01*
X17865Y24139D01*
D02*
G37*
%LPD*%
D10*
X15402Y28449D02*
G03*
X14892Y28448I-255J-609D01*
G01*
Y27241D02*
G03*
X15402Y27241I256J608D01*
G01*
X15049Y30387D02*
G03*
X14539Y30387I-256J-608D01*
G01*
Y29179D02*
G03*
X15049Y29180I255J609D01*
G01*
X13986Y31287D02*
G03*
X14497Y31286I256J608D01*
G01*
Y32494D02*
G03*
X13986Y32494I-255J-609D01*
G01*
X18878Y19958D02*
G03*
X19389Y19957I256J608D01*
G01*
Y21165D02*
G03*
X18878Y21165I-255J-609D01*
G01*
X17517Y18287D02*
G03*
X17517Y17777I608J-256D01*
G01*
X18724D02*
G03*
X18724Y18287I-609J255D01*
G01*
X12697Y18300D02*
G03*
X12186Y18300I-256J-608D01*
G01*
Y17093D02*
G03*
X12697Y17093I255J609D01*
G01*
X19426Y18829D02*
G03*
X19426Y18318I608J-256D01*
G01*
X20634D02*
G03*
X20633Y18829I-609J255D01*
G01*
X20338Y12511D02*
G03*
X20338Y13022I-609J255D01*
G01*
X19131D02*
G03*
X19131Y12511I608J-256D01*
G01*
X15769Y7693D02*
G03*
X16279Y7693I255J609D01*
G01*
Y8900D02*
G03*
X15769Y8901I-256J-608D01*
G01*
X17178Y6378D02*
G03*
X17178Y6889I-608J256D01*
G01*
X15971D02*
G03*
X15971Y6378I609J-255D01*
G01*
X17844Y6863D02*
G03*
X17334Y6863I-256J-608D01*
G01*
Y5656D02*
G03*
X17844Y5656I255J609D01*
G01*
X41739Y30118D02*
G03*
X41739Y29608I608J-256D01*
G01*
X42947D02*
G03*
X42946Y30118I-609J255D01*
G01*
X41739Y31289D02*
G03*
X41739Y30779I608J-256D01*
G01*
X42947D02*
G03*
X42946Y31289I-609J255D01*
G01*
X41739Y32470D02*
G03*
X41739Y31960I608J-256D01*
G01*
X42947D02*
G03*
X42946Y32470I-609J255D01*
G01*
X41739Y33651D02*
G03*
X41739Y33141I608J-256D01*
G01*
X42947D02*
G03*
X42946Y33651I-609J255D01*
G01*
X30076Y31437D02*
G03*
X30076Y30926I608J-256D01*
G01*
X31283D02*
G03*
X31283Y31437I-609J255D01*
G01*
X30076Y30256D02*
G03*
X30076Y29745I608J-256D01*
G01*
X31283D02*
G03*
X31283Y30256I-609J255D01*
G01*
X30076Y32628D02*
G03*
X30076Y32117I608J-256D01*
G01*
X31283D02*
G03*
X31283Y32628I-609J255D01*
G01*
X30076Y33789D02*
G03*
X30076Y33279I608J-256D01*
G01*
X31283D02*
G03*
X31283Y33789I-609J255D01*
G01*
X35377Y9853D02*
G03*
X35377Y10363I-608J256D01*
G01*
X34169D02*
G03*
X34170Y9853I609J-255D01*
G01*
X44215Y12244D02*
G03*
X44216Y12755I-608J256D01*
G01*
X43008D02*
G03*
X43008Y12244I609J-255D01*
G01*
X14763Y34561D02*
G03*
X14252Y34560I-255J-609D01*
G01*
Y33354D02*
G03*
X14763Y33353I256J608D01*
G01*
X34160Y11544D02*
G03*
X34160Y11034I609J-255D01*
G01*
X35367D02*
G03*
X35367Y11544I-608J256D01*
G01*
X34169Y10954D02*
G03*
X34170Y10443I609J-255D01*
G01*
X35377D02*
G03*
X35377Y10954I-608J256D01*
G01*
X29629Y26014D02*
G03*
X29629Y26524I-608J256D01*
G01*
X28421D02*
G03*
X28422Y26014I609J-255D01*
G01*
X27394Y24656D02*
G03*
X27395Y25166I-608J256D01*
G01*
X26187D02*
G03*
X26188Y24656I609J-255D01*
G01*
X26433Y22922D02*
G03*
X26434Y22412I609J-255D01*
G01*
X27640D02*
G03*
X27641Y22922I-608J256D01*
G01*
X23475Y16917D02*
G03*
X23985Y16916I256J608D01*
G01*
Y18124D02*
G03*
X23475Y18123I-255J-609D01*
G01*
X24810Y23957D02*
G03*
X24810Y23446I608J-256D01*
G01*
X26018D02*
G03*
X26017Y23957I-609J255D01*
G01*
X17382Y20923D02*
G03*
X17892Y20922I256J608D01*
G01*
Y22130D02*
G03*
X17382Y22129I-255J-609D01*
G01*
X16762Y20923D02*
G03*
X17272Y20922I256J608D01*
G01*
Y22130D02*
G03*
X16762Y22129I-255J-609D01*
G01*
X54597Y18560D02*
G03*
X55107Y18560I256J608D01*
G01*
Y19768D02*
G03*
X54597Y19767I-255J-609D01*
G01*
X38776Y22794D02*
G03*
X38776Y22284I609J-255D01*
G01*
X39983D02*
G03*
X39983Y22794I-608J256D01*
G01*
X37637Y19984D02*
G03*
X37126Y19984I-255J-609D01*
G01*
Y18777D02*
G03*
X37637Y18776I256J608D01*
G01*
X34093Y25112D02*
G03*
X33583Y25112I-255J-609D01*
G01*
Y23905D02*
G03*
X34093Y23904I256J608D01*
G01*
X31561Y21278D02*
G03*
X31562Y20768I609J-255D01*
G01*
X32768D02*
G03*
X32769Y21278I-608J256D01*
G01*
X26628Y20188D02*
G03*
X26627Y20699I-609J255D01*
G01*
X25421D02*
G03*
X25420Y20188I608J-256D01*
G01*
X25725Y17272D02*
G03*
X25725Y16762I609J-255D01*
G01*
X26932D02*
G03*
X26932Y17272I-608J256D01*
G01*
X42949Y25343D02*
G03*
X42949Y24833I609J-255D01*
G01*
X44156D02*
G03*
X44157Y25343I-608J256D01*
G01*
X51443Y27017D02*
G03*
X51443Y26506I609J-255D01*
G01*
X52650D02*
G03*
X52651Y27017I-608J256D01*
G01*
X51453Y26357D02*
G03*
X51453Y25847I609J-255D01*
G01*
X52660D02*
G03*
X52661Y26357I-608J256D01*
G01*
X12116Y27333D02*
X13159D01*
X12116Y26821D02*
X13159D01*
Y27333D01*
X12116Y26821D02*
Y27333D01*
X14892Y27244D02*
Y28445D01*
X15403Y27245D02*
Y28445D01*
X12530Y27520D02*
Y28563D01*
X13041Y27520D02*
Y28563D01*
X12530D02*
X13041D01*
X12530Y27520D02*
X13041D01*
X15817Y29232D02*
X16329D01*
X15817Y30276D02*
X16329D01*
Y29232D02*
Y30276D01*
X15817Y29232D02*
Y30276D01*
X15709Y29232D02*
Y30276D01*
X15197Y29232D02*
Y30276D01*
Y29232D02*
X15709D01*
X15197Y30276D02*
X15709D01*
X14538Y29183D02*
Y30383D01*
X15049Y29183D02*
Y30384D01*
X15148Y31388D02*
Y32431D01*
X14636Y31388D02*
Y32431D01*
Y31388D02*
X15148D01*
X14636Y32431D02*
X15148D01*
X14497Y31290D02*
Y32490D01*
X13986Y31289D02*
Y32490D01*
X11634Y32530D02*
X12146D01*
X11634Y31486D02*
X12146D01*
X11634D02*
Y32530D01*
X12146Y31486D02*
Y32530D01*
X20197Y18976D02*
Y20020D01*
X20709Y18976D02*
Y20020D01*
X20197D02*
X20709D01*
X20197Y18976D02*
X20709D01*
X12835Y21309D02*
X13878D01*
X12835Y21821D02*
X13878D01*
X12835Y21309D02*
Y21821D01*
X13878Y21309D02*
Y21821D01*
X18780Y20069D02*
Y21112D01*
X18268Y20069D02*
Y21112D01*
Y20069D02*
X18780D01*
X18268Y21112D02*
X18780D01*
X19389Y19961D02*
Y21161D01*
X18878Y19961D02*
Y21161D01*
X17520Y17776D02*
X18720D01*
X17520Y18287D02*
X18720D01*
X13986Y21309D02*
X15030D01*
X13986Y21821D02*
X15030D01*
X13986Y21309D02*
Y21821D01*
X15030Y21309D02*
Y21821D01*
X15148Y21309D02*
X16191D01*
X15148Y21821D02*
X16191D01*
X15148Y21309D02*
Y21821D01*
X16191Y21309D02*
Y21821D01*
X12186Y17097D02*
Y18297D01*
X12697Y17096D02*
Y18297D01*
X20049Y18976D02*
Y20020D01*
X19537Y18976D02*
Y20020D01*
Y18976D02*
X20049D01*
X19537Y20020D02*
X20049D01*
X19430Y18318D02*
X20630D01*
X19429Y18829D02*
X20630D01*
X18603Y9370D02*
Y9882D01*
X19646Y9370D02*
Y9882D01*
X18603Y9370D02*
X19646D01*
X18603Y9882D02*
X19646D01*
X17844Y8386D02*
Y9429D01*
X18356Y8386D02*
Y9429D01*
X17844D02*
X18356D01*
X17844Y8386D02*
X18356D01*
X19134Y13022D02*
X20335D01*
X19135Y12511D02*
X20335D01*
X16280Y7697D02*
Y8898D01*
X15769Y7697D02*
Y8897D01*
X15974Y6889D02*
X17174D01*
X15974Y6378D02*
X17175D01*
X17982Y5699D02*
Y6742D01*
X18494Y5699D02*
Y6742D01*
X17982D02*
X18494D01*
X17982Y5699D02*
X18494D01*
X17334Y5659D02*
Y6859D01*
X17844Y5659D02*
Y6860D01*
X41743Y29607D02*
X42943D01*
X41742Y30118D02*
X42943D01*
X41743Y30778D02*
X42943D01*
X41742Y31289D02*
X42943D01*
X41743Y31960D02*
X42943D01*
X41742Y32470D02*
X42943D01*
X41743Y33141D02*
X42943D01*
X41742Y33652D02*
X42943D01*
X30079Y30926D02*
X31279D01*
X30079Y31437D02*
X31280D01*
X30079Y29745D02*
X31279D01*
X30079Y30256D02*
X31280D01*
X30079Y32117D02*
X31279D01*
X30079Y32628D02*
X31280D01*
X30079Y33278D02*
X31279D01*
X30079Y33789D02*
X31280D01*
X34173Y10363D02*
X35373D01*
X34173Y9852D02*
X35374D01*
X43120Y12028D02*
X44163D01*
X43120Y11516D02*
X44163D01*
Y12028D01*
X43120Y11516D02*
Y12028D01*
X49518Y11014D02*
X50561D01*
X49518Y11526D02*
X50561D01*
X49518Y11014D02*
Y11526D01*
X50561Y11014D02*
Y11526D01*
X43012Y12755D02*
X44212D01*
X43012Y12244D02*
X44213D01*
X50600Y11673D02*
Y12717D01*
X50089Y11673D02*
Y12717D01*
Y11673D02*
X50600D01*
X50089Y12717D02*
X50600D01*
X52028Y22244D02*
X52539D01*
X52028Y21201D02*
X52539D01*
X52028D02*
Y22244D01*
X52539Y21201D02*
Y22244D01*
X16880Y33563D02*
X17392D01*
X16880Y34606D02*
X17392D01*
Y33563D02*
Y34606D01*
X16880Y33563D02*
Y34606D01*
X14892Y33455D02*
X15404D01*
X14892Y34498D02*
X15404D01*
Y33455D02*
Y34498D01*
X14892Y33455D02*
Y34498D01*
X14252Y33356D02*
Y34557D01*
X14763Y33357D02*
Y34557D01*
X34163Y11033D02*
X35364D01*
X34163Y11544D02*
X35363D01*
X34173Y10443D02*
X35374D01*
X34173Y10954D02*
X35373D01*
X39094Y7274D02*
Y7785D01*
X38051Y7274D02*
Y7785D01*
X39094D01*
X38051Y7274D02*
X39094D01*
X26319Y25364D02*
X27362D01*
X26319Y25876D02*
X27362D01*
X26319Y25364D02*
Y25876D01*
X27362Y25364D02*
Y25876D01*
X26319Y26024D02*
X27362D01*
X26319Y26535D02*
X27362D01*
X26319Y26024D02*
Y26535D01*
X27362Y26024D02*
Y26535D01*
X28425Y26525D02*
X29625D01*
X28425Y26014D02*
X29626D01*
X26191Y25166D02*
X27391D01*
X26191Y24656D02*
X27392D01*
X26437Y22411D02*
X27638D01*
X26437Y22922D02*
X27637D01*
X24705Y19114D02*
X25217D01*
X24705Y20157D02*
X25217D01*
Y19114D02*
Y20157D01*
X24705Y19114D02*
Y20157D01*
X24094Y17598D02*
X25138D01*
X24094Y18110D02*
X25138D01*
X24094Y17598D02*
Y18110D01*
X25138Y17598D02*
Y18110D01*
X23985Y16920D02*
Y18120D01*
X23474Y16919D02*
Y18120D01*
X24814Y23446D02*
X26014D01*
X24813Y23957D02*
X26014D01*
X24803Y24085D02*
X25315D01*
X24803Y25128D02*
X25315D01*
Y24085D02*
Y25128D01*
X24803Y24085D02*
Y25128D01*
X16791Y20758D02*
X17835D01*
X16791Y20246D02*
X17835D01*
Y20758D01*
X16791Y20246D02*
Y20758D01*
X17893Y20926D02*
Y22126D01*
X17382Y20925D02*
Y22126D01*
X17273Y20926D02*
Y22126D01*
X16762Y20925D02*
Y22126D01*
X55107Y18564D02*
Y19764D01*
X54596Y18563D02*
Y19764D01*
X43898Y7264D02*
X44941D01*
X43898Y7776D02*
X44941D01*
X43898Y7264D02*
Y7776D01*
X44941Y7264D02*
Y7776D01*
X53927Y17441D02*
X54439D01*
X53927Y18484D02*
X54439D01*
Y17441D02*
Y18484D01*
X53927Y17441D02*
Y18484D01*
X53927Y18612D02*
X54439D01*
X53927Y19656D02*
X54439D01*
Y18612D02*
Y19656D01*
X53927Y18612D02*
Y19656D01*
X42854Y15256D02*
Y15768D01*
X43898Y15256D02*
Y15768D01*
X42854Y15256D02*
X43898D01*
X42854Y15768D02*
X43898D01*
X42707Y18337D02*
X43218D01*
X42707Y19380D02*
X43218D01*
Y18337D02*
Y19380D01*
X42707Y18337D02*
Y19380D01*
X47037Y18287D02*
X47549D01*
X47037Y19331D02*
X47549D01*
Y18287D02*
Y19331D01*
X47037Y18287D02*
Y19331D01*
X42549Y17756D02*
Y18268D01*
X41506Y17756D02*
Y18268D01*
X42549D01*
X41506Y17756D02*
X42549D01*
X45246Y17146D02*
Y17657D01*
X46289Y17146D02*
Y17657D01*
X45246Y17146D02*
X46289D01*
X45246Y17657D02*
X46289D01*
X40167Y22716D02*
X40679D01*
X40167Y21673D02*
X40679D01*
X40167D02*
Y22716D01*
X40679Y21673D02*
Y22716D01*
X38780Y22283D02*
X39980D01*
X38780Y22794D02*
X39980D01*
X39990Y21634D02*
Y22146D01*
X38947Y21634D02*
Y22146D01*
X39990D01*
X38947Y21634D02*
X39990D01*
X37126Y20207D02*
X37638D01*
X37126Y21250D02*
X37638D01*
Y20207D02*
Y21250D01*
X37126Y20207D02*
Y21250D01*
Y18780D02*
Y19980D01*
X37637Y18780D02*
Y19980D01*
X33583Y23907D02*
Y25108D01*
X34094Y23908D02*
Y25108D01*
X30728Y22234D02*
Y22746D01*
X31772Y22234D02*
Y22746D01*
X30728Y22234D02*
X31772D01*
X30728Y22746D02*
X31772D01*
X32923Y22234D02*
Y22746D01*
X31880Y22234D02*
Y22746D01*
X32923D01*
X31880Y22234D02*
X32923D01*
X31565Y20768D02*
X32766D01*
X31565Y21279D02*
X32765D01*
X25423Y20699D02*
X26624D01*
X25424Y20188D02*
X26624D01*
X25728Y16762D02*
X26929D01*
X25728Y17273D02*
X26928D01*
X53829Y21506D02*
Y22018D01*
X54872Y21506D02*
Y22018D01*
X53829Y21506D02*
X54872D01*
X53829Y22018D02*
X54872D01*
X44331Y24833D02*
Y25344D01*
X45374Y24833D02*
Y25344D01*
X44331Y24833D02*
X45374D01*
X44331Y25344D02*
X45374D01*
X42953Y24833D02*
X44154D01*
X42953Y25344D02*
X44153D01*
X48120Y24291D02*
Y25335D01*
X48632Y24291D02*
Y25335D01*
X48120D02*
X48632D01*
X48120Y24291D02*
X48632D01*
X51447Y26506D02*
X52648D01*
X51447Y27017D02*
X52647D01*
X51457Y25846D02*
X52657D01*
X51457Y26357D02*
X52657D01*
D11*
X19183Y18425D02*
G03*
X19183Y18425I-49J0D01*
G01*
X16496Y7185D02*
G03*
X16496Y7185I-49J0D01*
G01*
X27707Y25325D02*
G03*
X27707Y25325I-49J0D01*
G01*
X37874Y18465D02*
G03*
X37874Y18465I-49J0D01*
G01*
X27382Y20207D02*
G03*
X27382Y20207I-49J0D01*
G01*
D12*
X22765Y34406D02*
G03*
X22765Y34406I-176J0D01*
G01*
X34467Y34258D02*
G03*
X34467Y34258I-176J0D01*
G01*
X44421Y11098D02*
G03*
X44421Y11689I0J295D01*
G01*
X21742Y30413D02*
G03*
X21742Y30413I-1575J0D01*
G01*
X55374Y14803D02*
G03*
X55374Y14803I-1575J0D01*
G01*
X11801Y29124D02*
G03*
X11801Y29124I-3937J0D01*
G01*
X15276Y24189D02*
G03*
X15276Y24189I-1969J0D01*
G01*
X53612Y29695D02*
G03*
X53612Y29695I-1575J0D01*
G01*
X8668Y32138D02*
G03*
X7100Y32138I-784J-2847D01*
G01*
Y26641D02*
G03*
X8668Y26641I784J2847D01*
G01*
X40167Y24833D02*
G03*
X40167Y24833I-1575J0D01*
G01*
X39311Y11260D02*
G03*
X39311Y11260I-1575J0D01*
G01*
X31469Y25128D02*
G03*
X32027Y25147I280J0D01*
G01*
X32206Y18523D02*
G03*
X32206Y19123I0J300D01*
G01*
X20260Y15600D02*
G03*
X20260Y15600I-1969J0D01*
G01*
X22766Y11033D02*
G03*
X22766Y11033I-1575J0D01*
G01*
X22661Y7146D02*
G03*
X22661Y7146I-1969J0D01*
G01*
X13754Y27182D02*
Y27482D01*
Y28382D02*
X14154D01*
X13754Y28082D02*
Y28382D01*
X14254Y27682D02*
Y27882D01*
X13754Y27182D02*
X14154D01*
X13196Y29654D02*
Y30054D01*
Y29654D02*
X13496D01*
X14396D02*
Y30054D01*
X14096Y29654D02*
X14396D01*
X13696Y30154D02*
X13896D01*
X13338Y31826D02*
Y32026D01*
X12838Y31326D02*
Y31626D01*
Y31326D02*
X13238D01*
X12838Y32226D02*
Y32526D01*
X13238D01*
X44421Y10902D02*
Y11098D01*
Y11689D02*
Y11886D01*
X47965Y10902D02*
Y11886D01*
X44421Y10902D02*
X47965D01*
X44421Y11886D02*
X47965D01*
X48901Y11680D02*
Y11980D01*
Y12880D02*
X49301D01*
X48901Y12580D02*
Y12880D01*
X49401Y12180D02*
Y12380D01*
X48901Y11680D02*
X49301D01*
X15738Y37411D02*
Y40915D01*
X20463Y37411D02*
Y40915D01*
X15738D02*
X20463D01*
X19833Y37411D02*
X20463D01*
X15738D02*
X16368D01*
X14130Y33829D02*
Y34229D01*
X13830D02*
X14130D01*
X12930Y33829D02*
Y34229D01*
X13230D01*
X13430Y33729D02*
X13630D01*
X53325Y22636D02*
X53625D01*
X52425D02*
Y23036D01*
Y22636D02*
X52725D01*
X52925Y23136D02*
X53125D01*
X53625Y22636D02*
Y23036D01*
X33789Y4144D02*
X37333D01*
X33789Y7648D02*
X34419D01*
X36703D02*
X37333D01*
X33789Y4144D02*
Y7648D01*
X37333Y4144D02*
Y7648D01*
X53835Y23146D02*
X54135D01*
X55035Y22746D02*
Y23146D01*
X54735D02*
X55035D01*
X54335Y22646D02*
X54535D01*
X53835Y22746D02*
Y23146D01*
X49826Y20041D02*
Y22541D01*
X41226Y20041D02*
Y22541D01*
Y20041D02*
X49826D01*
X41226Y22541D02*
X49826D01*
X29173Y23015D02*
X29573D01*
X29073Y22315D02*
Y22515D01*
X29573Y21815D02*
Y22115D01*
X29173Y21815D02*
X29573D01*
Y22715D02*
Y23015D01*
X42861Y16604D02*
Y17004D01*
X43361Y16504D02*
X43561D01*
X43761Y17004D02*
X44061D01*
Y16604D02*
Y17004D01*
X42861D02*
X43161D01*
X44035Y18763D02*
X44435D01*
X43935Y18063D02*
Y18263D01*
X44435Y17563D02*
Y17863D01*
X44035Y17563D02*
X44435D01*
Y18463D02*
Y18763D01*
X42631Y16598D02*
Y16998D01*
X41931Y17098D02*
X42131D01*
X41431Y16598D02*
X41731D01*
X41431D02*
Y16998D01*
X42331Y16598D02*
X42631D01*
X45125Y18474D02*
Y18874D01*
X45625Y18374D02*
X45825D01*
X46025Y18874D02*
X46325D01*
Y18474D02*
Y18874D01*
X45125D02*
X45425D01*
X32250Y22948D02*
Y25148D01*
X31250Y22948D02*
Y25148D01*
Y22948D02*
X32250D01*
X32050Y25148D02*
X32250D01*
X31250D02*
X31450D01*
X32206Y18023D02*
Y18523D01*
X34206Y18023D02*
Y19623D01*
X32206D02*
X34206D01*
X32206Y18023D02*
X34206D01*
X32206Y19123D02*
Y19623D01*
X5118Y37411D02*
Y40915D01*
X8661Y37411D02*
Y40915D01*
X5118Y37411D02*
X5748D01*
X8031D02*
X8661D01*
X5118Y40915D02*
X8661D01*
X9203Y37411D02*
Y40915D01*
X12746Y37411D02*
Y40915D01*
X9203Y37411D02*
X9833D01*
X12116D02*
X12746D01*
X9203Y40915D02*
X12746D01*
X25005Y21791D02*
Y22191D01*
X24805Y21991D02*
X25205D01*
X33809Y22564D02*
X33409D01*
X22175Y31009D02*
X21775D01*
X21975Y30809D02*
Y31209D01*
X51673Y14798D02*
X52073D01*
X51873Y14998D02*
Y14598D01*
X13322Y26742D02*
Y26342D01*
X13521Y26542D02*
X13122D01*
X49862Y29739D02*
X50262D01*
X50062Y29939D02*
Y29539D01*
X38543Y22794D02*
Y23109D01*
X38386Y22952D02*
X38701D01*
X37731Y13376D02*
Y12976D01*
X37931Y13176D02*
X37531D01*
X15758Y15615D02*
X16158D01*
X15958Y15815D02*
Y15415D01*
X19144Y10453D02*
X19485D01*
X19314Y10623D02*
Y10282D01*
X18169Y7190D02*
X18569D01*
X18369Y7390D02*
Y6990D01*
D13*
X38128Y6010D02*
G03*
X38963Y6010I418J418D01*
G01*
Y6845D02*
G03*
X38128Y6845I-418J-418D01*
G01*
X9262Y23907D02*
G03*
X9262Y23907I-1102J0D01*
G01*
X44049Y6010D02*
G03*
X44884Y6010I418J418D01*
G01*
Y6845D02*
G03*
X44049Y6845I-418J-418D01*
G01*
X14727Y39020D02*
G03*
X13891Y39020I-418J-418D01*
G01*
Y38185D02*
G03*
X14727Y38185I418J418D01*
G01*
X37498Y16168D02*
G03*
X37469Y14868I2035J-697D01*
G01*
X40901Y14932D02*
G03*
X40897Y16125I-2068J589D01*
G01*
X16881Y9797D02*
G03*
X18074Y9802I589J2068D01*
G01*
X18117Y13200D02*
G03*
X16817Y13230I-697J-2035D01*
G01*
X13979Y17243D02*
G03*
X15280Y17213I697J2035D01*
G01*
X15215Y20645D02*
G03*
X14022Y20641I-589J-2068D01*
G01*
X9459Y23514D02*
Y24301D01*
Y23907D02*
X9931Y23514D01*
X9459Y23907D02*
X9931Y24301D01*
Y23514D02*
Y24301D01*
D14*
X47351Y28711D02*
G03*
X47351Y28711I-28J0D01*
G01*
X20886Y13514D02*
X21467Y12933D01*
X22648D01*
X15630Y34242D02*
Y34596D01*
X16732Y34242D02*
Y34596D01*
X12411Y29636D02*
Y30069D01*
X13041Y29636D02*
Y30069D01*
X13996Y35915D02*
Y36270D01*
X12894Y35915D02*
Y36270D01*
X11585Y35541D02*
X11939D01*
X11585Y34439D02*
X11939D01*
X17657Y18484D02*
X18524D01*
X17657Y19665D02*
X18524D01*
X16506Y7795D02*
Y8661D01*
X17687Y7795D02*
Y8661D01*
X24953Y39781D02*
Y40972D01*
X27531Y39781D02*
Y40963D01*
X24953Y39781D02*
X27531D01*
X31173D02*
Y40972D01*
X33752Y39781D02*
Y40963D01*
X31173Y39781D02*
X33752D01*
X37394D02*
Y40972D01*
X39972Y39781D02*
Y40963D01*
X37394Y39781D02*
X39972D01*
X43612D02*
X46191D01*
Y40963D01*
X43612Y39781D02*
Y40972D01*
X28715Y40291D02*
X29295D01*
X28715D02*
Y40970D01*
X23468Y40283D02*
Y40963D01*
X22888Y40283D02*
X23468D01*
X34882Y40291D02*
X35463D01*
X34882D02*
Y40970D01*
X29882Y40283D02*
Y40963D01*
X29301Y40283D02*
X29882D01*
X35472Y40287D02*
X36053D01*
Y40967D01*
X41053Y40295D02*
Y40974D01*
Y40295D02*
X41634D01*
X47411Y40291D02*
X47992D01*
X47411D02*
Y40970D01*
X42215Y40293D02*
Y40972D01*
X41634Y40293D02*
X42215D01*
X29295Y34781D02*
Y40974D01*
X35465Y34781D02*
Y40974D01*
X41634Y34781D02*
Y40974D01*
X22874D02*
X47992D01*
X22874Y34774D02*
Y40974D01*
Y34774D02*
X47992D01*
Y40974D01*
X32657Y30896D02*
X33091D01*
X32657Y31526D02*
X33091D01*
X32657Y29134D02*
X33091D01*
X32657Y29764D02*
X33091D01*
X32657Y31762D02*
X33091D01*
X32657Y32392D02*
X33091D01*
X32717Y33425D02*
X33150D01*
X32717Y34055D02*
X33150D01*
X20984Y32303D02*
X21417D01*
X20984Y32933D02*
X21417D01*
X20984Y33228D02*
X21417D01*
X20984Y33858D02*
X21417D01*
X23321Y7060D02*
X24587D01*
X23319Y4144D02*
X33161D01*
X23319Y16348D02*
X33161D01*
X24587Y4144D02*
Y7060D01*
X33161Y4144D02*
Y16348D01*
X23319Y4144D02*
Y16348D01*
X15571Y33169D02*
X15758D01*
X16880D02*
X17067D01*
X15571Y30965D02*
X15758D01*
X16880D02*
X17067D01*
X15571D02*
Y33169D01*
X17067Y30965D02*
Y33169D01*
X14449Y35866D02*
Y36299D01*
X15079Y35866D02*
Y36299D01*
X27835Y24478D02*
Y25541D01*
X28898D01*
X27835Y24478D02*
X28898D01*
Y25541D01*
X11496Y17431D02*
Y22549D01*
X1024Y17431D02*
X11496D01*
X1024D02*
Y22549D01*
X11496D01*
X15610Y26161D02*
Y28366D01*
X17106Y26161D02*
Y28366D01*
X15610D02*
X15797D01*
X16919D02*
X17106D01*
X15610Y26161D02*
X15797D01*
X16919D02*
X17106D01*
X2520Y27156D02*
X4459D01*
X2520Y31093D02*
X4449D01*
X47490Y5118D02*
X50640D01*
Y8543D01*
X50315Y6420D02*
Y7320D01*
Y2520D02*
Y5320D01*
X47815Y6420D02*
Y7320D01*
Y2520D02*
Y5320D01*
X48615Y8120D02*
X49465D01*
X48615Y5620D02*
X49465D01*
X47815Y2520D02*
X50315D01*
X49094Y33258D02*
X50335D01*
X50817Y33494D02*
Y33691D01*
X48573Y40974D02*
X50817D01*
Y36781D02*
Y40974D01*
X48573Y36781D02*
Y40974D01*
X50817Y34035D02*
Y35719D01*
X48573Y34035D02*
Y35719D01*
X49232Y38494D02*
X50000D01*
X49459Y38858D02*
X49783D01*
X49951Y40157D01*
X49291D02*
X49459Y38858D01*
X49232Y38494D02*
X49291Y40157D01*
X49951D02*
X50010Y38494D01*
X38022Y19488D02*
X38415Y19094D01*
X38022Y19409D02*
X38337Y19094D01*
X38022Y19331D02*
X38258Y19094D01*
X38022Y19252D02*
X38179Y19094D01*
X38022Y19173D02*
X38100Y19094D01*
X38022D02*
X39990D01*
X38022D02*
Y20512D01*
X39990D01*
Y19094D02*
Y20512D01*
X45325Y28346D02*
X45482D01*
X45325Y28189D02*
Y28346D01*
Y26083D02*
Y26230D01*
Y26083D02*
X45472D01*
X47431D02*
X47598D01*
Y26230D01*
X47589Y28189D02*
Y28248D01*
X47490Y28346D02*
X47589Y28248D01*
X47431Y28346D02*
X47490D01*
X34656Y15138D02*
X34902Y14892D01*
X34656Y15138D02*
Y26614D01*
X34931Y26890D01*
X36535D01*
X36742Y26683D01*
Y26545D02*
Y26683D01*
X34911Y14892D02*
X36740D01*
X36201Y28809D02*
X36742Y28268D01*
X21427Y28809D02*
X36201D01*
X20886Y28268D02*
X21427Y28809D01*
X20886Y28268D02*
X20886Y13514D01*
X22648Y12933D02*
X36152Y12933D01*
X36742Y13524D02*
Y28268D01*
X36152Y12933D02*
X36742Y13524D01*
X23031Y26722D02*
X23031Y15207D01*
X22864Y26890D02*
X23031Y26722D01*
X21132Y26890D02*
X22864D01*
X20915Y26673D02*
X21132Y26890D01*
X23031Y15069D02*
Y15207D01*
X22894Y14931D02*
X23031Y15069D01*
X21112Y14931D02*
X22894D01*
X20925Y15118D02*
X21112Y14931D01*
X33425Y28809D02*
X33484D01*
X33868Y28425D01*
Y26969D02*
Y28425D01*
X33593Y26693D02*
X33868Y26969D01*
X24094Y26693D02*
X33593D01*
X23770Y27018D02*
X24094Y26693D01*
X23770Y27018D02*
Y28494D01*
Y28494D02*
X24075Y28799D01*
X39882Y5118D02*
X43159D01*
X39882D02*
Y8543D01*
X28022Y20030D02*
X30384D01*
X28022Y17667D02*
X30384D01*
Y20030D01*
X28022Y17667D02*
Y20030D01*
X10069Y6467D02*
Y16939D01*
X4951D02*
X10069D01*
X4951Y6467D02*
Y16939D01*
Y6467D02*
X10069D01*
X23701Y24724D02*
X24567D01*
X23701Y18346D02*
Y24724D01*
X24567Y18346D02*
Y24724D01*
X23701Y18346D02*
X24567D01*
X31821Y25945D02*
X33041D01*
X31821Y25394D02*
X33041D01*
Y25945D01*
X31821Y25394D02*
Y25945D01*
X26624Y19724D02*
X26663D01*
Y17756D02*
Y19724D01*
X26624Y17756D02*
X26663D01*
X25404Y19724D02*
X25443D01*
X25404Y17756D02*
Y19724D01*
Y17756D02*
X25443D01*
X15433Y6467D02*
Y16939D01*
X10315D02*
X15433D01*
X10315Y6467D02*
Y16939D01*
Y6467D02*
X15433D01*
X15984Y22480D02*
Y22589D01*
Y23514D02*
Y23622D01*
X18071Y22480D02*
Y22589D01*
Y23514D02*
Y23622D01*
X15984Y22480D02*
X18071D01*
X15984Y23622D02*
X18071D01*
X49862Y25433D02*
X49902D01*
X49862D02*
Y27402D01*
X49902D01*
X51083Y25433D02*
X51122D01*
Y27402D01*
X51083D02*
X51122D01*
X41232Y20043D02*
Y22543D01*
X47490Y8543D02*
X50640D01*
X47490Y5118D02*
Y8543D01*
X43159Y5118D02*
Y8543D01*
X39882D02*
X43159D01*
X29118Y40500D02*
Y40553D01*
X29013Y40658D01*
X28908Y40553D01*
Y40500D01*
X29013Y40658D02*
Y40815D01*
X23081Y40553D02*
X23134Y40500D01*
X23239D01*
X23291Y40553D01*
Y40762D01*
X23239Y40815D01*
X23134D01*
X23081Y40762D01*
Y40658D01*
X23186D01*
X35285Y40500D02*
Y40553D01*
X35180Y40658D01*
X35076Y40553D01*
Y40500D01*
X35180Y40658D02*
Y40815D01*
X29495Y40553D02*
X29547Y40500D01*
X29652D01*
X29705Y40553D01*
Y40762D01*
X29652Y40815D01*
X29547D01*
X29495Y40762D01*
Y40658D01*
X29600D01*
X35666Y40557D02*
X35719Y40504D01*
X35824D01*
X35876Y40557D01*
Y40766D01*
X35824Y40819D01*
X35719D01*
X35666Y40766D01*
Y40661D01*
X35771D01*
X41457Y40504D02*
Y40557D01*
X41352Y40661D01*
X41247Y40557D01*
Y40504D01*
X41352Y40661D02*
Y40819D01*
X47815Y40500D02*
Y40553D01*
X47710Y40658D01*
X47605Y40553D01*
Y40500D01*
X47710Y40658D02*
Y40815D01*
X41827Y40553D02*
X41880Y40500D01*
X41985D01*
X42037Y40553D01*
Y40762D01*
X41985Y40815D01*
X41880D01*
X41827Y40762D01*
Y40658D01*
X41932D01*
X11829Y18489D02*
Y18095D01*
X12025Y18292D02*
X11632D01*
X4449Y9518D02*
X4764D01*
Y9675D01*
X4711Y9728D01*
X4659D01*
X4606Y9675D01*
Y9518D01*
Y9675D01*
X4554Y9728D01*
X4501D01*
X4449Y9675D01*
Y9518D01*
X4764Y9833D02*
X4554D01*
X4449Y9938D01*
X4554Y10042D01*
X4764D01*
X4606D01*
Y9833D01*
X4501Y10357D02*
X4449Y10305D01*
Y10200D01*
X4501Y10147D01*
X4711D01*
X4764Y10200D01*
Y10305D01*
X4711Y10357D01*
X4449Y10462D02*
X4764D01*
X4659D01*
X4449Y10672D01*
X4606Y10515D01*
X4764Y10672D01*
X4449Y10777D02*
X4711D01*
X4764Y10830D01*
Y10935D01*
X4711Y10987D01*
X4449D01*
X4764Y11092D02*
X4449D01*
Y11249D01*
X4501Y11302D01*
X4606D01*
X4659Y11249D01*
Y11092D01*
X4501Y11932D02*
X4449Y11879D01*
Y11774D01*
X4501Y11722D01*
X4554D01*
X4606Y11774D01*
Y11879D01*
X4659Y11932D01*
X4711D01*
X4764Y11879D01*
Y11774D01*
X4711Y11722D01*
X4449Y12037D02*
X4711D01*
X4764Y12089D01*
Y12194D01*
X4711Y12246D01*
X4449D01*
X4764Y12351D02*
X4449D01*
Y12509D01*
X4501Y12561D01*
X4606D01*
X4659Y12509D01*
Y12351D01*
X4449Y12876D02*
Y12666D01*
X4764D01*
Y12876D01*
X4606Y12666D02*
Y12771D01*
X4764Y12981D02*
X4449D01*
Y13139D01*
X4501Y13191D01*
X4606D01*
X4659Y13139D01*
Y12981D01*
Y13086D02*
X4764Y13191D01*
X4501Y13506D02*
X4449Y13453D01*
Y13348D01*
X4501Y13296D01*
X4711D01*
X4764Y13348D01*
Y13453D01*
X4711Y13506D01*
X4764Y13611D02*
X4554D01*
X4449Y13716D01*
X4554Y13821D01*
X4764D01*
X4606D01*
Y13611D01*
X4764Y13926D02*
X4449D01*
Y14083D01*
X4501Y14136D01*
X4606D01*
X4659Y14083D01*
Y13926D01*
X4764Y14555D02*
Y14660D01*
Y14608D01*
X4449D01*
X4501Y14555D01*
Y14818D02*
X4449Y14870D01*
Y14975D01*
X4501Y15028D01*
X4711D01*
X4764Y14975D01*
Y14870D01*
X4711Y14818D01*
X4501D01*
X4449Y15343D02*
Y15133D01*
X4606D01*
Y15238D01*
Y15133D01*
X4764D01*
X53347Y16870D02*
Y17080D01*
Y16975D01*
X53661D01*
X53347Y17395D02*
Y17185D01*
X53661D01*
Y17395D01*
X53504Y17185D02*
Y17290D01*
X53661Y17500D02*
X53347D01*
X53452Y17605D01*
X53347Y17710D01*
X53661D01*
Y17815D02*
X53347D01*
Y17972D01*
X53399Y18025D01*
X53504D01*
X53556Y17972D01*
Y17815D01*
X53347Y18339D02*
Y18130D01*
X53661D01*
Y18339D01*
X53504Y18130D02*
Y18234D01*
X53661Y18444D02*
X53347D01*
Y18602D01*
X53399Y18654D01*
X53504D01*
X53556Y18602D01*
Y18444D01*
Y18549D02*
X53661Y18654D01*
Y18759D02*
X53452D01*
X53347Y18864D01*
X53452Y18969D01*
X53661D01*
X53504D01*
Y18759D01*
X53347Y19074D02*
Y19284D01*
Y19179D01*
X53661D01*
X53347Y19389D02*
X53609D01*
X53661Y19441D01*
Y19546D01*
X53609Y19599D01*
X53347D01*
X53661Y19704D02*
X53347D01*
Y19861D01*
X53399Y19914D01*
X53504D01*
X53556Y19861D01*
Y19704D01*
Y19809D02*
X53661Y19914D01*
X53347Y20229D02*
Y20019D01*
X53661D01*
Y20229D01*
X53504Y20019D02*
Y20124D01*
X41654Y23113D02*
X41719Y23179D01*
X41850D01*
X41916Y23113D01*
Y23048D01*
X41850Y22982D01*
X41785D01*
X41850D01*
X41916Y22917D01*
Y22851D01*
X41850Y22785D01*
X41719D01*
X41654Y22851D01*
X42309Y23113D02*
X42244Y23179D01*
X42113D01*
X42047Y23113D01*
Y22851D01*
X42113Y22785D01*
X42244D01*
X42309Y22851D01*
Y22982D01*
X42178D01*
X42441Y22785D02*
X42703Y23048D01*
X43031Y22785D02*
Y23179D01*
X42834Y22982D01*
X43097D01*
X43490Y23113D02*
X43425Y23179D01*
X43293D01*
X43228Y23113D01*
Y22851D01*
X43293Y22785D01*
X43425D01*
X43490Y22851D01*
Y22982D01*
X43359D01*
X44015Y22785D02*
Y23179D01*
X44146Y23048D01*
X44277Y23179D01*
Y22785D01*
X44605Y23179D02*
X44474D01*
X44409Y23113D01*
Y22851D01*
X44474Y22785D01*
X44605D01*
X44671Y22851D01*
Y23113D01*
X44605Y23179D01*
X44802D02*
Y22785D01*
X44999D01*
X45065Y22851D01*
Y23113D01*
X44999Y23179D01*
X44802D01*
X45458D02*
X45196D01*
Y22785D01*
X45458D01*
X45196Y22982D02*
X45327D01*
X45589Y22785D02*
Y23179D01*
X45720Y23048D01*
X45852Y23179D01*
Y22785D01*
X46639Y23113D02*
X46573Y23179D01*
X46442D01*
X46376Y23113D01*
Y23048D01*
X46442Y22982D01*
X46573D01*
X46639Y22917D01*
Y22851D01*
X46573Y22785D01*
X46442D01*
X46376Y22851D01*
X46770Y23179D02*
Y22785D01*
Y22982D01*
X47032D01*
Y23179D01*
Y22785D01*
X47164Y23179D02*
X47295D01*
X47229D01*
Y22785D01*
X47164D01*
X47295D01*
X47754Y23179D02*
X47492D01*
Y22785D01*
X47754D01*
X47492Y22982D02*
X47623D01*
X47885Y23179D02*
Y22785D01*
X48148D01*
X48279Y23179D02*
Y22785D01*
X48475D01*
X48541Y22851D01*
Y23113D01*
X48475Y23179D01*
X48279D01*
X47392Y32736D02*
Y32408D01*
X47457Y32343D01*
X47589D01*
X47654Y32408D01*
Y32736D01*
X48048Y32671D02*
X47982Y32736D01*
X47851D01*
X47785Y32671D01*
Y32605D01*
X47851Y32539D01*
X47982D01*
X48048Y32474D01*
Y32408D01*
X47982Y32343D01*
X47851D01*
X47785Y32408D01*
X48179Y32736D02*
Y32343D01*
X48376D01*
X48441Y32408D01*
Y32474D01*
X48376Y32539D01*
X48179D01*
X48376D01*
X48441Y32605D01*
Y32671D01*
X48376Y32736D01*
X48179D01*
X49228Y32671D02*
X49163Y32736D01*
X49032D01*
X48966Y32671D01*
Y32605D01*
X49032Y32539D01*
X49163D01*
X49228Y32474D01*
Y32408D01*
X49163Y32343D01*
X49032D01*
X48966Y32408D01*
X49360Y32736D02*
X49622D01*
X49491D01*
Y32343D01*
X49950Y32736D02*
X49819D01*
X49753Y32671D01*
Y32408D01*
X49819Y32343D01*
X49950D01*
X50016Y32408D01*
Y32671D01*
X49950Y32736D01*
X50147Y32343D02*
Y32736D01*
X50344D01*
X50409Y32671D01*
Y32539D01*
X50344Y32474D01*
X50147D01*
X50278D02*
X50409Y32343D01*
X50540D02*
Y32605D01*
X50672Y32736D01*
X50803Y32605D01*
Y32343D01*
Y32539D01*
X50540D01*
X51196Y32671D02*
X51131Y32736D01*
X50999D01*
X50934Y32671D01*
Y32408D01*
X50999Y32343D01*
X51131D01*
X51196Y32408D01*
Y32539D01*
X51065D01*
X51590Y32736D02*
X51327D01*
Y32343D01*
X51590D01*
X51327Y32539D02*
X51459D01*
X5935Y5811D02*
X5541D01*
X5738Y5614D02*
Y6008D01*
X11410Y5809D02*
X11016D01*
X11213Y5612D02*
Y6006D01*
X15978Y35777D02*
X15768D01*
Y35620D01*
X15873D01*
X15768D01*
Y35463D01*
X16083Y35777D02*
Y35515D01*
X16135Y35463D01*
X16240D01*
X16292Y35515D01*
Y35777D01*
X16607D02*
X16397D01*
Y35620D01*
X16502Y35673D01*
X16555D01*
X16607Y35620D01*
Y35515D01*
X16555Y35463D01*
X16450D01*
X16397Y35515D01*
X22382Y34862D02*
X22697Y35072D01*
X22382D02*
X22697Y34862D01*
Y35177D02*
X22382D01*
Y35334D01*
X22434Y35387D01*
X22539D01*
X22592Y35334D01*
Y35177D01*
X22434Y35492D02*
X22382Y35544D01*
Y35649D01*
X22434Y35702D01*
X22487D01*
X22539Y35649D01*
X22592Y35702D01*
X22644D01*
X22697Y35649D01*
Y35544D01*
X22644Y35492D01*
X22592D01*
X22539Y35544D01*
X22487Y35492D01*
X22434D01*
X22539Y35544D02*
Y35649D01*
X37028Y28799D02*
X37237D01*
X37133D01*
Y28484D01*
X37342D02*
Y28799D01*
X37500D01*
X37552Y28747D01*
Y28642D01*
X37500Y28589D01*
X37342D01*
X37447D02*
X37552Y28484D01*
X37867D02*
X37657D01*
X37867Y28694D01*
Y28747D01*
X37815Y28799D01*
X37710D01*
X37657Y28747D01*
X29104Y29311D02*
X29314D01*
X29209D01*
Y28996D01*
X29419D02*
Y29311D01*
X29577D01*
X29629Y29258D01*
Y29153D01*
X29577Y29101D01*
X29419D01*
X29524D02*
X29629Y28996D01*
X29734D02*
X29839D01*
X29787D01*
Y29311D01*
X29734Y29258D01*
X33409Y30141D02*
X33356Y30089D01*
Y29984D01*
X33409Y29931D01*
X33619D01*
X33671Y29984D01*
Y30089D01*
X33619Y30141D01*
Y30246D02*
X33671Y30298D01*
Y30403D01*
X33619Y30456D01*
X33409D01*
X33356Y30403D01*
Y30298D01*
X33409Y30246D01*
X33461D01*
X33514Y30298D01*
Y30456D01*
X33619Y30561D02*
X33671Y30613D01*
Y30718D01*
X33619Y30771D01*
X33409D01*
X33356Y30718D01*
Y30613D01*
X33409Y30561D01*
X33461D01*
X33514Y30613D01*
Y30771D01*
X42149Y30617D02*
X42096Y30669D01*
X41991D01*
X41939Y30617D01*
Y30407D01*
X41991Y30354D01*
X42096D01*
X42149Y30407D01*
X42254D02*
X42306Y30354D01*
X42411D01*
X42464Y30407D01*
Y30617D01*
X42411Y30669D01*
X42306D01*
X42254Y30617D01*
Y30564D01*
X42306Y30512D01*
X42464D01*
X42569Y30669D02*
X42779D01*
Y30617D01*
X42569Y30407D01*
Y30354D01*
X42159Y29436D02*
X42106Y29488D01*
X42001D01*
X41949Y29436D01*
Y29226D01*
X42001Y29173D01*
X42106D01*
X42159Y29226D01*
X42264D02*
X42316Y29173D01*
X42421D01*
X42474Y29226D01*
Y29436D01*
X42421Y29488D01*
X42316D01*
X42264Y29436D01*
Y29383D01*
X42316Y29331D01*
X42474D01*
X42788Y29488D02*
X42683Y29436D01*
X42579Y29331D01*
Y29226D01*
X42631Y29173D01*
X42736D01*
X42788Y29226D01*
Y29278D01*
X42736Y29331D01*
X42579D01*
X34482Y9672D02*
X34429Y9724D01*
X34324D01*
X34272Y9672D01*
Y9462D01*
X34324Y9409D01*
X34429D01*
X34482Y9462D01*
X34587D02*
X34639Y9409D01*
X34744D01*
X34796Y9462D01*
Y9672D01*
X34744Y9724D01*
X34639D01*
X34587Y9672D01*
Y9619D01*
X34639Y9567D01*
X34796D01*
X35111Y9724D02*
X34901D01*
Y9567D01*
X35006Y9619D01*
X35059D01*
X35111Y9567D01*
Y9462D01*
X35059Y9409D01*
X34954D01*
X34901Y9462D01*
X48435Y13524D02*
Y13314D01*
X48540Y13209D01*
X48645Y13314D01*
Y13524D01*
X48750D02*
X48960D01*
X48855D01*
Y13209D01*
X49275D02*
X49065D01*
X49275Y13419D01*
Y13471D01*
X49223Y13524D01*
X49118D01*
X49065Y13471D01*
X49380Y13209D02*
X49485D01*
X49432D01*
Y13524D01*
X49380Y13471D01*
X50131Y13027D02*
Y13342D01*
X50288D01*
X50341Y13290D01*
Y13185D01*
X50288Y13132D01*
X50131D01*
X50236D02*
X50341Y13027D01*
X50446Y13290D02*
X50498Y13342D01*
X50603D01*
X50656Y13290D01*
Y13237D01*
X50603Y13185D01*
X50656Y13132D01*
Y13080D01*
X50603Y13027D01*
X50498D01*
X50446Y13080D01*
Y13132D01*
X50498Y13185D01*
X50446Y13237D01*
Y13290D01*
X50498Y13185D02*
X50603D01*
X50970Y13027D02*
X50761D01*
X50970Y13237D01*
Y13290D01*
X50918Y13342D01*
X50813D01*
X50761Y13290D01*
X49606Y10571D02*
Y10886D01*
X49764D01*
X49816Y10833D01*
Y10728D01*
X49764Y10676D01*
X49606D01*
X49711D02*
X49816Y10571D01*
X49921Y10833D02*
X49974Y10886D01*
X50079D01*
X50131Y10833D01*
Y10781D01*
X50079Y10728D01*
X50131Y10676D01*
Y10623D01*
X50079Y10571D01*
X49974D01*
X49921Y10623D01*
Y10676D01*
X49974Y10728D01*
X49921Y10781D01*
Y10833D01*
X49974Y10728D02*
X50079D01*
X50236Y10833D02*
X50289Y10886D01*
X50393D01*
X50446Y10833D01*
Y10623D01*
X50393Y10571D01*
X50289D01*
X50236Y10623D01*
Y10833D01*
X42106Y11624D02*
Y11939D01*
X42264D01*
X42316Y11886D01*
Y11781D01*
X42264Y11729D01*
X42106D01*
X42211D02*
X42316Y11624D01*
X42421Y11939D02*
X42631D01*
Y11886D01*
X42421Y11676D01*
Y11624D01*
X42736Y11939D02*
X42946D01*
Y11886D01*
X42736Y11676D01*
Y11624D01*
X44276Y13525D02*
Y13210D01*
X44433D01*
X44486Y13263D01*
Y13473D01*
X44433Y13525D01*
X44276D01*
X44591D02*
Y13210D01*
X44748D01*
X44801Y13263D01*
Y13473D01*
X44748Y13525D01*
X44591D01*
X45115D02*
X44906D01*
Y13368D01*
X45010Y13420D01*
X45063D01*
X45115Y13368D01*
Y13263D01*
X45063Y13210D01*
X44958D01*
X44906Y13263D01*
X43369Y13195D02*
X43317Y13248D01*
X43212D01*
X43159Y13195D01*
Y12986D01*
X43212Y12933D01*
X43317D01*
X43369Y12986D01*
X43474Y13195D02*
X43527Y13248D01*
X43632D01*
X43684Y13195D01*
Y13143D01*
X43632Y13090D01*
X43684Y13038D01*
Y12986D01*
X43632Y12933D01*
X43527D01*
X43474Y12986D01*
Y13038D01*
X43527Y13090D01*
X43474Y13143D01*
Y13195D01*
X43527Y13090D02*
X43632D01*
X43789Y13195D02*
X43842Y13248D01*
X43947D01*
X43999Y13195D01*
Y13143D01*
X43947Y13090D01*
X43894D01*
X43947D01*
X43999Y13038D01*
Y12986D01*
X43947Y12933D01*
X43842D01*
X43789Y12986D01*
X24990Y22815D02*
Y22500D01*
X25148D01*
X25200Y22552D01*
Y22605D01*
X25148Y22657D01*
X24990D01*
X25148D01*
X25200Y22710D01*
Y22762D01*
X25148Y22815D01*
X24990D01*
X25305Y22500D02*
Y22710D01*
X25410Y22815D01*
X25515Y22710D01*
Y22500D01*
Y22657D01*
X25305D01*
X25620Y22815D02*
X25830D01*
X25725D01*
Y22500D01*
X25935D02*
X26040D01*
X25987D01*
Y22815D01*
X25935Y22762D01*
X11496Y31614D02*
X11181D01*
Y31772D01*
X11234Y31824D01*
X11339D01*
X11391Y31772D01*
Y31614D01*
Y31719D02*
X11496Y31824D01*
X11181Y31929D02*
Y32139D01*
X11234D01*
X11444Y31929D01*
X11496D01*
X11234Y32244D02*
X11181Y32296D01*
Y32401D01*
X11234Y32454D01*
X11286D01*
X11339Y32401D01*
Y32349D01*
Y32401D01*
X11391Y32454D01*
X11444D01*
X11496Y32401D01*
Y32296D01*
X11444Y32244D01*
X16791Y29321D02*
X16476D01*
Y29478D01*
X16529Y29531D01*
X16634D01*
X16686Y29478D01*
Y29321D01*
Y29426D02*
X16791Y29531D01*
X16476Y29636D02*
Y29846D01*
X16529D01*
X16739Y29636D01*
X16791D01*
X16529Y29951D02*
X16476Y30003D01*
Y30108D01*
X16529Y30160D01*
X16739D01*
X16791Y30108D01*
Y30003D01*
X16739Y29951D01*
X16529D01*
X19669Y28510D02*
X19616Y28563D01*
X19511D01*
X19459Y28510D01*
Y28301D01*
X19511Y28248D01*
X19616D01*
X19669Y28301D01*
X19774D02*
X19826Y28248D01*
X19931D01*
X19983Y28301D01*
Y28510D01*
X19931Y28563D01*
X19826D01*
X19774Y28510D01*
Y28458D01*
X19826Y28405D01*
X19983D01*
X20246Y28248D02*
Y28563D01*
X20088Y28405D01*
X20298D01*
X19833Y36427D02*
X20043Y36112D01*
Y36427D02*
X19833Y36112D01*
X20148D02*
Y36427D01*
X20305D01*
X20357Y36375D01*
Y36270D01*
X20305Y36217D01*
X20148D01*
X20462Y36427D02*
X20672D01*
Y36375D01*
X20462Y36165D01*
Y36112D01*
X22795Y13701D02*
X23110Y13911D01*
X22795D02*
X23110Y13701D01*
Y14016D02*
X22795D01*
Y14173D01*
X22848Y14226D01*
X22953D01*
X23005Y14173D01*
Y14016D01*
X23110Y14488D02*
X22795D01*
X22953Y14331D01*
Y14540D01*
X12283Y31171D02*
Y30961D01*
X12388Y30856D01*
X12493Y30961D01*
Y31171D01*
X12598D02*
Y30856D01*
X12756D01*
X12808Y30909D01*
Y31119D01*
X12756Y31171D01*
X12598D01*
X13123Y30856D02*
X12913D01*
X13123Y31066D01*
Y31119D01*
X13071Y31171D01*
X12966D01*
X12913Y31119D01*
X13438Y31171D02*
X13228D01*
Y31014D01*
X13333Y31066D01*
X13385D01*
X13438Y31014D01*
Y30909D01*
X13385Y30856D01*
X13281D01*
X13228Y30909D01*
X15748Y30709D02*
Y30499D01*
X15853Y30394D01*
X15958Y30499D01*
Y30709D01*
X16063D02*
Y30394D01*
X16220D01*
X16273Y30446D01*
Y30656D01*
X16220Y30709D01*
X16063D01*
X16378Y30394D02*
X16483D01*
X16430D01*
Y30709D01*
X16378Y30656D01*
X16640Y30446D02*
X16693Y30394D01*
X16798D01*
X16850Y30446D01*
Y30656D01*
X16798Y30709D01*
X16693D01*
X16640Y30656D01*
Y30604D01*
X16693Y30551D01*
X16850D01*
X12756Y33041D02*
Y32831D01*
X12861Y32726D01*
X12966Y32831D01*
Y33041D01*
X13071D02*
Y32726D01*
X13228D01*
X13281Y32779D01*
Y32989D01*
X13228Y33041D01*
X13071D01*
X13386Y32726D02*
X13491D01*
X13438D01*
Y33041D01*
X13386Y32989D01*
X13648Y33041D02*
X13858D01*
Y32989D01*
X13648Y32779D01*
Y32726D01*
X14606Y30935D02*
Y31250D01*
X14764D01*
X14816Y31197D01*
Y31092D01*
X14764Y31040D01*
X14606D01*
X14711D02*
X14816Y30935D01*
X14921Y31197D02*
X14974Y31250D01*
X15079D01*
X15131Y31197D01*
Y31145D01*
X15079Y31092D01*
X15131Y31040D01*
Y30988D01*
X15079Y30935D01*
X14974D01*
X14921Y30988D01*
Y31040D01*
X14974Y31092D01*
X14921Y31145D01*
Y31197D01*
X14974Y31092D02*
X15079D01*
X15446Y31250D02*
X15341Y31197D01*
X15236Y31092D01*
Y30988D01*
X15288Y30935D01*
X15393D01*
X15446Y30988D01*
Y31040D01*
X15393Y31092D01*
X15236D01*
X17274Y34754D02*
X16959D01*
Y34911D01*
X17011Y34964D01*
X17116D01*
X17169Y34911D01*
Y34754D01*
Y34859D02*
X17274Y34964D01*
X16959Y35069D02*
Y35279D01*
X17011D01*
X17221Y35069D01*
X17274D01*
X17221Y35384D02*
X17274Y35436D01*
Y35541D01*
X17221Y35594D01*
X17011D01*
X16959Y35541D01*
Y35436D01*
X17011Y35384D01*
X17064D01*
X17116Y35436D01*
Y35594D01*
X15512Y34646D02*
X15197D01*
Y34803D01*
X15249Y34856D01*
X15354D01*
X15407Y34803D01*
Y34646D01*
Y34751D02*
X15512Y34856D01*
X15197Y34961D02*
Y35170D01*
X15249D01*
X15459Y34961D01*
X15512D01*
X15197Y35485D02*
X15249Y35380D01*
X15354Y35275D01*
X15459D01*
X15512Y35328D01*
Y35433D01*
X15459Y35485D01*
X15407D01*
X15354Y35433D01*
Y35275D01*
X15571Y35728D02*
X15256D01*
Y35886D01*
X15308Y35938D01*
X15413D01*
X15466Y35886D01*
Y35728D01*
Y35833D02*
X15571Y35938D01*
X15256Y36253D02*
X15308Y36148D01*
X15413Y36043D01*
X15518D01*
X15571Y36096D01*
Y36201D01*
X15518Y36253D01*
X15466D01*
X15413Y36201D01*
Y36043D01*
X15518Y36358D02*
X15571Y36411D01*
Y36515D01*
X15518Y36568D01*
X15308D01*
X15256Y36515D01*
Y36411D01*
X15308Y36358D01*
X15361D01*
X15413Y36411D01*
Y36568D01*
X13852Y31079D02*
X13799Y31132D01*
X13694D01*
X13642Y31079D01*
Y30869D01*
X13694Y30817D01*
X13799D01*
X13852Y30869D01*
X13957Y31079D02*
X14009Y31132D01*
X14114D01*
X14167Y31079D01*
Y31027D01*
X14114Y30974D01*
X14167Y30922D01*
Y30869D01*
X14114Y30817D01*
X14009D01*
X13957Y30869D01*
Y30922D01*
X14009Y30974D01*
X13957Y31027D01*
Y31079D01*
X14009Y30974D02*
X14114D01*
X14481Y31132D02*
X14271D01*
Y30974D01*
X14376Y31027D01*
X14429D01*
X14481Y30974D01*
Y30869D01*
X14429Y30817D01*
X14324D01*
X14271Y30869D01*
X18074Y32602D02*
X18022Y32549D01*
Y32444D01*
X18074Y32392D01*
X18284D01*
X18337Y32444D01*
Y32549D01*
X18284Y32602D01*
X18074Y32707D02*
X18022Y32759D01*
Y32864D01*
X18074Y32917D01*
X18127D01*
X18179Y32864D01*
X18232Y32917D01*
X18284D01*
X18337Y32864D01*
Y32759D01*
X18284Y32707D01*
X18232D01*
X18179Y32759D01*
X18127Y32707D01*
X18074D01*
X18179Y32759D02*
Y32864D01*
X18337Y33179D02*
X18022D01*
X18179Y33021D01*
Y33231D01*
X14334Y33038D02*
X14281Y33090D01*
X14176D01*
X14124Y33038D01*
Y32828D01*
X14176Y32776D01*
X14281D01*
X14334Y32828D01*
X14439Y33038D02*
X14491Y33090D01*
X14596D01*
X14649Y33038D01*
Y32985D01*
X14596Y32933D01*
X14649Y32881D01*
Y32828D01*
X14596Y32776D01*
X14491D01*
X14439Y32828D01*
Y32881D01*
X14491Y32933D01*
X14439Y32985D01*
Y33038D01*
X14491Y32933D02*
X14596D01*
X14964Y32776D02*
X14754D01*
X14964Y32985D01*
Y33038D01*
X14911Y33090D01*
X14806D01*
X14754Y33038D01*
X12254Y29587D02*
X11939D01*
Y29744D01*
X11992Y29797D01*
X12097D01*
X12149Y29744D01*
Y29587D01*
Y29692D02*
X12254Y29797D01*
X11939Y30111D02*
X11992Y30006D01*
X12097Y29901D01*
X12201D01*
X12254Y29954D01*
Y30059D01*
X12201Y30111D01*
X12149D01*
X12097Y30059D01*
Y29901D01*
X11992Y30216D02*
X11939Y30269D01*
Y30374D01*
X11992Y30426D01*
X12044D01*
X12097Y30374D01*
X12149Y30426D01*
X12201D01*
X12254Y30374D01*
Y30269D01*
X12201Y30216D01*
X12149D01*
X12097Y30269D01*
X12044Y30216D01*
X11992D01*
X12097Y30269D02*
Y30374D01*
X38022Y5669D02*
Y5459D01*
X38127Y5354D01*
X38232Y5459D01*
Y5669D01*
X38337D02*
Y5354D01*
X38494D01*
X38546Y5407D01*
Y5617D01*
X38494Y5669D01*
X38337D01*
X38651Y5354D02*
X38756D01*
X38704D01*
Y5669D01*
X38651Y5617D01*
X39124Y5669D02*
X39019Y5617D01*
X38914Y5512D01*
Y5407D01*
X38966Y5354D01*
X39071D01*
X39124Y5407D01*
Y5459D01*
X39071Y5512D01*
X38914D01*
X38130Y7982D02*
Y8297D01*
X38287D01*
X38340Y8245D01*
Y8140D01*
X38287Y8087D01*
X38130D01*
X38235D02*
X38340Y7982D01*
X38655Y8297D02*
X38550Y8245D01*
X38445Y8140D01*
Y8035D01*
X38497Y7982D01*
X38602D01*
X38655Y8035D01*
Y8087D01*
X38602Y8140D01*
X38445D01*
X38760Y8297D02*
X38970D01*
Y8245D01*
X38760Y8035D01*
Y7982D01*
X36870Y7904D02*
X37185Y8113D01*
X36870D02*
X37185Y7904D01*
Y8218D02*
X36870D01*
Y8376D01*
X36923Y8428D01*
X37028D01*
X37080Y8376D01*
Y8218D01*
X37185Y8533D02*
Y8638D01*
Y8586D01*
X36870D01*
X36923Y8533D01*
X36870Y9006D02*
Y8796D01*
X37028D01*
X36975Y8901D01*
Y8953D01*
X37028Y9006D01*
X37133D01*
X37185Y8953D01*
Y8848D01*
X37133Y8796D01*
X47477Y9131D02*
X47687Y8816D01*
Y9131D02*
X47477Y8816D01*
X47792D02*
Y9131D01*
X47949D01*
X48002Y9079D01*
Y8974D01*
X47949Y8921D01*
X47792D01*
X48316Y9131D02*
X48211Y9079D01*
X48106Y8974D01*
Y8869D01*
X48159Y8816D01*
X48264D01*
X48316Y8869D01*
Y8921D01*
X48264Y8974D01*
X48106D01*
X28045Y22762D02*
X27992Y22815D01*
X27887D01*
X27835Y22762D01*
Y22552D01*
X27887Y22500D01*
X27992D01*
X28045Y22552D01*
X28149Y22762D02*
X28202Y22815D01*
X28307D01*
X28359Y22762D01*
Y22710D01*
X28307Y22657D01*
X28359Y22605D01*
Y22552D01*
X28307Y22500D01*
X28202D01*
X28149Y22552D01*
Y22605D01*
X28202Y22657D01*
X28149Y22710D01*
Y22762D01*
X28202Y22657D02*
X28307D01*
X28464Y22500D02*
X28569D01*
X28517D01*
Y22815D01*
X28464Y22762D01*
X21063Y14449D02*
Y14764D01*
X21168Y14659D01*
X21273Y14764D01*
Y14449D01*
X21378D02*
X21483D01*
X21430D01*
Y14764D01*
X21378Y14711D01*
X31929Y28996D02*
X31614D01*
Y29153D01*
X31667Y29206D01*
X31772D01*
X31824Y29153D01*
Y28996D01*
Y29101D02*
X31929Y29206D01*
X31877Y29311D02*
X31929Y29363D01*
Y29468D01*
X31877Y29521D01*
X31667D01*
X31614Y29468D01*
Y29363D01*
X31667Y29311D01*
X31719D01*
X31772Y29363D01*
Y29521D01*
X31667Y29626D02*
X31614Y29678D01*
Y29783D01*
X31667Y29836D01*
X31719D01*
X31772Y29783D01*
Y29731D01*
Y29783D01*
X31824Y29836D01*
X31877D01*
X31929Y29783D01*
Y29678D01*
X31877Y29626D01*
X31909Y30817D02*
X31595D01*
Y30974D01*
X31647Y31027D01*
X31752D01*
X31804Y30974D01*
Y30817D01*
Y30922D02*
X31909Y31027D01*
X31857Y31132D02*
X31909Y31184D01*
Y31289D01*
X31857Y31342D01*
X31647D01*
X31595Y31289D01*
Y31184D01*
X31647Y31132D01*
X31700D01*
X31752Y31184D01*
Y31342D01*
X31909Y31657D02*
Y31447D01*
X31700Y31657D01*
X31647D01*
X31595Y31604D01*
Y31499D01*
X31647Y31447D01*
X53615Y13038D02*
X53563Y13090D01*
X53458D01*
X53406Y13038D01*
Y12828D01*
X53458Y12776D01*
X53563D01*
X53615Y12828D01*
X53930Y12776D02*
X53720D01*
X53930Y12986D01*
Y13038D01*
X53878Y13090D01*
X53773D01*
X53720Y13038D01*
X54035D02*
X54088Y13090D01*
X54193D01*
X54245Y13038D01*
Y12828D01*
X54193Y12776D01*
X54088D01*
X54035Y12828D01*
Y13038D01*
X10837Y30502D02*
Y30187D01*
X11047D01*
X11361Y30502D02*
X11256Y30449D01*
X11151Y30344D01*
Y30239D01*
X11204Y30187D01*
X11309D01*
X11361Y30239D01*
Y30292D01*
X11309Y30344D01*
X11151D01*
X45108Y7362D02*
Y7677D01*
X45266D01*
X45318Y7625D01*
Y7520D01*
X45266Y7467D01*
X45108D01*
X45213D02*
X45318Y7362D01*
X45633Y7677D02*
X45528Y7625D01*
X45423Y7520D01*
Y7415D01*
X45476Y7362D01*
X45581D01*
X45633Y7415D01*
Y7467D01*
X45581Y7520D01*
X45423D01*
X25335Y26142D02*
Y26457D01*
X25492D01*
X25545Y26404D01*
Y26299D01*
X25492Y26247D01*
X25335D01*
X25440D02*
X25545Y26142D01*
X25649Y26404D02*
X25702Y26457D01*
X25807D01*
X25859Y26404D01*
Y26352D01*
X25807Y26299D01*
X25859Y26247D01*
Y26194D01*
X25807Y26142D01*
X25702D01*
X25649Y26194D01*
Y26247D01*
X25702Y26299D01*
X25649Y26352D01*
Y26404D01*
X25702Y26299D02*
X25807D01*
X25964Y26194D02*
X26017Y26142D01*
X26122D01*
X26174Y26194D01*
Y26404D01*
X26122Y26457D01*
X26017D01*
X25964Y26404D01*
Y26352D01*
X26017Y26299D01*
X26174D01*
X25335Y25463D02*
Y25777D01*
X25492D01*
X25545Y25725D01*
Y25620D01*
X25492Y25568D01*
X25335D01*
X25440D02*
X25545Y25463D01*
X25649Y25725D02*
X25702Y25777D01*
X25807D01*
X25859Y25725D01*
Y25673D01*
X25807Y25620D01*
X25859Y25568D01*
Y25515D01*
X25807Y25463D01*
X25702D01*
X25649Y25515D01*
Y25568D01*
X25702Y25620D01*
X25649Y25673D01*
Y25725D01*
X25702Y25620D02*
X25807D01*
X25964Y25725D02*
X26017Y25777D01*
X26122D01*
X26174Y25725D01*
Y25673D01*
X26122Y25620D01*
X26174Y25568D01*
Y25515D01*
X26122Y25463D01*
X26017D01*
X25964Y25515D01*
Y25568D01*
X26017Y25620D01*
X25964Y25673D01*
Y25725D01*
X26017Y25620D02*
X26122D01*
X27953Y24301D02*
Y23986D01*
X28110D01*
X28163Y24039D01*
Y24249D01*
X28110Y24301D01*
X27953D01*
X28268Y23986D02*
Y24196D01*
X28373Y24301D01*
X28478Y24196D01*
Y23986D01*
Y24144D01*
X28268D01*
X28792Y24301D02*
X28687Y24249D01*
X28582Y24144D01*
Y24039D01*
X28635Y23986D01*
X28740D01*
X28792Y24039D01*
Y24091D01*
X28740Y24144D01*
X28582D01*
X26588Y24455D02*
X26535Y24508D01*
X26430D01*
X26378Y24455D01*
Y24245D01*
X26430Y24193D01*
X26535D01*
X26588Y24245D01*
X26693D02*
X26745Y24193D01*
X26850D01*
X26903Y24245D01*
Y24455D01*
X26850Y24508D01*
X26745D01*
X26693Y24455D01*
Y24403D01*
X26745Y24350D01*
X26903D01*
X27008Y24455D02*
X27060Y24508D01*
X27165D01*
X27218Y24455D01*
Y24245D01*
X27165Y24193D01*
X27060D01*
X27008Y24245D01*
Y24455D01*
X29314Y23491D02*
X29262Y23543D01*
X29157D01*
X29104Y23491D01*
Y23281D01*
X29157Y23228D01*
X29262D01*
X29314Y23281D01*
X29419Y23491D02*
X29472Y23543D01*
X29577D01*
X29629Y23491D01*
Y23438D01*
X29577Y23386D01*
X29629Y23333D01*
Y23281D01*
X29577Y23228D01*
X29472D01*
X29419Y23281D01*
Y23333D01*
X29472Y23386D01*
X29419Y23438D01*
Y23491D01*
X29472Y23386D02*
X29577D01*
X29734Y23281D02*
X29787Y23228D01*
X29891D01*
X29944Y23281D01*
Y23491D01*
X29891Y23543D01*
X29787D01*
X29734Y23491D01*
Y23438D01*
X29787Y23386D01*
X29944D01*
X30062Y26365D02*
X30010Y26417D01*
X29905D01*
X29852Y26365D01*
Y26155D01*
X29905Y26102D01*
X30010D01*
X30062Y26155D01*
X30167Y26365D02*
X30220Y26417D01*
X30325D01*
X30377Y26365D01*
Y26312D01*
X30325Y26260D01*
X30377Y26207D01*
Y26155D01*
X30325Y26102D01*
X30220D01*
X30167Y26155D01*
Y26207D01*
X30220Y26260D01*
X30167Y26312D01*
Y26365D01*
X30220Y26260D02*
X30325D01*
X30482Y26365D02*
X30535Y26417D01*
X30640D01*
X30692Y26365D01*
Y26312D01*
X30640Y26260D01*
X30692Y26207D01*
Y26155D01*
X30640Y26102D01*
X30535D01*
X30482Y26155D01*
Y26207D01*
X30535Y26260D01*
X30482Y26312D01*
Y26365D01*
X30535Y26260D02*
X30640D01*
X13169Y29055D02*
Y28845D01*
X13274Y28740D01*
X13379Y28845D01*
Y29055D01*
X13484D02*
Y28740D01*
X13642D01*
X13694Y28793D01*
Y29003D01*
X13642Y29055D01*
X13484D01*
X14009Y28740D02*
X13799D01*
X14009Y28950D01*
Y29003D01*
X13956Y29055D01*
X13851D01*
X13799Y29003D01*
X14271Y28740D02*
Y29055D01*
X14114Y28898D01*
X14324D01*
X15463Y28730D02*
Y29045D01*
X15620D01*
X15673Y28993D01*
Y28888D01*
X15620Y28835D01*
X15463D01*
X15568D02*
X15673Y28730D01*
X15777Y28993D02*
X15830Y29045D01*
X15935D01*
X15987Y28993D01*
Y28940D01*
X15935Y28888D01*
X15987Y28835D01*
Y28783D01*
X15935Y28730D01*
X15830D01*
X15777Y28783D01*
Y28835D01*
X15830Y28888D01*
X15777Y28940D01*
Y28993D01*
X15830Y28888D02*
X15935D01*
X16092Y29045D02*
X16302D01*
Y28993D01*
X16092Y28783D01*
Y28730D01*
X14678Y28973D02*
X14626Y29025D01*
X14521D01*
X14468Y28973D01*
Y28763D01*
X14521Y28711D01*
X14626D01*
X14678Y28763D01*
X14783Y28973D02*
X14836Y29025D01*
X14941D01*
X14993Y28973D01*
Y28921D01*
X14941Y28868D01*
X14993Y28816D01*
Y28763D01*
X14941Y28711D01*
X14836D01*
X14783Y28763D01*
Y28816D01*
X14836Y28868D01*
X14783Y28921D01*
Y28973D01*
X14836Y28868D02*
X14941D01*
X15098Y29025D02*
X15308D01*
Y28973D01*
X15098Y28763D01*
Y28711D01*
X15082Y26421D02*
X15030Y26368D01*
Y26263D01*
X15082Y26211D01*
X15292D01*
X15344Y26263D01*
Y26368D01*
X15292Y26421D01*
X15082Y26525D02*
X15030Y26578D01*
Y26683D01*
X15082Y26735D01*
X15135D01*
X15187Y26683D01*
X15240Y26735D01*
X15292D01*
X15344Y26683D01*
Y26578D01*
X15292Y26525D01*
X15240D01*
X15187Y26578D01*
X15135Y26525D01*
X15082D01*
X15187Y26578D02*
Y26683D01*
X15030Y27050D02*
X15082Y26945D01*
X15187Y26840D01*
X15292D01*
X15344Y26893D01*
Y26998D01*
X15292Y27050D01*
X15240D01*
X15187Y26998D01*
Y26840D01*
X8583Y36644D02*
X8793Y36329D01*
Y36644D02*
X8583Y36329D01*
X8898D02*
Y36644D01*
X9055D01*
X9107Y36591D01*
Y36486D01*
X9055Y36434D01*
X8898D01*
X9212Y36329D02*
X9317D01*
X9265D01*
Y36644D01*
X9212Y36591D01*
X9632Y36329D02*
Y36644D01*
X9475Y36486D01*
X9685D01*
X4872Y36899D02*
X5082Y36585D01*
Y36899D02*
X4872Y36585D01*
X5187D02*
Y36899D01*
X5344D01*
X5397Y36847D01*
Y36742D01*
X5344Y36690D01*
X5187D01*
X5502Y36585D02*
X5607D01*
X5554D01*
Y36899D01*
X5502Y36847D01*
X5764D02*
X5817Y36899D01*
X5922D01*
X5974Y36847D01*
Y36795D01*
X5922Y36742D01*
X5869D01*
X5922D01*
X5974Y36690D01*
Y36637D01*
X5922Y36585D01*
X5817D01*
X5764Y36637D01*
X50043Y20943D02*
X50358Y21153D01*
X50043D02*
X50358Y20943D01*
Y21258D02*
X50043D01*
Y21416D01*
X50096Y21468D01*
X50201D01*
X50253Y21416D01*
Y21258D01*
X50043Y21783D02*
Y21573D01*
X50201D01*
X50148Y21678D01*
Y21730D01*
X50201Y21783D01*
X50306D01*
X50358Y21730D01*
Y21625D01*
X50306Y21573D01*
X51112Y34390D02*
X51427Y34600D01*
X51112D02*
X51427Y34390D01*
Y34705D02*
X51112D01*
Y34862D01*
X51165Y34915D01*
X51270D01*
X51322Y34862D01*
Y34705D01*
X51427Y35229D02*
Y35019D01*
X51217Y35229D01*
X51165D01*
X51112Y35177D01*
Y35072D01*
X51165Y35019D01*
X23189Y23927D02*
X23504Y24137D01*
X23189D02*
X23504Y23927D01*
Y24242D02*
X23189D01*
Y24399D01*
X23242Y24452D01*
X23347D01*
X23399Y24399D01*
Y24242D01*
X23504Y24557D02*
Y24662D01*
Y24609D01*
X23189D01*
X23242Y24557D01*
X51949Y22480D02*
X52159D01*
X52264Y22585D01*
X52159Y22690D01*
X51949D01*
Y22795D02*
Y23005D01*
Y22900D01*
X52264D01*
X51949Y23320D02*
X52001Y23215D01*
X52106Y23110D01*
X52211D01*
X52264Y23163D01*
Y23267D01*
X52211Y23320D01*
X52159D01*
X52106Y23267D01*
Y23110D01*
X55226Y22451D02*
X55436D01*
X55541Y22556D01*
X55436Y22661D01*
X55226D01*
Y22766D02*
Y22976D01*
Y22871D01*
X55541D01*
X55226Y23290D02*
Y23080D01*
X55384D01*
X55331Y23185D01*
Y23238D01*
X55384Y23290D01*
X55489D01*
X55541Y23238D01*
Y23133D01*
X55489Y23080D01*
X43632Y19242D02*
Y19032D01*
X43737Y18927D01*
X43842Y19032D01*
Y19242D01*
X43947D02*
X44157D01*
X44052D01*
Y18927D01*
X44419D02*
Y19242D01*
X44262Y19085D01*
X44472D01*
X46496Y18081D02*
X46706D01*
X46811Y18186D01*
X46706Y18291D01*
X46496D01*
Y18396D02*
Y18605D01*
Y18501D01*
X46811D01*
X46549Y18710D02*
X46496Y18763D01*
Y18868D01*
X46549Y18920D01*
X46601D01*
X46654Y18868D01*
Y18815D01*
Y18868D01*
X46706Y18920D01*
X46759D01*
X46811Y18868D01*
Y18763D01*
X46759Y18710D01*
X44242Y16358D02*
X44452D01*
X44557Y16463D01*
X44452Y16568D01*
X44242D01*
Y16673D02*
Y16883D01*
Y16778D01*
X44557D01*
Y17198D02*
Y16988D01*
X44347Y17198D01*
X44295D01*
X44242Y17145D01*
Y17040D01*
X44295Y16988D01*
X41043Y16447D02*
Y16237D01*
X41148Y16132D01*
X41253Y16237D01*
Y16447D01*
X41358D02*
X41568D01*
X41463D01*
Y16132D01*
X41673D02*
X41778D01*
X41726D01*
Y16447D01*
X41673Y16394D01*
X13514Y27018D02*
Y26808D01*
X13619Y26703D01*
X13724Y26808D01*
Y27018D01*
X13829D02*
Y26703D01*
X13986D01*
X14039Y26755D01*
Y26965D01*
X13986Y27018D01*
X13829D01*
X14353Y26703D02*
X14144D01*
X14353Y26913D01*
Y26965D01*
X14301Y27018D01*
X14196D01*
X14144Y26965D01*
X14668Y26703D02*
X14458D01*
X14668Y26913D01*
Y26965D01*
X14616Y27018D01*
X14511D01*
X14458Y26965D01*
X15718Y25787D02*
Y25577D01*
X15823Y25472D01*
X15928Y25577D01*
Y25787D01*
X16033D02*
Y25472D01*
X16191D01*
X16243Y25525D01*
Y25735D01*
X16191Y25787D01*
X16033D01*
X16558Y25472D02*
X16348D01*
X16558Y25682D01*
Y25735D01*
X16506Y25787D01*
X16401D01*
X16348Y25735D01*
X16663Y25472D02*
X16768D01*
X16716D01*
Y25787D01*
X16663Y25735D01*
X30256Y21791D02*
X30466D01*
X30571Y21896D01*
X30466Y22001D01*
X30256D01*
Y22106D02*
X30571D01*
Y22264D01*
X30518Y22316D01*
X30308D01*
X30256Y22264D01*
Y22106D01*
X30571Y22421D02*
Y22526D01*
Y22474D01*
X30256D01*
X30308Y22421D01*
X30256Y22893D02*
Y22683D01*
X30413D01*
X30361Y22788D01*
Y22841D01*
X30413Y22893D01*
X30518D01*
X30571Y22841D01*
Y22736D01*
X30518Y22683D01*
X16594Y24104D02*
Y23894D01*
X16699Y23789D01*
X16804Y23894D01*
Y24104D01*
X16909D02*
Y23789D01*
X17067D01*
X17119Y23842D01*
Y24052D01*
X17067Y24104D01*
X16909D01*
X17224Y24052D02*
X17277Y24104D01*
X17382D01*
X17434Y24052D01*
Y23999D01*
X17382Y23947D01*
X17434Y23894D01*
Y23842D01*
X17382Y23789D01*
X17277D01*
X17224Y23842D01*
Y23894D01*
X17277Y23947D01*
X17224Y23999D01*
Y24052D01*
X17277Y23947D02*
X17382D01*
X10108Y25010D02*
Y24800D01*
X10213Y24695D01*
X10318Y24800D01*
Y25010D01*
X10423D02*
Y24695D01*
X10581D01*
X10633Y24747D01*
Y24957D01*
X10581Y25010D01*
X10423D01*
X10738D02*
X10948D01*
Y24957D01*
X10738Y24747D01*
Y24695D01*
X44114Y5650D02*
Y5440D01*
X44219Y5335D01*
X44324Y5440D01*
Y5650D01*
X44429D02*
Y5335D01*
X44586D01*
X44639Y5387D01*
Y5597D01*
X44586Y5650D01*
X44429D01*
X44954D02*
X44744D01*
Y5492D01*
X44849Y5545D01*
X44901D01*
X44954Y5492D01*
Y5387D01*
X44901Y5335D01*
X44796D01*
X44744Y5387D01*
X13898Y37766D02*
Y37556D01*
X14003Y37451D01*
X14108Y37556D01*
Y37766D01*
X14212D02*
Y37451D01*
X14370D01*
X14422Y37503D01*
Y37713D01*
X14370Y37766D01*
X14212D01*
X14685Y37451D02*
Y37766D01*
X14527Y37608D01*
X14737D01*
X12096Y26407D02*
Y26722D01*
X12254D01*
X12306Y26670D01*
Y26565D01*
X12254Y26512D01*
X12096D01*
X12201D02*
X12306Y26407D01*
X12411Y26670D02*
X12464Y26722D01*
X12569D01*
X12621Y26670D01*
Y26617D01*
X12569Y26565D01*
X12621Y26512D01*
Y26460D01*
X12569Y26407D01*
X12464D01*
X12411Y26460D01*
Y26512D01*
X12464Y26565D01*
X12411Y26617D01*
Y26670D01*
X12464Y26565D02*
X12569D01*
X12936Y26722D02*
X12726D01*
Y26565D01*
X12831Y26617D01*
X12884D01*
X12936Y26565D01*
Y26460D01*
X12884Y26407D01*
X12779D01*
X12726Y26460D01*
X12343Y27638D02*
X12028D01*
Y27795D01*
X12080Y27848D01*
X12185D01*
X12238Y27795D01*
Y27638D01*
Y27743D02*
X12343Y27848D01*
X12080Y27953D02*
X12028Y28005D01*
Y28110D01*
X12080Y28163D01*
X12133D01*
X12185Y28110D01*
X12238Y28163D01*
X12290D01*
X12343Y28110D01*
Y28005D01*
X12290Y27953D01*
X12238D01*
X12185Y28005D01*
X12133Y27953D01*
X12080D01*
X12185Y28005D02*
Y28110D01*
X12343Y28425D02*
X12028D01*
X12185Y28268D01*
Y28477D01*
X31939Y33376D02*
X31624D01*
Y33533D01*
X31677Y33586D01*
X31782D01*
X31834Y33533D01*
Y33376D01*
Y33481D02*
X31939Y33586D01*
X31624Y33901D02*
X31677Y33796D01*
X31782Y33691D01*
X31886D01*
X31939Y33743D01*
Y33848D01*
X31886Y33901D01*
X31834D01*
X31782Y33848D01*
Y33691D01*
X31939Y34216D02*
Y34006D01*
X31729Y34216D01*
X31677D01*
X31624Y34163D01*
Y34058D01*
X31677Y34006D01*
X31900Y31644D02*
X31585D01*
Y31801D01*
X31637Y31854D01*
X31742D01*
X31795Y31801D01*
Y31644D01*
Y31749D02*
X31900Y31854D01*
X31585Y32168D02*
X31637Y32064D01*
X31742Y31959D01*
X31847D01*
X31900Y32011D01*
Y32116D01*
X31847Y32168D01*
X31795D01*
X31742Y32116D01*
Y31959D01*
X31900Y32273D02*
Y32378D01*
Y32326D01*
X31585D01*
X31637Y32273D01*
X20748Y33996D02*
Y34311D01*
X20905D01*
X20958Y34258D01*
Y34153D01*
X20905Y34101D01*
X20748D01*
X20853D02*
X20958Y33996D01*
X21273Y34311D02*
X21168Y34258D01*
X21063Y34153D01*
Y34049D01*
X21115Y33996D01*
X21220D01*
X21273Y34049D01*
Y34101D01*
X21220Y34153D01*
X21063D01*
X21378Y34258D02*
X21430Y34311D01*
X21535D01*
X21588Y34258D01*
Y34049D01*
X21535Y33996D01*
X21430D01*
X21378Y34049D01*
Y34258D01*
X19311Y32146D02*
X18996D01*
Y32303D01*
X19049Y32356D01*
X19154D01*
X19206Y32303D01*
Y32146D01*
Y32251D02*
X19311Y32356D01*
X18996Y32670D02*
Y32461D01*
X19154D01*
X19101Y32565D01*
Y32618D01*
X19154Y32670D01*
X19259D01*
X19311Y32618D01*
Y32513D01*
X19259Y32461D01*
Y32775D02*
X19311Y32828D01*
Y32933D01*
X19259Y32985D01*
X19049D01*
X18996Y32933D01*
Y32828D01*
X19049Y32775D01*
X19101D01*
X19154Y32828D01*
Y32985D01*
X45522Y24970D02*
Y25285D01*
X45679D01*
X45732Y25233D01*
Y25128D01*
X45679Y25075D01*
X45522D01*
X45627D02*
X45732Y24970D01*
X46046Y25285D02*
X45837D01*
Y25128D01*
X45941Y25180D01*
X45994D01*
X46046Y25128D01*
Y25023D01*
X45994Y24970D01*
X45889D01*
X45837Y25023D01*
X46309Y24970D02*
Y25285D01*
X46151Y25128D01*
X46361D01*
X32018Y21781D02*
Y22096D01*
X32175D01*
X32228Y22044D01*
Y21939D01*
X32175Y21886D01*
X32018D01*
X32123D02*
X32228Y21781D01*
X32542Y22096D02*
X32333D01*
Y21939D01*
X32438Y21991D01*
X32490D01*
X32542Y21939D01*
Y21834D01*
X32490Y21781D01*
X32385D01*
X32333Y21834D01*
X32647Y22044D02*
X32700Y22096D01*
X32805D01*
X32857Y22044D01*
Y21991D01*
X32805Y21939D01*
X32752D01*
X32805D01*
X32857Y21886D01*
Y21834D01*
X32805Y21781D01*
X32700D01*
X32647Y21834D01*
X30866Y21781D02*
Y22096D01*
X31024D01*
X31076Y22044D01*
Y21939D01*
X31024Y21886D01*
X30866D01*
X30971D02*
X31076Y21781D01*
X31391Y22096D02*
X31181D01*
Y21939D01*
X31286Y21991D01*
X31338D01*
X31391Y21939D01*
Y21834D01*
X31338Y21781D01*
X31233D01*
X31181Y21834D01*
X31706Y21781D02*
X31496D01*
X31706Y21991D01*
Y22044D01*
X31653Y22096D01*
X31548D01*
X31496Y22044D01*
X15285Y20866D02*
Y21181D01*
X15443D01*
X15495Y21129D01*
Y21024D01*
X15443Y20971D01*
X15285D01*
X15390D02*
X15495Y20866D01*
X15600Y21129D02*
X15653Y21181D01*
X15758D01*
X15810Y21129D01*
Y21076D01*
X15758Y21024D01*
X15705D01*
X15758D01*
X15810Y20971D01*
Y20919D01*
X15758Y20866D01*
X15653D01*
X15600Y20919D01*
X15915Y21129D02*
X15968Y21181D01*
X16073D01*
X16125Y21129D01*
Y21076D01*
X16073Y21024D01*
X16020D01*
X16073D01*
X16125Y20971D01*
Y20919D01*
X16073Y20866D01*
X15968D01*
X15915Y20919D01*
X14124Y20876D02*
Y21191D01*
X14281D01*
X14334Y21138D01*
Y21033D01*
X14281Y20981D01*
X14124D01*
X14229D02*
X14334Y20876D01*
X14439Y21138D02*
X14491Y21191D01*
X14596D01*
X14649Y21138D01*
Y21086D01*
X14596Y21033D01*
X14544D01*
X14596D01*
X14649Y20981D01*
Y20928D01*
X14596Y20876D01*
X14491D01*
X14439Y20928D01*
X14964Y20876D02*
X14754D01*
X14964Y21086D01*
Y21138D01*
X14911Y21191D01*
X14806D01*
X14754Y21138D01*
X18543Y21348D02*
Y21663D01*
X18701D01*
X18753Y21611D01*
Y21506D01*
X18701Y21453D01*
X18543D01*
X18648D02*
X18753Y21348D01*
X18858Y21611D02*
X18911Y21663D01*
X19016D01*
X19068Y21611D01*
Y21558D01*
X19016Y21506D01*
X18963D01*
X19016D01*
X19068Y21453D01*
Y21401D01*
X19016Y21348D01*
X18911D01*
X18858Y21401D01*
X19173Y21348D02*
X19278D01*
X19225D01*
Y21663D01*
X19173Y21611D01*
X20610Y20197D02*
X20295D01*
Y20354D01*
X20348Y20407D01*
X20453D01*
X20505Y20354D01*
Y20197D01*
Y20302D02*
X20610Y20407D01*
X20348Y20512D02*
X20295Y20564D01*
Y20669D01*
X20348Y20722D01*
X20400D01*
X20453Y20669D01*
Y20617D01*
Y20669D01*
X20505Y20722D01*
X20558D01*
X20610Y20669D01*
Y20564D01*
X20558Y20512D01*
X20348Y20827D02*
X20295Y20879D01*
Y20984D01*
X20348Y21036D01*
X20558D01*
X20610Y20984D01*
Y20879D01*
X20558Y20827D01*
X20348D01*
X16880Y19783D02*
Y20098D01*
X17037D01*
X17090Y20046D01*
Y19941D01*
X17037Y19888D01*
X16880D01*
X16985D02*
X17090Y19783D01*
X17405D02*
X17195D01*
X17405Y19993D01*
Y20046D01*
X17352Y20098D01*
X17247D01*
X17195Y20046D01*
X17510Y19836D02*
X17562Y19783D01*
X17667D01*
X17720Y19836D01*
Y20046D01*
X17667Y20098D01*
X17562D01*
X17510Y20046D01*
Y19993D01*
X17562Y19941D01*
X17720D01*
X19931Y20177D02*
X19616D01*
Y20335D01*
X19669Y20387D01*
X19774D01*
X19826Y20335D01*
Y20177D01*
Y20282D02*
X19931Y20387D01*
Y20702D02*
Y20492D01*
X19721Y20702D01*
X19669D01*
X19616Y20649D01*
Y20545D01*
X19669Y20492D01*
Y20807D02*
X19616Y20859D01*
Y20964D01*
X19669Y21017D01*
X19721D01*
X19774Y20964D01*
X19826Y21017D01*
X19879D01*
X19931Y20964D01*
Y20859D01*
X19879Y20807D01*
X19826D01*
X19774Y20859D01*
X19721Y20807D01*
X19669D01*
X19774Y20859D02*
Y20964D01*
X12963Y20886D02*
Y21201D01*
X13120D01*
X13173Y21148D01*
Y21043D01*
X13120Y20991D01*
X12963D01*
X13068D02*
X13173Y20886D01*
X13487D02*
X13277D01*
X13487Y21096D01*
Y21148D01*
X13435Y21201D01*
X13330D01*
X13277Y21148D01*
X13592Y21201D02*
X13802D01*
Y21148D01*
X13592Y20938D01*
Y20886D01*
X53022Y21152D02*
X52707D01*
Y21309D01*
X52759Y21361D01*
X52864D01*
X52917Y21309D01*
Y21152D01*
Y21257D02*
X53022Y21361D01*
Y21676D02*
Y21466D01*
X52812Y21676D01*
X52759D01*
X52707Y21624D01*
Y21519D01*
X52759Y21466D01*
X53022Y21939D02*
X52707D01*
X52864Y21781D01*
Y21991D01*
X18238Y7411D02*
X17923D01*
Y7569D01*
X17976Y7621D01*
X18081D01*
X18133Y7569D01*
Y7411D01*
Y7516D02*
X18238Y7621D01*
Y7936D02*
Y7726D01*
X18028Y7936D01*
X17976D01*
X17923Y7884D01*
Y7779D01*
X17976Y7726D01*
Y8041D02*
X17923Y8094D01*
Y8199D01*
X17976Y8251D01*
X18028D01*
X18081Y8199D01*
Y8146D01*
Y8199D01*
X18133Y8251D01*
X18186D01*
X18238Y8199D01*
Y8094D01*
X18186Y8041D01*
X18179Y5167D02*
Y5482D01*
X18337D01*
X18389Y5430D01*
Y5325D01*
X18337Y5272D01*
X18179D01*
X18284D02*
X18389Y5167D01*
X18704D02*
X18494D01*
X18704Y5377D01*
Y5430D01*
X18651Y5482D01*
X18546D01*
X18494Y5430D01*
X19019Y5167D02*
X18809D01*
X19019Y5377D01*
Y5430D01*
X18966Y5482D01*
X18861D01*
X18809Y5430D01*
X18642Y8917D02*
Y9232D01*
X18799D01*
X18852Y9180D01*
Y9075D01*
X18799Y9022D01*
X18642D01*
X18747D02*
X18852Y8917D01*
X19167D02*
X18957D01*
X19167Y9127D01*
Y9180D01*
X19114Y9232D01*
X19009D01*
X18957Y9180D01*
X19272D02*
X19324Y9232D01*
X19429D01*
X19482Y9180D01*
Y8970D01*
X19429Y8917D01*
X19324D01*
X19272Y8970D01*
Y9180D01*
X42835Y19527D02*
Y19842D01*
X42992D01*
X43045Y19790D01*
Y19685D01*
X42992Y19632D01*
X42835D01*
X42940D02*
X43045Y19527D01*
X43150D02*
X43255D01*
X43202D01*
Y19842D01*
X43150Y19790D01*
X43412Y19580D02*
X43464Y19527D01*
X43569D01*
X43622Y19580D01*
Y19790D01*
X43569Y19842D01*
X43464D01*
X43412Y19790D01*
Y19737D01*
X43464Y19685D01*
X43622D01*
X46457Y17234D02*
Y17549D01*
X46614D01*
X46667Y17497D01*
Y17392D01*
X46614Y17339D01*
X46457D01*
X46562D02*
X46667Y17234D01*
X46772D02*
X46877D01*
X46824D01*
Y17549D01*
X46772Y17497D01*
X47034D02*
X47086Y17549D01*
X47191D01*
X47244Y17497D01*
Y17444D01*
X47191Y17392D01*
X47244Y17339D01*
Y17287D01*
X47191Y17234D01*
X47086D01*
X47034Y17287D01*
Y17339D01*
X47086Y17392D01*
X47034Y17444D01*
Y17497D01*
X47086Y17392D02*
X47191D01*
X48051Y18445D02*
X47736D01*
Y18602D01*
X47789Y18655D01*
X47894D01*
X47946Y18602D01*
Y18445D01*
Y18550D02*
X48051Y18655D01*
Y18760D02*
Y18865D01*
Y18812D01*
X47736D01*
X47789Y18760D01*
X47736Y19022D02*
Y19232D01*
X47789D01*
X47999Y19022D01*
X48051D01*
X44094Y15354D02*
Y15669D01*
X44252D01*
X44304Y15617D01*
Y15512D01*
X44252Y15459D01*
X44094D01*
X44199D02*
X44304Y15354D01*
X44409D02*
X44514D01*
X44462D01*
Y15669D01*
X44409Y15617D01*
X44882Y15669D02*
X44777Y15617D01*
X44672Y15512D01*
Y15407D01*
X44724Y15354D01*
X44829D01*
X44882Y15407D01*
Y15459D01*
X44829Y15512D01*
X44672D01*
X40591Y17854D02*
Y18169D01*
X40748D01*
X40800Y18117D01*
Y18012D01*
X40748Y17959D01*
X40591D01*
X40696D02*
X40800Y17854D01*
X40905D02*
X41010D01*
X40958D01*
Y18169D01*
X40905Y18117D01*
X41378Y18169D02*
X41168D01*
Y18012D01*
X41273Y18064D01*
X41325D01*
X41378Y18012D01*
Y17907D01*
X41325Y17854D01*
X41220D01*
X41168Y17907D01*
X40571Y22854D02*
X40256D01*
Y23012D01*
X40308Y23064D01*
X40413D01*
X40466Y23012D01*
Y22854D01*
Y22959D02*
X40571Y23064D01*
Y23169D02*
Y23274D01*
Y23222D01*
X40256D01*
X40308Y23169D01*
X40571Y23589D02*
X40256D01*
X40413Y23432D01*
Y23641D01*
X38012Y21732D02*
Y22047D01*
X38169D01*
X38222Y21995D01*
Y21890D01*
X38169Y21837D01*
X38012D01*
X38117D02*
X38222Y21732D01*
X38327D02*
X38432D01*
X38379D01*
Y22047D01*
X38327Y21995D01*
X38589D02*
X38642Y22047D01*
X38746D01*
X38799Y21995D01*
Y21942D01*
X38746Y21890D01*
X38694D01*
X38746D01*
X38799Y21837D01*
Y21785D01*
X38746Y21732D01*
X38642D01*
X38589Y21785D01*
X36969Y21398D02*
Y21713D01*
X37126D01*
X37178Y21660D01*
Y21555D01*
X37126Y21503D01*
X36969D01*
X37073D02*
X37178Y21398D01*
X37283D02*
X37388D01*
X37336D01*
Y21713D01*
X37283Y21660D01*
X37756Y21398D02*
X37546D01*
X37756Y21608D01*
Y21660D01*
X37703Y21713D01*
X37598D01*
X37546Y21660D01*
X54026Y21014D02*
Y21329D01*
X54183D01*
X54235Y21276D01*
Y21171D01*
X54183Y21119D01*
X54026D01*
X54131D02*
X54235Y21014D01*
X54340D02*
X54445D01*
X54393D01*
Y21329D01*
X54340Y21276D01*
X54603Y21014D02*
X54708D01*
X54655D01*
Y21329D01*
X54603Y21276D01*
X24606Y17175D02*
Y17490D01*
X24764D01*
X24816Y17438D01*
Y17333D01*
X24764Y17280D01*
X24606D01*
X24711D02*
X24816Y17175D01*
X24921D02*
X25026D01*
X24974D01*
Y17490D01*
X24921Y17438D01*
X25184D02*
X25236Y17490D01*
X25341D01*
X25393Y17438D01*
Y17228D01*
X25341Y17175D01*
X25236D01*
X25184Y17228D01*
Y17438D01*
X12274Y33612D02*
X11959D01*
Y33770D01*
X12011Y33822D01*
X12116D01*
X12169Y33770D01*
Y33612D01*
Y33717D02*
X12274Y33822D01*
X12221Y33927D02*
X12274Y33980D01*
Y34084D01*
X12221Y34137D01*
X12011D01*
X11959Y34084D01*
Y33980D01*
X12011Y33927D01*
X12064D01*
X12116Y33980D01*
Y34137D01*
X25778Y24350D02*
X25463D01*
Y24508D01*
X25515Y24560D01*
X25620D01*
X25673Y24508D01*
Y24350D01*
Y24455D02*
X25778Y24560D01*
X25515Y24665D02*
X25463Y24718D01*
Y24823D01*
X25515Y24875D01*
X25568D01*
X25620Y24823D01*
X25673Y24875D01*
X25725D01*
X25778Y24823D01*
Y24718D01*
X25725Y24665D01*
X25673D01*
X25620Y24718D01*
X25568Y24665D01*
X25515D01*
X25620Y24718D02*
Y24823D01*
X25128Y18425D02*
X24813D01*
Y18583D01*
X24866Y18635D01*
X24971D01*
X25023Y18583D01*
Y18425D01*
Y18530D02*
X25128Y18635D01*
X24813Y18740D02*
Y18950D01*
X24866D01*
X25075Y18740D01*
X25128D01*
X53868Y19813D02*
Y20128D01*
X54026D01*
X54078Y20075D01*
Y19970D01*
X54026Y19918D01*
X53868D01*
X53973D02*
X54078Y19813D01*
X54393D02*
X54183D01*
X54393Y20023D01*
Y20075D01*
X54340Y20128D01*
X54235D01*
X54183Y20075D01*
X53973Y16949D02*
Y17264D01*
X54130D01*
X54183Y17211D01*
Y17106D01*
X54130Y17054D01*
X53973D01*
X54078D02*
X54183Y16949D01*
X54288D02*
X54393D01*
X54340D01*
Y17264D01*
X54288Y17211D01*
X49652Y26371D02*
X49442D01*
X49390Y26319D01*
Y26214D01*
X49442Y26161D01*
X49652D01*
X49705Y26214D01*
Y26319D01*
X49600Y26266D02*
X49705Y26371D01*
Y26319D02*
X49652Y26371D01*
X49705Y26476D02*
X49390D01*
Y26634D01*
X49442Y26686D01*
X49547D01*
X49600Y26634D01*
Y26476D01*
Y26581D02*
X49705Y26686D01*
X49442Y26791D02*
X49390Y26844D01*
Y26949D01*
X49442Y27001D01*
X49495D01*
X49547Y26949D01*
Y26896D01*
Y26949D01*
X49600Y27001D01*
X49652D01*
X49705Y26949D01*
Y26844D01*
X49652Y26791D01*
X32277Y26204D02*
Y26414D01*
X32224Y26466D01*
X32119D01*
X32067Y26414D01*
Y26204D01*
X32119Y26152D01*
X32224D01*
X32172Y26257D02*
X32277Y26152D01*
X32224D02*
X32277Y26204D01*
X32382Y26152D02*
Y26466D01*
X32539D01*
X32592Y26414D01*
Y26309D01*
X32539Y26257D01*
X32382D01*
X32487D02*
X32592Y26152D01*
X32907D02*
X32697D01*
X32907Y26361D01*
Y26414D01*
X32854Y26466D01*
X32749D01*
X32697Y26414D01*
X27054Y19019D02*
X26844D01*
X26791Y18966D01*
Y18862D01*
X26844Y18809D01*
X27054D01*
X27106Y18862D01*
Y18966D01*
X27001Y18914D02*
X27106Y19019D01*
Y18966D02*
X27054Y19019D01*
X27106Y19124D02*
X26791D01*
Y19281D01*
X26844Y19334D01*
X26949D01*
X27001Y19281D01*
Y19124D01*
Y19229D02*
X27106Y19334D01*
Y19439D02*
Y19544D01*
Y19491D01*
X26791D01*
X26844Y19439D01*
X48179Y23602D02*
X48494D01*
Y23812D01*
Y24075D02*
X48179D01*
X48337Y23917D01*
Y24127D01*
X15679Y17313D02*
Y16998D01*
X15889D01*
X15994Y17260D02*
X16046Y17313D01*
X16151D01*
X16204Y17260D01*
Y17208D01*
X16151Y17155D01*
X16099D01*
X16151D01*
X16204Y17103D01*
Y17051D01*
X16151Y16998D01*
X16046D01*
X15994Y17051D01*
X15699Y13435D02*
Y13120D01*
X15909D01*
X16224D02*
X16014D01*
X16224Y13330D01*
Y13382D01*
X16171Y13435D01*
X16066D01*
X16014Y13382D01*
X40108Y17657D02*
Y17343D01*
X40318D01*
X40423D02*
X40528D01*
X40476D01*
Y17657D01*
X40423Y17605D01*
X1762Y28901D02*
Y28691D01*
X1919D01*
Y28796D01*
Y28691D01*
X2077D01*
X1762Y29006D02*
X2024D01*
X2077Y29058D01*
Y29163D01*
X2024Y29216D01*
X1762D01*
X2077Y29478D02*
X1762D01*
X1919Y29321D01*
Y29531D01*
X10325Y34806D02*
Y34596D01*
X10482D01*
Y34701D01*
Y34596D01*
X10640D01*
X10325Y34911D02*
X10587D01*
X10640Y34964D01*
Y35069D01*
X10587Y35121D01*
X10325D01*
X10640Y35436D02*
Y35226D01*
X10430Y35436D01*
X10377D01*
X10325Y35384D01*
Y35279D01*
X10377Y35226D01*
X13241Y37510D02*
X13032D01*
Y37352D01*
X13136D01*
X13032D01*
Y37195D01*
X13346Y37510D02*
Y37247D01*
X13399Y37195D01*
X13504D01*
X13556Y37247D01*
Y37510D01*
X13661Y37195D02*
X13766D01*
X13714D01*
Y37510D01*
X13661Y37457D01*
X44695Y26781D02*
X45010D01*
Y26939D01*
X44957Y26991D01*
X44747D01*
X44695Y26939D01*
Y26781D01*
Y27096D02*
X45010D01*
Y27254D01*
X44957Y27306D01*
X44747D01*
X44695Y27254D01*
Y27096D01*
X45010Y27569D02*
X44695D01*
X44852Y27411D01*
Y27621D01*
X33420Y23632D02*
Y23317D01*
X33578D01*
X33630Y23369D01*
Y23579D01*
X33578Y23632D01*
X33420D01*
X33735D02*
Y23317D01*
X33893D01*
X33945Y23369D01*
Y23579D01*
X33893Y23632D01*
X33735D01*
X34050Y23579D02*
X34103Y23632D01*
X34208D01*
X34260Y23579D01*
Y23527D01*
X34208Y23474D01*
X34155D01*
X34208D01*
X34260Y23422D01*
Y23369D01*
X34208Y23317D01*
X34103D01*
X34050Y23369D01*
X31707Y18403D02*
X32022D01*
Y18560D01*
X31969Y18613D01*
X31759D01*
X31707Y18560D01*
Y18403D01*
Y18718D02*
X32022D01*
Y18875D01*
X31969Y18928D01*
X31759D01*
X31707Y18875D01*
Y18718D01*
X32022Y19242D02*
Y19032D01*
X31812Y19242D01*
X31759D01*
X31707Y19190D01*
Y19085D01*
X31759Y19032D01*
X27126Y20699D02*
Y20384D01*
X27283D01*
X27336Y20436D01*
Y20646D01*
X27283Y20699D01*
X27126D01*
X27441D02*
Y20384D01*
X27598D01*
X27651Y20436D01*
Y20646D01*
X27598Y20699D01*
X27441D01*
X27756Y20384D02*
X27861D01*
X27808D01*
Y20699D01*
X27756Y20646D01*
X16506Y18474D02*
Y18159D01*
X16663D01*
X16716Y18212D01*
Y18422D01*
X16663Y18474D01*
X16506D01*
X16821Y18159D02*
Y18369D01*
X16926Y18474D01*
X17031Y18369D01*
Y18159D01*
Y18317D01*
X16821D01*
X17293Y18159D02*
Y18474D01*
X17136Y18317D01*
X17346D01*
X16240Y9045D02*
X16555D01*
Y9203D01*
X16503Y9255D01*
X16293D01*
X16240Y9203D01*
Y9045D01*
X16555Y9360D02*
X16345D01*
X16240Y9465D01*
X16345Y9570D01*
X16555D01*
X16398D01*
Y9360D01*
X16293Y9675D02*
X16240Y9727D01*
Y9832D01*
X16293Y9885D01*
X16345D01*
X16398Y9832D01*
Y9780D01*
Y9832D01*
X16450Y9885D01*
X16503D01*
X16555Y9832D01*
Y9727D01*
X16503Y9675D01*
X40226Y19409D02*
X40541D01*
Y19567D01*
X40489Y19619D01*
X40279D01*
X40226Y19567D01*
Y19409D01*
X40541Y19724D02*
X40331D01*
X40226Y19829D01*
X40331Y19934D01*
X40541D01*
X40384D01*
Y19724D01*
X40541Y20249D02*
Y20039D01*
X40331Y20249D01*
X40279D01*
X40226Y20197D01*
Y20092D01*
X40279Y20039D01*
X30466Y30755D02*
X30413Y30807D01*
X30308D01*
X30256Y30755D01*
Y30545D01*
X30308Y30492D01*
X30413D01*
X30466Y30545D01*
X30571Y30807D02*
X30781D01*
Y30755D01*
X30571Y30545D01*
Y30492D01*
X30886Y30807D02*
X31096D01*
Y30755D01*
X30886Y30545D01*
Y30492D01*
X30485Y29534D02*
X30433Y29587D01*
X30328D01*
X30276Y29534D01*
Y29324D01*
X30328Y29272D01*
X30433D01*
X30485Y29324D01*
X30590Y29587D02*
X30800D01*
Y29534D01*
X30590Y29324D01*
Y29272D01*
X31115Y29587D02*
X31010Y29534D01*
X30905Y29429D01*
Y29324D01*
X30958Y29272D01*
X31063D01*
X31115Y29324D01*
Y29377D01*
X31063Y29429D01*
X30905D01*
X42031Y31768D02*
X41978Y31821D01*
X41873D01*
X41821Y31768D01*
Y31558D01*
X41873Y31506D01*
X41978D01*
X42031Y31558D01*
X42136Y31821D02*
X42346D01*
Y31768D01*
X42136Y31558D01*
Y31506D01*
X42660Y31821D02*
X42451D01*
Y31663D01*
X42556Y31716D01*
X42608D01*
X42660Y31663D01*
Y31558D01*
X42608Y31506D01*
X42503D01*
X42451Y31558D01*
X42100Y32959D02*
X42047Y33012D01*
X41942D01*
X41890Y32959D01*
Y32749D01*
X41942Y32697D01*
X42047D01*
X42100Y32749D01*
X42205Y33012D02*
X42415D01*
Y32959D01*
X42205Y32749D01*
Y32697D01*
X42677D02*
Y33012D01*
X42519Y32854D01*
X42729D01*
X30417Y33058D02*
X30364Y33110D01*
X30259D01*
X30207Y33058D01*
Y32848D01*
X30259Y32795D01*
X30364D01*
X30417Y32848D01*
X30522Y33110D02*
X30731D01*
Y33058D01*
X30522Y32848D01*
Y32795D01*
X30836Y33058D02*
X30889Y33110D01*
X30994D01*
X31046Y33058D01*
Y33005D01*
X30994Y32953D01*
X30941D01*
X30994D01*
X31046Y32900D01*
Y32848D01*
X30994Y32795D01*
X30889D01*
X30836Y32848D01*
X30466Y34150D02*
X30413Y34203D01*
X30308D01*
X30256Y34150D01*
Y33940D01*
X30308Y33888D01*
X30413D01*
X30466Y33940D01*
X30571Y34203D02*
X30781D01*
Y34150D01*
X30571Y33940D01*
Y33888D01*
X31096D02*
X30886D01*
X31096Y34098D01*
Y34150D01*
X31043Y34203D01*
X30938D01*
X30886Y34150D01*
X33527Y32798D02*
X33475Y32746D01*
Y32641D01*
X33527Y32589D01*
X33737D01*
X33789Y32641D01*
Y32746D01*
X33737Y32798D01*
X33475Y32903D02*
Y33113D01*
X33527D01*
X33737Y32903D01*
X33789D01*
Y33218D02*
Y33323D01*
Y33271D01*
X33475D01*
X33527Y33218D01*
X19098Y33379D02*
X19045Y33327D01*
Y33222D01*
X19098Y33169D01*
X19308D01*
X19360Y33222D01*
Y33327D01*
X19308Y33379D01*
X19045Y33484D02*
Y33694D01*
X19098D01*
X19308Y33484D01*
X19360D01*
X19098Y33799D02*
X19045Y33851D01*
Y33956D01*
X19098Y34009D01*
X19308D01*
X19360Y33956D01*
Y33851D01*
X19308Y33799D01*
X19098D01*
X51854Y27447D02*
X51801Y27500D01*
X51696D01*
X51644Y27447D01*
Y27238D01*
X51696Y27185D01*
X51801D01*
X51854Y27238D01*
X52168Y27500D02*
X52064Y27447D01*
X51959Y27342D01*
Y27238D01*
X52011Y27185D01*
X52116D01*
X52168Y27238D01*
Y27290D01*
X52116Y27342D01*
X51959D01*
X52273Y27447D02*
X52326Y27500D01*
X52431D01*
X52483Y27447D01*
Y27238D01*
X52431Y27185D01*
X52326D01*
X52273Y27238D01*
Y27447D01*
X51795Y25656D02*
X51742Y25709D01*
X51637D01*
X51585Y25656D01*
Y25446D01*
X51637Y25394D01*
X51742D01*
X51795Y25446D01*
X52109Y25709D02*
X51899D01*
Y25551D01*
X52004Y25604D01*
X52057D01*
X52109Y25551D01*
Y25446D01*
X52057Y25394D01*
X51952D01*
X51899Y25446D01*
X52214D02*
X52267Y25394D01*
X52372D01*
X52424Y25446D01*
Y25656D01*
X52372Y25709D01*
X52267D01*
X52214Y25656D01*
Y25604D01*
X52267Y25551D01*
X52424D01*
X46716Y24314D02*
X46663Y24262D01*
Y24157D01*
X46716Y24104D01*
X46926D01*
X46978Y24157D01*
Y24262D01*
X46926Y24314D01*
X46663Y24629D02*
Y24419D01*
X46821D01*
X46768Y24524D01*
Y24577D01*
X46821Y24629D01*
X46926D01*
X46978Y24577D01*
Y24472D01*
X46926Y24419D01*
X46663Y24944D02*
X46716Y24839D01*
X46821Y24734D01*
X46926D01*
X46978Y24787D01*
Y24891D01*
X46926Y24944D01*
X46873D01*
X46821Y24891D01*
Y24734D01*
X43330Y25784D02*
X43278Y25837D01*
X43173D01*
X43120Y25784D01*
Y25574D01*
X43173Y25522D01*
X43278D01*
X43330Y25574D01*
X43645Y25837D02*
X43435D01*
Y25679D01*
X43540Y25732D01*
X43592D01*
X43645Y25679D01*
Y25574D01*
X43592Y25522D01*
X43487D01*
X43435Y25574D01*
X43960Y25837D02*
X43750D01*
Y25679D01*
X43855Y25732D01*
X43907D01*
X43960Y25679D01*
Y25574D01*
X43907Y25522D01*
X43802D01*
X43750Y25574D01*
X49925Y24393D02*
X49872Y24341D01*
Y24236D01*
X49925Y24183D01*
X50135D01*
X50187Y24236D01*
Y24341D01*
X50135Y24393D01*
X49872Y24708D02*
Y24498D01*
X50030D01*
X49977Y24603D01*
Y24655D01*
X50030Y24708D01*
X50135D01*
X50187Y24655D01*
Y24550D01*
X50135Y24498D01*
X50187Y24970D02*
X49872D01*
X50030Y24813D01*
Y25023D01*
X34265Y24344D02*
X34213Y24291D01*
Y24186D01*
X34265Y24134D01*
X34475D01*
X34528Y24186D01*
Y24291D01*
X34475Y24344D01*
X34213Y24659D02*
Y24449D01*
X34370D01*
X34318Y24554D01*
Y24606D01*
X34370Y24659D01*
X34475D01*
X34528Y24606D01*
Y24501D01*
X34475Y24449D01*
X34265Y24764D02*
X34213Y24816D01*
Y24921D01*
X34265Y24973D01*
X34475D01*
X34528Y24921D01*
Y24816D01*
X34475Y24764D01*
X34265D01*
X11352Y26197D02*
X11299Y26250D01*
X11194D01*
X11142Y26197D01*
Y25988D01*
X11194Y25935D01*
X11299D01*
X11352Y25988D01*
X11614Y25935D02*
Y26250D01*
X11457Y26092D01*
X11667D01*
X11771Y26197D02*
X11824Y26250D01*
X11929D01*
X11981Y26197D01*
Y26145D01*
X11929Y26092D01*
X11981Y26040D01*
Y25988D01*
X11929Y25935D01*
X11824D01*
X11771Y25988D01*
Y26040D01*
X11824Y26092D01*
X11771Y26145D01*
Y26197D01*
X11824Y26092D02*
X11929D01*
X1883Y25666D02*
X1831Y25718D01*
X1726D01*
X1673Y25666D01*
Y25456D01*
X1726Y25404D01*
X1831D01*
X1883Y25456D01*
X2146Y25404D02*
Y25718D01*
X1988Y25561D01*
X2198D01*
X2303Y25718D02*
X2513D01*
Y25666D01*
X2303Y25456D01*
Y25404D01*
X4482Y34167D02*
X4429Y34114D01*
Y34009D01*
X4482Y33957D01*
X4692D01*
X4744Y34009D01*
Y34114D01*
X4692Y34167D01*
X4744Y34429D02*
X4429D01*
X4587Y34272D01*
Y34481D01*
X4429Y34796D02*
X4482Y34691D01*
X4587Y34586D01*
X4692D01*
X4744Y34639D01*
Y34744D01*
X4692Y34796D01*
X4639D01*
X4587Y34744D01*
Y34586D01*
X14671Y6258D02*
X14618Y6311D01*
X14513D01*
X14461Y6258D01*
Y6049D01*
X14513Y5996D01*
X14618D01*
X14671Y6049D01*
X14933Y5996D02*
Y6311D01*
X14776Y6153D01*
X14986D01*
X15248Y5996D02*
Y6311D01*
X15091Y6153D01*
X15301D01*
X9255Y6160D02*
X9203Y6212D01*
X9098D01*
X9045Y6160D01*
Y5950D01*
X9098Y5898D01*
X9203D01*
X9255Y5950D01*
X9518Y5898D02*
Y6212D01*
X9360Y6055D01*
X9570D01*
X9675Y6160D02*
X9727Y6212D01*
X9832D01*
X9885Y6160D01*
Y6108D01*
X9832Y6055D01*
X9780D01*
X9832D01*
X9885Y6003D01*
Y5950D01*
X9832Y5898D01*
X9727D01*
X9675Y5950D01*
X16381Y21342D02*
X16329Y21289D01*
Y21184D01*
X16381Y21132D01*
X16591D01*
X16644Y21184D01*
Y21289D01*
X16591Y21342D01*
X16644Y21604D02*
X16329D01*
X16486Y21447D01*
Y21657D01*
X16644Y21972D02*
Y21762D01*
X16434Y21972D01*
X16381D01*
X16329Y21919D01*
Y21814D01*
X16381Y21762D01*
X18084Y21529D02*
X18032Y21476D01*
Y21371D01*
X18084Y21319D01*
X18294D01*
X18346Y21371D01*
Y21476D01*
X18294Y21529D01*
X18346Y21791D02*
X18032D01*
X18189Y21634D01*
Y21844D01*
X18346Y21949D02*
Y22054D01*
Y22001D01*
X18032D01*
X18084Y21949D01*
X19639Y21611D02*
X19587Y21663D01*
X19482D01*
X19429Y21611D01*
Y21401D01*
X19482Y21348D01*
X19587D01*
X19639Y21401D01*
X19901Y21348D02*
Y21663D01*
X19744Y21506D01*
X19954D01*
X20059Y21611D02*
X20111Y21663D01*
X20216D01*
X20269Y21611D01*
Y21401D01*
X20216Y21348D01*
X20111D01*
X20059Y21401D01*
Y21611D01*
X19856Y18136D02*
X19803Y18189D01*
X19698D01*
X19646Y18136D01*
Y17926D01*
X19698Y17874D01*
X19803D01*
X19856Y17926D01*
X19961Y18136D02*
X20013Y18189D01*
X20118D01*
X20170Y18136D01*
Y18084D01*
X20118Y18031D01*
X20065D01*
X20118D01*
X20170Y17979D01*
Y17926D01*
X20118Y17874D01*
X20013D01*
X19961Y17926D01*
X20275D02*
X20328Y17874D01*
X20433D01*
X20485Y17926D01*
Y18136D01*
X20433Y18189D01*
X20328D01*
X20275Y18136D01*
Y18084D01*
X20328Y18031D01*
X20485D01*
X15889Y14491D02*
X15837Y14439D01*
Y14334D01*
X15889Y14282D01*
X16099D01*
X16152Y14334D01*
Y14439D01*
X16099Y14491D01*
X15889Y14596D02*
X15837Y14649D01*
Y14754D01*
X15889Y14806D01*
X15942D01*
X15994Y14754D01*
Y14701D01*
Y14754D01*
X16047Y14806D01*
X16099D01*
X16152Y14754D01*
Y14649D01*
X16099Y14596D01*
X15889Y14911D02*
X15837Y14964D01*
Y15069D01*
X15889Y15121D01*
X15942D01*
X15994Y15069D01*
X16047Y15121D01*
X16099D01*
X16152Y15069D01*
Y14964D01*
X16099Y14911D01*
X16047D01*
X15994Y14964D01*
X15942Y14911D01*
X15889D01*
X15994Y14964D02*
Y15069D01*
X11893Y19777D02*
X11841Y19724D01*
Y19619D01*
X11893Y19567D01*
X12103D01*
X12156Y19619D01*
Y19724D01*
X12103Y19777D01*
X11893Y19882D02*
X11841Y19934D01*
Y20039D01*
X11893Y20092D01*
X11946D01*
X11998Y20039D01*
Y19987D01*
Y20039D01*
X12051Y20092D01*
X12103D01*
X12156Y20039D01*
Y19934D01*
X12103Y19882D01*
X11841Y20197D02*
Y20407D01*
X11893D01*
X12103Y20197D01*
X12156D01*
X11745Y17306D02*
X11693Y17254D01*
Y17149D01*
X11745Y17096D01*
X11955D01*
X12008Y17149D01*
Y17254D01*
X11955Y17306D01*
X11745Y17411D02*
X11693Y17464D01*
Y17569D01*
X11745Y17621D01*
X11798D01*
X11850Y17569D01*
Y17516D01*
Y17569D01*
X11903Y17621D01*
X11955D01*
X12008Y17569D01*
Y17464D01*
X11955Y17411D01*
X11693Y17936D02*
X11745Y17831D01*
X11850Y17726D01*
X11955D01*
X12008Y17779D01*
Y17884D01*
X11955Y17936D01*
X11903D01*
X11850Y17884D01*
Y17726D01*
X16667Y17910D02*
X16614Y17962D01*
X16509D01*
X16457Y17910D01*
Y17700D01*
X16509Y17648D01*
X16614D01*
X16667Y17700D01*
X16772Y17910D02*
X16824Y17962D01*
X16929D01*
X16981Y17910D01*
Y17858D01*
X16929Y17805D01*
X16876D01*
X16929D01*
X16981Y17753D01*
Y17700D01*
X16929Y17648D01*
X16824D01*
X16772Y17700D01*
X17296Y17962D02*
X17086D01*
Y17805D01*
X17191Y17858D01*
X17244D01*
X17296Y17805D01*
Y17700D01*
X17244Y17648D01*
X17139D01*
X17086Y17700D01*
X34550Y11975D02*
X34498Y12027D01*
X34393D01*
X34341Y11975D01*
Y11765D01*
X34393Y11713D01*
X34498D01*
X34550Y11765D01*
X34655Y11975D02*
X34708Y12027D01*
X34813D01*
X34865Y11975D01*
Y11923D01*
X34813Y11870D01*
X34760D01*
X34813D01*
X34865Y11818D01*
Y11765D01*
X34813Y11713D01*
X34708D01*
X34655Y11765D01*
X35128Y11713D02*
Y12027D01*
X34970Y11870D01*
X35180D01*
X33704Y10761D02*
X33652Y10709D01*
Y10604D01*
X33704Y10551D01*
X33914D01*
X33967Y10604D01*
Y10709D01*
X33914Y10761D01*
X33704Y10866D02*
X33652Y10919D01*
Y11023D01*
X33704Y11076D01*
X33757D01*
X33809Y11023D01*
Y10971D01*
Y11023D01*
X33862Y11076D01*
X33914D01*
X33967Y11023D01*
Y10919D01*
X33914Y10866D01*
X33704Y11181D02*
X33652Y11233D01*
Y11338D01*
X33704Y11391D01*
X33757D01*
X33809Y11338D01*
Y11286D01*
Y11338D01*
X33862Y11391D01*
X33914D01*
X33967Y11338D01*
Y11233D01*
X33914Y11181D01*
X51804Y31778D02*
X51752Y31831D01*
X51647D01*
X51594Y31778D01*
Y31568D01*
X51647Y31516D01*
X51752D01*
X51804Y31568D01*
X51909Y31778D02*
X51962Y31831D01*
X52067D01*
X52119Y31778D01*
Y31726D01*
X52067Y31673D01*
X52014D01*
X52067D01*
X52119Y31621D01*
Y31568D01*
X52067Y31516D01*
X51962D01*
X51909Y31568D01*
X52224Y31778D02*
X52277Y31831D01*
X52382D01*
X52434Y31778D01*
Y31568D01*
X52382Y31516D01*
X52277D01*
X52224Y31568D01*
Y31778D01*
X54747Y17710D02*
X54695Y17657D01*
Y17552D01*
X54747Y17500D01*
X54957D01*
X55010Y17552D01*
Y17657D01*
X54957Y17710D01*
X55010Y18025D02*
Y17815D01*
X54800Y18025D01*
X54747D01*
X54695Y17972D01*
Y17867D01*
X54747Y17815D01*
X54957Y18130D02*
X55010Y18182D01*
Y18287D01*
X54957Y18340D01*
X54747D01*
X54695Y18287D01*
Y18182D01*
X54747Y18130D01*
X54800D01*
X54852Y18182D01*
Y18340D01*
X17356Y5430D02*
X17303Y5482D01*
X17198D01*
X17146Y5430D01*
Y5220D01*
X17198Y5167D01*
X17303D01*
X17356Y5220D01*
X17670Y5167D02*
X17461D01*
X17670Y5377D01*
Y5430D01*
X17618Y5482D01*
X17513D01*
X17461Y5430D01*
X17985Y5482D02*
X17880Y5430D01*
X17775Y5325D01*
Y5220D01*
X17828Y5167D01*
X17933D01*
X17985Y5220D01*
Y5272D01*
X17933Y5325D01*
X17775D01*
X16361Y6148D02*
X16309Y6201D01*
X16204D01*
X16152Y6148D01*
Y5938D01*
X16204Y5886D01*
X16309D01*
X16361Y5938D01*
X16676Y5886D02*
X16466D01*
X16676Y6096D01*
Y6148D01*
X16624Y6201D01*
X16519D01*
X16466Y6148D01*
X16991Y6201D02*
X16781D01*
Y6043D01*
X16886Y6096D01*
X16939D01*
X16991Y6043D01*
Y5938D01*
X16939Y5886D01*
X16834D01*
X16781Y5938D01*
X22198Y5400D02*
X22146Y5453D01*
X22041D01*
X21988Y5400D01*
Y5190D01*
X22041Y5138D01*
X22146D01*
X22198Y5190D01*
X22513Y5138D02*
X22303D01*
X22513Y5348D01*
Y5400D01*
X22460Y5453D01*
X22356D01*
X22303Y5400D01*
X22775Y5138D02*
Y5453D01*
X22618Y5295D01*
X22828D01*
X21972Y9367D02*
X21919Y9419D01*
X21814D01*
X21762Y9367D01*
Y9157D01*
X21814Y9104D01*
X21919D01*
X21972Y9157D01*
X22287Y9104D02*
X22077D01*
X22287Y9314D01*
Y9367D01*
X22234Y9419D01*
X22129D01*
X22077Y9367D01*
X22392D02*
X22444Y9419D01*
X22549D01*
X22601Y9367D01*
Y9314D01*
X22549Y9262D01*
X22496D01*
X22549D01*
X22601Y9209D01*
Y9157D01*
X22549Y9104D01*
X22444D01*
X22392Y9157D01*
X19501Y13481D02*
X19449Y13533D01*
X19344D01*
X19291Y13481D01*
Y13271D01*
X19344Y13218D01*
X19449D01*
X19501Y13271D01*
X19816Y13218D02*
X19606D01*
X19816Y13428D01*
Y13481D01*
X19764Y13533D01*
X19659D01*
X19606Y13481D01*
X20131Y13218D02*
X19921D01*
X20131Y13428D01*
Y13481D01*
X20078Y13533D01*
X19974D01*
X19921Y13481D01*
X15850Y9324D02*
X15797Y9272D01*
Y9167D01*
X15850Y9114D01*
X16060D01*
X16112Y9167D01*
Y9272D01*
X16060Y9324D01*
X16112Y9639D02*
Y9429D01*
X15902Y9639D01*
X15850D01*
X15797Y9586D01*
Y9482D01*
X15850Y9429D01*
X16112Y9744D02*
Y9849D01*
Y9796D01*
X15797D01*
X15850Y9744D01*
X39452Y12369D02*
X39400Y12421D01*
X39295D01*
X39242Y12369D01*
Y12159D01*
X39295Y12106D01*
X39400D01*
X39452Y12159D01*
X39557Y12106D02*
X39662D01*
X39609D01*
Y12421D01*
X39557Y12369D01*
X39819Y12159D02*
X39872Y12106D01*
X39977D01*
X40029Y12159D01*
Y12369D01*
X39977Y12421D01*
X39872D01*
X39819Y12369D01*
Y12316D01*
X39872Y12264D01*
X40029D01*
X36795Y13186D02*
X36742Y13238D01*
X36637D01*
X36585Y13186D01*
Y12976D01*
X36637Y12923D01*
X36742D01*
X36795Y12976D01*
X36899Y12923D02*
X37004D01*
X36952D01*
Y13238D01*
X36899Y13186D01*
X37162D02*
X37214Y13238D01*
X37319D01*
X37372Y13186D01*
Y13133D01*
X37319Y13081D01*
X37372Y13028D01*
Y12976D01*
X37319Y12923D01*
X37214D01*
X37162Y12976D01*
Y13028D01*
X37214Y13081D01*
X37162Y13133D01*
Y13186D01*
X37214Y13081D02*
X37319D01*
X38468Y26896D02*
X38415Y26949D01*
X38310D01*
X38258Y26896D01*
Y26686D01*
X38310Y26634D01*
X38415D01*
X38468Y26686D01*
X38573Y26634D02*
X38678D01*
X38625D01*
Y26949D01*
X38573Y26896D01*
X38835Y26949D02*
X39045D01*
Y26896D01*
X38835Y26686D01*
Y26634D01*
X37129Y23294D02*
X37077Y23346D01*
X36972D01*
X36919Y23294D01*
Y23084D01*
X36972Y23031D01*
X37077D01*
X37129Y23084D01*
X37234Y23031D02*
X37339D01*
X37287D01*
Y23346D01*
X37234Y23294D01*
X37706Y23346D02*
X37601Y23294D01*
X37497Y23189D01*
Y23084D01*
X37549Y23031D01*
X37654D01*
X37706Y23084D01*
Y23136D01*
X37654Y23189D01*
X37497D01*
X39403Y23195D02*
X39350Y23248D01*
X39245D01*
X39193Y23195D01*
Y22986D01*
X39245Y22933D01*
X39350D01*
X39403Y22986D01*
X39508Y22933D02*
X39613D01*
X39560D01*
Y23248D01*
X39508Y23195D01*
X39980Y23248D02*
X39770D01*
Y23091D01*
X39875Y23143D01*
X39928D01*
X39980Y23091D01*
Y22986D01*
X39928Y22933D01*
X39823D01*
X39770Y22986D01*
X37267Y17986D02*
X37215Y17933D01*
Y17828D01*
X37267Y17776D01*
X37477D01*
X37530Y17828D01*
Y17933D01*
X37477Y17986D01*
X37530Y18090D02*
Y18195D01*
Y18143D01*
X37215D01*
X37267Y18090D01*
X37530Y18510D02*
X37215D01*
X37372Y18353D01*
Y18563D01*
X24167Y16873D02*
X24114Y16821D01*
Y16716D01*
X24167Y16663D01*
X24377D01*
X24429Y16716D01*
Y16821D01*
X24377Y16873D01*
X24429Y16978D02*
Y17083D01*
Y17031D01*
X24114D01*
X24167Y16978D01*
Y17241D02*
X24114Y17293D01*
Y17398D01*
X24167Y17451D01*
X24219D01*
X24272Y17398D01*
Y17346D01*
Y17398D01*
X24324Y17451D01*
X24377D01*
X24429Y17398D01*
Y17293D01*
X24377Y17241D01*
X26470Y23825D02*
X26417Y23878D01*
X26312D01*
X26260Y23825D01*
Y23615D01*
X26312Y23563D01*
X26417D01*
X26470Y23615D01*
X26575Y23563D02*
X26680D01*
X26627D01*
Y23878D01*
X26575Y23825D01*
X27047Y23563D02*
X26837D01*
X27047Y23773D01*
Y23825D01*
X26995Y23878D01*
X26890D01*
X26837Y23825D01*
X27336Y17103D02*
X27283Y17155D01*
X27178D01*
X27126Y17103D01*
Y16893D01*
X27178Y16841D01*
X27283D01*
X27336Y16893D01*
X27441Y17155D02*
X27651D01*
Y17103D01*
X27441Y16893D01*
Y16841D01*
X25889Y21148D02*
X25837Y21201D01*
X25732D01*
X25679Y21148D01*
Y20938D01*
X25732Y20886D01*
X25837D01*
X25889Y20938D01*
X26204Y21201D02*
X26099Y21148D01*
X25994Y21043D01*
Y20938D01*
X26046Y20886D01*
X26151D01*
X26204Y20938D01*
Y20991D01*
X26151Y21043D01*
X25994D01*
X31047Y21129D02*
X30994Y21181D01*
X30889D01*
X30837Y21129D01*
Y20919D01*
X30889Y20866D01*
X30994D01*
X31047Y20919D01*
X31361Y21181D02*
X31151D01*
Y21024D01*
X31256Y21076D01*
X31309D01*
X31361Y21024D01*
Y20919D01*
X31309Y20866D01*
X31204D01*
X31151Y20919D01*
D15*
X28533Y19636D02*
G03*
X28533Y19636I-118J0D01*
G01*
D16*
X17913Y32106D02*
Y33406D01*
X17205Y32106D02*
Y33406D01*
X17913D01*
X17205Y32106D02*
X17913D01*
X10504Y34199D02*
X11819D01*
X10504Y33498D02*
X11819D01*
Y34199D01*
X10504Y33498D02*
Y34199D01*
X38415Y6663D02*
X38533Y6781D01*
X38415Y6900D02*
X38533Y6781D01*
X38415Y6663D02*
Y6900D01*
X38573Y6663D02*
Y6900D01*
X29902Y23701D02*
Y25000D01*
X29193Y23701D02*
Y25000D01*
X29902D01*
X29193Y23701D02*
X29902D01*
X44337Y6663D02*
X44455Y6781D01*
X44337Y6900D02*
X44455Y6781D01*
X44337Y6663D02*
Y6900D01*
X44494Y6663D02*
Y6900D01*
X14321Y38248D02*
X14439Y38366D01*
X14321Y38248D02*
X14439Y38130D01*
Y38366D01*
X14282Y38130D02*
Y38366D01*
X36949Y22195D02*
Y22904D01*
X38248Y22195D02*
Y22904D01*
X36949D02*
X38248D01*
X36949Y22195D02*
X38248D01*
X40305Y12589D02*
Y13297D01*
X39006Y12589D02*
Y13297D01*
Y12589D02*
X40305D01*
X39006Y13297D02*
X40305D01*
X47136Y25187D02*
X47844D01*
X47136Y23888D02*
X47844D01*
Y25187D01*
X47136Y23888D02*
Y25187D01*
X48947Y24114D02*
X49656D01*
X48947Y25413D02*
X49656D01*
X48947Y24114D02*
Y25413D01*
X49656Y24114D02*
Y25413D01*
D17*
X32165Y30669D02*
X32520D01*
X32165Y29961D02*
X32520D01*
X32274Y33248D02*
X32628D01*
X32274Y32539D02*
X32628D01*
X20226Y32854D02*
Y33209D01*
X19518Y32854D02*
Y33209D01*
D18*
X23140Y29130D02*
X28927D01*
Y34563D01*
X23140Y29130D02*
Y34563D01*
X28927D01*
X34843Y28982D02*
X40630D01*
Y34415D01*
X34843Y28982D02*
Y34415D01*
X40630D01*
D19*
X15919Y32367D02*
X16719D01*
X15919Y31767D02*
X16719D01*
X16319Y32367D02*
X16719Y31767D01*
X15919D02*
X16319Y32367D01*
X16358Y26964D02*
X16758Y27564D01*
X15958D02*
X16358Y26964D01*
X15958Y27564D02*
X16758D01*
X15958Y26964D02*
X16758D01*
X10073Y33376D02*
Y35541D01*
X4971Y33376D02*
X10073D01*
X4971D02*
Y35541D01*
X10073D01*
X1502Y23002D02*
Y25167D01*
X6604D01*
Y23002D02*
Y25167D01*
X1502Y23002D02*
X6604D01*
X16778Y22701D02*
Y23401D01*
X17278Y22701D02*
Y23401D01*
X16778Y22701D02*
X17278Y23051D01*
X16778Y23401D02*
X17278Y23051D01*
M02*
