G04*
G04 #@! TF.GenerationSoftware,Altium Limited,Altium Designer,19.1.8 (144)*
G04*
G04 Layer_Physical_Order=3*
G04 Layer_Color=128*
%FSLAX24Y24*%
%MOIN*%
G70*
G01*
G75*
%ADD11C,0.0098*%
%ADD14C,0.0079*%
%ADD18C,0.0118*%
%ADD154C,0.0400*%
%ADD155C,0.0794*%
G04:AMPARAMS|DCode=156|XSize=110.236mil|YSize=110.236mil|CornerRadius=0mil|HoleSize=0mil|Usage=FLASHONLY|Rotation=0.000|XOffset=0mil|YOffset=0mil|HoleType=Round|Shape=Relief|Width=19.7mil|Gap=11.8mil|Entries=4|*
%AMTHD156*
7,0,0,0.1102,0.0866,0.0197,45*
%
%ADD156THD156*%
%ADD157C,0.0754*%
%ADD158C,0.1109*%
%ADD159C,0.1680*%
%ADD160C,0.1581*%
%ADD161C,0.0833*%
G04:AMPARAMS|DCode=162|XSize=114.173mil|YSize=114.173mil|CornerRadius=0mil|HoleSize=0mil|Usage=FLASHONLY|Rotation=0.000|XOffset=0mil|YOffset=0mil|HoleType=Round|Shape=Relief|Width=19.7mil|Gap=11.8mil|Entries=4|*
%AMTHD162*
7,0,0,0.1142,0.0906,0.0197,45*
%
%ADD162THD162*%
%ADD163C,0.0790*%
%ADD165C,0.0780*%
G04:AMPARAMS|DCode=166|XSize=108.866mil|YSize=108.866mil|CornerRadius=0mil|HoleSize=0mil|Usage=FLASHONLY|Rotation=0.000|XOffset=0mil|YOffset=0mil|HoleType=Round|Shape=Relief|Width=19.7mil|Gap=11.8mil|Entries=4|*
%AMTHD166*
7,0,0,0.1089,0.0852,0.0197,45*
%
%ADD166THD166*%
%ADD167C,0.1069*%
%ADD168C,0.0872*%
%ADD169C,0.0715*%
%ADD171C,0.0951*%
%ADD176C,0.0991*%
%ADD179C,0.0762*%
G04:AMPARAMS|DCode=180|XSize=106.299mil|YSize=106.299mil|CornerRadius=0mil|HoleSize=0mil|Usage=FLASHONLY|Rotation=0.000|XOffset=0mil|YOffset=0mil|HoleType=Round|Shape=Relief|Width=19.7mil|Gap=11.8mil|Entries=4|*
%AMTHD180*
7,0,0,0.1063,0.0827,0.0197,45*
%
%ADD180THD180*%
%ADD181C,0.0518*%
%ADD182C,0.0597*%
%ADD183C,0.1975*%
%ADD184C,0.1030*%
%ADD185C,0.0932*%
G36*
X55177Y17111D02*
X53278D01*
Y19857D01*
X55177Y19857D01*
Y17111D01*
D02*
G37*
D11*
X13258Y35965D02*
Y40226D01*
X12776Y35482D02*
X13258Y35965D01*
X6024Y35482D02*
X12776D01*
X18061Y28268D02*
X20197D01*
X17598Y28730D02*
X18061Y28268D01*
X17598Y28730D02*
Y30945D01*
X18898Y32244D01*
X19094D01*
X20955Y7283D02*
X21093Y7421D01*
X22717D01*
X13445Y14439D02*
X13504Y14380D01*
X20699D01*
X20955Y4803D02*
Y7283D01*
X20325Y7913D02*
X20955Y7283D01*
X12628Y7913D02*
X20325D01*
X11073Y9469D02*
X12628Y7913D01*
X11073Y9469D02*
Y12067D01*
X13445Y14439D01*
Y16191D01*
X12717Y16919D02*
X13445Y16191D01*
X11053Y16919D02*
X12717D01*
X10344Y17628D02*
X11053Y16919D01*
X10344Y17628D02*
Y20217D01*
X8504Y22057D02*
X10344Y20217D01*
X8504Y22057D02*
Y33002D01*
X6024Y35482D02*
X8504Y33002D01*
X4577Y35482D02*
X6024D01*
X25876Y28967D02*
X26417Y29508D01*
X42746D01*
X43661Y30423D01*
Y31427D01*
X42844Y32244D02*
X43661Y31427D01*
X19094Y32244D02*
X42844D01*
X43041Y24931D02*
Y26545D01*
D14*
X46929Y18671D02*
X47264Y18337D01*
Y14390D02*
Y18337D01*
X43465Y10591D02*
X47264Y14390D01*
X24163Y10591D02*
X43465D01*
X41565Y17677D02*
X42343Y16900D01*
X39026Y17677D02*
X41565D01*
X38927Y17776D02*
X39026Y17677D01*
X38927Y17776D02*
Y18337D01*
X39262Y18671D01*
X40118D01*
D18*
X20197Y17844D02*
X20699Y17343D01*
X20197Y17844D02*
Y28268D01*
X39478Y22776D02*
X39528Y22726D01*
X44006D01*
X20699Y14380D02*
X37382D01*
X43484Y18701D02*
Y22717D01*
X44006Y22726D02*
X48159D01*
X48533Y22352D01*
Y19961D02*
Y22352D01*
Y19961D02*
X49075Y19419D01*
Y15482D02*
Y19419D01*
X47982Y14390D02*
X49075Y15482D01*
X47264Y14390D02*
X47982D01*
X20197Y28268D02*
X20896Y28967D01*
X25876D01*
Y26132D02*
Y28967D01*
X25148Y25404D02*
X25876Y26132D01*
X24094Y25404D02*
X25148D01*
X23563Y24872D02*
X24094Y25404D01*
X23563Y23268D02*
Y24872D01*
Y23268D02*
X24744Y22087D01*
Y16969D02*
Y22087D01*
Y16969D02*
X24970Y16742D01*
X33819D01*
X34232Y17156D01*
X34232D01*
X34852Y17776D01*
X37470D01*
X38927D01*
X38209Y21289D02*
X40118D01*
X42343Y15433D02*
Y16900D01*
X41998Y15089D02*
X42343Y15433D01*
X38091Y15089D02*
X41998D01*
X37382Y14380D02*
X38091Y15089D01*
X22717Y7421D02*
X23533D01*
X23957Y7844D01*
Y10443D01*
X24104Y10591D01*
X24163D01*
X20699Y14380D02*
Y17343D01*
X41565Y17677D02*
X42343Y16900D01*
X39026Y17677D02*
X41565D01*
X38927Y17776D02*
X39026Y17677D01*
X38927Y17776D02*
Y18337D01*
X39262Y18671D01*
X40118D01*
X24163Y10591D02*
X43445D01*
X47254Y14400D01*
Y18346D01*
X46929Y18671D02*
X47254Y18346D01*
X46319Y18671D02*
X46929D01*
X45049Y26309D02*
Y27411D01*
X48780Y30659D02*
X49537Y29902D01*
X44951Y30659D02*
X48780D01*
X44065Y29774D02*
X44951Y30659D01*
X41555Y18671D02*
X42396D01*
X40640D02*
X41555D01*
X42396D02*
X46319D01*
X39478Y22776D02*
Y24360D01*
X39085Y24754D02*
X39478Y24360D01*
X37904Y24754D02*
X39085D01*
X37707Y24557D02*
X37904Y24754D01*
X37707Y24380D02*
Y24557D01*
Y21791D02*
X38209Y21289D01*
X37707Y21791D02*
Y24380D01*
X40640Y18671D02*
Y21289D01*
X40118D02*
X40640D01*
X40118Y18671D02*
Y21289D01*
X43041Y27648D02*
X43396Y28002D01*
Y28553D02*
Y29104D01*
Y28002D02*
Y28553D01*
X42844Y25128D02*
X43474Y24498D01*
X48632D01*
X49301Y25167D01*
X50285Y26152D01*
Y27333D01*
Y29065D01*
X49537Y29902D02*
X50285Y29065D01*
X43396Y29104D02*
X44065Y29774D01*
X43041Y26545D02*
Y27648D01*
X45049Y26309D02*
X45207Y26152D01*
X47293D01*
X47648Y26506D01*
Y28199D01*
X47372Y28474D02*
X47648Y28199D01*
X45246Y28474D02*
X47372D01*
X45049Y28278D02*
X45246Y28474D01*
X45049Y27411D02*
Y28278D01*
X43789Y25640D02*
X44104Y25325D01*
X44970D01*
X45285Y25640D01*
X46782D01*
X47254Y25167D01*
X47608D01*
X47687Y25246D01*
Y25994D01*
X48041Y26348D01*
X49065D01*
X49262Y26545D01*
Y26978D01*
Y27215D01*
X48209Y28268D02*
X49262Y27215D01*
X48209Y28268D02*
Y29124D01*
X48022Y29311D02*
X48209Y29124D01*
X46161Y29311D02*
X48022D01*
X45935Y29085D02*
X46161Y29311D01*
X44636Y29085D02*
X45935D01*
X44262Y28711D02*
X44636Y29085D01*
X44262Y28238D02*
Y28711D01*
Y28238D02*
X44626Y27874D01*
Y26969D02*
Y27874D01*
X43789Y26132D02*
X44626Y26969D01*
X43789Y25640D02*
Y26132D01*
D154*
X1004Y9193D02*
X4183D01*
X4577Y8799D01*
Y4803D02*
Y8799D01*
X51821Y4803D02*
Y8799D01*
X52215Y9193D01*
X55394D01*
X55758Y9557D01*
Y34724D01*
X55394Y35089D02*
X55758Y34724D01*
X52215Y35089D02*
X55394D01*
X51821Y35482D02*
X52215Y35089D01*
X51821Y35482D02*
Y40236D01*
X4577Y35482D02*
Y40236D01*
X4183Y35089D02*
X4577Y35482D01*
X1004Y35089D02*
X4183D01*
X640Y34724D02*
X1004Y35089D01*
X640Y9557D02*
Y34724D01*
Y9557D02*
X1004Y9193D01*
X4577Y40236D02*
X51821D01*
X4577Y4803D02*
X51821D01*
D155*
X47504Y35254D02*
D03*
X46602D02*
D03*
X42093D02*
D03*
X42994D02*
D03*
X41191D02*
D03*
X40289D02*
D03*
X30656D02*
D03*
X29754D02*
D03*
X27951D02*
D03*
X28852D02*
D03*
X24343D02*
D03*
X23441D02*
D03*
X26346Y37844D02*
D03*
X25543D02*
D03*
X27150D02*
D03*
X27551Y37144D02*
D03*
X46211D02*
D03*
X45809Y37844D02*
D03*
X44203D02*
D03*
X45006D02*
D03*
X38787D02*
D03*
X37984D02*
D03*
X39591D02*
D03*
X39992Y37144D02*
D03*
X33772D02*
D03*
X33370Y37844D02*
D03*
X31764D02*
D03*
X32567D02*
D03*
X34120Y35254D02*
D03*
X35022D02*
D03*
X36825D02*
D03*
X35923D02*
D03*
X25738Y21988D02*
D03*
X33612D02*
D03*
X8455Y35463D02*
D03*
X9455D02*
D03*
X36240Y17394D02*
D03*
X35240D02*
D03*
X36240Y18394D02*
D03*
X35240D02*
D03*
Y16394D02*
D03*
Y19396D02*
D03*
Y21396D02*
D03*
X36240Y19396D02*
D03*
Y21396D02*
D03*
X35240Y20396D02*
D03*
X36240D02*
D03*
Y26400D02*
D03*
X35240D02*
D03*
X36240Y25400D02*
D03*
X35240D02*
D03*
Y22398D02*
D03*
Y24398D02*
D03*
X36240Y22398D02*
D03*
Y24398D02*
D03*
X35240Y23398D02*
D03*
X36240D02*
D03*
X35240Y15394D02*
D03*
X30344Y27254D02*
D03*
Y28258D02*
D03*
X31344Y27254D02*
D03*
X29344D02*
D03*
X31344Y28258D02*
D03*
X29344D02*
D03*
X32343D02*
D03*
Y27254D02*
D03*
X33346Y28258D02*
D03*
Y27254D02*
D03*
X27343D02*
D03*
Y28258D02*
D03*
X28343Y27254D02*
D03*
X26343D02*
D03*
X28343Y28258D02*
D03*
X26343D02*
D03*
X25341D02*
D03*
X24341D02*
D03*
X22441Y26398D02*
D03*
X21447Y18394D02*
D03*
X22441D02*
D03*
X21447Y17394D02*
D03*
Y19394D02*
D03*
X22441Y17394D02*
D03*
Y19394D02*
D03*
Y16392D02*
D03*
X21447D02*
D03*
X22441Y15392D02*
D03*
X21447Y21396D02*
D03*
X22441D02*
D03*
X21447Y20396D02*
D03*
Y22396D02*
D03*
X22441Y20396D02*
D03*
Y22396D02*
D03*
Y23398D02*
D03*
X21447Y25398D02*
D03*
Y26398D02*
D03*
Y23398D02*
D03*
X22441Y24398D02*
D03*
X21447D02*
D03*
D156*
X36240Y15394D02*
D03*
Y16394D02*
D03*
X25341Y27254D02*
D03*
X24341D02*
D03*
X21447Y15392D02*
D03*
X22441Y25398D02*
D03*
D157*
X25945Y37144D02*
D03*
X26748D02*
D03*
X25142D02*
D03*
X24740Y37844D02*
D03*
X43400D02*
D03*
X43801Y37144D02*
D03*
X45407D02*
D03*
X44604D02*
D03*
X38386D02*
D03*
X39189D02*
D03*
X37583D02*
D03*
X37181Y37844D02*
D03*
X30961D02*
D03*
X31362Y37144D02*
D03*
X32968D02*
D03*
X32165D02*
D03*
X24134Y21929D02*
D03*
Y21142D02*
D03*
Y22717D02*
D03*
Y23504D02*
D03*
Y20354D02*
D03*
Y19567D02*
D03*
Y18780D02*
D03*
D158*
X22953Y37447D02*
D03*
X47992D02*
D03*
X32362Y34852D02*
D03*
X38583D02*
D03*
D159*
X23642Y38848D02*
D03*
X47303D02*
D03*
D160*
X18100Y39104D02*
D03*
X35561Y5947D02*
D03*
X6890Y39112D02*
D03*
X10974D02*
D03*
D161*
X16919Y36230D02*
D03*
Y37411D02*
D03*
X18100Y36230D02*
D03*
X19282D02*
D03*
X18100Y37411D02*
D03*
X19282D02*
D03*
X1959Y27156D02*
D03*
Y31093D02*
D03*
X34970Y8829D02*
D03*
X36152D02*
D03*
X34970Y7648D02*
D03*
X36152D02*
D03*
X6299Y37411D02*
D03*
X7480D02*
D03*
X6299Y36230D02*
D03*
X10384Y37411D02*
D03*
X11565D02*
D03*
X10384Y36230D02*
D03*
D162*
X7480D02*
D03*
X11565D02*
D03*
D163*
X38045Y6427D02*
D03*
X39045D02*
D03*
X43967D02*
D03*
X44967D02*
D03*
X14809Y38602D02*
D03*
X13809D02*
D03*
D165*
X20856Y30413D02*
D03*
X19478D02*
D03*
X54488Y14803D02*
D03*
X13307Y23189D02*
D03*
Y25189D02*
D03*
X52726Y29695D02*
D03*
X51348D02*
D03*
X47976Y21791D02*
D03*
X46976D02*
D03*
X43976D02*
D03*
X41976D02*
D03*
X47976Y20791D02*
D03*
X46976D02*
D03*
X44976D02*
D03*
X43976D02*
D03*
X41976D02*
D03*
X48976Y21791D02*
D03*
X45976D02*
D03*
X42976D02*
D03*
X48976Y20791D02*
D03*
X45976D02*
D03*
X42976D02*
D03*
X38593Y25522D02*
D03*
X37736Y10571D02*
D03*
X19291Y15600D02*
D03*
X17291D02*
D03*
X21880Y11033D02*
D03*
X21693Y7146D02*
D03*
D166*
X53110Y14803D02*
D03*
X44976Y21791D02*
D03*
X38593Y24144D02*
D03*
X37736Y11949D02*
D03*
X20502Y11033D02*
D03*
X19693Y7146D02*
D03*
D167*
X27520Y13573D02*
D03*
D168*
X32244Y7352D02*
D03*
X5530Y34459D02*
D03*
X9530D02*
D03*
X6045Y24085D02*
D03*
X2045D02*
D03*
D169*
X12154Y18949D02*
D03*
Y20949D02*
D03*
X8469Y5809D02*
D03*
X6469D02*
D03*
X13833D02*
D03*
X11833D02*
D03*
D171*
X8159Y23907D02*
D03*
X10522D02*
D03*
D176*
X49065Y6870D02*
D03*
D179*
X49695Y33691D02*
D03*
Y34478D02*
D03*
Y35266D02*
D03*
Y36053D02*
D03*
D180*
X24134Y24291D02*
D03*
D181*
X44419Y38799D02*
D03*
X22116Y34606D02*
D03*
X27864Y29852D02*
D03*
X25748Y35217D02*
D03*
X25285Y34665D02*
D03*
X30512Y36900D02*
D03*
X38327Y35984D02*
D03*
X36742Y36850D02*
D03*
X37431Y33278D02*
D03*
X47313Y31161D02*
D03*
X43898Y31467D02*
D03*
X43714Y30000D02*
D03*
X44370Y29498D02*
D03*
X37096Y27392D02*
D03*
X42037Y27264D02*
D03*
X44272Y26693D02*
D03*
X43327D02*
D03*
X42352D02*
D03*
X41339D02*
D03*
X41260Y27264D02*
D03*
X43681D02*
D03*
X42933D02*
D03*
X42884Y27854D02*
D03*
X43711Y27844D02*
D03*
X44075Y28553D02*
D03*
X53015Y23386D02*
D03*
X52733Y23937D02*
D03*
X21978Y30620D02*
D03*
X20089Y26280D02*
D03*
X14596Y25955D02*
D03*
X16628Y25748D02*
D03*
X16628Y25433D02*
D03*
X16289Y27451D02*
D03*
X15768Y27461D02*
D03*
X43106Y30866D02*
D03*
X43073Y29842D02*
D03*
X43425Y32175D02*
D03*
X43209Y33494D02*
D03*
X12530Y6919D02*
D03*
X12008Y7264D02*
D03*
X19735Y10000D02*
D03*
X10748Y32618D02*
D03*
X12037Y27028D02*
D03*
X11678Y29370D02*
D03*
X9783Y25945D02*
D03*
X10640Y19498D02*
D03*
X9877Y21969D02*
D03*
X20463Y12795D02*
D03*
X19429Y8189D02*
D03*
X15856Y6624D02*
D03*
X16850Y8041D02*
D03*
X17343D02*
D03*
Y8415D02*
D03*
X16850D02*
D03*
X17096Y8228D02*
D03*
X14498Y12569D02*
D03*
X13465Y11841D02*
D03*
X12884Y17195D02*
D03*
X15974Y21240D02*
D03*
X20099Y18899D02*
D03*
X17904Y18829D02*
D03*
X18278D02*
D03*
X17904Y19321D02*
D03*
X18278D02*
D03*
X18091Y19075D02*
D03*
X18130Y21614D02*
D03*
X19528Y20896D02*
D03*
X17037Y30797D02*
D03*
X12972Y34882D02*
D03*
X19724Y33041D02*
D03*
X14568Y33240D02*
D03*
X14823Y32579D02*
D03*
X16959Y32392D02*
D03*
X12749Y33307D02*
D03*
X12598Y31309D02*
D03*
X15725Y31653D02*
D03*
X16959Y31545D02*
D03*
X16545Y29449D02*
D03*
X14793Y30640D02*
D03*
X15669Y36378D02*
D03*
X17629Y31852D02*
D03*
X17766Y30679D02*
D03*
X18533Y31240D02*
D03*
X22677Y28091D02*
D03*
X12943Y31457D02*
D03*
X20325Y15463D02*
D03*
X23415Y13356D02*
D03*
X13209Y29341D02*
D03*
X20217Y14990D02*
D03*
X13435Y33839D02*
D03*
X20512Y14537D02*
D03*
X13504Y26811D02*
D03*
X20581Y21880D02*
D03*
Y22234D02*
D03*
X16644Y25089D02*
D03*
X17195Y25079D02*
D03*
X18406Y30295D02*
D03*
X18760Y29970D02*
D03*
X12215Y34026D02*
D03*
X18238Y5571D02*
D03*
X17589Y5561D02*
D03*
X5650Y16821D02*
D03*
X5600Y18701D02*
D03*
X6811Y17783D02*
D03*
X4380D02*
D03*
X4400Y18701D02*
D03*
Y16821D02*
D03*
X6811D02*
D03*
Y18701D02*
D03*
X5620Y17783D02*
D03*
X16919Y19754D02*
D03*
X16762Y18996D02*
D03*
X17028Y9636D02*
D03*
X26526Y13524D02*
D03*
X45325Y29459D02*
D03*
X31232Y31557D02*
D03*
X30719Y31585D02*
D03*
X33002Y33415D02*
D03*
X37923Y31742D02*
D03*
X42140Y29169D02*
D03*
X40079Y29183D02*
D03*
X21004Y27933D02*
D03*
X24321Y29331D02*
D03*
X26614Y30994D02*
D03*
X34606Y24557D02*
D03*
X34350Y25591D02*
D03*
X39301Y25472D02*
D03*
X37913Y26053D02*
D03*
X40935Y25128D02*
D03*
X41380Y25287D02*
D03*
X37470Y25207D02*
D03*
X34626Y23346D02*
D03*
X36752Y24193D02*
D03*
X29921Y25984D02*
D03*
X30246Y26220D02*
D03*
X46250Y30610D02*
D03*
X24232Y26437D02*
D03*
X29685Y34537D02*
D03*
X38681Y31230D02*
D03*
X28411Y29797D02*
D03*
X28652Y29537D02*
D03*
X28730Y30010D02*
D03*
X32333Y30266D02*
D03*
X24193Y28927D02*
D03*
X52736Y21407D02*
D03*
X46427Y23652D02*
D03*
X46230Y39459D02*
D03*
X38681Y39774D02*
D03*
X39718Y31315D02*
D03*
X34795Y28476D02*
D03*
X34350Y28435D02*
D03*
X44587Y33967D02*
D03*
X45994Y31506D02*
D03*
X45748Y31752D02*
D03*
X45404Y32047D02*
D03*
X46270D02*
D03*
X46516Y31870D02*
D03*
X22215Y27982D02*
D03*
X21112Y28366D02*
D03*
X46476Y34222D02*
D03*
X46181Y34565D02*
D03*
X22521Y35986D02*
D03*
X35366Y32826D02*
D03*
X39281Y29429D02*
D03*
X39961Y25925D02*
D03*
X40512Y26063D02*
D03*
X40532Y34478D02*
D03*
X43179Y34449D02*
D03*
X35748Y34201D02*
D03*
X34104Y34508D02*
D03*
X27825Y34488D02*
D03*
X34705Y36939D02*
D03*
X35827Y36821D02*
D03*
X35837Y36398D02*
D03*
X34665D02*
D03*
X39567Y28602D02*
D03*
X21388Y30876D02*
D03*
X21519Y31177D02*
D03*
X37776Y27559D02*
D03*
X37372Y27756D02*
D03*
X38287Y27884D02*
D03*
X38652D02*
D03*
X31211Y29331D02*
D03*
X30937Y29154D02*
D03*
X39193Y29026D02*
D03*
X34065Y28189D02*
D03*
X28819Y30315D02*
D03*
X43652Y31053D02*
D03*
X44301Y30404D02*
D03*
X24449Y32461D02*
D03*
X23474Y32468D02*
D03*
X23474Y33061D02*
D03*
X23472Y32763D02*
D03*
X24449D02*
D03*
Y33061D02*
D03*
X23474Y33356D02*
D03*
X24449D02*
D03*
X41821Y5984D02*
D03*
X49695Y9921D02*
D03*
X36900Y19764D02*
D03*
X49695Y17795D02*
D03*
X51663Y9921D02*
D03*
X54616Y15827D02*
D03*
X40837Y7953D02*
D03*
X48711Y19764D02*
D03*
X49695Y21732D02*
D03*
X42805Y7953D02*
D03*
X38868D02*
D03*
X29026Y23701D02*
D03*
X36900Y7953D02*
D03*
X50679Y19764D02*
D03*
X39852Y5984D02*
D03*
X49606Y12293D02*
D03*
X50344Y20817D02*
D03*
X34657Y22402D02*
D03*
X34705Y22864D02*
D03*
X34518Y20758D02*
D03*
X41299Y11634D02*
D03*
X34754Y9409D02*
D03*
X33238Y10364D02*
D03*
X33927Y10236D02*
D03*
X33878Y10679D02*
D03*
X35561Y10926D02*
D03*
X38159Y9931D02*
D03*
X40276Y9833D02*
D03*
X48179Y10295D02*
D03*
X29528Y6467D02*
D03*
X33751Y8041D02*
D03*
X34420Y11752D02*
D03*
X33425Y15866D02*
D03*
X32963Y15118D02*
D03*
X33937Y15522D02*
D03*
X35600Y14587D02*
D03*
X35226Y14006D02*
D03*
X31821Y15551D02*
D03*
X33465Y14508D02*
D03*
X33789Y14016D02*
D03*
X33750Y14311D02*
D03*
X33996Y15089D02*
D03*
X27490Y23297D02*
D03*
X28376Y18061D02*
D03*
X27539Y26004D02*
D03*
X27851Y25748D02*
D03*
X42776Y25049D02*
D03*
X43209Y25531D02*
D03*
X26752Y5758D02*
D03*
X30581Y17087D02*
D03*
X28440Y22441D02*
D03*
X28067Y22756D02*
D03*
X25955Y24911D02*
D03*
X31988Y20581D02*
D03*
X33997Y18031D02*
D03*
X33949Y18346D02*
D03*
X43711Y18179D02*
D03*
X24744Y18415D02*
D03*
X24222Y17185D02*
D03*
X25433Y17028D02*
D03*
X25659Y18661D02*
D03*
X26014Y18829D02*
D03*
X26427Y18691D02*
D03*
X25669Y20827D02*
D03*
X30059Y23031D02*
D03*
X34252Y24193D02*
D03*
X26457Y24469D02*
D03*
X26209Y13858D02*
D03*
X30059Y18258D02*
D03*
X29833Y18809D02*
D03*
X29897Y19291D02*
D03*
X29134Y18770D02*
D03*
X28784D02*
D03*
X29405D02*
D03*
X19921Y10443D02*
D03*
X25207Y14695D02*
D03*
X24488Y15285D02*
D03*
X25354Y15876D02*
D03*
X33435Y11535D02*
D03*
X32844Y11742D02*
D03*
X30896D02*
D03*
X28642D02*
D03*
X26988D02*
D03*
X27028Y12392D02*
D03*
X29488Y12402D02*
D03*
X31565Y12411D02*
D03*
X35591Y11752D02*
D03*
X34911Y11732D02*
D03*
X35020Y12884D02*
D03*
X32854Y13032D02*
D03*
X30423Y13041D02*
D03*
X24006Y15797D02*
D03*
X25453Y9734D02*
D03*
X23268D02*
D03*
X24006D02*
D03*
X24744D02*
D03*
X35335Y9803D02*
D03*
X40039Y12215D02*
D03*
X37244Y22037D02*
D03*
X49665Y16870D02*
D03*
X51506Y11093D02*
D03*
X50846Y10502D02*
D03*
X44134Y16299D02*
D03*
X49852Y24400D02*
D03*
X50315Y21181D02*
D03*
X30551Y21516D02*
D03*
X30797Y21142D02*
D03*
X31831Y19961D02*
D03*
X31693Y15984D02*
D03*
X31083Y20915D02*
D03*
X36516Y13622D02*
D03*
X41073Y14272D02*
D03*
X42067Y13356D02*
D03*
X40679Y13583D02*
D03*
X44045Y15502D02*
D03*
X49468Y13258D02*
D03*
X43445Y19163D02*
D03*
X34104Y21093D02*
D03*
X34577Y21398D02*
D03*
X33494Y21024D02*
D03*
X33740Y19173D02*
D03*
X34006Y11230D02*
D03*
X33465Y10955D02*
D03*
X35669Y10049D02*
D03*
X40787Y10325D02*
D03*
X40984Y11073D02*
D03*
X34085Y9252D02*
D03*
X35364Y12805D02*
D03*
X35709Y12205D02*
D03*
Y12589D02*
D03*
X36152Y10098D02*
D03*
X31191Y15807D02*
D03*
X30906Y16191D02*
D03*
X31388Y17087D02*
D03*
X30630Y17451D02*
D03*
X22766Y13661D02*
D03*
X31240Y17559D02*
D03*
X26732Y15472D02*
D03*
X26407Y15620D02*
D03*
X22687Y14685D02*
D03*
X26663Y17343D02*
D03*
X23169Y14508D02*
D03*
X23445Y14242D02*
D03*
X26073Y15571D02*
D03*
X25778Y15837D02*
D03*
X41713Y13130D02*
D03*
X24921Y15738D02*
D03*
X24419Y15856D02*
D03*
X23819Y15187D02*
D03*
X23652Y15522D02*
D03*
X50846Y12707D02*
D03*
X41181Y13957D02*
D03*
X49882Y13445D02*
D03*
X27077Y23533D02*
D03*
X24892Y20413D02*
D03*
X24941Y21634D02*
D03*
X25069Y23287D02*
D03*
X52766Y26102D02*
D03*
X52736Y26762D02*
D03*
X54852Y20157D02*
D03*
X30010Y17687D02*
D03*
X27037Y21043D02*
D03*
X27333Y21673D02*
D03*
X35768Y27421D02*
D03*
X34587Y27441D02*
D03*
X31250Y23652D02*
D03*
X30551Y22923D02*
D03*
X29213Y21250D02*
D03*
X29813Y21161D02*
D03*
X31890Y19626D02*
D03*
X31880Y19242D02*
D03*
X45709Y26467D02*
D03*
X47205D02*
D03*
Y27963D02*
D03*
X45709D02*
D03*
X46457Y27205D02*
D03*
X49862Y26378D02*
D03*
X40413Y22835D02*
D03*
X37382Y21329D02*
D03*
X47884Y30344D02*
D03*
X50846Y26398D02*
D03*
X47982Y24183D02*
D03*
X38671Y19439D02*
D03*
X39341D02*
D03*
Y20167D02*
D03*
X38671D02*
D03*
X39006Y19803D02*
D03*
X47283Y18130D02*
D03*
X43337Y17756D02*
D03*
X51348Y28209D02*
D03*
X48868Y27057D02*
D03*
X45138Y30463D02*
D03*
X45522Y30482D02*
D03*
X49380Y27569D02*
D03*
X50089Y28199D02*
D03*
D182*
X15039Y7667D02*
D03*
X16319Y28888D02*
D03*
X18790Y31881D02*
D03*
X18159Y32756D02*
D03*
X18465Y35453D02*
D03*
X17785Y34547D02*
D03*
X16427Y17667D02*
D03*
X15837Y10010D02*
D03*
X12441Y35807D02*
D03*
X10787Y33287D02*
D03*
X38474Y30295D02*
D03*
X46427Y32835D02*
D03*
X45787Y33051D02*
D03*
X47185Y33947D02*
D03*
X19813Y34469D02*
D03*
X19616Y35049D02*
D03*
X23357Y6240D02*
D03*
X23356Y5285D02*
D03*
D183*
X53789Y11102D02*
D03*
Y33150D02*
D03*
X2608D02*
D03*
Y11102D02*
D03*
D184*
X50065Y7870D02*
D03*
Y5870D02*
D03*
X48065Y7870D02*
D03*
Y5870D02*
D03*
D185*
X48573Y36250D02*
D03*
Y33494D02*
D03*
X50817Y36250D02*
D03*
Y33494D02*
D03*
M02*
