%FSLAX24Y24*%
%MOIN*%
G70*
G01*
G75*
G04 Layer_Color=8388736*
%ADD10C,0.0079*%
G04:AMPARAMS|DCode=11|XSize=28mil|YSize=35.8mil|CornerRadius=2.8mil|HoleSize=0mil|Usage=FLASHONLY|Rotation=0.000|XOffset=0mil|YOffset=0mil|HoleType=Round|Shape=RoundedRectangle|*
%AMROUNDEDRECTD11*
21,1,0.0280,0.0302,0,0,0.0*
21,1,0.0224,0.0358,0,0,0.0*
1,1,0.0056,0.0112,-0.0151*
1,1,0.0056,-0.0112,-0.0151*
1,1,0.0056,-0.0112,0.0151*
1,1,0.0056,0.0112,0.0151*
%
%ADD11ROUNDEDRECTD11*%
G04:AMPARAMS|DCode=12|XSize=41mil|YSize=36mil|CornerRadius=1.8mil|HoleSize=0mil|Usage=FLASHONLY|Rotation=0.000|XOffset=0mil|YOffset=0mil|HoleType=Round|Shape=RoundedRectangle|*
%AMROUNDEDRECTD12*
21,1,0.0410,0.0324,0,0,0.0*
21,1,0.0374,0.0360,0,0,0.0*
1,1,0.0036,0.0187,-0.0162*
1,1,0.0036,-0.0187,-0.0162*
1,1,0.0036,-0.0187,0.0162*
1,1,0.0036,0.0187,0.0162*
%
%ADD12ROUNDEDRECTD12*%
G04:AMPARAMS|DCode=13|XSize=41mil|YSize=36mil|CornerRadius=1.8mil|HoleSize=0mil|Usage=FLASHONLY|Rotation=270.000|XOffset=0mil|YOffset=0mil|HoleType=Round|Shape=RoundedRectangle|*
%AMROUNDEDRECTD13*
21,1,0.0410,0.0324,0,0,270.0*
21,1,0.0374,0.0360,0,0,270.0*
1,1,0.0036,-0.0162,-0.0187*
1,1,0.0036,-0.0162,0.0187*
1,1,0.0036,0.0162,0.0187*
1,1,0.0036,0.0162,-0.0187*
%
%ADD13ROUNDEDRECTD13*%
%ADD14O,0.0394X0.0984*%
%ADD15O,0.0984X0.0394*%
G04:AMPARAMS|DCode=16|XSize=28mil|YSize=35.8mil|CornerRadius=2.8mil|HoleSize=0mil|Usage=FLASHONLY|Rotation=270.000|XOffset=0mil|YOffset=0mil|HoleType=Round|Shape=RoundedRectangle|*
%AMROUNDEDRECTD16*
21,1,0.0280,0.0302,0,0,270.0*
21,1,0.0224,0.0358,0,0,270.0*
1,1,0.0056,-0.0151,-0.0112*
1,1,0.0056,-0.0151,0.0112*
1,1,0.0056,0.0151,0.0112*
1,1,0.0056,0.0151,-0.0112*
%
%ADD16ROUNDEDRECTD16*%
%ADD17O,0.0591X0.0281*%
G04:AMPARAMS|DCode=18|XSize=78.7mil|YSize=47.2mil|CornerRadius=11.8mil|HoleSize=0mil|Usage=FLASHONLY|Rotation=180.000|XOffset=0mil|YOffset=0mil|HoleType=Round|Shape=RoundedRectangle|*
%AMROUNDEDRECTD18*
21,1,0.0787,0.0236,0,0,180.0*
21,1,0.0551,0.0472,0,0,180.0*
1,1,0.0236,-0.0276,0.0118*
1,1,0.0236,0.0276,0.0118*
1,1,0.0236,0.0276,-0.0118*
1,1,0.0236,-0.0276,-0.0118*
%
%ADD18ROUNDEDRECTD18*%
%ADD19C,0.0472*%
%ADD20O,0.0709X0.0315*%
%ADD21C,0.0157*%
%ADD22C,0.0118*%
%ADD23C,0.0394*%
%ADD24C,0.0197*%
%ADD25C,0.0600*%
%ADD26R,0.0600X0.0600*%
%ADD27O,0.0984X0.2165*%
%ADD28C,0.0709*%
%ADD29R,0.0600X0.0600*%
%ADD30C,0.0669*%
%ADD31C,0.0315*%
%ADD32C,0.0394*%
%ADD33O,0.0281X0.0591*%
G04:AMPARAMS|DCode=34|XSize=94.5mil|YSize=110.2mil|CornerRadius=23.6mil|HoleSize=0mil|Usage=FLASHONLY|Rotation=180.000|XOffset=0mil|YOffset=0mil|HoleType=Round|Shape=RoundedRectangle|*
%AMROUNDEDRECTD34*
21,1,0.0945,0.0630,0,0,180.0*
21,1,0.0472,0.1102,0,0,180.0*
1,1,0.0472,-0.0236,0.0315*
1,1,0.0472,0.0236,0.0315*
1,1,0.0472,0.0236,-0.0315*
1,1,0.0472,-0.0236,-0.0315*
%
%ADD34ROUNDEDRECTD34*%
G04:AMPARAMS|DCode=35|XSize=51.2mil|YSize=72mil|CornerRadius=2.6mil|HoleSize=0mil|Usage=FLASHONLY|Rotation=90.000|XOffset=0mil|YOffset=0mil|HoleType=Round|Shape=RoundedRectangle|*
%AMROUNDEDRECTD35*
21,1,0.0512,0.0669,0,0,90.0*
21,1,0.0461,0.0720,0,0,90.0*
1,1,0.0051,0.0335,0.0230*
1,1,0.0051,0.0335,-0.0230*
1,1,0.0051,-0.0335,-0.0230*
1,1,0.0051,-0.0335,0.0230*
%
%ADD35ROUNDEDRECTD35*%
G04:AMPARAMS|DCode=36|XSize=54mil|YSize=50mil|CornerRadius=12.5mil|HoleSize=0mil|Usage=FLASHONLY|Rotation=180.000|XOffset=0mil|YOffset=0mil|HoleType=Round|Shape=RoundedRectangle|*
%AMROUNDEDRECTD36*
21,1,0.0540,0.0250,0,0,180.0*
21,1,0.0290,0.0500,0,0,180.0*
1,1,0.0250,-0.0145,0.0125*
1,1,0.0250,0.0145,0.0125*
1,1,0.0250,0.0145,-0.0125*
1,1,0.0250,-0.0145,-0.0125*
%
%ADD36ROUNDEDRECTD36*%
G04:AMPARAMS|DCode=37|XSize=70.9mil|YSize=51.2mil|CornerRadius=12.8mil|HoleSize=0mil|Usage=FLASHONLY|Rotation=90.000|XOffset=0mil|YOffset=0mil|HoleType=Round|Shape=RoundedRectangle|*
%AMROUNDEDRECTD37*
21,1,0.0709,0.0256,0,0,90.0*
21,1,0.0453,0.0512,0,0,90.0*
1,1,0.0256,0.0128,0.0226*
1,1,0.0256,0.0128,-0.0226*
1,1,0.0256,-0.0128,-0.0226*
1,1,0.0256,-0.0128,0.0226*
%
%ADD37ROUNDEDRECTD37*%
%ADD38C,0.0070*%
%ADD39C,0.0071*%
%ADD40C,0.0098*%
%ADD41C,0.0100*%
%ADD42C,0.0039*%
G04:AMPARAMS|DCode=43|XSize=33.9mil|YSize=41.8mil|CornerRadius=5.8mil|HoleSize=0mil|Usage=FLASHONLY|Rotation=0.000|XOffset=0mil|YOffset=0mil|HoleType=Round|Shape=RoundedRectangle|*
%AMROUNDEDRECTD43*
21,1,0.0339,0.0302,0,0,0.0*
21,1,0.0224,0.0418,0,0,0.0*
1,1,0.0116,0.0112,-0.0151*
1,1,0.0116,-0.0112,-0.0151*
1,1,0.0116,-0.0112,0.0151*
1,1,0.0116,0.0112,0.0151*
%
%ADD43ROUNDEDRECTD43*%
G04:AMPARAMS|DCode=44|XSize=47mil|YSize=42mil|CornerRadius=4.8mil|HoleSize=0mil|Usage=FLASHONLY|Rotation=0.000|XOffset=0mil|YOffset=0mil|HoleType=Round|Shape=RoundedRectangle|*
%AMROUNDEDRECTD44*
21,1,0.0470,0.0324,0,0,0.0*
21,1,0.0374,0.0420,0,0,0.0*
1,1,0.0096,0.0187,-0.0162*
1,1,0.0096,-0.0187,-0.0162*
1,1,0.0096,-0.0187,0.0162*
1,1,0.0096,0.0187,0.0162*
%
%ADD44ROUNDEDRECTD44*%
G04:AMPARAMS|DCode=45|XSize=47mil|YSize=42mil|CornerRadius=4.8mil|HoleSize=0mil|Usage=FLASHONLY|Rotation=270.000|XOffset=0mil|YOffset=0mil|HoleType=Round|Shape=RoundedRectangle|*
%AMROUNDEDRECTD45*
21,1,0.0470,0.0324,0,0,270.0*
21,1,0.0374,0.0420,0,0,270.0*
1,1,0.0096,-0.0162,-0.0187*
1,1,0.0096,-0.0162,0.0187*
1,1,0.0096,0.0162,0.0187*
1,1,0.0096,0.0162,-0.0187*
%
%ADD45ROUNDEDRECTD45*%
%ADD46O,0.0454X0.1044*%
%ADD47O,0.1044X0.0454*%
G04:AMPARAMS|DCode=48|XSize=33.9mil|YSize=41.8mil|CornerRadius=5.8mil|HoleSize=0mil|Usage=FLASHONLY|Rotation=270.000|XOffset=0mil|YOffset=0mil|HoleType=Round|Shape=RoundedRectangle|*
%AMROUNDEDRECTD48*
21,1,0.0339,0.0302,0,0,270.0*
21,1,0.0224,0.0418,0,0,270.0*
1,1,0.0116,-0.0151,-0.0112*
1,1,0.0116,-0.0151,0.0112*
1,1,0.0116,0.0151,0.0112*
1,1,0.0116,0.0151,-0.0112*
%
%ADD48ROUNDEDRECTD48*%
%ADD49O,0.0650X0.0341*%
G04:AMPARAMS|DCode=50|XSize=84.7mil|YSize=53.2mil|CornerRadius=14.8mil|HoleSize=0mil|Usage=FLASHONLY|Rotation=180.000|XOffset=0mil|YOffset=0mil|HoleType=Round|Shape=RoundedRectangle|*
%AMROUNDEDRECTD50*
21,1,0.0847,0.0236,0,0,180.0*
21,1,0.0551,0.0532,0,0,180.0*
1,1,0.0296,-0.0276,0.0118*
1,1,0.0296,0.0276,0.0118*
1,1,0.0296,0.0276,-0.0118*
1,1,0.0296,-0.0276,-0.0118*
%
%ADD50ROUNDEDRECTD50*%
%ADD51O,0.0768X0.0375*%
%ADD52C,0.0660*%
%ADD53R,0.0660X0.0660*%
%ADD54O,0.1044X0.2225*%
%ADD55C,0.0768*%
%ADD56R,0.0660X0.0660*%
%ADD57C,0.0729*%
%ADD58C,0.0532*%
G36*
X14867Y13454D02*
X14962Y13415D01*
X15045Y13352D01*
X15108Y13269D01*
X15147Y13174D01*
X15161Y13071D01*
X15147Y12968D01*
X15108Y12872D01*
X15045Y12790D01*
X14962Y12727D01*
X14867Y12687D01*
X14764Y12674D01*
X14661Y12687D01*
X14565Y12727D01*
X14483Y12790D01*
X14420Y12872D01*
X14380Y12968D01*
X14367Y13071D01*
X14380Y13174D01*
X14420Y13269D01*
X14483Y13352D01*
X14565Y13415D01*
X14661Y13454D01*
X14764Y13468D01*
X14867Y13454D01*
D02*
G37*
G36*
X35260Y28612D02*
X35356Y28572D01*
X35438Y28509D01*
X35501Y28427D01*
X35541Y28331D01*
X35555Y28228D01*
X35541Y28126D01*
X35501Y28030D01*
X35438Y27948D01*
X35356Y27884D01*
X35260Y27845D01*
X35157Y27831D01*
X35055Y27845D01*
X34959Y27884D01*
X34877Y27948D01*
X34814Y28030D01*
X34774Y28126D01*
X34760Y28228D01*
X34774Y28331D01*
X34814Y28427D01*
X34877Y28509D01*
X34959Y28572D01*
X35055Y28612D01*
X35157Y28625D01*
X35260Y28612D01*
D02*
G37*
D43*
X12588Y29094D02*
D03*
X11978D02*
D03*
X34990Y19370D02*
D03*
X34380D02*
D03*
X34419Y24094D02*
D03*
X35029D02*
D03*
X34419Y21772D02*
D03*
X35029D02*
D03*
X10876Y29094D02*
D03*
X11486D02*
D03*
D44*
X34941Y26378D02*
D03*
X35611D02*
D03*
D45*
X10866Y23563D02*
D03*
Y22893D02*
D03*
X16063Y13799D02*
D03*
Y14469D02*
D03*
D46*
X24449Y19075D02*
D03*
Y28327D02*
D03*
X31575Y19075D02*
D03*
X32165D02*
D03*
X30984D02*
D03*
X30394D02*
D03*
X29803D02*
D03*
X29213D02*
D03*
X25630D02*
D03*
X27402D02*
D03*
X26811D02*
D03*
X26220D02*
D03*
X25039D02*
D03*
X30984Y28327D02*
D03*
X31575D02*
D03*
X32165D02*
D03*
X29213D02*
D03*
X29803D02*
D03*
X30394D02*
D03*
X25039D02*
D03*
X25630D02*
D03*
X26220D02*
D03*
X26811D02*
D03*
X27402D02*
D03*
D47*
X32933Y27559D02*
D03*
Y24606D02*
D03*
Y21614D02*
D03*
X23681Y27559D02*
D03*
Y24606D02*
D03*
Y21614D02*
D03*
X32933Y26969D02*
D03*
Y26378D02*
D03*
Y25787D02*
D03*
Y25197D02*
D03*
Y22795D02*
D03*
Y22205D02*
D03*
Y21024D02*
D03*
Y20433D02*
D03*
Y19843D02*
D03*
X23681Y26969D02*
D03*
Y26378D02*
D03*
Y25787D02*
D03*
Y25197D02*
D03*
Y22795D02*
D03*
Y22205D02*
D03*
Y20433D02*
D03*
Y21024D02*
D03*
Y19843D02*
D03*
D48*
X13071Y27412D02*
D03*
Y28022D02*
D03*
X12559Y28022D02*
D03*
Y27412D02*
D03*
D49*
X11845Y27402D02*
D03*
Y28202D02*
D03*
X10935Y27802D02*
D03*
D50*
X22047Y24882D02*
D03*
Y22882D02*
D03*
X12097Y24882D02*
D03*
Y22882D02*
D03*
X22047Y23882D02*
D03*
X12097D02*
D03*
D51*
X21969Y15945D02*
D03*
Y17126D02*
D03*
X21988Y17559D02*
D03*
X21969Y17992D02*
D03*
Y18425D02*
D03*
Y13346D02*
D03*
Y13780D02*
D03*
Y14213D02*
D03*
Y14646D02*
D03*
Y15079D02*
D03*
Y18858D02*
D03*
Y15512D02*
D03*
X17244Y18858D02*
D03*
Y18425D02*
D03*
Y17992D02*
D03*
X17264Y17559D02*
D03*
X17244Y17126D02*
D03*
X17244Y15512D02*
D03*
Y15079D02*
D03*
Y14646D02*
D03*
Y14213D02*
D03*
Y13780D02*
D03*
Y13346D02*
D03*
Y15945D02*
D03*
D52*
X14134Y19047D02*
D03*
Y18047D02*
D03*
Y15409D02*
D03*
X15063Y12102D02*
D03*
X18063D02*
D03*
X21063D02*
D03*
X15063Y11102D02*
D03*
X18063D02*
D03*
X14063Y12102D02*
D03*
X16063D02*
D03*
X17063D02*
D03*
X19063D02*
D03*
X20063D02*
D03*
X14063Y11102D02*
D03*
X16063D02*
D03*
X17063D02*
D03*
X19063D02*
D03*
X20063D02*
D03*
X15063Y28638D02*
D03*
X18063D02*
D03*
X21063D02*
D03*
X15063Y27638D02*
D03*
X18063D02*
D03*
X14063Y28638D02*
D03*
X16063D02*
D03*
X17063D02*
D03*
X19063D02*
D03*
X20063D02*
D03*
X14063Y27638D02*
D03*
X16063D02*
D03*
X17063D02*
D03*
X19063D02*
D03*
X20063D02*
D03*
X35945Y19386D02*
D03*
Y21748D02*
D03*
Y24110D02*
D03*
D53*
X14134Y17047D02*
D03*
Y14409D02*
D03*
X35945Y18386D02*
D03*
Y20748D02*
D03*
Y23110D02*
D03*
D54*
X37165Y26378D02*
D03*
Y15945D02*
D03*
D55*
X27008Y14173D02*
D03*
D56*
X21063Y11102D02*
D03*
Y27638D02*
D03*
D57*
X13949Y25744D02*
D03*
D58*
X20170Y21020D02*
D03*
M02*
