%FSLAX24Y24*%
%MOIN*%
G70*
G01*
G75*
G04 Layer_Color=32896*
%ADD10C,0.0079*%
G04:AMPARAMS|DCode=11|XSize=28mil|YSize=35.8mil|CornerRadius=2.8mil|HoleSize=0mil|Usage=FLASHONLY|Rotation=0.000|XOffset=0mil|YOffset=0mil|HoleType=Round|Shape=RoundedRectangle|*
%AMROUNDEDRECTD11*
21,1,0.0280,0.0302,0,0,0.0*
21,1,0.0224,0.0358,0,0,0.0*
1,1,0.0056,0.0112,-0.0151*
1,1,0.0056,-0.0112,-0.0151*
1,1,0.0056,-0.0112,0.0151*
1,1,0.0056,0.0112,0.0151*
%
%ADD11ROUNDEDRECTD11*%
G04:AMPARAMS|DCode=12|XSize=41mil|YSize=36mil|CornerRadius=1.8mil|HoleSize=0mil|Usage=FLASHONLY|Rotation=0.000|XOffset=0mil|YOffset=0mil|HoleType=Round|Shape=RoundedRectangle|*
%AMROUNDEDRECTD12*
21,1,0.0410,0.0324,0,0,0.0*
21,1,0.0374,0.0360,0,0,0.0*
1,1,0.0036,0.0187,-0.0162*
1,1,0.0036,-0.0187,-0.0162*
1,1,0.0036,-0.0187,0.0162*
1,1,0.0036,0.0187,0.0162*
%
%ADD12ROUNDEDRECTD12*%
G04:AMPARAMS|DCode=13|XSize=41mil|YSize=36mil|CornerRadius=1.8mil|HoleSize=0mil|Usage=FLASHONLY|Rotation=270.000|XOffset=0mil|YOffset=0mil|HoleType=Round|Shape=RoundedRectangle|*
%AMROUNDEDRECTD13*
21,1,0.0410,0.0324,0,0,270.0*
21,1,0.0374,0.0360,0,0,270.0*
1,1,0.0036,-0.0162,-0.0187*
1,1,0.0036,-0.0162,0.0187*
1,1,0.0036,0.0162,0.0187*
1,1,0.0036,0.0162,-0.0187*
%
%ADD13ROUNDEDRECTD13*%
%ADD14O,0.0394X0.0984*%
%ADD15O,0.0984X0.0394*%
G04:AMPARAMS|DCode=16|XSize=28mil|YSize=35.8mil|CornerRadius=2.8mil|HoleSize=0mil|Usage=FLASHONLY|Rotation=270.000|XOffset=0mil|YOffset=0mil|HoleType=Round|Shape=RoundedRectangle|*
%AMROUNDEDRECTD16*
21,1,0.0280,0.0302,0,0,270.0*
21,1,0.0224,0.0358,0,0,270.0*
1,1,0.0056,-0.0151,-0.0112*
1,1,0.0056,-0.0151,0.0112*
1,1,0.0056,0.0151,0.0112*
1,1,0.0056,0.0151,-0.0112*
%
%ADD16ROUNDEDRECTD16*%
%ADD17O,0.0591X0.0281*%
G04:AMPARAMS|DCode=18|XSize=78.7mil|YSize=47.2mil|CornerRadius=11.8mil|HoleSize=0mil|Usage=FLASHONLY|Rotation=180.000|XOffset=0mil|YOffset=0mil|HoleType=Round|Shape=RoundedRectangle|*
%AMROUNDEDRECTD18*
21,1,0.0787,0.0236,0,0,180.0*
21,1,0.0551,0.0472,0,0,180.0*
1,1,0.0236,-0.0276,0.0118*
1,1,0.0236,0.0276,0.0118*
1,1,0.0236,0.0276,-0.0118*
1,1,0.0236,-0.0276,-0.0118*
%
%ADD18ROUNDEDRECTD18*%
%ADD19C,0.0472*%
%ADD20O,0.0709X0.0315*%
%ADD21C,0.0157*%
%ADD22C,0.0118*%
%ADD23C,0.0394*%
%ADD24C,0.0197*%
%ADD25C,0.0600*%
%ADD26R,0.0600X0.0600*%
%ADD27O,0.0984X0.2165*%
%ADD28C,0.0709*%
%ADD29R,0.0600X0.0600*%
%ADD30C,0.0669*%
%ADD31C,0.0315*%
%ADD32C,0.0394*%
%ADD33O,0.0281X0.0591*%
G04:AMPARAMS|DCode=34|XSize=94.5mil|YSize=110.2mil|CornerRadius=23.6mil|HoleSize=0mil|Usage=FLASHONLY|Rotation=180.000|XOffset=0mil|YOffset=0mil|HoleType=Round|Shape=RoundedRectangle|*
%AMROUNDEDRECTD34*
21,1,0.0945,0.0630,0,0,180.0*
21,1,0.0472,0.1102,0,0,180.0*
1,1,0.0472,-0.0236,0.0315*
1,1,0.0472,0.0236,0.0315*
1,1,0.0472,0.0236,-0.0315*
1,1,0.0472,-0.0236,-0.0315*
%
%ADD34ROUNDEDRECTD34*%
G04:AMPARAMS|DCode=35|XSize=51.2mil|YSize=72mil|CornerRadius=2.6mil|HoleSize=0mil|Usage=FLASHONLY|Rotation=90.000|XOffset=0mil|YOffset=0mil|HoleType=Round|Shape=RoundedRectangle|*
%AMROUNDEDRECTD35*
21,1,0.0512,0.0669,0,0,90.0*
21,1,0.0461,0.0720,0,0,90.0*
1,1,0.0051,0.0335,0.0230*
1,1,0.0051,0.0335,-0.0230*
1,1,0.0051,-0.0335,-0.0230*
1,1,0.0051,-0.0335,0.0230*
%
%ADD35ROUNDEDRECTD35*%
G04:AMPARAMS|DCode=36|XSize=54mil|YSize=50mil|CornerRadius=12.5mil|HoleSize=0mil|Usage=FLASHONLY|Rotation=180.000|XOffset=0mil|YOffset=0mil|HoleType=Round|Shape=RoundedRectangle|*
%AMROUNDEDRECTD36*
21,1,0.0540,0.0250,0,0,180.0*
21,1,0.0290,0.0500,0,0,180.0*
1,1,0.0250,-0.0145,0.0125*
1,1,0.0250,0.0145,0.0125*
1,1,0.0250,0.0145,-0.0125*
1,1,0.0250,-0.0145,-0.0125*
%
%ADD36ROUNDEDRECTD36*%
G04:AMPARAMS|DCode=37|XSize=70.9mil|YSize=51.2mil|CornerRadius=12.8mil|HoleSize=0mil|Usage=FLASHONLY|Rotation=90.000|XOffset=0mil|YOffset=0mil|HoleType=Round|Shape=RoundedRectangle|*
%AMROUNDEDRECTD37*
21,1,0.0709,0.0256,0,0,90.0*
21,1,0.0453,0.0512,0,0,90.0*
1,1,0.0256,0.0128,0.0226*
1,1,0.0256,0.0128,-0.0226*
1,1,0.0256,-0.0128,-0.0226*
1,1,0.0256,-0.0128,0.0226*
%
%ADD37ROUNDEDRECTD37*%
%ADD38C,0.0070*%
%ADD39C,0.0071*%
%ADD40C,0.0098*%
%ADD41C,0.0100*%
%ADD42C,0.0039*%
G04:AMPARAMS|DCode=43|XSize=33.9mil|YSize=41.8mil|CornerRadius=5.8mil|HoleSize=0mil|Usage=FLASHONLY|Rotation=0.000|XOffset=0mil|YOffset=0mil|HoleType=Round|Shape=RoundedRectangle|*
%AMROUNDEDRECTD43*
21,1,0.0339,0.0302,0,0,0.0*
21,1,0.0224,0.0418,0,0,0.0*
1,1,0.0116,0.0112,-0.0151*
1,1,0.0116,-0.0112,-0.0151*
1,1,0.0116,-0.0112,0.0151*
1,1,0.0116,0.0112,0.0151*
%
%ADD43ROUNDEDRECTD43*%
G04:AMPARAMS|DCode=44|XSize=47mil|YSize=42mil|CornerRadius=4.8mil|HoleSize=0mil|Usage=FLASHONLY|Rotation=0.000|XOffset=0mil|YOffset=0mil|HoleType=Round|Shape=RoundedRectangle|*
%AMROUNDEDRECTD44*
21,1,0.0470,0.0324,0,0,0.0*
21,1,0.0374,0.0420,0,0,0.0*
1,1,0.0096,0.0187,-0.0162*
1,1,0.0096,-0.0187,-0.0162*
1,1,0.0096,-0.0187,0.0162*
1,1,0.0096,0.0187,0.0162*
%
%ADD44ROUNDEDRECTD44*%
G04:AMPARAMS|DCode=45|XSize=47mil|YSize=42mil|CornerRadius=4.8mil|HoleSize=0mil|Usage=FLASHONLY|Rotation=270.000|XOffset=0mil|YOffset=0mil|HoleType=Round|Shape=RoundedRectangle|*
%AMROUNDEDRECTD45*
21,1,0.0470,0.0324,0,0,270.0*
21,1,0.0374,0.0420,0,0,270.0*
1,1,0.0096,-0.0162,-0.0187*
1,1,0.0096,-0.0162,0.0187*
1,1,0.0096,0.0162,0.0187*
1,1,0.0096,0.0162,-0.0187*
%
%ADD45ROUNDEDRECTD45*%
%ADD46O,0.0454X0.1044*%
%ADD47O,0.1044X0.0454*%
G04:AMPARAMS|DCode=48|XSize=33.9mil|YSize=41.8mil|CornerRadius=5.8mil|HoleSize=0mil|Usage=FLASHONLY|Rotation=270.000|XOffset=0mil|YOffset=0mil|HoleType=Round|Shape=RoundedRectangle|*
%AMROUNDEDRECTD48*
21,1,0.0339,0.0302,0,0,270.0*
21,1,0.0224,0.0418,0,0,270.0*
1,1,0.0116,-0.0151,-0.0112*
1,1,0.0116,-0.0151,0.0112*
1,1,0.0116,0.0151,0.0112*
1,1,0.0116,0.0151,-0.0112*
%
%ADD48ROUNDEDRECTD48*%
%ADD49O,0.0650X0.0341*%
G04:AMPARAMS|DCode=50|XSize=84.7mil|YSize=53.2mil|CornerRadius=14.8mil|HoleSize=0mil|Usage=FLASHONLY|Rotation=180.000|XOffset=0mil|YOffset=0mil|HoleType=Round|Shape=RoundedRectangle|*
%AMROUNDEDRECTD50*
21,1,0.0847,0.0236,0,0,180.0*
21,1,0.0551,0.0532,0,0,180.0*
1,1,0.0296,-0.0276,0.0118*
1,1,0.0296,0.0276,0.0118*
1,1,0.0296,0.0276,-0.0118*
1,1,0.0296,-0.0276,-0.0118*
%
%ADD50ROUNDEDRECTD50*%
%ADD51O,0.0768X0.0375*%
%ADD52C,0.0660*%
%ADD53R,0.0660X0.0660*%
%ADD54O,0.1044X0.2225*%
%ADD55C,0.0768*%
%ADD56R,0.0660X0.0660*%
%ADD57C,0.0729*%
%ADD58C,0.0532*%
%ADD59O,0.0341X0.0650*%
G04:AMPARAMS|DCode=60|XSize=100.5mil|YSize=116.2mil|CornerRadius=26.6mil|HoleSize=0mil|Usage=FLASHONLY|Rotation=180.000|XOffset=0mil|YOffset=0mil|HoleType=Round|Shape=RoundedRectangle|*
%AMROUNDEDRECTD60*
21,1,0.1005,0.0630,0,0,180.0*
21,1,0.0472,0.1162,0,0,180.0*
1,1,0.0532,-0.0236,0.0315*
1,1,0.0532,0.0236,0.0315*
1,1,0.0532,0.0236,-0.0315*
1,1,0.0532,-0.0236,-0.0315*
%
%ADD60ROUNDEDRECTD60*%
G04:AMPARAMS|DCode=61|XSize=57.2mil|YSize=78mil|CornerRadius=5.6mil|HoleSize=0mil|Usage=FLASHONLY|Rotation=90.000|XOffset=0mil|YOffset=0mil|HoleType=Round|Shape=RoundedRectangle|*
%AMROUNDEDRECTD61*
21,1,0.0572,0.0669,0,0,90.0*
21,1,0.0461,0.0780,0,0,90.0*
1,1,0.0111,0.0335,0.0230*
1,1,0.0111,0.0335,-0.0230*
1,1,0.0111,-0.0335,-0.0230*
1,1,0.0111,-0.0335,0.0230*
%
%ADD61ROUNDEDRECTD61*%
G04:AMPARAMS|DCode=62|XSize=60mil|YSize=56mil|CornerRadius=15.5mil|HoleSize=0mil|Usage=FLASHONLY|Rotation=180.000|XOffset=0mil|YOffset=0mil|HoleType=Round|Shape=RoundedRectangle|*
%AMROUNDEDRECTD62*
21,1,0.0600,0.0250,0,0,180.0*
21,1,0.0290,0.0560,0,0,180.0*
1,1,0.0310,-0.0145,0.0125*
1,1,0.0310,0.0145,0.0125*
1,1,0.0310,0.0145,-0.0125*
1,1,0.0310,-0.0145,-0.0125*
%
%ADD62ROUNDEDRECTD62*%
G04:AMPARAMS|DCode=63|XSize=76.8mil|YSize=57.2mil|CornerRadius=15.8mil|HoleSize=0mil|Usage=FLASHONLY|Rotation=90.000|XOffset=0mil|YOffset=0mil|HoleType=Round|Shape=RoundedRectangle|*
%AMROUNDEDRECTD63*
21,1,0.0768,0.0256,0,0,90.0*
21,1,0.0453,0.0572,0,0,90.0*
1,1,0.0316,0.0128,0.0226*
1,1,0.0316,0.0128,-0.0226*
1,1,0.0316,-0.0128,-0.0226*
1,1,0.0316,-0.0128,0.0226*
%
%ADD63ROUNDEDRECTD63*%
%ADD64C,0.0070*%
G36*
X20281Y14166D02*
X19561D01*
Y14276D01*
X20281D01*
Y14166D01*
D02*
G37*
G36*
X28903Y28300D02*
X28183D01*
Y28410D01*
X28903D01*
Y28300D01*
D02*
G37*
D10*
X28543Y28360D02*
X28873Y27930D01*
X28213D02*
X28543Y28360D01*
X28213Y27930D02*
X28873D01*
X19921Y14226D02*
X20251Y13796D01*
X19591D02*
X19921Y14226D01*
X19591Y13796D02*
X20251D01*
X16296Y13660D02*
Y15010D01*
X15516Y13660D02*
Y15010D01*
X16356Y13180D02*
Y13480D01*
X16206Y13330D02*
X16506D01*
X37362Y28780D02*
X37100D01*
X36969Y28648D01*
X37100Y28517D01*
X37362D01*
X37165D01*
Y28780D01*
X37362Y28124D02*
Y28386D01*
X37100Y28124D01*
X37034D01*
X36969Y28189D01*
Y28320D01*
X37034Y28386D01*
X22625Y13714D02*
X22559Y13780D01*
Y13911D01*
X22625Y13976D01*
X22887D01*
X22953Y13911D01*
Y13780D01*
X22887Y13714D01*
X22953Y13583D02*
Y13452D01*
Y13517D01*
X22559D01*
X22625Y13583D01*
X22099Y13734D02*
X22033Y13799D01*
Y13930D01*
X22099Y13996D01*
X22361D01*
X22427Y13930D01*
Y13799D01*
X22361Y13734D01*
X22427Y13340D02*
Y13602D01*
X22164Y13340D01*
X22099D01*
X22033Y13406D01*
Y13537D01*
X22099Y13602D01*
X17034Y15446D02*
X16969Y15512D01*
Y15643D01*
X17034Y15709D01*
X17297D01*
X17362Y15643D01*
Y15512D01*
X17297Y15446D01*
X17034Y15315D02*
X16969Y15249D01*
Y15118D01*
X17034Y15053D01*
X17100D01*
X17165Y15118D01*
X17231Y15053D01*
X17297D01*
X17362Y15118D01*
Y15249D01*
X17297Y15315D01*
X17231D01*
X17165Y15249D01*
X17100Y15315D01*
X17034D01*
X17165Y15249D02*
Y15118D01*
X23950Y28261D02*
X24016Y28327D01*
X24147D01*
X24213Y28261D01*
Y27999D01*
X24147Y27933D01*
X24016D01*
X23950Y27999D01*
X23819D02*
X23753Y27933D01*
X23622D01*
X23557Y27999D01*
Y28261D01*
X23622Y28327D01*
X23753D01*
X23819Y28261D01*
Y28195D01*
X23753Y28130D01*
X23557D01*
X32257Y28615D02*
X32323Y28681D01*
X32454D01*
X32520Y28615D01*
Y28353D01*
X32454Y28287D01*
X32323D01*
X32257Y28353D01*
X32126Y28287D02*
X31995D01*
X32061D01*
Y28681D01*
X32126Y28615D01*
X31798D02*
X31733Y28681D01*
X31601D01*
X31536Y28615D01*
Y28353D01*
X31601Y28287D01*
X31733D01*
X31798Y28353D01*
Y28615D01*
X20727Y25584D02*
X20793Y25649D01*
X20924D01*
X20990Y25584D01*
Y25321D01*
X20924Y25256D01*
X20793D01*
X20727Y25321D01*
X20596Y25256D02*
X20465D01*
X20530D01*
Y25649D01*
X20596Y25584D01*
X20268D02*
X20202Y25649D01*
X20071D01*
X20006Y25584D01*
Y25518D01*
X20071Y25453D01*
X20137D01*
X20071D01*
X20006Y25387D01*
Y25321D01*
X20071Y25256D01*
X20202D01*
X20268Y25321D01*
X22336Y22966D02*
X22402Y23031D01*
X22533D01*
X22598Y22966D01*
Y22703D01*
X22533Y22638D01*
X22402D01*
X22336Y22703D01*
X22205Y22638D02*
X22074D01*
X22139D01*
Y23031D01*
X22205Y22966D01*
X21614Y23031D02*
X21746Y22966D01*
X21877Y22835D01*
Y22703D01*
X21811Y22638D01*
X21680D01*
X21614Y22703D01*
Y22769D01*
X21680Y22835D01*
X21877D01*
X22297Y24068D02*
X22362Y24134D01*
X22493D01*
X22559Y24068D01*
Y23806D01*
X22493Y23740D01*
X22362D01*
X22297Y23806D01*
X22165Y23740D02*
X22034D01*
X22100D01*
Y24134D01*
X22165Y24068D01*
X21837Y24134D02*
X21575D01*
Y24068D01*
X21837Y23806D01*
Y23740D01*
X21496Y15590D02*
Y15197D01*
X21234D01*
X21102D02*
X20971D01*
X21037D01*
Y15590D01*
X21102Y15525D01*
X19252Y15531D02*
X18858D01*
Y15335D01*
X18924Y15269D01*
X19055D01*
X19121Y15335D01*
Y15531D01*
Y15400D02*
X19252Y15269D01*
Y15138D02*
Y15007D01*
Y15072D01*
X18858D01*
X18924Y15138D01*
X24449Y23268D02*
Y23661D01*
X24252D01*
X24186Y23596D01*
Y23465D01*
X24252Y23399D01*
X24449D01*
X24318D02*
X24186Y23268D01*
X23793Y23661D02*
X24055D01*
Y23465D01*
X23924Y23530D01*
X23858D01*
X23793Y23465D01*
Y23333D01*
X23858Y23268D01*
X23990D01*
X24055Y23333D01*
X24411Y23858D02*
Y24252D01*
X24214D01*
X24148Y24186D01*
Y24055D01*
X24214Y23989D01*
X24411D01*
X24280D02*
X24148Y23858D01*
X23755Y24252D02*
X23886Y24186D01*
X24017Y24055D01*
Y23924D01*
X23952Y23858D01*
X23820D01*
X23755Y23924D01*
Y23989D01*
X23820Y24055D01*
X24017D01*
X29488Y29134D02*
X29095D01*
Y28937D01*
X29160Y28871D01*
X29291D01*
X29357Y28937D01*
Y29134D01*
Y29003D02*
X29488Y28871D01*
X29423Y28740D02*
X29488Y28675D01*
Y28544D01*
X29423Y28478D01*
X29160D01*
X29095Y28544D01*
Y28675D01*
X29160Y28740D01*
X29226D01*
X29291Y28675D01*
Y28478D01*
X19685Y16063D02*
X19948D01*
X20079Y15932D01*
X19948Y15801D01*
X19685D01*
Y15669D02*
X20079D01*
Y15473D01*
X20013Y15407D01*
X19751D01*
X19685Y15473D01*
Y15669D01*
X20079Y15276D02*
Y15145D01*
Y15210D01*
X19685D01*
X19751Y15276D01*
X28504Y26969D02*
X28766D01*
X28898Y26837D01*
X28766Y26706D01*
X28504D01*
Y26575D02*
X28898D01*
Y26378D01*
X28832Y26313D01*
X28570D01*
X28504Y26378D01*
Y26575D01*
Y25919D02*
Y26181D01*
X28701D01*
X28635Y26050D01*
Y25985D01*
X28701Y25919D01*
X28832D01*
X28898Y25985D01*
Y26116D01*
X28832Y26181D01*
X18268Y15906D02*
X18530D01*
X18661Y15774D01*
X18530Y15643D01*
X18268D01*
Y15512D02*
Y15250D01*
Y15381D01*
X18661D01*
Y15118D02*
Y14987D01*
Y15053D01*
X18268D01*
X18333Y15118D01*
X24252Y25374D02*
Y25111D01*
X24121Y24980D01*
X23990Y25111D01*
Y25374D01*
X23858D02*
X23596D01*
X23727D01*
Y24980D01*
X23202D02*
X23465D01*
X23202Y25243D01*
Y25308D01*
X23268Y25374D01*
X23399D01*
X23465Y25308D01*
X29843Y27165D02*
X30105D01*
X30236Y27034D01*
X30105Y26903D01*
X29843D01*
Y26772D02*
Y26509D01*
Y26641D01*
X30236D01*
X29908Y26378D02*
X29843Y26313D01*
Y26181D01*
X29908Y26116D01*
X29974D01*
X30039Y26181D01*
Y26247D01*
Y26181D01*
X30105Y26116D01*
X30171D01*
X30236Y26181D01*
Y26313D01*
X30171Y26378D01*
X15236Y13386D02*
X14974Y12992D01*
Y13386D02*
X15236Y12992D01*
X14843D02*
Y13386D01*
X14646D01*
X14580Y13320D01*
Y13189D01*
X14646Y13123D01*
X14843D01*
X14187Y12992D02*
X14449D01*
X14187Y13255D01*
Y13320D01*
X14252Y13386D01*
X14383D01*
X14449Y13320D01*
X19252Y26693D02*
X18990Y26299D01*
Y26693D02*
X19252Y26299D01*
X18858D02*
Y26693D01*
X18662D01*
X18596Y26627D01*
Y26496D01*
X18662Y26430D01*
X18858D01*
X18465Y26627D02*
X18399Y26693D01*
X18268D01*
X18202Y26627D01*
Y26562D01*
X18268Y26496D01*
X18334D01*
X18268D01*
X18202Y26430D01*
Y26365D01*
X18268Y26299D01*
X18399D01*
X18465Y26365D01*
X21759Y18281D02*
X21693Y18347D01*
Y18478D01*
X21759Y18543D01*
X22021D01*
X22087Y18478D01*
Y18347D01*
X22021Y18281D01*
X22087Y17953D02*
X21693D01*
X21890Y18150D01*
Y17887D01*
X15026Y14501D02*
X14961Y14567D01*
Y14698D01*
X15026Y14764D01*
X15289D01*
X15354Y14698D01*
Y14567D01*
X15289Y14501D01*
X14961Y14108D02*
Y14370D01*
X15158D01*
X15092Y14239D01*
Y14173D01*
X15158Y14108D01*
X15289D01*
X15354Y14173D01*
Y14305D01*
X15289Y14370D01*
D38*
X31365Y28169D02*
G03*
X31365Y27659I608J-256D01*
G01*
X32572D02*
G03*
X32572Y28169I-609J255D01*
G01*
X21037Y23642D02*
G03*
X21037Y24152I-608J256D01*
G01*
X19829D02*
G03*
X19830Y23642I609J-255D01*
G01*
X21037Y22618D02*
G03*
X21037Y23129I-608J256D01*
G01*
X19829D02*
G03*
X19830Y22618I609J-255D01*
G01*
X21037Y24626D02*
G03*
X21037Y25137I-608J256D01*
G01*
X19829D02*
G03*
X19830Y24626I609J-255D01*
G01*
X21949Y14225D02*
G03*
X21438Y14226I-256J-608D01*
G01*
Y13018D02*
G03*
X21949Y13019I255J609D01*
G01*
X21043Y14225D02*
G03*
X20533Y14226I-256J-608D01*
G01*
Y13018D02*
G03*
X21043Y13019I255J609D01*
G01*
X21516Y16483D02*
G03*
X22026Y16483I256J608D01*
G01*
Y17690D02*
G03*
X21516Y17690I-255J-609D01*
G01*
X16358Y14436D02*
G03*
X16869Y14435I256J608D01*
G01*
Y15643D02*
G03*
X16358Y15643I-255J-609D01*
G01*
X24597Y23248D02*
Y23760D01*
X25640Y23248D02*
Y23760D01*
X24597D02*
X25640D01*
X24597Y23248D02*
X25640D01*
X25640Y23760D02*
Y24272D01*
X24596Y23760D02*
Y24272D01*
Y23760D02*
X25640D01*
X24596Y24272D02*
X25640D01*
X29035Y28356D02*
X29547D01*
X29035Y27313D02*
X29547D01*
Y28356D01*
X29035Y27313D02*
Y28356D01*
X31368Y28169D02*
X32569D01*
X31369Y27658D02*
X32569D01*
X19832Y23642D02*
X21033D01*
X19833Y24153D02*
X21033D01*
X19832Y22618D02*
X21033D01*
X19833Y23129D02*
X21033D01*
X19832Y24626D02*
X21033D01*
X19833Y25137D02*
X21033D01*
X21949Y13021D02*
Y14222D01*
X21438Y13022D02*
Y14222D01*
X21043Y13021D02*
Y14222D01*
X20532Y13022D02*
Y14222D01*
X18917Y14852D02*
X19429D01*
X18917Y13809D02*
X19429D01*
Y14852D01*
X18917Y13809D02*
Y14852D01*
X21516Y16487D02*
Y17687D01*
X22027Y16487D02*
Y17687D01*
X16358Y14439D02*
Y15640D01*
X16869Y14439D02*
Y15639D01*
D41*
X25333Y25429D02*
X25633D01*
X24433Y25029D02*
Y25429D01*
X24733D01*
X24933Y24929D02*
X25133D01*
X25633Y25029D02*
Y25429D01*
X24652Y29050D02*
X27602D01*
X24652Y27250D02*
X27602D01*
X24652Y28850D02*
Y29050D01*
Y27250D02*
Y27450D01*
X27602Y28850D02*
Y29050D01*
X27752D02*
X28052D01*
X27902Y28900D02*
Y29200D01*
X27602Y27250D02*
Y27450D01*
X30705Y27320D02*
Y27620D01*
X30305Y28520D02*
X30705D01*
Y28220D02*
Y28520D01*
X30205Y27820D02*
Y28020D01*
X30305Y27320D02*
X30705D01*
X18264Y13619D02*
Y13919D01*
X17864Y14819D02*
X18264D01*
Y14519D02*
Y14819D01*
X17764Y14119D02*
Y14319D01*
X17864Y13619D02*
X18264D01*
X13313Y12852D02*
X21913D01*
X13313Y10352D02*
X21913D01*
X13313D02*
Y12852D01*
X21913Y10352D02*
Y12852D01*
X13313Y29388D02*
X21913D01*
X13313Y26888D02*
X21913D01*
X13313D02*
Y29388D01*
X21913Y26888D02*
Y29388D01*
D64*
X22083Y14305D02*
Y15065D01*
X20403Y14305D02*
Y15065D01*
Y14305D02*
X22083D01*
X20403Y15065D02*
X22083D01*
M02*
