M48
;Layer_Color=9474304
;FILE_FORMAT=2:4
INCH,LZ
;TYPE=PLATED
T1F00S00C0.0157
T2F00S00C0.0197
T3F00S00C0.0380
T4F00S00C0.0390
T5F00S00C0.0472
%
T01
X011732Y014843
X015906Y015512
X016614Y014213
Y01378
Y01311
X018032Y015472
X019449Y015433
X020669Y015472
X02122Y013307
X022835Y012913
X023346Y01378
X022874Y014567
X024134Y015079
X025394Y015118
X025866Y014646
X026339Y014173
X026535Y01374
X026969Y013543
X02748Y01376
X027638Y014213
X027441Y014646
X027008Y014843
X026535Y015315
X028248Y015157
X029626
X031004
X030315Y01378
X028937
X029626Y012402
X028248
X02687
X025492
X024114
X023386Y011732
X022244
X024843Y011378
X02622
X027598
X028937
X031024Y012953
X024803Y01378
X024921Y015591
X032382Y015157
X031693Y01378
X035138Y015157
X036378Y014449
X035827Y016535
X034921Y017067
X035138Y017913
X036516
X037165Y01752
X037126Y019803
X036516Y020669
X035138
X033937Y021772
X03376Y023425
X033898Y024094
X034449Y024803
X034213Y025906
X033701
X03374Y02685
X034213
X034764
X035236
X035709Y02689
X03626
X036457Y027402
X03689Y027717
X037441
X035827Y027559
X034449
X034724Y025906
X035236Y025925
X035709Y025866
X03626
X036417Y025433
X03685Y025039
X03748
X037087Y024291
X036516Y023425
X035138
X032382
X032126Y025157
Y02563
X031457Y025591
X031693Y024803
X031299Y027047
X032165Y027126
X031693Y022047
X032165Y020433
X031575Y019902
X032382Y017913
X031693Y016535
X033071
X033583Y019016
X037126Y021969
X030315Y022047
X028937
X027559
X026181
X026811Y020984
X024803
X024488Y022205
Y022795
Y025394
X025039Y026181
X024567Y027047
X025512Y027283
X025866Y026988
X026417Y026969
X026102Y027441
X02687Y026181
X028248
X029626
X030945Y02622
X030354Y027047
X030315Y024803
X028937
X027559
X026181
X02687Y023425
X028248
X029626
X031004
X029567Y020945
X028307Y019724
X028248Y017913
X029626
X031004
X030315Y016535
X028937
X027559
X026181
X025669Y016181
X026102Y015748
X025197Y016654
X024724Y017126
X024331Y01752
X023937Y017913
X023543Y018307
X023189Y018701
X022677Y018898
X022559Y017953
X022874Y017638
X023268Y017244
X023661Y01685
X024094Y016417
X024488Y016024
X022913Y015748
X02252Y016732
X02126
Y016063
X021299Y017441
X021339Y017992
Y018425
Y018858
X020433
X019134
X017953
X018032Y017362
X018602Y017913
X019331Y017441
X01998Y017913
X020591Y017402
X019961Y016654
X018622
X016575Y016378
X015945Y016811
X015748Y018543
X015787Y020669
X017283
X019173
X019567Y022874
X01998Y023425
X019567Y023898
Y024882
X017913Y024803
Y022047
X016535
X015846Y023425
Y026181
X019843Y02687
X020394Y026516
X021496Y026496
X022165Y026417
X022835Y026654
X02248Y027106
X022874Y027579
Y025551
X021299Y024882
X021339Y023898
X021358Y023425
X021339Y022835
X025492Y017913
X02687
X015157Y016417
X012402Y016535
X011024
X011732Y01752
X010748Y018465
X012835Y018425
X013091Y020669
X014469
X01378Y022047
X015157
X014469Y023425
X013091
X012402Y022047
X011024
X011713Y020669
X010866Y024134
X011339Y024882
X011713Y026181
X013091
X014469
X014567Y02689
X015157Y024803
X01378
X012559Y028504
X013071Y029094
T02
X031378Y029232
X032205
X022756Y018425
T03
X014063Y011102
X015063
Y012102
X014063
X014134Y014409
Y015409
X016063Y012102
X017063
X018063
Y011102
X017063
X016063
X019063
Y012102
X020063
X021063
Y011102
X020063
Y027638
X021063
Y028638
X020063
X019063
X018063
Y027638
X017063
Y028638
X016063
Y027638
X019063
X015063
Y028638
X014063
Y027638
X014134Y019047
Y018047
Y017047
T04
X035945Y018386
Y019386
Y020748
Y021748
Y02311
Y02411
T05
X027008Y014173
M30
