G04*
G04 #@! TF.GenerationSoftware,Altium Limited,Altium Designer,19.1.8 (144)*
G04*
G04 Layer_Physical_Order=3*
G04 Layer_Color=128*
%FSLAX24Y24*%
%MOIN*%
G70*
G01*
G75*
%ADD14C,0.0079*%
%ADD117C,0.0118*%
%ADD137C,0.0400*%
%ADD138C,0.0794*%
G04:AMPARAMS|DCode=139|XSize=110.236mil|YSize=110.236mil|CornerRadius=0mil|HoleSize=0mil|Usage=FLASHONLY|Rotation=0.000|XOffset=0mil|YOffset=0mil|HoleType=Round|Shape=Relief|Width=19.7mil|Gap=11.8mil|Entries=4|*
%AMTHD139*
7,0,0,0.1102,0.0866,0.0197,45*
%
%ADD139THD139*%
%ADD140C,0.1581*%
%ADD141C,0.0833*%
G04:AMPARAMS|DCode=142|XSize=114.173mil|YSize=114.173mil|CornerRadius=0mil|HoleSize=0mil|Usage=FLASHONLY|Rotation=0.000|XOffset=0mil|YOffset=0mil|HoleType=Round|Shape=Relief|Width=19.7mil|Gap=11.8mil|Entries=4|*
%AMTHD142*
7,0,0,0.1142,0.0906,0.0197,45*
%
%ADD142THD142*%
%ADD143C,0.0790*%
%ADD145C,0.0780*%
G04:AMPARAMS|DCode=146|XSize=108.866mil|YSize=108.866mil|CornerRadius=0mil|HoleSize=0mil|Usage=FLASHONLY|Rotation=0.000|XOffset=0mil|YOffset=0mil|HoleType=Round|Shape=Relief|Width=19.7mil|Gap=11.8mil|Entries=4|*
%AMTHD146*
7,0,0,0.1089,0.0852,0.0197,45*
%
%ADD146THD146*%
%ADD147C,0.1069*%
%ADD148C,0.0872*%
%ADD149C,0.0715*%
%ADD151C,0.0951*%
%ADD156C,0.0991*%
%ADD159C,0.0762*%
%ADD160C,0.0754*%
G04:AMPARAMS|DCode=161|XSize=106.299mil|YSize=106.299mil|CornerRadius=0mil|HoleSize=0mil|Usage=FLASHONLY|Rotation=0.000|XOffset=0mil|YOffset=0mil|HoleType=Round|Shape=Relief|Width=19.7mil|Gap=11.8mil|Entries=4|*
%AMTHD161*
7,0,0,0.1063,0.0827,0.0197,45*
%
%ADD161THD161*%
%ADD163C,0.0802*%
%ADD164C,0.1660*%
%ADD165C,0.0518*%
%ADD166C,0.0597*%
%ADD167C,0.1975*%
%ADD168C,0.1030*%
%ADD169C,0.0932*%
G36*
X50482Y14237D02*
X48583D01*
Y16983D01*
X50482Y16983D01*
Y14237D01*
D02*
G37*
D14*
X42352Y13868D02*
X42687Y13533D01*
Y9587D02*
Y13533D01*
X38888Y5787D02*
X42687Y9587D01*
X19587Y5787D02*
X38888D01*
X36988Y12874D02*
X37766Y12096D01*
X34449Y12874D02*
X36988D01*
X34350Y12972D02*
X34449Y12874D01*
X34350Y12972D02*
Y13533D01*
X34685Y13868D01*
X35541D01*
X8012Y16181D02*
X8022Y16171D01*
X2323Y25404D02*
X2569Y25650D01*
X2510Y25591D02*
X4547Y27628D01*
Y29055D01*
X6004Y30512D01*
X7343D01*
X7864Y31033D01*
D117*
X15620Y13041D02*
X16122Y12539D01*
X15620Y13041D02*
Y23996D01*
X12274Y23455D02*
X15620D01*
X-876Y23652D02*
Y25404D01*
Y23652D02*
X-394Y23169D01*
X463D01*
X719Y23425D01*
X5896D01*
X11919Y29449D01*
X15354D01*
X16270Y30364D01*
Y32992D01*
X15886Y33376D02*
X16270Y32992D01*
X12067Y33376D02*
X15886D01*
X7864Y31033D02*
Y33366D01*
X4262Y30748D02*
Y33376D01*
X-30Y26457D02*
X4262Y30748D01*
X-30Y25404D02*
Y26457D01*
X-1270Y25797D02*
X-876Y25404D01*
X-1270Y25797D02*
Y26860D01*
X797Y28927D01*
Y32884D01*
X1289Y33376D01*
X12067D01*
X827Y24813D02*
Y25404D01*
Y24813D02*
X1250Y24390D01*
X2854D01*
X8907Y30443D01*
X11161D01*
X12067Y31348D01*
Y33376D01*
X34902Y17972D02*
X34951Y17923D01*
X39429D01*
X7302Y30472D02*
X7864Y31033D01*
X5964Y30472D02*
X7302D01*
X4547Y29055D02*
X5964Y30472D01*
X4547Y27628D02*
Y29055D01*
X2323Y25404D02*
X4547Y27628D01*
X-669Y25404D02*
X2323D01*
X-876D02*
X-669D01*
X16122Y9577D02*
X32805D01*
X38907Y13898D02*
Y17913D01*
X39429Y17923D02*
X43583D01*
X43957Y17549D01*
Y15157D02*
Y17549D01*
Y15157D02*
X44498Y14616D01*
Y10679D02*
Y14616D01*
X43406Y9587D02*
X44498Y10679D01*
X42687Y9587D02*
X43406D01*
X15620Y23996D02*
X17431Y25807D01*
X19656D01*
X21299Y24163D01*
Y21329D02*
Y24163D01*
X20571Y20600D02*
X21299Y21329D01*
X19518Y20600D02*
X20571D01*
X18986Y20069D02*
X19518Y20600D01*
X18986Y18465D02*
Y20069D01*
Y18465D02*
X20167Y17283D01*
Y12165D02*
Y17283D01*
Y12165D02*
X20394Y11939D01*
X29242D01*
X29656Y12352D01*
X29656D01*
X30276Y12972D01*
X32894D01*
X34350D01*
X33632Y16486D02*
X35541D01*
X37766Y10630D02*
Y12096D01*
X37421Y10285D02*
X37766Y10630D01*
X33514Y10285D02*
X37421D01*
X32805Y9577D02*
X33514Y10285D01*
X8386Y0D02*
Y3888D01*
X9734Y5236D01*
X11211D01*
X12362Y6388D01*
X14636D01*
X14370Y8258D02*
X14636Y7992D01*
Y6388D02*
Y7992D01*
Y6388D02*
X15177Y5846D01*
X17776D01*
X17953Y5669D01*
Y2805D02*
Y5669D01*
Y2805D02*
X18140Y2618D01*
X18957D01*
X19380Y3041D01*
Y5640D01*
X19528Y5787D01*
X19587D01*
X13947Y8681D02*
X14459Y8169D01*
X10689Y8681D02*
X13947D01*
X7991Y11379D02*
X10689Y8681D01*
X7991Y11379D02*
Y16141D01*
X-3918D02*
X7991D01*
X8612Y16762D01*
Y22598D01*
X9469Y23455D01*
X12274D01*
X12096Y16939D02*
Y17146D01*
X16122Y9577D02*
Y12539D01*
X36988Y12874D02*
X37766Y12096D01*
X34449Y12874D02*
X36988D01*
X34350Y12972D02*
X34449Y12874D01*
X34350Y12972D02*
Y13533D01*
X34685Y13868D01*
X35541D01*
X19587Y5787D02*
X38868D01*
X42677Y9596D01*
Y13543D01*
X42352Y13868D02*
X42677Y13543D01*
X41742Y13868D02*
X42352D01*
X37953Y21732D02*
Y22835D01*
X41683Y26083D02*
X42441Y25325D01*
X37854Y26083D02*
X41683D01*
X36969Y25197D02*
X37854Y26083D01*
X36978Y13868D02*
X37819D01*
X36063D02*
X36978D01*
X37819D02*
X41742D01*
X34902Y17972D02*
Y19557D01*
X34508Y19951D02*
X34902Y19557D01*
X33327Y19951D02*
X34508D01*
X33130Y19754D02*
X33327Y19951D01*
X33130Y19577D02*
Y19754D01*
Y16988D02*
X33632Y16486D01*
X33130Y16988D02*
Y19577D01*
X36063Y13868D02*
Y16486D01*
X35541D02*
X36063D01*
X35541Y13868D02*
Y16486D01*
X35945Y23071D02*
X36299Y23425D01*
Y23976D02*
Y24528D01*
Y23425D02*
Y23976D01*
X35748Y21772D02*
X35945Y21969D01*
X35748Y20551D02*
Y21772D01*
Y20551D02*
X36378Y19921D01*
X41535D01*
X42205Y20591D01*
X43189Y21575D01*
Y22756D01*
Y24488D01*
X42441Y25325D02*
X43189Y24488D01*
X36299Y24528D02*
X36969Y25197D01*
X35945Y21969D02*
Y23071D01*
X37953Y21732D02*
X38110Y21575D01*
X40197D01*
X40551Y21929D01*
Y23622D01*
X40276Y23898D02*
X40551Y23622D01*
X38150Y23898D02*
X40276D01*
X37953Y23701D02*
X38150Y23898D01*
X37953Y22835D02*
Y23701D01*
X36693Y21063D02*
X37008Y20748D01*
X37874D01*
X38189Y21063D01*
X39685D01*
X40157Y20591D01*
X40512D01*
X40591Y20669D01*
Y21417D01*
X40945Y21772D01*
X41968D01*
X42165Y21969D01*
Y22402D01*
Y22638D01*
X41112Y23691D02*
X42165Y22638D01*
X41112Y23691D02*
Y24547D01*
X40925Y24734D02*
X41112Y24547D01*
X39065Y24734D02*
X40925D01*
X38839Y24508D02*
X39065Y24734D01*
X37539Y24508D02*
X38839D01*
X37165Y24134D02*
X37539Y24508D01*
X37165Y23661D02*
Y24134D01*
Y23661D02*
X37530Y23297D01*
Y22392D02*
Y23297D01*
X36693Y21555D02*
X37530Y22392D01*
X36693Y21063D02*
Y21555D01*
D137*
X-3573Y4390D02*
X-394D01*
X0Y3996D01*
Y0D02*
Y3996D01*
X47244Y0D02*
Y3996D01*
X47638Y4390D01*
X50817D01*
X51181Y4754D01*
Y29921D01*
X50817Y30285D02*
X51181Y29921D01*
X47638Y30285D02*
X50817D01*
X47244Y30679D02*
X47638Y30285D01*
X47244Y30679D02*
Y35433D01*
X0Y30679D02*
Y35433D01*
X-394Y30285D02*
X0Y30679D01*
X-3573Y30285D02*
X-394D01*
X-3937Y29921D02*
X-3573Y30285D01*
X-3937Y4754D02*
Y29921D01*
Y4754D02*
X-3573Y4390D01*
X0Y35433D02*
X47244D01*
X0Y0D02*
X47244D01*
D138*
X21161Y17185D02*
D03*
X29035D02*
D03*
X17526Y5207D02*
D03*
X16526D02*
D03*
X31663Y12591D02*
D03*
X30663D02*
D03*
X31663Y13591D02*
D03*
X30663D02*
D03*
Y11591D02*
D03*
Y14593D02*
D03*
Y16593D02*
D03*
X31663Y14593D02*
D03*
Y16593D02*
D03*
X30663Y15593D02*
D03*
X31663D02*
D03*
Y21596D02*
D03*
X30663D02*
D03*
X31663Y20596D02*
D03*
X30663D02*
D03*
Y17594D02*
D03*
Y19594D02*
D03*
X31663Y17594D02*
D03*
Y19594D02*
D03*
X30663Y18594D02*
D03*
X31663D02*
D03*
X30663Y10591D02*
D03*
X25768Y22451D02*
D03*
Y23455D02*
D03*
X26768Y22451D02*
D03*
X24768D02*
D03*
X26768Y23455D02*
D03*
X24768D02*
D03*
X27766D02*
D03*
Y22451D02*
D03*
X28770Y23455D02*
D03*
Y22451D02*
D03*
X22766D02*
D03*
Y23455D02*
D03*
X23766Y22451D02*
D03*
X21766D02*
D03*
X23766Y23455D02*
D03*
X21766D02*
D03*
X20764D02*
D03*
X19764D02*
D03*
X17864Y21594D02*
D03*
X16870Y13591D02*
D03*
X17864D02*
D03*
X16870Y12591D02*
D03*
Y14591D02*
D03*
X17864Y12591D02*
D03*
Y14591D02*
D03*
Y11589D02*
D03*
X16870D02*
D03*
X17864Y10589D02*
D03*
X16870Y16593D02*
D03*
X17864D02*
D03*
X16870Y15593D02*
D03*
Y17593D02*
D03*
X17864Y15593D02*
D03*
Y17593D02*
D03*
Y18594D02*
D03*
X16870Y20594D02*
D03*
Y21594D02*
D03*
Y18594D02*
D03*
X17864Y19594D02*
D03*
X16870D02*
D03*
D139*
X31663Y10591D02*
D03*
Y11591D02*
D03*
X20764Y22451D02*
D03*
X19764D02*
D03*
X16870Y10589D02*
D03*
X17864Y20594D02*
D03*
D140*
X13533Y1152D02*
D03*
X14518Y34380D02*
D03*
X6437D02*
D03*
X10482D02*
D03*
X2392D02*
D03*
X30984Y1144D02*
D03*
X2323D02*
D03*
X6407D02*
D03*
D141*
X14715Y4026D02*
D03*
Y2844D02*
D03*
X13533Y4026D02*
D03*
X12352D02*
D03*
X13533Y2844D02*
D03*
X12352D02*
D03*
X13927Y32679D02*
D03*
Y31498D02*
D03*
X15108D02*
D03*
X5846Y32679D02*
D03*
Y31498D02*
D03*
X7028D02*
D03*
X9892Y32679D02*
D03*
Y31498D02*
D03*
X11073D02*
D03*
X1801Y32679D02*
D03*
Y31498D02*
D03*
X2982D02*
D03*
X9222Y13169D02*
D03*
Y9232D02*
D03*
X30394Y4026D02*
D03*
X31575D02*
D03*
X30394Y2844D02*
D03*
X31575D02*
D03*
X2913D02*
D03*
X1732D02*
D03*
X2913Y4026D02*
D03*
X1732D02*
D03*
X6998Y2844D02*
D03*
X5817D02*
D03*
X6998Y4026D02*
D03*
X5817D02*
D03*
D142*
X15108Y32679D02*
D03*
X7028D02*
D03*
X11073D02*
D03*
X2982D02*
D03*
D143*
X33468Y1624D02*
D03*
X34469D02*
D03*
X39390D02*
D03*
X40390D02*
D03*
X10242D02*
D03*
X9242D02*
D03*
D145*
X18376Y26594D02*
D03*
X49911Y10000D02*
D03*
X7707Y5591D02*
D03*
Y7591D02*
D03*
X49468Y24419D02*
D03*
X48091D02*
D03*
X43400Y16988D02*
D03*
X42400D02*
D03*
X39400D02*
D03*
X37400D02*
D03*
X43400Y15988D02*
D03*
X42400D02*
D03*
X40400D02*
D03*
X39400D02*
D03*
X37400D02*
D03*
X44400Y16988D02*
D03*
X41400D02*
D03*
X38400D02*
D03*
X44400Y15988D02*
D03*
X41400D02*
D03*
X38400D02*
D03*
X34016Y20719D02*
D03*
X33159Y5768D02*
D03*
X10266Y16752D02*
D03*
Y14752D02*
D03*
X10551Y10502D02*
D03*
X13967Y5628D02*
D03*
D146*
X18376Y25217D02*
D03*
X48533Y10000D02*
D03*
X40400Y16988D02*
D03*
X34016Y19341D02*
D03*
X33159Y7146D02*
D03*
X10551Y11880D02*
D03*
X13967Y7628D02*
D03*
D147*
X22943Y8770D02*
D03*
D148*
X27667Y2549D02*
D03*
X4608Y5876D02*
D03*
X608D02*
D03*
X-2244Y9289D02*
D03*
Y13289D02*
D03*
D149*
X12157Y18337D02*
D03*
X10157D02*
D03*
X7990Y19365D02*
D03*
Y17365D02*
D03*
Y24589D02*
D03*
Y22589D02*
D03*
D151*
X10837Y8140D02*
D03*
Y5778D02*
D03*
D156*
X44488Y2067D02*
D03*
D159*
X42638Y28907D02*
D03*
Y29695D02*
D03*
Y30482D02*
D03*
Y31270D02*
D03*
D160*
X19557Y17126D02*
D03*
Y16339D02*
D03*
Y17913D02*
D03*
Y18701D02*
D03*
Y15551D02*
D03*
Y14764D02*
D03*
Y13976D02*
D03*
X35772Y28442D02*
D03*
X36272Y29442D02*
D03*
X36772Y28442D02*
D03*
X37272Y29442D02*
D03*
X37772Y28442D02*
D03*
X38272Y29442D02*
D03*
X38772Y28442D02*
D03*
X39272Y29442D02*
D03*
X30272Y28442D02*
D03*
X30772Y29442D02*
D03*
X31272Y28442D02*
D03*
X31772Y29442D02*
D03*
X32272Y28442D02*
D03*
X32772Y29442D02*
D03*
X33272Y28442D02*
D03*
X33772Y29442D02*
D03*
X24772Y28442D02*
D03*
X25272Y29442D02*
D03*
X25772Y28442D02*
D03*
X26272Y29442D02*
D03*
X26772Y28442D02*
D03*
X27272Y29442D02*
D03*
X27772Y28442D02*
D03*
X28272Y29442D02*
D03*
X19272Y28442D02*
D03*
X19772Y29442D02*
D03*
X20272Y28442D02*
D03*
X20772Y29442D02*
D03*
X21272Y28442D02*
D03*
X21772Y29442D02*
D03*
X22272Y28442D02*
D03*
X22772Y29442D02*
D03*
D161*
X19557Y19488D02*
D03*
D163*
X33573Y32793D02*
D03*
X34577D02*
D03*
X22559Y33542D02*
D03*
X23573D02*
D03*
X23967Y32793D02*
D03*
X24970D02*
D03*
X29065D02*
D03*
X28051D02*
D03*
X30492Y33542D02*
D03*
X29478D02*
D03*
X19478D02*
D03*
X18465D02*
D03*
X35984D02*
D03*
X34970D02*
D03*
X40079D02*
D03*
X39065D02*
D03*
D164*
X39772Y31942D02*
D03*
X18772D02*
D03*
D165*
X45030Y7490D02*
D03*
X45768Y16014D02*
D03*
X31112Y19193D02*
D03*
X30080Y17599D02*
D03*
X29537Y18898D02*
D03*
X30128Y18061D02*
D03*
X29941Y15955D02*
D03*
X36722Y6831D02*
D03*
X30177Y4606D02*
D03*
X28661Y5561D02*
D03*
X29350Y5433D02*
D03*
X29301Y5876D02*
D03*
X30984Y6123D02*
D03*
X33583Y5128D02*
D03*
X35699Y5030D02*
D03*
X43602Y5492D02*
D03*
X24951Y1663D02*
D03*
X29175Y3238D02*
D03*
X29843Y6949D02*
D03*
X28848Y11063D02*
D03*
X28386Y10315D02*
D03*
X29360Y10718D02*
D03*
X31024Y9783D02*
D03*
X22185Y32096D02*
D03*
X30650Y9203D02*
D03*
X15541Y6132D02*
D03*
X15827Y11260D02*
D03*
X15813Y10945D02*
D03*
X27244Y10748D02*
D03*
X28888Y9705D02*
D03*
X29213Y9213D02*
D03*
X29173Y9508D02*
D03*
X29419Y10285D02*
D03*
X26565Y21841D02*
D03*
X27116Y21555D02*
D03*
X27673Y21417D02*
D03*
X28563Y21427D02*
D03*
X29626Y21526D02*
D03*
X22913Y18494D02*
D03*
X23799Y13258D02*
D03*
X22963Y21201D02*
D03*
X23274Y20945D02*
D03*
X35679Y20472D02*
D03*
X36112Y20955D02*
D03*
X18187Y1890D02*
D03*
X17422D02*
D03*
X22175Y955D02*
D03*
X5561Y13671D02*
D03*
X26004Y12283D02*
D03*
X23863Y17638D02*
D03*
X23490Y17953D02*
D03*
X21378Y20108D02*
D03*
X27411Y15778D02*
D03*
X29420Y13228D02*
D03*
X29372Y13543D02*
D03*
X39134Y13376D02*
D03*
X47015Y20709D02*
D03*
X47087Y21663D02*
D03*
X47372Y22077D02*
D03*
X20167Y13612D02*
D03*
X19646Y12382D02*
D03*
X20856Y12224D02*
D03*
X21083Y13858D02*
D03*
X21437Y14026D02*
D03*
X21850Y13888D02*
D03*
X21093Y16024D02*
D03*
X25482Y18228D02*
D03*
X29675Y19390D02*
D03*
X25266Y21467D02*
D03*
X21880Y19665D02*
D03*
X21632Y9055D02*
D03*
X25482Y13455D02*
D03*
X25256Y14006D02*
D03*
X25320Y14488D02*
D03*
X24557Y13967D02*
D03*
X24208D02*
D03*
X24828D02*
D03*
X8573Y3356D02*
D03*
X8366Y2707D02*
D03*
X8888Y2293D02*
D03*
X12421Y7707D02*
D03*
X15433Y8563D02*
D03*
X15372Y7716D02*
D03*
X14193Y12598D02*
D03*
X13317Y14823D02*
D03*
X13563Y15010D02*
D03*
Y14636D02*
D03*
X13071D02*
D03*
Y15010D02*
D03*
X13898Y9872D02*
D03*
Y9498D02*
D03*
X14390D02*
D03*
Y9872D02*
D03*
X14144Y9685D02*
D03*
X14616Y16949D02*
D03*
X15059Y17165D02*
D03*
X16073Y17274D02*
D03*
X16161Y13465D02*
D03*
X14547Y12953D02*
D03*
X15984Y12992D02*
D03*
X12899Y16929D02*
D03*
X12264Y17146D02*
D03*
X10463Y17510D02*
D03*
X11624Y16988D02*
D03*
X4311Y18278D02*
D03*
X15437Y24961D02*
D03*
X12641Y25827D02*
D03*
X8517D02*
D03*
X4531D02*
D03*
X9843Y23386D02*
D03*
X7707Y23396D02*
D03*
X6467Y21752D02*
D03*
X5472Y22589D02*
D03*
X6752Y23445D02*
D03*
X6604Y24114D02*
D03*
X4793Y19459D02*
D03*
X-3031Y24419D02*
D03*
X-3287Y22136D02*
D03*
X4375Y22126D02*
D03*
X4252Y23819D02*
D03*
X4016Y23022D02*
D03*
X-1278Y23030D02*
D03*
X50039Y26772D02*
D03*
X49055Y24803D02*
D03*
Y12992D02*
D03*
X50039Y11024D02*
D03*
X47087Y28740D02*
D03*
X48071Y26772D02*
D03*
X47087Y16929D02*
D03*
X48071Y14961D02*
D03*
X47087Y5118D02*
D03*
X45118Y20866D02*
D03*
X46102Y18898D02*
D03*
X45118Y16929D02*
D03*
X46102Y14961D02*
D03*
X45118Y12992D02*
D03*
Y5118D02*
D03*
X43150Y28740D02*
D03*
X44134Y14961D02*
D03*
X41181Y32677D02*
D03*
X42165Y26772D02*
D03*
X39213Y32677D02*
D03*
X37244D02*
D03*
X38228Y3150D02*
D03*
X37244Y1181D02*
D03*
X35276Y32677D02*
D03*
Y28740D02*
D03*
X36260Y3150D02*
D03*
X35276Y1181D02*
D03*
X33307Y20866D02*
D03*
X34291Y3150D02*
D03*
X32323Y14961D02*
D03*
Y3150D02*
D03*
X29370Y28740D02*
D03*
X27402Y32677D02*
D03*
X23465Y28740D02*
D03*
X24449Y26772D02*
D03*
Y18898D02*
D03*
X21496Y32677D02*
D03*
Y24803D02*
D03*
X19528Y32677D02*
D03*
Y24803D02*
D03*
X17559Y32677D02*
D03*
X18543Y30709D02*
D03*
X17559Y24803D02*
D03*
X15591Y16929D02*
D03*
X13622Y12992D02*
D03*
X11654D02*
D03*
Y5118D02*
D03*
X7717Y1181D02*
D03*
X4764Y3150D02*
D03*
X3780Y1181D02*
D03*
X827Y26772D02*
D03*
Y3150D02*
D03*
X-1142Y26772D02*
D03*
X16112Y14833D02*
D03*
X20630Y9892D02*
D03*
X19911Y10482D02*
D03*
X20778Y11073D02*
D03*
X28858Y6732D02*
D03*
X28268Y6939D02*
D03*
X26319D02*
D03*
X24065D02*
D03*
X22411D02*
D03*
X22451Y7589D02*
D03*
X21949Y8720D02*
D03*
X24911Y7598D02*
D03*
X26988Y7608D02*
D03*
X31014Y6949D02*
D03*
X30335Y6929D02*
D03*
X30443Y8081D02*
D03*
X28278Y8228D02*
D03*
X25846Y8238D02*
D03*
X19429Y10994D02*
D03*
X20876Y4931D02*
D03*
X17205Y8750D02*
D03*
X17943Y8110D02*
D03*
X21594Y6762D02*
D03*
X21033Y6211D02*
D03*
X18691Y4931D02*
D03*
X19429D02*
D03*
X20167D02*
D03*
X30758Y5000D02*
D03*
X35463Y7411D02*
D03*
X32667Y17234D02*
D03*
X48159Y21919D02*
D03*
X45089Y12067D02*
D03*
X46929Y6289D02*
D03*
X46270Y5699D02*
D03*
X39557Y11496D02*
D03*
X20138Y6959D02*
D03*
X42756Y19823D02*
D03*
X45738Y16378D02*
D03*
X25974Y16713D02*
D03*
X26220Y16339D02*
D03*
X27254Y15157D02*
D03*
X27116Y11181D02*
D03*
X26506Y16112D02*
D03*
X31939Y8819D02*
D03*
X36496Y9469D02*
D03*
X37490Y8553D02*
D03*
X36102Y8780D02*
D03*
X39469Y10699D02*
D03*
X44892Y8455D02*
D03*
X38868Y14360D02*
D03*
X29528Y16289D02*
D03*
X30000Y16594D02*
D03*
X28917Y16220D02*
D03*
X29163Y14370D02*
D03*
X29429Y6427D02*
D03*
X28888Y6152D02*
D03*
X31093Y5246D02*
D03*
X36211Y5522D02*
D03*
X36407Y6270D02*
D03*
X29508Y4449D02*
D03*
X30787Y8002D02*
D03*
X31132Y7402D02*
D03*
Y7785D02*
D03*
X31575Y5295D02*
D03*
X26614Y11004D02*
D03*
X26329Y11388D02*
D03*
X19478Y8947D02*
D03*
X17776Y6949D02*
D03*
X26811Y12283D02*
D03*
X26053Y12648D02*
D03*
X18189Y8858D02*
D03*
X26663Y12756D02*
D03*
X22156Y10669D02*
D03*
X21831Y10817D02*
D03*
X18110Y9882D02*
D03*
X10276Y3671D02*
D03*
X22087Y12539D02*
D03*
X18593Y9705D02*
D03*
X18868Y9439D02*
D03*
X21496Y10768D02*
D03*
X21201Y11033D02*
D03*
X37136Y8327D02*
D03*
X20344Y10935D02*
D03*
X19843Y11053D02*
D03*
X19242Y10384D02*
D03*
X19075Y10718D02*
D03*
X46270Y7904D02*
D03*
X36604Y9154D02*
D03*
X45305Y8642D02*
D03*
X11860Y856D02*
D03*
X10010Y5856D02*
D03*
X9941Y6654D02*
D03*
X22500Y18730D02*
D03*
X20315Y15610D02*
D03*
X20364Y16831D02*
D03*
X20492Y18484D02*
D03*
X45669Y21526D02*
D03*
X45640Y22185D02*
D03*
X45423Y24134D02*
D03*
X45315Y24567D02*
D03*
X44774Y24045D02*
D03*
X44685Y24488D02*
D03*
X44026Y24085D02*
D03*
X43937Y24557D02*
D03*
X28346Y20846D02*
D03*
X50157Y17283D02*
D03*
X25433Y12884D02*
D03*
X20463Y21506D02*
D03*
X20039Y21545D02*
D03*
X20207Y21171D02*
D03*
X20374Y20837D02*
D03*
X22461Y16240D02*
D03*
X22756Y16870D02*
D03*
X31191Y22618D02*
D03*
X30010Y22638D02*
D03*
X30600Y23465D02*
D03*
X29547Y23632D02*
D03*
X26535Y24183D02*
D03*
X27116Y24469D02*
D03*
X27923Y24459D02*
D03*
X28720D02*
D03*
X29567Y24469D02*
D03*
X30354D02*
D03*
X31230Y24370D02*
D03*
X31703Y23927D02*
D03*
X5364Y23976D02*
D03*
X-1142Y25591D02*
D03*
X26673Y18848D02*
D03*
X25974Y18120D02*
D03*
X24636Y16447D02*
D03*
X25236Y16358D02*
D03*
X27313Y14823D02*
D03*
X27303Y14439D02*
D03*
X22264Y23907D02*
D03*
X10699Y2549D02*
D03*
X14793Y14498D02*
D03*
X14771Y14173D02*
D03*
X14852Y13839D02*
D03*
X15876Y15079D02*
D03*
X15423Y15118D02*
D03*
X14715Y14941D02*
D03*
X15650Y10404D02*
D03*
X15699Y10699D02*
D03*
X2106Y14321D02*
D03*
X38612Y21890D02*
D03*
X40108D02*
D03*
Y23386D02*
D03*
X38612D02*
D03*
X39360Y22628D02*
D03*
X22168Y27716D02*
D03*
X23140Y28622D02*
D03*
X28346Y28780D02*
D03*
X24459Y29892D02*
D03*
X24026Y29370D02*
D03*
X23967Y28829D02*
D03*
X24660Y27480D02*
D03*
X25079Y27293D02*
D03*
X25413Y26959D02*
D03*
X25807Y26535D02*
D03*
X26319Y26014D02*
D03*
X25591Y26033D02*
D03*
X24911Y26073D02*
D03*
X24419Y26378D02*
D03*
X23996Y26811D02*
D03*
X42766Y21801D02*
D03*
X35837Y18032D02*
D03*
X32805Y16526D02*
D03*
X40787Y25768D02*
D03*
X43750Y21821D02*
D03*
X39961Y19596D02*
D03*
X34094Y14636D02*
D03*
X34764D02*
D03*
Y15364D02*
D03*
X34094D02*
D03*
X34429Y15000D02*
D03*
X42707Y13327D02*
D03*
X38760Y12953D02*
D03*
X33031Y34724D02*
D03*
X36772Y32677D02*
D03*
X36575Y33898D02*
D03*
Y34803D02*
D03*
X42205Y34921D02*
D03*
X38543Y34764D02*
D03*
X32559Y34567D02*
D03*
X26969Y34449D02*
D03*
X21496Y34173D02*
D03*
X43583Y23268D02*
D03*
X21339Y31417D02*
D03*
X31732Y26732D02*
D03*
X39724Y25591D02*
D03*
X41772Y22480D02*
D03*
X40039Y30669D02*
D03*
X39606Y29961D02*
D03*
X20512Y27362D02*
D03*
X19331Y27559D02*
D03*
X18858Y29331D02*
D03*
X19252Y29843D02*
D03*
X19803Y30315D02*
D03*
X20394Y30512D02*
D03*
X21378D02*
D03*
X22441D02*
D03*
X23780D02*
D03*
X25197D02*
D03*
X26890D02*
D03*
X28504D02*
D03*
X30039D02*
D03*
X31260D02*
D03*
X32677D02*
D03*
X34409D02*
D03*
X35906D02*
D03*
X37402D02*
D03*
X38858D02*
D03*
X38543Y31417D02*
D03*
X37087D02*
D03*
X35591D02*
D03*
X34094D02*
D03*
X32362D02*
D03*
X30945D02*
D03*
X29724D02*
D03*
X28189D02*
D03*
X26575D02*
D03*
X24882D02*
D03*
X23465D02*
D03*
X22126D02*
D03*
X20079D02*
D03*
X19134Y30906D02*
D03*
X18622Y30433D02*
D03*
X18032Y29843D02*
D03*
X17835Y29055D02*
D03*
Y28228D02*
D03*
X18228Y27362D02*
D03*
X19173Y26535D02*
D03*
X20276Y26575D02*
D03*
X21063Y26220D02*
D03*
X21772Y25472D02*
D03*
X23346Y24961D02*
D03*
X22283Y24921D02*
D03*
X21732Y26732D02*
D03*
X22598Y25866D02*
D03*
X29764Y25236D02*
D03*
X29528Y25984D02*
D03*
X33740Y22165D02*
D03*
X36575D02*
D03*
X35630D02*
D03*
X34685D02*
D03*
X32234Y23455D02*
D03*
X24016Y25591D02*
D03*
X24724Y25236D02*
D03*
X25709D02*
D03*
X26575D02*
D03*
X27520D02*
D03*
X36181Y22835D02*
D03*
X35669Y22992D02*
D03*
X35000D02*
D03*
X34252D02*
D03*
X33543D02*
D03*
X32785Y22963D02*
D03*
X28543Y25236D02*
D03*
X31378D02*
D03*
X33622Y23819D02*
D03*
X34409D02*
D03*
X35197D02*
D03*
X35945D02*
D03*
X36772Y23465D02*
D03*
X28622Y25984D02*
D03*
X30433D02*
D03*
X31339D02*
D03*
X32165Y25591D02*
D03*
X32756Y25000D02*
D03*
X33583Y24567D02*
D03*
X34488D02*
D03*
X35276D02*
D03*
X36024D02*
D03*
X34567Y25276D02*
D03*
X35591D02*
D03*
X36614D02*
D03*
X25827Y27756D02*
D03*
X26378Y27323D02*
D03*
X34370Y26024D02*
D03*
X34921Y26693D02*
D03*
X35394Y26024D02*
D03*
X35945Y26693D02*
D03*
X36417Y26024D02*
D03*
X37087Y26693D02*
D03*
X37126Y27402D02*
D03*
X27008Y26811D02*
D03*
X27992Y26772D02*
D03*
X29016D02*
D03*
X30039D02*
D03*
X31063D02*
D03*
X32795Y25945D02*
D03*
X33543Y25276D02*
D03*
X37638D02*
D03*
X39646Y26969D02*
D03*
X38543Y27402D02*
D03*
X35709Y27559D02*
D03*
X30709Y27913D02*
D03*
X31220Y27520D02*
D03*
X31969D02*
D03*
X32756Y27008D02*
D03*
X33425Y26378D02*
D03*
X37441Y26024D02*
D03*
X38425Y25906D02*
D03*
X33268Y27677D02*
D03*
X34055Y26890D02*
D03*
X38356Y26722D02*
D03*
X39016Y26299D02*
D03*
X42283Y22992D02*
D03*
X42992Y23622D02*
D03*
X42323Y24370D02*
D03*
X42165Y25630D02*
D03*
X41220Y26575D02*
D03*
X40354Y27480D02*
D03*
X39409Y28189D02*
D03*
D166*
X18780Y1437D02*
D03*
X18780Y482D02*
D03*
X-1801Y16634D02*
D03*
X-2982Y20049D02*
D03*
Y21191D02*
D03*
X6978Y19449D02*
D03*
X4252Y20049D02*
D03*
X2953D02*
D03*
X1545D02*
D03*
X-148D02*
D03*
X-1614D02*
D03*
X-3445Y18465D02*
D03*
X-1801Y18425D02*
D03*
X-3445Y16585D02*
D03*
X-2638Y17520D02*
D03*
X9341Y18720D02*
D03*
X13376Y19577D02*
D03*
X325Y22736D02*
D03*
X876Y23100D02*
D03*
X1329Y25915D02*
D03*
X13809Y25817D02*
D03*
X14321D02*
D03*
X9557Y25935D02*
D03*
X10069D02*
D03*
X5640Y25807D02*
D03*
X6152D02*
D03*
X1811Y25915D02*
D03*
D167*
X49213Y6299D02*
D03*
Y28346D02*
D03*
X-1969D02*
D03*
Y6299D02*
D03*
D168*
X45488Y3067D02*
D03*
Y1067D02*
D03*
X43488Y3067D02*
D03*
Y1067D02*
D03*
X17634Y30736D02*
D03*
X34772Y27843D02*
D03*
X29272D02*
D03*
X23772D02*
D03*
X40870Y30736D02*
D03*
D169*
X41516Y31467D02*
D03*
Y28711D02*
D03*
X43760Y31467D02*
D03*
Y28711D02*
D03*
M02*
