G04*
G04 #@! TF.GenerationSoftware,Altium Limited,Altium Designer,19.1.8 (144)*
G04*
G04 Layer_Color=32896*
%FSLAX24Y24*%
%MOIN*%
G70*
G01*
G75*
%ADD10C,0.0070*%
%ADD11C,0.0100*%
%ADD13C,0.0098*%
%ADD14C,0.0079*%
%ADD16C,0.0050*%
%ADD17C,0.0039*%
G36*
X2379Y24780D02*
X2129D01*
Y25030D01*
X2379D01*
Y24780D01*
D02*
G37*
D10*
X20400Y8829D02*
G03*
X20400Y8318I608J-256D01*
G01*
X21607D02*
G03*
X21607Y8829I-609J255D01*
G01*
X24686Y14200D02*
G03*
X25197Y14200I255J609D01*
G01*
Y15407D02*
G03*
X24686Y15407I-256J-608D01*
G01*
X24625Y13733D02*
G03*
X24114Y13733I-255J-609D01*
G01*
Y12526D02*
G03*
X24625Y12526I256J608D01*
G01*
X24596Y15407D02*
G03*
X24086Y15407I-256J-608D01*
G01*
Y14200D02*
G03*
X24596Y14200I255J609D01*
G01*
X26657Y15089D02*
G03*
X26657Y15599I-608J256D01*
G01*
X25450D02*
G03*
X25450Y15089I609J-255D01*
G01*
X23995Y15397D02*
G03*
X23484Y15396I-255J-609D01*
G01*
Y14190D02*
G03*
X23995Y14189I256J608D01*
G01*
X38497Y24115D02*
G03*
X38497Y24626I-609J255D01*
G01*
X37290D02*
G03*
X37289Y24115I608J-256D01*
G01*
X39037Y23176D02*
G03*
X39547Y23176I255J609D01*
G01*
Y24383D02*
G03*
X39037Y24384I-256J-608D01*
G01*
X39632Y23644D02*
G03*
X40143Y23644I255J609D01*
G01*
Y24851D02*
G03*
X39632Y24851I-256J-608D01*
G01*
X41043Y25682D02*
G03*
X40533Y25682I-255J-609D01*
G01*
Y24475D02*
G03*
X41043Y24475I256J608D01*
G01*
X41634Y25682D02*
G03*
X41123Y25682I-255J-609D01*
G01*
Y24475D02*
G03*
X41634Y24475I256J608D01*
G01*
X11478Y11139D02*
G03*
X11988Y11139I255J609D01*
G01*
Y12346D02*
G03*
X11478Y12346I-256J-608D01*
G01*
X15501Y10279D02*
G03*
X14990Y10278I-255J-609D01*
G01*
Y9071D02*
G03*
X15501Y9071I256J608D01*
G01*
X25450Y14339D02*
G03*
X25450Y13829I609J-255D01*
G01*
X26657D02*
G03*
X26657Y14339I-608J256D01*
G01*
X8589Y2971D02*
G03*
X8590Y2461I609J-255D01*
G01*
X9797D02*
G03*
X9797Y2971I-608J256D01*
G01*
X42056Y4727D02*
G03*
X41546Y4728I-256J-608D01*
G01*
Y3520D02*
G03*
X42056Y3521I255J609D01*
G01*
X41387Y4727D02*
G03*
X40876Y4728I-256J-608D01*
G01*
Y3520D02*
G03*
X41387Y3521I255J609D01*
G01*
X40551Y6214D02*
G03*
X40041Y6214I-256J-608D01*
G01*
Y5007D02*
G03*
X40551Y5007I255J609D01*
G01*
X26657Y14459D02*
G03*
X26657Y14969I-608J256D01*
G01*
X25450D02*
G03*
X25450Y14459I609J-255D01*
G01*
X20631Y3540D02*
G03*
X21142Y3541I255J609D01*
G01*
Y4747D02*
G03*
X20631Y4748I-256J-608D01*
G01*
X19695Y4767D02*
G03*
X19184Y4768I-256J-608D01*
G01*
Y3560D02*
G03*
X19695Y3560I255J609D01*
G01*
X30643Y4765D02*
G03*
X30642Y5275I-609J255D01*
G01*
X29436D02*
G03*
X29435Y4765I608J-256D01*
G01*
X24784Y12516D02*
G03*
X25294Y12516I256J608D01*
G01*
Y13724D02*
G03*
X24784Y13723I-255J-609D01*
G01*
X22743Y13996D02*
G03*
X22742Y13485I608J-256D01*
G01*
X23950D02*
G03*
X23950Y13996I-609J255D01*
G01*
X20223Y7027D02*
G03*
X20223Y6517I608J-256D01*
G01*
X21430D02*
G03*
X21430Y7027I-609J255D01*
G01*
X3763Y22776D02*
G03*
X3764Y23286I-608J256D01*
G01*
X2556D02*
G03*
X2556Y22776I609J-255D01*
G01*
X10676Y17775D02*
G03*
X10675Y17265I608J-256D01*
G01*
X11883D02*
G03*
X11883Y17775I-609J255D01*
G01*
X12743Y13957D02*
G03*
X12742Y13446I608J-256D01*
G01*
X13950D02*
G03*
X13950Y13957I-609J255D01*
G01*
X12529Y16903D02*
G03*
X12019Y16903I-256J-608D01*
G01*
Y15696D02*
G03*
X12529Y15696I255J609D01*
G01*
X11368Y13284D02*
G03*
X11879Y13284I256J608D01*
G01*
Y14491D02*
G03*
X11368Y14491I-255J-609D01*
G01*
X12647Y12356D02*
G03*
X12137Y12356I-256J-608D01*
G01*
Y11148D02*
G03*
X12647Y11149I255J609D01*
G01*
X14488Y12356D02*
G03*
X13978Y12356I-256J-608D01*
G01*
Y11148D02*
G03*
X14488Y11149I255J609D01*
G01*
X15712Y7904D02*
G03*
X15712Y8414I-608J256D01*
G01*
X14505D02*
G03*
X14505Y7904I609J-255D01*
G01*
X12152Y8425D02*
G03*
X12152Y7915I608J-256D01*
G01*
X13359D02*
G03*
X13359Y8425I-609J255D01*
G01*
X29731Y6388D02*
G03*
X29730Y5877I608J-256D01*
G01*
X30938D02*
G03*
X30938Y6388I-609J255D01*
G01*
X41325Y21476D02*
G03*
X41325Y20966I608J-256D01*
G01*
X42533D02*
G03*
X42532Y21476I-609J255D01*
G01*
X21043Y31627D02*
G03*
X20533Y31628I-256J-608D01*
G01*
Y30420D02*
G03*
X21043Y30421I255J609D01*
G01*
X36870Y31627D02*
G03*
X36359Y31628I-256J-608D01*
G01*
Y30420D02*
G03*
X36870Y30421I255J609D01*
G01*
X26201Y31627D02*
G03*
X25690Y31628I-256J-608D01*
G01*
Y30420D02*
G03*
X26201Y30421I255J609D01*
G01*
X32146Y31627D02*
G03*
X31635Y31628I-256J-608D01*
G01*
Y30420D02*
G03*
X32146Y30421I255J609D01*
G01*
X37500Y26286D02*
G03*
X38011Y26286I256J608D01*
G01*
Y27493D02*
G03*
X37500Y27493I-255J-609D01*
G01*
X31988Y26168D02*
G03*
X32499Y26167I256J608D01*
G01*
Y27375D02*
G03*
X31988Y27375I-255J-609D01*
G01*
X27303Y26128D02*
G03*
X27814Y26128I256J608D01*
G01*
Y27336D02*
G03*
X27303Y27335I-255J-609D01*
G01*
X22028Y26168D02*
G03*
X22538Y26167I256J608D01*
G01*
Y27375D02*
G03*
X22028Y27375I-255J-609D01*
G01*
X39705Y22356D02*
G03*
X39194Y22356I-256J-608D01*
G01*
Y21148D02*
G03*
X39705Y21149I255J609D01*
G01*
X37339Y22018D02*
G03*
X37339Y21507I608J-256D01*
G01*
X38546D02*
G03*
X38546Y22018I-609J255D01*
G01*
X37654Y21378D02*
G03*
X37654Y20867I608J-256D01*
G01*
X38861D02*
G03*
X38861Y21378I-609J255D01*
G01*
X37625Y22972D02*
G03*
X37624Y22462I608J-256D01*
G01*
X38832D02*
G03*
X38831Y22972I-609J255D01*
G01*
X38999Y25197D02*
G03*
X39000Y25707I-608J256D01*
G01*
X37792D02*
G03*
X37793Y25197I609J-255D01*
G01*
X41101Y23123D02*
G03*
X40591Y23123I-255J-609D01*
G01*
Y21916D02*
G03*
X41101Y21915I256J608D01*
G01*
X42493Y21556D02*
G03*
X42493Y22067I-609J255D01*
G01*
X41286D02*
G03*
X41286Y21556I608J-256D01*
G01*
X28957Y11398D02*
Y12441D01*
X29469Y11398D02*
Y12441D01*
X28957Y11398D02*
X29469D01*
X28957Y12441D02*
X29469D01*
X20433Y7726D02*
Y8238D01*
X21476Y7726D02*
Y8238D01*
X20433D02*
X21476D01*
X20433Y7726D02*
X21476D01*
X20404Y8829D02*
X21604D01*
X20404Y8318D02*
X21604D01*
X18868Y6496D02*
Y7539D01*
X18356Y6496D02*
Y7539D01*
X18868D01*
X18356Y6496D02*
X18868D01*
X20217Y7638D02*
X21260D01*
X20217Y7126D02*
X21260D01*
X20217D02*
Y7638D01*
X21260Y7126D02*
Y7638D01*
X12047Y1181D02*
Y1693D01*
X11004Y1181D02*
Y1693D01*
Y1181D02*
X12047D01*
X11004Y1693D02*
X12047D01*
X16053Y23996D02*
Y24508D01*
X15010Y23996D02*
Y24508D01*
Y23996D02*
X16053D01*
X15010Y24508D02*
X16053D01*
X9281Y24951D02*
Y25463D01*
X10325Y24951D02*
Y25463D01*
X9281D02*
X10325D01*
X9281Y24951D02*
X10325D01*
X24686Y14203D02*
Y15403D01*
X25197Y14203D02*
Y15404D01*
X24625Y12530D02*
Y13730D01*
X24114Y12530D02*
Y13730D01*
X-1959Y24902D02*
Y25413D01*
X-915Y24902D02*
Y25413D01*
X-1959D02*
X-915D01*
X-1959Y24902D02*
X-915D01*
X-787Y20561D02*
Y21073D01*
X256Y20561D02*
Y21073D01*
X-787D02*
X256D01*
X-787Y20561D02*
X256D01*
X24596Y14203D02*
Y15404D01*
X24086Y14203D02*
Y15403D01*
X25453Y15089D02*
X26654D01*
X25454Y15599D02*
X26653D01*
X3081Y21152D02*
X4124D01*
X3081Y21663D02*
X4124D01*
Y21152D02*
Y21663D01*
X3081Y21152D02*
Y21663D01*
X5925Y26988D02*
X6969D01*
X5925Y26476D02*
X6969D01*
X5925D02*
Y26988D01*
X6969Y26476D02*
Y26988D01*
X1939D02*
X2982D01*
X1939Y26476D02*
X2982D01*
X1939D02*
Y26988D01*
X2982Y26476D02*
Y26988D01*
X10030D02*
X11073D01*
X10030Y26476D02*
X11073D01*
X10030D02*
Y26988D01*
X11073Y26476D02*
Y26988D01*
X14055D02*
X15098D01*
X14055Y26476D02*
X15098D01*
X14055D02*
Y26988D01*
X15098Y26476D02*
Y26988D01*
X-3012Y21880D02*
X-1969D01*
X-3012Y22392D02*
X-1969D01*
Y21880D02*
Y22392D01*
X-3012Y21880D02*
Y22392D01*
X5325Y24833D02*
X6368D01*
X5325Y25344D02*
X6368D01*
Y24833D02*
Y25344D01*
X5325Y24833D02*
Y25344D01*
X12844Y24852D02*
X13888D01*
X12844Y25364D02*
X13888D01*
Y24852D02*
Y25364D01*
X12844Y24852D02*
Y25364D01*
X23995Y14193D02*
Y15393D01*
X23484Y14193D02*
Y15394D01*
X37293Y24115D02*
X38493D01*
X37293Y24626D02*
X38494D01*
X39036Y23180D02*
Y24380D01*
X39547Y23179D02*
Y24380D01*
X39632Y23647D02*
Y24847D01*
X40143Y23647D02*
Y24847D01*
X41043Y24478D02*
Y25678D01*
X40532Y24478D02*
Y25679D01*
X41634Y24478D02*
Y25678D01*
X41123Y24478D02*
Y25679D01*
X44990Y31526D02*
X46033D01*
X44990Y32037D02*
X46033D01*
Y31526D02*
Y32037D01*
X44990Y31526D02*
Y32037D01*
X11477Y11142D02*
Y12342D01*
X11988Y11142D02*
Y12343D01*
X12264Y10984D02*
X13307D01*
X12264Y10472D02*
X13307D01*
X12264D02*
Y10984D01*
X13307Y10472D02*
Y10984D01*
X15501Y9075D02*
Y10275D01*
X14990Y9075D02*
Y10276D01*
X25454Y14340D02*
X26653D01*
X25453Y13829D02*
X26654D01*
X8593Y2972D02*
X9793D01*
X8593Y2461D02*
X9793D01*
X44626Y10669D02*
Y11181D01*
X43583Y10669D02*
Y11181D01*
Y10669D02*
X44626D01*
X43583Y11181D02*
X44626D01*
X46585Y12254D02*
Y12766D01*
X47628Y12254D02*
Y12766D01*
X46585D02*
X47628D01*
X46585Y12254D02*
X47628D01*
X42056Y3523D02*
Y4724D01*
X41545Y3524D02*
Y4724D01*
X41387Y3523D02*
Y4724D01*
X40876Y3524D02*
Y4724D01*
X40551Y5010D02*
Y6211D01*
X40040Y5011D02*
Y6211D01*
X25453Y14459D02*
X26654D01*
X25454Y14970D02*
X26653D01*
X20631Y3544D02*
Y4744D01*
X21142Y3543D02*
Y4744D01*
X19695Y3563D02*
Y4764D01*
X19184Y3564D02*
Y4764D01*
X29439Y4765D02*
X30639D01*
X29439Y5276D02*
X30640D01*
X17087Y8484D02*
Y8996D01*
X16043Y8484D02*
Y8996D01*
Y8484D02*
X17087D01*
X16043Y8996D02*
X17087D01*
X24783Y12520D02*
Y13720D01*
X25294Y12520D02*
Y13720D01*
X22746Y13996D02*
X23947D01*
X22746Y13485D02*
X23946D01*
X19508Y7343D02*
X20020D01*
X19508Y6299D02*
X20020D01*
Y7343D01*
X19508Y6299D02*
Y7343D01*
X20226Y7028D02*
X21427D01*
X20226Y6517D02*
X21426D01*
X10541Y3780D02*
X11053D01*
X10541Y4823D02*
X11053D01*
X10541Y3780D02*
Y4823D01*
X11053Y3780D02*
Y4823D01*
X8750Y3091D02*
Y3602D01*
X9793Y3091D02*
Y3602D01*
X8750D02*
X9793D01*
X8750Y3091D02*
X9793D01*
X3031Y24262D02*
Y24774D01*
X4075Y24262D02*
Y24774D01*
X3031D02*
X4075D01*
X3031Y24262D02*
X4075D01*
X-1998Y23711D02*
X-1486D01*
X-1998Y24754D02*
X-1486D01*
X-1998Y23711D02*
Y24754D01*
X-1486Y23711D02*
Y24754D01*
X-3228Y23671D02*
Y24183D01*
X-2185Y23671D02*
Y24183D01*
X-3228D02*
X-2185D01*
X-3228Y23671D02*
X-2185D01*
X-1811Y22352D02*
X-1299D01*
X-1811Y21309D02*
X-1299D01*
Y22352D01*
X-1811Y21309D02*
Y22352D01*
X4124Y21880D02*
Y22392D01*
X3081Y21880D02*
Y22392D01*
Y21880D02*
X4124D01*
X3081Y22392D02*
X4124D01*
X2372Y22352D02*
X2884D01*
X2372Y21309D02*
X2884D01*
Y22352D01*
X2372Y21309D02*
Y22352D01*
Y23701D02*
X2884D01*
X2372Y24744D02*
X2884D01*
X2372Y23701D02*
Y24744D01*
X2884Y23701D02*
Y24744D01*
X4075Y23553D02*
Y24065D01*
X3031Y23553D02*
Y24065D01*
Y23553D02*
X4075D01*
X3031Y24065D02*
X4075D01*
X2559Y22776D02*
X3760D01*
X2560Y23286D02*
X3760D01*
X10059Y22648D02*
Y23159D01*
X9016Y22648D02*
Y23159D01*
Y22648D02*
X10059D01*
X9016Y23159D02*
X10059D01*
X10679Y17776D02*
X11880D01*
X10679Y17265D02*
X11879D01*
X13287Y16772D02*
X13799D01*
X13287Y17815D02*
X13799D01*
X13287Y16772D02*
Y17815D01*
X13799Y16772D02*
Y17815D01*
X13287Y15620D02*
X13799D01*
X13287Y16663D02*
X13799D01*
X13287Y15620D02*
Y16663D01*
X13799Y15620D02*
Y16663D01*
X14380Y16673D02*
X14892D01*
X14380Y15630D02*
X14892D01*
Y16673D01*
X14380Y15630D02*
Y16673D01*
X12746Y13957D02*
X13947D01*
X12746Y13446D02*
X13946D01*
X12648Y16673D02*
X13159D01*
X12648Y15630D02*
X13159D01*
Y16673D01*
X12648Y15630D02*
Y16673D01*
X12530Y15699D02*
Y16900D01*
X12019Y15700D02*
Y16900D01*
X11358Y15699D02*
X11870D01*
X11358Y14656D02*
X11870D01*
Y15699D01*
X11358Y14656D02*
Y15699D01*
Y16860D02*
X11870D01*
X11358Y15817D02*
X11870D01*
Y16860D01*
X11358Y15817D02*
Y16860D01*
X11368Y13287D02*
Y14488D01*
X11879Y13287D02*
Y14487D01*
X12815Y11161D02*
Y11673D01*
X13858Y11161D02*
Y11673D01*
X12815D02*
X13858D01*
X12815Y11161D02*
X13858D01*
X12648Y11152D02*
Y12352D01*
X12137Y11152D02*
Y12352D01*
X14488Y11152D02*
Y12352D01*
X13977Y11152D02*
Y12352D01*
X12835Y9301D02*
X13346D01*
X12835Y10344D02*
X13346D01*
X12835Y9301D02*
Y10344D01*
X13346Y9301D02*
Y10344D01*
X14508Y7904D02*
X15709D01*
X14509Y8414D02*
X15709D01*
X12156Y8425D02*
X13356D01*
X12156Y7914D02*
X13356D01*
X12244Y8563D02*
Y9075D01*
X13287Y8563D02*
Y9075D01*
X12244D02*
X13287D01*
X12244Y8563D02*
X13287D01*
X29734Y6388D02*
X30935D01*
X29734Y5877D02*
X30934D01*
X41329Y21476D02*
X42530D01*
X41329Y20965D02*
X42529D01*
X21043Y30423D02*
Y31624D01*
X20532Y30424D02*
Y31624D01*
X36870Y30423D02*
Y31624D01*
X36359Y30424D02*
Y31624D01*
X26201Y30423D02*
Y31624D01*
X25690Y30424D02*
Y31624D01*
X32146Y30423D02*
Y31624D01*
X31635Y30424D02*
Y31624D01*
X37500Y26289D02*
Y27490D01*
X38011Y26289D02*
Y27489D01*
X31988Y26171D02*
Y27372D01*
X32499Y26171D02*
Y27371D01*
X27303Y26132D02*
Y27333D01*
X27814Y26132D02*
Y27332D01*
X22028Y26171D02*
Y27372D01*
X22538Y26171D02*
Y27371D01*
X20128Y31850D02*
Y32362D01*
X21171Y31850D02*
Y32362D01*
X20128D02*
X21171D01*
X20128Y31850D02*
X21171D01*
X23494D02*
Y32362D01*
X22451Y31850D02*
Y32362D01*
Y31850D02*
X23494D01*
X22451Y32362D02*
X23494D01*
X25709Y31860D02*
Y32372D01*
X26752Y31860D02*
Y32372D01*
X25709D02*
X26752D01*
X25709Y31860D02*
X26752D01*
X29734Y31919D02*
Y32431D01*
X30778Y31919D02*
Y32431D01*
X29734D02*
X30778D01*
X29734Y31919D02*
X30778D01*
X31250Y32047D02*
Y32559D01*
X32293Y32047D02*
Y32559D01*
X31250D02*
X32293D01*
X31250Y32047D02*
X32293D01*
X35935Y31949D02*
Y32461D01*
X36978Y31949D02*
Y32461D01*
X35935D02*
X36978D01*
X35935Y31949D02*
X36978D01*
X37343Y31939D02*
Y32451D01*
X38386Y31939D02*
Y32451D01*
X37343D02*
X38386D01*
X37343Y31939D02*
X38386D01*
X39705Y21152D02*
Y22352D01*
X39194Y21152D02*
Y22352D01*
X37343Y22018D02*
X38543D01*
X37343Y21507D02*
X38543D01*
X37657Y21378D02*
X38858D01*
X37658Y20867D02*
X38858D01*
X37628Y22972D02*
X38829D01*
X37628Y22462D02*
X38828D01*
X37795Y25197D02*
X38996D01*
X37796Y25708D02*
X38996D01*
X42333Y22303D02*
Y22815D01*
X41289Y22303D02*
Y22815D01*
Y22303D02*
X42333D01*
X41289Y22815D02*
X42333D01*
X41101Y21919D02*
Y23119D01*
X40591Y21919D02*
Y23120D01*
X41289Y21556D02*
X42489D01*
X41289Y22067D02*
X42490D01*
D11*
X235Y24809D02*
G03*
X826Y24809I295J0D01*
G01*
X19231Y7959D02*
X19631D01*
X19231D02*
Y8259D01*
Y9159D02*
X19631D01*
X19231Y8859D02*
Y9159D01*
X19731Y8459D02*
Y8659D01*
X8823Y6563D02*
Y6863D01*
Y5663D02*
X9223D01*
X8823D02*
Y5963D01*
X9323Y6163D02*
Y6363D01*
X8823Y6863D02*
X9223D01*
X16030Y5719D02*
X18037D01*
Y4695D02*
Y5719D01*
X16030Y4695D02*
Y5719D01*
Y4695D02*
X18037D01*
X17526Y2333D02*
Y4695D01*
X16522Y2333D02*
Y4695D01*
X45784Y10725D02*
Y11025D01*
X45384Y11925D02*
X45784D01*
Y11625D02*
Y11925D01*
X45284Y11225D02*
Y11425D01*
X45384Y10725D02*
X45784D01*
X3248Y11355D02*
X3648D01*
X3148Y11855D02*
Y12055D01*
X3648Y12255D02*
Y12555D01*
X3248D02*
X3648D01*
Y11355D02*
Y11655D01*
X4842Y11355D02*
X5242D01*
X4742Y11855D02*
Y12055D01*
X5242Y12255D02*
Y12555D01*
X4842D02*
X5242D01*
Y11355D02*
Y11655D01*
X1503Y13596D02*
Y13996D01*
X2003Y14096D02*
X2203D01*
X2403Y13596D02*
X2703D01*
Y13996D01*
X1503Y13596D02*
X1803D01*
X4841Y26532D02*
X5141D01*
X3941Y26132D02*
Y26532D01*
X4241D01*
X4441Y26032D02*
X4641D01*
X5141Y26132D02*
Y26532D01*
X8827Y26522D02*
X9127D01*
X7927Y26122D02*
Y26522D01*
X8227D01*
X8427Y26022D02*
X8627D01*
X9127Y26122D02*
Y26522D01*
X12951D02*
X13251D01*
X12051Y26122D02*
Y26522D01*
X12351D01*
X12551Y26022D02*
X12751D01*
X13251Y26122D02*
Y26522D01*
X16970Y7620D02*
Y7820D01*
X16470Y8020D02*
Y8320D01*
X16870D01*
X16470Y7120D02*
Y7420D01*
Y7120D02*
X16870D01*
X46493Y11047D02*
Y11447D01*
X46993Y11547D02*
X47193D01*
X47393Y11047D02*
X47693D01*
Y11447D01*
X46493Y11047D02*
X46793D01*
X21222Y5701D02*
Y5901D01*
X20722Y6101D02*
Y6401D01*
X21122D01*
X20722Y5201D02*
Y5501D01*
Y5201D02*
X21122D01*
X39Y21266D02*
Y24809D01*
X1023Y21266D02*
Y24809D01*
X39Y21266D02*
X1023D01*
X39Y24809D02*
X235D01*
X826D02*
X1023D01*
X10561Y2359D02*
X10961D01*
X10461Y2859D02*
Y3059D01*
X10961Y3259D02*
Y3559D01*
X10561D02*
X10961D01*
Y2359D02*
Y2659D01*
X16046Y25226D02*
Y25626D01*
X15346Y25126D02*
X15546D01*
X14846Y25626D02*
X15146D01*
X14846Y25226D02*
Y25626D01*
X15746D02*
X16046D01*
X4393Y17333D02*
Y17733D01*
X3693Y17233D02*
X3893D01*
X3193Y17733D02*
X3493D01*
X3193Y17333D02*
Y17733D01*
X4093D02*
X4393D01*
X5718Y19249D02*
X6118D01*
X5618Y19749D02*
Y19949D01*
X6118Y20149D02*
Y20449D01*
X5718D02*
X6118D01*
Y19249D02*
Y19549D01*
X4583Y17238D02*
Y17638D01*
X5083Y17738D02*
X5283D01*
X5483Y17238D02*
X5783D01*
Y17638D01*
X4583Y17238D02*
X4883D01*
D13*
X3817Y26417D02*
G03*
X3817Y26417I-49J0D01*
G01*
X7813D02*
G03*
X7813Y26417I-49J0D01*
G01*
X11907D02*
G03*
X11907Y26417I-49J0D01*
G01*
X15935D02*
G03*
X15935Y26417I-49J0D01*
G01*
X14843Y8642D02*
G03*
X14843Y8642I-49J0D01*
G01*
X4537Y10943D02*
G03*
X4537Y10943I-49J0D01*
G01*
X12323Y14173D02*
G03*
X12323Y14173I-49J0D01*
G01*
X18848Y531D02*
G03*
X18848Y531I-49J0D01*
G01*
X2953Y18742D02*
G03*
X2953Y18742I-49J0D01*
G01*
D14*
X18976Y5502D02*
X19409D01*
X18976Y6132D02*
X19409D01*
X13130Y5817D02*
Y6171D01*
X12028Y5817D02*
Y6171D01*
X32963Y4606D02*
X35049D01*
X32963Y3465D02*
X35049D01*
X32963Y4498D02*
Y4606D01*
Y3465D02*
Y3573D01*
X35049Y4498D02*
Y4606D01*
Y3465D02*
Y3573D01*
X21919Y325D02*
X23415D01*
Y1230D01*
X27274Y325D02*
Y1230D01*
X21919Y12018D02*
X23415D01*
X27274Y325D02*
X28691D01*
X27274Y12018D02*
X28691D01*
X23415Y1230D02*
X27274D01*
X23415Y10089D02*
X27274D01*
X23415D02*
Y12018D01*
X27274Y10089D02*
Y12018D01*
X21919Y325D02*
Y12018D01*
X28691Y325D02*
Y12018D01*
X36250Y3484D02*
X36604D01*
X36250Y4587D02*
X36604D01*
X1130Y27313D02*
Y27746D01*
X3768Y27313D02*
Y27746D01*
X1130Y27313D02*
X3768D01*
X5126D02*
Y27746D01*
X7764Y27313D02*
Y27746D01*
X5126Y27313D02*
X7764D01*
X9220D02*
Y27746D01*
X11858Y27313D02*
Y27746D01*
X9220Y27313D02*
X11858D01*
X13248D02*
Y27746D01*
X15886Y27313D02*
Y27746D01*
X13248Y27313D02*
X15886D01*
X8770Y20876D02*
X11762D01*
Y22451D01*
X8770D02*
X11762D01*
X8770Y20876D02*
Y22451D01*
X15015Y14134D02*
Y16220D01*
X16157Y14134D02*
Y16220D01*
X15015Y14134D02*
X15123D01*
X16048D02*
X16157D01*
X15015Y16220D02*
X15123D01*
X16048D02*
X16157D01*
X4774Y15787D02*
Y16230D01*
Y13789D02*
Y14232D01*
X7963Y15787D02*
Y16230D01*
Y13789D02*
Y14232D01*
X5868Y14410D02*
Y15610D01*
X6868Y14410D02*
Y15610D01*
X5868D02*
X6868Y15010D01*
X5868Y14410D02*
X6868Y15010D01*
X4774Y16230D02*
X7963D01*
X4774Y13789D02*
X7963D01*
X13553Y9252D02*
Y10118D01*
X14734Y9252D02*
Y10118D01*
X3159Y8305D02*
X3593D01*
X3159Y10943D02*
X3593D01*
Y8305D02*
Y10943D01*
X8071Y12726D02*
X8514D01*
X6073D02*
X6516D01*
X8071Y9537D02*
X8514D01*
X6073D02*
X6516D01*
X6693Y11632D02*
X7893D01*
X6693Y10632D02*
X7893D01*
X7293D02*
X7893Y11632D01*
X6693D02*
X7293Y10632D01*
X8514Y9537D02*
Y12726D01*
X6073Y9537D02*
Y12726D01*
X4843Y13406D02*
X5276D01*
X4843Y12776D02*
X5276D01*
X41112Y2874D02*
Y3268D01*
Y2874D02*
X41821D01*
Y3071D01*
Y3268D01*
X41112D02*
X41821D01*
X12884Y15413D02*
X13750D01*
X12884Y14232D02*
X13750D01*
X15266Y7244D02*
X15699D01*
X15266Y6614D02*
X15699D01*
X5679Y5827D02*
Y6181D01*
X6781Y5827D02*
Y6181D01*
X8711Y4931D02*
X9065D01*
X8711Y3829D02*
X9065D01*
X41191Y10217D02*
X46280D01*
Y10000D02*
Y10217D01*
Y8907D02*
Y9478D01*
Y7569D02*
Y8386D01*
Y6575D02*
Y7028D01*
Y5138D02*
Y6024D01*
X41191Y7195D02*
Y10217D01*
Y6407D02*
Y6654D01*
Y5138D02*
Y5886D01*
Y5138D02*
X46280D01*
X42854Y7362D02*
Y9774D01*
X44380D01*
Y7362D02*
Y9774D01*
X42854Y7362D02*
X44380D01*
X41535Y7608D02*
Y8524D01*
Y7608D02*
X42037D01*
Y8524D01*
X41535D02*
X42037D01*
X12037Y19311D02*
X12146D01*
X13071D02*
X13179D01*
X12037Y21398D02*
X12146D01*
X13071D02*
X13179D01*
X12037Y19311D02*
Y21398D01*
X13179Y19311D02*
Y21398D01*
X8770Y19163D02*
X11762D01*
Y20738D01*
X8770D02*
X11762D01*
X8770Y19163D02*
Y20738D01*
X5541Y18415D02*
X5974D01*
X5541Y19045D02*
X5974D01*
X2008Y16104D02*
Y18742D01*
X1575D02*
X2008D01*
X1575Y16104D02*
X2008D01*
X3848Y18425D02*
X4281D01*
X3848Y19055D02*
X4281D01*
X6644Y17264D02*
Y17697D01*
X6014Y17264D02*
Y17697D01*
X15709Y13179D02*
X15817D01*
X14675D02*
X14783D01*
X15709Y11093D02*
X15817D01*
X14675D02*
X14783D01*
X15817D02*
Y13179D01*
X14675Y11093D02*
Y13179D01*
X3159Y13406D02*
X3593D01*
X3159Y12776D02*
X3593D01*
X2421Y11870D02*
Y12303D01*
X1791Y11870D02*
Y12303D01*
X17736Y344D02*
X17605D01*
X17671D01*
Y738D01*
X17736Y672D01*
X17146Y344D02*
X17408D01*
X17146Y607D01*
Y672D01*
X17211Y738D01*
X17343D01*
X17408Y672D01*
X17015D02*
X16949Y738D01*
X16818D01*
X16752Y672D01*
Y410D01*
X16818Y344D01*
X16949D01*
X17015Y410D01*
Y672D01*
X16359Y738D02*
X16621D01*
Y344D01*
X16359D01*
X16621Y541D02*
X16490D01*
X42224Y5276D02*
Y5591D01*
X42329Y5486D01*
X42434Y5591D01*
Y5276D01*
X42539Y5591D02*
X42644D01*
X42592D01*
Y5381D01*
X42539D01*
X43012Y5276D02*
X42802D01*
Y5433D01*
X42907D01*
X42802D01*
Y5591D01*
X43117D02*
X43221D01*
X43169D01*
Y5381D01*
X43117D01*
X43694Y5276D02*
Y5591D01*
X43851D01*
X43904Y5538D01*
Y5486D01*
Y5433D01*
X43851Y5381D01*
X43694D01*
X44009Y5591D02*
X44219Y5381D01*
X44428Y5695D02*
X44481D01*
X44533Y5643D01*
Y5381D01*
X44376D01*
X44323Y5433D01*
Y5538D01*
X44376Y5591D01*
X44533D01*
X44638D02*
X44848Y5381D01*
X44953Y5591D02*
Y5381D01*
X45111D01*
X45163Y5433D01*
Y5591D01*
X43711Y9606D02*
X43396D01*
Y9449D01*
X43448Y9396D01*
X43553D01*
X43606Y9449D01*
Y9606D01*
Y9501D02*
X43711Y9396D01*
X43396Y9082D02*
Y9291D01*
X43711D01*
Y9082D01*
X43553Y9291D02*
Y9186D01*
X43711Y8977D02*
X43501D01*
X43396Y8872D01*
X43501Y8767D01*
X43711D01*
X43553D01*
Y8977D01*
X43396Y8662D02*
X43711D01*
Y8452D01*
X43396Y8347D02*
Y8137D01*
Y8242D01*
X43711D01*
X43396Y7822D02*
Y8032D01*
X43711D01*
Y7822D01*
X43553Y8032D02*
Y7927D01*
X43396Y7717D02*
X43711D01*
X43606D01*
X43396Y7507D01*
X43553Y7665D01*
X43711Y7507D01*
X45092Y6184D02*
X45039Y6132D01*
X44934D01*
X44882Y6184D01*
Y6394D01*
X44934Y6447D01*
X45039D01*
X45092Y6394D01*
Y6289D01*
X44987D01*
X45197Y6447D02*
Y6132D01*
X45407Y6447D01*
Y6132D01*
X45512D02*
Y6447D01*
X45669D01*
X45722Y6394D01*
Y6184D01*
X45669Y6132D01*
X45512D01*
X45177Y7106D02*
Y7421D01*
X45335D01*
X45387Y7369D01*
Y7159D01*
X45335Y7106D01*
X45177D01*
X45492Y7264D02*
X45702D01*
X45597Y7159D02*
Y7369D01*
X45177Y8475D02*
Y8789D01*
X45335D01*
X45387Y8737D01*
Y8527D01*
X45335Y8475D01*
X45177D01*
X45492Y8632D02*
X45702D01*
X44882Y9620D02*
X44934Y9567D01*
X45039D01*
X45092Y9620D01*
Y9672D01*
X45039Y9724D01*
X44987D01*
X45039D01*
X45092Y9777D01*
Y9829D01*
X45039Y9882D01*
X44934D01*
X44882Y9829D01*
X45197Y9567D02*
Y9777D01*
X45302Y9882D01*
X45407Y9777D01*
Y9567D01*
X45512Y9620D02*
X45564Y9567D01*
X45669D01*
X45722Y9620D01*
Y9672D01*
X45669Y9724D01*
X45617D01*
X45669D01*
X45722Y9777D01*
Y9829D01*
X45669Y9882D01*
X45564D01*
X45512Y9829D01*
X41732Y7087D02*
Y6772D01*
X41890D01*
X41942Y6824D01*
Y6929D01*
X41890Y6982D01*
X41732D01*
X41837D02*
X41942Y7087D01*
X42257Y6772D02*
X42047D01*
Y6929D01*
X42152D01*
X42047D01*
Y7087D01*
X41972Y6047D02*
X41919Y5994D01*
X41814D01*
X41762Y6047D01*
Y6257D01*
X41814Y6309D01*
X41919D01*
X41972Y6257D01*
Y6152D01*
X41867D01*
X42077Y6309D02*
Y5994D01*
X42287Y6309D01*
Y5994D01*
X42392D02*
Y6309D01*
X42549D01*
X42601Y6257D01*
Y6047D01*
X42549Y5994D01*
X42392D01*
X19242Y21171D02*
X19032D01*
X19137D01*
Y20856D01*
X18927D02*
Y21171D01*
X18770D01*
X18717Y21119D01*
Y21014D01*
X18770Y20961D01*
X18927D01*
X18612Y20909D02*
X18560Y20856D01*
X18455D01*
X18403Y20909D01*
Y21119D01*
X18455Y21171D01*
X18560D01*
X18612Y21119D01*
Y21066D01*
X18560Y21014D01*
X18403D01*
X3802Y6560D02*
X3592D01*
X3697D01*
Y6245D01*
X3487D02*
Y6560D01*
X3330D01*
X3277Y6508D01*
Y6403D01*
X3330Y6350D01*
X3487D01*
X3172Y6508D02*
X3120Y6560D01*
X3015D01*
X2962Y6508D01*
Y6455D01*
X3015Y6403D01*
X2962Y6350D01*
Y6298D01*
X3015Y6245D01*
X3120D01*
X3172Y6298D01*
Y6350D01*
X3120Y6403D01*
X3172Y6455D01*
Y6508D01*
X3120Y6403D02*
X3015D01*
X4220Y2926D02*
X4010D01*
X4115D01*
Y2611D01*
X3905D02*
Y2926D01*
X3748D01*
X3695Y2874D01*
Y2769D01*
X3748Y2716D01*
X3905D01*
X3590Y2926D02*
X3380D01*
Y2874D01*
X3590Y2664D01*
Y2611D01*
X19183Y14547D02*
X18973D01*
X19078D01*
Y14232D01*
X18868D02*
Y14547D01*
X18711D01*
X18658Y14495D01*
Y14390D01*
X18711Y14337D01*
X18868D01*
X18343Y14547D02*
X18448Y14495D01*
X18553Y14390D01*
Y14285D01*
X18501Y14232D01*
X18396D01*
X18343Y14285D01*
Y14337D01*
X18396Y14390D01*
X18553D01*
X19144Y15974D02*
X18934D01*
X19039D01*
Y15659D01*
X18829D02*
Y15974D01*
X18671D01*
X18619Y15922D01*
Y15817D01*
X18671Y15764D01*
X18829D01*
X18304Y15974D02*
X18514D01*
Y15817D01*
X18409Y15869D01*
X18357D01*
X18304Y15817D01*
Y15712D01*
X18357Y15659D01*
X18462D01*
X18514Y15712D01*
X20955Y13189D02*
X20745D01*
X20850D01*
Y12874D01*
X20640D02*
Y13189D01*
X20482D01*
X20430Y13136D01*
Y13031D01*
X20482Y12979D01*
X20640D01*
X20168Y12874D02*
Y13189D01*
X20325Y13031D01*
X20115D01*
X19154Y18573D02*
X18944D01*
X19049D01*
Y18258D01*
X18839D02*
Y18573D01*
X18681D01*
X18629Y18520D01*
Y18415D01*
X18681Y18363D01*
X18839D01*
X18524Y18520D02*
X18471Y18573D01*
X18366D01*
X18314Y18520D01*
Y18468D01*
X18366Y18415D01*
X18419D01*
X18366D01*
X18314Y18363D01*
Y18310D01*
X18366Y18258D01*
X18471D01*
X18524Y18310D01*
X19094Y17244D02*
X18885D01*
X18990D01*
Y16929D01*
X18780D02*
Y17244D01*
X18622D01*
X18570Y17192D01*
Y17087D01*
X18622Y17034D01*
X18780D01*
X18255Y16929D02*
X18465D01*
X18255Y17139D01*
Y17192D01*
X18307Y17244D01*
X18412D01*
X18465Y17192D01*
X19094Y19892D02*
X18885D01*
X18990D01*
Y19577D01*
X18780D02*
Y19892D01*
X18622D01*
X18570Y19839D01*
Y19734D01*
X18622Y19682D01*
X18780D01*
X18465Y19577D02*
X18360D01*
X18412D01*
Y19892D01*
X18465Y19839D01*
X29636Y12618D02*
Y12933D01*
X29478D01*
X29426Y12880D01*
Y12776D01*
X29478Y12723D01*
X29636D01*
X29531D02*
X29426Y12618D01*
X29321Y12933D02*
X29111D01*
Y12880D01*
X29321Y12671D01*
Y12618D01*
X28849D02*
Y12933D01*
X29006Y12776D01*
X28796D01*
X19055Y7677D02*
Y7992D01*
X18898D01*
X18845Y7940D01*
Y7835D01*
X18898Y7782D01*
X19055D01*
X18950D02*
X18845Y7677D01*
X18740Y7992D02*
X18530D01*
Y7940D01*
X18740Y7730D01*
Y7677D01*
X18425Y7940D02*
X18373Y7992D01*
X18268D01*
X18215Y7940D01*
Y7887D01*
X18268Y7835D01*
X18320D01*
X18268D01*
X18215Y7782D01*
Y7730D01*
X18268Y7677D01*
X18373D01*
X18425Y7730D01*
X20059Y7470D02*
Y7785D01*
X19902D01*
X19849Y7733D01*
Y7628D01*
X19902Y7575D01*
X20059D01*
X19954D02*
X19849Y7470D01*
X19744Y7785D02*
X19534D01*
Y7733D01*
X19744Y7523D01*
Y7470D01*
X19429Y7733D02*
X19377Y7785D01*
X19272D01*
X19219Y7733D01*
Y7523D01*
X19272Y7470D01*
X19377D01*
X19429Y7523D01*
Y7733D01*
X24465Y11982D02*
X24518Y11929D01*
Y11824D01*
X24465Y11772D01*
X24255D01*
X24203Y11824D01*
Y11929D01*
X24255Y11982D01*
X24203Y12244D02*
X24518D01*
X24360Y12087D01*
Y12296D01*
X36601Y3238D02*
X36811D01*
Y3081D01*
X36706D01*
X36811D01*
Y2923D01*
X36496Y3238D02*
Y2976D01*
X36444Y2923D01*
X36339D01*
X36286Y2976D01*
Y3238D01*
X35971D02*
X36076Y3186D01*
X36181Y3081D01*
Y2976D01*
X36129Y2923D01*
X36024D01*
X35971Y2976D01*
Y3028D01*
X36024Y3081D01*
X36181D01*
X20197Y9655D02*
Y9445D01*
X20092Y9341D01*
X19987Y9445D01*
Y9655D01*
X19882D02*
Y9341D01*
X19725D01*
X19672Y9393D01*
Y9603D01*
X19725Y9655D01*
X19882D01*
X19357Y9341D02*
X19567D01*
X19357Y9550D01*
Y9603D01*
X19410Y9655D01*
X19515D01*
X19567Y9603D01*
X19042Y9655D02*
X19252D01*
Y9498D01*
X19147Y9550D01*
X19095D01*
X19042Y9498D01*
Y9393D01*
X19095Y9341D01*
X19200D01*
X19252Y9393D01*
X21388Y8976D02*
Y9291D01*
X21230D01*
X21178Y9239D01*
Y9134D01*
X21230Y9081D01*
X21388D01*
X21283D02*
X21178Y8976D01*
X21073Y9239D02*
X21020Y9291D01*
X20916D01*
X20863Y9239D01*
Y9186D01*
X20916Y9134D01*
X20863Y9081D01*
Y9029D01*
X20916Y8976D01*
X21020D01*
X21073Y9029D01*
Y9081D01*
X21020Y9134D01*
X21073Y9186D01*
Y9239D01*
X21020Y9134D02*
X20916D01*
X20548Y9291D02*
X20653Y9239D01*
X20758Y9134D01*
Y9029D01*
X20706Y8976D01*
X20601D01*
X20548Y9029D01*
Y9081D01*
X20601Y9134D01*
X20758D01*
X12703Y4931D02*
X12913D01*
Y4774D01*
X12808D01*
X12913D01*
Y4616D01*
X12599Y4931D02*
Y4669D01*
X12546Y4616D01*
X12441D01*
X12389Y4669D01*
Y4931D01*
X12074D02*
X12284D01*
Y4774D01*
X12179Y4826D01*
X12126D01*
X12074Y4774D01*
Y4669D01*
X12126Y4616D01*
X12231D01*
X12284Y4669D01*
X21198Y9682D02*
X21250Y9734D01*
X21355D01*
X21407Y9682D01*
Y9472D01*
X21355Y9419D01*
X21250D01*
X21198Y9472D01*
X21093Y9682D02*
X21040Y9734D01*
X20935D01*
X20883Y9682D01*
Y9629D01*
X20935Y9577D01*
X20883Y9524D01*
Y9472D01*
X20935Y9419D01*
X21040D01*
X21093Y9472D01*
Y9524D01*
X21040Y9577D01*
X21093Y9629D01*
Y9682D01*
X21040Y9577D02*
X20935D01*
X20568Y9734D02*
X20778D01*
Y9577D01*
X20673Y9629D01*
X20620D01*
X20568Y9577D01*
Y9472D01*
X20620Y9419D01*
X20725D01*
X20778Y9472D01*
X11148Y7546D02*
X11201Y7598D01*
X11306D01*
X11358Y7546D01*
Y7336D01*
X11306Y7283D01*
X11201D01*
X11148Y7336D01*
X11043Y7546D02*
X10991Y7598D01*
X10886D01*
X10833Y7546D01*
Y7493D01*
X10886Y7441D01*
X10833Y7388D01*
Y7336D01*
X10886Y7283D01*
X10991D01*
X11043Y7336D01*
Y7388D01*
X10991Y7441D01*
X11043Y7493D01*
Y7546D01*
X10991Y7441D02*
X10886D01*
X10571Y7283D02*
Y7598D01*
X10729Y7441D01*
X10519D01*
X-2087Y22559D02*
Y22874D01*
X-2244D01*
X-2297Y22821D01*
Y22716D01*
X-2244Y22664D01*
X-2087D01*
X-2192D02*
X-2297Y22559D01*
X-2559D02*
Y22874D01*
X-2401Y22716D01*
X-2611D01*
X-2716Y22821D02*
X-2769Y22874D01*
X-2874D01*
X-2926Y22821D01*
Y22769D01*
X-2874Y22716D01*
X-2926Y22664D01*
Y22612D01*
X-2874Y22559D01*
X-2769D01*
X-2716Y22612D01*
Y22664D01*
X-2769Y22716D01*
X-2716Y22769D01*
Y22821D01*
X-2769Y22716D02*
X-2874D01*
X15656Y5354D02*
X15761D01*
X15709D01*
Y5092D01*
X15761Y5039D01*
X15814D01*
X15866Y5092D01*
X15551Y5039D02*
X15446D01*
X15499D01*
Y5354D01*
X15551Y5302D01*
X18268Y5906D02*
Y6220D01*
X18110D01*
X18058Y6168D01*
Y6063D01*
X18110Y6010D01*
X18268D01*
X18163D02*
X18058Y5906D01*
X17743Y6220D02*
X17848Y6168D01*
X17953Y6063D01*
Y5958D01*
X17900Y5906D01*
X17795D01*
X17743Y5958D01*
Y6010D01*
X17795Y6063D01*
X17953D01*
X17638Y6168D02*
X17586Y6220D01*
X17481D01*
X17428Y6168D01*
Y6115D01*
X17481Y6063D01*
X17428Y6010D01*
Y5958D01*
X17481Y5906D01*
X17586D01*
X17638Y5958D01*
Y6010D01*
X17586Y6063D01*
X17638Y6115D01*
Y6168D01*
X17586Y6063D02*
X17481D01*
X34469Y3258D02*
Y3048D01*
X34364Y2943D01*
X34259Y3048D01*
Y3258D01*
X34154D02*
Y2943D01*
X33996D01*
X33944Y2995D01*
Y3205D01*
X33996Y3258D01*
X34154D01*
X33629Y2943D02*
X33839D01*
X33629Y3153D01*
Y3205D01*
X33681Y3258D01*
X33786D01*
X33839Y3205D01*
X33524D02*
X33471Y3258D01*
X33366D01*
X33314Y3205D01*
Y3153D01*
X33366Y3100D01*
X33419D01*
X33366D01*
X33314Y3048D01*
Y2995D01*
X33366Y2943D01*
X33471D01*
X33524Y2995D01*
X1457Y11467D02*
X1247D01*
X1142Y11571D01*
X1247Y11676D01*
X1457D01*
Y11781D02*
Y11991D01*
Y11886D01*
X1142D01*
Y12306D02*
Y12096D01*
X1352Y12306D01*
X1404D01*
X1457Y12254D01*
Y12149D01*
X1404Y12096D01*
Y12411D02*
X1457Y12464D01*
Y12569D01*
X1404Y12621D01*
X1194D01*
X1142Y12569D01*
Y12464D01*
X1194Y12411D01*
X1404D01*
X1880Y8209D02*
Y7999D01*
X1775Y7894D01*
X1670Y7999D01*
Y8209D01*
X1565D02*
X1355D01*
X1460D01*
Y7894D01*
X1250D02*
X1145D01*
X1198D01*
Y8209D01*
X1250Y8156D01*
X988Y7946D02*
X935Y7894D01*
X830D01*
X778Y7946D01*
Y8156D01*
X830Y8209D01*
X935D01*
X988Y8156D01*
Y8104D01*
X935Y8051D01*
X778D01*
X10187Y24459D02*
Y24774D01*
X10030D01*
X9977Y24721D01*
Y24616D01*
X10030Y24564D01*
X10187D01*
X10082D02*
X9977Y24459D01*
X9872Y24511D02*
X9820Y24459D01*
X9715D01*
X9662Y24511D01*
Y24721D01*
X9715Y24774D01*
X9820D01*
X9872Y24721D01*
Y24669D01*
X9820Y24616D01*
X9662D01*
X9347Y24774D02*
X9452Y24721D01*
X9557Y24616D01*
Y24511D01*
X9505Y24459D01*
X9400D01*
X9347Y24511D01*
Y24564D01*
X9400Y24616D01*
X9557D01*
X14862Y24104D02*
Y24419D01*
X14705D01*
X14652Y24367D01*
Y24262D01*
X14705Y24209D01*
X14862D01*
X14757D02*
X14652Y24104D01*
X14547Y24157D02*
X14495Y24104D01*
X14390D01*
X14337Y24157D01*
Y24367D01*
X14390Y24419D01*
X14495D01*
X14547Y24367D01*
Y24314D01*
X14495Y24262D01*
X14337D01*
X14023Y24419D02*
X14232D01*
Y24262D01*
X14128Y24314D01*
X14075D01*
X14023Y24262D01*
Y24157D01*
X14075Y24104D01*
X14180D01*
X14232Y24157D01*
X25056Y15850D02*
X25108Y15797D01*
Y15692D01*
X25056Y15640D01*
X24846D01*
X24793Y15692D01*
Y15797D01*
X24846Y15850D01*
X25108Y16165D02*
Y15955D01*
X24951D01*
X25003Y16060D01*
Y16112D01*
X24951Y16165D01*
X24846D01*
X24793Y16112D01*
Y16007D01*
X24846Y15955D01*
X25056Y16269D02*
X25108Y16322D01*
Y16427D01*
X25056Y16479D01*
X25003D01*
X24951Y16427D01*
Y16374D01*
Y16427D01*
X24898Y16479D01*
X24846D01*
X24793Y16427D01*
Y16322D01*
X24846Y16269D01*
X13760Y24400D02*
Y24714D01*
X13602D01*
X13550Y24662D01*
Y24557D01*
X13602Y24505D01*
X13760D01*
X13655D02*
X13550Y24400D01*
X13445Y24452D02*
X13393Y24400D01*
X13288D01*
X13235Y24452D01*
Y24662D01*
X13288Y24714D01*
X13393D01*
X13445Y24662D01*
Y24610D01*
X13393Y24557D01*
X13235D01*
X13130Y24662D02*
X13078Y24714D01*
X12973D01*
X12920Y24662D01*
Y24610D01*
X12973Y24557D01*
X13025D01*
X12973D01*
X12920Y24505D01*
Y24452D01*
X12973Y24400D01*
X13078D01*
X13130Y24452D01*
X6211Y24350D02*
Y24665D01*
X6053D01*
X6001Y24613D01*
Y24508D01*
X6053Y24455D01*
X6211D01*
X6106D02*
X6001Y24350D01*
X5896Y24403D02*
X5843Y24350D01*
X5738D01*
X5686Y24403D01*
Y24613D01*
X5738Y24665D01*
X5843D01*
X5896Y24613D01*
Y24560D01*
X5843Y24508D01*
X5686D01*
X5371Y24350D02*
X5581D01*
X5371Y24560D01*
Y24613D01*
X5423Y24665D01*
X5528D01*
X5581Y24613D01*
X-2126Y25010D02*
Y25325D01*
X-2283D01*
X-2336Y25272D01*
Y25167D01*
X-2283Y25115D01*
X-2126D01*
X-2231D02*
X-2336Y25010D01*
X-2441Y25062D02*
X-2493Y25010D01*
X-2598D01*
X-2651Y25062D01*
Y25272D01*
X-2598Y25325D01*
X-2493D01*
X-2441Y25272D01*
Y25220D01*
X-2493Y25167D01*
X-2651D01*
X-2756Y25010D02*
X-2861D01*
X-2808D01*
Y25325D01*
X-2756Y25272D01*
X1240Y20659D02*
Y20974D01*
X1083D01*
X1030Y20922D01*
Y20817D01*
X1083Y20764D01*
X1240D01*
X1135D02*
X1030Y20659D01*
X925Y20712D02*
X873Y20659D01*
X768D01*
X715Y20712D01*
Y20922D01*
X768Y20974D01*
X873D01*
X925Y20922D01*
Y20869D01*
X873Y20817D01*
X715D01*
X610Y20922D02*
X558Y20974D01*
X453D01*
X401Y20922D01*
Y20712D01*
X453Y20659D01*
X558D01*
X610Y20712D01*
Y20922D01*
X27067Y10699D02*
X26857Y10384D01*
Y10699D02*
X27067Y10384D01*
X26752D02*
Y10699D01*
X26595D01*
X26542Y10646D01*
Y10541D01*
X26595Y10489D01*
X26752D01*
X26437Y10646D02*
X26385Y10699D01*
X26280D01*
X26227Y10646D01*
Y10594D01*
X26280Y10541D01*
X26332D01*
X26280D01*
X26227Y10489D01*
Y10436D01*
X26280Y10384D01*
X26385D01*
X26437Y10436D01*
X24445Y15850D02*
X24498Y15797D01*
Y15692D01*
X24445Y15640D01*
X24236D01*
X24183Y15692D01*
Y15797D01*
X24236Y15850D01*
X24498Y16165D02*
Y15955D01*
X24341D01*
X24393Y16060D01*
Y16112D01*
X24341Y16165D01*
X24236D01*
X24183Y16112D01*
Y16007D01*
X24236Y15955D01*
X24183Y16479D02*
Y16269D01*
X24393Y16479D01*
X24445D01*
X24498Y16427D01*
Y16322D01*
X24445Y16269D01*
X11821Y709D02*
Y1024D01*
X11663D01*
X11611Y971D01*
Y866D01*
X11663Y814D01*
X11821D01*
X11716D02*
X11611Y709D01*
X11506Y971D02*
X11454Y1024D01*
X11349D01*
X11296Y971D01*
Y919D01*
X11349Y866D01*
X11401D01*
X11349D01*
X11296Y814D01*
Y761D01*
X11349Y709D01*
X11454D01*
X11506Y761D01*
X21572Y3314D02*
X21624Y3366D01*
X21729D01*
X21781Y3314D01*
Y3104D01*
X21729Y3051D01*
X21624D01*
X21572Y3104D01*
X21467D02*
X21414Y3051D01*
X21309D01*
X21257Y3104D01*
Y3314D01*
X21309Y3366D01*
X21414D01*
X21467Y3314D01*
Y3261D01*
X21414Y3209D01*
X21257D01*
X21152Y3314D02*
X21099Y3366D01*
X20994D01*
X20942Y3314D01*
Y3261D01*
X20994Y3209D01*
X21047D01*
X20994D01*
X20942Y3156D01*
Y3104D01*
X20994Y3051D01*
X21099D01*
X21152Y3104D01*
X7726Y9065D02*
Y8855D01*
X7621Y8750D01*
X7516Y8855D01*
Y9065D01*
X7412D02*
Y8750D01*
X7254D01*
X7202Y8802D01*
Y9012D01*
X7254Y9065D01*
X7412D01*
X6887D02*
X6992Y9012D01*
X7097Y8907D01*
Y8802D01*
X7044Y8750D01*
X6939D01*
X6887Y8802D01*
Y8855D01*
X6939Y8907D01*
X7097D01*
X43353Y21936D02*
X43406Y21988D01*
X43511D01*
X43563Y21936D01*
Y21726D01*
X43511Y21673D01*
X43406D01*
X43353Y21726D01*
X43248D02*
X43196Y21673D01*
X43091D01*
X43038Y21726D01*
Y21936D01*
X43091Y21988D01*
X43196D01*
X43248Y21936D01*
Y21883D01*
X43196Y21831D01*
X43038D01*
X42723Y21673D02*
X42933D01*
X42723Y21883D01*
Y21936D01*
X42776Y21988D01*
X42881D01*
X42933Y21936D01*
X40922Y21184D02*
X40974Y21132D01*
Y21027D01*
X40922Y20974D01*
X40712D01*
X40659Y21027D01*
Y21132D01*
X40712Y21184D01*
Y21289D02*
X40659Y21342D01*
Y21447D01*
X40712Y21499D01*
X40922D01*
X40974Y21447D01*
Y21342D01*
X40922Y21289D01*
X40869D01*
X40817Y21342D01*
Y21499D01*
X40659Y21604D02*
Y21709D01*
Y21657D01*
X40974D01*
X40922Y21604D01*
X21722Y3809D02*
X21512D01*
X21407Y3914D01*
X21512Y4019D01*
X21722D01*
Y4124D02*
X21407D01*
Y4281D01*
X21460Y4334D01*
X21670D01*
X21722Y4281D01*
Y4124D01*
X21407Y4649D02*
Y4439D01*
X21617Y4649D01*
X21670D01*
X21722Y4596D01*
Y4491D01*
X21670Y4439D01*
X21407Y4911D02*
X21722D01*
X21565Y4754D01*
Y4964D01*
X19035Y6378D02*
X19350D01*
Y6535D01*
X19298Y6588D01*
X19193D01*
X19140Y6535D01*
Y6378D01*
Y6483D02*
X19035Y6588D01*
X19298Y6693D02*
X19350Y6745D01*
Y6850D01*
X19298Y6903D01*
X19245D01*
X19193Y6850D01*
X19140Y6903D01*
X19088D01*
X19035Y6850D01*
Y6745D01*
X19088Y6693D01*
X19140D01*
X19193Y6745D01*
X19245Y6693D01*
X19298D01*
X19193Y6745D02*
Y6850D01*
X19350Y7008D02*
Y7218D01*
X19298D01*
X19088Y7008D01*
X19035D01*
X21768Y7198D02*
X21821Y7146D01*
Y7041D01*
X21768Y6988D01*
X21558D01*
X21506Y7041D01*
Y7146D01*
X21558Y7198D01*
X21768Y7303D02*
X21821Y7356D01*
Y7460D01*
X21768Y7513D01*
X21716D01*
X21663Y7460D01*
X21611Y7513D01*
X21558D01*
X21506Y7460D01*
Y7356D01*
X21558Y7303D01*
X21611D01*
X21663Y7356D01*
X21716Y7303D01*
X21768D01*
X21663Y7356D02*
Y7460D01*
X21821Y7618D02*
Y7828D01*
X21768D01*
X21558Y7618D01*
X21506D01*
X8205Y2831D02*
X8258Y2884D01*
X8363D01*
X8415Y2831D01*
Y2621D01*
X8363Y2569D01*
X8258D01*
X8205Y2621D01*
X8100Y2831D02*
X8048Y2884D01*
X7943D01*
X7891Y2831D01*
Y2779D01*
X7943Y2726D01*
X7891Y2674D01*
Y2621D01*
X7943Y2569D01*
X8048D01*
X8100Y2621D01*
Y2674D01*
X8048Y2726D01*
X8100Y2779D01*
Y2831D01*
X8048Y2726D02*
X7943D01*
X7576Y2884D02*
X7681Y2831D01*
X7786Y2726D01*
Y2621D01*
X7733Y2569D01*
X7628D01*
X7576Y2621D01*
Y2674D01*
X7628Y2726D01*
X7786D01*
X8691Y27215D02*
X8481D01*
X8376Y27320D01*
X8481Y27424D01*
X8691D01*
Y27529D02*
Y27739D01*
Y27634D01*
X8376D01*
Y27844D02*
Y27949D01*
Y27897D01*
X8691D01*
X8638Y27844D01*
Y28107D02*
X8691Y28159D01*
Y28264D01*
X8638Y28317D01*
X8586D01*
X8533Y28264D01*
X8481Y28317D01*
X8428D01*
X8376Y28264D01*
Y28159D01*
X8428Y28107D01*
X8481D01*
X8533Y28159D01*
X8586Y28107D01*
X8638D01*
X8533Y28159D02*
Y28264D01*
X5167Y28602D02*
X4957D01*
X4852Y28707D01*
X4957Y28812D01*
X5167D01*
Y28917D02*
Y29127D01*
Y29022D01*
X4852D01*
Y29232D02*
Y29337D01*
Y29285D01*
X5167D01*
X5115Y29232D01*
X5167Y29494D02*
Y29704D01*
X5115D01*
X4905Y29494D01*
X4852D01*
X16545Y24882D02*
X16335D01*
X16230Y24987D01*
X16335Y25092D01*
X16545D01*
Y25197D02*
Y25407D01*
Y25302D01*
X16230D01*
Y25512D02*
Y25617D01*
Y25564D01*
X16545D01*
X16493Y25512D01*
X16545Y25984D02*
X16493Y25879D01*
X16388Y25774D01*
X16283D01*
X16230Y25826D01*
Y25931D01*
X16283Y25984D01*
X16335D01*
X16388Y25931D01*
Y25774D01*
X13297Y28573D02*
X13087D01*
X12982Y28678D01*
X13087Y28783D01*
X13297D01*
Y28888D02*
Y29098D01*
Y28993D01*
X12982D01*
Y29203D02*
Y29308D01*
Y29255D01*
X13297D01*
X13245Y29203D01*
X13297Y29675D02*
Y29465D01*
X13140D01*
X13192Y29570D01*
Y29622D01*
X13140Y29675D01*
X13035D01*
X12982Y29622D01*
Y29517D01*
X13035Y29465D01*
X12785Y27175D02*
X12575D01*
X12470Y27280D01*
X12575Y27385D01*
X12785D01*
Y27490D02*
Y27700D01*
Y27595D01*
X12470D01*
Y27805D02*
Y27910D01*
Y27857D01*
X12785D01*
X12733Y27805D01*
X12470Y28225D02*
X12785D01*
X12628Y28067D01*
Y28277D01*
X4695Y27274D02*
X4485D01*
X4380Y27379D01*
X4485Y27484D01*
X4695D01*
Y27588D02*
Y27798D01*
Y27693D01*
X4380D01*
Y27903D02*
Y28008D01*
Y27956D01*
X4695D01*
X4642Y27903D01*
Y28166D02*
X4695Y28218D01*
Y28323D01*
X4642Y28376D01*
X4590D01*
X4537Y28323D01*
Y28271D01*
Y28323D01*
X4485Y28376D01*
X4432D01*
X4380Y28323D01*
Y28218D01*
X4432Y28166D01*
X9203Y28593D02*
X8993D01*
X8888Y28697D01*
X8993Y28802D01*
X9203D01*
Y28907D02*
Y29117D01*
Y29012D01*
X8888D01*
Y29222D02*
Y29327D01*
Y29275D01*
X9203D01*
X9150Y29222D01*
X8888Y29695D02*
Y29485D01*
X9098Y29695D01*
X9150D01*
X9203Y29642D01*
Y29537D01*
X9150Y29485D01*
X1191Y28661D02*
X981D01*
X876Y28766D01*
X981Y28871D01*
X1191D01*
Y28976D02*
Y29186D01*
Y29081D01*
X876D01*
Y29291D02*
Y29396D01*
Y29344D01*
X1191D01*
X1138Y29291D01*
X876Y29554D02*
Y29658D01*
Y29606D01*
X1191D01*
X1138Y29554D01*
X45876Y12421D02*
Y12211D01*
X45771Y12106D01*
X45666Y12211D01*
Y12421D01*
X45561D02*
X45351D01*
X45456D01*
Y12106D01*
X45246D02*
X45141D01*
X45194D01*
Y12421D01*
X45246Y12369D01*
X44984D02*
X44931Y12421D01*
X44826D01*
X44774Y12369D01*
Y12159D01*
X44826Y12106D01*
X44931D01*
X44984Y12159D01*
Y12369D01*
X48189Y10935D02*
X47979D01*
X47874Y11040D01*
X47979Y11145D01*
X48189D01*
Y11250D02*
Y11460D01*
Y11355D01*
X47874D01*
X47926Y11565D02*
X47874Y11617D01*
Y11722D01*
X47926Y11775D01*
X48136D01*
X48189Y11722D01*
Y11617D01*
X48136Y11565D01*
X48084D01*
X48031Y11617D01*
Y11775D01*
X4203Y16614D02*
Y16404D01*
X4098Y16299D01*
X3993Y16404D01*
Y16614D01*
X3888D02*
X3678D01*
X3783D01*
Y16299D01*
X3573Y16562D02*
X3521Y16614D01*
X3416D01*
X3363Y16562D01*
Y16509D01*
X3416Y16457D01*
X3363Y16404D01*
Y16352D01*
X3416Y16299D01*
X3521D01*
X3573Y16352D01*
Y16404D01*
X3521Y16457D01*
X3573Y16509D01*
Y16562D01*
X3521Y16457D02*
X3416D01*
X344Y19153D02*
Y18944D01*
X240Y18839D01*
X135Y18944D01*
Y19153D01*
X30D02*
X-180D01*
X-75D01*
Y18839D01*
X-285Y19153D02*
X-495D01*
Y19101D01*
X-285Y18891D01*
Y18839D01*
X11860Y2214D02*
Y2005D01*
X11755Y1900D01*
X11650Y2005D01*
Y2214D01*
X11545D02*
Y1900D01*
X11388D01*
X11335Y1952D01*
Y2162D01*
X11388Y2214D01*
X11545D01*
X11021Y1900D02*
X11231D01*
X11021Y2110D01*
Y2162D01*
X11073Y2214D01*
X11178D01*
X11231Y2162D01*
X10706Y1900D02*
X10916D01*
X10706Y2110D01*
Y2162D01*
X10758Y2214D01*
X10863D01*
X10916Y2162D01*
X2707Y15088D02*
Y14879D01*
X2602Y14774D01*
X2497Y14879D01*
Y15088D01*
X2392D02*
Y14774D01*
X2234D01*
X2182Y14826D01*
Y15036D01*
X2234Y15088D01*
X2392D01*
X1867Y14774D02*
X2077D01*
X1867Y14984D01*
Y15036D01*
X1920Y15088D01*
X2025D01*
X2077Y15036D01*
X1762D02*
X1710Y15088D01*
X1605D01*
X1552Y15036D01*
Y14826D01*
X1605Y14774D01*
X1710D01*
X1762Y14826D01*
Y15036D01*
X5827Y11161D02*
Y10951D01*
X5722Y10846D01*
X5617Y10951D01*
Y11161D01*
X5512D02*
Y10846D01*
X5354D01*
X5302Y10899D01*
Y11109D01*
X5354Y11161D01*
X5512D01*
X5197Y10846D02*
X5092D01*
X5145D01*
Y11161D01*
X5197Y11109D01*
X4777Y10846D02*
Y11161D01*
X4935Y11004D01*
X4725D01*
X13110Y22096D02*
Y21886D01*
X13005Y21781D01*
X12900Y21886D01*
Y22096D01*
X12795D02*
Y21781D01*
X12638D01*
X12585Y21834D01*
Y22044D01*
X12638Y22096D01*
X12795D01*
X12481Y21781D02*
X12376D01*
X12428D01*
Y22096D01*
X12481Y22044D01*
X12218D02*
X12166Y22096D01*
X12061D01*
X12008Y22044D01*
Y21991D01*
X12061Y21939D01*
X12113D01*
X12061D01*
X12008Y21886D01*
Y21834D01*
X12061Y21781D01*
X12166D01*
X12218Y21834D01*
X6191Y20984D02*
Y20774D01*
X6086Y20669D01*
X5981Y20774D01*
Y20984D01*
X5876D02*
Y20669D01*
X5719D01*
X5666Y20722D01*
Y20932D01*
X5719Y20984D01*
X5876D01*
X5561Y20669D02*
X5456D01*
X5509D01*
Y20984D01*
X5561Y20932D01*
X5089Y20669D02*
X5299D01*
X5089Y20879D01*
Y20932D01*
X5141Y20984D01*
X5246D01*
X5299Y20932D01*
X5748Y16693D02*
Y16483D01*
X5643Y16378D01*
X5538Y16483D01*
Y16693D01*
X5433D02*
Y16378D01*
X5276D01*
X5223Y16430D01*
Y16640D01*
X5276Y16693D01*
X5433D01*
X5118Y16378D02*
X5013D01*
X5066D01*
Y16693D01*
X5118Y16640D01*
X4856Y16378D02*
X4751D01*
X4803D01*
Y16693D01*
X4856Y16640D01*
X4301Y14508D02*
X4091D01*
X3986Y14613D01*
X4091Y14718D01*
X4301D01*
Y14823D02*
X3986D01*
Y14980D01*
X4039Y15033D01*
X4249D01*
X4301Y14980D01*
Y14823D01*
X3986Y15138D02*
Y15243D01*
Y15190D01*
X4301D01*
X4249Y15138D01*
Y15400D02*
X4301Y15452D01*
Y15557D01*
X4249Y15610D01*
X4039D01*
X3986Y15557D01*
Y15452D01*
X4039Y15400D01*
X4249D01*
X16024Y16880D02*
Y16670D01*
X15919Y16565D01*
X15814Y16670D01*
Y16880D01*
X15709D02*
Y16565D01*
X15551D01*
X15499Y16617D01*
Y16827D01*
X15551Y16880D01*
X15709D01*
X15394Y16617D02*
X15341Y16565D01*
X15236D01*
X15184Y16617D01*
Y16827D01*
X15236Y16880D01*
X15341D01*
X15394Y16827D01*
Y16775D01*
X15341Y16722D01*
X15184D01*
X15935Y12461D02*
X16145D01*
X16250Y12356D01*
X16145Y12251D01*
X15935D01*
Y12146D02*
X16250D01*
Y11988D01*
X16198Y11936D01*
X15988D01*
X15935Y11988D01*
Y12146D01*
X15988Y11831D02*
X15935Y11778D01*
Y11673D01*
X15988Y11621D01*
X16040D01*
X16093Y11673D01*
Y11726D01*
Y11673D01*
X16145Y11621D01*
X16198D01*
X16250Y11673D01*
Y11778D01*
X16198Y11831D01*
X9616Y5502D02*
Y5292D01*
X9511Y5187D01*
X9406Y5292D01*
Y5502D01*
X9301D02*
Y5187D01*
X9144D01*
X9091Y5239D01*
Y5449D01*
X9144Y5502D01*
X9301D01*
X8777Y5187D02*
X8986D01*
X8777Y5397D01*
Y5449D01*
X8829Y5502D01*
X8934D01*
X8986Y5449D01*
X17844Y7382D02*
X17634D01*
X17530Y7487D01*
X17634Y7592D01*
X17844D01*
Y7697D02*
X17530D01*
Y7854D01*
X17582Y7907D01*
X17792D01*
X17844Y7854D01*
Y7697D01*
X17530Y8012D02*
Y8117D01*
Y8064D01*
X17844D01*
X17792Y8012D01*
X8622Y3219D02*
Y3533D01*
X8465D01*
X8412Y3481D01*
Y3376D01*
X8465Y3323D01*
X8622D01*
X8517D02*
X8412Y3219D01*
X8307Y3481D02*
X8255Y3533D01*
X8150D01*
X8097Y3481D01*
Y3428D01*
X8150Y3376D01*
X8097Y3323D01*
Y3271D01*
X8150Y3219D01*
X8255D01*
X8307Y3271D01*
Y3323D01*
X8255Y3376D01*
X8307Y3428D01*
Y3481D01*
X8255Y3376D02*
X8150D01*
X7782Y3533D02*
X7992D01*
Y3376D01*
X7887Y3428D01*
X7835D01*
X7782Y3376D01*
Y3271D01*
X7835Y3219D01*
X7940D01*
X7992Y3271D01*
X11240Y3898D02*
X11555D01*
Y4055D01*
X11503Y4108D01*
X11398D01*
X11345Y4055D01*
Y3898D01*
Y4003D02*
X11240Y4108D01*
X11503Y4212D02*
X11555Y4265D01*
Y4370D01*
X11503Y4422D01*
X11450D01*
X11398Y4370D01*
X11345Y4422D01*
X11293D01*
X11240Y4370D01*
Y4265D01*
X11293Y4212D01*
X11345D01*
X11398Y4265D01*
X11450Y4212D01*
X11503D01*
X11398Y4265D02*
Y4370D01*
X11240Y4685D02*
X11555D01*
X11398Y4527D01*
Y4737D01*
X5118Y21260D02*
Y21575D01*
X4961D01*
X4908Y21522D01*
Y21417D01*
X4961Y21365D01*
X5118D01*
X5013D02*
X4908Y21260D01*
X4803Y21522D02*
X4751Y21575D01*
X4646D01*
X4593Y21522D01*
Y21470D01*
X4646Y21417D01*
X4593Y21365D01*
Y21312D01*
X4646Y21260D01*
X4751D01*
X4803Y21312D01*
Y21365D01*
X4751Y21417D01*
X4803Y21470D01*
Y21522D01*
X4751Y21417D02*
X4646D01*
X4488Y21522D02*
X4436Y21575D01*
X4331D01*
X4278Y21522D01*
Y21470D01*
X4331Y21417D01*
X4383D01*
X4331D01*
X4278Y21365D01*
Y21312D01*
X4331Y21260D01*
X4436D01*
X4488Y21312D01*
X7274Y25866D02*
Y26181D01*
X7116D01*
X7064Y26129D01*
Y26024D01*
X7116Y25971D01*
X7274D01*
X7169D02*
X7064Y25866D01*
X6959Y26129D02*
X6906Y26181D01*
X6801D01*
X6749Y26129D01*
Y26076D01*
X6801Y26024D01*
X6749Y25971D01*
Y25919D01*
X6801Y25866D01*
X6906D01*
X6959Y25919D01*
Y25971D01*
X6906Y26024D01*
X6959Y26076D01*
Y26129D01*
X6906Y26024D02*
X6801D01*
X6644Y25866D02*
X6539D01*
X6591D01*
Y26181D01*
X6644Y26129D01*
X16693Y26663D02*
Y26978D01*
X16535D01*
X16483Y26926D01*
Y26821D01*
X16535Y26768D01*
X16693D01*
X16588D02*
X16483Y26663D01*
X16378Y26978D02*
X16168D01*
Y26926D01*
X16378Y26716D01*
Y26663D01*
X16063Y26926D02*
X16011Y26978D01*
X15906D01*
X15853Y26926D01*
Y26873D01*
X15906Y26821D01*
X15853Y26768D01*
Y26716D01*
X15906Y26663D01*
X16011D01*
X16063Y26716D01*
Y26768D01*
X16011Y26821D01*
X16063Y26873D01*
Y26926D01*
X16011Y26821D02*
X15906D01*
X5069Y24360D02*
Y24675D01*
X4911D01*
X4859Y24623D01*
Y24518D01*
X4911Y24465D01*
X5069D01*
X4964D02*
X4859Y24360D01*
X4754Y24675D02*
X4544D01*
Y24623D01*
X4754Y24413D01*
Y24360D01*
X4229Y24675D02*
X4439D01*
Y24518D01*
X4334Y24570D01*
X4282D01*
X4229Y24518D01*
Y24413D01*
X4282Y24360D01*
X4387D01*
X4439Y24413D01*
X11447Y25886D02*
Y26201D01*
X11289D01*
X11237Y26148D01*
Y26043D01*
X11289Y25991D01*
X11447D01*
X11342D02*
X11237Y25886D01*
X11132Y26201D02*
X10922D01*
Y26148D01*
X11132Y25938D01*
Y25886D01*
X10607D02*
X10817D01*
X10607Y26096D01*
Y26148D01*
X10660Y26201D01*
X10765D01*
X10817Y26148D01*
X2785Y26004D02*
Y26319D01*
X2628D01*
X2576Y26266D01*
Y26161D01*
X2628Y26109D01*
X2785D01*
X2680D02*
X2576Y26004D01*
X2471Y26319D02*
X2261D01*
Y26266D01*
X2471Y26056D01*
Y26004D01*
X2156D02*
X2051D01*
X2103D01*
Y26319D01*
X2156Y26266D01*
X43435Y10778D02*
Y11092D01*
X43278D01*
X43225Y11040D01*
Y10935D01*
X43278Y10883D01*
X43435D01*
X43330D02*
X43225Y10778D01*
X42910Y11092D02*
X43015Y11040D01*
X43120Y10935D01*
Y10830D01*
X43068Y10778D01*
X42963D01*
X42910Y10830D01*
Y10883D01*
X42963Y10935D01*
X43120D01*
X42595Y11092D02*
X42700Y11040D01*
X42805Y10935D01*
Y10830D01*
X42753Y10778D01*
X42648D01*
X42595Y10830D01*
Y10883D01*
X42648Y10935D01*
X42805D01*
X48583Y12362D02*
Y12677D01*
X48425D01*
X48373Y12625D01*
Y12520D01*
X48425Y12467D01*
X48583D01*
X48478D02*
X48373Y12362D01*
X48058Y12677D02*
X48163Y12625D01*
X48268Y12520D01*
Y12415D01*
X48215Y12362D01*
X48110D01*
X48058Y12415D01*
Y12467D01*
X48110Y12520D01*
X48268D01*
X47743Y12677D02*
X47953D01*
Y12520D01*
X47848Y12572D01*
X47796D01*
X47743Y12520D01*
Y12415D01*
X47796Y12362D01*
X47900D01*
X47953Y12415D01*
X24498Y31880D02*
Y32195D01*
X24341D01*
X24288Y32142D01*
Y32037D01*
X24341Y31985D01*
X24498D01*
X24393D02*
X24288Y31880D01*
X23973Y32195D02*
X24078Y32142D01*
X24183Y32037D01*
Y31932D01*
X24131Y31880D01*
X24026D01*
X23973Y31932D01*
Y31985D01*
X24026Y32037D01*
X24183D01*
X23711Y31880D02*
Y32195D01*
X23868Y32037D01*
X23658D01*
X36811Y32598D02*
Y32913D01*
X36654D01*
X36601Y32861D01*
Y32756D01*
X36654Y32703D01*
X36811D01*
X36706D02*
X36601Y32598D01*
X36286Y32913D02*
X36391Y32861D01*
X36496Y32756D01*
Y32651D01*
X36444Y32598D01*
X36339D01*
X36286Y32651D01*
Y32703D01*
X36339Y32756D01*
X36496D01*
X36181Y32861D02*
X36129Y32913D01*
X36024D01*
X35971Y32861D01*
Y32808D01*
X36024Y32756D01*
X36076D01*
X36024D01*
X35971Y32703D01*
Y32651D01*
X36024Y32598D01*
X36129D01*
X36181Y32651D01*
X22215Y31949D02*
Y32264D01*
X22057D01*
X22005Y32211D01*
Y32106D01*
X22057Y32054D01*
X22215D01*
X22110D02*
X22005Y31949D01*
X21690Y32264D02*
X21795Y32211D01*
X21900Y32106D01*
Y32001D01*
X21847Y31949D01*
X21742D01*
X21690Y32001D01*
Y32054D01*
X21742Y32106D01*
X21900D01*
X21375Y31949D02*
X21585D01*
X21375Y32159D01*
Y32211D01*
X21427Y32264D01*
X21532D01*
X21585Y32211D01*
X33169Y32156D02*
Y32470D01*
X33012D01*
X32959Y32418D01*
Y32313D01*
X33012Y32260D01*
X33169D01*
X33064D02*
X32959Y32156D01*
X32645Y32470D02*
X32749Y32418D01*
X32854Y32313D01*
Y32208D01*
X32802Y32156D01*
X32697D01*
X32645Y32208D01*
Y32260D01*
X32697Y32313D01*
X32854D01*
X32540Y32156D02*
X32435D01*
X32487D01*
Y32470D01*
X32540Y32418D01*
X30650Y32569D02*
Y32884D01*
X30492D01*
X30440Y32831D01*
Y32726D01*
X30492Y32674D01*
X30650D01*
X30545D02*
X30440Y32569D01*
X30125Y32884D02*
X30230Y32831D01*
X30335Y32726D01*
Y32621D01*
X30282Y32569D01*
X30177D01*
X30125Y32621D01*
Y32674D01*
X30177Y32726D01*
X30335D01*
X30020Y32831D02*
X29967Y32884D01*
X29862D01*
X29810Y32831D01*
Y32621D01*
X29862Y32569D01*
X29967D01*
X30020Y32621D01*
Y32831D01*
X45886Y32215D02*
Y32529D01*
X45728D01*
X45676Y32477D01*
Y32372D01*
X45728Y32320D01*
X45886D01*
X45781D02*
X45676Y32215D01*
X45361Y32529D02*
X45571D01*
Y32372D01*
X45466Y32424D01*
X45414D01*
X45361Y32372D01*
Y32267D01*
X45414Y32215D01*
X45518D01*
X45571Y32267D01*
X45256D02*
X45204Y32215D01*
X45099D01*
X45046Y32267D01*
Y32477D01*
X45099Y32529D01*
X45204D01*
X45256Y32477D01*
Y32424D01*
X45204Y32372D01*
X45046D01*
X27756Y31949D02*
Y32264D01*
X27598D01*
X27546Y32211D01*
Y32106D01*
X27598Y32054D01*
X27756D01*
X27651D02*
X27546Y31949D01*
X27231Y32264D02*
X27441D01*
Y32106D01*
X27336Y32159D01*
X27284D01*
X27231Y32106D01*
Y32001D01*
X27284Y31949D01*
X27389D01*
X27441Y32001D01*
X27126Y32211D02*
X27074Y32264D01*
X26969D01*
X26916Y32211D01*
Y32159D01*
X26969Y32106D01*
X26916Y32054D01*
Y32001D01*
X26969Y31949D01*
X27074D01*
X27126Y32001D01*
Y32054D01*
X27074Y32106D01*
X27126Y32159D01*
Y32211D01*
X27074Y32106D02*
X26969D01*
X38258Y31447D02*
Y31762D01*
X38100D01*
X38048Y31709D01*
Y31604D01*
X38100Y31552D01*
X38258D01*
X38153D02*
X38048Y31447D01*
X37733Y31762D02*
X37943D01*
Y31604D01*
X37838Y31657D01*
X37786D01*
X37733Y31604D01*
Y31499D01*
X37786Y31447D01*
X37891D01*
X37943Y31499D01*
X37628Y31762D02*
X37418D01*
Y31709D01*
X37628Y31499D01*
Y31447D01*
X43327Y22402D02*
Y22716D01*
X43169D01*
X43117Y22664D01*
Y22559D01*
X43169Y22507D01*
X43327D01*
X43222D02*
X43117Y22402D01*
X42802Y22716D02*
X43012D01*
Y22559D01*
X42907Y22611D01*
X42854D01*
X42802Y22559D01*
Y22454D01*
X42854Y22402D01*
X42959D01*
X43012Y22454D01*
X42487Y22716D02*
X42592Y22664D01*
X42697Y22559D01*
Y22454D01*
X42645Y22402D01*
X42540D01*
X42487Y22454D01*
Y22507D01*
X42540Y22559D01*
X42697D01*
X8622Y22057D02*
X8307D01*
Y21900D01*
X8360Y21847D01*
X8465D01*
X8517Y21900D01*
Y22057D01*
Y21952D02*
X8622Y21847D01*
X8307Y21532D02*
Y21742D01*
X8465D01*
X8412Y21637D01*
Y21585D01*
X8465Y21532D01*
X8570D01*
X8622Y21585D01*
Y21690D01*
X8570Y21742D01*
X8307Y21217D02*
Y21427D01*
X8465D01*
X8412Y21322D01*
Y21270D01*
X8465Y21217D01*
X8570D01*
X8622Y21270D01*
Y21375D01*
X8570Y21427D01*
X-2283Y23238D02*
Y23553D01*
X-2441D01*
X-2493Y23501D01*
Y23396D01*
X-2441Y23343D01*
X-2283D01*
X-2388D02*
X-2493Y23238D01*
X-2756D02*
Y23553D01*
X-2598Y23396D01*
X-2808D01*
X-2913Y23291D02*
X-2966Y23238D01*
X-3071D01*
X-3123Y23291D01*
Y23501D01*
X-3071Y23553D01*
X-2966D01*
X-2913Y23501D01*
Y23448D01*
X-2966Y23396D01*
X-3123D01*
X-2175Y24409D02*
Y24724D01*
X-2333D01*
X-2385Y24672D01*
Y24567D01*
X-2333Y24514D01*
X-2175D01*
X-2280D02*
X-2385Y24409D01*
X-2647D02*
Y24724D01*
X-2490Y24567D01*
X-2700D01*
X-2805Y24724D02*
X-3015D01*
Y24672D01*
X-2805Y24462D01*
Y24409D01*
X-2037Y21348D02*
Y21663D01*
X-2195D01*
X-2247Y21611D01*
Y21506D01*
X-2195Y21453D01*
X-2037D01*
X-2142D02*
X-2247Y21348D01*
X-2510D02*
Y21663D01*
X-2352Y21506D01*
X-2562D01*
X-2877Y21663D02*
X-2772Y21611D01*
X-2667Y21506D01*
Y21401D01*
X-2720Y21348D01*
X-2825D01*
X-2877Y21401D01*
Y21453D01*
X-2825Y21506D01*
X-2667D01*
X5128Y21978D02*
Y22293D01*
X4971D01*
X4918Y22241D01*
Y22136D01*
X4971Y22083D01*
X5128D01*
X5023D02*
X4918Y21978D01*
X4656D02*
Y22293D01*
X4813Y22136D01*
X4603D01*
X4498Y22241D02*
X4446Y22293D01*
X4341D01*
X4288Y22241D01*
Y22188D01*
X4341Y22136D01*
X4393D01*
X4341D01*
X4288Y22083D01*
Y22031D01*
X4341Y21978D01*
X4446D01*
X4498Y22031D01*
X5069Y23652D02*
Y23966D01*
X4911D01*
X4859Y23914D01*
Y23809D01*
X4911Y23757D01*
X5069D01*
X4964D02*
X4859Y23652D01*
X4597D02*
Y23966D01*
X4754Y23809D01*
X4544D01*
X4229Y23652D02*
X4439D01*
X4229Y23861D01*
Y23914D01*
X4282Y23966D01*
X4387D01*
X4439Y23914D01*
X2874Y20856D02*
Y21171D01*
X2717D01*
X2664Y21119D01*
Y21014D01*
X2717Y20961D01*
X2874D01*
X2769D02*
X2664Y20856D01*
X2402D02*
Y21171D01*
X2559Y21014D01*
X2349D01*
X2244Y20856D02*
X2139D01*
X2192D01*
Y21171D01*
X2244Y21119D01*
X3346Y24931D02*
Y25246D01*
X3189D01*
X3137Y25193D01*
Y25089D01*
X3189Y25036D01*
X3346D01*
X3241D02*
X3137Y24931D01*
X2874D02*
Y25246D01*
X3032Y25089D01*
X2822D01*
X2717Y25193D02*
X2664Y25246D01*
X2559D01*
X2507Y25193D01*
Y24984D01*
X2559Y24931D01*
X2664D01*
X2717Y24984D01*
Y25193D01*
X11073Y22746D02*
Y23061D01*
X10915D01*
X10863Y23008D01*
Y22903D01*
X10915Y22851D01*
X11073D01*
X10968D02*
X10863Y22746D01*
X10758Y23008D02*
X10705Y23061D01*
X10601D01*
X10548Y23008D01*
Y22956D01*
X10601Y22903D01*
X10653D01*
X10601D01*
X10548Y22851D01*
Y22799D01*
X10601Y22746D01*
X10705D01*
X10758Y22799D01*
X10443D02*
X10391Y22746D01*
X10286D01*
X10233Y22799D01*
Y23008D01*
X10286Y23061D01*
X10391D01*
X10443Y23008D01*
Y22956D01*
X10391Y22903D01*
X10233D01*
X6959Y13061D02*
Y13376D01*
X6801D01*
X6749Y13323D01*
Y13218D01*
X6801Y13166D01*
X6959D01*
X6854D02*
X6749Y13061D01*
X6644Y13323D02*
X6591Y13376D01*
X6486D01*
X6434Y13323D01*
Y13271D01*
X6486Y13218D01*
X6539D01*
X6486D01*
X6434Y13166D01*
Y13113D01*
X6486Y13061D01*
X6591D01*
X6644Y13113D01*
X6329Y13323D02*
X6276Y13376D01*
X6172D01*
X6119Y13323D01*
Y13271D01*
X6172Y13218D01*
X6119Y13166D01*
Y13113D01*
X6172Y13061D01*
X6276D01*
X6329Y13113D01*
Y13166D01*
X6276Y13218D01*
X6329Y13271D01*
Y13323D01*
X6276Y13218D02*
X6172D01*
X8602Y20404D02*
X8288D01*
Y20246D01*
X8340Y20194D01*
X8445D01*
X8497Y20246D01*
Y20404D01*
Y20299D02*
X8602Y20194D01*
X8340Y20089D02*
X8288Y20036D01*
Y19931D01*
X8340Y19879D01*
X8392D01*
X8445Y19931D01*
Y19984D01*
Y19931D01*
X8497Y19879D01*
X8550D01*
X8602Y19931D01*
Y20036D01*
X8550Y20089D01*
X8288Y19774D02*
Y19564D01*
X8340D01*
X8550Y19774D01*
X8602D01*
X4409Y19232D02*
Y19547D01*
X4252D01*
X4200Y19495D01*
Y19390D01*
X4252Y19337D01*
X4409D01*
X4304D02*
X4200Y19232D01*
X4095Y19495D02*
X4042Y19547D01*
X3937D01*
X3885Y19495D01*
Y19442D01*
X3937Y19390D01*
X3990D01*
X3937D01*
X3885Y19337D01*
Y19285D01*
X3937Y19232D01*
X4042D01*
X4095Y19285D01*
X3570Y19547D02*
X3675Y19495D01*
X3780Y19390D01*
Y19285D01*
X3727Y19232D01*
X3622D01*
X3570Y19285D01*
Y19337D01*
X3622Y19390D01*
X3780D01*
X6850Y18337D02*
X7165D01*
Y18494D01*
X7113Y18547D01*
X7008D01*
X6955Y18494D01*
Y18337D01*
Y18442D02*
X6850Y18547D01*
X7113Y18651D02*
X7165Y18704D01*
Y18809D01*
X7113Y18861D01*
X7060D01*
X7008Y18809D01*
Y18756D01*
Y18809D01*
X6955Y18861D01*
X6903D01*
X6850Y18809D01*
Y18704D01*
X6903Y18651D01*
X7165Y19176D02*
Y18966D01*
X7008D01*
X7060Y19071D01*
Y19124D01*
X7008Y19176D01*
X6903D01*
X6850Y19124D01*
Y19019D01*
X6903Y18966D01*
X6850Y17165D02*
X7165D01*
Y17323D01*
X7113Y17375D01*
X7008D01*
X6955Y17323D01*
Y17165D01*
Y17270D02*
X6850Y17375D01*
X7113Y17480D02*
X7165Y17533D01*
Y17638D01*
X7113Y17690D01*
X7060D01*
X7008Y17638D01*
Y17585D01*
Y17638D01*
X6955Y17690D01*
X6903D01*
X6850Y17638D01*
Y17533D01*
X6903Y17480D01*
X6850Y17953D02*
X7165D01*
X7008Y17795D01*
Y18005D01*
X14468Y16850D02*
X14783D01*
Y17008D01*
X14731Y17060D01*
X14626D01*
X14573Y17008D01*
Y16850D01*
Y16955D02*
X14468Y17060D01*
X14731Y17165D02*
X14783Y17218D01*
Y17323D01*
X14731Y17375D01*
X14678D01*
X14626Y17323D01*
Y17270D01*
Y17323D01*
X14573Y17375D01*
X14521D01*
X14468Y17323D01*
Y17218D01*
X14521Y17165D01*
X14731Y17480D02*
X14783Y17533D01*
Y17638D01*
X14731Y17690D01*
X14678D01*
X14626Y17638D01*
Y17585D01*
Y17638D01*
X14573Y17690D01*
X14521D01*
X14468Y17638D01*
Y17533D01*
X14521Y17480D01*
X13927Y15699D02*
X14242D01*
Y15856D01*
X14190Y15909D01*
X14085D01*
X14032Y15856D01*
Y15699D01*
Y15804D02*
X13927Y15909D01*
X14190Y16014D02*
X14242Y16066D01*
Y16171D01*
X14190Y16224D01*
X14137D01*
X14085Y16171D01*
Y16119D01*
Y16171D01*
X14032Y16224D01*
X13980D01*
X13927Y16171D01*
Y16066D01*
X13980Y16014D01*
X13927Y16538D02*
Y16329D01*
X14137Y16538D01*
X14190D01*
X14242Y16486D01*
Y16381D01*
X14190Y16329D01*
X12746Y16860D02*
X13061D01*
Y17018D01*
X13008Y17070D01*
X12903D01*
X12851Y17018D01*
Y16860D01*
Y16965D02*
X12746Y17070D01*
X13008Y17175D02*
X13061Y17228D01*
Y17333D01*
X13008Y17385D01*
X12956D01*
X12903Y17333D01*
Y17280D01*
Y17333D01*
X12851Y17385D01*
X12799D01*
X12746Y17333D01*
Y17228D01*
X12799Y17175D01*
X12746Y17490D02*
Y17595D01*
Y17542D01*
X13061D01*
X13008Y17490D01*
X10876Y15915D02*
X11191D01*
Y16073D01*
X11138Y16125D01*
X11033D01*
X10981Y16073D01*
Y15915D01*
Y16020D02*
X10876Y16125D01*
X11138Y16230D02*
X11191Y16283D01*
Y16388D01*
X11138Y16440D01*
X11086D01*
X11033Y16388D01*
Y16335D01*
Y16388D01*
X10981Y16440D01*
X10928D01*
X10876Y16388D01*
Y16283D01*
X10928Y16230D01*
X11138Y16545D02*
X11191Y16598D01*
Y16703D01*
X11138Y16755D01*
X10928D01*
X10876Y16703D01*
Y16598D01*
X10928Y16545D01*
X11138D01*
X10876Y14803D02*
X11191D01*
Y14961D01*
X11138Y15013D01*
X11033D01*
X10981Y14961D01*
Y14803D01*
Y14908D02*
X10876Y15013D01*
Y15328D02*
Y15118D01*
X11086Y15328D01*
X11138D01*
X11191Y15275D01*
Y15170D01*
X11138Y15118D01*
Y15433D02*
X11191Y15485D01*
Y15590D01*
X11138Y15643D01*
X11086D01*
X11033Y15590D01*
X10981Y15643D01*
X10928D01*
X10876Y15590D01*
Y15485D01*
X10928Y15433D01*
X10981D01*
X11033Y15485D01*
X11086Y15433D01*
X11138D01*
X11033Y15485D02*
Y15590D01*
X13937Y16900D02*
X14252D01*
Y17057D01*
X14199Y17110D01*
X14094D01*
X14042Y17057D01*
Y16900D01*
Y17005D02*
X13937Y17110D01*
Y17424D02*
Y17214D01*
X14147Y17424D01*
X14199D01*
X14252Y17372D01*
Y17267D01*
X14199Y17214D01*
X14252Y17529D02*
Y17739D01*
X14199D01*
X13989Y17529D01*
X13937D01*
X630Y11624D02*
X945D01*
Y11781D01*
X892Y11834D01*
X787D01*
X735Y11781D01*
Y11624D01*
Y11729D02*
X630Y11834D01*
Y12149D02*
Y11939D01*
X840Y12149D01*
X892D01*
X945Y12096D01*
Y11991D01*
X892Y11939D01*
X945Y12464D02*
X892Y12359D01*
X787Y12254D01*
X682D01*
X630Y12306D01*
Y12411D01*
X682Y12464D01*
X735D01*
X787Y12411D01*
Y12254D01*
X3809Y13593D02*
Y13907D01*
X3652D01*
X3599Y13855D01*
Y13750D01*
X3652Y13697D01*
X3809D01*
X3704D02*
X3599Y13593D01*
X3284D02*
X3494D01*
X3284Y13802D01*
Y13855D01*
X3337Y13907D01*
X3442D01*
X3494Y13855D01*
X2969Y13907D02*
X3179D01*
Y13750D01*
X3074Y13802D01*
X3022D01*
X2969Y13750D01*
Y13645D01*
X3022Y13593D01*
X3127D01*
X3179Y13645D01*
X12372Y9429D02*
X12687D01*
Y9587D01*
X12634Y9639D01*
X12529D01*
X12477Y9587D01*
Y9429D01*
Y9534D02*
X12372Y9639D01*
Y9954D02*
Y9744D01*
X12582Y9954D01*
X12634D01*
X12687Y9901D01*
Y9796D01*
X12634Y9744D01*
Y10059D02*
X12687Y10111D01*
Y10216D01*
X12634Y10269D01*
X12582D01*
X12529Y10216D01*
Y10164D01*
Y10216D01*
X12477Y10269D01*
X12425D01*
X12372Y10216D01*
Y10111D01*
X12425Y10059D01*
X12116Y8691D02*
Y9006D01*
X11959D01*
X11906Y8953D01*
Y8848D01*
X11959Y8796D01*
X12116D01*
X12011D02*
X11906Y8691D01*
X11591D02*
X11801D01*
X11591Y8901D01*
Y8953D01*
X11644Y9006D01*
X11749D01*
X11801Y8953D01*
X11277Y8691D02*
X11486D01*
X11277Y8901D01*
Y8953D01*
X11329Y9006D01*
X11434D01*
X11486Y8953D01*
X13681Y11811D02*
Y12126D01*
X13524D01*
X13471Y12073D01*
Y11968D01*
X13524Y11916D01*
X13681D01*
X13576D02*
X13471Y11811D01*
X13156D02*
X13366D01*
X13156Y12021D01*
Y12073D01*
X13209Y12126D01*
X13314D01*
X13366Y12073D01*
X13051Y11811D02*
X12946D01*
X12999D01*
Y12126D01*
X13051Y12073D01*
X12106Y10561D02*
Y10876D01*
X11949D01*
X11896Y10823D01*
Y10718D01*
X11949Y10666D01*
X12106D01*
X12001D02*
X11896Y10561D01*
X11582D02*
X11791D01*
X11582Y10771D01*
Y10823D01*
X11634Y10876D01*
X11739D01*
X11791Y10823D01*
X11477D02*
X11424Y10876D01*
X11319D01*
X11267Y10823D01*
Y10613D01*
X11319Y10561D01*
X11424D01*
X11477Y10613D01*
Y10823D01*
X17776Y8583D02*
Y8898D01*
X17618D01*
X17566Y8845D01*
Y8740D01*
X17618Y8688D01*
X17776D01*
X17671D02*
X17566Y8583D01*
X17251Y8898D02*
X17461D01*
Y8740D01*
X17356Y8793D01*
X17303D01*
X17251Y8740D01*
Y8635D01*
X17303Y8583D01*
X17408D01*
X17461Y8635D01*
X15876Y6112D02*
Y6427D01*
X15719D01*
X15666Y6375D01*
Y6270D01*
X15719Y6217D01*
X15876D01*
X15771D02*
X15666Y6112D01*
X15404D02*
Y6427D01*
X15561Y6270D01*
X15351D01*
X46610Y10533D02*
Y10848D01*
X46505Y10743D01*
X46400Y10848D01*
Y10533D01*
X46085D02*
X46295D01*
X46085Y10743D01*
Y10795D01*
X46138Y10848D01*
X46243D01*
X46295Y10795D01*
X41772Y2618D02*
Y2303D01*
X41562D01*
X41247Y2618D02*
X41457D01*
Y2461D01*
X41352Y2513D01*
X41299D01*
X41247Y2461D01*
Y2356D01*
X41299Y2303D01*
X41404D01*
X41457Y2356D01*
X6345Y4882D02*
X6555D01*
Y4724D01*
X6450D01*
X6555D01*
Y4567D01*
X6240Y4882D02*
Y4619D01*
X6188Y4567D01*
X6083D01*
X6030Y4619D01*
Y4882D01*
X5715Y4567D02*
X5925D01*
X5715Y4777D01*
Y4829D01*
X5768Y4882D01*
X5873D01*
X5925Y4829D01*
X7864Y4285D02*
Y4075D01*
X7707D01*
Y4180D01*
Y4075D01*
X7549D01*
X7864Y4390D02*
X7602D01*
X7549Y4442D01*
Y4547D01*
X7602Y4600D01*
X7864D01*
X7549Y4705D02*
Y4809D01*
Y4757D01*
X7864D01*
X7812Y4705D01*
X876Y25344D02*
Y25030D01*
X719D01*
X666Y25082D01*
Y25292D01*
X719Y25344D01*
X876D01*
X561Y25030D02*
Y25239D01*
X456Y25344D01*
X351Y25239D01*
Y25030D01*
Y25187D01*
X561D01*
X36Y25344D02*
X246D01*
Y25187D01*
X141Y25239D01*
X89D01*
X36Y25187D01*
Y25082D01*
X89Y25030D01*
X194D01*
X246Y25082D01*
X14941Y14006D02*
Y13691D01*
X14784D01*
X14731Y13743D01*
Y13953D01*
X14784Y14006D01*
X14941D01*
X14626Y13691D02*
Y13901D01*
X14521Y14006D01*
X14416Y13901D01*
Y13691D01*
Y13848D01*
X14626D01*
X14154Y13691D02*
Y14006D01*
X14311Y13848D01*
X14101D01*
X15817Y8858D02*
Y8543D01*
X15660D01*
X15607Y8596D01*
Y8806D01*
X15660Y8858D01*
X15817D01*
X15502Y8543D02*
Y8753D01*
X15397Y8858D01*
X15292Y8753D01*
Y8543D01*
Y8701D01*
X15502D01*
X15187Y8806D02*
X15135Y8858D01*
X15030D01*
X14977Y8806D01*
Y8753D01*
X15030Y8701D01*
X15082D01*
X15030D01*
X14977Y8648D01*
Y8596D01*
X15030Y8543D01*
X15135D01*
X15187Y8596D01*
X21742Y1043D02*
Y728D01*
X21585D01*
X21532Y781D01*
Y991D01*
X21585Y1043D01*
X21742D01*
X21427Y728D02*
Y938D01*
X21322Y1043D01*
X21217Y938D01*
Y728D01*
Y886D01*
X21427D01*
X21112Y728D02*
X21007D01*
X21060D01*
Y1043D01*
X21112Y991D01*
X40646Y3921D02*
X40699Y3868D01*
Y3763D01*
X40646Y3711D01*
X40436D01*
X40384Y3763D01*
Y3868D01*
X40436Y3921D01*
X40646Y4025D02*
X40699Y4078D01*
Y4183D01*
X40646Y4235D01*
X40594D01*
X40541Y4183D01*
X40489Y4235D01*
X40436D01*
X40384Y4183D01*
Y4078D01*
X40436Y4025D01*
X40489D01*
X40541Y4078D01*
X40594Y4025D01*
X40646D01*
X40541Y4078D02*
Y4183D01*
X40646Y4340D02*
X40699Y4393D01*
Y4498D01*
X40646Y4550D01*
X40436D01*
X40384Y4498D01*
Y4393D01*
X40436Y4340D01*
X40646D01*
X42526Y3930D02*
X42579Y3878D01*
Y3773D01*
X42526Y3720D01*
X42316D01*
X42264Y3773D01*
Y3878D01*
X42316Y3930D01*
X42579Y4035D02*
Y4245D01*
X42526D01*
X42316Y4035D01*
X42264D01*
X42316Y4350D02*
X42264Y4403D01*
Y4508D01*
X42316Y4560D01*
X42526D01*
X42579Y4508D01*
Y4403D01*
X42526Y4350D01*
X42474D01*
X42421Y4403D01*
Y4560D01*
X39760Y5387D02*
X39813Y5335D01*
Y5230D01*
X39760Y5177D01*
X39551D01*
X39498Y5230D01*
Y5335D01*
X39551Y5387D01*
X39813Y5492D02*
Y5702D01*
X39760D01*
X39551Y5492D01*
X39498D01*
X39760Y5807D02*
X39813Y5859D01*
Y5964D01*
X39760Y6017D01*
X39708D01*
X39655Y5964D01*
X39603Y6017D01*
X39551D01*
X39498Y5964D01*
Y5859D01*
X39551Y5807D01*
X39603D01*
X39655Y5859D01*
X39708Y5807D01*
X39760D01*
X39655Y5859D02*
Y5964D01*
X23028Y26548D02*
X23081Y26496D01*
Y26391D01*
X23028Y26339D01*
X22818D01*
X22766Y26391D01*
Y26496D01*
X22818Y26548D01*
X23081Y26653D02*
Y26863D01*
X23028D01*
X22818Y26653D01*
X22766D01*
X23081Y26968D02*
Y27178D01*
X23028D01*
X22818Y26968D01*
X22766D01*
X32930Y26558D02*
X32982Y26506D01*
Y26401D01*
X32930Y26348D01*
X32720D01*
X32667Y26401D01*
Y26506D01*
X32720Y26558D01*
X32982Y26663D02*
Y26873D01*
X32930D01*
X32720Y26663D01*
X32667D01*
X32982Y27188D02*
X32930Y27083D01*
X32825Y26978D01*
X32720D01*
X32667Y27031D01*
Y27136D01*
X32720Y27188D01*
X32772D01*
X32825Y27136D01*
Y26978D01*
X21463Y30781D02*
X21516Y30728D01*
Y30623D01*
X21463Y30571D01*
X21253D01*
X21201Y30623D01*
Y30728D01*
X21253Y30781D01*
X21516Y30886D02*
Y31096D01*
X21463D01*
X21253Y30886D01*
X21201D01*
X21516Y31410D02*
Y31201D01*
X21358D01*
X21411Y31306D01*
Y31358D01*
X21358Y31410D01*
X21253D01*
X21201Y31358D01*
Y31253D01*
X21253Y31201D01*
X31404Y30840D02*
X31457Y30787D01*
Y30682D01*
X31404Y30630D01*
X31194D01*
X31142Y30682D01*
Y30787D01*
X31194Y30840D01*
X31457Y30945D02*
Y31155D01*
X31404D01*
X31194Y30945D01*
X31142D01*
Y31417D02*
X31457D01*
X31299Y31260D01*
Y31470D01*
X28255Y26578D02*
X28307Y26526D01*
Y26421D01*
X28255Y26368D01*
X28045D01*
X27992Y26421D01*
Y26526D01*
X28045Y26578D01*
X28307Y26683D02*
Y26893D01*
X28255D01*
X28045Y26683D01*
X27992D01*
X28255Y26998D02*
X28307Y27050D01*
Y27155D01*
X28255Y27208D01*
X28202D01*
X28150Y27155D01*
Y27103D01*
Y27155D01*
X28097Y27208D01*
X28045D01*
X27992Y27155D01*
Y27050D01*
X28045Y26998D01*
X37270Y26706D02*
X37323Y26653D01*
Y26549D01*
X37270Y26496D01*
X37060D01*
X37008Y26549D01*
Y26653D01*
X37060Y26706D01*
X37323Y26811D02*
Y27021D01*
X37270D01*
X37060Y26811D01*
X37008D01*
Y27336D02*
Y27126D01*
X37218Y27336D01*
X37270D01*
X37323Y27283D01*
Y27178D01*
X37270Y27126D01*
X26630Y30889D02*
X26683Y30837D01*
Y30732D01*
X26630Y30679D01*
X26421D01*
X26368Y30732D01*
Y30837D01*
X26421Y30889D01*
X26683Y30994D02*
Y31204D01*
X26630D01*
X26421Y30994D01*
X26368D01*
Y31309D02*
Y31414D01*
Y31361D01*
X26683D01*
X26630Y31309D01*
X37319Y30840D02*
X37372Y30787D01*
Y30682D01*
X37319Y30630D01*
X37110D01*
X37057Y30682D01*
Y30787D01*
X37110Y30840D01*
X37372Y30945D02*
Y31155D01*
X37319D01*
X37110Y30945D01*
X37057D01*
X37319Y31260D02*
X37372Y31312D01*
Y31417D01*
X37319Y31470D01*
X37110D01*
X37057Y31417D01*
Y31312D01*
X37110Y31260D01*
X37319D01*
X38717Y26099D02*
X38770Y26151D01*
X38875D01*
X38927Y26099D01*
Y25889D01*
X38875Y25837D01*
X38770D01*
X38717Y25889D01*
X38402Y26151D02*
X38507Y26099D01*
X38612Y25994D01*
Y25889D01*
X38560Y25837D01*
X38455D01*
X38402Y25889D01*
Y25942D01*
X38455Y25994D01*
X38612D01*
X38297Y25889D02*
X38245Y25837D01*
X38140D01*
X38088Y25889D01*
Y26099D01*
X38140Y26151D01*
X38245D01*
X38297Y26099D01*
Y26047D01*
X38245Y25994D01*
X38088D01*
X39455Y24806D02*
X39508Y24754D01*
Y24649D01*
X39455Y24596D01*
X39245D01*
X39193Y24649D01*
Y24754D01*
X39245Y24806D01*
X39508Y25121D02*
X39455Y25016D01*
X39350Y24911D01*
X39245D01*
X39193Y24964D01*
Y25069D01*
X39245Y25121D01*
X39298D01*
X39350Y25069D01*
Y24911D01*
X39455Y25226D02*
X39508Y25279D01*
Y25384D01*
X39455Y25436D01*
X39403D01*
X39350Y25384D01*
X39298Y25436D01*
X39245D01*
X39193Y25384D01*
Y25279D01*
X39245Y25226D01*
X39298D01*
X39350Y25279D01*
X39403Y25226D01*
X39455D01*
X39350Y25279D02*
Y25384D01*
X40046Y25259D02*
X40098Y25207D01*
Y25102D01*
X40046Y25049D01*
X39836D01*
X39783Y25102D01*
Y25207D01*
X39836Y25259D01*
X40098Y25574D02*
X40046Y25469D01*
X39941Y25364D01*
X39836D01*
X39783Y25417D01*
Y25522D01*
X39836Y25574D01*
X39888D01*
X39941Y25522D01*
Y25364D01*
X40098Y25679D02*
Y25889D01*
X40046D01*
X39836Y25679D01*
X39783D01*
X40912Y26184D02*
X40964Y26132D01*
Y26027D01*
X40912Y25974D01*
X40702D01*
X40650Y26027D01*
Y26132D01*
X40702Y26184D01*
X40964Y26499D02*
X40912Y26394D01*
X40807Y26289D01*
X40702D01*
X40650Y26342D01*
Y26447D01*
X40702Y26499D01*
X40755D01*
X40807Y26447D01*
Y26289D01*
X40964Y26814D02*
X40912Y26709D01*
X40807Y26604D01*
X40702D01*
X40650Y26657D01*
Y26762D01*
X40702Y26814D01*
X40755D01*
X40807Y26762D01*
Y26604D01*
X37231Y22821D02*
X37284Y22874D01*
X37388D01*
X37441Y22821D01*
Y22612D01*
X37388Y22559D01*
X37284D01*
X37231Y22612D01*
X36916Y22874D02*
X37021Y22821D01*
X37126Y22716D01*
Y22612D01*
X37074Y22559D01*
X36969D01*
X36916Y22612D01*
Y22664D01*
X36969Y22716D01*
X37126D01*
X36601Y22874D02*
X36811D01*
Y22716D01*
X36706Y22769D01*
X36654D01*
X36601Y22716D01*
Y22612D01*
X36654Y22559D01*
X36759D01*
X36811Y22612D01*
X38137Y25006D02*
X38189Y25059D01*
X38294D01*
X38346Y25006D01*
Y24797D01*
X38294Y24744D01*
X38189D01*
X38137Y24797D01*
X37822Y25059D02*
X37927Y25006D01*
X38032Y24902D01*
Y24797D01*
X37979Y24744D01*
X37874D01*
X37822Y24797D01*
Y24849D01*
X37874Y24902D01*
X38032D01*
X37559Y24744D02*
Y25059D01*
X37717Y24902D01*
X37507D01*
X42034Y24846D02*
X42087Y24793D01*
Y24688D01*
X42034Y24636D01*
X41824D01*
X41772Y24688D01*
Y24793D01*
X41824Y24846D01*
X42087Y25161D02*
X42034Y25056D01*
X41929Y24951D01*
X41824D01*
X41772Y25003D01*
Y25108D01*
X41824Y25161D01*
X41877D01*
X41929Y25108D01*
Y24951D01*
X42034Y25266D02*
X42087Y25318D01*
Y25423D01*
X42034Y25475D01*
X41982D01*
X41929Y25423D01*
Y25371D01*
Y25423D01*
X41877Y25475D01*
X41824D01*
X41772Y25423D01*
Y25318D01*
X41824Y25266D01*
X37182Y21227D02*
X37234Y21279D01*
X37339D01*
X37392Y21227D01*
Y21017D01*
X37339Y20965D01*
X37234D01*
X37182Y21017D01*
X36867Y21279D02*
X36972Y21227D01*
X37077Y21122D01*
Y21017D01*
X37024Y20965D01*
X36919D01*
X36867Y21017D01*
Y21070D01*
X36919Y21122D01*
X37077D01*
X36552Y20965D02*
X36762D01*
X36552Y21174D01*
Y21227D01*
X36605Y21279D01*
X36710D01*
X36762Y21227D01*
X36906Y21906D02*
X36959Y21959D01*
X37064D01*
X37116Y21906D01*
Y21696D01*
X37064Y21644D01*
X36959D01*
X36906Y21696D01*
X36591Y21959D02*
X36696Y21906D01*
X36801Y21801D01*
Y21696D01*
X36749Y21644D01*
X36644D01*
X36591Y21696D01*
Y21749D01*
X36644Y21801D01*
X36801D01*
X36486Y21644D02*
X36381D01*
X36434D01*
Y21959D01*
X36486Y21906D01*
X43363Y21296D02*
X43415Y21348D01*
X43520D01*
X43573Y21296D01*
Y21086D01*
X43520Y21033D01*
X43415D01*
X43363Y21086D01*
X43048Y21348D02*
X43258D01*
Y21191D01*
X43153Y21243D01*
X43101D01*
X43048Y21191D01*
Y21086D01*
X43101Y21033D01*
X43205D01*
X43258Y21086D01*
X42943Y21296D02*
X42891Y21348D01*
X42786D01*
X42733Y21296D01*
Y21243D01*
X42786Y21191D01*
X42733Y21138D01*
Y21086D01*
X42786Y21033D01*
X42891D01*
X42943Y21086D01*
Y21138D01*
X42891Y21191D01*
X42943Y21243D01*
Y21296D01*
X42891Y21191D02*
X42786D01*
X39485Y20338D02*
X39537Y20285D01*
Y20180D01*
X39485Y20128D01*
X39275D01*
X39222Y20180D01*
Y20285D01*
X39275Y20338D01*
X39537Y20653D02*
Y20443D01*
X39380D01*
X39432Y20548D01*
Y20600D01*
X39380Y20653D01*
X39275D01*
X39222Y20600D01*
Y20495D01*
X39275Y20443D01*
X39537Y20758D02*
Y20968D01*
X39485D01*
X39275Y20758D01*
X39222D01*
X27395Y15440D02*
X27448Y15492D01*
X27553D01*
X27605Y15440D01*
Y15230D01*
X27553Y15177D01*
X27448D01*
X27395Y15230D01*
X27080Y15492D02*
X27290D01*
Y15335D01*
X27185Y15387D01*
X27133D01*
X27080Y15335D01*
Y15230D01*
X27133Y15177D01*
X27238D01*
X27290Y15230D01*
X26975Y15177D02*
X26870D01*
X26923D01*
Y15492D01*
X26975Y15440D01*
X27500Y14819D02*
X27553Y14872D01*
X27657D01*
X27710Y14819D01*
Y14610D01*
X27657Y14557D01*
X27553D01*
X27500Y14610D01*
X27238Y14557D02*
Y14872D01*
X27395Y14715D01*
X27185D01*
X27080Y14610D02*
X27028Y14557D01*
X26923D01*
X26870Y14610D01*
Y14819D01*
X26923Y14872D01*
X27028D01*
X27080Y14819D01*
Y14767D01*
X27028Y14715D01*
X26870D01*
X4603Y23117D02*
X4656Y23169D01*
X4761D01*
X4813Y23117D01*
Y22907D01*
X4761Y22854D01*
X4656D01*
X4603Y22907D01*
X4341Y22854D02*
Y23169D01*
X4498Y23012D01*
X4288D01*
X3973Y23169D02*
X4183D01*
Y23012D01*
X4078Y23064D01*
X4026D01*
X3973Y23012D01*
Y22907D01*
X4026Y22854D01*
X4131D01*
X4183Y22907D01*
X12379Y17346D02*
X12431Y17293D01*
Y17188D01*
X12379Y17136D01*
X12169D01*
X12116Y17188D01*
Y17293D01*
X12169Y17346D01*
X12116Y17608D02*
X12431D01*
X12274Y17451D01*
Y17661D01*
X12379Y17766D02*
X12431Y17818D01*
Y17923D01*
X12379Y17975D01*
X12169D01*
X12116Y17923D01*
Y17818D01*
X12169Y17766D01*
X12379D01*
X11138Y13674D02*
X11191Y13622D01*
Y13517D01*
X11138Y13465D01*
X10928D01*
X10876Y13517D01*
Y13622D01*
X10928Y13674D01*
X11138Y13779D02*
X11191Y13832D01*
Y13937D01*
X11138Y13989D01*
X11086D01*
X11033Y13937D01*
Y13884D01*
Y13937D01*
X10981Y13989D01*
X10928D01*
X10876Y13937D01*
Y13832D01*
X10928Y13779D01*
Y14094D02*
X10876Y14147D01*
Y14252D01*
X10928Y14304D01*
X11138D01*
X11191Y14252D01*
Y14147D01*
X11138Y14094D01*
X11086D01*
X11033Y14147D01*
Y14304D01*
X11424Y18205D02*
X11476Y18258D01*
X11581D01*
X11634Y18205D01*
Y17995D01*
X11581Y17943D01*
X11476D01*
X11424Y17995D01*
X11319Y18205D02*
X11267Y18258D01*
X11162D01*
X11109Y18205D01*
Y18153D01*
X11162Y18100D01*
X11214D01*
X11162D01*
X11109Y18048D01*
Y17995D01*
X11162Y17943D01*
X11267D01*
X11319Y17995D01*
X10794Y18258D02*
X10899Y18205D01*
X11004Y18100D01*
Y17995D01*
X10952Y17943D01*
X10847D01*
X10794Y17995D01*
Y18048D01*
X10847Y18100D01*
X11004D01*
X13530Y13255D02*
X13583Y13307D01*
X13688D01*
X13740Y13255D01*
Y13045D01*
X13688Y12992D01*
X13583D01*
X13530Y13045D01*
X13425Y13255D02*
X13373Y13307D01*
X13268D01*
X13215Y13255D01*
Y13202D01*
X13268Y13150D01*
X13320D01*
X13268D01*
X13215Y13097D01*
Y13045D01*
X13268Y12992D01*
X13373D01*
X13425Y13045D01*
X12901Y13307D02*
X13110D01*
Y13150D01*
X13005Y13202D01*
X12953D01*
X12901Y13150D01*
Y13045D01*
X12953Y12992D01*
X13058D01*
X13110Y13045D01*
X31473Y5105D02*
X31526Y5157D01*
X31631D01*
X31683Y5105D01*
Y4895D01*
X31631Y4843D01*
X31526D01*
X31473Y4895D01*
X31368Y5105D02*
X31316Y5157D01*
X31211D01*
X31158Y5105D01*
Y5052D01*
X31211Y5000D01*
X31263D01*
X31211D01*
X31158Y4947D01*
Y4895D01*
X31211Y4843D01*
X31316D01*
X31368Y4895D01*
X30843Y4843D02*
X31053D01*
X30843Y5052D01*
Y5105D01*
X30896Y5157D01*
X31001D01*
X31053Y5105D01*
X31660Y6256D02*
X31713Y6309D01*
X31818D01*
X31870Y6256D01*
Y6047D01*
X31818Y5994D01*
X31713D01*
X31660Y6047D01*
X31555Y6256D02*
X31503Y6309D01*
X31398D01*
X31345Y6256D01*
Y6204D01*
X31398Y6152D01*
X31450D01*
X31398D01*
X31345Y6099D01*
Y6047D01*
X31398Y5994D01*
X31503D01*
X31555Y6047D01*
X31240Y5994D02*
X31135D01*
X31188D01*
Y6309D01*
X31240Y6256D01*
X13412Y12556D02*
X13465Y12608D01*
X13570D01*
X13622Y12556D01*
Y12346D01*
X13570Y12293D01*
X13465D01*
X13412Y12346D01*
X13097Y12293D02*
X13307D01*
X13097Y12503D01*
Y12556D01*
X13150Y12608D01*
X13255D01*
X13307Y12556D01*
X12992D02*
X12940Y12608D01*
X12835D01*
X12782Y12556D01*
Y12503D01*
X12835Y12451D01*
X12782Y12398D01*
Y12346D01*
X12835Y12293D01*
X12940D01*
X12992Y12346D01*
Y12398D01*
X12940Y12451D01*
X12992Y12503D01*
Y12556D01*
X12940Y12451D02*
X12835D01*
X14337Y12759D02*
X14390Y12707D01*
Y12602D01*
X14337Y12549D01*
X14127D01*
X14075Y12602D01*
Y12707D01*
X14127Y12759D01*
X14075Y13074D02*
Y12864D01*
X14285Y13074D01*
X14337D01*
X14390Y13022D01*
Y12917D01*
X14337Y12864D01*
X14390Y13179D02*
Y13389D01*
X14337D01*
X14127Y13179D01*
X14075D01*
X12950Y7713D02*
X13002Y7766D01*
X13107D01*
X13159Y7713D01*
Y7503D01*
X13107Y7451D01*
X13002D01*
X12950Y7503D01*
X12635Y7451D02*
X12845D01*
X12635Y7661D01*
Y7713D01*
X12687Y7766D01*
X12792D01*
X12845Y7713D01*
X12320Y7766D02*
X12425Y7713D01*
X12530Y7608D01*
Y7503D01*
X12477Y7451D01*
X12372D01*
X12320Y7503D01*
Y7556D01*
X12372Y7608D01*
X12530D01*
X15322Y7674D02*
X15374Y7726D01*
X15479D01*
X15532Y7674D01*
Y7464D01*
X15479Y7411D01*
X15374D01*
X15322Y7464D01*
X15007Y7411D02*
X15217D01*
X15007Y7621D01*
Y7674D01*
X15059Y7726D01*
X15164D01*
X15217Y7674D01*
X14692Y7726D02*
X14902D01*
Y7569D01*
X14797Y7621D01*
X14744D01*
X14692Y7569D01*
Y7464D01*
X14744Y7411D01*
X14849D01*
X14902Y7464D01*
X11286Y11578D02*
X11338Y11526D01*
Y11421D01*
X11286Y11368D01*
X11076D01*
X11024Y11421D01*
Y11526D01*
X11076Y11578D01*
X11024Y11893D02*
Y11683D01*
X11234Y11893D01*
X11286D01*
X11338Y11840D01*
Y11735D01*
X11286Y11683D01*
X11024Y12208D02*
Y11998D01*
X11234Y12208D01*
X11286D01*
X11338Y12155D01*
Y12050D01*
X11286Y11998D01*
X15912Y9550D02*
X15964Y9498D01*
Y9393D01*
X15912Y9341D01*
X15702D01*
X15650Y9393D01*
Y9498D01*
X15702Y9550D01*
X15650Y9865D02*
Y9655D01*
X15860Y9865D01*
X15912D01*
X15964Y9813D01*
Y9708D01*
X15912Y9655D01*
X15650Y9970D02*
Y10075D01*
Y10023D01*
X15964D01*
X15912Y9970D01*
X20371Y5233D02*
X20423Y5285D01*
X20528D01*
X20581Y5233D01*
Y5023D01*
X20528Y4970D01*
X20423D01*
X20371Y5023D01*
X20266Y4970D02*
X20161D01*
X20213D01*
Y5285D01*
X20266Y5233D01*
X20003Y4970D02*
X19899D01*
X19951D01*
Y5285D01*
X20003Y5233D01*
X27448Y14199D02*
X27500Y14252D01*
X27605D01*
X27657Y14199D01*
Y13989D01*
X27605Y13937D01*
X27500D01*
X27448Y13989D01*
X27343Y13937D02*
X27238D01*
X27290D01*
Y14252D01*
X27343Y14199D01*
X27080D02*
X27028Y14252D01*
X26923D01*
X26870Y14199D01*
Y13989D01*
X26923Y13937D01*
X27028D01*
X27080Y13989D01*
Y14199D01*
X18766Y5243D02*
X18819Y5295D01*
X18924D01*
X18976Y5243D01*
Y5033D01*
X18924Y4980D01*
X18819D01*
X18766Y5033D01*
X18662D02*
X18609Y4980D01*
X18504D01*
X18452Y5033D01*
Y5243D01*
X18504Y5295D01*
X18609D01*
X18662Y5243D01*
Y5190D01*
X18609Y5138D01*
X18452D01*
X19495Y5253D02*
X19547Y5305D01*
X19652D01*
X19705Y5253D01*
Y5043D01*
X19652Y4990D01*
X19547D01*
X19495Y5043D01*
X19390Y5253D02*
X19337Y5305D01*
X19232D01*
X19180Y5253D01*
Y5200D01*
X19232Y5148D01*
X19180Y5095D01*
Y5043D01*
X19232Y4990D01*
X19337D01*
X19390Y5043D01*
Y5095D01*
X19337Y5148D01*
X19390Y5200D01*
Y5253D01*
X19337Y5148D02*
X19232D01*
X25154Y11982D02*
X25207Y11929D01*
Y11824D01*
X25154Y11772D01*
X24944D01*
X24892Y11824D01*
Y11929D01*
X24944Y11982D01*
X25154Y12087D02*
X25207Y12139D01*
Y12244D01*
X25154Y12296D01*
X25102D01*
X25049Y12244D01*
Y12191D01*
Y12244D01*
X24997Y12296D01*
X24944D01*
X24892Y12244D01*
Y12139D01*
X24944Y12087D01*
X23392Y13284D02*
X23445Y13337D01*
X23550D01*
X23602Y13284D01*
Y13074D01*
X23550Y13022D01*
X23445D01*
X23392Y13074D01*
X23078Y13022D02*
X23287D01*
X23078Y13232D01*
Y13284D01*
X23130Y13337D01*
X23235D01*
X23287Y13284D01*
X23845Y15850D02*
X23898Y15797D01*
Y15692D01*
X23845Y15640D01*
X23635D01*
X23583Y15692D01*
Y15797D01*
X23635Y15850D01*
X23583Y15955D02*
Y16060D01*
Y16007D01*
X23898D01*
X23845Y15955D01*
D16*
X33756Y4035D02*
X34256Y4385D01*
X33756Y4035D02*
X34256Y3685D01*
X33756D02*
Y4385D01*
X34256Y3685D02*
Y4385D01*
X15236Y15427D02*
X15586Y14927D01*
X15936Y15427D01*
X15236Y14927D02*
X15936D01*
X15236Y15427D02*
X15936D01*
X20807Y591D02*
Y3228D01*
X19350D02*
X20807D01*
X19350Y591D02*
Y3228D01*
Y591D02*
X20807D01*
X12258Y20104D02*
X12958D01*
X12258Y20604D02*
X12958D01*
X12258Y20104D02*
X12608Y20604D01*
X12958Y20104D01*
X14896Y12386D02*
X15596D01*
X14896Y11886D02*
X15596D01*
X15246D02*
X15596Y12386D01*
X14896D02*
X15246Y11886D01*
D17*
X10384Y6496D02*
Y7205D01*
X11683Y6496D02*
Y7205D01*
X10384Y6496D02*
X11683D01*
X10384Y7205D02*
X11683D01*
X20512Y3504D02*
Y4803D01*
X19803Y3504D02*
Y4803D01*
Y3504D02*
X20512D01*
X19803Y4803D02*
X20512D01*
X18366Y4823D02*
X19075D01*
X18366Y3524D02*
X19075D01*
X18366D02*
Y4823D01*
X19075Y3524D02*
Y4823D01*
M02*
