G04 Layer_Color=16711935*
%FSLAX24Y24*%
%MOIN*%
G70*
G01*
G75*
%ADD67R,0.0394X0.0433*%
%ADD69R,0.0433X0.0394*%
%ADD71R,0.0610X0.0492*%
%ADD72O,0.0839X0.0335*%
G04:AMPARAMS|DCode=77|XSize=114.2mil|YSize=63mil|CornerRadius=16.7mil|HoleSize=0mil|Usage=FLASHONLY|Rotation=270.000|XOffset=0mil|YOffset=0mil|HoleType=Round|Shape=RoundedRectangle|*
%AMROUNDEDRECTD77*
21,1,0.1142,0.0295,0,0,270.0*
21,1,0.0807,0.0630,0,0,270.0*
1,1,0.0335,-0.0148,-0.0404*
1,1,0.0335,-0.0148,0.0404*
1,1,0.0335,0.0148,0.0404*
1,1,0.0335,0.0148,-0.0404*
%
%ADD77ROUNDEDRECTD77*%
%ADD80R,0.0394X0.0315*%
%ADD81R,0.0315X0.0394*%
%ADD82R,0.0728X0.0453*%
%ADD83C,0.0512*%
%ADD84O,0.0630X0.0320*%
%ADD92C,0.1220*%
%ADD93R,0.0639X0.0639*%
%ADD94C,0.0639*%
%ADD95R,0.0669X0.0669*%
%ADD96C,0.0669*%
%ADD97C,0.0748*%
%ADD98R,0.0748X0.0748*%
%ADD99R,0.0669X0.0669*%
%ADD100R,0.0639X0.0639*%
%ADD101O,0.0889X0.0335*%
G04:AMPARAMS|DCode=102|XSize=198.8mil|YSize=74.8mil|CornerRadius=19.7mil|HoleSize=0mil|Usage=FLASHONLY|Rotation=180.000|XOffset=0mil|YOffset=0mil|HoleType=Round|Shape=RoundedRectangle|*
%AMROUNDEDRECTD102*
21,1,0.1988,0.0354,0,0,180.0*
21,1,0.1594,0.0748,0,0,180.0*
1,1,0.0394,-0.0797,0.0177*
1,1,0.0394,0.0797,0.0177*
1,1,0.0394,0.0797,-0.0177*
1,1,0.0394,-0.0797,-0.0177*
%
%ADD102ROUNDEDRECTD102*%
%ADD103R,0.0748X0.0591*%
%ADD104R,0.0591X0.0453*%
%ADD105R,0.0453X0.0591*%
G36*
X30880Y18868D02*
X30976Y18828D01*
X31058Y18765D01*
X31121Y18683D01*
X31161Y18587D01*
X31175Y18484D01*
X31161Y18381D01*
X31121Y18286D01*
X31058Y18203D01*
X30976Y18140D01*
X30880Y18101D01*
X30778Y18087D01*
X30675Y18101D01*
X30579Y18140D01*
X30497Y18203D01*
X30434Y18286D01*
X30394Y18381D01*
X30380Y18484D01*
X30394Y18587D01*
X30434Y18683D01*
X30497Y18765D01*
X30579Y18828D01*
X30675Y18868D01*
X30778Y18881D01*
X30880Y18868D01*
D02*
G37*
G36*
X46028Y42155D02*
X46124Y42116D01*
X46206Y42052D01*
X46269Y41970D01*
X46309Y41874D01*
X46322Y41772D01*
X46309Y41669D01*
X46269Y41573D01*
X46206Y41491D01*
X46124Y41428D01*
X46028Y41388D01*
X45925Y41375D01*
X45822Y41388D01*
X45727Y41428D01*
X45644Y41491D01*
X45581Y41573D01*
X45542Y41669D01*
X45528Y41772D01*
X45542Y41874D01*
X45581Y41970D01*
X45644Y42052D01*
X45727Y42116D01*
X45822Y42155D01*
X45925Y42169D01*
X46028Y42155D01*
D02*
G37*
D67*
X36742Y34035D02*
D03*
Y33366D02*
D03*
X35866Y21634D02*
D03*
Y20965D02*
D03*
X46240Y28346D02*
D03*
Y29016D02*
D03*
X44103Y28346D02*
D03*
Y29016D02*
D03*
X34262Y36909D02*
D03*
Y37579D02*
D03*
X34852Y37579D02*
D03*
Y36910D02*
D03*
X34262Y39951D02*
D03*
Y39281D02*
D03*
X39321Y38110D02*
D03*
Y38780D02*
D03*
D69*
X40374Y26389D02*
D03*
X41043D02*
D03*
X32854Y38091D02*
D03*
X33524D02*
D03*
D71*
X35541Y37618D02*
D03*
Y36909D02*
D03*
D72*
X42446Y42683D02*
D03*
X40246D02*
D03*
X42446Y43183D02*
D03*
X40246D02*
D03*
X42446Y41683D02*
D03*
Y42183D02*
D03*
X40246D02*
D03*
Y41683D02*
D03*
D77*
X41535Y37638D02*
D03*
X40276D02*
D03*
X41535Y36398D02*
D03*
X40276D02*
D03*
X41535Y35157D02*
D03*
X40276D02*
D03*
X41535Y33907D02*
D03*
X40276D02*
D03*
X41535Y38878D02*
D03*
X40276D02*
D03*
D80*
X35049Y21998D02*
D03*
Y21388D02*
D03*
X34429Y21998D02*
D03*
Y21388D02*
D03*
X36506Y20354D02*
D03*
Y20964D02*
D03*
X45640Y28406D02*
D03*
Y29016D02*
D03*
X44724Y28406D02*
D03*
Y29016D02*
D03*
X33563Y37146D02*
D03*
Y36536D02*
D03*
X35276Y39951D02*
D03*
Y40561D02*
D03*
D81*
X45630Y29724D02*
D03*
X46240D02*
D03*
X45049D02*
D03*
X44439D02*
D03*
X43829Y30039D02*
D03*
X43219D02*
D03*
X40433Y25768D02*
D03*
X41043D02*
D03*
X42028Y30837D02*
D03*
X41418D02*
D03*
X42028Y31457D02*
D03*
X41418D02*
D03*
X42028Y32077D02*
D03*
X41418D02*
D03*
X42028Y32697D02*
D03*
X41418D02*
D03*
X36132Y40640D02*
D03*
X36742D02*
D03*
X42018Y39862D02*
D03*
X41408D02*
D03*
D82*
X40591Y17293D02*
D03*
Y18435D02*
D03*
X39764Y17293D02*
D03*
Y18435D02*
D03*
D83*
X45925Y41772D02*
D03*
X30778Y18484D02*
D03*
D84*
X39484Y27900D02*
D03*
Y27100D02*
D03*
X40394Y27500D02*
D03*
D92*
X44911Y42943D02*
D03*
X30817Y17195D02*
D03*
X45904Y21998D02*
D03*
Y32579D02*
D03*
Y39154D02*
D03*
Y25778D02*
D03*
D93*
X31703Y20226D02*
D03*
X36447Y23238D02*
D03*
X44754Y16772D02*
D03*
D94*
X31703Y22226D02*
D03*
X36447Y24616D02*
D03*
X44754Y17772D02*
D03*
X39433Y40492D02*
D03*
D95*
X37648Y42037D02*
D03*
X35610D02*
D03*
D96*
X37648Y43037D02*
D03*
X35610D02*
D03*
X31817Y42028D02*
D03*
X30817Y43028D02*
D03*
X31817D02*
D03*
X32817Y42028D02*
D03*
Y43028D02*
D03*
X41634Y28986D02*
D03*
D97*
X43022Y21407D02*
D03*
Y22589D02*
D03*
X44203D02*
D03*
X43022Y40000D02*
D03*
X44203D02*
D03*
X43022Y31732D02*
D03*
Y32913D02*
D03*
Y35276D02*
D03*
Y37638D02*
D03*
Y38819D02*
D03*
Y34094D02*
D03*
Y36457D02*
D03*
X44203Y32913D02*
D03*
Y35276D02*
D03*
Y37638D02*
D03*
Y38819D02*
D03*
Y34094D02*
D03*
Y36457D02*
D03*
X43022Y25187D02*
D03*
Y26368D02*
D03*
X44203D02*
D03*
D98*
Y21407D02*
D03*
Y31732D02*
D03*
Y25187D02*
D03*
D99*
X30817Y42028D02*
D03*
X42634Y28986D02*
D03*
D100*
X40433Y40492D02*
D03*
D101*
X35873Y33535D02*
D03*
Y34535D02*
D03*
Y35035D02*
D03*
X32923Y33535D02*
D03*
Y34535D02*
D03*
Y35035D02*
D03*
X35873Y34035D02*
D03*
X32923D02*
D03*
D102*
X43022Y16978D02*
D03*
Y18711D02*
D03*
D103*
X41407Y17293D02*
D03*
Y18435D02*
D03*
D104*
X34340Y19961D02*
D03*
Y19213D02*
D03*
X33563Y19961D02*
D03*
Y19213D02*
D03*
D105*
X41270Y27156D02*
D03*
X42018D02*
D03*
M02*
