M48
;Layer_Color=9474304
;FILE_FORMAT=2:4
INCH,LZ
;TYPE=PLATED
T1F00S00C0.0118
T2F00S00C0.0157
T3F00S00C0.0197
T4F00S00C0.0380
T5F00S00C0.0390
T6F00S00C0.0394
T7F00S00C0.0551
%
T01
X045157Y027451
Y027815
X04563
Y027451
T02
X045898Y029155
X032234Y033041
X031831
X038501Y043704
X039104Y044213
X040457Y043704
X04126Y04373
X047077Y031299
X05002Y033425
X05249Y032923
T03
X047185Y027662
X049488Y027461
Y028238
X050266
X051043
Y027461
Y026683
Y025906
X050266
X049488
Y026683
X050266
Y027461
X051821Y026683
Y025906
X052598
X052667Y02876
X053258
X053848
X054439
X054872Y02935
Y029941
Y030531
Y031122
X052077Y02876
X048622Y029843
X047874Y030522
X046506Y027618
X043543Y027392
X04373Y026722
X043898Y025945
X04252Y025984
X040157
X037795
X035433
X033071
X03189Y028346
X036614
X038976
X040217Y029134
X040157Y030709
X04252
X042343Y030148
X042303Y029537
X042313Y028888
X042657Y028297
X0431Y027825
X041339Y028346
X03751Y030974
X035177Y030581
X034163Y030817
X030709Y030709
X028346
X025984
X023622
X027165Y028346
X030709Y025984
X02998Y031447
X02873Y031427
X029587Y032559
X029961Y033967
X028986Y03499
X027687Y034419
X026929Y03497
X027165Y033071
X024803
X023622Y035433
Y040157
X025984
X02687Y037628
X027077Y037096
X02811Y037564
X028996Y036978
X028947Y039439
X029803Y038858
X030689Y037972
X030787Y036102
X031191Y034902
X03124Y039843
X03064Y040669
X030492Y04126
X029921Y041309
X029419Y041437
X028799Y041604
X029242Y040709
X029321Y04377
X030118Y043799
X031132Y044154
X030098Y045236
X028562Y044232
X025984Y044882
X033189Y044744
X032785Y04314
X031791Y043012
X033917Y042884
X033927Y042244
X033907Y041604
X034409Y042618
X03499Y044262
X035758Y044941
X036791Y044222
X037894Y04252
X037982Y041122
Y040561
X039843Y040463
X040246Y041693
X039843Y042264
X041339Y04252
X042835Y041821
X043268Y043002
X044272Y042992
X043789Y043524
X04377Y044941
X044547Y044232
X042943Y044213
X043878Y046722
X046575Y046358
X041211Y046319
X040157Y044882
X04185Y039705
X043819Y040404
X043701Y037795
X041506Y037264
X039498Y037283
X040207Y03627
X037776Y036398
X037795Y035433
X037303Y035689
X036683Y03627
X036142Y036407
X0356Y036132
X035581Y035315
X036585Y034872
X036299Y033839
X035443Y033888
X034665Y03377
X034665Y032338
X035276Y032175
X035827
X037096
X03751Y032864
X037559Y034429
X039203Y032343
X040876Y031683
X042382Y03189
X042411Y031319
X04251Y032461
X046555Y031467
X046506Y035246
X044882Y035433
X046427Y040709
X045222Y042289
X03628Y041762
X035531Y03936
X035118Y038563
X034646Y038927
X033996Y039577
X033465Y037894
X03374Y036604
X033957Y035157
X032746Y034469
X032441Y03561
X031969Y037057
X032047Y040167
X0319Y040728
X036703Y038179
X033622Y031516
X047953Y031319
X047618Y032451
X04751Y034941
X048425Y034724
X048514Y039823
X049783Y04003
X051673Y040118
X052421Y040827
X050266Y041791
X050787Y04252
X049567Y042844
X049606Y044882
X047244
X047254Y043307
X047205Y041791
X047313Y040689
X047943Y04128
X051969Y044882
X05463Y034193
X054813Y032648
X054587Y031841
X052982Y032195
X038976Y047244
X034252
X03189
X029528
X027165
T04
X048228Y027175
Y029175
X026039Y034567
Y035567
Y036567
X025039
Y037567
X026039
Y038567
X025039
Y035567
Y034567
X045768Y034183
X047146
T05
X02497Y042244
X02597
X038242Y03439
X039242
X040506
X041506
X042711
X043711
T06
X034419Y028691
Y029691
X037943Y029715
Y028715
X029961Y029071
Y028071
X028961
Y029071
X027961
Y028071
X051358Y036073
Y038073
X053149Y042008
X054149
T07
X038898Y038081
X040866
X042835
X044803
X046772
X04874
X053701Y038081
Y040443
M30
