G04 Layer_Color=65535*
%FSLAX24Y24*%
%MOIN*%
G70*
G01*
G75*
%ADD10C,0.0079*%
%ADD43C,0.0098*%
%ADD54C,0.0100*%
%ADD55C,0.0071*%
%ADD56C,0.0236*%
%ADD57C,0.0070*%
%ADD58C,0.0070*%
%ADD59C,0.0050*%
%ADD60C,0.0039*%
%ADD61C,0.0067*%
G36*
X42015Y36953D02*
X41905D01*
Y37673D01*
X42015D01*
Y36953D01*
D02*
G37*
G36*
X35577Y35028D02*
X35327D01*
Y35278D01*
X35577D01*
Y35028D01*
D02*
G37*
G36*
X32827Y33114D02*
X32577D01*
Y33364D01*
X32827D01*
Y33114D01*
D02*
G37*
G36*
X22591Y43892D02*
X22341D01*
Y44142D01*
X22591D01*
Y43892D01*
D02*
G37*
G36*
X26862Y42091D02*
X26612D01*
Y42341D01*
X26862D01*
Y42091D01*
D02*
G37*
G36*
X39277Y40291D02*
X38557D01*
Y40401D01*
X39277D01*
Y40291D01*
D02*
G37*
D10*
X41093Y35778D02*
X43730D01*
Y35344D02*
Y35778D01*
X41093Y35344D02*
Y35778D01*
X42385Y36983D02*
Y37643D01*
X41955Y37313D02*
X42385Y37643D01*
X41955Y37313D02*
X42385Y36983D01*
X38587Y40771D02*
X39247D01*
X38587D02*
X38917Y40341D01*
X39247Y40771D01*
X40787Y39557D02*
X40974D01*
X39478D02*
X39665D01*
X40787Y41762D02*
X40974D01*
X39478D02*
X39665D01*
X40974Y39557D02*
Y41762D01*
X39478Y39557D02*
Y41762D01*
X41358Y40906D02*
X43445D01*
X41358Y42047D02*
X43445D01*
X41358Y40906D02*
Y41014D01*
Y41939D02*
Y42047D01*
X43445Y40906D02*
Y41014D01*
Y41939D02*
Y42047D01*
X37195Y42461D02*
Y42815D01*
X38297Y42461D02*
Y42815D01*
X32008Y38435D02*
X34370D01*
X32008Y36073D02*
X34370D01*
Y38435D01*
X32008Y36073D02*
Y38435D01*
X30945Y30541D02*
Y32628D01*
X32087Y30541D02*
Y32628D01*
X30945D02*
X31053D01*
X31978D02*
X32087D01*
X30945Y30541D02*
X31053D01*
X31978D02*
X32087D01*
X20620Y31781D02*
Y33041D01*
X23219Y31781D02*
Y33041D01*
X20620Y31781D02*
X23219D01*
X20620Y33041D02*
X23219D01*
X35896Y42461D02*
Y42815D01*
X36998Y42461D02*
Y42815D01*
X43770Y43041D02*
Y43750D01*
X41841Y43041D02*
Y43750D01*
X30285Y42303D02*
Y42657D01*
X31388Y42303D02*
Y42657D01*
X31565Y42303D02*
Y42657D01*
X32667Y42303D02*
Y42657D01*
X31024Y44291D02*
Y46496D01*
X32520Y44291D02*
Y46496D01*
X31024D02*
X31211D01*
X32333D02*
X32520D01*
X31024Y44291D02*
X31211D01*
X32333D02*
X32520D01*
X29291Y36152D02*
X29331D01*
X29291D02*
Y38120D01*
X29331D01*
X30512Y36152D02*
X30551D01*
Y38120D01*
X30512D02*
X30551D01*
X35719Y44350D02*
Y46555D01*
X34222Y44350D02*
Y46555D01*
X35531Y44350D02*
X35719D01*
X34222D02*
X34409D01*
X35531Y46555D02*
X35719D01*
X34222D02*
X34409D01*
D43*
X43780Y36673D02*
G03*
X43780Y36673I-49J0D01*
G01*
X31368Y38612D02*
G03*
X31368Y38612I-49J0D01*
G01*
X23307Y33907D02*
G03*
X23307Y33907I-49J0D01*
G01*
D54*
X22175Y45197D02*
G03*
X22175Y45197I-1063J0D01*
G01*
X43964Y31109D02*
G03*
X43964Y31109I-1063J0D01*
G01*
X23791Y43992D02*
G03*
X24541Y43992I375J0D01*
G01*
X40856Y32130D02*
G03*
X40856Y32130I-1969J0D01*
G01*
X26939Y31969D02*
G03*
X26939Y31969I-1575J0D01*
G01*
X28181Y42120D02*
G03*
X28740Y42139I280J0D01*
G01*
X34146Y33144D02*
G03*
X34704Y33163I280J0D01*
G01*
X35527Y36978D02*
G03*
X35527Y37578I0J300D01*
G01*
X37963Y47894D02*
X41506D01*
X40876Y44390D02*
X41506D01*
X37963D02*
X38593D01*
X41506D02*
Y47894D01*
X37963Y44390D02*
Y47894D01*
X42779Y38724D02*
Y39124D01*
X42079Y39224D02*
X42279D01*
X41579Y38724D02*
X41879D01*
X41579D02*
Y39124D01*
X42479Y38724D02*
X42779D01*
X23591Y43992D02*
X24741D01*
X23591Y39792D02*
X24741D01*
Y43992D01*
X23591Y39792D02*
Y43992D01*
X38888Y34380D02*
Y34880D01*
X38638Y34630D02*
X39138D01*
X25114Y33969D02*
X25614D01*
X25364Y33719D02*
Y34218D01*
X37700Y40250D02*
Y40650D01*
X37000Y40750D02*
X37200D01*
X36500Y40250D02*
X36800D01*
X36500D02*
Y40650D01*
X37400Y40250D02*
X37700D01*
X28962Y39941D02*
Y42141D01*
X27962Y39941D02*
Y42141D01*
Y39941D02*
X28962D01*
X28762Y42141D02*
X28962D01*
X27962D02*
X28162D01*
X33927Y33164D02*
X34127D01*
X34727D02*
X34927D01*
X33927Y30964D02*
X34927D01*
X33927D02*
Y33164D01*
X34927Y30964D02*
Y33164D01*
X35527Y37578D02*
Y38078D01*
Y36478D02*
X37527D01*
X35527Y38078D02*
X37527D01*
Y36478D02*
Y38078D01*
X35527Y36478D02*
Y36978D01*
X25514Y36010D02*
X26514D01*
Y38010D01*
X25514D02*
X26514D01*
X25514Y36010D02*
Y38010D01*
X26764Y36020D02*
Y38020D01*
X27764D01*
Y36020D02*
Y38020D01*
X26764Y36020D02*
X27764D01*
X22884Y38531D02*
X24461Y38530D01*
X20799Y36010D02*
X24461D01*
X24484Y36031D02*
Y38531D01*
X20784Y36031D02*
Y38531D01*
X22925Y38530D01*
X32770Y43586D02*
Y43986D01*
Y43586D02*
X33070D01*
X33970D02*
Y43986D01*
X33670Y43586D02*
X33970D01*
X33270Y44086D02*
X33470D01*
X30679Y47106D02*
Y47894D01*
X28317D02*
X30679D01*
X25955Y47067D02*
Y47894D01*
X28317D01*
X30679Y44390D02*
Y47106D01*
X25955Y44390D02*
Y47106D01*
Y44390D02*
X26585D01*
X30010D02*
X30679D01*
X32770Y45181D02*
Y45581D01*
Y45181D02*
X33070D01*
X33970D02*
Y45581D01*
X33670Y45181D02*
X33970D01*
X33270Y45681D02*
X33470D01*
D55*
X37112Y45703D02*
G03*
X36277Y45703I-418J-418D01*
G01*
Y44868D02*
G03*
X37112Y44868I418J418D01*
G01*
X42415Y44872D02*
G03*
X43250Y44872I418J418D01*
G01*
Y45707D02*
G03*
X42415Y45707I-418J-418D01*
G01*
X29554Y34076D02*
G03*
X28254Y34106I-697J-2035D01*
G01*
X28318Y30673D02*
G03*
X29511Y30678I589J2068D01*
G01*
D56*
X32520Y38041D02*
G03*
X32520Y38041I-118J0D01*
G01*
D57*
X34324Y39695D02*
G03*
X34324Y40205I-608J256D01*
G01*
X33117D02*
G03*
X33117Y39695I609J-255D01*
G01*
X36046Y39685D02*
G03*
X36047Y40196I-608J256D01*
G01*
X34839D02*
G03*
X34839Y39685I609J-255D01*
G01*
X36663Y32178D02*
G03*
X36153Y32179I-256J-608D01*
G01*
Y30971D02*
G03*
X36663Y30971I255J609D01*
G01*
X32215Y30213D02*
G03*
X32725Y30213I256J608D01*
G01*
Y31421D02*
G03*
X32215Y31420I-255J-609D01*
G01*
X27126Y34540D02*
G03*
X26615Y34541I-256J-608D01*
G01*
Y33333D02*
G03*
X27126Y33334I255J609D01*
G01*
X23425Y33324D02*
G03*
X23936Y33323I256J608D01*
G01*
Y34531D02*
G03*
X23425Y34531I-255J-609D01*
G01*
X21939Y34239D02*
G03*
X22450Y34239I256J608D01*
G01*
Y35446D02*
G03*
X21939Y35446I-255J-609D01*
G01*
X32985Y34154D02*
G03*
X32986Y34664I-608J256D01*
G01*
X31778D02*
G03*
X31778Y34154I609J-255D01*
G01*
X33409Y33425D02*
G03*
X33409Y33936I-608J256D01*
G01*
X32201D02*
G03*
X32202Y33425I609J-255D01*
G01*
X29123Y36824D02*
G03*
X28613Y36824I-256J-608D01*
G01*
Y35617D02*
G03*
X29123Y35617I255J609D01*
G01*
X28612Y37448D02*
G03*
X29123Y37447I256J608D01*
G01*
Y38655D02*
G03*
X28612Y38655I-255J-609D01*
G01*
X31122Y36026D02*
G03*
X30611Y36027I-256J-608D01*
G01*
Y34819D02*
G03*
X31122Y34819I255J609D01*
G01*
X24843Y36404D02*
G03*
X25353Y36404I256J608D01*
G01*
Y37612D02*
G03*
X24843Y37611I-255J-609D01*
G01*
X28425D02*
G03*
X27915Y37612I-256J-608D01*
G01*
Y36404D02*
G03*
X28425Y36404I255J609D01*
G01*
X27861Y42756D02*
G03*
X27861Y42245I608J-256D01*
G01*
X29068D02*
G03*
X29068Y42756I-609J255D01*
G01*
X21555Y42576D02*
G03*
X22066Y42575I256J608D01*
G01*
Y43783D02*
G03*
X21555Y43783I-255J-609D01*
G01*
X25551Y45397D02*
G03*
X25041Y45397I-256J-608D01*
G01*
Y44189D02*
G03*
X25551Y44190I255J609D01*
G01*
X24787Y44203D02*
G03*
X24787Y44713I-608J256D01*
G01*
X23579D02*
G03*
X23580Y44203I609J-255D01*
G01*
X21555Y41089D02*
G03*
X22066Y41089I256J608D01*
G01*
Y42297D02*
G03*
X21555Y42296I-255J-609D01*
G01*
X20853Y40905D02*
G03*
X20853Y40395I608J-256D01*
G01*
X22061D02*
G03*
X22060Y40905I-609J255D01*
G01*
X33120Y40206D02*
X34320D01*
X33120Y39695D02*
X34321D01*
X34843Y40196D02*
X36043D01*
X34843Y39685D02*
X36044D01*
X36152Y30975D02*
Y32175D01*
X36663Y30975D02*
Y32176D01*
X36624Y30295D02*
Y30807D01*
X35581Y30295D02*
Y30807D01*
X36624D01*
X35581Y30295D02*
X36624D01*
X35403Y30295D02*
Y30807D01*
X34360Y30295D02*
Y30807D01*
X35403D01*
X34360Y30295D02*
X35403D01*
X32215Y32608D02*
X32726D01*
X32215Y31565D02*
X32726D01*
X32215D02*
Y32608D01*
X32726Y31565D02*
Y32608D01*
X32725Y30217D02*
Y31417D01*
X32215Y30216D02*
Y31417D01*
X26615Y33337D02*
Y34537D01*
X27126Y33337D02*
Y34538D01*
X23936Y33327D02*
Y34527D01*
X23425Y33326D02*
Y34527D01*
X21821Y34242D02*
Y34754D01*
X20777Y34242D02*
Y34754D01*
X21821D01*
X20777Y34242D02*
X21821D01*
X20128Y33356D02*
X20640D01*
X20128Y34400D02*
X20640D01*
Y33356D02*
Y34400D01*
X20128Y33356D02*
Y34400D01*
X22450Y34243D02*
Y35443D01*
X21939Y34242D02*
Y35443D01*
X37018Y46093D02*
Y46604D01*
X35974Y46093D02*
Y46604D01*
X37018D01*
X35974Y46093D02*
X37018D01*
X42343Y46073D02*
Y46585D01*
X43386Y46073D02*
Y46585D01*
X42343Y46073D02*
X43386D01*
X42343Y46585D02*
X43386D01*
X31782Y34664D02*
X32982D01*
X31782Y34154D02*
X32983D01*
X32205Y33936D02*
X33405D01*
X32205Y33425D02*
X33406D01*
X28612Y35620D02*
Y36820D01*
X29123Y35620D02*
Y36821D01*
Y37451D02*
Y38651D01*
X28612Y37450D02*
Y38651D01*
X30611Y34823D02*
Y36023D01*
X31122Y34823D02*
Y36024D01*
X25353Y36408D02*
Y37608D01*
X24843Y36407D02*
Y37608D01*
X27914Y36408D02*
Y37608D01*
X28425Y36408D02*
Y37609D01*
X22461Y38730D02*
Y39242D01*
X21417Y38730D02*
Y39242D01*
X22461D01*
X21417Y38730D02*
X22461D01*
X27865Y42245D02*
X29065D01*
X27864Y42756D02*
X29065D01*
X22066Y42579D02*
Y43779D01*
X21555Y42578D02*
Y43779D01*
X25040Y44193D02*
Y45393D01*
X25551Y44193D02*
Y45394D01*
X23583Y44714D02*
X24783D01*
X23583Y44203D02*
X24784D01*
X22066Y41093D02*
Y42293D01*
X21555Y41092D02*
Y42293D01*
X20857Y40395D02*
X22057D01*
X20856Y40906D02*
X22057D01*
X27785Y38307D02*
Y38819D01*
X26742Y38307D02*
Y38819D01*
X27785D01*
X26742Y38307D02*
X27785D01*
X25512D02*
Y38819D01*
X26555Y38307D02*
Y38819D01*
X25512Y38307D02*
X26555D01*
X25512Y38819D02*
X26555D01*
D58*
X25690Y34334D02*
G03*
X25690Y35074I-1025J371D01*
G01*
X24161Y35076D02*
G03*
X24161Y34334I1004J-371D01*
G01*
X38969Y36599D02*
Y38529D01*
X39929Y36599D02*
Y38529D01*
X38969D02*
X39929D01*
X38969Y36599D02*
X39929D01*
X42926Y37810D02*
Y39740D01*
X43886Y37810D02*
Y39740D01*
X42926D02*
X43886D01*
X42926Y37810D02*
X43886D01*
X41806Y39855D02*
X43736D01*
X41806Y40815D02*
X43736D01*
X41806Y39855D02*
Y40815D01*
X43736Y39855D02*
Y40815D01*
X24164Y35075D02*
X25684D01*
X24164Y34335D02*
X25684D01*
D59*
X39826Y40359D02*
X40626D01*
X39826Y40959D02*
X40626D01*
X39826D02*
X40226Y40359D01*
X40626Y40959D01*
X42152Y41476D02*
X42652Y41126D01*
X42152Y41476D02*
X42652Y41826D01*
X42152Y41126D02*
Y41826D01*
X42652Y41126D02*
Y41826D01*
X31166Y31335D02*
X31516Y31835D01*
X31866Y31335D01*
X31166Y31835D02*
X31866D01*
X31166Y31335D02*
X31866D01*
X31772Y45094D02*
X32172Y45694D01*
X31372D02*
X31772Y45094D01*
X31372Y45694D02*
X32172D01*
X31372Y45094D02*
X32172D01*
X34570Y45153D02*
X34970Y45753D01*
X35370Y45153D01*
X34570D02*
X35370D01*
X34570Y45753D02*
X35370D01*
D60*
X36722Y45522D02*
Y45758D01*
X36565Y45522D02*
Y45758D01*
X36683Y45640D01*
X36565Y45522D02*
X36683Y45640D01*
X42805Y44817D02*
Y45053D01*
X42963Y44817D02*
Y45053D01*
X42844Y44935D02*
X42963Y44817D01*
X42844Y44935D02*
X42963Y45053D01*
X34628Y33380D02*
X35943D01*
X34628Y34081D02*
X35943D01*
X34628Y33380D02*
Y34081D01*
X35943Y33380D02*
Y34081D01*
X36758Y32344D02*
Y33659D01*
X36057Y32344D02*
Y33659D01*
Y32344D02*
X36758D01*
X36057Y33659D02*
X36758D01*
X35915Y43947D02*
X36178Y43553D01*
Y43947D02*
X35915Y43553D01*
X36309D02*
Y43947D01*
X36506D01*
X36571Y43881D01*
Y43750D01*
X36506Y43684D01*
X36309D01*
X36965Y43553D02*
X36702D01*
X36965Y43816D01*
Y43881D01*
X36899Y43947D01*
X36768D01*
X36702Y43881D01*
X20217Y36909D02*
X20610Y37172D01*
X20217D02*
X20610Y36909D01*
Y37303D02*
X20217D01*
Y37500D01*
X20282Y37565D01*
X20413D01*
X20479Y37500D01*
Y37303D01*
X20610Y37697D02*
Y37828D01*
Y37762D01*
X20217D01*
X20282Y37697D01*
X40089Y35128D02*
Y34865D01*
X40220Y34734D01*
X40351Y34865D01*
Y35128D01*
X40482D02*
X40745D01*
X40613D01*
Y34734D01*
X41138D02*
X40876D01*
X41138Y34997D01*
Y35062D01*
X41073Y35128D01*
X40941D01*
X40876Y35062D01*
X40413Y39144D02*
Y38881D01*
X40545Y38750D01*
X40676Y38881D01*
Y39144D01*
X40807D02*
X41069D01*
X40938D01*
Y38750D01*
X41201D02*
X41332D01*
X41266D01*
Y39144D01*
X41201Y39078D01*
X41890Y36752D02*
Y36489D01*
X42021Y36358D01*
X42152Y36489D01*
Y36752D01*
X42283D02*
Y36358D01*
X42480D01*
X42546Y36424D01*
Y36686D01*
X42480Y36752D01*
X42283D01*
X42677Y36686D02*
X42743Y36752D01*
X42874D01*
X42939Y36686D01*
Y36621D01*
X42874Y36555D01*
X42939Y36489D01*
Y36424D01*
X42874Y36358D01*
X42743D01*
X42677Y36424D01*
Y36489D01*
X42743Y36555D01*
X42677Y36621D01*
Y36686D01*
X42743Y36555D02*
X42874D01*
X37973Y39823D02*
X38235D01*
X38366Y39954D01*
X38235Y40085D01*
X37973D01*
Y40216D02*
X38366D01*
Y40413D01*
X38301Y40479D01*
X38038D01*
X37973Y40413D01*
Y40216D01*
Y40610D02*
Y40872D01*
X38038D01*
X38301Y40610D01*
X38366D01*
X39528Y41988D02*
X39790D01*
X39921Y42119D01*
X39790Y42251D01*
X39528D01*
Y42382D02*
X39921D01*
Y42579D01*
X39856Y42644D01*
X39593D01*
X39528Y42579D01*
Y42382D01*
Y43038D02*
X39593Y42907D01*
X39724Y42775D01*
X39856D01*
X39921Y42841D01*
Y42972D01*
X39856Y43038D01*
X39790D01*
X39724Y42972D01*
Y42775D01*
X38366Y41988D02*
Y41726D01*
X38497Y41594D01*
X38629Y41726D01*
Y41988D01*
X38760D02*
Y41594D01*
X38956D01*
X39022Y41660D01*
Y41922D01*
X38956Y41988D01*
X38760D01*
X39416D02*
X39153D01*
Y41791D01*
X39284Y41857D01*
X39350D01*
X39416Y41791D01*
Y41660D01*
X39350Y41594D01*
X39219D01*
X39153Y41660D01*
X30856Y32933D02*
X31119D01*
X31250Y33064D01*
X31119Y33195D01*
X30856D01*
Y33327D02*
X31250D01*
Y33523D01*
X31184Y33589D01*
X30922D01*
X30856Y33523D01*
Y33327D01*
X31250Y33917D02*
X30856D01*
X31053Y33720D01*
Y33983D01*
X35935Y44547D02*
Y44285D01*
X36066Y44154D01*
X36197Y44285D01*
Y44547D01*
X36329D02*
Y44154D01*
X36525D01*
X36591Y44219D01*
Y44482D01*
X36525Y44547D01*
X36329D01*
X36722Y44482D02*
X36788Y44547D01*
X36919D01*
X36985Y44482D01*
Y44416D01*
X36919Y44350D01*
X36853D01*
X36919D01*
X36985Y44285D01*
Y44219D01*
X36919Y44154D01*
X36788D01*
X36722Y44219D01*
X41723Y45728D02*
X41985D01*
X42116Y45860D01*
X41985Y45991D01*
X41723D01*
Y46122D02*
X42116D01*
Y46319D01*
X42051Y46384D01*
X41788D01*
X41723Y46319D01*
Y46122D01*
X42116Y46778D02*
Y46515D01*
X41854Y46778D01*
X41788D01*
X41723Y46712D01*
Y46581D01*
X41788Y46515D01*
X35975Y40325D02*
X36237D01*
X36368Y40456D01*
X36237Y40587D01*
X35975D01*
Y40718D02*
X36368D01*
Y40915D01*
X36303Y40981D01*
X36040D01*
X35975Y40915D01*
Y40718D01*
X36368Y41112D02*
Y41243D01*
Y41178D01*
X35975D01*
X36040Y41112D01*
X20817Y34902D02*
Y35295D01*
X21014D01*
X21079Y35230D01*
Y35098D01*
X21014Y35033D01*
X20817D01*
X20948D02*
X21079Y34902D01*
X21210D02*
X21342D01*
X21276D01*
Y35295D01*
X21210Y35230D01*
X21801Y35295D02*
X21538D01*
Y35098D01*
X21670Y35164D01*
X21735D01*
X21801Y35098D01*
Y34967D01*
X21735Y34902D01*
X21604D01*
X21538Y34967D01*
X39035Y38701D02*
Y39094D01*
X39232D01*
X39298Y39029D01*
Y38898D01*
X39232Y38832D01*
X39035D01*
X39167D02*
X39298Y38701D01*
X39429D02*
X39560D01*
X39495D01*
Y39094D01*
X39429Y39029D01*
X39954Y38701D02*
Y39094D01*
X39757Y38898D01*
X40019D01*
X20581Y34587D02*
X20187D01*
Y34783D01*
X20253Y34849D01*
X20384D01*
X20450Y34783D01*
Y34587D01*
Y34718D02*
X20581Y34849D01*
Y34980D02*
Y35111D01*
Y35046D01*
X20187D01*
X20253Y34980D01*
Y35308D02*
X20187Y35374D01*
Y35505D01*
X20253Y35571D01*
X20318D01*
X20384Y35505D01*
Y35439D01*
Y35505D01*
X20450Y35571D01*
X20515D01*
X20581Y35505D01*
Y35374D01*
X20515Y35308D01*
X43888Y36713D02*
X43494D01*
Y36909D01*
X43560Y36975D01*
X43691D01*
X43757Y36909D01*
Y36713D01*
Y36844D02*
X43888Y36975D01*
Y37106D02*
Y37237D01*
Y37172D01*
X43494D01*
X43560Y37106D01*
X43888Y37697D02*
Y37434D01*
X43625Y37697D01*
X43560D01*
X43494Y37631D01*
Y37500D01*
X43560Y37434D01*
X41614Y39892D02*
X41221D01*
Y40089D01*
X41286Y40154D01*
X41417D01*
X41483Y40089D01*
Y39892D01*
Y40023D02*
X41614Y40154D01*
Y40285D02*
Y40416D01*
Y40351D01*
X41221D01*
X41286Y40285D01*
X41614Y40613D02*
Y40744D01*
Y40679D01*
X41221D01*
X41286Y40613D01*
X34744Y34213D02*
Y34606D01*
X34941D01*
X35006Y34541D01*
Y34409D01*
X34941Y34344D01*
X34744D01*
X34875D02*
X35006Y34213D01*
X35138D02*
X35269D01*
X35203D01*
Y34606D01*
X35138Y34541D01*
X35466D02*
X35531Y34606D01*
X35662D01*
X35728Y34541D01*
Y34278D01*
X35662Y34213D01*
X35531D01*
X35466Y34278D01*
Y34541D01*
X36132Y33770D02*
Y34163D01*
X36329D01*
X36394Y34098D01*
Y33966D01*
X36329Y33901D01*
X36132D01*
X36263D02*
X36394Y33770D01*
X36525Y33835D02*
X36591Y33770D01*
X36722D01*
X36788Y33835D01*
Y34098D01*
X36722Y34163D01*
X36591D01*
X36525Y34098D01*
Y34032D01*
X36591Y33966D01*
X36788D01*
X36781Y30335D02*
Y30728D01*
X36978D01*
X37044Y30663D01*
Y30531D01*
X36978Y30466D01*
X36781D01*
X36913D02*
X37044Y30335D01*
X37175Y30663D02*
X37241Y30728D01*
X37372D01*
X37437Y30663D01*
Y30597D01*
X37372Y30531D01*
X37437Y30466D01*
Y30400D01*
X37372Y30335D01*
X37241D01*
X37175Y30400D01*
Y30466D01*
X37241Y30531D01*
X37175Y30597D01*
Y30663D01*
X37241Y30531D02*
X37372D01*
X33593Y30354D02*
Y30748D01*
X33789D01*
X33855Y30682D01*
Y30551D01*
X33789Y30486D01*
X33593D01*
X33724D02*
X33855Y30354D01*
X33986Y30748D02*
X34248D01*
Y30682D01*
X33986Y30420D01*
Y30354D01*
X32057Y32687D02*
Y33081D01*
X32254D01*
X32319Y33015D01*
Y32884D01*
X32254Y32818D01*
X32057D01*
X32188D02*
X32319Y32687D01*
X32713Y33081D02*
X32582Y33015D01*
X32451Y32884D01*
Y32753D01*
X32516Y32687D01*
X32647D01*
X32713Y32753D01*
Y32818D01*
X32647Y32884D01*
X32451D01*
X37707Y45984D02*
X37313D01*
Y46181D01*
X37379Y46247D01*
X37510D01*
X37576Y46181D01*
Y45984D01*
Y46115D02*
X37707Y46247D01*
X37313Y46640D02*
Y46378D01*
X37510D01*
X37444Y46509D01*
Y46575D01*
X37510Y46640D01*
X37641D01*
X37707Y46575D01*
Y46443D01*
X37641Y46378D01*
X43888Y45955D02*
X43494D01*
Y46152D01*
X43560Y46217D01*
X43691D01*
X43757Y46152D01*
Y45955D01*
Y46086D02*
X43888Y46217D01*
Y46545D02*
X43494D01*
X43691Y46348D01*
Y46611D01*
X20630Y38809D02*
Y39203D01*
X20827D01*
X20892Y39137D01*
Y39006D01*
X20827Y38940D01*
X20630D01*
X20761D02*
X20892Y38809D01*
X21023Y39137D02*
X21089Y39203D01*
X21220D01*
X21286Y39137D01*
Y39071D01*
X21220Y39006D01*
X21155D01*
X21220D01*
X21286Y38940D01*
Y38875D01*
X21220Y38809D01*
X21089D01*
X21023Y38875D01*
X24734Y38386D02*
Y38779D01*
X24931D01*
X24997Y38714D01*
Y38583D01*
X24931Y38517D01*
X24734D01*
X24865D02*
X24997Y38386D01*
X25390D02*
X25128D01*
X25390Y38648D01*
Y38714D01*
X25325Y38779D01*
X25193D01*
X25128Y38714D01*
X27933Y38356D02*
Y38750D01*
X28130D01*
X28195Y38684D01*
Y38553D01*
X28130Y38487D01*
X27933D01*
X28064D02*
X28195Y38356D01*
X28327D02*
X28458D01*
X28392D01*
Y38750D01*
X28327Y38684D01*
X30997Y37310D02*
X30735D01*
X30669Y37244D01*
Y37113D01*
X30735Y37047D01*
X30997D01*
X31063Y37113D01*
Y37244D01*
X30932Y37178D02*
X31063Y37310D01*
Y37244D02*
X30997Y37310D01*
X31063Y37441D02*
X30669D01*
Y37638D01*
X30735Y37703D01*
X30866D01*
X30932Y37638D01*
Y37441D01*
Y37572D02*
X31063Y37703D01*
Y37834D02*
Y37966D01*
Y37900D01*
X30669D01*
X30735Y37834D01*
X28750Y34773D02*
Y34380D01*
X29012D01*
X29144D02*
X29275D01*
X29209D01*
Y34773D01*
X29144Y34708D01*
X27047Y35558D02*
Y35426D01*
Y35492D01*
X27375D01*
X27441Y35426D01*
Y35361D01*
X27375Y35295D01*
X27441Y35689D02*
Y35820D01*
Y35754D01*
X27047D01*
X27113Y35689D01*
X41181Y42930D02*
Y42667D01*
X41378D01*
Y42799D01*
Y42667D01*
X41575D01*
X41181Y43061D02*
X41509D01*
X41575Y43126D01*
Y43258D01*
X41509Y43323D01*
X41181D01*
X41247Y43454D02*
X41181Y43520D01*
Y43651D01*
X41247Y43717D01*
X41312D01*
X41378Y43651D01*
Y43586D01*
Y43651D01*
X41444Y43717D01*
X41509D01*
X41575Y43651D01*
Y43520D01*
X41509Y43454D01*
X37452Y44114D02*
X37190D01*
Y43917D01*
X37321D01*
X37190D01*
Y43720D01*
X37584Y44114D02*
Y43786D01*
X37649Y43720D01*
X37780D01*
X37846Y43786D01*
Y44114D01*
X38240Y43720D02*
X37977D01*
X38240Y43982D01*
Y44048D01*
X38174Y44114D01*
X38043D01*
X37977Y44048D01*
X35345Y42536D02*
Y42274D01*
X35541D01*
Y42405D01*
Y42274D01*
X35738D01*
X35345Y42667D02*
X35673D01*
X35738Y42733D01*
Y42864D01*
X35673Y42930D01*
X35345D01*
X35738Y43061D02*
Y43192D01*
Y43126D01*
X35345D01*
X35410Y43061D01*
X37697Y36752D02*
X38091D01*
Y36949D01*
X38025Y37014D01*
X37763D01*
X37697Y36949D01*
Y36752D01*
Y37146D02*
X38091D01*
Y37342D01*
X38025Y37408D01*
X37763D01*
X37697Y37342D01*
Y37146D01*
X37763Y37539D02*
X37697Y37605D01*
Y37736D01*
X37763Y37801D01*
X37828D01*
X37894Y37736D01*
Y37670D01*
Y37736D01*
X37959Y37801D01*
X38025D01*
X38091Y37736D01*
Y37605D01*
X38025Y37539D01*
X31217Y39891D02*
Y39497D01*
X31413D01*
X31479Y39563D01*
Y39825D01*
X31413Y39891D01*
X31217D01*
X31610D02*
Y39497D01*
X31807D01*
X31873Y39563D01*
Y39825D01*
X31807Y39891D01*
X31610D01*
X32266Y39497D02*
X32004D01*
X32266Y39759D01*
Y39825D01*
X32201Y39891D01*
X32069D01*
X32004Y39825D01*
X22381Y44779D02*
Y44386D01*
X22578D01*
X22644Y44451D01*
Y44714D01*
X22578Y44779D01*
X22381D01*
X22775D02*
Y44386D01*
X22972D01*
X23037Y44451D01*
Y44714D01*
X22972Y44779D01*
X22775D01*
X23169Y44386D02*
X23300D01*
X23234D01*
Y44779D01*
X23169Y44714D01*
X20453Y30492D02*
X20846D01*
Y30689D01*
X20781Y30755D01*
X20518D01*
X20453Y30689D01*
Y30492D01*
X20846Y30886D02*
X20584D01*
X20453Y31017D01*
X20584Y31148D01*
X20846D01*
X20650D01*
Y30886D01*
X20846Y31542D02*
Y31279D01*
X20584Y31542D01*
X20518D01*
X20453Y31476D01*
Y31345D01*
X20518Y31279D01*
X33593Y33720D02*
Y33327D01*
X33789D01*
X33855Y33392D01*
Y33655D01*
X33789Y33720D01*
X33593D01*
X33986Y33327D02*
Y33589D01*
X34117Y33720D01*
X34248Y33589D01*
Y33327D01*
Y33524D01*
X33986D01*
X34380Y33327D02*
X34511D01*
X34445D01*
Y33720D01*
X34380Y33655D01*
X22723Y34593D02*
X22658Y34527D01*
Y34396D01*
X22723Y34331D01*
X22986D01*
X23051Y34396D01*
Y34527D01*
X22986Y34593D01*
X23051Y34987D02*
Y34724D01*
X22789Y34987D01*
X22723D01*
X22658Y34921D01*
Y34790D01*
X22723Y34724D01*
X23051Y35315D02*
X22658D01*
X22854Y35118D01*
Y35380D01*
X24263Y34107D02*
X24197Y34173D01*
X24066D01*
X24000Y34107D01*
Y33845D01*
X24066Y33779D01*
X24197D01*
X24263Y33845D01*
X24656Y33779D02*
X24394D01*
X24656Y34041D01*
Y34107D01*
X24591Y34173D01*
X24460D01*
X24394Y34107D01*
X24788D02*
X24853Y34173D01*
X24984D01*
X25050Y34107D01*
Y34041D01*
X24984Y33976D01*
X24919D01*
X24984D01*
X25050Y33910D01*
Y33845D01*
X24984Y33779D01*
X24853D01*
X24788Y33845D01*
X23550Y35006D02*
X23484Y34941D01*
Y34810D01*
X23550Y34744D01*
X23812D01*
X23878Y34810D01*
Y34941D01*
X23812Y35006D01*
X23878Y35400D02*
Y35138D01*
X23616Y35400D01*
X23550D01*
X23484Y35334D01*
Y35203D01*
X23550Y35138D01*
X23878Y35794D02*
Y35531D01*
X23616Y35794D01*
X23550D01*
X23484Y35728D01*
Y35597D01*
X23550Y35531D01*
X40853Y30653D02*
X40787Y30718D01*
X40656D01*
X40591Y30653D01*
Y30390D01*
X40656Y30325D01*
X40787D01*
X40853Y30390D01*
X41247Y30325D02*
X40984D01*
X41247Y30587D01*
Y30653D01*
X41181Y30718D01*
X41050D01*
X40984Y30653D01*
X41378Y30325D02*
X41509D01*
X41443D01*
Y30718D01*
X41378Y30653D01*
X40331Y37572D02*
X40266Y37638D01*
X40134D01*
X40069Y37572D01*
Y37310D01*
X40134Y37244D01*
X40266D01*
X40331Y37310D01*
X40725Y37244D02*
X40462D01*
X40725Y37506D01*
Y37572D01*
X40659Y37638D01*
X40528D01*
X40462Y37572D01*
X40856D02*
X40922Y37638D01*
X41053D01*
X41118Y37572D01*
Y37310D01*
X41053Y37244D01*
X40922D01*
X40856Y37310D01*
Y37572D01*
X36355Y34514D02*
X36290Y34449D01*
Y34318D01*
X36355Y34252D01*
X36617D01*
X36683Y34318D01*
Y34449D01*
X36617Y34514D01*
X36683Y34646D02*
Y34777D01*
Y34711D01*
X36290D01*
X36355Y34646D01*
X36617Y34974D02*
X36683Y35039D01*
Y35170D01*
X36617Y35236D01*
X36355D01*
X36290Y35170D01*
Y35039D01*
X36355Y34974D01*
X36421D01*
X36486Y35039D01*
Y35236D01*
X27526Y34383D02*
X27461Y34449D01*
X27329D01*
X27264Y34383D01*
Y34121D01*
X27329Y34055D01*
X27461D01*
X27526Y34121D01*
X27657Y34055D02*
X27789D01*
X27723D01*
Y34449D01*
X27657Y34383D01*
X27985D02*
X28051Y34449D01*
X28182D01*
X28248Y34383D01*
Y34318D01*
X28182Y34252D01*
X28248Y34186D01*
Y34121D01*
X28182Y34055D01*
X28051D01*
X27985Y34121D01*
Y34186D01*
X28051Y34252D01*
X27985Y34318D01*
Y34383D01*
X28051Y34252D02*
X28182D01*
X23333Y30712D02*
X23268Y30777D01*
X23136D01*
X23071Y30712D01*
Y30449D01*
X23136Y30384D01*
X23268D01*
X23333Y30449D01*
X23464Y30384D02*
X23596D01*
X23530D01*
Y30777D01*
X23464Y30712D01*
X23792Y30777D02*
X24055D01*
Y30712D01*
X23792Y30449D01*
Y30384D01*
X32940Y30410D02*
X32874Y30344D01*
Y30213D01*
X32940Y30148D01*
X33202D01*
X33268Y30213D01*
Y30344D01*
X33202Y30410D01*
X33268Y30541D02*
Y30672D01*
Y30607D01*
X32874D01*
X32940Y30541D01*
X32874Y31132D02*
X32940Y31000D01*
X33071Y30869D01*
X33202D01*
X33268Y30935D01*
Y31066D01*
X33202Y31132D01*
X33137D01*
X33071Y31066D01*
Y30869D01*
X33331Y40805D02*
X33266Y40870D01*
X33135D01*
X33069Y40805D01*
Y40542D01*
X33135Y40477D01*
X33266D01*
X33331Y40542D01*
X33463Y40477D02*
X33594D01*
X33528D01*
Y40870D01*
X33463Y40805D01*
X34053Y40870D02*
X33791D01*
Y40673D01*
X33922Y40739D01*
X33987D01*
X34053Y40673D01*
Y40542D01*
X33987Y40477D01*
X33856D01*
X33791Y40542D01*
X29602Y35751D02*
X29536Y35817D01*
X29405D01*
X29340Y35751D01*
Y35489D01*
X29405Y35423D01*
X29536D01*
X29602Y35489D01*
X29733Y35423D02*
X29864D01*
X29799D01*
Y35817D01*
X29733Y35751D01*
X30258Y35423D02*
Y35817D01*
X30061Y35620D01*
X30324D01*
X29652Y38822D02*
X29587Y38888D01*
X29455D01*
X29390Y38822D01*
Y38560D01*
X29455Y38494D01*
X29587D01*
X29652Y38560D01*
X29783Y38494D02*
X29915D01*
X29849D01*
Y38888D01*
X29783Y38822D01*
X30111D02*
X30177Y38888D01*
X30308D01*
X30374Y38822D01*
Y38756D01*
X30308Y38691D01*
X30243D01*
X30308D01*
X30374Y38625D01*
Y38560D01*
X30308Y38494D01*
X30177D01*
X30111Y38560D01*
X24908Y35469D02*
X24843Y35403D01*
Y35272D01*
X24908Y35207D01*
X25171D01*
X25236Y35272D01*
Y35403D01*
X25171Y35469D01*
X25236Y35600D02*
Y35731D01*
Y35666D01*
X24843D01*
X24908Y35600D01*
X25236Y36191D02*
Y35928D01*
X24974Y36191D01*
X24908D01*
X24843Y36125D01*
Y35994D01*
X24908Y35928D01*
X31424Y35351D02*
X31358Y35285D01*
Y35154D01*
X31424Y35089D01*
X31686D01*
X31752Y35154D01*
Y35285D01*
X31686Y35351D01*
X31752Y35482D02*
Y35613D01*
Y35548D01*
X31358D01*
X31424Y35482D01*
X31752Y35810D02*
Y35941D01*
Y35876D01*
X31358D01*
X31424Y35810D01*
X28038Y35440D02*
X27973Y35374D01*
Y35243D01*
X28038Y35177D01*
X28301D01*
X28366Y35243D01*
Y35374D01*
X28301Y35440D01*
X28366Y35571D02*
Y35702D01*
Y35636D01*
X27973D01*
X28038Y35571D01*
Y35899D02*
X27973Y35964D01*
Y36095D01*
X28038Y36161D01*
X28301D01*
X28366Y36095D01*
Y35964D01*
X28301Y35899D01*
X28038D01*
X31640Y33812D02*
X31575Y33878D01*
X31444D01*
X31378Y33812D01*
Y33550D01*
X31444Y33484D01*
X31575D01*
X31640Y33550D01*
X31772D02*
X31837Y33484D01*
X31968D01*
X32034Y33550D01*
Y33812D01*
X31968Y33878D01*
X31837D01*
X31772Y33812D01*
Y33747D01*
X31837Y33681D01*
X32034D01*
X31207Y34541D02*
X31142Y34606D01*
X31010D01*
X30945Y34541D01*
Y34278D01*
X31010Y34213D01*
X31142D01*
X31207Y34278D01*
X31338Y34541D02*
X31404Y34606D01*
X31535D01*
X31601Y34541D01*
Y34475D01*
X31535Y34409D01*
X31601Y34344D01*
Y34278D01*
X31535Y34213D01*
X31404D01*
X31338Y34278D01*
Y34344D01*
X31404Y34409D01*
X31338Y34475D01*
Y34541D01*
X31404Y34409D02*
X31535D01*
X35051Y40799D02*
X34986Y40865D01*
X34855D01*
X34789Y40799D01*
Y40537D01*
X34855Y40471D01*
X34986D01*
X35051Y40537D01*
X35183Y40865D02*
X35445D01*
Y40799D01*
X35183Y40537D01*
Y40471D01*
X21443Y40220D02*
X21378Y40285D01*
X21247D01*
X21181Y40220D01*
Y39957D01*
X21247Y39892D01*
X21378D01*
X21443Y39957D01*
X21837Y40285D02*
X21706Y40220D01*
X21575Y40089D01*
Y39957D01*
X21640Y39892D01*
X21771D01*
X21837Y39957D01*
Y40023D01*
X21771Y40089D01*
X21575D01*
X24101Y45190D02*
X24035Y45256D01*
X23904D01*
X23839Y45190D01*
Y44928D01*
X23904Y44862D01*
X24035D01*
X24101Y44928D01*
X24495Y45256D02*
X24232D01*
Y45059D01*
X24363Y45125D01*
X24429D01*
X24495Y45059D01*
Y44928D01*
X24429Y44862D01*
X24298D01*
X24232Y44928D01*
X25253Y45938D02*
X25187Y46004D01*
X25056D01*
X24990Y45938D01*
Y45676D01*
X25056Y45610D01*
X25187D01*
X25253Y45676D01*
X25581Y45610D02*
Y46004D01*
X25384Y45807D01*
X25646D01*
X21099Y41630D02*
X21034Y41565D01*
Y41434D01*
X21099Y41368D01*
X21362D01*
X21427Y41434D01*
Y41565D01*
X21362Y41630D01*
X21099Y41762D02*
X21034Y41827D01*
Y41958D01*
X21099Y42024D01*
X21165D01*
X21230Y41958D01*
Y41893D01*
Y41958D01*
X21296Y42024D01*
X21362D01*
X21427Y41958D01*
Y41827D01*
X21362Y41762D01*
X21079Y43136D02*
X21014Y43071D01*
Y42940D01*
X21079Y42874D01*
X21342D01*
X21407Y42940D01*
Y43071D01*
X21342Y43136D01*
X21407Y43530D02*
Y43268D01*
X21145Y43530D01*
X21079D01*
X21014Y43464D01*
Y43333D01*
X21079Y43268D01*
X29573Y42631D02*
X29508Y42697D01*
X29377D01*
X29311Y42631D01*
Y42369D01*
X29377Y42303D01*
X29508D01*
X29573Y42369D01*
X29705Y42303D02*
X29836D01*
X29770D01*
Y42697D01*
X29705Y42631D01*
X24803Y46585D02*
X25066Y46191D01*
Y46585D02*
X24803Y46191D01*
X25197D02*
Y46585D01*
X25394D01*
X25459Y46519D01*
Y46388D01*
X25394Y46322D01*
X25197D01*
X25590Y46191D02*
X25721D01*
X25656D01*
Y46585D01*
X25590Y46519D01*
X25827Y35449D02*
Y35318D01*
Y35384D01*
X26155D01*
X26220Y35318D01*
Y35253D01*
X26155Y35187D01*
X26220Y35843D02*
Y35581D01*
X25958Y35843D01*
X25892D01*
X25827Y35777D01*
Y35646D01*
X25892Y35581D01*
X30607Y41506D02*
X30344D01*
Y41309D01*
X30476D01*
X30344D01*
Y41112D01*
X30738Y41506D02*
Y41178D01*
X30804Y41112D01*
X30935D01*
X31000Y41178D01*
Y41506D01*
X31328Y41112D02*
Y41506D01*
X31132Y41309D01*
X31394D01*
X31837Y41447D02*
X31575D01*
Y41250D01*
X31706D01*
X31575D01*
Y41053D01*
X31968Y41447D02*
Y41119D01*
X32034Y41053D01*
X32165D01*
X32231Y41119D01*
Y41447D01*
X32624D02*
X32362D01*
Y41250D01*
X32493Y41316D01*
X32559D01*
X32624Y41250D01*
Y41119D01*
X32559Y41053D01*
X32428D01*
X32362Y41119D01*
X32904Y42894D02*
Y42631D01*
X33035Y42500D01*
X33166Y42631D01*
Y42894D01*
X33297D02*
Y42500D01*
X33494D01*
X33560Y42566D01*
Y42828D01*
X33494Y42894D01*
X33297D01*
X33691Y42566D02*
X33756Y42500D01*
X33887D01*
X33953Y42566D01*
Y42828D01*
X33887Y42894D01*
X33756D01*
X33691Y42828D01*
Y42762D01*
X33756Y42697D01*
X33953D01*
X34350Y44016D02*
Y43753D01*
X34482Y43622D01*
X34613Y43753D01*
Y44016D01*
X34744D02*
Y43622D01*
X34941D01*
X35006Y43688D01*
Y43950D01*
X34941Y44016D01*
X34744D01*
X35138Y43622D02*
X35269D01*
X35203D01*
Y44016D01*
X35138Y43950D01*
X35466D02*
X35531Y44016D01*
X35662D01*
X35728Y43950D01*
Y43688D01*
X35662Y43622D01*
X35531D01*
X35466Y43688D01*
Y43950D01*
X32854Y46752D02*
Y46489D01*
X32986Y46358D01*
X33117Y46489D01*
Y46752D01*
X33248D02*
Y46358D01*
X33445D01*
X33510Y46424D01*
Y46686D01*
X33445Y46752D01*
X33248D01*
X33641Y46358D02*
X33773D01*
X33707D01*
Y46752D01*
X33641Y46686D01*
X33969Y46358D02*
X34101D01*
X34035D01*
Y46752D01*
X33969Y46686D01*
X31024Y43888D02*
Y43625D01*
X31155Y43494D01*
X31286Y43625D01*
Y43888D01*
X31417D02*
Y43494D01*
X31614D01*
X31680Y43560D01*
Y43822D01*
X31614Y43888D01*
X31417D01*
X31811Y43494D02*
X31942D01*
X31876D01*
Y43888D01*
X31811Y43822D01*
X32401Y43494D02*
X32139D01*
X32401Y43756D01*
Y43822D01*
X32336Y43888D01*
X32204D01*
X32139Y43822D01*
X26647Y42977D02*
Y42583D01*
X26844D01*
X26910Y42649D01*
Y42911D01*
X26844Y42977D01*
X26647D01*
X27041D02*
Y42583D01*
X27238D01*
X27303Y42649D01*
Y42911D01*
X27238Y42977D01*
X27041D01*
X27631Y42583D02*
Y42977D01*
X27435Y42780D01*
X27697D01*
X22766Y38780D02*
Y39173D01*
X22963D01*
X23028Y39108D01*
Y38976D01*
X22963Y38911D01*
X22766D01*
X23159Y39042D02*
Y38780D01*
Y38911D01*
X23225Y38976D01*
X23291Y39042D01*
X23356D01*
X23618Y38780D02*
X23750D01*
X23815Y38845D01*
Y38976D01*
X23750Y39042D01*
X23618D01*
X23553Y38976D01*
Y38845D01*
X23618Y38780D01*
X24078Y38648D02*
X24143D01*
X24209Y38714D01*
Y39042D01*
X24012D01*
X23946Y38976D01*
Y38845D01*
X24012Y38780D01*
X24209D01*
X24577Y39006D02*
Y39399D01*
X24774D01*
X24839Y39334D01*
Y39203D01*
X24774Y39137D01*
X24577D01*
X24708D02*
X24839Y39006D01*
X25233Y39399D02*
X24970D01*
Y39006D01*
X25233D01*
X24970Y39203D02*
X25102D01*
X25626Y39334D02*
X25561Y39399D01*
X25430D01*
X25364Y39334D01*
Y39268D01*
X25430Y39203D01*
X25561D01*
X25626Y39137D01*
Y39072D01*
X25561Y39006D01*
X25430D01*
X25364Y39072D01*
X26020Y39399D02*
X25757D01*
Y39006D01*
X26020D01*
X25757Y39203D02*
X25889D01*
X26151Y39399D02*
X26413D01*
X26282D01*
Y39006D01*
X26772Y39399D02*
X26903D01*
X26837D01*
Y39006D01*
X26772D01*
X26903D01*
X27362Y39334D02*
X27296Y39399D01*
X27165D01*
X27100Y39334D01*
Y39268D01*
X27165Y39203D01*
X27296D01*
X27362Y39137D01*
Y39072D01*
X27296Y39006D01*
X27165D01*
X27100Y39072D01*
X27493Y39006D02*
Y39399D01*
X27690D01*
X27756Y39334D01*
Y39203D01*
X27690Y39137D01*
X27493D01*
X27887Y38940D02*
X28149D01*
X28543Y39334D02*
X28477Y39399D01*
X28346D01*
X28280Y39334D01*
Y39268D01*
X28346Y39203D01*
X28477D01*
X28543Y39137D01*
Y39072D01*
X28477Y39006D01*
X28346D01*
X28280Y39072D01*
X28674Y39399D02*
X28936D01*
X28805D01*
Y39006D01*
D61*
X40768Y38543D02*
X41122D01*
X40768Y37835D02*
X41122D01*
M02*
