G04*
G04 #@! TF.GenerationSoftware,Altium Limited,Altium Designer,18.1.9 (240)*
G04*
G04 Layer_Physical_Order=1*
G04 Layer_Color=255*
%FSLAX24Y24*%
%MOIN*%
G70*
G01*
G75*
%ADD12C,0.0098*%
%ADD13C,0.0079*%
%ADD18C,0.0394*%
%ADD19C,0.0197*%
%ADD21R,0.0433X0.0512*%
%ADD22O,0.0118X0.0315*%
%ADD23O,0.0315X0.0118*%
G04:AMPARAMS|DCode=24|XSize=43.3mil|YSize=23.6mil|CornerRadius=5.9mil|HoleSize=0mil|Usage=FLASHONLY|Rotation=0.000|XOffset=0mil|YOffset=0mil|HoleType=Round|Shape=RoundedRectangle|*
%AMROUNDEDRECTD24*
21,1,0.0433,0.0118,0,0,0.0*
21,1,0.0315,0.0236,0,0,0.0*
1,1,0.0118,0.0157,-0.0059*
1,1,0.0118,-0.0157,-0.0059*
1,1,0.0118,-0.0157,0.0059*
1,1,0.0118,0.0157,0.0059*
%
%ADD24ROUNDEDRECTD24*%
G04:AMPARAMS|DCode=25|XSize=94.5mil|YSize=59.1mil|CornerRadius=14.8mil|HoleSize=0mil|Usage=FLASHONLY|Rotation=0.000|XOffset=0mil|YOffset=0mil|HoleType=Round|Shape=RoundedRectangle|*
%AMROUNDEDRECTD25*
21,1,0.0945,0.0295,0,0,0.0*
21,1,0.0650,0.0591,0,0,0.0*
1,1,0.0295,0.0325,-0.0148*
1,1,0.0295,-0.0325,-0.0148*
1,1,0.0295,-0.0325,0.0148*
1,1,0.0295,0.0325,0.0148*
%
%ADD25ROUNDEDRECTD25*%
G04:AMPARAMS|DCode=26|XSize=31.5mil|YSize=35.4mil|CornerRadius=7.9mil|HoleSize=0mil|Usage=FLASHONLY|Rotation=0.000|XOffset=0mil|YOffset=0mil|HoleType=Round|Shape=RoundedRectangle|*
%AMROUNDEDRECTD26*
21,1,0.0315,0.0197,0,0,0.0*
21,1,0.0157,0.0354,0,0,0.0*
1,1,0.0157,0.0079,-0.0098*
1,1,0.0157,-0.0079,-0.0098*
1,1,0.0157,-0.0079,0.0098*
1,1,0.0157,0.0079,0.0098*
%
%ADD26ROUNDEDRECTD26*%
%ADD27R,0.0236X0.0217*%
%ADD52R,0.0412X0.0197*%
%ADD53R,0.0189X0.0189*%
%ADD54R,0.0354X0.0276*%
%ADD55R,0.0276X0.0354*%
%ADD56R,0.0394X0.0354*%
%ADD57R,0.0354X0.0394*%
%ADD58R,0.1457X0.1457*%
%ADD59R,0.0413X0.0551*%
%ADD60R,0.0571X0.0453*%
%ADD61C,0.0472*%
%ADD62C,0.0591*%
%ADD63C,0.0138*%
%ADD64C,0.0236*%
%ADD65R,0.1439X0.0217*%
%ADD66C,0.0630*%
%ADD67R,0.0630X0.0630*%
%ADD68R,0.0630X0.0630*%
%ADD69C,0.0709*%
%ADD70C,0.1378*%
%ADD71C,0.1024*%
%ADD72R,0.0709X0.0709*%
%ADD73C,0.2362*%
%ADD74C,0.1260*%
%ADD75C,0.0236*%
G36*
X12830Y22580D02*
X12830Y22581D01*
X2293D01*
Y20039D01*
X5168D01*
Y19734D01*
X5580D01*
Y20039D01*
X6074D01*
Y19734D01*
X6486D01*
Y20570D01*
X6486Y20571D01*
X3191D01*
Y21670D01*
X3191Y21670D01*
X5580D01*
X5580Y21670D01*
Y21341D01*
X5168D01*
Y20843D01*
X6485D01*
X6486Y20842D01*
X6672Y20571D01*
Y19887D01*
X6861Y19887D01*
Y20629D01*
X6486Y21180D01*
Y21341D01*
X6075Y21341D01*
X6074D01*
X6074Y21807D01*
Y22082D01*
X12830Y22083D01*
X12830Y22580D01*
D02*
G37*
D12*
X10079Y14567D02*
X10276Y14764D01*
X7726Y17195D02*
X8337Y16585D01*
X8996D01*
X13189Y15098D02*
Y15384D01*
X12500Y16073D02*
X13189Y15384D01*
X11939Y16073D02*
X12500D01*
X11939Y15718D02*
X12343D01*
X12579Y15482D01*
Y15108D02*
Y15482D01*
X11467Y15718D02*
X11939D01*
X11388Y15797D02*
X11467Y15718D01*
X10965Y15797D02*
X11388D01*
X11467Y16073D02*
X11939D01*
X11388Y15994D02*
X11467Y16073D01*
X10965Y15994D02*
X11388D01*
X10886Y17785D02*
X11191D01*
X10669Y17569D02*
X10886Y17785D01*
X10669Y17274D02*
Y17569D01*
X7835Y16270D02*
X8100D01*
X8179Y16191D01*
X8996D01*
X8533Y15994D02*
X8996D01*
X8209Y15669D02*
X8533Y15994D01*
X7835Y15669D02*
X8209D01*
X7234Y14921D02*
X7667Y14488D01*
X8204D01*
X8386Y14670D01*
Y15506D01*
X8677Y15797D01*
X8996D01*
X7982Y14016D02*
X8563Y14596D01*
Y15433D01*
X8730Y15600D01*
X8996D01*
X8957Y14577D02*
Y14744D01*
X9291Y15079D01*
Y15305D01*
X9675Y14567D02*
X10079Y14970D01*
Y15305D01*
X10276Y14764D02*
Y15305D01*
X10384Y14055D02*
Y14577D01*
X10472Y14665D01*
Y15305D01*
X11900Y14675D02*
Y15079D01*
X11220Y15600D02*
X11427Y15394D01*
X10965Y15600D02*
X11220D01*
X11152Y14311D02*
Y14528D01*
X10669Y15010D02*
X11152Y14528D01*
X10669Y15010D02*
Y15305D01*
X18642Y14114D02*
Y16821D01*
X18071Y17392D02*
X18642Y16821D01*
X17707Y17392D02*
X18071D01*
X16241Y18858D02*
X17707Y17392D01*
X9784Y18858D02*
X16241D01*
X8543Y17618D02*
X9784Y18858D01*
X8543Y16968D02*
Y17618D01*
Y16968D02*
X8730Y16782D01*
X8996D01*
X18376Y13386D02*
Y16240D01*
X16093Y18524D02*
X18376Y16240D01*
X9922Y18524D02*
X16093D01*
X16457Y13061D02*
Y13780D01*
X17628Y13061D02*
X17638Y13051D01*
X16457Y13061D02*
X17628D01*
X17638Y13051D02*
X18041D01*
X18376Y13386D01*
X9291Y17893D02*
X9922Y18524D01*
X9291Y17274D02*
Y17893D01*
X15370Y18346D02*
X16295Y17421D01*
X9996Y18346D02*
X15370D01*
X9488Y17839D02*
X9996Y18346D01*
X9488Y17274D02*
Y17839D01*
X13547Y18169D02*
X14295Y17421D01*
X10069Y18169D02*
X13547D01*
X9685Y17785D02*
X10069Y18169D01*
X9685Y17274D02*
Y17785D01*
D13*
X18189Y17510D02*
G03*
X18071Y17559I-118J-118D01*
G01*
X18189Y17510D02*
G03*
X18071Y17559I-118J-118D01*
G01*
X17186Y16722D02*
G03*
X17583Y16796I176J157D01*
G01*
X17279Y17101D02*
G03*
X17186Y17037I84J-221D01*
G01*
X16998D02*
G03*
X16887Y16991I0J-157D01*
G01*
X16998Y17037D02*
G03*
X16886Y16991I0J-157D01*
G01*
X16359Y18977D02*
G03*
X16241Y19026I-118J-118D01*
G01*
X16359Y18977D02*
G03*
X16241Y19026I-118J-118D01*
G01*
X15728Y17421D02*
G03*
X15728Y17421I-433J0D01*
G01*
X16562Y16667D02*
G03*
X16516Y16555I111J-112D01*
G01*
X16562Y16666D02*
G03*
X16516Y16555I111J-111D01*
G01*
X18071Y16051D02*
G03*
X18071Y16051I-433J0D01*
G01*
X18543Y13899D02*
G03*
X18740Y13899I98J215D01*
G01*
X18071Y15051D02*
G03*
X17234Y15209I-433J0D01*
G01*
Y14894D02*
G03*
X18071Y15051I403J157D01*
G01*
X16924Y14940D02*
G03*
X17035Y14894I112J111D01*
G01*
X16924Y14940D02*
G03*
X17035Y14894I111J111D01*
G01*
X16516Y15413D02*
G03*
X16562Y15302I157J0D01*
G01*
X16516Y15413D02*
G03*
X16562Y15302I157J0D01*
G01*
X15988Y14530D02*
G03*
X15876Y14577I-112J-111D01*
G01*
X15987Y14531D02*
G03*
X15876Y14577I-111J-111D01*
G01*
X16299Y14154D02*
G03*
X16253Y14265I-157J0D01*
G01*
X16299Y14154D02*
G03*
X16253Y14265I-157J0D01*
G01*
X14728Y17421D02*
G03*
X14131Y17822I-433J0D01*
G01*
X13895Y17585D02*
G03*
X14728Y17421I401J-164D01*
G01*
X14715Y16043D02*
G03*
X14449Y16309I-266J0D01*
G01*
X13799D02*
G03*
X13533Y16043I0J-266D01*
G01*
X12618Y16191D02*
G03*
X12500Y16240I-118J-118D01*
G01*
X12618Y16191D02*
G03*
X12500Y16240I-118J-118D01*
G01*
X14449Y15482D02*
G03*
X14715Y15748I0J266D01*
G01*
X13533D02*
G03*
X13799Y15482I266J0D01*
G01*
X12461Y15837D02*
G03*
X12343Y15886I-118J-118D01*
G01*
X12461Y15837D02*
G03*
X12343Y15886I-118J-118D01*
G01*
X12746Y15482D02*
G03*
X12697Y15601I-167J0D01*
G01*
X12746Y15482D02*
G03*
X12697Y15601I-167J0D01*
G01*
X10876Y17952D02*
G03*
X10768Y17904I10J-167D01*
G01*
X10876Y17952D02*
G03*
X10768Y17904I10J-167D01*
G01*
X10837Y17453D02*
G03*
X10894Y17490I-98J215D01*
G01*
X10846Y17372D02*
G03*
X10837Y17430I-177J0D01*
G01*
X12237Y16240D02*
G03*
X12096Y16309I-140J-108D01*
G01*
X11781D02*
G03*
X11641Y16240I0J-177D01*
G01*
X11467D02*
G03*
X11348Y16191I0J-167D01*
G01*
X11467Y16240D02*
G03*
X11348Y16191I0J-167D01*
G01*
X11240Y16782D02*
G03*
X11210Y16880I-177J0D01*
G01*
D02*
G03*
X11240Y16978I-147J98D01*
G01*
Y16585D02*
G03*
X11210Y16683I-177J0D01*
G01*
D02*
G03*
X11240Y16782I-147J98D01*
G01*
Y16978D02*
G03*
X11063Y17156I-177J0D01*
G01*
X11240Y16388D02*
G03*
X11210Y16486I-177J0D01*
G01*
Y16289D02*
G03*
X11240Y16388I-147J98D01*
G01*
X11210Y16486D02*
G03*
X11240Y16585I-147J98D01*
G01*
Y16191D02*
G03*
X11210Y16289I-177J0D01*
G01*
X13354Y15413D02*
G03*
X13307Y15502I-165J-30D01*
G01*
X13354Y15413D02*
G03*
X13307Y15502I-165J-30D01*
G01*
X14537Y14577D02*
G03*
X14426Y14530I0J-157D01*
G01*
X14537Y14577D02*
G03*
X14426Y14531I0J-157D01*
G01*
X14092Y14196D02*
G03*
X14045Y14085I111J-112D01*
G01*
X14091Y14196D02*
G03*
X14045Y14085I111J-111D01*
G01*
X12096Y15482D02*
G03*
X12237Y15551I0J177D01*
G01*
X12156Y15276D02*
G03*
X12109Y15387I-157J0D01*
G01*
X12156Y15276D02*
G03*
X12109Y15387I-157J0D01*
G01*
X12109Y14997D02*
G03*
X12156Y15108I-111J112D01*
G01*
X12109Y14997D02*
G03*
X12156Y15108I-111J111D01*
G01*
X18494Y13268D02*
G03*
X18543Y13386I-118J118D01*
G01*
X18071Y14051D02*
G03*
X18071Y14051I-433J0D01*
G01*
X18016Y13262D02*
G03*
X17243Y13228I-378J-211D01*
G01*
X18494Y13268D02*
G03*
X18543Y13386I-118J118D01*
G01*
X18041Y12884D02*
G03*
X18160Y12933I0J167D01*
G01*
X18041Y12884D02*
G03*
X18160Y12933I0J167D01*
G01*
X17234Y12894D02*
G03*
X18037Y12884I403J157D01*
G01*
X18071Y7244D02*
G03*
X18025Y7355I-157J0D01*
G01*
X18071Y7244D02*
G03*
X18025Y7356I-157J0D01*
G01*
X18025Y5381D02*
G03*
X18071Y5492I-111J111D01*
G01*
X18025Y5381D02*
G03*
X18071Y5492I-111J112D01*
G01*
X17402Y3307D02*
G03*
X17402Y3307I-472J0D01*
G01*
D02*
G03*
X17402Y3307I-472J0D01*
G01*
X16265Y12707D02*
G03*
X16288Y12746I-123J98D01*
G01*
X14045Y13652D02*
G03*
X14092Y13540I157J0D01*
G01*
X14045Y13652D02*
G03*
X14091Y13540I157J0D01*
G01*
X13960Y13645D02*
G03*
X13794Y13681I-111J-111D01*
G01*
X16265Y12707D02*
G03*
X16288Y12746I-123J98D01*
G01*
X17033Y11260D02*
G03*
X17166Y11315I0J187D01*
G01*
X17033Y11260D02*
G03*
X17166Y11315I0J187D01*
G01*
X16046Y11975D02*
G03*
X16093Y12087I-111J111D01*
G01*
X16046Y11975D02*
G03*
X16093Y12087I-111J112D01*
G01*
X15748Y11742D02*
G03*
X15859Y11788I0J157D01*
G01*
X15748Y11742D02*
G03*
X15860Y11788I0J157D01*
G01*
X12707Y13681D02*
G03*
X12595Y13635I0J-157D01*
G01*
X12707Y13681D02*
G03*
X12595Y13635I0J-157D01*
G01*
X12231Y13271D02*
G03*
X12185Y13159I111J-112D01*
G01*
X12231Y13271D02*
G03*
X12185Y13159I111J-111D01*
G01*
Y12224D02*
G03*
X12231Y12113I157J0D01*
G01*
X12185Y12224D02*
G03*
X12231Y12113I157J0D01*
G01*
X12372Y11959D02*
G03*
X12260Y11912I0J-157D01*
G01*
X12372Y11959D02*
G03*
X12261Y11913I0J-157D01*
G01*
X11995Y11647D02*
G03*
X11949Y11535I111J-112D01*
G01*
X11995Y11647D02*
G03*
X11949Y11535I111J-111D01*
G01*
X15377Y11208D02*
G03*
X15412Y11260I-111J111D01*
G01*
X15377Y11208D02*
G03*
X15412Y11260I-111J112D01*
G01*
X15177Y11073D02*
G03*
X15289Y11119I0J157D01*
G01*
X15177Y11073D02*
G03*
X15289Y11119I0J157D01*
G01*
X14528Y11100D02*
G03*
X14577Y11078I89J130D01*
G01*
X14528Y11100D02*
G03*
X14577Y11078I89J130D01*
G01*
X15020Y6535D02*
G03*
X15020Y6535I-807J0D01*
G01*
X13799Y4941D02*
G03*
X13688Y4895I0J-157D01*
G01*
X13799Y4941D02*
G03*
X13688Y4895I0J-157D01*
G01*
X15020Y6535D02*
G03*
X15020Y6535I-807J0D01*
G01*
X14311Y1732D02*
G03*
X14423Y1779I0J157D01*
G01*
X14311Y1732D02*
G03*
X14422Y1778I0J157D01*
G01*
X12452Y989D02*
G03*
X12500Y997I-2J157D01*
G01*
X11949Y10522D02*
G03*
X11995Y10410I157J0D01*
G01*
X12389Y10017D02*
G03*
X12500Y9970I111J111D01*
G01*
X12388Y10017D02*
G03*
X12500Y9970I112J111D01*
G01*
X11949Y10522D02*
G03*
X11995Y10410I157J0D01*
G01*
X11375Y2582D02*
G03*
X11329Y2470I111J-111D01*
G01*
X11375Y2582D02*
G03*
X11329Y2470I111J-112D01*
G01*
X12452Y989D02*
G03*
X12500Y997I-2J157D01*
G01*
X11450Y984D02*
G03*
X11488Y979I37J153D01*
G01*
X11450Y984D02*
G03*
X11488Y979I37J153D01*
G01*
X12461Y827D02*
G03*
X12432Y989I-472J0D01*
G01*
X11541Y980D02*
G03*
X12461Y827I447J-153D01*
G01*
X11476D02*
G03*
X11450Y984I-472J0D01*
G01*
X10766Y17902D02*
G03*
X10508Y17614I-28J-235D01*
G01*
X10508D02*
G03*
X10502Y17569I161J-45D01*
G01*
X10508Y17614D02*
G03*
X10502Y17569I161J-45D01*
G01*
Y17547D02*
G03*
X10374Y17519I-30J-175D01*
G01*
D02*
G03*
X10177Y17519I-98J-147D01*
G01*
X10177D02*
G03*
X9980Y17519I-98J-147D01*
G01*
X9784Y19026D02*
G03*
X9665Y18977I0J-167D01*
G01*
X9784Y19026D02*
G03*
X9665Y18977I0J-167D01*
G01*
X8425Y17736D02*
G03*
X8376Y17618I118J-118D01*
G01*
X9980Y17519D02*
G03*
X9852Y17547I-98J-147D01*
G01*
X8425Y17736D02*
G03*
X8376Y17618I118J-118D01*
G01*
X9124Y17430D02*
G03*
X9114Y17372I167J-58D01*
G01*
X8723Y16417D02*
G03*
X8723Y16358I175J-30D01*
G01*
X8376Y16968D02*
G03*
X8425Y16850I167J0D01*
G01*
X8376Y16968D02*
G03*
X8425Y16850I167J0D01*
G01*
X8218Y16466D02*
G03*
X8337Y16417I118J118D01*
G01*
X8218Y16466D02*
G03*
X8337Y16417I118J118D01*
G01*
X8219Y16388D02*
G03*
X8150Y16430I-118J-118D01*
G01*
X8219Y16388D02*
G03*
X8150Y16430I-118J-118D01*
G01*
X9783Y15059D02*
G03*
X9902Y15031I98J147D01*
G01*
X10640Y14694D02*
G03*
X10748Y14545I157J1D01*
G01*
X10591Y14547D02*
G03*
X10640Y14665I-118J118D01*
G01*
Y14694D02*
G03*
X10748Y14545I157J1D01*
G01*
X10591Y14547D02*
G03*
X10640Y14665I-118J118D01*
G01*
X9877Y14444D02*
G03*
X9894Y14419I202J123D01*
G01*
X9587Y15059D02*
G03*
X9783Y15059I98J147D01*
G01*
X9452Y15033D02*
G03*
X9587Y15059I36J173D01*
G01*
X9410Y14960D02*
G03*
X9452Y15033I-118J118D01*
G01*
X9410Y14960D02*
G03*
X9452Y15033I-118J118D01*
G01*
X9252Y14747D02*
G03*
X9387Y14938I-100J214D01*
G01*
X9961Y14362D02*
G03*
X10059Y14332I118J205D01*
G01*
X9675Y14803D02*
G03*
X9491Y14419I0J-236D01*
G01*
X9894D02*
G03*
X9961Y14362I184J148D01*
G01*
X9860Y14419D02*
G03*
X9877Y14444I-184J148D01*
G01*
X7569Y14353D02*
G03*
X7648Y14322I98J135D01*
G01*
X7569Y14353D02*
G03*
X7648Y14322I98J135D01*
G01*
X6526Y17480D02*
G03*
X6595Y17333I235J20D01*
G01*
X6526Y17480D02*
G03*
X6595Y17333I235J20D01*
G01*
X2277Y19623D02*
G03*
X2323Y19734I-111J111D01*
G01*
X2277Y19623D02*
G03*
X2323Y19734I-111J112D01*
G01*
X1890Y19301D02*
G03*
X2001Y19347I0J157D01*
G01*
X1890Y19301D02*
G03*
X2001Y19347I0J157D01*
G01*
X6900Y17028D02*
G03*
X7067Y16959I167J167D01*
G01*
X6900Y17028D02*
G03*
X7067Y16959I167J167D01*
G01*
X10748Y13531D02*
G03*
X10492Y13556I-148J-184D01*
G01*
X10533Y13120D02*
G03*
X10819Y13258I67J226D01*
G01*
X9892Y11181D02*
G03*
X9892Y11181I-748J0D01*
G01*
D02*
G03*
X9892Y11181I-748J0D01*
G01*
X9833Y12979D02*
G03*
X9760Y13041I-187J-144D01*
G01*
X9640Y11885D02*
G03*
X9793Y11821I153J153D01*
G01*
X9640Y11884D02*
G03*
X9793Y11821I153J153D01*
G01*
X11329Y1170D02*
G03*
X11476Y827I-325J-343D01*
G01*
X9900Y1929D02*
G03*
X9900Y1929I-748J0D01*
G01*
D02*
G03*
X9900Y1929I-748J0D01*
G01*
X9531Y13041D02*
G03*
X9429Y12740I114J-207D01*
G01*
Y12185D02*
G03*
X9493Y12032I217J0D01*
G01*
X9429Y12185D02*
G03*
X9493Y12032I217J0D01*
G01*
X5492Y6535D02*
G03*
X5492Y6535I-807J0D01*
G01*
D02*
G03*
X5492Y6535I-807J0D01*
G01*
X2598D02*
G03*
X2598Y6535I-630J0D01*
G01*
X2874Y1535D02*
G03*
X2874Y1535I-1299J0D01*
G01*
X15402Y11900D02*
G03*
X15377Y11932I-136J-79D01*
G01*
X15402Y11900D02*
G03*
X15377Y11932I-136J-79D01*
G01*
X14513Y13474D02*
G03*
X14429Y13499I-85J-133D01*
G01*
X14513Y13474D02*
G03*
X14429Y13499I-85J-133D01*
G01*
X15118Y13091D02*
G03*
X15072Y13202I-157J0D01*
G01*
X15118Y13091D02*
G03*
X15072Y13202I-157J0D01*
G01*
X14990Y13284D02*
G03*
X14878Y13330I-111J-111D01*
G01*
X14078Y13169D02*
G03*
X13881Y13366I-197J0D01*
G01*
Y12776D02*
G03*
X14078Y12972I0J197D01*
G01*
X13724Y13366D02*
G03*
X13527Y13169I0J-197D01*
G01*
Y12972D02*
G03*
X13724Y12776I197J0D01*
G01*
X13054Y11959D02*
G03*
X12963Y11929I0J-157D01*
G01*
X13054Y11959D02*
G03*
X12963Y11929I0J-157D01*
G01*
X12864D02*
G03*
X12772Y11959I-92J-128D01*
G01*
X12864Y11929D02*
G03*
X12772Y11959I-92J-128D01*
G01*
X14682Y12776D02*
G03*
X14878Y12972I0J197D01*
G01*
X14429Y13342D02*
G03*
X14327Y13169I95J-172D01*
G01*
Y12972D02*
G03*
X14524Y12776I197J0D01*
G01*
X14528Y11526D02*
G03*
X14481Y11637I-157J0D01*
G01*
X14528Y11526D02*
G03*
X14481Y11637I-157J0D01*
G01*
X17559Y6535D02*
G03*
X17559Y6535I-630J0D01*
G01*
X13346Y11392D02*
G03*
X13054Y11801I-433J0D01*
G01*
X12772D02*
G03*
X13346Y11392I141J-409D01*
G01*
X12337Y1145D02*
G03*
X11633Y1138I-349J-319D01*
G01*
X18366Y18976D02*
X18740D01*
X18366Y19055D02*
X18740D01*
X18366Y18819D02*
X18740D01*
X18366Y18898D02*
X18740D01*
X18366Y19213D02*
X18740D01*
X18366Y19291D02*
X18740D01*
X18366Y19134D02*
X18740D01*
X18366Y18661D02*
X18740D01*
X18366Y18740D02*
X18740D01*
X18366Y18504D02*
X18740D01*
X18366Y18583D02*
X18740D01*
X17147Y18189D02*
X18740D01*
X18366Y18425D02*
X18740D01*
X17225Y18110D02*
X18740D01*
X18366Y18346D02*
X18740D01*
X17323Y19360D02*
X18366Y19360D01*
X18366Y18307D01*
X17323Y19360D02*
X17323Y18307D01*
X16910Y18425D02*
X17323D01*
X16832Y18504D02*
X17323D01*
X16989Y18346D02*
X17323D01*
X17462Y17874D02*
X18740D01*
X17383Y17953D02*
X18740D01*
X17540Y17795D02*
X18740D01*
X17068Y18268D02*
X18740D01*
X17323Y18307D02*
X18366Y18307D01*
X17304Y18031D02*
X18740D01*
X18219Y17480D02*
X18740D01*
X18076Y17559D02*
X18740D01*
X18189Y17510D02*
X18740Y16959D01*
Y19754D01*
X17698Y17638D02*
X18740D01*
X17619Y17716D02*
X18740D01*
X18534Y17165D02*
X18740D01*
X18455Y17244D02*
X18740D01*
X18691Y17008D02*
X18740D01*
X18613Y17087D02*
X18740D01*
X18376Y17323D02*
X18740D01*
X18298Y17401D02*
X18740D01*
X17583Y16796D02*
X18209Y16171D01*
X17776Y17559D02*
X18071D01*
X16998Y17037D02*
X17186D01*
X17572Y16772D02*
X17608D01*
X17063Y16722D02*
X17186D01*
X17506Y16693D02*
X17687D01*
X16955Y16614D02*
X17765D01*
X17034Y16693D02*
X17218D01*
X16876Y16535D02*
X17844D01*
X16438Y18898D02*
X17323D01*
X16359Y18976D02*
X17323D01*
X16595Y18740D02*
X17323D01*
X16517Y18819D02*
X17323D01*
X16359Y18977D02*
X17776Y17559D01*
X16753Y18583D02*
X17323D01*
X16728Y17559D02*
X16821D01*
X16728Y17401D02*
X16978D01*
X16728Y17480D02*
X16899D01*
X16674Y18661D02*
X17323D01*
X15724Y17480D02*
X15862D01*
X15728Y17401D02*
X15862D01*
X14079Y17874D02*
X15606D01*
X14000Y17953D02*
X15527D01*
X15301Y18179D02*
X15862Y17618D01*
X15295Y17421D02*
Y17815D01*
X13843Y18110D02*
X15370D01*
X13774Y18179D02*
X15301D01*
X13922Y18031D02*
X15448D01*
X15706Y17559D02*
X15862D01*
X15670Y17638D02*
X15842D01*
X15717Y17323D02*
X15862D01*
X15612Y17716D02*
X15763D01*
X15514Y17795D02*
X15685D01*
X15295Y17421D02*
X15689D01*
X16728Y17165D02*
X17214D01*
X16728Y17244D02*
X17135D01*
X16728Y17087D02*
X17248D01*
X16728Y17008D02*
X16906D01*
X16728Y17651D02*
X17279Y17101D01*
X16728Y17323D02*
X17057D01*
X16728Y16988D02*
Y17651D01*
X16562Y16667D02*
X16886Y16991D01*
X15862Y16988D02*
X16728D01*
X16831Y16490D02*
X17063Y16722D01*
X16831Y15479D02*
Y16490D01*
X11233Y16929D02*
X16824D01*
X11226Y16850D02*
X16746D01*
X11240Y16772D02*
X16667D01*
X15645Y17165D02*
X15862D01*
X15690Y17244D02*
X15862D01*
Y16988D02*
Y17618D01*
X15570Y17087D02*
X15862D01*
X15424Y17008D02*
X15862D01*
X15295Y17028D02*
Y17421D01*
X16516Y15413D02*
Y16555D01*
X11216Y16693D02*
X16588D01*
X11238Y16614D02*
X16527D01*
X11233Y16535D02*
X16516D01*
X18071Y16063D02*
X18209D01*
X18061Y16142D02*
X18209D01*
X18046Y15905D02*
X18209D01*
X18066Y15984D02*
X18209D01*
X18036Y16220D02*
X18159D01*
X17993Y16299D02*
X18080D01*
X18008Y15827D02*
X18209D01*
X17842Y15433D02*
X18209D01*
X17947Y15748D02*
X18209D01*
X18008Y15276D02*
X18209D01*
X17947Y15354D02*
X18209D01*
X16831Y15590D02*
X18209D01*
X17842Y15669D02*
X18209D01*
X16831Y15512D02*
X18209D01*
X17922Y16378D02*
X18002D01*
X17790Y16457D02*
X17923D01*
X17638Y15657D02*
Y16051D01*
Y16445D01*
X16831Y16457D02*
X17486D01*
X16831Y16220D02*
X17239D01*
X17638Y16051D02*
X18031D01*
X17244D02*
X17638D01*
X17034Y15276D02*
X17267D01*
X16831Y15669D02*
X17434D01*
X16876Y15433D02*
X17433D01*
X16955Y15354D02*
X17328D01*
X18066Y15118D02*
X18209D01*
X18046Y15197D02*
X18209D01*
X18061Y14961D02*
X18209D01*
X18071Y15039D02*
X18209D01*
X17993Y14803D02*
X18209D01*
X18036Y14882D02*
X18209D01*
X17922Y14724D02*
X18209D01*
X18543Y13858D02*
X18740D01*
X18543Y13779D02*
X18740D01*
X18025Y13858D02*
X18209D01*
X17881Y14409D02*
X18209D01*
X17790Y14646D02*
X18209D01*
X17975Y13779D02*
X18209D01*
X17101Y15209D02*
X17234D01*
X17035Y14894D02*
X17234D01*
X16831Y15479D02*
X17101Y15209D01*
X18069Y14016D02*
X18209D01*
X18069Y14094D02*
X18209D01*
X18056Y13937D02*
X18209D01*
X18022Y14252D02*
X18209D01*
X17969Y14331D02*
X18209D01*
X18053Y14173D02*
X18209D01*
X16831Y15984D02*
X17210D01*
X16831Y16063D02*
X17205D01*
X16831Y15827D02*
X17267D01*
X16831Y15905D02*
X17230D01*
X16831Y16378D02*
X17354D01*
X16831Y16299D02*
X17283D01*
X16831Y16142D02*
X17214D01*
X16831Y15748D02*
X17329D01*
X13484Y15197D02*
X16667D01*
X13484Y15354D02*
X16527D01*
X13349Y15433D02*
X16516D01*
X13484Y15276D02*
X16588D01*
X14696Y16142D02*
X16516D01*
X14647Y16220D02*
X16516D01*
X14715Y15984D02*
X16516D01*
X14714Y16063D02*
X16516D01*
X11240Y16378D02*
X16516D01*
X11226Y16457D02*
X16516D01*
X14521Y16299D02*
X16516D01*
X14715Y15827D02*
X16516D01*
X14715Y15905D02*
X16516D01*
X14715Y15748D02*
X16516D01*
X14663Y15590D02*
X16516D01*
X14703Y15669D02*
X16516D01*
X14570Y15512D02*
X16516D01*
X15931Y14567D02*
X18209D01*
X13484Y14646D02*
X17486D01*
X16030Y14488D02*
X18209D01*
X16109Y14409D02*
X17394D01*
X13484Y14803D02*
X17283D01*
X13484Y14882D02*
X17239D01*
X13484Y14724D02*
X17354D01*
X16713Y13937D02*
X17220D01*
X16299Y14094D02*
X17207D01*
X16713Y13858D02*
X17250D01*
X16187Y14331D02*
X17307D01*
X16265Y14252D02*
X17254D01*
X16298Y14173D02*
X17222D01*
X16562Y15302D02*
X16924Y14940D01*
X14537Y14577D02*
X15876D01*
X13484Y15039D02*
X16825D01*
X13484Y15118D02*
X16746D01*
X13484Y14961D02*
X16903D01*
X16299Y14075D02*
X16713D01*
X16299D02*
Y14154D01*
X16713Y14016D02*
X17206D01*
X15988Y14530D02*
X16253Y14265D01*
X14612Y17716D02*
X14978D01*
X14670Y17638D02*
X14920D01*
X14706Y17559D02*
X14885D01*
X14724Y17480D02*
X14866D01*
X14514Y17795D02*
X15077D01*
X14902Y17421D02*
X15295D01*
X14728Y17401D02*
X14863D01*
X14690Y17244D02*
X14900D01*
X14717Y17323D02*
X14874D01*
X14570Y17087D02*
X15020D01*
X14645Y17165D02*
X14946D01*
X14424Y17008D02*
X15166D01*
X13799Y16309D02*
X14449D01*
X13774Y18179D02*
X14131Y17822D01*
X12175Y17638D02*
X13842D01*
X12175Y17716D02*
X13763D01*
X13478Y18002D02*
X13895Y17585D01*
X12579Y16220D02*
X13601D01*
X12668Y16142D02*
X13552D01*
X12747Y16063D02*
X13534D01*
X12237Y16240D02*
X12500D01*
X14715Y15748D02*
Y16043D01*
X14124Y15896D02*
Y16270D01*
Y15522D02*
Y15896D01*
X13533Y15748D02*
Y16043D01*
X12904Y15905D02*
X13533D01*
X12825Y15984D02*
X13533D01*
X12618Y16191D02*
X13307Y15502D01*
X14124Y15896D02*
X14675D01*
X13573D02*
X14124D01*
X13061Y15748D02*
X13533D01*
X12983Y15827D02*
X13533D01*
X13140Y15669D02*
X13545D01*
X12431Y15906D02*
X12923Y15413D01*
X12461Y15837D02*
X12697Y15601D01*
X12237Y15905D02*
X12431D01*
X12237Y15906D02*
X12431D01*
X12237Y15886D02*
X12343D01*
X12706Y15590D02*
X12746D01*
X12550Y15748D02*
X12588D01*
X12471Y15827D02*
X12509D01*
X12628Y15669D02*
X12667D01*
X12175Y17953D02*
X13527D01*
X12175Y18002D02*
X13478D01*
X12175Y17874D02*
X13606D01*
X12175Y17490D02*
Y18002D01*
X11506Y17795D02*
X11545D01*
X11506Y17874D02*
X11545D01*
X12175Y17795D02*
X13685D01*
X11860Y17785D02*
X12136D01*
X11585D02*
X11860D01*
X12175Y17559D02*
X13885D01*
X11860Y17530D02*
Y17785D01*
X10882Y17480D02*
X13866D01*
X11545Y17490D02*
X12175D01*
X10844Y17401D02*
X13863D01*
X11506Y17953D02*
X11545D01*
X11506Y18002D02*
X11545D01*
Y17490D02*
Y18002D01*
X11506Y17490D02*
Y18002D01*
X10876Y17952D02*
Y18002D01*
X11506Y17638D02*
X11545D01*
X11506Y17716D02*
X11545D01*
X11506Y17559D02*
X11545D01*
X10894Y17490D02*
X11506D01*
X11238Y17008D02*
X14166D01*
X11203Y17087D02*
X14020D01*
X11781Y16309D02*
X12096D01*
X10846Y17244D02*
X13900D01*
X10846Y17323D02*
X13874D01*
X10846Y17165D02*
X13946D01*
X12155Y16299D02*
X13727D01*
X11467Y16240D02*
X11641D01*
X11216Y16299D02*
X11723D01*
X11238Y16220D02*
X11388D01*
X10866Y17156D02*
X11063D01*
X10846Y17175D02*
Y17372D01*
X11238Y16161D02*
X11318D01*
X11348Y16191D01*
X13799Y15482D02*
X14449D01*
X13298Y15512D02*
X13678D01*
X13219Y15590D02*
X13585D01*
X12746Y15433D02*
X12903D01*
X12746Y15423D02*
X12874D01*
X13484Y14783D02*
Y15413D01*
X13354D02*
X13484D01*
Y14567D02*
X14482D01*
X12894Y14783D02*
Y15413D01*
Y14783D02*
X13484D01*
X12283Y14754D02*
X12874D01*
X12894Y14744D02*
X13484D01*
X12743Y15512D02*
X12824D01*
X12746Y15423D02*
Y15482D01*
X12874Y14793D02*
Y15423D01*
X12283D02*
X12401D01*
X12273Y15551D02*
X12401Y15423D01*
X12237Y15551D02*
X12273D01*
X12283Y14793D02*
Y15423D01*
X12195Y14882D02*
X12283D01*
X12195Y14961D02*
X12283D01*
Y14793D02*
X12874D01*
X12195Y14724D02*
X12283D01*
X12195Y14803D02*
X12283D01*
X12195Y14646D02*
X12283D01*
X14092Y14196D02*
X14426Y14530D01*
X13484Y14331D02*
X14226D01*
X13484Y14488D02*
X14384D01*
X13484Y14409D02*
X14305D01*
X13484Y14114D02*
Y14744D01*
Y14252D02*
X14147D01*
X13484Y14173D02*
X14073D01*
X12195Y13937D02*
X14045D01*
X12894Y14114D02*
X13484D01*
X12195Y13858D02*
X14045D01*
X13189Y14429D02*
Y14705D01*
X12579Y14439D02*
Y14715D01*
X12894Y14114D02*
Y14744D01*
X12874Y14124D02*
Y14754D01*
X12323Y14439D02*
X12579D01*
X12195Y14360D02*
Y14990D01*
X12283Y14124D02*
Y14754D01*
X13189Y14429D02*
X13445D01*
X12933D02*
X13189D01*
Y14154D02*
Y14429D01*
X12579Y14439D02*
X12835D01*
X12579Y14163D02*
Y14439D01*
X12283Y14124D02*
X12874D01*
X12194Y15512D02*
X12313D01*
X12134Y15354D02*
X12283D01*
X12156Y15197D02*
X12283D01*
X12156Y15276D02*
X12283D01*
X12063Y15433D02*
X12391D01*
X12195Y14567D02*
X12283D01*
X12156Y15118D02*
X12283D01*
X12195Y14409D02*
X12283D01*
X12195Y14488D02*
X12283D01*
X12140Y15039D02*
X12283D01*
X12103Y14990D02*
X12195D01*
X11604Y14360D02*
X12195D01*
X12156Y15108D02*
Y15276D01*
X12014Y15482D02*
X12109Y15387D01*
X12014Y15482D02*
X12096D01*
X11604Y14360D02*
Y14728D01*
X11555Y14567D02*
X11604D01*
X11555Y14646D02*
X11604D01*
X11555Y14488D02*
X11604D01*
X11555Y14409D02*
X11604D01*
X11532Y14656D02*
X11604Y14728D01*
X10709Y14409D02*
X10748D01*
X12195Y14173D02*
X12283D01*
X12195Y14252D02*
X12283D01*
X12195Y14094D02*
X14046D01*
X11900Y14006D02*
Y14281D01*
X11555Y14331D02*
X12283D01*
X11604Y14321D02*
X12195D01*
X11555Y14173D02*
X11604D01*
X12195Y14016D02*
X14045D01*
X11900Y14006D02*
X12156D01*
X12195Y13779D02*
X14045D01*
X11644Y14006D02*
X11900D01*
X11555Y14094D02*
X11604D01*
X11555Y13858D02*
X11604D01*
X11555Y14016D02*
X11604D01*
X11555Y14252D02*
X11604D01*
X11555Y13967D02*
Y14656D01*
X10748Y13967D02*
Y14545D01*
X10709Y14173D02*
X10748D01*
X10709Y14252D02*
X10748D01*
X10709Y14094D02*
X10748D01*
X11555Y13937D02*
X11604D01*
X10748Y13967D02*
X11555D01*
Y13779D02*
X11604D01*
X10748Y13947D02*
X11555D01*
X10709Y14016D02*
X10748D01*
X10709Y13779D02*
X10748D01*
X18543Y13622D02*
X18740D01*
X18543Y13701D02*
X18740D01*
X18543Y13543D02*
X18740D01*
X18543Y13386D02*
Y13899D01*
Y13386D02*
X18740D01*
X18543Y13464D02*
X18740D01*
X18455Y13228D02*
X18740D01*
X18524Y13307D02*
X18740D01*
X18298Y13071D02*
X18740D01*
X18376Y13150D02*
X18740D01*
X18136Y12913D02*
X18740D01*
X18219Y12992D02*
X18740D01*
X18013Y12835D02*
X18740D01*
X17767Y13464D02*
X18209D01*
X17892Y13701D02*
X18209D01*
X18016Y13262D02*
X18209Y13455D01*
Y16171D01*
X17696Y13622D02*
X18209D01*
X18160Y12933D02*
X18494Y13268D01*
X17913Y13386D02*
X18139D01*
X17987Y13307D02*
X18061D01*
X18071Y12362D02*
X18740D01*
X18071Y12441D02*
X18740D01*
X18071Y12126D02*
X18740D01*
X18071Y12283D02*
X18740D01*
X17856Y12677D02*
X18740D01*
X17955Y12756D02*
X18740D01*
X18071Y12205D02*
X18740D01*
X18071Y11968D02*
X18740D01*
X18071Y12047D02*
X18740D01*
X18071Y11811D02*
X18740D01*
X18071Y11890D02*
X18740D01*
X17190Y11339D02*
X18740D01*
X18071Y11732D02*
X18740D01*
X17034Y8346D02*
X18740D01*
X18071Y11653D02*
X18740D01*
Y157D02*
Y13899D01*
X18071Y11618D02*
Y12484D01*
X17205D02*
X18071D01*
X17205Y11883D02*
Y12484D01*
X17166Y11315D02*
X17469Y11618D01*
X17426Y11575D02*
X18740D01*
X17469Y11618D02*
X18071D01*
X17347Y11496D02*
X18740D01*
X17113Y8268D02*
X18740D01*
X17268Y11417D02*
X18740D01*
X17191Y8189D02*
X18740D01*
X16752Y12598D02*
X18740D01*
X16713Y13543D02*
X18209D01*
X15412Y11260D02*
X18740D01*
X16752Y12520D02*
X18740D01*
X15269Y11102D02*
X18740D01*
X15351Y11181D02*
X18740D01*
X15167Y11024D02*
X18740D01*
X15167Y10866D02*
X18740D01*
X15167Y10945D02*
X18740D01*
X15167Y10709D02*
X18740D01*
X15167Y10787D02*
X18740D01*
X14829Y10551D02*
X18740D01*
X15167Y10630D02*
X18740D01*
X14908Y10472D02*
X18740D01*
X16713Y13622D02*
X17580D01*
X16713Y13701D02*
X17383D01*
X16752Y13307D02*
X17288D01*
X16752Y13228D02*
X17243D01*
X16624Y13464D02*
X17508D01*
X16713Y13779D02*
X17301D01*
X16624Y13386D02*
X17363D01*
X16752Y12835D02*
X17263D01*
X16752Y12894D02*
X17234D01*
X16752Y12756D02*
X17321D01*
X16752Y12677D02*
X17420D01*
X16752Y12205D02*
X17205D01*
X16087Y12047D02*
X17205D01*
X15302Y10079D02*
X18740D01*
X15223Y10157D02*
X18740D01*
X15459Y9921D02*
X18740D01*
X15380Y10000D02*
X18740D01*
X15065Y10315D02*
X18740D01*
X14987Y10394D02*
X18740D01*
X15144Y10236D02*
X18740D01*
X15853Y9528D02*
X18740D01*
X15774Y9606D02*
X18740D01*
X16010Y9370D02*
X18740D01*
X15931Y9449D02*
X18740D01*
X15616Y9764D02*
X18740D01*
X15538Y9842D02*
X18740D01*
X15695Y9685D02*
X18740D01*
X16325Y9055D02*
X18740D01*
X16246Y9134D02*
X18740D01*
X16483Y8898D02*
X18740D01*
X16404Y8976D02*
X18740D01*
X16168Y9213D02*
X18740D01*
X16089Y9291D02*
X18740D01*
X14790Y10591D02*
X18025Y7356D01*
X16876Y8504D02*
X18740D01*
X16798Y8583D02*
X18740D01*
X16955Y8425D02*
X18740D01*
X16640Y8740D02*
X18740D01*
X16561Y8819D02*
X18740D01*
X16719Y8661D02*
X18740D01*
X17664Y7716D02*
X18740D01*
X17585Y7795D02*
X18740D01*
X17821Y7559D02*
X18740D01*
X17742Y7638D02*
X18740D01*
X17427Y7953D02*
X18740D01*
X17349Y8031D02*
X18740D01*
X17506Y7874D02*
X18740D01*
X18071Y7165D02*
X18740D01*
X18071Y7244D02*
X18740D01*
X18071Y6457D02*
X18740D01*
X18071Y7087D02*
X18740D01*
X17979Y7402D02*
X18740D01*
X17900Y7480D02*
X18740D01*
X18050Y7323D02*
X18740D01*
X18071Y6850D02*
X18740D01*
X18071Y6929D02*
X18740D01*
X18071Y6693D02*
X18740D01*
X18071Y6772D02*
X18740D01*
X18071Y7008D02*
X18740D01*
X18071Y6220D02*
X18740D01*
X18071Y6299D02*
X18740D01*
X18071Y6142D02*
X18740D01*
X18071Y6535D02*
X18740D01*
X18071Y6614D02*
X18740D01*
X18071Y6378D02*
X18740D01*
X18071Y5748D02*
X18740D01*
X18071Y5827D02*
X18740D01*
X18071Y5591D02*
X18740D01*
X18071Y5669D02*
X18740D01*
X18071Y5984D02*
X18740D01*
X18071Y6063D02*
X18740D01*
X18071Y5905D02*
X18740D01*
X18059Y5433D02*
X18740D01*
X18071Y5512D02*
X18740D01*
X17920Y5276D02*
X18740D01*
X17998Y5354D02*
X18740D01*
X17338Y3543D02*
X18740D01*
X17841Y5197D02*
X18740D01*
X17375Y3465D02*
X18740D01*
X18071Y5492D02*
Y7244D01*
X17762Y5118D02*
X18740D01*
X17605Y4961D02*
X18740D01*
X17683Y5039D02*
X18740D01*
X17526Y4882D02*
X18740D01*
X17395Y3386D02*
X18740D01*
X17447Y4803D02*
X18740D01*
X17402Y3307D02*
X18740D01*
X17395Y3228D02*
X18740D01*
X17368Y4724D02*
X18740D01*
X17375Y3150D02*
X18740D01*
X17290Y4646D02*
X18740D01*
X17270Y8110D02*
X18740D01*
X17132Y4488D02*
X18740D01*
X17211Y4567D02*
X18740D01*
X16975Y4331D02*
X18740D01*
X17053Y4409D02*
X18740D01*
X16896Y4252D02*
X18740D01*
X16738Y4094D02*
X18740D01*
X16817Y4173D02*
X18740D01*
X17190Y3701D02*
X18740D01*
X16936Y3779D02*
X18740D01*
X16581Y3937D02*
X18740D01*
X16660Y4016D02*
X18740D01*
X16502Y3858D02*
X18740D01*
X17338Y3071D02*
X18740D01*
X17281Y3622D02*
X18740D01*
X17190Y2913D02*
X18740D01*
X17281Y2992D02*
X18740D01*
X15479Y2835D02*
X18740D01*
X15321Y2677D02*
X18740D01*
X15400Y2756D02*
X18740D01*
X15242Y2598D02*
X18740D01*
X15085Y2441D02*
X18740D01*
X15164Y2520D02*
X18740D01*
X15006Y2362D02*
X18740D01*
X14849Y2205D02*
X18740D01*
X14927Y2283D02*
X18740D01*
X14691Y2047D02*
X18740D01*
X14770Y2126D02*
X18740D01*
X14534Y1890D02*
X18740D01*
X14612Y1968D02*
X18740D01*
X14455Y1811D02*
X18740D01*
X13047Y1654D02*
X18740D01*
X13126Y1732D02*
X18740D01*
X12969Y1575D02*
X18740D01*
X12811Y1417D02*
X18740D01*
X12890Y1496D02*
X18740D01*
X12733Y1339D02*
X18740D01*
X13445Y1260D02*
X18740D01*
X14423Y1779D02*
X18025Y5381D01*
X13445Y1102D02*
X18740D01*
X13445Y1181D02*
X18740D01*
X13445Y945D02*
X18740D01*
X13445Y1024D02*
X18740D01*
X13445Y866D02*
X18740D01*
X13445Y472D02*
X18740D01*
X13445Y551D02*
X18740D01*
X13445Y394D02*
X18740D01*
X13445Y709D02*
X18740D01*
X13445Y787D02*
X18740D01*
X13445Y630D02*
X18740D01*
X16713Y13484D02*
Y14075D01*
X16624Y13376D02*
Y13484D01*
X16752Y12746D02*
Y12894D01*
Y13228D02*
Y13376D01*
X16624D02*
X16752D01*
X16624Y13484D02*
X16713D01*
X16288Y12746D02*
X16752D01*
Y12441D02*
X17205D01*
X16457Y12392D02*
Y12667D01*
X16752Y12362D02*
X17205D01*
X16457Y12392D02*
X16713D01*
X16265Y12707D02*
X16752D01*
X16201Y12392D02*
X16457D01*
X13983Y13622D02*
X14048D01*
X14045Y13652D02*
Y14085D01*
X12707Y13681D02*
X13794D01*
X13960Y13645D02*
X14186Y13419D01*
X16093Y12533D02*
X16161Y12602D01*
X16093Y12520D02*
X16161D01*
X16093Y12441D02*
X16161D01*
X14092Y13540D02*
X14199Y13433D01*
X16093Y12362D02*
X16161D01*
X16752Y12126D02*
X17205D01*
X16752Y12283D02*
X17205D01*
X16752Y12077D02*
Y12707D01*
X16457Y12116D02*
Y12392D01*
X16040Y11968D02*
X17205D01*
X16161Y12077D02*
X16752D01*
X15961Y11890D02*
X17205D01*
X16956Y11634D02*
X17205Y11883D01*
X15882Y11811D02*
X17133D01*
X15423Y11732D02*
X17054D01*
X15452Y11653D02*
X16976D01*
X15471Y11634D02*
X16956D01*
X16093Y12205D02*
X16161D01*
X16093Y12283D02*
X16161D01*
Y12077D02*
Y12602D01*
X16093Y12087D02*
Y12533D01*
Y12126D02*
X16161D01*
X15860Y11788D02*
X16046Y11975D01*
X15423Y11742D02*
X15748D01*
X15423Y11682D02*
Y11742D01*
Y11682D02*
X15471Y11634D01*
X12195Y13701D02*
X14045D01*
X12231Y13271D02*
X12595Y13635D01*
X11604Y13691D02*
X12195D01*
Y14321D01*
X11555Y13622D02*
X12582D01*
X11555Y13543D02*
X12504D01*
X11555Y13464D02*
X12425D01*
X11555Y13386D02*
X12346D01*
X11555Y13307D02*
X12267D01*
X10805Y13228D02*
X12201D01*
X11900Y13730D02*
Y14006D01*
X11555Y13701D02*
X11604D01*
Y13691D02*
Y14321D01*
X11555Y13258D02*
Y13947D01*
X11152Y13602D02*
Y13907D01*
X10748Y13531D02*
Y13947D01*
X11152Y13297D02*
Y13602D01*
X11250Y12992D02*
X12185D01*
X11152Y13602D02*
X11516D01*
X11250Y12913D02*
X12185D01*
X10819Y13258D02*
X11555D01*
X10787Y13602D02*
X11152D01*
X10731Y13150D02*
X12185D01*
X11250Y12283D02*
X12185D01*
X12231Y12113D02*
X12369Y11975D01*
X11250Y12205D02*
X12186D01*
X11250Y12441D02*
X12185D01*
X11250Y12126D02*
X12220D01*
X11995Y11647D02*
X12260Y11912D01*
X11250Y11968D02*
X12376D01*
X11250Y12047D02*
X12297D01*
X11250Y11890D02*
X12238D01*
X11250Y12756D02*
X12185D01*
X11250Y12835D02*
X12185D01*
Y12224D02*
Y13159D01*
X11250Y12392D02*
Y13022D01*
Y12598D02*
X12185D01*
X11250Y12677D02*
X12185D01*
X11250Y12520D02*
X12185D01*
X11949Y10522D02*
Y11535D01*
X11250Y11811D02*
X12159D01*
X11250Y11732D02*
X12080D01*
X11250Y11722D02*
Y12352D01*
X15412Y11260D02*
X17033D01*
X15289Y11119D02*
X15377Y11208D01*
X14390Y7323D02*
X15437D01*
X14917Y6929D02*
X15758D01*
X14867Y7008D02*
X15752D01*
X14984Y6772D02*
X15758D01*
X14956Y6850D02*
X15758D01*
X14717Y7165D02*
X15594D01*
X14599Y7244D02*
X15516D01*
X14802Y7087D02*
X15673D01*
X15167Y10591D02*
Y11073D01*
X14577Y10803D02*
Y11078D01*
X14528Y10945D02*
X14577D01*
X14528Y11024D02*
X14577D01*
X14528Y10853D02*
Y11100D01*
X14872Y10906D02*
X15128D01*
X14872Y10630D02*
Y10906D01*
X14790Y10591D02*
X15167D01*
X14616Y10906D02*
X14872D01*
X14528Y10866D02*
X14577D01*
X14528Y10853D02*
X14577Y10803D01*
X16423Y3779D02*
X16922D01*
X16345Y3701D02*
X16668D01*
X16266Y3622D02*
X16577D01*
X16187Y3543D02*
X16520D01*
X15758Y6187D02*
X15758Y7002D01*
X15016Y6614D02*
X15758D01*
X16108Y3465D02*
X16484D01*
X16030Y3386D02*
X16463D01*
X15951Y3307D02*
X16457D01*
X15794Y3150D02*
X16484D01*
X15872Y3228D02*
X16463D01*
X15636Y2992D02*
X16577D01*
X15715Y3071D02*
X16520D01*
X15557Y2913D02*
X16668D01*
X15004Y6693D02*
X15758D01*
X15020Y6535D02*
X15758D01*
X15004Y6378D02*
X15758D01*
X15016Y6457D02*
X15758D01*
X14956Y6220D02*
X15758D01*
X14984Y6299D02*
X15758D01*
X14512Y4941D02*
X15758Y6187D01*
X14917Y6142D02*
X15712D01*
X14867Y6063D02*
X15634D01*
X14802Y5984D02*
X15555D01*
X14717Y5905D02*
X15476D01*
X14599Y5827D02*
X15397D01*
X14390Y5748D02*
X15319D01*
X13799Y4941D02*
X14512D01*
X12789Y9970D02*
X15758Y7002D01*
X12500Y9970D02*
X12789Y9970D01*
X13126Y1732D02*
X14311D01*
X12693Y1299D02*
X13126Y1732D01*
X11375Y2582D02*
X13688Y4895D01*
X12693Y1299D02*
X13445D01*
X11995Y10410D02*
X12388Y10017D01*
X11488Y979D02*
X11541Y980D01*
X11329Y1170D02*
Y2470D01*
X11193Y1260D02*
X11329D01*
X13445Y354D02*
Y1299D01*
X12459Y866D02*
X12500D01*
X12446Y945D02*
X12500D01*
X12446Y709D02*
X12500D01*
X12459Y787D02*
X12500D01*
Y354D02*
X13445D01*
X12301Y472D02*
X12500D01*
X12418Y630D02*
X12500D01*
X12177Y394D02*
X12500D01*
X11475Y866D02*
X11517D01*
X12500Y354D02*
Y997D01*
X11461Y945D02*
X11531D01*
X11475Y787D02*
X11517D01*
X11433Y630D02*
X11559D01*
X11461Y709D02*
X11531D01*
X12372Y551D02*
X12500D01*
X11316Y472D02*
X11676D01*
X11388Y551D02*
X11604D01*
X11193Y394D02*
X11799D01*
X10089Y17953D02*
X10876D01*
X10138Y18002D02*
X10876D01*
X10010Y17874D02*
X10624D01*
X9784Y19026D02*
X16241D01*
X9931Y17795D02*
X10540D01*
X9853Y17716D02*
X10507D01*
X9852Y17638D02*
X10504D01*
X9852Y17559D02*
X10502D01*
X9852Y17716D02*
X10138Y18002D01*
X9124Y17430D02*
Y17739D01*
X8425Y17736D02*
X9665Y18977D01*
X8868Y17484D02*
X9124Y17739D01*
X9852Y17547D02*
Y17716D01*
X9022Y17638D02*
X9124D01*
X8944Y17559D02*
X9124D01*
X8868Y17480D02*
X9124D01*
X9114Y17175D02*
Y17372D01*
X8868Y17165D02*
X9114D01*
X8868Y17153D02*
Y17484D01*
Y17401D02*
X9117D01*
X8868Y17323D02*
X9114D01*
X8868Y17244D02*
X9114D01*
X8898Y17156D02*
X9094D01*
X8425Y16850D02*
X8523Y16752D01*
X8760Y16388D02*
X8996D01*
X8406Y16752D02*
X8523D01*
X8386Y16772D02*
X8503D01*
X8337Y16417D02*
X8723D01*
X8308Y16850D02*
X8424D01*
X8376Y16968D02*
Y17618D01*
X8229Y16929D02*
X8381D01*
X8150Y17008D02*
X8376D01*
X8150Y16430D02*
Y16535D01*
X8219Y16388D02*
X8248Y16358D01*
X8150Y16457D02*
X8229D01*
X7061Y19449D02*
X18740D01*
X7061Y19527D02*
X18740D01*
X7061Y19370D02*
X18740D01*
X7061Y19291D02*
X17323D01*
X6983Y19685D02*
X18740D01*
X6983Y19740D02*
X18740Y19754D01*
X6983Y19606D02*
X18740D01*
X7061Y19134D02*
X17323D01*
X7061Y19213D02*
X17323D01*
X7061Y19055D02*
X17323D01*
X7061Y18976D02*
X9665D01*
X157Y18898D02*
X9586D01*
X7061Y18819D02*
X9507D01*
X7061Y18740D02*
X9429D01*
X7061Y18661D02*
X9350D01*
X7061Y18583D02*
X9271D01*
X7061Y18504D02*
X9192D01*
X7061Y18425D02*
X9114D01*
X7061Y18346D02*
X9035D01*
X7061Y18268D02*
X8956D01*
X6998Y18189D02*
X8878D01*
X8022Y18110D02*
X8799D01*
X8022Y18031D02*
X8720D01*
X8022Y17953D02*
X8641D01*
X8022Y17874D02*
X8563D01*
X7431Y18179D02*
X8022D01*
X7470Y17864D02*
X7726D01*
X8022Y17480D02*
X8376D01*
X8022Y17559D02*
X8376D01*
X8022Y17323D02*
X8376D01*
X8022Y17401D02*
X8376D01*
X8022Y17795D02*
X8484D01*
X8022Y17716D02*
X8408D01*
X8022Y17638D02*
X8377D01*
X8071Y17087D02*
X8376D01*
X8022Y17165D02*
X8376D01*
X8150Y16535D02*
X8218Y16466D01*
X8120Y16565D02*
X8150Y16535D01*
X8022Y17136D02*
X8406Y16752D01*
X8022Y17244D02*
X8376D01*
X7805Y16880D02*
X8120Y16565D01*
X7726Y17864D02*
X7982D01*
X7726D02*
Y18140D01*
X8022Y17136D02*
Y17510D01*
Y17549D02*
Y18179D01*
X7431Y17549D02*
X8022D01*
X7726Y17589D02*
Y17864D01*
X7431Y17510D02*
X8022D01*
X157Y16850D02*
X7834D01*
X7431Y16880D02*
X7805D01*
X7520Y16565D02*
X8120D01*
X157Y16693D02*
X7992D01*
X157Y16772D02*
X7913D01*
X157Y16614D02*
X8071D01*
X10640Y14695D02*
Y14803D01*
X10640Y14695D02*
Y14803D01*
X9410Y14961D02*
X9832D01*
X9743Y15039D02*
X9824D01*
X9675Y14803D02*
X9902Y15031D01*
X10608Y14567D02*
X10706D01*
X10551Y14488D02*
X10748D01*
X10551Y14507D02*
X10591Y14547D01*
X9546Y15039D02*
X9627D01*
X9387Y14938D02*
X9410Y14960D01*
X9375Y14882D02*
X9753D01*
X9328Y14803D02*
X9670D01*
X9252Y14724D02*
X9499D01*
X9252Y14646D02*
X9452D01*
X9252Y14567D02*
X9439D01*
X9252Y14488D02*
X9453D01*
X10551Y14419D02*
X10709D01*
X10551D02*
Y14507D01*
X10709Y14331D02*
X10748D01*
X9961Y14252D02*
X10059D01*
X9961Y14331D02*
X10059D01*
X9961Y14173D02*
X10059D01*
X9961Y14016D02*
X10059D01*
X9961Y14094D02*
X10059D01*
X10709Y13858D02*
X10748D01*
X10709Y13937D02*
X10748D01*
X9961Y13858D02*
X10059D01*
X9961Y13937D02*
X10059D01*
X9961Y13779D02*
X10059D01*
X9860Y14419D02*
X9894D01*
X9311D02*
X9491D01*
X9252Y14409D02*
X9311D01*
X9252Y14262D02*
Y14747D01*
Y13858D02*
X9311D01*
X9252Y14016D02*
X9311D01*
X9252Y13779D02*
X9311D01*
X9252Y14173D02*
X9311D01*
X9252Y14331D02*
X9311D01*
X9252Y14094D02*
X9311D01*
X8248Y16358D02*
X8723D01*
X8229Y16378D02*
X8721D01*
X8179Y16024D02*
X8326D01*
X8150Y15974D02*
Y16026D01*
Y15984D02*
X8287D01*
X7520Y15974D02*
X8150D01*
Y15847D02*
X8326Y16024D01*
X8150Y15502D02*
X8209D01*
X8150Y15905D02*
X8208D01*
X8613Y14409D02*
X8661D01*
X8219Y15295D02*
Y15502D01*
X157Y15354D02*
X8219D01*
X8150Y15433D02*
X8219D01*
X7648Y15295D02*
X8219D01*
X8150Y15374D02*
Y15502D01*
Y15847D02*
Y15965D01*
X7648Y14744D02*
Y15295D01*
X7569Y15197D02*
X7648D01*
X7520Y15374D02*
X8150D01*
X7520Y15965D02*
X8150D01*
X7569Y15276D02*
X7648D01*
X7589Y14803D02*
X7648D01*
X7569Y14882D02*
X7648D01*
X7569Y14823D02*
X7648Y14744D01*
X7569Y15039D02*
X7648D01*
X7569Y15118D02*
X7648D01*
X7569Y14961D02*
X7648D01*
X8661Y14262D02*
X9252D01*
X8661D02*
Y14458D01*
Y14222D02*
X9252D01*
X8957Y13907D02*
Y14183D01*
X8455Y14252D02*
X9311D01*
X8534Y14331D02*
X8661D01*
X8317Y14114D02*
X8661Y14458D01*
X9252Y13937D02*
X9311D01*
X8957Y13907D02*
X9213D01*
X8701D02*
X8957D01*
X8317Y14094D02*
X8661D01*
X8376Y14173D02*
X8661D01*
X8317Y13937D02*
X8661D01*
X7569Y14173D02*
X7648D01*
X7569Y14252D02*
X7648D01*
X8317Y14016D02*
X8661D01*
X7569Y14094D02*
X7648D01*
X7569Y14331D02*
X7611D01*
X8317Y13858D02*
X8661D01*
X7569Y13937D02*
X7648D01*
X8317Y13779D02*
X8661D01*
X7569Y13858D02*
X7648D01*
X7569Y14016D02*
X7648D01*
X7569Y13779D02*
X7648D01*
X6983Y19557D02*
Y19740D01*
X6550Y19557D02*
Y19616D01*
X7061Y18927D02*
Y19557D01*
X6983D02*
X7061D01*
X6498Y19616D02*
X6550D01*
X6498D02*
X6532Y19623D01*
X6471Y19557D02*
X6550D01*
X7061Y18258D02*
Y18888D01*
X6998Y18268D02*
X7061D01*
X6998Y18110D02*
X7431D01*
X6998Y18041D02*
Y18258D01*
X6471Y18888D02*
X7061D01*
X6471Y18927D02*
X7061D01*
X6998Y18258D02*
X7061D01*
X5956Y19616D02*
X6063D01*
X5956D02*
Y19724D01*
X6063Y19616D02*
X6498D01*
X6074Y19614D02*
X6486D01*
X5698Y19685D02*
X5956D01*
X5700Y19734D02*
X5954D01*
X5698Y19616D02*
Y19723D01*
X6526Y18041D02*
Y18258D01*
X6471D02*
X6526D01*
Y18041D02*
Y18258D01*
X6471Y18268D02*
X6526D01*
X6471Y18927D02*
Y19557D01*
Y18258D02*
Y18888D01*
X6998Y17953D02*
X7431D01*
X6998Y18031D02*
X7431D01*
Y17549D02*
Y18179D01*
X6998Y17815D02*
Y17933D01*
Y17874D02*
X7431D01*
X6998Y17815D02*
Y17933D01*
Y17795D02*
X7431D01*
X7116Y17480D02*
X7431D01*
X7037Y17559D02*
X7431D01*
Y17431D02*
Y17510D01*
X7165Y17431D02*
X7431D01*
X6998Y17638D02*
X7431D01*
X6998Y17716D02*
X7431D01*
X6998Y17598D02*
X7165Y17431D01*
X6998Y17933D02*
Y18258D01*
X6526Y17933D02*
Y18041D01*
X6998Y17598D02*
Y17707D01*
Y17815D01*
X6526D02*
Y17933D01*
Y17815D02*
Y17933D01*
Y17707D02*
Y17815D01*
X6998Y17598D02*
Y17707D01*
X6595Y17333D02*
X6900Y17028D01*
X6526Y17500D02*
Y17707D01*
Y17500D02*
Y17707D01*
X5691Y19688D02*
X5698Y19723D01*
X5665Y19649D02*
X5691Y19688D01*
X5626Y19623D02*
X5665Y19649D01*
X5592Y19616D02*
X5626Y19623D01*
X5156Y19616D02*
X5592D01*
X5122Y19623D02*
X5156Y19616D01*
X5592D02*
X5698D01*
X2260Y19606D02*
X6550D01*
X5168Y19614D02*
X5580D01*
X2103Y19449D02*
X6471D01*
X2181Y19527D02*
X6471D01*
X351Y19291D02*
X6471D01*
X2024Y19370D02*
X6471D01*
X272Y19213D02*
X6471D01*
X5050Y19723D02*
X5057Y19688D01*
X2323Y19734D02*
X5048D01*
X5057Y19688D02*
X5083Y19649D01*
X5050Y19616D02*
Y19723D01*
X2315Y19685D02*
X5050D01*
Y19616D02*
X5156D01*
X5083Y19649D02*
X5122Y19623D01*
X2001Y19347D02*
X2277Y19623D01*
X361Y19301D02*
X1890D01*
X157Y17874D02*
X6526D01*
X157Y17953D02*
X6526D01*
X157Y17638D02*
X6526D01*
X157Y17795D02*
X6526D01*
X157Y18110D02*
X6526D01*
X157Y18189D02*
X6526D01*
X157Y18031D02*
X6526D01*
X157Y17244D02*
X6684D01*
X157Y17323D02*
X6605D01*
X157Y17165D02*
X6762D01*
X157Y17480D02*
X6526D01*
X157Y17559D02*
X6526D01*
X157Y17401D02*
X6547D01*
X193Y19134D02*
X6471D01*
X157Y19098D02*
X361Y19301D01*
X157Y18976D02*
X6471D01*
X157Y19055D02*
X6471D01*
X157Y18740D02*
X6471D01*
X157Y18819D02*
X6471D01*
X157Y18661D02*
X6471D01*
X157Y18268D02*
X6471D01*
X157Y18346D02*
X6471D01*
X157Y17716D02*
X6526D01*
X157Y18504D02*
X6471D01*
X157Y18583D02*
X6471D01*
X157Y18425D02*
X6471D01*
X7480Y16378D02*
X7520D01*
X7480Y16535D02*
X7520D01*
Y15974D02*
Y16565D01*
X7480Y15974D02*
Y16565D01*
Y16457D02*
X7520D01*
X6850Y16565D02*
X7480D01*
Y16299D02*
X7520D01*
X7480Y15905D02*
X7520D01*
X7480Y15984D02*
X7520D01*
X7480Y15748D02*
X7520D01*
X7480Y15827D02*
X7520D01*
X7480Y16142D02*
X7520D01*
X7480Y16220D02*
X7520D01*
X7480Y16063D02*
X7520D01*
X7431Y16880D02*
Y16959D01*
X7067D02*
X7431D01*
X7165Y16270D02*
X7441D01*
X7165D02*
Y16526D01*
X6850Y15974D02*
Y16565D01*
X7165Y15669D02*
Y15925D01*
Y16014D02*
Y16270D01*
Y15669D02*
X7441D01*
X6850Y15974D02*
X7480D01*
X6890Y16270D02*
X7165D01*
X6850Y15965D02*
X7480D01*
Y15512D02*
X7520D01*
X7480Y15669D02*
X7520D01*
Y15374D02*
Y15965D01*
X7480Y15374D02*
Y15965D01*
Y15590D02*
X7520D01*
X6890Y15669D02*
X7165D01*
X7480Y15433D02*
X7520D01*
X7569Y14823D02*
Y15295D01*
X6900D02*
X7569D01*
X6900Y14390D02*
X7529D01*
X7372Y14547D02*
X7529Y14390D01*
X6850Y15374D02*
X7480D01*
X6900Y14547D02*
X7372D01*
X6742Y14488D02*
X7431D01*
X7165Y15413D02*
Y15669D01*
X6850Y15374D02*
Y15965D01*
X6900Y14547D02*
Y14705D01*
Y15138D02*
Y15295D01*
X6742Y14705D02*
X6900D01*
X6742Y15138D02*
Y15236D01*
Y13937D02*
Y14567D01*
Y14094D02*
X6900D01*
X6742Y14173D02*
X6900D01*
X6742Y14016D02*
X6900D01*
X6742Y14331D02*
X6900D01*
X6742Y14567D02*
X6900D01*
X6742Y14252D02*
X6900D01*
X157Y16378D02*
X6850D01*
X157Y16457D02*
X6850D01*
X157Y16220D02*
X6850D01*
X157Y16299D02*
X6850D01*
X157Y16929D02*
X7431D01*
X157Y17008D02*
X6923D01*
X157Y16535D02*
X6850D01*
X157Y15276D02*
X6900D01*
X157Y15905D02*
X6850D01*
X6742Y15138D02*
X6900D01*
X6742Y15197D02*
X6900D01*
X157Y16063D02*
X6850D01*
X157Y16142D02*
X6850D01*
X157Y15984D02*
X6850D01*
X157Y15590D02*
X6850D01*
X157Y15669D02*
X6850D01*
X157Y15433D02*
X6850D01*
X157Y15512D02*
X6850D01*
X157Y15827D02*
X6850D01*
X157Y17087D02*
X6841D01*
X157Y15748D02*
X6850D01*
X6152Y15236D02*
X6742D01*
X157Y15197D02*
X6152D01*
X157Y15118D02*
X6152D01*
X157Y14961D02*
X6152D01*
X157Y15039D02*
X6152D01*
X157Y14882D02*
X6152D01*
X6742Y14646D02*
X6900D01*
X6742Y14606D02*
Y14705D01*
Y14409D02*
X7509D01*
X6447Y13976D02*
Y14252D01*
X6152Y14567D02*
X6742D01*
X6152Y14606D02*
X6742D01*
X6447Y14252D02*
Y14528D01*
Y14252D02*
X6703D01*
X6191D02*
X6447D01*
X6152Y13937D02*
X6742D01*
X157Y13858D02*
X6900D01*
X157Y13937D02*
X6900D01*
X157Y13779D02*
X6900D01*
X157Y14724D02*
X6152D01*
X157Y14803D02*
X6152D01*
Y13937D02*
Y14567D01*
Y14606D02*
Y15236D01*
X157Y14567D02*
X6152D01*
X157Y14646D02*
X6152D01*
X157Y14488D02*
X6152D01*
X157Y14094D02*
X6152D01*
X157Y14173D02*
X6152D01*
X157Y14016D02*
X6152D01*
X157Y14331D02*
X6152D01*
X157Y14409D02*
X6152D01*
X157Y14252D02*
X6152D01*
X10709Y13701D02*
X10748D01*
X10709Y13632D02*
Y14419D01*
X10492Y13632D02*
X10709D01*
X10492Y13556D02*
Y13632D01*
X10059D02*
X10492D01*
X10059D02*
Y14332D01*
Y13632D02*
X10492D01*
Y13622D02*
X10748D01*
X10492Y13051D02*
Y13120D01*
Y13071D02*
X12185D01*
X10492Y13120D02*
X10533D01*
X10453Y13051D02*
X10492D01*
X9980Y13632D02*
X10059D01*
X9961Y13701D02*
X10059D01*
X9882Y13543D02*
X9980D01*
X9961Y13632D02*
Y14362D01*
X9882Y13632D02*
X9961D01*
X9843D02*
X9882D01*
Y13622D02*
X9980D01*
X9882Y13150D02*
X9980D01*
X9882Y13228D02*
X9980D01*
X9882Y13071D02*
X9980D01*
X9882Y13386D02*
X9980D01*
X9882Y13464D02*
X9980D01*
X9882Y13307D02*
X9980D01*
X10659Y13022D02*
X11250D01*
X10659Y12923D02*
Y13022D01*
Y12392D02*
X11250D01*
X10659D02*
Y12490D01*
X9862Y12362D02*
X12185D01*
X10659Y12352D02*
X11250D01*
X10659Y11722D02*
X11250D01*
X9888Y11260D02*
X11949D01*
X9875Y11339D02*
X11949D01*
X9888Y11102D02*
X11949D01*
X9892Y11181D02*
X11949D01*
X9875Y11024D02*
X11949D01*
X9853Y11417D02*
X11949D01*
X9853Y10945D02*
X11949D01*
X10492Y13051D02*
X10640D01*
X9980D02*
X10019D01*
X10640Y12362D02*
Y12490D01*
Y12923D02*
Y13051D01*
X9882D02*
X9980D01*
X9882D02*
Y13632D01*
X9980Y13051D02*
Y13632D01*
X10659Y12254D02*
Y12352D01*
X10640Y12254D02*
Y12343D01*
X10659Y11722D02*
Y11821D01*
X9862Y12343D02*
X10640D01*
X9862Y12362D02*
X10640D01*
Y11654D02*
Y11821D01*
X9833Y13041D02*
X9882D01*
X9833Y13051D02*
X9882D01*
X9780Y11575D02*
X11954D01*
X9833Y11654D02*
X10640D01*
X9724Y11653D02*
X12002D01*
X9822Y10866D02*
X11949D01*
X9822Y11496D02*
X11949D01*
X9724Y10709D02*
X11949D01*
X9780Y10787D02*
X11949D01*
X9547Y10551D02*
X11949D01*
X9649Y10630D02*
X11949D01*
X9383Y10472D02*
X11957D01*
X9843Y13632D02*
X9882D01*
X9760Y13041D02*
X9833D01*
Y12979D02*
Y13041D01*
X9383Y11890D02*
X9635D01*
X157Y11968D02*
X9556D01*
X9493Y12032D02*
X9640Y11885D01*
X9649Y11732D02*
X9833D01*
X9793Y11821D02*
X9833D01*
Y11654D02*
Y11821D01*
X9547Y11811D02*
X9833D01*
X157Y9055D02*
X13705D01*
X157Y9134D02*
X13626D01*
X157Y8898D02*
X13862D01*
X157Y8976D02*
X13783D01*
X157Y9291D02*
X13468D01*
X157Y9370D02*
X13390D01*
X157Y9213D02*
X13547D01*
X2343Y8504D02*
X14256D01*
X2343Y8583D02*
X14177D01*
X2343Y8346D02*
X14413D01*
X2343Y8425D02*
X14334D01*
X2343Y8740D02*
X14019D01*
X2343Y8819D02*
X13941D01*
X2343Y8661D02*
X14098D01*
X157Y10079D02*
X12327D01*
X157Y10157D02*
X12248D01*
X157Y9921D02*
X12838D01*
X157Y10000D02*
X12408D01*
X157Y10315D02*
X12090D01*
X157Y10394D02*
X12012D01*
X157Y10236D02*
X12169D01*
X157Y9528D02*
X13232D01*
X157Y9606D02*
X13153D01*
X157Y9449D02*
X13311D01*
X157Y9764D02*
X12996D01*
X157Y9842D02*
X12917D01*
X157Y9685D02*
X13075D01*
X5071Y7244D02*
X13826D01*
X5190Y7165D02*
X13708D01*
X5275Y7087D02*
X13623D01*
X5339Y7008D02*
X13558D01*
X2343Y7953D02*
X14807D01*
X2343Y8268D02*
X14492D01*
X4862Y7323D02*
X14035D01*
X5390Y6142D02*
X13508D01*
X5390Y6929D02*
X13508D01*
X5275Y5984D02*
X13623D01*
X5339Y6063D02*
X13558D01*
X5071Y5827D02*
X13826D01*
X5190Y5905D02*
X13708D01*
X4862Y5748D02*
X14036D01*
X5477Y6693D02*
X13421D01*
X5488Y6614D02*
X13409D01*
X5488Y6457D02*
X13409D01*
X5492Y6535D02*
X13406D01*
X5428Y6850D02*
X13469D01*
X5457Y6772D02*
X13441D01*
X5477Y6378D02*
X13421D01*
X9486Y2598D02*
X11391D01*
X9611Y2520D02*
X11337D01*
X9697Y2441D02*
X11329D01*
X5428Y6220D02*
X13470D01*
X5457Y6299D02*
X13441D01*
X9160Y2677D02*
X11470D01*
X9890Y2047D02*
X11329D01*
X9873Y2126D02*
X11329D01*
X9899Y1890D02*
X11329D01*
X9899Y1968D02*
X11329D01*
X9811Y2283D02*
X11329D01*
X9762Y2362D02*
X11329D01*
X9847Y2205D02*
X11329D01*
X9873Y1732D02*
X11329D01*
X9890Y1811D02*
X11329D01*
X9847Y1654D02*
X11329D01*
X9762Y1496D02*
X11329D01*
X9811Y1575D02*
X11329D01*
X9697Y1417D02*
X11329D01*
X9611Y1339D02*
X11329D01*
X9486Y1260D02*
X10815D01*
X2825Y1181D02*
X10691D01*
X2800Y1102D02*
X10620D01*
X2769Y1024D02*
X10574D01*
X2732Y945D02*
X10546D01*
X2688Y866D02*
X10533D01*
X2637Y787D02*
X10533D01*
X2506Y630D02*
X10574D01*
X2577Y709D02*
X10547D01*
X2423Y551D02*
X10620D01*
X2343Y7795D02*
X14964D01*
X2343Y7874D02*
X14886D01*
X157Y7638D02*
X15122D01*
X157Y7716D02*
X15043D01*
X157Y7480D02*
X15279D01*
X157Y7559D02*
X15201D01*
X157Y7402D02*
X15358D01*
X157Y5433D02*
X15004D01*
X157Y5354D02*
X14925D01*
X157Y5276D02*
X14846D01*
X157Y5197D02*
X14767D01*
X157Y5669D02*
X15240D01*
X157Y5591D02*
X15161D01*
X157Y5512D02*
X15082D01*
X2343Y8110D02*
X14649D01*
X2343Y8189D02*
X14571D01*
X2343Y8031D02*
X14728D01*
X157Y5118D02*
X14689D01*
X157Y5039D02*
X14610D01*
X157Y4961D02*
X14531D01*
X157Y4882D02*
X13675D01*
X157Y4567D02*
X13360D01*
X157Y4488D02*
X13281D01*
X157Y4409D02*
X13202D01*
X157Y4803D02*
X13596D01*
X157Y4724D02*
X13517D01*
X157Y4646D02*
X13439D01*
X157Y4094D02*
X12887D01*
X157Y4016D02*
X12809D01*
X157Y3937D02*
X12730D01*
X157Y3858D02*
X12651D01*
X157Y4331D02*
X13124D01*
X157Y4252D02*
X13045D01*
X157Y4173D02*
X12966D01*
X157Y3779D02*
X12573D01*
X157Y3701D02*
X12494D01*
X2020Y315D02*
X18740D01*
X157Y236D02*
X18740D01*
X157Y3622D02*
X12415D01*
X157Y157D02*
X18740D01*
X157Y3307D02*
X12100D01*
X157Y3228D02*
X12021D01*
X157Y3150D02*
X11943D01*
X157Y3071D02*
X11864D01*
X157Y3543D02*
X12336D01*
X157Y3465D02*
X12258D01*
X157Y3386D02*
X12179D01*
X2020Y2756D02*
X11549D01*
X2322Y472D02*
X10691D01*
X2195Y394D02*
X10815D01*
X157Y2992D02*
X11785D01*
X157Y2913D02*
X11706D01*
X1586Y2835D02*
X11628D01*
X9370Y13632D02*
X9409D01*
X9311D02*
Y14419D01*
Y13632D02*
X9370D01*
X9252Y13593D02*
Y14222D01*
Y13701D02*
X9311D01*
X8317D02*
X8661D01*
X8957Y13632D02*
Y13907D01*
X9370Y13632D02*
X9409D01*
X9252Y13622D02*
X9370D01*
X8297Y13386D02*
X9370D01*
X8661Y13593D02*
X9252D01*
X8199Y13543D02*
X9370D01*
X8199Y13622D02*
X8661D01*
X8199Y13464D02*
X9370D01*
X8199Y13642D02*
X8317D01*
Y14114D01*
X8661Y13593D02*
Y14222D01*
X8199Y13445D02*
Y13642D01*
X7569Y13701D02*
X7648D01*
X7569Y13642D02*
Y14353D01*
X7648Y13642D02*
Y14322D01*
X7766Y13445D02*
Y13642D01*
X7667Y13445D02*
X7766D01*
X8199D02*
X8297D01*
X7648Y13642D02*
X7766D01*
X6998Y13445D02*
X7628D01*
Y13386D02*
X7667D01*
X9370Y13041D02*
Y13632D01*
X8297Y13307D02*
X9370D01*
Y13041D02*
X9531D01*
X8297Y12854D02*
Y13445D01*
Y13150D02*
X9370D01*
X8297Y13228D02*
X9370D01*
X8297Y13071D02*
X9370D01*
X9429Y12185D02*
Y12740D01*
X8297Y12992D02*
X9470D01*
X8297Y12913D02*
X9423D01*
X7667Y12854D02*
X8297D01*
X7628Y13228D02*
X7667D01*
X7628Y13307D02*
X7667D01*
Y12854D02*
Y13445D01*
X7628Y12854D02*
Y13445D01*
X7313Y13150D02*
X7589D01*
X7313D02*
Y13406D01*
Y12894D02*
Y13150D01*
X7628Y13071D02*
X7667D01*
X7628Y13150D02*
X7667D01*
X7628Y12992D02*
X7667D01*
X7628Y12913D02*
X7667D01*
X7037Y13150D02*
X7313D01*
X6998Y12854D02*
X7628D01*
X157Y12598D02*
X9429D01*
X157Y12677D02*
X9429D01*
X157Y12441D02*
X9429D01*
X157Y12520D02*
X9429D01*
X157Y12835D02*
X9409D01*
X157Y13543D02*
X7766D01*
X157Y12756D02*
X9423D01*
X157Y12047D02*
X9479D01*
X157Y12126D02*
X9437D01*
X157Y11890D02*
X8904D01*
X157Y11811D02*
X8740D01*
X157Y12283D02*
X9429D01*
X157Y12362D02*
X9429D01*
X157Y12205D02*
X9429D01*
X6900Y13642D02*
Y14390D01*
X157Y13701D02*
X6900D01*
Y13642D02*
X7569D01*
X6998Y12854D02*
Y13445D01*
X157Y13464D02*
X7766D01*
X157Y13622D02*
X7766D01*
X157Y13386D02*
X6998D01*
X157Y12992D02*
X6998D01*
X157Y13071D02*
X6998D01*
X157Y12913D02*
X6998D01*
X157Y13228D02*
X6998D01*
X157Y13307D02*
X6998D01*
X157Y13150D02*
X6998D01*
X157Y11496D02*
X8465D01*
X157Y11417D02*
X8434D01*
X157Y10945D02*
X8434D01*
X157Y11024D02*
X8412D01*
X157Y11732D02*
X8638D01*
X157Y11653D02*
X8564D01*
X157Y11575D02*
X8508D01*
X157Y10551D02*
X8740D01*
X157Y10630D02*
X8638D01*
X157Y10472D02*
X8904D01*
X157Y10787D02*
X8508D01*
X157Y10866D02*
X8465D01*
X157Y10709D02*
X8564D01*
X157Y11102D02*
X8400D01*
X157Y11181D02*
X8396D01*
X2343Y8819D02*
X2343Y7766D01*
X1299Y8819D02*
X2343Y8819D01*
X157Y11339D02*
X8412D01*
X157Y11260D02*
X8400D01*
X157Y157D02*
Y19098D01*
Y8740D02*
X1299D01*
X157Y8819D02*
X1299D01*
Y8819D02*
X1299Y7766D01*
X157Y8583D02*
X1299D01*
X157Y8661D02*
X1299D01*
X157Y8504D02*
X1299D01*
X2460Y6929D02*
X3980D01*
X2514Y6850D02*
X3942D01*
X2552Y6772D02*
X3913D01*
X2578Y6693D02*
X3893D01*
X1977Y7165D02*
X4180D01*
X2274Y7087D02*
X4095D01*
X2385Y7008D02*
X4031D01*
X2593Y6614D02*
X3882D01*
X2598Y6535D02*
X3878D01*
X2578Y6378D02*
X3893D01*
X2593Y6457D02*
X3882D01*
X2552Y6299D02*
X3913D01*
X2514Y6220D02*
X3942D01*
X157Y8346D02*
X1299D01*
X157Y8425D02*
X1299D01*
X1299Y7766D02*
X2343Y7766D01*
X157Y8110D02*
X1299D01*
X157Y8189D02*
X1299D01*
X157Y7165D02*
X1960D01*
X157Y7087D02*
X1663D01*
X157Y7008D02*
X1552D01*
X157Y6457D02*
X1344D01*
X157Y6535D02*
X1339D01*
X157Y6378D02*
X1359D01*
X2507Y2441D02*
X8606D01*
X2577Y2362D02*
X8542D01*
X2637Y2283D02*
X8493D01*
X2688Y2205D02*
X8456D01*
X2195Y2677D02*
X9144D01*
X2322Y2598D02*
X8818D01*
X2423Y2520D02*
X8693D01*
X2873Y1575D02*
X8493D01*
X2869Y1654D02*
X8456D01*
X2869Y1417D02*
X8606D01*
X2873Y1496D02*
X8542D01*
X2859Y1339D02*
X8693D01*
X2859Y1732D02*
X8430D01*
X2844Y1260D02*
X8818D01*
X2385Y6063D02*
X4031D01*
X2460Y6142D02*
X3981D01*
X2273Y5984D02*
X4096D01*
X2825Y1890D02*
X8405D01*
X2800Y1968D02*
X8405D01*
X2844Y1811D02*
X8413D01*
X2732Y2126D02*
X8430D01*
X2769Y2047D02*
X8413D01*
X157Y6850D02*
X1423D01*
X157Y6772D02*
X1385D01*
X157Y6220D02*
X1423D01*
X157Y6299D02*
X1385D01*
X157Y7323D02*
X4508D01*
X157Y7244D02*
X4299D01*
X157Y6929D02*
X1477D01*
X157Y5827D02*
X4299D01*
X157Y5905D02*
X4181D01*
X157Y5748D02*
X4508D01*
X157Y2835D02*
X1564D01*
X157Y6063D02*
X1552D01*
X157Y6142D02*
X1477D01*
X157Y5984D02*
X1664D01*
X157Y7795D02*
X1299D01*
X157Y7874D02*
X1299D01*
X157Y6693D02*
X1359D01*
X157Y6614D02*
X1344D01*
X157Y8031D02*
X1299D01*
X157Y8268D02*
X1299D01*
X157Y7953D02*
X1299D01*
X157Y2520D02*
X727D01*
X157Y2441D02*
X643D01*
X157Y2362D02*
X573D01*
X157Y2756D02*
X1129D01*
X157Y2677D02*
X955D01*
X157Y2598D02*
X828D01*
X157Y945D02*
X418D01*
X157Y1024D02*
X381D01*
X157Y787D02*
X513D01*
X157Y866D02*
X461D01*
X157Y2283D02*
X513D01*
X157Y2205D02*
X461D01*
X157Y2126D02*
X418D01*
X157Y394D02*
X955D01*
X157Y472D02*
X828D01*
X157Y315D02*
X1129D01*
X157Y630D02*
X643D01*
X157Y709D02*
X573D01*
X157Y551D02*
X727D01*
X157Y1811D02*
X305D01*
X157Y1732D02*
X291D01*
X157Y1654D02*
X281D01*
X157Y1575D02*
X276D01*
X157Y2047D02*
X381D01*
X157Y1968D02*
X350D01*
X157Y1890D02*
X325D01*
X157Y1181D02*
X325D01*
X157Y1260D02*
X305D01*
X157Y1102D02*
X350D01*
X157Y1417D02*
X281D01*
X157Y1496D02*
X276D01*
X157Y1339D02*
X291D01*
X16103Y13858D02*
X16142D01*
X16103Y14016D02*
X16142D01*
Y12805D02*
Y14154D01*
X15876Y14419D02*
X16142Y14154D01*
X16103Y13937D02*
X16142D01*
X16103Y13701D02*
X16142D01*
X16103Y13779D02*
X16142D01*
X16103Y13622D02*
X16142D01*
X16103Y13543D02*
X16142D01*
X15118Y12835D02*
X16142D01*
X15847Y13780D02*
Y14035D01*
X15630Y13780D02*
X15847D01*
X16103Y13484D02*
Y14075D01*
X15591D02*
X16103D01*
X15591Y13484D02*
Y14075D01*
X15847Y13780D02*
X16063D01*
X15847Y13524D02*
Y13780D01*
X15935Y12598D02*
X16142Y12805D01*
X15591Y13484D02*
X16103D01*
X15118Y13071D02*
X16142D01*
X15580Y12520D02*
X15935D01*
X15580Y12598D02*
X15935D01*
Y12087D02*
Y12598D01*
X15580Y12441D02*
X15935D01*
X15580Y12362D02*
X15935D01*
X15580Y12205D02*
X15935D01*
X15580Y12283D02*
X15935D01*
X15748Y11900D02*
X15935Y12087D01*
X15580Y12126D02*
X15935D01*
X15262Y12047D02*
X15896D01*
X15325Y12352D02*
X15541D01*
X15325D02*
Y12608D01*
X15580Y12057D02*
Y12648D01*
X15325Y12096D02*
Y12352D01*
X15252Y12057D02*
X15580D01*
X15402Y11900D02*
X15748D01*
X15341Y11968D02*
X15817D01*
X15252Y12057D02*
X15377Y11932D01*
X14527Y14409D02*
X15886D01*
X14537Y14419D02*
X15876D01*
X14449Y14331D02*
X15965D01*
X14370Y14252D02*
X16043D01*
X14291Y14173D02*
X16122D01*
X14213Y14094D02*
X16142D01*
X14203Y14016D02*
X15591D01*
X14203Y13937D02*
X15591D01*
X14203Y13858D02*
X15591D01*
X14203Y13779D02*
X15591D01*
X14232Y13622D02*
X15591D01*
X14203Y13701D02*
X15591D01*
X14203Y13652D02*
X14355Y13499D01*
X14203Y14085D02*
X14537Y14419D01*
X14203Y13652D02*
Y14085D01*
X14513Y13474D02*
X14734D01*
X14311Y13543D02*
X15591D01*
X14355Y13499D02*
X14429D01*
X15046Y13228D02*
X16142D01*
X14961Y13307D02*
X16142D01*
X15107Y13150D02*
X16142D01*
X14744Y13464D02*
X16142D01*
X14823Y13386D02*
X16142D01*
X15118Y12756D02*
X16092D01*
X15118Y12677D02*
X16014D01*
X15118Y12648D02*
X15580D01*
X15118Y12992D02*
X16142D01*
X15118Y12913D02*
X16142D01*
X14990Y13284D02*
X15072Y13202D01*
X14734Y13474D02*
X14878Y13330D01*
X15118Y12648D02*
Y13091D01*
X15108Y12352D02*
X15325D01*
X15049Y12253D02*
Y12517D01*
X15069Y12239D02*
Y12533D01*
X14078Y12972D02*
Y13169D01*
X14022Y13307D02*
X14075D01*
X14094Y12756D02*
Y13263D01*
X13848Y13533D02*
X14096Y13286D01*
X14022Y12835D02*
X14094D01*
X13346Y12756D02*
X14094D01*
X13346Y12677D02*
X14096D01*
X13724Y13366D02*
X13881D01*
X13803Y13071D02*
Y13327D01*
Y12815D02*
Y13071D01*
X13527Y12972D02*
Y13169D01*
X13803Y13071D02*
X14039D01*
X13724Y12776D02*
X13881D01*
X13567Y13071D02*
X13803D01*
X13553Y12431D02*
X14102D01*
X13346Y12598D02*
X14098D01*
X14095Y12752D02*
X14102Y12431D01*
X13346Y12520D02*
X14100D01*
X13346Y12441D02*
X14102D01*
X13593Y12175D02*
X13848D01*
Y12392D01*
X13346Y12362D02*
X13553D01*
X13346Y12283D02*
X13553D01*
X13346Y12205D02*
X13553D01*
X13346Y11959D02*
Y12825D01*
X13553Y11959D02*
Y12431D01*
X13346Y12126D02*
X13553D01*
X13346Y12047D02*
X13553D01*
X13346Y11968D02*
X13553D01*
X13346Y11959D02*
X13553D01*
X13054D02*
X13346D01*
X13054D02*
X13346D01*
X12648Y13464D02*
X13917D01*
X12707Y13524D02*
X13839D01*
X12569Y13386D02*
X13996D01*
X12490Y13307D02*
X13583D01*
X12411Y13228D02*
X13536D01*
X12343Y12913D02*
X13536D01*
X12343Y12835D02*
X13584D01*
X12343Y13150D02*
X13527D01*
X12343Y13071D02*
X13527D01*
X12343Y12992D02*
X13527D01*
X12343Y13159D02*
X12707Y13524D01*
X12480Y12825D02*
X13346D01*
X12343Y12756D02*
X12480D01*
X12343Y12677D02*
X12480D01*
X12343Y12441D02*
X12480D01*
X12913Y12392D02*
X13307D01*
X12343Y12598D02*
X12480D01*
X12343Y12520D02*
X12480D01*
X12913Y11998D02*
Y12392D01*
Y12785D01*
X12520Y12392D02*
X12913D01*
X12772Y11959D02*
X13054D01*
X12864Y11929D02*
X12963D01*
X12343Y12362D02*
X12480D01*
X12343Y12224D02*
Y13159D01*
X12480Y12087D02*
Y12825D01*
X12343Y12283D02*
X12480D01*
X12343Y12224D02*
X12480Y12087D01*
X12608Y11959D02*
X12772D01*
X12608D02*
X12772D01*
X12362Y12205D02*
X12480D01*
X12441Y12126D02*
X12480D01*
X14961Y12648D02*
Y13091D01*
X14878Y13071D02*
X14961D01*
X14970Y12116D02*
X15266Y11821D01*
X14869Y12913D02*
X14961D01*
X14822Y12835D02*
X14961D01*
X15167Y11732D02*
X15266D01*
X15167Y11811D02*
X15266D01*
X15167Y11653D02*
X15266D01*
X14970Y12057D02*
Y12116D01*
X14577Y11890D02*
X15167D01*
X14878Y12992D02*
X14961D01*
X14878Y13173D02*
X14961Y13091D01*
X14878Y12972D02*
Y13169D01*
X14603Y13071D02*
X14839D01*
X14603Y12815D02*
Y13071D01*
X14715Y12096D02*
Y12352D01*
Y12608D01*
X14872Y11575D02*
Y11850D01*
X14524Y12776D02*
X14682D01*
X15266Y11319D02*
Y11821D01*
X15167Y11575D02*
X15266D01*
X15167Y11260D02*
Y11890D01*
Y11496D02*
X15266D01*
X15167Y11417D02*
X15266D01*
X15177Y11230D02*
X15266Y11319D01*
X15167Y11339D02*
X15266D01*
X14616Y11230D02*
X15177D01*
X14587Y11260D02*
X15167D01*
X14587Y11260D02*
X15207D01*
X14872Y11575D02*
X15128D01*
X14616D02*
X14872D01*
Y11299D02*
Y11575D01*
X14528Y11319D02*
Y11526D01*
X14577Y11270D02*
Y11890D01*
X14528Y11319D02*
X14577Y11270D01*
X14528Y11339D02*
X14577D01*
X14587Y11260D02*
X14616Y11230D01*
X14528Y11496D02*
X14577D01*
X14528Y11417D02*
X14577D01*
X14331Y13342D02*
X14429D01*
X14367Y13071D02*
X14603D01*
X14252Y12756D02*
X14961D01*
X14459Y12648D02*
X14961D01*
X14258Y12520D02*
X14459D01*
X14259Y12441D02*
X14459D01*
X14254Y12677D02*
X14961D01*
X14256Y12598D02*
X14459D01*
X14296Y13307D02*
X14383D01*
X14252Y13263D02*
X14331Y13342D01*
X14327Y12972D02*
Y13169D01*
X14252Y13228D02*
X14336D01*
X14252Y12756D02*
Y13263D01*
Y12913D02*
X14336D01*
X14252Y12992D02*
X14327D01*
X14252Y12835D02*
X14383D01*
X14252Y13150D02*
X14327D01*
X14252Y13071D02*
X14327D01*
X14459Y12057D02*
X14970D01*
X14498Y12352D02*
X14715D01*
X14478Y11890D02*
X14577D01*
X14331Y12047D02*
X15039D01*
X14410Y11968D02*
X15118D01*
X14520Y11575D02*
X14577D01*
X14478Y11653D02*
X14577D01*
X14478Y11811D02*
X14577D01*
X14478Y11732D02*
X14577D01*
X14262Y12283D02*
X14459D01*
X14262Y12116D02*
Y12343D01*
X14459Y12057D02*
Y12648D01*
X14261Y12362D02*
X14459D01*
X14252Y12756D02*
X14262Y12343D01*
X14478Y11640D02*
Y11900D01*
X14262Y12116D02*
X14478Y11900D01*
X14262Y12205D02*
X14459D01*
X14262Y12126D02*
X14459D01*
X14951Y8031D02*
X17126D01*
X15030Y7953D02*
X17205D01*
X14793Y8189D02*
X16969D01*
X14872Y8110D02*
X17047D01*
X15187Y7795D02*
X17362D01*
X15266Y7716D02*
X17441D01*
X15108Y7874D02*
X17284D01*
X14478Y8504D02*
X16654D01*
X14557Y8425D02*
X16732D01*
X14321Y8661D02*
X16496D01*
X14400Y8583D02*
X16575D01*
X14370Y10787D02*
X17913Y7244D01*
X14715Y8268D02*
X16890D01*
X14636Y8346D02*
X16811D01*
X16937Y7165D02*
X17913D01*
X17234Y7087D02*
X17913D01*
X15817Y7165D02*
X16921D01*
X15896Y7087D02*
X16624D01*
X17346Y7008D02*
X17913D01*
X17421Y6929D02*
X17913D01*
X15915Y7008D02*
X16512D01*
X15423Y7559D02*
X17598D01*
X15502Y7480D02*
X17677D01*
X15345Y7638D02*
X17520D01*
X15660Y7323D02*
X17835D01*
X15738Y7244D02*
X17913D01*
X15581Y7402D02*
X17756D01*
X14144Y11752D02*
X14370Y11526D01*
X14144Y11417D02*
X14370D01*
X14144Y11653D02*
X14242D01*
X14144Y11575D02*
X14321D01*
X14370Y10787D02*
Y11526D01*
X14144Y11339D02*
X14370D01*
X14144Y11309D02*
Y11752D01*
X14094Y11801D02*
X14144Y11752D01*
X13848Y11565D02*
X14104D01*
X13593D02*
X13848D01*
Y11349D02*
Y11565D01*
X14144Y11496D02*
X14370D01*
X13553Y11309D02*
Y11801D01*
X14085Y8898D02*
X16260D01*
X14163Y8819D02*
X16339D01*
X13927Y9055D02*
X16102D01*
X14006Y8976D02*
X16181D01*
X14242Y8740D02*
X16417D01*
X15915Y6929D02*
X16437D01*
X15915Y6850D02*
X16384D01*
X13534Y9449D02*
X15709D01*
X13612Y9370D02*
X15787D01*
X13553Y11309D02*
X14144D01*
X13770Y9213D02*
X15945D01*
X13848Y9134D02*
X16024D01*
X13691Y9291D02*
X15866D01*
X17554Y6614D02*
X17913D01*
X17559Y6535D02*
X17913D01*
X17513Y6772D02*
X17913D01*
X17539Y6693D02*
X17913D01*
Y5492D02*
Y7244D01*
X17539Y6378D02*
X17913D01*
X17554Y6457D02*
X17913D01*
X17475Y6850D02*
X17913D01*
X17513Y6299D02*
X17913D01*
X17475Y6220D02*
X17913D01*
X17421Y6142D02*
X17913D01*
X15699Y5905D02*
X17913D01*
X15620Y5827D02*
X17913D01*
X17346Y6063D02*
X17913D01*
X17234Y5984D02*
X17913D01*
X15463Y5669D02*
X17913D01*
X15384Y5591D02*
X17913D01*
X15541Y5748D02*
X17913D01*
X15305Y5512D02*
X17913D01*
X15226Y5433D02*
X17854D01*
X15148Y5354D02*
X17776D01*
X14311Y1890D02*
X17913Y5492D01*
X15069Y5276D02*
X17697D01*
X14990Y5197D02*
X17618D01*
X15915Y6772D02*
X16345D01*
X15915Y6693D02*
X16319D01*
X15915Y6614D02*
X16304D01*
X15915Y6378D02*
X16319D01*
X15915Y6457D02*
X16304D01*
X15915Y6299D02*
X16345D01*
X15915Y6535D02*
X16299D01*
X15915Y6220D02*
X16384D01*
X15915Y6142D02*
X16437D01*
X15915Y6122D02*
X15915Y7067D01*
X14911Y5118D02*
X17539D01*
X14833Y5039D02*
X17461D01*
X15856Y6063D02*
X16513D01*
X15778Y5984D02*
X16624D01*
X14754Y4961D02*
X17382D01*
X14675Y4882D02*
X17303D01*
X14596Y4803D02*
X17224D01*
X14577Y4783D02*
X15915Y6122D01*
X13740Y4724D02*
X17146D01*
X13799Y4783D02*
X14577D01*
X13661Y4646D02*
X17067D01*
X13583Y4567D02*
X16988D01*
X13504Y4488D02*
X16909D01*
X13292Y11181D02*
X14370D01*
X13236Y11102D02*
X14370D01*
X13334Y11496D02*
X13553D01*
X13326Y11260D02*
X14370D01*
X12156Y10472D02*
X14685D01*
X12234Y10394D02*
X14764D01*
X13141Y11024D02*
X14370D01*
X12106Y10866D02*
X14370D01*
X12106Y10787D02*
X14370D01*
X12106Y10945D02*
X14370D01*
X12106Y10630D02*
X14528D01*
X12106Y10551D02*
X14606D01*
X12106Y10709D02*
X14449D01*
X13219Y9764D02*
X15394D01*
X13297Y9685D02*
X15473D01*
X13061Y9921D02*
X15236D01*
X13140Y9842D02*
X15315D01*
X13455Y9528D02*
X15630D01*
X13425Y4409D02*
X16831D01*
X13376Y9606D02*
X15551D01*
X12392Y10236D02*
X14921D01*
X12471Y10157D02*
X15000D01*
X12313Y10315D02*
X14843D01*
X12854Y10128D02*
X15915Y7067D01*
X12982Y10000D02*
X15158D01*
X12904Y10079D02*
X15079D01*
X13054Y11801D02*
X13553D01*
X13181Y11732D02*
X13553D01*
X12372Y11801D02*
X12772D01*
X13258Y11653D02*
X13553D01*
X13306Y11575D02*
X13553D01*
X12303Y11732D02*
X12646D01*
X12224Y11653D02*
X12568D01*
X12146Y11575D02*
X12521D01*
X12106Y11535D02*
X12372Y11801D01*
X12106Y11496D02*
X12493D01*
X12106Y10522D02*
Y11535D01*
X13346Y11417D02*
X13553D01*
X12913Y11392D02*
X13307D01*
X12106Y11417D02*
X12481D01*
X12520Y11392D02*
X12913D01*
Y10998D02*
Y11392D01*
X13343Y11339D02*
X13553D01*
X12500Y10128D02*
X12854Y10128D01*
X12106Y11260D02*
X12501D01*
X12106Y11181D02*
X12535D01*
X12106Y11339D02*
X12484D01*
X12106Y11102D02*
X12591D01*
X12106Y11024D02*
X12685D01*
X12106Y10522D02*
X12500Y10128D01*
X13346Y4331D02*
X16752D01*
X13268Y4252D02*
X16673D01*
X13189Y4173D02*
X16594D01*
X13110Y4094D02*
X16516D01*
X13031Y4016D02*
X16437D01*
X12953Y3937D02*
X16358D01*
X12874Y3858D02*
X16279D01*
X12795Y3779D02*
X16201D01*
X12716Y3701D02*
X16122D01*
X12638Y3622D02*
X16043D01*
X12559Y3543D02*
X15965D01*
X12480Y3465D02*
X15886D01*
X12402Y3386D02*
X15807D01*
X12323Y3307D02*
X15728D01*
X12244Y3228D02*
X15650D01*
X12165Y3150D02*
X15571D01*
X12087Y3071D02*
X15492D01*
X12008Y2992D02*
X15413D01*
X11929Y2913D02*
X15335D01*
X11850Y2835D02*
X15256D01*
X11772Y2756D02*
X15177D01*
X11693Y2677D02*
X15098D01*
X11614Y2598D02*
X15020D01*
X11535Y2520D02*
X14941D01*
X11486Y2441D02*
X14862D01*
X11486Y2362D02*
X14783D01*
X11486Y2283D02*
X14705D01*
X11486Y2205D02*
X14626D01*
X11486Y2470D02*
X13799Y4783D01*
X11486Y2126D02*
X14547D01*
X12451Y1280D02*
X13061Y1890D01*
X14311D01*
X11486Y1137D02*
Y2470D01*
Y2047D02*
X14468D01*
X11486Y1968D02*
X14390D01*
X11486Y1890D02*
X13061D01*
X11486Y1811D02*
X12982D01*
X11486Y1732D02*
X12903D01*
X11486Y1654D02*
X12825D01*
X11486Y1417D02*
X12589D01*
X12177Y1260D02*
X12451D01*
X12451Y1147D02*
X12451Y1280D01*
X12301Y1181D02*
X12451D01*
X12337Y1145D02*
X12451Y1147D01*
X11486Y1575D02*
X12746D01*
X11486Y1496D02*
X12667D01*
X11486Y1339D02*
X12510D01*
X11486Y1260D02*
X11799D01*
X11486Y1181D02*
X11676D01*
X11486Y1137D02*
X11633Y1138D01*
X11831Y15443D02*
X11998Y15276D01*
X11201Y15354D02*
X11919D01*
X11122Y15276D02*
X11998D01*
X11289Y15443D02*
X11831D01*
X11279Y15433D02*
X11841D01*
X11998Y15108D02*
Y15276D01*
X11043Y15197D02*
X11998D01*
X11900Y15010D02*
X11998Y15108D01*
X11348Y14695D02*
X11663Y15010D01*
X11900D01*
X10964Y15118D02*
X11998D01*
X10886Y15039D02*
X11929D01*
X10807Y14961D02*
X11614D01*
X10797Y14951D02*
X11289Y15443D01*
X10797Y14882D02*
X11535D01*
X10797Y14803D02*
X11457D01*
X10797Y14724D02*
X11378D01*
X10797Y14695D02*
Y14951D01*
Y14695D02*
X11348D01*
X17035Y15051D02*
X17638D01*
X16673Y15413D02*
X17035Y15051D01*
X16673Y15413D02*
Y16555D01*
X16998Y16880D01*
X17362D01*
X17776Y17087D02*
X17913D01*
X16171Y18691D02*
X17776Y17087D01*
X9853Y18691D02*
X16171D01*
X8711Y17549D02*
X9853Y18691D01*
X8711Y17037D02*
Y17549D01*
Y17037D02*
X8770Y16978D01*
X8996D01*
D18*
X11988Y1407D02*
Y1772D01*
D19*
X12972Y827D02*
X13406D01*
X12972D02*
Y1260D01*
Y394D02*
Y827D01*
X12539D02*
X12972D01*
X1969Y6535D02*
X2559D01*
X1969D02*
Y7126D01*
X1378Y6535D02*
X1969D01*
Y5945D02*
Y6535D01*
X16929D02*
X17520D01*
X16929D02*
Y7126D01*
Y5945D02*
Y6535D01*
X16339D02*
X16929D01*
X11988Y827D02*
Y1260D01*
X10236Y12707D02*
X10236Y12707D01*
X10236Y12707D02*
Y13337D01*
X10591D02*
X10600Y13346D01*
X10236Y13337D02*
X10591D01*
X9626Y14016D02*
X9636Y14026D01*
X9626Y13337D02*
Y14016D01*
X9793Y12037D02*
X10955D01*
X9646Y12185D02*
Y12835D01*
Y12185D02*
X9793Y12037D01*
X10955Y12707D02*
X10955Y12707D01*
X10236Y12707D02*
X10955D01*
X6766Y19317D02*
Y19981D01*
X6447Y14921D02*
X7234D01*
X7982Y13150D02*
Y14016D01*
D21*
Y14921D02*
D03*
Y14016D02*
D03*
X7234Y14921D02*
D03*
Y14016D02*
D03*
D22*
X10669Y15305D02*
D03*
X10472D02*
D03*
X10276D02*
D03*
X10079D02*
D03*
X9882D02*
D03*
X9685D02*
D03*
X9488D02*
D03*
X9291D02*
D03*
Y17274D02*
D03*
X9488D02*
D03*
X9685D02*
D03*
X9882D02*
D03*
X10079D02*
D03*
X10276D02*
D03*
X10472D02*
D03*
X10669D02*
D03*
D23*
X8996Y15600D02*
D03*
Y15797D02*
D03*
Y15994D02*
D03*
Y16191D02*
D03*
Y16388D02*
D03*
Y16585D02*
D03*
Y16782D02*
D03*
Y16978D02*
D03*
X10965D02*
D03*
Y16782D02*
D03*
Y16585D02*
D03*
Y16388D02*
D03*
Y16191D02*
D03*
Y15994D02*
D03*
Y15797D02*
D03*
Y15600D02*
D03*
D24*
X11939Y15718D02*
D03*
Y16073D02*
D03*
D25*
X14124Y15896D02*
D03*
D26*
X14603Y13071D02*
D03*
X13803D02*
D03*
D27*
X6762Y18041D02*
D03*
Y17707D02*
D03*
D52*
X6280Y19833D02*
D03*
X5374D02*
D03*
D53*
X6766Y19981D02*
D03*
D54*
X13848Y12175D02*
D03*
Y11565D02*
D03*
D55*
X10236Y13337D02*
D03*
X9626D02*
D03*
X16457Y13780D02*
D03*
X15847D02*
D03*
X15325Y12352D02*
D03*
X14715D02*
D03*
D56*
X11191Y17785D02*
D03*
X11860D02*
D03*
X7835Y15669D02*
D03*
X7165D02*
D03*
X7835Y16270D02*
D03*
X7165D02*
D03*
X7313Y13150D02*
D03*
X7982D02*
D03*
D57*
X16457Y13061D02*
D03*
Y12392D02*
D03*
X6447Y14252D02*
D03*
Y14921D02*
D03*
X8957Y13907D02*
D03*
Y14577D02*
D03*
X10955Y12037D02*
D03*
Y12707D02*
D03*
X11900Y14675D02*
D03*
Y14006D02*
D03*
X13189Y14429D02*
D03*
Y15098D02*
D03*
X12579Y14439D02*
D03*
Y15108D02*
D03*
X14872Y11575D02*
D03*
Y10906D02*
D03*
X6766Y19242D02*
D03*
Y18573D02*
D03*
X7726Y17195D02*
D03*
Y17864D02*
D03*
D58*
X9980Y16289D02*
D03*
D59*
X10384Y14026D02*
D03*
X9636D02*
D03*
D60*
X10236Y11998D02*
D03*
Y12707D02*
D03*
X11152Y14311D02*
D03*
Y13602D02*
D03*
D61*
X1821Y8297D02*
D03*
X17844Y18839D02*
D03*
D62*
X11988Y827D02*
Y1407D01*
D63*
X14872Y11575D02*
X15266D01*
X15394Y11447D01*
X17033D01*
X17638Y12051D01*
D64*
X7067Y17195D02*
X7726D01*
X6762Y17500D02*
X7067Y17195D01*
X6762Y17500D02*
Y17707D01*
Y18569D02*
X6766Y18573D01*
X6762Y18041D02*
Y18569D01*
D65*
X5767Y19636D02*
D03*
D66*
X12913Y11392D02*
D03*
X14295Y17421D02*
D03*
X15295D02*
D03*
X17638Y14051D02*
D03*
Y15051D02*
D03*
Y13051D02*
D03*
Y16051D02*
D03*
D67*
X12913Y12392D02*
D03*
X17638Y12051D02*
D03*
D68*
X16295Y17421D02*
D03*
D69*
X16929Y3307D02*
D03*
X11988Y827D02*
D03*
X11004D02*
D03*
D70*
X4685Y6535D02*
D03*
X14213D02*
D03*
D71*
X1969D02*
D03*
X16929D02*
D03*
D72*
X12972Y827D02*
D03*
D73*
X17323Y21220D02*
D03*
X1575Y1535D02*
D03*
D74*
X9152Y1929D02*
D03*
X9144Y11181D02*
D03*
D75*
X6841Y14478D02*
D03*
X6683Y16250D02*
D03*
X15315Y10384D02*
D03*
X15341Y10896D02*
D03*
X14537Y14094D02*
D03*
X16903Y11909D02*
D03*
X16919Y12382D02*
D03*
X8956Y13366D02*
D03*
X11929Y13494D02*
D03*
X11152Y13159D02*
D03*
X14852Y15896D02*
D03*
X12352Y17795D02*
D03*
X8268Y17037D02*
D03*
X8169Y17303D02*
D03*
X8150Y17589D02*
D03*
X8159Y17904D02*
D03*
X7736Y18327D02*
D03*
X7234Y17559D02*
D03*
X7106Y17884D02*
D03*
X7116Y18179D02*
D03*
X7146Y18484D02*
D03*
Y18770D02*
D03*
X7165Y19075D02*
D03*
X7205Y19360D02*
D03*
X6319Y19429D02*
D03*
Y19124D02*
D03*
X6329Y18848D02*
D03*
X6358Y18484D02*
D03*
X6388Y18150D02*
D03*
Y17785D02*
D03*
X6407Y17411D02*
D03*
X6624Y17047D02*
D03*
X7008Y16870D02*
D03*
X7402Y16791D02*
D03*
X7766Y16722D02*
D03*
X6437Y13780D02*
D03*
X6821Y13130D02*
D03*
X18504Y11811D02*
D03*
Y7874D02*
D03*
Y3937D02*
D03*
X17520Y1969D02*
D03*
X15551D02*
D03*
X13583Y17717D02*
D03*
X14567Y7874D02*
D03*
X13583Y5906D02*
D03*
X11614Y9843D02*
D03*
X12598Y7874D02*
D03*
X11614Y5906D02*
D03*
X9646Y9843D02*
D03*
X10630Y7874D02*
D03*
X9646Y5906D02*
D03*
X10630Y3937D02*
D03*
X7677Y9843D02*
D03*
X8661Y7874D02*
D03*
X7677Y5906D02*
D03*
X8661Y3937D02*
D03*
X7677Y1969D02*
D03*
X5709Y17717D02*
D03*
X6693Y15748D02*
D03*
X5709Y13780D02*
D03*
X6693Y11811D02*
D03*
X5709Y9843D02*
D03*
X6693Y7874D02*
D03*
X5709Y5906D02*
D03*
X6693Y3937D02*
D03*
X5709Y1969D02*
D03*
X3740Y17717D02*
D03*
X4724Y15748D02*
D03*
X3740Y13780D02*
D03*
X4724Y11811D02*
D03*
X3740Y9843D02*
D03*
X4724Y7874D02*
D03*
X3740Y5906D02*
D03*
X4724Y3937D02*
D03*
X3740Y1969D02*
D03*
X1772Y17717D02*
D03*
Y13780D02*
D03*
X2756Y11811D02*
D03*
X1772Y9843D02*
D03*
X2756Y7874D02*
D03*
Y3937D02*
D03*
X10600Y13346D02*
D03*
X10079Y14567D02*
D03*
X9646Y12835D02*
D03*
X9970Y17667D02*
D03*
X8986Y17490D02*
D03*
X11309Y15089D02*
D03*
X14685Y13740D02*
D03*
X15000Y13484D02*
D03*
X15197Y13780D02*
D03*
X14990Y14094D02*
D03*
X9980Y15797D02*
D03*
X10472D02*
D03*
X9488D02*
D03*
X9975Y16782D02*
D03*
X10468D02*
D03*
X9483D02*
D03*
X9488Y16289D02*
D03*
X10472D02*
D03*
X9980D02*
D03*
X10738Y17667D02*
D03*
X11850Y15167D02*
D03*
X10925Y14793D02*
D03*
X9152Y14961D02*
D03*
X9675Y14567D02*
D03*
X18642Y14114D02*
D03*
X17362Y16880D02*
D03*
X17913Y17087D02*
D03*
X7362Y19636D02*
D03*
X7667D02*
D03*
X2490Y19616D02*
D03*
X6152D02*
D03*
X5866D02*
D03*
X5591D02*
D03*
X4459D02*
D03*
X4734D02*
D03*
X5020D02*
D03*
X5305D02*
D03*
X3327D02*
D03*
X3602D02*
D03*
X3888D02*
D03*
X4173D02*
D03*
X3041D02*
D03*
X2766D02*
D03*
X8799Y19636D02*
D03*
X8514D02*
D03*
X8228D02*
D03*
X7953D02*
D03*
X9931D02*
D03*
X9646D02*
D03*
X9360D02*
D03*
X9085D02*
D03*
X10217D02*
D03*
X10492D02*
D03*
X11624D02*
D03*
X11339D02*
D03*
X11053D02*
D03*
X10778D02*
D03*
X12756D02*
D03*
X12470D02*
D03*
X12185D02*
D03*
X11909D02*
D03*
X13041D02*
D03*
X18130D02*
D03*
X18406D02*
D03*
X16998D02*
D03*
X17274D02*
D03*
X17559D02*
D03*
X17844D02*
D03*
X15866D02*
D03*
X16142D02*
D03*
X16427D02*
D03*
X16713D02*
D03*
X14734D02*
D03*
X15010D02*
D03*
X15295D02*
D03*
X15581D02*
D03*
X13602D02*
D03*
X13878D02*
D03*
X14163D02*
D03*
X14449D02*
D03*
X13317D02*
D03*
M02*
