M48
;Layer_Color=9474304
;FILE_FORMAT=2:4
INCH,LZ
;TYPE=PLATED
T1F00S00C0.0118
T2F00S00C0.0197
T3F00S00C0.0394
T4F00S00C0.0984
T5F00S00C0.1575
%
T01
X01938Y012539
X020433Y01247
X022116Y013681
X022766Y014705
X023563Y014764
X024134Y014656
X024892Y013868
X024921Y015443
X027648Y015089
X027579Y014429
X029439Y013868
X029852Y013602
X028986Y015522
X024774Y011083
X033888Y014754
X034016Y015217
X0356Y015069
X035827Y015463
X037011Y015391
X038159Y014646
X037953Y015906
X037293Y016132
X036427Y016447
X035581Y015925
X034469Y015965
X034537Y016939
X033809Y016654
X033829Y017303
X033976Y019104
X03451Y019016
X033366Y019606
X03253Y020738
X032087Y020709
X031634
X031417Y018839
X032382Y018465
X032992Y015935
X035354Y018091
X035531Y019892
X035049Y020807
X035748Y021467
X036654Y021004
X036535Y019498
X037598Y019026
X0381Y018898
X038474Y018642
X038652Y01936
X039163Y019774
X038553Y020207
X038445Y020699
X038839Y020866
X039281Y020738
X040325Y020768
X039862Y022392
X039449Y023061
X038799Y023848
X037943Y023829
X037854Y023061
X037146Y023041
X037018Y023484
X037392Y024528
X037018Y025404
X03625Y025098
X036073Y025709
X036063Y024439
X035571Y024104
X035561Y023602
X035669Y023169
X034892Y024045
X035325Y024961
X034075Y025049
X033337Y023858
X033396Y023396
X03374Y023061
X033996Y0219
X034606Y021959
X032028Y022618
X031781Y022894
X032628Y024163
X038297Y025384
X039419Y024665
X039931Y024341
X041102Y024518
X042254Y024587
X043228Y0244
X043583Y024734
X04249Y023474
X041909Y0231
X041132Y022726
X041545Y02188
X039045Y021693
X038612
X038278Y021949
X03123Y022323
X030866Y022618
X029104Y022628
X029222Y021683
X028465Y02167
X027874Y021339
X027254Y021319
X026516Y021407
X026663Y021033
X026407Y021831
X025827Y022283
X025719Y022982
X026074Y023013
X024596Y02312
X024429Y022234
X023051Y022402
X023031Y0219
X02122Y021014
X020522Y02128
X019852Y021132
X019557Y021713
X019577Y022717
X020443Y023159
X01877Y024154
X018218Y024104
X017726Y02435
X01874Y021201
X016821Y02003
X01624Y020049
X01563Y02
X020758Y018297
Y017923
X02125
Y018297
X020207Y017156
X024232Y016043
X027352Y016053
X028445Y016043
X030807Y018376
X030679Y020699
X030443Y021063
X027884Y022156
X027028Y023937
X025758Y020512
X025276Y020443
X025246Y020925
X013947Y020472
X013907Y019764
X015118Y019262
X01373Y023406
X013848Y024035
X015138Y025
T02
X017598Y023543
T03
X021152Y011677
X022152
X023152
Y012677
X022152
X021152
X026362Y013248
X027362
X027339Y01125
X026339
X029478Y011697
Y012697
T04
X030984Y011457
X032579
X034203
X035807
X037402
T05
X013602Y025576
X0449Y0381
M30
