M48
;Layer_Color=9474304
;FILE_FORMAT=2:4
INCH,LZ
;TYPE=PLATED
T1F00S00C0.0118
T2F00S00C0.0197
T3F00S00C0.0374
T4F00S00C0.0380
T5F00S00C0.0394
T6F00S00C0.0472
T7F00S00C0.0551
T8F00S00C0.0591
T9F00S00C0.0630
T10F00S00C0.0906
T11F00S00C0.1220
%
T01
X064114Y003573
X064341Y004114
X06479Y004134
X065138Y004154
X065236Y002972
X065621Y002825
X067933Y002313
X068494Y002333
X069419
X069754Y002037
X068022Y000778
Y004636
X067913Y005394
X068543Y005295
X068858Y005728
X06813Y006004
X066626Y006191
X065492Y008696
Y009071
X065246Y009281
X064902Y009528
X064754Y009163
X064331Y009035
X064951Y010207
X064892Y011083
X065846Y011398
X070098Y011841
X070492Y011782
X070581Y010748
X069793Y010354
X069492Y012559
X070502Y013287
X06373Y003976
X06268Y004164
X062047Y004299
X061249Y004469
X061402Y004774
X060551Y004596
X060817Y003947
X060492Y003209
X05956Y003425
X057976Y003917
X0569Y003996
X057343Y004508
X057582Y006329
X058947Y006368
Y005768
X059291Y006063
X059616Y005768
Y006368
X059577Y008002
X060532Y008031
X063533Y007835
X063652Y011407
X057667Y013189
X055069Y012894
X055016Y00682
X054645
X055428Y006841
X055428Y005581
X055827Y005768
X05438Y006185
X052874Y006293
X052421
X052648Y006008
X052421Y005722
X052874
X05277Y005026
X052657Y003917
X053332Y003976
X054488Y0046
X055143Y004016
X054203Y000827
X056191Y000817
X048858Y001043
X050984Y005059
X050374Y007018
X050463Y008004
X051332Y007697
X047402Y01127
X047076Y011053
X046407Y012844
X045Y012736
X041289Y0125
X040097Y011686
X040086Y010915
X037608Y009882
X033071Y008744
X033159Y007766
X033327Y007188
X04312Y008484
X043563Y008474
X042713Y003031
X044518Y002913
X045138Y003287
X047246Y003642
X047618Y00188
X045652Y001211
X032161Y0065
X031673Y009232
X03122Y009183
X02752Y009124
X025935Y008819
X025571
X025226
X025315Y008474
X02564
X024951
X024941Y00815
X02439Y00811
X024242Y008425
X024203Y00874
X023878
X023858Y008425
X023573
X024547Y006398
X02186Y006407
X020955Y006614
X020246Y005935
X020236Y007333
X019527Y006634
X019395Y009695
X020083Y010256
X018287Y01065
X01753Y011073
X017175Y010827
X017096Y010256
X017736Y009386
X017875Y011753
X01753Y011782
X019507Y012217
X019882Y012293
X019981Y013337
X020837Y01186
X021517Y012215
X022234Y012736
X02253Y013415
X022476Y011329
X02185Y011191
X026024Y012549
X026427Y012368
X026398Y012825
X027293Y012343
X027736Y012461
X028209Y012343
X028469Y013314
X028976Y004921
X02503Y001142
X02436Y000945
X023986Y001024
X021211Y001177
X017189Y001191
X015896Y00247
X015502Y002077
X014537Y001437
X014262Y001693
X013524Y001464
X012913Y001624
X011329Y001593
X010808Y000669
X011329Y003317
X011319Y005
X011348Y006654
X011319Y008346
X00936Y008406
X008465Y004931
X00628Y004675
X005423Y002815
X005433Y001437
X00677Y000807
X013544Y002697
X013366Y003031
X013465Y004567
X013721Y004951
X012726Y004567
X01311Y005984
X013248Y006319
X013986Y006526
X014242Y006319
X014518Y006575
X015039Y007795
X014055Y008396
X014075Y009449
X014055Y010098
X013691Y010246
X014055Y011772
X014695Y012854
X015049Y012953
X016062Y011745
X016073Y01002
X016043Y009469
X016782Y008337
X005177Y008701
X002549Y008937
X008474Y013071
X001102Y012156
X000984Y003474
X003317Y015591
X004931Y014636
X005433Y014045
X006447Y014035
X007431
X008356Y014498
X007333Y015472
X010404Y01564
X013865Y014518
X015089Y014016
X015522Y014065
X016203Y014193
X016467Y016742
X016457Y017371
X015423Y018307
X015413Y019852
X015679Y019744
X015935Y019675
X016225Y019665
X016506Y019656
X016782
X016772Y01938
X016791Y019045
X016516Y020522
X016524Y020817
X016545Y021141
X016555Y021481
X016565Y02188
Y022232
X016555Y022592
X016565Y022952
Y023277
X016575Y023671
X016555Y023937
X016565Y024203
Y024478
X015492Y024429
X015689Y024183
X015709Y023868
X015699Y023533
Y023159
Y022785
Y022411
X015709Y022037
Y021742
X015689Y021427
X015352Y021378
Y021093
X015744Y021083
X015754Y02064
X015526Y020827
X015352Y021663
Y021949
X015234Y022224
X015118Y02251
X014951Y022766
X014744Y022992
X014485Y02315
X014222Y023297
X013888Y023366
X013937Y022175
X014252Y022333
X01439Y022067
X014459Y021781
X014475Y021496
X014468Y02122
Y020915
X014587Y020581
X014774Y020364
X01499Y020187
X015177Y02
X014144Y019734
X014262Y016693
X015276Y024658
X015157Y024951
Y025246
Y025531
X015082Y025807
X014931Y026033
X014881Y026309
X014951Y026565
X015125Y026772
X015344Y02689
X01565Y026919
X015925Y026781
X016093Y026575
X016161Y026299
X016132Y026014
X016024Y025728
X014075Y026329
X014048Y028524
X015718Y028287
X018366Y028602
X018986Y02813
X018976Y026575
X020369Y02436
X022982Y02373
X023819Y026171
X023593Y028878
X021545Y028602
X020423Y019803
X018282Y019852
X01833Y020128
X018268Y02037
X018415Y020709
X018435Y02127
X016863Y021211
X016841Y020846
X01686Y020541
X01685Y018735
X01705Y018445
X017468Y018346
X01784
X018386Y019006
Y019311
Y019577
X020305Y017402
X021201Y017165
X021517Y017107
X021832Y017147
X02186Y018228
X024311Y017185
X024931Y017382
X025965Y019045
X027843Y018976
X027698Y020669
X027687Y02128
X028179Y022638
X027756Y023356
X027766Y024685
X028563Y025325
X02937Y026122
X031102Y02565
X031024Y023081
X030262Y023701
X029911Y022313
X029843Y021181
X030256
X030679
X031142
X031604
X031663Y020728
Y020315
X031201
Y020728
X030738
Y020315
X030315
X029902
Y020728
X030315
X030305Y019813
X029892
X029862Y01934
X030276
X030699
X031161
X031624
X031654Y019813
X031191
X030728
X030669Y018799
X030246
X029833
X031132
X031595
X031683Y022008
X029203Y022825
X026378Y023091
X024232Y020866
X024252Y013524
X022707Y014124
X022356Y014341
X021969Y014301
X021644Y014311
X021313Y014301
X019262Y014242
X018306Y014221
X017687Y015472
X017185Y015915
X027726Y013967
X037037Y013848
X03872Y014611
X040787Y014557
Y016132
X041132Y016288
X040177Y016811
X041831Y015207
X04439Y01439
X045009Y013878
X04563Y01439
X04373Y022018
X040896Y021949
X037736Y021299
X037274
X036811
X036388
X035974
X035896Y020837
X035482
X035423Y020305
X03501
X034931Y019843
X034518
X034715Y019242
X034301
X034282Y018809
X034695
X035118
X035138Y019242
X0356
X035581Y018809
X036043
X036063Y019242
X03628Y019843
X035817
X035354
X035847Y020305
X036309
X036772
X036782Y020837
X036319
X037244
X046467Y02687
X045Y028484
X048307Y028396
X050522Y026732
X052274Y028425
X054409Y028494
X055049Y028307
X055778Y027018
X055876Y025652
X056909Y02562
X0569Y026398
X057785Y026211
X058238Y026161
X058484Y025906
X057963Y025878
X057717Y024173
X058573Y023602
X059163Y024737
X060522Y025482
X061831Y02625
X061357Y02748
X061043Y028071
X060679Y027953
X060443Y027697
X06016Y027866
X059914Y027639
X059793Y027096
X057657Y02835
X053829Y025768
X053504Y025837
X053661Y025522
X053258Y025551
X052382Y02187
X049557Y021988
X05874Y021299
X059346Y018652
Y018258
X059744
Y018652
X060236Y018258
X060276Y016636
X059547Y016616
X061329Y016939
X061663Y016929
X062293Y018386
X061811Y019331
X062244Y02002
X062559Y020128
X062884Y020207
X063566Y020247
X061191Y019931
X060827Y019577
X061309Y021988
X061821Y022087
X062333Y021988
X062776Y022303
X061929Y022807
X061063Y022817
X062028Y024173
X056287Y017047
X055792Y016929
X055157Y015374
X054724
X054941Y015059
X055157Y014742
X054724
X053868Y015098
X053602Y015039
X053365Y015197
X057528Y014341
X05751Y013799
X066762Y013671
X066644Y014695
X066142Y016388
X067441Y01688
X067815Y01752
X067421Y017943
X066634Y01878
X064813Y019173
X064045Y02002
X06435Y021181
X064646Y021427
X064921Y02124
X065827Y021339
X066053Y022293
X066348Y022313
X066782Y022766
X066772Y023474
X067303Y02375
X067645Y02377
X068258Y023602
X068812Y023613
X069049Y02436
X069626Y024843
X069728Y025484
X069734Y025837
X068583Y025945
X068189Y025463
X066663Y025177
X066654Y024872
X066626Y024557
X064577Y025206
X064518Y02624
X064954Y026644
X064944Y02696
X064833Y028445
X06564Y028179
X064065Y023868
X063937Y023536
X068573Y022431
X068542Y021067
X068799Y019852
X070827Y019203
X071476Y021132
X07062Y015103
X070768Y014232
X069252Y013681
T02
X06625Y003878
X055305Y010935
X031663Y024646
X028829Y024833
X03375Y022756
X037244Y022628
T03
X029646Y028179
X03063
X031417
X032402
T04
X048553Y008317
Y010317
X050167Y012333
X051545
X061417Y010339
Y008961
X063474Y007067
Y005689
X044587Y007169
Y009169
X020728Y014862
Y01624
T05
X064357Y001362
Y002362
X065357
Y001362
X068675Y000856
X069675
X069652Y002943
X068652
X071319Y002953
Y001953
Y003953
X071229Y008494
Y009494
Y011362
Y012362
X063357Y002362
X062357
X061357
Y001362
X062357
X063357
X060357
X059357
X058357
X057357
X056357
Y002362
X057357
X058357
X059357
X060357
X055357
X054357
X053357
X052357
X051357
Y001362
X052357
X053357
X054357
X055357
X050357
X049357
X048357
Y002362
X049357
X050357
X047357
X046357
Y001362
X047357
X039311Y003287
X037311
X03563
X034793Y007051
Y008051
Y009051
X030059Y008877
X029059
X024498Y011732
X023498
X024994Y013878
X025994
X026994
X039919Y013652
X041919
X043652Y017667
X045652
X062953Y017156
X070827
X071201Y024484
Y025484
Y026484
Y027484
Y028484
T06
X038809Y02753
X039793
X040778
T07
X039311Y008907
X041673
T08
X017431Y003406
X0194
X021368
X023337
X025305
X027274
X029242
X031211
X015463
X015524Y026283
T09
X014524Y025283
Y027283
X016524
Y025283
T10
X028435Y027106
X033622
T11
X067853Y0081
X067843Y01124
X04304Y01123
X036554Y0081
Y027785
X04302Y027785
X067853Y027785
M30
