G04*
G04 #@! TF.GenerationSoftware,Altium Limited,Altium Designer,18.1.7 (191)*
G04*
G04 Layer_Physical_Order=2*
G04 Layer_Color=16711680*
%FSLAX24Y24*%
%MOIN*%
G70*
G01*
G75*
%ADD11C,0.0079*%
%ADD50C,0.0197*%
%ADD62C,0.0591*%
%ADD63R,0.0591X0.0591*%
%ADD64C,0.0236*%
G36*
X54537Y22238D02*
X54522Y22251D01*
X54503Y22262D01*
X54481Y22272D01*
X54456Y22281D01*
X54428Y22288D01*
X54396Y22294D01*
X54361Y22298D01*
X54280Y22303D01*
X54235Y22303D01*
X54528Y22595D01*
X54528Y22550D01*
X54532Y22470D01*
X54537Y22435D01*
X54543Y22403D01*
X54550Y22375D01*
X54558Y22349D01*
X54568Y22328D01*
X54580Y22309D01*
X54592Y22294D01*
X54537Y22238D01*
D02*
G37*
D11*
X64005Y25222D02*
G03*
X63719Y25591I-413J-26D01*
G01*
X64005Y24435D02*
G03*
X63719Y24803I-413J-26D01*
G01*
Y25591D02*
G03*
X63979Y25837I-126J394D01*
G01*
X62419D02*
G03*
X62679Y25591I386J148D01*
G01*
X63719Y24803D02*
G03*
X64005Y25171I-126J394D01*
G01*
X63199Y24283D02*
G03*
X64005Y24384I394J126D01*
G01*
X62679Y24803D02*
G03*
X63199Y24283I126J-394D01*
G01*
X62679Y25591D02*
G03*
X62679Y24803I126J-394D01*
G01*
X56617Y24373D02*
G03*
X56506Y24419I-112J-111D01*
G01*
X56617Y24373D02*
G03*
X56506Y24419I-111J-111D01*
G01*
X57982Y22943D02*
G03*
X57936Y23054I-157J0D01*
G01*
X57982Y22943D02*
G03*
X57936Y23054I-157J0D01*
G01*
X56101Y24419D02*
G03*
X55984Y24033I-176J-157D01*
G01*
D02*
G03*
X56387Y23809I227J-66D01*
G01*
X55246Y22520D02*
G03*
X55187Y22676I-236J0D01*
G01*
X55244Y22489D02*
G03*
X55246Y22520I-234J30D01*
G01*
X60886Y21860D02*
G03*
X60433Y21766I-236J0D01*
G01*
X60866D02*
G03*
X60886Y21860I-217J94D01*
G01*
X58061Y21978D02*
G03*
X57982Y22154I-236J0D01*
G01*
X57369Y22433D02*
G03*
X57594Y22031I157J-176D01*
G01*
D02*
G03*
X58061Y21978I230J-52D01*
G01*
X57894Y21496D02*
G03*
X57438Y21582I-236J0D01*
G01*
X55463Y22254D02*
G03*
X55244Y22489I-236J0D01*
G01*
X55198Y21644D02*
G03*
X55610Y21801I176J157D01*
G01*
D02*
G03*
X55198Y21959I-236J0D01*
G01*
X61063Y20797D02*
G03*
X60913Y21017I-236J0D01*
G01*
X60607Y20711D02*
G03*
X61063Y20797I220J86D01*
G01*
X60433Y20974D02*
G03*
X60497Y20821I217J0D01*
G01*
X60433Y20974D02*
G03*
X60496Y20821I217J0D01*
G01*
X57744Y21276D02*
G03*
X57894Y21496I-86J220D01*
G01*
X57317Y21462D02*
G03*
X57254Y21309I153J-153D01*
G01*
X59094Y19586D02*
G03*
X59176Y19765I-155J179D01*
G01*
D02*
G03*
X58780Y19591I-236J0D01*
G01*
X57318Y21463D02*
G03*
X57254Y21309I153J-153D01*
G01*
X55925Y21014D02*
G03*
X55513Y21171I-236J0D01*
G01*
Y20856D02*
G03*
X55925Y21014I176J157D01*
G01*
X57080Y19614D02*
G03*
X56774Y19308I-220J-86D01*
G01*
X59048Y19042D02*
G03*
X59094Y19154I-111J111D01*
G01*
X59048Y19042D02*
G03*
X59094Y19154I-111J112D01*
G01*
X58635Y19074D02*
G03*
X58858Y18839I-13J-236D01*
G01*
X57707Y18937D02*
G03*
X57687Y19031I-236J0D01*
G01*
X57343Y18738D02*
G03*
X57707Y18937I128J199D01*
G01*
X55709Y18780D02*
G03*
X55378Y18996I-236J0D01*
G01*
X57362Y18061D02*
G03*
X57343Y18155I-236J0D01*
G01*
X57341Y17963D02*
G03*
X57362Y18061I-215J98D01*
G01*
X56909Y18155D02*
G03*
X56911Y17963I217J-94D01*
G01*
X55378Y18563D02*
G03*
X55709Y18780I94J217D01*
G01*
X54071Y24587D02*
G03*
X54321Y24823I13J236D01*
G01*
D02*
G03*
X53849Y24810I-236J0D01*
G01*
X53159Y24764D02*
G03*
X53048Y24718I0J-157D01*
G01*
X53159Y24764D02*
G03*
X53048Y24717I0J-157D01*
G01*
X54646Y24173D02*
G03*
X53999Y24515I-413J0D01*
G01*
X53868Y24449D02*
G03*
X53941Y24467I0J157D01*
G01*
X54358Y23780D02*
G03*
X54646Y24173I-126J394D01*
G01*
X53868Y24449D02*
G03*
X53941Y24467I0J157D01*
G01*
D02*
G03*
X53839Y24299I291J-294D01*
G01*
D02*
G03*
X53753Y24449I-394J-126D01*
G01*
X52900Y24570D02*
G03*
X52854Y24459I111J-111D01*
G01*
X52901Y24570D02*
G03*
X52854Y24459I111J-112D01*
G01*
Y23819D02*
G03*
X52900Y23708I157J0D01*
G01*
X52854Y23819D02*
G03*
X52901Y23707I157J0D01*
G01*
X54615Y23543D02*
G03*
X54358Y23780I-382J-157D01*
G01*
X54757Y23497D02*
G03*
X54646Y23543I-112J-111D01*
G01*
X55187Y23002D02*
G03*
X55141Y23113I-157J0D01*
G01*
X55187Y23002D02*
G03*
X55141Y23114I-157J0D01*
G01*
X54757Y23497D02*
G03*
X54646Y23543I-111J-111D01*
G01*
X53063Y23545D02*
G03*
X53319Y22992I382J-159D01*
G01*
X55050Y22096D02*
G03*
X55463Y22254I176J157D01*
G01*
X54521Y22107D02*
G03*
X54577Y22096I55J147D01*
G01*
X54521Y22107D02*
G03*
X54577Y22096I55J147D01*
G01*
X54618Y21959D02*
G03*
X54521Y22107I-386J-148D01*
G01*
X54618Y21171D02*
G03*
X54358Y21417I-386J-148D01*
G01*
D02*
G03*
X54610Y21644I-126J394D01*
G01*
X53858Y20848D02*
G03*
X54610Y20856I374J176D01*
G01*
X54577Y19232D02*
G03*
X54164Y19390I-236J0D01*
G01*
X54341Y18996D02*
G03*
X54577Y19232I0J236D01*
G01*
X54164Y19075D02*
G03*
X54341Y18996I176J157D01*
G01*
X53319Y22992D02*
G03*
X53319Y22205I126J-394D01*
G01*
D02*
G03*
X53269Y21437I126J-394D01*
G01*
X54006Y19390D02*
G03*
X53895Y19343I0J-157D01*
G01*
X54006Y19390D02*
G03*
X53895Y19344I0J-157D01*
G01*
X54045Y18415D02*
G03*
X53993Y18563I-236J0D01*
G01*
X53531Y18979D02*
G03*
X53484Y18868I111J-112D01*
G01*
X53573Y18428D02*
G03*
X54045Y18415I236J-13D01*
G01*
X53530Y18979D02*
G03*
X53484Y18868I111J-111D01*
G01*
Y18583D02*
G03*
X53530Y18471I157J0D01*
G01*
X53484Y18583D02*
G03*
X53531Y18471I157J0D01*
G01*
X64005Y25222D02*
Y25837D01*
X63975Y25354D02*
X64005D01*
X63975Y25039D02*
X64005D01*
X63932Y24961D02*
X64005D01*
X63975Y25827D02*
X64005D01*
X63932Y25748D02*
X64005D01*
X63932Y25433D02*
X64005D01*
X63860Y25512D02*
X64005D01*
Y24435D02*
Y25171D01*
X63975Y24252D02*
X64005D01*
X63932Y24173D02*
X64005D01*
X63860Y24094D02*
X64005D01*
X63860Y24724D02*
X64005D01*
X63860Y24882D02*
X64005D01*
X63975Y24567D02*
X64005D01*
X63932Y24646D02*
X64005D01*
X63860Y25669D02*
X64005D01*
X63719Y25591D02*
X64005D01*
X63719Y24803D02*
X64005D01*
X63718Y24016D02*
X64005D01*
X62931D02*
X63467D01*
X57053Y23937D02*
X64005D01*
X63144Y24173D02*
X63253D01*
X63073Y24094D02*
X63325D01*
X56975Y24016D02*
X62679D01*
X57982Y22283D02*
X64005D01*
X57982Y22598D02*
X64005D01*
X60794Y22047D02*
X64005D01*
X58009Y22126D02*
X64005D01*
X57982Y22835D02*
X64005D01*
X57982Y22913D02*
X64005D01*
X57982Y22677D02*
X64005D01*
X57982Y22756D02*
X64005D01*
X60866Y21575D02*
X64005D01*
X60866Y21653D02*
X64005D01*
X60866Y21417D02*
X64005D01*
X60866Y21496D02*
X64005D01*
X60884Y21890D02*
X64005D01*
X60860Y21968D02*
X64005D01*
X60881Y21811D02*
X64005D01*
X60866Y21732D02*
X64005D01*
X57526Y23465D02*
X64005D01*
X57447Y23543D02*
X64005D01*
X57683Y23307D02*
X64005D01*
X57605Y23386D02*
X64005D01*
X57211Y23779D02*
X64005D01*
X57132Y23858D02*
X64005D01*
X57368Y23622D02*
X64005D01*
X57290Y23701D02*
X64005D01*
X57982Y22441D02*
X64005D01*
X57982Y22520D02*
X64005D01*
X57982Y22205D02*
X64005D01*
X57982Y22362D02*
X64005D01*
X57841Y23150D02*
X64005D01*
X57762Y23228D02*
X64005D01*
X57974Y22992D02*
X64005D01*
X57920Y23071D02*
X64005D01*
X56739Y24252D02*
X62423D01*
X56896Y24094D02*
X62537D01*
X56817Y24173D02*
X62466D01*
X56660Y24331D02*
X62399D01*
X56561Y24409D02*
X62392D01*
X56617Y24373D02*
X57936Y23054D01*
X57982Y22154D02*
Y22943D01*
X56490Y23809D02*
X57369Y22930D01*
X56387Y23809D02*
X56490D01*
X57369Y22433D02*
Y22930D01*
X56355Y23779D02*
X56519D01*
X55993Y24488D02*
X62399D01*
X55394Y25837D02*
X62419D01*
X55187Y22913D02*
X57369D01*
X55187Y22992D02*
X57307D01*
X55394Y25837D02*
Y27982D01*
X56101Y24419D02*
X56506D01*
X55187Y22756D02*
X57369D01*
X55187Y22835D02*
X57369D01*
X55233Y22598D02*
X57369D01*
X55187Y22677D02*
X57369D01*
X55187Y22676D02*
Y23002D01*
X55246Y22520D02*
X57369D01*
X58051Y22047D02*
X60505D01*
X58061Y21968D02*
X60440D01*
X58044Y21890D02*
X60415D01*
X57991Y21811D02*
X60419D01*
X57834Y21653D02*
X60433D01*
X57662Y21732D02*
X60433D01*
X57894Y21496D02*
X60433D01*
X57880Y21575D02*
X60433D01*
X57880Y21417D02*
X60433D01*
X57318Y21463D02*
X57438Y21582D01*
X55425Y22126D02*
X57330D01*
X55371Y22441D02*
X57369D01*
X55541Y21968D02*
X57589D01*
X55341Y22047D02*
X57418D01*
X55436Y22362D02*
X57315D01*
X55461Y22283D02*
X57292D01*
X55457Y22205D02*
X57296D01*
X55610Y21811D02*
X57658D01*
X55593Y21890D02*
X57606D01*
X55600Y21732D02*
X57653D01*
X55558Y21653D02*
X57481D01*
X55441Y21575D02*
X57430D01*
X60866Y21260D02*
X64005D01*
X60866Y21339D02*
X64005D01*
X60866Y21102D02*
X64005D01*
X60866Y21181D02*
X64005D01*
X60866Y21064D02*
X60913Y21017D01*
X60866Y21064D02*
Y21766D01*
X61011Y20945D02*
X64005D01*
X60907Y21024D02*
X64005D01*
Y17963D02*
Y24384D01*
X61053Y20866D02*
X64005D01*
X61063Y20787D02*
X64005D01*
X61046Y20709D02*
X64005D01*
X60497Y20821D02*
X60607Y20711D01*
X60993Y20630D02*
X64005D01*
X60433Y20974D02*
Y21766D01*
X57687Y21024D02*
X60433D01*
X57687Y20866D02*
X60462D01*
X57687Y20945D02*
X60435D01*
X57834Y21339D02*
X60433D01*
X57727Y21260D02*
X60433D01*
X57687Y21102D02*
X60433D01*
X57687Y21181D02*
X60433D01*
X57687Y20551D02*
X64005D01*
X57687Y20630D02*
X60660D01*
X57687Y20394D02*
X64005D01*
X57687Y20472D02*
X64005D01*
X57687Y20709D02*
X60608D01*
X57687Y20787D02*
X60530D01*
X59162Y19685D02*
X64005D01*
X59115Y19606D02*
X64005D01*
X59094Y19449D02*
X64005D01*
X59094Y19528D02*
X64005D01*
X59117Y19921D02*
X64005D01*
X58962Y20000D02*
X64005D01*
X59176Y19764D02*
X64005D01*
X59163Y19842D02*
X64005D01*
X59060Y19055D02*
X64005D01*
X58983Y18976D02*
X64005D01*
X58904Y18898D02*
X64005D01*
X58857Y18819D02*
X64005D01*
X59094Y19291D02*
X64005D01*
X59094Y19370D02*
X64005D01*
X59094Y19213D02*
X64005D01*
X59093Y19134D02*
X64005D01*
X58837Y18740D02*
X64005D01*
X58778Y18661D02*
X64005D01*
X57343Y18504D02*
X64005D01*
X57343Y18583D02*
X64005D01*
X57687Y20236D02*
X64005D01*
X57687Y20315D02*
X64005D01*
X57687Y20079D02*
X64005D01*
X57687Y20157D02*
X64005D01*
X57357Y18110D02*
X64005D01*
X57343Y18189D02*
X64005D01*
X57360Y18031D02*
X64005D01*
X57341Y17963D02*
X64005D01*
X57343Y18346D02*
X64005D01*
X57343Y18425D02*
X64005D01*
X57343Y18268D02*
X64005D01*
X57687Y19921D02*
X58763D01*
X57687Y20000D02*
X58918D01*
X57687Y19685D02*
X58718D01*
X57687Y19842D02*
X58717D01*
X57687Y19764D02*
X58704D01*
X57687Y21219D02*
X57744Y21276D01*
X59094Y19154D02*
Y19586D01*
X57687Y19528D02*
X58780D01*
X57687Y19606D02*
X58765D01*
X57687Y19031D02*
Y21219D01*
X58780Y19219D02*
Y19591D01*
X57687Y19449D02*
X58780D01*
X55856Y21181D02*
X57254D01*
X55925Y21024D02*
X57254D01*
X55908Y21102D02*
X57254D01*
X55915Y20945D02*
X57254D01*
X55873Y20866D02*
X57254D01*
X55756Y20787D02*
X57254D01*
X57036Y19685D02*
X57254D01*
X56865Y19764D02*
X57254D01*
X57167Y19528D02*
X57254D01*
X57088Y19606D02*
X57254D01*
Y19440D02*
Y21309D01*
X57080Y19614D02*
X57254Y19440D01*
X58635Y19074D02*
X58780Y19219D01*
X57687Y19291D02*
X58780D01*
X57687Y19213D02*
X58773D01*
X57687Y19370D02*
X58780D01*
X57687Y19055D02*
X58528D01*
X57687Y19134D02*
X58695D01*
X58858Y18852D02*
X59048Y19042D01*
X57703Y18976D02*
X58430D01*
X57601Y18740D02*
X58407D01*
X57703Y18898D02*
X58393D01*
X57675Y18819D02*
X58387D01*
X56774Y19308D02*
X56909Y19172D01*
X55603Y18976D02*
X56909D01*
X57343Y18661D02*
X58466D01*
X55677Y18898D02*
X56909D01*
X55705Y18819D02*
X56909D01*
X55705Y18740D02*
X56909D01*
X55677Y18661D02*
X56909D01*
X57343Y18155D02*
Y18738D01*
X56909Y18155D02*
Y19172D01*
X55603Y18583D02*
X56909D01*
X52530Y26378D02*
X55394D01*
X52530Y26457D02*
X55394D01*
X52530Y26220D02*
X55394D01*
X52530Y26299D02*
X55394D01*
X52530Y26693D02*
X55394D01*
X52530Y26772D02*
X55394D01*
X52530Y26535D02*
X55394D01*
X52530Y26614D02*
X55394D01*
X52530Y25748D02*
X62466D01*
X52530Y25827D02*
X62423D01*
X52530Y25591D02*
X62679D01*
X52530Y25669D02*
X62537D01*
X52530Y26063D02*
X55394D01*
X52530Y26142D02*
X55394D01*
X52530Y25905D02*
X55394D01*
X52530Y25984D02*
X55394D01*
X52530Y27638D02*
X55394D01*
X52530Y27716D02*
X55394D01*
X52530Y27480D02*
X55394D01*
X52530Y27559D02*
X55394D01*
X52530Y27953D02*
X55394D01*
X52530Y27982D02*
X55394D01*
X52530Y27795D02*
X55394D01*
X52530Y27874D02*
X55394D01*
X52530Y27008D02*
X55394D01*
X52530Y27087D02*
X55394D01*
X52530Y26850D02*
X55394D01*
X52530Y26929D02*
X55394D01*
X52530Y27323D02*
X55394D01*
X52530Y27402D02*
X55394D01*
X52530Y27165D02*
X55394D01*
X52530Y27244D02*
X55394D01*
X54638Y24094D02*
X55759D01*
X54500Y24488D02*
X55858D01*
X54614Y24016D02*
X55980D01*
X54571Y23937D02*
X55976D01*
X54615Y24331D02*
X55699D01*
X54572Y24409D02*
X55741D01*
X54646Y24173D02*
X55706D01*
X54638Y24252D02*
X55689D01*
X55026Y23228D02*
X57071D01*
X54947Y23307D02*
X56992D01*
X55171Y23071D02*
X57228D01*
X55105Y23150D02*
X57149D01*
X54650Y23543D02*
X56756D01*
X54572Y23622D02*
X56677D01*
X54868Y23386D02*
X56913D01*
X54790Y23465D02*
X56834D01*
X52530Y25433D02*
X62466D01*
X52530Y25512D02*
X62537D01*
X54277Y24961D02*
X62466D01*
X54179Y25039D02*
X62423D01*
X52530Y25276D02*
X62399D01*
X52530Y25354D02*
X62423D01*
X52530Y25118D02*
X62399D01*
X52530Y25197D02*
X62392D01*
X54320Y24803D02*
X62679D01*
X54313Y24882D02*
X62537D01*
X54299Y24724D02*
X62537D01*
X54241Y24646D02*
X62466D01*
X54500Y23858D02*
X56001D01*
X54358Y24567D02*
X62423D01*
X54500Y23701D02*
X56598D01*
X54358Y23779D02*
X56066D01*
X54051Y24567D02*
X54106D01*
X53999Y24515D02*
X54071Y24587D01*
X53803Y24764D02*
X53849Y24810D01*
X53159Y24764D02*
X53803D01*
X53753Y24449D02*
X53868D01*
X53784Y24409D02*
X53893D01*
X52530Y24961D02*
X53893D01*
X52530Y25039D02*
X53990D01*
X52530Y24803D02*
X53842D01*
X52530Y24882D02*
X53856D01*
X52901Y24570D02*
X53048Y24717D01*
X52530Y24724D02*
X53055D01*
X52530Y24567D02*
X52897D01*
X52530Y24646D02*
X52976D01*
X52530Y24409D02*
X52854D01*
X52530Y24488D02*
X52857D01*
X52854Y23819D02*
Y24459D01*
X52530Y24331D02*
X52854D01*
X52530Y24173D02*
X52854D01*
X52530Y24252D02*
X52854D01*
X52901Y23707D02*
X53063Y23545D01*
X52530Y24016D02*
X52854D01*
X52530Y24094D02*
X52854D01*
X52530Y23779D02*
X52859D01*
X52530Y23937D02*
X52854D01*
X54757Y23497D02*
X55141Y23114D01*
X54615Y23543D02*
X54646D01*
X53071Y22598D02*
X53445D01*
X52530Y23465D02*
X53039D01*
X52530Y23543D02*
X53063D01*
X52530Y23228D02*
X53063D01*
X52530Y23307D02*
X53039D01*
X52530Y23701D02*
X52907D01*
X52530Y23858D02*
X52854D01*
X52530Y23386D02*
X53032D01*
X52530Y23622D02*
X52986D01*
X52530Y23071D02*
X53177D01*
X52530Y23150D02*
X53106D01*
X52530Y22913D02*
X53177D01*
X52530Y22992D02*
X53319D01*
X52530Y22756D02*
X53063D01*
X52530Y22835D02*
X53106D01*
X52530Y22677D02*
X53039D01*
X54572Y22047D02*
X55112D01*
X54618Y21959D02*
X55198D01*
X54615Y21968D02*
X55207D01*
X54577Y22096D02*
X55050D01*
X54572Y21260D02*
X57254D01*
X54500Y21339D02*
X57256D01*
X54615Y21181D02*
X55522D01*
X54571Y20787D02*
X55622D01*
X54610Y21644D02*
X55198D01*
X54571Y21575D02*
X55307D01*
X54618Y21171D02*
X55513D01*
X54610Y20856D02*
X55513D01*
X54500Y21496D02*
X57351D01*
X54358Y21417D02*
X57283D01*
X54500Y20709D02*
X57254D01*
X54358Y20630D02*
X57254D01*
X53858D02*
X54106D01*
X52530Y20157D02*
X57254D01*
X52530Y20236D02*
X57254D01*
X52530Y20000D02*
X57254D01*
X52530Y20079D02*
X57254D01*
X52530Y20472D02*
X57254D01*
X52530Y20551D02*
X57254D01*
X52530Y20315D02*
X57254D01*
X52530Y20394D02*
X57254D01*
X54569Y19291D02*
X56790D01*
X54532Y19370D02*
X56684D01*
X54576Y19213D02*
X56869D01*
X54555Y19134D02*
X56909D01*
X54435Y19449D02*
X56638D01*
X54072Y19075D02*
X54164D01*
X54006Y19390D02*
X54164D01*
X54497Y19055D02*
X56909D01*
X54028Y18504D02*
X56909D01*
X54045Y18425D02*
X56909D01*
X54035Y18346D02*
X56909D01*
X54341Y18996D02*
X55378D01*
X54052Y19055D02*
X54184D01*
X52530Y19842D02*
X57254D01*
X52530Y19921D02*
X57254D01*
X52530Y19685D02*
X56684D01*
X52530Y19764D02*
X56856D01*
X52530Y19528D02*
X56624D01*
X52530Y19606D02*
X56638D01*
X53993Y18996D02*
X54341D01*
X52530Y19449D02*
X54246D01*
X53993Y18268D02*
X56909D01*
X53876Y18189D02*
X56909D01*
X52530Y17963D02*
X56911D01*
X52530Y18110D02*
X56895D01*
X53993Y18563D02*
X55378D01*
X53993Y18996D02*
X54072Y19075D01*
X52530Y18031D02*
X56892D01*
X52530Y22362D02*
X53106D01*
X52530Y22126D02*
X53177D01*
X52530Y22283D02*
X53177D01*
X52530Y22441D02*
X53063D01*
X52530Y22520D02*
X53039D01*
X52530Y21968D02*
X53063D01*
X52530Y22047D02*
X53106D01*
X53071Y21811D02*
X53445D01*
X53858Y20787D02*
X53893D01*
X53858Y20610D02*
Y20848D01*
X52530Y21890D02*
X53039D01*
X52530Y17963D02*
Y27982D01*
X53032Y20610D02*
Y21437D01*
X53269D01*
X52530Y21653D02*
X53063D01*
X52530Y22205D02*
X53319D01*
X52530Y21496D02*
X53177D01*
X52530Y21575D02*
X53106D01*
X52530Y21811D02*
X53032D01*
X52530Y22598D02*
X53032D01*
X52530Y21417D02*
X53032D01*
X52530Y21732D02*
X53039D01*
X52530Y20945D02*
X53032D01*
X52530Y21024D02*
X53032D01*
X52530Y20787D02*
X53032D01*
X52530Y20866D02*
X53032D01*
X52530Y21260D02*
X53032D01*
X52530Y21339D02*
X53032D01*
X52530Y21102D02*
X53032D01*
X52530Y21181D02*
X53032D01*
X53858Y20709D02*
X53965D01*
X53531Y18979D02*
X53895Y19343D01*
X52530Y20630D02*
X53032D01*
X52530Y20709D02*
X53032D01*
Y20610D02*
X53858D01*
X52530Y19134D02*
X53685D01*
X53531Y18471D02*
X53573Y18428D01*
X53484Y18583D02*
Y18868D01*
X52530Y19291D02*
X53843D01*
X52530Y19370D02*
X53930D01*
X52530Y19055D02*
X53607D01*
X52530Y19213D02*
X53764D01*
X52530Y18898D02*
X53487D01*
X52530Y18976D02*
X53528D01*
X52530Y18740D02*
X53484D01*
X52530Y18819D02*
X53484D01*
X52530Y18346D02*
X53583D01*
X52530Y18425D02*
X53573D01*
X52530Y18189D02*
X53742D01*
X52530Y18268D02*
X53625D01*
X52530Y18583D02*
X53484D01*
X52530Y18661D02*
X53484D01*
X52530Y18504D02*
X53505D01*
X53868Y24606D02*
X54085Y24823D01*
X53159Y24606D02*
X53868D01*
X53012Y24459D02*
X53159Y24606D01*
X53012Y23819D02*
Y24459D01*
Y23819D02*
X53445Y23386D01*
X54006Y19232D02*
X54341D01*
X53642Y18868D02*
X54006Y19232D01*
X53642Y18583D02*
Y18868D01*
Y18583D02*
X53809Y18415D01*
X55030Y22500D02*
Y23002D01*
X55010Y22520D02*
X55030Y22500D01*
Y22490D02*
Y22500D01*
X54646Y23386D02*
X55030Y23002D01*
X54232Y23386D02*
X54646D01*
X58937Y19154D02*
Y19768D01*
X55925Y24262D02*
X56506D01*
X56211Y23967D02*
X56555D01*
X56506Y24262D02*
X57825Y22943D01*
Y21978D02*
Y22943D01*
X56555Y23967D02*
X57526Y22995D01*
Y22257D02*
Y22995D01*
X54232Y22598D02*
X54577Y22254D01*
X55226D01*
X54232Y21811D02*
X54242Y21801D01*
X55374D01*
X54232Y21024D02*
X54242Y21014D01*
X55689D01*
X58622Y18839D02*
X58937Y19154D01*
Y19768D02*
X58940Y19765D01*
D50*
X53878Y18770D02*
X53898D01*
X53917Y18789D01*
X53927Y18780D01*
X55472D01*
X57126Y18061D02*
Y19262D01*
X56860Y19528D02*
X57126Y19262D01*
X57470Y21309D02*
X57657Y21496D01*
X57470Y18937D02*
Y21309D01*
X60650Y20974D02*
Y21860D01*
Y20974D02*
X60827Y20797D01*
D62*
X62805Y24409D02*
D03*
Y25197D02*
D03*
Y25984D02*
D03*
Y26772D02*
D03*
Y27559D02*
D03*
X63593Y24409D02*
D03*
Y25197D02*
D03*
Y25984D02*
D03*
Y26772D02*
D03*
X54232Y24173D02*
D03*
Y23386D02*
D03*
Y22598D02*
D03*
Y21811D02*
D03*
Y21024D02*
D03*
X53445Y24173D02*
D03*
Y23386D02*
D03*
Y22598D02*
D03*
Y21811D02*
D03*
D63*
X63593Y27559D02*
D03*
X53445Y21024D02*
D03*
D64*
X53976Y19656D02*
D03*
X54085Y24823D02*
D03*
X53809Y18415D02*
D03*
X55010Y22520D02*
D03*
X57894Y18445D02*
D03*
X52894Y18317D02*
D03*
X54341Y19232D02*
D03*
X53878Y18770D02*
D03*
X55472Y18780D02*
D03*
X57126Y18061D02*
D03*
X56132Y24862D02*
D03*
X55138Y23907D02*
D03*
X63671Y18317D02*
D03*
X62480Y18583D02*
D03*
X63425Y19774D02*
D03*
X63524Y23356D02*
D03*
X62077Y23642D02*
D03*
X60354Y23307D02*
D03*
X54961Y27362D02*
D03*
X52854Y27549D02*
D03*
X55413Y25720D02*
D03*
X55758Y25600D02*
D03*
X56083Y25620D02*
D03*
X58041Y20079D02*
D03*
X59507Y23159D02*
D03*
X59714Y22864D02*
D03*
X60197Y22205D02*
D03*
X61102Y23189D02*
D03*
X61000Y23455D02*
D03*
X61093Y23799D02*
D03*
X61240Y24075D02*
D03*
X61250Y24370D02*
D03*
X61260Y24665D02*
D03*
Y24980D02*
D03*
X61250Y25285D02*
D03*
X60998Y25384D02*
D03*
X60689Y25394D02*
D03*
X60423Y25285D02*
D03*
X60413Y24983D02*
D03*
X60433Y24685D02*
D03*
X60434Y24370D02*
D03*
X60413Y24065D02*
D03*
X60128Y24006D02*
D03*
X60108Y24301D02*
D03*
X60118Y24557D02*
D03*
X59901Y24724D02*
D03*
X59380Y25256D02*
D03*
X59636Y24715D02*
D03*
X59380Y24744D02*
D03*
Y25000D02*
D03*
Y25502D02*
D03*
X59390Y25758D02*
D03*
X58012Y23455D02*
D03*
Y23789D02*
D03*
X58002Y24114D02*
D03*
X57933Y24391D02*
D03*
X57608Y24380D02*
D03*
X57333Y24391D02*
D03*
X57244Y24636D02*
D03*
X57254Y24911D02*
D03*
X57224Y25171D02*
D03*
X56959Y25167D02*
D03*
X56673Y25222D02*
D03*
X56476Y25423D02*
D03*
X56407Y25720D02*
D03*
X61072Y22907D02*
D03*
X63228Y21240D02*
D03*
X63209Y21988D02*
D03*
X62146Y21537D02*
D03*
X61713Y21772D02*
D03*
X61339Y21496D02*
D03*
X61181Y18799D02*
D03*
X60630Y18819D02*
D03*
X60325Y18652D02*
D03*
X58602Y18396D02*
D03*
X58622Y20650D02*
D03*
X59606D02*
D03*
Y21585D02*
D03*
X58622Y21575D02*
D03*
X59114Y21112D02*
D03*
X56083Y21033D02*
D03*
X56073Y21604D02*
D03*
X56782Y22785D02*
D03*
X56445Y22982D02*
D03*
X55685Y22175D02*
D03*
X55659Y23465D02*
D03*
X57470Y18937D02*
D03*
X57657Y21496D02*
D03*
X55925Y24262D02*
D03*
X56211Y23967D02*
D03*
X55226Y22254D02*
D03*
X55374Y21801D02*
D03*
X55689Y21014D02*
D03*
X56860Y19528D02*
D03*
X60827Y20797D02*
D03*
X60650Y21860D02*
D03*
X58622Y18839D02*
D03*
X58940Y19765D02*
D03*
X57825Y21978D02*
D03*
X57526Y22257D02*
D03*
M02*
