M48
;Layer_Color=9474304
;FILE_FORMAT=2:4
INCH,LZ
;TYPE=PLATED
T1F00S00C0.0118
T2F00S00C0.0354
T3F00S00C0.0380
T4F00S00C0.0472
T5F00S00C0.0630
T6F00S00C0.1260
%
T01
X018504Y003937
Y007874
X01748Y010039
X015925Y010551
X015069Y010669
X015117Y009996
X013986Y010413
X012746Y011132
X012126Y011467
X011496Y011506
X010039Y011535
X009685Y009429
X01063Y007874
X012598
X014567
X015551Y005906
X013583
X011614
X009646
X007677
X005709
X00374
X001772
X002756Y003937
X004724
X006693
X008661
X01063
X012598
X013583Y001969
X015551
X016535Y003937
X011614Y001969
X005709
X00374
X004724Y007874
X006693
X008661
X008258Y010659
X005945Y011201
X001772Y009843
X000778Y013937
X000689Y015974
X000494Y018809
X000541Y019636
X000256
X000827
X001102
X001388
X001673
X001959
X002234
X00252
X002805
X003091
X003366
X003652
X003937
X004222
X004498
X004783
X005069
X005354
X00563
X005915
X006201
X006486
X006762
X007047
X007333
X007618
X007894
X008179
X008258Y019281
Y018996
Y018711
Y018435
X008248Y01815
X007972
X007687
X007402
X007018Y01814
X006919Y017854
X006939Y017559
X007185Y017362
X00747
X007756
X008031
X008317
Y017077
Y016791
Y016516
X008036Y016511
X007751
X007466
X00719
X006909Y016378
X00687Y016093
X006909Y015797
X007156Y015679
X007421Y015659
X007687Y015571
X0078Y015281
X007983Y015064
X008189Y014866
X008376Y014675
X008593Y014478
X008848Y014321
X009118Y014223
X009409Y014173
X009715
X00999
X010246
X010492
X010747
X010778Y015472
X011049
X011329
X011604Y015384
X011732Y01517
X011968Y015098
X012205Y015551
X012441Y014616
Y013671
X012933Y014144
X013425Y013671
Y014616
X014291Y014291
X015994Y014518
X01626Y013386
X016907Y013511
X015453Y013386
X01501Y012805
X015984Y012559
X01626Y012185
X015157Y011604
X014016Y012372
X01254Y012805
X011909Y013071
X011575
X01126
X009528Y012923
Y012598
X009596Y012283
X01063Y011811
X009646Y01378
X009596Y014961
X009337Y01497
X009311Y015226
X009104Y015079
X008917Y015256
X00873Y015436
X008777Y015748
X008475Y015778
X009085Y015699
X009026Y015955
X009006Y01624
X009008Y016524
X009006Y017343
Y017618
Y017904
Y018189
X009065Y018455
Y01873
Y019016
Y019301
X009075Y019636
X00935
X009636
X009921
X010207
X010482
X010768
X011053
X011339
X011614
X0119
X012185
X01247
X012746
X013031
X013317
X013602
X013878
X014163
X014449
X014734
X01501
X015295
X015581
X015866
X016142
X016427
X016713
X016998
X015551Y017717
X013839Y01747
X013533Y017146
X013258Y017352
X012972Y01747
X013081Y018248
X013839Y018238
X013307Y01688
X01315Y015787
X014754Y015807
X014803Y01622
X015207Y01561
X016535Y015748
X010407Y015837
X010138Y015857
X009857Y015846
X01001Y015645
X010236Y015509
X010512Y015463
X010532Y016083
X010551Y016356
Y016604
X010591Y01688
X010581Y017156
Y017401
X010591Y017657
Y017904
X0106Y01815
X010359Y018238
X010064
X009803Y01811
X009793Y017835
Y017539
X009823Y017264
Y017008
X009835Y016762
X009852Y016488
X009537Y017244
X009274Y017264
X009134Y015433
X007865Y013445
X006529Y012756
X007313Y011909
X004203Y011772
X003979Y013278
X003898Y013949
X003967Y014744
X004173Y015502
X004094Y016289
X004193Y017443
X004902Y017904
X00608Y01877
X006181Y015974
X006722Y014587
X003071Y015661
X003425Y01688
X003071Y012736
X002008Y012431
X011614Y017717
X01752
X017559Y019636
X017274
X017844
X01813
X018406
X018504Y015748
X017352Y015325
X017293Y012274
X018504Y011811
T02
X004813Y013533
Y014321
Y015108
Y015896
Y016683
X0056
Y015896
Y015108
Y014321
Y013533
T03
X001457Y013142
Y014142
Y015142
Y016142
Y017142
X002457
Y016142
Y015142
Y014142
Y013142
T04
X003868Y000994
X007106
X011348Y000719
X012333
X013317
T05
X00189Y006614
X01685
T06
X017323Y001535
X001575
Y02122
X017323
M30
