G04*
G04 #@! TF.GenerationSoftware,Altium Limited,Altium Designer,19.1.7 (138)*
G04*
G04 Layer_Color=16711935*
%FSLAX24Y24*%
%MOIN*%
G70*
G01*
G75*
%ADD46O,0.0320X0.0630*%
%ADD47R,0.0591X0.0453*%
%ADD48R,0.0394X0.0315*%
%ADD51O,0.0630X0.0320*%
%ADD54R,0.0315X0.0394*%
%ADD55R,0.0492X0.0610*%
%ADD56R,0.0433X0.0394*%
%ADD57R,0.0394X0.0433*%
%ADD60O,0.0839X0.0335*%
%ADD65C,0.0512*%
G04:AMPARAMS|DCode=66|XSize=90.6mil|YSize=72.8mil|CornerRadius=19.2mil|HoleSize=0mil|Usage=FLASHONLY|Rotation=0.000|XOffset=0mil|YOffset=0mil|HoleType=Round|Shape=RoundedRectangle|*
%AMROUNDEDRECTD66*
21,1,0.0906,0.0344,0,0,0.0*
21,1,0.0522,0.0728,0,0,0.0*
1,1,0.0384,0.0261,-0.0172*
1,1,0.0384,-0.0261,-0.0172*
1,1,0.0384,-0.0261,0.0172*
1,1,0.0384,0.0261,0.0172*
%
%ADD66ROUNDEDRECTD66*%
G04:AMPARAMS|DCode=67|XSize=131.9mil|YSize=94.5mil|CornerRadius=24.6mil|HoleSize=0mil|Usage=FLASHONLY|Rotation=90.000|XOffset=0mil|YOffset=0mil|HoleType=Round|Shape=RoundedRectangle|*
%AMROUNDEDRECTD67*
21,1,0.1319,0.0453,0,0,90.0*
21,1,0.0827,0.0945,0,0,90.0*
1,1,0.0492,0.0226,0.0413*
1,1,0.0492,0.0226,-0.0413*
1,1,0.0492,-0.0226,-0.0413*
1,1,0.0492,-0.0226,0.0413*
%
%ADD67ROUNDEDRECTD67*%
%ADD70C,0.0748*%
%ADD71C,0.0639*%
%ADD72R,0.0639X0.0639*%
%ADD73C,0.0906*%
%ADD74C,0.0669*%
%ADD75R,0.0669X0.0669*%
%ADD76C,0.1850*%
%ADD77R,0.0669X0.0669*%
%ADD78R,0.0639X0.0639*%
%ADD79C,0.0630*%
%ADD80P,0.0682X8X292.5*%
%ADD81C,0.0709*%
%ADD82R,0.0630X0.0630*%
%ADD83R,0.0748X0.0748*%
%ADD84C,0.1220*%
%ADD85C,0.0866*%
%ADD86R,0.0866X0.0866*%
%ADD87P,0.2599X8X292.5*%
%ADD88C,0.2402*%
%ADD89C,0.0945*%
%ADD90C,0.0433*%
%ADD190R,0.0256X0.0276*%
%ADD191R,0.0276X0.0256*%
%ADD192R,0.0768X0.0650*%
%ADD193O,0.0157X0.0610*%
%ADD194R,0.0236X0.0394*%
%ADD195R,0.0236X0.0236*%
G04:AMPARAMS|DCode=196|XSize=114.2mil|YSize=63mil|CornerRadius=16.7mil|HoleSize=0mil|Usage=FLASHONLY|Rotation=90.000|XOffset=0mil|YOffset=0mil|HoleType=Round|Shape=RoundedRectangle|*
%AMROUNDEDRECTD196*
21,1,0.1142,0.0295,0,0,90.0*
21,1,0.0807,0.0630,0,0,90.0*
1,1,0.0335,0.0148,0.0404*
1,1,0.0335,0.0148,-0.0404*
1,1,0.0335,-0.0148,-0.0404*
1,1,0.0335,-0.0148,0.0404*
%
%ADD196ROUNDEDRECTD196*%
G04:AMPARAMS|DCode=197|XSize=198.8mil|YSize=74.8mil|CornerRadius=19.7mil|HoleSize=0mil|Usage=FLASHONLY|Rotation=90.000|XOffset=0mil|YOffset=0mil|HoleType=Round|Shape=RoundedRectangle|*
%AMROUNDEDRECTD197*
21,1,0.1988,0.0354,0,0,90.0*
21,1,0.1594,0.0748,0,0,90.0*
1,1,0.0394,0.0177,0.0797*
1,1,0.0394,0.0177,-0.0797*
1,1,0.0394,-0.0177,-0.0797*
1,1,0.0394,-0.0177,0.0797*
%
%ADD197ROUNDEDRECTD197*%
G04:AMPARAMS|DCode=198|XSize=45.3mil|YSize=72.8mil|CornerRadius=12.3mil|HoleSize=0mil|Usage=FLASHONLY|Rotation=0.000|XOffset=0mil|YOffset=0mil|HoleType=Round|Shape=RoundedRectangle|*
%AMROUNDEDRECTD198*
21,1,0.0453,0.0482,0,0,0.0*
21,1,0.0207,0.0728,0,0,0.0*
1,1,0.0246,0.0103,-0.0241*
1,1,0.0246,-0.0103,-0.0241*
1,1,0.0246,-0.0103,0.0241*
1,1,0.0246,0.0103,0.0241*
%
%ADD198ROUNDEDRECTD198*%
G04:AMPARAMS|DCode=199|XSize=45.3mil|YSize=72.8mil|CornerRadius=12.3mil|HoleSize=0mil|Usage=FLASHONLY|Rotation=0.000|XOffset=0mil|YOffset=0mil|HoleType=Round|Shape=RoundedRectangle|*
%AMROUNDEDRECTD199*
21,1,0.0453,0.0482,0,0,0.0*
21,1,0.0207,0.0728,0,0,0.0*
1,1,0.0246,0.0103,-0.0241*
1,1,0.0246,-0.0103,-0.0241*
1,1,0.0246,-0.0103,0.0241*
1,1,0.0246,0.0103,0.0241*
%
%ADD199ROUNDEDRECTD199*%
G04:AMPARAMS|DCode=200|XSize=137.8mil|YSize=72.8mil|CornerRadius=19.2mil|HoleSize=0mil|Usage=FLASHONLY|Rotation=0.000|XOffset=0mil|YOffset=0mil|HoleType=Round|Shape=RoundedRectangle|*
%AMROUNDEDRECTD200*
21,1,0.1378,0.0344,0,0,0.0*
21,1,0.0994,0.0728,0,0,0.0*
1,1,0.0384,0.0497,-0.0172*
1,1,0.0384,-0.0497,-0.0172*
1,1,0.0384,-0.0497,0.0172*
1,1,0.0384,0.0497,0.0172*
%
%ADD200ROUNDEDRECTD200*%
%ADD201R,0.0728X0.0453*%
G04:AMPARAMS|DCode=202|XSize=86.6mil|YSize=82.7mil|CornerRadius=21.7mil|HoleSize=0mil|Usage=FLASHONLY|Rotation=180.000|XOffset=0mil|YOffset=0mil|HoleType=Round|Shape=RoundedRectangle|*
%AMROUNDEDRECTD202*
21,1,0.0866,0.0394,0,0,180.0*
21,1,0.0433,0.0827,0,0,180.0*
1,1,0.0433,-0.0217,0.0197*
1,1,0.0433,0.0217,0.0197*
1,1,0.0433,0.0217,-0.0197*
1,1,0.0433,-0.0217,-0.0197*
%
%ADD202ROUNDEDRECTD202*%
G04:AMPARAMS|DCode=203|XSize=82.7mil|YSize=43.3mil|CornerRadius=11.8mil|HoleSize=0mil|Usage=FLASHONLY|Rotation=180.000|XOffset=0mil|YOffset=0mil|HoleType=Round|Shape=RoundedRectangle|*
%AMROUNDEDRECTD203*
21,1,0.0827,0.0197,0,0,180.0*
21,1,0.0591,0.0433,0,0,180.0*
1,1,0.0236,-0.0295,0.0098*
1,1,0.0236,0.0295,0.0098*
1,1,0.0236,0.0295,-0.0098*
1,1,0.0236,-0.0295,-0.0098*
%
%ADD203ROUNDEDRECTD203*%
%ADD204R,0.1378X0.0748*%
G04:AMPARAMS|DCode=205|XSize=90.6mil|YSize=72.8mil|CornerRadius=19.2mil|HoleSize=0mil|Usage=FLASHONLY|Rotation=270.000|XOffset=0mil|YOffset=0mil|HoleType=Round|Shape=RoundedRectangle|*
%AMROUNDEDRECTD205*
21,1,0.0906,0.0344,0,0,270.0*
21,1,0.0522,0.0728,0,0,270.0*
1,1,0.0384,-0.0172,-0.0261*
1,1,0.0384,-0.0172,0.0261*
1,1,0.0384,0.0172,0.0261*
1,1,0.0384,0.0172,-0.0261*
%
%ADD205ROUNDEDRECTD205*%
%ADD206R,0.0748X0.1378*%
G04:AMPARAMS|DCode=207|XSize=283.5mil|YSize=222.4mil|CornerRadius=12.9mil|HoleSize=0mil|Usage=FLASHONLY|Rotation=180.000|XOffset=0mil|YOffset=0mil|HoleType=Round|Shape=RoundedRectangle|*
%AMROUNDEDRECTD207*
21,1,0.2835,0.1967,0,0,180.0*
21,1,0.2577,0.2224,0,0,180.0*
1,1,0.0258,-0.1288,0.0983*
1,1,0.0258,0.1288,0.0983*
1,1,0.0258,0.1288,-0.0983*
1,1,0.0258,-0.1288,-0.0983*
%
%ADD207ROUNDEDRECTD207*%
%ADD208O,0.0886X0.0433*%
%ADD209R,0.0453X0.0728*%
%ADD210R,0.0591X0.0748*%
%ADD211R,0.0197X0.0157*%
%ADD212R,0.0157X0.0197*%
G36*
X10338Y38100D02*
X10325Y37998D01*
X10285Y37902D01*
X10222Y37820D01*
X10139Y37757D01*
X10044Y37717D01*
X9941Y37703D01*
X9838Y37717D01*
X9742Y37757D01*
X9660Y37820D01*
X9597Y37902D01*
X9557Y37998D01*
X9544Y38100D01*
D01*
X9557Y38203D01*
X9597Y38299D01*
X9660Y38381D01*
X9742Y38444D01*
X9838Y38484D01*
X9941Y38497D01*
X10044Y38484D01*
X10139Y38444D01*
X10222Y38381D01*
X10285Y38299D01*
X10325Y38203D01*
X10338Y38100D01*
D01*
D02*
G37*
G36*
X51834Y8967D02*
X51821Y8864D01*
X51781Y8768D01*
X51718Y8686D01*
X51636Y8623D01*
X51540Y8583D01*
X51437Y8569D01*
X51334Y8583D01*
X51238Y8623D01*
X51156Y8686D01*
X51093Y8768D01*
X51053Y8864D01*
X51040Y8967D01*
D01*
X51053Y9069D01*
X51093Y9165D01*
X51156Y9247D01*
X51238Y9310D01*
X51334Y9350D01*
X51437Y9364D01*
X51540Y9350D01*
X51636Y9310D01*
X51718Y9247D01*
X51781Y9165D01*
X51821Y9069D01*
X51834Y8967D01*
D01*
D02*
G37*
D46*
X42528Y11556D02*
D03*
X42128Y10646D02*
D03*
X42928D02*
D03*
X22802Y10994D02*
D03*
X22402Y11904D02*
D03*
X23202D02*
D03*
X18291Y12027D02*
D03*
X17891Y11117D02*
D03*
X18691D02*
D03*
X8724Y32131D02*
D03*
X9124Y33041D02*
D03*
X8324D02*
D03*
X14534Y24735D02*
D03*
X14934Y25645D02*
D03*
X14134D02*
D03*
X17080Y22962D02*
D03*
X16680Y22052D02*
D03*
X17480D02*
D03*
X15715Y22215D02*
D03*
X16115Y23125D02*
D03*
X15315D02*
D03*
X16109Y15246D02*
D03*
X16509Y16156D02*
D03*
X15709D02*
D03*
X16148Y19144D02*
D03*
X16548Y20054D02*
D03*
X15748D02*
D03*
X15584Y14852D02*
D03*
X15184Y13942D02*
D03*
X15984D02*
D03*
D47*
X19262Y9626D02*
D03*
Y8878D02*
D03*
D48*
X27303Y26959D02*
D03*
Y27569D02*
D03*
X22254Y31280D02*
D03*
Y30670D02*
D03*
X14764Y31053D02*
D03*
Y31663D02*
D03*
X10030Y31201D02*
D03*
Y31811D02*
D03*
X20374Y17205D02*
D03*
Y17815D02*
D03*
X45384Y10778D02*
D03*
Y11388D02*
D03*
X27972Y22224D02*
D03*
Y21614D02*
D03*
X23100Y10266D02*
D03*
Y9656D02*
D03*
X17234Y11712D02*
D03*
Y11102D02*
D03*
X19262Y31653D02*
D03*
Y31043D02*
D03*
X8258Y31014D02*
D03*
Y31624D02*
D03*
X7667Y32647D02*
D03*
Y32037D02*
D03*
X12136Y32668D02*
D03*
Y33278D02*
D03*
X23002Y32668D02*
D03*
Y33278D02*
D03*
X19429Y32668D02*
D03*
Y33278D02*
D03*
X15699Y32668D02*
D03*
Y33278D02*
D03*
X8996Y30256D02*
D03*
Y29646D02*
D03*
X8366Y29646D02*
D03*
Y30256D02*
D03*
Y27647D02*
D03*
Y27037D02*
D03*
X8996Y27038D02*
D03*
Y27648D02*
D03*
X13681Y27647D02*
D03*
Y27037D02*
D03*
X13051Y27038D02*
D03*
Y27648D02*
D03*
Y30256D02*
D03*
Y29646D02*
D03*
X13681Y29646D02*
D03*
Y30256D02*
D03*
X17461Y28868D02*
D03*
Y28258D02*
D03*
X19902Y23996D02*
D03*
Y23386D02*
D03*
X19862Y15886D02*
D03*
Y15276D02*
D03*
X19980Y14508D02*
D03*
Y13898D02*
D03*
X28012Y40344D02*
D03*
Y39734D02*
D03*
X33445Y39616D02*
D03*
Y39006D02*
D03*
D51*
X22249Y33287D02*
D03*
Y32487D02*
D03*
X21339Y32887D02*
D03*
X20664Y30876D02*
D03*
Y31676D02*
D03*
X21574Y31276D02*
D03*
X18617Y33287D02*
D03*
Y32487D02*
D03*
X17707Y32887D02*
D03*
X16078Y30925D02*
D03*
Y31725D02*
D03*
X16988Y31325D02*
D03*
X14995Y33287D02*
D03*
Y32487D02*
D03*
X14085Y32887D02*
D03*
X11452Y31033D02*
D03*
Y31833D02*
D03*
X12362Y31433D02*
D03*
X23529Y13845D02*
D03*
X24439Y14245D02*
D03*
Y13445D02*
D03*
X43741Y11043D02*
D03*
X44651Y10643D02*
D03*
Y11443D02*
D03*
X10473Y32887D02*
D03*
X11383Y32487D02*
D03*
Y33287D02*
D03*
D54*
X29144Y17215D02*
D03*
X29754D02*
D03*
X29144Y16604D02*
D03*
X29754D02*
D03*
X27215Y23799D02*
D03*
X27825D02*
D03*
X48612Y39715D02*
D03*
X49222D02*
D03*
X42318Y9913D02*
D03*
X42928D02*
D03*
X23475Y12766D02*
D03*
X24085D02*
D03*
X21732Y10906D02*
D03*
X21122D02*
D03*
X18868Y13947D02*
D03*
X18258D02*
D03*
X18267Y31319D02*
D03*
X17657D02*
D03*
X13582Y31437D02*
D03*
X12972D02*
D03*
X16693Y29232D02*
D03*
X16083D02*
D03*
X19813Y26644D02*
D03*
X19203D02*
D03*
X19203Y26014D02*
D03*
X19813D02*
D03*
X19813Y25384D02*
D03*
X19203D02*
D03*
X19655Y22470D02*
D03*
X19045D02*
D03*
X18809Y20581D02*
D03*
X19419D02*
D03*
X19419Y21211D02*
D03*
X18809D02*
D03*
X19773Y17195D02*
D03*
X19163D02*
D03*
X32569Y24518D02*
D03*
X31959D02*
D03*
X30699Y25266D02*
D03*
X31309D02*
D03*
X32687Y40344D02*
D03*
X32077D02*
D03*
X38474Y38376D02*
D03*
X37864D02*
D03*
X39370Y39715D02*
D03*
X38760D02*
D03*
X43789Y38415D02*
D03*
X43179D02*
D03*
X44773Y39715D02*
D03*
X44163D02*
D03*
X48534Y28770D02*
D03*
X49144D02*
D03*
D55*
X30876Y13612D02*
D03*
X30167D02*
D03*
X33317Y12687D02*
D03*
X32608D02*
D03*
X28720Y22943D02*
D03*
X29429D02*
D03*
D56*
X30492Y18976D02*
D03*
X29823D02*
D03*
X44587Y30581D02*
D03*
X45256D02*
D03*
X18465Y18179D02*
D03*
X17795D02*
D03*
X37175Y9892D02*
D03*
X36506D02*
D03*
X50404Y15522D02*
D03*
X49734D02*
D03*
X28051Y26604D02*
D03*
X28720D02*
D03*
X34754Y19350D02*
D03*
X34085D02*
D03*
X34754Y19970D02*
D03*
X34085D02*
D03*
X30207Y14331D02*
D03*
X30876D02*
D03*
X32608Y13396D02*
D03*
X33278D02*
D03*
X24833Y10374D02*
D03*
X24163D02*
D03*
X13110Y28612D02*
D03*
X13780D02*
D03*
X20374Y27667D02*
D03*
X21043D02*
D03*
X19882Y24636D02*
D03*
X19213D02*
D03*
X19468Y21841D02*
D03*
X18799D02*
D03*
X19843Y16486D02*
D03*
X19173D02*
D03*
X21535Y14715D02*
D03*
X22205D02*
D03*
X24163Y8386D02*
D03*
X24833D02*
D03*
X24163Y9370D02*
D03*
X24833D02*
D03*
X28740Y23652D02*
D03*
X29409D02*
D03*
X32008Y23809D02*
D03*
X32677D02*
D03*
X49291Y27431D02*
D03*
X48622D02*
D03*
X45305Y27972D02*
D03*
X44636D02*
D03*
X45620Y27333D02*
D03*
X44951D02*
D03*
X45591Y28927D02*
D03*
X44921D02*
D03*
X45089Y31663D02*
D03*
X45758D02*
D03*
X48583Y28022D02*
D03*
X49252D02*
D03*
D57*
X46319Y30325D02*
D03*
Y29656D02*
D03*
X46914Y30792D02*
D03*
Y30123D02*
D03*
X47816Y30955D02*
D03*
Y31624D02*
D03*
X48406Y30955D02*
D03*
Y31624D02*
D03*
X15374Y31654D02*
D03*
Y30984D02*
D03*
X10669Y31821D02*
D03*
Y31152D02*
D03*
X22382Y16033D02*
D03*
Y16703D02*
D03*
X23868Y12008D02*
D03*
Y11339D02*
D03*
X17235Y12362D02*
D03*
Y13032D02*
D03*
X51348Y14744D02*
D03*
Y14075D02*
D03*
X50404Y14744D02*
D03*
Y14075D02*
D03*
X27313Y21555D02*
D03*
Y22224D02*
D03*
X32421Y20187D02*
D03*
Y20856D02*
D03*
X31801Y20187D02*
D03*
Y20856D02*
D03*
X31171Y20187D02*
D03*
Y20856D02*
D03*
X31781Y18671D02*
D03*
Y18002D02*
D03*
X31161Y18671D02*
D03*
Y18002D02*
D03*
X22480Y9587D02*
D03*
Y10256D02*
D03*
X19911Y30974D02*
D03*
Y31644D02*
D03*
X9291Y31181D02*
D03*
Y31850D02*
D03*
X19232Y23238D02*
D03*
Y23907D02*
D03*
X21949Y23474D02*
D03*
Y22805D02*
D03*
X21043Y21230D02*
D03*
Y20561D02*
D03*
X19193Y15128D02*
D03*
Y15797D02*
D03*
X20610Y14459D02*
D03*
Y13789D02*
D03*
X27815Y36900D02*
D03*
Y37569D02*
D03*
X43642Y36900D02*
D03*
Y37569D02*
D03*
X32972Y36900D02*
D03*
Y37569D02*
D03*
X38917Y36900D02*
D03*
Y37569D02*
D03*
X44783Y33435D02*
D03*
Y32766D02*
D03*
X39272Y33317D02*
D03*
Y32648D02*
D03*
X34587Y33278D02*
D03*
Y32608D02*
D03*
X29311Y33317D02*
D03*
Y32648D02*
D03*
X46476Y27628D02*
D03*
Y28297D02*
D03*
X47874Y28396D02*
D03*
Y29065D02*
D03*
D60*
X9902Y29100D02*
D03*
X12102D02*
D03*
X9902Y27600D02*
D03*
Y28100D02*
D03*
Y28600D02*
D03*
Y27100D02*
D03*
X12102Y27600D02*
D03*
Y28100D02*
D03*
Y28600D02*
D03*
Y27100D02*
D03*
X9902Y29600D02*
D03*
Y30100D02*
D03*
X12102Y29600D02*
D03*
Y30100D02*
D03*
D65*
X9941Y38100D02*
D03*
X51437Y8967D02*
D03*
X27697Y12234D02*
D03*
D66*
X38907Y11457D02*
D03*
X37293D02*
D03*
X20374Y19006D02*
D03*
X21988D02*
D03*
D67*
X10837Y13691D02*
D03*
X13593D02*
D03*
D70*
X13425Y11737D02*
D03*
X9488D02*
D03*
X22106Y37707D02*
D03*
X14862D02*
D03*
X11240D02*
D03*
X18484D02*
D03*
X17854Y10245D02*
D03*
X40098Y9085D02*
D03*
Y10266D02*
D03*
X38917D02*
D03*
X9941Y9085D02*
D03*
Y10266D02*
D03*
X8760D02*
D03*
X14232Y9085D02*
D03*
Y10266D02*
D03*
X13051D02*
D03*
D71*
X50427Y23199D02*
D03*
X49427D02*
D03*
X47427D02*
D03*
X46427D02*
D03*
X44427D02*
D03*
X50427Y22199D02*
D03*
X49427D02*
D03*
X47427D02*
D03*
X46427D02*
D03*
X44427D02*
D03*
X48427Y23199D02*
D03*
X45427D02*
D03*
X51427Y22199D02*
D03*
X48427D02*
D03*
X45427D02*
D03*
X52323Y31467D02*
D03*
X41043Y26929D02*
D03*
X47884Y10758D02*
D03*
X39852Y12087D02*
D03*
X28228Y27844D02*
D03*
X21752Y28691D02*
D03*
X22217Y21211D02*
D03*
X17776Y15974D02*
D03*
X21516Y11904D02*
D03*
X18437Y12904D02*
D03*
D72*
X51427Y23199D02*
D03*
X50945Y31467D02*
D03*
X46506Y10758D02*
D03*
X29606Y27844D02*
D03*
X20374Y28691D02*
D03*
X20217Y21211D02*
D03*
X16437Y12904D02*
D03*
D73*
X52303Y18937D02*
D03*
X53303Y17937D02*
D03*
X51303D02*
D03*
X53303Y19937D02*
D03*
X51303D02*
D03*
X49134Y37657D02*
D03*
Y34902D02*
D03*
X51378Y37657D02*
D03*
Y34902D02*
D03*
D74*
X38701Y19372D02*
D03*
X37701D02*
D03*
X38701Y20372D02*
D03*
Y18372D02*
D03*
X37701Y20372D02*
D03*
Y18372D02*
D03*
Y21374D02*
D03*
Y23374D02*
D03*
X38701Y21374D02*
D03*
Y23374D02*
D03*
X37701Y22374D02*
D03*
X38701D02*
D03*
Y28378D02*
D03*
X37701D02*
D03*
X38701Y27378D02*
D03*
X37701D02*
D03*
Y24376D02*
D03*
Y26376D02*
D03*
X38701Y24376D02*
D03*
Y26376D02*
D03*
X37701Y25376D02*
D03*
X38701D02*
D03*
X37701Y17372D02*
D03*
X32805Y29232D02*
D03*
Y30236D02*
D03*
X33805Y29232D02*
D03*
X31805D02*
D03*
X33805Y30236D02*
D03*
X31805D02*
D03*
X34803D02*
D03*
Y29232D02*
D03*
X35807Y30236D02*
D03*
X29803Y29232D02*
D03*
Y30236D02*
D03*
X30803Y29232D02*
D03*
X28803D02*
D03*
X30803Y30236D02*
D03*
X28803D02*
D03*
X27801D02*
D03*
Y29232D02*
D03*
X26801Y30236D02*
D03*
Y29232D02*
D03*
X24902Y28376D02*
D03*
X23907Y20372D02*
D03*
X24902D02*
D03*
X23907Y19372D02*
D03*
Y21372D02*
D03*
X24902Y19372D02*
D03*
Y21372D02*
D03*
Y18370D02*
D03*
X23907D02*
D03*
X24902Y17370D02*
D03*
X23907Y23374D02*
D03*
X24902D02*
D03*
X23907Y22374D02*
D03*
Y24374D02*
D03*
X24902Y22374D02*
D03*
Y24374D02*
D03*
Y27376D02*
D03*
Y25376D02*
D03*
X23907Y27376D02*
D03*
Y25376D02*
D03*
X24902Y26376D02*
D03*
X23907D02*
D03*
X20394Y9636D02*
D03*
X26713Y31683D02*
D03*
X25713D02*
D03*
X50256Y35098D02*
D03*
Y35886D02*
D03*
Y36673D02*
D03*
Y37461D02*
D03*
X42799Y34630D02*
D03*
X43299Y35630D02*
D03*
X43799Y34630D02*
D03*
X44299Y35630D02*
D03*
X44799Y34630D02*
D03*
X45299Y35630D02*
D03*
X45799Y34630D02*
D03*
X46299Y35630D02*
D03*
X37299Y34630D02*
D03*
X37799Y35630D02*
D03*
X38299Y34630D02*
D03*
X38799Y35630D02*
D03*
X39299Y34630D02*
D03*
X39799Y35630D02*
D03*
X40299Y34630D02*
D03*
X40799Y35630D02*
D03*
X31799Y34630D02*
D03*
X32299Y35630D02*
D03*
X32799Y34630D02*
D03*
X33299Y35630D02*
D03*
X33799Y34630D02*
D03*
X34299Y35630D02*
D03*
X34799Y34630D02*
D03*
X35299Y35630D02*
D03*
X26299Y34630D02*
D03*
X26799Y35630D02*
D03*
X27299Y34630D02*
D03*
X27799Y35630D02*
D03*
X28299Y34630D02*
D03*
X28799Y35630D02*
D03*
X29299Y34630D02*
D03*
X29799Y35630D02*
D03*
D75*
X38701Y17372D02*
D03*
X23907Y17370D02*
D03*
Y28376D02*
D03*
D76*
X24331Y15915D02*
D03*
D77*
X35807Y29232D02*
D03*
X21394Y9636D02*
D03*
X27713Y31683D02*
D03*
D78*
X41043Y25551D02*
D03*
X39852Y13465D02*
D03*
X17776Y17352D02*
D03*
X21516Y13904D02*
D03*
D79*
X18484Y25122D02*
D03*
X26447Y25374D02*
D03*
Y24587D02*
D03*
Y26161D02*
D03*
Y26949D02*
D03*
Y23799D02*
D03*
Y23012D02*
D03*
Y22224D02*
D03*
X18484Y30573D02*
D03*
D80*
Y23122D02*
D03*
Y28573D02*
D03*
D81*
X33917Y7510D02*
D03*
X40600Y38982D02*
D03*
X41604D02*
D03*
X29587Y39730D02*
D03*
X30600D02*
D03*
X30994Y38982D02*
D03*
X31998D02*
D03*
X36093D02*
D03*
X35079D02*
D03*
X37520Y39730D02*
D03*
X36506D02*
D03*
X26506D02*
D03*
X25492D02*
D03*
X43012D02*
D03*
X41998D02*
D03*
X47106D02*
D03*
X46093D02*
D03*
D82*
X26447Y27736D02*
D03*
D83*
X22106Y38888D02*
D03*
X14862D02*
D03*
X11240D02*
D03*
X18484D02*
D03*
X17854Y9064D02*
D03*
X38917Y9085D02*
D03*
X8760D02*
D03*
X13051D02*
D03*
D84*
X22106Y40589D02*
D03*
X14862D02*
D03*
X11240D02*
D03*
X18484D02*
D03*
X17854Y7363D02*
D03*
X39508Y7384D02*
D03*
X9350D02*
D03*
X13642D02*
D03*
D85*
X9114Y20699D02*
D03*
D86*
Y13730D02*
D03*
D87*
X47933Y8100D02*
D03*
D88*
X20846Y7746D02*
D03*
X52854Y40226D02*
D03*
X8445D02*
D03*
D89*
X24661Y36925D02*
D03*
X41799Y34031D02*
D03*
X36299D02*
D03*
X30799D02*
D03*
X47898Y36925D02*
D03*
D90*
X46799Y38130D02*
D03*
X25799D02*
D03*
D190*
X51024Y15512D02*
D03*
X51358D02*
D03*
D191*
X50394Y16496D02*
D03*
Y16161D02*
D03*
D192*
X21280Y16329D02*
D03*
X20886Y23179D02*
D03*
D193*
X21673Y17195D02*
D03*
X21476D02*
D03*
X21280D02*
D03*
X21083D02*
D03*
X20886D02*
D03*
Y15463D02*
D03*
X21083D02*
D03*
X21280D02*
D03*
X21476D02*
D03*
X21673D02*
D03*
X21280Y22313D02*
D03*
X21083D02*
D03*
X20886D02*
D03*
X20689D02*
D03*
X20492D02*
D03*
Y24045D02*
D03*
X20689D02*
D03*
X20886D02*
D03*
X21083D02*
D03*
X21280D02*
D03*
D194*
X51772Y16339D02*
D03*
D195*
X51782Y15512D02*
D03*
D196*
X36368Y12195D02*
D03*
X35108D02*
D03*
X15344Y10335D02*
D03*
X16604D02*
D03*
X15344Y9094D02*
D03*
X16604D02*
D03*
D197*
X50630Y33199D02*
D03*
X52362D02*
D03*
D198*
X29961Y12687D02*
D03*
D199*
X30866Y12687D02*
D03*
X31772D02*
D03*
D200*
X30866Y10089D02*
D03*
D201*
X22707Y13907D02*
D03*
Y12766D02*
D03*
X16516Y24734D02*
D03*
Y25876D02*
D03*
X15650Y24734D02*
D03*
Y25876D02*
D03*
X15925Y18002D02*
D03*
Y16860D02*
D03*
X16752Y18002D02*
D03*
Y16860D02*
D03*
X16801Y15069D02*
D03*
Y13927D02*
D03*
D202*
X19872Y10955D02*
D03*
Y12766D02*
D03*
D203*
X43809Y12707D02*
D03*
Y13799D02*
D03*
X48898Y15522D02*
D03*
Y16309D02*
D03*
X43809Y16161D02*
D03*
Y15167D02*
D03*
D204*
X20207Y36614D02*
D03*
Y34567D02*
D03*
X16585Y36496D02*
D03*
Y34449D02*
D03*
X13081Y36457D02*
D03*
Y34409D02*
D03*
X9104Y36496D02*
D03*
Y34449D02*
D03*
D205*
X14951Y28770D02*
D03*
Y27156D02*
D03*
X22028Y26683D02*
D03*
Y25069D02*
D03*
D206*
X18199Y27146D02*
D03*
X16152D02*
D03*
D207*
X11988Y23100D02*
D03*
D208*
X14547Y23998D02*
D03*
Y22203D02*
D03*
D209*
X17598Y23967D02*
D03*
X16457D02*
D03*
D210*
X15315Y11919D02*
D03*
X16457D02*
D03*
D211*
X30984Y24222D02*
D03*
Y24026D02*
D03*
Y23829D02*
D03*
Y23632D02*
D03*
X30354D02*
D03*
Y23829D02*
D03*
Y24026D02*
D03*
Y24222D02*
D03*
D212*
X30768Y23612D02*
D03*
X30571D02*
D03*
Y24242D02*
D03*
X30768D02*
D03*
M02*
