M48
;Layer_Color=9474304
;FILE_FORMAT=2:4
INCH,LZ
;TYPE=PLATED
T1F00S00C0.0157
T2F00S00C0.0380
T3F00S00C0.0390
T4F00S00C0.0433
%
T01
X031526Y030177
X033671Y030787
X040659Y0306
Y031083
X041211Y031073
Y030591
Y030089
X040659Y030098
X028671Y030226
X026634Y030748
X02624Y030463
X024547Y029921
X022982Y030472
X020187Y031083
X024341Y032766
X024833Y034045
X025984Y034656
X025394Y035325
X028474Y034626
X028957Y034616
X028711Y034262
X028474Y033848
X028957Y033843
X030581Y034823
X030837Y037156
X029764Y037106
X028848Y03748
X026929Y037736
X026978Y039764
X026368
X025778Y039734
X026457Y041329
X027511Y041616
X027913Y041496
X028898Y04127
X030089Y041998
X030709Y042008
X031132Y040541
X031161Y039764
X030453
X030443Y038967
X031211
X029636
X029596Y039764
X030276Y040541
X030482Y04376
X03065Y044823
X029163Y042992
X025236Y0431
X023622Y043337
X023858Y04252
X022815Y04253
X021506Y042756
X02247Y04373
X02253Y045226
X024134Y044291
X020226Y040974
X020276Y038612
X020335Y037726
X020709Y036526
X023307Y037785
X028022Y039281
X032131Y038268
X032982Y0369
X03374Y035531
X032697Y034843
X032362Y034429
X033061Y031368
X034252
X033671Y031959
X038337Y032766
X038868Y032776
X039469
X040089
X040659Y032057
Y031535
X041211Y031526
X043494Y031791
X043465Y035187
X043474Y035856
X043425Y036594
X043071Y037372
X039783Y038199
X038199Y038789
X03752Y038031
X037533Y0371
X038209Y037156
X038533Y036634
X039596Y035965
X035541Y035856
X035581Y03689
X035364Y037667
X034744Y037894
X034882Y039144
X034862Y03964
X035364Y040404
X036884Y03964
X032805Y04001
X033691Y041083
X033583Y042077
X032982Y042421
X032831Y043697
X034508Y044823
X034449Y045443
X038573Y044331
X039242Y044439
X039951Y044094
X039941Y043366
X042569Y044124
X031969Y041339
T02
X02089Y03565
X02189
X024016Y034636
X025394
X025724Y037264
X024724
X022339Y039132
Y040132
X021339
Y041132
X022339
X021339Y039132
X033671Y033376
Y031376
T03
X035167Y045482
X036167
X04127
X04227
T04
X024646Y042541
Y043722
X025827
X027008
Y042541
X025827
X038051
X039232
Y043722
X038051
M30
