G04 Layer_Color=8421504*
%FSLAX24Y24*%
%MOIN*%
G70*
G01*
G75*
G04:AMPARAMS|DCode=15|XSize=90.6mil|YSize=82.7mil|CornerRadius=12.4mil|HoleSize=0mil|Usage=FLASHONLY|Rotation=270.000|XOffset=0mil|YOffset=0mil|HoleType=Round|Shape=RoundedRectangle|*
%AMROUNDEDRECTD15*
21,1,0.0906,0.0579,0,0,270.0*
21,1,0.0657,0.0827,0,0,270.0*
1,1,0.0248,-0.0289,-0.0329*
1,1,0.0248,-0.0289,0.0329*
1,1,0.0248,0.0289,0.0329*
1,1,0.0248,0.0289,-0.0329*
%
%ADD15ROUNDEDRECTD15*%
%ADD16O,0.0118X0.0630*%
%ADD17O,0.0630X0.0118*%
%ADD19O,0.0800X0.0295*%
%ADD20O,0.0295X0.0850*%
G04:AMPARAMS|DCode=21|XSize=110.2mil|YSize=59.1mil|CornerRadius=14.8mil|HoleSize=0mil|Usage=FLASHONLY|Rotation=90.000|XOffset=0mil|YOffset=0mil|HoleType=Round|Shape=RoundedRectangle|*
%AMROUNDEDRECTD21*
21,1,0.1102,0.0295,0,0,90.0*
21,1,0.0807,0.0591,0,0,90.0*
1,1,0.0295,0.0148,0.0404*
1,1,0.0295,0.0148,-0.0404*
1,1,0.0295,-0.0148,-0.0404*
1,1,0.0295,-0.0148,0.0404*
%
%ADD21ROUNDEDRECTD21*%
%ADD22O,0.0591X0.0281*%
%ADD23O,0.0295X0.0800*%
G04:AMPARAMS|DCode=24|XSize=110.2mil|YSize=59.1mil|CornerRadius=14.8mil|HoleSize=0mil|Usage=FLASHONLY|Rotation=0.000|XOffset=0mil|YOffset=0mil|HoleType=Round|Shape=RoundedRectangle|*
%AMROUNDEDRECTD24*
21,1,0.1102,0.0295,0,0,0.0*
21,1,0.0807,0.0591,0,0,0.0*
1,1,0.0295,0.0404,-0.0148*
1,1,0.0295,-0.0404,-0.0148*
1,1,0.0295,-0.0404,0.0148*
1,1,0.0295,0.0404,0.0148*
%
%ADD24ROUNDEDRECTD24*%
%ADD25O,0.0281X0.0591*%
G04:AMPARAMS|DCode=26|XSize=82.7mil|YSize=78.7mil|CornerRadius=19.7mil|HoleSize=0mil|Usage=FLASHONLY|Rotation=90.000|XOffset=0mil|YOffset=0mil|HoleType=Round|Shape=RoundedRectangle|*
%AMROUNDEDRECTD26*
21,1,0.0827,0.0394,0,0,90.0*
21,1,0.0433,0.0787,0,0,90.0*
1,1,0.0394,0.0197,0.0217*
1,1,0.0394,0.0197,-0.0217*
1,1,0.0394,-0.0197,-0.0217*
1,1,0.0394,-0.0197,0.0217*
%
%ADD26ROUNDEDRECTD26*%
G04:AMPARAMS|DCode=27|XSize=194.9mil|YSize=70.9mil|CornerRadius=17.7mil|HoleSize=0mil|Usage=FLASHONLY|Rotation=0.000|XOffset=0mil|YOffset=0mil|HoleType=Round|Shape=RoundedRectangle|*
%AMROUNDEDRECTD27*
21,1,0.1949,0.0354,0,0,0.0*
21,1,0.1594,0.0709,0,0,0.0*
1,1,0.0354,0.0797,-0.0177*
1,1,0.0354,-0.0797,-0.0177*
1,1,0.0354,-0.0797,0.0177*
1,1,0.0354,0.0797,0.0177*
%
%ADD27ROUNDEDRECTD27*%
G04:AMPARAMS|DCode=28|XSize=86.6mil|YSize=68.9mil|CornerRadius=17.2mil|HoleSize=0mil|Usage=FLASHONLY|Rotation=0.000|XOffset=0mil|YOffset=0mil|HoleType=Round|Shape=RoundedRectangle|*
%AMROUNDEDRECTD28*
21,1,0.0866,0.0344,0,0,0.0*
21,1,0.0522,0.0689,0,0,0.0*
1,1,0.0344,0.0261,-0.0172*
1,1,0.0344,-0.0261,-0.0172*
1,1,0.0344,-0.0261,0.0172*
1,1,0.0344,0.0261,0.0172*
%
%ADD28ROUNDEDRECTD28*%
G04:AMPARAMS|DCode=32|XSize=86.6mil|YSize=68.9mil|CornerRadius=17.2mil|HoleSize=0mil|Usage=FLASHONLY|Rotation=90.000|XOffset=0mil|YOffset=0mil|HoleType=Round|Shape=RoundedRectangle|*
%AMROUNDEDRECTD32*
21,1,0.0866,0.0344,0,0,90.0*
21,1,0.0522,0.0689,0,0,90.0*
1,1,0.0344,0.0172,0.0261*
1,1,0.0344,0.0172,-0.0261*
1,1,0.0344,-0.0172,-0.0261*
1,1,0.0344,-0.0172,0.0261*
%
%ADD32ROUNDEDRECTD32*%
%ADD63O,0.0906X0.0454*%
G36*
X39882Y22904D02*
X39488D01*
X39606Y23081D01*
X39488Y23258D01*
X39882D01*
Y22904D01*
D02*
G37*
G36*
X39094Y23081D02*
X39213Y22904D01*
X38819D01*
Y23258D01*
X39213D01*
X39094Y23081D01*
D02*
G37*
G36*
X36634Y22982D02*
X36457Y23100D01*
X36280Y22982D01*
Y23376D01*
X36634D01*
Y22982D01*
D02*
G37*
G36*
X42250Y24977D02*
X42468Y24933D01*
X42679Y24860D01*
X42878Y24760D01*
X43062Y24634D01*
X43227Y24485D01*
X43230Y24483D01*
X43335Y24356D01*
X43419Y24215D01*
X43480Y24062D01*
X43522Y23928D01*
X43531Y23855D01*
X43512Y23784D01*
X43469Y23725D01*
X43407Y23686D01*
X43334Y23672D01*
X40729D01*
X40654Y23686D01*
X40590Y23726D01*
X40546Y23787D01*
X40526Y23860D01*
X40535Y23936D01*
X40576Y24065D01*
X40636Y24216D01*
X40719Y24356D01*
X40823Y24481D01*
X40828Y24485D01*
X40993Y24634D01*
X41177Y24760D01*
X41376Y24860D01*
X41587Y24933D01*
X41805Y24977D01*
X42028Y24992D01*
X42250Y24977D01*
D02*
G37*
G36*
X37303Y23248D02*
X37126Y23327D01*
X36949Y23248D01*
Y23524D01*
X37303D01*
Y23248D01*
D02*
G37*
G36*
X36634Y22313D02*
X36280D01*
Y22707D01*
X36457Y22589D01*
X36634Y22707D01*
Y22313D01*
D02*
G37*
G36*
X40620Y21456D02*
X40443Y21535D01*
X40266Y21456D01*
Y21732D01*
X40620D01*
Y21456D01*
D02*
G37*
G36*
X37786Y23012D02*
X37864Y22835D01*
X37589D01*
Y23189D01*
X37864D01*
X37786Y23012D01*
D02*
G37*
G36*
X37303Y22638D02*
X36949D01*
Y22914D01*
X37126Y22835D01*
X37303Y22914D01*
Y22638D01*
D02*
G37*
G36*
X38474Y22835D02*
X38199D01*
X38278Y23012D01*
X38199Y23189D01*
X38474D01*
Y22835D01*
D02*
G37*
G36*
X45453Y28425D02*
X45177Y28553D01*
X44902Y28425D01*
Y28839D01*
X45453D01*
Y28425D01*
D02*
G37*
G36*
X39646Y27864D02*
X39291D01*
Y28258D01*
X39469Y28140D01*
X39646Y28258D01*
Y27864D01*
D02*
G37*
G36*
Y28533D02*
X39469Y28652D01*
X39291Y28533D01*
Y28927D01*
X39646D01*
Y28533D01*
D02*
G37*
G36*
X35974Y29478D02*
X35581D01*
X35699Y29656D01*
X35581Y29833D01*
X35974D01*
Y29478D01*
D02*
G37*
G36*
X35187Y29656D02*
X35305Y29478D01*
X34911D01*
Y29833D01*
X35305D01*
X35187Y29656D01*
D02*
G37*
G36*
X42313Y25659D02*
X42431Y25482D01*
X42037D01*
Y25837D01*
X42431D01*
X42313Y25659D01*
D02*
G37*
G36*
X33216Y25869D02*
X33245Y25849D01*
X33265Y25819D01*
X33272Y25784D01*
Y25554D01*
X33265Y25519D01*
X33245Y25489D01*
X33216Y25469D01*
X33181Y25462D01*
X33001D01*
X32965Y25469D01*
X32936Y25489D01*
X32916Y25519D01*
X32909Y25554D01*
Y25784D01*
X32916Y25819D01*
X32936Y25849D01*
X32965Y25869D01*
X33001Y25876D01*
X33181D01*
X33216Y25869D01*
D02*
G37*
G36*
X43100Y25482D02*
X42707D01*
X42825Y25659D01*
X42707Y25837D01*
X43100D01*
Y25482D01*
D02*
G37*
G36*
X45453Y27677D02*
X44902D01*
Y28091D01*
X45177Y27963D01*
X45453Y28091D01*
Y27677D01*
D02*
G37*
G36*
X33216Y26539D02*
X33245Y26519D01*
X33265Y26489D01*
X33272Y26454D01*
Y26224D01*
X33265Y26189D01*
X33245Y26159D01*
X33216Y26139D01*
X33181Y26132D01*
X33001D01*
X32965Y26139D01*
X32936Y26159D01*
X32916Y26189D01*
X32909Y26224D01*
Y26454D01*
X32916Y26489D01*
X32936Y26519D01*
X32965Y26539D01*
X33001Y26546D01*
X33181D01*
X33216Y26539D01*
D02*
G37*
G36*
X40846Y18041D02*
X40965Y17697D01*
X40551D01*
Y18386D01*
X40965D01*
X40846Y18041D01*
D02*
G37*
G36*
X48977Y17467D02*
X48800Y17546D01*
X48623Y17467D01*
Y17743D01*
X48977D01*
Y17467D01*
D02*
G37*
G36*
X42106Y17697D02*
X41693D01*
X41811Y18041D01*
X41693Y18386D01*
X42106D01*
Y17697D01*
D02*
G37*
G36*
X47677Y17785D02*
X47126D01*
X47283Y18140D01*
X47126Y18494D01*
X47677D01*
Y17785D01*
D02*
G37*
G36*
X46378Y18140D02*
X46535Y17785D01*
X45984D01*
Y18494D01*
X46535D01*
X46378Y18140D01*
D02*
G37*
G36*
X36745Y17057D02*
X37845D01*
X37867Y17057D01*
X37907Y17039D01*
X37937Y17008D01*
X37953Y16968D01*
X37953Y16946D01*
X37953Y16946D01*
X37953Y16151D01*
Y16141D01*
X37949Y16121D01*
X37941Y16101D01*
X37929Y16084D01*
X37922Y16076D01*
X37922Y16076D01*
X37914Y16069D01*
X37895Y16056D01*
X37875Y16048D01*
X37853Y16043D01*
X37842Y16043D01*
X37842Y16043D01*
X36743Y16043D01*
X36721Y16043D01*
X36681Y16060D01*
X36650Y16090D01*
X36634Y16130D01*
X36634Y16152D01*
X36634Y16152D01*
X36634Y16949D01*
X36634Y16971D01*
X36651Y17011D01*
X36683Y17041D01*
X36723Y17057D01*
X36745Y17057D01*
D02*
G37*
G36*
X35269D02*
X36369D01*
X36391Y17057D01*
X36431Y17039D01*
X36461Y17008D01*
X36477Y16968D01*
X36477Y16946D01*
X36477Y16946D01*
X36477Y16151D01*
Y16141D01*
X36473Y16121D01*
X36465Y16101D01*
X36453Y16084D01*
X36446Y16076D01*
X36446Y16076D01*
X36438Y16069D01*
X36419Y16056D01*
X36399Y16048D01*
X36377Y16043D01*
X36366Y16043D01*
X36366Y16043D01*
X35267Y16043D01*
X35245Y16043D01*
X35205Y16060D01*
X35174Y16090D01*
X35158Y16130D01*
X35158Y16152D01*
X35158Y16152D01*
X35158Y16949D01*
X35158Y16971D01*
X35175Y17011D01*
X35207Y17041D01*
X35247Y17057D01*
X35269Y17057D01*
D02*
G37*
G36*
X40433Y16693D02*
X39744D01*
Y17106D01*
X40089Y16988D01*
X40433Y17106D01*
Y16693D01*
D02*
G37*
G36*
X35269Y18228D02*
X36369D01*
X36391Y18227D01*
X36431Y18210D01*
X36461Y18179D01*
X36477Y18138D01*
X36477Y18117D01*
X36477Y18117D01*
X36477Y17322D01*
Y17312D01*
X36473Y17291D01*
X36465Y17272D01*
X36453Y17254D01*
X36446Y17247D01*
X36446Y17247D01*
X36438Y17239D01*
X36419Y17227D01*
X36399Y17218D01*
X36377Y17214D01*
X36366Y17214D01*
X36366Y17214D01*
X35267Y17214D01*
X35245Y17214D01*
X35205Y17230D01*
X35174Y17261D01*
X35158Y17301D01*
X35158Y17323D01*
X35158Y17323D01*
X35158Y18120D01*
X35158Y18142D01*
X35175Y18182D01*
X35207Y18212D01*
X35247Y18228D01*
X35269Y18228D01*
D02*
G37*
G36*
X48977Y16857D02*
X48623D01*
Y17133D01*
X48800Y17054D01*
X48977Y17133D01*
Y16857D01*
D02*
G37*
G36*
X38346Y19616D02*
X38071Y19744D01*
X37795Y19616D01*
Y20030D01*
X38346D01*
Y19616D01*
D02*
G37*
G36*
X37549D02*
X37274Y19744D01*
X36998Y19616D01*
Y20030D01*
X37549D01*
Y19616D01*
D02*
G37*
G36*
X42884Y19754D02*
X42539Y19872D01*
X42195Y19754D01*
Y20167D01*
X42884D01*
Y19754D01*
D02*
G37*
G36*
X43401Y22613D02*
X43465Y22573D01*
X43509Y22512D01*
X43529Y22439D01*
X43520Y22364D01*
X43480Y22234D01*
X43419Y22083D01*
X43336Y21944D01*
X43232Y21819D01*
X43227Y21814D01*
X43062Y21665D01*
X42878Y21539D01*
X42679Y21439D01*
X42468Y21366D01*
X42250Y21322D01*
X42028Y21307D01*
X41805Y21322D01*
X41587Y21366D01*
X41376Y21439D01*
X41177Y21539D01*
X40993Y21665D01*
X40828Y21814D01*
X40825Y21816D01*
X40720Y21943D01*
X40636Y22084D01*
X40575Y22237D01*
X40533Y22371D01*
X40524Y22444D01*
X40543Y22515D01*
X40586Y22574D01*
X40649Y22613D01*
X40721Y22627D01*
X43326D01*
X43401Y22613D01*
D02*
G37*
G36*
X40620Y20846D02*
X40266D01*
Y21122D01*
X40443Y21043D01*
X40620Y21122D01*
Y20846D01*
D02*
G37*
G36*
X37906Y18211D02*
X37937Y18181D01*
X37953Y18141D01*
X37953Y18119D01*
X37953Y18119D01*
X37953Y17322D01*
X37953Y17300D01*
X37936Y17260D01*
X37904Y17230D01*
X37864Y17214D01*
X37842Y17214D01*
X37842Y17214D01*
X36742Y17214D01*
X36720Y17215D01*
X36680Y17232D01*
X36650Y17263D01*
X36634Y17303D01*
X36634Y17325D01*
X36634Y18120D01*
Y18130D01*
X36638Y18151D01*
X36646Y18170D01*
X36658Y18187D01*
X36665Y18195D01*
X36665Y18195D01*
X36673Y18203D01*
X36692Y18215D01*
X36712Y18224D01*
X36734Y18228D01*
X36745Y18228D01*
X36745Y18228D01*
X37844Y18228D01*
X37866Y18228D01*
X37906Y18211D01*
D02*
G37*
G36*
X40433Y17835D02*
X40089Y17953D01*
X39744Y17835D01*
Y18248D01*
X40433D01*
Y17835D01*
D02*
G37*
G36*
X42884Y18612D02*
X42195D01*
Y19026D01*
X42539Y18907D01*
X42884Y19026D01*
Y18612D01*
D02*
G37*
G36*
X38346Y18868D02*
X37795D01*
Y19282D01*
X38071Y19154D01*
X38346Y19282D01*
Y18868D01*
D02*
G37*
G36*
X37549D02*
X36998D01*
Y19282D01*
X37274Y19154D01*
X37549Y19282D01*
Y18868D01*
D02*
G37*
G36*
X33799Y40118D02*
X33622Y40236D01*
X33445Y40118D01*
Y40512D01*
X33799D01*
Y40118D01*
D02*
G37*
G36*
X39823Y39528D02*
X39469D01*
Y39921D01*
X39646Y39803D01*
X39823Y39921D01*
Y39528D01*
D02*
G37*
G36*
X37146Y40197D02*
X36969Y40315D01*
X36791Y40197D01*
Y40591D01*
X37146D01*
Y40197D01*
D02*
G37*
G36*
X39823D02*
X39646Y40315D01*
X39469Y40197D01*
Y40591D01*
X39823D01*
Y40197D01*
D02*
G37*
G36*
X38002D02*
X37825Y40315D01*
X37648Y40197D01*
Y40591D01*
X38002D01*
Y40197D01*
D02*
G37*
G36*
X39183Y39547D02*
X38907D01*
X38986Y39724D01*
X38907Y39902D01*
X39183D01*
Y39547D01*
D02*
G37*
G36*
X38494Y39724D02*
X38573Y39547D01*
X38297D01*
Y39902D01*
X38573D01*
X38494Y39724D01*
D02*
G37*
G36*
X33799Y39449D02*
X33445D01*
Y39843D01*
X33622Y39724D01*
X33799Y39843D01*
Y39449D01*
D02*
G37*
G36*
X38002Y39528D02*
X37648D01*
Y39921D01*
X37825Y39803D01*
X38002Y39921D01*
Y39528D01*
D02*
G37*
G36*
X37146D02*
X36791D01*
Y39921D01*
X36969Y39803D01*
X37146Y39921D01*
Y39528D01*
D02*
G37*
G36*
X43012Y42234D02*
X42835Y42313D01*
X42657Y42234D01*
Y42510D01*
X43012D01*
Y42234D01*
D02*
G37*
G36*
X39921Y42195D02*
X39744Y42313D01*
X39567Y42195D01*
Y42589D01*
X39921D01*
Y42195D01*
D02*
G37*
G36*
X40522Y42254D02*
X40167D01*
Y42530D01*
X40344Y42451D01*
X40522Y42530D01*
Y42254D01*
D02*
G37*
G36*
Y42864D02*
X40344Y42943D01*
X40167Y42864D01*
Y43140D01*
X40522D01*
Y42864D01*
D02*
G37*
G36*
X37667Y42510D02*
X37490Y42588D01*
X37313Y42510D01*
Y42785D01*
X37667D01*
Y42510D01*
D02*
G37*
G36*
X39921Y41526D02*
X39567D01*
Y41919D01*
X39744Y41801D01*
X39921Y41919D01*
Y41526D01*
D02*
G37*
G36*
X41132Y41516D02*
X40778D01*
Y41909D01*
X40955Y41791D01*
X41132Y41909D01*
Y41516D01*
D02*
G37*
G36*
X43012Y41624D02*
X42657D01*
Y41900D01*
X42835Y41821D01*
X43012Y41900D01*
Y41624D01*
D02*
G37*
G36*
X41132Y42185D02*
X40955Y42303D01*
X40778Y42185D01*
Y42579D01*
X41132D01*
Y42185D01*
D02*
G37*
G36*
X37667Y41900D02*
X37313D01*
Y42175D01*
X37490Y42096D01*
X37667Y42175D01*
Y41900D01*
D02*
G37*
G36*
X48868Y30581D02*
X48317D01*
Y30994D01*
X48593Y30866D01*
X48868Y30994D01*
Y30581D01*
D02*
G37*
G36*
X39636Y30738D02*
X39242D01*
X39360Y30915D01*
X39242Y31093D01*
X39636D01*
Y30738D01*
D02*
G37*
G36*
X34478Y31309D02*
X34596Y31132D01*
X34203D01*
Y31486D01*
X34596D01*
X34478Y31309D01*
D02*
G37*
G36*
X48868Y31329D02*
X48593Y31457D01*
X48317Y31329D01*
Y31742D01*
X48868D01*
Y31329D01*
D02*
G37*
G36*
X35266Y31132D02*
X34872D01*
X34990Y31309D01*
X34872Y31486D01*
X35266D01*
Y31132D01*
D02*
G37*
G36*
X39656Y29961D02*
X39478Y30079D01*
X39301Y29961D01*
Y30354D01*
X39656D01*
Y29961D01*
D02*
G37*
G36*
Y29291D02*
X39301D01*
Y29685D01*
X39478Y29567D01*
X39656Y29685D01*
Y29291D01*
D02*
G37*
G36*
X47343Y30787D02*
X47421Y30610D01*
X47146D01*
Y30965D01*
X47421D01*
X47343Y30787D01*
D02*
G37*
G36*
X38848Y30915D02*
X38967Y30738D01*
X38573D01*
Y31093D01*
X38967D01*
X38848Y30915D01*
D02*
G37*
G36*
X48031Y30610D02*
X47756D01*
X47834Y30787D01*
X47756Y30965D01*
X48031D01*
Y30610D01*
D02*
G37*
G36*
X41703Y37303D02*
X41348D01*
Y37697D01*
X41526Y37579D01*
X41703Y37697D01*
Y37303D01*
D02*
G37*
G36*
X33366Y36407D02*
X33189Y36526D01*
X33012Y36407D01*
Y36801D01*
X33366D01*
Y36407D01*
D02*
G37*
G36*
X33474Y37579D02*
X33120D01*
Y37972D01*
X33297Y37854D01*
X33474Y37972D01*
Y37579D01*
D02*
G37*
G36*
Y38248D02*
X33297Y38366D01*
X33120Y38248D01*
Y38642D01*
X33474D01*
Y38248D01*
D02*
G37*
G36*
X41703Y37972D02*
X41526Y38091D01*
X41348Y37972D01*
Y38366D01*
X41703D01*
Y37972D01*
D02*
G37*
G36*
X42441Y34488D02*
X42087D01*
Y34882D01*
X42264Y34764D01*
X42441Y34882D01*
Y34488D01*
D02*
G37*
G36*
X33474Y34301D02*
X32904D01*
Y34754D01*
X33189Y34626D01*
X33474Y34754D01*
Y34301D01*
D02*
G37*
G36*
Y35010D02*
X33189Y35138D01*
X32904Y35010D01*
Y35463D01*
X33474D01*
Y35010D01*
D02*
G37*
G36*
X33366Y35738D02*
X33012D01*
Y36132D01*
X33189Y36014D01*
X33366Y36132D01*
Y35738D01*
D02*
G37*
G36*
X42441Y35157D02*
X42264Y35276D01*
X42087Y35157D01*
Y35551D01*
X42441D01*
Y35157D01*
D02*
G37*
D15*
X34547Y39803D02*
D03*
X36122D02*
D03*
D16*
X37215Y32441D02*
D03*
Y38504D02*
D03*
X39577Y32441D02*
D03*
X39380D02*
D03*
X39183D02*
D03*
X38986D02*
D03*
X38789D02*
D03*
X38593D02*
D03*
X38396D02*
D03*
X38199D02*
D03*
X38002D02*
D03*
X37805D02*
D03*
X37608D02*
D03*
X37411D02*
D03*
X37018D02*
D03*
X36821D02*
D03*
X36624D02*
D03*
X36427D02*
D03*
X36230D02*
D03*
X36033D02*
D03*
X35837D02*
D03*
X35640D02*
D03*
X35443D02*
D03*
X35246D02*
D03*
X35049D02*
D03*
X34852D02*
D03*
X37411Y38504D02*
D03*
X37608D02*
D03*
X37805D02*
D03*
X38002D02*
D03*
X38199D02*
D03*
X38396D02*
D03*
X38593D02*
D03*
X38789D02*
D03*
X38986D02*
D03*
X39183D02*
D03*
X39380D02*
D03*
X39577D02*
D03*
X34852D02*
D03*
X35049D02*
D03*
X35246D02*
D03*
X35443D02*
D03*
X35640D02*
D03*
X35837D02*
D03*
X36033D02*
D03*
X36230D02*
D03*
X36427D02*
D03*
X36624D02*
D03*
X36821D02*
D03*
X37018D02*
D03*
D17*
X40246Y35472D02*
D03*
X34183D02*
D03*
X40246Y35276D02*
D03*
Y35079D02*
D03*
Y34882D02*
D03*
Y34685D02*
D03*
Y34488D02*
D03*
Y34291D02*
D03*
Y34094D02*
D03*
Y33898D02*
D03*
Y33701D02*
D03*
Y33504D02*
D03*
Y33307D02*
D03*
Y33110D02*
D03*
X34183D02*
D03*
Y33307D02*
D03*
Y33504D02*
D03*
Y33701D02*
D03*
Y33898D02*
D03*
Y34094D02*
D03*
Y34291D02*
D03*
Y34488D02*
D03*
Y34685D02*
D03*
Y34882D02*
D03*
Y35079D02*
D03*
Y35276D02*
D03*
X40246Y37835D02*
D03*
Y37638D02*
D03*
Y37441D02*
D03*
Y37244D02*
D03*
Y37047D02*
D03*
Y36850D02*
D03*
Y36654D02*
D03*
Y36457D02*
D03*
Y36260D02*
D03*
Y36063D02*
D03*
Y35866D02*
D03*
Y35669D02*
D03*
X34183D02*
D03*
Y35866D02*
D03*
Y36063D02*
D03*
Y36260D02*
D03*
Y36457D02*
D03*
Y36654D02*
D03*
Y36850D02*
D03*
Y37047D02*
D03*
Y37244D02*
D03*
Y37441D02*
D03*
Y37638D02*
D03*
Y37835D02*
D03*
D19*
X33573Y28896D02*
D03*
Y28396D02*
D03*
X35773D02*
D03*
Y28896D02*
D03*
X33573Y27396D02*
D03*
X35773D02*
D03*
X33573Y27896D02*
D03*
X35773D02*
D03*
X40270Y31411D02*
D03*
Y30911D02*
D03*
X42470D02*
D03*
Y31411D02*
D03*
X40270Y29911D02*
D03*
X42470D02*
D03*
X40270Y30411D02*
D03*
X42470D02*
D03*
X40364Y28980D02*
D03*
Y28480D02*
D03*
X42564D02*
D03*
Y28980D02*
D03*
X40364Y27480D02*
D03*
X42564D02*
D03*
X40364Y27980D02*
D03*
X42564D02*
D03*
X39611Y20652D02*
D03*
Y21152D02*
D03*
X37411D02*
D03*
Y20652D02*
D03*
X39611Y22152D02*
D03*
X37411D02*
D03*
X39611Y21652D02*
D03*
X37411D02*
D03*
D20*
X34864Y26339D02*
D03*
Y23389D02*
D03*
X33864Y26339D02*
D03*
X34364D02*
D03*
X35364D02*
D03*
X33864Y23389D02*
D03*
X34364D02*
D03*
X35364D02*
D03*
D21*
X44646Y26890D02*
D03*
X43386D02*
D03*
X44754Y31594D02*
D03*
X43494D02*
D03*
X44754Y29902D02*
D03*
X43494D02*
D03*
D22*
X48218Y28445D02*
D03*
X49128Y28845D02*
D03*
Y28045D02*
D03*
X43470Y28244D02*
D03*
X44380Y28644D02*
D03*
Y27844D02*
D03*
X41884Y16657D02*
D03*
X40974Y16257D02*
D03*
Y17057D02*
D03*
X40167Y19282D02*
D03*
X39257Y18881D02*
D03*
Y19682D02*
D03*
D23*
X42998Y33159D02*
D03*
X43498D02*
D03*
Y35359D02*
D03*
X42998D02*
D03*
X44498Y33159D02*
D03*
Y35359D02*
D03*
X43998Y33159D02*
D03*
Y35359D02*
D03*
D24*
X43140Y36506D02*
D03*
Y37766D02*
D03*
X44459Y36506D02*
D03*
Y37766D02*
D03*
X44409Y24587D02*
D03*
Y25846D02*
D03*
D25*
X44455Y39404D02*
D03*
X44055Y38494D02*
D03*
X44855D02*
D03*
X43136Y39404D02*
D03*
X42736Y38494D02*
D03*
X43536D02*
D03*
X42972Y16014D02*
D03*
X42572Y16924D02*
D03*
X43372D02*
D03*
D26*
X42894Y40581D02*
D03*
X44705D02*
D03*
X45827Y42264D02*
D03*
X44016D02*
D03*
X46467Y16486D02*
D03*
X44656D02*
D03*
D27*
X44026Y20935D02*
D03*
Y19203D02*
D03*
D28*
X43720Y18041D02*
D03*
X45335D02*
D03*
D32*
X41476Y19134D02*
D03*
Y20748D02*
D03*
D63*
X39114Y16238D02*
D03*
Y18033D02*
D03*
M02*
