M48
;Layer_Color=9474304
;FILE_FORMAT=2:4
INCH,LZ
;TYPE=PLATED
T1F00S00C0.0118
T2F00S00C0.0197
T3F00S00C0.0380
T4F00S00C0.0390
T5F00S00C0.0394
T6F00S00C0.0472
T7F00S00C0.0591
%
T01
X03937Y01378
X041339
X043307
X045276
X046309Y013701
Y01503
X048071Y013622
X049213Y01378
Y017717
X048602Y017982
X048307Y01873
X048189Y019222
X047953Y019606
X047618Y019154
X046998Y01813
X049931Y018504
X050354Y019114
X049892Y020246
X049764Y020827
X049577Y021634
X050266Y021919
X050819Y02194
X051102Y022697
X051427Y023711
X052411
X052953Y02372
X053022Y024173
X053376Y023878
X052677Y024665
X052461Y025215
X05185Y025266
X051627Y026054
X052323Y025876
X050915Y025837
X050236
X049055Y025886
X048494Y025236
X048839Y023947
X049508Y023711
X0494Y022717
X047549Y022657
X047953Y021971
X047411Y021024
X04873Y020965
X04829Y020145
X051929Y020089
X052175Y019154
X05189Y018209
X051033Y017992
X052963Y017953
X053927Y018228
X05498Y017972
X054134Y019685
X054173Y020423
X053455Y02125
X052854Y021467
X05263Y021083
X054961Y02252
X055216Y022776
X055364Y0231
X056794Y0232
X057106Y02436
X0569Y025295
X05687Y025738
X057234Y025945
X05815Y025837
X058228Y025433
X058258Y026614
X058192Y027117
X058593Y027175
X059039Y027047
X05938Y027303
Y027726
Y0281
X060295Y028533
X060335Y026132
X0594
X059498Y024843
X059186Y024529
X059695Y024203
X059521Y023633
X059567Y022874
X058563Y022923
X058569Y023619
X05876Y022136
X06064Y023081
X061427Y023642
X061929Y024783
X062392Y025423
X057818Y026921
X056102Y027559
X054134
X05253Y027598
X050197Y027559
X049774Y028012
X049439Y029134
X050856
X051161Y029902
X051437Y029646
X050353Y029705
X050583Y030346
X050728Y030876
X051102Y031063
X049055Y031033
X048838Y030512
X049439Y03063
X047178Y031065
X048012Y027638
X048848Y027077
X047579Y026535
X050276Y024114
X055335Y024823
X055118Y029528
X05315
X058474Y029459
X059016Y031053
X058549Y017716
X058071Y015748
X060039
X056102
X044291
X044104Y019724
X044154Y020738
X045315Y021083
X045856Y021437
X04628Y020886
X045935Y020226
X046203Y01923
X042323Y019685
X042136Y017992
X041339Y017717
X039902Y02003
X040699Y023061
X039114Y023297
X039085Y025059
X042618Y024547
Y024094
X043179
Y024547
X044321Y024154
X044291Y023622
X044902Y023209
X045591Y0244
X044301Y025994
X043474
Y026634
X04248Y026959
X042185Y029665
X043307Y029528
X044232Y028976
X046742Y029055
X042579Y030551
X042028Y033179
Y033612
X041378Y033602
Y033189
X03937Y033465
X039262Y034213
X039636Y035138
X040354Y035433
X03937Y037402
X040354Y03937
X042323
X043573Y040472
X044567
X046618Y040508
X046014Y041604
X046624Y042451
Y044203
X043307Y041339
X03937
X045167Y038169
X045276Y037402
X045317Y036409
X04523Y036004
X045236Y035551
X045217Y034902
X045118Y034262
X045276Y033465
X045128Y033071
X045069Y0319
X046427Y033927
X046191Y034484
X046518Y034677
X046486Y035945
X046469Y036409
X046732Y036791
X046626Y037905
X044205Y037029
X044419Y036191
X043327Y035974
X043159Y03502
X043504Y034695
X039419Y031752
X04747Y032283
X047473Y032698
X048169Y032785
X047935Y033181
X047805Y033661
X048543Y035059
X048917
X049579Y03511
X049934Y035208
X050002Y03448
X050288Y034765
X052244Y034872
X051939Y034222
X052638Y034301
X052854Y032746
X052234Y032697
X051902Y032364
X051585Y032638
X051299Y033563
X051437Y031309
X053386Y031821
X055335Y031841
X055216Y033346
X055413Y033583
X055184Y034072
X054587
X054528Y033287
X054331Y035069
X055423Y034724
X057729Y034706
X05771Y034352
X057729Y033998
Y033643
Y033289
X057736Y032933
X057087Y032303
X059055Y031624
X059471Y033289
X059852Y033081
X060256Y033031
X059275Y033693
X059078Y034027
X058947Y03439
X05876Y034705
X059203Y034715
X058691Y035148
X060039Y035433
X060502Y035896
X061024Y037402
X059055
X059232Y037648
X05876Y038258
X058366Y037018
X058536Y036675
X057736Y036663
X057687Y037018
X058002Y039813
X057047Y039774
X056073Y039715
X055069Y039724
X054144Y037894
X053504Y037923
X052874Y037943
X052215Y037933
X052146Y037254
X052106Y036831
X051811Y036604
X052707Y036939
X052818Y037315
X053201Y036449
X053573Y036191
X051181Y037402
X050689Y037165
X049687Y037275
X049343Y036961
Y03764
X049993Y037955
X048593Y038642
X049242Y03999
X049341Y040709
X050394Y040807
X051683Y040374
X05204Y040366
X052461Y040384
X052057Y041437
X051132Y039606
X050935Y043356
X050571Y04373
X049646Y043494
X05002Y044941
X051181Y045276
X053917Y044114
X053819Y042815
X05436Y042559
X055256
X060039Y043307
X060305Y044282
X048867Y04187
X048425Y04185
X048386Y041201
X048593Y036535
X049301Y035866
X04813Y035512
X04764Y035996
X062008Y031496
X050197Y047244
X050787Y048671
X047274Y046919
X042323Y047244
X040354
T02
X050866Y013898
X052923
X054596Y013868
X057116Y013848
X058927Y013839
X06122Y01375
X062421Y014134
X063169Y01438
X062835Y012303
X06315Y015906
X062953Y0181
X062392Y017362
X061319Y017224
X061585Y017913
X062215Y01628
X061801Y022372
X060551Y02126
X059695Y020984
X055778Y020423
X053927Y021043
X044764Y030197
X052923Y032293
X062648Y035413
X062707Y035846
X0631Y035591
X06Y048848
T03
X039388Y021457
X041388
X04062Y030482
X039242
X052043Y046746
X053043
X054043
X055043
X056043
X061171Y046205
Y045205
X062171
Y044205
Y043205
X061171
Y044205
X062171Y046205
Y047205
X061171
X056043Y047746
X055043
X054043
X053043
X052043
T04
X047425Y012687
X048425
X048612Y048317
X047612
T05
X06147Y026289
X06247
Y027579
X06147
X061467Y032154
Y033154
Y034154
X062467
Y033154
Y032154
T06
X045177Y038976
Y039961
Y040945
T07
X039203Y015482
X041171
X04314
X045108
X050827
X052795
X054764
X056968
X058937
X060906
X041358Y036673
Y038642
Y04061
X041417Y045315
X043386
X045354
X039449
M30
