G04 Layer_Physical_Order=2*
G04 Layer_Color=16711680*
%FSLAX24Y24*%
%MOIN*%
G70*
G01*
G75*
%ADD10C,0.0079*%
%ADD41C,0.0098*%
%ADD42C,0.0197*%
%ADD44C,0.0394*%
%ADD45R,0.0600X0.0600*%
%ADD46C,0.0600*%
%ADD47R,0.0600X0.0600*%
%ADD48C,0.0709*%
%ADD49R,0.0709X0.0709*%
%ADD50C,0.1181*%
%ADD51C,0.0945*%
%ADD52R,0.0709X0.0709*%
%ADD53C,0.0315*%
D10*
X43051Y46083D02*
G03*
X42990Y46229I-207J0D01*
G01*
X43051Y46083D02*
G03*
X42991Y46229I-207J0D01*
G01*
X42706Y46514D02*
G03*
X42559Y46575I-146J-146D01*
G01*
X42705Y46514D02*
G03*
X42559Y46575I-146J-146D01*
G01*
X43790Y45289D02*
G03*
X43051Y45650I-457J0D01*
G01*
X43084Y44906D02*
G03*
X43790Y45289I249J384D01*
G01*
X43514Y44390D02*
G03*
X43453Y44536I-207J0D01*
G01*
X43514Y44390D02*
G03*
X43453Y44536I-207J0D01*
G01*
X42638Y44852D02*
G03*
X42698Y44706I207J0D01*
G01*
X42638Y44852D02*
G03*
X42699Y44706I207J0D01*
G01*
X42226Y46575D02*
G03*
X42226Y46161I-238J-207D01*
G01*
X39350Y46732D02*
G03*
X40482Y46091I384J-642D01*
G01*
X39350Y46732D02*
G03*
X40482Y46091I384J-642D01*
G01*
D02*
G03*
X40119Y46732I-748J0D01*
G01*
X40482Y46091D02*
G03*
X40119Y46732I-748J0D01*
G01*
X39656Y44390D02*
G03*
X39656Y44390I-512J0D01*
G01*
X40679Y42839D02*
G03*
X40837Y43209I-354J369D01*
G01*
X43453Y41527D02*
G03*
X43514Y41673I-146J146D01*
G01*
X43453Y41527D02*
G03*
X43514Y41673I-146J146D01*
G01*
X40896Y40915D02*
G03*
X40750Y40855I0J-207D01*
G01*
X43218Y40335D02*
G03*
X42720Y40591I-315J0D01*
G01*
X40896Y40915D02*
G03*
X40749Y40855I0J-207D01*
G01*
X40837Y43209D02*
G03*
X39949Y42861I-512J0D01*
G01*
X39656Y43209D02*
G03*
X39656Y43209I-512J0D01*
G01*
X40575Y42486D02*
G03*
X40679Y42736I-251J251D01*
G01*
X40575Y42485D02*
G03*
X40679Y42736I-250J251D01*
G01*
X39783Y41841D02*
G03*
X40034Y41945I0J354D01*
G01*
X39783Y41841D02*
G03*
X40034Y41944I0J354D01*
G01*
X36652Y45285D02*
G03*
X35759Y45145I-457J0D01*
G01*
X36055Y44850D02*
G03*
X36652Y45285I140J435D01*
G01*
X34316Y46589D02*
G03*
X34065Y46693I-251J-251D01*
G01*
X34316Y46589D02*
G03*
X34065Y46693I-251J-250D01*
G01*
X37958Y41945D02*
G03*
X38209Y41841I251J250D01*
G01*
X37958Y41944D02*
G03*
X38209Y41841I251J251D01*
G01*
X38898Y40394D02*
G03*
X38751Y40333I0J-207D01*
G01*
X38898Y40394D02*
G03*
X38751Y40333I0J-207D01*
G01*
X38209Y41486D02*
G03*
X38148Y41632I-207J0D01*
G01*
X38209Y41486D02*
G03*
X38148Y41633I-207J0D01*
G01*
X37478Y41172D02*
G03*
X37795Y41377I22J314D01*
G01*
X36009Y43772D02*
G03*
X36024Y43868I-300J96D01*
G01*
X35720Y44183D02*
G03*
X35634Y43562I-11J-315D01*
G01*
X37408Y41788D02*
G03*
X37186Y41464I92J-301D01*
G01*
X37015Y41486D02*
G03*
X36722Y41172I-315J0D01*
G01*
X31766Y40841D02*
G03*
X31267Y41096I-315J0D01*
G01*
Y40585D02*
G03*
X31766Y40841I184J256D01*
G01*
X42720Y40079D02*
G03*
X43218Y40335I184J256D01*
G01*
X42805Y38002D02*
G03*
X42307Y38258I-315J0D01*
G01*
X41378D02*
G03*
X41197Y38183I0J-256D01*
G01*
X41378Y38258D02*
G03*
X41197Y38183I0J-256D01*
G01*
X40728Y39636D02*
G03*
X40910Y39711I0J256D01*
G01*
X40728Y39636D02*
G03*
X40909Y39711I0J256D01*
G01*
X42307Y37746D02*
G03*
X42805Y38002I184J256D01*
G01*
X38236Y39817D02*
G03*
X38209Y39844I-234J-211D01*
G01*
X39183Y39341D02*
G03*
X39124Y39524I-315J0D01*
G01*
X38666Y39099D02*
G03*
X39183Y39341I202J242D01*
G01*
X37795Y39844D02*
G03*
X38078Y39301I207J-238D01*
G01*
X36742Y39739D02*
G03*
X36461Y39725I-126J-289D01*
G01*
X38078Y39301D02*
G03*
X38666Y39099I279J-147D01*
G01*
X40254Y37240D02*
G03*
X40616Y36878I51J-311D01*
G01*
X39695Y35413D02*
G03*
X39556Y35356I0J-197D01*
G01*
X39695Y35413D02*
G03*
X39556Y35356I0J-197D01*
G01*
X38414Y34214D02*
G03*
X38356Y34075I139J-139D01*
G01*
X38414Y34214D02*
G03*
X38356Y34075I139J-139D01*
G01*
Y33548D02*
G03*
X38430Y33394I197J0D01*
G01*
X38356Y33548D02*
G03*
X38430Y33394I197J0D01*
G01*
X39306Y31130D02*
G03*
X39306Y31130I-418J0D01*
G01*
X38430Y32866D02*
G03*
X38356Y32712I123J-154D01*
G01*
X38430Y32866D02*
G03*
X38356Y32712I123J-154D01*
G01*
Y32658D02*
G03*
X38414Y32518I197J0D01*
G01*
X38356Y32658D02*
G03*
X38414Y32518I197J0D01*
G01*
X37351Y36235D02*
G03*
X37411Y36381I-146J146D01*
G01*
X37351Y36235D02*
G03*
X37411Y36381I-146J146D01*
G01*
X36180Y40048D02*
G03*
X36033Y40108I-146J-146D01*
G01*
X36180Y40047D02*
G03*
X36033Y40108I-146J-146D01*
G01*
X36461Y39725D02*
G03*
X36406Y39821I-201J-49D01*
G01*
X36461Y39725D02*
G03*
X36406Y39822I-201J-49D01*
G01*
X35549Y39331D02*
G03*
X35669Y39206I278J148D01*
G01*
Y37217D02*
G03*
X35572Y37014I217J-229D01*
G01*
X33386Y35502D02*
G03*
X33205Y35427I0J-256D01*
G01*
X33386Y35502D02*
G03*
X33205Y35427I0J-256D01*
G01*
X32598Y39695D02*
G03*
X33077Y39331I296J-108D01*
G01*
X32431Y40108D02*
G03*
X32285Y40048I0J-207D01*
G01*
X32431Y40108D02*
G03*
X32285Y40047I0J-207D01*
G01*
X32008Y39124D02*
G03*
X32003Y39181I-315J0D01*
G01*
X31676Y39439D02*
G03*
X32008Y39124I17J-314D01*
G01*
X32900Y35177D02*
G03*
X32768Y35232I-184J-256D01*
G01*
X32307Y35693D02*
G03*
X32126Y35768I-181J-181D01*
G01*
X32307Y35693D02*
G03*
X32126Y35768I-181J-181D01*
G01*
X31987Y35256D02*
G03*
X31890Y34723I110J-295D01*
G01*
X35500Y34470D02*
G03*
X35647Y34531I0J207D01*
G01*
X35500Y34470D02*
G03*
X35647Y34531I0J207D01*
G01*
X34850Y34774D02*
G03*
X35387Y34470I300J-97D01*
G01*
X34769Y33752D02*
G03*
X34172Y33831I-311J-51D01*
G01*
X35094Y33321D02*
G03*
X35019Y33502I-256J0D01*
G01*
X35094Y33321D02*
G03*
X35020Y33502I-256J0D01*
G01*
X34183Y34646D02*
G03*
X34156Y34774I-315J0D01*
G01*
X34075Y34408D02*
G03*
X34183Y34646I-207J238D01*
G01*
X34172Y33831D02*
G03*
X34075Y34028I-313J-31D01*
G01*
X34145Y33669D02*
G03*
X34408Y33390I313J31D01*
G01*
X34065Y33562D02*
G03*
X34145Y33669I-207J238D01*
G01*
X35154Y31864D02*
G03*
X35094Y32048I-315J0D01*
G01*
X34583D02*
G03*
X35154Y31864I256J-184D01*
G01*
X34744Y31289D02*
G03*
X34246Y31545I-315J0D01*
G01*
Y31033D02*
G03*
X34744Y31289I184J256D01*
G01*
X33565Y34562D02*
G03*
X33661Y34408I304J84D01*
G01*
X33258Y34341D02*
G03*
X33404Y34401I0J207D01*
G01*
X33258Y34341D02*
G03*
X33404Y34401I0J207D01*
G01*
X33661Y34045D02*
G03*
X33652Y33562I197J-246D01*
G01*
X32108Y34401D02*
G03*
X32254Y34341I146J146D01*
G01*
X32107Y34401D02*
G03*
X32254Y34341I146J146D01*
G01*
X31890Y34705D02*
G03*
X31950Y34559I207J0D01*
G01*
X31890Y34705D02*
G03*
X31951Y34558I207J0D01*
G01*
X32947Y32573D02*
G03*
X32766Y32648I-181J-181D01*
G01*
X32947Y32572D02*
G03*
X32766Y32648I-181J-181D01*
G01*
X33682Y31113D02*
G03*
X33868Y31033I186J176D01*
G01*
X29970Y46693D02*
G03*
X29720Y46589I0J-354D01*
G01*
X29970Y46693D02*
G03*
X29720Y46589I0J-354D01*
G01*
X29044Y45913D02*
G03*
X29065Y46091I-727J178D01*
G01*
X29044Y45913D02*
G03*
X29065Y46091I-727J178D01*
G01*
D02*
G03*
X28701Y46732I-748J0D01*
G01*
X29065Y46091D02*
G03*
X28701Y46732I-748J0D01*
G01*
X27933D02*
G03*
X28495Y45364I384J-642D01*
G01*
X27933Y46732D02*
G03*
X28495Y45364I384J-642D01*
G01*
X28067Y44936D02*
G03*
X27973Y44768I250J-251D01*
G01*
X28066Y44936D02*
G03*
X27973Y44768I251J-251D01*
G01*
X28829Y44390D02*
G03*
X28767Y44634I-512J0D01*
G01*
X27973Y44768D02*
G03*
X27963Y44020I344J-379D01*
G01*
X28671D02*
G03*
X28829Y44390I-354J369D01*
G01*
X27608D02*
G03*
X27608Y44390I-472J0D01*
G01*
X30010Y43209D02*
G03*
X30010Y43209I-512J0D01*
G01*
X28829D02*
G03*
X28671Y43578I-512J0D01*
G01*
X30460Y41746D02*
G03*
X30280Y41821I-181J-181D01*
G01*
X30461Y41746D02*
G03*
X30280Y41821I-181J-181D01*
G01*
X30819Y41341D02*
G03*
X30555Y41651I-315J0D01*
G01*
X30703Y41096D02*
G03*
X30819Y41341I-199J244D01*
G01*
X30179Y40660D02*
G03*
X30360Y40585I181J181D01*
G01*
X30179Y40660D02*
G03*
X30360Y40585I181J181D01*
G01*
X29069Y41821D02*
G03*
X29124Y41998I-260J177D01*
G01*
D02*
G03*
X28625Y42254I-315J0D01*
G01*
X27963Y43578D02*
G03*
X28829Y43209I354J-369D01*
G01*
X27608D02*
G03*
X27608Y43209I-472J0D01*
G01*
X27726Y39862D02*
G03*
X27151Y40039I-315J0D01*
G01*
X27203Y39626D02*
G03*
X27726Y39862I208J236D01*
G01*
X26250Y43458D02*
G03*
X26309Y43642I-256J184D01*
G01*
D02*
G03*
X25738Y43458I-315J0D01*
G01*
Y42844D02*
G03*
X25813Y42664I256J0D01*
G01*
X25738Y42844D02*
G03*
X25813Y42663I256J0D01*
G01*
X21742Y45197D02*
G03*
X21742Y45197I-630J0D01*
G01*
D02*
G03*
X21742Y45197I-630J0D01*
G01*
X26368Y40640D02*
G03*
X26206Y40915I-315J0D01*
G01*
X26260Y40402D02*
G03*
X26368Y40640I-207J238D01*
G01*
X25846Y40305D02*
G03*
X25907Y40159I207J0D01*
G01*
X25846Y40305D02*
G03*
X25907Y40159I207J0D01*
G01*
X25901Y40915D02*
G03*
X25846Y40402I152J-276D01*
G01*
X24360Y42254D02*
G03*
X24179Y42179I0J-256D01*
G01*
X24360Y42254D02*
G03*
X24179Y42179I0J-256D01*
G01*
X23702Y40978D02*
G03*
X23914Y40497I265J-171D01*
G01*
X26379Y39687D02*
G03*
X26526Y39626I146J146D01*
G01*
X26379Y39687D02*
G03*
X26526Y39626I146J146D01*
G01*
X23906Y40488D02*
G03*
X24267Y40126I51J-311D01*
G01*
X22114Y40114D02*
G03*
X22476Y39752I51J-311D01*
G01*
X31112Y36568D02*
G03*
X31171Y36752I-256J184D01*
G01*
D02*
G03*
X30600Y36568I-315J0D01*
G01*
X31059Y35331D02*
G03*
X31240Y35256I181J181D01*
G01*
X31059Y35331D02*
G03*
X31240Y35256I181J181D01*
G01*
X30020Y34803D02*
G03*
X30201Y34878I0J256D01*
G01*
X30020Y34803D02*
G03*
X30201Y34878I0J256D01*
G01*
X27682Y36520D02*
G03*
X27682Y36520I-418J0D01*
G01*
X31112Y32648D02*
G03*
X30931Y32573I0J-256D01*
G01*
X31112Y32648D02*
G03*
X30931Y32572I0J-256D01*
G01*
X29567Y30591D02*
G03*
X29748Y30666I0J256D01*
G01*
X29567Y30591D02*
G03*
X29748Y30666I0J256D01*
G01*
X28008Y30666D02*
G03*
X28189Y30591I181J181D01*
G01*
X28008Y30666D02*
G03*
X28189Y30591I181J181D01*
G01*
X24091Y37782D02*
G03*
X24091Y37782I-457J0D01*
G01*
X26432Y36510D02*
G03*
X26432Y36510I-418J0D01*
G01*
X24052Y36781D02*
G03*
X24052Y36781I-418J0D01*
G01*
X23091Y37782D02*
G03*
X23091Y37782I-457J0D01*
G01*
X22091D02*
G03*
X22091Y37782I-457J0D01*
G01*
X23091Y36781D02*
G03*
X23091Y36781I-457J0D01*
G01*
X26851Y35315D02*
G03*
X26446Y35315I-203J-241D01*
G01*
X26488Y34803D02*
G03*
X26810Y34803I161J271D01*
G01*
X26559Y32838D02*
G03*
X26378Y32913I-181J-181D01*
G01*
X26559Y32838D02*
G03*
X26378Y32913I-181J-181D01*
G01*
X25782Y31280D02*
G03*
X25782Y31280I-418J0D01*
G01*
X23121Y35315D02*
G03*
X22774Y34896I-296J-108D01*
G01*
X22791Y34878D02*
G03*
X22972Y34803I181J181D01*
G01*
X22791Y34878D02*
G03*
X22972Y34803I181J181D01*
G01*
X43531Y31109D02*
G03*
X43531Y31109I-630J0D01*
G01*
D02*
G03*
X43531Y31109I-630J0D01*
G01*
X43287Y45745D02*
Y46732D01*
X43346Y45747D02*
Y46732D01*
X42992Y46227D02*
Y46732D01*
X43051Y46089D02*
Y46732D01*
X43405Y45741D02*
Y46732D01*
X43464Y45727D02*
Y46732D01*
X43169Y45717D02*
Y46732D01*
X43228Y45735D02*
Y46732D01*
X42681Y46535D02*
X43819D01*
X42743Y46476D02*
X43819D01*
X42122Y46653D02*
X43819D01*
X42207Y46594D02*
X43819D01*
X42933Y46286D02*
Y46732D01*
X42706Y46514D02*
X42990Y46229D01*
X42815Y46405D02*
Y46732D01*
X42874Y46346D02*
Y46732D01*
X43051Y45945D02*
X43819D01*
X43051Y45886D02*
X43819D01*
X43051Y46063D02*
X43819D01*
X43051Y46004D02*
X43819D01*
X43051Y45827D02*
X43819D01*
X43051Y45768D02*
X43819D01*
X43051Y45709D02*
X43150D01*
X43516D02*
X43819D01*
X42920Y46299D02*
X43819D01*
X42979Y46240D02*
X43819D01*
X42802Y46417D02*
X43819D01*
X42861Y46358D02*
X43819D01*
X43026Y46181D02*
X43819D01*
X43047Y46122D02*
X43819D01*
X42579Y46574D02*
Y46732D01*
X42638Y46559D02*
Y46732D01*
X42461Y46575D02*
Y46732D01*
X42520Y46575D02*
Y46732D01*
X42756Y46464D02*
Y46732D01*
X42697Y46522D02*
Y46732D01*
X42165Y46629D02*
Y46732D01*
X42224Y46577D02*
Y46732D01*
X42047Y46677D02*
Y46732D01*
X42106Y46660D02*
Y46732D01*
X42401Y46575D02*
Y46732D01*
X42226Y46575D02*
X42559D01*
X42283D02*
Y46732D01*
X42342Y46575D02*
Y46732D01*
X42473Y46161D02*
X42638Y45997D01*
Y45707D02*
Y45997D01*
X42579Y45707D02*
Y46056D01*
X42638Y45707D02*
Y45997D01*
X42461Y45707D02*
Y46161D01*
X42520Y45707D02*
Y46115D01*
X42342Y45707D02*
Y46161D01*
X42401Y45707D02*
Y46161D01*
X42185Y46122D02*
X42513D01*
X42066Y46063D02*
X42572D01*
X42283Y45707D02*
Y46161D01*
X42226D02*
X42473D01*
X42224Y45707D02*
Y46160D01*
X42165Y45707D02*
Y46108D01*
X42106Y45707D02*
Y46076D01*
X43721Y45531D02*
X43819D01*
X43752Y45472D02*
X43819D01*
X43760Y45453D02*
Y46732D01*
X43773Y45413D02*
X43819D01*
X43776Y45177D02*
X43819D01*
X43757Y45118D02*
X43819D01*
X43786Y45354D02*
X43819D01*
X43787Y45236D02*
X43819D01*
X43642Y45627D02*
Y46732D01*
X43615Y45650D02*
X43819D01*
X43524Y45705D02*
Y46732D01*
X43583Y45672D02*
Y46732D01*
X43677Y45590D02*
X43819D01*
X43701Y45561D02*
Y46732D01*
X43629Y44941D02*
X43819D01*
X43541Y44882D02*
X43819D01*
X43728Y45059D02*
X43819D01*
X43687Y45000D02*
X43819D01*
X43461Y44527D02*
X43819D01*
X43498Y44468D02*
X43819D01*
X43513Y44409D02*
X43819D01*
X43514Y41673D02*
Y44390D01*
X43285Y44705D02*
X43819D01*
X43344Y44646D02*
X43819D01*
X43166Y44823D02*
X43819D01*
X43225Y44764D02*
X43819D01*
X43403Y44587D02*
X43819D01*
X43110Y45689D02*
Y46732D01*
X43084Y44906D02*
X43453Y44536D01*
X43051Y45650D02*
Y46083D01*
X42638Y41296D02*
Y44871D01*
X42520Y41178D02*
Y44871D01*
X42579Y41237D02*
Y44871D01*
X42401Y41060D02*
Y44871D01*
X42461Y41119D02*
Y44871D01*
X42283Y40942D02*
Y44871D01*
X42342Y41001D02*
Y44871D01*
X42165Y40915D02*
Y44871D01*
X42224Y40915D02*
Y44871D01*
X42047Y40915D02*
Y44871D01*
X42106Y40915D02*
Y44871D01*
X43287Y44702D02*
Y44834D01*
X43346Y44643D02*
Y44832D01*
X43169Y44820D02*
Y44862D01*
X43228Y44761D02*
Y44844D01*
X43464Y44524D02*
Y44851D01*
X43405Y44584D02*
Y44838D01*
X42933Y41591D02*
Y44472D01*
X42992Y41650D02*
Y44412D01*
X42699Y44706D02*
X43100Y44304D01*
X42874Y41532D02*
Y44531D01*
X42756Y41414D02*
Y44649D01*
X42815Y41473D02*
Y44590D01*
X42697Y41355D02*
Y44708D01*
X42047Y45707D02*
Y46059D01*
X41929Y46677D02*
Y46732D01*
X41988Y46683D02*
Y46732D01*
Y45707D02*
Y46053D01*
X41915Y45707D02*
X42638D01*
X41929D02*
Y46059D01*
X41915Y44871D02*
Y45707D01*
X40119Y46732D02*
X43819D01*
X40150Y46713D02*
X43819D01*
X40477Y46004D02*
X42631D01*
X40468Y45945D02*
X42638D01*
X40409Y45768D02*
X42638D01*
X40377Y45709D02*
X42638D01*
X40454Y45886D02*
X42638D01*
X40434Y45827D02*
X42638D01*
X40155Y45472D02*
X41915D01*
X40052Y45413D02*
X41915D01*
X40338Y45650D02*
X41915D01*
X40291Y45590D02*
X41915D01*
Y44871D02*
X42638D01*
X39866Y45354D02*
X41915D01*
X39285Y44882D02*
X41915D01*
X37613Y45177D02*
X41915D01*
X37613Y45118D02*
X41915D01*
X37613Y45295D02*
X41915D01*
X37613Y45236D02*
X41915D01*
X37613Y45000D02*
X41915D01*
X37613Y44941D02*
X41915D01*
X37613Y45059D02*
X41915D01*
X41811Y46628D02*
Y46732D01*
X41870Y46660D02*
Y46732D01*
X41693Y46477D02*
Y46732D01*
X41752Y46576D02*
Y46732D01*
X40689Y44862D02*
Y46732D01*
X40748Y44862D02*
Y46732D01*
X40512Y44862D02*
Y46732D01*
X40630Y44862D02*
Y46732D01*
X40335Y46537D02*
Y46732D01*
X40394Y46444D02*
Y46732D01*
X40216Y46662D02*
Y46732D01*
X40276Y46607D02*
Y46732D01*
X40453Y46299D02*
X41681D01*
X40467Y46240D02*
X41700D01*
X40453Y46299D02*
Y46732D01*
X40433Y46358D02*
X41673D01*
X40482Y46122D02*
X41792D01*
X40482Y46063D02*
X41910D01*
X40477Y46181D02*
X41735D01*
X40453Y44862D02*
Y45882D01*
X40227Y46653D02*
X41855D01*
X40287Y46594D02*
X41769D01*
X40336Y46535D02*
X41721D01*
X40375Y46476D02*
X41692D01*
X40407Y46417D02*
X41677D01*
X40231Y45531D02*
X41915D01*
X37613Y45354D02*
X39602D01*
X41398Y40915D02*
Y46732D01*
X41457Y40915D02*
Y46732D01*
X41279Y40915D02*
Y46732D01*
X41339Y40915D02*
Y46732D01*
X41634Y40915D02*
Y46732D01*
X41693Y40915D02*
Y46259D01*
X41516Y40915D02*
Y46732D01*
X41575Y40915D02*
Y46732D01*
X41161Y40915D02*
Y46732D01*
X41220Y40915D02*
Y46732D01*
X40807Y43380D02*
Y46732D01*
X41102Y40915D02*
Y46732D01*
X40984Y40915D02*
Y46732D01*
X41043Y40915D02*
Y46732D01*
X40866Y40913D02*
Y46732D01*
X40925Y40915D02*
Y46732D01*
X40797Y44823D02*
X42640D01*
X40797Y44764D02*
X42658D01*
X41929Y40915D02*
Y44871D01*
X40797Y43917D02*
Y44862D01*
X41870Y40915D02*
Y46076D01*
X41988Y40915D02*
Y44871D01*
X41752Y40915D02*
Y46160D01*
X41811Y40915D02*
Y46108D01*
X40797Y44587D02*
X42818D01*
X40797Y44527D02*
X42877D01*
X40797Y44705D02*
X42700D01*
X40797Y44646D02*
X42759D01*
X40797Y44468D02*
X42936D01*
X40797Y44409D02*
X42995D01*
X40216Y44862D02*
Y45519D01*
X40157Y44862D02*
Y45474D01*
X40098Y44862D02*
Y45437D01*
X40039Y44862D02*
Y45408D01*
X40571Y44862D02*
Y46732D01*
X40394Y44862D02*
Y45737D01*
X40335Y44862D02*
Y45644D01*
X40276Y44862D02*
Y45574D01*
X39980Y44862D02*
Y45384D01*
X39921Y44862D02*
Y45366D01*
X39508Y44749D02*
Y45378D01*
X39862Y44862D02*
Y45354D01*
X39803Y42716D02*
Y45346D01*
X39685Y42597D02*
Y45344D01*
X39567Y44678D02*
Y45361D01*
X39626Y44561D02*
Y45350D01*
X39852Y44862D02*
X40797D01*
X39649Y44468D02*
X39852D01*
X39655Y44409D02*
X39852D01*
X39744Y42657D02*
Y45343D01*
X39852Y43917D02*
Y44862D01*
X39547Y44705D02*
X39852D01*
X39587Y44646D02*
X39852D01*
X39417Y44823D02*
X39852D01*
X39493Y44764D02*
X39852D01*
X39616Y44587D02*
X39852D01*
X39637Y44527D02*
X39852D01*
X43514Y43642D02*
X43819D01*
X43514Y43583D02*
X43819D01*
X43514Y43760D02*
X43819D01*
X43514Y43701D02*
X43819D01*
X43514Y43405D02*
X43819D01*
X43514Y43346D02*
X43819D01*
X43514Y43524D02*
X43819D01*
X43514Y43464D02*
X43819D01*
X43514Y44114D02*
X43819D01*
X43514Y44055D02*
X43819D01*
X43514Y44350D02*
X43819D01*
X43514Y44232D02*
X43819D01*
X43514Y43878D02*
X43819D01*
X43514Y43819D02*
X43819D01*
X43514Y43996D02*
X43819D01*
X43514Y43937D02*
X43819D01*
X43514Y42579D02*
X43819D01*
X43514Y42520D02*
X43819D01*
X43514Y42697D02*
X43819D01*
X43514Y42638D02*
X43819D01*
X43514Y42342D02*
X43819D01*
X43514Y42283D02*
X43819D01*
X43514Y42461D02*
X43819D01*
X43514Y42401D02*
X43819D01*
X43514Y43169D02*
X43819D01*
X43514Y43110D02*
X43819D01*
X43514Y43287D02*
X43819D01*
X43514Y43228D02*
X43819D01*
X43514Y42815D02*
X43819D01*
X43514Y42756D02*
X43819D01*
X43514Y43051D02*
X43819D01*
X43514Y42992D02*
X43819D01*
X43514Y44291D02*
X43819D01*
X43514Y44173D02*
X43819D01*
X40797Y44350D02*
X43054D01*
X40797Y44291D02*
X43100D01*
X40797Y43405D02*
X43100D01*
X40818Y43346D02*
X43100D01*
X40797Y44173D02*
X43100D01*
X40797Y44114D02*
X43100D01*
X40797Y43996D02*
X43100D01*
X40797Y43937D02*
X43100D01*
X40797Y44232D02*
X43100D01*
X40797Y44055D02*
X43100D01*
X40728Y43524D02*
X43100D01*
X40768Y43464D02*
X43100D01*
X40689Y43568D02*
Y43917D01*
X40748Y43497D02*
Y43917D01*
X40835Y43169D02*
X43100D01*
X40827Y43110D02*
X43100D01*
X40831Y43287D02*
X43100D01*
X40836Y43228D02*
X43100D01*
X43514Y42933D02*
X43819D01*
X43514Y42874D02*
X43819D01*
X40812Y43051D02*
X43100D01*
X40789Y42992D02*
X43100D01*
X40756Y42933D02*
X43100D01*
X40712Y42874D02*
X43100D01*
X40679Y42815D02*
X43100D01*
X40679Y42756D02*
X43100D01*
X40677Y42697D02*
X43100D01*
X40679Y42736D02*
Y42839D01*
X43514Y42106D02*
X43819D01*
X43514Y42047D02*
X43819D01*
X43514Y42224D02*
X43819D01*
X43514Y42165D02*
X43819D01*
X43514Y41870D02*
X43819D01*
X43514Y41811D02*
X43819D01*
X43514Y41988D02*
X43819D01*
X43514Y41929D02*
X43819D01*
X43510Y41634D02*
X43819D01*
X43489Y41575D02*
X43819D01*
X43514Y41752D02*
X43819D01*
X43514Y41693D02*
X43819D01*
X43324Y41398D02*
X43819D01*
X43265Y41339D02*
X43819D01*
X43442Y41516D02*
X43819D01*
X43383Y41457D02*
X43819D01*
X43088Y41161D02*
X43819D01*
X43028Y41102D02*
X43819D01*
X43206Y41279D02*
X43819D01*
X43147Y41220D02*
X43819D01*
X43196Y40453D02*
X43819D01*
X43213Y40394D02*
X43819D01*
X43112Y40571D02*
X43819D01*
X43164Y40512D02*
X43819D01*
X42851Y40925D02*
X43819D01*
X42792Y40866D02*
X43819D01*
X42969Y41043D02*
X43819D01*
X42910Y40984D02*
X43819D01*
X42674Y40748D02*
X43819D01*
X43013Y40630D02*
X43819D01*
X42733Y40807D02*
X43819D01*
X43051Y41710D02*
Y44353D01*
X43100Y41759D02*
Y44304D01*
X43169Y40504D02*
Y41243D01*
X43110Y40572D02*
Y41184D01*
X43051Y40613D02*
Y41125D01*
X42992Y40637D02*
Y41066D01*
X42257Y40915D02*
X43100Y41759D01*
X40807Y40895D02*
Y43037D01*
X40748Y40853D02*
Y42921D01*
X42517Y40591D02*
X43453Y41527D01*
X42933Y40648D02*
Y41007D01*
X40689Y40794D02*
Y42849D01*
X42874Y40648D02*
Y40948D01*
X42815Y40637D02*
Y40889D01*
X42756Y40613D02*
Y40830D01*
X42697Y40591D02*
Y40771D01*
X43195Y40216D02*
X43819D01*
X43164Y40157D02*
X43819D01*
X43218Y40335D02*
X43819D01*
X43213Y40276D02*
X43819D01*
X42615Y40689D02*
X43819D01*
X42556Y40630D02*
X42794D01*
X40896Y40915D02*
X42257D01*
X42638Y40591D02*
Y40712D01*
X42517Y40591D02*
X42720D01*
X42579D02*
Y40652D01*
X40335Y43720D02*
Y43917D01*
X40394Y43716D02*
Y43917D01*
X40216Y43709D02*
Y43917D01*
X40276Y43718D02*
Y43917D01*
X40571Y43657D02*
Y43917D01*
X40630Y43620D02*
Y43917D01*
X40453Y43704D02*
Y43917D01*
X40512Y43685D02*
Y43917D01*
X37027Y43878D02*
X43100D01*
X37086Y43819D02*
X43100D01*
X40157Y43692D02*
Y43917D01*
X39852D02*
X40797D01*
X40039Y43633D02*
Y43917D01*
X40098Y43668D02*
Y43917D01*
X39921Y43523D02*
Y43917D01*
X39980Y43587D02*
Y43917D01*
X40466Y43701D02*
X43100D01*
X40598Y43642D02*
X43100D01*
X40674Y43583D02*
X43100D01*
X40642Y42579D02*
X43100D01*
X40605Y42520D02*
X43100D01*
X39921Y42834D02*
Y42894D01*
X40665Y42638D02*
X43100D01*
X37145Y43760D02*
X43100D01*
X39285Y43701D02*
X40184D01*
X39417Y43642D02*
X40052D01*
X39493Y43583D02*
X39975D01*
X39531Y42874D02*
X39938D01*
X39637Y42549D02*
X39949Y42861D01*
X39547Y43524D02*
X39921D01*
X39631Y44232D02*
X39852D01*
X39862Y43427D02*
Y43917D01*
X39654Y44350D02*
X39852D01*
X39646Y44291D02*
X39852D01*
X39616Y43405D02*
X39852D01*
X39637Y43346D02*
X39832D01*
X39626Y43380D02*
Y44218D01*
X39649Y43287D02*
X39819D01*
X39531Y44055D02*
X39852D01*
X39471Y43996D02*
X39852D01*
X39607Y44173D02*
X39852D01*
X39575Y44114D02*
X39852D01*
X39382Y43937D02*
X39852D01*
X39587Y43464D02*
X39882D01*
X39567Y43497D02*
Y44102D01*
X39646Y43110D02*
X39823D01*
X39631Y43051D02*
X39838D01*
X39655Y43228D02*
X39813D01*
X39654Y43169D02*
X39815D01*
X39862Y42775D02*
Y42990D01*
X39575Y42933D02*
X39894D01*
X39626Y42549D02*
Y43037D01*
X39607Y42992D02*
X39861D01*
X39471Y42815D02*
X39902D01*
X39382Y42756D02*
X39843D01*
X38208Y42697D02*
X39784D01*
X38267Y42638D02*
X39725D01*
X38326Y42579D02*
X39666D01*
X38355Y42549D02*
X39637D01*
X39567D02*
Y42921D01*
X40491Y42401D02*
X43100D01*
X40432Y42342D02*
X43100D01*
X40550Y42461D02*
X43100D01*
X40255Y42165D02*
X43100D01*
X40196Y42106D02*
X43100D01*
X40373Y42283D02*
X43100D01*
X40314Y42224D02*
X43100D01*
X40018Y41929D02*
X43100D01*
X39925Y41870D02*
X43100D01*
X40137Y42047D02*
X43100D01*
X40078Y41988D02*
X43100D01*
X37970Y41811D02*
X43100D01*
X38029Y41752D02*
X43093D01*
X38088Y41693D02*
X43034D01*
X38147Y41634D02*
X42975D01*
X38209Y41457D02*
X42798D01*
X38209Y41398D02*
X42739D01*
X38209Y41339D02*
X42680D01*
X38209Y41279D02*
X42621D01*
X38209Y41220D02*
X42562D01*
X38209Y41161D02*
X42503D01*
X38209Y40925D02*
X42267D01*
X40288Y40394D02*
X40749Y40855D01*
X38189Y41575D02*
X42916D01*
X38207Y41516D02*
X42857D01*
X38209Y41102D02*
X42444D01*
X38209Y41043D02*
X42385D01*
X38209Y40984D02*
X42326D01*
X38209Y40866D02*
X40762D01*
X38209Y40807D02*
X40702D01*
X40630Y40735D02*
Y42556D01*
X40571Y40676D02*
Y42481D01*
X40512Y40617D02*
Y42422D01*
X40453Y40558D02*
Y42363D01*
X40394Y40499D02*
Y42304D01*
X40335Y40440D02*
Y42245D01*
X40276Y40394D02*
Y42186D01*
X40034Y41945D02*
X40575Y42485D01*
X40157Y40394D02*
Y42068D01*
X40216Y40394D02*
Y42127D01*
X40098Y40394D02*
Y42009D01*
X40039Y40394D02*
Y41950D01*
X39980Y40394D02*
Y41900D01*
X39685Y40394D02*
Y41841D01*
X38898Y40394D02*
X40288D01*
X39567D02*
Y41841D01*
X39626Y40394D02*
Y41841D01*
X39921Y40394D02*
Y41868D01*
X39862Y40394D02*
Y41849D01*
X39803Y40394D02*
Y41841D01*
X39744Y40394D02*
Y41841D01*
X38209Y40748D02*
X40643D01*
X38209Y40689D02*
X40584D01*
X38209Y41841D02*
X39783D01*
X38209Y40630D02*
X40525D01*
X38209Y40571D02*
X40465D01*
X38209Y40512D02*
X40406D01*
X38209Y40453D02*
X40347D01*
X39213Y46627D02*
Y46732D01*
X39272Y46678D02*
Y46732D01*
X39094Y46478D02*
Y46732D01*
X39153Y46562D02*
Y46732D01*
X37559Y45704D02*
Y46732D01*
X39035Y46357D02*
Y46732D01*
X37441Y45704D02*
Y46732D01*
X37500Y45704D02*
Y46732D01*
X36909Y45704D02*
Y46732D01*
X36968Y45704D02*
Y46732D01*
X36791Y45704D02*
Y46732D01*
X36850Y45704D02*
Y46732D01*
X37323Y45704D02*
Y46732D01*
X37382Y45704D02*
Y46732D01*
X37027Y45704D02*
Y46732D01*
X37264Y45704D02*
Y46732D01*
X37613Y45650D02*
X39130D01*
X37613Y45590D02*
X39178D01*
X37146Y45704D02*
Y46732D01*
X37205Y45704D02*
Y46732D01*
X37613Y45472D02*
X39313D01*
X37613Y45413D02*
X39417D01*
X37613Y45531D02*
X39237D01*
X36369Y45709D02*
X39091D01*
X36777Y45704D02*
X37613D01*
X37087D02*
Y46732D01*
X36472Y45650D02*
X36777D01*
X36634Y45413D02*
X36777D01*
X36647Y45354D02*
X36777D01*
X36319Y45726D02*
Y46732D01*
X36378Y45705D02*
Y46732D01*
X36201Y45743D02*
Y46732D01*
X36260Y45738D02*
Y46732D01*
X36555Y45568D02*
Y46732D01*
X36614Y45469D02*
Y46732D01*
X36437Y45674D02*
Y46732D01*
X36496Y45630D02*
Y46732D01*
X36083Y45729D02*
Y46732D01*
X36142Y45740D02*
Y46732D01*
X35965Y45681D02*
Y46732D01*
X36024Y45710D02*
Y46732D01*
X35669Y45235D02*
Y46732D01*
X35728Y45176D02*
Y46732D01*
X35492Y45413D02*
Y46732D01*
X35610Y45294D02*
Y46732D01*
X36581Y45531D02*
X36777D01*
X36612Y45472D02*
X36777D01*
X35905Y45640D02*
Y46732D01*
X36536Y45590D02*
X36777D01*
X36639Y45177D02*
X36777D01*
X36621Y45118D02*
X36777D01*
X36652Y45295D02*
X36777D01*
X36650Y45236D02*
X36777D01*
X35787Y45493D02*
Y46732D01*
X35846Y45582D02*
Y46732D01*
X35551Y45354D02*
Y46732D01*
X35550Y45354D02*
X35743D01*
X35669Y45236D02*
X35740D01*
X35609Y45295D02*
X35738D01*
X38917Y44849D02*
Y46732D01*
X38976Y44873D02*
Y46732D01*
X38799Y44768D02*
Y46732D01*
X38858Y44815D02*
Y46732D01*
X38681Y44609D02*
Y46732D01*
X38740Y44704D02*
Y46732D01*
X38563Y42549D02*
Y46732D01*
X38622Y42549D02*
Y46732D01*
X37854Y43050D02*
Y46732D01*
X37913Y42991D02*
Y46732D01*
X37736Y43169D02*
Y46732D01*
X37795Y43109D02*
Y46732D01*
X38445Y42549D02*
Y46732D01*
X38504Y42549D02*
Y46732D01*
X37972Y42932D02*
Y46732D01*
X38386Y42549D02*
Y46732D01*
X39153Y44901D02*
Y45619D01*
X39213Y44897D02*
Y45554D01*
X39035Y44890D02*
Y45824D01*
X39094Y44899D02*
Y45703D01*
X39390Y44839D02*
Y45427D01*
X39449Y44801D02*
Y45399D01*
X39272Y44885D02*
Y45503D01*
X39331Y44866D02*
Y45461D01*
X38150Y42755D02*
Y46732D01*
X37613Y44882D02*
X39003D01*
X38031Y42873D02*
Y46732D01*
X38090Y42814D02*
Y46732D01*
X38268Y42637D02*
Y46732D01*
X38327Y42578D02*
Y46732D01*
X38209Y42696D02*
Y46732D01*
X37613Y44867D02*
Y45704D01*
X36777Y44867D02*
Y45704D01*
X36614Y44291D02*
Y45102D01*
X37618Y43287D02*
Y46732D01*
X37677Y43228D02*
Y46732D01*
X36673Y44231D02*
Y46732D01*
X36732Y44172D02*
Y46732D01*
X36496Y44941D02*
X36777D01*
X36410Y44882D02*
X36777D01*
X36592Y45059D02*
X36777D01*
X36552Y45000D02*
X36777D01*
X36555Y44350D02*
Y45003D01*
X36496Y44409D02*
Y44941D01*
X36437Y44468D02*
Y44897D01*
X37264Y43641D02*
Y44867D01*
X37323Y43582D02*
Y44867D01*
X37146Y43759D02*
Y44867D01*
X37205Y43700D02*
Y44867D01*
X37500Y43405D02*
Y44867D01*
X37559Y43346D02*
Y44867D01*
X37382Y43523D02*
Y44867D01*
X37441Y43464D02*
Y44867D01*
X36909Y43995D02*
Y44867D01*
X36777D02*
X37613D01*
X36791Y44113D02*
Y44867D01*
X36850Y44054D02*
Y44867D01*
X37027Y43877D02*
Y44867D01*
X37087Y43818D02*
Y44867D01*
X36968Y43936D02*
Y44867D01*
X34134Y46686D02*
Y46732D01*
X34193Y46669D02*
Y46732D01*
X34016Y46693D02*
Y46732D01*
X34075Y46693D02*
Y46732D01*
X34370Y46535D02*
Y46732D01*
X34429Y46476D02*
Y46732D01*
X34252Y46640D02*
Y46732D01*
X34311Y46594D02*
Y46732D01*
X33307Y46693D02*
Y46732D01*
X33720Y46693D02*
Y46732D01*
X33189Y46693D02*
Y46732D01*
X33248Y46693D02*
Y46732D01*
X33898Y46693D02*
Y46732D01*
X33957Y46693D02*
Y46732D01*
X33779Y46693D02*
Y46732D01*
X33839Y46693D02*
Y46732D01*
X34227Y46653D02*
X39242D01*
X34310Y46594D02*
X39181D01*
X33602Y46693D02*
Y46732D01*
X33661Y46693D02*
Y46732D01*
X34369Y46535D02*
X39133D01*
X34428Y46476D02*
X39093D01*
X33130Y46693D02*
Y46732D01*
X33366Y46693D02*
Y46732D01*
X33012Y46693D02*
Y46732D01*
X33071Y46693D02*
Y46732D01*
X33484Y46693D02*
Y46732D01*
X33543Y46693D02*
Y46732D01*
X33425Y46693D02*
Y46732D01*
X31772Y46693D02*
Y46732D01*
X31831Y46693D02*
Y46732D01*
X31653Y46693D02*
Y46732D01*
X31713Y46693D02*
Y46732D01*
X32008Y46693D02*
Y46732D01*
X32067Y46693D02*
Y46732D01*
X31890Y46693D02*
Y46732D01*
X31949Y46693D02*
Y46732D01*
X31299Y46693D02*
Y46732D01*
X31358Y46693D02*
Y46732D01*
X31181Y46693D02*
Y46732D01*
X31240Y46693D02*
Y46732D01*
X31535Y46693D02*
Y46732D01*
X31594Y46693D02*
Y46732D01*
X31417Y46693D02*
Y46732D01*
X31476Y46693D02*
Y46732D01*
X32657Y46693D02*
Y46732D01*
X32716Y46693D02*
Y46732D01*
X32539Y46693D02*
Y46732D01*
X32598Y46693D02*
Y46732D01*
X32894Y46693D02*
Y46732D01*
X32953Y46693D02*
Y46732D01*
X32776Y46693D02*
Y46732D01*
X32835Y46693D02*
Y46732D01*
X32244Y46693D02*
Y46732D01*
X32303Y46693D02*
Y46732D01*
X32126Y46693D02*
Y46732D01*
X32185Y46693D02*
Y46732D01*
X32421Y46693D02*
Y46732D01*
X32480Y46693D02*
Y46732D01*
X32362Y46693D02*
Y46732D01*
X35138Y45767D02*
Y46732D01*
X35197Y45708D02*
Y46732D01*
X35020Y45885D02*
Y46732D01*
X35079Y45826D02*
Y46732D01*
X35374Y45531D02*
Y46732D01*
X35433Y45472D02*
Y46732D01*
X35256Y45649D02*
Y46732D01*
X35315Y45590D02*
Y46732D01*
X34487Y46417D02*
X39061D01*
X34546Y46358D02*
X39036D01*
X34606Y46299D02*
X39016D01*
X34665Y46240D02*
X39001D01*
X34316Y46589D02*
X35759Y45145D01*
X34724Y46181D02*
X38992D01*
X34902Y46003D02*
Y46732D01*
X34961Y45944D02*
Y46732D01*
X35078Y45827D02*
X39034D01*
X35137Y45768D02*
X39060D01*
X35196Y45709D02*
X36021D01*
X35255Y45650D02*
X35918D01*
X35314Y45590D02*
X35854D01*
X35373Y45531D02*
X35809D01*
X35432Y45472D02*
X35777D01*
X35491Y45413D02*
X35756D01*
X34901Y46004D02*
X38991D01*
X34960Y45945D02*
X39001D01*
X34783Y46122D02*
X38987D01*
X34842Y46063D02*
X38987D01*
X33918Y45984D02*
X35720Y44183D01*
X35019Y45886D02*
X39015D01*
X35020Y40108D02*
Y44883D01*
X34606Y46298D02*
Y46732D01*
X34665Y46239D02*
Y46732D01*
X34488Y46417D02*
Y46732D01*
X34547Y46357D02*
Y46732D01*
X34783Y46121D02*
Y46732D01*
X34842Y46062D02*
Y46732D01*
X34724Y46180D02*
Y46732D01*
X33484Y40108D02*
Y45984D01*
X31476Y41154D02*
Y45984D01*
X31535Y41144D02*
Y45984D01*
X31358Y41142D02*
Y45984D01*
X31417Y41154D02*
Y45984D01*
X33366Y40108D02*
Y45984D01*
X33425Y40108D02*
Y45984D01*
X33130Y40108D02*
Y45984D01*
X33307Y40108D02*
Y45984D01*
X34193Y40108D02*
Y45710D01*
X34311Y40108D02*
Y45591D01*
X33957Y40108D02*
Y45946D01*
X34016Y40108D02*
Y45887D01*
X34724Y40108D02*
Y45178D01*
X34783Y40108D02*
Y45119D01*
X34606Y40108D02*
Y45296D01*
X34665Y40108D02*
Y45237D01*
X31299Y41117D02*
Y45984D01*
X31594Y41121D02*
Y45984D01*
X31181Y41096D02*
Y45984D01*
X31240Y41096D02*
Y45984D01*
X31713Y41016D02*
Y45984D01*
X32716Y40108D02*
Y45984D01*
X31653Y41082D02*
Y45984D01*
X39272Y43704D02*
Y43894D01*
X39213Y43716D02*
Y43883D01*
X39094Y43718D02*
Y43880D01*
X39153Y43720D02*
Y43878D01*
X39508Y43568D02*
Y44030D01*
X39449Y43620D02*
Y43979D01*
X39390Y43657D02*
Y43941D01*
X39331Y43685D02*
Y43913D01*
X38976Y43692D02*
Y43906D01*
X39035Y43709D02*
Y43890D01*
X38858Y43633D02*
Y43965D01*
X38917Y43668D02*
Y43931D01*
X38799Y43587D02*
Y44011D01*
X37322Y43583D02*
X38794D01*
X38740Y43523D02*
Y44075D01*
X37381Y43524D02*
X38740D01*
X39272Y42549D02*
Y42713D01*
X39213Y42549D02*
Y42702D01*
X39094Y42549D02*
Y42699D01*
X39153Y42549D02*
Y42697D01*
X39508Y42549D02*
Y42849D01*
X39449Y42549D02*
Y42798D01*
X39390Y42549D02*
Y42760D01*
X39331Y42549D02*
Y42732D01*
X38090Y42815D02*
X38817D01*
X38149Y42756D02*
X38905D01*
X38031Y42874D02*
X38757D01*
X38799Y42549D02*
Y42830D01*
X38976Y42549D02*
Y42725D01*
X39035Y42549D02*
Y42708D01*
X38858Y42549D02*
Y42784D01*
X38917Y42549D02*
Y42750D01*
X38681Y43427D02*
Y44171D01*
X37854Y43051D02*
X38657D01*
X37735Y43169D02*
X38633D01*
X37794Y43110D02*
X38641D01*
X37972Y42933D02*
X38712D01*
X38740Y42549D02*
Y42894D01*
X37913Y42992D02*
X38680D01*
X38681Y42549D02*
Y42990D01*
X37440Y43464D02*
X38700D01*
X37499Y43405D02*
X38671D01*
X37558Y43346D02*
X38651D01*
X37617Y43287D02*
X38638D01*
X37676Y43228D02*
X38632D01*
X37382Y42399D02*
Y42521D01*
X37264Y42517D02*
Y42639D01*
X37323Y42458D02*
Y42580D01*
X37615Y42165D02*
X37737D01*
X37674Y42106D02*
X37796D01*
X37559Y42222D02*
Y42343D01*
X37618Y42162D02*
Y42284D01*
X37733Y42047D02*
X37855D01*
X37792Y41988D02*
X37914D01*
X37677Y42103D02*
Y42225D01*
X37736Y42044D02*
Y42166D01*
X37379Y42401D02*
X37501D01*
X37438Y42342D02*
X37560D01*
X37441Y42340D02*
Y42462D01*
X37320Y42461D02*
X37442D01*
X37497Y42283D02*
X37619D01*
X37556Y42224D02*
X37678D01*
X37500Y42281D02*
Y42403D01*
X39213Y40394D02*
Y41841D01*
X39272Y40394D02*
Y41841D01*
X39094Y40394D02*
Y41841D01*
X39153Y40394D02*
Y41841D01*
X39449Y40394D02*
Y41841D01*
X39508Y40394D02*
Y41841D01*
X39331Y40394D02*
Y41841D01*
X39390Y40394D02*
Y41841D01*
X38090Y41690D02*
Y41861D01*
X38150Y41631D02*
Y41846D01*
X38976Y40394D02*
Y41841D01*
X39035Y40394D02*
Y41841D01*
X38858Y40390D02*
Y41841D01*
X38917Y40394D02*
Y41841D01*
X38740Y40322D02*
Y41841D01*
X38799Y40369D02*
Y41841D01*
X38622Y40204D02*
Y41841D01*
X38681Y40263D02*
Y41841D01*
X38563Y40145D02*
Y41841D01*
X38209Y40157D02*
X38576D01*
X38209Y40394D02*
X38892D01*
X38209Y41492D02*
Y41841D01*
X38209Y40335D02*
X38753D01*
X38209Y40276D02*
X38694D01*
X38209Y40216D02*
X38635D01*
X37851Y41929D02*
X37974D01*
X37910Y41870D02*
X38067D01*
X37795Y41985D02*
Y42107D01*
X37854Y41926D02*
Y42048D01*
X37972Y41808D02*
Y41931D01*
X38031Y41749D02*
Y41888D01*
X37913Y41867D02*
Y41989D01*
X37738Y41279D02*
X37795D01*
X37669Y41220D02*
X37795D01*
X37323Y41747D02*
Y41873D01*
X37382Y41778D02*
Y41814D01*
X37467Y41161D02*
X37795D01*
X37411Y41102D02*
X37795D01*
X37411Y41105D02*
X37478Y41172D01*
X37411Y41043D02*
X37795D01*
X37411Y40453D02*
X37795D01*
X37411Y40394D02*
X37795D01*
X37411Y40571D02*
X37795D01*
X37411Y40512D02*
X37795D01*
X37411Y40216D02*
X37795D01*
X37411Y40157D02*
X37795D01*
X37411Y40335D02*
X37795D01*
X37411Y40276D02*
X37795D01*
X37411Y40866D02*
X37795D01*
X37411Y40807D02*
X37795D01*
X37411Y40984D02*
X37795D01*
X37411Y40925D02*
X37795D01*
X37411Y40689D02*
X37795D01*
X37411Y40630D02*
X37795D01*
X37411Y40748D02*
X37795D01*
X36672Y44232D02*
X38657D01*
X36732Y44173D02*
X38680D01*
X36554Y44350D02*
X38633D01*
X36613Y44291D02*
X38641D01*
X36909Y43996D02*
X38817D01*
X36968Y43937D02*
X38905D01*
X36791Y44114D02*
X38712D01*
X36850Y44055D02*
X38757D01*
X36082Y44823D02*
X38871D01*
X36141Y44764D02*
X38794D01*
X36200Y44705D02*
X38740D01*
X36259Y44646D02*
X38700D01*
X36318Y44587D02*
X38671D01*
X36377Y44527D02*
X38651D01*
X36436Y44468D02*
X38638D01*
X36495Y44409D02*
X38632D01*
X37204Y43701D02*
X39003D01*
X37263Y43642D02*
X38871D01*
X36732Y43048D02*
Y43170D01*
X36788Y42992D02*
X36910D01*
X36848Y42933D02*
X36969D01*
X36907Y42874D02*
X37029D01*
X36791Y42989D02*
Y43111D01*
X36850Y42930D02*
Y43052D01*
X36552Y43228D02*
X36674D01*
X36611Y43169D02*
X36733D01*
X36614Y43166D02*
Y43288D01*
X36493Y43287D02*
X36615D01*
X36670Y43110D02*
X36792D01*
X36729Y43051D02*
X36851D01*
X36673Y43107D02*
Y43229D01*
X36319Y44586D02*
Y44845D01*
X36260Y44645D02*
Y44833D01*
X36142Y44763D02*
Y44831D01*
X36201Y44704D02*
Y44828D01*
X36378Y44527D02*
Y44866D01*
X36142Y43639D02*
Y43761D01*
X36024Y43757D02*
Y43861D01*
X36083Y43698D02*
Y43820D01*
X35610Y44167D02*
Y44292D01*
X35669Y44181D02*
Y44233D01*
X35492Y44097D02*
Y44410D01*
X35551Y44141D02*
Y44351D01*
X36020Y43819D02*
X36084D01*
X35433Y44020D02*
Y44469D01*
X36316Y43464D02*
X36438D01*
X36375Y43405D02*
X36497D01*
X36319Y43462D02*
Y43584D01*
X36378Y43403D02*
Y43525D01*
X36555Y43225D02*
Y43347D01*
X36434Y43346D02*
X36556D01*
X36437Y43344D02*
Y43466D01*
X36496Y43285D02*
Y43406D01*
X36139Y43642D02*
X36261D01*
X36198Y43583D02*
X36320D01*
X36021Y43760D02*
X36143D01*
X36080Y43701D02*
X36202D01*
X36260Y43521D02*
Y43643D01*
X36257Y43524D02*
X36379D01*
X36201Y43580D02*
Y43702D01*
X37084Y42697D02*
X37206D01*
X37143Y42638D02*
X37265D01*
X37027Y42753D02*
Y42875D01*
X37087Y42694D02*
Y42816D01*
X37202Y42579D02*
X37324D01*
X37261Y42520D02*
X37383D01*
X37146Y42635D02*
Y42757D01*
X37205Y42576D02*
Y42698D01*
X36055Y44850D02*
X38355Y42549D01*
X36023Y43879D02*
X37958Y41945D01*
X36966Y42815D02*
X37088D01*
X37025Y42756D02*
X37147D01*
X36009Y43772D02*
X38148Y41633D01*
X35634Y43562D02*
X37408Y41788D01*
X36968Y41651D02*
Y42227D01*
X37027Y41451D02*
Y42168D01*
X37264Y41694D02*
Y41932D01*
X37205Y41596D02*
Y41991D01*
X37022Y41457D02*
X37178D01*
X37146Y41424D02*
Y42050D01*
X37100Y41378D02*
X37186Y41464D01*
X37087Y41392D02*
Y42109D01*
X37081Y41398D02*
X37119D01*
X36869Y41752D02*
X37331D01*
X36938Y41693D02*
X37262D01*
X36978Y41634D02*
X37222D01*
X37002Y41575D02*
X37198D01*
X37014Y41516D02*
X37186D01*
X37014Y41464D02*
X37095Y41384D01*
X36909Y42871D02*
Y42993D01*
X36968Y42812D02*
Y42934D01*
X36673Y41800D02*
Y42523D01*
X36732Y41800D02*
Y42464D01*
X36555Y41766D02*
Y42641D01*
X36614Y41789D02*
Y42582D01*
X36437Y41659D02*
Y42759D01*
X36496Y41726D02*
Y42700D01*
X35728Y40108D02*
Y43468D01*
X35787Y40108D02*
Y43409D01*
X35610Y40108D02*
Y43569D01*
X35669Y40108D02*
Y43527D01*
X35965Y40108D02*
Y43231D01*
X36024Y40108D02*
Y43172D01*
X35846Y40108D02*
Y43349D01*
X35905Y40108D02*
Y43290D01*
X36850Y41763D02*
Y42346D01*
X36909Y41722D02*
Y42287D01*
X36791Y41788D02*
Y42405D01*
X31731Y40984D02*
X36742D01*
X31764Y40807D02*
X36742D01*
X31752Y40748D02*
X36742D01*
X31754Y40925D02*
X36742D01*
X31765Y40866D02*
X36742D01*
X31626Y41102D02*
X36742D01*
X31692Y41043D02*
X36742D01*
X31727Y40689D02*
X36742D01*
X31685Y40630D02*
X36742D01*
X31613Y40571D02*
X36742D01*
X43112Y40098D02*
X43819D01*
X43013Y40039D02*
X43819D01*
X42520Y38316D02*
Y40079D01*
X42697Y38240D02*
Y40079D01*
X42756Y38171D02*
Y40056D01*
X42579Y38304D02*
Y40079D01*
X42638Y38280D02*
Y40079D01*
X41179Y39980D02*
X43819D01*
X41120Y39921D02*
X43819D01*
X41277Y40079D02*
X42720D01*
X41238Y40039D02*
X42794D01*
X42461Y38316D02*
Y40079D01*
X41061Y39862D02*
X43819D01*
X42342Y38280D02*
Y40079D01*
X42401Y38304D02*
Y40079D01*
X42792Y38090D02*
X43819D01*
X42804Y38031D02*
X43819D01*
X42728Y38209D02*
X43819D01*
X42768Y38150D02*
X43819D01*
X42768Y37854D02*
X43819D01*
X42728Y37795D02*
X43819D01*
X42804Y37972D02*
X43819D01*
X42792Y37913D02*
X43819D01*
X40879Y39685D02*
X43819D01*
X42659Y38268D02*
X43819D01*
X41002Y39803D02*
X43819D01*
X40943Y39744D02*
X43819D01*
X42659Y37736D02*
X43819D01*
X41378Y38258D02*
X42307D01*
X41484Y37746D02*
X42307D01*
X41988Y38258D02*
Y40079D01*
X42047Y38258D02*
Y40079D01*
X41870Y38258D02*
Y40079D01*
X41929Y38258D02*
Y40079D01*
X42224Y38258D02*
Y40079D01*
X42283Y38258D02*
Y40079D01*
X42106Y38258D02*
Y40079D01*
X42165Y38258D02*
Y40079D01*
X41516Y38258D02*
Y40079D01*
X41575Y38258D02*
Y40079D01*
X41398Y38258D02*
Y40079D01*
X41457Y38258D02*
Y40079D01*
X41752Y38258D02*
Y40079D01*
X41811Y38258D02*
Y40079D01*
X41634Y38258D02*
Y40079D01*
X41693Y38258D02*
Y40079D01*
X41339Y38255D02*
Y40079D01*
X41279Y38238D02*
Y40079D01*
X41220Y38204D02*
Y40022D01*
X41161Y38147D02*
Y39963D01*
X41102Y38088D02*
Y39904D01*
X41043Y38029D02*
Y39845D01*
X40910Y39711D02*
X41277Y40079D01*
X40984Y37970D02*
Y39786D01*
X40925Y37911D02*
Y39727D01*
X40866Y37852D02*
Y39676D01*
X40807Y37793D02*
Y39648D01*
X43642Y35413D02*
Y44952D01*
X43583Y35413D02*
Y44906D01*
X43524Y35413D02*
Y44874D01*
X43464Y35413D02*
Y41539D01*
X43819Y35413D02*
Y46732D01*
X43819Y35413D02*
Y46732D01*
X43760Y35413D02*
Y45125D01*
X43701Y35413D02*
Y45018D01*
X43169Y35413D02*
Y40165D01*
X43110Y35413D02*
Y40097D01*
X43051Y35413D02*
Y40056D01*
X42815Y35413D02*
Y40032D01*
X43405Y35413D02*
Y41479D01*
X43346Y35413D02*
Y41420D01*
X43287Y35413D02*
Y41361D01*
X43228Y35413D02*
Y41302D01*
X42697Y35413D02*
Y37764D01*
X42342Y35413D02*
Y37724D01*
X42638Y35413D02*
Y37724D01*
X42992Y35413D02*
Y40032D01*
X42933Y35413D02*
Y40021D01*
X42874Y35413D02*
Y40021D01*
X42756Y35413D02*
Y37833D01*
X42106Y35413D02*
Y37746D01*
X41474Y37736D02*
X42321D01*
X41988Y35413D02*
Y37746D01*
X42047Y35413D02*
Y37746D01*
X42224Y35413D02*
Y37746D01*
X42283Y35413D02*
Y37746D01*
X42165Y35413D02*
Y37746D01*
X40748Y37734D02*
Y39637D01*
X40689Y37675D02*
Y39636D01*
X40571Y37557D02*
Y39636D01*
X40630Y37616D02*
Y39636D01*
X40453Y37439D02*
Y39636D01*
X40512Y37498D02*
Y39636D01*
X40335Y37320D02*
Y39636D01*
X40394Y37380D02*
Y39636D01*
X40216Y37231D02*
Y39636D01*
X40276Y37261D02*
Y39636D01*
X39862Y35413D02*
Y39636D01*
X40098Y37167D02*
Y39636D01*
X39744Y35413D02*
Y39636D01*
X39803Y35413D02*
Y39636D01*
X39626Y35401D02*
Y39636D01*
X39685Y35413D02*
Y39636D01*
X41634Y35413D02*
Y37746D01*
X41693Y35413D02*
Y37746D01*
X41516Y35413D02*
Y37746D01*
X41575Y35413D02*
Y37746D01*
X41870Y35413D02*
Y37746D01*
X41929Y35413D02*
Y37746D01*
X41752Y35413D02*
Y37746D01*
X41811Y35413D02*
Y37746D01*
X40254Y37240D02*
X41197Y38183D01*
X40616Y36878D02*
X41484Y37746D01*
X40039Y37098D02*
Y39636D01*
X40157Y37207D02*
Y39636D01*
X39980Y35413D02*
Y39636D01*
X41457Y35413D02*
Y37719D01*
X39921Y35413D02*
Y39636D01*
X38445Y40026D02*
Y41841D01*
X38504Y40086D02*
Y41841D01*
X38327Y39908D02*
Y41841D01*
X38386Y39967D02*
Y41841D01*
X39161Y39636D02*
X40728D01*
X39151Y39626D02*
X43819D01*
X39124Y39599D02*
X39161Y39636D01*
X39153Y39474D02*
Y39628D01*
X38209Y40098D02*
X38517D01*
X38209Y40039D02*
X38458D01*
X38209Y39980D02*
X38399D01*
X38209Y39921D02*
X38340D01*
X38236Y39817D02*
X38751Y40333D01*
X38209Y39862D02*
X38280D01*
X38268Y39849D02*
Y41841D01*
X39164Y39449D02*
X43819D01*
X39179Y39390D02*
X43819D01*
X39124Y39567D02*
X43819D01*
X39135Y39508D02*
X43819D01*
X39175Y39272D02*
X43819D01*
X39156Y39213D02*
X43819D01*
X39183Y39331D02*
X43819D01*
X39065Y39094D02*
X43819D01*
X38946Y39035D02*
X43819D01*
X39124Y39524D02*
Y39599D01*
X39121Y39153D02*
X43819D01*
X38617Y38976D02*
X43819D01*
X38648Y39035D02*
X38790D01*
X37795Y39844D02*
Y41377D01*
X37411Y39921D02*
X37795D01*
X37411Y40098D02*
X37795D01*
X37411Y40039D02*
X37795D01*
X38209Y39844D02*
Y41486D01*
X37795Y39844D02*
Y41376D01*
X37736Y39775D02*
Y41278D01*
X36097Y40098D02*
X36742D01*
X37411Y39980D02*
X37795D01*
X36188Y40039D02*
X36742D01*
X36247Y39980D02*
X36742D01*
X37411Y39862D02*
X37795D01*
X37411Y39803D02*
X37756D01*
X36365Y39862D02*
X36742D01*
X36422Y39803D02*
X36742D01*
X37411Y39272D02*
X38064D01*
X37411Y39213D02*
X38047D01*
X37411Y39390D02*
X37773D01*
X37411Y39331D02*
X37850D01*
X37411Y39035D02*
X38064D01*
X37411Y38976D02*
X38096D01*
X37411Y39153D02*
X38041D01*
X37411Y39094D02*
X38047D01*
X37411Y39744D02*
X37719D01*
X37411Y39685D02*
X37697D01*
X37411Y39626D02*
X37688D01*
X37411Y39508D02*
X37703D01*
X37411Y39449D02*
X37729D01*
X37411Y39567D02*
X37689D01*
X39508Y35308D02*
Y39636D01*
X39567Y35366D02*
Y39636D01*
X39390Y35190D02*
Y39636D01*
X39449Y35249D02*
Y39636D01*
X39272Y35072D02*
Y39636D01*
X39331Y35131D02*
Y39636D01*
X39213Y35013D02*
Y39636D01*
X39153Y34954D02*
Y39207D01*
X37411Y38799D02*
X43819D01*
X37411Y38740D02*
X43819D01*
X38565Y38917D02*
X43819D01*
X38466Y38858D02*
X43819D01*
X37411Y38681D02*
X43819D01*
X37411Y38622D02*
X43819D01*
X39094Y34895D02*
Y39121D01*
X39035Y34836D02*
Y39074D01*
X37411Y38150D02*
X41164D01*
X37411Y38090D02*
X41105D01*
X37411Y38031D02*
X41045D01*
X37411Y37972D02*
X40986D01*
X37411Y37913D02*
X40927D01*
X37411Y37854D02*
X40868D01*
X37411Y37795D02*
X40809D01*
X37411Y37736D02*
X40750D01*
X37411Y38445D02*
X43819D01*
X37411Y38386D02*
X43819D01*
X37411Y38563D02*
X43819D01*
X37411Y38504D02*
X43819D01*
X37411Y38327D02*
X43819D01*
X37411Y38268D02*
X42321D01*
X37411Y38209D02*
X41227D01*
X38740Y34540D02*
Y39053D01*
X38976Y34776D02*
Y39045D01*
X38681Y34481D02*
Y39087D01*
X37972Y30197D02*
Y39293D01*
X38031Y30197D02*
Y39293D01*
X37854Y30197D02*
Y39328D01*
X37913Y30197D02*
Y39304D01*
X37559Y30197D02*
Y41177D01*
X37500Y30197D02*
Y41171D01*
X37441Y30197D02*
Y41135D01*
X37411Y36381D02*
Y41105D01*
X37736Y30197D02*
Y39437D01*
X37795Y30197D02*
Y39369D01*
X37677Y30197D02*
Y41226D01*
X37618Y30197D02*
Y41194D01*
X38917Y34717D02*
Y39029D01*
X38858Y34658D02*
Y39026D01*
X38799Y34599D02*
Y39033D01*
X38622Y34422D02*
Y38984D01*
X38563Y34363D02*
Y38916D01*
X38504Y34304D02*
Y38875D01*
X38445Y34245D02*
Y38851D01*
X38386Y34179D02*
Y38840D01*
X38268Y30197D02*
Y38851D01*
X38327Y30197D02*
Y38840D01*
X37411Y38917D02*
X38148D01*
X37411Y38858D02*
X38247D01*
X38150Y30197D02*
Y38916D01*
X38209Y30197D02*
Y38875D01*
X38090Y30197D02*
Y38985D01*
X41415Y37677D02*
X43819D01*
X41356Y37618D02*
X43819D01*
X42579Y35413D02*
Y37700D01*
X42461Y35413D02*
Y37688D01*
X42401Y35413D02*
Y37700D01*
X42520Y35413D02*
Y37688D01*
X41398Y35413D02*
Y37660D01*
X41339Y35413D02*
Y37601D01*
X41179Y37441D02*
X43819D01*
X41120Y37382D02*
X43819D01*
X41297Y37559D02*
X43819D01*
X41238Y37500D02*
X43819D01*
X41061Y37323D02*
X43819D01*
X41002Y37264D02*
X43819D01*
X41279Y35413D02*
Y37542D01*
X41220Y35413D02*
Y37483D01*
X40824Y37087D02*
X43819D01*
X40765Y37027D02*
X43819D01*
X40943Y37205D02*
X43819D01*
X40883Y37146D02*
X43819D01*
X40706Y36968D02*
X43819D01*
X40647Y36909D02*
X43819D01*
X41161Y35413D02*
X42441D01*
X43819D01*
X40551Y36732D02*
X43819D01*
X40489Y36673D02*
X43819D01*
X40610Y36850D02*
X43819D01*
X40588Y36791D02*
X43819D01*
X37411Y36496D02*
X43819D01*
X37411Y36437D02*
X43819D01*
X37411Y36614D02*
X43819D01*
X37411Y36555D02*
X43819D01*
X40925Y35413D02*
Y37187D01*
X40866Y35413D02*
Y37128D01*
X40807Y35413D02*
Y37069D01*
X40748Y35413D02*
Y37010D01*
X41161Y35413D02*
Y37423D01*
X41102Y35413D02*
Y37364D01*
X41043Y35413D02*
Y37305D01*
X40984Y35413D02*
Y37246D01*
X40157Y35413D02*
Y36651D01*
X40039Y35413D02*
Y36760D01*
X40098Y35413D02*
Y36692D01*
X40689Y35413D02*
Y36951D01*
X40630Y35413D02*
Y36892D01*
X40571Y35413D02*
Y36760D01*
X40512Y35413D02*
Y36691D01*
X40453Y35413D02*
Y36651D01*
X40394Y35413D02*
Y36627D01*
X40276Y35413D02*
Y36616D01*
X40335Y35413D02*
Y36616D01*
X40216Y35413D02*
Y36627D01*
X39695Y35413D02*
X41161D01*
X38601Y34401D02*
X39556Y35356D01*
X38414Y34214D02*
X38601Y34401D01*
X38356Y33548D02*
Y34075D01*
X39238Y31358D02*
X39498D01*
X39270Y31299D02*
X39498D01*
X39213Y31393D02*
Y31720D01*
X39272Y31296D02*
Y31661D01*
X39449Y30197D02*
Y31484D01*
X39498Y30197D02*
Y31434D01*
X39331Y30197D02*
Y31602D01*
X39390Y30197D02*
Y31543D01*
X38990Y31535D02*
X39397D01*
X39122Y31476D02*
X39456D01*
X39035Y31521D02*
Y31897D01*
X39094Y31493D02*
Y31838D01*
X38689Y32243D02*
X39498Y31434D01*
X39192Y31417D02*
X39498D01*
X39153Y31453D02*
Y31779D01*
X39306Y31122D02*
X39498D01*
X39300Y31063D02*
X39498D01*
X39291Y31240D02*
X39498D01*
X39303Y31181D02*
X39498D01*
X39286Y31004D02*
X39498D01*
X39263Y30945D02*
X39498D01*
X39272Y30197D02*
Y30964D01*
X39227Y30886D02*
X39498D01*
X39176Y30827D02*
X39498D01*
X39097Y30768D02*
X39498D01*
X39035Y30197D02*
Y30739D01*
X39213Y30197D02*
Y30867D01*
X39153Y30197D02*
Y30807D01*
X39094Y30197D02*
Y30766D01*
X38740Y31521D02*
Y32192D01*
X38799Y31539D02*
Y32133D01*
X38430Y32866D02*
Y33394D01*
X38681Y31493D02*
Y32251D01*
X38563Y31393D02*
Y32369D01*
X38622Y31453D02*
Y32310D01*
X38445Y30197D02*
Y32487D01*
X38504Y31295D02*
Y32428D01*
X38386Y32815D02*
Y33444D01*
X38356Y32658D02*
Y32712D01*
X38414Y32518D02*
X38689Y32243D01*
X38386Y30197D02*
Y32554D01*
X38976Y31539D02*
Y31956D01*
X38858Y31547D02*
Y32074D01*
X38917Y31547D02*
Y32015D01*
X38976Y30197D02*
Y30721D01*
X38858Y30197D02*
Y30713D01*
X38917Y30197D02*
Y30713D01*
X38622Y30197D02*
Y30807D01*
X38504Y30197D02*
Y30964D01*
X38563Y30197D02*
Y30867D01*
X38740Y30197D02*
Y30739D01*
X38799Y30197D02*
Y30721D01*
X38681Y30197D02*
Y30767D01*
X37411Y37677D02*
X40691D01*
X37411Y37618D02*
X40632D01*
X37411Y37559D02*
X40573D01*
X37411Y37500D02*
X40514D01*
X37411Y37441D02*
X40455D01*
X37411Y37382D02*
X40396D01*
X37411Y37323D02*
X40337D01*
X37411Y37264D02*
X40278D01*
X37411Y37205D02*
X40153D01*
X37411Y37146D02*
X40076D01*
X37411Y37087D02*
X40032D01*
X37411Y36791D02*
X40022D01*
X37411Y36378D02*
X43819D01*
X37402Y36319D02*
X43819D01*
X37411Y36732D02*
X40059D01*
X37411Y36673D02*
X40122D01*
X37257Y36142D02*
X43819D01*
X37198Y36083D02*
X43819D01*
X37372Y36260D02*
X43819D01*
X37317Y36201D02*
X43819D01*
X37021Y35905D02*
X43819D01*
X36962Y35846D02*
X43819D01*
X37139Y36024D02*
X43819D01*
X37080Y35965D02*
X43819D01*
X36785Y35669D02*
X43819D01*
X36726Y35610D02*
X43819D01*
X36903Y35787D02*
X43819D01*
X36844Y35728D02*
X43819D01*
X36608Y35492D02*
X43819D01*
X36549Y35433D02*
X43819D01*
X36667Y35551D02*
X43819D01*
X37411Y37027D02*
X40006D01*
X37411Y36850D02*
X40000D01*
X37411Y36968D02*
X39993D01*
X37411Y36909D02*
X39991D01*
X36490Y35374D02*
X39577D01*
X36431Y35315D02*
X39515D01*
X36372Y35256D02*
X39456D01*
X36313Y35197D02*
X39397D01*
X36254Y35138D02*
X39338D01*
X36195Y35079D02*
X39279D01*
X36135Y35020D02*
X39219D01*
X36076Y34961D02*
X39160D01*
X35647Y34531D02*
X37351Y36235D01*
X36017Y34902D02*
X39101D01*
X35958Y34842D02*
X39042D01*
X35899Y34783D02*
X38983D01*
X35840Y34724D02*
X38924D01*
X35781Y34665D02*
X38865D01*
X35722Y34606D02*
X38806D01*
X35663Y34547D02*
X38747D01*
X35585Y34488D02*
X38688D01*
X35344Y34429D02*
X38629D01*
X35220Y34370D02*
X38570D01*
X34075Y34311D02*
X38511D01*
X34075Y34252D02*
X38452D01*
X34075Y34193D02*
X38396D01*
X34075Y34134D02*
X38365D01*
X34075Y34075D02*
X38356D01*
X34465Y34016D02*
X38356D01*
X35094Y32185D02*
X38747D01*
X35094Y32126D02*
X38806D01*
X35094Y32303D02*
X38629D01*
X35094Y32244D02*
X38688D01*
X35142Y31949D02*
X38983D01*
X35153Y31890D02*
X39043D01*
X35094Y32067D02*
X38865D01*
X35119Y32008D02*
X38924D01*
X35094Y33012D02*
X38430D01*
X35094Y32953D02*
X38430D01*
X35094Y33307D02*
X38430D01*
X35094Y33248D02*
X38430D01*
X35094Y32421D02*
X38511D01*
X35094Y32362D02*
X38570D01*
X35094Y32894D02*
X38430D01*
X35094Y32480D02*
X38452D01*
X35115Y31713D02*
X39220D01*
X35073Y31653D02*
X39279D01*
X35152Y31831D02*
X39102D01*
X35140Y31772D02*
X39161D01*
X35001Y31594D02*
X39338D01*
X34736Y31358D02*
X38538D01*
X34744Y31299D02*
X38505D01*
X34740Y31240D02*
X38484D01*
X34626Y31535D02*
X38786D01*
X34683Y31476D02*
X38654D01*
X34717Y31417D02*
X38584D01*
X34725Y31181D02*
X38473D01*
X34648Y31063D02*
X38475D01*
X34562Y31004D02*
X38489D01*
X34696Y31122D02*
X38470D01*
X37146Y30197D02*
Y36030D01*
X37087Y30197D02*
Y35971D01*
X37027Y30197D02*
Y35912D01*
X36968Y30197D02*
Y35853D01*
X37382Y30197D02*
Y36275D01*
X37323Y30197D02*
Y36207D01*
X37264Y30197D02*
Y36148D01*
X37205Y30197D02*
Y36089D01*
X34742Y33839D02*
X38356D01*
X34764Y33779D02*
X38356D01*
X34642Y33957D02*
X38356D01*
X34705Y33898D02*
X38356D01*
X36909Y30197D02*
Y35794D01*
X34801Y33720D02*
X38356D01*
X36850Y30197D02*
Y35734D01*
X36791Y30197D02*
Y35675D01*
X35094Y33130D02*
X38430D01*
X35094Y33071D02*
X38430D01*
X35094Y32835D02*
X38399D01*
X35094Y32776D02*
X38367D01*
X35094Y32598D02*
X38365D01*
X35094Y32539D02*
X38396D01*
X35094Y32716D02*
X38356D01*
X35094Y32657D02*
X38356D01*
X34978Y33543D02*
X38356D01*
X35036Y33484D02*
X38367D01*
X34860Y33661D02*
X38356D01*
X34919Y33602D02*
X38356D01*
X35090Y33366D02*
X38430D01*
X35094Y33189D02*
X38430D01*
X35072Y33425D02*
X38399D01*
X36614Y39766D02*
Y41183D01*
X36673Y39760D02*
Y41172D01*
X36378Y39849D02*
Y42818D01*
X36437Y39782D02*
Y41313D01*
X36732Y39743D02*
Y41162D01*
X36742Y39739D02*
Y41152D01*
X36496Y39742D02*
Y41246D01*
X36555Y39760D02*
Y41207D01*
X35551Y40108D02*
Y43595D01*
X36083Y40102D02*
Y43113D01*
X35433Y40108D02*
Y43716D01*
X35492Y40108D02*
Y43639D01*
X36260Y39968D02*
Y42936D01*
X36319Y39909D02*
Y42877D01*
X36142Y40078D02*
Y43054D01*
X36201Y40027D02*
Y42995D01*
X36180Y40047D02*
X36406Y39822D01*
X36306Y39921D02*
X36742D01*
X36455Y39744D02*
X36501D01*
X35669Y37217D02*
Y39206D01*
X35669Y37217D02*
Y39206D01*
X33077Y39331D02*
X35549D01*
X33077Y39331D02*
X35549D01*
X35610Y37141D02*
Y39250D01*
X35492Y36934D02*
Y39331D01*
X35551Y36993D02*
Y39326D01*
X33839Y40108D02*
Y45984D01*
X33898Y40108D02*
Y45984D01*
X33720Y40108D02*
Y45984D01*
X33779Y40108D02*
Y45984D01*
X34252Y40108D02*
Y45651D01*
X34370Y40108D02*
Y45532D01*
X34075Y40108D02*
Y45828D01*
X34134Y40108D02*
Y45769D01*
X33071Y40108D02*
Y45984D01*
X33189Y40108D02*
Y45984D01*
X32953Y40108D02*
Y45984D01*
X33012Y40108D02*
Y45984D01*
X33602Y40108D02*
Y45984D01*
X33661Y40108D02*
Y45984D01*
X33248Y40108D02*
Y45984D01*
X33543Y40108D02*
Y45984D01*
X35315Y40108D02*
Y44588D01*
X35374Y40108D02*
Y44528D01*
X35138Y40108D02*
Y44765D01*
X35256Y40108D02*
Y44647D01*
X35374Y36816D02*
Y39331D01*
X35433Y36875D02*
Y39331D01*
X35197Y40108D02*
Y44706D01*
X35315Y36757D02*
Y39331D01*
X34547Y40108D02*
Y45355D01*
X34842Y40108D02*
Y45060D01*
X34429Y40108D02*
Y45473D01*
X34488Y40108D02*
Y45414D01*
X34961Y40108D02*
Y44942D01*
X35079Y40108D02*
Y44824D01*
X34902Y40108D02*
Y45001D01*
X35197Y36639D02*
Y39331D01*
X35256Y36698D02*
Y39331D01*
X35079Y36521D02*
Y39331D01*
X35138Y36580D02*
Y39331D01*
X35020Y36462D02*
Y39331D01*
X36732Y30197D02*
Y35616D01*
X34902Y36344D02*
Y39331D01*
X34961Y36403D02*
Y39331D01*
X34783Y36225D02*
Y39331D01*
X34842Y36284D02*
Y39331D01*
X34665Y36107D02*
Y39331D01*
X34724Y36166D02*
Y39331D01*
X34606Y36048D02*
Y39331D01*
X34060Y35502D02*
X35572Y37014D01*
X34488Y35930D02*
Y39331D01*
X34547Y35989D02*
Y39331D01*
X36437Y30197D02*
Y35321D01*
X36378Y30197D02*
Y35262D01*
X36319Y30197D02*
Y35203D01*
X36260Y30197D02*
Y35144D01*
X36673Y30197D02*
Y35557D01*
X36614Y30197D02*
Y35498D01*
X36555Y30197D02*
Y35439D01*
X36496Y30197D02*
Y35380D01*
X36024Y30197D02*
Y34908D01*
X35965Y30197D02*
Y34849D01*
X35905Y30197D02*
Y34790D01*
X34724Y33870D02*
Y34774D01*
X36201Y30197D02*
Y35085D01*
X36142Y30197D02*
Y35026D01*
X36083Y30197D02*
Y34967D01*
X34370Y35812D02*
Y39331D01*
X34429Y35871D02*
Y39331D01*
X34252Y35694D02*
Y39331D01*
X34311Y35753D02*
Y39331D01*
X34134Y35576D02*
Y39331D01*
X34193Y35635D02*
Y39331D01*
X34016Y35502D02*
Y39331D01*
X34075Y35517D02*
Y39331D01*
X33898Y35502D02*
Y39331D01*
X33957Y35502D02*
Y39331D01*
X33779Y35502D02*
Y39331D01*
X33839Y35502D02*
Y39331D01*
X33661Y35502D02*
Y39331D01*
X33720Y35502D02*
Y39331D01*
X33307Y35490D02*
Y39331D01*
X33602Y35502D02*
Y39331D01*
X33543Y35502D02*
Y39331D01*
X33386Y35502D02*
X34060D01*
X33425D02*
Y39331D01*
X33484Y35502D02*
Y39331D01*
X34311Y33979D02*
Y34774D01*
X33248Y35462D02*
Y39331D01*
X33366Y35501D02*
Y39331D01*
X33189Y35411D02*
Y39331D01*
X33130Y35352D02*
Y39331D01*
X33071Y35293D02*
Y39326D01*
X33012Y35234D02*
Y39295D01*
X32955Y35177D02*
X33205Y35427D01*
X32953Y35177D02*
Y39277D01*
X32835Y40108D02*
Y45984D01*
X32894Y40108D02*
Y45984D01*
X32657Y40108D02*
Y45984D01*
X32776Y40108D02*
Y45984D01*
X32598Y40108D02*
Y45984D01*
X32517Y39695D02*
X32598D01*
X32507Y39685D02*
X32594D01*
X32431Y40108D02*
X36033D01*
X32330Y39508D02*
X32589D01*
X32448Y39626D02*
X32581D01*
X32389Y39567D02*
X32579D01*
X32152Y39331D02*
X32710D01*
X32093Y39272D02*
X35589D01*
X32271Y39449D02*
X32611D01*
X32212Y39390D02*
X32648D01*
X32006Y39094D02*
X35669D01*
X31995Y39035D02*
X35669D01*
X32034Y39213D02*
X35658D01*
X32006Y39153D02*
X35669D01*
X31971Y38976D02*
X35669D01*
X31930Y38917D02*
X35669D01*
X31862Y38858D02*
X35669D01*
X31208Y35905D02*
X34463D01*
X31129Y36909D02*
X35467D01*
X31156Y36850D02*
X35408D01*
X31169Y36791D02*
X35349D01*
X31171Y36732D02*
X35290D01*
X31161Y36673D02*
X35231D01*
X31139Y36614D02*
X35172D01*
X31149Y35965D02*
X34522D01*
X32480Y40108D02*
Y45984D01*
X32539Y40108D02*
Y45984D01*
X32362Y40096D02*
Y45984D01*
X32421Y40108D02*
Y45984D01*
X32244Y40007D02*
Y45984D01*
X32303Y40064D02*
Y45984D01*
X32126Y39889D02*
Y45984D01*
X32185Y39948D02*
Y45984D01*
X32008Y39771D02*
Y45984D01*
X32067Y39830D02*
Y45984D01*
X31890Y39652D02*
Y45984D01*
X31949Y39712D02*
Y45984D01*
X31772Y39534D02*
Y45984D01*
X31831Y39593D02*
Y45984D01*
X31713Y39475D02*
Y40665D01*
X31653Y39437D02*
Y40599D01*
X31594Y39423D02*
Y40560D01*
X31676Y39439D02*
X32285Y40047D01*
X32003Y39181D02*
X32517Y39695D01*
X31535Y39397D02*
Y40537D01*
X32008Y39130D02*
Y39186D01*
X31476Y39353D02*
Y40527D01*
X31122Y36921D02*
Y40585D01*
X31417Y39276D02*
Y40527D01*
X31181Y35933D02*
Y40585D01*
X31240Y35874D02*
Y40585D01*
X31122Y35992D02*
Y36583D01*
X32598Y35401D02*
Y39477D01*
X32657Y35342D02*
Y39378D01*
X32539Y35460D02*
Y39695D01*
X32480Y35519D02*
Y39658D01*
X32835Y35213D02*
Y39277D01*
X32894Y35182D02*
Y39272D01*
X32716Y35283D02*
Y39326D01*
X32776Y35231D02*
Y39295D01*
X31267Y35846D02*
X34404D01*
X31327Y35787D02*
X34345D01*
X32185Y35761D02*
Y39363D01*
X31346Y35768D02*
X32126D01*
X32421Y35578D02*
Y39599D01*
X32362Y35638D02*
Y39540D01*
X32303Y35697D02*
Y39481D01*
X32244Y35739D02*
Y39422D01*
X32508Y35492D02*
X33315D01*
X32567Y35433D02*
X33211D01*
X32626Y35374D02*
X33152D01*
X32685Y35315D02*
X33093D01*
X32744Y35256D02*
X33034D01*
X32869Y35197D02*
X32975D01*
X32900Y35177D02*
X32955D01*
X32262Y35728D02*
X34286D01*
X32330Y35669D02*
X34227D01*
X32390Y35610D02*
X34168D01*
X32449Y35551D02*
X34109D01*
X32307Y35693D02*
X32768Y35232D01*
X31890Y35768D02*
Y38878D01*
X31831Y35768D02*
Y38841D01*
X31772Y35768D02*
Y38819D01*
X31713Y35768D02*
Y38810D01*
X32126Y35768D02*
Y39304D01*
X32067Y35768D02*
Y39245D01*
X32008Y35768D02*
Y39118D01*
X31949Y35768D02*
Y38940D01*
X31594Y35768D02*
Y38825D01*
X31653Y35768D02*
Y38812D01*
X31299Y35815D02*
Y40564D01*
X31535Y35768D02*
Y38851D01*
X31417Y35768D02*
Y38972D01*
X31476Y35768D02*
Y38895D01*
X31358Y35768D02*
Y40539D01*
X31181Y32648D02*
Y35263D01*
X31890Y35198D02*
Y35256D01*
X31831Y35130D02*
Y35256D01*
Y32648D02*
Y34792D01*
X31713Y32648D02*
Y35256D01*
X31772Y32648D02*
Y35256D01*
X31594Y32648D02*
Y35256D01*
X31653Y32648D02*
Y35256D01*
X31535Y32648D02*
Y35256D01*
X31240D02*
X31987D01*
X31417Y32648D02*
Y35256D01*
X31476Y32648D02*
Y35256D01*
X31299Y32648D02*
Y35256D01*
X31358Y32648D02*
Y35256D01*
X31240Y32648D02*
Y35256D01*
X35387Y34470D02*
X35500D01*
X34842Y33679D02*
Y34606D01*
X34902Y33620D02*
Y34483D01*
X34665Y33939D02*
Y34774D01*
X34783Y33738D02*
Y34774D01*
X34156D02*
X34850D01*
X34181Y34606D02*
X34842D01*
X34173Y34724D02*
X34838D01*
X34182Y34665D02*
X34835D01*
X34141Y34488D02*
X34897D01*
X34097Y34429D02*
X34955D01*
X34606Y33979D02*
Y34774D01*
X34167Y34547D02*
X34862D01*
X34075Y34370D02*
X35078D01*
X34769Y33752D02*
X35019Y33502D01*
X34961Y33561D02*
Y34425D01*
X35020Y33502D02*
Y34390D01*
X35079Y33409D02*
Y34370D01*
X34065Y33071D02*
X34583D01*
X34065Y32657D02*
X34583D01*
X34065Y33189D02*
X34583D01*
X34065Y33130D02*
X34583D01*
X34065Y32185D02*
X34583D01*
X34065Y32126D02*
X34583D01*
X34065Y32598D02*
X34583D01*
X34065Y32539D02*
X34583D01*
X34488Y34014D02*
Y34774D01*
X34547Y34003D02*
Y34774D01*
X34429Y34014D02*
Y34774D01*
X34252Y33938D02*
Y34774D01*
X34370Y34003D02*
Y34774D01*
X34193Y33870D02*
Y34774D01*
X34157Y33898D02*
X34213D01*
X34087Y34016D02*
X34452D01*
X34131Y33957D02*
X34275D01*
X34075Y34028D02*
Y34408D01*
X34134Y33952D02*
Y34477D01*
X34065Y33484D02*
X34230D01*
X34065Y33425D02*
X34306D01*
X34104Y33602D02*
X34160D01*
X34065Y33543D02*
X34186D01*
X34408Y33390D02*
X34583Y33215D01*
X34065Y33248D02*
X34550D01*
X34065Y33366D02*
X34431D01*
X34065Y33307D02*
X34491D01*
X34065Y32894D02*
X34583D01*
X34065Y32835D02*
X34583D01*
X34065Y33012D02*
X34583D01*
X34065Y32953D02*
X34583D01*
X34065Y32716D02*
X34583D01*
X34065Y32244D02*
X34583D01*
X34065Y32776D02*
X34583D01*
X35610Y30197D02*
Y34502D01*
X35551Y30197D02*
Y34477D01*
X35433Y30197D02*
Y34470D01*
X35492Y30197D02*
Y34470D01*
X35846Y30197D02*
Y34731D01*
X35787Y30197D02*
Y34671D01*
X35728Y30197D02*
Y34612D01*
X35669Y30197D02*
Y34553D01*
X35138Y31963D02*
Y34362D01*
X35094Y32048D02*
Y33321D01*
X35374Y30197D02*
Y34456D01*
X35315Y30197D02*
Y34409D01*
X35256Y30197D02*
Y34380D01*
X35197Y30197D02*
Y34366D01*
X34902Y30197D02*
Y31556D01*
X34842Y30197D02*
Y31549D01*
X34724Y31399D02*
Y31571D01*
X34783Y30197D02*
Y31554D01*
X35138Y30197D02*
Y31766D01*
X35079Y30197D02*
Y31660D01*
X35020Y30197D02*
Y31606D01*
X34961Y30197D02*
Y31574D01*
X34665Y31498D02*
Y31601D01*
X34508Y31594D02*
X34676D01*
X34724Y30197D02*
Y31180D01*
X34665Y30197D02*
Y31081D01*
X34606Y30197D02*
Y31029D01*
X34547Y31984D02*
Y33250D01*
X34583Y32048D02*
Y33215D01*
X34429Y31604D02*
Y33368D01*
X34488Y31599D02*
Y33309D01*
X34311Y31581D02*
Y33423D01*
X34370Y31599D02*
Y33399D01*
X34193Y31545D02*
Y33532D01*
X34252Y31550D02*
Y33463D01*
X34065Y32067D02*
X34583D01*
X34065Y32008D02*
X34558D01*
X34065Y31949D02*
X34535D01*
X34065Y31890D02*
X34525D01*
X34134Y31545D02*
Y33647D01*
X34065Y31831D02*
X34525D01*
X34075Y31545D02*
Y33570D01*
X34065Y31545D02*
Y33562D01*
X34547Y31581D02*
Y31745D01*
X34606Y31550D02*
Y31652D01*
X34547Y30197D02*
Y30997D01*
X34488Y30197D02*
Y30980D01*
X34370Y30197D02*
Y30980D01*
X34429Y30197D02*
Y30974D01*
X34252Y30197D02*
Y31029D01*
X34311Y30197D02*
Y30997D01*
X34065Y31772D02*
X34538D01*
X34065Y31713D02*
X34563D01*
X34065Y31594D02*
X34351D01*
X34065Y31545D02*
X34246D01*
X34134Y30197D02*
Y31033D01*
X34193Y30197D02*
Y31033D01*
X34075Y30197D02*
Y31033D01*
X33432Y34429D02*
X33639D01*
X33404Y34401D02*
X33565Y34562D01*
X33491Y34488D02*
X33595D01*
X33661Y34045D02*
Y34408D01*
X33661Y34045D02*
Y34408D01*
X33602Y33983D02*
Y34477D01*
X33425Y32094D02*
Y34422D01*
X33364Y34370D02*
X33661D01*
X32254Y34341D02*
X33258D01*
X33366Y32153D02*
Y34371D01*
X33307Y32212D02*
Y34346D01*
X33130Y32390D02*
Y34341D01*
X33248Y32271D02*
Y34341D01*
X34065Y32421D02*
X34583D01*
X34065Y32362D02*
X34583D01*
X34065Y32480D02*
X34583D01*
X34065Y32303D02*
X34583D01*
X33275Y32244D02*
X33652D01*
X33334Y32185D02*
X33652D01*
X33393Y32126D02*
X33652D01*
X33039Y32480D02*
X33652D01*
X33098Y32421D02*
X33652D01*
X32917Y32598D02*
X33652D01*
X32980Y32539D02*
X33652D01*
X33157Y32362D02*
X33652D01*
X33216Y32303D02*
X33652D01*
X33189Y32330D02*
Y34341D01*
X32244Y32648D02*
Y34341D01*
X32126Y32648D02*
Y34385D01*
X32185Y32648D02*
Y34352D01*
X32835Y32638D02*
Y34341D01*
X32894Y32613D02*
Y34341D01*
X32716Y32648D02*
Y34341D01*
X32776Y32647D02*
Y34341D01*
X31951Y34558D02*
X32107Y34401D01*
X32008Y32648D02*
Y34501D01*
X32067Y32648D02*
Y34442D01*
X31890Y32648D02*
Y34723D01*
X31949Y32648D02*
Y34560D01*
X32657Y32648D02*
Y34341D01*
X32539Y32648D02*
Y34341D01*
X32598Y32648D02*
Y34341D01*
X33012Y32508D02*
Y34341D01*
X33071Y32449D02*
Y34341D01*
X32953Y32567D02*
Y34341D01*
X32421Y32648D02*
Y34341D01*
X32480Y32648D02*
Y34341D01*
X32303Y32648D02*
Y34341D01*
X32362Y32648D02*
Y34341D01*
X31208Y32126D02*
X32670D01*
X31149Y32067D02*
X32729D01*
X31218Y32136D02*
X32660D01*
X33453Y32067D02*
X33652D01*
X33512Y32008D02*
X33652D01*
X33543Y31976D02*
Y34540D01*
X33484Y32035D02*
Y34481D01*
X33571Y31949D02*
X33652D01*
X34065Y31653D02*
X34604D01*
X33602Y31917D02*
Y33616D01*
X33652Y31868D02*
Y33562D01*
X32947Y32572D02*
X33652Y31868D01*
X32660Y32136D02*
X33677Y31118D01*
X33130Y30197D02*
Y31666D01*
X33189Y30197D02*
Y31607D01*
X33071Y30197D02*
Y31725D01*
X33248Y30197D02*
Y31548D01*
X32953Y30197D02*
Y31843D01*
X33012Y30197D02*
Y31784D01*
X33957Y30197D02*
Y31033D01*
X33868D02*
X34246D01*
X33898Y30197D02*
Y31033D01*
X33839Y30197D02*
Y31035D01*
X34016Y30197D02*
Y31033D01*
X33720Y30197D02*
Y31080D01*
X33779Y30197D02*
Y31049D01*
X33425Y30197D02*
Y31370D01*
X33484Y30197D02*
Y31311D01*
X33307Y30197D02*
Y31489D01*
X33366Y30197D02*
Y31430D01*
X33602Y30197D02*
Y31193D01*
X33661Y30197D02*
Y31134D01*
X33543Y30197D02*
Y31252D01*
X32362Y30197D02*
Y32136D01*
X32421Y30197D02*
Y32136D01*
X32244Y30197D02*
Y32136D01*
X32303Y30197D02*
Y32136D01*
X32598Y30197D02*
Y32136D01*
X32657Y30197D02*
Y32136D01*
X32480Y30197D02*
Y32136D01*
X32539Y30197D02*
Y32136D01*
X31890Y30197D02*
Y32136D01*
X31949Y30197D02*
Y32136D01*
X31417Y30197D02*
Y32136D01*
X31476Y30197D02*
Y32136D01*
X32126Y30197D02*
Y32136D01*
X32185Y30197D02*
Y32136D01*
X32008Y30197D02*
Y32136D01*
X32067Y30197D02*
Y32136D01*
X31772Y30197D02*
Y32136D01*
X31831Y30197D02*
Y32136D01*
X31653Y30197D02*
Y32136D01*
X31713Y30197D02*
Y32136D01*
X32835Y30197D02*
Y31961D01*
X32894Y30197D02*
Y31902D01*
X32716Y30197D02*
Y32079D01*
X32776Y30197D02*
Y32020D01*
X31240Y30197D02*
Y32136D01*
X31299Y30197D02*
Y32136D01*
X31181Y30197D02*
Y32099D01*
X31122Y30197D02*
Y32040D01*
X31535Y30197D02*
Y32136D01*
X31594Y30197D02*
Y32136D01*
X31358Y30197D02*
Y32136D01*
X30827Y46693D02*
Y46732D01*
X30886Y46693D02*
Y46732D01*
X30709Y46693D02*
Y46732D01*
X30768Y46693D02*
Y46732D01*
X31063Y46693D02*
Y46732D01*
X31122Y46693D02*
Y46732D01*
X30945Y46693D02*
Y46732D01*
X31004Y46693D02*
Y46732D01*
X30118Y46693D02*
Y46732D01*
X30177Y46693D02*
Y46732D01*
X30000Y46693D02*
Y46732D01*
X30059Y46693D02*
Y46732D01*
X30590Y46693D02*
Y46732D01*
X30650Y46693D02*
Y46732D01*
X30236Y46693D02*
Y46732D01*
X30472Y46693D02*
Y46732D01*
X30413Y46693D02*
Y46732D01*
X30531Y46693D02*
Y46732D01*
X30295Y46693D02*
Y46732D01*
X30354Y46693D02*
Y46732D01*
X29970Y46693D02*
X34065D01*
X30019Y45886D02*
X34017D01*
X30117Y45984D02*
X33918D01*
X30078Y45945D02*
X33958D01*
X29842Y45709D02*
X34194D01*
X29783Y45650D02*
X34253D01*
X29960Y45827D02*
X34076D01*
X29901Y45768D02*
X34135D01*
X29605Y45472D02*
X34430D01*
X29546Y45413D02*
X34489D01*
X29723Y45590D02*
X34312D01*
X29664Y45531D02*
X34371D01*
X29882Y46682D02*
Y46732D01*
X29941Y46692D02*
Y46732D01*
X29764Y46626D02*
Y46732D01*
X29823Y46661D02*
Y46732D01*
X29646Y46515D02*
Y46732D01*
X29705Y46574D02*
Y46732D01*
X29527Y46397D02*
Y46732D01*
X29587Y46456D02*
Y46732D01*
X29409Y46279D02*
Y46732D01*
X29468Y46338D02*
Y46732D01*
X28996Y46404D02*
Y46732D01*
X29350Y46220D02*
Y46732D01*
X29232Y46101D02*
Y46732D01*
X29291Y46160D02*
Y46732D01*
X29114Y45983D02*
Y46732D01*
X29173Y46042D02*
Y46732D01*
X29055Y46212D02*
Y46732D01*
X29059Y46181D02*
X29312D01*
X29064Y46122D02*
X29253D01*
X29064Y46063D02*
X29194D01*
X29060Y46004D02*
X29135D01*
X29055Y45924D02*
Y45969D01*
X28990Y46417D02*
X29548D01*
X29015Y46358D02*
X29489D01*
X29035Y46299D02*
X29430D01*
X29050Y46240D02*
X29371D01*
X29044Y45913D02*
X29720Y46589D01*
X30827Y41096D02*
Y45984D01*
X30886Y41096D02*
Y45984D01*
X30709Y41580D02*
Y45984D01*
X30768Y41513D02*
Y45984D01*
X31063Y41096D02*
Y45984D01*
X31122Y41096D02*
Y45984D01*
X30945Y41096D02*
Y45984D01*
X31004Y41096D02*
Y45984D01*
X29369Y45236D02*
X34666D01*
X29310Y45177D02*
X34725D01*
X29487Y45354D02*
X34548D01*
X29428Y45295D02*
X34607D01*
X29133Y45000D02*
X34903D01*
X29074Y44941D02*
X34962D01*
X29251Y45118D02*
X34784D01*
X29192Y45059D02*
X34843D01*
X30010Y44350D02*
X35552D01*
X30010Y44291D02*
X35611D01*
X30010Y44468D02*
X35434D01*
X30010Y44409D02*
X35493D01*
X30010Y44232D02*
X35670D01*
X30010Y44173D02*
X35630D01*
X30010Y44114D02*
X35512D01*
X30010Y44055D02*
X35455D01*
X30010Y44764D02*
X35139D01*
X30010Y44705D02*
X35198D01*
X30010Y44882D02*
X35021D01*
X30010Y44823D02*
X35080D01*
X30010Y44587D02*
X35316D01*
X30010Y44527D02*
X35375D01*
X30010Y44646D02*
X35257D01*
X30354Y41810D02*
Y45984D01*
X30413Y41783D02*
Y45984D01*
X30236Y41821D02*
Y45984D01*
X30295Y41820D02*
Y45984D01*
X30590Y41643D02*
Y45984D01*
X30650Y41620D02*
Y45984D01*
X30472Y41734D02*
Y45984D01*
X30531Y41675D02*
Y45984D01*
X29035Y44902D02*
X30117Y45984D01*
X29941Y44902D02*
Y45808D01*
X29882Y44902D02*
Y45749D01*
X29823Y44902D02*
Y45690D01*
X30118Y41821D02*
Y45984D01*
X30177Y41821D02*
Y45984D01*
X30059Y41821D02*
Y45926D01*
X30000Y44902D02*
Y45867D01*
X29587Y44902D02*
Y45454D01*
X29527Y44902D02*
Y45395D01*
X29468Y44902D02*
Y45335D01*
X29409Y44902D02*
Y45276D01*
X29764Y44902D02*
Y45631D01*
X30010Y43878D02*
Y44902D01*
X29705D02*
Y45572D01*
X29646Y44902D02*
Y45513D01*
X29350Y44902D02*
Y45217D01*
X29291Y44902D02*
Y45158D01*
X29232Y44902D02*
Y45099D01*
X29173Y44902D02*
Y45040D01*
X29114Y44902D02*
Y44981D01*
X29035Y44902D02*
X30010D01*
X28986Y43878D02*
Y44853D01*
X28810Y46653D02*
X29808D01*
X28870Y46594D02*
X29725D01*
X28760Y46693D02*
Y46732D01*
X28819Y46645D02*
Y46732D01*
X28918Y46535D02*
X29666D01*
X28958Y46476D02*
X29607D01*
X28878Y46585D02*
Y46732D01*
X28937Y46509D02*
Y46732D01*
X28701D02*
X39350D01*
X28733Y46713D02*
X39319D01*
X28051Y44919D02*
Y45391D01*
X28110Y44979D02*
Y45372D01*
X28449Y45354D02*
X28485D01*
X28405Y45275D02*
Y45348D01*
X28346Y45216D02*
Y45343D01*
X21742Y45177D02*
X28308D01*
X28067Y44936D02*
X28495Y45364D01*
X28287Y45157D02*
Y45343D01*
X28169Y45038D02*
Y45357D01*
X28228Y45097D02*
Y45348D01*
X21734Y45295D02*
X28426D01*
X21741Y45236D02*
X28367D01*
X21722Y45354D02*
X28185D01*
X21737Y45118D02*
X28249D01*
X21727Y45059D02*
X28190D01*
X21711Y45000D02*
X28131D01*
X21688Y44941D02*
X28072D01*
X20197Y46732D02*
X27933D01*
X20197Y46713D02*
X27901D01*
X27815Y46645D02*
Y46732D01*
X27874Y46693D02*
Y46732D01*
X27697Y46509D02*
Y46732D01*
X27756Y46585D02*
Y46732D01*
X27579Y46211D02*
Y46732D01*
X27638Y46404D02*
Y46732D01*
X20197Y46653D02*
X27824D01*
X20197Y46594D02*
X27764D01*
X20197Y46535D02*
X27715D01*
X20197Y46476D02*
X27676D01*
X20197Y46417D02*
X27644D01*
X20197Y46358D02*
X27618D01*
X20197Y46299D02*
X27599D01*
X20197Y46240D02*
X27584D01*
X21550Y45650D02*
X27713D01*
X21604Y45590D02*
X27761D01*
X21379Y45768D02*
X27642D01*
X21480Y45709D02*
X27674D01*
X21704Y45413D02*
X27999D01*
X21658Y44882D02*
X28022D01*
X21646Y45531D02*
X27820D01*
X21679Y45472D02*
X27896D01*
X20197Y46181D02*
X27574D01*
X20197Y46004D02*
X27574D01*
X20197Y46122D02*
X27570D01*
X20197Y46063D02*
X27569D01*
X20197Y45886D02*
X27597D01*
X21123Y45827D02*
X27617D01*
X20197Y45945D02*
X27583D01*
X28986Y44853D02*
X29035Y44902D01*
X28956Y44823D02*
X28986D01*
X28897Y44764D02*
X28986D01*
X28838Y44705D02*
X28986D01*
X28937Y42286D02*
Y44804D01*
X28779Y44646D02*
X28986D01*
X28878Y42305D02*
Y44745D01*
X28819Y44490D02*
Y44686D01*
X27992Y44827D02*
Y45417D01*
X27325Y44823D02*
X27990D01*
X28767Y44634D02*
X28986Y44853D01*
X27425Y44764D02*
X27967D01*
X28823Y44468D02*
X28986D01*
X28828Y44409D02*
X28986D01*
X28789Y44587D02*
X28986D01*
X28810Y44527D02*
X28986D01*
X28827Y44350D02*
X28986D01*
X28819Y44291D02*
X28986D01*
X28819Y43309D02*
Y44290D01*
X28804Y44232D02*
X28986D01*
X28781Y44173D02*
X28986D01*
X28748Y44114D02*
X28986D01*
X28704Y44055D02*
X28986D01*
X28760Y43465D02*
Y44133D01*
X28701Y43547D02*
Y44051D01*
X28671Y43578D02*
Y44020D01*
X27874Y44646D02*
Y45488D01*
X27933Y44728D02*
Y45449D01*
X27815Y44489D02*
Y45536D01*
X27588Y44527D02*
X27824D01*
X27756Y42254D02*
Y45596D01*
X27602Y44468D02*
X27811D01*
X27638Y42254D02*
Y45777D01*
X27697Y42254D02*
Y45672D01*
X27520Y44665D02*
Y46732D01*
X27488Y44705D02*
X27913D01*
X27402Y44780D02*
Y46732D01*
X27461Y44733D02*
Y46732D01*
X27533Y44646D02*
X27874D01*
X27565Y44587D02*
X27844D01*
X27579Y44554D02*
Y45970D01*
X27598Y44291D02*
X27815D01*
X27581Y44232D02*
X27830D01*
X27608Y44409D02*
X27805D01*
X27607Y44350D02*
X27807D01*
X27933Y43547D02*
Y44051D01*
X27963Y43578D02*
Y44020D01*
X27815Y43308D02*
Y44290D01*
X27874Y43465D02*
Y44133D01*
X27520Y44114D02*
X27886D01*
X27469Y44055D02*
X27930D01*
X27556Y44173D02*
X27853D01*
X27579Y43373D02*
Y44225D01*
X27520Y43484D02*
Y44114D01*
X27461Y43552D02*
Y44047D01*
X30010Y43996D02*
X35421D01*
X30010Y43937D02*
X35401D01*
X29705Y43677D02*
Y43878D01*
X29764Y43646D02*
Y43878D01*
X29941Y43465D02*
Y43878D01*
X30000Y43309D02*
Y43878D01*
X29823Y43604D02*
Y43878D01*
X29882Y43547D02*
Y43878D01*
X28671Y43819D02*
X35398D01*
X28671Y43760D02*
X35413D01*
X28986Y43878D02*
X30010D01*
X28671Y43878D02*
X35394D01*
X29639Y43701D02*
X35442D01*
X29587Y43713D02*
Y43878D01*
X29646Y43699D02*
Y43878D01*
X30004Y43287D02*
X35909D01*
X30009Y43228D02*
X35968D01*
X29971Y43405D02*
X35790D01*
X29991Y43346D02*
X35850D01*
X29985Y43051D02*
X36145D01*
X29962Y42992D02*
X36204D01*
X30008Y43169D02*
X36027D01*
X30000Y43110D02*
X36086D01*
X29902Y43524D02*
X35672D01*
X29941Y43464D02*
X35731D01*
X29771Y43642D02*
X35490D01*
X29848Y43583D02*
X35576D01*
X29825Y42815D02*
X36381D01*
X29737Y42756D02*
X36440D01*
X29929Y42933D02*
X36263D01*
X29885Y42874D02*
X36322D01*
X29468Y43720D02*
Y43878D01*
X29527Y43720D02*
Y43878D01*
X29350Y43699D02*
Y43878D01*
X29409Y43713D02*
Y43878D01*
X29232Y43646D02*
Y43878D01*
X29291Y43677D02*
Y43878D01*
X29114Y43547D02*
Y43878D01*
X29173Y43604D02*
Y43878D01*
X28671Y43701D02*
X29357D01*
X28671Y43642D02*
X29225D01*
X28671Y43996D02*
X28986D01*
X28671Y43937D02*
X28986D01*
X29055Y43465D02*
Y43878D01*
X28671Y43583D02*
X29149D01*
X28996Y43308D02*
Y43878D01*
X28789Y43405D02*
X29026D01*
X28810Y43346D02*
X29005D01*
X28823Y43287D02*
X28992D01*
X28828Y43228D02*
X28987D01*
X28819Y43110D02*
X28996D01*
X28804Y43051D02*
X29011D01*
X28827Y43169D02*
X28988D01*
X28819Y42313D02*
Y43108D01*
X28720Y43524D02*
X29095D01*
X28748Y42933D02*
X29067D01*
X28760Y43464D02*
X29055D01*
X28781Y42992D02*
X29034D01*
X28644Y42815D02*
X29171D01*
X28555Y42756D02*
X29260D01*
X28704Y42874D02*
X29111D01*
X30350Y41811D02*
X37385D01*
X30454Y41752D02*
X36531D01*
X30514Y41693D02*
X36462D01*
X30619Y41634D02*
X36422D01*
X30461Y41746D02*
X30555Y41651D01*
X29076Y42165D02*
X37031D01*
X29105Y42106D02*
X37090D01*
X28942Y42283D02*
X36913D01*
X29028Y42224D02*
X36972D01*
X29116Y41929D02*
X37267D01*
X29097Y41870D02*
X37326D01*
X29120Y42047D02*
X37149D01*
X29124Y41988D02*
X37208D01*
X30814Y41398D02*
X36398D01*
X30819Y41339D02*
X36422D01*
X30766Y41516D02*
X36386D01*
X30797Y41457D02*
X36386D01*
X30795Y41220D02*
X36531D01*
X30763Y41161D02*
X36733D01*
X30813Y41279D02*
X36462D01*
X30768Y41096D02*
Y41168D01*
X30715Y41575D02*
X36398D01*
X30710Y41102D02*
X31276D01*
X30703Y41096D02*
X31267D01*
X30360Y40585D02*
X31267D01*
X29764Y41821D02*
Y42771D01*
X29705Y41821D02*
Y42740D01*
X29232Y41821D02*
Y42771D01*
X29291Y41821D02*
Y42740D01*
X30000Y41821D02*
Y43108D01*
X29941Y41821D02*
Y42952D01*
X29882Y41821D02*
Y42870D01*
X29823Y41821D02*
Y42813D01*
X28760Y42309D02*
Y42952D01*
X28701Y42294D02*
Y42870D01*
X28642Y42265D02*
Y42813D01*
X28583Y42254D02*
Y42771D01*
X29114Y42076D02*
Y42870D01*
X29173Y41821D02*
Y42813D01*
X28996Y42252D02*
Y43109D01*
X29055Y42195D02*
Y42952D01*
X29409Y41821D02*
Y42705D01*
X29468Y41821D02*
Y42698D01*
X29350Y41821D02*
Y42719D01*
X29114Y41821D02*
Y41920D01*
X29646Y41821D02*
Y42719D01*
X29924Y40915D02*
X30179Y40660D01*
X29587Y41821D02*
Y42705D01*
X29527Y41821D02*
Y42698D01*
X28524Y42254D02*
Y42740D01*
X28465Y42254D02*
Y42719D01*
X28405Y42254D02*
Y42705D01*
X28346Y42254D02*
Y42698D01*
X29069Y41821D02*
X30280D01*
X28051Y42254D02*
Y42771D01*
X27397Y42815D02*
X27990D01*
X27992Y42254D02*
Y42813D01*
X28228Y42254D02*
Y42705D01*
X28287Y42254D02*
Y42698D01*
X28110Y42254D02*
Y42740D01*
X28169Y42254D02*
Y42719D01*
X26504Y42697D02*
X36499D01*
X26563Y42638D02*
X36558D01*
X27325Y43642D02*
X27963D01*
X27270Y42756D02*
X28078D01*
X26740Y42461D02*
X36735D01*
X26799Y42401D02*
X36794D01*
X26622Y42579D02*
X36617D01*
X26681Y42520D02*
X36676D01*
X26858Y42342D02*
X36853D01*
X26349Y40748D02*
X30091D01*
X26917Y42283D02*
X28676D01*
X26947Y42254D02*
X28625D01*
X26360Y40571D02*
X31288D01*
X26375Y40276D02*
X36742D01*
X26364Y40689D02*
X30150D01*
X26368Y40630D02*
X30215D01*
X26320Y40807D02*
X30032D01*
X26341Y40512D02*
X36742D01*
X26206Y40915D02*
X29924D01*
X26272Y40866D02*
X29973D01*
X26260Y40394D02*
X36742D01*
X26316Y40335D02*
X36742D01*
X26307Y40453D02*
X36742D01*
X27397Y43996D02*
X27963D01*
X27425Y43583D02*
X27963D01*
X27402Y43599D02*
Y43999D01*
X27488Y43524D02*
X27913D01*
X27533Y43464D02*
X27874D01*
X27565Y43405D02*
X27844D01*
X27588Y43346D02*
X27824D01*
X27602Y43287D02*
X27811D01*
X26255Y43819D02*
X27963D01*
X26286Y43760D02*
X27963D01*
X27270Y43937D02*
X27963D01*
X26203Y43878D02*
X27963D01*
X26303Y43701D02*
X27963D01*
X27342Y43634D02*
Y43965D01*
X27598Y43110D02*
X27815D01*
X27581Y43051D02*
X27830D01*
X27608Y43228D02*
X27805D01*
X27607Y43169D02*
X27807D01*
X27874Y42254D02*
Y42952D01*
X27933Y42254D02*
Y42870D01*
X27815Y42254D02*
Y43109D01*
X27579Y42254D02*
Y43044D01*
X27520Y42933D02*
X27886D01*
X27469Y42874D02*
X27930D01*
X27556Y42992D02*
X27853D01*
X27520Y42254D02*
Y42933D01*
X27461Y42254D02*
Y42866D01*
X27402Y42254D02*
Y42818D01*
X27342Y42254D02*
Y42784D01*
X27620Y40098D02*
X32368D01*
X27672Y40039D02*
X32277D01*
X27703Y39980D02*
X32217D01*
X27721Y39921D02*
X32158D01*
X27726Y39862D02*
X32099D01*
X27721Y39803D02*
X32040D01*
X27703Y39744D02*
X31981D01*
X27672Y39685D02*
X31922D01*
X26434Y40216D02*
X36742D01*
X27521Y40157D02*
X36742D01*
X20197Y38799D02*
X35669D01*
X20197Y38740D02*
X35669D01*
X20197Y38563D02*
X35669D01*
X20197Y38504D02*
X35669D01*
X20197Y38681D02*
X35669D01*
X20197Y38622D02*
X35669D01*
X27721Y37913D02*
X35669D01*
X27721Y37854D02*
X35669D01*
X24017Y38031D02*
X35669D01*
X27721Y37972D02*
X35669D01*
X27721Y37677D02*
X35669D01*
X27721Y37618D02*
X35669D01*
X27721Y37795D02*
X35669D01*
X27721Y37736D02*
X35669D01*
X20197Y38327D02*
X35669D01*
X20197Y38268D02*
X35669D01*
X20197Y38445D02*
X35669D01*
X20197Y38386D02*
X35669D01*
X23906Y38150D02*
X35669D01*
X23971Y38090D02*
X35669D01*
X23798Y38209D02*
X35669D01*
X27697Y39995D02*
Y40915D01*
X27620Y39626D02*
X31863D01*
X27579Y40129D02*
Y40915D01*
X27638Y40081D02*
Y40915D01*
X27697Y37977D02*
Y39729D01*
X27521Y39567D02*
X31804D01*
X27638Y37977D02*
Y39643D01*
X27579Y37977D02*
Y39595D01*
X27461Y40173D02*
Y40915D01*
X27520Y40158D02*
Y40915D01*
X27342Y40170D02*
Y40915D01*
X27402Y40177D02*
Y40915D01*
X27520Y37977D02*
Y39566D01*
X27342Y37977D02*
Y39555D01*
X22275Y39508D02*
X31745D01*
X20197Y39449D02*
X31686D01*
X20197Y39390D02*
X31524D01*
X20197Y39331D02*
X31455D01*
X20197Y39272D02*
X31415D01*
X26806Y37977D02*
X27721D01*
X27461D02*
Y39551D01*
X27402Y37977D02*
Y39547D01*
X20197Y39213D02*
X31391D01*
X20197Y39035D02*
X31391D01*
X20197Y39153D02*
X31379D01*
X20197Y39094D02*
X31379D01*
X20197Y38917D02*
X31455D01*
X20197Y38858D02*
X31524D01*
X20197Y38976D02*
X31415D01*
X27165Y44861D02*
Y46732D01*
X27224Y44854D02*
Y46732D01*
X27047Y44854D02*
Y46732D01*
X27106Y44861D02*
Y46732D01*
X27283Y44839D02*
Y46732D01*
X27342Y44815D02*
Y46732D01*
X26929Y44815D02*
Y46732D01*
X26988Y44839D02*
Y46732D01*
X26811Y44733D02*
Y46732D01*
X26870Y44780D02*
Y46732D01*
X26929Y43633D02*
Y43965D01*
X26811Y43552D02*
Y44047D01*
X26870Y43599D02*
Y43999D01*
X27224Y43673D02*
Y43926D01*
X27165Y43680D02*
Y43918D01*
X27047Y43673D02*
Y43926D01*
X27106Y43680D02*
Y43918D01*
X27283Y43657D02*
Y43941D01*
X26988Y43657D02*
Y43941D01*
X26104Y43937D02*
X27001D01*
X26309Y43642D02*
X26947D01*
X26303Y43583D02*
X26847D01*
X26286Y43524D02*
X26784D01*
X26386Y42815D02*
X26875D01*
X26445Y42756D02*
X27001D01*
X26267Y42933D02*
X26752D01*
X26327Y42874D02*
X26802D01*
X26693Y44554D02*
Y46732D01*
X26752Y44665D02*
Y46732D01*
X26161Y43909D02*
Y46732D01*
X26220Y43861D02*
Y46732D01*
X26398Y42803D02*
Y46732D01*
X26693Y43373D02*
Y44226D01*
X26279Y43775D02*
Y46732D01*
X26339Y42862D02*
Y46732D01*
X26043Y43953D02*
Y46732D01*
X26102Y43938D02*
Y46732D01*
X25925Y43949D02*
Y46732D01*
X25984Y43957D02*
Y46732D01*
X25807Y43895D02*
Y46732D01*
X25866Y43930D02*
Y46732D01*
X25689Y43720D02*
Y46732D01*
X25748Y43838D02*
Y46732D01*
X26752Y43484D02*
Y44114D01*
X26254Y43464D02*
X26739D01*
X26250Y43405D02*
X26706D01*
X26250Y43346D02*
X26684D01*
X26250Y43110D02*
X26674D01*
X26279Y42921D02*
Y43508D01*
X26250Y42950D02*
Y43458D01*
Y43287D02*
X26670D01*
X26250Y43169D02*
X26665D01*
X26250Y43228D02*
X26664D01*
X26250Y43051D02*
X26690D01*
X26250Y42992D02*
X26716D01*
X25738Y42844D02*
Y43458D01*
X26575Y42626D02*
Y46732D01*
X26457Y42744D02*
Y46732D01*
X26516Y42685D02*
Y46732D01*
X26752Y42449D02*
Y42933D01*
X26811Y42390D02*
Y42866D01*
X26634Y42567D02*
Y46732D01*
X26693Y42508D02*
Y43044D01*
X25453Y42254D02*
Y46732D01*
X25512Y42254D02*
Y46732D01*
X25335Y42254D02*
Y46732D01*
X25394Y42254D02*
Y46732D01*
X25689Y42254D02*
Y43564D01*
X26250Y42950D02*
X26947Y42254D01*
X25571D02*
Y46732D01*
X25630Y42254D02*
Y46732D01*
X26988Y42254D02*
Y42760D01*
X27047Y42254D02*
Y42745D01*
X26870Y42330D02*
Y42818D01*
X26929Y42271D02*
Y42784D01*
X27283Y42254D02*
Y42760D01*
X27224Y42254D02*
Y42745D01*
X27106Y42254D02*
Y42737D01*
X27165Y42254D02*
Y42737D01*
X25866Y42254D02*
Y42611D01*
X25925Y42254D02*
Y42552D01*
X25807Y42254D02*
Y42670D01*
X25813Y42663D02*
X26223Y42254D01*
X25748D02*
Y42774D01*
X24331Y42252D02*
Y46732D01*
X24390Y42254D02*
Y46732D01*
X24213Y42207D02*
Y46732D01*
X24272Y42238D02*
Y46732D01*
X24094Y42094D02*
Y46732D01*
X24153Y42153D02*
Y46732D01*
X23976Y41976D02*
Y46732D01*
X24035Y42035D02*
Y46732D01*
X23858Y41858D02*
Y46732D01*
X23917Y41917D02*
Y46732D01*
X23740Y41740D02*
Y46732D01*
X23799Y41799D02*
Y46732D01*
X23622Y41622D02*
Y46732D01*
X23681Y41681D02*
Y46732D01*
X23504Y41504D02*
Y46732D01*
X23563Y41563D02*
Y46732D01*
X24980Y42254D02*
Y46732D01*
X25039Y42254D02*
Y46732D01*
X24862Y42254D02*
Y46732D01*
X24921Y42254D02*
Y46732D01*
X25216Y42254D02*
Y46732D01*
X25276Y42254D02*
Y46732D01*
X25098Y42254D02*
Y46732D01*
X25157Y42254D02*
Y46732D01*
X24567Y42254D02*
Y46732D01*
X24626Y42254D02*
Y46732D01*
X24449Y42254D02*
Y46732D01*
X24508Y42254D02*
Y46732D01*
X24744Y42254D02*
Y46732D01*
X24803Y42254D02*
Y46732D01*
X24685Y42254D02*
Y46732D01*
X21496Y45696D02*
Y46732D01*
X21555Y45645D02*
Y46732D01*
X21378Y45768D02*
Y46732D01*
X21437Y45737D02*
Y46732D01*
X21732Y45308D02*
Y46732D01*
X21619Y44823D02*
X26947D01*
X21614Y45577D02*
Y46732D01*
X21673Y45483D02*
Y46732D01*
X21142Y45826D02*
Y46732D01*
X21201Y45821D02*
Y46732D01*
X21083Y45826D02*
Y46732D01*
X20197Y45827D02*
X21102D01*
X21260Y45809D02*
Y46732D01*
X21319Y45792D02*
Y46732D01*
X21570Y44764D02*
X26847D01*
X21505Y44705D02*
X26784D01*
X21417Y44646D02*
X26739D01*
X21268Y44587D02*
X26706D01*
X20197Y44527D02*
X26684D01*
X20197Y44468D02*
X26670D01*
X20197Y44409D02*
X26664D01*
X20197Y44350D02*
X26665D01*
X20197Y44173D02*
X26716D01*
X20197Y44114D02*
X26752D01*
X20197Y44291D02*
X26674D01*
X20197Y44232D02*
X26690D01*
X20197Y44055D02*
X26802D01*
X20197Y43996D02*
X26875D01*
X20197Y43937D02*
X25884D01*
X20965Y45809D02*
Y46732D01*
X21024Y45821D02*
Y46732D01*
X20846Y45768D02*
Y46732D01*
X20905Y45792D02*
Y46732D01*
X20728Y45696D02*
Y46732D01*
X20787Y45737D02*
Y46732D01*
X20610Y45577D02*
Y46732D01*
X20669Y45645D02*
Y46732D01*
X20197Y45768D02*
X20846D01*
X20197Y45709D02*
X20745D01*
X20197Y45650D02*
X20674D01*
X20197Y45590D02*
X20620D01*
X20551Y45483D02*
Y46732D01*
X20197Y45531D02*
X20578D01*
X20492Y45308D02*
Y46732D01*
X20197Y45472D02*
X20546D01*
X20197Y44882D02*
X20567D01*
X20197Y44823D02*
X20605D01*
X20197Y45000D02*
X20514D01*
X20197Y44941D02*
X20537D01*
X20197Y44646D02*
X20807D01*
X20197Y44587D02*
X20956D01*
X20197Y44764D02*
X20655D01*
X20197Y44705D02*
X20719D01*
X20197Y45413D02*
X20521D01*
X20197Y45354D02*
X20502D01*
X20197Y45295D02*
X20490D01*
X20197Y45236D02*
X20484D01*
X20197Y45118D02*
X20487D01*
X20197Y45059D02*
X20498D01*
X20197Y45177D02*
X20483D01*
X23386Y41385D02*
Y46732D01*
X23445Y41445D02*
Y46732D01*
X23268Y41267D02*
Y46732D01*
X23327Y41326D02*
Y46732D01*
X23150Y41149D02*
Y46732D01*
X23209Y41208D02*
Y46732D01*
X23031Y41031D02*
Y46732D01*
X23091Y41090D02*
Y46732D01*
X20197Y43878D02*
X25786D01*
X20197Y43819D02*
X25734D01*
X20197Y43760D02*
X25702D01*
X20197Y43701D02*
X25685D01*
X20197Y43524D02*
X25702D01*
X20197Y43464D02*
X25734D01*
X20197Y43642D02*
X25679D01*
X20197Y43583D02*
X25685D01*
X20197Y42874D02*
X25738D01*
X20197Y42815D02*
X25740D01*
X20197Y42992D02*
X25738D01*
X20197Y42933D02*
X25738D01*
X20197Y42638D02*
X25839D01*
X20197Y42579D02*
X25898D01*
X20197Y42756D02*
X25754D01*
X20197Y42697D02*
X25785D01*
X20197Y43287D02*
X25738D01*
X20197Y43228D02*
X25738D01*
X20197Y43405D02*
X25738D01*
X20197Y43346D02*
X25738D01*
X20197Y43110D02*
X25738D01*
X20197Y43051D02*
X25738D01*
X20197Y43169D02*
X25738D01*
X22913Y40913D02*
Y46732D01*
X22972Y40972D02*
Y46732D01*
X22795Y40795D02*
Y46732D01*
X22854Y40854D02*
Y46732D01*
X22677Y40677D02*
Y46732D01*
X22736Y40736D02*
Y46732D01*
X22559Y40559D02*
Y46732D01*
X22618Y40618D02*
Y46732D01*
X22441Y40441D02*
Y46732D01*
X22500Y40500D02*
Y46732D01*
X22323Y40322D02*
Y46732D01*
X22382Y40382D02*
Y46732D01*
X22205Y40204D02*
Y46732D01*
X22264Y40263D02*
Y46732D01*
X22087Y40108D02*
Y46732D01*
X22146Y40145D02*
Y46732D01*
X21968Y40049D02*
Y46732D01*
X22028Y40086D02*
Y46732D01*
X21909Y39987D02*
Y46732D01*
X21614Y38239D02*
Y44816D01*
X21791Y38211D02*
Y46732D01*
X21850Y38185D02*
Y46732D01*
X21732Y38228D02*
Y45086D01*
X21673Y38237D02*
Y44910D01*
X21555Y38232D02*
Y44749D01*
X21496Y38218D02*
Y44697D01*
X21437Y38194D02*
Y44657D01*
X21378Y38161D02*
Y44626D01*
X21319Y38113D02*
Y44602D01*
X21260Y38045D02*
Y44584D01*
X21201Y37929D02*
Y44573D01*
X27224Y40116D02*
Y40915D01*
X27283Y40150D02*
Y40915D01*
X26988Y40039D02*
Y40915D01*
X27165Y40059D02*
Y40915D01*
X26870Y40039D02*
Y40915D01*
X26929Y40039D02*
Y40915D01*
X26693Y40039D02*
Y40915D01*
X26811Y40039D02*
Y40915D01*
X26102Y42254D02*
Y42374D01*
X24360Y42254D02*
X26223D01*
X25984D02*
Y42492D01*
X26043Y42254D02*
Y42433D01*
X26575Y40076D02*
Y40915D01*
X26634Y40039D02*
Y40915D01*
X26161Y42254D02*
Y42315D01*
X26516Y40135D02*
Y40915D01*
X26398Y40253D02*
Y40915D01*
X26339Y40312D02*
Y40507D01*
X26279Y40859D02*
Y40915D01*
X26339Y40773D02*
Y40915D01*
X26493Y40157D02*
X27302D01*
X26552Y40098D02*
X27203D01*
X26457Y40194D02*
Y40915D01*
X26611Y40039D02*
X27151D01*
X26279Y40371D02*
Y40421D01*
X26260Y40391D02*
X26611Y40039D01*
X24262Y40098D02*
X25968D01*
X24299Y40157D02*
X25909D01*
X25057Y40915D02*
X25901D01*
X25007Y40866D02*
X25834D01*
X25807Y40836D02*
Y40915D01*
X24948Y40807D02*
X25786D01*
X24889Y40748D02*
X25757D01*
X25748Y40718D02*
Y40915D01*
X24830Y40689D02*
X25742D01*
X23590Y40866D02*
X23657D01*
X23531Y40807D02*
X23652D01*
X24267Y40126D02*
X25057Y40915D01*
X23472Y40748D02*
X23657D01*
X23413Y40689D02*
X23675D01*
X24653Y40512D02*
X25765D01*
X24594Y40453D02*
X25800D01*
X24771Y40630D02*
X25738D01*
X24712Y40571D02*
X25746D01*
X25846Y40305D02*
Y40402D01*
X24417Y40276D02*
X25849D01*
X24535Y40394D02*
X25846D01*
X24476Y40335D02*
X25846D01*
X23799Y40450D02*
Y40540D01*
X23858Y40476D02*
Y40511D01*
X23354Y40630D02*
X23706D01*
X23295Y40571D02*
X23758D01*
X23740Y40406D02*
Y40588D01*
X24358Y40216D02*
X25866D01*
X23681Y40330D02*
Y40674D01*
X27047Y40039D02*
Y40915D01*
X27106Y40039D02*
Y40915D01*
X26752Y40039D02*
Y40915D01*
X26811Y37977D02*
Y39626D01*
X26870Y37977D02*
Y39626D01*
X26398Y37967D02*
Y39670D01*
X26457Y37967D02*
Y39638D01*
X25907Y40159D02*
X26379Y39687D01*
X24140Y39921D02*
X26145D01*
X26279Y37967D02*
Y39786D01*
X26220Y37967D02*
Y39846D01*
X26339Y37967D02*
Y39727D01*
X26102Y37967D02*
Y39964D01*
X26161Y37967D02*
Y39905D01*
X27047Y37977D02*
Y39626D01*
X26526D02*
X27203D01*
X26929Y37977D02*
Y39626D01*
X26988Y37977D02*
Y39626D01*
X27224Y37977D02*
Y39609D01*
X27283Y37977D02*
Y39574D01*
X27106Y37977D02*
Y39626D01*
X27165Y37977D02*
Y39626D01*
X24050Y37972D02*
X26806D01*
X26471Y37913D02*
X26806D01*
X25556Y37967D02*
X26471D01*
Y37854D02*
X26806D01*
X26471Y37736D02*
X26806D01*
X26471Y37677D02*
X26806D01*
X26471Y37795D02*
X26806D01*
X25689Y37967D02*
Y40915D01*
X25748Y37967D02*
Y40562D01*
X25571Y37967D02*
Y40915D01*
X25630Y37967D02*
Y40915D01*
X25925Y37967D02*
Y40141D01*
X25984Y37967D02*
Y40082D01*
X25807Y37967D02*
Y40443D01*
X25866Y37967D02*
Y40217D01*
X23622Y38239D02*
Y40898D01*
X23563Y38233D02*
Y40839D01*
X23504Y38220D02*
Y40780D01*
X23445Y38198D02*
Y40721D01*
X23386Y38166D02*
Y40662D01*
X23327Y38121D02*
Y40603D01*
X23268Y38056D02*
Y40544D01*
X26043Y37967D02*
Y40023D01*
X24202Y39980D02*
X26086D01*
X24240Y40039D02*
X26027D01*
X24072Y37913D02*
X25556D01*
X24089Y37736D02*
X25556D01*
X24079Y37677D02*
X25556D01*
X24086Y37854D02*
X25556D01*
X24091Y37795D02*
X25556D01*
X23799Y38208D02*
Y39904D01*
X23858Y38180D02*
Y39878D01*
X23681Y38237D02*
Y40025D01*
X23740Y38226D02*
Y39948D01*
X24035Y38001D02*
Y39872D01*
X23976Y38085D02*
Y39863D01*
X23917Y38141D02*
Y39865D01*
X20197Y42401D02*
X26075D01*
X20197Y42342D02*
X26134D01*
X20197Y42520D02*
X25957D01*
X20197Y42461D02*
X26016D01*
X20197Y42283D02*
X26193D01*
X20197Y42224D02*
X24241D01*
X22114Y40114D02*
X24179Y42179D01*
X20197Y42165D02*
X24166D01*
X20197Y42106D02*
X24107D01*
X20197Y42047D02*
X24047D01*
X20197Y41988D02*
X23988D01*
X20197Y41929D02*
X23929D01*
X20197Y41870D02*
X23870D01*
X20197Y41811D02*
X23811D01*
X20197Y41752D02*
X23752D01*
X20197Y41693D02*
X23693D01*
X23236Y40512D02*
X23857D01*
X23177Y40453D02*
X23804D01*
X23118Y40394D02*
X23728D01*
X23059Y40335D02*
X23684D01*
X23000Y40276D02*
X23657D01*
X22822Y40098D02*
X23652D01*
X22941Y40216D02*
X23644D01*
X22882Y40157D02*
X23642D01*
X22704Y39980D02*
X23711D01*
X22645Y39921D02*
X23773D01*
X20197Y41634D02*
X23634D01*
X22763Y40039D02*
X23674D01*
X22586Y39862D02*
X26204D01*
X22527Y39803D02*
X26263D01*
X22476Y39752D02*
X23702Y40978D01*
X20197Y41102D02*
X23103D01*
X20197Y41043D02*
X23044D01*
X20197Y40984D02*
X22984D01*
X20197Y40925D02*
X22925D01*
X20197Y40866D02*
X22866D01*
X20197Y40807D02*
X22807D01*
X20197Y40748D02*
X22748D01*
X20197Y40689D02*
X22689D01*
X20197Y41575D02*
X23575D01*
X20197Y41516D02*
X23516D01*
X20197Y41457D02*
X23457D01*
X20197Y41398D02*
X23398D01*
X20197Y41339D02*
X23339D01*
X20197Y41279D02*
X23280D01*
X20197Y41220D02*
X23221D01*
X20197Y41161D02*
X23162D01*
X20197Y40216D02*
X22217D01*
X20197Y40157D02*
X22158D01*
X20197Y40098D02*
X22056D01*
X20197Y40039D02*
X21957D01*
X20197Y39980D02*
X21905D01*
X20197Y39921D02*
X21873D01*
X20197Y39862D02*
X21856D01*
X20197Y39803D02*
X21850D01*
X20197Y40630D02*
X22630D01*
X20197Y40571D02*
X22571D01*
X20197Y40512D02*
X22512D01*
X20197Y40453D02*
X22453D01*
X20197Y40394D02*
X22394D01*
X20197Y40335D02*
X22335D01*
X20197Y40276D02*
X22276D01*
X22913Y38144D02*
Y40189D01*
X22854Y38182D02*
Y40130D01*
X22795Y38210D02*
Y40071D01*
X22736Y38227D02*
Y40012D01*
X23209Y37950D02*
Y40485D01*
X23091Y37809D02*
Y40366D01*
X23031Y38008D02*
Y40307D01*
X22972Y38089D02*
Y40248D01*
X22475Y39744D02*
X26322D01*
X22457Y39685D02*
X26381D01*
X22618Y38239D02*
Y39894D01*
X22677Y38237D02*
Y39953D01*
X22559Y38233D02*
Y39835D01*
X22500Y38219D02*
Y39776D01*
X22441Y38196D02*
Y39651D01*
X22971Y38090D02*
X23296D01*
X23017Y38031D02*
X23251D01*
X23050Y37972D02*
X23218D01*
X23072Y37913D02*
X23196D01*
X23086Y37854D02*
X23182D01*
X23079Y37677D02*
X23188D01*
X23091Y37795D02*
X23177D01*
X23089Y37736D02*
X23179D01*
X22426Y39626D02*
X27203D01*
X22374Y39567D02*
X27302D01*
X21798Y38209D02*
X22470D01*
X22798D02*
X23470D01*
X22382Y38163D02*
Y39574D01*
X22906Y38150D02*
X23362D01*
X21906D02*
X22362D01*
X22323Y38117D02*
Y39530D01*
X21971Y38090D02*
X22296D01*
X21909Y38147D02*
Y39620D01*
X21968Y38093D02*
Y39557D01*
X22264Y38050D02*
Y39504D01*
X22205Y37940D02*
Y39491D01*
X22028Y38015D02*
Y39520D01*
X22087Y37847D02*
Y39498D01*
X20197Y39626D02*
X21905D01*
X20197Y39567D02*
X21957D01*
X20197Y39744D02*
X21856D01*
X20197Y39685D02*
X21873D01*
X20197Y39508D02*
X22056D01*
X20197Y38209D02*
X21470D01*
X20197Y38150D02*
X21362D01*
X20197Y38090D02*
X21296D01*
X22017Y38031D02*
X22251D01*
X22050Y37972D02*
X22218D01*
X20197Y38031D02*
X21251D01*
X22072Y37913D02*
X22196D01*
X22086Y37854D02*
X22182D01*
X22079Y37677D02*
X22188D01*
X22091Y37795D02*
X22177D01*
X22089Y37736D02*
X22179D01*
X20197Y37972D02*
X21218D01*
X20197Y37913D02*
X21196D01*
X20197Y37854D02*
X21182D01*
X20197Y37795D02*
X21177D01*
X20197Y37677D02*
X21188D01*
X20197Y37618D02*
X21207D01*
X20197Y37736D02*
X21179D01*
X31004Y37030D02*
Y40585D01*
X31009Y37027D02*
X35573D01*
X30886Y37066D02*
Y40585D01*
X30945Y37054D02*
Y40585D01*
X31085Y36968D02*
X35526D01*
X31063Y36990D02*
Y40585D01*
X31112Y36002D02*
Y36568D01*
X30768Y37054D02*
Y40585D01*
X30827Y37066D02*
Y40585D01*
X30650Y36990D02*
Y40585D01*
X30709Y37030D02*
Y40585D01*
X30600Y36002D02*
Y36568D01*
X30590Y36921D02*
Y40585D01*
Y35992D02*
Y36583D01*
X31112Y36555D02*
X35113D01*
X31112Y36496D02*
X35054D01*
X31112Y36437D02*
X34995D01*
X31112Y36378D02*
X34936D01*
X31112Y36319D02*
X34877D01*
X31112Y36260D02*
X34818D01*
X31112Y36201D02*
X34759D01*
X31112Y36142D02*
X34700D01*
X31112Y36083D02*
X34641D01*
X31112Y36024D02*
X34582D01*
X31112Y36002D02*
X31346Y35768D01*
X30815Y35492D02*
X30898D01*
X30856Y35534D02*
X31059Y35331D01*
X30696Y35374D02*
X31016D01*
X29914Y35315D02*
X30600Y36002D01*
X30756Y35433D02*
X30957D01*
X29173Y35315D02*
Y40915D01*
X29232Y35315D02*
Y40915D01*
X29055Y35315D02*
Y40915D01*
X29114Y35315D02*
Y40915D01*
X29587Y35315D02*
Y40915D01*
X29646Y35315D02*
Y40915D01*
X29291Y35315D02*
Y40915D01*
X29527Y35315D02*
Y40915D01*
X28701Y35315D02*
Y40915D01*
X28760Y35315D02*
Y40915D01*
X28583Y35315D02*
Y40915D01*
X28642Y35315D02*
Y40915D01*
X28937Y35315D02*
Y40915D01*
X28996Y35315D02*
Y40915D01*
X28819Y35315D02*
Y40915D01*
X28878Y35315D02*
Y40915D01*
X30472Y35874D02*
Y40585D01*
X30531Y35933D02*
Y40585D01*
X30354Y35756D02*
Y40585D01*
X30413Y35815D02*
Y40585D01*
X30236Y35637D02*
Y40617D01*
X30295Y35696D02*
Y40593D01*
X30118Y35519D02*
Y40721D01*
X30177Y35578D02*
Y40662D01*
X30000Y35401D02*
Y40839D01*
X30059Y35460D02*
Y40780D01*
X29882Y35315D02*
Y40915D01*
X29941Y35342D02*
Y40898D01*
X29764Y35315D02*
Y40915D01*
X29823Y35315D02*
Y40915D01*
X29705Y35315D02*
Y40915D01*
X31063Y32643D02*
Y35327D01*
X31122Y32648D02*
Y35285D01*
X30945Y32585D02*
Y35445D01*
X31004Y32624D02*
Y35386D01*
X30886Y32527D02*
Y35504D01*
X30827Y32468D02*
Y35504D01*
X30637Y35315D02*
X31077D01*
X30578Y35256D02*
X31987D01*
X30201Y34878D02*
X30856Y35534D01*
X30768Y32409D02*
Y35445D01*
X30709Y32350D02*
Y35386D01*
X30650Y32291D02*
Y35327D01*
X30590Y32232D02*
Y35268D01*
X30531Y32173D02*
Y35209D01*
X30519Y35197D02*
X31888D01*
X30460Y35138D02*
X31836D01*
X30401Y35079D02*
X31804D01*
X30342Y35020D02*
X31787D01*
X30472Y32114D02*
Y35150D01*
X30413Y32055D02*
Y35091D01*
X30354Y31996D02*
Y35032D01*
X30295Y31937D02*
Y34973D01*
X30224Y34902D02*
X31787D01*
X30156Y34842D02*
X31805D01*
X30283Y34961D02*
X31781D01*
X30236Y31878D02*
Y34914D01*
X30177Y31819D02*
Y34857D01*
X30118Y31759D02*
Y34823D01*
X30059Y31700D02*
Y34806D01*
X29941Y31582D02*
Y34803D01*
X30000Y31641D02*
Y34803D01*
X29764Y31405D02*
Y34803D01*
X29882Y31523D02*
Y34803D01*
X29646Y31287D02*
Y34803D01*
X29705Y31346D02*
Y34803D01*
X29409Y35315D02*
Y40915D01*
X29468Y35315D02*
Y40915D01*
X29350Y35315D02*
Y40915D01*
X28524Y34173D02*
Y34803D01*
X29527Y34035D02*
Y34803D01*
X29587Y31228D02*
Y34803D01*
X29409Y34124D02*
Y34803D01*
X29468Y34094D02*
Y34803D01*
X29114Y34173D02*
Y34803D01*
X29173Y34173D02*
Y34803D01*
X28996Y34173D02*
Y34803D01*
X29055Y34173D02*
Y34803D01*
X29350Y34124D02*
Y34803D01*
X29823Y31464D02*
Y34803D01*
X29232Y34173D02*
Y34803D01*
X29291Y34144D02*
Y34803D01*
X28701Y34173D02*
Y34803D01*
X28760Y34173D02*
Y34803D01*
X28583Y34173D02*
Y34803D01*
X28642Y34173D02*
Y34803D01*
X28878Y34173D02*
Y34803D01*
X28937Y34173D02*
Y34803D01*
X28819Y34173D02*
Y34803D01*
X27721Y37441D02*
X35669D01*
X27721Y37382D02*
X35669D01*
X27721Y37559D02*
X35669D01*
X27721Y37500D02*
X35669D01*
X27721Y37323D02*
X35669D01*
X27721Y37264D02*
X35669D01*
X27721Y37205D02*
X35657D01*
X27721Y37146D02*
X35613D01*
X27721Y37087D02*
X35587D01*
X23972Y37027D02*
X30704D01*
X24008Y36968D02*
X30628D01*
X27415Y36909D02*
X30583D01*
X27520Y36850D02*
X30557D01*
X27653Y36673D02*
X30551D01*
X27582Y36791D02*
X30544D01*
X27624Y36732D02*
X30542D01*
X27681Y36496D02*
X30600D01*
X27674Y36437D02*
X30600D01*
X27671Y36614D02*
X30573D01*
X27680Y36555D02*
X30600D01*
X27591Y36260D02*
X30600D01*
X27534Y36201D02*
X30600D01*
X27657Y36378D02*
X30600D01*
X27630Y36319D02*
X30600D01*
X27442Y36142D02*
X30600D01*
X20197Y36083D02*
X30600D01*
X20197Y36024D02*
X30600D01*
X20197Y35965D02*
X30563D01*
X20197Y35905D02*
X30504D01*
X20197Y35846D02*
X30445D01*
X20197Y35787D02*
X30386D01*
X27721Y37062D02*
Y37977D01*
X27402Y36914D02*
Y37062D01*
X27283Y36937D02*
Y37062D01*
X27342Y36930D02*
Y37062D01*
X27579Y36795D02*
Y37062D01*
X27638Y36707D02*
Y37062D01*
X27461Y36889D02*
Y37062D01*
X27520Y36850D02*
Y37062D01*
X27224Y36936D02*
Y37062D01*
X26806D02*
X27721D01*
X27106Y36907D02*
Y37062D01*
X27165Y36926D02*
Y37062D01*
X26988Y36834D02*
Y37062D01*
X27047Y36877D02*
Y37062D01*
X26256Y36850D02*
X27008D01*
X26323Y36791D02*
X26946D01*
X26212Y36142D02*
X27085D01*
X26349Y36260D02*
X26936D01*
X26295Y36201D02*
X26993D01*
X20197Y35728D02*
X30327D01*
X20197Y35669D02*
X30268D01*
X26137Y36909D02*
X27112D01*
X20197Y35610D02*
X30209D01*
X20197Y35551D02*
X30150D01*
X22958Y35492D02*
X30091D01*
X23044Y35433D02*
X30032D01*
X28465Y35315D02*
Y40915D01*
X28524Y35315D02*
Y40915D01*
X28228Y35315D02*
Y40915D01*
X28405Y35315D02*
Y40915D01*
Y34173D02*
Y34803D01*
X28465Y34173D02*
Y34803D01*
X28287Y35315D02*
Y40915D01*
X28346Y35315D02*
Y40915D01*
X28169Y35315D02*
Y40915D01*
X26744Y35374D02*
X29973D01*
X28051Y35315D02*
Y40915D01*
X28110Y35315D02*
Y40915D01*
X26851Y35315D02*
X29914D01*
X26810Y34803D02*
X30020D01*
X27933Y35315D02*
Y40915D01*
X27992Y35315D02*
Y40915D01*
X28051Y31346D02*
Y34803D01*
X28346Y34124D02*
Y34803D01*
X27933Y31464D02*
Y34803D01*
X27992Y31405D02*
Y34803D01*
X28228Y31169D02*
Y34803D01*
X28287Y31110D02*
Y34803D01*
X28110Y31287D02*
Y34803D01*
X28169Y31228D02*
Y34803D01*
X20197Y34665D02*
X31894D01*
X20197Y34606D02*
X31915D01*
X26771Y34783D02*
X31836D01*
X20197Y34724D02*
X31888D01*
X20197Y34547D02*
X31962D01*
X20197Y34488D02*
X32021D01*
X27874Y31523D02*
Y34803D01*
X27638Y35315D02*
Y36333D01*
X27579Y35315D02*
Y36245D01*
X27520Y35315D02*
Y36189D01*
X27461Y35315D02*
Y36151D01*
X27815Y35315D02*
Y40915D01*
X27874Y35315D02*
Y40915D01*
X27756Y35315D02*
Y40915D01*
X27697Y35315D02*
Y37062D01*
X27106Y35315D02*
Y36132D01*
X27165Y35315D02*
Y36113D01*
X26988Y35315D02*
Y36205D01*
X27047Y35315D02*
Y36162D01*
X27402Y35315D02*
Y36125D01*
X27342Y35315D02*
Y36109D01*
X27224Y35315D02*
Y36103D01*
X27283Y35315D02*
Y36102D01*
X27520Y31878D02*
Y34803D01*
X27579Y31819D02*
Y34803D01*
X27402Y31996D02*
Y34803D01*
X27461Y31937D02*
Y34803D01*
X27756Y31641D02*
Y34803D01*
X27815Y31582D02*
Y34803D01*
X27638Y31760D02*
Y34803D01*
X27697Y31701D02*
Y34803D01*
X27106Y32291D02*
Y34803D01*
X27165Y32232D02*
Y34803D01*
X26988Y32409D02*
Y34803D01*
X27047Y32350D02*
Y34803D01*
X27283Y32114D02*
Y34803D01*
X27342Y32055D02*
Y34803D01*
X27224Y32173D02*
Y34803D01*
X29527Y33543D02*
X33652D01*
X29527Y33484D02*
X33652D01*
X29527Y33661D02*
X33575D01*
X29527Y33602D02*
X33612D01*
X29527Y33307D02*
X33652D01*
X29527Y33248D02*
X33652D01*
X29527Y33425D02*
X33652D01*
X29527Y33366D02*
X33652D01*
X29301Y34134D02*
X33661D01*
X29488Y34075D02*
X33661D01*
X29527Y34016D02*
X33629D01*
X29527Y33957D02*
X33585D01*
X29527Y33898D02*
X33559D01*
X29527Y33720D02*
X33553D01*
X29527Y33839D02*
X33546D01*
X29527Y33779D02*
X33544D01*
X29527Y33012D02*
X33652D01*
X29527Y32953D02*
X33652D01*
X30795Y31713D02*
X33083D01*
X30736Y31653D02*
X33142D01*
X30559Y31476D02*
X33319D01*
X30500Y31417D02*
X33378D01*
X30677Y31594D02*
X33201D01*
X30618Y31535D02*
X33260D01*
X29527Y33071D02*
X33652D01*
X29527Y32894D02*
X33652D01*
X29527Y33189D02*
X33652D01*
X29527Y33130D02*
X33652D01*
X29527Y32716D02*
X33652D01*
X29527Y32657D02*
X33652D01*
X29527Y32835D02*
X33652D01*
X29527Y32776D02*
X33652D01*
X31112Y32648D02*
X32766D01*
X29527Y32598D02*
X30961D01*
X29527Y32539D02*
X30898D01*
X29527Y32480D02*
X30839D01*
X29527Y32421D02*
X30780D01*
X29527Y32185D02*
X30544D01*
X29439Y34124D02*
X29527Y34035D01*
Y32362D02*
X30721D01*
X29262Y34173D02*
X29311Y34124D01*
X29439D01*
X29527Y32303D02*
X30662D01*
X29527Y32244D02*
X30603D01*
X29527Y32126D02*
X30484D01*
X29527Y32067D02*
X30425D01*
X31090Y32008D02*
X32788D01*
X31031Y31949D02*
X32847D01*
X29527Y32008D02*
X30366D01*
X29527Y31949D02*
X30307D01*
X30913Y31831D02*
X32965D01*
X30854Y31772D02*
X33024D01*
X29527Y31890D02*
X30248D01*
X30972D02*
X32906D01*
X29527Y31831D02*
X30189D01*
X29527Y31772D02*
X30130D01*
X29527Y31713D02*
X30071D01*
X29527Y31653D02*
X30012D01*
X29527Y31594D02*
X29953D01*
X29527Y31535D02*
X29894D01*
X29527Y31476D02*
X29835D01*
X30827Y30197D02*
Y31744D01*
X30768Y30197D02*
Y31685D01*
X30709Y30197D02*
Y31626D01*
X30650Y30197D02*
Y31567D01*
X31063Y30197D02*
Y31981D01*
X31004Y30197D02*
Y31922D01*
X30945Y30197D02*
Y31862D01*
X30886Y30197D02*
Y31803D01*
X30441Y31358D02*
X33437D01*
X30382Y31299D02*
X33496D01*
X29527Y31169D02*
X30931Y32572D01*
X29748Y30666D02*
X31218Y32136D01*
X30590Y30197D02*
Y31508D01*
X30531Y30197D02*
Y31449D01*
X30472Y30197D02*
Y31390D01*
X30413Y30197D02*
Y31331D01*
X30204Y31122D02*
X33674D01*
X30145Y31063D02*
X33749D01*
X30322Y31240D02*
X33555D01*
X30263Y31181D02*
X33615D01*
X30354Y30197D02*
Y31272D01*
X30295Y30197D02*
Y31213D01*
X30236Y30197D02*
Y31154D01*
X30177Y30197D02*
Y31095D01*
X29968Y30886D02*
X38548D01*
X29909Y30827D02*
X38600D01*
X30086Y31004D02*
X34296D01*
X30027Y30945D02*
X38513D01*
X29791Y30709D02*
X39498D01*
X29730Y30650D02*
X39498D01*
X29850Y30768D02*
X38679D01*
X29882Y30197D02*
Y30799D01*
X29823Y30197D02*
Y30740D01*
X29764Y30197D02*
Y30681D01*
X29705Y30197D02*
Y30631D01*
X30118Y30197D02*
Y31036D01*
X30059Y30197D02*
Y30977D01*
X30000Y30197D02*
Y30918D01*
X29941Y30197D02*
Y30859D01*
X29527Y31417D02*
X29776D01*
X29527Y31358D02*
X29717D01*
X29527Y31299D02*
X29658D01*
X29527Y31240D02*
X29599D01*
X29527Y31169D02*
Y34035D01*
Y31169D02*
Y34035D01*
X29350Y30197D02*
Y30591D01*
X29409Y30197D02*
Y30591D01*
X29232Y30197D02*
Y30591D01*
X29291Y30197D02*
Y30591D01*
X29646Y30197D02*
Y30603D01*
X29587Y30197D02*
Y30591D01*
X29468Y30197D02*
Y30591D01*
X29527Y30197D02*
Y30591D01*
X29173D02*
X29567D01*
X29173Y30197D02*
Y30591D01*
X29055Y30197D02*
Y30591D01*
X29114Y30197D02*
Y30591D01*
X28937Y30197D02*
Y30591D01*
X28996Y30197D02*
Y30591D01*
X28878Y30197D02*
Y30591D01*
X20197Y34311D02*
X33661D01*
X20197Y34252D02*
X33661D01*
X20197Y34429D02*
X32080D01*
X20197Y34370D02*
X32148D01*
X20197Y34193D02*
X33661D01*
X28396Y34173D02*
X29262D01*
X28297Y34075D02*
X28396Y34173D01*
X20197Y34134D02*
X28356D01*
X20197Y33957D02*
X28297D01*
X20197Y33898D02*
X28297D01*
X20197Y34075D02*
X28297D01*
X20197Y34016D02*
X28297D01*
X20197Y33720D02*
X28297D01*
X20197Y33661D02*
X28297D01*
X20197Y33839D02*
X28297D01*
X20197Y33779D02*
X28297D01*
X25822Y33071D02*
X28297D01*
X25822Y33012D02*
X28297D01*
X20197Y33189D02*
X28297D01*
X20197Y33130D02*
X28297D01*
X26563Y32835D02*
X28297D01*
X26622Y32776D02*
X28297D01*
X25822Y32953D02*
X28297D01*
X26477Y32894D02*
X28297D01*
X20197Y33484D02*
X28297D01*
X20197Y33425D02*
X28297D01*
X20197Y33602D02*
X28297D01*
X20197Y33543D02*
X28297D01*
X20197Y33307D02*
X28297D01*
X20197Y33248D02*
X28297D01*
X20197Y33366D02*
X28297D01*
X27271Y32126D02*
X28297D01*
X27330Y32067D02*
X28297D01*
X27153Y32244D02*
X28297D01*
X27212Y32185D02*
X28297D01*
X27508Y31890D02*
X28297D01*
X27567Y31831D02*
X28297D01*
X27390Y32008D02*
X28297D01*
X27449Y31949D02*
X28297D01*
X26799Y32598D02*
X28297D01*
X26858Y32539D02*
X28297D01*
X26681Y32716D02*
X28297D01*
X26740Y32657D02*
X28297D01*
X27035Y32362D02*
X28297D01*
X27094Y32303D02*
X28297D01*
X26917Y32480D02*
X28297D01*
X26976Y32421D02*
X28297D01*
X27744Y31653D02*
X28297D01*
X27803Y31594D02*
X28297D01*
X27626Y31772D02*
X28297D01*
X27685Y31713D02*
X28297D01*
X27980Y31417D02*
X28297D01*
X28039Y31358D02*
X28297D01*
X27862Y31535D02*
X28297D01*
X27921Y31476D02*
X28297D01*
X25639Y31594D02*
X27079D01*
X25695Y31535D02*
X27138D01*
X20197Y31713D02*
X26961D01*
X25551Y31653D02*
X27020D01*
X25759Y31417D02*
X27256D01*
X25775Y31358D02*
X27315D01*
X25733Y31476D02*
X27197D01*
X28583Y30197D02*
Y30591D01*
X28189D02*
X28652D01*
X28297Y31102D02*
Y34075D01*
X28216Y31181D02*
X28297D01*
X28524Y30197D02*
Y30591D01*
X28642Y30197D02*
Y30591D01*
X28287Y30197D02*
Y30591D01*
X28465Y30197D02*
Y30591D01*
X28098Y31299D02*
X28297D01*
X28157Y31240D02*
X28297D01*
X26559Y32838D02*
X28295Y31102D01*
X28169Y30197D02*
Y30591D01*
X28051Y30197D02*
Y30631D01*
X28110Y30197D02*
Y30603D01*
X28652Y30591D02*
X29173D01*
X20197Y30590D02*
X39498D01*
X28701Y30197D02*
Y30591D01*
X28760Y30197D02*
Y30591D01*
X28405Y30197D02*
Y30591D01*
X28819Y30197D02*
Y30591D01*
X28228Y30197D02*
Y30591D01*
X28346Y30197D02*
Y30591D01*
X20197Y30413D02*
X39498D01*
X20197Y30354D02*
X39498D01*
X20197Y30531D02*
X39498D01*
X20197Y30472D02*
X39498D01*
X20197Y30236D02*
X39498D01*
X20197Y30197D02*
X39498D01*
X20197Y30295D02*
X39498D01*
X27283Y30197D02*
Y31390D01*
X27342Y30197D02*
Y31331D01*
X27165Y30197D02*
Y31508D01*
X27224Y30197D02*
Y31449D01*
X27520Y30197D02*
Y31154D01*
X27579Y30197D02*
Y31095D01*
X27402Y30197D02*
Y31272D01*
X27461Y30197D02*
Y31213D01*
X25771Y31181D02*
X27492D01*
X25751Y31122D02*
X27552D01*
X25782Y31299D02*
X27374D01*
X25780Y31240D02*
X27433D01*
X26272Y32402D02*
X28008Y30666D01*
X27106Y30197D02*
Y31567D01*
X26988Y30197D02*
Y31685D01*
X27047Y30197D02*
Y31626D01*
X27697Y30197D02*
Y30977D01*
X27756Y30197D02*
Y30918D01*
X25722Y31063D02*
X27611D01*
X27638Y30197D02*
Y31036D01*
X27933Y30197D02*
Y30741D01*
X27992Y30197D02*
Y30681D01*
X27815Y30197D02*
Y30859D01*
X27874Y30197D02*
Y30800D01*
X25505Y30886D02*
X27788D01*
X20197Y30827D02*
X27847D01*
X25679Y31004D02*
X27670D01*
X25615Y30945D02*
X27729D01*
X20197Y30709D02*
X27965D01*
X20197Y30650D02*
X28026D01*
X20197Y30768D02*
X27906D01*
X26471Y37441D02*
X26806D01*
X26471Y37382D02*
X26806D01*
X26471Y37618D02*
X26806D01*
X26471Y37500D02*
X26806D01*
X26870Y36660D02*
Y37062D01*
X26929Y36770D02*
Y37062D01*
X26806D02*
Y37977D01*
X26471Y37052D02*
Y37967D01*
Y37264D02*
X26806D01*
X26471Y37205D02*
X26806D01*
X26471Y37559D02*
X26806D01*
X26471Y37323D02*
X26806D01*
X26471Y37146D02*
X26806D01*
X26471Y37087D02*
X26806D01*
X25748Y36833D02*
Y37052D01*
X25556D02*
X26471D01*
X26220Y36873D02*
Y37052D01*
X26279Y36833D02*
Y37052D01*
X26102Y36918D02*
Y37052D01*
X26161Y36901D02*
Y37052D01*
X26368Y36732D02*
X26904D01*
X26399Y36673D02*
X26875D01*
X26339Y36773D02*
Y37052D01*
X26398Y36676D02*
Y37052D01*
X25984Y36927D02*
Y37052D01*
X26043Y36927D02*
Y37052D01*
X25925Y36918D02*
Y37052D01*
X24032Y36909D02*
X25891D01*
X25807Y36873D02*
Y37052D01*
X25866Y36901D02*
Y37052D01*
X24046Y36850D02*
X25771D01*
X24052Y36791D02*
X25705D01*
X23994Y37500D02*
X25556D01*
X23939Y37441D02*
X25556D01*
X24061Y37618D02*
X25556D01*
X24034Y37559D02*
X25556D01*
Y37052D02*
Y37967D01*
X24035Y36898D02*
Y37562D01*
X23976Y37021D02*
Y37478D01*
X23917Y37089D02*
Y37422D01*
X23856Y37382D02*
X25556D01*
X23445Y37154D02*
Y37365D01*
X23799Y37166D02*
Y37355D01*
X23386Y37118D02*
Y37397D01*
X23858Y37134D02*
Y37383D01*
X23268Y36983D02*
Y37507D01*
X23327Y37065D02*
Y37442D01*
X23839Y37146D02*
X25556D01*
X23920Y37087D02*
X25556D01*
X23740Y37186D02*
Y37337D01*
X23681Y37197D02*
Y37326D01*
X25689Y36773D02*
Y37052D01*
X24049Y36732D02*
X25660D01*
X25630Y36675D02*
Y37052D01*
X24038Y36673D02*
X25629D01*
X23563Y37194D02*
Y37330D01*
X23622Y37199D02*
Y37324D01*
X23504Y37179D02*
Y37343D01*
X23091Y36791D02*
X23216D01*
X26693Y35386D02*
Y39626D01*
X26752Y35371D02*
Y39626D01*
X26575Y35380D02*
Y39626D01*
X26634Y35388D02*
Y39626D01*
X26516Y35359D02*
Y39626D01*
X26811Y35344D02*
Y37062D01*
X25571Y35315D02*
Y37052D01*
X26457Y35324D02*
Y37052D01*
X25216Y35315D02*
Y40915D01*
X25276Y35315D02*
Y40915D01*
X25098Y35315D02*
Y40915D01*
X25157Y35315D02*
Y40915D01*
X25453Y35315D02*
Y40915D01*
X25512Y35315D02*
Y40915D01*
X25335Y35315D02*
Y40915D01*
X25394Y35315D02*
Y40915D01*
X26419Y36614D02*
X26856D01*
X26429Y36555D02*
X26847D01*
X26432Y36496D02*
X26846D01*
X26870Y35315D02*
Y36379D01*
X26411Y36378D02*
X26870D01*
X26425Y36437D02*
X26854D01*
X24017Y36614D02*
X25609D01*
X23985Y36555D02*
X25598D01*
X23939Y36496D02*
X25596D01*
X23871Y36437D02*
X25602D01*
X24803Y35315D02*
Y40662D01*
X24744Y35315D02*
Y40603D01*
X24685Y35315D02*
Y40544D01*
X24626Y35315D02*
Y40484D01*
X25039Y35315D02*
Y40898D01*
X24980Y35315D02*
Y40839D01*
X24921Y35315D02*
Y40780D01*
X24862Y35315D02*
Y40721D01*
X24331Y35315D02*
Y40189D01*
X24272Y35315D02*
Y40130D01*
X23150Y35315D02*
Y40425D01*
X24213Y35315D02*
Y39993D01*
X24567Y35315D02*
Y40425D01*
X24508Y35315D02*
Y40366D01*
X24449Y35315D02*
Y40307D01*
X24390Y35315D02*
Y40248D01*
X23917Y35315D02*
Y36474D01*
X23858Y35315D02*
Y36429D01*
X23799Y35315D02*
Y36397D01*
X24153Y35315D02*
Y39931D01*
X24094Y35315D02*
Y39894D01*
X24035Y35315D02*
Y36665D01*
X23976Y35315D02*
Y36542D01*
X23504Y35315D02*
Y36384D01*
X23386Y35315D02*
Y36445D01*
X23445Y35315D02*
Y36409D01*
X23268Y35315D02*
Y36580D01*
X23327Y35315D02*
Y36498D01*
X23209Y35315D02*
Y37613D01*
X22994Y37500D02*
X23273D01*
X22939Y37441D02*
X23328D01*
X23061Y37618D02*
X23207D01*
X23034Y37559D02*
X23234D01*
X23031Y37008D02*
Y37555D01*
X22856Y37382D02*
X23411D01*
X22972Y37089D02*
Y37474D01*
X22913Y37144D02*
Y37419D01*
X22795Y37210D02*
Y37353D01*
X21939Y37441D02*
X22328D01*
X21856Y37382D02*
X22411D01*
X22854Y37182D02*
Y37381D01*
X22441Y37196D02*
Y37367D01*
X22323Y37117D02*
Y37446D01*
X22382Y37163D02*
Y37400D01*
X22736Y37227D02*
Y37336D01*
X22808Y37205D02*
X25556D01*
X22677Y37237D02*
Y37326D01*
X22618Y37239D02*
Y37324D01*
X22911Y37146D02*
X23428D01*
X22975Y37087D02*
X23348D01*
X23020Y37027D02*
X23296D01*
X23051Y36968D02*
X23260D01*
X20197Y37323D02*
X25556D01*
X20197Y37264D02*
X25556D01*
X22500Y37219D02*
Y37344D01*
X22559Y37233D02*
Y37330D01*
X22091Y37205D02*
X22460D01*
X22091Y37146D02*
X22357D01*
X22091Y37087D02*
X22293D01*
X22034Y37559D02*
X22234D01*
X21994Y37500D02*
X22273D01*
X22061Y37618D02*
X22207D01*
X21909Y37239D02*
Y37416D01*
X22087Y37239D02*
Y37716D01*
X22264Y37050D02*
Y37513D01*
X22028Y37239D02*
Y37548D01*
X21968Y37239D02*
Y37470D01*
X20197Y37441D02*
X21328D01*
X20197Y37559D02*
X21234D01*
X20197Y37500D02*
X21273D01*
X21319Y37239D02*
Y37450D01*
X21378Y37239D02*
Y37402D01*
X21201Y37239D02*
Y37634D01*
X21260Y37239D02*
Y37518D01*
X21673Y37239D02*
Y37326D01*
X21614Y37239D02*
Y37324D01*
X21496Y37239D02*
Y37345D01*
X21555Y37239D02*
Y37331D01*
X21850Y37239D02*
Y37378D01*
X22091Y37027D02*
X22248D01*
X21791Y37239D02*
Y37352D01*
X21732Y37239D02*
Y37335D01*
X21437Y37239D02*
Y37369D01*
X21176Y37239D02*
X22091D01*
X20197Y37382D02*
X21411D01*
X20197Y37205D02*
X21176D01*
X20197Y37087D02*
X21176D01*
X20197Y37027D02*
X21176D01*
X20197Y37146D02*
X21176D01*
X23073Y36909D02*
X23236D01*
X23086Y36850D02*
X23221D01*
X23091Y36809D02*
Y37754D01*
X23089Y36732D02*
X23219D01*
X23078Y36673D02*
X23230D01*
X23060Y36614D02*
X23251D01*
X23091Y35376D02*
Y36754D01*
X22205Y30197D02*
Y36623D01*
Y36940D02*
Y37623D01*
X22091Y36968D02*
X22216D01*
X22091Y36909D02*
X22195D01*
X22091Y36850D02*
X22182D01*
X22091Y36614D02*
X22208D01*
X22091Y36732D02*
X22179D01*
X22091Y36673D02*
X22189D01*
X22935Y36437D02*
X23397D01*
X22849Y36378D02*
X23525D01*
X23031Y36555D02*
X23282D01*
X22991Y36496D02*
X23328D01*
X23031Y35444D02*
Y36555D01*
X22972Y35485D02*
Y36474D01*
X22913Y35509D02*
Y36419D01*
X22854Y35520D02*
Y36381D01*
X22091Y36437D02*
X22333D01*
X22091Y36378D02*
X22418D01*
X22091Y36555D02*
X22236D01*
X22091Y36496D02*
X22276D01*
X22323Y30197D02*
Y36446D01*
X22382Y30197D02*
Y36400D01*
X22264Y30197D02*
Y36513D01*
X20787Y30197D02*
Y44657D01*
X20846Y30197D02*
Y44626D01*
X20669Y30197D02*
Y44749D01*
X20728Y30197D02*
Y44697D01*
X21024Y30197D02*
Y44573D01*
X21083Y30197D02*
Y44568D01*
X20905Y30197D02*
Y44602D01*
X20965Y30197D02*
Y44584D01*
X20315Y30197D02*
Y46732D01*
X20374Y30197D02*
Y46732D01*
X20197Y30197D02*
Y46732D01*
X20256Y30197D02*
Y46732D01*
X20551Y30197D02*
Y44910D01*
X20610Y30197D02*
Y44816D01*
X20433Y30197D02*
Y46732D01*
X20492Y30197D02*
Y45086D01*
X20197Y36850D02*
X21176D01*
X22091Y36791D02*
X22176D01*
X20197Y36968D02*
X21176D01*
X20197Y36909D02*
X21176D01*
X22146Y30197D02*
Y39489D01*
X22091Y36324D02*
Y37239D01*
X21142Y30197D02*
Y44568D01*
X21176Y36324D02*
Y37239D01*
X20197Y36673D02*
X21176D01*
X20197Y36614D02*
X21176D01*
X20197Y36791D02*
X21176D01*
X20197Y36732D02*
X21176D01*
X20197Y36496D02*
X21176D01*
X20197Y36437D02*
X21176D01*
X20197Y36555D02*
X21176D01*
X26929Y35315D02*
Y36269D01*
X26398Y35315D02*
Y36344D01*
X26870Y32527D02*
Y34803D01*
X26929Y32468D02*
Y34803D01*
X26457Y32901D02*
Y34803D01*
X26811Y32586D02*
Y34803D01*
X26386Y36319D02*
X26897D01*
X26339Y35315D02*
Y36246D01*
X26279Y35315D02*
Y36187D01*
X26220Y35315D02*
Y36146D01*
X26161Y35315D02*
Y36119D01*
X26279Y32913D02*
Y34803D01*
X26102Y35315D02*
Y36101D01*
Y32913D02*
Y34803D01*
X26398Y32913D02*
Y34803D01*
X26516Y32873D02*
Y34788D01*
X26752Y32645D02*
Y34776D01*
X26693Y32704D02*
Y34762D01*
X26575Y32823D02*
Y34768D01*
X26634Y32764D02*
Y34759D01*
X26339Y32913D02*
Y34803D01*
X25822Y32913D02*
X26378D01*
X26161D02*
Y34803D01*
X26220Y32913D02*
Y34803D01*
X25822Y32303D02*
X26370D01*
X25822Y32244D02*
X26430D01*
X25822Y32402D02*
X26272D01*
X25822Y32362D02*
X26311D01*
X25984Y35315D02*
Y36093D01*
X26043Y35315D02*
Y36093D01*
X25866Y35315D02*
Y36119D01*
X25925Y35315D02*
Y36101D01*
X25984Y32913D02*
Y34803D01*
X26043Y32913D02*
Y34803D01*
X25866Y32913D02*
Y34803D01*
X25925Y32913D02*
Y34803D01*
X25748Y35315D02*
Y36187D01*
X25807Y35315D02*
Y36146D01*
X25630Y35315D02*
Y36344D01*
X25689Y35315D02*
Y36247D01*
X25748Y33115D02*
Y34803D01*
X25807Y33115D02*
Y34803D01*
X24921Y33115D02*
Y34803D01*
X25039Y33115D02*
Y34803D01*
X25630Y33115D02*
Y34803D01*
X25689Y33115D02*
Y34803D01*
X25394Y33115D02*
Y34803D01*
X25571Y33115D02*
Y34803D01*
X25822Y32913D02*
Y33115D01*
Y32200D02*
Y32402D01*
X25453Y33115D02*
Y34803D01*
X25512Y33115D02*
Y34803D01*
X25157Y33115D02*
Y34803D01*
X24907Y33115D02*
X25822D01*
X24980D02*
Y34803D01*
X25098Y33115D02*
Y34803D01*
X25276Y33115D02*
Y34803D01*
X25335Y33115D02*
Y34803D01*
X25216Y33115D02*
Y34803D01*
X26161Y30197D02*
Y32402D01*
X26220Y30197D02*
Y32402D01*
X26043Y30197D02*
Y32402D01*
X26102Y30197D02*
Y32402D01*
X26398Y30197D02*
Y32276D01*
X26457Y30197D02*
Y32217D01*
X26279Y30197D02*
Y32394D01*
X26339Y30197D02*
Y32335D01*
X25689Y31543D02*
Y32200D01*
X24907D02*
X25822D01*
X25571Y31643D02*
Y32200D01*
X25630Y31602D02*
Y32200D01*
X25925Y30197D02*
Y32402D01*
X25984Y30197D02*
Y32402D01*
X25866Y30197D02*
Y32402D01*
X25807Y30197D02*
Y32200D01*
X26634Y30197D02*
Y32040D01*
X26693Y30197D02*
Y31981D01*
X26516Y30197D02*
Y32158D01*
X26575Y30197D02*
Y32099D01*
X26870Y30197D02*
Y31804D01*
X26929Y30197D02*
Y31744D01*
X26752Y30197D02*
Y31922D01*
X26811Y30197D02*
Y31863D01*
X25748Y31445D02*
Y32200D01*
Y30197D02*
Y31114D01*
X25689Y30197D02*
Y31016D01*
X25630Y30197D02*
Y30957D01*
X25571Y30197D02*
Y30916D01*
X25394Y31697D02*
Y32200D01*
X25453Y31688D02*
Y32200D01*
X25276Y31688D02*
Y32200D01*
X25335Y31697D02*
Y32200D01*
X25216Y31671D02*
Y32200D01*
X25512Y31671D02*
Y32200D01*
X25039Y31543D02*
Y32200D01*
X25157Y31643D02*
Y32200D01*
X24907D02*
Y33115D01*
X24980Y31445D02*
Y32200D01*
X24803Y30197D02*
Y34803D01*
X24862Y30197D02*
Y34803D01*
X24685Y30197D02*
Y34803D01*
X24744Y30197D02*
Y34803D01*
X24567Y30197D02*
Y34803D01*
X24626Y30197D02*
Y34803D01*
X25453Y30197D02*
Y30871D01*
X25394Y30197D02*
Y30862D01*
X25512Y30197D02*
Y30888D01*
X25335Y30197D02*
Y30862D01*
X25216Y30197D02*
Y30888D01*
X25276Y30197D02*
Y30871D01*
X25157Y30197D02*
Y30916D01*
X25098Y31602D02*
Y32200D01*
Y30197D02*
Y30957D01*
X24980Y30197D02*
Y31114D01*
X25039Y30197D02*
Y31016D01*
X24921Y30197D02*
Y32200D01*
X20197Y36142D02*
X25816D01*
X23092Y35374D02*
X26553D01*
X23743Y36378D02*
X25617D01*
X20197Y36201D02*
X25732D01*
X23121Y35315D02*
X26446D01*
X22972Y34803D02*
X26488D01*
X20197Y32480D02*
X24907D01*
X20197Y32421D02*
X24907D01*
X20197Y36260D02*
X25679D01*
X20197Y34783D02*
X26527D01*
X20197Y36319D02*
X25642D01*
X20197Y33071D02*
X24907D01*
X20197Y32598D02*
X24907D01*
X20197Y32539D02*
X24907D01*
X20197Y33012D02*
X24907D01*
X20197Y32953D02*
X24907D01*
X20197Y31831D02*
X26843D01*
X20197Y31772D02*
X26902D01*
X20197Y31949D02*
X26725D01*
X20197Y31890D02*
X26784D01*
X20197Y31653D02*
X25177D01*
X20197Y31594D02*
X25089D01*
X20197Y31535D02*
X25033D01*
X20197Y31476D02*
X24995D01*
X20197Y32244D02*
X24907D01*
X20197Y32185D02*
X26489D01*
X20197Y32362D02*
X24907D01*
X20197Y32303D02*
X24907D01*
X20197Y32067D02*
X26607D01*
X20197Y32008D02*
X26666D01*
X20197Y32126D02*
X26548D01*
X22795Y35520D02*
Y36353D01*
X22736Y35509D02*
Y36336D01*
X22677Y35485D02*
Y36326D01*
X22618Y35444D02*
Y36324D01*
X23740Y35315D02*
Y36377D01*
X23681Y35315D02*
Y36366D01*
X23563Y35315D02*
Y36369D01*
X23622Y35315D02*
Y36364D01*
X20197Y35492D02*
X22692D01*
X20197Y35433D02*
X22606D01*
X20197Y36378D02*
X21176D01*
Y36324D02*
X22091D01*
X22559Y35376D02*
Y36330D01*
X20197Y35374D02*
X22558D01*
X20197Y35315D02*
X22529D01*
X20197Y35138D02*
X22517D01*
X20197Y35079D02*
X22537D01*
X20197Y35256D02*
X22514D01*
X20197Y35197D02*
X22510D01*
X20197Y35020D02*
X22571D01*
X20197Y34961D02*
X22628D01*
X20197Y32894D02*
X24907D01*
X20197Y32835D02*
X24907D01*
X20197Y34902D02*
X22747D01*
X20197Y34842D02*
X22836D01*
X20197Y32716D02*
X24907D01*
X20197Y32657D02*
X24907D01*
X20197Y32776D02*
X24907D01*
X24213Y30197D02*
Y34803D01*
X24272Y30197D02*
Y34803D01*
X24094Y30197D02*
Y34803D01*
X24153Y30197D02*
Y34803D01*
X24449Y30197D02*
Y34803D01*
X24508Y30197D02*
Y34803D01*
X24331Y30197D02*
Y34803D01*
X24390Y30197D02*
Y34803D01*
X23445Y30197D02*
Y34803D01*
X23504Y30197D02*
Y34803D01*
X23327Y30197D02*
Y34803D01*
X23386Y30197D02*
Y34803D01*
X23976Y30197D02*
Y34803D01*
X24035Y30197D02*
Y34803D01*
X23563Y30197D02*
Y34803D01*
X23917Y30197D02*
Y34803D01*
X20197Y31417D02*
X24969D01*
X20197Y31358D02*
X24954D01*
X23799Y30197D02*
Y34803D01*
X20197Y31299D02*
X24947D01*
X23740Y30197D02*
Y34803D01*
X23858Y30197D02*
Y34803D01*
X23622Y30197D02*
Y34803D01*
X23681Y30197D02*
Y34803D01*
X20197Y31122D02*
X24977D01*
X20197Y31063D02*
X25007D01*
X20197Y31240D02*
X24948D01*
X20197Y31181D02*
X24958D01*
X20197Y30945D02*
X25114D01*
X20197Y30886D02*
X25224D01*
X20197Y31004D02*
X25050D01*
X21909Y30197D02*
Y36324D01*
X21968Y30197D02*
Y36324D01*
X21791Y30197D02*
Y36324D01*
X21850Y30197D02*
Y36324D01*
X22441Y30197D02*
Y36367D01*
X22500Y30197D02*
Y36344D01*
X22028Y30197D02*
Y36324D01*
X22087Y30197D02*
Y36324D01*
X21319Y30197D02*
Y36324D01*
X21378Y30197D02*
Y36324D01*
X21201Y30197D02*
Y36324D01*
X21260Y30197D02*
Y36324D01*
X21673Y30197D02*
Y36324D01*
X21732Y30197D02*
Y36324D01*
X21437Y30197D02*
Y36324D01*
X21614Y30197D02*
Y36324D01*
X22972Y30197D02*
Y34803D01*
X23031Y30197D02*
Y34803D01*
X22854Y30197D02*
Y34832D01*
X22913Y30197D02*
Y34810D01*
X23209Y30197D02*
Y34803D01*
X23268Y30197D02*
Y34803D01*
X23091Y30197D02*
Y34803D01*
X23150Y30197D02*
Y34803D01*
X22559Y30197D02*
Y35038D01*
X22618Y30197D02*
Y34969D01*
X21496Y30197D02*
Y36324D01*
X21555Y30197D02*
Y36324D01*
X22736Y30197D02*
Y34904D01*
X22795Y30197D02*
Y34874D01*
X22677Y30197D02*
Y34929D01*
X43365Y31535D02*
X43819D01*
X43413Y31476D02*
X43819D01*
X43405Y31486D02*
Y35217D01*
X43450Y31417D02*
X43819D01*
X43701Y30197D02*
Y35217D01*
X43479Y31358D02*
X43819D01*
X43464Y31390D02*
Y35217D01*
X43524Y31204D02*
Y35217D01*
X42441D02*
X43819D01*
X43081Y31713D02*
X43819D01*
X43287Y31606D02*
Y35217D01*
X43218Y31653D02*
X43819D01*
X43302Y31594D02*
X43819D01*
X43346Y31554D02*
Y35217D01*
X43527Y31181D02*
X43819D01*
X43531Y31122D02*
X43819D01*
X43501Y31299D02*
X43819D01*
X43517Y31240D02*
X43819D01*
X43509Y30945D02*
X43819D01*
X43490Y30886D02*
X43819D01*
X43529Y31063D02*
X43819D01*
X43522Y31004D02*
X43819D01*
X43387Y30709D02*
X43819D01*
X43332Y30650D02*
X43819D01*
X43464Y30827D02*
X43819D01*
X43430Y30768D02*
X43819D01*
X39695Y30295D02*
X43819D01*
X39695Y30197D02*
X43819D01*
X43258Y30590D02*
X43819D01*
X43152Y30531D02*
X43819D01*
X42933Y31738D02*
Y35217D01*
X42992Y31732D02*
Y35217D01*
X42815Y31733D02*
Y35217D01*
X42874Y31738D02*
Y35217D01*
X43169Y31679D02*
Y35217D01*
X43228Y31647D02*
Y35217D01*
X43051Y31721D02*
Y35217D01*
X43110Y31703D02*
Y35217D01*
X42697Y31705D02*
Y35217D01*
X42756Y31722D02*
Y35217D01*
X39695D02*
X41161D01*
X42638Y31681D02*
Y35217D01*
X42520Y31611D02*
Y35217D01*
X42579Y31650D02*
Y35217D01*
X39744Y30197D02*
Y35217D01*
X42283Y31234D02*
Y35217D01*
X42461Y31560D02*
Y35217D01*
X43051Y30197D02*
Y30497D01*
X42342Y31401D02*
Y35217D01*
X42401Y31493D02*
Y35217D01*
X43110Y30197D02*
Y30515D01*
X42992Y30197D02*
Y30486D01*
X42933Y30197D02*
Y30480D01*
X42874Y30197D02*
Y30480D01*
X41161Y35217D02*
X42441D01*
X39695Y31299D02*
X42300D01*
X39695Y31240D02*
X42285D01*
X39695Y31181D02*
X42275D01*
X39695Y31122D02*
X42271D01*
X39695Y30827D02*
X42338D01*
X39803Y30197D02*
Y35217D01*
X43583Y30197D02*
Y35217D01*
X43524Y30197D02*
Y31014D01*
X42165Y30197D02*
Y35217D01*
X42224Y30197D02*
Y35217D01*
X43819Y30197D02*
Y35217D01*
X43819Y30197D02*
Y35217D01*
X43642Y30197D02*
Y35217D01*
X43760Y30197D02*
Y35217D01*
X41811Y30197D02*
Y35217D01*
X41870Y30197D02*
Y35217D01*
X41693Y30197D02*
Y35217D01*
X41752Y30197D02*
Y35217D01*
X42047Y30197D02*
Y35217D01*
X42106Y30197D02*
Y35217D01*
X41929Y30197D02*
Y35217D01*
X41988Y30197D02*
Y35217D01*
X43228Y30197D02*
Y30571D01*
X43169Y30197D02*
Y30539D01*
X42756Y30197D02*
Y30496D01*
X42815Y30197D02*
Y30485D01*
X43464Y30197D02*
Y30828D01*
X43405Y30197D02*
Y30732D01*
X43346Y30197D02*
Y30664D01*
X43287Y30197D02*
Y30612D01*
X42401Y30197D02*
Y30725D01*
X42461Y30197D02*
Y30659D01*
X42283Y30197D02*
Y30984D01*
X42342Y30197D02*
Y30817D01*
X42638Y30197D02*
Y30537D01*
X42697Y30197D02*
Y30513D01*
X42520Y30197D02*
Y30608D01*
X42579Y30197D02*
Y30568D01*
X40453Y30197D02*
Y35217D01*
X40512Y30197D02*
Y35217D01*
X40335Y30197D02*
Y35217D01*
X40394Y30197D02*
Y35217D01*
X40689Y30197D02*
Y35217D01*
X40748Y30197D02*
Y35217D01*
X40571Y30197D02*
Y35217D01*
X40630Y30197D02*
Y35217D01*
X39980Y30197D02*
Y35217D01*
X40039Y30197D02*
Y35217D01*
X39862Y30197D02*
Y35217D01*
X39921Y30197D02*
Y35217D01*
X40216Y30197D02*
Y35217D01*
X40276Y30197D02*
Y35217D01*
X40098Y30197D02*
Y35217D01*
X40157Y30197D02*
Y35217D01*
X41339Y30197D02*
Y35217D01*
X41398Y30197D02*
Y35217D01*
X41220Y30197D02*
Y35217D01*
X41279Y30197D02*
Y35217D01*
X41575Y30197D02*
Y35217D01*
X41634Y30197D02*
Y35217D01*
X41457Y30197D02*
Y35217D01*
X41516Y30197D02*
Y35217D01*
X40925Y30197D02*
Y35217D01*
X40984Y30197D02*
Y35217D01*
X40807Y30197D02*
Y35217D01*
X40866Y30197D02*
Y35217D01*
X41102Y30197D02*
Y35217D01*
X41161Y30197D02*
Y35217D01*
X41043Y30197D02*
Y35217D01*
X39321Y34842D02*
X43819D01*
X39262Y34783D02*
X43819D01*
X39439Y34961D02*
X43819D01*
X39380Y34902D02*
X43819D01*
X39084Y34606D02*
X43819D01*
X39025Y34547D02*
X43819D01*
X39203Y34724D02*
X43819D01*
X39144Y34665D02*
X43819D01*
X38848Y34370D02*
X43819D01*
X38789Y34311D02*
X43819D01*
X38966Y34488D02*
X43819D01*
X38907Y34429D02*
X43819D01*
X38612Y34134D02*
X43819D01*
X38553Y34075D02*
X43819D01*
X38730Y34252D02*
X43819D01*
X38671Y34193D02*
X43819D01*
X39306Y33189D02*
X43819D01*
X39306Y33130D02*
X43819D01*
X39306Y33307D02*
X43819D01*
X39306Y33248D02*
X43819D01*
X39306Y32776D02*
X43819D01*
X39306Y32716D02*
X43819D01*
X39306Y33071D02*
X43819D01*
X39306Y32835D02*
X43819D01*
X38553Y33898D02*
X43819D01*
X38553Y33839D02*
X43819D01*
X38553Y34016D02*
X43819D01*
X38553Y33957D02*
X43819D01*
X38553Y33661D02*
X43819D01*
X38553Y33602D02*
X43819D01*
X38553Y33779D02*
X43819D01*
X38553Y33720D02*
X43819D01*
X39557Y35079D02*
X43819D01*
X39498Y35020D02*
X43819D01*
X39675Y35197D02*
X43819D01*
X39616Y35138D02*
X43819D01*
X39272Y33548D02*
Y34793D01*
X39213Y33548D02*
Y34734D01*
X39153Y33548D02*
Y34675D01*
X39094Y33548D02*
Y34616D01*
X38740Y34262D02*
X39695Y35217D01*
X38976Y33548D02*
Y34498D01*
X38917Y33548D02*
Y34439D01*
X38553Y34075D02*
X38740Y34262D01*
X39035Y33548D02*
Y34557D01*
X38858Y33548D02*
Y34380D01*
X38799Y33548D02*
Y34321D01*
X38740Y33548D02*
Y34262D01*
X39306Y33425D02*
X43819D01*
X39306Y33366D02*
X43819D01*
X39306Y33543D02*
X43819D01*
X39306Y33484D02*
X43819D01*
X39306Y32953D02*
X43819D01*
X39306Y32894D02*
X43819D01*
X39306Y33012D02*
X43819D01*
X38681Y33548D02*
Y34203D01*
X38622Y33548D02*
Y34144D01*
X38563Y33548D02*
Y34085D01*
X38553Y33548D02*
Y34075D01*
Y33548D02*
X39306D01*
X38553Y32712D02*
X39306D01*
X39144Y32067D02*
X43819D01*
X39203Y32008D02*
X43819D01*
X39026Y32185D02*
X43819D01*
X39085Y32126D02*
X43819D01*
X39380Y31831D02*
X43819D01*
X39439Y31772D02*
X43819D01*
X39262Y31949D02*
X43819D01*
X39321Y31890D02*
X43819D01*
X38671Y32539D02*
X43819D01*
X38730Y32480D02*
X43819D01*
X38553Y32657D02*
X43819D01*
X38612Y32598D02*
X43819D01*
X38908Y32303D02*
X43819D01*
X38967Y32244D02*
X43819D01*
X38789Y32421D02*
X43819D01*
X38848Y32362D02*
X43819D01*
X39695Y30590D02*
X42543D01*
X39695Y30531D02*
X42649D01*
X39695Y30709D02*
X42415D01*
X39695Y30650D02*
X42470D01*
X39695Y30354D02*
X43819D01*
X39695Y30236D02*
X43819D01*
X39695Y30472D02*
X43819D01*
X39695Y30413D02*
X43819D01*
X39498Y31713D02*
X42720D01*
X39557Y31653D02*
X42584D01*
X39616Y31594D02*
X42499D01*
X39675Y31535D02*
X42437D01*
X39695Y31476D02*
X42389D01*
X39695Y30768D02*
X42371D01*
X39695Y31417D02*
X42351D01*
X39449Y31762D02*
Y34971D01*
X39390Y31821D02*
Y34911D01*
X39331Y31880D02*
Y34852D01*
X39306Y32712D02*
Y33548D01*
X39685Y31526D02*
Y35207D01*
X39626Y31585D02*
Y35148D01*
X39567Y31644D02*
Y35089D01*
X39508Y31703D02*
Y35030D01*
X38740Y32471D02*
Y32712D01*
X38622Y32589D02*
Y32712D01*
X38681Y32530D02*
Y32712D01*
X39213Y31998D02*
Y32712D01*
X39272Y31939D02*
Y32712D01*
X39094Y32116D02*
Y32712D01*
X39153Y32057D02*
Y32712D01*
X39695Y31358D02*
X42322D01*
X39695Y31063D02*
X42273D01*
X38976Y32234D02*
Y32712D01*
X39035Y32175D02*
Y32712D01*
X39695Y30945D02*
X42293D01*
X39695Y30886D02*
X42312D01*
X39695Y30197D02*
Y31516D01*
Y31004D02*
X42280D01*
X38799Y32411D02*
Y32712D01*
X38553Y32658D02*
X38829Y32382D01*
X38553Y32658D02*
Y32712D01*
X38563Y32648D02*
Y32712D01*
X38917Y32293D02*
Y32712D01*
X38829Y32382D02*
X39695Y31516D01*
X38858Y32352D02*
Y32712D01*
D41*
X35340Y35435D02*
X35343D01*
X35149Y35245D02*
X35340Y35435D01*
X35149Y35241D02*
Y35245D01*
X34888Y34980D02*
X35149Y35241D01*
X33691Y34980D02*
X34888D01*
X37205Y41191D02*
X37500Y41486D01*
X37205Y36381D02*
Y41191D01*
X35500Y34677D02*
X37205Y36381D01*
X35149Y34677D02*
X35500D01*
X36949Y36654D02*
Y41237D01*
X35474Y35179D02*
X36949Y36654D01*
X36616Y36708D02*
Y39451D01*
X35343Y35435D02*
X36616Y36708D01*
X36260Y36674D02*
Y39675D01*
X35373Y35787D02*
X36260Y36674D01*
X35236Y35787D02*
X35373D01*
X36616Y39451D02*
X36646D01*
X36654Y39459D01*
X36700Y41486D02*
X36949Y41237D01*
X35474Y35110D02*
Y35179D01*
X33258Y34547D02*
X33691Y34980D01*
X32254Y34547D02*
X33258D01*
X32096Y34705D02*
X32254Y34547D01*
X35709Y43780D02*
Y43868D01*
Y43780D02*
X38002Y41486D01*
Y39606D02*
Y41486D01*
X41988Y46368D02*
X42559D01*
X42844Y46083D01*
Y44852D02*
Y46083D01*
Y44852D02*
X43307Y44390D01*
Y41673D02*
Y44390D01*
X42343Y40709D02*
X43307Y41673D01*
X40896Y40709D02*
X42343D01*
X40374Y40187D02*
X40896Y40709D01*
X38898Y40187D02*
X40374D01*
X38356Y39646D02*
X38898Y40187D01*
X38356Y39154D02*
Y39646D01*
X31693Y39124D02*
Y39163D01*
X32431Y39902D01*
X27382Y39833D02*
X27411Y39862D01*
X26526Y39833D02*
X27382D01*
X26053Y40305D02*
Y40640D01*
Y40305D02*
X26526Y39833D01*
X36033Y39902D02*
X36260Y39675D01*
X32431Y39902D02*
X36033D01*
X32096Y34705D02*
Y34961D01*
X33868Y33809D02*
Y34646D01*
X33858Y33799D02*
X33868Y33809D01*
X33858Y31299D02*
Y33799D01*
Y31299D02*
X33868Y31289D01*
D42*
X42333Y45289D02*
Y45668D01*
Y44911D02*
Y45289D01*
X41954D02*
X42333D01*
X40325Y44390D02*
X40758D01*
X39892D02*
X40325D01*
Y44823D01*
Y43957D02*
Y44390D01*
X37195Y45285D02*
X37574D01*
X37195D02*
Y45664D01*
X36816Y45285D02*
X37195D01*
Y44907D02*
Y45285D01*
X38888Y31130D02*
X39267D01*
X38888D02*
Y31509D01*
Y30751D02*
Y31130D01*
X38509D02*
X38888D01*
X27136Y44390D02*
X27569D01*
X27136Y43209D02*
X27569D01*
X27136Y44390D02*
Y44823D01*
Y43957D02*
Y44390D01*
X26703D02*
X27136D01*
Y43209D02*
Y43642D01*
X26703Y43209D02*
X27136D01*
Y42776D02*
Y43209D01*
X27264Y36520D02*
Y36898D01*
X26885Y36520D02*
X27264D01*
X27643D01*
X27264Y36141D02*
Y36520D01*
X23255Y36781D02*
X23634D01*
X24013D01*
X23634D02*
Y37160D01*
X26014Y36510D02*
X26393D01*
X26014Y36131D02*
Y36510D01*
Y36889D01*
X25635Y36510D02*
X26014D01*
X23634Y36403D02*
Y36781D01*
X25364Y31280D02*
X25743D01*
X25364D02*
Y31658D01*
Y30901D02*
Y31280D01*
X24985D02*
X25364D01*
X38888Y33130D02*
Y33509D01*
Y33130D02*
X39267D01*
X38888Y32751D02*
Y33130D01*
X30020Y35059D02*
X30856Y35896D01*
X35669Y39587D02*
X35925Y39331D01*
Y36988D02*
Y39331D01*
X33386Y35246D02*
X34166D01*
X33061Y34921D02*
X33386Y35246D01*
X34166D02*
X35883Y36964D01*
X35910D01*
X30280Y41565D02*
X30504Y41341D01*
X24724Y41565D02*
X30280D01*
X23967Y40807D02*
X24724Y41565D01*
X30030Y41171D02*
X30360Y40841D01*
X24951Y41171D02*
X30030D01*
X23957Y40177D02*
X24951Y41171D01*
X22972Y35059D02*
X30020D01*
X22825Y35207D02*
X22972Y35059D01*
X24360Y41998D02*
X26841D01*
X22165Y39803D02*
X24360Y41998D01*
X25994Y42844D02*
Y43642D01*
Y42844D02*
X26841Y41998D01*
X28809D01*
X30360Y40841D02*
X31451D01*
X32894Y39587D02*
X35669D01*
X32717Y34921D02*
X33061D01*
X32126Y35512D02*
X32717Y34921D01*
X31240Y35512D02*
X32126D01*
X30856Y35896D02*
X31240Y35512D01*
X30856Y35896D02*
Y36752D01*
X32766Y32392D02*
X33858Y31299D01*
X31112Y32392D02*
X32766D01*
X29567Y30846D02*
X31112Y32392D01*
X28189Y30846D02*
X29567D01*
X25364Y32657D02*
X26378D01*
X28189Y30846D01*
X33868Y31289D02*
X34429D01*
X34459Y33701D02*
X34839Y33321D01*
Y31864D02*
Y33321D01*
X38868Y39341D02*
Y39705D01*
X39055Y39892D01*
X40728D01*
X41171Y40335D01*
X42904D01*
X40305Y36929D02*
X41378Y38002D01*
X42490D01*
D44*
X38209Y42195D02*
X39783D01*
X34065Y46339D02*
X38209Y42195D01*
X29970Y46339D02*
X34065D01*
X28317Y44685D02*
X29970Y46339D01*
X40325Y42736D02*
Y43209D01*
X39783Y42195D02*
X40325Y42736D01*
X28317Y43209D02*
Y44390D01*
Y44685D01*
D45*
X27264Y37520D02*
D03*
X26014Y37510D02*
D03*
X25364Y32657D02*
D03*
X38888Y33130D02*
D03*
D46*
X27264Y36520D02*
D03*
X26014Y36510D02*
D03*
X25364Y31280D02*
D03*
X38888Y31130D02*
D03*
X43333Y45289D02*
D03*
X36195Y45285D02*
D03*
X23634Y37782D02*
D03*
Y36781D02*
D03*
X22634Y37782D02*
D03*
X21634D02*
D03*
X22634Y36781D02*
D03*
D47*
X42333Y45289D02*
D03*
X37195Y45285D02*
D03*
X21634Y36781D02*
D03*
D48*
X39144Y44390D02*
D03*
Y43209D02*
D03*
X40325D02*
D03*
X29498D02*
D03*
X27136Y44390D02*
D03*
X28317D02*
D03*
X27136Y43209D02*
D03*
X28317D02*
D03*
D49*
X40325Y44390D02*
D03*
D50*
X39734Y46091D02*
D03*
X28317D02*
D03*
D51*
X42901Y31109D02*
D03*
X21112Y45197D02*
D03*
D52*
X29498Y44390D02*
D03*
D53*
X34941Y41821D02*
D03*
X30325Y45581D02*
D03*
X30335Y45000D02*
D03*
X30364Y43740D02*
D03*
X34557Y40433D02*
D03*
X30148Y30541D02*
D03*
X27047Y31142D02*
D03*
X27815Y30517D02*
D03*
X22785Y39488D02*
D03*
X23681Y39469D02*
D03*
X24400Y43032D02*
D03*
X23957Y42451D02*
D03*
X20502Y46457D02*
D03*
X22234Y46319D02*
D03*
X23661Y46230D02*
D03*
X24459Y45768D02*
D03*
X23553Y45128D02*
D03*
X23051Y44183D02*
D03*
X22096Y44252D02*
D03*
X21024Y43789D02*
D03*
X20472Y43081D02*
D03*
X20984Y42441D02*
D03*
X20453Y41850D02*
D03*
X20856Y41260D02*
D03*
X20463Y40600D02*
D03*
X20423Y39823D02*
D03*
X38907Y40640D02*
D03*
X34754Y41122D02*
D03*
X35335Y43337D02*
D03*
X35453Y42736D02*
D03*
Y42156D02*
D03*
X35541Y41526D02*
D03*
X35965Y41112D02*
D03*
X35778Y40522D02*
D03*
X38524Y43789D02*
D03*
X37598Y43878D02*
D03*
X35669Y45787D02*
D03*
X31772Y45492D02*
D03*
X34360Y43868D02*
D03*
X34508Y43150D02*
D03*
X34469Y42490D02*
D03*
X34331Y41850D02*
D03*
X33858Y41417D02*
D03*
X33051Y41211D02*
D03*
X32441Y40689D02*
D03*
X31654Y40305D02*
D03*
X30965Y40285D02*
D03*
X30374Y40295D02*
D03*
X28839Y40266D02*
D03*
X28593Y40669D02*
D03*
X28159Y35768D02*
D03*
X28202Y38622D02*
D03*
X28199Y38012D02*
D03*
X28858Y37146D02*
D03*
X30118Y37136D02*
D03*
X29557D02*
D03*
X27618Y35600D02*
D03*
X25600Y35650D02*
D03*
X24252Y37264D02*
D03*
X25797Y39636D02*
D03*
X25049Y38829D02*
D03*
X24862Y38061D02*
D03*
X22156Y38327D02*
D03*
X20581Y35315D02*
D03*
X21821Y35748D02*
D03*
X23179Y35659D02*
D03*
X24449Y35551D02*
D03*
X26240Y34262D02*
D03*
X27844Y34242D02*
D03*
X28533Y34449D02*
D03*
X29862Y34341D02*
D03*
X30374Y34114D02*
D03*
X30728Y33671D02*
D03*
X31644Y33258D02*
D03*
X32421Y33140D02*
D03*
X31890Y33691D02*
D03*
X34823Y38898D02*
D03*
X36142Y34380D02*
D03*
X37333Y35069D02*
D03*
X37766Y35797D02*
D03*
X38425Y36476D02*
D03*
X38622Y37303D02*
D03*
X39429Y38937D02*
D03*
X40256Y38917D02*
D03*
X41388Y42972D02*
D03*
X40945Y42323D02*
D03*
X42411Y41496D02*
D03*
X42776Y43376D02*
D03*
X42185Y43396D02*
D03*
X40226Y40728D02*
D03*
X39469Y37569D02*
D03*
X40925Y36772D02*
D03*
X40620Y36289D02*
D03*
X39783Y35758D02*
D03*
X40591Y35778D02*
D03*
X39183Y35413D02*
D03*
X38642Y35089D02*
D03*
X38268Y34528D02*
D03*
X37648Y34380D02*
D03*
X37165Y33986D02*
D03*
X39222Y30472D02*
D03*
X37008Y30512D02*
D03*
X38278Y30600D02*
D03*
X37598Y31161D02*
D03*
X34291Y32126D02*
D03*
X33701Y30531D02*
D03*
X30630Y30856D02*
D03*
X27343Y30728D02*
D03*
X26201Y31565D02*
D03*
X24341Y31821D02*
D03*
X22667Y32608D02*
D03*
X22057Y32077D02*
D03*
X21427Y32589D02*
D03*
X20925Y32067D02*
D03*
X20443Y31516D02*
D03*
X20630Y30886D02*
D03*
X21073Y30502D02*
D03*
X23484Y32234D02*
D03*
X23455Y31673D02*
D03*
X23150Y31024D02*
D03*
X22638Y30502D02*
D03*
X21890Y30472D02*
D03*
X35149Y34677D02*
D03*
X36616Y39451D02*
D03*
X35474Y35110D02*
D03*
X34134Y36280D02*
D03*
X32274Y36329D02*
D03*
X33327Y36457D02*
D03*
X33829Y36890D02*
D03*
X32559Y36919D02*
D03*
X32343Y37559D02*
D03*
X33150Y37323D02*
D03*
X33917Y38110D02*
D03*
X33976Y37569D02*
D03*
X33022Y38051D02*
D03*
X26649Y35074D02*
D03*
X35709Y43868D02*
D03*
X38002Y39606D02*
D03*
X41988Y46368D02*
D03*
X38356Y39154D02*
D03*
X22825Y35207D02*
D03*
X22165Y39803D02*
D03*
X25994Y43642D02*
D03*
X31693Y39124D02*
D03*
X23967Y40807D02*
D03*
X23957Y40177D02*
D03*
X28809Y41998D02*
D03*
X27411Y39862D02*
D03*
X26053Y40640D02*
D03*
X30504Y41341D02*
D03*
X31451Y40841D02*
D03*
X35886Y36988D02*
D03*
X35226Y35778D02*
D03*
X35827Y39478D02*
D03*
X30856Y36752D02*
D03*
X33868Y34646D02*
D03*
X32096Y34961D02*
D03*
X33858Y33799D02*
D03*
X36700Y41486D02*
D03*
X37500D02*
D03*
X32717Y34921D02*
D03*
X32894Y39587D02*
D03*
X34429Y31289D02*
D03*
X34839Y31864D02*
D03*
X34459Y33701D02*
D03*
X40482Y34331D02*
D03*
X40738Y33740D02*
D03*
X43691Y32106D02*
D03*
X41201Y32116D02*
D03*
X40965Y33081D02*
D03*
X41467Y31378D02*
D03*
X40935Y30925D02*
D03*
X41437Y30384D02*
D03*
X40463Y30335D02*
D03*
X40089Y30817D02*
D03*
Y31457D02*
D03*
X39823Y33317D02*
D03*
X39163Y33789D02*
D03*
X39577Y34498D02*
D03*
X39852Y34990D02*
D03*
X38868Y39341D02*
D03*
X40305Y36929D02*
D03*
X42490Y38002D02*
D03*
X42904Y40335D02*
D03*
M02*
