G04 Layer_Color=8388736*
%FSLAX24Y24*%
%MOIN*%
G70*
G01*
G75*
G04:AMPARAMS|DCode=63|XSize=287.5mil|YSize=226.5mil|CornerRadius=14.9mil|HoleSize=0mil|Usage=FLASHONLY|Rotation=0.000|XOffset=0mil|YOffset=0mil|HoleType=Round|Shape=RoundedRectangle|*
%AMROUNDEDRECTD63*
21,1,0.2875,0.1967,0,0,0.0*
21,1,0.2577,0.2265,0,0,0.0*
1,1,0.0299,0.1288,-0.0983*
1,1,0.0299,-0.1288,-0.0983*
1,1,0.0299,-0.1288,0.0983*
1,1,0.0299,0.1288,0.0983*
%
%ADD63ROUNDEDRECTD63*%
%ADD64O,0.0926X0.0474*%
%ADD65R,0.0356X0.0434*%
%ADD66O,0.0930X0.0375*%
%ADD67R,0.0474X0.0434*%
%ADD68R,0.0434X0.0474*%
%ADD69O,0.0671X0.0198*%
%ADD70O,0.0198X0.0671*%
%ADD71R,0.0493X0.0769*%
%ADD72R,0.0769X0.0493*%
%ADD73O,0.0671X0.0361*%
%ADD74O,0.0361X0.0671*%
%ADD75R,0.0789X0.0631*%
G04:AMPARAMS|DCode=76|XSize=94.6mil|YSize=76.9mil|CornerRadius=21.2mil|HoleSize=0mil|Usage=FLASHONLY|Rotation=0.000|XOffset=0mil|YOffset=0mil|HoleType=Round|Shape=RoundedRectangle|*
%AMROUNDEDRECTD76*
21,1,0.0946,0.0344,0,0,0.0*
21,1,0.0522,0.0769,0,0,0.0*
1,1,0.0424,0.0261,-0.0172*
1,1,0.0424,-0.0261,-0.0172*
1,1,0.0424,-0.0261,0.0172*
1,1,0.0424,0.0261,0.0172*
%
%ADD76ROUNDEDRECTD76*%
%ADD77R,0.0434X0.0356*%
%ADD78O,0.0198X0.0651*%
%ADD79R,0.0808X0.0690*%
G04:AMPARAMS|DCode=80|XSize=118.2mil|YSize=67.1mil|CornerRadius=18.8mil|HoleSize=0mil|Usage=FLASHONLY|Rotation=0.000|XOffset=0mil|YOffset=0mil|HoleType=Round|Shape=RoundedRectangle|*
%AMROUNDEDRECTD80*
21,1,0.1182,0.0295,0,0,0.0*
21,1,0.0807,0.0671,0,0,0.0*
1,1,0.0375,0.0404,-0.0148*
1,1,0.0375,-0.0404,-0.0148*
1,1,0.0375,-0.0404,0.0148*
1,1,0.0375,0.0404,0.0148*
%
%ADD80ROUNDEDRECTD80*%
%ADD81O,0.0880X0.0375*%
G04:AMPARAMS|DCode=82|XSize=98.6mil|YSize=90.7mil|CornerRadius=16.4mil|HoleSize=0mil|Usage=FLASHONLY|Rotation=180.000|XOffset=0mil|YOffset=0mil|HoleType=Round|Shape=RoundedRectangle|*
%AMROUNDEDRECTD82*
21,1,0.0986,0.0579,0,0,180.0*
21,1,0.0657,0.0907,0,0,180.0*
1,1,0.0328,-0.0329,0.0289*
1,1,0.0328,0.0329,0.0289*
1,1,0.0328,0.0329,-0.0289*
1,1,0.0328,-0.0329,-0.0289*
%
%ADD82ROUNDEDRECTD82*%
%ADD83R,0.0493X0.0631*%
G04:AMPARAMS|DCode=84|XSize=90.7mil|YSize=86.7mil|CornerRadius=23.7mil|HoleSize=0mil|Usage=FLASHONLY|Rotation=270.000|XOffset=0mil|YOffset=0mil|HoleType=Round|Shape=RoundedRectangle|*
%AMROUNDEDRECTD84*
21,1,0.0907,0.0394,0,0,270.0*
21,1,0.0433,0.0867,0,0,270.0*
1,1,0.0474,-0.0197,-0.0217*
1,1,0.0474,-0.0197,0.0217*
1,1,0.0474,0.0197,0.0217*
1,1,0.0474,0.0197,-0.0217*
%
%ADD84ROUNDEDRECTD84*%
%ADD85C,0.1340*%
%ADD86R,0.0710X0.0710*%
%ADD87C,0.0710*%
%ADD88C,0.0680*%
%ADD89R,0.0680X0.0680*%
%ADD90R,0.0907X0.0907*%
%ADD91C,0.0907*%
%ADD92R,0.0680X0.0680*%
%ADD93R,0.0710X0.0710*%
%ADD94C,0.1025*%
G36*
X26914Y44626D02*
X27010Y44586D01*
X27092Y44523D01*
X27155Y44441D01*
X27195Y44345D01*
X27208Y44242D01*
X27195Y44139D01*
X27155Y44044D01*
X27092Y43961D01*
X27010Y43898D01*
X26914Y43859D01*
X26811Y43845D01*
X26708Y43859D01*
X26612Y43898D01*
X26530Y43961D01*
X26467Y44044D01*
X26427Y44139D01*
X26414Y44242D01*
X26427Y44345D01*
X26467Y44441D01*
X26530Y44523D01*
X26612Y44586D01*
X26708Y44626D01*
X26811Y44639D01*
X26914Y44626D01*
D02*
G37*
G36*
X44763Y33101D02*
X44765Y33100D01*
X44768Y33100D01*
X44987Y33056D01*
X44989Y33054D01*
X44992Y33055D01*
X45203Y32982D01*
X45205Y32980D01*
X45208Y32980D01*
X45407Y32879D01*
X45409Y32877D01*
X45412Y32876D01*
X45596Y32751D01*
X45598Y32748D01*
X45601Y32747D01*
X45766Y32598D01*
X45767Y32597D01*
X45768Y32596D01*
X45771Y32594D01*
X45771Y32592D01*
X45773Y32591D01*
X45878Y32465D01*
X45879Y32461D01*
X45882Y32459D01*
X45966Y32318D01*
X45967Y32314D01*
X45969Y32312D01*
X46031Y32159D01*
X46030Y32157D01*
X46032Y32156D01*
X46074Y32022D01*
X46073Y32017D01*
X46075Y32014D01*
X46084Y31941D01*
X46082Y31933D01*
X46083Y31925D01*
X46064Y31854D01*
X46059Y31847D01*
X46057Y31839D01*
X46013Y31780D01*
X46006Y31776D01*
X46002Y31769D01*
X45939Y31730D01*
X45931Y31728D01*
X45924Y31724D01*
X45852Y31710D01*
X45848Y31711D01*
X45844Y31709D01*
X43239D01*
X43235Y31711D01*
X43230Y31710D01*
X43156Y31724D01*
X43149Y31729D01*
X43141Y31730D01*
X43077Y31771D01*
X43072Y31777D01*
X43065Y31782D01*
X43021Y31842D01*
X43019Y31850D01*
X43014Y31857D01*
X42994Y31930D01*
X42995Y31938D01*
X42993Y31946D01*
X43002Y32021D01*
X43004Y32025D01*
X43004Y32029D01*
X43044Y32159D01*
X43045Y32160D01*
X43045Y32162D01*
X43106Y32313D01*
X43108Y32315D01*
X43109Y32319D01*
X43192Y32458D01*
X43195Y32461D01*
X43196Y32464D01*
X43300Y32589D01*
X43301Y32590D01*
X43302Y32592D01*
X43307Y32596D01*
X43308Y32597D01*
X43309Y32598D01*
X43474Y32747D01*
X43477Y32748D01*
X43479Y32751D01*
X43663Y32876D01*
X43666Y32877D01*
X43668Y32879D01*
X43867Y32980D01*
X43870Y32980D01*
X43872Y32982D01*
X44083Y33055D01*
X44086Y33054D01*
X44088Y33056D01*
X44307Y33100D01*
X44309Y33100D01*
X44312Y33101D01*
X44535Y33116D01*
X44537Y33115D01*
X44540Y33116D01*
X44763Y33101D01*
D02*
G37*
G36*
X45840Y30750D02*
X45844Y30750D01*
X45919Y30736D01*
X45926Y30732D01*
X45934Y30730D01*
X45998Y30690D01*
X46002Y30683D01*
X46009Y30679D01*
X46054Y30618D01*
X46056Y30610D01*
X46061Y30604D01*
X46080Y30531D01*
X46079Y30522D01*
X46082Y30514D01*
X46073Y30439D01*
X46071Y30436D01*
X46071Y30431D01*
X46031Y30302D01*
X46030Y30301D01*
X46030Y30299D01*
X45969Y30148D01*
X45967Y30145D01*
X45966Y30142D01*
X45883Y30002D01*
X45880Y30000D01*
X45879Y29997D01*
X45775Y29872D01*
X45773Y29871D01*
X45773Y29869D01*
X45768Y29864D01*
X45767Y29864D01*
X45766Y29863D01*
X45601Y29713D01*
X45598Y29712D01*
X45596Y29710D01*
X45412Y29584D01*
X45409Y29584D01*
X45407Y29581D01*
X45208Y29481D01*
X45205Y29481D01*
X45203Y29479D01*
X44992Y29406D01*
X44989Y29406D01*
X44987Y29405D01*
X44768Y29360D01*
X44765Y29361D01*
X44763Y29360D01*
X44540Y29345D01*
X44537Y29346D01*
X44535Y29345D01*
X44312Y29360D01*
X44309Y29361D01*
X44307Y29360D01*
X44088Y29405D01*
X44086Y29406D01*
X44083Y29406D01*
X43872Y29479D01*
X43870Y29481D01*
X43867Y29481D01*
X43668Y29581D01*
X43666Y29584D01*
X43663Y29584D01*
X43479Y29710D01*
X43477Y29712D01*
X43474Y29713D01*
X43309Y29863D01*
X43308Y29864D01*
X43307Y29865D01*
X43304Y29867D01*
X43304Y29869D01*
X43302Y29869D01*
X43197Y29996D01*
X43196Y29999D01*
X43193Y30001D01*
X43109Y30143D01*
X43108Y30146D01*
X43106Y30149D01*
X43044Y30302D01*
X43044Y30304D01*
X43043Y30305D01*
X43001Y30439D01*
X43002Y30443D01*
X43000Y30447D01*
X42991Y30520D01*
X42993Y30528D01*
X42992Y30536D01*
X43011Y30607D01*
X43016Y30613D01*
X43018Y30621D01*
X43061Y30681D01*
X43068Y30685D01*
X43073Y30692D01*
X43135Y30731D01*
X43143Y30732D01*
X43150Y30737D01*
X43222Y30750D01*
X43227Y30750D01*
X43231Y30751D01*
X45836D01*
X45840Y30750D01*
D02*
G37*
G36*
X52150Y28130D02*
X52246Y28090D01*
X52328Y28027D01*
X52391Y27945D01*
X52431Y27849D01*
X52444Y27746D01*
X52431Y27643D01*
X52391Y27548D01*
X52328Y27465D01*
X52246Y27402D01*
X52150Y27362D01*
X52047Y27349D01*
X51944Y27362D01*
X51849Y27402D01*
X51766Y27465D01*
X51703Y27548D01*
X51664Y27643D01*
X51650Y27746D01*
X51664Y27849D01*
X51703Y27945D01*
X51766Y28027D01*
X51849Y28090D01*
X51944Y28130D01*
X52047Y28143D01*
X52150Y28130D01*
D02*
G37*
D63*
X53189Y30187D02*
D03*
D64*
X50630Y31085D02*
D03*
Y29289D02*
D03*
D65*
X26683Y42234D02*
D03*
X27293D02*
D03*
X35364Y29685D02*
D03*
X35974D02*
D03*
X47126Y29498D02*
D03*
X46516D02*
D03*
X47687Y31890D02*
D03*
X47077D02*
D03*
X47077Y32579D02*
D03*
X46467D02*
D03*
X38248Y35344D02*
D03*
X38858D02*
D03*
X40502D02*
D03*
X41112D02*
D03*
X42707D02*
D03*
X43317D02*
D03*
X38898Y29705D02*
D03*
X39508D02*
D03*
D66*
X32261Y44738D02*
D03*
X29311D02*
D03*
X32261Y45738D02*
D03*
Y45238D02*
D03*
Y44238D02*
D03*
X29311Y45738D02*
D03*
Y45238D02*
D03*
Y44238D02*
D03*
D67*
X31122Y46614D02*
D03*
X30453D02*
D03*
X34665Y40079D02*
D03*
X33996D02*
D03*
X27697Y34990D02*
D03*
X28366D02*
D03*
X36811Y34400D02*
D03*
X36142D02*
D03*
X27697Y36959D02*
D03*
X28366D02*
D03*
X45197Y25965D02*
D03*
X44528D02*
D03*
X46467Y33248D02*
D03*
X47136D02*
D03*
X36427Y42884D02*
D03*
X35758D02*
D03*
X36811Y36959D02*
D03*
X36142D02*
D03*
X50236Y42303D02*
D03*
X49567D02*
D03*
D68*
X36959Y29724D02*
D03*
Y29055D02*
D03*
X44055Y27953D02*
D03*
Y27283D02*
D03*
X47185Y26585D02*
D03*
Y27254D02*
D03*
X47185Y28740D02*
D03*
Y28071D02*
D03*
X46516Y28740D02*
D03*
Y28071D02*
D03*
X31703Y31811D02*
D03*
Y32480D02*
D03*
X32382Y31811D02*
D03*
Y32480D02*
D03*
X33376Y28848D02*
D03*
Y29518D02*
D03*
X36683Y31811D02*
D03*
Y31142D02*
D03*
Y32618D02*
D03*
Y33287D02*
D03*
X31240Y41102D02*
D03*
Y40433D02*
D03*
D69*
X29685Y34400D02*
D03*
Y37156D02*
D03*
Y37352D02*
D03*
X34961D02*
D03*
Y37156D02*
D03*
Y34400D02*
D03*
X29685Y37549D02*
D03*
Y37746D02*
D03*
Y37943D02*
D03*
Y38140D02*
D03*
X34961D02*
D03*
Y37943D02*
D03*
Y37746D02*
D03*
Y37549D02*
D03*
X29685Y34596D02*
D03*
Y34793D02*
D03*
Y34990D02*
D03*
Y35187D02*
D03*
Y35384D02*
D03*
Y35581D02*
D03*
Y35778D02*
D03*
Y35974D02*
D03*
Y36171D02*
D03*
Y36368D02*
D03*
Y36565D02*
D03*
Y36762D02*
D03*
Y36959D02*
D03*
X34961D02*
D03*
Y36762D02*
D03*
Y36565D02*
D03*
Y36368D02*
D03*
Y36171D02*
D03*
Y35974D02*
D03*
Y35778D02*
D03*
Y35581D02*
D03*
Y35384D02*
D03*
Y35187D02*
D03*
Y34990D02*
D03*
Y34793D02*
D03*
Y34596D02*
D03*
D70*
X32224Y38907D02*
D03*
X32421D02*
D03*
Y33632D02*
D03*
X32224D02*
D03*
X30453Y38907D02*
D03*
X30650D02*
D03*
X30846D02*
D03*
X31043D02*
D03*
X31240D02*
D03*
X31437D02*
D03*
X31634D02*
D03*
X31831D02*
D03*
X32028D02*
D03*
X32618D02*
D03*
X32815D02*
D03*
X33012D02*
D03*
X33209D02*
D03*
X33406D02*
D03*
X33602D02*
D03*
X33799D02*
D03*
X33996D02*
D03*
X34193D02*
D03*
X32028Y33632D02*
D03*
X31831D02*
D03*
X31634D02*
D03*
X31437D02*
D03*
X31240D02*
D03*
X31043D02*
D03*
X30846D02*
D03*
X30650D02*
D03*
X30453D02*
D03*
X34193D02*
D03*
X33996D02*
D03*
X33799D02*
D03*
X33602D02*
D03*
X33406D02*
D03*
X33209D02*
D03*
X33012D02*
D03*
X32815D02*
D03*
X32618D02*
D03*
D71*
X51260Y32205D02*
D03*
X52402D02*
D03*
D72*
X52490Y34449D02*
D03*
Y33307D02*
D03*
X53701Y35600D02*
D03*
Y34459D02*
D03*
D73*
X49395Y32854D02*
D03*
Y32054D02*
D03*
X50305Y32454D02*
D03*
D74*
X53297Y32800D02*
D03*
X54097D02*
D03*
X53697Y33710D02*
D03*
X50837Y33066D02*
D03*
X51637D02*
D03*
X51237Y33976D02*
D03*
X43376Y42082D02*
D03*
X44176D02*
D03*
X43776Y42992D02*
D03*
X40460Y43164D02*
D03*
X41260D02*
D03*
X40860Y42254D02*
D03*
X38501Y43164D02*
D03*
X39301D02*
D03*
X38901Y42254D02*
D03*
D75*
X52421Y39006D02*
D03*
Y40148D02*
D03*
D76*
X49488Y36280D02*
D03*
X47874D02*
D03*
X47008Y30541D02*
D03*
X48622D02*
D03*
D77*
X46476Y27254D02*
D03*
Y26644D02*
D03*
X29961Y30876D02*
D03*
Y30266D02*
D03*
D78*
X45000Y26772D02*
D03*
X45197D02*
D03*
X45394D02*
D03*
X45591D02*
D03*
X45787D02*
D03*
Y28504D02*
D03*
X45591D02*
D03*
X45394D02*
D03*
X45197D02*
D03*
X45000D02*
D03*
D79*
X45394Y27638D02*
D03*
D80*
X42825Y41063D02*
D03*
Y39803D02*
D03*
X44803Y41063D02*
D03*
Y39803D02*
D03*
X40866Y41063D02*
D03*
Y39803D02*
D03*
X38898Y41063D02*
D03*
Y39803D02*
D03*
D81*
X37230Y41116D02*
D03*
X35030D02*
D03*
X37230Y40616D02*
D03*
X35030D02*
D03*
X37230Y42116D02*
D03*
Y41616D02*
D03*
X35030D02*
D03*
Y42116D02*
D03*
X46422Y42289D02*
D03*
X48622D02*
D03*
X46422Y42789D02*
D03*
X48622D02*
D03*
X46422Y41289D02*
D03*
Y41789D02*
D03*
X48622D02*
D03*
Y41289D02*
D03*
D82*
X35610Y31398D02*
D03*
Y32972D02*
D03*
D83*
X52205Y42815D02*
D03*
X51457D02*
D03*
D84*
X35768Y44222D02*
D03*
X37579D02*
D03*
X41968D02*
D03*
X43780D02*
D03*
D85*
X24328Y28554D02*
D03*
Y45876D02*
D03*
X53856Y26821D02*
D03*
Y44144D02*
D03*
X36139Y46880D02*
D03*
D86*
X29961Y28071D02*
D03*
X53149Y42008D02*
D03*
D87*
X28961Y28071D02*
D03*
X29961Y29071D02*
D03*
X28961D02*
D03*
X27961Y28071D02*
D03*
Y29071D02*
D03*
X51358Y38073D02*
D03*
Y36073D02*
D03*
X34419Y29691D02*
D03*
X37943Y28715D02*
D03*
X54149Y42008D02*
D03*
D88*
X26039Y36567D02*
D03*
X25039D02*
D03*
X26039Y37567D02*
D03*
Y38567D02*
D03*
Y34567D02*
D03*
Y35567D02*
D03*
X25039Y37567D02*
D03*
Y38567D02*
D03*
Y35567D02*
D03*
X42711Y34390D02*
D03*
X38242D02*
D03*
X40506D02*
D03*
X47146Y34183D02*
D03*
X48228Y29175D02*
D03*
X25970Y42244D02*
D03*
D89*
X25039Y34567D02*
D03*
X48228Y27175D02*
D03*
D90*
X53701Y38081D02*
D03*
D91*
Y40443D02*
D03*
D92*
X43711Y34390D02*
D03*
X39242D02*
D03*
X41506D02*
D03*
X45768Y34183D02*
D03*
X24970Y42244D02*
D03*
D93*
X34419Y28691D02*
D03*
X37943Y29715D02*
D03*
D94*
X46772Y38081D02*
D03*
X48740D02*
D03*
X42835D02*
D03*
X44803D02*
D03*
X38898D02*
D03*
X40866D02*
D03*
M02*
