M48
;Layer_Color=9474304
;FILE_FORMAT=2:4
INCH,LZ
;TYPE=PLATED
T1F00S00C0.0118
T2F00S00C0.0197
T3F00S00C0.0380
T4F00S00C0.0394
T5F00S00C0.0433
T6F00S00C0.0472
%
T01
X062992Y017717
X066929
X068898
X067913Y019685
X068898Y021654
X070866
X072835
X073819Y023622
X07185
X069882
X067913
X065945
X063976
X064961Y025591
X066929
X068898
X070866
X072835
X073819Y027559
X07185
X069882
X067913
X065945
X066929Y029528
X068898
X070866
X072835
X064961
X062992
Y025591
X066929Y021654
X061024
X059055
X060039Y023622
X062008
X061024Y025591
X059055
X057087
X055118
X055436Y023584
X054715Y023573
X055856Y023996
X056666Y023879
X058071Y023622
X057818Y019873
X061024Y017717
X062008Y027559
X060039
X061024Y029528
X059055
X057087
X055118
X05315
X054134Y027559
X056102
X050197
X050544Y026291
X051329Y026398
X050256Y024626
X049734Y024478
X049362Y01937
X048061Y019069
X051252Y01883
X051725Y019273
X046112Y019921
X045423Y019882
X044114Y019656
X042323Y019685
X040354
X038386
X036417
X034449
X03248
X032598Y02315
X031644Y02312
X031496Y025591
X035689Y025148
X036063Y025108
X036053Y024508
X035551Y024518
X038583Y026831
X039104Y02687
X039508Y02689
X039921Y027028
X039911Y02811
X042323Y027559
X044067Y027147
X044313Y026812
X044685Y025955
X04498Y025659
X045285Y025325
X045307Y024962
X044793Y02498
X043979Y024411
X043573Y024449
X042096Y023425
X041447Y023406
X043307Y029528
X045819Y028653
X045955Y028169
X045965Y027795
X04626Y027559
X046486Y030443
X038957Y030344
X036969Y029193
X045276Y017717
X030512Y019685
X028543
X026575
X024606
X022638
X020669
X020108Y021004
X020128Y023465
X021083Y023533
X021093Y024183
X019911Y02437
X019685Y025591
X020521Y025364
X021654Y025591
X022982Y023829
X023602Y024203
X026427Y023396
X025591Y021654
X027559
X029528
X030699Y027717
X030503Y028033
X030276Y028366
X029528Y029528
X027559
X025591
X023622
X021654
X019685
X018701Y027559
X016732
X017717Y025591
X018701Y023622
X015748Y021654
X019685Y017717
X015748Y029528
X026575Y027559
X031093Y030423
X01378Y029528
X011811
X009843
X007874
X008858Y027559
X010827
X012795
X014764
X01378Y025591
X011811
X009843
X007874
X008858Y023622
X010827
X011811Y021654
X009843
X007874
X012795Y019685
X01378Y017717
X014764Y023622
Y031496
X012795
X010827
X008858
X009843Y033465
X011811
X01378
X014764Y035433
X012795
X010827
X008858
X009843Y037402
X011811
X01378
X014764Y03937
X012795
X010827
X008858
X009843Y041339
X011811
X01378
X014764Y043307
X012795
X01378Y045276
X007874Y041339
Y037402
Y033465
X015748
X017717
X019685
X021654
X023622
X024606Y035433
X022638
X020669
X018701
X016732
Y031496
X018701
X020669
X022638
X024606
X026575
X02872Y031624
X028711Y034006
X028583Y034577
X028445Y035177
X027854Y033868
X028061Y033386
X027402Y034163
X029528Y033465
X030079Y034656
X029213Y036585
X029528Y037402
X027559
X023622
X021654
Y041339
X019685
X017717
X015748
X016732Y043307
X018701
X020669
X022638
X024606
X026575
X028543
X030512
X029528Y045276
X027559
X025591
X023622
X021654
X019685
X017717
X015748
X031496
X033465
X035433
X037402
X03937
X041339
X043307
X045276
X04626Y043307
X044291
X042323
X040354
X038386
X036417
X034449
X03248
X033465Y037402
X034183Y036722
X035307Y035445
X035691Y035464
X035021Y035159
X034578Y034706
X035327Y033939
X03503Y033612
X034902Y033169
X035691Y034273
X037037Y03624
X037402Y037402
X03685Y039547
X04077Y039559
X041203Y039569
X041609Y039557
X041427Y038937
X041093Y038642
X040768Y038435
X042323Y035433
X043307Y033465
X044449Y033829
X046526Y033976
X046407Y033327
X04626Y031496
X045494Y037777
X045061Y037758
X038386Y035433
X032549Y03247
X047365Y032403
X04766Y032698
X046902Y033456
X049213Y033465
X048228Y035433
X047402Y03628
X047244Y037402
X04815Y038159
X051378Y038425
X052382Y039055
X052776Y039183
X05313Y039616
X055856Y039685
X056516Y039596
X057156Y039626
X057087Y037402
X059055
X060039Y035433
X062008
X061024Y033465
X059055
X057087
X055118
X056102Y035433
X054134
Y031496
X056102
X058071
X060039
X062008
Y03937
X061024Y041339
X059055
X060039Y043307
X062008
X061024Y045276
X059055
X057087
X055118
X05315
X051181
X049213
X047244
X048228Y043307
X050197
X052165
X054134
X056102
X058071
X052165Y031496
X063976
X065945
X067913
X069882
X07185
X073819
X072835Y033465
X070866
X068898
X066929
X064961
X065945Y035433
X067913
X069882
X07185
X073819
X072835Y037402
X070866
X068898
X066929
X064961
X062992
X063976Y03937
X065945
X067913
X069882
X07185
X073819
X072835Y041339
X070866
X068898
X066929
X064961
X062992
X063976Y043307
X065945
X067913
X068898Y045276
X066929
X064961
X062992
X063976Y035433
T02
X022697Y01812
T03
X047299Y017307
Y018307
X048299
X049299
X050299
Y017307
X049299
X048299
X055315
Y018307
X056315
Y017307
X057315
X058315
Y018307
X059315
Y017307
X057315Y018307
X046299
Y017307
T04
X047134Y022165
X048134
X049134
X050134
X051134
X052134
X053134
X054134
X055134
X056134
X057134
X058134
X046134
X045134
X044134
X043134
X042134
X041134
X040134
X039134
X038134
X037134
X036134
X035134
X034134
X033134
X032134
X031134
X030134
X029134
X028134
X027134
X026134
X025134
X024134
Y041165
X025134
X026134
X027134
X028134
X029134
X030134
X031134
X032134
X033134
X034134
X035134
X036134
X037134
X038134
X039134
X040134
X041134
X042134
X043134
X044134
X045134
X046134
X047134
X048134
X049134
X050134
X051134
X052134
X053134
X054134
X055134
X056134
X057134
X058134
T05
X064843Y019567
X066024
Y020748
X064843
X019016
Y019567
X017835
Y020748
X016654
Y019567
T06
X020512Y028346
Y03622
M30
