G04 Layer_Color=8421504*
%FSLAX24Y24*%
%MOIN*%
G70*
G01*
G75*
%ADD12R,0.0709X0.0827*%
%ADD13R,0.0709X0.0512*%
%ADD14R,0.0827X0.0709*%
%ADD15R,0.0512X0.0709*%
G36*
X61329Y38848D02*
X61053Y38976D01*
X60778Y38848D01*
Y39262D01*
X61329D01*
Y38848D01*
D02*
G37*
G36*
X55413D02*
X55138Y38976D01*
X54862Y38848D01*
Y39262D01*
X55413D01*
Y38848D01*
D02*
G37*
G36*
X49528D02*
X49252Y38976D01*
X48976Y38848D01*
Y39262D01*
X49528D01*
Y38848D01*
D02*
G37*
G36*
X43622D02*
X43346Y38976D01*
X43071Y38848D01*
Y39262D01*
X43622D01*
Y38848D01*
D02*
G37*
G36*
X37697D02*
X37421Y38976D01*
X37146Y38848D01*
Y39262D01*
X37697D01*
Y38848D01*
D02*
G37*
G36*
X31811D02*
X31535Y38976D01*
X31260Y38848D01*
Y39262D01*
X31811D01*
Y38848D01*
D02*
G37*
G36*
X25896D02*
X25620Y38976D01*
X25344Y38848D01*
Y39262D01*
X25896D01*
Y38848D01*
D02*
G37*
G36*
X20010D02*
X19734Y38976D01*
X19459Y38848D01*
Y39262D01*
X20010D01*
Y38848D01*
D02*
G37*
G36*
X61329Y38100D02*
X60778D01*
Y38514D01*
X61053Y38386D01*
X61329Y38514D01*
Y38100D01*
D02*
G37*
G36*
X55413D02*
X54862D01*
Y38514D01*
X55138Y38386D01*
X55413Y38514D01*
Y38100D01*
D02*
G37*
G36*
X49528D02*
X48976D01*
Y38514D01*
X49252Y38386D01*
X49528Y38514D01*
Y38100D01*
D02*
G37*
G36*
X43622D02*
X43071D01*
Y38514D01*
X43346Y38386D01*
X43622Y38514D01*
Y38100D01*
D02*
G37*
G36*
X37697D02*
X37146D01*
Y38514D01*
X37421Y38386D01*
X37697Y38514D01*
Y38100D01*
D02*
G37*
G36*
X31811D02*
X31260D01*
Y38514D01*
X31535Y38386D01*
X31811Y38514D01*
Y38100D01*
D02*
G37*
G36*
X25896D02*
X25344D01*
Y38514D01*
X25620Y38386D01*
X25896Y38514D01*
Y38100D01*
D02*
G37*
G36*
X20010D02*
X19459D01*
Y38514D01*
X19734Y38386D01*
X20010Y38514D01*
Y38100D01*
D02*
G37*
G36*
X30551Y29970D02*
X30157D01*
X30276Y30148D01*
X30157Y30325D01*
X30551D01*
Y29970D01*
D02*
G37*
G36*
X29764Y30148D02*
X29882Y29970D01*
X29488D01*
Y30325D01*
X29882D01*
X29764Y30148D01*
D02*
G37*
G36*
X47520Y29656D02*
X47126D01*
X47244Y29833D01*
X47126Y30010D01*
X47520D01*
Y29656D01*
D02*
G37*
G36*
X46732Y29833D02*
X46850Y29656D01*
X46457D01*
Y30010D01*
X46850D01*
X46732Y29833D01*
D02*
G37*
G36*
X29882Y28848D02*
X29705Y28967D01*
X29528Y28848D01*
Y29242D01*
X29882D01*
Y28848D01*
D02*
G37*
G36*
X47520Y28474D02*
X47126D01*
X47244Y28652D01*
X47126Y28829D01*
X47520D01*
Y28474D01*
D02*
G37*
G36*
X46732Y28652D02*
X46850Y28474D01*
X46457D01*
Y28829D01*
X46850D01*
X46732Y28652D01*
D02*
G37*
G36*
X29882Y28179D02*
X29528D01*
Y28573D01*
X29705Y28455D01*
X29882Y28573D01*
Y28179D01*
D02*
G37*
G36*
X21289Y25226D02*
X21112Y25305D01*
X20935Y25226D01*
Y25502D01*
X21289D01*
Y25226D01*
D02*
G37*
G36*
X64065Y25039D02*
X63789Y25167D01*
X63514Y25039D01*
Y25453D01*
X64065D01*
Y25039D01*
D02*
G37*
G36*
X58150D02*
X57874Y25167D01*
X57598Y25039D01*
Y25453D01*
X58150D01*
Y25039D01*
D02*
G37*
G36*
X52234D02*
X51959Y25167D01*
X51683Y25039D01*
Y25453D01*
X52234D01*
Y25039D01*
D02*
G37*
G36*
X46319D02*
X46043Y25167D01*
X45768Y25039D01*
Y25453D01*
X46319D01*
Y25039D01*
D02*
G37*
G36*
X40394D02*
X40118Y25167D01*
X39843Y25039D01*
Y25453D01*
X40394D01*
Y25039D01*
D02*
G37*
G36*
X34488D02*
X34213Y25167D01*
X33937Y25039D01*
Y25453D01*
X34488D01*
Y25039D01*
D02*
G37*
G36*
X28573D02*
X28297Y25167D01*
X28022Y25039D01*
Y25453D01*
X28573D01*
Y25039D01*
D02*
G37*
G36*
X22667D02*
X22392Y25167D01*
X22116Y25039D01*
Y25453D01*
X22667D01*
Y25039D01*
D02*
G37*
G36*
X16762D02*
X16486Y25167D01*
X16211Y25039D01*
Y25453D01*
X16762D01*
Y25039D01*
D02*
G37*
G36*
X19636Y24892D02*
X19459Y24970D01*
X19282Y24892D01*
Y25167D01*
X19636D01*
Y24892D01*
D02*
G37*
G36*
X21289Y24616D02*
X20935D01*
Y24892D01*
X21112Y24813D01*
X21289Y24892D01*
Y24616D01*
D02*
G37*
G36*
X64065Y24291D02*
X63514D01*
Y24705D01*
X63789Y24577D01*
X64065Y24705D01*
Y24291D01*
D02*
G37*
G36*
X58150D02*
X57598D01*
Y24705D01*
X57874Y24577D01*
X58150Y24705D01*
Y24291D01*
D02*
G37*
G36*
X52234D02*
X51683D01*
Y24705D01*
X51959Y24577D01*
X52234Y24705D01*
Y24291D01*
D02*
G37*
G36*
X46319D02*
X45768D01*
Y24705D01*
X46043Y24577D01*
X46319Y24705D01*
Y24291D01*
D02*
G37*
G36*
X40394D02*
X39843D01*
Y24705D01*
X40118Y24577D01*
X40394Y24705D01*
Y24291D01*
D02*
G37*
G36*
X34488D02*
X33937D01*
Y24705D01*
X34213Y24577D01*
X34488Y24705D01*
Y24291D01*
D02*
G37*
G36*
X28573D02*
X28022D01*
Y24705D01*
X28297Y24577D01*
X28573Y24705D01*
Y24291D01*
D02*
G37*
G36*
X22667D02*
X22116D01*
Y24705D01*
X22392Y24577D01*
X22667Y24705D01*
Y24291D01*
D02*
G37*
G36*
X16762D02*
X16211D01*
Y24705D01*
X16486Y24577D01*
X16762Y24705D01*
Y24291D01*
D02*
G37*
G36*
X19636Y24281D02*
X19282D01*
Y24557D01*
X19459Y24478D01*
X19636Y24557D01*
Y24281D01*
D02*
G37*
D12*
X26713Y30837D02*
D03*
X41191Y32864D02*
D03*
X63780Y27224D02*
D03*
X57874Y27352D02*
D03*
X52628Y27411D02*
D03*
X47126Y27057D02*
D03*
X41476Y27382D02*
D03*
X28317Y27165D02*
D03*
X54094Y29764D02*
D03*
X49006Y28307D02*
D03*
X35138Y29951D02*
D03*
X32195Y30049D02*
D03*
X66309Y29764D02*
D03*
X49695Y31535D02*
D03*
X36644Y31850D02*
D03*
X39695Y34665D02*
D03*
X33209Y34921D02*
D03*
X25817Y34222D02*
D03*
X17470Y34724D02*
D03*
X23071Y27539D02*
D03*
X15472Y27205D02*
D03*
X50591Y36152D02*
D03*
X38199Y36122D02*
D03*
X31545Y36378D02*
D03*
X24213Y36427D02*
D03*
X15896Y36398D02*
D03*
X52146Y33770D02*
D03*
X58169Y33888D02*
D03*
X64685Y34843D02*
D03*
X19035Y33150D02*
D03*
X33553Y32638D02*
D03*
D13*
X26713Y29911D02*
D03*
X41191Y33789D02*
D03*
X63780Y26299D02*
D03*
X57874Y26427D02*
D03*
X52628Y26486D02*
D03*
X47126Y26132D02*
D03*
X41476Y26457D02*
D03*
X28317Y26240D02*
D03*
X54094Y28839D02*
D03*
X49006Y27382D02*
D03*
X35138Y29026D02*
D03*
X32195Y29124D02*
D03*
X66309Y28839D02*
D03*
X49695Y30610D02*
D03*
X36644Y30925D02*
D03*
X39695Y35591D02*
D03*
X33209Y35846D02*
D03*
X25817Y35148D02*
D03*
X17470Y35650D02*
D03*
X23071Y26614D02*
D03*
X15472Y26280D02*
D03*
X50591Y37077D02*
D03*
X38199Y37047D02*
D03*
X31545Y37303D02*
D03*
X24213Y37352D02*
D03*
X15896Y37323D02*
D03*
X52146Y34695D02*
D03*
X58169Y34813D02*
D03*
X64685Y35768D02*
D03*
X19035Y34075D02*
D03*
X33553Y33563D02*
D03*
D14*
X18839Y30472D02*
D03*
X62539Y33081D02*
D03*
X59085Y32382D02*
D03*
X54026D02*
D03*
X44596Y32657D02*
D03*
X35138Y26476D02*
D03*
X64705Y28839D02*
D03*
X59262Y28927D02*
D03*
X40541Y29616D02*
D03*
X61260Y30659D02*
D03*
X57244Y30581D02*
D03*
X42087Y31033D02*
D03*
X30197Y31772D02*
D03*
X62697Y36693D02*
D03*
X56919Y36762D02*
D03*
X44006Y36122D02*
D03*
X46467Y35069D02*
D03*
X16378Y28858D02*
D03*
X25325Y28307D02*
D03*
X27628Y32549D02*
D03*
D15*
X17913Y30472D02*
D03*
X63465Y33081D02*
D03*
X58159Y32382D02*
D03*
X53100D02*
D03*
X45522Y32657D02*
D03*
X34213Y26476D02*
D03*
X63780Y28839D02*
D03*
X58337Y28927D02*
D03*
X41467Y29616D02*
D03*
X60335Y30659D02*
D03*
X56319Y30581D02*
D03*
X41161Y31033D02*
D03*
X31122Y31772D02*
D03*
X61772Y36693D02*
D03*
X55994Y36762D02*
D03*
X43081Y36122D02*
D03*
X45541Y35069D02*
D03*
X15453Y28858D02*
D03*
X24400Y28307D02*
D03*
X26703Y32549D02*
D03*
M02*
