G04 Layer_Color=8421504*
%FSLAX24Y24*%
%MOIN*%
G70*
G01*
G75*
%ADD11R,0.0217X0.0236*%
%ADD12R,0.0236X0.0217*%
G04:AMPARAMS|DCode=17|XSize=94.5mil|YSize=110.2mil|CornerRadius=23.6mil|HoleSize=0mil|Usage=FLASHONLY|Rotation=180.000|XOffset=0mil|YOffset=0mil|HoleType=Round|Shape=RoundedRectangle|*
%AMROUNDEDRECTD17*
21,1,0.0945,0.0630,0,0,180.0*
21,1,0.0472,0.1102,0,0,180.0*
1,1,0.0472,-0.0236,0.0315*
1,1,0.0472,0.0236,0.0315*
1,1,0.0472,0.0236,-0.0315*
1,1,0.0472,-0.0236,-0.0315*
%
%ADD17ROUNDEDRECTD17*%
%ADD18R,0.0118X0.0157*%
%ADD19R,0.0157X0.0118*%
G04:AMPARAMS|DCode=21|XSize=90.6mil|YSize=82.7mil|CornerRadius=12.4mil|HoleSize=0mil|Usage=FLASHONLY|Rotation=90.000|XOffset=0mil|YOffset=0mil|HoleType=Round|Shape=RoundedRectangle|*
%AMROUNDEDRECTD21*
21,1,0.0906,0.0579,0,0,90.0*
21,1,0.0657,0.0827,0,0,90.0*
1,1,0.0248,0.0289,0.0329*
1,1,0.0248,0.0289,-0.0329*
1,1,0.0248,-0.0289,-0.0329*
1,1,0.0248,-0.0289,0.0329*
%
%ADD21ROUNDEDRECTD21*%
%ADD22R,0.1358X0.1358*%
%ADD23O,0.0335X0.0110*%
%ADD24O,0.0110X0.0335*%
G04:AMPARAMS|DCode=27|XSize=43.3mil|YSize=23.6mil|CornerRadius=5.9mil|HoleSize=0mil|Usage=FLASHONLY|Rotation=270.000|XOffset=0mil|YOffset=0mil|HoleType=Round|Shape=RoundedRectangle|*
%AMROUNDEDRECTD27*
21,1,0.0433,0.0118,0,0,270.0*
21,1,0.0315,0.0236,0,0,270.0*
1,1,0.0118,-0.0059,-0.0157*
1,1,0.0118,-0.0059,0.0157*
1,1,0.0118,0.0059,0.0157*
1,1,0.0118,0.0059,-0.0157*
%
%ADD27ROUNDEDRECTD27*%
G04:AMPARAMS|DCode=28|XSize=94.5mil|YSize=59.1mil|CornerRadius=14.8mil|HoleSize=0mil|Usage=FLASHONLY|Rotation=270.000|XOffset=0mil|YOffset=0mil|HoleType=Round|Shape=RoundedRectangle|*
%AMROUNDEDRECTD28*
21,1,0.0945,0.0295,0,0,270.0*
21,1,0.0650,0.0591,0,0,270.0*
1,1,0.0295,-0.0148,-0.0325*
1,1,0.0295,-0.0148,0.0325*
1,1,0.0295,0.0148,0.0325*
1,1,0.0295,0.0148,-0.0325*
%
%ADD28ROUNDEDRECTD28*%
%ADD29O,0.0295X0.0850*%
G04:AMPARAMS|DCode=30|XSize=114.2mil|YSize=51.2mil|CornerRadius=12.8mil|HoleSize=0mil|Usage=FLASHONLY|Rotation=180.000|XOffset=0mil|YOffset=0mil|HoleType=Round|Shape=RoundedRectangle|*
%AMROUNDEDRECTD30*
21,1,0.1142,0.0256,0,0,180.0*
21,1,0.0886,0.0512,0,0,180.0*
1,1,0.0256,-0.0443,0.0128*
1,1,0.0256,0.0443,0.0128*
1,1,0.0256,0.0443,-0.0128*
1,1,0.0256,-0.0443,-0.0128*
%
%ADD30ROUNDEDRECTD30*%
G36*
X39675Y41358D02*
X39399D01*
X39478Y41535D01*
X39399Y41713D01*
X39675D01*
Y41358D01*
D02*
G37*
G36*
X38986Y41535D02*
X39065Y41358D01*
X38789D01*
Y41713D01*
X39065D01*
X38986Y41535D01*
D02*
G37*
G36*
X28878Y40532D02*
X28425D01*
X28553Y40817D01*
X28425Y41102D01*
X28878D01*
Y40532D01*
D02*
G37*
G36*
X28041Y40817D02*
X28169Y40532D01*
X27717D01*
Y41102D01*
X28169D01*
X28041Y40817D01*
D02*
G37*
G36*
X28848Y39892D02*
X28455D01*
X28573Y40069D01*
X28455Y40246D01*
X28848D01*
Y39892D01*
D02*
G37*
G36*
X28061Y40069D02*
X28179Y39892D01*
X27785D01*
Y40246D01*
X28179D01*
X28061Y40069D01*
D02*
G37*
G36*
X39173Y39301D02*
X38780D01*
X38898Y39478D01*
X38780Y39656D01*
X39173D01*
Y39301D01*
D02*
G37*
G36*
X38386Y39478D02*
X38504Y39301D01*
X38110D01*
Y39656D01*
X38504D01*
X38386Y39478D01*
D02*
G37*
G36*
X37687Y39301D02*
X37293D01*
X37411Y39478D01*
X37293Y39656D01*
X37687D01*
Y39301D01*
D02*
G37*
G36*
X36900Y39478D02*
X37018Y39301D01*
X36624D01*
Y39656D01*
X37018D01*
X36900Y39478D01*
D02*
G37*
G36*
X28848Y39222D02*
X28455D01*
X28573Y39400D01*
X28455Y39577D01*
X28848D01*
Y39222D01*
D02*
G37*
G36*
X28061Y39400D02*
X28179Y39222D01*
X27785D01*
Y39577D01*
X28179D01*
X28061Y39400D01*
D02*
G37*
G36*
X35669Y38553D02*
X35276D01*
X35394Y38730D01*
X35276Y38907D01*
X35669D01*
Y38553D01*
D02*
G37*
G36*
X34882Y38730D02*
X35000Y38553D01*
X34606D01*
Y38907D01*
X35000D01*
X34882Y38730D01*
D02*
G37*
G36*
X36398Y38543D02*
X36220Y38661D01*
X36043Y38543D01*
Y38937D01*
X36398D01*
Y38543D01*
D02*
G37*
G36*
X40423Y38465D02*
X40246Y38583D01*
X40069Y38465D01*
Y38858D01*
X40423D01*
Y38465D01*
D02*
G37*
G36*
X39764Y38465D02*
X39587Y38583D01*
X39409Y38465D01*
Y38858D01*
X39764D01*
Y38465D01*
D02*
G37*
G36*
X36398Y37874D02*
X36043D01*
Y38268D01*
X36220Y38150D01*
X36398Y38268D01*
Y37874D01*
D02*
G37*
G36*
X40423Y37795D02*
X40069D01*
Y38189D01*
X40246Y38071D01*
X40423Y38189D01*
Y37795D01*
D02*
G37*
G36*
X39764Y37795D02*
X39409D01*
Y38189D01*
X39587Y38071D01*
X39764Y38189D01*
Y37795D01*
D02*
G37*
G36*
X34390Y37215D02*
X33996D01*
X34114Y37392D01*
X33996Y37569D01*
X34390D01*
Y37215D01*
D02*
G37*
G36*
X33602Y37392D02*
X33720Y37215D01*
X33327D01*
Y37569D01*
X33720D01*
X33602Y37392D01*
D02*
G37*
G36*
X27274Y36654D02*
X27096Y36772D01*
X26919Y36654D01*
Y37047D01*
X27274D01*
Y36654D01*
D02*
G37*
G36*
Y35984D02*
X26919D01*
Y36378D01*
X27096Y36260D01*
X27274Y36378D01*
Y35984D01*
D02*
G37*
G36*
X35000Y35886D02*
X34606D01*
X34724Y36063D01*
X34606Y36240D01*
X35000D01*
Y35886D01*
D02*
G37*
G36*
X34213Y36063D02*
X34331Y35886D01*
X33937D01*
Y36240D01*
X34331D01*
X34213Y36063D01*
D02*
G37*
G36*
X40482Y35531D02*
X40207D01*
X40285Y35709D01*
X40207Y35886D01*
X40482D01*
Y35531D01*
D02*
G37*
G36*
X39794Y35709D02*
X39872Y35531D01*
X39597D01*
Y35886D01*
X39872D01*
X39794Y35709D01*
D02*
G37*
G36*
X40512Y34508D02*
X40059D01*
X40187Y34793D01*
X40059Y35079D01*
X40512D01*
Y34508D01*
D02*
G37*
G36*
X39675Y34793D02*
X39803Y34508D01*
X39350D01*
Y35079D01*
X39803D01*
X39675Y34793D01*
D02*
G37*
G36*
X33002Y34085D02*
X32825Y34203D01*
X32648Y34085D01*
Y34478D01*
X33002D01*
Y34085D01*
D02*
G37*
G36*
X39685Y33829D02*
X39409Y33957D01*
X39134Y33829D01*
Y34242D01*
X39685D01*
Y33829D01*
D02*
G37*
G36*
X33002Y33415D02*
X32648D01*
Y33809D01*
X32825Y33691D01*
X33002Y33809D01*
Y33415D01*
D02*
G37*
G36*
X39685Y33081D02*
X39134D01*
Y33494D01*
X39409Y33366D01*
X39685Y33494D01*
Y33081D01*
D02*
G37*
G36*
X36378Y33327D02*
X36201Y33445D01*
X36024Y33327D01*
Y33720D01*
X36378D01*
Y33327D01*
D02*
G37*
G36*
X34951D02*
X34774Y33445D01*
X34596Y33327D01*
Y33720D01*
X34951D01*
Y33327D01*
D02*
G37*
G36*
X37352Y33327D02*
X37175Y33445D01*
X36998Y33327D01*
Y33720D01*
X37352D01*
Y33327D01*
D02*
G37*
G36*
X38012Y33031D02*
X37835Y33150D01*
X37657Y33031D01*
Y33425D01*
X38012D01*
Y33031D01*
D02*
G37*
G36*
X36378Y32657D02*
X36024D01*
Y33051D01*
X36201Y32933D01*
X36378Y33051D01*
Y32657D01*
D02*
G37*
G36*
X34951D02*
X34596D01*
Y33051D01*
X34774Y32933D01*
X34951Y33051D01*
Y32657D01*
D02*
G37*
G36*
X37352Y32657D02*
X36998D01*
Y33051D01*
X37175Y32933D01*
X37352Y33051D01*
Y32657D01*
D02*
G37*
G36*
X38012Y32362D02*
X37657D01*
Y32756D01*
X37835Y32638D01*
X38012Y32756D01*
Y32362D01*
D02*
G37*
G36*
X39695Y32333D02*
X39409Y32461D01*
X39124Y32333D01*
Y32785D01*
X39695D01*
Y32333D01*
D02*
G37*
G36*
X33248Y31998D02*
X32972D01*
X33051Y32175D01*
X32972Y32352D01*
X33248D01*
Y31998D01*
D02*
G37*
G36*
X32559Y32175D02*
X32638Y31998D01*
X32362D01*
Y32352D01*
X32638D01*
X32559Y32175D01*
D02*
G37*
G36*
X39695Y31624D02*
X39124D01*
Y32077D01*
X39409Y31949D01*
X39695Y32077D01*
Y31624D01*
D02*
G37*
G36*
X30177Y31112D02*
X29783D01*
X29902Y31289D01*
X29783Y31467D01*
X30177D01*
Y31112D01*
D02*
G37*
G36*
X29390Y31289D02*
X29508Y31112D01*
X29114D01*
Y31467D01*
X29508D01*
X29390Y31289D01*
D02*
G37*
D11*
X33543Y36781D02*
D03*
X33878D02*
D03*
X33465Y34961D02*
D03*
X33130D02*
D03*
X34469Y38100D02*
D03*
X34803D02*
D03*
D12*
X32825Y35748D02*
D03*
Y36083D02*
D03*
D17*
X29989Y32717D02*
D03*
X27629D02*
D03*
D18*
X30236Y40492D02*
D03*
X30039D02*
D03*
X29843D02*
D03*
X29646D02*
D03*
Y39862D02*
D03*
X29843D02*
D03*
X30039D02*
D03*
X30236D02*
D03*
D19*
X29626Y40276D02*
D03*
Y40079D02*
D03*
X30256D02*
D03*
Y40276D02*
D03*
D21*
X37126Y38307D02*
D03*
X38701D02*
D03*
D22*
X37510Y35738D02*
D03*
D23*
X36535Y36427D02*
D03*
Y36230D02*
D03*
Y36033D02*
D03*
Y35837D02*
D03*
Y35640D02*
D03*
Y35443D02*
D03*
Y35246D02*
D03*
Y35049D02*
D03*
X38484D02*
D03*
Y35246D02*
D03*
Y35443D02*
D03*
Y35640D02*
D03*
Y35837D02*
D03*
Y36033D02*
D03*
Y36230D02*
D03*
Y36427D02*
D03*
D24*
X36821Y34764D02*
D03*
X37018D02*
D03*
X37215D02*
D03*
X37411D02*
D03*
X37608D02*
D03*
X37805D02*
D03*
X38002D02*
D03*
X38199D02*
D03*
Y36713D02*
D03*
X38002D02*
D03*
X37805D02*
D03*
X37608D02*
D03*
X37411D02*
D03*
X37215D02*
D03*
X37018D02*
D03*
X36821D02*
D03*
D27*
X35305Y35039D02*
D03*
X35659D02*
D03*
D28*
X35482Y32854D02*
D03*
D29*
X29502Y34961D02*
D03*
X28502D02*
D03*
X28002D02*
D03*
X29502Y37911D02*
D03*
X28502D02*
D03*
X28002D02*
D03*
X29002Y34961D02*
D03*
Y37911D02*
D03*
D30*
X31535Y41752D02*
D03*
X37087D02*
D03*
M02*
