G04 Layer_Color=65535*
%FSLAX24Y24*%
%MOIN*%
G70*
G01*
G75*
%ADD10C,0.0079*%
%ADD35C,0.0098*%
%ADD41C,0.0236*%
%ADD57C,0.0100*%
%ADD58C,0.0070*%
%ADD59C,0.0071*%
%ADD60C,0.0067*%
%ADD61C,0.0050*%
%ADD62C,0.0039*%
G36*
X49372Y40789D02*
X49122D01*
Y41039D01*
X49372D01*
Y40789D01*
D02*
G37*
G36*
X34530Y42366D02*
X34280D01*
Y42616D01*
X34530D01*
Y42366D01*
D02*
G37*
G36*
X28811Y45988D02*
X28561D01*
Y46238D01*
X28811D01*
Y45988D01*
D02*
G37*
D10*
X37320Y46880D02*
G03*
X37320Y46880I-1181J0D01*
G01*
X25509Y45876D02*
G03*
X25509Y45876I-1181J0D01*
G01*
Y28554D02*
G03*
X25509Y28554I-1181J0D01*
G01*
X55037Y26821D02*
G03*
X55037Y26821I-1181J0D01*
G01*
Y44144D02*
G03*
X55037Y44144I-1181J0D01*
G01*
X51211Y28868D02*
Y31506D01*
X51644D01*
X51211Y28868D02*
X51644D01*
X30138Y34085D02*
Y38455D01*
X34508Y34085D02*
Y38455D01*
X30138D02*
X34508D01*
X30138Y34085D02*
X34508D01*
X51614Y31890D02*
X52047D01*
X51614Y32520D02*
X52047D01*
X52175Y33661D02*
Y34094D01*
X52805Y33661D02*
Y34094D01*
X53386Y34813D02*
Y35246D01*
X54016Y34813D02*
Y35246D01*
X47638Y36850D02*
X49724D01*
X47638Y35709D02*
X49724D01*
Y36742D02*
Y36850D01*
Y35709D02*
Y35817D01*
X47638Y36742D02*
Y36850D01*
Y35709D02*
Y35817D01*
X45984Y27205D02*
Y28071D01*
X44803Y27205D02*
Y28071D01*
X46772Y29970D02*
X48858D01*
X46772Y31112D02*
X48858D01*
X46772Y29970D02*
Y30079D01*
Y31004D02*
Y31112D01*
X48858Y29970D02*
Y30079D01*
Y31004D02*
Y31112D01*
X42274Y40256D02*
Y40610D01*
X43376Y40256D02*
Y40610D01*
X44252Y40256D02*
Y40610D01*
X45354Y40256D02*
Y40610D01*
X40315Y40256D02*
Y40610D01*
X41417Y40256D02*
Y40610D01*
X38346Y40256D02*
Y40610D01*
X39449Y40256D02*
Y40610D01*
X34980Y31201D02*
X35020D01*
X34980D02*
Y33169D01*
X35020D01*
X36201Y31201D02*
X36240D01*
Y33169D01*
X36201D02*
X36240D01*
X35571Y43474D02*
Y43661D01*
Y44783D02*
Y44970D01*
X37776Y43474D02*
Y43661D01*
Y44783D02*
Y44970D01*
X35571Y43474D02*
X37776D01*
X35571Y44970D02*
X37776D01*
X41772Y43474D02*
Y43661D01*
Y44783D02*
Y44970D01*
X43976Y43474D02*
Y43661D01*
Y44783D02*
Y44970D01*
X41772Y43474D02*
X43976D01*
X41772Y44970D02*
X43976D01*
X26073Y48484D02*
Y48878D01*
X26270D01*
X26335Y48812D01*
Y48681D01*
X26270Y48615D01*
X26073D01*
X26204D02*
X26335Y48484D01*
X26729Y48878D02*
X26466D01*
Y48681D01*
X26598D01*
X26466D01*
Y48484D01*
X26860Y48419D02*
X27122D01*
X27516Y48812D02*
X27450Y48878D01*
X27319D01*
X27254Y48812D01*
Y48747D01*
X27319Y48681D01*
X27450D01*
X27516Y48615D01*
Y48550D01*
X27450Y48484D01*
X27319D01*
X27254Y48550D01*
X27647Y48878D02*
X27910D01*
X27778D01*
Y48484D01*
X28041D02*
Y48747D01*
X28172Y48878D01*
X28303Y48747D01*
Y48484D01*
Y48681D01*
X28041D01*
X28434Y48878D02*
X28697D01*
X28565D01*
Y48484D01*
X28828Y48878D02*
X28959D01*
X28893D01*
Y48484D01*
X28828D01*
X28959D01*
X29353Y48878D02*
X29221D01*
X29156Y48812D01*
Y48550D01*
X29221Y48484D01*
X29353D01*
X29418Y48550D01*
Y48812D01*
X29353Y48878D01*
X29549Y48484D02*
Y48878D01*
X29812Y48484D01*
Y48878D01*
X29943Y48419D02*
X30205D01*
X30337Y48878D02*
Y48484D01*
Y48681D01*
X30402Y48747D01*
X30533D01*
X30599Y48681D01*
Y48484D01*
X30730Y48747D02*
X30861Y48484D01*
X30993Y48747D01*
X31386Y48484D02*
X31124D01*
X31386Y48747D01*
Y48812D01*
X31320Y48878D01*
X31189D01*
X31124Y48812D01*
D35*
X50364Y31506D02*
G03*
X50364Y31506I-49J0D01*
G01*
X30226Y33435D02*
G03*
X30226Y33435I-49J0D01*
G01*
X44793Y26594D02*
G03*
X44793Y26594I-49J0D01*
G01*
D41*
X30650Y34478D02*
G03*
X30650Y34478I-118J0D01*
G01*
D57*
X30511Y46038D02*
G03*
X31111Y46038I300J0D01*
G01*
X35848Y42396D02*
G03*
X36407Y42415I280J0D01*
G01*
X47803Y41010D02*
G03*
X47245Y40991I-280J0D01*
G01*
X30011Y46038D02*
X30511D01*
X30011Y44038D02*
X31611D01*
Y46038D01*
X30011Y44038D02*
Y46038D01*
X31111D02*
X31611D01*
X50095Y32754D02*
Y33054D01*
X49695Y31854D02*
X50095D01*
Y32154D01*
X49595Y32354D02*
Y32554D01*
X49695Y33054D02*
X50095D01*
X53097Y33500D02*
X53397D01*
X54297Y33100D02*
Y33500D01*
X53997D02*
X54297D01*
X53597Y33000D02*
X53797D01*
X53097Y33100D02*
Y33500D01*
X50637Y33766D02*
X50937D01*
X51837Y33366D02*
Y33766D01*
X51537D02*
X51837D01*
X51137Y33266D02*
X51337D01*
X50637Y33366D02*
Y33766D01*
X43176Y42782D02*
X43476D01*
X44376Y42382D02*
Y42782D01*
X44076D02*
X44376D01*
X43676Y42282D02*
X43876D01*
X43176Y42382D02*
Y42782D01*
X40260Y42464D02*
Y42864D01*
Y42464D02*
X40560D01*
X41460D02*
Y42864D01*
X41160Y42464D02*
X41460D01*
X40760Y42964D02*
X40960D01*
X38301Y42464D02*
Y42864D01*
Y42464D02*
X38601D01*
X39501D02*
Y42864D01*
X39201Y42464D02*
X39501D01*
X38801Y42964D02*
X39001D01*
X36630Y40216D02*
Y42416D01*
X35630Y40216D02*
Y42416D01*
Y40216D02*
X36630D01*
X36430Y42416D02*
X36630D01*
X35630D02*
X35830D01*
X47022Y40989D02*
Y43189D01*
X48022Y40989D02*
Y43189D01*
X47022D02*
X48022D01*
X47022Y40989D02*
X47222D01*
X47822D02*
X48022D01*
D58*
X30183Y46869D02*
G03*
X30184Y46358I609J-255D01*
G01*
X31390D02*
G03*
X31391Y46869I-608J256D01*
G01*
X33726Y40333D02*
G03*
X33727Y39823I609J-255D01*
G01*
X34934D02*
G03*
X34934Y40333I-608J256D01*
G01*
X28636Y34735D02*
G03*
X28635Y35246I-609J255D01*
G01*
X27428D02*
G03*
X27428Y34735I608J-256D01*
G01*
X35872Y34654D02*
G03*
X35873Y34144I609J-255D01*
G01*
X37079D02*
G03*
X37080Y34654I-608J256D01*
G01*
X28636Y36704D02*
G03*
X28635Y37214I-609J255D01*
G01*
X27428D02*
G03*
X27428Y36704I608J-256D01*
G01*
X36704Y28786D02*
G03*
X37214Y28786I255J609D01*
G01*
Y29993D02*
G03*
X36704Y29993I-256J-608D01*
G01*
X43800Y27014D02*
G03*
X44311Y27014I255J609D01*
G01*
Y28221D02*
G03*
X43800Y28222I-256J-608D01*
G01*
X44258Y26219D02*
G03*
X44258Y25709I609J-255D01*
G01*
X45465D02*
G03*
X45466Y26219I-608J256D01*
G01*
X47440Y27524D02*
G03*
X46929Y27523I-255J-609D01*
G01*
Y26316D02*
G03*
X47440Y26316I256J608D01*
G01*
X46930Y27801D02*
G03*
X47441Y27802I255J609D01*
G01*
Y29009D02*
G03*
X46930Y29009I-256J-608D01*
G01*
X46261Y27801D02*
G03*
X46772Y27802I255J609D01*
G01*
Y29009D02*
G03*
X46261Y29009I-256J-608D01*
G01*
X47405Y32993D02*
G03*
X47405Y33504I-609J255D01*
G01*
X46198D02*
G03*
X46198Y32993I608J-256D01*
G01*
X35488Y43139D02*
G03*
X35489Y42628I609J-255D01*
G01*
X36696D02*
G03*
X36696Y43139I-608J256D01*
G01*
X31957Y32750D02*
G03*
X31447Y32749I-255J-609D01*
G01*
Y31543D02*
G03*
X31957Y31542I256J608D01*
G01*
X32637Y32750D02*
G03*
X32126Y32749I-255J-609D01*
G01*
Y31543D02*
G03*
X32637Y31542I256J608D01*
G01*
X33631Y29787D02*
G03*
X33120Y29787I-255J-609D01*
G01*
Y28580D02*
G03*
X33631Y28580I256J608D01*
G01*
X36428Y30872D02*
G03*
X36939Y30873I255J609D01*
G01*
Y32079D02*
G03*
X36428Y32080I-256J-608D01*
G01*
X36938Y33557D02*
G03*
X36427Y33557I-255J-609D01*
G01*
Y32350D02*
G03*
X36938Y32349I256J608D01*
G01*
X35872Y37213D02*
G03*
X35873Y36703I609J-255D01*
G01*
X37079D02*
G03*
X37080Y37213I-608J256D01*
G01*
X30985Y40163D02*
G03*
X31496Y40164I255J609D01*
G01*
Y41371D02*
G03*
X30985Y41371I-256J-608D01*
G01*
X49297Y42558D02*
G03*
X49298Y42047I609J-255D01*
G01*
X50505D02*
G03*
X50505Y42558I-608J256D01*
G01*
X26467Y42490D02*
X27510D01*
X26467Y41978D02*
X27510D01*
Y42490D01*
X26467Y41978D02*
Y42490D01*
X30187Y46358D02*
X31388D01*
X30187Y46869D02*
X31387D01*
X33730Y39823D02*
X34931D01*
X33730Y40334D02*
X34930D01*
X27431Y35246D02*
X28632D01*
X27432Y34735D02*
X28632D01*
X35876Y34144D02*
X37077D01*
X35876Y34655D02*
X37076D01*
X27431Y37215D02*
X28632D01*
X27432Y36704D02*
X28632D01*
X37215Y28789D02*
Y29990D01*
X36704Y28789D02*
Y29989D01*
X35148Y29941D02*
X36191D01*
X35148Y29429D02*
X36191D01*
Y29941D01*
X35148Y29429D02*
Y29941D01*
X44311Y27018D02*
Y28219D01*
X43800Y27018D02*
Y28218D01*
X44262Y25709D02*
X45463D01*
X44262Y26220D02*
X45462D01*
X46732Y26427D02*
Y27470D01*
X46220Y26427D02*
Y27470D01*
Y26427D02*
X46732D01*
X46220Y27470D02*
X46732D01*
X46929Y26319D02*
Y27520D01*
X47440Y26320D02*
Y27520D01*
X46299Y29242D02*
X47343D01*
X46299Y29754D02*
X47343D01*
X46299Y29242D02*
Y29754D01*
X47343Y29242D02*
Y29754D01*
X47441Y27805D02*
Y29006D01*
X46930Y27805D02*
Y29005D01*
X46772Y27805D02*
Y29006D01*
X46261Y27805D02*
Y29005D01*
X46860Y31634D02*
X47904D01*
X46860Y32146D02*
X47904D01*
X46860Y31634D02*
Y32146D01*
X47904Y31634D02*
Y32146D01*
X46250Y32323D02*
X47293D01*
X46250Y32835D02*
X47293D01*
X46250Y32323D02*
Y32835D01*
X47293Y32323D02*
Y32835D01*
X46201Y33504D02*
X47402D01*
X46202Y32993D02*
X47402D01*
X38031Y35600D02*
X39075D01*
X38031Y35089D02*
X39075D01*
Y35600D01*
X38031Y35089D02*
Y35600D01*
X40285D02*
X41329D01*
X40285Y35089D02*
X41329D01*
Y35600D01*
X40285Y35089D02*
Y35600D01*
X42490D02*
X43533D01*
X42490Y35089D02*
X43533D01*
Y35600D01*
X42490Y35089D02*
Y35600D01*
X35492Y42628D02*
X36693D01*
X35492Y43139D02*
X36692D01*
X31447Y31545D02*
Y32746D01*
X31958Y31546D02*
Y32746D01*
X32126Y31545D02*
Y32746D01*
X32637Y31546D02*
Y32746D01*
X33120Y28583D02*
Y29783D01*
X33631Y28583D02*
Y29783D01*
X36939Y30876D02*
Y32077D01*
X36428Y30876D02*
Y32076D01*
X38681Y29961D02*
X39724D01*
X38681Y29449D02*
X39724D01*
Y29961D01*
X38681Y29449D02*
Y29961D01*
X36427Y32352D02*
Y33553D01*
X36938Y32353D02*
Y33553D01*
X35876Y36703D02*
X37077D01*
X35876Y37214D02*
X37076D01*
X31496Y40167D02*
Y41368D01*
X30985Y40167D02*
Y41367D01*
X30217Y30049D02*
Y31093D01*
X29705Y30049D02*
Y31093D01*
Y30049D02*
X30217D01*
X29705Y31093D02*
X30217D01*
X49301Y42047D02*
X50502D01*
X49301Y42558D02*
X50501D01*
D59*
X42853Y31877D02*
G03*
X42823Y30577I2035J-697D01*
G01*
X46256Y30641D02*
G03*
X46252Y31834I-2068J589D01*
G01*
D60*
X52776Y39400D02*
Y39754D01*
X52067Y39400D02*
Y39754D01*
D61*
X48431Y36630D02*
X48931Y36280D01*
X48431Y35930D02*
X48931Y36280D01*
Y35930D02*
Y36630D01*
X48431Y35930D02*
Y36630D01*
X47565Y30541D02*
X48065Y30191D01*
X47565Y30541D02*
X48065Y30891D01*
X47565Y30191D02*
Y30891D01*
X48065Y30191D02*
Y30891D01*
X36373Y43822D02*
Y44622D01*
X36973Y43822D02*
Y44622D01*
X36373Y44222D02*
X36973Y44622D01*
X36373Y44222D02*
X36973Y43822D01*
X42574D02*
Y44622D01*
X43174Y43822D02*
Y44622D01*
X42574Y44222D02*
X43174Y44622D01*
X42574Y44222D02*
X43174Y43822D01*
D62*
X52488Y42465D02*
Y43165D01*
X51173Y42465D02*
Y43165D01*
X52488D01*
X51173Y42465D02*
X52488D01*
X50167Y42972D02*
X50118Y43022D01*
X50020D01*
X49970Y42972D01*
Y42776D01*
X50020Y42726D01*
X50118D01*
X50167Y42776D01*
X50266Y42726D02*
X50364D01*
X50315D01*
Y43022D01*
X50266Y42972D01*
X37087Y43012D02*
X37037Y43061D01*
X36939D01*
X36890Y43012D01*
Y42815D01*
X36939Y42766D01*
X37037D01*
X37087Y42815D01*
X37382Y42766D02*
X37185D01*
X37382Y42963D01*
Y43012D01*
X37333Y43061D01*
X37234D01*
X37185Y43012D01*
X37095Y31447D02*
X37046Y31398D01*
Y31299D01*
X37095Y31250D01*
X37291D01*
X37341Y31299D01*
Y31398D01*
X37291Y31447D01*
X37095Y31545D02*
X37046Y31594D01*
Y31693D01*
X37095Y31742D01*
X37144D01*
X37193Y31693D01*
Y31644D01*
Y31693D01*
X37242Y31742D01*
X37291D01*
X37341Y31693D01*
Y31594D01*
X37291Y31545D01*
X37095Y33327D02*
X37046Y33277D01*
Y33179D01*
X37095Y33130D01*
X37291D01*
X37341Y33179D01*
Y33277D01*
X37291Y33327D01*
X37341Y33573D02*
X37046D01*
X37193Y33425D01*
Y33622D01*
X33297Y30256D02*
X33248Y30305D01*
X33150D01*
X33100Y30256D01*
Y30059D01*
X33150Y30010D01*
X33248D01*
X33297Y30059D01*
X33592Y30305D02*
X33396D01*
Y30157D01*
X33494Y30207D01*
X33543D01*
X33592Y30157D01*
Y30059D01*
X33543Y30010D01*
X33445D01*
X33396Y30059D01*
X36900Y30565D02*
X36851Y30614D01*
X36752D01*
X36703Y30565D01*
Y30368D01*
X36752Y30319D01*
X36851D01*
X36900Y30368D01*
X37195Y30614D02*
X37097Y30565D01*
X36998Y30466D01*
Y30368D01*
X37048Y30319D01*
X37146D01*
X37195Y30368D01*
Y30417D01*
X37146Y30466D01*
X36998D01*
X31240Y41831D02*
X31191Y41880D01*
X31093D01*
X31043Y41831D01*
Y41634D01*
X31093Y41585D01*
X31191D01*
X31240Y41634D01*
X31338Y41880D02*
X31535D01*
Y41831D01*
X31338Y41634D01*
Y41585D01*
X27578Y37735D02*
X27529Y37784D01*
X27431D01*
X27381Y37735D01*
Y37538D01*
X27431Y37489D01*
X27529D01*
X27578Y37538D01*
X27677Y37735D02*
X27726Y37784D01*
X27824D01*
X27873Y37735D01*
Y37685D01*
X27824Y37636D01*
X27873Y37587D01*
Y37538D01*
X27824Y37489D01*
X27726D01*
X27677Y37538D01*
Y37587D01*
X27726Y37636D01*
X27677Y37685D01*
Y37735D01*
X27726Y37636D02*
X27824D01*
X37470Y37047D02*
X37421Y37096D01*
X37323D01*
X37274Y37047D01*
Y36850D01*
X37323Y36801D01*
X37421D01*
X37470Y36850D01*
X37569D02*
X37618Y36801D01*
X37716D01*
X37766Y36850D01*
Y37047D01*
X37716Y37096D01*
X37618D01*
X37569Y37047D01*
Y36998D01*
X37618Y36949D01*
X37766D01*
X36027Y35171D02*
X35978Y35220D01*
X35879D01*
X35830Y35171D01*
Y34974D01*
X35879Y34925D01*
X35978D01*
X36027Y34974D01*
X36125Y34925D02*
X36223D01*
X36174D01*
Y35220D01*
X36125Y35171D01*
X36371D02*
X36420Y35220D01*
X36519D01*
X36568Y35171D01*
Y34974D01*
X36519Y34925D01*
X36420D01*
X36371Y34974D01*
Y35171D01*
X32854Y31988D02*
X32805Y31939D01*
Y31841D01*
X32854Y31791D01*
X33051D01*
X33100Y31841D01*
Y31939D01*
X33051Y31988D01*
X33100Y32087D02*
Y32185D01*
Y32136D01*
X32805D01*
X32854Y32087D01*
X33100Y32332D02*
Y32431D01*
Y32382D01*
X32805D01*
X32854Y32332D01*
X27581Y35763D02*
X27531Y35812D01*
X27433D01*
X27384Y35763D01*
Y35567D01*
X27433Y35517D01*
X27531D01*
X27581Y35567D01*
X27679Y35517D02*
X27777D01*
X27728D01*
Y35812D01*
X27679Y35763D01*
X28122Y35517D02*
X27925D01*
X28122Y35714D01*
Y35763D01*
X28073Y35812D01*
X27974D01*
X27925Y35763D01*
X31004Y31939D02*
X30955Y31890D01*
Y31791D01*
X31004Y31742D01*
X31201D01*
X31250Y31791D01*
Y31890D01*
X31201Y31939D01*
X31250Y32037D02*
Y32136D01*
Y32087D01*
X30955D01*
X31004Y32037D01*
Y32283D02*
X30955Y32332D01*
Y32431D01*
X31004Y32480D01*
X31053D01*
X31102Y32431D01*
Y32382D01*
Y32431D01*
X31152Y32480D01*
X31201D01*
X31250Y32431D01*
Y32332D01*
X31201Y32283D01*
X33881Y40852D02*
X33832Y40901D01*
X33734D01*
X33685Y40852D01*
Y40655D01*
X33734Y40606D01*
X33832D01*
X33881Y40655D01*
X33980Y40606D02*
X34078D01*
X34029D01*
Y40901D01*
X33980Y40852D01*
X34373Y40606D02*
Y40901D01*
X34226Y40753D01*
X34423D01*
X30331Y47391D02*
X30282Y47440D01*
X30183D01*
X30134Y47391D01*
Y47194D01*
X30183Y47145D01*
X30282D01*
X30331Y47194D01*
X30429Y47145D02*
X30528D01*
X30478D01*
Y47440D01*
X30429Y47391D01*
X30872Y47440D02*
X30675D01*
Y47293D01*
X30774Y47342D01*
X30823D01*
X30872Y47293D01*
Y47194D01*
X30823Y47145D01*
X30724D01*
X30675Y47194D01*
X52333Y38022D02*
X52284Y37972D01*
Y37874D01*
X52333Y37825D01*
X52530D01*
X52579Y37874D01*
Y37972D01*
X52530Y38022D01*
X52579Y38120D02*
Y38218D01*
Y38169D01*
X52284D01*
X52333Y38120D01*
X52284Y38563D02*
X52333Y38464D01*
X52431Y38366D01*
X52530D01*
X52579Y38415D01*
Y38514D01*
X52530Y38563D01*
X52480D01*
X52431Y38514D01*
Y38366D01*
X43337Y27549D02*
X43287Y27500D01*
Y27402D01*
X43337Y27352D01*
X43533D01*
X43583Y27402D01*
Y27500D01*
X43533Y27549D01*
X43583Y27648D02*
Y27746D01*
Y27697D01*
X43287D01*
X43337Y27648D01*
X43287Y27894D02*
Y28090D01*
X43337D01*
X43533Y27894D01*
X43583D01*
X47785Y33317D02*
X47736Y33366D01*
X47638D01*
X47589Y33317D01*
Y33120D01*
X47638Y33071D01*
X47736D01*
X47785Y33120D01*
X47884Y33071D02*
X47982D01*
X47933D01*
Y33366D01*
X47884Y33317D01*
X48130D02*
X48179Y33366D01*
X48277D01*
X48327Y33317D01*
Y33268D01*
X48277Y33218D01*
X48327Y33169D01*
Y33120D01*
X48277Y33071D01*
X48179D01*
X48130Y33120D01*
Y33169D01*
X48179Y33218D01*
X48130Y33268D01*
Y33317D01*
X48179Y33218D02*
X48277D01*
X43120Y26033D02*
X43071Y26083D01*
X42972D01*
X42923Y26033D01*
Y25837D01*
X42972Y25787D01*
X43071D01*
X43120Y25837D01*
X43415Y25787D02*
X43218D01*
X43415Y25984D01*
Y26033D01*
X43366Y26083D01*
X43268D01*
X43218Y26033D01*
X43514Y25787D02*
X43612D01*
X43563D01*
Y26083D01*
X43514Y26033D01*
X47589Y26762D02*
X47539Y26713D01*
Y26614D01*
X47589Y26565D01*
X47785D01*
X47835Y26614D01*
Y26713D01*
X47785Y26762D01*
X47835Y27057D02*
Y26860D01*
X47638Y27057D01*
X47589D01*
X47539Y27008D01*
Y26909D01*
X47589Y26860D01*
X47835Y27352D02*
Y27155D01*
X47638Y27352D01*
X47589D01*
X47539Y27303D01*
Y27205D01*
X47589Y27155D01*
X47628Y28179D02*
X47579Y28130D01*
Y28031D01*
X47628Y27982D01*
X47825D01*
X47874Y28031D01*
Y28130D01*
X47825Y28179D01*
X47874Y28474D02*
Y28277D01*
X47677Y28474D01*
X47628D01*
X47579Y28425D01*
Y28327D01*
X47628Y28277D01*
Y28573D02*
X47579Y28622D01*
Y28720D01*
X47628Y28769D01*
X47677D01*
X47726Y28720D01*
Y28671D01*
Y28720D01*
X47776Y28769D01*
X47825D01*
X47874Y28720D01*
Y28622D01*
X47825Y28573D01*
X48071Y28189D02*
X48022Y28140D01*
Y28041D01*
X48071Y27992D01*
X48268D01*
X48317Y28041D01*
Y28140D01*
X48268Y28189D01*
X48317Y28484D02*
Y28287D01*
X48120Y28484D01*
X48071D01*
X48022Y28435D01*
Y28337D01*
X48071Y28287D01*
X48317Y28730D02*
X48022D01*
X48169Y28582D01*
Y28779D01*
X43671Y26703D02*
Y26407D01*
X43819D01*
X43868Y26457D01*
Y26653D01*
X43819Y26703D01*
X43671D01*
X43966Y26407D02*
Y26604D01*
X44065Y26703D01*
X44163Y26604D01*
Y26407D01*
Y26555D01*
X43966D01*
X44262Y26407D02*
X44360D01*
X44311D01*
Y26703D01*
X44262Y26653D01*
X46142Y43494D02*
Y43199D01*
X46289D01*
X46339Y43248D01*
Y43445D01*
X46289Y43494D01*
X46142D01*
X46437D02*
Y43199D01*
X46585D01*
X46634Y43248D01*
Y43445D01*
X46585Y43494D01*
X46437D01*
X46732Y43199D02*
X46830D01*
X46781D01*
Y43494D01*
X46732Y43445D01*
X29384Y39776D02*
Y39481D01*
X29532D01*
X29581Y39530D01*
Y39727D01*
X29532Y39776D01*
X29384D01*
X29679D02*
Y39481D01*
X29827D01*
X29876Y39530D01*
Y39727D01*
X29827Y39776D01*
X29679D01*
X30171Y39481D02*
X29975D01*
X30171Y39678D01*
Y39727D01*
X30122Y39776D01*
X30024D01*
X29975Y39727D01*
X28598Y46776D02*
Y46481D01*
X28745D01*
X28794Y46530D01*
Y46727D01*
X28745Y46776D01*
X28598D01*
X28893D02*
Y46481D01*
X29040D01*
X29090Y46530D01*
Y46727D01*
X29040Y46776D01*
X28893D01*
X29188Y46727D02*
X29237Y46776D01*
X29336D01*
X29385Y46727D01*
Y46678D01*
X29336Y46629D01*
X29286D01*
X29336D01*
X29385Y46579D01*
Y46530D01*
X29336Y46481D01*
X29237D01*
X29188Y46530D01*
X45551Y40364D02*
Y40167D01*
X45699D01*
Y40266D01*
Y40167D01*
X45846D01*
X45551Y40462D02*
X45797D01*
X45846Y40512D01*
Y40610D01*
X45797Y40659D01*
X45551D01*
X45846Y40758D02*
Y40856D01*
Y40807D01*
X45551D01*
X45600Y40758D01*
X41801Y40266D02*
Y40069D01*
X41949D01*
Y40167D01*
Y40069D01*
X42096D01*
X41801Y40364D02*
X42047D01*
X42096Y40413D01*
Y40512D01*
X42047Y40561D01*
X41801D01*
X42096Y40856D02*
Y40659D01*
X41900Y40856D01*
X41850D01*
X41801Y40807D01*
Y40708D01*
X41850Y40659D01*
X40718Y41821D02*
X40522D01*
Y41673D01*
X40620D01*
X40522D01*
Y41526D01*
X40817Y41821D02*
Y41575D01*
X40866Y41526D01*
X40964D01*
X41014Y41575D01*
Y41821D01*
X41112Y41772D02*
X41161Y41821D01*
X41260D01*
X41309Y41772D01*
Y41722D01*
X41260Y41673D01*
X41210D01*
X41260D01*
X41309Y41624D01*
Y41575D01*
X41260Y41526D01*
X41161D01*
X41112Y41575D01*
X38671Y41791D02*
X38474D01*
Y41644D01*
X38573D01*
X38474D01*
Y41496D01*
X38770Y41791D02*
Y41545D01*
X38819Y41496D01*
X38917D01*
X38966Y41545D01*
Y41791D01*
X39212Y41496D02*
Y41791D01*
X39065Y41644D01*
X39262D01*
X42743Y33650D02*
Y33354D01*
X42940D01*
X43039D02*
X43137D01*
X43088D01*
Y33650D01*
X43039Y33600D01*
X34714Y31496D02*
X34517D01*
X34468Y31447D01*
Y31348D01*
X34517Y31299D01*
X34714D01*
X34763Y31348D01*
Y31447D01*
X34665Y31398D02*
X34763Y31496D01*
Y31447D02*
X34714Y31496D01*
X34763Y31594D02*
X34468D01*
Y31742D01*
X34517Y31791D01*
X34616D01*
X34665Y31742D01*
Y31594D01*
Y31693D02*
X34763Y31791D01*
Y31890D02*
Y31988D01*
Y31939D01*
X34468D01*
X34517Y31890D01*
X29587Y30443D02*
X29291D01*
Y30591D01*
X29341Y30640D01*
X29439D01*
X29488Y30591D01*
Y30443D01*
Y30541D02*
X29587Y30640D01*
Y30738D02*
Y30836D01*
Y30787D01*
X29291D01*
X29341Y30738D01*
X35149Y30215D02*
Y30510D01*
X35297D01*
X35346Y30461D01*
Y30363D01*
X35297Y30313D01*
X35149D01*
X35248D02*
X35346Y30215D01*
X35641D02*
X35444D01*
X35641Y30412D01*
Y30461D01*
X35592Y30510D01*
X35494D01*
X35444Y30461D01*
X38927Y30079D02*
Y30374D01*
X39075D01*
X39124Y30325D01*
Y30226D01*
X39075Y30177D01*
X38927D01*
X39026D02*
X39124Y30079D01*
X39222Y30325D02*
X39272Y30374D01*
X39370D01*
X39419Y30325D01*
Y30276D01*
X39370Y30226D01*
X39321D01*
X39370D01*
X39419Y30177D01*
Y30128D01*
X39370Y30079D01*
X39272D01*
X39222Y30128D01*
X42766Y35738D02*
Y36033D01*
X42913D01*
X42963Y35984D01*
Y35886D01*
X42913Y35837D01*
X42766D01*
X42864D02*
X42963Y35738D01*
X43209D02*
Y36033D01*
X43061Y35886D01*
X43258D01*
X40640Y35748D02*
Y36043D01*
X40787D01*
X40837Y35994D01*
Y35896D01*
X40787Y35846D01*
X40640D01*
X40738D02*
X40837Y35748D01*
X41132Y36043D02*
X40935D01*
Y35896D01*
X41033Y35945D01*
X41083D01*
X41132Y35896D01*
Y35797D01*
X41083Y35748D01*
X40984D01*
X40935Y35797D01*
X38297Y35719D02*
Y36014D01*
X38445D01*
X38494Y35964D01*
Y35866D01*
X38445Y35817D01*
X38297D01*
X38396D02*
X38494Y35719D01*
X38789Y36014D02*
X38691Y35964D01*
X38592Y35866D01*
Y35768D01*
X38642Y35719D01*
X38740D01*
X38789Y35768D01*
Y35817D01*
X38740Y35866D01*
X38592D01*
X26468Y42764D02*
Y43059D01*
X26616D01*
X26665Y43010D01*
Y42912D01*
X26616Y42863D01*
X26468D01*
X26567D02*
X26665Y42764D01*
X26763Y43059D02*
X26960D01*
Y43010D01*
X26763Y42813D01*
Y42764D01*
X53465Y35915D02*
Y36211D01*
X53612D01*
X53661Y36161D01*
Y36063D01*
X53612Y36014D01*
X53465D01*
X53563D02*
X53661Y35915D01*
X53760Y36161D02*
X53809Y36211D01*
X53907D01*
X53957Y36161D01*
Y36112D01*
X53907Y36063D01*
X53957Y36014D01*
Y35965D01*
X53907Y35915D01*
X53809D01*
X53760Y35965D01*
Y36014D01*
X53809Y36063D01*
X53760Y36112D01*
Y36161D01*
X53809Y36063D02*
X53907D01*
X52215Y34793D02*
Y35088D01*
X52362D01*
X52411Y35039D01*
Y34941D01*
X52362Y34892D01*
X52215D01*
X52313D02*
X52411Y34793D01*
X52510Y34843D02*
X52559Y34793D01*
X52657D01*
X52707Y34843D01*
Y35039D01*
X52657Y35088D01*
X52559D01*
X52510Y35039D01*
Y34990D01*
X52559Y34941D01*
X52707D01*
X53041Y31801D02*
X52746D01*
Y31949D01*
X52795Y31998D01*
X52894D01*
X52943Y31949D01*
Y31801D01*
Y31900D02*
X53041Y31998D01*
Y32096D02*
Y32195D01*
Y32146D01*
X52746D01*
X52795Y32096D01*
Y32342D02*
X52746Y32392D01*
Y32490D01*
X52795Y32539D01*
X52992D01*
X53041Y32490D01*
Y32392D01*
X52992Y32342D01*
X52795D01*
X47470Y32411D02*
Y32707D01*
X47618D01*
X47667Y32657D01*
Y32559D01*
X47618Y32510D01*
X47470D01*
X47569D02*
X47667Y32411D01*
X47766D02*
X47864D01*
X47815D01*
Y32707D01*
X47766Y32657D01*
X48012Y32411D02*
X48110D01*
X48061D01*
Y32707D01*
X48012Y32657D01*
X47500Y29567D02*
Y29862D01*
X47648D01*
X47697Y29813D01*
Y29715D01*
X47648Y29665D01*
X47500D01*
X47598D02*
X47697Y29567D01*
X47795D02*
X47894D01*
X47844D01*
Y29862D01*
X47795Y29813D01*
X48238Y29567D02*
X48041D01*
X48238Y29764D01*
Y29813D01*
X48189Y29862D01*
X48090D01*
X48041Y29813D01*
X46614Y25512D02*
X46319D01*
Y25659D01*
X46368Y25709D01*
X46467D01*
X46516Y25659D01*
Y25512D01*
Y25610D02*
X46614Y25709D01*
Y25807D02*
Y25905D01*
Y25856D01*
X46319D01*
X46368Y25807D01*
Y26053D02*
X46319Y26102D01*
Y26201D01*
X46368Y26250D01*
X46417D01*
X46467Y26201D01*
Y26151D01*
Y26201D01*
X46516Y26250D01*
X46565D01*
X46614Y26201D01*
Y26102D01*
X46565Y26053D01*
X48061Y31732D02*
Y32027D01*
X48209D01*
X48258Y31978D01*
Y31880D01*
X48209Y31831D01*
X48061D01*
X48159D02*
X48258Y31732D01*
X48356D02*
X48455D01*
X48405D01*
Y32027D01*
X48356Y31978D01*
X48750Y31732D02*
Y32027D01*
X48602Y31880D01*
X48799D01*
X35994Y40049D02*
Y39803D01*
X36043Y39754D01*
X36142D01*
X36191Y39803D01*
Y40049D01*
X36289Y39754D02*
X36388D01*
X36338D01*
Y40049D01*
X36289Y40000D01*
X43445Y41673D02*
Y41476D01*
X43543Y41378D01*
X43642Y41476D01*
Y41673D01*
X43740D02*
Y41378D01*
X43888D01*
X43937Y41427D01*
Y41624D01*
X43888Y41673D01*
X43740D01*
X44035Y41378D02*
X44134D01*
X44084D01*
Y41673D01*
X44035Y41624D01*
X40472Y43868D02*
Y43671D01*
X40571Y43573D01*
X40669Y43671D01*
Y43868D01*
X40768D02*
Y43573D01*
X40915D01*
X40964Y43622D01*
Y43819D01*
X40915Y43868D01*
X40768D01*
X41260Y43573D02*
X41063D01*
X41260Y43770D01*
Y43819D01*
X41210Y43868D01*
X41112D01*
X41063Y43819D01*
X36309Y45462D02*
Y45266D01*
X36407Y45167D01*
X36506Y45266D01*
Y45462D01*
X36604D02*
Y45167D01*
X36752D01*
X36801Y45217D01*
Y45413D01*
X36752Y45462D01*
X36604D01*
X36899Y45413D02*
X36949Y45462D01*
X37047D01*
X37096Y45413D01*
Y45364D01*
X37047Y45315D01*
X36998D01*
X37047D01*
X37096Y45266D01*
Y45217D01*
X37047Y45167D01*
X36949D01*
X36899Y45217D01*
X42510Y45403D02*
Y45207D01*
X42608Y45108D01*
X42707Y45207D01*
Y45403D01*
X42805D02*
Y45108D01*
X42953D01*
X43002Y45157D01*
Y45354D01*
X42953Y45403D01*
X42805D01*
X43248Y45108D02*
Y45403D01*
X43100Y45256D01*
X43297D01*
X38524Y43848D02*
Y43652D01*
X38622Y43553D01*
X38720Y43652D01*
Y43848D01*
X38819D02*
Y43553D01*
X38966D01*
X39016Y43602D01*
Y43799D01*
X38966Y43848D01*
X38819D01*
X39311D02*
X39114D01*
Y43701D01*
X39212Y43750D01*
X39262D01*
X39311Y43701D01*
Y43602D01*
X39262Y43553D01*
X39163D01*
X39114Y43602D01*
X48159Y35590D02*
Y35394D01*
X48258Y35295D01*
X48356Y35394D01*
Y35590D01*
X48455D02*
Y35295D01*
X48602D01*
X48651Y35344D01*
Y35541D01*
X48602Y35590D01*
X48455D01*
X48750Y35295D02*
X48848D01*
X48799D01*
Y35590D01*
X48750Y35541D01*
X48996D02*
X49045Y35590D01*
X49143D01*
X49193Y35541D01*
Y35344D01*
X49143Y35295D01*
X49045D01*
X48996Y35344D01*
Y35541D01*
X50827Y34744D02*
Y34547D01*
X50925Y34449D01*
X51024Y34547D01*
Y34744D01*
X51122D02*
Y34449D01*
X51270D01*
X51319Y34498D01*
Y34695D01*
X51270Y34744D01*
X51122D01*
X51417Y34449D02*
X51516D01*
X51466D01*
Y34744D01*
X51417Y34695D01*
X51663Y34449D02*
X51762D01*
X51712D01*
Y34744D01*
X51663Y34695D01*
X53189Y32333D02*
Y32136D01*
X53287Y32037D01*
X53386Y32136D01*
Y32333D01*
X53484D02*
Y32037D01*
X53632D01*
X53681Y32087D01*
Y32283D01*
X53632Y32333D01*
X53484D01*
X53779Y32037D02*
X53878D01*
X53829D01*
Y32333D01*
X53779Y32283D01*
X54025D02*
X54075Y32333D01*
X54173D01*
X54222Y32283D01*
Y32234D01*
X54173Y32185D01*
X54124D01*
X54173D01*
X54222Y32136D01*
Y32087D01*
X54173Y32037D01*
X54075D01*
X54025Y32087D01*
X47156Y31516D02*
Y31319D01*
X47254Y31220D01*
X47352Y31319D01*
Y31516D01*
X47451D02*
Y31220D01*
X47598D01*
X47647Y31270D01*
Y31466D01*
X47598Y31516D01*
X47451D01*
X47746Y31220D02*
X47844D01*
X47795D01*
Y31516D01*
X47746Y31466D01*
X48139Y31220D02*
Y31516D01*
X47992Y31368D01*
X48189D01*
X53228Y31772D02*
Y31575D01*
X53327Y31476D01*
X53425Y31575D01*
Y31772D01*
X53524D02*
X53720D01*
X53622D01*
Y31476D01*
X53819D02*
X53917D01*
X53868D01*
Y31772D01*
X53819Y31722D01*
X48711Y32333D02*
X48908D01*
X49006Y32431D01*
X48908Y32529D01*
X48711D01*
Y32628D02*
Y32825D01*
Y32726D01*
X49006D01*
Y33120D02*
Y32923D01*
X48809Y33120D01*
X48760D01*
X48711Y33071D01*
Y32972D01*
X48760Y32923D01*
X51407Y43297D02*
Y43573D01*
X51545D01*
X51591Y43527D01*
Y43435D01*
X51545Y43389D01*
X51407D01*
X51499D02*
X51591Y43297D01*
X51683D02*
X51775D01*
X51729D01*
Y43573D01*
X51683Y43527D01*
X52096Y43573D02*
X51913D01*
Y43435D01*
X52004Y43481D01*
X52050D01*
X52096Y43435D01*
Y43343D01*
X52050Y43297D01*
X51958D01*
X51913Y43343D01*
M02*
