G04*
G04 #@! TF.GenerationSoftware,Altium Limited,Altium Designer,18.0.9 (584)*
G04*
G04 Layer_Color=8388736*
%FSLAX24Y24*%
%MOIN*%
G70*
G01*
G75*
G04:AMPARAMS|DCode=18|XSize=57.1mil|YSize=78mil|CornerRadius=5.5mil|HoleSize=0mil|Usage=FLASHONLY|Rotation=0.000|XOffset=0mil|YOffset=0mil|HoleType=Round|Shape=RoundedRectangle|*
%AMROUNDEDRECTD18*
21,1,0.0571,0.0669,0,0,0.0*
21,1,0.0461,0.0780,0,0,0.0*
1,1,0.0110,0.0230,-0.0335*
1,1,0.0110,-0.0230,-0.0335*
1,1,0.0110,-0.0230,0.0335*
1,1,0.0110,0.0230,0.0335*
%
%ADD18ROUNDEDRECTD18*%
G04:AMPARAMS|DCode=19|XSize=116.1mil|YSize=65mil|CornerRadius=17.7mil|HoleSize=0mil|Usage=FLASHONLY|Rotation=180.000|XOffset=0mil|YOffset=0mil|HoleType=Round|Shape=RoundedRectangle|*
%AMROUNDEDRECTD19*
21,1,0.1161,0.0295,0,0,180.0*
21,1,0.0807,0.0650,0,0,180.0*
1,1,0.0354,-0.0404,0.0148*
1,1,0.0354,0.0404,0.0148*
1,1,0.0354,0.0404,-0.0148*
1,1,0.0354,-0.0404,-0.0148*
%
%ADD19ROUNDEDRECTD19*%
G04:AMPARAMS|DCode=20|XSize=57.1mil|YSize=78mil|CornerRadius=5.5mil|HoleSize=0mil|Usage=FLASHONLY|Rotation=90.000|XOffset=0mil|YOffset=0mil|HoleType=Round|Shape=RoundedRectangle|*
%AMROUNDEDRECTD20*
21,1,0.0571,0.0669,0,0,90.0*
21,1,0.0461,0.0780,0,0,90.0*
1,1,0.0110,0.0335,0.0230*
1,1,0.0110,0.0335,-0.0230*
1,1,0.0110,-0.0335,-0.0230*
1,1,0.0110,-0.0335,0.0230*
%
%ADD20ROUNDEDRECTD20*%
%ADD21R,0.0413X0.0335*%
%ADD22O,0.0295X0.0965*%
%ADD23R,0.0335X0.0413*%
%ADD24R,0.0413X0.0453*%
%ADD25R,0.0512X0.0630*%
%ADD26R,0.0472X0.0748*%
%ADD27C,0.0659*%
%ADD28R,0.0659X0.0659*%
%ADD29C,0.1240*%
%ADD30C,0.0689*%
%ADD31R,0.0689X0.0689*%
%ADD32R,0.0768X0.0768*%
%ADD33C,0.0768*%
D18*
X35836Y30925D02*
D03*
X37136D02*
D03*
D19*
X37136Y29833D02*
D03*
Y28573D02*
D03*
X34764Y29675D02*
D03*
Y28415D02*
D03*
X33484Y29675D02*
D03*
Y28415D02*
D03*
D20*
X37333Y32746D02*
D03*
Y34046D02*
D03*
X38337Y32746D02*
D03*
Y34046D02*
D03*
X39331Y32746D02*
D03*
Y34046D02*
D03*
X41339Y32746D02*
D03*
Y34046D02*
D03*
D21*
X34636Y31476D02*
D03*
Y30866D02*
D03*
X33789Y31476D02*
D03*
Y30866D02*
D03*
X39675Y28868D02*
D03*
Y28258D02*
D03*
X39065Y28858D02*
D03*
Y28248D02*
D03*
X35709Y32874D02*
D03*
Y33484D02*
D03*
X33809Y32874D02*
D03*
Y33484D02*
D03*
X34449Y32874D02*
D03*
Y33484D02*
D03*
X35079Y32874D02*
D03*
Y33484D02*
D03*
D22*
X40898Y27717D02*
D03*
X41398D02*
D03*
X41898D02*
D03*
X42398D02*
D03*
X42898D02*
D03*
X43398D02*
D03*
X43898D02*
D03*
X44398D02*
D03*
X40898Y31299D02*
D03*
X41398D02*
D03*
X41898D02*
D03*
X42398D02*
D03*
X42898D02*
D03*
X43398D02*
D03*
X43898D02*
D03*
X44398D02*
D03*
D23*
X45886Y30581D02*
D03*
X45276D02*
D03*
Y29961D02*
D03*
X45886D02*
D03*
X39223Y31594D02*
D03*
X39833D02*
D03*
X44931Y32392D02*
D03*
X45541D02*
D03*
X45886Y31299D02*
D03*
X45276D02*
D03*
D24*
X45354Y28533D02*
D03*
Y29203D02*
D03*
D25*
X45354Y27717D02*
D03*
X46063D02*
D03*
D26*
X43996Y33268D02*
D03*
X45138D02*
D03*
D27*
X44561Y25089D02*
D03*
X41561D02*
D03*
X42561D02*
D03*
X44561Y24089D02*
D03*
X45561D02*
D03*
X41561D02*
D03*
X42561D02*
D03*
X43561Y25089D02*
D03*
Y24089D02*
D03*
D28*
X45561Y25089D02*
D03*
D29*
X38583Y24546D02*
D03*
X35276Y24528D02*
D03*
D30*
X45339Y35472D02*
D03*
X44339D02*
D03*
X38339D02*
D03*
X39339D02*
D03*
X37339D02*
D03*
X40339D02*
D03*
X42339D02*
D03*
X41339D02*
D03*
X43339D02*
D03*
D31*
X36339D02*
D03*
D32*
X34094Y26220D02*
D03*
D33*
X35276D02*
D03*
X34094Y27402D02*
D03*
X35276D02*
D03*
X36457Y26220D02*
D03*
Y27402D02*
D03*
M02*
