M48
;Layer_Color=9474304
;FILE_FORMAT=2:4
INCH,LZ
;TYPE=PLATED
T1F00S00C0.0118
T2F00S00C0.0197
T3F00S00C0.0354
T4F00S00C0.0390
%
T01
X064016Y02189
X064803Y02315
X064429Y024222
Y027766
X063671Y028081
X063868Y029587
X063435Y03062
X059547Y030886
X059114Y030197
X057392Y030118
X057126Y031122
X056319Y029774
X054252Y029902
X054075Y029114
X054724Y028061
X055394
X056378Y027638
X055669Y026673
X055581Y025512
X055984
X056407
X056782
X056663Y024518
X056279
X055886
X055423
X05501
X054931Y024114
X054823Y023691
X05438
X053976
Y023307
Y022923
Y02248
Y022067
Y021673
X05312Y021732
Y022195
X052756
X052362
X052136Y021772
X052254Y023031
X052687
X05311
Y023356
Y02372
X052667Y023789
Y024144
Y024547
Y02497
Y025374
Y025738
Y026152
X052795Y026486
X053209Y026526
X053563Y026378
X053524Y026004
X053504Y025659
X053484Y025276
X054803Y025512
X055177
X054134Y026339
X053474Y027589
X052953Y028386
X051703Y02872
X050177Y02876
X057963Y027963
X058386Y027894
X058937Y027392
X059124Y025974
X059213Y025226
X059688Y025228
X060059Y025197
X060148Y025955
X060925Y02563
X062087Y025787
X062008Y024961
X061752Y02437
X061988Y024114
X061712Y023868
X06188Y023484
X060581Y02337
X060669Y023799
X060502Y022736
X06002Y022352
X059921Y021998
X059646Y021801
X05935Y021575
X05873Y022303
X058789Y023317
Y024262
X059734
X059262Y023789
X059734Y023317
X057785Y022884
X056663Y022707
X056811Y023573
X057106Y024518
X057726Y025276
X05811Y024931
X057205Y021919
X056663Y031624
X058022Y031978
X054764Y031949
X053386Y031663
X051831Y03185
X051063Y031476
X061329Y031988
X065315Y031535
T02
X065295Y030167
T03
X050522Y029636
Y030423
X051309
X052096
X052884
X053671
Y029636
X052884
X052096
X051309
T04
X06448Y026389
X065187Y027096
M30
