G04 Layer_Physical_Order=2*
G04 Layer_Color=16711680*
%FSLAX24Y24*%
%MOIN*%
G70*
G01*
G75*
%ADD10C,0.0079*%
%ADD39C,0.0118*%
%ADD40C,0.0197*%
%ADD46C,0.0630*%
%ADD47R,0.0630X0.0630*%
%ADD48R,0.0630X0.0630*%
%ADD49R,0.1181X0.1181*%
%ADD50C,0.2362*%
%ADD51C,0.5906*%
%ADD52C,0.2756*%
%ADD53C,0.0236*%
%ADD54C,0.0394*%
%ADD55R,0.1181X0.2756*%
%ADD56C,0.0394*%
%ADD57C,0.0130*%
D10*
X40972Y24892D02*
G03*
X42178Y24892I603J3051D01*
G01*
X40972D02*
G03*
X42178Y24892I603J3051D01*
G01*
X42185Y23100D02*
G03*
X41656Y23209I-276J0D01*
G01*
X42018Y22847D02*
G03*
X42185Y23100I-109J253D01*
G01*
X41535Y22470D02*
G03*
X41717Y22546I0J256D01*
G01*
X41234Y22982D02*
G03*
X41234Y22470I-102J-256D01*
G01*
X39075Y23848D02*
G03*
X38606Y24045I-276J0D01*
G01*
X38657Y23612D02*
G03*
X39075Y23848I142J236D01*
G01*
X38113Y24045D02*
G03*
X38113Y23612I-170J-217D01*
G01*
X41535Y22470D02*
G03*
X41716Y22545I0J256D01*
G01*
X39319Y21725D02*
G03*
X38829Y21863I-274J-33D01*
G01*
X39498Y21457D02*
G03*
X39435Y21610I-217J0D01*
G01*
X39498Y21457D02*
G03*
X39434Y21610I-217J0D01*
G01*
X39557Y20738D02*
G03*
X39498Y20909I-276J0D01*
G01*
X38710Y20623D02*
G03*
X39018Y20657I129J244D01*
G01*
X39018D02*
G03*
X39557Y20738I263J81D01*
G01*
X39439Y19774D02*
G03*
X38890Y19806I-276J0D01*
G01*
X39196Y19500D02*
G03*
X39439Y19774I-33J274D01*
G01*
X38848Y19167D02*
G03*
X38903Y19207I-98J193D01*
G01*
X38848Y19167D02*
G03*
X38903Y19207I-98J193D01*
G01*
X38829Y21863D02*
G03*
X38553Y21962I-217J-170D01*
G01*
X38171Y20666D02*
G03*
X38710Y20623I274J33D01*
G01*
X38553Y21962D02*
G03*
X38061Y21778I-275J-13D01*
G01*
Y20866D02*
G03*
X38124Y20713I217J0D01*
G01*
X38061Y20866D02*
G03*
X38125Y20713I217J0D01*
G01*
X38713Y19629D02*
G03*
X38848Y19167I-61J-269D01*
G01*
X38434Y18023D02*
G03*
X38376Y17884I139J-139D01*
G01*
X38434Y18023D02*
G03*
X38376Y17884I139J-139D01*
G01*
X36068Y24892D02*
G03*
X36432Y24892I182J207D01*
G01*
X35839Y24169D02*
G03*
X35494Y24369I-268J-65D01*
G01*
X33912Y24396D02*
G03*
X33848Y24242I153J-153D01*
G01*
X33912Y24395D02*
G03*
X33848Y24242I153J-153D01*
G01*
X37293Y23484D02*
G03*
X36847Y23701I-276J0D01*
G01*
X33671Y23396D02*
G03*
X33203Y23593I-276J0D01*
G01*
X32480Y24695D02*
G03*
X32620Y24753I0J197D01*
G01*
X32480Y24695D02*
G03*
X32620Y24753I0J197D01*
G01*
X32904Y24163D02*
G03*
X32419Y24343I-276J0D01*
G01*
D02*
G03*
X32361Y24303I81J-179D01*
G01*
X32419Y24343D02*
G03*
X32361Y24303I81J-179D01*
G01*
X32523Y23908D02*
G03*
X32904Y24163I105J255D01*
G01*
X29975Y23686D02*
G03*
X29724Y23789I-251J-251D01*
G01*
X29975Y23685D02*
G03*
X29724Y23789I-251J-250D01*
G01*
X37227Y23305D02*
G03*
X37293Y23484I-209J180D01*
G01*
X36975Y22825D02*
G03*
X37421Y23041I170J217D01*
G01*
D02*
G03*
X37227Y23305I-276J0D01*
G01*
X36173Y22889D02*
G03*
X36326Y22825I153J153D01*
G01*
X36173Y22888D02*
G03*
X36326Y22825I153J153D01*
G01*
X35669Y22815D02*
G03*
X36005Y23056I0J354D01*
G01*
X34904Y22375D02*
G03*
X35008Y22626I-251J251D01*
G01*
X34904Y22375D02*
G03*
X35008Y22626I-250J251D01*
G01*
X34360Y21978D02*
G03*
X34611Y22082I0J354D01*
G01*
X34360Y21978D02*
G03*
X34611Y22082I0J354D01*
G01*
X34272Y21900D02*
G03*
X34260Y21978I-276J0D01*
G01*
X34173Y21689D02*
G03*
X34272Y21900I-177J211D01*
G01*
X34252Y19104D02*
G03*
X34173Y19297I-276J0D01*
G01*
X36683Y16345D02*
G03*
X36703Y16447I-256J102D01*
G01*
X36608Y16059D02*
G03*
X36683Y16240I-181J181D01*
G01*
X36608Y16059D02*
G03*
X36683Y16240I-181J181D01*
G01*
X36703Y16447D02*
G03*
X36171Y16346I-276J0D01*
G01*
X35689Y18120D02*
G03*
X35585Y18371I-354J0D01*
G01*
X35447Y18508D02*
G03*
X35197Y18612I-251J-251D01*
G01*
X35448Y18508D02*
G03*
X35197Y18612I-251J-250D01*
G01*
X35084Y17870D02*
G03*
X35689Y18120I251J251D01*
G01*
X33848Y23314D02*
G03*
X33662Y23325I-108J-253D01*
G01*
X33662Y23325D02*
G03*
X33671Y23396I-266J70D01*
G01*
X32254Y23593D02*
G03*
X32200Y23585I0J-197D01*
G01*
X32254Y23593D02*
G03*
X32200Y23585I0J-197D01*
G01*
X30630Y22884D02*
G03*
X30526Y23135I-354J0D01*
G01*
X30630Y22884D02*
G03*
X30526Y23134I-354J0D01*
G01*
X30941Y22883D02*
G03*
X30630Y22760I-75J-265D01*
G01*
X30359Y21639D02*
G03*
X30610Y21535I251J250D01*
G01*
X30360Y21639D02*
G03*
X30610Y21535I251J251D01*
G01*
X29921Y22224D02*
G03*
X30025Y21974I354J0D01*
G01*
X29921Y22224D02*
G03*
X30025Y21974I354J0D01*
G01*
X27930Y21069D02*
G03*
X28150Y21339I-56J270D01*
G01*
X33894Y18841D02*
G03*
X34252Y19104I82J263D01*
G01*
X33012Y18868D02*
G03*
X33116Y18618I354J0D01*
G01*
X33012Y18868D02*
G03*
X33116Y18617I354J0D01*
G01*
X33726Y18008D02*
G03*
X33976Y17904I251J250D01*
G01*
X33726Y18007D02*
G03*
X33976Y17904I251J251D01*
G01*
X28720Y16043D02*
G03*
X28372Y16309I-276J0D01*
G01*
X28321Y15797D02*
G03*
X28720Y16043I124J246D01*
G01*
X37930Y15237D02*
G03*
X37749Y15312I-181J-181D01*
G01*
X37930Y15237D02*
G03*
X37749Y15312I-181J-181D01*
G01*
X37286Y15391D02*
G03*
X36948Y15659I-276J0D01*
G01*
X37275Y15312D02*
G03*
X37286Y15391I-264J79D01*
G01*
X36102Y15659D02*
G03*
X36284Y15735I0J256D01*
G01*
X36102Y15659D02*
G03*
X36283Y15734I0J256D01*
G01*
X38376Y14816D02*
G03*
X38268Y14899I-217J-170D01*
G01*
X37906Y14537D02*
G03*
X38376Y14475I253J109D01*
G01*
X35705Y16171D02*
G03*
X35628Y15654I-124J-246D01*
G01*
D02*
G03*
X35578Y15344I199J-191D01*
G01*
Y15344D02*
G03*
X35662Y14800I22J-275D01*
G01*
X34291Y15217D02*
G03*
X33913Y15472I-276J0D01*
G01*
X33839D02*
G03*
X33657Y15397I0J-256D01*
G01*
X33839Y15472D02*
G03*
X33658Y15397I0J-256D01*
G01*
X34082Y14949D02*
G03*
X34291Y15217I-67J267D01*
G01*
X34163Y14754D02*
G03*
X34082Y14949I-276J0D01*
G01*
X33996Y14501D02*
G03*
X34163Y14754I-109J253D01*
G01*
X33465Y14075D02*
G03*
X33646Y14150I0J256D01*
G01*
X33465Y14075D02*
G03*
X33646Y14150I0J256D01*
G01*
X29216Y15369D02*
G03*
X29262Y15522I-230J153D01*
G01*
X30450Y14902D02*
G03*
X30269Y14827I0J-256D01*
G01*
X30450Y14902D02*
G03*
X30269Y14826I0J-256D01*
G01*
X29262Y15522D02*
G03*
X28716Y15574I-276J0D01*
G01*
X29167Y15301D02*
G03*
X29216Y15369I-181J181D01*
G01*
X29167Y15301D02*
G03*
X29216Y15369I-181J181D01*
G01*
X28593Y14833D02*
G03*
X28774Y14908I0J256D01*
G01*
X28593Y14833D02*
G03*
X28773Y14908I0J256D01*
G01*
X29596Y14282D02*
G03*
X29416Y14207I0J-256D01*
G01*
X29596Y14282D02*
G03*
X29415Y14206I0J-256D01*
G01*
X29330Y14121D02*
G03*
X29578Y13630I109J-253D01*
G01*
Y13630D02*
G03*
X30106Y13494I274J-28D01*
G01*
X28333Y11964D02*
G03*
X28179Y12028I-153J-153D01*
G01*
X28332Y11964D02*
G03*
X28179Y12028I-153J-153D01*
G01*
X29951Y11697D02*
G03*
X29951Y11697I-472J0D01*
G01*
X28872Y10811D02*
G03*
X28901Y10787I153J153D01*
G01*
X28872Y10812D02*
G03*
X28901Y10787I153J153D01*
G01*
X27303Y23937D02*
G03*
X27030Y24213I-276J0D01*
G01*
X27260Y23789D02*
G03*
X27303Y23937I-233J148D01*
G01*
X26822Y24421D02*
G03*
X26683Y24478I-139J-139D01*
G01*
X26822Y24421D02*
G03*
X26683Y24478I-139J-139D01*
G01*
X26324Y23185D02*
G03*
X26575Y23081I251J250D01*
G01*
X26324Y23184D02*
G03*
X26575Y23081I251J251D01*
G01*
X26260Y22810D02*
G03*
X26350Y23013I-186J203D01*
G01*
X26227Y22767D02*
G03*
X26260Y22810I-153J153D01*
G01*
X26227Y22767D02*
G03*
X26260Y22810I-153J153D01*
G01*
X26683Y21831D02*
G03*
X26134Y21863I-276J0D01*
G01*
X26102Y22283D02*
G03*
X25975Y22515I-276J0D01*
G01*
X26350Y23013D02*
G03*
X25878Y23207I-276J0D01*
G01*
X25634Y22087D02*
G03*
X26102Y22283I193J197D01*
G01*
X25878Y23207D02*
G03*
X25449Y23041I-160J-225D01*
G01*
X24872Y23120D02*
G03*
X24629Y23394I-276J0D01*
G01*
X24861Y23041D02*
G03*
X24872Y23120I-264J79D01*
G01*
X24176Y22343D02*
G03*
X24662Y22087I253J-108D01*
G01*
X26870Y21516D02*
G03*
X26778Y21493I0J-197D01*
G01*
X28150Y21339D02*
G03*
X27599Y21350I-276J0D01*
G01*
X27530Y21319D02*
G03*
X27061Y21516I-276J0D01*
G01*
X26870D02*
G03*
X26778Y21493I0J-197D01*
G01*
X27526Y21278D02*
G03*
X27530Y21319I-272J41D01*
G01*
X26624Y21661D02*
G03*
X26683Y21831I-217J170D01*
G01*
X25973Y21702D02*
G03*
X25909Y21549I153J-153D01*
G01*
X25973Y21703D02*
G03*
X25909Y21549I153J-153D01*
G01*
X26778Y21493D02*
G03*
X26624Y21661I-262J-85D01*
G01*
X25909Y20742D02*
G03*
X25498Y20605I-152J-230D01*
G01*
D02*
G03*
X25274Y20167I-223J-162D01*
G01*
X18898Y24478D02*
G03*
X18767Y24429I0J-197D01*
G01*
X18898Y24478D02*
G03*
X18767Y24429I0J-197D01*
G01*
D02*
G03*
X18667Y23898I2J-276D01*
G01*
X15678Y24753D02*
G03*
X15817Y24695I139J139D01*
G01*
X15678Y24753D02*
G03*
X15817Y24695I139J139D01*
G01*
X12323Y25183D02*
G03*
X14938Y25492I1280J393D01*
G01*
X17598Y23898D02*
G03*
X17598Y23189I0J-354D01*
G01*
X17599Y23898D02*
G03*
X17599Y23189I-1J-354D01*
G01*
X24323Y23088D02*
G03*
X24332Y23041I274J33D01*
G01*
X23468D02*
G03*
X23311Y22976I0J-222D01*
G01*
X23468Y23041D02*
G03*
X23311Y22976I0J-222D01*
G01*
X19232Y23189D02*
G03*
X19360Y23213I0J354D01*
G01*
X19232Y23189D02*
G03*
X19360Y23213I0J354D01*
G01*
X19852Y22717D02*
G03*
X19793Y22887I-276J0D01*
G01*
X23009Y22674D02*
G03*
X22928Y22155I42J-272D01*
G01*
Y22155D02*
G03*
X23305Y21867I103J-255D01*
G01*
X20482Y17163D02*
G03*
X19952Y17050I-275J-8D01*
G01*
D02*
G03*
X20026Y16896I254J27D01*
G01*
X19360Y22887D02*
G03*
X19852Y22717I217J-170D01*
G01*
X19952Y17050D02*
G03*
X20026Y16896I254J27D01*
G01*
X13799Y22844D02*
G03*
X13742Y22984I-197J0D01*
G01*
X13799Y22844D02*
G03*
X13742Y22984I-197J0D01*
G01*
X15394Y19262D02*
G03*
X14862Y19160I-276J0D01*
G01*
X15374D02*
G03*
X15394Y19262I-256J102D01*
G01*
X27750Y15344D02*
G03*
X27750Y14833I-102J-256D01*
G01*
X27455Y16309D02*
G03*
X27455Y15797I-102J-256D01*
G01*
X26108Y12850D02*
G03*
X26654Y12876I254J398D01*
G01*
X25151Y13960D02*
G03*
X24638Y13977I-260J-92D01*
G01*
X24755Y13041D02*
G03*
X24908Y13105I0J217D01*
G01*
X24755Y13041D02*
G03*
X24909Y13105I0J217D01*
G01*
X23624Y12677D02*
G03*
X23453Y13041I-472J0D01*
G01*
X26654Y12372D02*
G03*
X26717Y12219I217J0D01*
G01*
X26654Y12372D02*
G03*
X26717Y12219I217J0D01*
G01*
X26555Y12313D02*
G03*
X26492Y12466I-217J0D01*
G01*
X26555Y12313D02*
G03*
X26491Y12466I-217J0D01*
G01*
X27811Y11250D02*
G03*
X27662Y11594I-472J0D01*
G01*
X27435Y10787D02*
G03*
X27811Y11250I-96J463D01*
G01*
X27227Y11709D02*
G03*
X27243Y10787I112J-459D01*
G01*
X25663Y12719D02*
G03*
X25717Y12628I207J63D01*
G01*
X25663Y12719D02*
G03*
X25717Y12628I207J63D01*
G01*
X24823Y11968D02*
G03*
X24976Y12032I0J217D01*
G01*
X24823Y11968D02*
G03*
X24976Y12032I0J217D01*
G01*
X23535Y12402D02*
G03*
X23624Y12677I-384J276D01*
G01*
Y11677D02*
G03*
X23523Y11968I-472J0D01*
G01*
X25049Y11083D02*
G03*
X24520Y11191I-276J0D01*
G01*
X24882Y10829D02*
G03*
X25049Y11083I-109J253D01*
G01*
X22780Y11968D02*
G03*
X23624Y11677I372J-291D01*
G01*
X23041Y14705D02*
G03*
X22679Y14966I-276J0D01*
G01*
X22663Y14449D02*
G03*
X23041Y14705I102J256D01*
G01*
X22398Y14524D02*
G03*
X22579Y14449I181J181D01*
G01*
X22398Y14524D02*
G03*
X22579Y14449I181J181D01*
G01*
X22370Y13789D02*
G03*
X21934Y13474I-253J-108D01*
G01*
X14862Y15805D02*
G03*
X14879Y15715I256J0D01*
G01*
X14862Y15805D02*
G03*
X14879Y15715I256J0D01*
G01*
X22851Y13041D02*
G03*
X22768Y12402I301J-364D01*
G01*
X22624Y12677D02*
G03*
X22453Y13041I-472J0D01*
G01*
X22602Y12533D02*
G03*
X22624Y12677I-450J144D01*
G01*
X21851Y13041D02*
G03*
X22295Y12227I301J-364D01*
G01*
X22490Y12032D02*
G03*
X22644Y11968I153J153D01*
G01*
X22491Y12032D02*
G03*
X22644Y11968I153J153D01*
G01*
X22624Y11677D02*
G03*
X22624Y11677I-472J0D01*
G01*
X20217Y12641D02*
G03*
X20679Y12346I217J-170D01*
G01*
X20561Y13474D02*
G03*
X20408Y13411I0J-217D01*
G01*
X20561Y13474D02*
G03*
X20408Y13411I0J-217D01*
G01*
X20280Y13283D02*
G03*
X20217Y13130I153J-153D01*
G01*
X20280Y13283D02*
G03*
X20217Y13130I153J-153D01*
G01*
X21624Y11677D02*
G03*
X21624Y11677I-472J0D01*
G01*
X45177Y24766D02*
Y24892D01*
X45236Y24826D02*
Y24892D01*
X45059Y24648D02*
Y24892D01*
X45118Y24707D02*
Y24892D01*
X44941Y24530D02*
Y24892D01*
X45000Y24589D02*
Y24892D01*
X44882Y24471D02*
Y24892D01*
X44823Y24412D02*
Y24892D01*
X42178D02*
X45302D01*
X44705Y24294D02*
Y24892D01*
X44764Y24353D02*
Y24892D01*
X44587Y24176D02*
Y24892D01*
X44646Y24235D02*
Y24892D01*
X44527Y24117D02*
Y24892D01*
X44409Y23999D02*
Y24892D01*
X44468Y24058D02*
Y24892D01*
X44291Y23881D02*
Y24892D01*
X44350Y23940D02*
Y24892D01*
X44173Y23763D02*
Y24892D01*
X44232Y23822D02*
Y24892D01*
X44114Y23703D02*
Y24892D01*
X44055Y23644D02*
Y24892D01*
X42002Y24862D02*
X45273D01*
X43937Y23526D02*
Y24892D01*
X43996Y23585D02*
Y24892D01*
X43819Y23408D02*
Y24892D01*
X43878Y23467D02*
Y24892D01*
X43760Y23349D02*
Y24892D01*
X43642Y23231D02*
Y24892D01*
X43701Y23290D02*
Y24892D01*
X42165Y23203D02*
Y24889D01*
X42106Y23293D02*
Y24878D01*
X43524Y23113D02*
Y24892D01*
X43583Y23172D02*
Y24892D01*
X43464Y23054D02*
Y24892D01*
X41929Y23375D02*
Y24853D01*
X41870Y23373D02*
Y24847D01*
X42047Y23339D02*
Y24869D01*
X41988Y23365D02*
Y24860D01*
X41161Y23000D02*
Y24860D01*
X42067Y23327D02*
X43737D01*
X42128Y23268D02*
X43678D01*
X41811Y23358D02*
Y24842D01*
X42163Y23209D02*
X43619D01*
X42181Y23150D02*
X43560D01*
X42185Y23091D02*
X43501D01*
X42176Y23031D02*
X43442D01*
X41752Y23326D02*
Y24838D01*
X41693Y23271D02*
Y24835D01*
X41634Y23187D02*
Y24833D01*
X41575Y23128D02*
Y24833D01*
X41516Y23069D02*
Y24833D01*
X41457Y23009D02*
Y24835D01*
X43346Y22936D02*
Y24892D01*
X43405Y22995D02*
Y24892D01*
X43228Y22818D02*
Y24892D01*
X43287Y22877D02*
Y24892D01*
X43110Y22700D02*
Y24892D01*
X43169Y22759D02*
Y24892D01*
X43051Y22641D02*
Y24892D01*
X42933Y22522D02*
Y24892D01*
X42992Y22581D02*
Y24892D01*
X42520Y22109D02*
Y24892D01*
X42874Y22463D02*
Y24892D01*
X42342Y21932D02*
Y24892D01*
X42461Y22050D02*
Y24892D01*
X42283Y21873D02*
Y24892D01*
X42815Y22404D02*
Y24892D01*
X42154Y22972D02*
X43383D01*
X42697Y22286D02*
Y24892D01*
X42756Y22345D02*
Y24892D01*
X42579Y22168D02*
Y24892D01*
X42638Y22227D02*
Y24892D01*
X42401Y21991D02*
Y24892D01*
X42112Y22913D02*
X43324D01*
X42033Y22854D02*
X43265D01*
X41966Y22795D02*
X43206D01*
X41907Y22736D02*
X43147D01*
X41848Y22677D02*
X43088D01*
X41789Y22618D02*
X43029D01*
X41730Y22559D02*
X42970D01*
X41339Y22982D02*
Y24842D01*
X41398Y22982D02*
Y24838D01*
X41220Y22987D02*
Y24853D01*
X41279Y22982D02*
Y24847D01*
X42224Y21814D02*
Y24892D01*
X41429Y22982D02*
X41656Y23209D01*
X41043Y22987D02*
Y24878D01*
X41102Y23000D02*
Y24869D01*
X40925Y22909D02*
Y24892D01*
X40984Y22959D02*
Y24889D01*
X40807Y20396D02*
Y24892D01*
X40866Y22799D02*
Y24892D01*
X40748Y20337D02*
Y24892D01*
X42165Y21755D02*
Y22998D01*
X42106Y21696D02*
Y22907D01*
X42047Y21637D02*
Y22862D01*
X41988Y21578D02*
Y22817D01*
X41929Y21518D02*
Y22758D01*
X41870Y21459D02*
Y22699D01*
X41811Y21400D02*
Y22640D01*
X41717Y22546D02*
X42018Y22847D01*
X41234Y22982D02*
X41429D01*
X41752Y21341D02*
Y22581D01*
X40866Y20455D02*
Y22654D01*
X35928Y24803D02*
X45214D01*
X35869Y24744D02*
X45155D01*
X35810Y24685D02*
X45096D01*
X35824Y24213D02*
X44623D01*
X35854Y24153D02*
X44564D01*
X38923Y24094D02*
X44505D01*
X39002Y24035D02*
X44446D01*
X35751Y24626D02*
X45037D01*
X35692Y24567D02*
X44977D01*
X35633Y24508D02*
X44918D01*
X35574Y24449D02*
X44859D01*
X35515Y24390D02*
X44800D01*
X35728Y24331D02*
X44741D01*
X35790Y24272D02*
X44682D01*
X39043Y23976D02*
X44387D01*
X39066Y23917D02*
X44328D01*
X39075Y23858D02*
X44269D01*
X39070Y23799D02*
X44210D01*
X39053Y23740D02*
X44151D01*
X39018Y23681D02*
X44092D01*
X38956Y23622D02*
X44033D01*
X38016Y23563D02*
X43974D01*
X37293Y23504D02*
X43914D01*
X37290Y23445D02*
X43855D01*
X37275Y23386D02*
X43796D01*
X37244Y23327D02*
X41752D01*
X37303Y23268D02*
X41690D01*
X37365Y23209D02*
X41656D01*
X38858Y24118D02*
Y24892D01*
X38917Y24097D02*
Y24892D01*
X38740Y24118D02*
Y24892D01*
X38799Y24124D02*
Y24892D01*
X38976Y24060D02*
Y24892D01*
X39035Y23990D02*
Y24892D01*
X38681Y24097D02*
Y24892D01*
X38622Y24059D02*
Y24892D01*
X36432D02*
X40972D01*
X38090Y24062D02*
Y24892D01*
X38563Y24045D02*
Y24892D01*
X38209Y24045D02*
Y24892D01*
X38268Y24045D02*
Y24892D01*
X38150Y24045D02*
Y24892D01*
X38445Y24045D02*
Y24892D01*
X38504Y24045D02*
Y24892D01*
X38327Y24045D02*
Y24892D01*
X38386Y24045D02*
Y24892D01*
X38113Y23612D02*
X38657D01*
X36392Y24862D02*
X41148D01*
X38016Y24094D02*
X38675D01*
X38113Y24045D02*
X38606D01*
X37399Y23150D02*
X41597D01*
X37417Y23091D02*
X41538D01*
X40630Y20219D02*
Y24892D01*
X40689Y20278D02*
Y24892D01*
X40512Y20101D02*
Y24892D01*
X40571Y20160D02*
Y24892D01*
X40394Y19983D02*
Y24892D01*
X40453Y20042D02*
Y24892D01*
X40335Y19924D02*
Y24892D01*
X40216Y19806D02*
Y24892D01*
X40276Y19865D02*
Y24892D01*
X39803Y19392D02*
Y24892D01*
X39862Y19452D02*
Y24892D01*
X39744Y19333D02*
Y24892D01*
X38434Y18023D02*
X45302Y24892D01*
X39685Y19274D02*
Y24892D01*
X37421Y23031D02*
X41479D01*
X37413Y22972D02*
X41008D01*
X40098Y19688D02*
Y24892D01*
X40157Y19747D02*
Y24892D01*
X39980Y19570D02*
Y24892D01*
X40039Y19629D02*
Y24892D01*
X39921Y19511D02*
Y24892D01*
X37390Y22913D02*
X40929D01*
X37348Y22854D02*
X40888D01*
X37270Y22795D02*
X40865D01*
X35008Y22736D02*
X40856D01*
X35008Y22618D02*
X40878D01*
X35001Y22559D02*
X40913D01*
X35008Y22677D02*
X40861D01*
X39390Y21655D02*
Y24892D01*
X39449Y21594D02*
Y24892D01*
X39272Y21850D02*
Y24892D01*
X39331Y21714D02*
Y24892D01*
X39567Y19156D02*
Y24892D01*
X39626Y19215D02*
Y24892D01*
X39508Y20895D02*
Y24892D01*
X39094Y21964D02*
Y24892D01*
X39035Y21968D02*
Y23706D01*
X38386Y22202D02*
Y23612D01*
X38445Y22168D02*
Y23612D01*
X39153Y21946D02*
Y24892D01*
X39213Y21912D02*
Y24892D01*
X38976Y21960D02*
Y23637D01*
X38681Y21960D02*
Y23599D01*
X38740Y21937D02*
Y23579D01*
X38563Y21964D02*
Y23612D01*
X38622Y21968D02*
Y23612D01*
X38917Y21937D02*
Y23599D01*
X38858Y21895D02*
Y23579D01*
X38799Y21895D02*
Y23573D01*
X38268Y22224D02*
Y23612D01*
X38327Y22220D02*
Y23612D01*
X38209Y22216D02*
Y23612D01*
X38150Y22193D02*
Y23612D01*
X38504Y22106D02*
Y23612D01*
X38090Y22151D02*
Y23596D01*
X41655Y22500D02*
X42911D01*
X41693Y21282D02*
Y22525D01*
X41634Y21223D02*
Y22490D01*
X41575Y21164D02*
Y22474D01*
X41516Y21105D02*
Y22470D01*
X41457Y21046D02*
Y22470D01*
X39050Y21968D02*
X42379D01*
X39216Y21909D02*
X42320D01*
X41234Y22470D02*
X41535D01*
X39271Y21850D02*
X42261D01*
X41398Y20987D02*
Y22470D01*
X39303Y21791D02*
X42202D01*
X41339Y20928D02*
Y22470D01*
X39498Y21319D02*
X41729D01*
X39498Y21260D02*
X41670D01*
X39498Y21201D02*
X41611D01*
X39498Y21142D02*
X41552D01*
X39498Y21083D02*
X41493D01*
X39498Y21024D02*
X41434D01*
X39498Y20965D02*
X41375D01*
X39318Y21732D02*
X42143D01*
X39371Y21673D02*
X42084D01*
X39430Y21614D02*
X42025D01*
X39474Y21555D02*
X41966D01*
X39494Y21496D02*
X41907D01*
X39498Y21437D02*
X41848D01*
X39498Y21378D02*
X41789D01*
X41279Y20869D02*
Y22470D01*
X41220Y20810D02*
Y22465D01*
X41102Y20692D02*
Y22452D01*
X41161Y20751D02*
Y22452D01*
X40984Y20574D02*
Y22494D01*
X41043Y20633D02*
Y22465D01*
X40925Y20515D02*
Y22544D01*
X39319Y21725D02*
X39434Y21610D01*
X38617Y21968D02*
X39040D01*
X38783Y21909D02*
X38875D01*
X39498Y20909D02*
Y21457D01*
X39501Y20905D02*
X41316D01*
X39535Y20846D02*
X41257D01*
X39553Y20787D02*
X41198D01*
X39557Y20728D02*
X41139D01*
X39548Y20669D02*
X41080D01*
X39526Y20610D02*
X41021D01*
X38941D02*
X39037D01*
X38706D02*
X38736D01*
X39484Y20551D02*
X40962D01*
X38627Y20492D02*
X39157D01*
X38678Y20551D02*
X39079D01*
X39406Y20492D02*
X40903D01*
X39407Y19902D02*
X40312D01*
X39390Y19931D02*
Y20485D01*
X39430Y19842D02*
X40253D01*
X39508Y19097D02*
Y20581D01*
X39439Y19783D02*
X40194D01*
X39449Y19038D02*
Y20519D01*
X39288Y20020D02*
X40430D01*
X39331Y19993D02*
Y20467D01*
X39272Y20027D02*
Y20463D01*
X39366Y19961D02*
X40371D01*
X39435Y19724D02*
X40135D01*
X39417Y19665D02*
X40076D01*
X39382Y19606D02*
X40017D01*
X39320Y19547D02*
X39958D01*
X39390Y18979D02*
Y19616D01*
X39331Y18920D02*
Y19555D01*
X39272Y18861D02*
Y19520D01*
X39184Y19488D02*
X39899D01*
X39125Y19429D02*
X39840D01*
X39066Y19370D02*
X39781D01*
X39007Y19311D02*
X39722D01*
X38948Y19252D02*
X39663D01*
X38887Y19193D02*
X39603D01*
X38809Y19134D02*
X39544D01*
X39153Y20049D02*
Y20494D01*
X39213Y20045D02*
Y20471D01*
X39035Y20018D02*
Y20614D01*
X39094Y20040D02*
Y20536D01*
X38976Y19976D02*
Y20627D01*
X39213Y18802D02*
Y19502D01*
X38917Y19898D02*
Y20602D01*
X38799Y19716D02*
Y20593D01*
X38858Y19775D02*
Y20591D01*
X38740Y19657D02*
Y20609D01*
X38681Y19634D02*
Y20557D01*
X38622Y19634D02*
Y20488D01*
X38713Y19629D02*
X38890Y19806D01*
X38563Y19621D02*
Y20450D01*
X38903Y19207D02*
X39196Y19500D01*
X39153Y18743D02*
Y19457D01*
X39094Y18684D02*
Y19398D01*
X39035Y18625D02*
Y19339D01*
X38976Y18566D02*
Y19280D01*
X38917Y18507D02*
Y19221D01*
X38858Y18448D02*
Y19173D01*
X38799Y18389D02*
Y19127D01*
X38740Y18329D02*
Y19099D01*
X38681Y18270D02*
Y19086D01*
X38622Y18211D02*
Y19086D01*
X38380Y22205D02*
X42615D01*
X38470Y22146D02*
X42556D01*
X38516Y22087D02*
X42497D01*
X38542Y22028D02*
X42438D01*
X38518Y20433D02*
X40844D01*
X38552Y21968D02*
X38607D01*
X34956Y22441D02*
X42851D01*
X34910Y22382D02*
X42792D01*
X34985Y22500D02*
X40975D01*
X34851Y22323D02*
X42733D01*
X34792Y22264D02*
X42674D01*
X34173Y19961D02*
X38961D01*
X34173Y19902D02*
X38919D01*
X34173Y19842D02*
X38897D01*
X34173Y19783D02*
X38867D01*
X34173Y19724D02*
X38808D01*
X34173Y19665D02*
X38749D01*
X34173Y19606D02*
X38527D01*
X34173Y20374D02*
X40785D01*
X34173Y20315D02*
X40726D01*
X34173Y20256D02*
X40666D01*
X34173Y20197D02*
X40607D01*
X34173Y20138D02*
X40548D01*
X34173Y20079D02*
X40489D01*
X34173Y20020D02*
X39039D01*
X34733Y22205D02*
X38175D01*
X34674Y22146D02*
X38085D01*
X34173Y21496D02*
X38061D01*
X34173Y21437D02*
X38061D01*
Y20866D02*
Y21778D01*
X34173Y21319D02*
X38061D01*
X34173Y21260D02*
X38061D01*
X34173Y21555D02*
X38061D01*
X34173Y21378D02*
X38061D01*
X34173Y20965D02*
X38061D01*
X34173Y20905D02*
X38061D01*
X34173Y21083D02*
X38061D01*
X34173Y20728D02*
X38111D01*
X34173Y20669D02*
X38168D01*
X34173Y20846D02*
X38062D01*
X34173Y20787D02*
X38076D01*
X38504Y19593D02*
Y20430D01*
X38445Y19542D02*
Y20423D01*
X38125Y20713D02*
X38171Y20666D01*
X34173Y20551D02*
X38212D01*
X34173Y20492D02*
X38263D01*
X34173Y20610D02*
X38184D01*
X34173Y19547D02*
X38449D01*
X34173Y19488D02*
X38407D01*
X34173Y20433D02*
X38372D01*
X34250Y19075D02*
X39485D01*
X34237Y19193D02*
X38433D01*
X34250Y19134D02*
X38494D01*
X38504Y18093D02*
Y19128D01*
X38563Y18152D02*
Y19099D01*
X38445Y18034D02*
Y19178D01*
X34237Y19016D02*
X39426D01*
X34209Y18957D02*
X39367D01*
X34209Y19252D02*
X38398D01*
X34159Y18898D02*
X39308D01*
X34049Y18839D02*
X39249D01*
X33956Y18779D02*
X39190D01*
X34015Y18720D02*
X39131D01*
X35665Y18248D02*
X38659D01*
X35682Y18189D02*
X38600D01*
X35689Y18130D02*
X38540D01*
X35686Y18071D02*
X38481D01*
X35672Y18012D02*
X38423D01*
X34074Y18661D02*
X39072D01*
X35280Y18602D02*
X39013D01*
X35407Y18543D02*
X38954D01*
X35472Y18484D02*
X38895D01*
X35531Y18425D02*
X38836D01*
X35590Y18366D02*
X38777D01*
X35636Y18307D02*
X38718D01*
X38386Y19433D02*
Y20430D01*
Y17945D02*
Y19288D01*
X36500Y16713D02*
X38376D01*
X36609Y16654D02*
X38376D01*
X36688Y16535D02*
X38376D01*
X36701Y16476D02*
X38376D01*
X36660Y16594D02*
X38376D01*
X34173Y19429D02*
X38385D01*
X35647Y17953D02*
X38388D01*
X34173Y19370D02*
X38376D01*
X34173Y19311D02*
X38380D01*
X35607Y17894D02*
X38376D01*
X35545Y17835D02*
X38376D01*
X35417Y17776D02*
X38376D01*
X36683Y16299D02*
X38376D01*
X36683Y16240D02*
X38376D01*
X36701Y16417D02*
X38376D01*
X36688Y16358D02*
X38376D01*
X36654Y16122D02*
X38376D01*
X36612Y16063D02*
X38376D01*
X36676Y16181D02*
X38376D01*
X36494Y15945D02*
X38376D01*
X36435Y15886D02*
X38376D01*
X36553Y16004D02*
X38376D01*
X36317Y15768D02*
X38376D01*
X36253Y15709D02*
X38376D01*
X36376Y15827D02*
X38376D01*
X37972Y24103D02*
Y24892D01*
X38031Y24090D02*
Y24892D01*
X37854Y24090D02*
Y24892D01*
X37913Y24103D02*
Y24892D01*
X37736Y24011D02*
Y24892D01*
X37795Y24061D02*
Y24892D01*
X36083Y23925D02*
Y24880D01*
X35987Y24862D02*
X36108D01*
X32759Y24892D02*
X34408D01*
X36017D02*
X36068D01*
X35494Y24369D02*
X36017Y24892D01*
X36024Y23984D02*
Y24892D01*
X33912Y24396D02*
X34408Y24892D01*
X35965Y24043D02*
Y24840D01*
X35913Y24094D02*
X37870D01*
X35905Y24102D02*
Y24781D01*
X35846Y24161D02*
Y24722D01*
X35972Y24035D02*
X37761D01*
X36031Y23976D02*
X37710D01*
X36091Y23917D02*
X37682D01*
X35669Y24362D02*
Y24544D01*
X35610Y24377D02*
Y24485D01*
X32729Y24862D02*
X34379D01*
X35551Y24379D02*
Y24426D01*
X35787Y24275D02*
Y24662D01*
X35728Y24331D02*
Y24603D01*
X34311Y24794D02*
Y24892D01*
X34370Y24853D02*
Y24892D01*
X34193Y24676D02*
Y24892D01*
X34252Y24735D02*
Y24892D01*
X34075Y24558D02*
Y24892D01*
X34134Y24617D02*
Y24892D01*
X34016Y24499D02*
Y24892D01*
X32776Y24396D02*
Y24892D01*
X33957Y24440D02*
Y24892D01*
X32620Y24753D02*
X32759Y24892D01*
X32716Y24424D02*
Y24850D01*
X32894Y24237D02*
Y24892D01*
X33898Y24379D02*
Y24892D01*
X32835Y24346D02*
Y24892D01*
X32881Y24272D02*
X33850D01*
X32899Y24213D02*
X33848D01*
X32895Y24094D02*
X33848D01*
X32872Y24035D02*
X33848D01*
X32903Y24153D02*
X33848D01*
X32670Y24803D02*
X34320D01*
X32785Y24390D02*
X33907D01*
X32657Y24437D02*
Y24790D01*
X32847Y24331D02*
X33867D01*
X32830Y23976D02*
X33848D01*
X32752Y23917D02*
X33848D01*
X37205Y23687D02*
Y24892D01*
X37677Y23901D02*
Y24892D01*
X37087Y23751D02*
Y24892D01*
X37146Y23728D02*
Y24892D01*
X37323Y23252D02*
Y24892D01*
X37382Y23183D02*
Y24892D01*
X37264Y23609D02*
Y24892D01*
X36968Y23755D02*
Y24892D01*
X37027Y23760D02*
Y24892D01*
X36850Y23703D02*
Y24892D01*
X36909Y23738D02*
Y24892D01*
X36555Y23701D02*
Y24892D01*
X36614Y23701D02*
Y24892D01*
X36437Y23701D02*
Y24892D01*
X36791Y23701D02*
Y24892D01*
X37120Y23740D02*
X37682D01*
X36496Y23701D02*
Y24892D01*
X36732Y23701D02*
Y24892D01*
X37211Y23681D02*
X37710D01*
X36673Y23701D02*
Y24892D01*
X36150Y23858D02*
X37669D01*
X36209Y23799D02*
X37669D01*
X36319Y23701D02*
Y24832D01*
X36268Y23740D02*
X36915D01*
X36378Y23701D02*
Y24854D01*
X36307Y23701D02*
X36847D01*
X35839Y24169D02*
X36307Y23701D01*
X33602Y23578D02*
Y24892D01*
X33661Y23469D02*
Y24892D01*
X33484Y23657D02*
Y24892D01*
X33543Y23628D02*
Y24892D01*
X33779Y23334D02*
Y24892D01*
X33839Y23318D02*
Y24892D01*
X33720Y23336D02*
Y24892D01*
X33366Y23670D02*
Y24892D01*
X33425Y23670D02*
Y24892D01*
X33248Y23628D02*
Y24892D01*
X33307Y23657D02*
Y24892D01*
X33012Y23593D02*
Y24892D01*
X33071Y23593D02*
Y24892D01*
X32953Y23593D02*
Y24892D01*
X36201Y23807D02*
Y24827D01*
X36260Y23748D02*
Y24823D01*
X36142Y23866D02*
Y24845D01*
X33553Y23622D02*
X33848D01*
Y23314D02*
Y24242D01*
X33189Y23593D02*
Y24892D01*
X32776Y23593D02*
Y23931D01*
X32716Y23593D02*
Y23902D01*
X32657Y23593D02*
Y23889D01*
X33130Y23593D02*
Y24892D01*
X32894Y23593D02*
Y24090D01*
X32835Y23593D02*
Y23981D01*
X32610Y24744D02*
X34261D01*
X32598Y24437D02*
Y24734D01*
X32539Y24424D02*
Y24704D01*
X32480Y24396D02*
Y24695D01*
X32421Y24346D02*
Y24695D01*
X32303Y24245D02*
Y24695D01*
X32362Y24304D02*
Y24695D01*
X32185Y24127D02*
Y24695D01*
X32244Y24186D02*
Y24695D01*
X29646Y23789D02*
Y24695D01*
X29705Y23789D02*
Y24695D01*
X29587Y23789D02*
Y24695D01*
X32126Y24068D02*
Y24695D01*
X32473Y23858D02*
X33848D01*
X32414Y23799D02*
X33848D01*
X32008Y23950D02*
Y24695D01*
X32067Y24009D02*
Y24695D01*
X31890Y23831D02*
Y24695D01*
X31949Y23891D02*
Y24695D01*
X29468Y23789D02*
Y24695D01*
X29527Y23789D02*
Y24695D01*
X29409Y23789D02*
Y24695D01*
X28287Y23789D02*
Y24695D01*
X28346Y23789D02*
Y24695D01*
X28169Y23789D02*
Y24695D01*
X28228Y23789D02*
Y24695D01*
X28465Y23789D02*
Y24695D01*
X28524Y23789D02*
Y24695D01*
X28405Y23789D02*
Y24695D01*
X27874Y23789D02*
Y24695D01*
X27933Y23789D02*
Y24695D01*
X27756Y23789D02*
Y24695D01*
X27815Y23789D02*
Y24695D01*
X28051Y23789D02*
Y24695D01*
X28110Y23789D02*
Y24695D01*
X27992Y23789D02*
Y24695D01*
X29114Y23789D02*
Y24695D01*
X29173Y23789D02*
Y24695D01*
X28996Y23789D02*
Y24695D01*
X29055Y23789D02*
Y24695D01*
X29291Y23789D02*
Y24695D01*
X29350Y23789D02*
Y24695D01*
X29232Y23789D02*
Y24695D01*
X28642Y23789D02*
Y24695D01*
X28701Y23789D02*
Y24695D01*
X28583Y23789D02*
Y24695D01*
X28878Y23789D02*
Y24695D01*
X28937Y23789D02*
Y24695D01*
X28760Y23789D02*
Y24695D01*
X31772Y23713D02*
Y24695D01*
X31831Y23772D02*
Y24695D01*
X31653Y23595D02*
Y24695D01*
X31713Y23654D02*
Y24695D01*
X31535Y23477D02*
Y24695D01*
X31594Y23536D02*
Y24695D01*
X31476Y23418D02*
Y24695D01*
X31358Y23300D02*
Y24695D01*
X31417Y23359D02*
Y24695D01*
X31240Y23182D02*
Y24695D01*
X31299Y23241D02*
Y24695D01*
X31181Y23123D02*
Y24695D01*
X30941Y22883D02*
X32361Y24303D01*
X31122Y23064D02*
Y24695D01*
X32598Y23593D02*
Y23889D01*
X32355Y23740D02*
X33848D01*
X32539Y23593D02*
Y23902D01*
X32480Y23593D02*
Y23865D01*
X32421Y23593D02*
Y23806D01*
X32362Y23593D02*
Y23747D01*
X32303Y23593D02*
Y23688D01*
X32296Y23681D02*
X33848D01*
X32237Y23622D02*
X33238D01*
X29905Y23740D02*
X31798D01*
X29979Y23681D02*
X31739D01*
X32200Y23585D02*
X32523Y23908D01*
X32244Y23592D02*
Y23629D01*
X30039Y23622D02*
X31680D01*
X31004Y22946D02*
Y24695D01*
X31063Y23005D02*
Y24695D01*
X30827Y22891D02*
Y24695D01*
X30886Y22893D02*
Y24695D01*
X30768Y22875D02*
Y24695D01*
X30945Y22887D02*
Y24695D01*
X30709Y22844D02*
Y24695D01*
X30413Y23247D02*
Y24695D01*
X30472Y23188D02*
Y24695D01*
X29764Y23787D02*
Y24695D01*
X30354Y23306D02*
Y24695D01*
X30590Y23046D02*
Y24695D01*
X30650Y22789D02*
Y24695D01*
X30531Y23129D02*
Y24695D01*
X30118Y23542D02*
Y24695D01*
X30177Y23483D02*
Y24695D01*
X30000Y23661D02*
Y24695D01*
X30059Y23602D02*
Y24695D01*
X30295Y23365D02*
Y24695D01*
X29975Y23685D02*
X30526Y23135D01*
X30236Y23424D02*
Y24695D01*
X29823Y23775D02*
Y24695D01*
X29882Y23752D02*
Y24695D01*
X28819Y23789D02*
Y24695D01*
X29941Y23716D02*
Y24695D01*
X37256Y23622D02*
X37761D01*
X37282Y23563D02*
X37870D01*
X37264Y23290D02*
Y23360D01*
X38031Y22073D02*
Y23568D01*
X36005Y23056D02*
X36173Y22889D01*
X35914Y22913D02*
X36148D01*
X35996Y23031D02*
X36030D01*
X35964Y22972D02*
X36089D01*
X35832Y22854D02*
X36217D01*
X34615Y22087D02*
X38039D01*
X34540Y22028D02*
X38013D01*
X36326Y22825D02*
X36975D01*
X35008Y22795D02*
X37022D01*
X34271Y21909D02*
X38005D01*
X34267Y21850D02*
X38020D01*
X34263Y21968D02*
X38003D01*
X34173Y21673D02*
X38061D01*
X34173Y21614D02*
X38061D01*
X34249Y21791D02*
X38051D01*
X34215Y21732D02*
X38061D01*
X34173Y21142D02*
X38061D01*
X34173Y21024D02*
X38061D01*
X34173Y21201D02*
X38061D01*
X35008Y22815D02*
X35669D01*
X35008Y22626D02*
Y22815D01*
X35138Y18612D02*
Y22815D01*
X35197Y18612D02*
Y22815D01*
X34611Y22082D02*
X34904Y22375D01*
X34665Y18612D02*
Y22137D01*
X34724Y18612D02*
Y22196D01*
X34606Y18612D02*
Y22078D01*
X34547Y18612D02*
Y22032D01*
X34488Y18612D02*
Y22002D01*
X34429Y18612D02*
Y21985D01*
X34260Y21978D02*
X34360D01*
X34370Y18612D02*
Y21978D01*
X34311Y18612D02*
Y21978D01*
X34252Y18612D02*
Y19098D01*
X34193Y19275D02*
Y21707D01*
X34173Y19297D02*
Y21689D01*
X34252Y19110D02*
Y21797D01*
X34193Y18612D02*
Y18934D01*
X36496Y16714D02*
Y22825D01*
X36555Y16691D02*
Y22825D01*
X36260Y16666D02*
Y22835D01*
X36319Y16700D02*
Y22825D01*
X36673Y16571D02*
Y22825D01*
X36968Y15663D02*
Y22825D01*
X36201Y16604D02*
Y22865D01*
X36083Y16257D02*
Y22979D01*
X36142Y16317D02*
Y22920D01*
X36024Y16198D02*
Y23038D01*
X35965Y16171D02*
Y22973D01*
X35905Y16171D02*
Y22905D01*
X35846Y16171D02*
Y22862D01*
X35787Y16171D02*
Y22835D01*
X36683Y16240D02*
Y16345D01*
X36437Y16722D02*
Y22825D01*
X36614Y16649D02*
Y22825D01*
X37027Y15666D02*
Y22792D01*
X36378Y16718D02*
Y22825D01*
X35996Y16171D02*
X36171Y16346D01*
X35683Y16181D02*
X36006D01*
X35705Y16171D02*
X35996D01*
X36284Y15735D02*
X36608Y16059D01*
X35728Y16171D02*
Y22820D01*
X35433Y18522D02*
Y22815D01*
X35492Y18464D02*
Y22815D01*
X35315Y18592D02*
Y22815D01*
X35374Y18565D02*
Y22815D01*
X35610Y18343D02*
Y22815D01*
X35669Y18237D02*
Y22815D01*
X35551Y18405D02*
Y22815D01*
X34961Y18612D02*
Y22449D01*
X34902Y18612D02*
Y22373D01*
X34842Y18612D02*
Y22314D01*
X34783Y18612D02*
Y22255D01*
X35079Y18612D02*
Y22815D01*
X35256Y18607D02*
Y22815D01*
X35020Y18612D02*
Y22815D01*
X35610Y16199D02*
Y17897D01*
X35448Y18508D02*
X35585Y18371D01*
X35551Y16199D02*
Y17840D01*
X35669Y16186D02*
Y18003D01*
X35492Y16186D02*
Y17803D01*
X35433Y16158D02*
Y17780D01*
X35050Y17904D02*
X35084Y17870D01*
X35374Y16107D02*
Y17768D01*
X35315Y15998D02*
Y17766D01*
X33667Y23445D02*
X33848D01*
X33671Y23386D02*
X33848D01*
X33615Y23563D02*
X33848D01*
X33649Y23504D02*
X33848D01*
X33813Y23327D02*
X33848D01*
X32254Y23593D02*
X33203D01*
X30098Y23563D02*
X31621D01*
X30157Y23504D02*
X31562D01*
X30216Y23445D02*
X31503D01*
X30275Y23386D02*
X31444D01*
X30334Y23327D02*
X31385D01*
X30610Y21535D02*
X33012D01*
X30393Y23268D02*
X31326D01*
X30452Y23209D02*
X31267D01*
X28149Y21319D02*
X33012D01*
X28138Y21260D02*
X33012D01*
X28147Y21378D02*
X33012D01*
X28113Y21201D02*
X33012D01*
X28067Y21142D02*
X33012D01*
X28100Y21496D02*
X33012D01*
X28131Y21437D02*
X33012D01*
X27885Y21024D02*
X33012D01*
X27826Y20965D02*
X33012D01*
X27976Y21083D02*
X33012D01*
X30511Y23150D02*
X31208D01*
X30563Y23091D02*
X31149D01*
X30598Y23031D02*
X31090D01*
X30619Y22972D02*
X31031D01*
X29578Y23081D02*
X29921Y22737D01*
X27933Y21608D02*
Y23081D01*
X27992Y21588D02*
Y23081D01*
X27815Y21608D02*
Y23081D01*
X27874Y21614D02*
Y23081D01*
X28051Y21550D02*
Y23081D01*
X28110Y21481D02*
Y23081D01*
X27756Y21588D02*
Y23081D01*
X30629Y22913D02*
X30972D01*
X30630Y22760D02*
Y22884D01*
Y22854D02*
X30724D01*
X30025Y21974D02*
X30359Y21639D01*
X29921Y22224D02*
Y22737D01*
X27879Y21614D02*
X30388D01*
X28045Y21555D02*
X30494D01*
X34075Y18661D02*
Y18847D01*
X34016Y18720D02*
Y18832D01*
X33957Y18779D02*
Y18829D01*
X34134Y18612D02*
Y18878D01*
X34123Y18612D02*
X35197D01*
X33894Y18841D02*
X34123Y18612D01*
X33012Y18868D02*
Y21535D01*
X27767Y20905D02*
X33012D01*
X27708Y20846D02*
X33012D01*
X33116Y18617D02*
X33726Y18008D01*
X29173Y15724D02*
Y23081D01*
X33976Y17904D02*
X35050D01*
X28720Y16063D02*
X35342D01*
X29110Y15768D02*
X35355D01*
X29189Y15709D02*
X35410D01*
X28718Y16004D02*
X35317D01*
X28547Y16299D02*
X36124D01*
X28638Y16240D02*
X36065D01*
X28684Y16181D02*
X35478D01*
X28709Y16122D02*
X35388D01*
X28671Y15886D02*
X35308D01*
X28615Y15827D02*
X35323D01*
X28702Y15945D02*
X35306D01*
X28996Y15797D02*
Y23081D01*
X29055Y15789D02*
Y23081D01*
X28878Y15775D02*
Y23081D01*
X28937Y15793D02*
Y23081D01*
X28819Y15741D02*
Y23081D01*
X29114Y15766D02*
Y23081D01*
X28760Y15679D02*
Y23081D01*
X28465Y16318D02*
Y23081D01*
X28524Y16307D02*
Y23081D01*
X28228Y16309D02*
Y23081D01*
X28405Y16316D02*
Y23081D01*
X28642Y16236D02*
Y23081D01*
X28701Y16146D02*
Y23081D01*
X28583Y16282D02*
Y23081D01*
X28287Y16309D02*
Y23081D01*
X28346Y16309D02*
Y23081D01*
X28169Y16309D02*
Y23081D01*
X28051Y16309D02*
Y21127D01*
X28110Y16309D02*
Y21197D01*
X27815Y16309D02*
Y20954D01*
X27756Y16309D02*
Y20895D01*
X27697Y16309D02*
Y20835D01*
X27992Y16309D02*
Y21090D01*
X27933Y16309D02*
Y21069D01*
X27874Y16309D02*
Y21013D01*
X38031Y15136D02*
Y21825D01*
X38090Y15077D02*
Y20757D01*
X37913Y15252D02*
Y23555D01*
X37972Y15195D02*
Y23555D01*
X38209Y14958D02*
Y20557D01*
X38268Y14899D02*
Y20488D01*
X38150Y15017D02*
Y20688D01*
X37106Y15650D02*
X38376D01*
X37201Y15591D02*
X38376D01*
X37618Y15312D02*
Y24892D01*
X37677Y15312D02*
Y23756D01*
X37795Y15308D02*
Y23596D01*
X37854Y15289D02*
Y23568D01*
X37736Y15312D02*
Y23647D01*
X37990Y15177D02*
X38376D01*
X38049Y15118D02*
X38376D01*
X37840Y15295D02*
X38376D01*
X37931Y15236D02*
X38376D01*
X38167Y15000D02*
X38376D01*
X38226Y14941D02*
X38376D01*
X38108Y15059D02*
X38376D01*
X37285Y15413D02*
X38376D01*
X37284Y15354D02*
X38376D01*
X37248Y15531D02*
X38376D01*
X37274Y15472D02*
X38376D01*
X37275Y15312D02*
X37749D01*
X37382D02*
Y22899D01*
X37323Y15312D02*
Y22830D01*
X37264Y15500D02*
Y22792D01*
X37205Y15587D02*
Y22772D01*
X37500Y15312D02*
Y24892D01*
X37559Y15312D02*
Y24892D01*
X37441Y15312D02*
Y24892D01*
X36791Y15659D02*
Y22825D01*
X36850Y15659D02*
Y22825D01*
X36732Y15659D02*
Y22825D01*
X36673Y15659D02*
Y16170D01*
X37087Y15656D02*
Y22772D01*
X37146Y15631D02*
Y22766D01*
X36909Y15659D02*
Y22825D01*
X36555Y15659D02*
Y16006D01*
X36496Y15659D02*
Y15947D01*
X36437Y15659D02*
Y15888D01*
X36378Y15659D02*
Y15829D01*
X36614Y15659D02*
Y16065D01*
X36020Y15659D02*
X36102D01*
X36319Y15659D02*
Y15770D01*
X36020Y15659D02*
X36939D01*
X36260D02*
Y15714D01*
X38376Y14816D02*
Y17884D01*
X38301Y14882D02*
X38376D01*
X38327Y14865D02*
Y20450D01*
X37930Y15237D02*
X38268Y14899D01*
X37643Y14800D02*
X37906Y14537D01*
X37677Y13770D02*
Y14766D01*
X37382Y13770D02*
Y14800D01*
X37441Y13770D02*
Y14800D01*
X37264Y13770D02*
Y14800D01*
X37323Y13770D02*
Y14800D01*
X37559Y13770D02*
Y14800D01*
X37618Y13770D02*
Y14800D01*
X37500Y13770D02*
Y14800D01*
X38376Y10997D02*
Y14475D01*
X38301Y14409D02*
X38376D01*
X38090Y13770D02*
Y14379D01*
X38150Y13770D02*
Y14370D01*
X38327Y10948D02*
Y14427D01*
X38268Y10889D02*
Y14392D01*
X38209Y10829D02*
Y14374D01*
X38031Y13770D02*
Y14402D01*
X37913Y13770D02*
Y14522D01*
X37972Y13770D02*
Y14443D01*
X37795Y13770D02*
Y14648D01*
X37854Y13770D02*
Y14589D01*
X37736Y13770D02*
Y14707D01*
X36968Y13770D02*
Y14800D01*
X37027Y13770D02*
Y14800D01*
X36850Y13770D02*
Y14800D01*
X36909Y13770D02*
Y14800D01*
X37146Y13770D02*
Y14800D01*
X37205Y13770D02*
Y14800D01*
X37087Y13770D02*
Y14800D01*
X36732Y13770D02*
Y14800D01*
X36791Y13770D02*
Y14800D01*
X35965Y13770D02*
Y14800D01*
X36673Y13770D02*
Y14800D01*
X36555Y13770D02*
Y14800D01*
X36614Y10787D02*
Y14800D01*
X36496Y13770D02*
Y14800D01*
X36260Y13770D02*
Y14800D01*
X36319Y13770D02*
Y14800D01*
X36142Y13770D02*
Y14800D01*
X36201Y13770D02*
Y14800D01*
X36437Y13770D02*
Y14800D01*
X36654Y12205D02*
Y13770D01*
X36378D02*
Y14800D01*
X35787Y13770D02*
Y14800D01*
X35846Y13770D02*
Y14800D01*
X35728Y13770D02*
Y14800D01*
X36024Y13770D02*
Y14800D01*
X36083Y13770D02*
Y14800D01*
X35905Y13770D02*
Y14800D01*
X35492Y15322D02*
Y15664D01*
X35551Y15340D02*
Y15651D01*
X35433Y15288D02*
Y15693D01*
X35374Y15226D02*
Y15743D01*
X29230Y15650D02*
X35624D01*
X29253Y15591D02*
X35583D01*
X29262Y15531D02*
X35560D01*
X34118Y15472D02*
X35551D01*
X34209Y15413D02*
X35556D01*
X34254Y15354D02*
X35573D01*
X34280Y15295D02*
X35443D01*
X34291Y15236D02*
X35381D01*
X34289Y15177D02*
X35347D01*
X34273Y15118D02*
X35329D01*
X34242Y15059D02*
X35325D01*
X35662Y14800D02*
X37643D01*
X34163Y14764D02*
X37679D01*
X34186Y15000D02*
X35334D01*
X34155Y14823D02*
X35476D01*
X34159Y14705D02*
X37739D01*
X34090Y14941D02*
X35356D01*
X34132Y14882D02*
X35398D01*
X34107Y14587D02*
X37857D01*
X34045Y14528D02*
X37910D01*
X34141Y14646D02*
X37798D01*
X34016Y15492D02*
Y17904D01*
X34075Y15486D02*
Y17904D01*
X33898Y15472D02*
Y17912D01*
X33957Y15486D02*
Y17904D01*
X34193Y15428D02*
Y17904D01*
X34252Y15359D02*
Y17904D01*
X34134Y15466D02*
Y17904D01*
X33779Y15466D02*
Y17963D01*
X33839Y15472D02*
Y17931D01*
X33661Y15401D02*
Y18072D01*
X33720Y15444D02*
Y18013D01*
X33543Y15283D02*
Y18190D01*
X33602Y15342D02*
Y18131D01*
X33484Y15224D02*
Y18249D01*
X33839Y15472D02*
X33913D01*
X34134Y14878D02*
Y14968D01*
X29257Y15472D02*
X33835D01*
X29240Y15413D02*
X33675D01*
X29208Y15354D02*
X33614D01*
X33162Y14902D02*
X33657Y15397D01*
X29161Y15295D02*
X33555D01*
X29102Y15236D02*
X33496D01*
X35315Y13770D02*
Y15852D01*
X35374Y13770D02*
Y14912D01*
X35197Y13770D02*
Y17794D01*
X35256Y13770D02*
Y17775D01*
X35492Y13770D02*
Y14815D01*
X35669Y13770D02*
Y14800D01*
X35433Y13770D02*
Y14850D01*
X35079Y13770D02*
Y17875D01*
X35138Y13770D02*
Y17826D01*
X34783Y13770D02*
Y17904D01*
X34902Y13770D02*
Y17904D01*
X34961Y10787D02*
Y17904D01*
X35020Y10787D02*
Y17904D01*
X34842Y13770D02*
Y17904D01*
X33846Y14350D02*
X38376D01*
X33787Y14291D02*
X38376D01*
X33964Y14468D02*
X37948D01*
X33905Y14409D02*
X38018D01*
X35610Y13770D02*
Y14793D01*
X33728Y14232D02*
X38376D01*
X35551Y13770D02*
Y14798D01*
X30667Y14055D02*
X38376D01*
X30608Y13996D02*
X38376D01*
X33669Y14173D02*
X38376D01*
X33601Y14114D02*
X38376D01*
X30490Y13878D02*
X38376D01*
X30431Y13819D02*
X38376D01*
X30549Y13937D02*
X38376D01*
X34488Y13770D02*
Y17904D01*
X34547Y13770D02*
Y17904D01*
X34370Y13770D02*
Y17904D01*
X34429Y13770D02*
Y17904D01*
X34665Y13770D02*
Y17904D01*
X34724Y13770D02*
Y17904D01*
X34606Y13770D02*
Y17904D01*
X34134Y13770D02*
Y14630D01*
X34075Y13770D02*
Y14551D01*
X34016Y13770D02*
Y14510D01*
X34311Y13770D02*
Y17904D01*
X34252Y13770D02*
Y15074D01*
X34193Y13770D02*
Y15005D01*
X33646Y14150D02*
X33996Y14501D01*
X33779Y13770D02*
Y14284D01*
X33720Y13770D02*
Y14225D01*
X33661Y13770D02*
Y14166D01*
X33957Y13770D02*
Y14461D01*
X33898Y13770D02*
Y14402D01*
X33839Y13770D02*
Y14343D01*
X30687Y14075D02*
X33465D01*
X33602Y13770D02*
Y14115D01*
X33543Y13770D02*
Y14087D01*
X33484Y13770D02*
Y14076D01*
X38150Y13287D02*
X38376D01*
X38150Y13228D02*
X38376D01*
X38150Y13405D02*
X38376D01*
X38150Y13346D02*
X38376D01*
X38150Y13110D02*
X38376D01*
X38150Y13051D02*
X38376D01*
X38150Y13169D02*
X38376D01*
X38150Y13701D02*
X38376D01*
X38150Y13642D02*
X38376D01*
X36654Y13770D02*
X38150D01*
Y13760D02*
X38376D01*
X38150Y13524D02*
X38376D01*
X38150Y13465D02*
X38376D01*
X38150Y13583D02*
X38376D01*
X38150Y12461D02*
X38376D01*
X38150Y12402D02*
X38376D01*
X38150Y12579D02*
X38376D01*
X38150Y12520D02*
X38376D01*
X38150Y12283D02*
X38376D01*
X38150Y12224D02*
X38376D01*
X38150Y12342D02*
X38376D01*
X38150Y12874D02*
X38376D01*
X38150Y12815D02*
X38376D01*
X38150Y12992D02*
X38376D01*
X38150Y12933D02*
X38376D01*
X38150Y12697D02*
X38376D01*
X38150Y12638D02*
X38376D01*
X38150Y12756D02*
X38376D01*
X36555Y13228D02*
X36654D01*
X36555Y13169D02*
X36654D01*
X36555Y13346D02*
X36654D01*
X36555Y13287D02*
X36654D01*
X36555Y13051D02*
X36654D01*
X36555Y12992D02*
X36654D01*
X36555Y13110D02*
X36654D01*
X36555Y13642D02*
X36654D01*
X36555Y13583D02*
X36654D01*
X36555Y13760D02*
X36654D01*
X36555Y13701D02*
X36654D01*
X36555Y13465D02*
X36654D01*
X36555Y13405D02*
X36654D01*
X36555Y13524D02*
X36654D01*
X36555Y12461D02*
X36654D01*
X36555Y12402D02*
X36654D01*
X36555Y12579D02*
X36654D01*
X36555Y12520D02*
X36654D01*
X36555Y12283D02*
X36654D01*
X36555Y12224D02*
X36654D01*
X36555Y12342D02*
X36654D01*
X36555Y12874D02*
X36654D01*
X36555Y12815D02*
X36654D01*
X36555Y12933D02*
X36654D01*
X36555Y12697D02*
X36654D01*
X36555Y12638D02*
X36654D01*
X36555Y12756D02*
X36654D01*
X38150Y11811D02*
X38376D01*
X38150Y11752D02*
X38376D01*
X38150Y11929D02*
X38376D01*
X38150Y11870D02*
X38376D01*
X38150Y11634D02*
X38376D01*
X38150Y11575D02*
X38376D01*
X38150Y11693D02*
X38376D01*
X38150Y12106D02*
X38376D01*
X38150Y12047D02*
X38376D01*
X38150Y12205D02*
Y13770D01*
Y12165D02*
X38376D01*
X38150Y10787D02*
Y12205D01*
Y11988D02*
X38376D01*
X38150Y10787D02*
Y12205D01*
Y11398D02*
X38376D01*
X38150Y11339D02*
X38376D01*
X38150Y11516D02*
X38376D01*
X38150Y11457D02*
X38376D01*
X38150Y11220D02*
X38376D01*
X38166Y10787D02*
X38376Y10997D01*
X38150Y11279D02*
X38376D01*
X38150Y11161D02*
X38376D01*
X38150Y11102D02*
X38376D01*
X38150Y11043D02*
X38376D01*
X38150Y10984D02*
X38363D01*
X38150Y10925D02*
X38304D01*
X38150Y10866D02*
X38245D01*
X38150Y10807D02*
X38186D01*
X36654Y10787D02*
Y12205D01*
X36555Y12106D02*
X36654D01*
X36555Y12205D02*
Y13770D01*
Y12165D02*
X36654D01*
X36555Y10787D02*
Y12205D01*
X36654Y10787D02*
Y12205D01*
X36555Y10787D02*
Y12205D01*
Y11929D02*
X36654D01*
X36555Y11752D02*
X36654D01*
X36555Y12047D02*
X36654D01*
X36555Y11988D02*
X36654D01*
X36555Y11634D02*
X36654D01*
X36555Y11575D02*
X36654D01*
X36555Y11693D02*
X36654D01*
X36555Y11043D02*
X36654D01*
X36555Y10984D02*
X36654D01*
X36555Y11161D02*
X36654D01*
X36555Y11102D02*
X36654D01*
X36555Y10807D02*
X36654D01*
X36555Y10787D02*
X36654D01*
X36555Y10925D02*
X36654D01*
X36555Y11457D02*
X36654D01*
X36555Y11398D02*
X36654D01*
X36555Y11516D02*
X36654D01*
X36555Y11279D02*
X36654D01*
X36555Y11220D02*
X36654D01*
X36555Y11339D02*
X36654D01*
X35059Y13770D02*
X36555D01*
X34951Y13760D02*
X35059D01*
X34951Y13701D02*
X35059D01*
X34951Y13642D02*
X35059D01*
Y12205D02*
Y13770D01*
X34951Y13524D02*
X35059D01*
X34951Y13583D02*
X35059D01*
X34951Y13346D02*
X35059D01*
X34951Y13287D02*
X35059D01*
X34951Y13465D02*
X35059D01*
X34951Y13405D02*
X35059D01*
X34951Y13169D02*
X35059D01*
X34951Y13110D02*
X35059D01*
X34951Y13228D02*
X35059D01*
X34951Y12520D02*
X35059D01*
X34951Y12402D02*
X35059D01*
X34951Y12638D02*
X35059D01*
X34951Y12579D02*
X35059D01*
X34951Y12283D02*
X35059D01*
X34951Y12224D02*
X35059D01*
X34951Y12342D02*
X35059D01*
X34951Y12933D02*
X35059D01*
X34951Y12874D02*
X35059D01*
X34951Y13051D02*
X35059D01*
X34951Y12992D02*
X35059D01*
X34951Y12756D02*
X35059D01*
X34951Y12697D02*
X35059D01*
X34951Y12815D02*
X35059D01*
X33455Y13770D02*
X34951D01*
X33327Y13760D02*
X33455D01*
X33327Y13701D02*
X33455D01*
X33327Y13642D02*
X33455D01*
X34951Y12205D02*
Y13770D01*
X33455Y12205D02*
Y13770D01*
X33327Y13465D02*
X33455D01*
X33327Y13405D02*
X33455D01*
X33327Y13583D02*
X33455D01*
X33327Y13524D02*
X33455D01*
X33327Y13287D02*
X33455D01*
X33327Y13228D02*
X33455D01*
X33327Y13346D02*
X33455D01*
X33327Y12874D02*
X33455D01*
X33327Y12815D02*
X33455D01*
X33327Y13051D02*
X33455D01*
X33327Y12992D02*
X33455D01*
X34951Y12461D02*
X35059D01*
X33327Y12756D02*
X33455D01*
X33327Y12520D02*
X33455D01*
X33327Y12933D02*
X33455D01*
X33327Y12402D02*
X33455D01*
X33327Y12224D02*
X33455D01*
X33327Y12461D02*
X33455D01*
X34951Y11988D02*
X35059D01*
X36555Y11870D02*
X36654D01*
X34951Y12106D02*
X35059D01*
X34951Y12047D02*
X35059D01*
Y10787D02*
Y12205D01*
X36555Y11811D02*
X36654D01*
X35059Y10787D02*
Y12205D01*
X34951Y11870D02*
X35059D01*
X34951Y11811D02*
X35059D01*
X34951Y12165D02*
X35059D01*
X34951Y11929D02*
X35059D01*
X34951Y11693D02*
X35059D01*
X34951Y11634D02*
X35059D01*
X34951Y11752D02*
X35059D01*
X34951Y11043D02*
X35059D01*
X34951Y10984D02*
X35059D01*
X34951Y11161D02*
X35059D01*
X34951Y11102D02*
X35059D01*
X34951Y10866D02*
X35059D01*
X36555D02*
X36654D01*
X34951Y10925D02*
X35059D01*
X34951Y11457D02*
X35059D01*
X34951Y11398D02*
X35059D01*
X34951Y11575D02*
X35059D01*
X34951Y11516D02*
X35059D01*
X34951Y11279D02*
X35059D01*
X34951Y11220D02*
X35059D01*
X34951Y11339D02*
X35059D01*
X34951Y10787D02*
Y12205D01*
X33327Y12165D02*
X33455D01*
X33327Y12047D02*
X33455D01*
Y10787D02*
Y12205D01*
X34951Y10787D02*
Y12205D01*
X33455Y10787D02*
Y12205D01*
X33327Y11752D02*
X33455D01*
X33327Y11693D02*
X33455D01*
X33327Y11988D02*
X33455D01*
X33327Y11811D02*
X33455D01*
X33327Y11575D02*
X33455D01*
X33327Y11516D02*
X33455D01*
X33327Y11634D02*
X33455D01*
X33327Y11457D02*
X33455D01*
X33327Y11398D02*
X33455D01*
X33327Y11339D02*
X33455D01*
X34951Y10807D02*
X35059D01*
X34951Y10787D02*
X35059D01*
X33327Y11220D02*
X33455D01*
X33327Y11102D02*
X33455D01*
X33327Y10984D02*
X33455D01*
X33327Y11161D02*
X33455D01*
X33327Y10866D02*
X33455D01*
X33327Y10787D02*
X33455D01*
X33327Y10925D02*
X33455D01*
X32776Y14902D02*
Y21535D01*
X32835Y14902D02*
Y21535D01*
X32657Y14902D02*
Y21535D01*
X32716Y14902D02*
Y21535D01*
X32953Y14902D02*
Y21535D01*
X33012Y14902D02*
Y21535D01*
X32894Y14902D02*
Y21535D01*
X32126Y14902D02*
Y21535D01*
X32185Y14902D02*
Y21535D01*
X32008Y14902D02*
Y21535D01*
X32067Y14902D02*
Y21535D01*
X32539Y14902D02*
Y21535D01*
X32598Y14902D02*
Y21535D01*
X32244Y14902D02*
Y21535D01*
X33366Y15106D02*
Y18367D01*
X33425Y15165D02*
Y18308D01*
X33248Y14988D02*
Y18485D01*
X33307Y15047D02*
Y18426D01*
X33130Y14902D02*
Y18603D01*
X33189Y14929D02*
Y18544D01*
X33071Y14902D02*
Y18672D01*
X32421Y14902D02*
Y21535D01*
X32480Y14902D02*
Y21535D01*
X32303Y14902D02*
Y21535D01*
X32362Y14902D02*
Y21535D01*
X32835Y13770D02*
Y14075D01*
X32894Y13770D02*
Y14075D01*
X32776Y13770D02*
Y14075D01*
X31653Y14902D02*
Y21535D01*
X31713Y14902D02*
Y21535D01*
X31535Y14902D02*
Y21535D01*
X31594Y14902D02*
Y21535D01*
X31890Y14902D02*
Y21535D01*
X31949Y14902D02*
Y21535D01*
X31831Y14902D02*
Y21535D01*
X30590Y14902D02*
Y21536D01*
X31299Y14902D02*
Y21535D01*
X30472Y14902D02*
Y21563D01*
X30531Y14902D02*
Y21544D01*
X31417Y14902D02*
Y21535D01*
X31476Y14902D02*
Y21535D01*
X31358Y14902D02*
Y21535D01*
X31063Y14902D02*
Y21535D01*
X31122Y14902D02*
Y21535D01*
X30945Y14902D02*
Y21535D01*
X31004Y14902D02*
Y21535D01*
X31240Y14902D02*
Y21535D01*
X31772Y14902D02*
Y21535D01*
X31181Y14902D02*
Y21535D01*
X30827Y14902D02*
Y21535D01*
X30886Y14902D02*
Y21535D01*
X30768Y14902D02*
Y21535D01*
X30709Y14902D02*
Y21535D01*
Y13770D02*
Y14075D01*
X30650Y14902D02*
Y21535D01*
X33189Y13770D02*
Y14075D01*
X33248Y13770D02*
Y14075D01*
X33071Y13770D02*
Y14075D01*
X33130Y13770D02*
Y14075D01*
X33366Y10787D02*
Y14075D01*
X33425Y10787D02*
Y14075D01*
X33307Y13770D02*
Y14075D01*
X32598Y13770D02*
Y14075D01*
X32657Y13770D02*
Y14075D01*
X32067Y13770D02*
Y14075D01*
X32539Y13770D02*
Y14075D01*
X32953Y13770D02*
Y14075D01*
X33012Y13770D02*
Y14075D01*
X32716Y13770D02*
Y14075D01*
X32303Y13770D02*
Y14075D01*
X32362Y13770D02*
Y14075D01*
X32185Y13770D02*
Y14075D01*
X32244Y13770D02*
Y14075D01*
X32480Y13770D02*
Y14075D01*
X33327Y12205D02*
Y13770D01*
X32421D02*
Y14075D01*
X32008Y13770D02*
Y14075D01*
X32126Y13770D02*
Y14075D01*
X31890Y13770D02*
Y14075D01*
X31949Y13770D02*
Y14075D01*
X31831Y13770D02*
X33327D01*
X31732Y13760D02*
X31831D01*
Y12205D02*
Y13770D01*
X31594D02*
Y14075D01*
X31653Y13770D02*
Y14075D01*
X31476Y13770D02*
Y14075D01*
X31535Y13770D02*
Y14075D01*
X31772Y10787D02*
Y14075D01*
X31831Y10787D02*
Y14075D01*
X31713Y13770D02*
Y14075D01*
X31181Y13770D02*
Y14075D01*
X31240Y13770D02*
Y14075D01*
X30827Y13770D02*
Y14075D01*
X30886Y13770D02*
Y14075D01*
X31358Y13770D02*
Y14075D01*
X31417Y13770D02*
Y14075D01*
X31299Y13770D02*
Y14075D01*
X31122Y13770D02*
Y14075D01*
X31732Y13701D02*
X31831D01*
X31004Y13770D02*
Y14075D01*
X31063Y13770D02*
Y14075D01*
X31732Y13642D02*
X31831D01*
X31732Y13583D02*
X31831D01*
X31732Y12205D02*
Y13770D01*
X30590D02*
Y13979D01*
X30531Y13770D02*
Y13920D01*
X30472Y13770D02*
Y13860D01*
X30768Y13770D02*
Y14075D01*
X30945Y13770D02*
Y14075D01*
X30650Y13770D02*
Y14038D01*
X30354Y14883D02*
Y21645D01*
X30413Y14899D02*
Y21595D01*
X30236Y14793D02*
Y21763D01*
X30295Y14849D02*
Y21704D01*
X30118Y14675D02*
Y21881D01*
X30177Y14734D02*
Y21822D01*
X30059Y14616D02*
Y21940D01*
X29941Y14498D02*
Y22108D01*
X30000Y14557D02*
Y22002D01*
X29823Y14380D02*
Y22836D01*
X29882Y14439D02*
Y22777D01*
X29705Y14282D02*
Y22954D01*
X29764Y14321D02*
Y22895D01*
X29646Y14282D02*
Y23013D01*
X29043Y15177D02*
X33437D01*
X30450Y14902D02*
X33162D01*
X29724Y14282D02*
X30269Y14826D01*
X29596Y14282D02*
X29724D01*
X28984Y15118D02*
X33378D01*
X28925Y15059D02*
X33319D01*
X28866Y15000D02*
X33260D01*
X28807Y14941D02*
X33201D01*
X28743Y14882D02*
X30352D01*
X27721Y14823D02*
X30265D01*
X29232Y15646D02*
Y23081D01*
X28701Y15559D02*
Y15941D01*
X28642Y15500D02*
Y15850D01*
X28583Y15441D02*
Y15805D01*
X28228Y15344D02*
Y15797D01*
X28287Y15344D02*
Y15797D01*
X28169Y15344D02*
Y15797D01*
X27874Y15344D02*
Y15797D01*
X27933Y15344D02*
Y15797D01*
X27756Y15344D02*
Y15797D01*
X27815Y15344D02*
Y15797D01*
X28051Y15344D02*
Y15797D01*
X28110Y15344D02*
Y15797D01*
X27992Y15344D02*
Y15797D01*
X28524Y15382D02*
Y15779D01*
X28487Y15344D02*
X28716Y15574D01*
X28774Y14908D02*
X29167Y15301D01*
X28465Y15344D02*
Y15768D01*
X27721Y15354D02*
X28496D01*
X28405Y15344D02*
Y15771D01*
X27750Y15344D02*
X28487D01*
X27750Y14833D02*
X28593D01*
X28346Y15344D02*
Y15786D01*
X29587Y14281D02*
Y23072D01*
X29468Y14247D02*
Y23081D01*
X29527Y14272D02*
Y23081D01*
X30382Y13770D02*
X30687Y14075D01*
X30382Y13770D02*
X31732D01*
X30413D02*
Y13801D01*
X29330Y14121D02*
X29415Y14206D01*
X29350Y14141D02*
Y23081D01*
X29409Y14200D02*
Y23081D01*
X29291Y14101D02*
Y23081D01*
X29232Y14050D02*
Y15397D01*
X30106Y13494D02*
X30236Y13624D01*
X30195Y13583D02*
X30236D01*
X29468Y13169D02*
Y13594D01*
X30236Y12205D02*
Y13624D01*
X30236Y11181D02*
Y13624D01*
X29527Y13169D02*
Y13607D01*
X29350Y13169D02*
Y13607D01*
X27835Y13583D02*
X29577D01*
X27835Y13701D02*
X29220D01*
X27835Y13642D02*
X29282D01*
X29291Y13169D02*
Y13635D01*
X29409Y13169D02*
Y13594D01*
X29232Y13169D02*
Y13686D01*
X29173Y13941D02*
Y15308D01*
X29114Y13169D02*
Y15248D01*
X29055Y13169D02*
Y15189D01*
X28819Y11478D02*
Y14953D01*
X28996Y11300D02*
Y15130D01*
X28937Y11359D02*
Y15071D01*
X28878Y11418D02*
Y15012D01*
X28524Y11773D02*
Y14833D01*
X28583Y11714D02*
Y14833D01*
X27933Y12028D02*
Y14833D01*
X28465Y11832D02*
Y14833D01*
X28760Y11537D02*
Y14895D01*
X28701Y11596D02*
Y14857D01*
X28642Y11655D02*
Y14837D01*
X28228Y12022D02*
Y14833D01*
X29173Y13169D02*
Y13795D01*
X28110Y12028D02*
Y14833D01*
X28169Y12028D02*
Y14833D01*
X28346Y11950D02*
Y14833D01*
X28405Y11891D02*
Y14833D01*
X28287Y11999D02*
Y14833D01*
X27815Y13720D02*
Y14833D01*
X27835Y12776D02*
Y13720D01*
X27756D02*
Y14833D01*
X27992Y12028D02*
Y14833D01*
X28051Y12028D02*
Y14833D01*
X27874Y12028D02*
Y14833D01*
X31732Y13346D02*
X31831D01*
X31732Y13287D02*
X31831D01*
X31732Y13524D02*
X31831D01*
X31732Y13405D02*
X31831D01*
X33327Y13169D02*
X33455D01*
X33327Y13110D02*
X33455D01*
X31732Y13228D02*
X31831D01*
X31732Y13110D02*
X31831D01*
X31732Y13051D02*
X31831D01*
X31732Y13465D02*
X31831D01*
X31732Y13169D02*
X31831D01*
X31732Y12933D02*
X31831D01*
X31732Y12874D02*
X31831D01*
X31732Y12992D02*
X31831D01*
X33327Y12697D02*
X33455D01*
X33327Y12638D02*
X33455D01*
X31732Y12815D02*
X31831D01*
X31732Y12756D02*
X31831D01*
X33327Y12342D02*
X33455D01*
X33327Y12283D02*
X33455D01*
X33327Y12579D02*
X33455D01*
X31732Y12461D02*
X31831D01*
X31732Y12402D02*
X31831D01*
X31732Y12697D02*
X31831D01*
X31732Y12520D02*
X31831D01*
X31732Y12165D02*
X31831D01*
X31732Y12106D02*
X31831D01*
X31732Y12342D02*
X31831D01*
X30045Y13405D02*
X30236D01*
X29955Y13346D02*
X30236D01*
X30136Y13524D02*
X30236D01*
X30091Y13465D02*
X30236D01*
X29951Y13169D02*
X30236D01*
X29951Y12933D02*
X30236D01*
X29951Y12224D02*
Y13169D01*
Y13110D02*
X30236D01*
X29951Y13051D02*
X30236D01*
X29941Y13169D02*
Y13341D01*
X29882Y13169D02*
Y13328D01*
X29951Y12874D02*
X30236D01*
X29951Y12815D02*
X30236D01*
X29951Y12992D02*
X30236D01*
X29951Y12756D02*
X30236D01*
X31732Y12638D02*
X31831D01*
X29951Y12697D02*
X30236D01*
X29951Y12638D02*
X30236D01*
X31732Y12283D02*
X31831D01*
X31732Y12224D02*
X31831D01*
X31732Y12579D02*
X31831D01*
X29951Y12520D02*
X30236D01*
X29951Y12461D02*
X30236D01*
X29951Y12579D02*
X30236D01*
X29951Y12342D02*
X30236D01*
X29951Y12283D02*
X30236D01*
X29951Y12402D02*
X30236D01*
X33327Y12106D02*
X33455D01*
X33327Y11929D02*
X33455D01*
X31732Y12047D02*
X31831D01*
X33327Y11870D02*
X33455D01*
X33327Y10787D02*
Y12205D01*
Y10787D02*
Y12205D01*
X31732Y11693D02*
X31831D01*
X31732Y11870D02*
X31831D01*
X31732Y11811D02*
X31831D01*
X31732Y11988D02*
X31831D01*
X31732Y11929D02*
X31831D01*
X31732Y11634D02*
X31831D01*
X31732Y11575D02*
X31831D01*
X31732Y11752D02*
X31831D01*
X31732Y11339D02*
X31831D01*
X33327Y11279D02*
X33455D01*
X31732Y11516D02*
X31831D01*
X31732Y11457D02*
X31831D01*
X33327Y11043D02*
X33455D01*
X33327Y10807D02*
X33455D01*
X31732Y11279D02*
X31831D01*
X31732Y11161D02*
X31831D01*
X31732Y11043D02*
X31831D01*
X31732Y11398D02*
X31831D01*
X31732Y11220D02*
X31831D01*
X31732Y10866D02*
X31831D01*
X31732Y10807D02*
X31831D01*
X31732Y10925D02*
X31831D01*
X30236Y11181D02*
Y12205D01*
X31732Y10787D02*
Y12205D01*
X30177Y11181D02*
Y13565D01*
X30236Y11181D02*
Y12205D01*
X31831Y10787D02*
Y12205D01*
Y10787D02*
Y12205D01*
X31732Y10787D02*
Y12205D01*
X29850Y11988D02*
X30236D01*
X29890Y11929D02*
X30236D01*
X29882Y11943D02*
Y12224D01*
X29941Y11793D02*
Y12224D01*
X30118Y11181D02*
Y13506D01*
X30059Y11181D02*
Y13420D01*
X30000Y11181D02*
Y13370D01*
X29948Y11752D02*
X30236D01*
X29951Y11693D02*
X30236D01*
X29947Y11634D02*
X30236D01*
X29941Y11181D02*
Y11601D01*
X31732Y10984D02*
X31831D01*
X31732Y10787D02*
X31831D01*
X31732Y11102D02*
X31831D01*
X29937Y11811D02*
X30236D01*
X29935Y11575D02*
X30236D01*
X29918Y11870D02*
X30236D01*
X29915Y11516D02*
X30236D01*
X29885Y11457D02*
X30236D01*
X29882Y11181D02*
Y11451D01*
X29764Y13169D02*
Y13341D01*
X29823Y13169D02*
Y13328D01*
X29587Y13169D02*
Y13530D01*
X29705Y13169D02*
Y13370D01*
X29764Y12073D02*
Y12224D01*
X29823Y12020D02*
Y12224D01*
X29646Y13169D02*
Y13420D01*
X27835Y13405D02*
X29660D01*
X27835Y13346D02*
X29750D01*
X27835Y13524D02*
X29588D01*
X27835Y13465D02*
X29614D01*
X27835Y13287D02*
X30236D01*
X27835Y13228D02*
X30236D01*
X29006Y13169D02*
X29951D01*
X29646Y12139D02*
Y12224D01*
X29539Y12165D02*
X30236D01*
X29527Y12167D02*
Y12224D01*
X29587Y12157D02*
Y12224D01*
X29714Y12106D02*
X30236D01*
X29795Y12047D02*
X30236D01*
X29705Y12112D02*
Y12224D01*
X29468Y12169D02*
Y12224D01*
X29006D02*
X29951D01*
X29350Y12152D02*
Y12224D01*
X29409Y12164D02*
Y12224D01*
X29232Y12100D02*
Y12224D01*
X29291Y12131D02*
Y12224D01*
X29173Y12057D02*
Y12224D01*
X29006D02*
Y13169D01*
X29114Y11998D02*
Y12224D01*
X27835Y13051D02*
X29006D01*
X27835Y12992D02*
X29006D01*
X29055Y11907D02*
Y12224D01*
X27835Y12933D02*
X29006D01*
X27835Y12874D02*
X29006D01*
X27835Y13169D02*
X29006D01*
X27835Y13110D02*
X29006D01*
X27835Y12815D02*
X29006D01*
X27815Y12028D02*
Y12776D01*
X27756Y12028D02*
Y12776D01*
X28426Y11870D02*
X29039D01*
X28485Y11811D02*
X29020D01*
X28544Y11752D02*
X29009D01*
X28603Y11693D02*
X29006D01*
X28722Y11575D02*
X29022D01*
X28781Y11516D02*
X29042D01*
X28663Y11634D02*
X29010D01*
X28304Y11988D02*
X29106D01*
X28367Y11929D02*
X29067D01*
X27697Y11558D02*
Y11594D01*
X27729Y11516D02*
X28168D01*
X27763Y11457D02*
X28227D01*
X27756Y11472D02*
Y11594D01*
X29844Y11398D02*
X30236D01*
X29786Y11339D02*
X30236D01*
X29114Y11182D02*
Y11396D01*
X29823Y11181D02*
Y11373D01*
X29764Y11181D02*
Y11320D01*
X29232Y11181D02*
Y11294D01*
X29173Y11181D02*
Y11336D01*
X28899Y11398D02*
X29113D01*
X28958Y11339D02*
X29170D01*
X29055Y11241D02*
Y11487D01*
X28840Y11457D02*
X29072D01*
X28333Y11964D02*
X29115Y11181D01*
X28089Y11594D02*
X28872Y10812D01*
X29705Y11181D02*
Y11282D01*
X29700Y11279D02*
X30236D01*
X29646Y11181D02*
Y11255D01*
X29587Y11181D02*
Y11237D01*
X29527Y11181D02*
Y11227D01*
X29468Y11181D02*
Y11225D01*
X29409Y11181D02*
Y11229D01*
X29350Y11181D02*
Y11242D01*
X29076Y11220D02*
X30236D01*
X29017Y11279D02*
X29257D01*
X29291Y11181D02*
Y11263D01*
X29115Y11181D02*
X30236D01*
X28169Y10787D02*
Y11515D01*
X28228Y10787D02*
Y11456D01*
X28051Y10787D02*
Y11594D01*
X28110Y10787D02*
Y11574D01*
X28346Y10787D02*
Y11338D01*
X28405Y10787D02*
Y11278D01*
X28287Y10787D02*
Y11397D01*
X27803Y11339D02*
X28345D01*
X27810Y11279D02*
X28404D01*
X27815Y10787D02*
Y11594D01*
X27787Y11398D02*
X28286D01*
X27933Y10787D02*
Y11594D01*
X27992Y10787D02*
Y11594D01*
X27874Y10787D02*
Y11594D01*
X28583Y10787D02*
Y11101D01*
X28642Y10787D02*
Y11042D01*
X28465Y10787D02*
Y11219D01*
X28524Y10787D02*
Y11160D01*
X28760Y10787D02*
Y10924D01*
X28819Y10787D02*
Y10865D01*
X28701Y10787D02*
Y10983D01*
X27803Y11161D02*
X28523D01*
X27787Y11102D02*
X28582D01*
X27810Y11220D02*
X28463D01*
X27763Y11043D02*
X28641D01*
X27729Y10984D02*
X28700D01*
X27756Y10787D02*
Y11028D01*
X27461Y23789D02*
Y24695D01*
X27520Y23789D02*
Y24695D01*
X27342Y23789D02*
Y24695D01*
X27402Y23789D02*
Y24695D01*
X27638Y23789D02*
Y24695D01*
X27697Y23789D02*
Y24695D01*
X27579Y23789D02*
Y24695D01*
X26787Y24449D02*
X33965D01*
X26853Y24390D02*
X32471D01*
X27047Y24212D02*
Y24695D01*
X27106Y24201D02*
Y24695D01*
X27224Y24130D02*
Y24695D01*
X27283Y24039D02*
Y24695D01*
X27165Y24176D02*
Y24695D01*
X27285Y24035D02*
X32094D01*
X27300Y23976D02*
X32035D01*
X27302Y23917D02*
X31976D01*
X27292Y23858D02*
X31916D01*
X27266Y23799D02*
X31857D01*
X27260Y23789D02*
X29724D01*
X27283D02*
Y23835D01*
X26912Y24331D02*
X32396D01*
X26971Y24272D02*
X32330D01*
X27033Y24213D02*
X32271D01*
X27198Y24153D02*
X32212D01*
X27254Y24094D02*
X32153D01*
X26752Y24466D02*
Y24695D01*
X26811Y24431D02*
Y24695D01*
X26634Y24478D02*
Y24695D01*
X26693Y24478D02*
Y24695D01*
X26929Y24314D02*
Y24695D01*
X26988Y24255D02*
Y24695D01*
X26870Y24373D02*
Y24695D01*
X26339Y24478D02*
Y24695D01*
X26398Y24478D02*
Y24695D01*
X26161Y24478D02*
Y24695D01*
X26220Y24478D02*
Y24695D01*
X26516Y24478D02*
Y24695D01*
X26575Y24478D02*
Y24695D01*
X26457Y24478D02*
Y24695D01*
X26822Y24421D02*
X27030Y24213D01*
X26279Y24478D02*
Y24695D01*
X26339Y23091D02*
Y23171D01*
X26313Y23150D02*
X26365D01*
X26279Y23197D02*
Y23229D01*
X26102Y23287D02*
Y23406D01*
X26161Y23274D02*
Y23347D01*
X26102Y24478D02*
Y24695D01*
X26179Y23268D02*
X26241D01*
X26268Y23209D02*
X26300D01*
X26220Y23246D02*
Y23288D01*
X27461Y21501D02*
Y23081D01*
X27697Y21550D02*
Y23081D01*
X27342Y21580D02*
Y23081D01*
X27402Y21552D02*
Y23081D01*
X27579Y21330D02*
Y23081D01*
X27638Y21480D02*
Y23081D01*
X27520Y21392D02*
Y23081D01*
X26347Y22972D02*
X29686D01*
X26331Y22913D02*
X29745D01*
X26575Y23081D02*
X29578D01*
X26349Y23031D02*
X29627D01*
X27283Y21593D02*
Y23081D01*
X26299Y22854D02*
X29804D01*
X27224Y21593D02*
Y23081D01*
X26137Y22677D02*
X29921D01*
X26510Y22087D02*
X29949D01*
X26251Y22795D02*
X29863D01*
X26196Y22736D02*
X29921D01*
X26646Y21968D02*
X30030D01*
X26672Y21909D02*
X30089D01*
X26600Y22028D02*
X29981D01*
X26084Y22382D02*
X29921D01*
X26100Y22323D02*
X29921D01*
X26078Y22618D02*
X29921D01*
X26053Y22441D02*
X29921D01*
X26091Y22205D02*
X29922D01*
X26065Y22146D02*
X29930D01*
X26102Y22264D02*
X29921D01*
X27106Y21552D02*
Y23081D01*
X27165Y21580D02*
Y23081D01*
X26693Y21619D02*
Y23081D01*
X26752Y21550D02*
Y23081D01*
X26988Y21516D02*
Y23081D01*
X27047Y21516D02*
Y23081D01*
X26811Y21507D02*
Y23081D01*
X26398Y22106D02*
Y23128D01*
X26339Y23091D02*
X26492D01*
X26516Y22084D02*
Y23086D01*
X26634Y21988D02*
Y23081D01*
X26457Y22102D02*
Y23101D01*
X26339Y22098D02*
Y22935D01*
X26279Y22075D02*
Y22829D01*
X26870Y21516D02*
Y23081D01*
X26929Y21516D02*
Y23081D01*
X26575Y22050D02*
Y23081D01*
X26220Y22033D02*
Y22760D01*
X26102Y22289D02*
Y22642D01*
X26161Y21955D02*
Y22701D01*
X26102Y21832D02*
Y22278D01*
X25807Y24478D02*
Y24695D01*
X25866Y24478D02*
Y24695D01*
X25689Y24478D02*
Y24695D01*
X25748Y24478D02*
Y24695D01*
X25984Y24478D02*
Y24695D01*
X26043Y24478D02*
Y24695D01*
X25925Y24478D02*
Y24695D01*
X14601Y24685D02*
X34202D01*
X14545Y24626D02*
X34143D01*
X15817Y24695D02*
X32480D01*
X14482Y24567D02*
X34083D01*
X25630Y24478D02*
Y24695D01*
X14409Y24508D02*
X34024D01*
X25571Y24478D02*
Y24695D01*
X25984Y23273D02*
Y23525D01*
X26043Y23287D02*
Y23465D01*
X25748Y23256D02*
Y23573D01*
X24829Y23268D02*
X25969D01*
X25807Y23243D02*
Y23573D01*
X25925Y23245D02*
Y23573D01*
X25689Y23256D02*
Y23573D01*
X18898Y24478D02*
X26683D01*
X24519Y23504D02*
X26005D01*
X24450Y23573D02*
X25936D01*
X24460Y23563D02*
X25946D01*
X24670Y23386D02*
X26123D01*
X24779Y23327D02*
X26182D01*
X24578Y23445D02*
X26064D01*
X25157Y24478D02*
Y24695D01*
X25216Y24478D02*
Y24695D01*
X25039Y24478D02*
Y24695D01*
X25098Y24478D02*
Y24695D01*
X25453Y24478D02*
Y24695D01*
X25512Y24478D02*
Y24695D01*
X25276Y24478D02*
Y24695D01*
X24744Y24478D02*
Y24695D01*
X24803Y24478D02*
Y24695D01*
X24390Y24478D02*
Y24695D01*
X24508Y24478D02*
Y24695D01*
X24921Y24478D02*
Y24695D01*
X24980Y24478D02*
Y24695D01*
X24862Y24478D02*
Y24695D01*
X25335Y24478D02*
Y24695D01*
X25394Y24478D02*
Y24695D01*
X24626Y24478D02*
Y24695D01*
X24685Y24478D02*
Y24695D01*
X24744Y23353D02*
Y23573D01*
X24803Y23302D02*
Y23573D01*
X24685Y23381D02*
Y23573D01*
X24567Y24478D02*
Y24695D01*
X24508Y23515D02*
Y23573D01*
X24449Y24478D02*
Y24695D01*
X24626Y23397D02*
Y23573D01*
X24450D02*
X24629Y23394D01*
X24567Y23456D02*
Y23573D01*
X26019Y22559D02*
X29921D01*
X25997Y22500D02*
X29921D01*
X25936Y23573D02*
X26324Y23185D01*
X25975Y22515D02*
X26227Y22767D01*
X26043Y22454D02*
Y22583D01*
Y21773D02*
Y22113D01*
X25630Y23243D02*
Y23573D01*
X25866Y23215D02*
Y23573D01*
X25571Y23215D02*
Y23573D01*
X24857Y23209D02*
X25561D01*
X26020Y22087D02*
X26305D01*
X25929Y22028D02*
X26215D01*
X25984Y21714D02*
Y22057D01*
X25925Y21630D02*
Y22026D01*
X25866Y20765D02*
Y22011D01*
X25807Y20783D02*
Y22009D01*
X25748Y20787D02*
Y22019D01*
X24611Y22028D02*
X25725D01*
X24502Y21968D02*
X26169D01*
X24662Y22087D02*
X25634D01*
X24662Y22087D02*
X25634D01*
X25630Y20756D02*
Y22087D01*
X25689Y20779D02*
Y22045D01*
X25571Y20714D02*
Y22087D01*
X25453Y23055D02*
Y23573D01*
X25512Y23165D02*
Y23573D01*
X25335Y23041D02*
Y23573D01*
X25394Y23041D02*
Y23573D01*
X25216Y23041D02*
Y23573D01*
X25276Y23041D02*
Y23573D01*
X25157Y23041D02*
Y23573D01*
X25039Y23041D02*
Y23573D01*
X24870Y23150D02*
X25499D01*
X24862Y23193D02*
Y23573D01*
X24980Y23041D02*
Y23573D01*
X25098Y23041D02*
Y23573D01*
X24921Y23041D02*
Y23573D01*
X25335Y20712D02*
Y22087D01*
X25394Y20692D02*
Y22087D01*
X25216Y20712D02*
Y22087D01*
X25276Y20719D02*
Y22087D01*
X25453Y20654D02*
Y22087D01*
X25512Y20636D02*
Y22087D01*
X25157Y20692D02*
Y22087D01*
X24870Y23091D02*
X25465D01*
X24861Y23041D02*
X25449D01*
X25039Y20585D02*
Y22087D01*
X25098Y20654D02*
Y22087D01*
X27531Y20669D02*
X33012D01*
X27472Y20610D02*
X33012D01*
X27649Y20787D02*
X33012D01*
X27590Y20728D02*
X33012D01*
X27353Y20492D02*
X33012D01*
X27294Y20433D02*
X33012D01*
X27412Y20551D02*
X33012D01*
X27117Y20256D02*
X33012D01*
X27058Y20197D02*
X33012D01*
X27235Y20374D02*
X33012D01*
X27176Y20315D02*
X33012D01*
X26940Y20079D02*
X33012D01*
X26881Y20020D02*
X33012D01*
X26999Y20138D02*
X33012D01*
X26815Y19842D02*
X33012D01*
X26815Y19311D02*
X33012D01*
X26822Y19961D02*
X33012D01*
X26815Y19902D02*
X33012D01*
X26815Y19193D02*
X33012D01*
X26815Y19134D02*
X33012D01*
X26815Y19252D02*
X33012D01*
X26815Y18957D02*
X33012D01*
X26815Y18898D02*
X33012D01*
X26815Y19075D02*
X33012D01*
X26815Y19016D02*
X33012D01*
X26815Y18779D02*
X33023D01*
X26815Y18720D02*
X33044D01*
X26815Y18839D02*
X33013D01*
X27396Y21555D02*
X27703D01*
X27465Y21496D02*
X27648D01*
X26870Y21516D02*
X27061D01*
X27503Y21437D02*
X27617D01*
X26665Y21732D02*
X30267D01*
X26634Y21673D02*
X30326D01*
X26682Y21850D02*
X30149D01*
X26680Y21791D02*
X30208D01*
X26698Y21614D02*
X27869D01*
X26748Y21555D02*
X27112D01*
X27523Y21378D02*
X27601D01*
X27526Y21278D02*
X27599Y21350D01*
X27530Y21319D02*
X27568D01*
X26815Y19783D02*
X33012D01*
X26815Y19724D02*
X33012D01*
X26815Y19954D02*
X27930Y21069D01*
X26815Y19606D02*
X33012D01*
X26815Y19547D02*
X33012D01*
X26815Y19665D02*
X33012D01*
X26815Y19429D02*
X33012D01*
X26815Y19370D02*
X33012D01*
X26815Y19488D02*
X33012D01*
X26815Y17421D02*
X38376D01*
X26815Y17362D02*
X38376D01*
X26815Y17539D02*
X38376D01*
X26815Y17480D02*
X38376D01*
X26815Y17244D02*
X38376D01*
X26815Y17185D02*
X38376D01*
X26815Y17303D02*
X38376D01*
X26815Y17835D02*
X35125D01*
X26815Y17776D02*
X35252D01*
X26815Y17953D02*
X33796D01*
X26815Y17894D02*
X35060D01*
X26815Y17657D02*
X38376D01*
X26815Y17598D02*
X38376D01*
X26815Y17716D02*
X38376D01*
X26815Y16713D02*
X36354D01*
X26815Y16654D02*
X36245D01*
X26815Y16594D02*
X36194D01*
X26815Y16535D02*
X36166D01*
X26815Y16417D02*
X36153D01*
X26815Y16358D02*
X36166D01*
X26815Y16476D02*
X36153D01*
X26815Y17008D02*
X38376D01*
X26815Y16949D02*
X38376D01*
X26815Y17126D02*
X38376D01*
X26815Y17067D02*
X38376D01*
X26815Y16831D02*
X38376D01*
X26815Y16772D02*
X38376D01*
X26815Y16890D02*
X38376D01*
X27579Y16309D02*
Y20717D01*
X27402Y16324D02*
Y20540D01*
X27342Y16329D02*
Y20481D01*
X27283Y16320D02*
Y20422D01*
X27638Y16309D02*
Y20776D01*
X27520Y16309D02*
Y20658D01*
X27461Y16309D02*
Y20599D01*
X26815Y18543D02*
X33190D01*
X26815Y18484D02*
X33249D01*
X26815Y18661D02*
X33078D01*
X26815Y18602D02*
X33131D01*
X27224Y16297D02*
Y20363D01*
X27165Y16256D02*
Y20304D01*
X27106Y16177D02*
Y20245D01*
X26815Y18307D02*
X33426D01*
X26815Y18248D02*
X33485D01*
X26815Y18425D02*
X33308D01*
X26815Y18366D02*
X33367D01*
X26815Y18189D02*
X33544D01*
X26815Y18130D02*
X33603D01*
X27455Y16309D02*
X28372D01*
X26815Y18071D02*
X33662D01*
X26815Y18012D02*
X33721D01*
X26815Y16299D02*
X27228D01*
X26815Y16240D02*
X27150D01*
X26815Y16181D02*
X27108D01*
X26815Y16122D02*
X27086D01*
X23348Y21909D02*
X26143D01*
X25973Y21703D02*
X26134Y21863D01*
X25909Y20742D02*
Y21549D01*
X23303Y21850D02*
X26121D01*
X23285Y21791D02*
X26062D01*
X23250Y21732D02*
X26003D01*
X23189Y21673D02*
X25948D01*
X13799Y21614D02*
X25919D01*
X13799Y21555D02*
X25910D01*
X13799Y21496D02*
X25909D01*
X13799Y21260D02*
X25909D01*
X13799Y21201D02*
X25909D01*
X13799Y21437D02*
X25909D01*
X13799Y21378D02*
X25909D01*
X25763Y20787D02*
X25909D01*
X13799Y21142D02*
X25909D01*
X13799Y21024D02*
X25909D01*
X13799Y20965D02*
X25909D01*
X13799Y21319D02*
X25909D01*
X13799Y21083D02*
X25909D01*
X13799Y20905D02*
X25909D01*
X13799Y20846D02*
X25909D01*
X13799Y20787D02*
X25753D01*
X13799Y20728D02*
X25587D01*
X25433Y20669D02*
X25532D01*
X13799D02*
X25118D01*
X13799Y20610D02*
X25057D01*
X25274Y20167D02*
X25437Y20005D01*
X13799Y20551D02*
X25022D01*
X13799Y20374D02*
X25009D01*
X13799Y20315D02*
X25032D01*
X13799Y20492D02*
X25004D01*
X13799Y20433D02*
X25000D01*
X13799Y20197D02*
X25152D01*
X13799Y20138D02*
X25304D01*
X13799Y20256D02*
X25073D01*
X13799Y19606D02*
X25437D01*
X13799Y19547D02*
X25437D01*
X13799Y19724D02*
X25437D01*
X13799Y19665D02*
X25437D01*
X15337Y19429D02*
X25437D01*
X15372Y19370D02*
X25437D01*
X15275Y19488D02*
X25437D01*
X13799Y20020D02*
X25422D01*
X13799Y19961D02*
X25437D01*
X13799Y20079D02*
X25363D01*
X13799Y19842D02*
X25437D01*
X13799Y19783D02*
X25437D01*
X13799Y19902D02*
X25437D01*
X20481Y17185D02*
X25437D01*
X20519Y17126D02*
X25437D01*
X20439Y17303D02*
X25437D01*
X20468Y17244D02*
X25437D01*
X20638Y17008D02*
X25437D01*
X20697Y16949D02*
X25437D01*
X20578Y17067D02*
X25437D01*
X15374Y17598D02*
X25437D01*
X15374Y17539D02*
X25437D01*
X15374Y17716D02*
X25437D01*
X15374Y17657D02*
X25437D01*
X20280Y17421D02*
X25437D01*
X20389Y17362D02*
X25437D01*
X15374Y17480D02*
X25437D01*
X21287Y16358D02*
X25437D01*
X21346Y16299D02*
X25437D01*
X21169Y16476D02*
X25437D01*
X21228Y16417D02*
X25437D01*
X21464Y16181D02*
X25437D01*
X21523Y16122D02*
X25437D01*
X21405Y16240D02*
X25437D01*
X20874Y16772D02*
X25437D01*
X20933Y16713D02*
X25437D01*
X20756Y16890D02*
X25437D01*
X20815Y16831D02*
X25437D01*
X21051Y16594D02*
X25437D01*
X21110Y16535D02*
X25437D01*
X20992Y16654D02*
X25437D01*
X15385Y19193D02*
X25437D01*
X15374Y19134D02*
X25437D01*
X15389Y19311D02*
X25437D01*
X15394Y19252D02*
X25437D01*
X15374Y19016D02*
X25437D01*
X15374Y18957D02*
X25437D01*
X15374Y19075D02*
X25437D01*
X15374Y18779D02*
X25437D01*
X15374Y18720D02*
X25437D01*
X15374Y18898D02*
X25437D01*
X15374Y18839D02*
X25437D01*
X15374Y18602D02*
X25437D01*
X15374Y18543D02*
X25437D01*
X15374Y18661D02*
X25437D01*
X15374Y18012D02*
X25437D01*
X15374Y17953D02*
X25437D01*
X15374Y18130D02*
X25437D01*
X15374Y18071D02*
X25437D01*
X15374Y17835D02*
X25437D01*
X15374Y17776D02*
X25437D01*
X15374Y17894D02*
X25437D01*
X15374Y18425D02*
X25437D01*
X15374Y18366D02*
X25437D01*
X15374Y18484D02*
X25437D01*
X15374Y18248D02*
X25437D01*
X15374Y18189D02*
X25437D01*
X15374Y18307D02*
X25437D01*
X23268Y24478D02*
Y24695D01*
X23327Y24478D02*
Y24695D01*
X23150Y24478D02*
Y24695D01*
X23209Y24478D02*
Y24695D01*
X23445Y24478D02*
Y24695D01*
X23504Y24478D02*
Y24695D01*
X23386Y24478D02*
Y24695D01*
X22854Y24478D02*
Y24695D01*
X22913Y24478D02*
Y24695D01*
X22736Y24478D02*
Y24695D01*
X22795Y24478D02*
Y24695D01*
X23031Y24478D02*
Y24695D01*
X23091Y24478D02*
Y24695D01*
X22972Y24478D02*
Y24695D01*
X24094Y24478D02*
Y24695D01*
X24153Y24478D02*
Y24695D01*
X23976Y24478D02*
Y24695D01*
X24035Y24478D02*
Y24695D01*
X24272Y24478D02*
Y24695D01*
X24331Y24478D02*
Y24695D01*
X24213Y24478D02*
Y24695D01*
X23681Y24478D02*
Y24695D01*
X23740Y24478D02*
Y24695D01*
X23563Y24478D02*
Y24695D01*
X23622Y24478D02*
Y24695D01*
X23858Y24478D02*
Y24695D01*
X23917Y24478D02*
Y24695D01*
X23799Y24478D02*
Y24695D01*
X21673Y24478D02*
Y24695D01*
X21732Y24478D02*
Y24695D01*
X21555Y24478D02*
Y24695D01*
X21614Y24478D02*
Y24695D01*
X21850Y24478D02*
Y24695D01*
X21909Y24478D02*
Y24695D01*
X21791Y24478D02*
Y24695D01*
X21260Y24478D02*
Y24695D01*
X21319Y24478D02*
Y24695D01*
X21142Y24478D02*
Y24695D01*
X21201Y24478D02*
Y24695D01*
X21437Y24478D02*
Y24695D01*
X21496Y24478D02*
Y24695D01*
X21378Y24478D02*
Y24695D01*
X22441Y24478D02*
Y24695D01*
X22500Y24478D02*
Y24695D01*
X22323Y24478D02*
Y24695D01*
X22382Y24478D02*
Y24695D01*
X22618Y24478D02*
Y24695D01*
X22677Y24478D02*
Y24695D01*
X22559Y24478D02*
Y24695D01*
X22028Y24478D02*
Y24695D01*
X22087Y24478D02*
Y24695D01*
X21968Y24478D02*
Y24695D01*
X22205Y24478D02*
Y24695D01*
X22264Y24478D02*
Y24695D01*
X22146Y24478D02*
Y24695D01*
X20020Y24478D02*
Y24695D01*
X20079Y24478D02*
Y24695D01*
X19902Y24478D02*
Y24695D01*
X19961Y24478D02*
Y24695D01*
X20197Y24478D02*
Y24695D01*
X20256Y24478D02*
Y24695D01*
X20138Y24478D02*
Y24695D01*
X19606Y24478D02*
Y24695D01*
X19665Y24478D02*
Y24695D01*
X19488Y24478D02*
Y24695D01*
X19547Y24478D02*
Y24695D01*
X19783Y24478D02*
Y24695D01*
X19842Y24478D02*
Y24695D01*
X19724Y24478D02*
Y24695D01*
X20846Y24478D02*
Y24695D01*
X20905Y24478D02*
Y24695D01*
X20728Y24478D02*
Y24695D01*
X20787Y24478D02*
Y24695D01*
X21024Y24478D02*
Y24695D01*
X21083Y24478D02*
Y24695D01*
X20965Y24478D02*
Y24695D01*
X20433Y24478D02*
Y24695D01*
X20492Y24478D02*
Y24695D01*
X20315Y24478D02*
Y24695D01*
X20374Y24478D02*
Y24695D01*
X20610Y24478D02*
Y24695D01*
X20669Y24478D02*
Y24695D01*
X20551Y24478D02*
Y24695D01*
X19193Y24478D02*
Y24695D01*
X19252Y24478D02*
Y24695D01*
X19075Y24478D02*
Y24695D01*
X19134Y24478D02*
Y24695D01*
X19370Y24478D02*
Y24695D01*
X19429Y24478D02*
Y24695D01*
X19311Y24478D02*
Y24695D01*
X18957Y24478D02*
Y24695D01*
X19016Y24478D02*
Y24695D01*
X18839Y24469D02*
Y24695D01*
X18898Y24478D02*
Y24695D01*
X18484Y23898D02*
Y24695D01*
X18779Y24439D02*
Y24695D01*
X18425Y23898D02*
Y24695D01*
X18661Y24407D02*
Y24695D01*
X18720Y24425D02*
Y24695D01*
X18602Y24372D02*
Y24695D01*
Y23898D02*
Y23935D01*
X18543Y24311D02*
Y24695D01*
X18248Y23898D02*
Y24695D01*
X18307Y23898D02*
Y24695D01*
X18189Y23898D02*
Y24695D01*
X18543Y23898D02*
Y23996D01*
X18366Y23898D02*
Y24695D01*
X14892Y25216D02*
X15214D01*
X14874Y25157D02*
X15273D01*
X14919Y25335D02*
X15096D01*
X14907Y25276D02*
X15155D01*
X14938Y25492D02*
X15678Y24753D01*
X14801Y24980D02*
X15450D01*
X14770Y24921D02*
X15509D01*
X14853Y25098D02*
X15332D01*
X14829Y25039D02*
X15391D01*
X14695Y24803D02*
X15627D01*
X14651Y24744D02*
X15687D01*
X14735Y24862D02*
X15568D01*
X14324Y24449D02*
X18794D01*
X14222Y24390D02*
X18628D01*
X17598Y23898D02*
Y24695D01*
X14093Y24331D02*
X18559D01*
X18012Y23898D02*
Y24695D01*
X18071Y23898D02*
Y24695D01*
X17894Y23898D02*
Y24695D01*
X13902Y24272D02*
X18521D01*
X12631Y24094D02*
X18501D01*
X12513Y24213D02*
X18500D01*
X12572Y24153D02*
X18494D01*
X12749Y23976D02*
X18559D01*
X12808Y23917D02*
X18628D01*
X12690Y24035D02*
X18521D01*
X14935Y25453D02*
X14978D01*
X14928Y25394D02*
X15037D01*
X12342Y24383D02*
Y25124D01*
X12323Y24803D02*
X12510D01*
X12461Y24265D02*
Y24877D01*
X12520Y24206D02*
Y24789D01*
X12402Y24324D02*
Y24985D01*
X12323Y24921D02*
X12435D01*
X12323Y24862D02*
X12470D01*
X12323Y25039D02*
X12376D01*
X12323Y24980D02*
X12404D01*
X12323Y24744D02*
X12554D01*
X12323Y24402D02*
Y25183D01*
X12395Y24331D02*
X13112D01*
X12454Y24272D02*
X13303D01*
X12579Y24147D02*
Y24714D01*
X12638Y24087D02*
Y24648D01*
X12756Y23969D02*
Y24539D01*
X12815Y23910D02*
Y24494D01*
X12697Y24028D02*
Y24590D01*
X12323Y24626D02*
X12660D01*
X12323Y24567D02*
X12723D01*
X12323Y24685D02*
X12604D01*
X12323Y24449D02*
X12881D01*
X12336Y24390D02*
X12983D01*
X12323Y24508D02*
X12796D01*
X17716Y23898D02*
Y24695D01*
X18130Y23898D02*
Y24695D01*
X17539Y23893D02*
Y24695D01*
X17657Y23898D02*
Y24695D01*
X15354Y19404D02*
Y25076D01*
X17480Y23877D02*
Y24695D01*
X15295Y19473D02*
Y25135D01*
X15177Y19531D02*
Y25253D01*
X15236Y19511D02*
Y25194D01*
X15059Y19531D02*
Y25371D01*
X15118Y19537D02*
Y25312D01*
X14941Y19473D02*
Y25489D01*
X15000Y19511D02*
Y25430D01*
X14882Y19404D02*
Y25183D01*
X17953Y23898D02*
Y24695D01*
X17599Y23898D02*
X18667D01*
X17776D02*
Y24695D01*
X17835Y23898D02*
Y24695D01*
X17362Y23807D02*
Y24695D01*
X17421Y23850D02*
Y24695D01*
X17303Y23739D02*
Y24695D01*
X12867Y23858D02*
X17436D01*
X12926Y23799D02*
X17353D01*
X12985Y23740D02*
X17304D01*
X14468Y16125D02*
Y24556D01*
X14409Y16184D02*
Y24508D01*
X14173Y16420D02*
Y24365D01*
X14114Y16479D02*
Y24339D01*
X14055Y16538D02*
Y24316D01*
X13996Y16597D02*
Y24297D01*
X14350Y16243D02*
Y24466D01*
X14291Y16302D02*
Y24429D01*
X14232Y16361D02*
Y24395D01*
X12992Y23733D02*
Y24385D01*
X13051Y23674D02*
Y24356D01*
X12874Y23851D02*
Y24453D01*
X12933Y23792D02*
Y24417D01*
X12323Y24402D02*
X13742Y22984D01*
X13169Y23556D02*
Y24310D01*
X13110Y23615D02*
Y24331D01*
X13760Y22963D02*
Y24247D01*
X13701Y23024D02*
Y24241D01*
X13642Y23084D02*
Y24238D01*
X13583Y23143D02*
Y24238D01*
X13937Y16656D02*
Y24280D01*
X13878Y16715D02*
Y24266D01*
X13819Y16774D02*
Y24255D01*
X13287Y23438D02*
Y24275D01*
X13346Y23379D02*
Y24262D01*
X13228Y23497D02*
Y24291D01*
X13465Y23261D02*
Y24245D01*
X13524Y23202D02*
Y24240D01*
X13405Y23320D02*
Y24252D01*
X24035Y23041D02*
Y23337D01*
X24074D02*
X24323Y23088D01*
X23917Y23041D02*
Y23337D01*
X23976Y23041D02*
Y23337D01*
X23799Y23041D02*
Y23337D01*
X23858Y23041D02*
Y23337D01*
X23740Y23041D02*
Y23337D01*
X23681Y23041D02*
Y23337D01*
X19942D02*
X24074D01*
X23563Y23041D02*
Y23337D01*
X23622Y23041D02*
Y23337D01*
X23445Y23040D02*
Y23337D01*
X23504Y23041D02*
Y23337D01*
X23386Y23025D02*
Y23337D01*
X24272Y23041D02*
Y23139D01*
X24153Y23041D02*
Y23257D01*
X24213Y23041D02*
Y23198D01*
X24094Y23041D02*
Y23316D01*
X23468Y23041D02*
X24332D01*
X19814Y23209D02*
X24202D01*
X19793Y23150D02*
X24261D01*
X19932Y23327D02*
X24084D01*
X19873Y23268D02*
X24143D01*
X19793Y23091D02*
X24320D01*
X19793Y23031D02*
X23403D01*
X23268Y22933D02*
Y23337D01*
X23327Y22990D02*
Y23337D01*
X23150Y22815D02*
Y23337D01*
X23209Y22874D02*
Y23337D01*
X23031Y22696D02*
Y23337D01*
X23091Y22755D02*
Y23337D01*
X22972Y22666D02*
Y23337D01*
X19793Y23188D02*
X19942Y23337D01*
X19360Y22887D02*
Y23213D01*
X22854Y22594D02*
Y23337D01*
X22913Y22640D02*
Y23337D01*
X19842Y22790D02*
Y23237D01*
X19815Y22854D02*
X23189D01*
X19841Y22795D02*
X23130D01*
X19852Y22736D02*
X23071D01*
X19850Y22677D02*
X23012D01*
X23009Y22674D02*
X23311Y22976D01*
X19834Y22618D02*
X22881D01*
X19803Y22559D02*
X22825D01*
X19793Y22972D02*
X23307D01*
X19793Y22913D02*
X23248D01*
X17599Y23189D02*
X19232D01*
X19793Y22887D02*
Y23188D01*
X19311Y22789D02*
Y23198D01*
X21319Y16327D02*
Y23337D01*
X22795Y22504D02*
Y23337D01*
X21201Y16445D02*
Y23337D01*
X21260Y16386D02*
Y23337D01*
X21437Y16208D02*
Y23337D01*
X21496Y16149D02*
Y23337D01*
X21378Y16267D02*
Y23337D01*
X20905Y16740D02*
Y23337D01*
X20965Y16681D02*
Y23337D01*
X20787Y16858D02*
Y23337D01*
X20846Y16799D02*
Y23337D01*
X21083Y16563D02*
Y23337D01*
X21142Y16504D02*
Y23337D01*
X21024Y16622D02*
Y23337D01*
X23781Y22343D02*
X24176D01*
X23761Y22323D02*
X24168D01*
X23702Y22264D02*
X24155D01*
X23643Y22205D02*
X24155D01*
X23525Y22087D02*
X24196D01*
X23466Y22028D02*
X24247D01*
X23584Y22146D02*
X24168D01*
X22854Y22111D02*
Y22209D01*
X19747Y22500D02*
X22794D01*
X22795Y22041D02*
Y22299D01*
X23305Y21867D02*
X23781Y22343D01*
X23407Y21968D02*
X24356D01*
X20492Y17153D02*
Y23337D01*
X20551Y17094D02*
Y23337D01*
X20374Y17375D02*
Y23337D01*
X20433Y17313D02*
Y23337D01*
X20669Y16976D02*
Y23337D01*
X20728Y16917D02*
Y23337D01*
X20610Y17035D02*
Y23337D01*
X20256Y17427D02*
Y23337D01*
X20315Y17409D02*
Y23337D01*
X20138Y17422D02*
Y23337D01*
X20197Y17431D02*
Y23337D01*
X20020Y17358D02*
Y23337D01*
X20079Y17400D02*
Y23337D01*
X19961Y17280D02*
Y23337D01*
X15374Y16594D02*
X20327D01*
X15374Y16535D02*
X20386D01*
X15374Y16654D02*
X20268D01*
X15374Y16417D02*
X20504D01*
X15374Y16358D02*
X20563D01*
X15374Y16476D02*
X20445D01*
X15374Y16240D02*
X20681D01*
X15374Y16181D02*
X20740D01*
X15374Y16299D02*
X20622D01*
X13799Y22854D02*
X19338D01*
X13799Y22795D02*
X19313D01*
X13799Y22736D02*
X19302D01*
X13799Y22677D02*
X19304D01*
X13799Y22559D02*
X19351D01*
X13799Y22500D02*
X19406D01*
X13799Y22618D02*
X19319D01*
X13576Y23150D02*
X19360D01*
X13635Y23091D02*
X19360D01*
X13458Y23268D02*
X17376D01*
X13517Y23209D02*
X17482D01*
X13752Y22972D02*
X19360D01*
X13787Y22913D02*
X19360D01*
X13694Y23031D02*
X19360D01*
X13799Y22028D02*
X22787D01*
X13799Y21968D02*
X22765D01*
X13799Y21909D02*
X22756D01*
X13799Y21850D02*
X22760D01*
X13799Y21732D02*
X22813D01*
X13799Y21673D02*
X22874D01*
X13799Y21791D02*
X22778D01*
X13799Y22323D02*
X22787D01*
X13799Y22264D02*
X22813D01*
X13799Y22441D02*
X22778D01*
X13799Y22382D02*
X22776D01*
X13799Y22205D02*
X22858D01*
X13799Y22146D02*
X22907D01*
X13799Y22087D02*
X22829D01*
X13799Y19488D02*
X14961D01*
X13799Y19429D02*
X14899D01*
X13799Y19370D02*
X14865D01*
X13799Y19311D02*
X14847D01*
X13044Y23681D02*
X17272D01*
X13103Y23622D02*
X17253D01*
X13162Y23563D02*
X17245D01*
X13221Y23504D02*
X17246D01*
X13339Y23386D02*
X17281D01*
X13399Y23327D02*
X17318D01*
X13280Y23445D02*
X17258D01*
X13799Y19134D02*
X14862D01*
X13799Y19252D02*
X14843D01*
X13799Y19193D02*
X14851D01*
X13799Y19016D02*
X14862D01*
X13799Y18957D02*
X14862D01*
X13799Y19075D02*
X14862D01*
X13799Y18839D02*
X14862D01*
X13799Y18779D02*
X14862D01*
X13799Y18898D02*
X14862D01*
X13799Y18661D02*
X14862D01*
X13799Y18602D02*
X14862D01*
X13799Y18720D02*
X14862D01*
X13799Y17716D02*
X14862D01*
X13799Y17657D02*
X14862D01*
X13799Y17894D02*
X14862D01*
X13799Y17835D02*
X14862D01*
X13799Y17539D02*
X14862D01*
X13799Y17480D02*
X14862D01*
X13799Y17598D02*
X14862D01*
X13799Y18425D02*
X14862D01*
X13799Y18366D02*
X14862D01*
X13799Y18543D02*
X14862D01*
X13799Y18484D02*
X14862D01*
X13799Y18248D02*
X14862D01*
X13799Y18189D02*
X14862D01*
X13799Y18307D02*
X14862D01*
X15374Y17421D02*
X20134D01*
X15374Y17362D02*
X20024D01*
X15374Y17303D02*
X19974D01*
X15374Y17244D02*
X19946D01*
X15374Y17126D02*
X19933D01*
X15374Y17067D02*
X19946D01*
X15374Y17185D02*
X19933D01*
X15374Y16949D02*
X19985D01*
X15374Y16890D02*
X20032D01*
X13799Y17421D02*
X14862D01*
X15374Y17008D02*
X19960D01*
X15374Y16772D02*
X20150D01*
X15374Y16713D02*
X20209D01*
X15374Y16831D02*
X20091D01*
X13799Y17185D02*
X14862D01*
X13799Y17126D02*
X14862D01*
X13799Y17303D02*
X14862D01*
X13799Y17244D02*
X14862D01*
X13799Y17008D02*
X14862D01*
X13799Y16949D02*
X14862D01*
X13799Y17067D02*
X14862D01*
X13799Y18012D02*
X14862D01*
X13799Y17953D02*
X14862D01*
X13799Y18130D02*
X14862D01*
X13799Y18071D02*
X14862D01*
X13799Y17776D02*
X14862D01*
X13799Y17362D02*
X14862D01*
X13799Y16794D02*
Y22844D01*
X14176Y16417D02*
X14862D01*
X14235Y16358D02*
X14862D01*
X14058Y16535D02*
X14862D01*
X14117Y16476D02*
X14862D01*
X14353Y16240D02*
X14862D01*
X14412Y16181D02*
X14862D01*
X14294Y16299D02*
X14862D01*
X13799Y16831D02*
X14862D01*
X13822Y16772D02*
X14862D01*
X13799Y16890D02*
X14862D01*
X13940Y16654D02*
X14862D01*
X13999Y16594D02*
X14862D01*
X13881Y16713D02*
X14862D01*
X26815Y15768D02*
X28862D01*
X26815Y15709D02*
X28784D01*
X27638Y15364D02*
Y15797D01*
X27455D02*
X28321D01*
X27697Y15360D02*
Y15797D01*
X27579Y15355D02*
Y15797D01*
X26815Y15650D02*
X28742D01*
X26815Y15591D02*
X28719D01*
X26815Y15531D02*
X28674D01*
X26815Y15472D02*
X28614D01*
X26815Y15413D02*
X28555D01*
X26815Y14823D02*
X27575D01*
X26815Y15354D02*
X27575D01*
X26815Y14350D02*
X29793D01*
X26815Y14291D02*
X29734D01*
X26815Y14232D02*
X29446D01*
X26815Y14173D02*
X29382D01*
X26815Y14114D02*
X29315D01*
X26815Y14055D02*
X29237D01*
X26815Y13996D02*
X29195D01*
X26815Y14764D02*
X30206D01*
X26815Y14705D02*
X30147D01*
X26815Y14646D02*
X30088D01*
X26815Y14587D02*
X30029D01*
X26815Y14528D02*
X29970D01*
X26815Y14468D02*
X29911D01*
X26815Y14409D02*
X29852D01*
X26815Y15945D02*
X27099D01*
X26815Y15886D02*
X27133D01*
X26815Y16063D02*
X27077D01*
X26815Y16004D02*
X27081D01*
X27520Y15333D02*
Y15797D01*
X26815Y15827D02*
X27195D01*
X25394Y14203D02*
Y20048D01*
X25437Y14246D02*
Y20005D01*
X25039Y14101D02*
Y20301D01*
X25335Y14144D02*
Y20107D01*
X25216Y14025D02*
Y20174D01*
X25276Y14085D02*
Y20166D01*
X25098Y14050D02*
Y20232D01*
X27461Y15291D02*
Y15797D01*
X26815Y15295D02*
X27465D01*
X27402Y15213D02*
Y15782D01*
X26815Y15236D02*
X27415D01*
X26815Y15177D02*
X27387D01*
X26815Y15059D02*
X27374D01*
X26815Y15118D02*
X27374D01*
X26815Y14941D02*
X27415D01*
X26815Y14882D02*
X27465D01*
X26815Y15000D02*
X27387D01*
X25016Y14114D02*
X25305D01*
X25094Y14055D02*
X25246D01*
X25136Y13996D02*
X25187D01*
X27342Y13720D02*
Y15778D01*
X27402Y13720D02*
Y14965D01*
X27224Y13720D02*
Y15809D01*
X27283Y13720D02*
Y15786D01*
X27520Y13720D02*
Y14845D01*
X27579Y13720D02*
Y14822D01*
X27461Y13720D02*
Y14886D01*
X26988Y13720D02*
Y20127D01*
X26929Y13720D02*
Y20068D01*
X26870Y13771D02*
Y20009D01*
X26815Y13826D02*
Y19954D01*
X27106Y13720D02*
Y15929D01*
X27165Y13720D02*
Y15851D01*
X27047Y13720D02*
Y20186D01*
X26881Y13760D02*
X29186D01*
X26920Y13720D02*
X27835D01*
X27697D02*
Y14817D01*
X27638Y13720D02*
Y14813D01*
X26815Y13937D02*
X29172D01*
X26822Y13819D02*
X29168D01*
X26815Y13878D02*
X29164D01*
X26815Y13826D02*
X26920Y13720D01*
X26654Y12372D02*
Y12876D01*
X26551Y12815D02*
X26654D01*
X25417Y13086D02*
Y13614D01*
X25268Y13465D02*
X25417D01*
X25386Y13583D02*
X25417D01*
X25327Y13524D02*
X25417D01*
X25394Y13062D02*
Y13590D01*
X25335Y13003D02*
Y13531D01*
X25276Y12944D02*
Y13472D01*
X25151Y13960D02*
X25437Y14246D01*
X25150Y13346D02*
X25417D01*
X25157Y13966D02*
Y20194D01*
X25209Y13405D02*
X25417D01*
X25216Y12885D02*
Y13413D01*
X25157Y12826D02*
Y13354D01*
X25098Y12767D02*
Y13295D01*
X26457Y12501D02*
Y12785D01*
X26398Y12560D02*
Y12777D01*
X26220Y12737D02*
Y12797D01*
X26279Y12678D02*
Y12783D01*
X26634Y11722D02*
Y12861D01*
X26575Y11722D02*
Y12826D01*
X26516Y12438D02*
Y12801D01*
X25032Y13228D02*
X25417D01*
X26143Y12815D02*
X26173D01*
X25091Y13287D02*
X25417D01*
X25039Y12708D02*
Y13236D01*
X26108Y12850D02*
X26491Y12466D01*
X24980Y12649D02*
Y13177D01*
X22114Y15531D02*
X25437D01*
X22173Y15472D02*
X25437D01*
X21996Y15650D02*
X25437D01*
X22055Y15591D02*
X25437D01*
X22291Y15354D02*
X25437D01*
X22350Y15295D02*
X25437D01*
X22232Y15413D02*
X25437D01*
X21701Y15945D02*
X25437D01*
X21760Y15886D02*
X25437D01*
X21582Y16063D02*
X25437D01*
X21641Y16004D02*
X25437D01*
X21878Y15768D02*
X25437D01*
X21937Y15709D02*
X25437D01*
X21819Y15827D02*
X25437D01*
X23035Y14764D02*
X25437D01*
X23041Y14705D02*
X25437D01*
X22977Y14882D02*
X25437D01*
X23015Y14823D02*
X25437D01*
X23015Y14587D02*
X25437D01*
X22977Y14528D02*
X25437D01*
X23035Y14646D02*
X25437D01*
X22527Y15118D02*
X25437D01*
X22586Y15059D02*
X25437D01*
X22409Y15236D02*
X25437D01*
X22468Y15177D02*
X25437D01*
X22908Y14941D02*
X25437D01*
X22908Y14468D02*
X25437D01*
X22645Y15000D02*
X25437D01*
X24921Y14142D02*
Y22087D01*
X24980Y14129D02*
Y22087D01*
X24803Y14129D02*
Y22087D01*
X24862Y14142D02*
Y22087D01*
X24685Y14050D02*
Y22087D01*
X24744Y14101D02*
Y22087D01*
X24626Y13964D02*
Y22041D01*
X24153Y13789D02*
Y22343D01*
X24567Y13905D02*
Y21996D01*
X24035Y13789D02*
Y22343D01*
X24094Y13789D02*
Y22343D01*
X23917Y13789D02*
Y22343D01*
X23976Y13789D02*
Y22343D01*
X23858Y13789D02*
Y22343D01*
X17230Y14055D02*
X24689D01*
X17289Y13996D02*
X24648D01*
X22218Y13937D02*
X24599D01*
X24508Y13846D02*
Y21970D01*
X22309Y13878D02*
X24540D01*
X22355Y13819D02*
X24481D01*
X16934Y14350D02*
X25437D01*
X16994Y14291D02*
X25437D01*
X16875Y14409D02*
X25437D01*
X17053Y14232D02*
X25423D01*
X17112Y14173D02*
X25364D01*
X17171Y14114D02*
X24768D01*
X24973Y13169D02*
X25417D01*
X24914Y13110D02*
X25417D01*
X24909Y13105D02*
X25417Y13614D01*
X24820Y13051D02*
X25383D01*
X24921Y12590D02*
Y13118D01*
X24862Y12531D02*
Y13070D01*
X24451Y13789D02*
X24638Y13977D01*
X22370Y13789D02*
X24451D01*
X24390D02*
Y21962D01*
X24449Y13789D02*
Y21959D01*
X24733Y12402D02*
X25417Y13086D01*
X24331Y13789D02*
Y21977D01*
X24803Y12472D02*
Y13047D01*
X24744Y12412D02*
Y13041D01*
X24626Y12402D02*
Y13041D01*
X24685Y12402D02*
Y13041D01*
X24508Y12402D02*
Y13041D01*
X24567Y12402D02*
Y13041D01*
X24449Y12402D02*
Y13041D01*
X23504Y12992D02*
X25324D01*
X23549Y12933D02*
X25265D01*
X23453Y13041D02*
X24755D01*
X23581Y12874D02*
X25206D01*
X24390Y12402D02*
Y13041D01*
X23603Y12815D02*
X25147D01*
X24331Y12402D02*
Y13041D01*
X24213Y13789D02*
Y22064D01*
X24272Y13789D02*
Y22008D01*
X23799Y13789D02*
Y22343D01*
X23681Y13789D02*
Y22243D01*
X23976Y12402D02*
Y13041D01*
X24035Y12402D02*
Y13041D01*
X23740Y13789D02*
Y22302D01*
X23445Y13789D02*
Y22007D01*
X23386Y13789D02*
Y21948D01*
X23327Y13789D02*
Y21889D01*
X23268Y13789D02*
Y21758D01*
X23622Y13789D02*
Y22184D01*
X23563Y13789D02*
Y22125D01*
X23504Y13789D02*
Y22066D01*
X23917Y12402D02*
Y13041D01*
X24094Y12402D02*
Y13041D01*
X23799Y12402D02*
Y13041D01*
X23858Y12402D02*
Y13041D01*
X24213Y12402D02*
Y13041D01*
X24272Y12402D02*
Y13041D01*
X24153Y12402D02*
Y13041D01*
X23563Y12909D02*
Y13041D01*
X23622Y12721D02*
Y13041D01*
X23504Y12992D02*
Y13041D01*
X23681Y12402D02*
Y13041D01*
X23740Y12402D02*
Y13041D01*
X27461Y12088D02*
Y12776D01*
X27520Y12029D02*
Y12776D01*
X27342Y12206D02*
Y12776D01*
X27402Y12147D02*
Y12776D01*
X27638Y12028D02*
Y12776D01*
X27697Y12028D02*
Y12776D01*
X27579Y12028D02*
Y12776D01*
X27087Y12697D02*
X29006D01*
X27087Y12638D02*
X29006D01*
X27087Y12776D02*
X27835D01*
X27087Y12756D02*
X29006D01*
X27224Y12324D02*
Y12776D01*
X27283Y12265D02*
Y12776D01*
X27165Y12383D02*
Y12776D01*
X27324Y12224D02*
X30236D01*
X27383Y12165D02*
X29417D01*
X27206Y12342D02*
X29006D01*
X27265Y12283D02*
X29006D01*
X27442Y12106D02*
X29243D01*
X27501Y12047D02*
X29161D01*
X27521Y12028D02*
X28179D01*
X27088Y12461D02*
X29006D01*
X27147Y12402D02*
X29006D01*
X27087Y12579D02*
X29006D01*
X27087Y12520D02*
X29006D01*
X27087Y12462D02*
X27521Y12028D01*
X26555Y11752D02*
X27184D01*
X26555Y11811D02*
X27125D01*
X27087Y12462D02*
Y12776D01*
X27106Y12442D02*
Y12776D01*
X26497Y12461D02*
X26654D01*
X26536Y12402D02*
X26654D01*
X26202Y12756D02*
X26654D01*
X26261Y12697D02*
X26654D01*
X26339Y12619D02*
Y12776D01*
X26320Y12638D02*
X26654D01*
X26379Y12579D02*
X26654D01*
X26438Y12520D02*
X26654D01*
X26555Y12165D02*
X26771D01*
X26555Y12106D02*
X26830D01*
X26555Y12283D02*
X26672D01*
X26555Y12224D02*
X26712D01*
X26693Y11722D02*
Y12248D01*
X26555Y11929D02*
X27007D01*
X26555Y11722D02*
Y12313D01*
Y12047D02*
X26889D01*
X26555Y11988D02*
X26948D01*
X26553Y12342D02*
X26656D01*
X26555Y11870D02*
X27066D01*
X26555Y11722D02*
X26811D01*
X26122D02*
Y12223D01*
X27662Y11594D02*
X28089D01*
X27682Y11575D02*
X28109D01*
X27106Y11661D02*
Y11830D01*
X27165Y11690D02*
Y11771D01*
X26717Y12219D02*
X27227Y11709D01*
X26811Y11693D02*
X27174D01*
X27047Y11622D02*
Y11889D01*
X26811Y11634D02*
X27063D01*
X26811Y11575D02*
X26995D01*
X27503Y10807D02*
X28877D01*
X27435Y10787D02*
X28901D01*
X27682Y10925D02*
X28759D01*
X27614Y10866D02*
X28818D01*
X27697Y10787D02*
Y10942D01*
X27638Y10787D02*
Y10884D01*
X27579Y10787D02*
Y10843D01*
X26811Y10866D02*
X27063D01*
X26811Y10807D02*
X27174D01*
X26811Y10925D02*
X26996D01*
X27047Y10787D02*
Y10878D01*
X27106Y10787D02*
Y10839D01*
X26811Y10787D02*
X27243D01*
X26988D02*
Y10933D01*
X26811Y11722D02*
Y12125D01*
X26988Y11567D02*
Y11948D01*
X26102Y11722D02*
Y12243D01*
X26752Y11722D02*
Y12184D01*
X26870Y11310D02*
Y12066D01*
X26929Y11486D02*
Y12007D01*
X26811Y10787D02*
Y11722D01*
X26043D02*
Y12302D01*
X25866Y11722D02*
X26122D01*
X25925D02*
Y12420D01*
X25984Y11722D02*
Y12361D01*
X25807Y10787D02*
Y12538D01*
X25866Y10787D02*
Y12479D01*
X25748Y10787D02*
Y12597D01*
X26811Y11516D02*
X26948D01*
X26811Y11457D02*
X26914D01*
X26811Y11398D02*
X26890D01*
X26811Y11339D02*
X26875D01*
X26870Y10787D02*
Y11190D01*
X26929Y10787D02*
Y11014D01*
X26811Y11279D02*
X26867D01*
X26811Y11161D02*
X26875D01*
X26811Y11102D02*
X26890D01*
X26811Y11220D02*
X26867D01*
X26811Y11043D02*
X26914D01*
X26811Y10984D02*
X26948D01*
X25866Y10787D02*
Y11722D01*
X25523Y12579D02*
X25767D01*
X25582Y12638D02*
X25708D01*
X25717Y12628D02*
X26122Y12223D01*
X25405Y12461D02*
X25885D01*
X25464Y12520D02*
X25826D01*
X25227Y12283D02*
X26062D01*
X25168Y12224D02*
X26121D01*
X25346Y12402D02*
X25944D01*
X25287Y12342D02*
X26003D01*
X25109Y12165D02*
X26122D01*
X25050Y12106D02*
X26122D01*
X24976Y12032D02*
X25663Y12719D01*
X24991Y12047D02*
X26122D01*
X24913Y11988D02*
X26122D01*
X23618Y11752D02*
X26122D01*
X23624Y11693D02*
X25866D01*
X24876Y11339D02*
X25866D01*
X24967Y11279D02*
X25866D01*
X23622Y11634D02*
X25866D01*
X23551Y11929D02*
X26122D01*
X23583Y11870D02*
X26122D01*
X23605Y11811D02*
X26122D01*
X23613Y11575D02*
X25866D01*
X23569Y11457D02*
X25866D01*
X23532Y11398D02*
X25866D01*
X23596Y11516D02*
X25866D01*
X23617Y12756D02*
X25087D01*
X23624Y12697D02*
X25028D01*
X23622Y12638D02*
X24969D01*
X23622Y12402D02*
Y12634D01*
X24980Y11265D02*
Y12036D01*
X23614Y12579D02*
X24910D01*
X23597Y12520D02*
X24851D01*
X23571Y12461D02*
X24792D01*
X23535Y12402D02*
X24733D01*
X23563D02*
Y12445D01*
X24862Y11344D02*
Y11972D01*
X24803Y11357D02*
Y11968D01*
X24685Y11344D02*
Y11968D01*
X24744Y11357D02*
Y11968D01*
X24921Y11315D02*
Y11992D01*
X24626Y11315D02*
Y11968D01*
X24567Y11265D02*
Y11968D01*
X23622Y11721D02*
Y11968D01*
X23523D02*
X24823D01*
X23563Y11909D02*
Y11968D01*
X23481Y11339D02*
X24671D01*
X23407Y11279D02*
X24581D01*
X25512Y10787D02*
Y12568D01*
X25453Y10787D02*
Y12509D01*
X25394Y10787D02*
Y12450D01*
X25335Y10787D02*
Y12391D01*
X25630Y10787D02*
Y12686D01*
X25689Y10787D02*
Y12663D01*
X25571Y10787D02*
Y12627D01*
X25216Y10787D02*
Y12272D01*
X25012Y11220D02*
X25866D01*
X25039Y11156D02*
Y12095D01*
X25276Y10787D02*
Y12332D01*
X25157Y10787D02*
Y12213D01*
X25098Y10787D02*
Y12154D01*
X25046Y11043D02*
X25866D01*
X25031Y10984D02*
X25866D01*
X25038Y11161D02*
X25866D01*
X25049Y11102D02*
X25866D01*
X25039Y10787D02*
Y11010D01*
X25000Y10925D02*
X25866D01*
X24980Y10787D02*
Y10900D01*
X24944Y10866D02*
X25866D01*
X24860Y10807D02*
X25866D01*
X23272Y11220D02*
X24535D01*
X24921Y10787D02*
Y10850D01*
X24840Y10787D02*
X25866D01*
X24840D02*
X24882Y10829D01*
X24449Y11120D02*
Y11968D01*
X24508Y11179D02*
Y11968D01*
X24331Y11102D02*
Y11968D01*
X24390Y11102D02*
Y11968D01*
X24213Y11102D02*
Y11968D01*
X24272Y11102D02*
Y11968D01*
X24153Y11102D02*
Y11968D01*
X23858Y11102D02*
Y11968D01*
X23917Y11102D02*
Y11968D01*
X23681Y11102D02*
Y11968D01*
X24035Y11102D02*
Y11968D01*
X24094Y11102D02*
Y11968D01*
X23976Y11102D02*
Y11968D01*
X23622Y11102D02*
Y11634D01*
X23563Y11102D02*
Y11445D01*
X23504Y11102D02*
Y11362D01*
X23445Y11102D02*
Y11307D01*
X23799Y11102D02*
Y11968D01*
X24431Y11102D02*
X24520Y11191D01*
X23740Y11102D02*
Y11968D01*
X20123Y11161D02*
X24490D01*
X20182Y11102D02*
X24431D01*
X23209D02*
Y11208D01*
X23386Y11102D02*
Y11267D01*
X23327Y11102D02*
Y11238D01*
X23268Y11102D02*
Y11219D01*
X22972Y14887D02*
Y21630D01*
X23031Y14778D02*
Y21624D01*
X22854Y14966D02*
Y21689D01*
X22913Y14937D02*
Y21651D01*
X23209Y13789D02*
Y21688D01*
X23150Y13789D02*
Y21651D01*
X23091Y13789D02*
Y21630D01*
X22618Y15027D02*
Y23337D01*
X22795Y14979D02*
Y21758D01*
X22500Y15145D02*
Y23337D01*
X22559Y15086D02*
Y23337D01*
X22736Y14979D02*
Y23337D01*
X20482Y17163D02*
X22679Y14966D01*
X22677Y14968D02*
Y23337D01*
X22854Y13789D02*
Y14444D01*
X22736Y13789D02*
Y14431D01*
X22795Y13789D02*
Y14431D01*
X23031Y13789D02*
Y14632D01*
X22972Y13789D02*
Y14522D01*
X22913Y13789D02*
Y14472D01*
X22579Y14449D02*
X22663D01*
X22559Y13789D02*
Y14450D01*
X22618Y13789D02*
Y14449D01*
X22500Y13789D02*
Y14461D01*
X22205Y15441D02*
Y23337D01*
X22264Y15382D02*
Y23337D01*
X22087Y15559D02*
Y23337D01*
X22146Y15500D02*
Y23337D01*
X22382Y15264D02*
Y23337D01*
X22441Y15204D02*
Y23337D01*
X22323Y15323D02*
Y23337D01*
X21673Y15972D02*
Y23337D01*
X21732Y15913D02*
Y23337D01*
X21555Y16090D02*
Y23337D01*
X21614Y16031D02*
Y23337D01*
X21968Y15677D02*
Y23337D01*
X22028Y15618D02*
Y23337D01*
X21791Y15854D02*
Y23337D01*
X22205Y13942D02*
Y14717D01*
X22264Y13914D02*
Y14658D01*
X22087Y13955D02*
Y14835D01*
X22146Y13955D02*
Y14776D01*
X22382Y13789D02*
Y14540D01*
X22441Y13789D02*
Y14489D01*
X22323Y13863D02*
Y14599D01*
X21909Y15736D02*
Y23337D01*
X20026Y16896D02*
X22398Y14524D01*
X21850Y15795D02*
Y23337D01*
X21968Y13914D02*
Y14953D01*
X22028Y13942D02*
Y14894D01*
X21909Y13863D02*
Y15012D01*
X20905Y13474D02*
Y16016D01*
X20965Y13474D02*
Y15957D01*
X20787Y13474D02*
Y16134D01*
X20846Y13474D02*
Y16075D01*
X21083Y13474D02*
Y15839D01*
X21142Y13474D02*
Y15780D01*
X21024Y13474D02*
Y15898D01*
X20669Y13474D02*
Y16252D01*
X20728Y13474D02*
Y16193D01*
X20551Y13474D02*
Y16370D01*
X20610Y13474D02*
Y16311D01*
X20433Y13433D02*
Y16489D01*
X20492Y13463D02*
Y16429D01*
X20374Y13377D02*
Y16548D01*
X22677Y13789D02*
Y14444D01*
X21791Y13474D02*
Y15130D01*
X21850Y13754D02*
Y15071D01*
X21673Y13474D02*
Y15248D01*
X21732Y13474D02*
Y15189D01*
X21614Y13474D02*
Y15307D01*
X21319Y13474D02*
Y15603D01*
X21378Y13474D02*
Y15544D01*
X21201Y13474D02*
Y15721D01*
X21260Y13474D02*
Y15662D01*
X21496Y13474D02*
Y15426D01*
X21555Y13474D02*
Y15366D01*
X21437Y13474D02*
Y15485D01*
X19311Y11974D02*
Y22644D01*
X19370Y11915D02*
Y22534D01*
X19252Y12033D02*
Y23190D01*
X19193Y12092D02*
Y23189D01*
X19902Y11383D02*
Y23296D01*
X19842Y11442D02*
Y22643D01*
X19783Y11501D02*
Y22534D01*
X18898Y12387D02*
Y23189D01*
X18957Y12328D02*
Y23189D01*
X18779Y12505D02*
Y23189D01*
X18839Y12446D02*
Y23189D01*
X19075Y12210D02*
Y23189D01*
X19134Y12151D02*
Y23189D01*
X19016Y12269D02*
Y23189D01*
X20256Y13254D02*
Y16666D01*
X20315Y13318D02*
Y16607D01*
X19961Y11324D02*
Y17007D01*
X20197Y12612D02*
Y16725D01*
X20079Y11206D02*
Y16843D01*
X20138Y11147D02*
Y16784D01*
X20020Y11265D02*
Y16902D01*
X19488Y11797D02*
Y22456D01*
X19547Y11738D02*
Y22443D01*
X19429Y11856D02*
Y22484D01*
X19724Y11560D02*
Y22484D01*
X19665Y11620D02*
Y22456D01*
X19606Y11679D02*
Y22443D01*
X16063Y15222D02*
Y24695D01*
X16122Y15163D02*
Y24695D01*
X15945Y15340D02*
Y24695D01*
X16004Y15281D02*
Y24695D01*
X16240Y15045D02*
Y24695D01*
X16299Y14986D02*
Y24695D01*
X16181Y15104D02*
Y24695D01*
X15374Y16004D02*
X20918D01*
X15374Y15945D02*
X20977D01*
X15374Y16122D02*
X20800D01*
X15374Y16063D02*
X20859D01*
X15458Y15827D02*
X21095D01*
X15517Y15768D02*
X21154D01*
X15399Y15886D02*
X21036D01*
X16108Y15177D02*
X21744D01*
X16167Y15118D02*
X21803D01*
X15990Y15295D02*
X21626D01*
X16049Y15236D02*
X21685D01*
X16285Y15000D02*
X21922D01*
X16344Y14941D02*
X21981D01*
X16226Y15059D02*
X21863D01*
X15694Y15591D02*
X21331D01*
X15753Y15531D02*
X21390D01*
X15576Y15709D02*
X21213D01*
X15635Y15650D02*
X21272D01*
X15871Y15413D02*
X21508D01*
X15931Y15354D02*
X21567D01*
X15812Y15472D02*
X21449D01*
X15650Y15635D02*
Y24781D01*
X15709Y15576D02*
Y24727D01*
X15531Y15753D02*
Y24899D01*
X15591Y15694D02*
Y24840D01*
X15827Y15458D02*
Y24695D01*
X15886Y15399D02*
Y24695D01*
X15768Y15517D02*
Y24701D01*
X15413Y15871D02*
Y25017D01*
X14705Y15889D02*
Y24817D01*
X14646Y15948D02*
Y24738D01*
X14587Y16007D02*
Y24669D01*
X14823Y15771D02*
Y25026D01*
X15472Y15812D02*
Y24958D01*
X14764Y15830D02*
Y24911D01*
X15374Y15911D02*
Y19160D01*
X14708Y15886D02*
X14862D01*
Y15805D02*
Y19160D01*
X14767Y15827D02*
X14862D01*
X14826Y15768D02*
X14865D01*
X14471Y16122D02*
X14862D01*
X14530Y16063D02*
X14862D01*
X14528Y16066D02*
Y24609D01*
X13799Y16794D02*
X14879Y15715D01*
X14648Y15945D02*
X14862D01*
X14589Y16004D02*
X14862D01*
X18484Y12801D02*
Y23189D01*
X18543Y12742D02*
Y23189D01*
X18366Y12919D02*
Y23189D01*
X18425Y12860D02*
Y23189D01*
X18661Y12623D02*
Y23189D01*
X18720Y12564D02*
Y23189D01*
X18602Y12682D02*
Y23189D01*
X18071Y13214D02*
Y23189D01*
X18130Y13155D02*
Y23189D01*
X17953Y13332D02*
Y23189D01*
X18012Y13273D02*
Y23189D01*
X18248Y13037D02*
Y23189D01*
X18307Y12978D02*
Y23189D01*
X18189Y13096D02*
Y23189D01*
X16757Y14528D02*
X22394D01*
X16816Y14468D02*
X22480D01*
X17348Y13937D02*
X22014D01*
X17407Y13878D02*
X21923D01*
X17466Y13819D02*
X21877D01*
X17525Y13760D02*
X21852D01*
X17584Y13701D02*
X21841D01*
X16521Y14764D02*
X22158D01*
X16580Y14705D02*
X22217D01*
X16403Y14882D02*
X22040D01*
X16462Y14823D02*
X22099D01*
X16639Y14646D02*
X22276D01*
X16698Y14587D02*
X22335D01*
X15374Y15911D02*
X20182Y11102D01*
X17008Y14277D02*
Y24695D01*
X17067Y14218D02*
Y24695D01*
X16890Y14395D02*
Y24695D01*
X16949Y14336D02*
Y24695D01*
X17185Y14100D02*
Y24695D01*
X17244Y14041D02*
Y24695D01*
X17126Y14159D02*
Y24695D01*
X16476Y14808D02*
Y24695D01*
X16535Y14749D02*
Y24695D01*
X16358Y14927D02*
Y24695D01*
X16417Y14868D02*
Y24695D01*
X16772Y14513D02*
Y24695D01*
X16831Y14454D02*
Y24695D01*
X16713Y14572D02*
Y24695D01*
X17657Y13627D02*
Y23189D01*
X17716Y13568D02*
Y23189D01*
X17539Y13745D02*
Y23194D01*
X17598Y13686D02*
Y23189D01*
X17835Y13450D02*
Y23189D01*
X17894Y13391D02*
Y23189D01*
X17776Y13509D02*
Y23189D01*
X16654Y14631D02*
Y24695D01*
X17303Y13982D02*
Y23347D01*
X16594Y14690D02*
Y24695D01*
X17421Y13864D02*
Y23236D01*
X17480Y13805D02*
Y23209D01*
X17362Y13923D02*
Y23279D01*
X22736Y12902D02*
Y13041D01*
X22795Y12987D02*
Y13041D01*
X22603Y12815D02*
X22700D01*
X22617Y12756D02*
X22686D01*
X22677Y12458D02*
Y13041D01*
X22618Y12752D02*
Y13041D01*
X22453D02*
X22851D01*
X22504Y12992D02*
X22799D01*
X22500Y12996D02*
Y13041D01*
X22549Y12933D02*
X22754D01*
X22581Y12874D02*
X22722D01*
X22559Y12916D02*
Y13041D01*
X22622Y12638D02*
X22681D01*
X22624Y12697D02*
X22680D01*
X22618Y12517D02*
Y12602D01*
X22736Y12402D02*
Y12452D01*
X22733Y12402D02*
X22768D01*
X22674Y12461D02*
X22732D01*
X22602Y12533D02*
X22733Y12402D01*
X22615Y12520D02*
X22706D01*
X22614Y12579D02*
X22689D01*
X22382Y12090D02*
Y12141D01*
X22349Y12106D02*
X22416D01*
X22323Y12117D02*
Y12200D01*
X21850Y13474D02*
Y13608D01*
X21624Y13041D02*
X21851D01*
X21791Y12983D02*
Y13041D01*
X21624Y12992D02*
X21799D01*
X21732Y12895D02*
Y13041D01*
X21624Y12205D02*
Y13041D01*
Y12933D02*
X21754D01*
X21624Y12874D02*
X21722D01*
X21624Y12815D02*
X21700D01*
X21624Y12756D02*
X21686D01*
X21624Y12638D02*
X21681D01*
X21624Y12579D02*
X21690D01*
X21624Y12697D02*
X21680D01*
X22264Y12136D02*
Y12218D01*
X22205Y12147D02*
Y12208D01*
X22087Y12145D02*
Y12209D01*
X22146Y12150D02*
Y12205D01*
X21968Y12113D02*
Y12242D01*
X22028Y12133D02*
Y12221D01*
X21909Y12083D02*
Y12272D01*
X21624Y12461D02*
X21732D01*
X21624Y12402D02*
X21768D01*
X21624Y12520D02*
X21706D01*
X21624Y12283D02*
X21890D01*
X21624Y12224D02*
X22017D01*
X21624Y12342D02*
X21818D01*
X22736Y11902D02*
Y11968D01*
X22644D02*
X22780D01*
X22618Y11752D02*
Y11970D01*
X22618Y11752D02*
X22685D01*
X22624Y11693D02*
X22679D01*
X22622Y11634D02*
X22681D01*
X22677Y11102D02*
Y11968D01*
X22551Y11929D02*
X22752D01*
X22583Y11870D02*
X22720D01*
X22605Y11811D02*
X22698D01*
X22613Y11575D02*
X22690D01*
X22913Y11102D02*
Y11269D01*
X22972Y11102D02*
Y11240D01*
X22795Y11102D02*
Y11367D01*
X22854Y11102D02*
Y11310D01*
X23091Y11102D02*
Y11209D01*
X23150Y11102D02*
Y11205D01*
X23031Y11102D02*
Y11220D01*
X22532Y11398D02*
X22771D01*
X22481Y11339D02*
X22822D01*
X22596Y11516D02*
X22708D01*
X22569Y11457D02*
X22734D01*
X22407Y11279D02*
X22896D01*
X22272Y11220D02*
X23031D01*
X22736Y11102D02*
Y11452D01*
X22295Y12227D02*
X22490Y12032D01*
X22507Y11988D02*
X22554D01*
X22441Y12051D02*
Y12082D01*
X22445Y12047D02*
X22475D01*
X22559Y11916D02*
Y11986D01*
X22618Y11102D02*
Y11602D01*
X22559Y11102D02*
Y11438D01*
X21791Y11983D02*
Y12372D01*
X21850Y12041D02*
Y12313D01*
X21732Y11895D02*
Y12460D01*
X21624Y11693D02*
X21679D01*
X21622Y11634D02*
X21681D01*
X21732Y11102D02*
Y11460D01*
X21673Y11102D02*
Y13041D01*
X22323Y11102D02*
Y11237D01*
X22264Y11102D02*
Y11218D01*
X22205Y11102D02*
Y11208D01*
X22146Y11102D02*
Y11205D01*
X22500Y11102D02*
Y11358D01*
X22441Y11102D02*
Y11304D01*
X22382Y11102D02*
Y11265D01*
X21850Y11102D02*
Y11313D01*
X21909Y11102D02*
Y11272D01*
X21791Y11102D02*
Y11372D01*
X22028Y11102D02*
Y11221D01*
X22087Y11102D02*
Y11209D01*
X21968Y11102D02*
Y11242D01*
X21319Y12119D02*
Y12205D01*
X20679D02*
X21624D01*
X20679D02*
Y12346D01*
X20635Y12283D02*
X20679D01*
X21437Y12054D02*
Y12205D01*
X21496Y12001D02*
Y12205D01*
X21378Y12092D02*
Y12205D01*
X17761Y13524D02*
X21890D01*
X20561Y13474D02*
X21934D01*
X17643Y13642D02*
X21843D01*
X17702Y13583D02*
X21859D01*
X20557Y12224D02*
X20679D01*
X21201Y12147D02*
Y12205D01*
X21260Y12137D02*
Y12205D01*
X21083Y12145D02*
Y12205D01*
X21142Y12149D02*
Y12205D01*
X21349Y12106D02*
X21954D01*
X21445Y12047D02*
X21858D01*
X21507Y11988D02*
X21796D01*
X21024Y12132D02*
Y12205D01*
X19119Y12165D02*
X22357D01*
X20965Y12111D02*
Y12205D01*
X19179Y12106D02*
X20954D01*
X20905Y12080D02*
Y12205D01*
X19238Y12047D02*
X20858D01*
X20846Y12038D02*
Y12205D01*
X20280Y13283D02*
X20408Y13411D01*
X20217Y12641D02*
Y13130D01*
X18293Y12992D02*
X20217D01*
X18234Y13051D02*
X20217D01*
X17820Y13465D02*
X20496D01*
X17879Y13405D02*
X20402D01*
X17938Y13346D02*
X20343D01*
X17997Y13287D02*
X20284D01*
X18057Y13228D02*
X20240D01*
X18116Y13169D02*
X20220D01*
X18175Y13110D02*
X20217D01*
X18706Y12579D02*
X20180D01*
X18883Y12402D02*
X20166D01*
X18765Y12520D02*
X20162D01*
X18824Y12461D02*
X20158D01*
X19001Y12283D02*
X20231D01*
X19060Y12224D02*
X20309D01*
X18942Y12342D02*
X20189D01*
X18411Y12874D02*
X20217D01*
X18470Y12815D02*
X20217D01*
X18352Y12933D02*
X20217D01*
X18529Y12756D02*
X20217D01*
X18588Y12697D02*
X20217D01*
X18647Y12638D02*
X20214D01*
X21583Y11870D02*
X21720D01*
X21605Y11811D02*
X21698D01*
X21614Y11773D02*
Y12205D01*
X21618Y11752D02*
X21685D01*
X21613Y11575D02*
X21690D01*
X21596Y11516D02*
X21708D01*
X21614Y11102D02*
Y11581D01*
X21551Y11929D02*
X21752D01*
X21532Y11398D02*
X21771D01*
X21555Y11923D02*
Y12205D01*
X21569Y11457D02*
X21734D01*
X21555Y11102D02*
Y11431D01*
X21496Y11102D02*
Y11354D01*
X21407Y11279D02*
X21896D01*
X21272Y11220D02*
X22031D01*
X21481Y11339D02*
X21822D01*
X21437Y11102D02*
Y11301D01*
X21378Y11102D02*
Y11262D01*
X21319Y11102D02*
Y11235D01*
X21260Y11102D02*
Y11217D01*
X21024Y11102D02*
Y11222D01*
X20064Y11220D02*
X21031D01*
X20905Y11102D02*
Y11274D01*
X20965Y11102D02*
Y11243D01*
X21201Y11102D02*
Y11207D01*
X21142Y11102D02*
Y11205D01*
X21083Y11102D02*
Y11210D01*
X20728Y11887D02*
Y12205D01*
X20787Y11978D02*
Y12205D01*
X20669Y11102D02*
Y12328D01*
X20610Y11102D02*
Y12259D01*
X20551Y11102D02*
Y12221D01*
X20492Y11102D02*
Y12201D01*
X20433Y11102D02*
Y12195D01*
X19297Y11988D02*
X20796D01*
X19356Y11929D02*
X20752D01*
X20197Y11102D02*
Y12329D01*
X19415Y11870D02*
X20720D01*
X20315Y11102D02*
Y12221D01*
X20374Y11102D02*
Y12201D01*
X20256Y11102D02*
Y12259D01*
X19946Y11339D02*
X20822D01*
X20005Y11279D02*
X20896D01*
X19828Y11457D02*
X20734D01*
X19887Y11398D02*
X20771D01*
X20787Y11102D02*
Y11376D01*
X20846Y11102D02*
Y11316D01*
X20728Y11102D02*
Y11467D01*
X19474Y11811D02*
X20698D01*
X19533Y11752D02*
X20685D01*
X19592Y11693D02*
X20679D01*
X19710Y11575D02*
X20690D01*
X19769Y11516D02*
X20708D01*
X19651Y11634D02*
X20681D01*
X32500Y24163D02*
X32628D01*
X38612Y21093D02*
Y21693D01*
Y21093D02*
X38839Y20866D01*
X32254Y23396D02*
X33396D01*
X32362Y23061D02*
X33740D01*
X30955Y22618D02*
X32500Y24163D01*
X31781Y22923D02*
X32254Y23396D01*
X30866Y22618D02*
X30955D01*
X24429Y22234D02*
X24478Y22283D01*
X25827D01*
X24419Y22244D02*
X24429Y22234D01*
X35827Y15463D02*
X36939D01*
X35945Y25098D02*
X36250D01*
X34892Y24045D02*
X35945Y25098D01*
X26663Y21033D02*
Y21112D01*
X26870Y21319D01*
X27254D01*
X32028Y22618D02*
Y22726D01*
X32362Y23061D01*
X31781Y22894D02*
Y22923D01*
X26683Y24281D02*
X27028Y23937D01*
X18898Y24281D02*
X26683D01*
X18770Y24154D02*
X18898Y24281D01*
X33976Y21880D02*
X33996Y21900D01*
X33976Y19104D02*
Y21880D01*
X36939Y15463D02*
X37011Y15391D01*
D39*
X34203Y12234D02*
Y13730D01*
Y12234D02*
X34911D01*
X33494D02*
X34203D01*
Y11457D02*
X34911D01*
X33494D02*
X34203D01*
X27362Y13248D02*
Y13681D01*
Y13248D02*
X27795D01*
X27362Y12815D02*
Y13248D01*
X27339Y11250D02*
X27772D01*
X26906D02*
X27339D01*
X23152Y12677D02*
X23585D01*
X22719D02*
X23152D01*
X24755Y13258D02*
X25654Y14156D01*
X20561Y13258D02*
X24755D01*
X38652Y19360D02*
X38750D01*
X39163Y19774D01*
X39281Y20738D02*
Y21457D01*
X39045Y21693D02*
X39281Y21457D01*
X38780Y23829D02*
X38799Y23848D01*
X37943Y23829D02*
X38780D01*
X38278Y20866D02*
Y21949D01*
X37008Y25394D02*
X37018Y25404D01*
X35217Y25394D02*
X37008D01*
X34065Y24242D02*
X35217Y25394D01*
X34065Y22913D02*
Y24242D01*
X32175Y22323D02*
X32559Y22707D01*
X33858D01*
X34065Y22913D01*
X35824Y23543D02*
X36326Y23041D01*
X36217Y23484D02*
X37018D01*
X35597Y24104D02*
X36217Y23484D01*
X35620Y23543D02*
X35824D01*
X35571Y24104D02*
X35597D01*
X31230Y22323D02*
X32175D01*
X26074Y22920D02*
Y23013D01*
X25713Y22559D02*
X26074Y22920D01*
X23691Y22559D02*
X25713D01*
X23031Y21900D02*
X23691Y22559D01*
X24163Y23553D02*
X24596Y23120D01*
X19852Y23553D02*
X24163D01*
X30492Y10965D02*
X30984Y11457D01*
X29026Y10965D02*
X30492D01*
X28179Y11811D02*
X29026Y10965D01*
X27431Y11811D02*
X28179D01*
X26870Y12372D02*
X27431Y11811D01*
X26870Y12372D02*
Y13465D01*
X26598Y13736D02*
X26870Y13465D01*
X26598Y13736D02*
Y20043D01*
X27874Y21319D01*
Y21339D01*
X38278Y20866D02*
X38445Y20699D01*
X35561Y23602D02*
X35620Y23543D01*
X36326Y23041D02*
X37146D01*
X25276Y20472D02*
X25654Y20094D01*
X25276Y20443D02*
Y20472D01*
X26126Y13961D02*
Y21549D01*
X26362Y13248D02*
Y21254D01*
X25654Y14156D02*
Y20094D01*
X20433Y13130D02*
X20561Y13258D01*
X20433Y12470D02*
Y13130D01*
X22644Y12185D02*
X24823D01*
X22152Y12677D02*
X22644Y12185D01*
X24823D02*
X25634Y12996D01*
X26362Y21254D02*
X26516Y21407D01*
X26126Y21549D02*
X26407Y21831D01*
X25758Y20512D02*
X25890Y20380D01*
X25870Y13705D02*
X26126Y13961D01*
X25870Y12781D02*
Y13705D01*
X25890Y14058D02*
Y20380D01*
X25634Y13803D02*
X25890Y14058D01*
X25634Y12996D02*
Y13803D01*
X25870Y12781D02*
X26339Y12313D01*
Y11250D02*
Y12313D01*
X19577Y23278D02*
X19852Y23553D01*
X19577Y22717D02*
Y23278D01*
D40*
X22116Y13671D02*
Y13681D01*
Y13671D02*
X22254Y13533D01*
X24557D01*
X24892Y13868D01*
X29439D02*
X29596Y14026D01*
X29830D01*
X30450Y14646D01*
X29852Y13602D02*
X30581Y14331D01*
X30450Y14646D02*
X33268D01*
X33839Y15217D01*
X34016D01*
X35581Y15925D02*
X35591Y15915D01*
X36102D01*
X36427Y16240D01*
Y16447D01*
X33465Y14331D02*
X33888Y14754D01*
X33898Y24557D02*
X34075Y24734D01*
Y25049D01*
X36073Y25709D02*
X36102Y25738D01*
X37185D01*
X37539Y25384D01*
X38297D01*
X34518Y23305D02*
Y24173D01*
Y23305D02*
X34653Y23169D01*
X34518Y24173D02*
X35305Y24961D01*
X35325D01*
X37749Y15056D02*
X38159Y14646D01*
X35613Y15056D02*
X37749D01*
X35600Y15069D02*
X35613Y15056D01*
X30581Y14331D02*
X33465D01*
X41132Y22726D02*
X41535D01*
X41909Y23100D01*
X24537Y10846D02*
X24774Y11083D01*
X20076Y10846D02*
X24537D01*
X15118Y15805D02*
X20076Y10846D01*
X15118Y15805D02*
Y19262D01*
X22579Y14705D02*
X22766D01*
X20207Y17077D02*
X22579Y14705D01*
X20207Y17077D02*
Y17156D01*
X28435Y16053D02*
X28445Y16043D01*
X27352Y16053D02*
X28435D01*
X28986Y15482D02*
Y15522D01*
X28593Y15089D02*
X28986Y15482D01*
X27648Y15089D02*
X28593D01*
D46*
X26362Y13248D02*
D03*
X27339Y11250D02*
D03*
X29478Y11697D02*
D03*
X23152Y11677D02*
D03*
Y12677D02*
D03*
X22152Y11677D02*
D03*
X21152D02*
D03*
X22152Y12677D02*
D03*
D47*
X27362Y13248D02*
D03*
X26339Y11250D02*
D03*
X21152Y12677D02*
D03*
D48*
X29478Y12697D02*
D03*
D49*
X30984Y11457D02*
D03*
X32579D02*
D03*
X34203D02*
D03*
X35807D02*
D03*
X37402D02*
D03*
D50*
X13602Y25576D02*
D03*
D51*
X41575Y27943D02*
D03*
D52*
X44900Y38100D02*
D03*
D53*
X43583Y24734D02*
D03*
X34606Y21959D02*
D03*
X37854Y23061D02*
D03*
X35531Y19892D02*
D03*
X36654Y21004D02*
D03*
X22116Y13681D02*
D03*
X24892Y13868D02*
D03*
X29439D02*
D03*
X29852Y13602D02*
D03*
X34016Y15217D02*
D03*
X35581Y15925D02*
D03*
X36427Y16447D02*
D03*
X33888Y14754D02*
D03*
X27579Y14429D02*
D03*
X24921Y15443D02*
D03*
X34075Y25049D02*
D03*
X32628Y24163D02*
D03*
X36063Y24439D02*
D03*
X19380Y12539D02*
D03*
X24134Y14656D02*
D03*
X24232Y16043D02*
D03*
X23563Y14764D02*
D03*
X32382Y18465D02*
D03*
X31417Y18839D02*
D03*
X30807Y18376D02*
D03*
X30443Y21063D02*
D03*
X30679Y20699D02*
D03*
X31634Y20709D02*
D03*
X32087D02*
D03*
X32530Y20738D02*
D03*
X27884Y22156D02*
D03*
X28465Y21670D02*
D03*
X29222Y21683D02*
D03*
X29104Y22628D02*
D03*
X33337Y23858D02*
D03*
X37392Y24528D02*
D03*
X34510Y19016D02*
D03*
X35049Y20807D02*
D03*
X36535Y19498D02*
D03*
X35748Y21467D02*
D03*
X38553Y20207D02*
D03*
X41545Y21880D02*
D03*
X40325Y20768D02*
D03*
X39862Y22392D02*
D03*
X39449Y23061D02*
D03*
X42490Y23474D02*
D03*
X43228Y24400D02*
D03*
X42254Y24587D02*
D03*
X41102Y24518D02*
D03*
X39931Y24341D02*
D03*
X39419Y24665D02*
D03*
X36073Y25709D02*
D03*
X38297Y25384D02*
D03*
X15138Y25000D02*
D03*
X13848Y24035D02*
D03*
X13730Y23406D02*
D03*
X13947Y20472D02*
D03*
X13907Y19764D02*
D03*
X15630Y20000D02*
D03*
X16821Y20030D02*
D03*
X16240Y20049D02*
D03*
X19557Y21713D02*
D03*
X18740Y21201D02*
D03*
X20443Y23159D02*
D03*
X18218Y24104D02*
D03*
X17726Y24350D02*
D03*
X20522Y21280D02*
D03*
X19852Y21132D02*
D03*
X21220Y21014D02*
D03*
X25246Y20925D02*
D03*
X32992Y15935D02*
D03*
X33809Y16654D02*
D03*
X34469Y15965D02*
D03*
X34537Y16939D02*
D03*
X33829Y17303D02*
D03*
X37953Y15906D02*
D03*
X37293Y16132D02*
D03*
X38474Y18642D02*
D03*
X38100Y18898D02*
D03*
X37598Y19026D02*
D03*
X38652Y19360D02*
D03*
X39163Y19774D02*
D03*
X39281Y20738D02*
D03*
X39045Y21693D02*
D03*
X38799Y23848D02*
D03*
X37943Y23829D02*
D03*
X38278Y21949D02*
D03*
X38612Y21693D02*
D03*
X38839Y20866D02*
D03*
X37018Y25404D02*
D03*
X33396Y23396D02*
D03*
X33740Y23061D02*
D03*
X35325Y24961D02*
D03*
X31230Y22323D02*
D03*
X30866Y22618D02*
D03*
X35354Y18091D02*
D03*
X24429Y22234D02*
D03*
X35600Y15069D02*
D03*
X35827Y15463D02*
D03*
X38159Y14646D02*
D03*
X27874Y21339D02*
D03*
X34892Y24045D02*
D03*
X36250Y25098D02*
D03*
X37018Y23484D02*
D03*
X35571Y24104D02*
D03*
X35561Y23602D02*
D03*
X35669Y23169D02*
D03*
X37146Y23041D02*
D03*
X25276Y20443D02*
D03*
X26663Y21033D02*
D03*
X20433Y12470D02*
D03*
X27254Y21319D02*
D03*
X25758Y20512D02*
D03*
X32028Y22618D02*
D03*
X31781Y22894D02*
D03*
X26516Y21407D02*
D03*
X25827Y22283D02*
D03*
X26407Y21831D02*
D03*
X24596Y23120D02*
D03*
X33366Y19606D02*
D03*
X18770Y24154D02*
D03*
X27028Y23937D02*
D03*
X33996Y21900D02*
D03*
X33976Y19104D02*
D03*
X38445Y20699D02*
D03*
X19577Y22717D02*
D03*
X26074Y23013D02*
D03*
X23031Y21900D02*
D03*
X25719Y22982D02*
D03*
X23051Y22402D02*
D03*
X41132Y22726D02*
D03*
X41909Y23100D02*
D03*
X37011Y15391D02*
D03*
X24774Y11083D02*
D03*
X15118Y19262D02*
D03*
X20207Y17156D02*
D03*
X22766Y14705D02*
D03*
X21250Y17923D02*
D03*
X20758D02*
D03*
X21250Y18297D02*
D03*
X20758D02*
D03*
X28445Y16043D02*
D03*
X27352Y16053D02*
D03*
X28986Y15522D02*
D03*
X27648Y15089D02*
D03*
D54*
X17598Y23543D02*
D03*
D55*
X34203Y12234D02*
D03*
X32579D02*
D03*
X35807D02*
D03*
X37402D02*
D03*
X30984D02*
D03*
D56*
X30610Y21890D02*
X33374D01*
X33366Y18868D02*
Y21882D01*
X33374Y21890D02*
X33817Y22333D01*
X33366Y21882D02*
X33374Y21890D01*
X34653Y22626D02*
Y23169D01*
X34360Y22333D02*
X34653Y22626D01*
X33817Y22333D02*
X34360D01*
X30276Y22224D02*
X30610Y21890D01*
X34653Y23169D02*
X35669D01*
X30276Y22224D02*
Y22884D01*
X29724Y23435D02*
X30276Y22884D01*
X33366Y18868D02*
X33976Y18258D01*
X26575Y23435D02*
X29724D01*
X26083Y23927D02*
X26575Y23435D01*
X19616Y23927D02*
X26083D01*
X19232Y23543D02*
X19616Y23927D01*
X17598Y23543D02*
X19232D01*
X35197Y18258D02*
X35335Y18120D01*
X33976Y18258D02*
X35197D01*
D57*
X25555Y22819D02*
X25719Y22982D01*
X23468Y22819D02*
X25555D01*
X23051Y22402D02*
X23468Y22819D01*
M02*
