G04 Layer_Color=8421504*
%FSLAX24Y24*%
%MOIN*%
G70*
G01*
G75*
%ADD11O,0.0281X0.0591*%
G04:AMPARAMS|DCode=12|XSize=110.2mil|YSize=59.1mil|CornerRadius=14.8mil|HoleSize=0mil|Usage=FLASHONLY|Rotation=0.000|XOffset=0mil|YOffset=0mil|HoleType=Round|Shape=RoundedRectangle|*
%AMROUNDEDRECTD12*
21,1,0.1102,0.0295,0,0,0.0*
21,1,0.0807,0.0591,0,0,0.0*
1,1,0.0295,0.0404,-0.0148*
1,1,0.0295,-0.0404,-0.0148*
1,1,0.0295,-0.0404,0.0148*
1,1,0.0295,0.0404,0.0148*
%
%ADD12ROUNDEDRECTD12*%
%ADD16O,0.0295X0.0850*%
G04:AMPARAMS|DCode=20|XSize=90.6mil|YSize=82.7mil|CornerRadius=12.4mil|HoleSize=0mil|Usage=FLASHONLY|Rotation=90.000|XOffset=0mil|YOffset=0mil|HoleType=Round|Shape=RoundedRectangle|*
%AMROUNDEDRECTD20*
21,1,0.0906,0.0579,0,0,90.0*
21,1,0.0657,0.0827,0,0,90.0*
1,1,0.0248,0.0289,0.0329*
1,1,0.0248,0.0289,-0.0329*
1,1,0.0248,-0.0289,-0.0329*
1,1,0.0248,-0.0289,0.0329*
%
%ADD20ROUNDEDRECTD20*%
%ADD21O,0.0591X0.0118*%
%ADD22O,0.0118X0.0591*%
G04:AMPARAMS|DCode=23|XSize=86.6mil|YSize=68.9mil|CornerRadius=17.2mil|HoleSize=0mil|Usage=FLASHONLY|Rotation=0.000|XOffset=0mil|YOffset=0mil|HoleType=Round|Shape=RoundedRectangle|*
%AMROUNDEDRECTD23*
21,1,0.0866,0.0344,0,0,0.0*
21,1,0.0522,0.0689,0,0,0.0*
1,1,0.0344,0.0261,-0.0172*
1,1,0.0344,-0.0261,-0.0172*
1,1,0.0344,-0.0261,0.0172*
1,1,0.0344,0.0261,0.0172*
%
%ADD23ROUNDEDRECTD23*%
%ADD26O,0.0800X0.0295*%
%ADD28O,0.0591X0.0281*%
G04:AMPARAMS|DCode=30|XSize=82.7mil|YSize=78.7mil|CornerRadius=19.7mil|HoleSize=0mil|Usage=FLASHONLY|Rotation=0.000|XOffset=0mil|YOffset=0mil|HoleType=Round|Shape=RoundedRectangle|*
%AMROUNDEDRECTD30*
21,1,0.0827,0.0394,0,0,0.0*
21,1,0.0433,0.0787,0,0,0.0*
1,1,0.0394,0.0217,-0.0197*
1,1,0.0394,-0.0217,-0.0197*
1,1,0.0394,-0.0217,0.0197*
1,1,0.0394,0.0217,0.0197*
%
%ADD30ROUNDEDRECTD30*%
%ADD32O,0.0846X0.0394*%
G04:AMPARAMS|DCode=33|XSize=279.5mil|YSize=218.5mil|CornerRadius=10.9mil|HoleSize=0mil|Usage=FLASHONLY|Rotation=180.000|XOffset=0mil|YOffset=0mil|HoleType=Round|Shape=RoundedRectangle|*
%AMROUNDEDRECTD33*
21,1,0.2795,0.1967,0,0,180.0*
21,1,0.2577,0.2185,0,0,180.0*
1,1,0.0219,-0.1288,0.0983*
1,1,0.0219,0.1288,0.0983*
1,1,0.0219,0.1288,-0.0983*
1,1,0.0219,-0.1288,-0.0983*
%
%ADD33ROUNDEDRECTD33*%
G04:AMPARAMS|DCode=34|XSize=194.9mil|YSize=70.9mil|CornerRadius=17.7mil|HoleSize=0mil|Usage=FLASHONLY|Rotation=0.000|XOffset=0mil|YOffset=0mil|HoleType=Round|Shape=RoundedRectangle|*
%AMROUNDEDRECTD34*
21,1,0.1949,0.0354,0,0,0.0*
21,1,0.1594,0.0709,0,0,0.0*
1,1,0.0354,0.0797,-0.0177*
1,1,0.0354,-0.0797,-0.0177*
1,1,0.0354,-0.0797,0.0177*
1,1,0.0354,0.0797,0.0177*
%
%ADD34ROUNDEDRECTD34*%
%ADD35R,0.1693X0.1693*%
G04:AMPARAMS|DCode=36|XSize=70.9mil|YSize=39.4mil|CornerRadius=9.8mil|HoleSize=0mil|Usage=FLASHONLY|Rotation=0.000|XOffset=0mil|YOffset=0mil|HoleType=Round|Shape=RoundedRectangle|*
%AMROUNDEDRECTD36*
21,1,0.0709,0.0197,0,0,0.0*
21,1,0.0512,0.0394,0,0,0.0*
1,1,0.0197,0.0256,-0.0098*
1,1,0.0197,-0.0256,-0.0098*
1,1,0.0197,-0.0256,0.0098*
1,1,0.0197,0.0256,0.0098*
%
%ADD36ROUNDEDRECTD36*%
G36*
X35659Y23986D02*
X35482Y24065D01*
X35305Y23986D01*
Y24262D01*
X35659D01*
Y23986D01*
D02*
G37*
G36*
Y23376D02*
X35305D01*
Y23652D01*
X35482Y23573D01*
X35659Y23652D01*
Y23376D01*
D02*
G37*
G36*
X33809Y24419D02*
X33632Y24537D01*
X33455Y24419D01*
Y24813D01*
X33809D01*
Y24419D01*
D02*
G37*
G36*
Y23750D02*
X33455D01*
Y24144D01*
X33632Y24026D01*
X33809Y24144D01*
Y23750D01*
D02*
G37*
G36*
X37175Y23376D02*
X36998Y23494D01*
X36821Y23376D01*
Y23770D01*
X37175D01*
Y23376D01*
D02*
G37*
G36*
X35542Y22933D02*
X35620Y22756D01*
X35345D01*
Y23110D01*
X35620D01*
X35542Y22933D01*
D02*
G37*
G36*
X40576Y23597D02*
X40640Y23557D01*
X40685Y23496D01*
X40704Y23423D01*
X40695Y23348D01*
X40655Y23218D01*
X40594Y23068D01*
X40511Y22928D01*
X40407Y22803D01*
X40403Y22798D01*
X40237Y22649D01*
X40053Y22524D01*
X39854Y22423D01*
X39643Y22350D01*
X39425Y22306D01*
X39203Y22291D01*
X38980Y22306D01*
X38762Y22350D01*
X38552Y22423D01*
X38353Y22524D01*
X38169Y22649D01*
X38003Y22798D01*
X38001Y22801D01*
X37895Y22927D01*
X37811Y23069D01*
X37750Y23221D01*
X37708Y23355D01*
X37699Y23428D01*
X37718Y23499D01*
X37762Y23559D01*
X37824Y23598D01*
X37896Y23611D01*
X40502D01*
X40576Y23597D01*
D02*
G37*
G36*
X37175Y22707D02*
X36821D01*
Y23100D01*
X36998Y22982D01*
X37175Y23100D01*
Y22707D01*
D02*
G37*
G36*
X36230Y22756D02*
X35955D01*
X36033Y22933D01*
X35955Y23110D01*
X36230D01*
Y22756D01*
D02*
G37*
G36*
X31575Y26821D02*
X31398Y26900D01*
X31220Y26821D01*
Y27096D01*
X31575D01*
Y26821D01*
D02*
G37*
G36*
X29685D02*
X29508Y26939D01*
X29331Y26821D01*
Y27215D01*
X29685D01*
Y26821D01*
D02*
G37*
G36*
X33150Y26860D02*
X32756D01*
X32874Y27037D01*
X32756Y27215D01*
X33150D01*
Y26860D01*
D02*
G37*
G36*
X32362Y27037D02*
X32480Y26860D01*
X32087D01*
Y27215D01*
X32480D01*
X32362Y27037D01*
D02*
G37*
G36*
X29685Y26152D02*
X29331D01*
Y26545D01*
X29508Y26427D01*
X29685Y26545D01*
Y26152D01*
D02*
G37*
G36*
X39425Y25961D02*
X39643Y25917D01*
X39854Y25844D01*
X40053Y25744D01*
X40237Y25619D01*
X40403Y25469D01*
X40405Y25467D01*
X40510Y25341D01*
X40594Y25199D01*
X40656Y25046D01*
X40698Y24912D01*
X40706Y24839D01*
X40687Y24768D01*
X40644Y24709D01*
X40582Y24670D01*
X40510Y24656D01*
X37904D01*
X37830Y24670D01*
X37766Y24711D01*
X37721Y24772D01*
X37702Y24845D01*
X37710Y24920D01*
X37751Y25049D01*
X37811Y25200D01*
X37895Y25340D01*
X37998Y25465D01*
X38003Y25469D01*
X38169Y25619D01*
X38353Y25744D01*
X38552Y25844D01*
X38762Y25917D01*
X38980Y25961D01*
X39203Y25976D01*
X39425Y25961D01*
D02*
G37*
G36*
X37175Y24222D02*
X36821D01*
Y24616D01*
X36998Y24498D01*
X37175Y24616D01*
Y24222D01*
D02*
G37*
G36*
X31575Y26211D02*
X31220D01*
Y26486D01*
X31398Y26408D01*
X31575Y26486D01*
Y26211D01*
D02*
G37*
G36*
X37175Y24892D02*
X36998Y25010D01*
X36821Y24892D01*
Y25285D01*
X37175D01*
Y24892D01*
D02*
G37*
G36*
X40748Y16732D02*
X40394Y16890D01*
X40039Y16732D01*
Y17283D01*
X40748D01*
Y16732D01*
D02*
G37*
G36*
X45069Y16348D02*
X44793D01*
X44872Y16526D01*
X44793Y16703D01*
X45069D01*
Y16348D01*
D02*
G37*
G36*
X35423Y17884D02*
X35541Y17539D01*
X35128D01*
Y18228D01*
X35541D01*
X35423Y17884D01*
D02*
G37*
G36*
X37569Y17077D02*
X37224Y17195D01*
X36880Y17077D01*
Y17490D01*
X37569D01*
Y17077D01*
D02*
G37*
G36*
X44380Y16526D02*
X44459Y16348D01*
X44183D01*
Y16703D01*
X44459D01*
X44380Y16526D01*
D02*
G37*
G36*
X44832Y15659D02*
X44557D01*
X44636Y15837D01*
X44557Y16014D01*
X44832D01*
Y15659D01*
D02*
G37*
G36*
X44144Y15837D02*
X44222Y15659D01*
X43947D01*
Y16014D01*
X44222D01*
X44144Y15837D01*
D02*
G37*
G36*
X37569Y15935D02*
X36880D01*
Y16348D01*
X37224Y16230D01*
X37569Y16348D01*
Y15935D01*
D02*
G37*
G36*
X40748Y15591D02*
X40039D01*
Y16142D01*
X40394Y15984D01*
X40748Y16142D01*
Y15591D01*
D02*
G37*
G36*
X39488Y21654D02*
X39213D01*
X39291Y21831D01*
X39213Y22008D01*
X39488D01*
Y21654D01*
D02*
G37*
G36*
X38799Y21831D02*
X38878Y21654D01*
X38603D01*
Y22008D01*
X38878D01*
X38799Y21831D01*
D02*
G37*
G36*
X34587Y22047D02*
X34173D01*
X34301Y22323D01*
X34173Y22598D01*
X34587D01*
Y22047D01*
D02*
G37*
G36*
X33711Y22323D02*
X33839Y22047D01*
X33425D01*
Y22598D01*
X33839D01*
X33711Y22323D01*
D02*
G37*
G36*
X34587Y21280D02*
X34173D01*
X34301Y21555D01*
X34173Y21831D01*
X34587D01*
Y21280D01*
D02*
G37*
G36*
X35039Y18474D02*
X34350D01*
Y18888D01*
X34695Y18770D01*
X35039Y18888D01*
Y18474D01*
D02*
G37*
G36*
X36683Y17539D02*
X36270D01*
X36388Y17884D01*
X36270Y18228D01*
X36683D01*
Y17539D01*
D02*
G37*
G36*
X33711Y21555D02*
X33839Y21280D01*
X33425D01*
Y21831D01*
X33839D01*
X33711Y21555D01*
D02*
G37*
G36*
X35039Y19616D02*
X34695Y19734D01*
X34350Y19616D01*
Y20030D01*
X35039D01*
Y19616D01*
D02*
G37*
G36*
X42825Y34498D02*
X42470D01*
Y34892D01*
X42648Y34774D01*
X42825Y34892D01*
Y34498D01*
D02*
G37*
G36*
X41161Y34587D02*
X40768D01*
X40886Y34764D01*
X40768Y34941D01*
X41161D01*
Y34587D01*
D02*
G37*
G36*
X32224Y36919D02*
X32303Y36742D01*
X32028D01*
Y37096D01*
X32303D01*
X32224Y36919D01*
D02*
G37*
G36*
X42825Y35167D02*
X42648Y35285D01*
X42470Y35167D01*
Y35561D01*
X42825D01*
Y35167D01*
D02*
G37*
G36*
X40374Y34764D02*
X40492Y34587D01*
X40098D01*
Y34941D01*
X40492D01*
X40374Y34764D01*
D02*
G37*
G36*
X34094Y32451D02*
X33701D01*
X33819Y32628D01*
X33701Y32805D01*
X34094D01*
Y32451D01*
D02*
G37*
G36*
X33307Y32628D02*
X33425Y32451D01*
X33031D01*
Y32805D01*
X33425D01*
X33307Y32628D01*
D02*
G37*
G36*
X35030Y34360D02*
X34636D01*
X34754Y34537D01*
X34636Y34715D01*
X35030D01*
Y34360D01*
D02*
G37*
G36*
X34242Y34537D02*
X34360Y34360D01*
X33967D01*
Y34715D01*
X34360D01*
X34242Y34537D01*
D02*
G37*
G36*
X31654Y39705D02*
X31368Y39833D01*
X31083Y39705D01*
Y40157D01*
X31654D01*
Y39705D01*
D02*
G37*
G36*
X32874Y39183D02*
X32520D01*
Y39459D01*
X32697Y39380D01*
X32874Y39459D01*
Y39183D01*
D02*
G37*
G36*
Y39793D02*
X32697Y39872D01*
X32520Y39793D01*
Y40069D01*
X32874D01*
Y39793D01*
D02*
G37*
G36*
X32254Y39734D02*
X32077Y39852D01*
X31900Y39734D01*
Y40128D01*
X32254D01*
Y39734D01*
D02*
G37*
G36*
Y39065D02*
X31900D01*
Y39459D01*
X32077Y39341D01*
X32254Y39459D01*
Y39065D01*
D02*
G37*
G36*
X41486Y38691D02*
X41565Y38514D01*
X41289D01*
Y38868D01*
X41565D01*
X41486Y38691D01*
D02*
G37*
G36*
X32913Y36742D02*
X32638D01*
X32716Y36919D01*
X32638Y37096D01*
X32913D01*
Y36742D01*
D02*
G37*
G36*
X31654Y38996D02*
X31083D01*
Y39449D01*
X31368Y39321D01*
X31654Y39449D01*
Y38996D01*
D02*
G37*
G36*
X42175Y38514D02*
X41899D01*
X41978Y38691D01*
X41899Y38868D01*
X42175D01*
Y38514D01*
D02*
G37*
G36*
X37136Y28140D02*
X36850Y28268D01*
X36565Y28140D01*
Y28593D01*
X37136D01*
Y28140D01*
D02*
G37*
G36*
Y27431D02*
X36565D01*
Y27884D01*
X36850Y27756D01*
X37136Y27884D01*
Y27431D01*
D02*
G37*
G36*
X33533Y28789D02*
X33179D01*
Y29065D01*
X33356Y28986D01*
X33533Y29065D01*
Y28789D01*
D02*
G37*
G36*
X37746Y28140D02*
X37569Y28258D01*
X37392Y28140D01*
Y28533D01*
X37746D01*
Y28140D01*
D02*
G37*
G36*
Y27470D02*
X37392D01*
Y27864D01*
X37569Y27746D01*
X37746Y27864D01*
Y27470D01*
D02*
G37*
G36*
X39341Y26870D02*
X38947D01*
X39065Y27047D01*
X38947Y27224D01*
X39341D01*
Y26870D01*
D02*
G37*
G36*
X38553Y27047D02*
X38671Y26870D01*
X38278D01*
Y27224D01*
X38671D01*
X38553Y27047D01*
D02*
G37*
G36*
X40925Y26870D02*
X40532D01*
X40650Y27047D01*
X40532Y27224D01*
X40925D01*
Y26870D01*
D02*
G37*
G36*
X40138Y27047D02*
X40256Y26870D01*
X39862D01*
Y27224D01*
X40256D01*
X40138Y27047D01*
D02*
G37*
G36*
X41132Y30541D02*
X40955Y30659D01*
X40778Y30541D01*
Y30935D01*
X41132D01*
Y30541D01*
D02*
G37*
G36*
X34094Y30482D02*
X33701D01*
X33819Y30659D01*
X33701Y30837D01*
X34094D01*
Y30482D01*
D02*
G37*
G36*
X42293Y31191D02*
X42116Y31309D01*
X41939Y31191D01*
Y31585D01*
X42293D01*
Y31191D01*
D02*
G37*
G36*
Y30522D02*
X41939D01*
Y30915D01*
X42116Y30797D01*
X42293Y30915D01*
Y30522D01*
D02*
G37*
G36*
X33307Y30659D02*
X33425Y30482D01*
X33031D01*
Y30837D01*
X33425D01*
X33307Y30659D01*
D02*
G37*
G36*
X30433Y29990D02*
X30512Y29813D01*
X30236D01*
Y30167D01*
X30512D01*
X30433Y29990D01*
D02*
G37*
G36*
X33533Y29399D02*
X33356Y29478D01*
X33179Y29399D01*
Y29675D01*
X33533D01*
Y29399D01*
D02*
G37*
G36*
X41132Y29872D02*
X40778D01*
Y30266D01*
X40955Y30148D01*
X41132Y30266D01*
Y29872D01*
D02*
G37*
G36*
X31122Y29813D02*
X30846D01*
X30925Y29990D01*
X30846Y30167D01*
X31122D01*
Y29813D01*
D02*
G37*
D11*
X45472Y28863D02*
D03*
X44672D02*
D03*
X45072Y27953D02*
D03*
X36467Y16796D02*
D03*
X35667D02*
D03*
X36067Y15886D02*
D03*
D12*
X43661Y29242D02*
D03*
Y27982D02*
D03*
X42303Y29252D02*
D03*
Y27992D02*
D03*
D16*
X44955Y33583D02*
D03*
X43955D02*
D03*
X43455D02*
D03*
X44955Y36533D02*
D03*
X43955D02*
D03*
X43455D02*
D03*
X44455Y33583D02*
D03*
Y36533D02*
D03*
D20*
X38730Y28110D02*
D03*
X40305D02*
D03*
D21*
X34783Y30069D02*
D03*
Y32825D02*
D03*
Y33022D02*
D03*
X40059D02*
D03*
Y32825D02*
D03*
Y30069D02*
D03*
X34783Y33219D02*
D03*
Y33415D02*
D03*
Y33612D02*
D03*
Y33809D02*
D03*
X40059D02*
D03*
Y33612D02*
D03*
Y33415D02*
D03*
Y33219D02*
D03*
X34783Y30266D02*
D03*
Y30463D02*
D03*
Y30659D02*
D03*
Y30856D02*
D03*
Y31053D02*
D03*
Y31250D02*
D03*
Y31447D02*
D03*
Y31644D02*
D03*
Y31841D02*
D03*
Y32037D02*
D03*
Y32234D02*
D03*
Y32431D02*
D03*
Y32628D02*
D03*
X40059D02*
D03*
Y32431D02*
D03*
Y32234D02*
D03*
Y32037D02*
D03*
Y31841D02*
D03*
Y31644D02*
D03*
Y31447D02*
D03*
Y31250D02*
D03*
Y31053D02*
D03*
Y30856D02*
D03*
Y30659D02*
D03*
Y30463D02*
D03*
Y30266D02*
D03*
D22*
X37323Y34577D02*
D03*
X37520D02*
D03*
Y29301D02*
D03*
X37323D02*
D03*
X35551Y34577D02*
D03*
X35748D02*
D03*
X35945D02*
D03*
X36142D02*
D03*
X36339D02*
D03*
X36535D02*
D03*
X36732D02*
D03*
X36929D02*
D03*
X37126D02*
D03*
X37717D02*
D03*
X37913D02*
D03*
X38110D02*
D03*
X38307D02*
D03*
X38504D02*
D03*
X38701D02*
D03*
X38898D02*
D03*
X39094D02*
D03*
X39291D02*
D03*
X37126Y29301D02*
D03*
X36929D02*
D03*
X36732D02*
D03*
X36535D02*
D03*
X36339D02*
D03*
X36142D02*
D03*
X35945D02*
D03*
X35748D02*
D03*
X35551D02*
D03*
X39291D02*
D03*
X39094D02*
D03*
X38898D02*
D03*
X38701D02*
D03*
X38504D02*
D03*
X38307D02*
D03*
X38110D02*
D03*
X37913D02*
D03*
X37717D02*
D03*
D23*
X38927Y19213D02*
D03*
X37313D02*
D03*
X44222Y17835D02*
D03*
X42608D02*
D03*
D26*
X35723Y21453D02*
D03*
X37923D02*
D03*
X35723Y21953D02*
D03*
X37923D02*
D03*
X35723Y20453D02*
D03*
Y20953D02*
D03*
X37923D02*
D03*
Y20453D02*
D03*
X45133Y30791D02*
D03*
X42933D02*
D03*
X45133Y30291D02*
D03*
X42933D02*
D03*
X45133Y31791D02*
D03*
Y31291D02*
D03*
X42933D02*
D03*
Y31791D02*
D03*
D28*
X35527Y19439D02*
D03*
Y18639D02*
D03*
X36437Y19039D02*
D03*
X34080Y17008D02*
D03*
Y16208D02*
D03*
X34990Y16608D02*
D03*
D30*
X38524Y16132D02*
D03*
Y17943D02*
D03*
D32*
X33445Y20474D02*
D03*
Y18679D02*
D03*
D33*
X30886Y19577D02*
D03*
D34*
X40492Y17825D02*
D03*
Y19557D02*
D03*
D35*
X37552Y37890D02*
D03*
D36*
X33536Y37516D02*
D03*
Y38107D02*
D03*
Y38697D02*
D03*
X33526Y39288D02*
D03*
X33536Y39878D02*
D03*
Y40469D02*
D03*
Y36926D02*
D03*
Y36335D02*
D03*
Y35744D02*
D03*
X40622Y40469D02*
D03*
Y39878D02*
D03*
Y39288D02*
D03*
Y38697D02*
D03*
Y38107D02*
D03*
Y37516D02*
D03*
Y36926D02*
D03*
Y36335D02*
D03*
Y35744D02*
D03*
M02*
