M48
;Layer_Color=9474304
;FILE_FORMAT=2:4
INCH,LZ
;TYPE=PLATED
T1F00S00C0.0118
T2F00S00C0.0197
T3F00S00C0.0380
T4F00S00C0.0394
T5F00S00C0.0472
T6F00S00C0.0591
%
T01
X002697Y001821
X004665Y002549
X005108Y002156
X005719Y002136
X006358Y002087
X006447Y002884
X005935Y002913
X00748Y002785
X007894Y00248
X008376Y002421
X008829Y002874
X011112Y002677
X011594Y002766
X012008Y002992
X013406Y003179
X013307Y002549
X013002Y002283
X012687Y001919
X012677Y001378
X012106Y000945
X011142Y001388
X010935Y000344
X008524Y000295
X007963Y000591
X00748Y000994
X006929Y001634
X018218Y009724
X018612Y009675
X017913Y010128
X020089Y011142
X020492Y010827
X020876Y010433
X021112Y011152
X021486Y011132
X022146Y010689
X022362Y012323
X022697Y012667
X024902Y012589
X02437Y014656
X024951Y015177
X02311Y016703
X02313Y017116
X021211Y01751
X021073Y018612
X021398Y018563
X02128Y018858
X020579Y018327
X020591Y016467
X020945Y016112
X020886Y015256
X020364Y01563
X019547Y015748
X019203Y016476
X019587Y01687
X018406Y017461
X017766Y015275
X018061Y014183
X018189Y013278
X01875
X019252
X019754
X020128
X020551
X021152Y013484
X021211Y013986
X020866Y014272
X019705Y014173
X019518Y014439
X019222Y014222
X019291Y014833
X017589Y013041
X023789Y009656
Y008287
X024478Y008848
X0231
X022835Y006663
X024724Y006417
X017017Y008425
X017225Y009587
X016722Y00997
X015453Y011083
X014587Y011073
X013514Y010787
X012421Y010817
X01128Y010177
X011339Y009134
X012116Y008622
X013248Y008583
X013957Y009281
X014311Y00998
X013937Y007539
X013455Y00685
X013366Y006368
X013386Y005974
Y005472
X013406Y004941
Y004272
X013415Y003711
X012146Y003474
X012165Y004173
X012185Y005
Y005512
X012146Y006161
X011831Y006594
X011181Y005846
X009301Y007746
X008927Y008041
X009085Y008907
X008691Y009154
X008287Y009331
X008307Y010354
X009055Y010689
X009124Y011585
X009754Y010256
X011191Y011467
X011171Y014449
X012648Y014065
X012953Y013642
X014301Y013563
X014321Y014075
X013868Y015423
Y015827
X013041Y01625
X012992Y016703
X01311Y017165
X013209Y017559
X01315Y018228
X013179Y018868
X011398Y018819
X011467Y018307
X012018Y018022
X011447Y01748
X012224Y016988
X012195Y016575
X012274Y01625
X010167Y016634
X010236Y017146
X009232Y017185
X009006Y017756
X009341Y018829
X008583Y018819
X007776Y018839
X006201Y018632
X00624Y016949
Y016476
X005856Y016713
X005413Y016476
Y016949
X004734Y017323
X004045Y017333
X003228Y017805
X002776Y018878
X004459Y015965
X004518Y01376
X004311Y012742
X004419Y01186
X005108Y009665
X005531
X005315Y0094
X005108Y009124
X005531
X005335Y007244
X004272Y007215
X006191Y007539
X007411Y008041
X002224Y008465
X002303Y006801
X00376Y014331
X009459Y014715
X00878Y015945
Y016555
X010551Y018799
X015256Y018612
X016427Y017795
X016722Y016713
X016142Y016693
X0144Y017254
X015167Y015128
X015177Y012776
X015148Y012047
X016161Y013465
X01689Y013937
X0169Y014439
X001181Y013957
X000915Y012726
X001033Y015669
X001358Y017992
X001093Y020768
X001604Y02563
X000866Y027077
X002884Y027037
X004429Y027028
X00372Y026309
Y027923
X006821Y027795
X00752Y027037
X00814Y026713
X007392Y026063
X007087Y025807
X006693Y025689
X006654Y025335
X006919Y025
X007402Y02499
X007303Y024469
X007648Y024232
X008081Y024134
X008238Y023228
X008907Y0231
X010148Y022402
X010738Y022795
X011191Y022815
X012539Y023514
X012825
X013071
X014311Y02373
X014872Y023543
X015276Y02189
X015148Y020719
X014409Y019606
X013287Y019478
X013012Y020423
X013268Y020699
X013553Y021132
X013415Y021398
X01374Y021358
X013602Y021644
X012766Y022037
X012441Y021811
X01122Y020118
X011211Y019695
X011447Y019272
X009606Y019852
X007667Y019262
X005541Y019114
X004872
X004341Y019803
X003917Y020433
X003612Y02124
X003789Y019282
X001683Y019213
X005758Y02124
X006703Y021506
X007156Y021535
X00749Y021663
X006486Y022441
X005155Y022884
X005157Y023898
X0069Y023927
X006752Y024301
X007224Y023612
X006831Y026309
X006063Y027018
X005155Y025846
X009695Y026427
X010827Y027047
X011762Y025994
X012087Y025463
X012579Y026083
X011073Y025256
X011654Y028563
X012785
X013443Y029611
X01339Y030266
X014331Y030187
X014577Y029498
X015846Y029547
X015728Y030108
X016585Y030169
X015994Y028376
X015659Y028652
X015226Y028219
X015049Y027795
X015Y027165
X014075Y027086
X016506Y027106
X016388Y026024
X016407Y02565
X015994Y025709
X016703Y025472
X016831Y026004
X01625Y024823
X01688Y020413
X01686Y019213
X014764Y031516
X014124Y031254
X015197Y034006
X009213Y03188
X00936Y029429
X009459Y028711
X009882Y02814
X010561Y030354
X008524Y029902
X007215Y030787
X005384Y031909
X002923Y031181
X018228Y031762
X018756Y032254
X01815Y033976
X018868Y028524
X01962Y02747
X018189Y027047
X018179Y026713
X017618Y026722
X017549Y027096
X017392Y026014
X018583Y025246
X018327Y024951
X018002Y024409
X018878Y02436
X01935Y024163
X019744Y023976
X020187Y024547
X020325Y025797
X019439Y025581
X021978Y027116
X021722Y027756
X023031Y027618
X02374Y027116
X023888Y024774
X02438Y024213
X024852Y024675
X024774Y023396
X023386Y022234
X023297Y020453
X021821Y021043
X021594Y02127
X02128Y02128
X021437Y021555
X020965Y02189
X020974Y022992
X022037Y023937
X022106Y019134
X021476Y019124
X021083Y019724
X019547Y019429
X018425Y019242
X017904Y020748
X0181Y021919
X018967Y021781
X019764Y020886
X017805Y02313
X021358Y029222
X021368Y030276
X022382Y031821
X022175Y035492
X020187Y035669
X02435Y035679
X0169Y035866
X013868Y036309
X01064Y036427
X008642Y036456
X005069Y035463
X003278Y035394
T02
X018799Y011033
X015935Y011526
X01253
X01127Y012224
X005364Y014183
Y015453
X009281Y021614
X0119Y021644
X00872Y026427
X020512Y021919
T03
X002343Y011742
Y013742
X010167Y013514
Y012136
X001451Y020246
Y021246
Y022246
Y023246
Y024246
X002451
Y023246
Y022246
Y021246
Y020246
T04
X023711Y010984
X024711
Y013514
X023711
Y016112
X024711
X024744Y018917
X023744
X012815Y015669
X011815
X010815
X009815
X010404Y009341
Y007341
X023744Y019917
Y020917
X024744
Y019917
T05
X002136Y016663
X00312
X001152
T06
X018268Y003593
X020236
X022205
X024173
X016299
X014331
X007008
X005039
X003071
X001102
X001339Y03378
X003307
X005276
X007244
X020236
X022205
X024173
M30
