G04 Layer_Color=65535*
%FSLAX24Y24*%
%MOIN*%
G70*
G01*
G75*
%ADD10C,0.0079*%
%ADD29C,0.0100*%
%ADD38C,0.0070*%
%ADD39C,0.0039*%
%ADD40C,0.0050*%
%ADD41C,0.0070*%
D10*
X25500Y38230D02*
G03*
X25500Y37879I0J-175D01*
G01*
X31593Y37213D02*
Y37321D01*
Y36179D02*
Y36287D01*
X29507Y37213D02*
Y37321D01*
Y36179D02*
Y36287D01*
Y37321D02*
X31593D01*
X29507Y36179D02*
X31593D01*
X26728Y67015D02*
X26885Y66857D01*
Y66444D02*
Y66857D01*
X26521Y66739D02*
X26684Y66577D01*
X26516Y66744D02*
X26669Y66896D01*
X26507Y67059D02*
X26669Y66896D01*
X26507Y67059D02*
X26659Y67211D01*
X26502Y67369D02*
X26659Y67211D01*
X26502Y67369D02*
Y67389D01*
X26649Y67536D01*
X26196Y66050D02*
Y68018D01*
Y66050D02*
X26600D01*
X26196Y68018D02*
X26600D01*
X27004Y66050D02*
Y68018D01*
X26600Y66050D02*
X27004D01*
X26600Y68018D02*
X27004D01*
X26315Y69713D02*
Y70146D01*
X25685Y69713D02*
Y70146D01*
X26315Y63713D02*
Y64146D01*
X25685Y63713D02*
Y64146D01*
X20779Y43543D02*
X20887D01*
X21813D02*
X21921D01*
X20779Y41457D02*
X20887D01*
X21813D02*
X21921D01*
X20779D02*
Y43543D01*
X21921Y41457D02*
Y43543D01*
X21296Y39537D02*
X25500D01*
X21296Y36572D02*
Y39537D01*
Y36572D02*
X25500D01*
Y37879D01*
Y38230D02*
Y39537D01*
X26398Y42248D02*
Y44452D01*
X24902Y42248D02*
Y44452D01*
X26211Y42248D02*
X26398D01*
X24902D02*
X25089D01*
X26211Y44452D02*
X26398D01*
X24902D02*
X25089D01*
X26515Y38493D02*
Y40093D01*
X27076Y38493D02*
Y40097D01*
X26515Y38493D02*
X27076D01*
X26515Y40097D02*
X27076D01*
X27307Y38565D02*
X28907D01*
X27303Y39126D02*
X28907D01*
Y38565D02*
Y39126D01*
X27303Y38565D02*
Y39126D01*
X23002Y42248D02*
Y44452D01*
X24498Y42248D02*
Y44452D01*
X23002D02*
X23189D01*
X24311D02*
X24498D01*
X23002Y42248D02*
X23189D01*
X24311D02*
X24498D01*
X22015Y59428D02*
X23974D01*
X22015Y58158D02*
Y59428D01*
Y58158D02*
X23974D01*
Y59428D01*
D29*
X31141Y31376D02*
X31056Y31462D01*
X30885D01*
X30800Y31376D01*
Y31035D01*
X30885Y30950D01*
X31056D01*
X31141Y31035D01*
Y31206D01*
X30971D01*
X31312Y30950D02*
Y31462D01*
X31653Y30950D01*
Y31462D01*
X31823D02*
Y30950D01*
X32079D01*
X32164Y31035D01*
Y31376D01*
X32079Y31462D01*
X31823D01*
X30700Y34882D02*
Y34541D01*
X30871Y34370D01*
X31041Y34541D01*
Y34882D01*
X31212Y34285D02*
X31553D01*
X31979Y34882D02*
X31809D01*
X31723Y34796D01*
Y34455D01*
X31809Y34370D01*
X31979D01*
X32064Y34455D01*
Y34796D01*
X31979Y34882D01*
X32235D02*
Y34455D01*
X32320Y34370D01*
X32491D01*
X32576Y34455D01*
Y34882D01*
X32747D02*
X33088D01*
X32917D01*
Y34370D01*
D38*
X27156Y37018D02*
G03*
X26645Y37019I-256J-608D01*
G01*
Y35811D02*
G03*
X27156Y35812I255J609D01*
G01*
X25944Y35832D02*
G03*
X26455Y35831I256J608D01*
G01*
Y37039D02*
G03*
X25944Y37038I-255J-609D01*
G01*
X20394Y37432D02*
G03*
X20905Y37431I256J608D01*
G01*
Y38639D02*
G03*
X20394Y38638I-255J-609D01*
G01*
X26645Y35815D02*
Y37015D01*
X27156Y35815D02*
Y37016D01*
X26455Y35835D02*
Y37035D01*
X25944Y35834D02*
Y37035D01*
X27673Y37294D02*
X28717D01*
X27673Y37806D02*
X28717D01*
X27673Y37294D02*
Y37806D01*
X28717Y37294D02*
Y37806D01*
X20905Y37435D02*
Y38635D01*
X20394Y37434D02*
Y38635D01*
X23494Y40833D02*
Y41877D01*
X24006Y40833D02*
Y41877D01*
X23494D02*
X24006D01*
X23494Y40833D02*
X24006D01*
D39*
X23934Y59015D02*
G03*
X23934Y58582I0J-217D01*
G01*
X20528Y72500D02*
X20636D01*
X20528Y70306D02*
Y72500D01*
X20626D02*
X22870D01*
X25243D01*
Y72244D02*
Y72500D01*
Y67363D02*
Y72244D01*
X20528Y67363D02*
X25243D01*
X20528D02*
Y67491D01*
Y67471D02*
Y70306D01*
Y66500D02*
X20636D01*
X20528Y64306D02*
Y66500D01*
X20626D02*
X22870D01*
X25243D01*
Y66244D02*
Y66500D01*
Y61363D02*
Y66244D01*
X20528Y61363D02*
X25243D01*
X20528D02*
Y61491D01*
Y61471D02*
Y64306D01*
X20300Y48428D02*
Y48536D01*
Y48428D02*
X22494D01*
X20300Y48526D02*
Y50770D01*
Y53143D01*
X20556D01*
X25437D01*
Y48428D02*
Y53143D01*
X25309Y48428D02*
X25437D01*
X22494D02*
X25329D01*
X21850Y30228D02*
Y30336D01*
Y30228D02*
X24044D01*
X21850Y30326D02*
Y32570D01*
Y34943D01*
X22106D01*
X26987D01*
Y30228D02*
Y34943D01*
X26859Y30228D02*
X26987D01*
X24044D02*
X26879D01*
X27350Y37033D02*
X28050D01*
X27350Y35719D02*
X28050D01*
X27350D02*
Y37033D01*
X28050Y35719D02*
Y37033D01*
X28200D02*
X28900D01*
X28200Y35719D02*
X28900D01*
X28200D02*
Y37033D01*
X28900Y35719D02*
Y37033D01*
X29250Y32267D02*
X29950D01*
X29250Y33582D02*
X29950D01*
Y32267D02*
Y33582D01*
X29250Y32267D02*
Y33582D01*
X25813Y73272D02*
X27387D01*
X25813D02*
Y76559D01*
X27387D01*
Y73272D02*
Y76559D01*
X20482Y57828D02*
X20417Y57894D01*
X20286D01*
X20220Y57828D01*
Y57566D01*
X20286Y57500D01*
X20417D01*
X20482Y57566D01*
X20810Y57500D02*
Y57894D01*
X20614Y57697D01*
X20876D01*
X28122Y58838D02*
X28057Y58904D01*
X27926D01*
X27860Y58838D01*
Y58576D01*
X27926Y58510D01*
X28057D01*
X28122Y58576D01*
X28516Y58904D02*
X28254D01*
Y58707D01*
X28385Y58772D01*
X28450D01*
X28516Y58707D01*
Y58576D01*
X28450Y58510D01*
X28319D01*
X28254Y58576D01*
X28122Y48688D02*
X28057Y48754D01*
X27926D01*
X27860Y48688D01*
Y48426D01*
X27926Y48360D01*
X28057D01*
X28122Y48426D01*
X28516Y48754D02*
X28385Y48688D01*
X28254Y48557D01*
Y48426D01*
X28319Y48360D01*
X28450D01*
X28516Y48426D01*
Y48491D01*
X28450Y48557D01*
X28254D01*
X20512Y47928D02*
X20447Y47994D01*
X20316D01*
X20250Y47928D01*
Y47666D01*
X20316Y47600D01*
X20447D01*
X20512Y47666D01*
X20644Y47994D02*
X20906D01*
Y47928D01*
X20644Y47666D01*
Y47600D01*
X28122Y68788D02*
X28057Y68854D01*
X27926D01*
X27860Y68788D01*
Y68526D01*
X27926Y68460D01*
X28057D01*
X28122Y68526D01*
X28254Y68788D02*
X28319Y68854D01*
X28450D01*
X28516Y68788D01*
Y68722D01*
X28450Y68657D01*
X28516Y68591D01*
Y68526D01*
X28450Y68460D01*
X28319D01*
X28254Y68526D01*
Y68591D01*
X28319Y68657D01*
X28254Y68722D01*
Y68788D01*
X28319Y68657D02*
X28450D01*
X27112Y77578D02*
X27047Y77644D01*
X26916D01*
X26850Y77578D01*
Y77316D01*
X26916Y77250D01*
X27047D01*
X27112Y77316D01*
X27244D02*
X27309Y77250D01*
X27440D01*
X27506Y77316D01*
Y77578D01*
X27440Y77644D01*
X27309D01*
X27244Y77578D01*
Y77512D01*
X27309Y77447D01*
X27506D01*
X25656Y37650D02*
X26050D01*
Y37847D01*
X25984Y37912D01*
X25722D01*
X25656Y37847D01*
Y37650D01*
X26050Y38044D02*
X25788D01*
X25656Y38175D01*
X25788Y38306D01*
X26050D01*
X25853D01*
Y38044D01*
X26050Y38437D02*
Y38568D01*
Y38503D01*
X25656D01*
X25722Y38437D01*
X20700Y67044D02*
Y66650D01*
X20962D01*
X21094D02*
X21225D01*
X21159D01*
Y67044D01*
X21094Y66978D01*
X20550Y73154D02*
Y72760D01*
X20812D01*
X21206D02*
X20944D01*
X21206Y73022D01*
Y73088D01*
X21140Y73154D01*
X21009D01*
X20944Y73088D01*
X27300Y30744D02*
Y30350D01*
X27562D01*
X27694Y30678D02*
X27759Y30744D01*
X27890D01*
X27956Y30678D01*
Y30612D01*
X27890Y30547D01*
X27825D01*
X27890D01*
X27956Y30481D01*
Y30416D01*
X27890Y30350D01*
X27759D01*
X27694Y30416D01*
X20350Y53744D02*
Y53350D01*
X20612D01*
X20940D02*
Y53744D01*
X20744Y53547D01*
X21006D01*
X24150Y53750D02*
Y54144D01*
X24347D01*
X24412Y54078D01*
Y53947D01*
X24347Y53881D01*
X24150D01*
X24281D02*
X24412Y53750D01*
X24544Y54144D02*
X24806D01*
Y54078D01*
X24544Y53816D01*
Y53750D01*
X29310Y37994D02*
Y37731D01*
X29441Y37600D01*
X29572Y37731D01*
Y37994D01*
X29704D02*
Y37600D01*
X29900D01*
X29966Y37666D01*
Y37928D01*
X29900Y37994D01*
X29704D01*
X30097Y37600D02*
X30228D01*
X30163D01*
Y37994D01*
X30097Y37928D01*
X25150Y41844D02*
Y41581D01*
X25281Y41450D01*
X25412Y41581D01*
Y41844D01*
X25544D02*
Y41450D01*
X25740D01*
X25806Y41516D01*
Y41778D01*
X25740Y41844D01*
X25544D01*
X26200Y41450D02*
X25937D01*
X26200Y41712D01*
Y41778D01*
X26134Y41844D01*
X26003D01*
X25937Y41778D01*
X21800Y44894D02*
Y44631D01*
X21931Y44500D01*
X22062Y44631D01*
Y44894D01*
X22194D02*
Y44500D01*
X22390D01*
X22456Y44566D01*
Y44828D01*
X22390Y44894D01*
X22194D01*
X22587Y44828D02*
X22653Y44894D01*
X22784D01*
X22850Y44828D01*
Y44762D01*
X22784Y44697D01*
X22718D01*
X22784D01*
X22850Y44631D01*
Y44566D01*
X22784Y44500D01*
X22653D01*
X22587Y44566D01*
X20800Y44244D02*
Y43981D01*
X20931Y43850D01*
X21062Y43981D01*
Y44244D01*
X21194D02*
Y43850D01*
X21390D01*
X21456Y43916D01*
Y44178D01*
X21390Y44244D01*
X21194D01*
X21850D02*
X21587D01*
Y44047D01*
X21718Y44112D01*
X21784D01*
X21850Y44047D01*
Y43916D01*
X21784Y43850D01*
X21653D01*
X21587Y43916D01*
X22520Y77914D02*
X22782Y77520D01*
Y77914D02*
X22520Y77520D01*
X22914D02*
X23045D01*
X22979D01*
Y77914D01*
X22914Y77848D01*
X22470Y75264D02*
X22732Y74870D01*
Y75264D02*
X22470Y74870D01*
X23126D02*
X22864D01*
X23126Y75132D01*
Y75198D01*
X23060Y75264D01*
X22929D01*
X22864Y75198D01*
X27900Y33794D02*
X28162Y33400D01*
Y33794D02*
X27900Y33400D01*
X28294Y33728D02*
X28359Y33794D01*
X28490D01*
X28556Y33728D01*
Y33662D01*
X28490Y33597D01*
X28425D01*
X28490D01*
X28556Y33531D01*
Y33466D01*
X28490Y33400D01*
X28359D01*
X28294Y33466D01*
X27450Y32294D02*
X27712Y31900D01*
Y32294D02*
X27450Y31900D01*
X28040D02*
Y32294D01*
X27844Y32097D01*
X28106D01*
X26200Y68610D02*
Y69004D01*
X26397D01*
X26462Y68938D01*
Y68807D01*
X26397Y68741D01*
X26200D01*
X26331D02*
X26462Y68610D01*
X26594Y69004D02*
Y68676D01*
X26659Y68610D01*
X26790D01*
X26856Y68676D01*
Y69004D01*
X26987Y68610D02*
X27118D01*
X27053D01*
Y69004D01*
X26987Y68938D01*
X25650Y64990D02*
Y65384D01*
X25847D01*
X25912Y65318D01*
Y65187D01*
X25847Y65121D01*
X25650D01*
X25781D02*
X25912Y64990D01*
X26044D02*
X26175D01*
X26109D01*
Y65384D01*
X26044Y65318D01*
X25650Y70990D02*
Y71384D01*
X25847D01*
X25912Y71318D01*
Y71187D01*
X25847Y71121D01*
X25650D01*
X25781D02*
X25912Y70990D01*
X26306D02*
X26044D01*
X26306Y71252D01*
Y71318D01*
X26240Y71384D01*
X26109D01*
X26044Y71318D01*
X27012Y35528D02*
X26947Y35594D01*
X26816D01*
X26750Y35528D01*
Y35266D01*
X26816Y35200D01*
X26947D01*
X27012Y35266D01*
X27144Y35200D02*
X27275D01*
X27209D01*
Y35594D01*
X27144Y35528D01*
X20562Y39178D02*
X20497Y39244D01*
X20366D01*
X20300Y39178D01*
Y38916D01*
X20366Y38850D01*
X20497D01*
X20562Y38916D01*
X20956Y38850D02*
X20694D01*
X20956Y39112D01*
Y39178D01*
X20890Y39244D01*
X20759D01*
X20694Y39178D01*
X26062Y35528D02*
X25997Y35594D01*
X25866D01*
X25800Y35528D01*
Y35266D01*
X25866Y35200D01*
X25997D01*
X26062Y35266D01*
X26194Y35528D02*
X26259Y35594D01*
X26390D01*
X26456Y35528D01*
Y35462D01*
X26390Y35397D01*
X26325D01*
X26390D01*
X26456Y35331D01*
Y35266D01*
X26390Y35200D01*
X26259D01*
X26194Y35266D01*
X26800Y37350D02*
Y37744D01*
X26997D01*
X27062Y37678D01*
Y37547D01*
X26997Y37481D01*
X26800D01*
X26931D02*
X27062Y37350D01*
X27456Y37744D02*
X27194D01*
Y37547D01*
X27325Y37612D01*
X27390D01*
X27456Y37547D01*
Y37416D01*
X27390Y37350D01*
X27259D01*
X27194Y37416D01*
X30100Y32750D02*
Y33144D01*
X30297D01*
X30362Y33078D01*
Y32947D01*
X30297Y32881D01*
X30100D01*
X30231D02*
X30362Y32750D01*
X30494Y33078D02*
X30559Y33144D01*
X30690D01*
X30756Y33078D01*
Y33012D01*
X30690Y32947D01*
X30756Y32881D01*
Y32816D01*
X30690Y32750D01*
X30559D01*
X30494Y32816D01*
Y32881D01*
X30559Y32947D01*
X30494Y33012D01*
Y33078D01*
X30559Y32947D02*
X30690D01*
X22500Y60044D02*
Y59650D01*
X22697D01*
X22762Y59716D01*
Y59781D01*
X22697Y59847D01*
X22500D01*
X22697D01*
X22762Y59912D01*
Y59978D01*
X22697Y60044D01*
X22500D01*
X22894Y59650D02*
Y60044D01*
X23090D01*
X23156Y59978D01*
Y59847D01*
X23090Y59781D01*
X22894D01*
X23025D02*
X23156Y59650D01*
X23287D02*
X23418D01*
X23353D01*
Y60044D01*
X23287Y59978D01*
X27450Y35200D02*
Y35594D01*
X27647D01*
X27712Y35528D01*
Y35397D01*
X27647Y35331D01*
X27450D01*
X27581D02*
X27712Y35200D01*
X27844Y35528D02*
X27909Y35594D01*
X28040D01*
X28106Y35528D01*
Y35462D01*
X28040Y35397D01*
X27975D01*
X28040D01*
X28106Y35331D01*
Y35266D01*
X28040Y35200D01*
X27909D01*
X27844Y35266D01*
X28250Y35200D02*
Y35594D01*
X28447D01*
X28512Y35528D01*
Y35397D01*
X28447Y35331D01*
X28250D01*
X28381D02*
X28512Y35200D01*
X28840D02*
Y35594D01*
X28644Y35397D01*
X28906D01*
X24200Y41200D02*
Y41594D01*
X24397D01*
X24462Y41528D01*
Y41397D01*
X24397Y41331D01*
X24200D01*
X24331D02*
X24462Y41200D01*
X24856Y41594D02*
X24725Y41528D01*
X24594Y41397D01*
Y41266D01*
X24659Y41200D01*
X24790D01*
X24856Y41266D01*
Y41331D01*
X24790Y41397D01*
X24594D01*
X26510Y40774D02*
Y40511D01*
X26641Y40380D01*
X26772Y40511D01*
Y40774D01*
X26904D02*
Y40380D01*
X27100D01*
X27166Y40446D01*
Y40708D01*
X27100Y40774D01*
X26904D01*
X27494Y40380D02*
Y40774D01*
X27297Y40577D01*
X27560D01*
X27550Y39694D02*
Y39431D01*
X27681Y39300D01*
X27812Y39431D01*
Y39694D01*
X27944D02*
Y39300D01*
X28140D01*
X28206Y39366D01*
Y39628D01*
X28140Y39694D01*
X27944D01*
X28600D02*
X28468Y39628D01*
X28337Y39497D01*
Y39366D01*
X28403Y39300D01*
X28534D01*
X28600Y39366D01*
Y39431D01*
X28534Y39497D01*
X28337D01*
X25206Y75162D02*
Y74900D01*
X25403D01*
Y75031D01*
Y74900D01*
X25600D01*
X25206Y75294D02*
X25534D01*
X25600Y75359D01*
Y75490D01*
X25534Y75556D01*
X25206D01*
X25600Y75687D02*
Y75818D01*
Y75753D01*
X25206D01*
X25272Y75687D01*
D40*
X30800Y36400D02*
Y37100D01*
X30300Y36400D02*
Y37100D01*
Y36750D02*
X30800Y37100D01*
X30300Y36750D02*
X30800Y36400D01*
X27850Y58250D02*
X33050D01*
X27850Y50400D02*
Y58250D01*
Y50400D02*
X33050D01*
X29200Y50900D02*
X29700D01*
X29450Y50650D02*
Y51150D01*
X33050Y50400D02*
Y58250D01*
X27850Y48100D02*
X33050D01*
X27850Y40250D02*
Y48100D01*
Y40250D02*
X33050D01*
X29200Y40750D02*
X29700D01*
X29450Y40500D02*
Y41000D01*
X33050Y40250D02*
Y48100D01*
X27850Y68200D02*
X33050D01*
X27850Y60350D02*
Y68200D01*
Y60350D02*
X33050D01*
X29200Y60850D02*
X29700D01*
X29450Y60600D02*
Y61100D01*
X33050Y60350D02*
Y68200D01*
X27293Y54869D02*
Y57231D01*
X20207Y54869D02*
X27293D01*
X20207D02*
Y57231D01*
X27293D01*
Y45119D02*
Y47481D01*
X20207Y45119D02*
X27293D01*
X20207D02*
Y47481D01*
X27293D01*
X21000Y42750D02*
X21700D01*
X21000Y42250D02*
X21700D01*
X21000Y42750D02*
X21350Y42250D01*
X21700Y42750D01*
X25250Y43050D02*
X25650Y43650D01*
X26050Y43050D01*
X25250D02*
X26050D01*
X25250Y43650D02*
X26050D01*
X27850Y78000D02*
X33050D01*
X27850Y70150D02*
Y78000D01*
Y70150D02*
X33050D01*
X29200Y70650D02*
X29700D01*
X29450Y70400D02*
Y70900D01*
X33050Y70150D02*
Y78000D01*
X23750Y43050D02*
X24150Y43650D01*
X23350D02*
X23750Y43050D01*
X23350Y43650D02*
X24150D01*
X23350Y43050D02*
X24150D01*
D41*
X21970Y53520D02*
Y54480D01*
X23900Y53520D02*
Y54480D01*
X21970Y53520D02*
X23900D01*
X21970Y54480D02*
X23900D01*
M02*
