G04*
G04 #@! TF.GenerationSoftware,Altium Limited,Altium Designer,18.1.6 (161)*
G04*
G04 Layer_Color=128*
%FSLAX24Y24*%
%MOIN*%
G70*
G01*
G75*
G36*
X34194Y34616D02*
X33800D01*
X33918Y34793D01*
X33800Y34970D01*
X34194D01*
Y34616D01*
D02*
G37*
G36*
X33406Y34793D02*
X33524Y34616D01*
X33131D01*
Y34970D01*
X33524D01*
X33406Y34793D01*
D02*
G37*
G36*
X34193Y34016D02*
X33799D01*
X33917Y34193D01*
X33799Y34370D01*
X34193D01*
Y34016D01*
D02*
G37*
G36*
X33406Y34193D02*
X33524Y34016D01*
X33130D01*
Y34370D01*
X33524D01*
X33406Y34193D01*
D02*
G37*
G36*
X34193Y33415D02*
X33799D01*
X33917Y33593D01*
X33799Y33770D01*
X34193D01*
Y33415D01*
D02*
G37*
G36*
X33406Y33593D02*
X33524Y33415D01*
X33130D01*
Y33770D01*
X33524D01*
X33406Y33593D01*
D02*
G37*
G36*
X35797Y34921D02*
X35512Y35049D01*
X35226Y34921D01*
Y35374D01*
X35797D01*
Y34921D01*
D02*
G37*
G36*
X34990Y34917D02*
X34813Y35035D01*
X34636Y34917D01*
Y35311D01*
X34990D01*
Y34917D01*
D02*
G37*
G36*
X35797Y34213D02*
X35226D01*
Y34665D01*
X35512Y34537D01*
X35797Y34665D01*
Y34213D01*
D02*
G37*
G36*
X34990Y34248D02*
X34636D01*
Y34641D01*
X34813Y34523D01*
X34990Y34641D01*
Y34248D01*
D02*
G37*
G36*
X35600Y33602D02*
X35207D01*
X35325Y33780D01*
X35207Y33957D01*
X35600D01*
Y33602D01*
D02*
G37*
G36*
X34813Y33780D02*
X34931Y33602D01*
X34537D01*
Y33957D01*
X34931D01*
X34813Y33780D01*
D02*
G37*
M02*
