G04*
G04 #@! TF.GenerationSoftware,Altium Limited,Altium Designer,18.1.6 (161)*
G04*
G04 Layer_Physical_Order=1*
G04 Layer_Color=255*
%FSLAX24Y24*%
%MOIN*%
G70*
G01*
G75*
%ADD12C,0.0079*%
%ADD14O,0.0850X0.0295*%
%ADD15R,0.0236X0.0217*%
G04:AMPARAMS|DCode=16|XSize=43.3mil|YSize=23.6mil|CornerRadius=5.9mil|HoleSize=0mil|Usage=FLASHONLY|Rotation=0.000|XOffset=0mil|YOffset=0mil|HoleType=Round|Shape=RoundedRectangle|*
%AMROUNDEDRECTD16*
21,1,0.0433,0.0118,0,0,0.0*
21,1,0.0315,0.0236,0,0,0.0*
1,1,0.0118,0.0157,-0.0059*
1,1,0.0118,-0.0157,-0.0059*
1,1,0.0118,-0.0157,0.0059*
1,1,0.0118,0.0157,0.0059*
%
%ADD16ROUNDEDRECTD16*%
G04:AMPARAMS|DCode=17|XSize=94.5mil|YSize=59.1mil|CornerRadius=14.8mil|HoleSize=0mil|Usage=FLASHONLY|Rotation=0.000|XOffset=0mil|YOffset=0mil|HoleType=Round|Shape=RoundedRectangle|*
%AMROUNDEDRECTD17*
21,1,0.0945,0.0295,0,0,0.0*
21,1,0.0650,0.0591,0,0,0.0*
1,1,0.0295,0.0325,-0.0148*
1,1,0.0295,-0.0325,-0.0148*
1,1,0.0295,-0.0325,0.0148*
1,1,0.0295,0.0325,0.0148*
%
%ADD17ROUNDEDRECTD17*%
G04:AMPARAMS|DCode=18|XSize=90.6mil|YSize=82.7mil|CornerRadius=12.4mil|HoleSize=0mil|Usage=FLASHONLY|Rotation=180.000|XOffset=0mil|YOffset=0mil|HoleType=Round|Shape=RoundedRectangle|*
%AMROUNDEDRECTD18*
21,1,0.0906,0.0579,0,0,180.0*
21,1,0.0657,0.0827,0,0,180.0*
1,1,0.0248,-0.0329,0.0289*
1,1,0.0248,0.0329,0.0289*
1,1,0.0248,0.0329,-0.0289*
1,1,0.0248,-0.0329,-0.0289*
%
%ADD18ROUNDEDRECTD18*%
%ADD19O,0.0335X0.0110*%
%ADD20O,0.0110X0.0335*%
%ADD21R,0.1358X0.1358*%
%ADD40C,0.0157*%
%ADD41C,0.0472*%
%ADD42R,0.0181X0.0799*%
%ADD43R,0.0472X0.0394*%
%ADD44R,0.0394X0.0354*%
%ADD45R,0.0354X0.0394*%
%ADD46R,0.0551X0.0413*%
%ADD47R,0.0571X0.0453*%
%ADD48R,0.0354X0.0276*%
%ADD49R,0.0276X0.0354*%
%ADD50C,0.0118*%
%ADD51C,0.0197*%
%ADD52C,0.0181*%
%ADD53C,0.0177*%
%ADD54C,0.0276*%
%ADD55C,0.0394*%
%ADD56C,0.0315*%
%ADD57R,0.1260X0.0476*%
%ADD58R,0.2756X0.0394*%
%ADD59R,0.4008X0.0508*%
%ADD60R,0.0472X0.0799*%
%ADD61R,0.0859X0.2429*%
%ADD62R,1.0071X0.0476*%
%ADD63R,0.0472X0.0315*%
%ADD64R,0.0591X0.0115*%
%ADD65R,0.0813X0.0161*%
%ADD66C,0.0591*%
%ADD67R,0.0591X0.0591*%
%ADD68R,0.0591X0.0591*%
%ADD69C,0.0236*%
%ADD70C,0.0394*%
%ADD71C,0.0315*%
G36*
X30842Y38141D02*
X30851Y38135D01*
X30859Y38129D01*
X30869Y38124D01*
X30879Y38120D01*
X30889Y38116D01*
X30899Y38113D01*
X30910Y38112D01*
X30922Y38111D01*
X30934Y38110D01*
X30817Y37993D01*
X30817Y38005D01*
X30816Y38017D01*
X30814Y38028D01*
X30811Y38038D01*
X30808Y38049D01*
X30803Y38058D01*
X30798Y38068D01*
X30792Y38077D01*
X30786Y38085D01*
X30778Y38093D01*
X30834Y38149D01*
X30842Y38141D01*
D02*
G37*
G36*
X31040Y37507D02*
X31044Y37501D01*
X31057Y37486D01*
X31114Y37426D01*
X31130Y37410D01*
X31087Y37341D01*
X31079Y37349D01*
X31070Y37356D01*
X31062Y37361D01*
X31053Y37364D01*
X31045Y37367D01*
X31037Y37367D01*
X31029Y37367D01*
X31021Y37365D01*
X31013Y37361D01*
X31006Y37356D01*
X31037Y37511D01*
X31040Y37507D01*
D02*
G37*
G36*
X31862Y37454D02*
X31860Y37443D01*
X31860Y37433D01*
X31860Y37423D01*
X31862Y37414D01*
X31865Y37405D01*
X31869Y37395D01*
X31875Y37387D01*
X31881Y37378D01*
X31889Y37370D01*
X31815Y37332D01*
X31807Y37340D01*
X31799Y37346D01*
X31791Y37353D01*
X31782Y37359D01*
X31762Y37370D01*
X31752Y37374D01*
X31730Y37383D01*
X31718Y37387D01*
X31864Y37464D01*
X31862Y37454D01*
D02*
G37*
G36*
X27781Y37166D02*
X27794Y37157D01*
X27810Y37150D01*
X27828Y37144D01*
X27848Y37138D01*
X27871Y37134D01*
X27896Y37130D01*
X27954Y37126D01*
X27986Y37126D01*
Y36811D01*
X27954Y36811D01*
X27896Y36807D01*
X27871Y36803D01*
X27848Y36799D01*
X27828Y36793D01*
X27810Y36787D01*
X27794Y36780D01*
X27781Y36771D01*
X27770Y36762D01*
Y37175D01*
X27781Y37166D01*
D02*
G37*
G36*
X31418Y36788D02*
X31419Y36777D01*
X31421Y36766D01*
X31423Y36755D01*
X31427Y36745D01*
X31431Y36735D01*
X31436Y36726D01*
X31442Y36717D01*
X31448Y36708D01*
X31456Y36700D01*
X31400Y36644D01*
X31392Y36652D01*
X31384Y36659D01*
X31375Y36664D01*
X31365Y36669D01*
X31356Y36674D01*
X31345Y36677D01*
X31335Y36680D01*
X31324Y36682D01*
X31312Y36683D01*
X31300Y36683D01*
X31417Y36800D01*
X31418Y36788D01*
D02*
G37*
G36*
X35358Y36216D02*
X35193D01*
X35194Y36218D01*
X35194Y36220D01*
X35195Y36225D01*
X35196Y36237D01*
X35197Y36277D01*
X35197Y36291D01*
X35354D01*
X35358Y36216D01*
D02*
G37*
G36*
X27857Y36299D02*
X27869Y36283D01*
X27889Y36268D01*
X27916Y36255D01*
X27952Y36245D01*
X27995Y36236D01*
X28046Y36229D01*
X28172Y36221D01*
X28247Y36220D01*
Y35827D01*
X28172Y35826D01*
X27995Y35811D01*
X27952Y35802D01*
X27916Y35792D01*
X27889Y35779D01*
X27869Y35765D01*
X27857Y35748D01*
X27853Y35730D01*
Y36318D01*
X27857Y36299D01*
D02*
G37*
G36*
X34922Y35850D02*
X34923Y35840D01*
X34925Y35829D01*
X34928Y35819D01*
X34932Y35809D01*
X34937Y35800D01*
X34942Y35790D01*
X34949Y35781D01*
X34956Y35772D01*
X34965Y35763D01*
X34882Y35679D01*
X34799Y35763D01*
X34807Y35772D01*
X34815Y35781D01*
X34821Y35790D01*
X34827Y35800D01*
X34832Y35809D01*
X34836Y35819D01*
X34839Y35829D01*
X34841Y35840D01*
X34842Y35850D01*
X34843Y35861D01*
X34921Y35861D01*
X34922Y35850D01*
D02*
G37*
G36*
X34965Y35595D02*
X34956Y35586D01*
X34949Y35577D01*
X34942Y35568D01*
X34937Y35559D01*
X34932Y35549D01*
X34928Y35539D01*
X34925Y35529D01*
X34923Y35519D01*
X34922Y35508D01*
X34921Y35497D01*
X34843Y35497D01*
X34842Y35508D01*
X34841Y35519D01*
X34839Y35529D01*
X34836Y35539D01*
X34832Y35549D01*
X34827Y35559D01*
X34821Y35568D01*
X34815Y35577D01*
X34807Y35586D01*
X34799Y35595D01*
X34882Y35679D01*
X34965Y35595D01*
D02*
G37*
G36*
X37854Y35524D02*
X37846Y35516D01*
X37839Y35508D01*
X37834Y35499D01*
X37829Y35489D01*
X37824Y35480D01*
X37821Y35469D01*
X37818Y35459D01*
X37816Y35448D01*
X37815Y35436D01*
X37815Y35424D01*
X37698Y35541D01*
X37710Y35542D01*
X37721Y35543D01*
X37732Y35545D01*
X37743Y35547D01*
X37753Y35551D01*
X37763Y35555D01*
X37772Y35560D01*
X37781Y35566D01*
X37790Y35572D01*
X37798Y35580D01*
X37854Y35524D01*
D02*
G37*
G36*
X32736Y35255D02*
X32745Y35233D01*
X32750Y35223D01*
X32761Y35204D01*
X32767Y35195D01*
X32781Y35179D01*
X32788Y35171D01*
X32753Y35094D01*
X32745Y35102D01*
X32736Y35109D01*
X32728Y35114D01*
X32719Y35118D01*
X32709Y35121D01*
X32700Y35123D01*
X32690Y35123D01*
X32680Y35122D01*
X32670Y35120D01*
X32660Y35117D01*
X32731Y35266D01*
X32736Y35255D01*
D02*
G37*
G36*
X33071Y34485D02*
X33072Y34473D01*
X33074Y34462D01*
X33077Y34452D01*
X33080Y34442D01*
X33084Y34432D01*
X33090Y34422D01*
X33095Y34414D01*
X33102Y34405D01*
X33109Y34397D01*
X33054Y34341D01*
X33046Y34349D01*
X33037Y34355D01*
X33028Y34361D01*
X33019Y34366D01*
X33009Y34371D01*
X32999Y34374D01*
X32988Y34377D01*
X32977Y34379D01*
X32966Y34380D01*
X32954Y34380D01*
X33071Y34497D01*
X33071Y34485D01*
D02*
G37*
G36*
X33031Y34193D02*
X33035Y34185D01*
X33040Y34178D01*
X33046Y34171D01*
X33052Y34166D01*
X33060Y34161D01*
X33069Y34158D01*
X33078Y34156D01*
X33089Y34154D01*
X33101Y34154D01*
X33050Y34075D01*
X33038Y34075D01*
X32996Y34071D01*
X32986Y34070D01*
X32959Y34064D01*
X32950Y34061D01*
X33028Y34203D01*
X33031Y34193D01*
D02*
G37*
G36*
X35714Y33860D02*
X35723Y33853D01*
X35732Y33847D01*
X35741Y33842D01*
X35751Y33838D01*
X35761Y33835D01*
X35771Y33832D01*
X35783Y33830D01*
X35794Y33829D01*
X35806Y33829D01*
X35689Y33712D01*
X35689Y33724D01*
X35688Y33735D01*
X35686Y33746D01*
X35683Y33757D01*
X35680Y33767D01*
X35675Y33777D01*
X35670Y33786D01*
X35664Y33795D01*
X35658Y33804D01*
X35650Y33812D01*
X35706Y33867D01*
X35714Y33860D01*
D02*
G37*
G36*
X36190Y33543D02*
X36178Y33543D01*
X36166Y33542D01*
X36155Y33540D01*
X36145Y33537D01*
X36134Y33534D01*
X36125Y33530D01*
X36115Y33525D01*
X36106Y33519D01*
X36098Y33512D01*
X36090Y33505D01*
X36034Y33560D01*
X36042Y33568D01*
X36048Y33577D01*
X36054Y33586D01*
X36059Y33595D01*
X36063Y33605D01*
X36067Y33615D01*
X36070Y33626D01*
X36071Y33637D01*
X36073Y33648D01*
X36073Y33660D01*
X36190Y33543D01*
D02*
G37*
G36*
X33051Y33387D02*
X33054Y33356D01*
X33054Y33353D01*
X33055Y33350D01*
X33056Y33348D01*
X33058Y33347D01*
X32966D01*
X32967Y33348D01*
X32968Y33350D01*
X32969Y33353D01*
X32970Y33356D01*
X32971Y33361D01*
X32972Y33372D01*
X32972Y33387D01*
X32972Y33396D01*
X33051D01*
X33051Y33387D01*
D02*
G37*
G36*
X35116Y32818D02*
X35125Y32811D01*
X35134Y32806D01*
X35143Y32802D01*
X35152Y32799D01*
X35161Y32798D01*
X35170Y32798D01*
X35179Y32799D01*
X35189Y32802D01*
X35198Y32806D01*
X35139Y32652D01*
X35134Y32662D01*
X35119Y32692D01*
X35113Y32702D01*
X35100Y32719D01*
X35094Y32727D01*
X35080Y32742D01*
X35108Y32825D01*
X35116Y32818D01*
D02*
G37*
G36*
X40218Y38349D02*
X40217Y38356D01*
X40215Y38363D01*
X40211Y38369D01*
X40205Y38374D01*
X40198Y38378D01*
X40189Y38382D01*
X40179Y38385D01*
X40167Y38387D01*
X40153Y38388D01*
X40138Y38388D01*
Y38467D01*
X40153Y38467D01*
X40167Y38469D01*
X40179Y38470D01*
X40189Y38473D01*
X40198Y38477D01*
X40205Y38481D01*
X40211Y38486D01*
X40215Y38492D01*
X40217Y38499D01*
X40218Y38506D01*
Y38349D01*
D02*
G37*
G36*
X40300Y37433D02*
X40289Y37443D01*
X40276Y37451D01*
X40260Y37459D01*
X40242Y37465D01*
X40222Y37470D01*
X40199Y37475D01*
X40174Y37478D01*
X40116Y37482D01*
X40084Y37483D01*
Y37798D01*
X40116Y37798D01*
X40174Y37802D01*
X40199Y37806D01*
X40222Y37810D01*
X40242Y37815D01*
X40260Y37822D01*
X40276Y37829D01*
X40289Y37838D01*
X40300Y37847D01*
Y37433D01*
D02*
G37*
G36*
X39626Y36500D02*
X39628Y36489D01*
X39630Y36479D01*
X39633Y36469D01*
X39637Y36459D01*
X39642Y36449D01*
X39647Y36440D01*
X39654Y36431D01*
X39661Y36422D01*
X39669Y36413D01*
X39504D01*
X39512Y36422D01*
X39520Y36431D01*
X39526Y36440D01*
X39532Y36449D01*
X39536Y36459D01*
X39540Y36469D01*
X39543Y36479D01*
X39546Y36489D01*
X39547Y36500D01*
X39547Y36511D01*
X39626D01*
X39626Y36500D01*
D02*
G37*
G36*
X40300Y35859D02*
X40268Y35890D01*
X40208Y35944D01*
X40180Y35966D01*
X40153Y35984D01*
X40128Y35999D01*
X40104Y36011D01*
X40082Y36019D01*
X40061Y36024D01*
X40041Y36026D01*
Y36105D01*
X40061Y36106D01*
X40082Y36111D01*
X40104Y36120D01*
X40128Y36131D01*
X40153Y36147D01*
X40180Y36165D01*
X40208Y36187D01*
X40268Y36240D01*
X40300Y36272D01*
Y35859D01*
D02*
G37*
G36*
X39907Y35877D02*
X39921Y35865D01*
X39927Y35861D01*
X39933Y35857D01*
X39939Y35854D01*
X39944Y35852D01*
X39949Y35851D01*
X39953Y35851D01*
X39957Y35852D01*
X39877Y35771D01*
X39877Y35775D01*
X39877Y35779D01*
X39876Y35784D01*
X39874Y35789D01*
X39871Y35795D01*
X39868Y35801D01*
X39863Y35807D01*
X39858Y35814D01*
X39844Y35828D01*
X39900Y35884D01*
X39907Y35877D01*
D02*
G37*
G36*
X38306Y35583D02*
X38299Y35575D01*
X38292Y35567D01*
X38286Y35558D01*
X38281Y35549D01*
X38277Y35539D01*
X38274Y35529D01*
X38271Y35518D01*
X38269Y35507D01*
X38268Y35495D01*
X38268Y35483D01*
X38151Y35600D01*
X38163Y35601D01*
X38174Y35602D01*
X38185Y35604D01*
X38196Y35606D01*
X38206Y35610D01*
X38216Y35614D01*
X38225Y35619D01*
X38234Y35625D01*
X38243Y35632D01*
X38251Y35639D01*
X38306Y35583D01*
D02*
G37*
G36*
X39744Y35548D02*
X39745Y35536D01*
X39747Y35525D01*
X39750Y35515D01*
X39753Y35505D01*
X39758Y35495D01*
X39763Y35485D01*
X39769Y35477D01*
X39775Y35468D01*
X39783Y35460D01*
X39727Y35404D01*
X39719Y35412D01*
X39710Y35418D01*
X39702Y35424D01*
X39692Y35429D01*
X39682Y35434D01*
X39672Y35437D01*
X39662Y35440D01*
X39651Y35442D01*
X39639Y35443D01*
X39627Y35443D01*
X39744Y35560D01*
X39744Y35548D01*
D02*
G37*
G36*
X38174Y35134D02*
X38183Y35126D01*
X38192Y35120D01*
X38201Y35114D01*
X38211Y35109D01*
X38221Y35105D01*
X38231Y35102D01*
X38241Y35100D01*
X38252Y35099D01*
X38263Y35098D01*
Y35020D01*
X38252Y35019D01*
X38241Y35018D01*
X38231Y35016D01*
X38221Y35013D01*
X38211Y35009D01*
X38201Y35004D01*
X38192Y34998D01*
X38183Y34992D01*
X38174Y34985D01*
X38165Y34976D01*
Y35142D01*
X38174Y35134D01*
D02*
G37*
G36*
X40133Y35111D02*
X40143Y35103D01*
X40344Y34975D01*
X40392Y34946D01*
X40005Y34878D01*
X40025Y34905D01*
X40041Y34932D01*
X40053Y34957D01*
X40061Y34981D01*
X40065Y35004D01*
X40066Y35026D01*
X40062Y35047D01*
X40055Y35067D01*
X40043Y35086D01*
X40028Y35103D01*
X40128Y35115D01*
X40133Y35111D01*
D02*
G37*
G36*
X39238Y34488D02*
X39206Y34520D01*
X39146Y34574D01*
X39118Y34595D01*
X39091Y34614D01*
X39066Y34629D01*
X39042Y34640D01*
X39020Y34649D01*
X38999Y34654D01*
X38979Y34656D01*
Y34734D01*
X38999Y34736D01*
X39020Y34741D01*
X39042Y34749D01*
X39066Y34761D01*
X39091Y34776D01*
X39118Y34794D01*
X39146Y34816D01*
X39206Y34870D01*
X39238Y34902D01*
Y34488D01*
D02*
G37*
G36*
X40596Y34212D02*
X40584Y34197D01*
X40572Y34178D01*
X40562Y34157D01*
X40554Y34131D01*
X40547Y34103D01*
X40541Y34071D01*
X40536Y34036D01*
X40532Y33956D01*
X40531Y33910D01*
X40239Y34203D01*
X40284Y34203D01*
X40365Y34208D01*
X40400Y34212D01*
X40432Y34218D01*
X40460Y34225D01*
X40485Y34234D01*
X40507Y34243D01*
X40525Y34255D01*
X40541Y34268D01*
X40596Y34212D01*
D02*
G37*
G36*
X39238Y33701D02*
X39206Y33733D01*
X39146Y33786D01*
X39118Y33808D01*
X39091Y33826D01*
X39066Y33841D01*
X39042Y33853D01*
X39020Y33861D01*
X38999Y33866D01*
X38979Y33868D01*
Y33947D01*
X38999Y33949D01*
X39020Y33954D01*
X39042Y33962D01*
X39066Y33974D01*
X39091Y33989D01*
X39118Y34007D01*
X39146Y34029D01*
X39206Y34082D01*
X39238Y34114D01*
Y33701D01*
D02*
G37*
G36*
Y32913D02*
X39206Y32945D01*
X39146Y32999D01*
X39118Y33020D01*
X39091Y33039D01*
X39066Y33054D01*
X39042Y33066D01*
X39020Y33074D01*
X38999Y33079D01*
X38979Y33081D01*
Y33159D01*
X38999Y33161D01*
X39020Y33166D01*
X39042Y33175D01*
X39066Y33186D01*
X39091Y33201D01*
X39118Y33220D01*
X39146Y33241D01*
X39206Y33295D01*
X39238Y33327D01*
Y32913D01*
D02*
G37*
G36*
Y32126D02*
X39206Y32158D01*
X39146Y32211D01*
X39118Y32233D01*
X39091Y32251D01*
X39066Y32267D01*
X39042Y32278D01*
X39020Y32287D01*
X38999Y32292D01*
X38979Y32293D01*
Y32372D01*
X38999Y32374D01*
X39020Y32379D01*
X39042Y32387D01*
X39066Y32399D01*
X39091Y32414D01*
X39118Y32432D01*
X39146Y32454D01*
X39206Y32508D01*
X39238Y32539D01*
Y32126D01*
D02*
G37*
G36*
X40530Y31645D02*
X40533Y31644D01*
X40578Y31644D01*
X40630Y31644D01*
Y31447D01*
X40529Y31446D01*
Y31645D01*
X40530Y31645D01*
D02*
G37*
G36*
X39238Y31339D02*
X39206Y31370D01*
X39146Y31424D01*
X39118Y31446D01*
X39091Y31464D01*
X39066Y31479D01*
X39042Y31491D01*
X39020Y31499D01*
X38999Y31504D01*
X38979Y31506D01*
Y31585D01*
X38999Y31586D01*
X39020Y31591D01*
X39042Y31600D01*
X39066Y31611D01*
X39091Y31626D01*
X39118Y31645D01*
X39146Y31667D01*
X39206Y31720D01*
X39238Y31752D01*
Y31339D01*
D02*
G37*
D12*
X39760Y38585D02*
G03*
X39649Y38539I0J-157D01*
G01*
X40945Y37770D02*
G03*
X40766Y38014I-434J-129D01*
G01*
X40256D02*
G03*
X40331Y37225I255J-374D01*
G01*
D02*
G03*
X40385Y36459I180J-372D01*
G01*
X39760Y38585D02*
G03*
X39648Y38539I0J-157D01*
G01*
X39475Y38366D02*
G03*
X39429Y38254I111J-112D01*
G01*
X39475Y38366D02*
G03*
X39429Y38254I111J-111D01*
G01*
X40385Y36459D02*
G03*
X40225Y36364I126J-394D01*
G01*
X39357Y36385D02*
G03*
X39030Y36565I-233J-37D01*
G01*
X39410Y36486D02*
G03*
X39357Y36385I176J-157D01*
G01*
X39823Y36329D02*
G03*
X39763Y36486I-236J0D01*
G01*
X39798Y36223D02*
G03*
X39823Y36329I-211J106D01*
G01*
X39434Y35699D02*
G03*
X39459Y35394I192J-138D01*
G01*
X39163Y34396D02*
G03*
X39323Y34301I286J299D01*
G01*
D02*
G03*
X39163Y34206I126J-394D01*
G01*
Y33609D02*
G03*
X39323Y33514I286J299D01*
G01*
X39055Y35394D02*
G03*
X38944Y35348I0J-157D01*
G01*
X39055Y35394D02*
G03*
X38944Y35347I0J-157D01*
G01*
X38213Y35255D02*
G03*
X38385Y35469I-63J228D01*
G01*
X38294Y33796D02*
G03*
X38406Y33750I111J111D01*
G01*
X38294Y33796D02*
G03*
X38406Y33750I112J111D01*
G01*
X37392Y36614D02*
G03*
X37345Y36726I-157J0D01*
G01*
X37392Y36614D02*
G03*
X37346Y36726I-157J0D01*
G01*
X37011Y37060D02*
G03*
X36900Y37106I-111J-111D01*
G01*
X37013Y37879D02*
G03*
X36860Y37943I-153J-153D01*
G01*
X37011Y37060D02*
G03*
X36900Y37106I-112J-111D01*
G01*
X38085Y36196D02*
G03*
X38189Y36138I153J153D01*
G01*
X38085Y36195D02*
G03*
X38189Y36138I153J153D01*
G01*
X37014Y37879D02*
G03*
X36860Y37943I-153J-153D01*
G01*
X35512Y36132D02*
G03*
X35498Y36211I-236J0D01*
G01*
X34587Y36780D02*
G03*
X34495Y36735I20J-156D01*
G01*
X34587Y36780D02*
G03*
X34495Y36735I20J-156D01*
G01*
X37683Y35659D02*
G03*
X37464Y35465I14J-236D01*
G01*
X38238Y35235D02*
G03*
X38213Y35255I-157J-176D01*
G01*
X37077Y35472D02*
G03*
X37123Y35361I157J0D01*
G01*
X37077Y35472D02*
G03*
X37123Y35361I157J0D01*
G01*
X35252Y35299D02*
G03*
X35236Y35371I-173J0D01*
G01*
X35549Y35059D02*
G03*
X35476Y35075I-72J-157D01*
G01*
X36427Y33661D02*
G03*
X36406Y33760I-236J0D01*
G01*
X39323Y33514D02*
G03*
X39163Y33419I126J-394D01*
G01*
X38137Y33009D02*
G03*
X38248Y32963I111J111D01*
G01*
X38136Y33009D02*
G03*
X38248Y32963I112J111D01*
G01*
X39323Y32726D02*
G03*
X39163Y32632I126J-394D01*
G01*
Y32821D02*
G03*
X39323Y32726I286J299D01*
G01*
X39163Y32034D02*
G03*
X39323Y31939I286J299D01*
G01*
D02*
G03*
X39163Y31844I126J-394D01*
G01*
X37559Y32421D02*
G03*
X37293Y32687I-266J0D01*
G01*
X37874Y32202D02*
G03*
X37963Y32175I89J130D01*
G01*
X37874Y32202D02*
G03*
X37963Y32175I89J130D01*
G01*
X37559Y31969D02*
G03*
X37605Y31857I157J0D01*
G01*
X37559Y31969D02*
G03*
X37605Y31857I157J0D01*
G01*
X37293Y31860D02*
G03*
X37559Y32126I0J266D01*
G01*
X38028Y31434D02*
G03*
X38140Y31388I112J111D01*
G01*
X38028Y31434D02*
G03*
X38140Y31388I111J111D01*
G01*
X40650Y31330D02*
G03*
X40783Y31393I-20J216D01*
G01*
X40650Y31330D02*
G03*
X40783Y31392I-20J216D01*
G01*
X39163Y31246D02*
G03*
X39823Y31369I286J299D01*
G01*
X36205Y33426D02*
G03*
X36427Y33661I-14J236D01*
G01*
X36644Y32687D02*
G03*
X36378Y32421I0J-266D01*
G01*
Y32126D02*
G03*
X36644Y31860I266J0D01*
G01*
X36289Y31870D02*
G03*
X36243Y31981I-157J0D01*
G01*
X36289Y31870D02*
G03*
X36243Y31982I-157J0D01*
G01*
X35374Y32293D02*
G03*
X35486Y32340I0J157D01*
G01*
X35374Y32293D02*
G03*
X35485Y32339I0J157D01*
G01*
X36017Y32208D02*
G03*
X35906Y32254I-111J-111D01*
G01*
X36017Y32208D02*
G03*
X35906Y32254I-112J-111D01*
G01*
X34941Y31860D02*
G03*
X35088Y31939I0J177D01*
G01*
X34478Y31940D02*
G03*
X34626Y31860I148J97D01*
G01*
X34627Y31566D02*
G03*
X34409Y31671I-258J-258D01*
G01*
X34448Y31189D02*
G03*
X34636Y31089I257J257D01*
G01*
X34107Y37943D02*
G03*
X33621Y37909I-229J-217D01*
G01*
X33614Y37555D02*
G03*
X34107Y37510I264J171D01*
G01*
X34377Y36617D02*
G03*
X34331Y36506I111J-112D01*
G01*
X34377Y36617D02*
G03*
X34331Y36506I111J-111D01*
G01*
X33887Y36847D02*
G03*
X33776Y36894I-112J-111D01*
G01*
X33887Y36848D02*
G03*
X33776Y36894I-111J-111D01*
G01*
X34252Y36417D02*
G03*
X34206Y36529I-157J0D01*
G01*
X34252Y36417D02*
G03*
X34206Y36529I-157J0D01*
G01*
X33724Y38236D02*
G03*
X33419Y38541I-305J0D01*
G01*
X33556Y37964D02*
G03*
X33724Y38236I-137J272D01*
G01*
X33621Y37909D02*
G03*
X33556Y37964I-202J-173D01*
G01*
X33685Y37236D02*
G03*
X33509Y37486I-266J0D01*
G01*
X32864Y38541D02*
G03*
X32727Y37964I0J-305D01*
G01*
X33509Y37486D02*
G03*
X33614Y37555I-90J250D01*
G01*
X33509Y36986D02*
G03*
X33685Y37236I-90J250D01*
G01*
X33633Y36894D02*
G03*
X33509Y36986I-214J-157D01*
G01*
X32299Y38017D02*
G03*
X32146Y38081I-153J-153D01*
G01*
X32299Y38017D02*
G03*
X32146Y38081I-153J-153D01*
G01*
X31545D02*
G03*
X31392Y38017I0J-217D01*
G01*
X31545Y38081D02*
G03*
X31392Y38017I0J-217D01*
G01*
X34331Y35571D02*
G03*
X34377Y35460I157J0D01*
G01*
X34331Y35571D02*
G03*
X34377Y35459I157J0D01*
G01*
X34390Y35442D02*
G03*
X34252Y35468I-98J-143D01*
G01*
X33231Y33366D02*
G03*
X33303Y33350I72J157D01*
G01*
X33248Y33238D02*
G03*
X33210Y33366I-236J0D01*
G01*
X32901Y33507D02*
G03*
X32861Y33443I111J-112D01*
G01*
X32900Y33507D02*
G03*
X32861Y33443I111J-111D01*
G01*
X32625Y33806D02*
G03*
X32667Y33776I111J111D01*
G01*
X32667Y33272D02*
G03*
X32661Y33325I-242J0D01*
G01*
X32396Y35303D02*
G03*
X32429Y35089I224J-75D01*
G01*
X32185Y35157D02*
G03*
X32297Y35204I0J157D01*
G01*
X32185Y35157D02*
G03*
X32296Y35204I0J157D01*
G01*
X31768Y35089D02*
G03*
X31526Y34846I0J-242D01*
G01*
X32625Y33806D02*
G03*
X32667Y33776I112J111D01*
G01*
X31526Y34268D02*
G03*
X31768Y34026I242J0D01*
G01*
Y33514D02*
G03*
X31526Y33272I0J-242D01*
G01*
X31390Y38015D02*
G03*
X31241Y37820I86J-220D01*
G01*
X31171Y37992D02*
G03*
X30949Y38228I-236J0D01*
G01*
X31147Y37887D02*
G03*
X31171Y37992I-212J105D01*
G01*
X31214Y37848D02*
G03*
X31147Y37887I-111J-111D01*
G01*
X31214Y37847D02*
G03*
X31147Y37887I-112J-111D01*
G01*
X30802Y38348D02*
G03*
X30691Y38394I-111J-111D01*
G01*
X30683D02*
G03*
X30469Y38502I-214J-157D01*
G01*
X30803Y38347D02*
G03*
X30691Y38394I-112J-111D01*
G01*
X29914Y38502D02*
G03*
X29824Y37986I0J-266D01*
G01*
D02*
G03*
X29824Y37486I90J-250D01*
G01*
D02*
G03*
X29824Y36986I90J-250D01*
G01*
D02*
G03*
X29654Y36791I90J-250D01*
G01*
X29188Y37067D02*
G03*
X29172Y37106I-152J-39D01*
G01*
X29188Y37067D02*
G03*
X29172Y37106I-152J-39D01*
G01*
X27972Y37756D02*
G03*
X27735Y38130I-413J0D01*
G01*
X29035Y37185D02*
G03*
X28924Y37139I0J-157D01*
G01*
X29035Y37185D02*
G03*
X28924Y37139I0J-157D01*
G01*
X27739Y37384D02*
G03*
X27972Y37756I-180J372D01*
G01*
X28012Y36969D02*
G03*
X27739Y37384I-453J0D01*
G01*
X27910Y36683D02*
G03*
X28012Y36969I-351J285D01*
G01*
X31394Y35204D02*
G03*
X31506Y35157I112J111D01*
G01*
X31395Y35204D02*
G03*
X31506Y35157I111J111D01*
G01*
X31430Y34895D02*
G03*
X31319Y34941I-112J-111D01*
G01*
X31430Y34895D02*
G03*
X31319Y34941I-111J-111D01*
G01*
X28629Y36844D02*
G03*
X28583Y36732I111J-111D01*
G01*
X28629Y36844D02*
G03*
X28583Y36732I111J-112D01*
G01*
X31434Y34446D02*
G03*
X31526Y34401I112J111D01*
G01*
X31434Y34446D02*
G03*
X31526Y34401I111J111D01*
G01*
X27972Y35236D02*
G03*
X27955Y35354I-413J0D01*
G01*
X27165Y35110D02*
G03*
X27972Y35236I394J126D01*
G01*
X34134Y32303D02*
G03*
X34180Y32192I157J0D01*
G01*
X34134Y32303D02*
G03*
X34180Y32192I157J0D01*
G01*
X34055Y32957D02*
G03*
X34134Y32957I39J169D01*
G01*
X34055Y32318D02*
G03*
X34117Y32168I212J0D01*
G01*
X34386Y31985D02*
G03*
X34478Y31940I112J111D01*
G01*
X34387Y31985D02*
G03*
X34478Y31940I111J111D01*
G01*
X34013Y31703D02*
G03*
X33895Y31945I-411J-50D01*
G01*
X34329Y31703D02*
G03*
X34117Y32168I-727J-50D01*
G01*
X33694Y32389D02*
G03*
X33740Y32441I-397J397D01*
G01*
Y32318D02*
G03*
X33777Y32126I527J0D01*
G01*
X33694Y32388D02*
G03*
X33661Y32310I79J-78D01*
G01*
X33528Y33126D02*
G03*
X33543Y33054I173J0D01*
G01*
X33471Y32611D02*
G03*
X33543Y32785I-174J174D01*
G01*
X33777Y32126D02*
G03*
X33799Y32076I491J192D01*
G01*
D02*
G03*
X33895Y31946I468J242D01*
G01*
X32856Y33415D02*
G03*
X33248Y33238I156J-177D01*
G01*
X31526Y33135D02*
G03*
X31454Y33094I39J-152D01*
G01*
X31526Y33135D02*
G03*
X31453Y33093I39J-152D01*
G01*
X33471Y32611D02*
G03*
X33346Y32310I301J-301D01*
G01*
X31526Y32693D02*
G03*
X31768Y32451I242J0D01*
G01*
X32425D02*
G03*
X32667Y32693I0J242D01*
G01*
X31310Y32535D02*
G03*
X31381Y32576I-40J152D01*
G01*
X31310Y32535D02*
G03*
X31381Y32576I-40J152D01*
G01*
X31112Y36946D02*
G03*
X31112Y36657I187J-144D01*
G01*
X30774Y37236D02*
G03*
X30771Y37281I-305J0D01*
G01*
D02*
G03*
X30988Y37221I164J170D01*
G01*
X30644Y36986D02*
G03*
X30774Y37236I-175J250D01*
G01*
Y36736D02*
G03*
X30644Y36986I-305J0D01*
G01*
X30469Y36431D02*
G03*
X30774Y36736I0J305D01*
G01*
X29626Y36637D02*
G03*
X29914Y36431I288J100D01*
G01*
X27867Y35512D02*
G03*
X27802Y35571I-308J-276D01*
G01*
X33583Y32500D02*
G03*
X33701Y32785I-285J285D01*
G01*
X33583Y32500D02*
G03*
X33504Y32310I190J-190D01*
G01*
X33898Y32318D02*
G03*
X34006Y32057I370J0D01*
G01*
X34173Y31653D02*
G03*
X34006Y32057I-571J0D01*
G01*
X40766Y38014D02*
X40924D01*
X40098Y38841D02*
X40924D01*
Y38014D02*
Y38841D01*
X39825Y38270D02*
X40098D01*
Y38014D02*
X40256D01*
X40839Y37953D02*
X40945D01*
X40899Y37874D02*
X40945D01*
X39744Y37953D02*
X40183D01*
X39744Y37874D02*
X40123D01*
X39760Y38585D02*
X40098D01*
Y38841D01*
Y38014D02*
Y38270D01*
X39744Y38189D02*
X39825Y38270D01*
X39823Y38268D02*
X40098D01*
X39744Y38189D02*
X40098D01*
X39744Y38110D02*
X40098D01*
X39744Y38031D02*
X40098D01*
X40945Y37770D02*
Y38937D01*
X39744Y37323D02*
X40188D01*
X39744Y37244D02*
X40292D01*
X39744Y37165D02*
X40240D01*
X39744Y37087D02*
X40170D01*
X39744Y37716D02*
X40065D01*
X39744Y37638D02*
X40058D01*
X39744Y37795D02*
X40086D01*
X39744Y36525D02*
Y38189D01*
Y37401D02*
X40126D01*
X39744Y37008D02*
X40128D01*
X39744Y37559D02*
X40066D01*
X39744Y37480D02*
X40087D01*
X39334Y38740D02*
X40098D01*
X39475Y38366D02*
X39648Y38539D01*
X39334Y38661D02*
X40098D01*
X39334Y38583D02*
X39732D01*
X39334Y38504D02*
X39614D01*
X39334Y38425D02*
X39535D01*
X39334Y38268D02*
X39430D01*
X39334Y38189D02*
X39429D01*
X38291Y38792D02*
X39334Y38792D01*
Y38346D02*
X39459D01*
X39334Y37953D02*
X39429D01*
X39334Y37874D02*
X39429D01*
X39334Y38110D02*
X39429D01*
X39334Y38031D02*
X39429D01*
X37334Y37559D02*
X39429D01*
X39334Y37795D02*
X39429D01*
Y36525D02*
Y38254D01*
X37176Y37716D02*
X39429D01*
X37255Y37638D02*
X39429D01*
X37728Y37165D02*
X39429D01*
X37806Y37087D02*
X39429D01*
X37413Y37480D02*
X39429D01*
X37491Y37401D02*
X39429D01*
X39334Y38792D02*
X39334Y37739D01*
X38291Y38792D02*
X38291Y37739D01*
X37019Y37874D02*
X38291D01*
X37014Y37879D02*
X38328Y36565D01*
X38291Y37739D02*
X39334Y37739D01*
X37649Y37244D02*
X39429D01*
X37098Y37795D02*
X38291D01*
X37570Y37323D02*
X39429D01*
X39785Y36457D02*
X40378D01*
X39744Y36693D02*
X40130D01*
X39744Y36614D02*
X40173D01*
X39744Y36535D02*
X40246D01*
X40186Y36328D02*
X40215Y36358D01*
X40131Y36279D02*
X40186Y36328D01*
X39818Y36378D02*
X40240D01*
X39821Y36299D02*
X40153D01*
X39744Y36929D02*
X40105D01*
X39744Y36850D02*
X40098D01*
X39744Y36772D02*
X40106D01*
X39268Y36535D02*
X39429D01*
X39334Y36457D02*
X39388D01*
X39798Y36223D02*
X40025D01*
X38589Y35699D02*
X39434D01*
X39055Y35394D02*
X39459D01*
X39123Y33645D02*
X39153Y33615D01*
X39069Y34481D02*
X39123Y34432D01*
X38813Y35217D02*
X38944Y35347D01*
X39123Y34432D02*
X39153Y34403D01*
X39123Y34170D02*
X39153Y34200D01*
X39069Y34121D02*
X39123Y34170D01*
X39069Y33694D02*
X39123Y33645D01*
X38121Y36772D02*
X39429D01*
X38043Y36850D02*
X39429D01*
X38200Y36693D02*
X39429D01*
X37885Y37008D02*
X39429D01*
X37964Y36929D02*
X39429D01*
X38559Y35669D02*
X39416D01*
X38402Y35512D02*
X39395D01*
X38279Y36614D02*
X39429D01*
X38381Y35433D02*
X39427D01*
X38481Y35590D02*
X39392D01*
X38400Y35510D02*
X38589Y35699D01*
X38328Y36565D02*
X39030D01*
X38348Y35354D02*
X38951D01*
X38277Y35217D02*
X38813D01*
X38264Y35276D02*
X38872D01*
X38012Y34537D02*
X38962D01*
X38205Y34331D02*
X39253D01*
X38284Y34252D02*
X39220D01*
X38363Y34173D02*
X39126D01*
X38048Y34488D02*
X39059D01*
X38126Y34409D02*
X39146D01*
X38189Y33543D02*
X39253D01*
X38189Y33465D02*
X39220D01*
X38189Y33701D02*
X39059D01*
X38189Y33622D02*
X39146D01*
X38441Y34094D02*
X39032D01*
X38471Y34065D02*
X38962D01*
X37998Y34538D02*
X38471Y34065D01*
X38189Y33901D02*
X38294Y33796D01*
X38406Y33750D02*
X38962D01*
X38189Y33779D02*
X38314D01*
X37300Y36772D02*
X37509D01*
X37221Y36850D02*
X37430D01*
X37142Y36929D02*
X37351D01*
X37011Y37060D02*
X37345Y36726D01*
X37392Y36614D02*
X37666D01*
X37392Y36535D02*
X37745D01*
X37371Y36693D02*
X37588D01*
X36976Y37087D02*
X37194D01*
X37063Y37008D02*
X37273D01*
X36880Y36614D02*
X37012D01*
X36880Y36535D02*
X37077D01*
X36880Y36693D02*
X36933D01*
X36880Y36746D02*
X37077Y36549D01*
X37392Y36299D02*
X37981D01*
X37392Y36378D02*
X37903D01*
X37392Y36220D02*
X38060D01*
X37392Y36457D02*
X37824D01*
X37392Y35538D02*
Y36614D01*
Y36142D02*
X38174D01*
X37724Y35673D02*
X38189Y36138D01*
X36880Y36191D02*
Y36746D01*
X37077Y35472D02*
Y36549D01*
X36880Y36457D02*
X37077D01*
X36880Y36378D02*
X37077D01*
X36880Y36142D02*
X37077D01*
X36880Y35482D02*
Y36171D01*
Y36299D02*
X37077D01*
X36880Y36220D02*
X37077D01*
X35866Y37510D02*
X36771D01*
X35866Y37106D02*
Y37510D01*
Y37480D02*
X36800D01*
X35866Y37401D02*
X36879D01*
X35866Y37165D02*
X37115D01*
X35866Y37106D02*
X36900D01*
X35866Y37323D02*
X36958D01*
X35866Y37244D02*
X37036D01*
X35197Y37401D02*
X35236D01*
X35197Y37323D02*
X35236D01*
X35197Y37510D02*
X35236D01*
X35197Y37480D02*
X35236D01*
X35276Y37274D02*
X35551D01*
X35827D01*
X35197Y37244D02*
X35236D01*
X35197Y37165D02*
X35236D01*
X36771Y37510D02*
X38085Y36196D01*
X35498Y36211D02*
X36073D01*
X35197Y37106D02*
X35236D01*
Y37510D01*
X36073Y36191D02*
X36880D01*
X36073Y36171D02*
X36880D01*
X35512Y36142D02*
X36073D01*
Y36112D02*
Y36171D01*
X35197Y37106D02*
Y37510D01*
X34724Y36880D02*
Y36949D01*
X34567Y36978D02*
X34724D01*
X34567D02*
Y37510D01*
X34587Y36880D02*
X34724D01*
X34587Y36780D02*
Y36880D01*
X37392Y35905D02*
X37956D01*
X37392Y35827D02*
X37878D01*
X37392Y35748D02*
X37799D01*
X37392Y36063D02*
X38114D01*
X37392Y35984D02*
X38035D01*
X37418Y35512D02*
X37478D01*
X37392Y35669D02*
X37718D01*
X37392Y35590D02*
X37530D01*
X36880Y35905D02*
X37077D01*
X36880Y35827D02*
X37077D01*
X36880Y36063D02*
X37077D01*
X36880Y35984D02*
X37077D01*
X36880Y35590D02*
X37077D01*
X36880Y35512D02*
X37077D01*
X36880Y35748D02*
X37077D01*
X36880Y35669D02*
X37077D01*
X37392Y35538D02*
X37464Y35465D01*
X37205Y34016D02*
X37356D01*
X37123Y35361D02*
X37426Y35058D01*
X37205Y34167D02*
X37559Y33813D01*
X37205Y33937D02*
X37435D01*
X38189Y33858D02*
X38232D01*
X37205D02*
X37514D01*
X37205Y33779D02*
X37559D01*
X37205Y34094D02*
X37277D01*
X37205Y33760D02*
Y34167D01*
X36890Y34055D02*
X37165D01*
X36890Y33799D02*
Y34055D01*
X36614D02*
X36890D01*
X36575Y33760D02*
X37205D01*
X36476Y35827D02*
X36841D01*
X36476D02*
Y36132D01*
Y35522D02*
Y35827D01*
X36102Y35482D02*
X36880D01*
X35252Y35433D02*
X37082D01*
X35252Y35197D02*
X37287D01*
X35252Y35118D02*
X37366D01*
X35243Y35354D02*
X37130D01*
X35252Y35276D02*
X37208D01*
X35511Y36112D02*
X36073D01*
X35315Y35463D02*
Y35496D01*
Y35463D02*
X36102D01*
X35236Y35417D02*
X35315Y35496D01*
X35252Y35075D02*
Y35299D01*
X35252Y35075D02*
X35476D01*
X35236Y35371D02*
Y35417D01*
X36535Y34016D02*
X36575D01*
X36535Y34094D02*
X36575D01*
X36535Y33937D02*
X36575D01*
X35549Y35059D02*
X37411D01*
X36535Y34203D02*
X36575D01*
X36424Y33701D02*
X37559D01*
X36424Y33622D02*
X37559D01*
X36395Y33543D02*
X37559D01*
X36321Y33465D02*
X37559D01*
X36535Y34173D02*
X36575D01*
Y33760D02*
Y34203D01*
X36535Y33760D02*
Y34203D01*
Y33858D02*
X36575D01*
X36535Y33779D02*
X36575D01*
X36406Y33760D02*
X36535D01*
X39123Y33383D02*
X39153Y33412D01*
X39069Y33334D02*
X39123Y33383D01*
X38205Y33386D02*
X39126D01*
X38284Y33307D02*
X39032D01*
X39069Y32906D02*
X39123Y32857D01*
X39153Y32828D01*
X38031Y32913D02*
X39059D01*
X38031Y32835D02*
X39146D01*
X38189Y33402D02*
X38313Y33278D01*
X38189Y33402D02*
Y33901D01*
X38313Y33278D02*
X38962D01*
X38031Y33071D02*
X38075D01*
X38031Y33114D02*
X38136Y33009D01*
X38248Y32963D02*
X38962D01*
X38031Y32992D02*
X38156D01*
X39123Y32595D02*
X39153Y32625D01*
X38031Y32756D02*
X39253D01*
X38031Y32677D02*
X39220D01*
X37939Y31968D02*
X39253D01*
X38018Y31890D02*
X39220D01*
X39069Y32547D02*
X39123Y32595D01*
X38031Y32490D02*
Y33114D01*
Y32598D02*
X39126D01*
X38031Y32520D02*
X39032D01*
X39069Y32119D02*
X39123Y32070D01*
X39153Y32040D01*
X38031Y32490D02*
X38962D01*
X37963Y32175D02*
X38962D01*
X37057Y33150D02*
X37559D01*
X37057Y33228D02*
X37559D01*
X37057Y33071D02*
X37559D01*
X36138Y33386D02*
X37559D01*
X37057Y33307D02*
X37559D01*
X37057Y32835D02*
X37559D01*
X37491Y32598D02*
X37559D01*
X37057Y32992D02*
X37559D01*
X37057Y32913D02*
X37559D01*
X37057Y32717D02*
Y33307D01*
X37559Y32421D02*
Y33813D01*
X36427Y33307D02*
X37057D01*
Y32756D02*
X37559D01*
X37365Y32677D02*
X37559D01*
X36427Y32717D02*
X37057D01*
X36644Y32687D02*
X37293D01*
X37874Y32047D02*
X39146D01*
X37874Y32126D02*
X39059D01*
X37874Y32034D02*
Y32202D01*
Y32034D02*
X38205Y31703D01*
X37605Y31857D02*
X38028Y31434D01*
X37559Y32126D02*
Y32421D01*
Y31969D02*
Y32421D01*
X36969Y32274D02*
X37520D01*
X37507Y31968D02*
X37559D01*
X37415Y31890D02*
X37580D01*
X36644Y31860D02*
X37293D01*
X37116Y31260D02*
Y31850D01*
X39123Y31808D02*
X39153Y31838D01*
X39069Y31759D02*
X39123Y31808D01*
X38205Y31703D02*
X38962D01*
X38097Y31811D02*
X39126D01*
X38176Y31732D02*
X39032D01*
X40887Y31496D02*
X40945D01*
X40808Y31417D02*
X40945D01*
X40783Y31393D02*
X40945Y31554D01*
X37116Y31653D02*
X37809D01*
X37116Y31575D02*
X37888D01*
X37116Y31811D02*
X37651D01*
X37116Y31732D02*
X37730D01*
X37116Y31496D02*
X37966D01*
X36801Y31555D02*
X37077D01*
X37116Y31417D02*
X38048D01*
X40694Y31339D02*
X40945D01*
Y28445D02*
Y31554D01*
X40650Y31132D02*
Y31330D01*
Y31260D02*
X40945D01*
X40650Y31181D02*
X40945D01*
X39823Y31132D02*
X40650D01*
X39926Y28446D02*
X40945Y28445D01*
X39823Y31132D02*
Y31369D01*
X38140Y31388D02*
X38962D01*
X37116Y31339D02*
X39059D01*
X39748Y31260D02*
X39823D01*
X39644Y31181D02*
X39823D01*
X39069Y31331D02*
X39123Y31283D01*
X39153Y31253D01*
X35226Y30551D02*
X40945D01*
X35226Y30630D02*
X40945D01*
X35226Y30472D02*
X40945D01*
X35226Y30787D02*
X40945D01*
X35226Y30709D02*
X40945D01*
X35226Y30394D02*
X40945D01*
X35797Y30079D02*
X40945D01*
X34409Y30315D02*
X40945D01*
X34409Y30157D02*
X40945D01*
X36486Y31850D02*
X37116D01*
X36486Y31260D02*
X37116D01*
X35226Y31260D02*
X39146D01*
X35226Y31181D02*
X39253D01*
X35226Y30945D02*
X40945D01*
X35226Y30866D02*
X40945D01*
X35226Y31102D02*
X40945D01*
X35226Y31024D02*
X40945D01*
X35797Y29764D02*
X40945D01*
X35797Y29842D02*
X40945D01*
X35797Y29685D02*
X40945D01*
X35797Y30000D02*
X40945D01*
X35797Y29921D02*
X40945D01*
X35797Y29606D02*
X40945D01*
X35797Y29527D02*
X40945D01*
X35157Y29134D02*
X40945D01*
X35157Y29055D02*
X40945D01*
X35157Y28819D02*
X40945D01*
X35157Y28740D02*
X40945D01*
X35157Y28976D02*
X40945D01*
X35157Y28898D02*
X40945D01*
X36515Y28504D02*
X40945D01*
X36515Y28452D02*
X39926D01*
X35157Y28661D02*
X40945D01*
X35051Y28583D02*
X40945D01*
X36742Y33012D02*
X37018D01*
X36742D02*
Y33268D01*
Y32756D02*
Y33012D01*
X36388Y33307D02*
X36427D01*
X36467Y33012D02*
X36742D01*
X36969Y32274D02*
Y32648D01*
X36417Y32274D02*
X36969D01*
X36388Y33228D02*
X36427D01*
X36388Y32717D02*
Y33307D01*
X36427Y32717D02*
Y33307D01*
X36388Y33150D02*
X36427D01*
X36388Y33071D02*
X36427D01*
X36388Y32835D02*
X36427D01*
X36388Y32756D02*
X36427D01*
X36388Y32992D02*
X36427D01*
X36388Y32913D02*
X36427D01*
X36969Y31900D02*
Y32274D01*
X36801Y31555D02*
Y31811D01*
X36486Y31260D02*
Y31850D01*
X36288Y31890D02*
X36522D01*
X36447Y31575D02*
X36486D01*
X36526Y31555D02*
X36801D01*
X36447Y31811D02*
X36486D01*
X36447Y31732D02*
X36486D01*
X36378Y32126D02*
Y32421D01*
X36177Y32047D02*
X36390D01*
X36447Y31653D02*
X36486D01*
X36447Y31260D02*
Y31850D01*
X36255Y31968D02*
X36430D01*
X36289Y31850D02*
X36447D01*
X35862Y32717D02*
X36388D01*
X36059Y33307D02*
X36388D01*
X35823Y32677D02*
X36572D01*
X35744Y32598D02*
X36446D01*
X35666Y32520D02*
X36397D01*
X35587Y32441D02*
X36379D01*
X36020Y32205D02*
X36378D01*
X35508Y32362D02*
X36378D01*
X35081Y32283D02*
X36378D01*
X36066Y33314D02*
X36164Y33411D01*
X35486Y32340D02*
X35862Y32717D01*
X35088Y32293D02*
X35374D01*
X35088Y32254D02*
X35906D01*
X36099Y32126D02*
X36378D01*
X36017Y32208D02*
X36243Y31982D01*
X35840Y31939D02*
X35929Y31850D01*
X35088Y31939D02*
X35840D01*
X35039Y31890D02*
X35890D01*
X35817Y31850D02*
X35929D01*
X35817Y31260D02*
Y31850D01*
X34488Y31653D02*
X35817D01*
X35226Y31575D02*
X35817D01*
X34626Y31860D02*
X34941D01*
X34409Y31671D02*
Y31703D01*
X34636Y31614D02*
X35226D01*
Y30984D02*
Y31614D01*
X34636Y31558D02*
Y31614D01*
X36447Y31417D02*
X36486D01*
X36447Y31496D02*
X36486D01*
X36801Y31299D02*
Y31555D01*
X35226Y31496D02*
X35817D01*
X35226Y31417D02*
X35817D01*
X36447Y31339D02*
X36486D01*
X35817Y31260D02*
X36447D01*
X35226Y31339D02*
X35817D01*
X35167Y30089D02*
X35797D01*
X35226Y30315D02*
Y30945D01*
X35482Y29793D02*
Y30049D01*
X35128Y30079D02*
X35167D01*
X35128Y30000D02*
X35167D01*
X35207Y29793D02*
X35482D01*
X35758D01*
X35128Y29921D02*
X35167D01*
X35128Y29842D02*
X35167D01*
X35806Y28546D02*
X36515D01*
X35797Y29498D02*
Y30089D01*
X35702Y28452D02*
Y28549D01*
X35167Y29498D02*
X35797D01*
X35051Y28549D02*
X35702D01*
X35806Y28452D02*
Y28546D01*
X36515Y28452D02*
Y28546D01*
X35702Y28504D02*
X35806D01*
X35702Y28452D02*
X35806D01*
X35482Y29537D02*
Y29793D01*
X35167Y29498D02*
Y30089D01*
X35128Y29764D02*
X35167D01*
X35128Y29498D02*
Y30089D01*
Y29527D02*
X35167D01*
X35157Y28593D02*
Y29183D01*
X35128Y29685D02*
X35167D01*
X35128Y29606D02*
X35167D01*
X34636Y30945D02*
X35226D01*
X34931Y30630D02*
Y30906D01*
Y30630D02*
X35187D01*
X34636Y30984D02*
X35226D01*
X34675Y30630D02*
X34931D01*
Y30354D02*
Y30630D01*
X34636Y30315D02*
X35226D01*
X34498Y30089D02*
X35128D01*
X34409Y31181D02*
X34456D01*
X34636Y30984D02*
Y31089D01*
X34409Y31228D02*
X34448Y31189D01*
X34409Y30915D02*
Y31228D01*
X34636Y30315D02*
Y30945D01*
X34498Y30020D02*
Y30089D01*
X34409Y30866D02*
X34636D01*
X34409Y30709D02*
X34636D01*
X34528Y29183D02*
X35157D01*
X34498Y29498D02*
X35128D01*
X35051Y28549D02*
Y28593D01*
X34488Y29055D02*
X34528D01*
X34488Y28976D02*
X34528D01*
X35051Y28593D02*
X35157D01*
X34634Y28452D02*
Y28549D01*
X34528Y28593D02*
X34634D01*
Y28452D02*
Y28593D01*
X34498Y29498D02*
Y29587D01*
X34528Y28593D02*
Y29183D01*
X34488Y29134D02*
X34528D01*
X34488Y28593D02*
Y29183D01*
Y28740D02*
X34528D01*
X34488Y28661D02*
X34528D01*
X34488Y28898D02*
X34528D01*
X34488Y28819D02*
X34528D01*
X33723Y38268D02*
X38291D01*
X33704Y38346D02*
X38291D01*
X33721Y38189D02*
X38291D01*
X33566Y38504D02*
X38291D01*
X33659Y38425D02*
X38291D01*
X34097Y37953D02*
X38291D01*
X34107Y37943D02*
X36860D01*
X33697Y38110D02*
X38291D01*
X33956Y38031D02*
X38291D01*
X33645D02*
X33800D01*
X34107Y37510D02*
X34567D01*
X33573Y37953D02*
X33659D01*
X34074Y37480D02*
X34567D01*
X33685Y37244D02*
X34567D01*
X33627Y37401D02*
X34567D01*
X33670Y37323D02*
X34567D01*
X33884Y36850D02*
X34587D01*
X33675Y37165D02*
X34567D01*
X33963Y36772D02*
X34551D01*
X33639Y37087D02*
X34567D01*
X33602Y36929D02*
X34724D01*
X34377Y36617D02*
X34495Y36735D01*
X34042Y36693D02*
X34452D01*
X33887Y36847D02*
X34206Y36529D01*
X33633Y36894D02*
X33776D01*
X34120Y36614D02*
X34374D01*
X34199Y36535D02*
X34333D01*
X27972Y38819D02*
X40098D01*
X27972Y38740D02*
X38291D01*
X27972Y38661D02*
X38291D01*
X27972Y38937D02*
X40945D01*
X27972Y38898D02*
X40945D01*
X27972Y38583D02*
X38291D01*
X32864Y38541D02*
X33419D01*
X30803Y38346D02*
X32580D01*
X27972Y38504D02*
X32718D01*
X30656Y38425D02*
X32625D01*
X31140Y38110D02*
X32587D01*
X30882Y38268D02*
X32561D01*
X31066Y38189D02*
X32563D01*
X33524Y37480D02*
X33681D01*
X33555Y37008D02*
X34567D01*
X31545Y38081D02*
X32146D01*
X32299Y38017D02*
X32363Y37953D01*
X32710D01*
X32283Y38031D02*
X32638D01*
X34252Y36142D02*
X34331D01*
X34252Y36220D02*
X34331D01*
X34252Y36063D02*
X34331D01*
X34247Y36457D02*
X34331D01*
X34252Y36378D02*
X34331D01*
X34252Y35984D02*
X34331D01*
X34252Y35512D02*
X34342D01*
X34331Y35571D02*
Y36506D01*
X34252Y35468D02*
Y36417D01*
Y36299D02*
X34331D01*
X34252Y35905D02*
X34331D01*
X34252Y35669D02*
X34331D01*
X34252Y35590D02*
X34331D01*
X34252Y35827D02*
X34331D01*
X34252Y35748D02*
X34331D01*
X32901Y33507D02*
X32956Y33563D01*
X32900D02*
X32956D01*
X32880Y33543D02*
X32937D01*
X33303Y33350D02*
X33528D01*
X33248Y33228D02*
X33528D01*
X33238Y33307D02*
X33528D01*
X32661Y33325D02*
X32900Y33563D01*
X32801Y33465D02*
X32870D01*
X32723Y33386D02*
X32827D01*
X32665Y33307D02*
X32786D01*
X32289Y35197D02*
X32386D01*
X32297Y35204D02*
X32385Y35292D01*
X31768Y35089D02*
X32425D01*
X31506Y35157D02*
X32185D01*
X27955Y35118D02*
X32411D01*
X31443Y34882D02*
X31528D01*
X31526Y34799D02*
Y34846D01*
X31309Y35039D02*
X31621D01*
X31309Y34961D02*
X31554D01*
X31309Y34173D02*
X31545D01*
X31309Y34094D02*
X31599D01*
X31309Y34331D02*
X31526D01*
X31309Y34252D02*
X31526D01*
X32405Y34026D02*
X32625Y33806D01*
X31309Y33937D02*
X32494D01*
X31309Y33858D02*
X32573D01*
X27165Y33779D02*
X32660D01*
X31310Y33622D02*
X32513D01*
X32405Y33514D02*
X32667Y33776D01*
X27165Y33701D02*
X32592D01*
X31310Y33543D02*
X32435D01*
X31768Y34026D02*
X32405D01*
X31768Y33514D02*
X32405D01*
X31309Y34016D02*
X32415D01*
X31310Y33465D02*
X31621D01*
X31310Y33386D02*
X31554D01*
X31310Y33307D02*
X31528D01*
X31168Y38031D02*
X31408D01*
X31168Y37953D02*
X31300D01*
X31179Y37874D02*
X31254D01*
X31214Y37847D02*
X31241Y37820D01*
X29914Y38502D02*
X30469D01*
X30803Y38347D02*
X30908Y38242D01*
X29626Y37638D02*
X29668D01*
X29626Y37559D02*
X29716D01*
X29626Y37480D02*
X29809D01*
X29626Y37401D02*
X29706D01*
X29626Y37323D02*
X29663D01*
X29626Y37165D02*
X29658D01*
X29626Y37008D02*
X29779D01*
X29181Y37087D02*
X29695D01*
X29626Y36929D02*
X29732D01*
X29331Y37421D02*
Y37697D01*
X29626Y37106D02*
Y37736D01*
X29331Y37421D02*
X29587D01*
X29331Y37146D02*
Y37421D01*
X29188Y37067D02*
X29626D01*
Y36794D02*
Y37067D01*
X27972Y38425D02*
X29727D01*
X27972Y38346D02*
X29673D01*
X27972Y38268D02*
X29650D01*
X27972Y38189D02*
X29653D01*
X27772Y38110D02*
X29680D01*
X27955Y37874D02*
X29687D01*
X27971Y37795D02*
X29655D01*
X27867Y38031D02*
X29745D01*
X27923Y37953D02*
X29760D01*
X27972Y38130D02*
Y38937D01*
X29035Y37736D02*
X29626D01*
X27735Y38130D02*
X27972D01*
X27971Y37716D02*
X29035D01*
X27955Y37638D02*
X29035D01*
X27923Y37559D02*
X29035D01*
X27867Y37480D02*
X29035D01*
X29075Y37421D02*
X29331D01*
X27918Y37244D02*
X29035D01*
Y37185D02*
Y37736D01*
X27772Y37401D02*
X29035D01*
X27841Y37323D02*
X29035D01*
X29172Y37106D02*
X29626D01*
X27967Y37165D02*
X28959D01*
X27996Y37087D02*
X28872D01*
X28629Y36844D02*
X28924Y37139D01*
X28010Y37008D02*
X28793D01*
X28010Y36929D02*
X28714D01*
X31244Y35354D02*
X31394Y35204D01*
X30719Y35098D02*
X31309D01*
X31430Y34895D02*
X31526Y34799D01*
X31309Y34488D02*
X31392D01*
X30719Y34469D02*
X31309D01*
X29626Y36850D02*
X29674D01*
X27996D02*
X28635D01*
X31309Y34941D02*
Y35098D01*
Y34469D02*
Y34571D01*
X28583Y36683D02*
Y36732D01*
X30719Y34469D02*
Y35098D01*
X31309Y34571D02*
X31434Y34446D01*
X30719Y34429D02*
X31309D01*
Y33799D02*
Y34429D01*
Y34409D02*
X31491D01*
X31526Y34268D02*
Y34401D01*
X30719Y33799D02*
X31309D01*
X30719Y33671D02*
X31310D01*
X31014Y34114D02*
X31270D01*
X31014Y33839D02*
Y34114D01*
Y34390D01*
X30719Y33799D02*
Y34429D01*
X31015Y33356D02*
X31271D01*
X31015D02*
Y33632D01*
X30758Y34114D02*
X31014D01*
X30759Y33356D02*
X31015D01*
X27971Y35276D02*
X31323D01*
X27955Y35354D02*
X31244D01*
X27971Y35197D02*
X31402D01*
X27955Y35354D02*
X31244D01*
X27923Y35039D02*
X30719D01*
X27867Y34961D02*
X30719D01*
X27772Y34882D02*
X30719D01*
X27165Y34803D02*
X30719D01*
X27165Y34724D02*
X30719D01*
X27967Y36772D02*
X28588D01*
X27918Y36693D02*
X28583D01*
X27910Y36683D02*
X28583D01*
X27165Y34961D02*
X27251D01*
X27165Y34882D02*
X27346D01*
X27165Y35039D02*
X27196D01*
X27165Y33622D02*
X30719D01*
X27165Y33858D02*
X30719D01*
X27165Y33543D02*
X30719D01*
X27165Y34016D02*
X30719D01*
X27165Y33937D02*
X30719D01*
X27165Y33307D02*
X30719D01*
X27165Y33228D02*
X30719D01*
X27165Y33465D02*
X30719D01*
X27165Y33386D02*
X30719D01*
X27165Y34488D02*
X30719D01*
X27165Y34409D02*
X30719D01*
X27165Y34646D02*
X30719D01*
X27165Y34567D02*
X30719D01*
X27165Y34173D02*
X30719D01*
X27165Y34094D02*
X30719D01*
X27165Y34331D02*
X30719D01*
X27165Y34252D02*
X30719D01*
X34055Y32598D02*
X34134D01*
X34055Y32756D02*
X34134D01*
X34055Y32677D02*
X34134D01*
X34157Y32126D02*
X34246D01*
X34215Y32047D02*
X34325D01*
X34058Y32283D02*
X34135D01*
X34088Y32205D02*
X34168D01*
X34055Y32318D02*
Y32957D01*
X34134Y32303D02*
Y32957D01*
X34055Y32913D02*
X34134D01*
X34055Y32835D02*
X34134D01*
X34055Y32362D02*
X34134D01*
X34055Y32520D02*
X34134D01*
X34055Y32441D02*
X34134D01*
X34326Y31732D02*
X35817D01*
X34291Y31890D02*
X34528D01*
X34313Y31811D02*
X35817D01*
X34409Y31024D02*
X34636D01*
X34409Y30945D02*
X34636D01*
X34329Y31703D02*
X34409D01*
Y31102D02*
X34587D01*
X34180Y32192D02*
X34386Y31985D01*
X34259Y31968D02*
X34406D01*
X33957Y30876D02*
Y30915D01*
X34390Y30876D02*
Y30915D01*
X33937Y31703D02*
X34013D01*
X33937Y31368D02*
Y31703D01*
X33740Y32318D02*
Y32441D01*
X33674Y32362D02*
X33740D01*
X33661Y32205D02*
X33753D01*
X33661Y32126D02*
X33777D01*
X33661Y32283D02*
X33741D01*
X33661Y32126D02*
Y32310D01*
X33543Y32785D02*
Y33054D01*
X33178Y33071D02*
X33537D01*
X32667Y32992D02*
X33543D01*
X32667Y32913D02*
X33543D01*
X32667Y32835D02*
X33543D01*
X32667Y32756D02*
X33542D01*
X33799Y31732D02*
X34008D01*
X33799Y31653D02*
X33937D01*
X33799Y31575D02*
X33937D01*
X33799Y31890D02*
X33941D01*
X33799Y31811D02*
X33984D01*
X33799Y31358D02*
X33937D01*
X33799Y30925D02*
X33937D01*
X33051Y31496D02*
X33937D01*
X33799Y31417D02*
X33937D01*
X33799Y31968D02*
X33873D01*
X33799Y31496D02*
Y32076D01*
Y31358D02*
Y31457D01*
Y30827D02*
Y30925D01*
X33209Y31496D02*
X33799D01*
X33209Y31457D02*
X33799D01*
X34409Y30551D02*
X34636D01*
X34409Y30630D02*
X34636D01*
X34409Y30423D02*
Y30541D01*
Y30787D02*
X34636D01*
X34409Y30541D02*
Y30876D01*
Y30472D02*
X34636D01*
X34409Y30394D02*
X34636D01*
X34409Y30236D02*
X40945D01*
X34390Y30079D02*
X34498D01*
X33937Y30541D02*
Y30876D01*
X34409Y30423D02*
Y30541D01*
X33937Y30423D02*
Y30541D01*
Y30423D02*
Y30541D01*
X34409Y30089D02*
Y30423D01*
X34390Y30030D02*
Y30089D01*
X33937D02*
Y30423D01*
X33957Y30030D02*
Y30089D01*
X34409Y29449D02*
X40945D01*
X34409Y29527D02*
X34498D01*
X34409Y29370D02*
X40945D01*
X34409Y30020D02*
X34498D01*
X34409Y29587D02*
X34498D01*
X34409Y29291D02*
X40945D01*
X34390Y29213D02*
X40945D01*
X34390Y29183D02*
X34488D01*
X33858Y28593D02*
X34488D01*
X33937Y29577D02*
Y29695D01*
X34409Y29242D02*
Y29577D01*
X33937Y29695D02*
Y30030D01*
Y29577D02*
Y29695D01*
X33957Y29183D02*
Y29242D01*
X34390Y29183D02*
Y29242D01*
X33937D02*
Y29577D01*
X33858Y28593D02*
Y29183D01*
X33110Y30787D02*
X33937D01*
X33799Y30866D02*
X33937D01*
X33110Y30709D02*
X33937D01*
X33110Y30630D02*
X33937D01*
X33110Y30551D02*
X33937D01*
X33110Y30315D02*
X33937D01*
X33110Y30079D02*
X33957D01*
X33110Y30472D02*
X33937D01*
X33110Y30394D02*
X33937D01*
X33209Y30827D02*
X33799D01*
X33110Y30236D02*
X33937D01*
X33110Y30157D02*
X33937D01*
X33110Y30000D02*
X33937D01*
X33110Y29921D02*
X33937D01*
X28632Y29764D02*
X33937D01*
X27165Y29842D02*
X33937D01*
X28632Y29685D02*
X33937D01*
X28632Y29291D02*
X33937D01*
X28632Y29370D02*
X33937D01*
X28632Y29213D02*
X33957D01*
X28632Y29606D02*
X33937D01*
X28632Y29527D02*
X33937D01*
X33858Y29183D02*
X33957D01*
X28239Y28452D02*
X34634D01*
X27165Y28583D02*
X34634D01*
X27165Y28504D02*
X34634D01*
X28632Y29055D02*
X33858D01*
X28632Y28976D02*
X33858D01*
X28632Y29449D02*
X33937D01*
X28632Y29134D02*
X33858D01*
X28632Y28898D02*
X33858D01*
X28632Y28819D02*
X33858D01*
X27165Y28740D02*
X33858D01*
X27165Y28661D02*
X33858D01*
X33528Y33126D02*
Y33350D01*
X33231Y33150D02*
X33528D01*
X32667Y33228D02*
X32776D01*
X32667Y32693D02*
Y33272D01*
Y33150D02*
X32793D01*
X32667Y33071D02*
X32845D01*
X31482Y32677D02*
X31526D01*
X32667D02*
X33518D01*
X31526Y33135D02*
Y33272D01*
X31310Y33041D02*
Y33671D01*
Y33228D02*
X31526D01*
X31310Y33150D02*
X31526D01*
X31310Y32992D02*
X31352D01*
X31310Y32950D02*
X31453Y33093D01*
X33346Y32126D02*
Y32310D01*
X33209Y32126D02*
X33346D01*
X32648Y32598D02*
X33459D01*
X32594Y32520D02*
X33402D01*
X33051Y32008D02*
X33209D01*
Y32126D01*
X32579Y32037D02*
X33051D01*
Y31614D02*
X33209D01*
X31404Y32598D02*
X31545D01*
X31381Y32576D02*
X31526Y32720D01*
X32579Y31585D02*
Y31703D01*
Y31585D02*
Y31703D01*
X31768Y32451D02*
X32425D01*
X32579Y31703D02*
Y32037D01*
X31310Y33071D02*
X31431D01*
X31015Y33081D02*
Y33356D01*
X31310Y32950D02*
Y33002D01*
X30719Y33041D02*
X31310D01*
X30719D02*
Y33671D01*
Y33002D02*
X31310D01*
X27165Y32520D02*
X30719D01*
X27165Y32992D02*
X30719D01*
X27165Y32913D02*
X30719D01*
X27165Y33150D02*
X30719D01*
X27165Y33071D02*
X30719D01*
X27165Y32677D02*
X30719D01*
X27165Y32598D02*
X30719D01*
X27165Y32835D02*
X30719D01*
X27165Y32756D02*
X30719D01*
X31310Y32441D02*
X33367D01*
X27165Y32362D02*
X33350D01*
X27165Y32283D02*
X33346D01*
X27165Y32205D02*
X33346D01*
X27165Y32126D02*
X33209D01*
X27165Y31732D02*
X32579D01*
X27165Y31653D02*
X32579D01*
X27165Y32047D02*
X33209D01*
X27165Y31811D02*
X32579D01*
X31310Y32520D02*
X31599D01*
X31310Y32372D02*
Y32535D01*
X30719Y32372D02*
Y33002D01*
X27165Y28452D02*
Y35110D01*
Y32441D02*
X30719D01*
Y32372D02*
X31310D01*
X27165Y31968D02*
X32579D01*
X27165Y31890D02*
X32579D01*
X33209Y31496D02*
Y31614D01*
X33051Y31575D02*
X33209D01*
X33051Y31417D02*
X33209D01*
X33051Y31339D02*
X33209D01*
X33051Y31260D02*
X33209D01*
X33110Y30945D02*
X33209D01*
X33110Y30866D02*
X33209D01*
X33031Y31181D02*
X33209D01*
X33110Y31024D02*
X33209D01*
X33051Y31250D02*
Y31585D01*
X33031Y31171D02*
Y31250D01*
X27165Y31260D02*
X32579D01*
Y31250D02*
Y31585D01*
X33031Y31171D02*
X33110D01*
Y31102D02*
X33209D01*
X32520Y31171D02*
X32598D01*
Y31250D01*
X33209Y30827D02*
Y31457D01*
X33110Y30541D02*
Y31171D01*
Y29872D02*
Y30502D01*
X32520Y30541D02*
X33110D01*
X32520Y30502D02*
X33110D01*
X32815Y30187D02*
Y30463D01*
Y30187D02*
X33071D01*
X32559D02*
X32815D01*
X32520Y29872D02*
X33110D01*
X32520Y30541D02*
Y31171D01*
X32815Y29911D02*
Y30187D01*
X32520Y29872D02*
Y30502D01*
X28632Y29793D02*
X28632Y28740D01*
X27589Y29793D02*
X28632Y29793D01*
X27589Y28740D02*
X28632Y28740D01*
X27165Y29527D02*
X27589D01*
Y29793D02*
X27589Y28740D01*
X27165Y31339D02*
X32579D01*
X27165Y31417D02*
X32579D01*
X27165Y31181D02*
X32598D01*
X27165Y31575D02*
X32579D01*
X27165Y31496D02*
X32579D01*
X27165Y30945D02*
X32520D01*
X27165Y30866D02*
X32520D01*
X27165Y31102D02*
X32520D01*
X27165Y31024D02*
X32520D01*
X27165Y30630D02*
X32520D01*
X27165Y30551D02*
X32520D01*
X27165Y30787D02*
X32520D01*
X27165Y30709D02*
X32520D01*
X27165Y30315D02*
X32520D01*
X27165Y30236D02*
X32520D01*
X27165Y30472D02*
X32520D01*
X27165Y30394D02*
X32520D01*
X27165Y29921D02*
X32520D01*
X27165Y30000D02*
X32520D01*
X27165Y29213D02*
X27589D01*
X27165Y30157D02*
X32520D01*
X27165Y30079D02*
X32520D01*
X27165Y28819D02*
X27589D01*
X27165Y28452D02*
X28239D01*
X27165Y28976D02*
X27589D01*
X27165Y28898D02*
X27589D01*
X27165Y29606D02*
X27589D01*
X27165Y29449D02*
X27589D01*
X27165Y29764D02*
X27589D01*
X27165Y29685D02*
X27589D01*
X27165Y29134D02*
X27589D01*
X27165Y29055D02*
X27589D01*
X27165Y29370D02*
X27589D01*
X27165Y29291D02*
X27589D01*
X31112Y36946D02*
Y37096D01*
X30988Y37221D02*
X31112Y37096D01*
X30735Y37087D02*
X31112D01*
X30671Y37008D02*
X31112D01*
X30749Y36614D02*
X31112D01*
X30771Y36693D02*
X31089D01*
X31112Y36594D02*
Y36657D01*
X30706Y36929D02*
X31101D01*
X30699Y36535D02*
X31171D01*
X30774Y37244D02*
X30821D01*
X30752Y36850D02*
X31068D01*
X30766Y37165D02*
X31043D01*
X30772Y36772D02*
X31065D01*
X32362Y35492D02*
Y35935D01*
X32343Y35472D02*
Y35955D01*
X32274Y35404D02*
X32343Y35472D01*
X31752Y35404D02*
X32274D01*
X32185Y35315D02*
X32274Y35404D01*
X31467Y35354D02*
X32224D01*
X31506Y35315D02*
X32185D01*
X31614Y36093D02*
X31677D01*
X31112Y36594D02*
X31614Y36093D01*
X31677D02*
X31739Y36031D01*
X30591Y36457D02*
X31250D01*
X31388Y35433D02*
X31752D01*
Y35404D02*
Y36019D01*
X31309Y35512D02*
X31752D01*
X31309Y35512D02*
X31506Y35315D01*
X29331Y36476D02*
Y36752D01*
X29075D02*
X29331D01*
X28740Y36732D02*
X29035Y37028D01*
X28740Y36693D02*
X29035D01*
X29626Y36457D02*
X29792D01*
X29626Y36535D02*
X29685D01*
X29626Y36437D02*
Y36637D01*
X28740Y36535D02*
X29035D01*
Y36437D02*
X29626D01*
X28858Y36850D02*
X29035D01*
X28937Y36929D02*
X29035D01*
Y36437D02*
Y37028D01*
X28779Y36772D02*
X29035D01*
X28740Y36526D02*
Y36732D01*
Y36614D02*
X29035D01*
X27274Y36526D02*
X28740D01*
X28012Y36457D02*
X29035D01*
X27224Y36476D02*
X27274Y36526D01*
X27224Y36476D02*
X28012D01*
Y36063D02*
X31707D01*
X28012Y36142D02*
X31565D01*
X28012Y35984D02*
X31752D01*
X28012Y36299D02*
X31408D01*
X28012Y36220D02*
X31486D01*
X28012Y35669D02*
X31752D01*
X28012Y35748D02*
X31752D01*
X28012Y35590D02*
X31752D01*
X28012Y35905D02*
X31752D01*
X28012Y35827D02*
X31752D01*
X29914Y36431D02*
X30469D01*
X28012Y35571D02*
Y36476D01*
Y36378D02*
X31329D01*
X27867Y35512D02*
X31309D01*
X27802Y35571D02*
X28012D01*
X33142Y36736D02*
X33776D01*
X34094Y36417D01*
Y35187D02*
Y36417D01*
X31967Y37236D02*
X33142D01*
X40797Y34469D02*
Y34852D01*
X39990Y35659D02*
X40797Y34852D01*
X33701Y32785D02*
Y33238D01*
X33898Y32318D02*
Y33238D01*
X34173Y31476D02*
Y31653D01*
X33504Y31811D02*
Y32310D01*
X35079Y33022D02*
X35157Y32943D01*
X35079Y33022D02*
Y33238D01*
X34882Y32996D02*
Y33238D01*
Y32996D02*
X35179Y32698D01*
X35248D01*
X34685Y32884D02*
Y33238D01*
Y32884D02*
X34765Y32803D01*
Y32767D02*
Y32803D01*
X34783Y32451D02*
X35374D01*
X35935Y33012D01*
X36073D01*
X34488Y32490D02*
Y33238D01*
Y32490D02*
X34528Y32451D01*
X34783D01*
X34291Y32303D02*
Y33238D01*
Y32303D02*
X34498Y32096D01*
X34783D01*
X33140Y33524D02*
X33415D01*
X33012Y33396D02*
X33140Y33524D01*
X33012Y33238D02*
Y33396D01*
X32972Y34114D02*
X33415D01*
X32913Y34173D02*
X32972Y34114D01*
X33140Y34311D02*
X33415D01*
X32736Y33917D02*
X33415D01*
X32096Y34557D02*
X32736Y33917D01*
X32835Y33720D02*
X33415D01*
X32096Y32982D02*
X32835Y33720D01*
X31015Y32687D02*
X31270D01*
X31565Y32982D01*
X32096D01*
X31014Y34783D02*
X31319D01*
X31545Y34557D01*
X32096D01*
X34783Y32096D02*
X35906D01*
X36132Y31870D01*
Y31555D02*
Y31870D01*
X35364Y33917D02*
X35600D01*
X35807Y33711D01*
X35364Y34114D02*
X35748D01*
X35846Y34016D01*
X36181D01*
X36220Y34055D01*
X35364Y34311D02*
X35876D01*
X35925Y34360D01*
X37234D01*
X37717Y33878D01*
Y31969D02*
Y33878D01*
Y31969D02*
X38140Y31545D01*
X39449D01*
X35364Y34508D02*
X35787D01*
X35817Y34537D01*
X37280D01*
X37874Y33943D01*
Y32421D02*
Y33943D01*
Y32421D02*
X37963Y32333D01*
X39449D01*
X35364Y34705D02*
X37335D01*
X38031Y34008D01*
Y33337D02*
Y34008D01*
Y33337D02*
X38248Y33120D01*
X39449D01*
X35364Y34902D02*
X37411D01*
X35079Y35187D02*
Y35482D01*
X35384Y35787D01*
X35709D01*
X34882Y36014D02*
X34882Y36014D01*
X34685Y35187D02*
Y35374D01*
X34488Y35571D02*
X34685Y35374D01*
X34488Y35571D02*
Y36506D01*
X34606Y36624D01*
X34882D01*
X34882Y35187D02*
Y36014D01*
X34882Y36949D02*
X36900D01*
X37234Y36614D01*
X34882Y36624D02*
Y36949D01*
Y37274D01*
X33898Y35187D02*
Y36063D01*
X30192Y37736D02*
X31102D01*
X33701Y35187D02*
Y35896D01*
X31033Y37451D02*
X31604Y36880D01*
X30935Y37451D02*
X31033D01*
X30192Y38236D02*
X30691D01*
X30935Y37992D01*
X32953Y34498D02*
X33140Y34311D01*
X33002Y34902D02*
X33415D01*
X32675Y35228D02*
X33002Y34902D01*
X32620Y35228D02*
X32675D01*
X33297Y36299D02*
X33701Y35896D01*
X33504Y36457D02*
X33898Y36063D01*
X32992Y36142D02*
X33110Y36024D01*
X31299Y36801D02*
X31447Y36654D01*
X31752Y37451D02*
X31967Y37236D01*
X31102Y37736D02*
X31762Y37077D01*
X31752Y37451D02*
Y37500D01*
X35955Y33425D02*
X36191Y33661D01*
X37697Y35423D02*
X38339Y36065D01*
X40511D01*
X40236Y34695D02*
Y34951D01*
Y33907D02*
X40797Y34469D01*
X39990Y35659D02*
Y35738D01*
X31762Y36687D02*
Y37077D01*
Y36687D02*
X31992Y36457D01*
X33504D01*
X31927Y36299D02*
X33297D01*
X31604Y36622D02*
X31927Y36299D01*
X31604Y36622D02*
Y36880D01*
X31447Y36545D02*
Y36654D01*
Y36545D02*
X31850Y36142D01*
X32992D01*
X38406Y33907D02*
X39449D01*
X37411Y34902D02*
X38406Y33907D01*
X38012Y34695D02*
X39449D01*
X37234Y35472D02*
Y36614D01*
Y35472D02*
X38012Y34695D01*
X38081Y35059D02*
X38878D01*
X39055Y35236D01*
X39951D01*
X40236Y34951D01*
X39626Y35561D02*
X39951Y35236D01*
X38150Y35482D02*
X38524Y35856D01*
X39872D01*
X39990Y35738D01*
X39587Y38254D02*
X39760Y38428D01*
X40511D01*
X39587Y36329D02*
Y38254D01*
X35157Y32943D02*
X35325D01*
X35807Y33425D01*
X35955D01*
D14*
X33142Y38236D02*
D03*
Y37236D02*
D03*
Y36736D02*
D03*
X30192Y38236D02*
D03*
Y37236D02*
D03*
Y36736D02*
D03*
X33142Y37736D02*
D03*
X30192D02*
D03*
D15*
X34173Y29469D02*
D03*
Y29803D02*
D03*
Y30315D02*
D03*
Y30650D02*
D03*
Y31142D02*
D03*
Y31476D02*
D03*
X32815Y31811D02*
D03*
Y31476D02*
D03*
D16*
X34783Y32096D02*
D03*
Y32451D02*
D03*
D17*
X36969Y32274D02*
D03*
D18*
X32096Y34557D02*
D03*
Y32982D02*
D03*
D19*
X33415Y33524D02*
D03*
Y33720D02*
D03*
Y33917D02*
D03*
Y34114D02*
D03*
Y34311D02*
D03*
Y34508D02*
D03*
Y34705D02*
D03*
Y34902D02*
D03*
X35364D02*
D03*
Y34705D02*
D03*
Y34508D02*
D03*
Y34311D02*
D03*
Y34114D02*
D03*
Y33917D02*
D03*
Y33720D02*
D03*
Y33524D02*
D03*
D20*
X33701Y35187D02*
D03*
X33898D02*
D03*
X34094D02*
D03*
X34291D02*
D03*
X34488D02*
D03*
X34685D02*
D03*
X34882D02*
D03*
X35079D02*
D03*
Y33238D02*
D03*
X34882D02*
D03*
X34685D02*
D03*
X34488D02*
D03*
X34291D02*
D03*
X34094D02*
D03*
X33898D02*
D03*
X33701D02*
D03*
D21*
X34390Y34213D02*
D03*
D40*
X34488Y31427D02*
G03*
X34369Y31476I-119J-119D01*
G01*
X34587Y31328D02*
G03*
X34705Y31280I118J118D01*
G01*
X34970Y31250D02*
G03*
X34899Y31280I-71J-71D01*
G01*
X34173Y31476D02*
X34369D01*
X34488Y31427D02*
X34587Y31328D01*
X34705Y31280D02*
X34899D01*
X32815Y31811D02*
X33504D01*
X35276Y36132D02*
Y36457D01*
X35354Y36535D01*
X35709D01*
X36476D01*
X36476Y36535D01*
D41*
X28110Y29272D02*
D03*
X38813Y38270D02*
D03*
D42*
X34843Y28031D02*
D03*
D43*
X35347Y28234D02*
D03*
X36160Y28231D02*
D03*
D44*
X34843Y28888D02*
D03*
X34173D02*
D03*
X35482Y29793D02*
D03*
X34813D02*
D03*
X36742Y33012D02*
D03*
X36073D02*
D03*
X36801Y31555D02*
D03*
X36132D02*
D03*
X36890Y34055D02*
D03*
X36220D02*
D03*
X34882Y37274D02*
D03*
X35551D02*
D03*
D45*
X33504Y31142D02*
D03*
Y31811D02*
D03*
X34931Y30630D02*
D03*
Y31299D02*
D03*
X32815Y30856D02*
D03*
Y30187D02*
D03*
X31015Y33356D02*
D03*
Y32687D02*
D03*
X31014Y34114D02*
D03*
Y34783D02*
D03*
X29331Y37421D02*
D03*
Y36752D02*
D03*
D46*
X35709Y36535D02*
D03*
Y35787D02*
D03*
D47*
X36476Y36535D02*
D03*
Y35827D02*
D03*
D48*
X34882Y36624D02*
D03*
Y36014D02*
D03*
D49*
X32657Y35738D02*
D03*
X32047D02*
D03*
D50*
X40098Y37640D02*
X40511D01*
X33142Y38236D02*
X33685D01*
X33142D02*
Y38502D01*
X32599Y38236D02*
X33142D01*
X27559Y36969D02*
X27972D01*
X30192Y37236D02*
X30735D01*
X30192Y36736D02*
X30735D01*
X32047Y35443D02*
Y35738D01*
X31791D02*
X32047D01*
X32303D01*
X30192Y36470D02*
Y36736D01*
X27559Y36024D02*
Y36437D01*
Y36024D02*
X27972D01*
D51*
X32274Y37736D02*
X33142D01*
X32146Y37864D02*
X32274Y37736D01*
X31545Y37864D02*
X32146D01*
X36860Y37726D02*
X38238Y36348D01*
X33878Y37726D02*
X36860D01*
X34173Y28888D02*
Y29469D01*
Y29803D02*
X34803D01*
X34813Y29793D01*
X34173Y29803D02*
Y30315D01*
Y30650D02*
Y31142D01*
X33504Y31142D02*
X34173D01*
X34173Y31142D01*
X32815Y30856D02*
Y31476D01*
X31476Y37795D02*
X31545Y37864D01*
X38238Y36348D02*
X39124D01*
X40827Y31742D02*
Y34075D01*
X40630Y31545D02*
X40827Y31742D01*
X40236Y31545D02*
X40630D01*
D52*
X34843Y27567D02*
Y27632D01*
Y27567D02*
X35208Y27201D01*
X34843Y28031D02*
Y28888D01*
D53*
Y28031D02*
X34843Y28031D01*
D54*
X32657Y35738D02*
X32864D01*
X33248Y35354D01*
X33278D01*
D55*
X27559Y36024D02*
X28248D01*
D56*
X27559Y36969D02*
X28297D01*
X39904Y37640D02*
X40511D01*
D57*
X35740Y27133D02*
D03*
D58*
X36882Y26383D02*
D03*
D59*
X37115Y27886D02*
D03*
D60*
X35347Y28031D02*
D03*
X36160D02*
D03*
D61*
X38689Y26925D02*
D03*
D62*
X34083Y25949D02*
D03*
D63*
X35740Y26737D02*
D03*
D64*
X36219Y28489D02*
D03*
D65*
X35517Y28512D02*
D03*
D66*
X40511Y36065D02*
D03*
Y36853D02*
D03*
Y37640D02*
D03*
X27559Y35236D02*
D03*
Y36969D02*
D03*
Y37756D02*
D03*
X40236Y32333D02*
D03*
Y33120D02*
D03*
Y33907D02*
D03*
Y34695D02*
D03*
X39449Y31545D02*
D03*
Y32333D02*
D03*
Y33120D02*
D03*
Y33907D02*
D03*
Y34695D02*
D03*
D67*
X40511Y38428D02*
D03*
X27559Y36024D02*
D03*
Y38543D02*
D03*
D68*
X40236Y31545D02*
D03*
D69*
X33917Y38236D02*
D03*
X32386D02*
D03*
X33132Y38661D02*
D03*
X37382Y33839D02*
D03*
X37707Y36201D02*
D03*
X34390Y34213D02*
D03*
X35248Y32698D02*
D03*
X34765Y32767D02*
D03*
X33012Y33238D02*
D03*
X32913Y34173D02*
D03*
X35807Y33711D02*
D03*
X34882Y35679D02*
D03*
X35276Y36132D02*
D03*
X30935Y37451D02*
D03*
Y37992D02*
D03*
X32953Y34498D02*
D03*
X32620Y35228D02*
D03*
X31299Y36801D02*
D03*
X31752Y37500D02*
D03*
X31476Y37795D02*
D03*
X30856Y37057D02*
D03*
X36191Y33661D02*
D03*
X37697Y35423D02*
D03*
X39587Y36329D02*
D03*
X39990Y35738D02*
D03*
X39124Y36348D02*
D03*
X40827Y34075D02*
D03*
X38081Y35059D02*
D03*
X38150Y35482D02*
D03*
X39626Y35561D02*
D03*
X33435Y32943D02*
D03*
X33356Y32667D02*
D03*
X33258Y32382D02*
D03*
X33130Y32136D02*
D03*
X32801D02*
D03*
X33146Y31476D02*
D03*
X33238Y30709D02*
D03*
X33533Y30719D02*
D03*
X33839Y30748D02*
D03*
X34518Y30974D02*
D03*
X34528Y30679D02*
D03*
X34518Y30384D02*
D03*
X34783Y30187D02*
D03*
X35069Y30177D02*
D03*
X35394Y30246D02*
D03*
X35423Y30531D02*
D03*
X35709Y30276D02*
D03*
X35945Y30089D02*
D03*
X35994Y29724D02*
D03*
X35630Y29370D02*
D03*
X35354Y29360D02*
D03*
X35081D02*
D03*
X34813Y29370D02*
D03*
X34537Y29370D02*
D03*
X35906Y29449D02*
D03*
X34242Y28514D02*
D03*
X33976D02*
D03*
X34518D02*
D03*
X33770Y28671D02*
D03*
Y28937D02*
D03*
X33789Y29222D02*
D03*
X33809Y29478D02*
D03*
Y29793D02*
D03*
X33818Y30079D02*
D03*
X33829Y30413D02*
D03*
X33895Y31781D02*
D03*
X34387Y31870D02*
D03*
X34587Y31713D02*
D03*
X34862Y31732D02*
D03*
X35148Y31732D02*
D03*
X35354Y31506D02*
D03*
X35364Y31181D02*
D03*
X35384Y30866D02*
D03*
X32786Y29685D02*
D03*
X33178Y29754D02*
D03*
X33258Y30069D02*
D03*
Y30413D02*
D03*
X32494Y29774D02*
D03*
X32402Y30089D02*
D03*
X32396Y30384D02*
D03*
X32411Y30699D02*
D03*
X32421Y31024D02*
D03*
X32425Y31348D02*
D03*
X32435Y31663D02*
D03*
X32451Y31959D02*
D03*
X32372Y33760D02*
D03*
X31919Y33770D02*
D03*
X31447Y34055D02*
D03*
X31476Y33583D02*
D03*
X30600Y34114D02*
D03*
X30591Y33350D02*
D03*
X28878Y37411D02*
D03*
X29341Y37933D02*
D03*
X36801Y31102D02*
D03*
X37333Y31554D02*
D03*
X37264Y33022D02*
D03*
X38652Y34321D02*
D03*
X38593Y33514D02*
D03*
X38573Y32746D02*
D03*
Y31959D02*
D03*
X36978Y35817D02*
D03*
X36988Y36329D02*
D03*
X36476Y35335D02*
D03*
X38661Y35465D02*
D03*
X34203Y36890D02*
D03*
X36181Y32310D02*
D03*
X36099Y37283D02*
D03*
X40797Y28533D02*
D03*
X40532D02*
D03*
X40266D02*
D03*
X40000D02*
D03*
X39203D02*
D03*
X39469D02*
D03*
X39734D02*
D03*
X38406D02*
D03*
X38671D02*
D03*
X38937D02*
D03*
X37608D02*
D03*
X37874D02*
D03*
X38140D02*
D03*
X36811D02*
D03*
X37077D02*
D03*
X37343D02*
D03*
X36014D02*
D03*
X36280D02*
D03*
X36545D02*
D03*
X35217D02*
D03*
X35482D02*
D03*
X35748D02*
D03*
X32953D02*
D03*
X33219D02*
D03*
X33484D02*
D03*
X32156D02*
D03*
X32421D02*
D03*
X32687D02*
D03*
X31358D02*
D03*
X31624D02*
D03*
X31890D02*
D03*
X30561D02*
D03*
X30827D02*
D03*
X31093D02*
D03*
X29764D02*
D03*
X30030D02*
D03*
X30295D02*
D03*
X28967D02*
D03*
X29232D02*
D03*
X29498D02*
D03*
X28169D02*
D03*
X28435D02*
D03*
X28701D02*
D03*
X27372D02*
D03*
X27638D02*
D03*
X27904D02*
D03*
X27825Y34154D02*
D03*
X29606Y33543D02*
D03*
X28228Y32608D02*
D03*
X29902Y32008D02*
D03*
X28583Y31122D02*
D03*
X30778Y30935D02*
D03*
X29596Y29754D02*
D03*
X31453Y29528D02*
D03*
X36958Y29242D02*
D03*
X37885Y30591D02*
D03*
X39193Y29390D02*
D03*
X40183Y30443D02*
D03*
X35463Y38652D02*
D03*
X36663Y38189D02*
D03*
X38189Y37264D02*
D03*
X39734Y38799D02*
D03*
X28714Y38661D02*
D03*
D70*
X33878Y37726D02*
D03*
X33278Y35354D02*
D03*
D71*
X33110Y36024D02*
D03*
X31201Y36289D02*
D03*
M02*
