G04*
G04 #@! TF.GenerationSoftware,Altium Limited,Altium Designer,18.1.7 (191)*
G04*
G04 Layer_Physical_Order=2*
G04 Layer_Color=16711680*
%FSLAX24Y24*%
%MOIN*%
G70*
G01*
G75*
%ADD13C,0.0236*%
%ADD14C,0.0079*%
%ADD100C,0.0197*%
%ADD101C,0.0394*%
%ADD104C,0.0205*%
%ADD105C,0.0600*%
%ADD106R,0.0600X0.0600*%
%ADD107C,0.1181*%
%ADD108R,0.1181X0.1181*%
%ADD109C,0.0630*%
%ADD110R,0.0630X0.0630*%
%ADD111C,0.0709*%
%ADD112R,0.0709X0.0709*%
%ADD113R,0.0630X0.0630*%
%ADD114C,0.2362*%
%ADD115C,0.0236*%
%ADD116C,0.0394*%
G36*
X7443Y34688D02*
X7449Y34620D01*
X7459Y34561D01*
X7472Y34510D01*
X7490Y34466D01*
X7512Y34431D01*
X7537Y34403D01*
X7567Y34383D01*
X7600Y34372D01*
X7638Y34368D01*
X6850D01*
X6888Y34372D01*
X6921Y34383D01*
X6951Y34403D01*
X6976Y34431D01*
X6998Y34466D01*
X7016Y34510D01*
X7030Y34561D01*
X7039Y34620D01*
X7045Y34688D01*
X7047Y34763D01*
X7441D01*
X7443Y34688D01*
D02*
G37*
G36*
X15658Y28533D02*
X15646Y28533D01*
X15635Y28532D01*
X15624Y28530D01*
X15613Y28528D01*
X15603Y28524D01*
X15593Y28520D01*
X15584Y28515D01*
X15575Y28509D01*
X15566Y28502D01*
X15558Y28495D01*
X15503Y28551D01*
X15510Y28559D01*
X15517Y28567D01*
X15523Y28576D01*
X15528Y28585D01*
X15532Y28595D01*
X15535Y28605D01*
X15538Y28616D01*
X15540Y28627D01*
X15541Y28638D01*
X15541Y28650D01*
X15658Y28533D01*
D02*
G37*
G36*
X12701Y28480D02*
X12692Y28489D01*
X12684Y28496D01*
X12674Y28502D01*
X12665Y28508D01*
X12655Y28513D01*
X12645Y28517D01*
X12635Y28520D01*
X12625Y28522D01*
X12614Y28523D01*
X12603Y28524D01*
Y28602D01*
X12614Y28603D01*
X12625Y28604D01*
X12635Y28606D01*
X12645Y28609D01*
X12655Y28613D01*
X12665Y28618D01*
X12674Y28624D01*
X12684Y28630D01*
X12692Y28637D01*
X12701Y28646D01*
Y28480D01*
D02*
G37*
G36*
X11747Y28637D02*
X11755Y28630D01*
X11765Y28624D01*
X11774Y28618D01*
X11784Y28613D01*
X11794Y28609D01*
X11804Y28606D01*
X11814Y28604D01*
X11825Y28603D01*
X11836Y28602D01*
Y28524D01*
X11825Y28523D01*
X11814Y28522D01*
X11804Y28520D01*
X11794Y28517D01*
X11784Y28513D01*
X11774Y28508D01*
X11765Y28502D01*
X11755Y28496D01*
X11747Y28489D01*
X11738Y28480D01*
Y28646D01*
X11747Y28637D01*
D02*
G37*
G36*
X15383Y28320D02*
X15376Y28311D01*
X15369Y28303D01*
X15363Y28294D01*
X15358Y28285D01*
X15354Y28275D01*
X15350Y28265D01*
X15348Y28254D01*
X15346Y28243D01*
X15345Y28232D01*
X15344Y28220D01*
X15228Y28337D01*
X15239Y28337D01*
X15251Y28338D01*
X15262Y28340D01*
X15273Y28342D01*
X15283Y28346D01*
X15293Y28350D01*
X15302Y28355D01*
X15311Y28361D01*
X15319Y28368D01*
X15327Y28375D01*
X15383Y28320D01*
D02*
G37*
G36*
X17664Y27127D02*
X17669Y27119D01*
X17675Y27111D01*
X17681Y27105D01*
X17689Y27099D01*
X17697Y27095D01*
X17706Y27091D01*
X17716Y27089D01*
X17726Y27087D01*
X17738Y27087D01*
X17698Y27008D01*
X17688Y27008D01*
X17667Y27006D01*
X17657Y27004D01*
X17635Y27000D01*
X17625Y26997D01*
X17603Y26991D01*
X17593Y26987D01*
X17660Y27136D01*
X17664Y27127D01*
D02*
G37*
G36*
X18105Y26965D02*
X18096Y26973D01*
X18087Y26980D01*
X18078Y26987D01*
X18069Y26992D01*
X18059Y26997D01*
X18049Y27001D01*
X18039Y27004D01*
X18028Y27006D01*
X18018Y27007D01*
X18007Y27008D01*
Y27087D01*
X18018Y27087D01*
X18028Y27088D01*
X18039Y27091D01*
X18049Y27094D01*
X18059Y27097D01*
X18069Y27102D01*
X18078Y27108D01*
X18087Y27114D01*
X18096Y27122D01*
X18105Y27130D01*
Y26965D01*
D02*
G37*
G36*
X17717Y26789D02*
X17725Y26781D01*
X17733Y26774D01*
X17742Y26768D01*
X17752Y26763D01*
X17761Y26759D01*
X17771Y26756D01*
X17782Y26754D01*
X17792Y26752D01*
X17803Y26752D01*
X17796Y26673D01*
X17786Y26673D01*
X17775Y26672D01*
X17764Y26670D01*
X17754Y26667D01*
X17744Y26663D01*
X17734Y26659D01*
X17724Y26654D01*
X17714Y26648D01*
X17705Y26641D01*
X17695Y26633D01*
X17709Y26798D01*
X17717Y26789D01*
D02*
G37*
G36*
X18095Y26630D02*
X18086Y26638D01*
X18077Y26646D01*
X18068Y26652D01*
X18059Y26658D01*
X18049Y26662D01*
X18039Y26666D01*
X18029Y26669D01*
X18019Y26672D01*
X18008Y26673D01*
X17997Y26673D01*
Y26752D01*
X18008Y26752D01*
X18019Y26754D01*
X18029Y26756D01*
X18039Y26759D01*
X18049Y26763D01*
X18059Y26768D01*
X18068Y26773D01*
X18077Y26780D01*
X18086Y26787D01*
X18095Y26795D01*
Y26630D01*
D02*
G37*
G36*
X16544Y26125D02*
X16537Y26117D01*
X16530Y26108D01*
X16525Y26099D01*
X16520Y26090D01*
X16515Y26080D01*
X16512Y26070D01*
X16509Y26059D01*
X16507Y26048D01*
X16506Y26037D01*
X16506Y26025D01*
X16389Y26142D01*
X16401Y26142D01*
X16412Y26143D01*
X16423Y26145D01*
X16434Y26148D01*
X16444Y26151D01*
X16454Y26155D01*
X16463Y26160D01*
X16472Y26166D01*
X16481Y26173D01*
X16489Y26180D01*
X16544Y26125D01*
D02*
G37*
G36*
X7466Y25970D02*
X7459Y25961D01*
X7452Y25952D01*
X7447Y25943D01*
X7442Y25933D01*
X7438Y25923D01*
X7435Y25913D01*
X7433Y25902D01*
X7432Y25892D01*
X7431Y25881D01*
X7352D01*
X7352Y25892D01*
X7351Y25902D01*
X7348Y25913D01*
X7345Y25923D01*
X7342Y25933D01*
X7337Y25943D01*
X7331Y25952D01*
X7325Y25961D01*
X7317Y25970D01*
X7309Y25979D01*
X7474D01*
X7466Y25970D01*
D02*
G37*
G36*
X16950Y26006D02*
X16952Y25995D01*
X16955Y25984D01*
X16959Y25973D01*
X16963Y25963D01*
X16968Y25953D01*
X16974Y25944D01*
X16980Y25935D01*
X16986Y25927D01*
X16994Y25919D01*
X16946Y25855D01*
X16938Y25863D01*
X16929Y25869D01*
X16920Y25875D01*
X16911Y25880D01*
X16901Y25883D01*
X16891Y25886D01*
X16881Y25888D01*
X16870Y25888D01*
X16859Y25888D01*
X16848Y25887D01*
X16948Y26018D01*
X16950Y26006D01*
D02*
G37*
G36*
X17466Y25921D02*
X17459Y25912D01*
X17452Y25903D01*
X17447Y25893D01*
X17442Y25884D01*
X17438Y25874D01*
X17435Y25864D01*
X17433Y25853D01*
X17432Y25843D01*
X17431Y25832D01*
X17352D01*
X17352Y25843D01*
X17351Y25853D01*
X17348Y25864D01*
X17345Y25874D01*
X17342Y25884D01*
X17337Y25893D01*
X17331Y25903D01*
X17325Y25912D01*
X17317Y25921D01*
X17309Y25929D01*
X17474D01*
X17466Y25921D01*
D02*
G37*
G36*
X7161Y25714D02*
X7154Y25705D01*
X7147Y25696D01*
X7142Y25687D01*
X7137Y25677D01*
X7133Y25667D01*
X7130Y25657D01*
X7128Y25647D01*
X7126Y25636D01*
X7126Y25625D01*
X7047D01*
X7047Y25636D01*
X7046Y25647D01*
X7043Y25657D01*
X7040Y25667D01*
X7036Y25677D01*
X7032Y25687D01*
X7026Y25696D01*
X7020Y25705D01*
X7012Y25714D01*
X7004Y25723D01*
X7169D01*
X7161Y25714D01*
D02*
G37*
G36*
X16453Y25759D02*
X16471Y25755D01*
X16480Y25753D01*
X16511Y25749D01*
X16521Y25749D01*
X16544Y25748D01*
X16595Y25669D01*
X16583Y25669D01*
X16573Y25667D01*
X16563Y25665D01*
X16554Y25661D01*
X16546Y25657D01*
X16540Y25652D01*
X16534Y25645D01*
X16529Y25638D01*
X16525Y25630D01*
X16522Y25620D01*
X16444Y25762D01*
X16453Y25759D01*
D02*
G37*
G36*
X16108Y25675D02*
X16108Y25664D01*
X16108Y25654D01*
X16110Y25644D01*
X16112Y25634D01*
X16116Y25624D01*
X16120Y25615D01*
X16126Y25606D01*
X16132Y25597D01*
X16140Y25589D01*
X16073Y25544D01*
X16066Y25551D01*
X16057Y25558D01*
X16049Y25564D01*
X16039Y25570D01*
X16030Y25575D01*
X16020Y25580D01*
X16009Y25584D01*
X15998Y25587D01*
X15986Y25590D01*
X15974Y25592D01*
X16110Y25687D01*
X16108Y25675D01*
D02*
G37*
G36*
X16796Y25547D02*
X16805Y25540D01*
X16814Y25533D01*
X16823Y25527D01*
X16833Y25523D01*
X16843Y25519D01*
X16853Y25516D01*
X16863Y25514D01*
X16874Y25512D01*
X16885Y25512D01*
Y25433D01*
X16874Y25433D01*
X16863Y25431D01*
X16853Y25429D01*
X16843Y25426D01*
X16833Y25422D01*
X16823Y25417D01*
X16814Y25412D01*
X16805Y25405D01*
X16796Y25398D01*
X16787Y25390D01*
Y25555D01*
X16796Y25547D01*
D02*
G37*
G36*
X6652Y25217D02*
X6640Y25216D01*
X6629Y25215D01*
X6618Y25213D01*
X6607Y25211D01*
X6597Y25207D01*
X6587Y25203D01*
X6578Y25198D01*
X6569Y25192D01*
X6561Y25185D01*
X6553Y25178D01*
X6497Y25234D01*
X6504Y25242D01*
X6511Y25250D01*
X6517Y25259D01*
X6522Y25268D01*
X6526Y25278D01*
X6530Y25288D01*
X6532Y25299D01*
X6534Y25310D01*
X6535Y25322D01*
X6535Y25333D01*
X6652Y25217D01*
D02*
G37*
G36*
X18498Y25163D02*
X18490Y25172D01*
X18481Y25179D01*
X18472Y25185D01*
X18462Y25191D01*
X18453Y25196D01*
X18443Y25200D01*
X18433Y25203D01*
X18422Y25205D01*
X18411Y25206D01*
X18400Y25207D01*
Y25285D01*
X18411Y25286D01*
X18422Y25287D01*
X18433Y25289D01*
X18443Y25292D01*
X18453Y25296D01*
X18462Y25301D01*
X18472Y25307D01*
X18481Y25313D01*
X18490Y25321D01*
X18498Y25329D01*
Y25163D01*
D02*
G37*
G36*
X11147Y25163D02*
X11140Y25154D01*
X11133Y25145D01*
X11128Y25136D01*
X11123Y25126D01*
X11119Y25116D01*
X11116Y25106D01*
X11114Y25095D01*
X11113Y25085D01*
X11112Y25074D01*
X11033D01*
X11033Y25085D01*
X11032Y25095D01*
X11030Y25106D01*
X11027Y25116D01*
X11023Y25126D01*
X11018Y25136D01*
X11012Y25145D01*
X11006Y25154D01*
X10998Y25163D01*
X10990Y25172D01*
X11156D01*
X11147Y25163D01*
D02*
G37*
G36*
X6835Y24917D02*
X6826Y24926D01*
X6817Y24933D01*
X6808Y24939D01*
X6799Y24945D01*
X6789Y24950D01*
X6779Y24954D01*
X6769Y24957D01*
X6759Y24959D01*
X6748Y24960D01*
X6737Y24961D01*
Y25039D01*
X6748Y25040D01*
X6759Y25041D01*
X6769Y25043D01*
X6779Y25046D01*
X6789Y25050D01*
X6799Y25055D01*
X6808Y25061D01*
X6817Y25067D01*
X6826Y25074D01*
X6835Y25083D01*
Y24917D01*
D02*
G37*
G36*
X18242Y24868D02*
X18234Y24876D01*
X18225Y24884D01*
X18216Y24890D01*
X18206Y24896D01*
X18197Y24901D01*
X18187Y24904D01*
X18177Y24908D01*
X18166Y24910D01*
X18156Y24911D01*
X18145Y24911D01*
Y24990D01*
X18156Y24991D01*
X18166Y24992D01*
X18177Y24994D01*
X18187Y24997D01*
X18197Y25001D01*
X18206Y25006D01*
X18216Y25011D01*
X18225Y25018D01*
X18234Y25025D01*
X18242Y25033D01*
Y24868D01*
D02*
G37*
G36*
X7400Y24872D02*
X7388Y24872D01*
X7377Y24871D01*
X7366Y24869D01*
X7355Y24866D01*
X7345Y24863D01*
X7335Y24858D01*
X7326Y24853D01*
X7317Y24848D01*
X7309Y24841D01*
X7301Y24833D01*
X7245Y24889D01*
X7252Y24897D01*
X7259Y24906D01*
X7265Y24915D01*
X7270Y24924D01*
X7274Y24934D01*
X7278Y24944D01*
X7280Y24955D01*
X7282Y24966D01*
X7283Y24977D01*
X7283Y24989D01*
X7400Y24872D01*
D02*
G37*
G36*
X16343Y24897D02*
X16352Y24890D01*
X16361Y24883D01*
X16370Y24878D01*
X16380Y24873D01*
X16390Y24869D01*
X16400Y24866D01*
X16411Y24864D01*
X16421Y24863D01*
X16432Y24862D01*
Y24783D01*
X16421Y24783D01*
X16411Y24782D01*
X16400Y24780D01*
X16390Y24777D01*
X16380Y24773D01*
X16370Y24768D01*
X16361Y24762D01*
X16352Y24756D01*
X16343Y24748D01*
X16334Y24740D01*
Y24906D01*
X16343Y24897D01*
D02*
G37*
G36*
X17909Y24559D02*
X17917Y24552D01*
X17926Y24546D01*
X17936Y24541D01*
X17946Y24537D01*
X17956Y24533D01*
X17966Y24531D01*
X17977Y24529D01*
X17989Y24528D01*
X18001Y24528D01*
X17884Y24411D01*
X17884Y24423D01*
X17883Y24434D01*
X17881Y24445D01*
X17878Y24456D01*
X17875Y24466D01*
X17870Y24476D01*
X17865Y24485D01*
X17859Y24494D01*
X17853Y24502D01*
X17845Y24510D01*
X17901Y24566D01*
X17909Y24559D01*
D02*
G37*
G36*
X18785Y24509D02*
X18793Y24503D01*
X18802Y24497D01*
X18812Y24492D01*
X18821Y24488D01*
X18832Y24484D01*
X18842Y24482D01*
X18853Y24480D01*
X18865Y24479D01*
X18877Y24478D01*
X18760Y24361D01*
X18760Y24373D01*
X18758Y24385D01*
X18757Y24396D01*
X18754Y24406D01*
X18751Y24417D01*
X18746Y24426D01*
X18741Y24436D01*
X18735Y24445D01*
X18729Y24453D01*
X18721Y24461D01*
X18777Y24517D01*
X18785Y24509D01*
D02*
G37*
G36*
X7302Y24350D02*
X7290Y24350D01*
X7279Y24349D01*
X7268Y24347D01*
X7257Y24345D01*
X7247Y24341D01*
X7237Y24337D01*
X7228Y24332D01*
X7219Y24326D01*
X7210Y24319D01*
X7202Y24312D01*
X7146Y24367D01*
X7154Y24376D01*
X7161Y24384D01*
X7166Y24393D01*
X7171Y24402D01*
X7176Y24412D01*
X7179Y24422D01*
X7182Y24433D01*
X7184Y24444D01*
X7185Y24455D01*
X7185Y24467D01*
X7302Y24350D01*
D02*
G37*
G36*
X6845Y24376D02*
X6854Y24368D01*
X6863Y24362D01*
X6872Y24356D01*
X6882Y24351D01*
X6892Y24347D01*
X6902Y24344D01*
X6913Y24342D01*
X6923Y24341D01*
X6934Y24341D01*
Y24262D01*
X6923Y24261D01*
X6913Y24260D01*
X6902Y24258D01*
X6892Y24255D01*
X6882Y24251D01*
X6872Y24246D01*
X6863Y24241D01*
X6854Y24234D01*
X6845Y24227D01*
X6836Y24218D01*
Y24384D01*
X6845Y24376D01*
D02*
G37*
G36*
X7646Y24114D02*
X7635Y24114D01*
X7623Y24113D01*
X7612Y24111D01*
X7601Y24108D01*
X7591Y24105D01*
X7581Y24101D01*
X7572Y24096D01*
X7563Y24090D01*
X7555Y24083D01*
X7547Y24076D01*
X7491Y24131D01*
X7498Y24139D01*
X7505Y24148D01*
X7511Y24157D01*
X7516Y24166D01*
X7520Y24176D01*
X7524Y24186D01*
X7526Y24197D01*
X7528Y24208D01*
X7529Y24219D01*
X7530Y24231D01*
X7646Y24114D01*
D02*
G37*
G36*
X19314Y24051D02*
X19305Y24054D01*
X19287Y24058D01*
X19277Y24060D01*
X19247Y24064D01*
X19237Y24064D01*
X19214Y24065D01*
X19163Y24144D01*
X19175Y24144D01*
X19185Y24146D01*
X19195Y24148D01*
X19204Y24152D01*
X19211Y24156D01*
X19218Y24161D01*
X19224Y24168D01*
X19229Y24175D01*
X19233Y24183D01*
X19236Y24193D01*
X19314Y24051D01*
D02*
G37*
G36*
X8080Y24016D02*
X8068Y24015D01*
X8056Y24014D01*
X8045Y24013D01*
X8034Y24010D01*
X8024Y24006D01*
X8014Y24002D01*
X8005Y23997D01*
X7996Y23991D01*
X7988Y23985D01*
X7980Y23977D01*
X7924Y24033D01*
X7931Y24041D01*
X7938Y24049D01*
X7944Y24058D01*
X7949Y24068D01*
X7953Y24077D01*
X7957Y24088D01*
X7959Y24098D01*
X7961Y24109D01*
X7962Y24121D01*
X7963Y24133D01*
X8080Y24016D01*
D02*
G37*
G36*
X19707Y23864D02*
X19699Y23867D01*
X19681Y23871D01*
X19671Y23873D01*
X19641Y23877D01*
X19630Y23877D01*
X19608Y23878D01*
X19557Y23957D01*
X19568Y23957D01*
X19579Y23959D01*
X19589Y23961D01*
X19597Y23965D01*
X19605Y23969D01*
X19612Y23974D01*
X19618Y23981D01*
X19623Y23988D01*
X19627Y23996D01*
X19630Y24006D01*
X19707Y23864D01*
D02*
G37*
G36*
X6993Y24002D02*
X7001Y23994D01*
X7011Y23988D01*
X7020Y23982D01*
X7030Y23977D01*
X7040Y23973D01*
X7050Y23970D01*
X7060Y23968D01*
X7071Y23967D01*
X7082Y23967D01*
Y23888D01*
X7071Y23887D01*
X7060Y23886D01*
X7050Y23884D01*
X7040Y23881D01*
X7030Y23877D01*
X7020Y23872D01*
X7011Y23867D01*
X7001Y23860D01*
X6993Y23853D01*
X6984Y23844D01*
Y24010D01*
X6993Y24002D01*
D02*
G37*
G36*
X7317Y23687D02*
X7326Y23679D01*
X7335Y23673D01*
X7345Y23667D01*
X7354Y23662D01*
X7364Y23658D01*
X7375Y23655D01*
X7385Y23653D01*
X7396Y23652D01*
X7407Y23652D01*
Y23573D01*
X7396Y23572D01*
X7385Y23571D01*
X7375Y23569D01*
X7364Y23566D01*
X7354Y23562D01*
X7345Y23557D01*
X7335Y23552D01*
X7326Y23545D01*
X7317Y23538D01*
X7309Y23530D01*
Y23695D01*
X7317Y23687D01*
D02*
G37*
G36*
X8384Y23319D02*
X8377Y23311D01*
X8365Y23297D01*
X8361Y23291D01*
X8357Y23285D01*
X8354Y23280D01*
X8352Y23274D01*
X8351Y23270D01*
X8351Y23265D01*
X8352Y23261D01*
X8271Y23342D01*
X8275Y23341D01*
X8279Y23341D01*
X8284Y23342D01*
X8289Y23344D01*
X8295Y23347D01*
X8301Y23351D01*
X8307Y23355D01*
X8314Y23361D01*
X8328Y23374D01*
X8384Y23319D01*
D02*
G37*
G36*
X8815Y23250D02*
X8823Y23243D01*
X8832Y23237D01*
X8841Y23232D01*
X8851Y23228D01*
X8861Y23224D01*
X8872Y23222D01*
X8883Y23220D01*
X8894Y23219D01*
X8906Y23219D01*
X8789Y23102D01*
X8789Y23113D01*
X8788Y23125D01*
X8786Y23136D01*
X8783Y23147D01*
X8780Y23157D01*
X8776Y23167D01*
X8771Y23176D01*
X8765Y23185D01*
X8758Y23193D01*
X8751Y23201D01*
X8806Y23257D01*
X8815Y23250D01*
D02*
G37*
G36*
X17898Y23204D02*
X17907Y23197D01*
X17916Y23191D01*
X17925Y23185D01*
X17935Y23180D01*
X17945Y23176D01*
X17955Y23173D01*
X17966Y23171D01*
X17976Y23170D01*
X17987Y23169D01*
Y23091D01*
X17976Y23090D01*
X17966Y23089D01*
X17955Y23087D01*
X17945Y23084D01*
X17935Y23080D01*
X17925Y23075D01*
X17916Y23069D01*
X17907Y23063D01*
X17898Y23055D01*
X17889Y23047D01*
Y23213D01*
X17898Y23204D01*
D02*
G37*
G36*
X20890Y22909D02*
X20881Y22918D01*
X20873Y22925D01*
X20863Y22932D01*
X20854Y22937D01*
X20844Y22942D01*
X20834Y22946D01*
X20824Y22949D01*
X20814Y22951D01*
X20803Y22952D01*
X20792Y22953D01*
Y23031D01*
X20803Y23032D01*
X20814Y23033D01*
X20824Y23035D01*
X20834Y23038D01*
X20844Y23042D01*
X20854Y23047D01*
X20863Y23053D01*
X20873Y23059D01*
X20881Y23067D01*
X20890Y23075D01*
Y22909D01*
D02*
G37*
G36*
X11108Y22954D02*
X11122Y22942D01*
X11128Y22937D01*
X11134Y22934D01*
X11140Y22931D01*
X11145Y22929D01*
X11150Y22928D01*
X11154Y22928D01*
X11158Y22928D01*
X11077Y22848D01*
X11078Y22852D01*
X11078Y22856D01*
X11077Y22861D01*
X11075Y22866D01*
X11072Y22872D01*
X11068Y22878D01*
X11064Y22884D01*
X11058Y22891D01*
X11045Y22905D01*
X11101Y22961D01*
X11108Y22954D01*
D02*
G37*
G36*
X1816Y22556D02*
X1803Y22541D01*
X1792Y22522D01*
X1782Y22500D01*
X1773Y22474D01*
X1766Y22445D01*
X1760Y22413D01*
X1756Y22377D01*
X1751Y22295D01*
X1751Y22249D01*
X1454Y22546D01*
X1500Y22546D01*
X1618Y22555D01*
X1650Y22561D01*
X1679Y22568D01*
X1704Y22577D01*
X1727Y22587D01*
X1745Y22599D01*
X1761Y22611D01*
X1816Y22556D01*
D02*
G37*
G36*
X2613Y22503D02*
X2646Y22491D01*
X2677Y22482D01*
X2707Y22477D01*
X2734Y22476D01*
X2759Y22477D01*
X2783Y22482D01*
X2804Y22490D01*
X2824Y22502D01*
X2841Y22517D01*
X2872Y22436D01*
X2866Y22429D01*
X2859Y22417D01*
X2838Y22376D01*
X2726Y22127D01*
X2578Y22518D01*
X2613Y22503D01*
D02*
G37*
G36*
X12840Y21944D02*
X12833Y21936D01*
X12826Y21926D01*
X12821Y21917D01*
X12816Y21907D01*
X12812Y21897D01*
X12809Y21887D01*
X12807Y21877D01*
X12806Y21866D01*
X12805Y21855D01*
X12726D01*
X12726Y21866D01*
X12725Y21877D01*
X12722Y21887D01*
X12719Y21897D01*
X12716Y21907D01*
X12711Y21917D01*
X12705Y21926D01*
X12699Y21936D01*
X12691Y21944D01*
X12683Y21953D01*
X12848D01*
X12840Y21944D01*
D02*
G37*
G36*
X20963Y21772D02*
X20951Y21771D01*
X20940Y21770D01*
X20929Y21768D01*
X20918Y21766D01*
X20908Y21762D01*
X20898Y21758D01*
X20889Y21753D01*
X20880Y21747D01*
X20872Y21741D01*
X20864Y21733D01*
X20808Y21789D01*
X20815Y21797D01*
X20822Y21805D01*
X20828Y21814D01*
X20833Y21824D01*
X20837Y21833D01*
X20841Y21844D01*
X20843Y21854D01*
X20845Y21865D01*
X20846Y21877D01*
X20846Y21889D01*
X20963Y21772D01*
D02*
G37*
G36*
X12559Y21798D02*
X12560Y21786D01*
X12562Y21775D01*
X12565Y21765D01*
X12568Y21755D01*
X12573Y21745D01*
X12578Y21735D01*
X12584Y21727D01*
X12590Y21718D01*
X12598Y21710D01*
X12542Y21654D01*
X12534Y21662D01*
X12525Y21668D01*
X12517Y21674D01*
X12507Y21679D01*
X12497Y21684D01*
X12487Y21687D01*
X12477Y21690D01*
X12466Y21692D01*
X12454Y21693D01*
X12442Y21693D01*
X12559Y21810D01*
X12559Y21798D01*
D02*
G37*
G36*
X19085Y21768D02*
X19086Y21757D01*
X19088Y21746D01*
X19091Y21735D01*
X19094Y21725D01*
X19098Y21715D01*
X19103Y21706D01*
X19109Y21697D01*
X19116Y21689D01*
X19123Y21680D01*
X19068Y21625D01*
X19059Y21632D01*
X19051Y21639D01*
X19042Y21645D01*
X19033Y21650D01*
X19023Y21654D01*
X19013Y21658D01*
X19002Y21660D01*
X18991Y21662D01*
X18980Y21663D01*
X18968Y21663D01*
X19085Y21780D01*
X19085Y21768D01*
D02*
G37*
G36*
X2866Y21458D02*
X2845Y21435D01*
X2809Y21391D01*
X2794Y21368D01*
X2781Y21346D01*
X2771Y21324D01*
X2762Y21302D01*
X2756Y21280D01*
X2752Y21259D01*
X2751Y21237D01*
X2532Y21535D01*
X2553Y21530D01*
X2573Y21528D01*
X2594Y21529D01*
X2614Y21532D01*
X2635Y21538D01*
X2655Y21546D01*
X2675Y21557D01*
X2695Y21570D01*
X2715Y21586D01*
X2735Y21605D01*
X2866Y21458D01*
D02*
G37*
G36*
X21530Y21630D02*
X21539Y21622D01*
X21548Y21616D01*
X21557Y21610D01*
X21567Y21605D01*
X21577Y21601D01*
X21587Y21598D01*
X21598Y21596D01*
X21608Y21595D01*
X21619Y21594D01*
Y21516D01*
X21608Y21515D01*
X21598Y21514D01*
X21587Y21512D01*
X21577Y21509D01*
X21567Y21505D01*
X21557Y21500D01*
X21548Y21495D01*
X21539Y21488D01*
X21530Y21481D01*
X21521Y21472D01*
Y21638D01*
X21530Y21630D01*
D02*
G37*
G36*
X1156Y21599D02*
X1175Y21587D01*
X1197Y21577D01*
X1223Y21568D01*
X1252Y21561D01*
X1284Y21555D01*
X1320Y21551D01*
X1402Y21546D01*
X1448Y21546D01*
X1151Y21249D01*
X1151Y21295D01*
X1141Y21413D01*
X1136Y21445D01*
X1128Y21474D01*
X1120Y21500D01*
X1110Y21522D01*
X1098Y21541D01*
X1085Y21556D01*
X1141Y21611D01*
X1156Y21599D01*
D02*
G37*
G36*
X21354Y21187D02*
X21347Y21178D01*
X21340Y21169D01*
X21334Y21159D01*
X21330Y21149D01*
X21326Y21140D01*
X21323Y21129D01*
X21321Y21119D01*
X21319Y21108D01*
X21319Y21097D01*
X21240D01*
X21240Y21108D01*
X21238Y21119D01*
X21236Y21129D01*
X21233Y21140D01*
X21229Y21149D01*
X21225Y21159D01*
X21219Y21169D01*
X21212Y21178D01*
X21205Y21187D01*
X21197Y21195D01*
X21362D01*
X21354Y21187D01*
D02*
G37*
G36*
X21670Y21179D02*
X21661Y21171D01*
X21653Y21163D01*
X21646Y21154D01*
X21641Y21145D01*
X21635Y21136D01*
X21631Y21127D01*
X21628Y21117D01*
X21626Y21106D01*
X21624Y21096D01*
X21624Y21084D01*
X21545Y21091D01*
X21545Y21102D01*
X21544Y21113D01*
X21542Y21123D01*
X21539Y21134D01*
X21535Y21144D01*
X21531Y21154D01*
X21526Y21164D01*
X21520Y21174D01*
X21513Y21183D01*
X21505Y21193D01*
X21670Y21179D01*
D02*
G37*
G36*
X19804Y21057D02*
X19805Y21046D01*
X19807Y21036D01*
X19810Y21026D01*
X19814Y21016D01*
X19819Y21006D01*
X19824Y20997D01*
X19831Y20988D01*
X19838Y20979D01*
X19846Y20970D01*
X19681D01*
X19689Y20979D01*
X19697Y20988D01*
X19703Y20997D01*
X19709Y21006D01*
X19714Y21016D01*
X19717Y21026D01*
X19721Y21036D01*
X19723Y21046D01*
X19724Y21057D01*
X19724Y21068D01*
X19803D01*
X19804Y21057D01*
D02*
G37*
G36*
X21895Y20950D02*
X21888Y20941D01*
X21881Y20932D01*
X21876Y20923D01*
X21871Y20913D01*
X21867Y20903D01*
X21864Y20893D01*
X21862Y20883D01*
X21861Y20872D01*
X21860Y20861D01*
X21781D01*
X21781Y20872D01*
X21780Y20883D01*
X21778Y20893D01*
X21775Y20903D01*
X21771Y20913D01*
X21766Y20923D01*
X21760Y20932D01*
X21754Y20941D01*
X21746Y20950D01*
X21738Y20959D01*
X21904D01*
X21895Y20950D01*
D02*
G37*
G36*
X1000Y20917D02*
X1008Y20910D01*
X1017Y20904D01*
X1026Y20899D01*
X1036Y20895D01*
X1046Y20892D01*
X1057Y20889D01*
X1068Y20887D01*
X1079Y20886D01*
X1091Y20886D01*
X974Y20769D01*
X974Y20781D01*
X973Y20792D01*
X971Y20803D01*
X969Y20814D01*
X965Y20824D01*
X961Y20834D01*
X956Y20843D01*
X950Y20852D01*
X943Y20861D01*
X936Y20869D01*
X992Y20924D01*
X1000Y20917D01*
D02*
G37*
G36*
X13121Y20794D02*
X13129Y20787D01*
X13137Y20782D01*
X13146Y20779D01*
X13154Y20777D01*
X13161Y20776D01*
X13169Y20777D01*
X13176Y20779D01*
X13183Y20783D01*
X13190Y20788D01*
X13169Y20634D01*
X13072Y20731D01*
X13112Y20802D01*
X13121Y20794D01*
D02*
G37*
G36*
X23367Y20548D02*
X23214Y20536D01*
X23219Y20543D01*
X23223Y20549D01*
X23225Y20556D01*
X23226Y20563D01*
X23226Y20570D01*
X23224Y20578D01*
X23220Y20586D01*
X23215Y20594D01*
X23208Y20602D01*
X23200Y20611D01*
X23274Y20649D01*
X23367Y20548D01*
D02*
G37*
G36*
X12919Y20572D02*
X12927Y20566D01*
X12936Y20560D01*
X12946Y20555D01*
X12955Y20551D01*
X12966Y20547D01*
X12976Y20545D01*
X12987Y20543D01*
X12999Y20542D01*
X13011Y20541D01*
X12894Y20424D01*
X12893Y20436D01*
X12892Y20448D01*
X12890Y20459D01*
X12888Y20469D01*
X12884Y20480D01*
X12880Y20489D01*
X12875Y20499D01*
X12869Y20508D01*
X12863Y20516D01*
X12855Y20524D01*
X12911Y20580D01*
X12919Y20572D01*
D02*
G37*
G36*
X2213Y20625D02*
X2235Y20608D01*
X2257Y20593D01*
X2281Y20580D01*
X2306Y20570D01*
X2332Y20561D01*
X2359Y20554D01*
X2388Y20549D01*
X2417Y20547D01*
X2448Y20546D01*
X2151Y20249D01*
X2150Y20280D01*
X2147Y20309D01*
X2143Y20338D01*
X2136Y20365D01*
X2127Y20391D01*
X2117Y20416D01*
X2104Y20440D01*
X2089Y20462D01*
X2072Y20484D01*
X2054Y20504D01*
X2193Y20643D01*
X2213Y20625D01*
D02*
G37*
G36*
X11377Y20219D02*
X11370Y20211D01*
X11363Y20203D01*
X11357Y20194D01*
X11352Y20184D01*
X11348Y20175D01*
X11344Y20164D01*
X11342Y20154D01*
X11340Y20143D01*
X11339Y20131D01*
X11339Y20119D01*
X11222Y20236D01*
X11234Y20236D01*
X11245Y20238D01*
X11256Y20239D01*
X11267Y20242D01*
X11277Y20246D01*
X11287Y20250D01*
X11296Y20255D01*
X11305Y20261D01*
X11313Y20267D01*
X11321Y20275D01*
X11377Y20219D01*
D02*
G37*
G36*
X11118Y19844D02*
X11126Y19837D01*
X11135Y19832D01*
X11144Y19827D01*
X11154Y19822D01*
X11164Y19819D01*
X11175Y19816D01*
X11186Y19814D01*
X11198Y19813D01*
X11209Y19813D01*
X11093Y19696D01*
X11092Y19708D01*
X11091Y19719D01*
X11089Y19731D01*
X11087Y19741D01*
X11083Y19751D01*
X11079Y19761D01*
X11074Y19770D01*
X11068Y19779D01*
X11061Y19788D01*
X11054Y19796D01*
X11110Y19852D01*
X11118Y19844D01*
D02*
G37*
G36*
X24741Y19602D02*
X24692Y19602D01*
X24567Y19593D01*
X24533Y19587D01*
X24503Y19579D01*
X24476Y19570D01*
X24453Y19560D01*
X24433Y19548D01*
X24417Y19535D01*
X24362Y19591D01*
X24375Y19606D01*
X24387Y19626D01*
X24397Y19649D01*
X24406Y19676D01*
X24414Y19706D01*
X24420Y19741D01*
X24424Y19779D01*
X24429Y19865D01*
X24429Y19914D01*
X24741Y19602D01*
D02*
G37*
G36*
X22242Y19214D02*
X22214Y19183D01*
X22156Y19241D01*
X22156Y19241D01*
X22157Y19242D01*
X22159Y19243D01*
X22168Y19251D01*
X22187Y19270D01*
X22242Y19214D01*
D02*
G37*
G36*
X21280Y19036D02*
X21282Y19025D01*
X21284Y19015D01*
X21288Y19006D01*
X21292Y18997D01*
X21297Y18990D01*
X21304Y18982D01*
X21311Y18976D01*
X21320Y18970D01*
X21329Y18965D01*
X21173Y18910D01*
X21179Y18921D01*
X21187Y18943D01*
X21191Y18954D01*
X21196Y18975D01*
X21198Y18986D01*
X21201Y19007D01*
X21201Y19017D01*
X21280Y19047D01*
X21280Y19036D01*
D02*
G37*
G36*
X13086Y19017D02*
X13095Y19011D01*
X13104Y19005D01*
X13113Y19000D01*
X13123Y18996D01*
X13133Y18992D01*
X13144Y18989D01*
X13155Y18988D01*
X13166Y18986D01*
X13178Y18986D01*
X13061Y18869D01*
X13061Y18881D01*
X13060Y18893D01*
X13058Y18904D01*
X13055Y18914D01*
X13052Y18925D01*
X13047Y18934D01*
X13042Y18944D01*
X13037Y18953D01*
X13030Y18961D01*
X13022Y18969D01*
X13078Y19025D01*
X13086Y19017D01*
D02*
G37*
G36*
X21554Y18664D02*
X21547Y18656D01*
X21540Y18647D01*
X21534Y18639D01*
X21529Y18629D01*
X21525Y18619D01*
X21522Y18609D01*
X21519Y18599D01*
X21517Y18588D01*
X21516Y18576D01*
X21516Y18564D01*
X21399Y18681D01*
X21411Y18681D01*
X21422Y18682D01*
X21433Y18684D01*
X21444Y18687D01*
X21454Y18690D01*
X21464Y18695D01*
X21473Y18700D01*
X21482Y18706D01*
X21491Y18712D01*
X21499Y18720D01*
X21554Y18664D01*
D02*
G37*
G36*
X21126Y17427D02*
X21118Y17435D01*
X21109Y17443D01*
X21100Y17449D01*
X21090Y17455D01*
X21081Y17460D01*
X21071Y17464D01*
X21061Y17467D01*
X21050Y17469D01*
X21039Y17470D01*
X21028Y17470D01*
Y17549D01*
X21039Y17550D01*
X21050Y17551D01*
X21061Y17553D01*
X21071Y17556D01*
X21081Y17560D01*
X21090Y17565D01*
X21100Y17570D01*
X21109Y17577D01*
X21118Y17584D01*
X21126Y17593D01*
Y17427D01*
D02*
G37*
G36*
X23037Y17265D02*
X23045Y17259D01*
X23054Y17253D01*
X23064Y17248D01*
X23073Y17244D01*
X23084Y17240D01*
X23094Y17237D01*
X23105Y17236D01*
X23117Y17235D01*
X23129Y17234D01*
X23012Y17117D01*
X23012Y17129D01*
X23010Y17141D01*
X23009Y17152D01*
X23006Y17162D01*
X23002Y17173D01*
X22998Y17182D01*
X22993Y17192D01*
X22987Y17201D01*
X22981Y17209D01*
X22973Y17217D01*
X23029Y17273D01*
X23037Y17265D01*
D02*
G37*
G36*
X13109Y17047D02*
X13097Y17047D01*
X13086Y17046D01*
X13075Y17044D01*
X13064Y17041D01*
X13054Y17038D01*
X13044Y17033D01*
X13035Y17028D01*
X13026Y17023D01*
X13017Y17016D01*
X13009Y17008D01*
X12954Y17064D01*
X12961Y17072D01*
X12968Y17081D01*
X12973Y17090D01*
X12979Y17099D01*
X12983Y17109D01*
X12986Y17119D01*
X12989Y17130D01*
X12991Y17141D01*
X12992Y17152D01*
X12992Y17164D01*
X13109Y17047D01*
D02*
G37*
G36*
X12317Y17063D02*
X12326Y17055D01*
X12335Y17049D01*
X12345Y17043D01*
X12354Y17038D01*
X12364Y17034D01*
X12374Y17031D01*
X12385Y17029D01*
X12395Y17028D01*
X12406Y17028D01*
Y16949D01*
X12395Y16948D01*
X12385Y16947D01*
X12374Y16945D01*
X12364Y16942D01*
X12354Y16938D01*
X12345Y16933D01*
X12335Y16928D01*
X12326Y16921D01*
X12317Y16914D01*
X12309Y16906D01*
Y17071D01*
X12317Y17063D01*
D02*
G37*
G36*
X12978Y16585D02*
X12970Y16586D01*
X12961Y16586D01*
X12953Y16584D01*
X12944Y16582D01*
X12935Y16578D01*
X12927Y16574D01*
X12918Y16569D01*
X12909Y16562D01*
X12901Y16555D01*
X12892Y16547D01*
X12836Y16603D01*
X12845Y16611D01*
X12852Y16620D01*
X12858Y16629D01*
X12863Y16637D01*
X12868Y16646D01*
X12871Y16655D01*
X12873Y16663D01*
X12875Y16672D01*
X12875Y16681D01*
X12875Y16689D01*
X12978Y16585D01*
D02*
G37*
G36*
X12288Y16649D02*
X12297Y16642D01*
X12306Y16635D01*
X12315Y16630D01*
X12325Y16625D01*
X12335Y16621D01*
X12345Y16618D01*
X12355Y16616D01*
X12366Y16615D01*
X12377Y16614D01*
Y16535D01*
X12366Y16535D01*
X12355Y16534D01*
X12345Y16532D01*
X12335Y16529D01*
X12325Y16525D01*
X12315Y16520D01*
X12306Y16514D01*
X12297Y16508D01*
X12288Y16500D01*
X12279Y16492D01*
Y16657D01*
X12288Y16649D01*
D02*
G37*
G36*
X12957Y16167D02*
X12948Y16176D01*
X12939Y16183D01*
X12930Y16189D01*
X12921Y16195D01*
X12911Y16200D01*
X12901Y16204D01*
X12891Y16207D01*
X12881Y16209D01*
X12870Y16210D01*
X12859Y16211D01*
Y16289D01*
X12870Y16290D01*
X12881Y16291D01*
X12891Y16293D01*
X12901Y16296D01*
X12911Y16300D01*
X12921Y16305D01*
X12930Y16311D01*
X12939Y16317D01*
X12948Y16324D01*
X12957Y16333D01*
Y16167D01*
D02*
G37*
G36*
X12367Y16324D02*
X12375Y16317D01*
X12385Y16311D01*
X12394Y16305D01*
X12404Y16300D01*
X12414Y16296D01*
X12424Y16293D01*
X12434Y16291D01*
X12445Y16290D01*
X12456Y16289D01*
Y16211D01*
X12445Y16210D01*
X12434Y16209D01*
X12424Y16207D01*
X12414Y16204D01*
X12404Y16200D01*
X12394Y16195D01*
X12385Y16189D01*
X12375Y16183D01*
X12367Y16176D01*
X12358Y16167D01*
Y16333D01*
X12367Y16324D01*
D02*
G37*
G36*
X21038Y16187D02*
X21047Y16179D01*
X21056Y16173D01*
X21065Y16167D01*
X21075Y16162D01*
X21085Y16158D01*
X21095Y16155D01*
X21105Y16153D01*
X21116Y16152D01*
X21127Y16152D01*
Y16073D01*
X21116Y16072D01*
X21105Y16071D01*
X21095Y16069D01*
X21085Y16066D01*
X21075Y16062D01*
X21065Y16057D01*
X21056Y16052D01*
X21047Y16045D01*
X21038Y16038D01*
X21029Y16030D01*
Y16195D01*
X21038Y16187D01*
D02*
G37*
G36*
X23486Y15892D02*
X23451Y15926D01*
X23356Y16008D01*
X23328Y16028D01*
X23301Y16044D01*
X23276Y16057D01*
X23252Y16066D01*
X23230Y16071D01*
X23209Y16073D01*
X23209Y16152D01*
X23230Y16153D01*
X23252Y16159D01*
X23276Y16168D01*
X23301Y16181D01*
X23328Y16197D01*
X23356Y16217D01*
X23386Y16240D01*
X23451Y16298D01*
X23486Y16333D01*
X23486Y15892D01*
D02*
G37*
G36*
X13839Y15712D02*
X13828Y15714D01*
X13817Y15716D01*
X13807Y15716D01*
X13797Y15715D01*
X13787Y15712D01*
X13778Y15709D01*
X13769Y15705D01*
X13760Y15699D01*
X13751Y15693D01*
X13743Y15685D01*
X13702Y15755D01*
X13709Y15763D01*
X13716Y15771D01*
X13722Y15780D01*
X13728Y15789D01*
X13733Y15799D01*
X13738Y15809D01*
X13743Y15819D01*
X13750Y15841D01*
X13753Y15853D01*
X13839Y15712D01*
D02*
G37*
G36*
X12130Y15617D02*
X12139Y15493D01*
X12146Y15458D01*
X12153Y15428D01*
X12162Y15401D01*
X12172Y15378D01*
X12184Y15358D01*
X12197Y15343D01*
X12142Y15287D01*
X12126Y15300D01*
X12106Y15312D01*
X12083Y15322D01*
X12056Y15331D01*
X12026Y15339D01*
X11992Y15345D01*
X11954Y15349D01*
X11867Y15354D01*
X11818Y15354D01*
X12130Y15666D01*
X12130Y15617D01*
D02*
G37*
G36*
X11130D02*
X11139Y15493D01*
X11146Y15458D01*
X11153Y15428D01*
X11162Y15401D01*
X11172Y15378D01*
X11184Y15358D01*
X11197Y15343D01*
X11142Y15287D01*
X11126Y15300D01*
X11106Y15312D01*
X11083Y15322D01*
X11056Y15331D01*
X11026Y15339D01*
X10992Y15345D01*
X10954Y15349D01*
X10867Y15354D01*
X10818Y15354D01*
X11130Y15666D01*
X11130Y15617D01*
D02*
G37*
G36*
X13867Y15305D02*
X13855Y15305D01*
X13844Y15304D01*
X13832Y15302D01*
X13822Y15299D01*
X13812Y15296D01*
X13802Y15292D01*
X13793Y15286D01*
X13784Y15281D01*
X13775Y15274D01*
X13767Y15267D01*
X13711Y15322D01*
X13719Y15330D01*
X13726Y15339D01*
X13731Y15348D01*
X13736Y15357D01*
X13741Y15367D01*
X13744Y15377D01*
X13747Y15388D01*
X13749Y15399D01*
X13750Y15410D01*
X13750Y15422D01*
X13867Y15305D01*
D02*
G37*
G36*
X15242Y15035D02*
X15234Y15026D01*
X15228Y15017D01*
X15222Y15008D01*
X15218Y14998D01*
X15214Y14988D01*
X15211Y14978D01*
X15208Y14967D01*
X15207Y14957D01*
X15207Y14946D01*
X15128D01*
X15128Y14957D01*
X15126Y14967D01*
X15124Y14978D01*
X15121Y14988D01*
X15117Y14998D01*
X15112Y15008D01*
X15107Y15017D01*
X15100Y15026D01*
X15093Y15035D01*
X15085Y15044D01*
X15250D01*
X15242Y15035D01*
D02*
G37*
G36*
X21329Y13973D02*
X21330Y13962D01*
X21332Y13951D01*
X21335Y13940D01*
X21338Y13930D01*
X21342Y13920D01*
X21347Y13911D01*
X21353Y13902D01*
X21360Y13893D01*
X21367Y13885D01*
X21312Y13830D01*
X21304Y13837D01*
X21295Y13844D01*
X21286Y13849D01*
X21277Y13855D01*
X21267Y13859D01*
X21257Y13862D01*
X21246Y13865D01*
X21235Y13867D01*
X21224Y13868D01*
X21212Y13868D01*
X21329Y13985D01*
X21329Y13973D01*
D02*
G37*
G36*
X21201Y13377D02*
X21192Y13372D01*
X21183Y13366D01*
X21176Y13360D01*
X21170Y13353D01*
X21164Y13345D01*
X21160Y13337D01*
X21156Y13327D01*
X21154Y13317D01*
X21152Y13307D01*
X21152Y13295D01*
X21073Y13325D01*
X21073Y13336D01*
X21070Y13356D01*
X21068Y13367D01*
X21063Y13388D01*
X21059Y13399D01*
X21051Y13421D01*
X21046Y13432D01*
X21201Y13377D01*
D02*
G37*
G36*
X15207Y12950D02*
X15209Y12939D01*
X15211Y12929D01*
X15214Y12919D01*
X15218Y12909D01*
X15223Y12900D01*
X15229Y12891D01*
X15236Y12882D01*
X15244Y12874D01*
X15253Y12867D01*
X15088Y12853D01*
X15095Y12862D01*
X15102Y12872D01*
X15108Y12881D01*
X15113Y12891D01*
X15118Y12901D01*
X15122Y12911D01*
X15124Y12922D01*
X15126Y12932D01*
X15128Y12943D01*
X15128Y12954D01*
X15207Y12961D01*
X15207Y12950D01*
D02*
G37*
G36*
X21152Y11323D02*
X21153Y11312D01*
X21155Y11302D01*
X21158Y11292D01*
X21162Y11282D01*
X21167Y11272D01*
X21173Y11263D01*
X21179Y11253D01*
X21187Y11245D01*
X21195Y11236D01*
X21030D01*
X21038Y11245D01*
X21045Y11253D01*
X21052Y11263D01*
X21057Y11272D01*
X21062Y11282D01*
X21066Y11292D01*
X21069Y11302D01*
X21071Y11312D01*
X21072Y11323D01*
X21073Y11334D01*
X21152D01*
X21152Y11323D01*
D02*
G37*
G36*
X21535Y11310D02*
X21536Y11299D01*
X21537Y11289D01*
X21539Y11278D01*
X21542Y11268D01*
X21545Y11258D01*
X21550Y11248D01*
X21555Y11238D01*
X21561Y11228D01*
X21568Y11218D01*
X21576Y11209D01*
X21411Y11223D01*
X21420Y11231D01*
X21427Y11239D01*
X21434Y11247D01*
X21440Y11256D01*
X21445Y11265D01*
X21449Y11275D01*
X21453Y11285D01*
X21455Y11295D01*
X21456Y11306D01*
X21457Y11317D01*
X21535Y11310D01*
D02*
G37*
G36*
X24394Y8766D02*
X24385Y8774D01*
X24376Y8781D01*
X24367Y8788D01*
X24358Y8793D01*
X24348Y8798D01*
X24338Y8802D01*
X24328Y8805D01*
X24318Y8807D01*
X24307Y8809D01*
X24296Y8809D01*
Y8888D01*
X24307Y8888D01*
X24318Y8890D01*
X24328Y8892D01*
X24338Y8895D01*
X24348Y8899D01*
X24358Y8903D01*
X24367Y8909D01*
X24376Y8916D01*
X24385Y8923D01*
X24394Y8931D01*
Y8766D01*
D02*
G37*
G36*
X23193Y8923D02*
X23202Y8916D01*
X23211Y8909D01*
X23221Y8903D01*
X23230Y8899D01*
X23240Y8895D01*
X23251Y8892D01*
X23261Y8890D01*
X23272Y8888D01*
X23283Y8888D01*
Y8809D01*
X23272Y8809D01*
X23261Y8807D01*
X23251Y8805D01*
X23240Y8802D01*
X23230Y8798D01*
X23221Y8793D01*
X23211Y8788D01*
X23202Y8781D01*
X23193Y8774D01*
X23185Y8766D01*
Y8931D01*
X23193Y8923D01*
D02*
G37*
G36*
X8843Y7958D02*
X8834Y7967D01*
X8825Y7974D01*
X8816Y7981D01*
X8807Y7986D01*
X8797Y7991D01*
X8787Y7995D01*
X8777Y7998D01*
X8766Y8000D01*
X8756Y8001D01*
X8745Y8002D01*
Y8080D01*
X8756Y8081D01*
X8766Y8082D01*
X8777Y8084D01*
X8787Y8087D01*
X8797Y8091D01*
X8807Y8096D01*
X8816Y8102D01*
X8825Y8108D01*
X8834Y8116D01*
X8843Y8124D01*
Y7958D01*
D02*
G37*
G36*
X7504Y8116D02*
X7513Y8108D01*
X7522Y8102D01*
X7532Y8096D01*
X7541Y8091D01*
X7551Y8087D01*
X7561Y8084D01*
X7572Y8082D01*
X7582Y8081D01*
X7593Y8080D01*
Y8002D01*
X7582Y8001D01*
X7572Y8000D01*
X7561Y7998D01*
X7551Y7995D01*
X7541Y7991D01*
X7532Y7986D01*
X7522Y7981D01*
X7513Y7974D01*
X7504Y7967D01*
X7496Y7958D01*
Y8124D01*
X7504Y8116D01*
D02*
G37*
G36*
X578Y4397D02*
X781Y4221D01*
X818Y4197D01*
X849Y4181D01*
X875Y4173D01*
X895Y4173D01*
X909Y4181D01*
X514Y3786D01*
X522Y3800D01*
X522Y3820D01*
X514Y3846D01*
X497Y3877D01*
X473Y3914D01*
X442Y3956D01*
X354Y4058D01*
X235Y4182D01*
X513Y4460D01*
X578Y4397D01*
D02*
G37*
D13*
X6713Y22441D02*
X7490Y21663D01*
X6486Y22441D02*
X6713D01*
D14*
X22992Y33780D02*
G03*
X22992Y33780I-787J0D01*
G01*
X21271Y22886D02*
G03*
X21289Y22992I-296J107D01*
G01*
X21377Y22825D02*
G03*
X21271Y22886I-167J-167D01*
G01*
X21377Y22825D02*
G03*
X21271Y22886I-167J-167D01*
G01*
X21289Y22992D02*
G03*
X20770Y23232I-315J0D01*
G01*
X25177Y20917D02*
G03*
X25177Y20917I-433J0D01*
G01*
X24256D02*
G03*
X23235Y20966I-512J0D01*
G01*
X23853Y20417D02*
G03*
X24256Y20917I-109J500D01*
G01*
X25256Y19917D02*
G03*
X24244Y20027I-512J0D01*
G01*
X24898Y19429D02*
G03*
X25256Y19917I-154J488D01*
G01*
X24244Y20027D02*
G03*
X23853Y20417I-500J-109D01*
G01*
X23228Y20145D02*
G03*
X23282Y20138I69J307D01*
G01*
X23282D02*
G03*
X23236Y19982I462J-221D01*
G01*
X23288Y19262D02*
G03*
X23335Y19225I167J167D01*
G01*
X24232Y19071D02*
G03*
X24175Y19193I-488J-154D01*
G01*
X23288Y19262D02*
G03*
X23335Y19225I167J167D01*
G01*
X21129Y21621D02*
G03*
X21122Y21552I308J-66D01*
G01*
X20989Y21576D02*
G03*
X21129Y21621I-25J314D01*
G01*
X21122Y21552D02*
G03*
X21040Y21075I157J-273D01*
G01*
X21043Y20945D02*
G03*
X21112Y20778I236J0D01*
G01*
X22756Y19892D02*
G03*
X22825Y19725I236J0D01*
G01*
X22756Y19892D02*
G03*
X22825Y19725I236J0D01*
G01*
X22431Y19147D02*
G03*
X22451Y19242I-216J95D01*
G01*
X22431Y19147D02*
G03*
X22451Y19242I-216J95D01*
G01*
X21270Y19750D02*
G03*
X21146Y19685I44J-232D01*
G01*
X22005Y18836D02*
G03*
X22421Y19128I102J298D01*
G01*
X21270Y19750D02*
G03*
X21146Y19685I44J-232D01*
G01*
X21024Y33780D02*
G03*
X21024Y33780I-787J0D01*
G01*
X19833Y25581D02*
G03*
X19046Y25609I-394J0D01*
G01*
X18504Y27047D02*
G03*
X17985Y27287I-315J0D01*
G01*
X18828Y25826D02*
G03*
X18661Y25896I-167J-167D01*
G01*
X18828Y25826D02*
G03*
X18661Y25896I-167J-167D01*
G01*
X18641Y24937D02*
G03*
X18764Y24988I-59J309D01*
G01*
X18638Y24905D02*
G03*
X18641Y24937I-312J45D01*
G01*
X18720Y24852D02*
G03*
X18638Y24905I-167J-167D01*
G01*
X18720Y24852D02*
G03*
X18638Y24905I-167J-167D01*
G01*
X18451Y26872D02*
G03*
X18504Y27047I-262J175D01*
G01*
X17975Y26473D02*
G03*
X18494Y26713I204J240D01*
G01*
D02*
G03*
X18451Y26872I-315J0D01*
G01*
X17803Y27283D02*
G03*
X17337Y26864I-253J-187D01*
G01*
X17337Y26864D02*
G03*
X17358Y26545I281J-142D01*
G01*
X16125Y28090D02*
G03*
X16309Y28376I-131J286D01*
G01*
X16673Y26545D02*
G03*
X16506Y26476I0J-236D01*
G01*
X17894Y26230D02*
G03*
X17825Y26397I-236J0D01*
G01*
X17894Y26230D02*
G03*
X17825Y26397I-236J0D01*
G01*
X17773Y26448D02*
G03*
X17802Y26467I-155J274D01*
G01*
X16673Y26545D02*
G03*
X16506Y26476I0J-236D01*
G01*
X20581Y24547D02*
G03*
X20465Y24826I-394J0D01*
G01*
X20237Y24157D02*
G03*
X20581Y24547I-50J390D01*
G01*
X20256Y24065D02*
G03*
X20237Y24157I-236J0D01*
G01*
X20256Y24065D02*
G03*
X20237Y24157I-236J0D01*
G01*
X19673Y23670D02*
G03*
X19783Y23664I71J307D01*
G01*
Y23563D02*
G03*
X19853Y23396I236J0D01*
G01*
X19783Y23563D02*
G03*
X19853Y23396I236J0D01*
G01*
X19280Y24470D02*
G03*
X19185Y24431I70J-307D01*
G01*
X19185D02*
G03*
X18903Y24674I-307J-71D01*
G01*
X18317Y24409D02*
G03*
X18314Y24449I-315J0D01*
G01*
X18309Y24341D02*
G03*
X18317Y24409I-307J69D01*
G01*
X17561Y23778D02*
G03*
X17422Y23710I27J-235D01*
G01*
X17561Y23778D02*
G03*
X17422Y23710I27J-235D01*
G01*
X15972Y28690D02*
G03*
X15345Y28676I-313J-39D01*
G01*
X16309Y28376D02*
G03*
X15972Y28690I-315J0D01*
G01*
X15413Y27500D02*
G03*
X15622Y27586I0J295D01*
G01*
X16363Y26338D02*
G03*
X16073Y26014I25J-314D01*
G01*
X15413Y27500D02*
G03*
X15622Y27586I0J295D01*
G01*
X15201Y28532D02*
G03*
X14939Y28090I25J-314D01*
G01*
D02*
G03*
X15159Y27500I110J-295D01*
G01*
X15079Y31516D02*
G03*
X14477Y31647I-315J0D01*
G01*
X14895Y31229D02*
G03*
X15079Y31516I-131J286D01*
G01*
X14502Y30959D02*
G03*
X14711Y31045I0J295D01*
G01*
X14502Y30959D02*
G03*
X14711Y31045I0J295D01*
G01*
X14234Y31549D02*
G03*
X14234Y30959I-110J-295D01*
G01*
X11858Y28803D02*
G03*
X11858Y28323I-204J-240D01*
G01*
X12581Y28323D02*
G03*
X13100Y28563I204J240D01*
G01*
D02*
G03*
X12581Y28803I-315J0D01*
G01*
X16205Y25135D02*
G03*
X16454Y24583I45J-312D01*
G01*
X16073Y26014D02*
G03*
X15915Y25404I-79J-305D01*
G01*
X11312Y25052D02*
G03*
X11388Y25256I-240J204D01*
G01*
X12258Y23376D02*
G03*
X12091Y23307I0J-236D01*
G01*
X12258Y23376D02*
G03*
X12091Y23307I0J-236D01*
G01*
X20659Y21348D02*
G03*
X20826Y21418I0J236D01*
G01*
X20659Y21348D02*
G03*
X20826Y21418I0J236D01*
G01*
X20079Y20886D02*
G03*
X20003Y21090I-315J0D01*
G01*
X19597Y21545D02*
G03*
X19569Y21512I167J-167D01*
G01*
X19597Y21545D02*
G03*
X19569Y21512I167J-167D01*
G01*
X21043Y20945D02*
G03*
X21112Y20778I236J0D01*
G01*
X20876Y19415D02*
G03*
X20807Y19248I167J-167D01*
G01*
X20876Y19415D02*
G03*
X20807Y19248I167J-167D01*
G01*
X19943Y20627D02*
G03*
X20079Y20886I-179J259D01*
G01*
X20344Y20128D02*
G03*
X20275Y20295I-236J0D01*
G01*
X20344Y20128D02*
G03*
X20275Y20295I-236J0D01*
G01*
X13779Y20216D02*
G03*
X13866Y20427I-212J212D01*
G01*
X13779Y20216D02*
G03*
X13866Y20427I-212J212D01*
G01*
X13012Y22234D02*
G03*
X12974Y22274I-246J-196D01*
G01*
X12280Y21541D02*
G03*
X12352Y21509I161J270D01*
G01*
Y20581D02*
G03*
X12422Y20414I236J0D01*
G01*
X12352Y20581D02*
G03*
X12422Y20414I236J0D01*
G01*
X11673Y21322D02*
G03*
X12280Y21541I226J322D01*
G01*
X11673Y21322D02*
G03*
X12280Y21541I226J322D01*
G01*
X11484Y22701D02*
G03*
X11506Y22815I-293J114D01*
G01*
D02*
G03*
X11309Y23107I-315J0D01*
G01*
X11604Y20168D02*
G03*
X11673Y20335I-167J167D01*
G01*
X11604Y20168D02*
G03*
X11673Y20335I-167J167D01*
G01*
X11449Y19901D02*
G03*
X11534Y20093I-228J217D01*
G01*
X11526Y19695D02*
G03*
X11449Y19901I-315J0D01*
G01*
X13602Y19478D02*
G03*
X13587Y19577I-315J0D01*
G01*
X13289Y19163D02*
G03*
X13602Y19478I-1J315D01*
G01*
X13494Y18868D02*
G03*
X13289Y19163I-315J0D01*
G01*
X12865Y18843D02*
G03*
X13494Y18868I314J25D01*
G01*
X12520Y19291D02*
G03*
X12589Y19124I236J0D01*
G01*
X12520Y19291D02*
G03*
X12589Y19124I236J0D01*
G01*
X24222Y16112D02*
G03*
X23362Y16487I-512J0D01*
G01*
X23335Y19225D02*
G03*
X24232Y18764I409J-308D01*
G01*
X23445Y17116D02*
G03*
X23155Y17430I-315J0D01*
G01*
X23357Y16898D02*
G03*
X23445Y17116I-227J218D01*
G01*
X23425Y16703D02*
G03*
X23357Y16898I-315J0D01*
G01*
X22824Y16571D02*
G03*
X23425Y16703I286J131D01*
G01*
X23071Y17510D02*
G03*
X22904Y17579I-167J-167D01*
G01*
X23071Y17510D02*
G03*
X22904Y17579I-167J-167D01*
G01*
X23362Y15738D02*
G03*
X24222Y16112I349J375D01*
G01*
Y13514D02*
G03*
X24222Y13514I-512J0D01*
G01*
X24199Y11138D02*
G03*
X24199Y10831I-488J-154D01*
G01*
X24274Y8609D02*
G03*
X24793Y8848I204J240D01*
G01*
D02*
G03*
X24274Y9088I-315J0D01*
G01*
X23305Y9088D02*
G03*
X23305Y8609I-204J-240D01*
G01*
X24921Y3593D02*
G03*
X24921Y3593I-748J0D01*
G01*
X22461Y10689D02*
G03*
X21860Y10820I-315J0D01*
G01*
X21286Y10889D02*
G03*
X21801Y11132I200J243D01*
G01*
D02*
G03*
X21742Y11316I-315J0D01*
G01*
X22277Y10402D02*
G03*
X22461Y10689I-131J286D01*
G01*
X21890Y10138D02*
G03*
X22099Y10224I0J295D01*
G01*
X21890Y10138D02*
G03*
X22099Y10224I0J295D01*
G01*
X22992Y3593D02*
G03*
X22992Y3593I-787J0D01*
G01*
X21195Y18322D02*
G03*
X21712Y18538I203J241D01*
G01*
X20807Y18781D02*
G03*
X21195Y18322I266J-169D01*
G01*
X21515Y17923D02*
G03*
X21348Y17992I-167J-167D01*
G01*
X21515Y17923D02*
G03*
X21348Y17992I-167J-167D01*
G01*
X21149Y16352D02*
G03*
X21149Y15873I-204J-240D01*
G01*
X19232Y16870D02*
G03*
X20018Y16831I394J0D01*
G01*
X14110Y15625D02*
G03*
X14183Y15827I-242J202D01*
G01*
X15482Y15128D02*
G03*
X14928Y14924I-315J0D01*
G01*
X14183Y15423D02*
G03*
X14110Y15625I-315J0D01*
G01*
X15407Y14924D02*
G03*
X15482Y15128I-240J204D01*
G01*
X13893Y15109D02*
G03*
X14183Y15423I-25J314D01*
G01*
X21732Y13701D02*
G03*
X21663Y13868I-236J0D01*
G01*
X21732Y13701D02*
G03*
X21663Y13868I-236J0D01*
G01*
X21525Y14011D02*
G03*
X20994Y13757I-314J-25D01*
G01*
Y13757D02*
G03*
X20858Y13370I157J-273D01*
G01*
X20873Y11356D02*
G03*
X21286Y10889I240J-204D01*
G01*
X15936Y11919D02*
G03*
X15936Y11132I-1J-394D01*
G01*
X14922Y12960D02*
G03*
X15492Y12776I256J-184D01*
G01*
D02*
G03*
X15404Y12995I-315J0D01*
G01*
X18585Y11804D02*
G03*
X18307Y11919I-278J-278D01*
G01*
X18585Y11804D02*
G03*
X18307Y11919I-278J-278D01*
G01*
X15935D02*
G03*
X15935Y11132I0J-394D01*
G01*
X13524Y17559D02*
G03*
X12926Y17420I-315J0D01*
G01*
X13393Y17304D02*
G03*
X13524Y17559I-184J255D01*
G01*
X13425Y17165D02*
G03*
X13393Y17304I-315J0D01*
G01*
X13250Y16883D02*
G03*
X13425Y17165I-140J282D01*
G01*
X13307Y16703D02*
G03*
X13250Y16883I-315J0D01*
G01*
X12926Y17420D02*
G03*
X12801Y17224I184J-255D01*
G01*
X12429Y17228D02*
G03*
X11973Y16798I-204J-240D01*
G01*
D02*
G03*
X11975Y16350I222J-223D01*
G01*
X13327Y16117D02*
G03*
X13356Y16250I-285J133D01*
G01*
X13233Y16500D02*
G03*
X13307Y16703I-241J203D01*
G01*
X13356Y16250D02*
G03*
X13233Y16500I-315J0D01*
G01*
X11975Y16350D02*
G03*
X11973Y16156I299J-99D01*
G01*
X12252Y15936D02*
G03*
X12303Y15936I22J314D01*
G01*
X14183Y15827D02*
G03*
X13569Y15924I-315J0D01*
G01*
X13465Y14783D02*
G03*
X13632Y14853I0J236D01*
G01*
X11973Y16156D02*
G03*
X11315Y15779I-158J-487D01*
G01*
X12303Y15823D02*
G03*
X12252Y15936I-488J-154D01*
G01*
X13465Y14783D02*
G03*
X13632Y14853I0J236D01*
G01*
X12923Y11526D02*
G03*
X12529Y11919I-394J0D01*
G01*
X12923Y11526D02*
G03*
X12530Y11919I-394J0D01*
G01*
X12529Y11132D02*
G03*
X12923Y11526I1J394D01*
G01*
X12530Y11132D02*
G03*
X12923Y11526I0J394D01*
G01*
X11910Y14853D02*
G03*
X12077Y14783I167J167D01*
G01*
X11910Y14853D02*
G03*
X12077Y14783I167J167D01*
G01*
X20986Y10728D02*
G03*
X20986Y10138I-110J-295D01*
G01*
X19193Y11033D02*
G03*
X19077Y11312I-394J0D01*
G01*
X18520Y10756D02*
G03*
X19193Y11033I279J278D01*
G01*
X19193D02*
G03*
X19078Y11312I-394J0D01*
G01*
X18521Y10755D02*
G03*
X19193Y11033I278J278D01*
G01*
X18045Y9842D02*
G03*
X18228Y10128I-131J286D01*
G01*
D02*
G03*
X17627Y10259I-315J0D01*
G01*
X17399Y10032D02*
G03*
X17320Y9887I209J-209D01*
G01*
X17399Y10032D02*
G03*
X17320Y9887I209J-209D01*
G01*
X17817Y9191D02*
G03*
X17904Y9400I-209J209D01*
G01*
X17817Y9191D02*
G03*
X17904Y9400I-209J209D01*
G01*
X17320Y9887D02*
G03*
X17209Y9902I-95J-300D01*
G01*
X17315Y8305D02*
G03*
X17402Y8514I-209J209D01*
G01*
X17315Y8305D02*
G03*
X17402Y8514I-209J209D01*
G01*
X19055Y3593D02*
G03*
X19055Y3593I-787J0D01*
G01*
X17009Y10102D02*
G03*
X16591Y9684I-286J-131D01*
G01*
X16897Y9378D02*
G03*
X17084Y9293I209J209D01*
G01*
X16897Y9378D02*
G03*
X17084Y9293I209J209D01*
G01*
X16811Y8663D02*
G03*
X17304Y8294I206J-238D01*
G01*
X12736Y10817D02*
G03*
X12312Y11112I-315J0D01*
G01*
Y10522D02*
G03*
X12736Y10817I110J295D01*
G01*
X11632Y10608D02*
G03*
X11841Y10522I209J209D01*
G01*
X11632Y10608D02*
G03*
X11841Y10522I209J209D01*
G01*
X16898Y9106D02*
G03*
X16811Y8898I209J-209D01*
G01*
X16898Y9106D02*
G03*
X16811Y8898I209J-209D01*
G01*
X17047Y3593D02*
G03*
X17047Y3593I-748J0D01*
G01*
X11260Y33504D02*
G03*
X11260Y33504I-1378J0D01*
G01*
X9114Y26427D02*
G03*
X8327Y26426I-394J0D01*
G01*
X11388Y25256D02*
G03*
X10833Y25052I-315J0D01*
G01*
X9498Y24774D02*
G03*
X9383Y25052I-394J0D01*
G01*
X9498Y24774D02*
G03*
X9383Y25052I-394J0D01*
G01*
X9902Y23504D02*
G03*
X9786Y23782I-394J0D01*
G01*
X9902Y23504D02*
G03*
X9786Y23782I-394J0D01*
G01*
X10876Y22802D02*
G03*
X11305Y22521I315J13D01*
G01*
X11112Y22329D02*
G03*
X11043Y22162I167J-167D01*
G01*
X11112Y22329D02*
G03*
X11043Y22162I167J-167D01*
G01*
X10837Y22933D02*
G03*
X10856Y22838I236J0D01*
G01*
X10837Y22933D02*
G03*
X10856Y22838I236J0D01*
G01*
X9786Y21562D02*
G03*
X9902Y21841I-278J278D01*
G01*
X9786Y21562D02*
G03*
X9902Y21841I-278J278D01*
G01*
X9114Y26427D02*
G03*
X8327Y26427I-394J0D01*
G01*
X8750Y23736D02*
G03*
X8826Y23629I354J172D01*
G01*
X8711Y24586D02*
G03*
X8681Y24622I-197J-131D01*
G01*
X8750Y23736D02*
G03*
X8826Y23629I354J172D01*
G01*
X8327Y25157D02*
G03*
X8442Y24879I394J0D01*
G01*
X8711Y24586D02*
G03*
X8681Y24622I-197J-131D01*
G01*
X8327Y25157D02*
G03*
X8442Y24879I394J0D01*
G01*
X9114Y23338D02*
G03*
X8932Y23414I-207J-238D01*
G01*
X8594Y23075D02*
G03*
X9114Y22863I314J25D01*
G01*
X9003Y21893D02*
G03*
X9560Y21336I278J-278D01*
G01*
X9004Y21893D02*
G03*
X9560Y21336I278J-279D01*
G01*
X8120Y23520D02*
G03*
X8539Y23135I118J-292D01*
G01*
X7638Y36565D02*
G03*
X7522Y36843I-394J0D01*
G01*
X7638Y36565D02*
G03*
X7522Y36843I-394J0D01*
G01*
X7707Y26063D02*
G03*
X7082Y26122I-315J0D01*
G01*
X7082D02*
G03*
X6821Y25977I4J-315D01*
G01*
X7631Y25859D02*
G03*
X7707Y26063I-240J204D01*
G01*
X6821Y25977D02*
G03*
X6459Y25900I-128J-288D01*
G01*
D02*
G03*
X6398Y25856I106J-211D01*
G01*
X6459Y25900D02*
G03*
X6398Y25856I106J-211D01*
G01*
X6024Y33780D02*
G03*
X6024Y33780I-748J0D01*
G01*
X4945Y25551D02*
G03*
X4778Y25482I0J-236D01*
G01*
X4945Y25551D02*
G03*
X4778Y25482I0J-236D01*
G01*
X709Y33307D02*
G03*
X2126Y33780I630J472D01*
G01*
D02*
G03*
X709Y34252I-787J0D01*
G01*
X7914Y24401D02*
G03*
X7609Y24545I-266J-169D01*
G01*
X7519Y24698D02*
G03*
X7634Y24778I-117J292D01*
G01*
X7609Y24545D02*
G03*
X7519Y24698I-306J-76D01*
G01*
X7980Y24432D02*
G03*
X7914Y24401I101J-298D01*
G01*
X7559Y23376D02*
G03*
X7726Y23445I0J236D01*
G01*
X6492Y24478D02*
G03*
X6600Y24025I260J-177D01*
G01*
D02*
G03*
X6909Y23612I299J-98D01*
G01*
X7559Y23376D02*
G03*
X7726Y23445I0J236D01*
G01*
X6909Y23612D02*
G03*
X7429Y23373I315J-0D01*
G01*
X7805Y21663D02*
G03*
X7713Y21886I-315J0D01*
G01*
X7415Y21357D02*
G03*
X7805Y21663I75J306D01*
G01*
D02*
G03*
X7712Y21886I-315J0D01*
G01*
X7415Y21357D02*
G03*
X7805Y21663I75J306D01*
G01*
X6943Y21303D02*
G03*
X7415Y21357I212J233D01*
G01*
X6936Y22663D02*
G03*
X6713Y22756I-223J-222D01*
G01*
X6935Y22664D02*
G03*
X6713Y22756I-223J-223D01*
G01*
X6534Y21240D02*
G03*
X6943Y21303I169J266D01*
G01*
X6486Y22756D02*
G03*
X6377Y22146I0J-315D01*
G01*
X6486Y22756D02*
G03*
X6377Y22146I0J-315D01*
G01*
X5648Y20945D02*
G03*
X6073Y21240I110J295D01*
G01*
X3297D02*
G03*
X3722Y20945I315J0D01*
G01*
X2862Y23967D02*
G03*
X2948Y24246I-411J280D01*
G01*
X1201Y25010D02*
G03*
X1034Y24941I0J-236D01*
G01*
X1201Y25010D02*
G03*
X1034Y24941I0J-236D01*
G01*
X2948Y24246D02*
G03*
X2853Y24537I-497J0D01*
G01*
X2048D02*
G03*
X2040Y23967I402J-291D01*
G01*
X1948Y23246D02*
G03*
X1881Y23494I-497J0D01*
G01*
X2948Y23246D02*
G03*
X2881Y23494I-497J0D01*
G01*
X2927Y23103D02*
G03*
X2948Y23246I-476J143D01*
G01*
X2020Y23494D02*
G03*
X2018Y23002I431J-248D01*
G01*
X1970D02*
G03*
X1870Y22980I0J-236D01*
G01*
X1970Y23002D02*
G03*
X1870Y22980I0J-236D01*
G01*
X2006Y22467D02*
G03*
X1994Y22050I445J-221D01*
G01*
D02*
G03*
X1875Y21978I90J-281D01*
G01*
X1994Y22050D02*
G03*
X1875Y21978I90J-281D01*
G01*
X1870Y22980D02*
G03*
X1948Y23246I-419J266D01*
G01*
X1250Y22792D02*
G03*
X1672Y22801I201J454D01*
G01*
X1432Y22743D02*
G03*
X1250Y22701I18J-497D01*
G01*
X1856Y21959D02*
G03*
X1947Y22228I-405J287D01*
G01*
X1738Y21841D02*
G03*
X1660Y21697I211J-207D01*
G01*
X1738Y21841D02*
G03*
X1660Y21697I211J-207D01*
G01*
X1250Y21792D02*
G03*
X1738Y21841I201J454D01*
G01*
X1660Y21697D02*
G03*
X1469Y21743I-210J-451D01*
G01*
X10719Y20433D02*
G03*
X10650Y20266I167J-167D01*
G01*
X10719Y20433D02*
G03*
X10650Y20266I167J-167D01*
G01*
X10897Y19670D02*
G03*
X11526Y19695I314J25D01*
G01*
X10650Y20020D02*
G03*
X10719Y19853I236J0D01*
G01*
X10650Y20020D02*
G03*
X10719Y19853I236J0D01*
G01*
X9921Y19852D02*
G03*
X9497Y20148I-315J0D01*
G01*
X10248Y15669D02*
G03*
X10248Y15669I-433J0D01*
G01*
X9497Y19557D02*
G03*
X9921Y19852I110J295D01*
G01*
X11111Y15040D02*
G03*
X11278Y14970I167J167D01*
G01*
X11111Y15040D02*
G03*
X11278Y14970I167J167D01*
G01*
X11315Y15779D02*
G03*
X10797Y15158I-500J-109D01*
G01*
X11549Y12502D02*
G03*
X10992Y11945I-279J-278D01*
G01*
X11548Y12503D02*
G03*
X10991Y11946I-278J-278D01*
G01*
X11158Y11780D02*
G03*
X11060Y11180I33J-313D01*
G01*
X10585Y12136D02*
G03*
X10585Y12136I-418J0D01*
G01*
X10915Y9341D02*
G03*
X10915Y9341I-512J0D01*
G01*
Y7341D02*
G03*
X10915Y7341I-512J0D01*
G01*
X11260Y3976D02*
G03*
X11260Y3976I-1378J0D01*
G01*
X6919Y20148D02*
G03*
X6711Y20061I0J-295D01*
G01*
X6919Y20148D02*
G03*
X6711Y20061I0J-295D01*
G01*
X2948Y20246D02*
G03*
X2471Y20742I-497J0D01*
G01*
X1954Y20226D02*
G03*
X2948Y20246I496J20D01*
G01*
X5992Y19343D02*
G03*
X5906Y19134I209J-209D01*
G01*
X6516Y18632D02*
G03*
X6496Y18741I-315J0D01*
G01*
X5992Y19343D02*
G03*
X5906Y19134I209J-209D01*
G01*
Y18741D02*
G03*
X6516Y18632I295J-110D01*
G01*
X3671Y16663D02*
G03*
X2628Y16912I-551J0D01*
G01*
X2393Y20753D02*
G03*
X2945Y21195I58J493D01*
G01*
X1948Y20246D02*
G03*
X1944Y20304I-497J0D01*
G01*
X1654Y20748D02*
G03*
X1658Y20698I295J0D01*
G01*
X1654Y20748D02*
G03*
X1658Y20698I295J0D01*
G01*
X2628Y16912D02*
G03*
X1663Y16947I-492J-248D01*
G01*
X5758Y15453D02*
G03*
X4970Y15452I-394J0D01*
G01*
Y14184D02*
G03*
X5758Y14183I394J-1D01*
G01*
X2628Y16415D02*
G03*
X3671Y16663I492J248D01*
G01*
X5758Y15453D02*
G03*
X4970Y15453I-394J0D01*
G01*
X1663Y16379D02*
G03*
X2628Y16415I472J284D01*
G01*
X4970Y14183D02*
G03*
X5758Y14183I394J0D01*
G01*
X2761Y13742D02*
G03*
X2761Y13742I-418J0D01*
G01*
X1005Y20465D02*
G03*
X1948Y20246I446J-219D01*
G01*
X1407Y20751D02*
G03*
X1654Y20792I44J495D01*
G01*
X1658Y20698D02*
G03*
X1406Y20741I-207J-452D01*
G01*
X779Y20743D02*
G03*
X1005Y20465I314J25D01*
G01*
X9242Y8041D02*
G03*
X8723Y8281I-315J0D01*
G01*
X8723Y7801D02*
G03*
X9242Y8041I204J240D01*
G01*
X7616Y8281D02*
G03*
X7616Y7801I-204J-240D01*
G01*
X7795Y3593D02*
G03*
X7795Y3593I-787J0D01*
G01*
X3819D02*
G03*
X3819Y3593I-748J0D01*
G01*
X13464Y20945D02*
G03*
X13278Y21014I-197J-246D01*
G01*
X24921Y34409D02*
X25354D01*
X24921Y34330D02*
X25354D01*
X24921Y34488D02*
X25354D01*
X24921Y34173D02*
X25354D01*
X24921Y34094D02*
X25354D01*
X24921Y34252D02*
X25354D01*
X22223Y34567D02*
X25354D01*
X23425Y34528D02*
X24921D01*
X22548Y34488D02*
X23425D01*
X22887Y34173D02*
X23425D01*
X24921Y33937D02*
X25354D01*
X24921Y33858D02*
X25354D01*
X24921Y34016D02*
X25354D01*
X24921Y33622D02*
X25354D01*
X24921Y33779D02*
X25354D01*
X24921Y33701D02*
X25354D01*
X22976Y33622D02*
X23425D01*
X22988Y33701D02*
X23425D01*
X22767Y34330D02*
X23425D01*
X22835Y34252D02*
X23425D01*
X22677Y34409D02*
X23425D01*
X22926Y34094D02*
X23425D01*
X20958D02*
X21483D01*
X20580Y34488D02*
X21861D01*
X20709Y34409D02*
X21732D01*
X20799Y34330D02*
X21642D01*
X20866Y34252D02*
X21575D01*
X20918Y34173D02*
X21523D01*
X22976Y33937D02*
X23425D01*
X22988Y33858D02*
X23425D01*
X22956Y34016D02*
X23425D01*
X22992Y33779D02*
X23425D01*
X21024D02*
X21417D01*
X20987Y34016D02*
X21454D01*
X21008Y33937D02*
X21433D01*
X21020Y33858D02*
X21421D01*
X21008Y33622D02*
X21433D01*
X21020Y33701D02*
X21421D01*
X24921Y33464D02*
X25354D01*
X24921Y33386D02*
X25354D01*
X24921Y33543D02*
X25354D01*
X24921Y33307D02*
X25354D01*
X24921Y33071D02*
X25354D01*
X24921Y33031D02*
Y34528D01*
Y33228D02*
X25354D01*
X24921Y33149D02*
X25354D01*
X22956Y33543D02*
X23425D01*
Y33031D02*
X24921D01*
X21279Y23071D02*
X25354D01*
X21289Y22992D02*
X25354D01*
X21247Y23149D02*
X25354D01*
X21366Y22834D02*
X25354D01*
X21279Y22913D02*
X25354D01*
X20580Y24567D02*
X25354D01*
X20576Y24488D02*
X25354D01*
X20568Y24645D02*
X25354D01*
X21183Y23228D02*
X25354D01*
X20985Y23307D02*
X25354D01*
X22887Y33386D02*
X23425D01*
X22834Y33307D02*
X23425D01*
X22926Y33464D02*
X23425D01*
Y33031D02*
Y34528D01*
X22767Y33228D02*
X23425D01*
X20958Y33464D02*
X21483D01*
X20918Y33386D02*
X21523D01*
X20987Y33543D02*
X21454D01*
X20866Y33307D02*
X21575D01*
X22677Y33149D02*
X23425D01*
X22548Y33071D02*
X23425D01*
X21377Y22825D02*
X23235Y20966D01*
X20708Y33149D02*
X21733D01*
X20579Y33071D02*
X21862D01*
X20798Y33228D02*
X21643D01*
X16290Y28268D02*
X25354D01*
X16247Y28189D02*
X25354D01*
X16308Y28346D02*
X25354D01*
X16067Y28031D02*
X25354D01*
X15988Y27953D02*
X25354D01*
X16163Y28110D02*
X25354D01*
X15831Y27795D02*
X25354D01*
X15752Y27716D02*
X25354D01*
X15910Y27874D02*
X25354D01*
X15590Y27559D02*
X25354D01*
X15673Y27638D02*
X25354D01*
X18501Y27086D02*
X25354D01*
X18501Y27008D02*
X25354D01*
X18481Y27165D02*
X25354D01*
X18489Y26771D02*
X25354D01*
X18481Y26929D02*
X25354D01*
X17628Y27401D02*
X25354D01*
X18342Y27323D02*
X25354D01*
X15049Y27480D02*
X25354D01*
X18462Y26850D02*
X25354D01*
X18435Y27244D02*
X25354D01*
X15047Y31653D02*
X25354D01*
X15073Y31575D02*
X25354D01*
X20255Y34567D02*
X22186D01*
X15063Y31417D02*
X25354D01*
X15078Y31496D02*
X25354D01*
X14993Y31732D02*
X25354D01*
X15024Y31338D02*
X25354D01*
X14874Y31811D02*
X25354D01*
X14847Y31181D02*
X25354D01*
X14947Y31260D02*
X25354D01*
X16128Y28661D02*
X25354D01*
X16232Y28582D02*
X25354D01*
X15962Y28740D02*
X25354D01*
X16305Y28425D02*
X25354D01*
X16282Y28504D02*
X25354D01*
X14686Y31023D02*
X25354D01*
X14184Y30945D02*
X25354D01*
X14768Y31102D02*
X25354D01*
X15926Y28819D02*
X25354D01*
X15856Y28897D02*
X25354D01*
X20539Y24724D02*
X25354D01*
X20556Y24409D02*
X25354D01*
X20486Y24803D02*
X25354D01*
X20447Y24252D02*
X25354D01*
X20516Y24331D02*
X25354D01*
X20252Y25039D02*
X25354D01*
X20331Y24960D02*
X25354D01*
X20173Y25118D02*
X25354D01*
X20309Y24173D02*
X25354D01*
X20409Y24882D02*
X25354D01*
X20295Y23622D02*
X25354D01*
X20374Y23543D02*
X25354D01*
X20256Y23701D02*
X25354D01*
X20531Y23386D02*
X25354D01*
X20452Y23464D02*
X25354D01*
X20256Y24016D02*
X25354D01*
X20256Y23937D02*
X25354D01*
X20254Y24094D02*
X25354D01*
X20256Y23779D02*
X25354D01*
X20256Y23858D02*
X25354D01*
X18478Y26614D02*
X25354D01*
X18439Y26535D02*
X25354D01*
X18493Y26693D02*
X25354D01*
X17962Y25984D02*
X25354D01*
X18362Y26456D02*
X25354D01*
X17883Y26299D02*
X25354D01*
X17894Y26220D02*
X25354D01*
X17842Y26378D02*
X25354D01*
X17894Y26063D02*
X25354D01*
X17894Y26142D02*
X25354D01*
X19858Y25433D02*
X25354D01*
X19937Y25354D02*
X25354D01*
X19833Y25512D02*
X25354D01*
X20094Y25197D02*
X25354D01*
X20016Y25275D02*
X25354D01*
X19746Y25827D02*
X25354D01*
X19795Y25748D02*
X25354D01*
X19662Y25905D02*
X25354D01*
X19833Y25590D02*
X25354D01*
X19823Y25669D02*
X25354D01*
X25009Y21260D02*
X25354D01*
X25088Y21181D02*
X25354D01*
X24845Y21338D02*
X25354D01*
X25164Y21023D02*
X25354D01*
X25176Y20945D02*
X25354D01*
X25136Y21102D02*
X25354D01*
X23854Y21417D02*
X25354D01*
X24744Y20917D02*
X25138D01*
X24744D02*
Y21311D01*
Y20524D02*
Y20917D01*
X25157Y20787D02*
X25354D01*
X25123Y20708D02*
X25354D01*
X25174Y20866D02*
X25354D01*
X25145Y20236D02*
X25354D01*
X25068Y20630D02*
X25354D01*
X24975Y20551D02*
X25354D01*
X23997Y20472D02*
X25354D01*
X24350Y20917D02*
X24744D01*
X25067Y20315D02*
X25354D01*
X24932Y20394D02*
X25354D01*
X24035Y21338D02*
X24643D01*
X24125Y21260D02*
X24479D01*
X24183Y21181D02*
X24400D01*
X24221Y21102D02*
X24352D01*
X22863Y21338D02*
X23453D01*
X22941Y21260D02*
X23364D01*
X23020Y21181D02*
X23305D01*
X23099Y21102D02*
X23267D01*
X23178Y21023D02*
X23243D01*
X24245D02*
X24324D01*
X24253Y20866D02*
X24314D01*
X24255Y20945D02*
X24312D01*
X24211Y20708D02*
X24365D01*
X24239Y20787D02*
X24331D01*
X24167Y20630D02*
X24420D01*
X24102Y20551D02*
X24513D01*
X23932Y20394D02*
X24556D01*
X24067Y20315D02*
X24422D01*
X25249Y20000D02*
X25354D01*
X25256Y19921D02*
X25354D01*
X25230Y20079D02*
X25354D01*
X25232Y19764D02*
X25354D01*
X25250Y19842D02*
X25354D01*
X25200Y19685D02*
X25354D01*
X25150Y19606D02*
X25354D01*
X25196Y20157D02*
X25354D01*
X24950Y19449D02*
X25354D01*
X25076Y19527D02*
X25354D01*
X25256Y18897D02*
X25354D01*
X25256Y18819D02*
X25354D01*
X25256Y18976D02*
X25354D01*
X25256Y18582D02*
X25354D01*
X25256Y18661D02*
X25354D01*
X25256Y19291D02*
X25354D01*
X25256Y19212D02*
X25354D01*
X25256Y19370D02*
X25354D01*
X25256Y19055D02*
X25354D01*
X25256Y19134D02*
X25354D01*
X24145Y20236D02*
X24344D01*
X24196Y20157D02*
X24292D01*
X24898Y19429D02*
X25256D01*
X23228Y19990D02*
Y20145D01*
X22825Y19725D02*
X23288Y19262D01*
X24232Y19071D02*
Y19193D01*
X25256Y18740D02*
X25354D01*
X24175Y19193D02*
X24232D01*
X25256Y18504D02*
X25354D01*
X24187Y18661D02*
X24232D01*
X24046Y18504D02*
X24232D01*
X24131Y18582D02*
X24232D01*
X21918Y22283D02*
X25354D01*
X21996Y22205D02*
X25354D01*
X21839Y22362D02*
X25354D01*
X22154Y22047D02*
X25354D01*
X22233Y21968D02*
X25354D01*
X22075Y22126D02*
X25354D01*
X21524Y22677D02*
X25354D01*
X21603Y22598D02*
X25354D01*
X21445Y22756D02*
X25354D01*
X21760Y22441D02*
X25354D01*
X21682Y22519D02*
X25354D01*
X22548Y21653D02*
X25354D01*
X22626Y21575D02*
X25354D01*
X22469Y21732D02*
X25354D01*
X22705Y21496D02*
X25354D01*
X22784Y21417D02*
X23634D01*
X22311Y21890D02*
X25354D01*
X22390Y21811D02*
X25354D01*
X22451Y20859D02*
X22756Y20554D01*
X22451Y20472D02*
X22756D01*
X22451Y20551D02*
X22756D01*
X22451Y20787D02*
X22523D01*
X22451Y20708D02*
X22602D01*
X22451Y20630D02*
X22680D01*
X21112Y20778D02*
X21270Y20621D01*
X20984Y21575D02*
X21123D01*
X20024Y20708D02*
X21182D01*
X22451Y20315D02*
X22756D01*
X22451Y20236D02*
X22756D01*
X22451Y20394D02*
X22756D01*
X20343Y20157D02*
X21270D01*
X20318Y20236D02*
X21270D01*
X20019Y20551D02*
X21270D01*
X20098Y20472D02*
X21270D01*
X19947Y20630D02*
X21261D01*
X20256Y20315D02*
X21270D01*
X20177Y20394D02*
X21270D01*
X22451Y19764D02*
X22794D01*
X22451Y19842D02*
X22761D01*
X22451Y19685D02*
X22865D01*
X22451Y19527D02*
X23022D01*
X22451Y19449D02*
X23101D01*
X22451Y19606D02*
X22944D01*
X22451Y19291D02*
X23259D01*
X22451Y19370D02*
X23180D01*
X22449Y19212D02*
X23326D01*
X22425Y19134D02*
X23280D01*
X22411Y19055D02*
X23251D01*
X22379Y18976D02*
X23236D01*
X22314Y18897D02*
X23233D01*
X21909Y18740D02*
X23264D01*
X21830Y18661D02*
X23301D01*
X21987Y18819D02*
X23242D01*
X21707Y18504D02*
X23443D01*
X21751Y18582D02*
X23357D01*
X22451Y20079D02*
X22756D01*
X22451Y19921D02*
X22756D01*
X22451Y20157D02*
X22756D01*
Y19892D02*
Y20554D01*
X22451Y19242D02*
Y20859D01*
X20344Y20079D02*
X21270D01*
X22451Y20000D02*
X22756D01*
X20344D02*
X21270D01*
Y19750D02*
Y20621D01*
X20344Y19921D02*
X21270D01*
X21713Y18544D02*
X22005Y18836D01*
X20344Y19842D02*
X21270D01*
X20344Y19764D02*
X21270D01*
X20344Y19685D02*
X21146D01*
X20876Y19415D02*
X21146Y19685D01*
X18828Y25827D02*
X19131D01*
X18907Y25748D02*
X19083D01*
X18986Y25669D02*
X19055D01*
X18828Y25826D02*
X19046Y25609D01*
X18041Y25905D02*
X19216D01*
X18051Y25896D02*
X18661D01*
X19833Y25458D02*
Y25581D01*
Y25458D02*
X20465Y24826D01*
X18715Y24960D02*
X18790D01*
X18848Y24724D02*
X19026D01*
X18769Y24803D02*
X18948D01*
X18684Y24882D02*
X18869D01*
X17768Y27323D02*
X18036D01*
X17803Y27283D02*
X17979D01*
X16673Y26545D02*
X17358D01*
X17820Y26476D02*
X17969D01*
X17894Y26053D02*
X18051Y25896D01*
X17894Y26053D02*
Y26230D01*
X17787Y26456D02*
X17996D01*
X17773Y26448D02*
X17825Y26397D01*
X16369Y26339D02*
X16506Y26476D01*
X20256Y23661D02*
Y24065D01*
Y23661D02*
X20688Y23228D01*
X19783Y23563D02*
Y23664D01*
X19055Y23622D02*
X19783D01*
X18995Y23681D02*
X19783Y22894D01*
X20610Y23307D02*
X20963D01*
X20688Y23228D02*
X20765D01*
X19853Y23396D02*
X20355Y22894D01*
X19527Y23149D02*
X20099D01*
X19212Y23464D02*
X19805D01*
X19291Y23386D02*
X19863D01*
X19133Y23543D02*
X19784D01*
X19448Y23228D02*
X20020D01*
X19370Y23307D02*
X19942D01*
X19116Y24567D02*
X19184D01*
X19166Y24488D02*
X19263D01*
X19012Y24645D02*
X19105D01*
X18720Y24852D02*
X18897Y24676D01*
X16433Y24567D02*
X16772D01*
X16460Y24587D02*
X16753D01*
X18780Y24971D02*
X19280Y24470D01*
X16753Y24587D02*
X17561Y23778D01*
X18314Y24449D02*
X18455D01*
X18317Y24409D02*
X18495D01*
X18995Y23681D02*
X19586D01*
X18455Y24449D02*
X18563Y24342D01*
X18309Y24341D02*
X18563D01*
X17087Y23376D02*
X17422Y23710D01*
X11259Y33543D02*
X19485D01*
X11259Y33464D02*
X19515D01*
X12969Y28819D02*
X15392D01*
X13046Y28740D02*
X15357D01*
X11246Y33701D02*
X19453D01*
X11255Y33622D02*
X19465D01*
X11232Y33779D02*
X19449D01*
X11246Y33307D02*
X19606D01*
X11255Y33386D02*
X19554D01*
X15622Y27586D02*
X16125Y28090D01*
X15208Y28534D02*
X15344Y28670D01*
X13085Y28661D02*
X15335D01*
X13100Y28582D02*
X15256D01*
X15159Y27500D02*
X15413D01*
X14711Y31045D02*
X14895Y31229D01*
X14380Y31549D02*
X14477Y31647D01*
X14234Y30959D02*
X14502D01*
X14234Y31549D02*
X14380D01*
X13095Y28504D02*
X15093D01*
X13069Y28425D02*
X14989D01*
X13014Y28346D02*
X14938D01*
X12894Y28268D02*
X14915D01*
X11837Y28819D02*
X12602D01*
X11863Y28799D02*
X12576D01*
X11763Y28268D02*
X12676D01*
X11863Y28327D02*
X12576D01*
X15950Y25389D02*
X16205Y25135D01*
X11382Y25197D02*
X16143D01*
X11356Y25118D02*
X16140D01*
X11309Y24488D02*
X16851D01*
X11309Y24331D02*
X17009D01*
X11309Y24252D02*
X17087D01*
X11309Y24409D02*
X16930D01*
X11309Y24094D02*
X17245D01*
X11309Y24173D02*
X17166D01*
X11309Y23622D02*
X17333D01*
X11309Y23543D02*
X17254D01*
X11309Y23464D02*
X17176D01*
X11309Y23386D02*
X17097D01*
X12258Y23376D02*
X17087D01*
X11309Y23937D02*
X17402D01*
X11309Y23858D02*
X17481D01*
X11309Y24016D02*
X17324D01*
X11309Y23779D02*
X17560D01*
X11309Y23701D02*
X17412D01*
X11372Y25354D02*
X15985D01*
X11333Y25433D02*
X15842D01*
X11387Y25275D02*
X16064D01*
X11309Y25039D02*
X16021D01*
X11309Y24960D02*
X15967D01*
X11257Y25512D02*
X15748D01*
X11309Y24882D02*
X15941D01*
X11309Y23107D02*
Y25046D01*
Y24724D02*
X15951D01*
X11309Y24645D02*
X15990D01*
X11484Y22701D02*
X12091Y23307D01*
X11309Y24803D02*
X15936D01*
X11309Y24567D02*
X16067D01*
X11309Y23307D02*
X12091D01*
X11309Y23228D02*
X12012D01*
X11309Y23149D02*
X11933D01*
X20905Y21496D02*
X21051D01*
X20826Y21417D02*
X20996D01*
X20826Y21418D02*
X20983Y21574D01*
X20000Y21280D02*
X20068Y21348D01*
X19685Y22992D02*
X20257D01*
X19763Y22913D02*
X20335D01*
X19606Y23071D02*
X20178D01*
X19783Y22894D02*
X20355D01*
X19448Y21634D02*
X19686D01*
X20058Y21338D02*
X20970D01*
X20047Y21023D02*
X21043D01*
X20068Y21348D02*
X20659D01*
X20073Y20945D02*
X21043D01*
Y20945D02*
Y21070D01*
X20000Y21181D02*
X20980D01*
X20000Y21102D02*
X21019D01*
X20000Y21260D02*
X20965D01*
X20000Y21096D02*
Y21280D01*
X19597Y21545D02*
X19686Y21634D01*
X19507Y21575D02*
X19626D01*
X19448Y21634D02*
X19557Y21525D01*
X18917Y21430D02*
Y21470D01*
X18930Y21417D02*
X18997D01*
X14369Y21348D02*
X17652D01*
X18917Y21430D02*
X19154Y21194D01*
X18948Y21466D02*
X19154Y21260D01*
X19009Y21338D02*
X19076D01*
X19088Y21260D02*
X19154D01*
X14359Y21338D02*
X17662D01*
X19154Y21194D02*
Y21260D01*
X14281Y21260D02*
X17741D01*
X14123Y21102D02*
X17898D01*
X14045Y21023D02*
X17977D01*
X14202Y21181D02*
X17819D01*
X13887Y20866D02*
X18134D01*
X13966Y20945D02*
X18056D01*
X20344Y19606D02*
X21068D01*
X20344Y19527D02*
X20989D01*
X20078Y20866D02*
X21057D01*
X20063Y20787D02*
X21104D01*
X20344Y19449D02*
X20910D01*
X20344Y19370D02*
X20841D01*
X20344Y19291D02*
X20811D01*
X20344Y19134D02*
X20807D01*
X20344Y19055D02*
X20807D01*
X20344Y19212D02*
X20807D01*
Y18781D02*
Y19248D01*
X20344Y18976D02*
X20807D01*
X20344Y18897D02*
X20807D01*
X20344Y18819D02*
X20807D01*
X20344Y18740D02*
X20785D01*
X20344Y18504D02*
X20777D01*
X20344Y18661D02*
X20762D01*
X13866Y20845D02*
X14369Y21348D01*
X13866Y20427D02*
Y20845D01*
X19943Y20627D02*
X20275Y20295D01*
X17652Y21348D02*
X19232Y19768D01*
X13866Y20708D02*
X18292D01*
X13866Y20630D02*
X18371D01*
X13866Y20787D02*
X18213D01*
X13866Y20472D02*
X18528D01*
X13866Y20551D02*
X18449D01*
X13864Y20394D02*
X18607D01*
X20344Y18582D02*
X20759D01*
X19232Y19431D02*
Y19768D01*
X13844Y20315D02*
X18686D01*
X13797Y20236D02*
X18764D01*
X13720Y20157D02*
X18843D01*
X13012Y22234D02*
X13052Y22274D01*
X12974D02*
X13052D01*
X12264Y21496D02*
X12352D01*
X12222Y21417D02*
X12352D01*
X11986Y21260D02*
X12352D01*
X11673Y21181D02*
X12352D01*
X12148Y21338D02*
X12352D01*
X11673Y21023D02*
X12352D01*
X11673Y21102D02*
X12352D01*
X11673Y20472D02*
X12379D01*
X11673Y20551D02*
X12354D01*
X12422Y20414D02*
X12520Y20316D01*
X11672Y20315D02*
X12520D01*
X11652Y20236D02*
X12520D01*
X11673Y20394D02*
X12442D01*
X11533Y20079D02*
X12520D01*
X11594Y20157D02*
X12520D01*
X11505Y22834D02*
X11618D01*
X11500Y22756D02*
X11539D01*
X12352Y20581D02*
Y21509D01*
X11375Y23071D02*
X11854D01*
X11451Y22992D02*
X11776D01*
X11490Y22913D02*
X11697D01*
X11673Y20945D02*
X12352D01*
X11673Y20866D02*
X12352D01*
X11673Y21260D02*
X11813D01*
X11673Y20787D02*
X12352D01*
X11673Y20335D02*
Y21322D01*
Y20708D02*
X12352D01*
X11673Y20630D02*
X12352D01*
X11536Y20099D02*
X11604Y20168D01*
X13587Y19921D02*
X19079D01*
X13587Y19842D02*
X19158D01*
X13641Y20079D02*
X18922D01*
X13601Y19449D02*
X19232D01*
X13599Y19527D02*
X19232D01*
X13587Y19764D02*
X19232D01*
X13587Y19685D02*
X19232D01*
X13587Y20000D02*
X19001D01*
X13583Y19370D02*
X19232D01*
X13587Y19606D02*
X19232D01*
X13475Y18976D02*
X19232D01*
X13493Y18897D02*
X19232D01*
X13541Y19291D02*
X19232D01*
X13467Y18740D02*
X19232D01*
X13490Y18819D02*
X19232D01*
X13348Y19134D02*
X19232D01*
X13433Y19055D02*
X19232D01*
X13456Y19212D02*
X19232D01*
X13312Y18582D02*
X19232D01*
X13417Y18661D02*
X19232D01*
X13587Y20024D02*
X13779Y20216D01*
X11518Y19764D02*
X12520D01*
X11525Y19685D02*
X12520D01*
X13587Y19577D02*
Y20024D01*
X12520Y19291D02*
Y20316D01*
X11512Y20000D02*
X12520D01*
X11466Y19921D02*
X12520D01*
X11489Y19842D02*
X12520D01*
X12589Y19124D02*
X12864Y18849D01*
X11477Y19527D02*
X12520D01*
X11407Y19449D02*
X12520D01*
X11513Y19606D02*
X12520D01*
X25256Y18425D02*
X25354D01*
X23441Y17165D02*
X25354D01*
X25256Y18406D02*
Y19429D01*
X23426Y17008D02*
X25354D01*
X23425Y16693D02*
X25354D01*
X23443Y17086D02*
X25354D01*
X23418Y17244D02*
X25354D01*
X23383Y16929D02*
X25354D01*
X23368Y17323D02*
X25354D01*
X23418Y16771D02*
X25354D01*
X23389Y16850D02*
X25354D01*
X25144Y16142D02*
X25354D01*
X25144Y16063D02*
X25354D01*
X25144Y16220D02*
X25354D01*
X25144Y15905D02*
X25354D01*
X25144Y15984D02*
X25354D01*
X25144Y16535D02*
X25354D01*
X25144Y16457D02*
X25354D01*
X23811Y16614D02*
X25354D01*
X25144Y16299D02*
X25354D01*
X25144Y16378D02*
X25354D01*
X24232Y18406D02*
X25256D01*
X24278Y16545D02*
X25144D01*
X24232Y18406D02*
Y18764D01*
X24711Y16112D02*
Y16506D01*
X24089Y16457D02*
X24278D01*
X23884Y18425D02*
X24232D01*
X23999Y16535D02*
X24278D01*
X23413Y16614D02*
X23610D01*
X23377Y16535D02*
X23423D01*
X24222Y16142D02*
X24278D01*
X24711Y16112D02*
X25104D01*
X24211Y16220D02*
X24278D01*
X24317Y16112D02*
X24711D01*
X24220Y16063D02*
X24278D01*
X24187Y16299D02*
X24278D01*
X24206Y15984D02*
X24278D01*
X24148Y16378D02*
X24278D01*
X24135Y15827D02*
X24278D01*
X24179Y15905D02*
X24278D01*
X25144Y15748D02*
X25354D01*
X25144Y13937D02*
X25354D01*
X25144Y15827D02*
X25354D01*
Y236D02*
Y37165D01*
X25144Y13779D02*
X25354D01*
X25144Y13081D02*
Y13947D01*
X23967Y15669D02*
X25354D01*
X23811Y14016D02*
X25354D01*
X24278Y15679D02*
X25144D01*
Y13858D02*
X25354D01*
X24278Y13947D02*
X25144D01*
Y13622D02*
X25354D01*
X25144Y13543D02*
X25354D01*
X25144Y13701D02*
X25354D01*
X25144Y13386D02*
X25354D01*
X25144Y13464D02*
X25354D01*
X25144Y13228D02*
X25354D01*
X25144Y13149D02*
X25354D01*
X25144Y13307D02*
X25354D01*
X23967Y13071D02*
X25354D01*
X24278Y13081D02*
X25144D01*
Y15679D02*
Y16545D01*
X24711Y15718D02*
Y16112D01*
X24278Y15679D02*
Y16545D01*
X24711Y13514D02*
Y13907D01*
X24278Y13081D02*
Y13947D01*
X23999Y13937D02*
X24278D01*
X24089Y13858D02*
X24278D01*
X24070Y15748D02*
X24278D01*
X24187Y13701D02*
X24278D01*
X24148Y13779D02*
X24278D01*
X24317Y13514D02*
X24711D01*
X25104D01*
X24222Y13543D02*
X24278D01*
X24711Y13120D02*
Y13514D01*
X24220Y13464D02*
X24278D01*
X24206Y13386D02*
X24278D01*
X24179Y13307D02*
X24278D01*
X24211Y13622D02*
X24278D01*
X24070Y13149D02*
X24278D01*
X24135Y13228D02*
X24278D01*
X21626Y18346D02*
X25354D01*
X21681Y18425D02*
X23604D01*
X21643Y17795D02*
X25354D01*
X21722Y17716D02*
X25354D01*
X21565Y17874D02*
X25354D01*
X20344Y18189D02*
X25354D01*
X20344Y18110D02*
X25354D01*
X21507Y18268D02*
X25354D01*
X21479Y17953D02*
X25354D01*
X20403Y18031D02*
X25354D01*
X23100Y17480D02*
X25354D01*
X23263Y17401D02*
X25354D01*
X21801Y17638D02*
X25354D01*
X22998Y17559D02*
X25354D01*
X14141Y15669D02*
X23454D01*
X14173Y15748D02*
X23346D01*
X21860Y17579D02*
X22904D01*
X23071Y17510D02*
X23149Y17431D01*
X22565Y16831D02*
X22824Y16571D01*
X20018Y16831D02*
X22565D01*
X20007Y16771D02*
X22624D01*
X21515Y17923D02*
X21860Y17579D01*
X19925Y16614D02*
X22781D01*
X19977Y16693D02*
X22703D01*
X23313Y16444D02*
X23344Y16475D01*
X23257Y16394D02*
X23313Y16444D01*
X21155Y16348D02*
X23181D01*
X23315Y15779D02*
X23344Y15749D01*
X23233Y15849D02*
X23315Y15779D01*
X13279Y16457D02*
X22914D01*
X21114Y16378D02*
X23236D01*
X19833Y16535D02*
X22844D01*
X21078Y15827D02*
X23259D01*
X21155Y15876D02*
X23181D01*
X15475Y15197D02*
X25354D01*
X15482Y15118D02*
X25354D01*
X15446Y15275D02*
X25354D01*
X15434Y14960D02*
X25354D01*
X15470Y15039D02*
X25354D01*
X14170Y15512D02*
X25354D01*
X15246Y15433D02*
X25354D01*
X14135Y15590D02*
X25354D01*
X15404Y14882D02*
X25354D01*
X15386Y15354D02*
X25354D01*
X15404Y14331D02*
X25354D01*
X21380Y14252D02*
X25354D01*
X15404Y14409D02*
X25354D01*
X21506Y14094D02*
X25354D01*
X21464Y14173D02*
X25354D01*
X15404Y14724D02*
X25354D01*
X15404Y14645D02*
X25354D01*
X15404Y14803D02*
X25354D01*
X15404Y14488D02*
X25354D01*
X15404Y14567D02*
X25354D01*
X21732Y13622D02*
X23210D01*
X21732Y13543D02*
X23200D01*
X21732Y11334D02*
Y13701D01*
X21524Y14016D02*
X23610D01*
X21594Y13937D02*
X23423D01*
X21672Y13858D02*
X23332D01*
X21719Y13779D02*
X23273D01*
X21732Y13701D02*
X23234D01*
X21732Y12992D02*
X25354D01*
X21732Y12913D02*
X25354D01*
X21732Y13071D02*
X23454D01*
X21732Y12756D02*
X25354D01*
X21732Y12834D02*
X25354D01*
X21732Y13386D02*
X23215D01*
X21732Y13307D02*
X23242D01*
X21732Y13464D02*
X23201D01*
X21732Y13149D02*
X23351D01*
X21732Y13228D02*
X23286D01*
X25222Y11023D02*
X25354D01*
X25222Y10945D02*
X25354D01*
X25222Y11102D02*
X25354D01*
X25222Y10787D02*
X25354D01*
X25222Y10708D02*
X25354D01*
X25222Y10866D02*
X25354D01*
X25222Y11417D02*
X25354D01*
X25222Y11338D02*
X25354D01*
X25222Y11496D02*
X25354D01*
X25222Y11181D02*
X25354D01*
X25222Y11260D02*
X25354D01*
X25222Y10551D02*
X25354D01*
X24789Y8897D02*
X25354D01*
X25222Y10630D02*
X25354D01*
X24774Y8740D02*
X25354D01*
X24792Y8819D02*
X25354D01*
X24716Y9055D02*
X25354D01*
X24766Y8976D02*
X25354D01*
X24612Y9134D02*
X25354D01*
X24647Y8583D02*
X25354D01*
X24732Y8661D02*
X25354D01*
X24199Y11496D02*
X25222D01*
X24142Y11260D02*
X24199D01*
Y11138D02*
Y11496D01*
X25222Y10472D02*
Y11496D01*
X24199Y10472D02*
Y10831D01*
X23984Y11417D02*
X24199D01*
X24080Y11338D02*
X24199D01*
X23724Y11496D02*
X24199D01*
X24142Y10708D02*
X24199D01*
X23983Y10551D02*
X24199D01*
Y10472D02*
X25222D01*
X24080Y10630D02*
X24199D01*
X23234Y9134D02*
X24345D01*
X23310Y9085D02*
X24269D01*
X23310Y8612D02*
X24269D01*
X23269Y8583D02*
X24310D01*
X24837Y3937D02*
X25354D01*
X24873Y3858D02*
X25354D01*
X24790Y4016D02*
X25354D01*
X24913Y3701D02*
X25354D01*
X24898Y3779D02*
X25354D01*
X24527Y4252D02*
X25354D01*
X24645Y4173D02*
X25354D01*
X24295Y4331D02*
X25354D01*
X24728Y4094D02*
X25354D01*
X24920Y3543D02*
X25354D01*
X24910Y3464D02*
X25354D01*
X24921Y3622D02*
X25354D01*
X24865Y3307D02*
X25354D01*
X24892Y3386D02*
X25354D01*
X24776Y3149D02*
X25354D01*
X24709Y3071D02*
X25354D01*
X24827Y3228D02*
X25354D01*
X24486Y2913D02*
X25354D01*
X24619Y2992D02*
X25354D01*
X22970Y3779D02*
X23449D01*
X22985Y3701D02*
X23433D01*
X22737Y4173D02*
X23702D01*
X22812Y4094D02*
X23618D01*
X22869Y4016D02*
X23556D01*
X22913Y3937D02*
X23509D01*
X22946Y3858D02*
X23474D01*
X22991Y3543D02*
X23427D01*
X22982Y3464D02*
X23436D01*
X22992Y3622D02*
X23426D01*
X22964Y3386D02*
X23454D01*
X22903Y3228D02*
X23520D01*
X22856Y3149D02*
X23571D01*
X22939Y3307D02*
X23482D01*
X22714Y2992D02*
X23727D01*
X22794Y3071D02*
X23637D01*
X21732Y12205D02*
X25354D01*
X21732Y12126D02*
X25354D01*
X21732Y12283D02*
X25354D01*
X21732Y11968D02*
X25354D01*
X21732Y11890D02*
X25354D01*
X21732Y12047D02*
X25354D01*
X21732Y12598D02*
X25354D01*
X21732Y12520D02*
X25354D01*
X21732Y12677D02*
X25354D01*
X21732Y12362D02*
X25354D01*
X21732Y12441D02*
X25354D01*
X22375Y10472D02*
X25354D01*
X22268Y10394D02*
X25354D01*
X22429Y10551D02*
X23438D01*
X22111Y10236D02*
X25354D01*
X22190Y10315D02*
X25354D01*
X21732Y11732D02*
X25354D01*
X21732Y11653D02*
X25354D01*
X21732Y11811D02*
X25354D01*
X21732Y11575D02*
X25354D01*
X21732Y11496D02*
X23697D01*
X21797Y11181D02*
X23238D01*
X21800Y11102D02*
X23213D01*
X21782Y11023D02*
X23200D01*
X22329Y10945D02*
X23200D01*
X21732Y11417D02*
X23438D01*
X21732Y11338D02*
X23341D01*
X21774Y11260D02*
X23279D01*
X22445Y10787D02*
X23238D01*
X22460Y10708D02*
X23279D01*
X22406Y10866D02*
X23213D01*
X22455Y10630D02*
X23341D01*
X21740Y10945D02*
X21962D01*
X21655Y10866D02*
X21886D01*
X19106Y10787D02*
X21827D01*
X21768Y10728D02*
X21860Y10820D01*
X20986Y10728D02*
X21768D01*
X18224Y10079D02*
X25354D01*
X18201Y10000D02*
X25354D01*
X21996Y10157D02*
X25354D01*
X18046Y9842D02*
X25354D01*
X18151Y9921D02*
X25354D01*
X17904Y9685D02*
X25354D01*
X17904Y9606D02*
X25354D01*
X17967Y9764D02*
X25354D01*
X17904Y9449D02*
X25354D01*
X17904Y9527D02*
X25354D01*
X17883Y9291D02*
X25354D01*
X17837Y9212D02*
X25354D01*
X17902Y9370D02*
X25354D01*
X22418Y2834D02*
X25354D01*
X17401Y8504D02*
X25354D01*
X17349Y8346D02*
X25354D01*
X17290Y8268D02*
X25354D01*
X17388Y8425D02*
X25354D01*
X17024Y8110D02*
X25354D01*
X17226Y8189D02*
X25354D01*
X22099Y10224D02*
X22277Y10402D01*
X17760Y9134D02*
X22967D01*
X20986Y10138D02*
X21890D01*
X17681Y9055D02*
X22863D01*
X17602Y8976D02*
X22813D01*
X17524Y8897D02*
X22789D01*
X17402Y8740D02*
X22805D01*
X17445Y8819D02*
X22787D01*
X22479Y4331D02*
X24051D01*
X22635Y4252D02*
X23820D01*
X21024Y4331D02*
X21930D01*
X22603Y2913D02*
X23860D01*
X17402Y8661D02*
X22847D01*
X17402Y8583D02*
X22932D01*
X21024Y4252D02*
X21774D01*
X21024Y2834D02*
X21992D01*
X21024Y2913D02*
X21807D01*
X20442Y17992D02*
X21348D01*
X20344Y18346D02*
X20904D01*
X20344Y18268D02*
X21289D01*
X20344Y18425D02*
X20820D01*
X14141Y15984D02*
X20657D01*
X14076Y16063D02*
X20634D01*
X15404Y14252D02*
X21041D01*
X15404Y14173D02*
X20957D01*
X15404Y14094D02*
X20915D01*
X21526Y14005D02*
X21663Y13868D01*
X15404Y14016D02*
X20897D01*
X14183Y15827D02*
X20812D01*
X15404Y13937D02*
X20900D01*
X14173Y15905D02*
X20707D01*
X15404Y13779D02*
X20973D01*
X15404Y13858D02*
X20923D01*
X20344Y18090D02*
Y20128D01*
Y18090D02*
X20442Y17992D01*
X19232Y17126D02*
Y19428D01*
Y16870D02*
Y17126D01*
X13868Y16142D02*
X20631D01*
X14183Y15433D02*
X15088D01*
X14175Y15354D02*
X14948D01*
X14146Y15275D02*
X14889D01*
X14087Y15197D02*
X14860D01*
X13946Y15118D02*
X14853D01*
X13818Y15039D02*
X14865D01*
X13739Y14960D02*
X14901D01*
X13661Y14882D02*
X14931D01*
X13632Y14853D02*
X13887Y15108D01*
X20876Y11361D02*
Y13303D01*
X15404Y13701D02*
X20923D01*
X15404Y13228D02*
X20876D01*
X15404Y13149D02*
X20876D01*
X15406Y12992D02*
X20876D01*
X15404Y13071D02*
X20876D01*
X18657Y11732D02*
X20876D01*
X18736Y11653D02*
X20876D01*
X15491Y12756D02*
X20876D01*
X18815Y11575D02*
X20876D01*
X15487Y12834D02*
X20876D01*
X15476Y12677D02*
X20876D01*
X15460Y12913D02*
X20876D01*
X15361Y12520D02*
X20876D01*
X15437Y12598D02*
X20876D01*
X15404Y13622D02*
X20868D01*
X15404Y13543D02*
X20842D01*
X15404Y13464D02*
X20837D01*
X15404Y12995D02*
Y14918D01*
Y13386D02*
X20852D01*
X15404Y13307D02*
X20875D01*
X14931Y12978D02*
Y14918D01*
X18894Y11496D02*
X20876D01*
X18972Y11417D02*
X20876D01*
X18578Y11811D02*
X20876D01*
X19051Y11338D02*
X20859D01*
X18585Y11804D02*
X19077Y11312D01*
X18457Y11890D02*
X20876D01*
X15936Y11919D02*
X18307D01*
X13514Y17638D02*
X19232D01*
X13524Y17559D02*
X19232D01*
X13482Y17716D02*
X19232D01*
X13481Y17401D02*
X19232D01*
X13425Y17165D02*
X19232D01*
X13514Y17480D02*
X19232D01*
X13417Y17795D02*
X19232D01*
X13417Y17323D02*
X19232D01*
X13220Y17874D02*
X19232D01*
X13415Y17086D02*
X19232D01*
X13415Y17244D02*
X19232D01*
X13319Y16929D02*
X19232D01*
X13329Y16378D02*
X20776D01*
X13383Y17008D02*
X19232D01*
X13352Y16299D02*
X20691D01*
X13355Y16220D02*
X20649D01*
X13299Y16771D02*
X19245D01*
X13307Y16693D02*
X19274D01*
X13270Y16850D02*
X19233D01*
X13259Y16535D02*
X19419D01*
X13294Y16614D02*
X19327D01*
X12408Y17244D02*
X12805D01*
X12434Y17224D02*
X12801D01*
X13337Y16142D02*
X13868D01*
X13327Y16063D02*
X13660D01*
X13327Y15984D02*
X13595D01*
X13327Y15905D02*
X13560D01*
X12269D02*
X12303D01*
X13559Y14803D02*
X14931D01*
X11925Y12126D02*
X20876D01*
X11846Y12205D02*
X20876D01*
X11530Y12520D02*
X14994D01*
X11610Y12441D02*
X20876D01*
X11393Y12598D02*
X14917D01*
X11768Y12283D02*
X20876D01*
X11689Y12362D02*
X20876D01*
X12902Y11653D02*
X15563D01*
X12920Y11575D02*
X15544D01*
X12922Y11496D02*
X15542D01*
X12876Y11338D02*
X15589D01*
X12908Y11417D02*
X15557D01*
X12004Y12047D02*
X20876D01*
X12083Y11968D02*
X20876D01*
X12680Y11890D02*
X15785D01*
X12801Y11811D02*
X15664D01*
X12865Y11732D02*
X15600D01*
X13327Y15827D02*
X13494D01*
X13327Y15748D02*
X13416D01*
X12303Y15823D02*
Y15936D01*
X13327Y15659D02*
X13539Y15871D01*
X13327Y15659D02*
Y16117D01*
X11269Y15905D02*
X11361D01*
X11792Y14970D02*
X11910Y14853D01*
X11278Y14970D02*
X11792D01*
X12077Y14783D02*
X13465D01*
X12132Y11919D02*
X12529D01*
X11549Y12502D02*
X12132Y11919D01*
X19187Y11102D02*
X20801D01*
X19193Y11023D02*
X20824D01*
X19164Y11181D02*
X20799D01*
X21245Y10866D02*
X21317D01*
X19183Y10945D02*
X20875D01*
X19121Y11260D02*
X20816D01*
X19156Y10866D02*
X20979D01*
X19021Y10708D02*
X20723D01*
X19449Y4380D02*
X21024D01*
Y4173D02*
X21673D01*
X18698Y4252D02*
X19449D01*
X21024Y4094D02*
X21598D01*
X18800Y4173D02*
X19449D01*
X18167Y10315D02*
X20584D01*
X18209Y10236D02*
X20630D01*
X18083Y10394D02*
X20564D01*
X18227Y10157D02*
X20724D01*
X18542Y4331D02*
X19449D01*
X18144Y11132D02*
X18520Y10756D01*
X17399Y10032D02*
X17627Y10259D01*
X17032Y10079D02*
X17446D01*
X17111Y10000D02*
X17372D01*
X17904Y9701D02*
X18045Y9842D01*
X17904Y9400D02*
Y9701D01*
X17402Y8514D02*
Y8775D01*
X17189Y9921D02*
X17330D01*
X17402Y8775D02*
X17817Y9191D01*
X21024Y4016D02*
X21541D01*
X21024Y3937D02*
X21497D01*
X21024Y3858D02*
X21463D01*
X21024Y3701D02*
X21425D01*
X21024Y2805D02*
Y4380D01*
Y3779D02*
X21440D01*
X21024Y3622D02*
X21418D01*
X19009Y3858D02*
X19449D01*
Y2805D02*
Y4380D01*
X19055Y3622D02*
X19449D01*
X21024Y3464D02*
X21428D01*
X21024Y3386D02*
X21445D01*
X21024Y3543D02*
X21419D01*
X21024Y3228D02*
X21507D01*
X21024Y3307D02*
X21471D01*
X21024Y3149D02*
X21554D01*
X21024Y3071D02*
X21615D01*
X18919Y3149D02*
X19449D01*
X21024Y2992D02*
X21695D01*
X19449Y2805D02*
X21024D01*
X18976Y3937D02*
X19449D01*
X19033Y3779D02*
X19449D01*
X18932Y4016D02*
X19449D01*
X19054Y3543D02*
X19449D01*
X19048Y3701D02*
X19449D01*
X18874Y4094D02*
X19449D01*
X17024Y3779D02*
X17503D01*
X17039Y3701D02*
X17488D01*
X17047Y3622D02*
X17481D01*
X19027Y3386D02*
X19449D01*
X19001Y3307D02*
X19449D01*
X19045Y3464D02*
X19449D01*
X18857Y3071D02*
X19449D01*
X18966Y3228D02*
X19449D01*
X17036Y3464D02*
X17491D01*
X18777Y2992D02*
X19449D01*
X17046Y3543D02*
X17482D01*
X18481Y2834D02*
X19449D01*
X18666Y2913D02*
X19449D01*
X12732Y10866D02*
X18410D01*
X12735Y10787D02*
X18489D01*
X15936Y11132D02*
X18144D01*
X12717Y10708D02*
X18577D01*
X16892Y10236D02*
X17604D01*
X12659Y11023D02*
X18252D01*
X12709Y10945D02*
X18331D01*
X12555Y11102D02*
X18174D01*
X12675Y10630D02*
X20630D01*
X12590Y10551D02*
X20584D01*
X16976Y10157D02*
X17525D01*
X17009Y10102D02*
X17209Y9902D01*
X16898Y9106D02*
X17084Y9293D01*
X16421Y4331D02*
X17993D01*
X16653Y4252D02*
X17837D01*
X16771Y4173D02*
X17736D01*
X16854Y4094D02*
X17661D01*
X12820Y11260D02*
X15645D01*
X12720Y11181D02*
X15745D01*
X16591Y9684D02*
X16897Y9378D01*
X11968Y11132D02*
X12529D01*
X11963Y11112D02*
X12312D01*
X11841Y10522D02*
X12312D01*
X16811Y8663D02*
Y8898D01*
X15118Y4331D02*
X16177D01*
X15118Y4173D02*
X15827D01*
X13543Y4380D02*
X15118D01*
Y4252D02*
X15946D01*
X11232D02*
X13543D01*
X15118Y4094D02*
X15744D01*
X11246Y4173D02*
X13543D01*
X16916Y4016D02*
X17604D01*
X16963Y3937D02*
X17560D01*
X16999Y3858D02*
X17526D01*
X16991Y3307D02*
X17534D01*
X17018Y3386D02*
X17508D01*
X16902Y3149D02*
X17617D01*
X16835Y3071D02*
X17678D01*
X16953Y3228D02*
X17570D01*
X16612Y2913D02*
X17870D01*
X16745Y2992D02*
X17758D01*
X15118Y3071D02*
X15763D01*
X15118Y2992D02*
X15853D01*
X15118Y3149D02*
X15697D01*
X15118Y2834D02*
X18055D01*
X15118Y2913D02*
X15986D01*
X15118Y4016D02*
X15682D01*
X15118Y3937D02*
X15635D01*
X15118Y3858D02*
X15600D01*
X15118Y3779D02*
X15575D01*
X15118Y2805D02*
Y4380D01*
X11259Y4016D02*
X13543D01*
X11259Y3937D02*
X13543D01*
X11255Y4094D02*
X13543D01*
Y2805D02*
Y4380D01*
X11255Y3858D02*
X13543D01*
X15118Y3701D02*
X15559D01*
X15118Y3543D02*
X15553D01*
X15118Y3622D02*
X15552D01*
X15118Y3228D02*
X15646D01*
X15118Y3464D02*
X15562D01*
X11232Y3701D02*
X13543D01*
X15118Y3386D02*
X15580D01*
X11246Y3779D02*
X13543D01*
X15118Y3307D02*
X15608D01*
X13543Y2805D02*
X15118D01*
X7635Y36614D02*
X25354D01*
X7638Y36535D02*
X25354D01*
X7617Y36693D02*
X25354D01*
X7638Y36378D02*
X25354D01*
X7638Y36299D02*
X25354D01*
X7638Y36456D02*
X25354D01*
X7358Y37008D02*
X25354D01*
X7437Y36929D02*
X25354D01*
X7279Y37086D02*
X25354D01*
X7579Y36771D02*
X25354D01*
X7516Y36850D02*
X25354D01*
X7638Y35748D02*
X25354D01*
X7638Y35669D02*
X25354D01*
X7638Y35827D02*
X25354D01*
X7638Y35512D02*
X25354D01*
X7638Y35590D02*
X25354D01*
X7638Y36142D02*
X25354D01*
X7638Y36063D02*
X25354D01*
X7638Y36220D02*
X25354D01*
X7638Y35905D02*
X25354D01*
X7638Y35984D02*
X25354D01*
X7638Y35275D02*
X25354D01*
X7638Y35197D02*
X25354D01*
X7638Y35433D02*
X25354D01*
X10342Y34803D02*
X25354D01*
X9906Y34882D02*
X25354D01*
X7638Y35118D02*
X25354D01*
X7638Y35039D02*
X25354D01*
X7638Y35354D02*
X25354D01*
X7638Y34960D02*
X25354D01*
X7638Y34882D02*
X9857D01*
X10522Y34724D02*
X25354D01*
X10654Y34645D02*
X25354D01*
X10759Y34567D02*
X20218D01*
X10846Y34488D02*
X19893D01*
X8031Y34409D02*
X8843D01*
X7638Y34803D02*
X9422D01*
X7643Y34724D02*
X9242D01*
X7648Y34645D02*
X9110D01*
X8031Y34567D02*
X9005D01*
X8031Y34488D02*
X8917D01*
X11161Y34016D02*
X19485D01*
X11232Y33228D02*
X19674D01*
X11190Y33937D02*
X19465D01*
X11190Y33071D02*
X19893D01*
X11161Y32992D02*
X25354D01*
X11213Y33149D02*
X19764D01*
X10921Y34409D02*
X19763D01*
X10984Y34330D02*
X19674D01*
X11039Y34252D02*
X19606D01*
X11086Y34173D02*
X19554D01*
X11127Y34094D02*
X19514D01*
X11086Y32834D02*
X25354D01*
X11039Y32756D02*
X25354D01*
X11127Y32913D02*
X25354D01*
X10920Y32598D02*
X25354D01*
X10984Y32677D02*
X25354D01*
X10758Y32441D02*
X25354D01*
X10653Y32362D02*
X25354D01*
X10846Y32519D02*
X25354D01*
X10340Y32205D02*
X25354D01*
X10521Y32283D02*
X25354D01*
X8031Y34330D02*
X8779D01*
X8031Y34252D02*
X8725D01*
X8031Y34173D02*
X8677D01*
X11214Y33858D02*
X19453D01*
X8031Y34094D02*
X8637D01*
X8031Y34016D02*
X8602D01*
X8031Y33937D02*
X8574D01*
X8031Y33858D02*
X8550D01*
X8031Y33779D02*
X8532D01*
X8031Y33228D02*
X8532D01*
X8031Y33149D02*
X8550D01*
X8031Y33307D02*
X8518D01*
X8031Y33071D02*
X8574D01*
X8031Y33701D02*
X8518D01*
X8031Y33622D02*
X8509D01*
X8031Y33543D02*
X8504D01*
X8031Y33386D02*
X8509D01*
X8031Y33464D02*
X8505D01*
X7201Y37165D02*
X25354D01*
X709Y32126D02*
X25354D01*
X7200Y37165D02*
X25354D01*
X709Y31968D02*
X25354D01*
X709Y31890D02*
X25354D01*
X709Y32047D02*
X25354D01*
X709Y31811D02*
X14654D01*
X709Y31732D02*
X14535D01*
X709Y31653D02*
X14480D01*
X709Y30787D02*
X25354D01*
X709Y30866D02*
X25354D01*
X709Y30236D02*
X25354D01*
X709Y30157D02*
X25354D01*
X709Y30315D02*
X25354D01*
X709Y30000D02*
X25354D01*
X709Y30079D02*
X25354D01*
X709Y30630D02*
X25354D01*
X709Y30551D02*
X25354D01*
X709Y30708D02*
X25354D01*
X709Y30393D02*
X25354D01*
X709Y30472D02*
X25354D01*
X709Y32519D02*
X8918D01*
X709Y32441D02*
X9005D01*
X709Y32598D02*
X8843D01*
X709Y32283D02*
X9243D01*
X709Y32362D02*
X9111D01*
X709Y32913D02*
X8637D01*
X709Y32834D02*
X8678D01*
X709Y32992D02*
X8603D01*
X709Y32677D02*
X8780D01*
X709Y32756D02*
X8725D01*
X709Y31181D02*
X13818D01*
X709Y31102D02*
X13848D01*
X709Y31260D02*
X13809D01*
X709Y30945D02*
X14064D01*
X709Y31023D02*
X13909D01*
X709Y31575D02*
X14405D01*
X709Y31496D02*
X13922D01*
X709Y32205D02*
X9423D01*
X709Y31417D02*
X13855D01*
X709Y31338D02*
X13821D01*
X709Y29449D02*
X25354D01*
X709Y29370D02*
X25354D01*
X709Y29527D02*
X25354D01*
X709Y29212D02*
X25354D01*
X709Y29291D02*
X25354D01*
X709Y29842D02*
X25354D01*
X709Y29764D02*
X25354D01*
X709Y29921D02*
X25354D01*
X709Y29606D02*
X25354D01*
X709Y29685D02*
X25354D01*
X709Y27244D02*
X17271D01*
X709Y27008D02*
X17247D01*
X709Y27165D02*
X17242D01*
X709Y26850D02*
X17330D01*
X709Y26929D02*
X17283D01*
X709Y29055D02*
X25354D01*
X709Y28976D02*
X25354D01*
X709Y29134D02*
X25354D01*
X709Y27401D02*
X17470D01*
X709Y27323D02*
X17330D01*
X709Y28425D02*
X11370D01*
X709Y28346D02*
X11425D01*
X709Y28504D02*
X11344D01*
X709Y28189D02*
X14913D01*
X709Y28268D02*
X11545D01*
X709Y28897D02*
X15463D01*
X709Y28819D02*
X11470D01*
X709Y28740D02*
X11393D01*
X709Y28661D02*
X11354D01*
X709Y28582D02*
X11339D01*
X709Y27638D02*
X14776D01*
X709Y27559D02*
X14841D01*
X709Y27716D02*
X14744D01*
X709Y27086D02*
X17234D01*
X709Y27480D02*
X15049D01*
X709Y28110D02*
X14931D01*
X709Y28031D02*
X14841D01*
X709Y27953D02*
X14776D01*
X709Y27874D02*
X14744D01*
X709Y27795D02*
X14734D01*
X9114Y25748D02*
X15682D01*
X9395Y25039D02*
X10837D01*
X9483Y24882D02*
X10837D01*
X9497Y24803D02*
X10837D01*
X9451Y24960D02*
X10837D01*
X9114Y25984D02*
X15841D01*
X9114Y25905D02*
X15748D01*
X9114Y25669D02*
X15682D01*
X9114Y25590D02*
X15702D01*
X9114Y25512D02*
X10889D01*
X9711Y23858D02*
X10837D01*
X9789Y23779D02*
X10837D01*
X9498Y24331D02*
X10837D01*
X9902Y23386D02*
X10837D01*
X9849Y23701D02*
X10837D01*
X9498Y24645D02*
X10837D01*
X9498Y24567D02*
X10837D01*
X9498Y24724D02*
X10837D01*
X9498Y24409D02*
X10837D01*
X9498Y24488D02*
X10837D01*
X9317Y25118D02*
X10790D01*
X9498Y24252D02*
X10837D01*
X9498Y24071D02*
Y24774D01*
X9114Y25354D02*
X10774D01*
X9159Y25275D02*
X10758D01*
X9114Y25321D02*
Y26426D01*
X9238Y25197D02*
X10763D01*
X9114Y25321D02*
X9383Y25052D01*
X9883Y23622D02*
X10837D01*
X9900Y23543D02*
X10837D01*
X9902Y23464D02*
X10837D01*
X9498Y24094D02*
X10837D01*
X9553Y24016D02*
X10837D01*
X9498Y24173D02*
X10837D01*
X9632Y23937D02*
X10837D01*
X9498Y24071D02*
X9786Y23782D01*
X11112Y22329D02*
X11305Y22521D01*
X11043Y20757D02*
Y22162D01*
X9902Y22441D02*
X11225D01*
X9902Y22362D02*
X11146D01*
X9902Y22519D02*
X11082D01*
X9902Y22283D02*
X11077D01*
X9902Y22205D02*
X11047D01*
X9902Y22047D02*
X11043D01*
X9902Y21890D02*
X11043D01*
X9902Y22126D02*
X11043D01*
X9886Y21732D02*
X11043D01*
X9900Y21811D02*
X11043D01*
X9720Y21496D02*
X11043D01*
X9641Y21417D02*
X11043D01*
X9798Y21575D02*
X11043D01*
X9453Y21260D02*
X11043D01*
X9562Y21338D02*
X11043D01*
X10837Y22933D02*
Y25046D01*
X9902Y23228D02*
X10837D01*
X9902Y23307D02*
X10837D01*
X9902Y23071D02*
X10837D01*
X9902Y22992D02*
X10837D01*
X9902Y23149D02*
X10837D01*
X9902Y22913D02*
X10837D01*
X9902Y21841D02*
Y23504D01*
Y22756D02*
X10882D01*
X9902Y22677D02*
X10908D01*
X9902Y22834D02*
X10857D01*
X9902Y21968D02*
X11043D01*
X9902Y22598D02*
X10962D01*
X9854Y21653D02*
X11043D01*
X9114Y22004D02*
Y22863D01*
X9560Y21336D02*
X9786Y21562D01*
X9113Y26456D02*
X16487D01*
X9114Y26378D02*
X16408D01*
X9114Y26299D02*
X16235D01*
X9114Y26220D02*
X16142D01*
X9114Y26142D02*
X16096D01*
X9114Y26063D02*
X16075D01*
X8911Y26771D02*
X17307D01*
X9067Y26614D02*
X17322D01*
X9011Y26693D02*
X17305D01*
X9099Y26535D02*
X16605D01*
X9114Y25827D02*
X15702D01*
X9114Y25433D02*
X10812D01*
X8878Y23464D02*
X8991D01*
X8799Y23543D02*
X8912D01*
X8442Y24879D02*
X8711Y24611D01*
X8750Y23622D02*
X8833D01*
X8750Y23592D02*
Y23736D01*
X7600Y26299D02*
X8327D01*
X7665Y26220D02*
X8327D01*
X7403Y26378D02*
X8327D01*
X7707Y26063D02*
X8327D01*
X7697Y26142D02*
X8327D01*
X709Y26771D02*
X8530D01*
X709Y26693D02*
X8430D01*
X709Y26614D02*
X8374D01*
X709Y26535D02*
X8342D01*
X709Y26456D02*
X8328D01*
X8342Y24960D02*
X8380D01*
X8264Y25039D02*
X8345D01*
X7791Y25512D02*
X8327D01*
X7870Y25433D02*
X8327D01*
X7697Y25984D02*
X8327D01*
X7628Y25675D02*
X8681Y24622D01*
X8185Y25118D02*
X8329D01*
X9076Y22834D02*
X9114D01*
X8826Y23629D02*
X9114Y23341D01*
X7237Y22362D02*
X9114D01*
X6921Y22677D02*
X9114D01*
X7001Y22598D02*
X9114D01*
X6724Y22756D02*
X9114D01*
X7158Y22441D02*
X9114D01*
X7079Y22519D02*
X9114D01*
X7394Y22205D02*
X9114D01*
X7316Y22283D02*
X9114D01*
X6067Y21181D02*
X11043D01*
X5986Y21023D02*
X11043D01*
X5867Y20945D02*
X11043D01*
X6041Y21102D02*
X11043D01*
X2641Y20787D02*
X11043D01*
X2771Y20866D02*
X11043D01*
X8750Y23592D02*
X8926Y23416D01*
X8511Y23071D02*
X8594D01*
X8539Y23135D02*
X8592Y23082D01*
X9004Y21893D02*
X9114Y22004D01*
X8446Y22992D02*
X8612D01*
X3627Y22913D02*
X8654D01*
X3549Y22834D02*
X8739D01*
X7552Y22047D02*
X9114D01*
X7473Y22126D02*
X9114D01*
X7768Y21811D02*
X8940D01*
X7798Y21732D02*
X8906D01*
X7805Y21653D02*
X8890D01*
X7757Y21496D02*
X8906D01*
X7792Y21575D02*
X8890D01*
X7631Y21968D02*
X9079D01*
X7709Y21890D02*
X9000D01*
X7687Y21417D02*
X8941D01*
X7308Y21260D02*
X9110D01*
X7401Y21338D02*
X9001D01*
X7638Y34785D02*
Y36565D01*
X7643Y34699D02*
X7648Y34646D01*
X7655Y34604D01*
X7642Y34768D02*
X7643Y34699D01*
X7200Y37165D02*
X7522Y36843D01*
X6559Y36693D02*
X6850Y36402D01*
Y34785D02*
Y36402D01*
X6845Y34699D02*
X6847Y34768D01*
X6840Y34646D02*
X6845Y34699D01*
X6833Y34604D02*
X6840Y34646D01*
X7655Y34604D02*
X7663Y34574D01*
X6825Y34574D02*
X6833Y34604D01*
X7666Y34567D02*
X8031D01*
X6457D02*
X6822D01*
X5516Y34488D02*
X6457D01*
X5679Y34409D02*
X6457D01*
X4094Y34567D02*
X6457D01*
X6024Y33779D02*
X6457D01*
X5782Y34330D02*
X6457D01*
X5856Y34252D02*
X6457D01*
X5912Y34173D02*
X6457D01*
X4094Y34409D02*
X4872D01*
X5954Y34094D02*
X6457D01*
X4094Y34488D02*
X5035D01*
X4094Y34330D02*
X4770D01*
X4094Y34252D02*
X4695D01*
X4094Y34173D02*
X4639D01*
X4094Y34094D02*
X4597D01*
X6007Y33937D02*
X6457D01*
X6019Y33858D02*
X6457D01*
X5985Y34016D02*
X6457D01*
X4094D02*
X4566D01*
X4094Y33937D02*
X4544D01*
X4094Y33858D02*
X4532D01*
X4094Y33701D02*
X4532D01*
X4094Y33779D02*
X4528D01*
X8031Y32992D02*
Y34567D01*
X6457Y32992D02*
X8031D01*
X6007Y33622D02*
X6457D01*
X8327Y25157D02*
Y26426D01*
X5855Y33307D02*
X6457D01*
X5781Y33228D02*
X6457D01*
X5911Y33386D02*
X6457D01*
X5514Y33071D02*
X6457D01*
X5679Y33149D02*
X6457D01*
X7664Y25905D02*
X8327D01*
X7628Y25675D02*
Y25853D01*
X7712Y25590D02*
X8327D01*
X7634Y25669D02*
X8327D01*
X7628Y25748D02*
X8327D01*
X7628Y25827D02*
X8327D01*
X5985Y33543D02*
X6457D01*
X5954Y33464D02*
X6457D01*
X6019Y33701D02*
X6457D01*
Y32992D02*
Y34567D01*
X4094Y33543D02*
X4566D01*
X4094Y33622D02*
X4544D01*
X4094Y32992D02*
Y34567D01*
X2520Y32992D02*
Y34567D01*
X6093Y25551D02*
X6398Y25856D01*
X4945Y25551D02*
X6093D01*
X4094Y33307D02*
X4696D01*
X4094Y33386D02*
X4640D01*
X4094Y33228D02*
X4770D01*
X4094Y33464D02*
X4597D01*
X4094Y33071D02*
X5037D01*
X4094Y33149D02*
X4873D01*
X852Y36299D02*
X6850D01*
X773Y36220D02*
X6850D01*
X931Y36378D02*
X6850D01*
X709Y36063D02*
X6850D01*
X709Y35984D02*
X6850D01*
X709Y36142D02*
X6850D01*
X709Y35827D02*
X6850D01*
X709Y35748D02*
X6850D01*
X709Y35905D02*
X6850D01*
X709Y35590D02*
X6850D01*
X709Y35669D02*
X6850D01*
X709Y35039D02*
X6850D01*
X709Y34960D02*
X6850D01*
X709Y35118D02*
X6850D01*
X709Y34803D02*
X6850D01*
X709Y34882D02*
X6850D01*
X709Y35433D02*
X6850D01*
X709Y35354D02*
X6850D01*
X709Y35512D02*
X6850D01*
X709Y35197D02*
X6850D01*
X709Y35275D02*
X6850D01*
X236Y36797D02*
X605Y37165D01*
X236Y37165D02*
X604D01*
X236Y36797D02*
Y37165D01*
X1246Y36693D02*
X6559D01*
X709Y36156D02*
X1246Y36693D01*
X236Y37165D02*
X605D01*
X236Y37086D02*
X526D01*
X236Y37008D02*
X447D01*
X236Y36929D02*
X368D01*
X236Y36850D02*
X289D01*
X1246Y36693D02*
X6560D01*
X1167Y36614D02*
X6638D01*
X2520Y34567D02*
X4094D01*
X1682Y34488D02*
X2520D01*
X1357Y34567D02*
X2520D01*
X1009Y36456D02*
X6796D01*
X709Y34724D02*
X6845D01*
X1088Y36535D02*
X6717D01*
X709Y34645D02*
X6840D01*
X709Y34567D02*
X1320D01*
X2122Y33858D02*
X2520D01*
X2126Y33779D02*
X2520D01*
X2110Y33937D02*
X2520D01*
Y32992D02*
X4094D01*
X2122Y33701D02*
X2520D01*
X1901Y34330D02*
X2520D01*
X2090Y34016D02*
X2520D01*
X1811Y34409D02*
X2520D01*
X709Y26378D02*
X7380D01*
X2110Y33622D02*
X2520D01*
X709Y25905D02*
X6464D01*
X709Y25827D02*
X6368D01*
X709Y25748D02*
X6290D01*
X709Y25669D02*
X6211D01*
X709Y25590D02*
X6132D01*
X709Y26299D02*
X7183D01*
X709Y26220D02*
X7119D01*
X709Y26142D02*
X7087D01*
X709Y26063D02*
X6903D01*
X709Y25984D02*
X6583D01*
X1969Y34252D02*
X2520D01*
X2021Y34173D02*
X2520D01*
X709Y34488D02*
X995D01*
X2090Y33543D02*
X2520D01*
X2060Y34094D02*
X2520D01*
X709Y34409D02*
X866D01*
X709Y34330D02*
X776D01*
X709Y34252D02*
Y36156D01*
X2020Y33386D02*
X2520D01*
X1968Y33307D02*
X2520D01*
X2060Y33464D02*
X2520D01*
X1811Y33149D02*
X2520D01*
X1901Y33228D02*
X2520D01*
X709Y33149D02*
X866D01*
X1681Y33071D02*
X2520D01*
X709Y33228D02*
X776D01*
X709Y33071D02*
X996D01*
X709Y24616D02*
Y33307D01*
X8027Y25275D02*
X8327D01*
X8106Y25197D02*
X8327D01*
X7949Y25354D02*
X8327D01*
X7634Y24778D02*
X7980Y24432D01*
X7832Y24488D02*
X7924D01*
X7570Y24724D02*
X7688D01*
X7564Y24645D02*
X7767D01*
X7602Y24567D02*
X7845D01*
X8060Y23779D02*
X8120D01*
X7982Y23701D02*
X8120D01*
Y23520D02*
Y23821D01*
X7903Y23622D02*
X8120D01*
X7726Y23445D02*
X8099Y23819D01*
X7824Y23543D02*
X8120D01*
X7745Y23464D02*
X8030D01*
X7626Y23386D02*
X7965D01*
X5193Y24478D02*
X6492D01*
X5124Y24409D02*
X6456D01*
X5045Y24331D02*
X6438D01*
X4966Y24252D02*
X6441D01*
X4305Y25010D02*
X4778Y25482D01*
X4887Y24173D02*
X6464D01*
X2948Y24252D02*
X3770D01*
X4809Y24094D02*
X6514D01*
X3485Y23967D02*
X4056Y24537D01*
X4730Y24016D02*
X6597D01*
X4572Y23858D02*
X6592D01*
X4651Y23937D02*
X6585D01*
X4494Y23779D02*
X6622D01*
X4336Y23622D02*
X6822D01*
X4257Y23543D02*
X6917D01*
X4415Y23701D02*
X6681D01*
X4100Y23386D02*
X7006D01*
X4179Y23464D02*
X6946D01*
X7302Y23307D02*
X7933D01*
X7434Y23376D02*
X7559D01*
X6486Y22756D02*
X6713D01*
X3942Y23228D02*
X7923D01*
X3864Y23149D02*
X7933D01*
X4021Y23307D02*
X7147D01*
X3706Y22992D02*
X8030D01*
X3785Y23071D02*
X7966D01*
X6936Y22663D02*
X7712Y21886D01*
X6899Y21260D02*
X7003D01*
X3470Y22756D02*
X6475D01*
X3391Y22677D02*
X6278D01*
X3312Y22598D02*
X6213D01*
X3234Y22519D02*
X6181D01*
X3076Y22362D02*
X6181D01*
X3155Y22441D02*
X6171D01*
X3036Y22322D02*
X5193Y24478D01*
X3019Y22289D02*
X3034Y22319D01*
X6073Y21240D02*
X6534D01*
X3721Y20945D02*
X5649D01*
X3722Y20945D02*
X5648D01*
X3016Y22283D02*
X6214D01*
X2981Y22205D02*
X6278D01*
X2955Y22146D02*
X3019Y22289D01*
X2955Y22146D02*
X6377D01*
X2953Y21240D02*
X3297D01*
X709Y25118D02*
X4414D01*
X709Y25039D02*
X4335D01*
X1201Y25010D02*
X4305D01*
X2853Y24537D02*
X4056D01*
X2885Y24488D02*
X4006D01*
X2920Y24409D02*
X3928D01*
X709Y25512D02*
X4814D01*
X709Y25433D02*
X4728D01*
X709Y25354D02*
X4650D01*
X709Y25275D02*
X4571D01*
X709Y25197D02*
X4492D01*
X2940Y24331D02*
X3849D01*
X2942Y24173D02*
X3691D01*
X2924Y24094D02*
X3613D01*
X2928Y23386D02*
X3209D01*
X2944Y23307D02*
X3130D01*
X2891Y24016D02*
X3534D01*
X2862Y23967D02*
X3485D01*
X2881Y23494D02*
X3318D01*
X2897Y23464D02*
X3288D01*
X1948Y24537D02*
X2048D01*
X709Y24960D02*
X1056D01*
X709Y24882D02*
X975D01*
X709Y24803D02*
X896D01*
X709Y24616D02*
X1034Y24941D01*
X709Y24724D02*
X817D01*
X1948Y24488D02*
X2017D01*
X1948Y24409D02*
X1981D01*
X1948Y24094D02*
X1978D01*
X1948Y24016D02*
X2011D01*
X1948Y23967D02*
Y24537D01*
Y23967D02*
X2040D01*
X1881Y23494D02*
X2020D01*
X1897Y23464D02*
X2004D01*
X1928Y23386D02*
X1974D01*
X2947Y23228D02*
X3052D01*
X2938Y23149D02*
X2973D01*
X2927Y23103D02*
X3318Y23494D01*
X1970Y23002D02*
X2018D01*
X1916Y23071D02*
X1986D01*
X2943Y21181D02*
X3303D01*
X2926Y21102D02*
X3329D01*
X1975Y22436D02*
X2006Y22467D01*
X2846Y20945D02*
X3503D01*
X2895Y21023D02*
X3384D01*
X1906Y22047D02*
X1985D01*
X1933Y22126D02*
X1969D01*
X1641Y22770D02*
X1672Y22801D01*
X1531Y22756D02*
X1598D01*
X1952Y22289D02*
X1956Y22359D01*
X1492Y22747D02*
X1592Y22755D01*
X1453Y22747D02*
X1492Y22747D01*
X1250Y22756D02*
X1371D01*
X1250Y22701D02*
Y22792D01*
X1951Y22248D02*
X1952Y22289D01*
X1554Y21732D02*
X1670D01*
X1408Y21747D02*
X1449Y21747D01*
X1338Y21751D02*
X1408Y21747D01*
X709Y20787D02*
X739D01*
X10719Y20433D02*
X11043Y20757D01*
X10719Y19853D02*
X10895Y19676D01*
X9914Y19921D02*
X10671D01*
X9885Y20000D02*
X10650D01*
X9908Y19764D02*
X10808D01*
X9921Y19842D02*
X10729D01*
X9803Y19606D02*
X10908D01*
X11012Y16142D02*
X11618D01*
X9873Y19685D02*
X10887D01*
X11142Y16063D02*
X11488D01*
X11219Y15984D02*
X11411D01*
X6933Y19449D02*
X11014D01*
X6854Y19370D02*
X12520D01*
X7012Y19527D02*
X10944D01*
X6697Y19212D02*
X12533D01*
X6776Y19291D02*
X12520D01*
X10650Y20020D02*
Y20266D01*
X9996Y16063D02*
X10488D01*
X10112Y15984D02*
X10411D01*
X10178Y15905D02*
X10361D01*
X10218Y15827D02*
X10328D01*
X9685Y20157D02*
X10650D01*
X9825Y20079D02*
X10650D01*
X10241Y15748D02*
X10309D01*
X10241Y15590D02*
X10309D01*
X10248Y15669D02*
X10303D01*
X10178Y15433D02*
X10361D01*
X10218Y15512D02*
X10328D01*
X9815Y15669D02*
X10209D01*
X10112Y15354D02*
X10412D01*
X9421Y15669D02*
X9815D01*
X9995Y15275D02*
X10488D01*
X9815Y15276D02*
Y15669D01*
X11022Y15128D02*
X11111Y15040D01*
X10664Y13858D02*
X14931D01*
X10664Y13543D02*
X14931D01*
X10664Y13937D02*
X14931D01*
X10664Y13779D02*
X14931D01*
X10664Y13701D02*
X14931D01*
X10664Y13464D02*
X14931D01*
X10664Y13622D02*
X14931D01*
X10664Y13228D02*
X14931D01*
X10992Y11945D02*
X11158Y11780D01*
X10664Y13307D02*
X14931D01*
X10664Y13149D02*
X14931D01*
X10664Y13386D02*
X14931D01*
X10664Y13071D02*
X14931D01*
X10430Y11811D02*
X11126D01*
X10817Y15154D02*
X10861Y15153D01*
X10936Y15149D01*
X10664Y13017D02*
Y14011D01*
X10453Y12441D02*
X10941D01*
X10519Y12362D02*
X10901D01*
X9670Y13017D02*
X10664D01*
X10333Y12520D02*
X11009D01*
X9670Y14011D02*
X10664D01*
X10167Y12136D02*
Y12515D01*
X10559Y12283D02*
X10880D01*
X10585Y12126D02*
X10889D01*
X10580Y12205D02*
X10876D01*
X10550Y11968D02*
X10971D01*
X10576Y12047D02*
X10918D01*
X10167Y12136D02*
X10546D01*
X10505Y11890D02*
X11048D01*
X9789Y12136D02*
X10167D01*
X10276Y11732D02*
X11022D01*
X10167Y11757D02*
Y12136D01*
X6496Y18819D02*
X12868D01*
X6497Y18740D02*
X12891D01*
X6496Y18897D02*
X12816D01*
X6512Y18582D02*
X13046D01*
X6489Y18504D02*
X19232D01*
X6514Y18661D02*
X12942D01*
X6334Y18346D02*
X19232D01*
X709Y18268D02*
X19232D01*
X6438Y18425D02*
X19232D01*
X709Y18110D02*
X19232D01*
X709Y18189D02*
X19232D01*
X709Y17638D02*
X12904D01*
X709Y17480D02*
X12904D01*
X709Y17559D02*
X12894D01*
X709Y17401D02*
X12902D01*
X709Y17323D02*
X12837D01*
X709Y18031D02*
X19232D01*
X709Y17953D02*
X19232D01*
X709Y17874D02*
X13198D01*
X709Y17795D02*
X13000D01*
X709Y17716D02*
X12936D01*
X2943Y20315D02*
X10655D01*
X6618Y19134D02*
X12580D01*
X2948Y20236D02*
X10650D01*
X6496Y18976D02*
X12737D01*
X6539Y19055D02*
X12658D01*
X2633Y20708D02*
X10994D01*
X2766Y20630D02*
X10916D01*
X2843Y20551D02*
X10837D01*
X2893Y20472D02*
X10758D01*
X2925Y20394D02*
X10687D01*
X3639Y16850D02*
X11941D01*
X3661Y16771D02*
X11949D01*
X3670Y16693D02*
X11903D01*
X3656Y16535D02*
X11882D01*
X3669Y16614D02*
X11882D01*
X709Y17244D02*
X12040D01*
X3348Y17165D02*
X11964D01*
X3473Y17086D02*
X11925D01*
X3603Y16929D02*
X11915D01*
X3550Y17008D02*
X11910D01*
X5758Y14724D02*
X14931D01*
X5758Y14645D02*
X14931D01*
X5758Y14803D02*
X11983D01*
X5758Y14409D02*
X14931D01*
X5758Y14488D02*
X14931D01*
X3591Y16378D02*
X11949D01*
X3534Y16299D02*
X11962D01*
X3631Y16457D02*
X11903D01*
X5758Y14567D02*
X14931D01*
X3448Y16220D02*
X11960D01*
X5758Y14252D02*
X14931D01*
X5758Y14173D02*
X14931D01*
X5758Y14331D02*
X14931D01*
X5720Y14016D02*
X14931D01*
X5748Y14094D02*
X14931D01*
X709Y12992D02*
X14931D01*
X709Y12913D02*
X14894D01*
X709Y12834D02*
X14868D01*
X709Y12677D02*
X14878D01*
X709Y12756D02*
X14863D01*
X5758Y15118D02*
X11032D01*
X5758Y15039D02*
X11111D01*
X5758Y15197D02*
X10619D01*
X5758Y14882D02*
X11881D01*
X5758Y14960D02*
X11802D01*
X3298Y16142D02*
X10618D01*
X709Y12598D02*
X11146D01*
X709Y12520D02*
X10001D01*
X709Y12441D02*
X9881D01*
X709Y12362D02*
X9816D01*
X2839Y11811D02*
X9904D01*
X2839Y11732D02*
X10059D01*
X2839Y11890D02*
X9829D01*
X2839Y11653D02*
X10937D01*
X2839Y11575D02*
X10895D01*
X2839Y11417D02*
X10880D01*
X2839Y11338D02*
X10903D01*
X2839Y11496D02*
X10877D01*
X709Y11181D02*
X11058D01*
X2839Y11260D02*
X10953D01*
X10904Y9449D02*
X16827D01*
X10915Y9370D02*
X16906D01*
X10880Y9527D02*
X16748D01*
X10913Y9291D02*
X17082D01*
X10899Y9212D02*
X17004D01*
X10872Y9134D02*
X16925D01*
X709Y10472D02*
X20563D01*
X709Y10394D02*
X17744D01*
X709Y10315D02*
X17660D01*
X10828Y9055D02*
X16856D01*
X10763Y8976D02*
X16822D01*
X9234Y8110D02*
X17011D01*
X9242Y8031D02*
X25354D01*
X10660Y8897D02*
X16811D01*
X10751Y7716D02*
X25354D01*
X10639Y7795D02*
X25354D01*
X9146Y8268D02*
X16745D01*
X9205Y8189D02*
X16809D01*
X9005Y8346D02*
X16712D01*
X9194Y7874D02*
X25354D01*
X9229Y7953D02*
X25354D01*
X11060Y11180D02*
X11632Y10608D01*
X709Y10630D02*
X11610D01*
X709Y10708D02*
X11531D01*
X10504Y9842D02*
X16435D01*
X709Y10551D02*
X11712D01*
X709Y10236D02*
X16553D01*
X709Y10787D02*
X11453D01*
X709Y10157D02*
X16469D01*
X709Y10079D02*
X16427D01*
X10692Y9764D02*
X16485D01*
X10782Y9685D02*
X16590D01*
X709Y9764D02*
X10115D01*
X10841Y9606D02*
X16669D01*
X9124Y7795D02*
X10168D01*
X709Y9842D02*
X10303D01*
X709Y9685D02*
X10025D01*
X709Y9606D02*
X9966D01*
X709Y9527D02*
X9927D01*
X709Y9449D02*
X9903D01*
X10912Y7401D02*
X25354D01*
X10915Y7323D02*
X25354D01*
X10896Y7480D02*
X25354D01*
X10884Y7165D02*
X25354D01*
X10906Y7244D02*
X25354D01*
X10866Y7559D02*
X25354D01*
X10848Y7086D02*
X25354D01*
X10820Y7638D02*
X25354D01*
X10708Y6929D02*
X25354D01*
X10792Y7008D02*
X25354D01*
X10846Y4960D02*
X25354D01*
X10921Y4882D02*
X25354D01*
X10759Y5039D02*
X25354D01*
X11039Y4724D02*
X25354D01*
X10984Y4803D02*
X25354D01*
X9903Y5354D02*
X25354D01*
X10341Y5275D02*
X25354D01*
X10550Y6850D02*
X25354D01*
X10654Y5118D02*
X25354D01*
X10522Y5197D02*
X25354D01*
X11161Y4488D02*
X25354D01*
X11190Y4409D02*
X25354D01*
X11214Y4331D02*
X13543D01*
X11190Y3543D02*
X13543D01*
X11213Y3622D02*
X13543D01*
X11086Y4646D02*
X25354D01*
X11127Y4567D02*
X25354D01*
X11161Y3464D02*
X13543D01*
X11086Y3307D02*
X13543D01*
X11039Y3228D02*
X13543D01*
X11127Y3386D02*
X13543D01*
X10920Y3071D02*
X13543D01*
X10984Y3149D02*
X13543D01*
X10759Y2913D02*
X13543D01*
X10653Y2834D02*
X13543D01*
X10846Y2992D02*
X13543D01*
X10341Y2677D02*
X25354D01*
X10521Y2756D02*
X25354D01*
X709Y8819D02*
X16811D01*
X709Y8740D02*
X16811D01*
X709Y8661D02*
X16809D01*
X709Y8583D02*
X16745D01*
X709Y8504D02*
X16713D01*
X709Y8425D02*
X16703D01*
X709Y10945D02*
X11295D01*
X709Y10866D02*
X11374D01*
X709Y11023D02*
X11216D01*
X709Y9921D02*
X16411D01*
X709Y10000D02*
X16409D01*
X709Y6299D02*
X25354D01*
X709Y6220D02*
X25354D01*
X709Y6378D02*
X25354D01*
X709Y6063D02*
X25354D01*
X709Y6142D02*
X25354D01*
X709Y6693D02*
X25354D01*
X709Y6614D02*
X25354D01*
X709Y6771D02*
X25354D01*
X709Y6457D02*
X25354D01*
X709Y6535D02*
X25354D01*
X709Y8976D02*
X10044D01*
X709Y8897D02*
X10147D01*
X709Y9055D02*
X9979D01*
X709Y7716D02*
X10056D01*
X709Y7638D02*
X9987D01*
X709Y11102D02*
X11138D01*
X709Y9291D02*
X9894D01*
X709Y9370D02*
X9893D01*
X709Y9134D02*
X9935D01*
X709Y9212D02*
X9908D01*
X709Y7086D02*
X9959D01*
X709Y7008D02*
X10015D01*
X709Y7165D02*
X9923D01*
X709Y6850D02*
X10257D01*
X709Y6929D02*
X10099D01*
X709Y7559D02*
X9941D01*
X709Y7480D02*
X9911D01*
X709Y7401D02*
X9895D01*
X709Y7244D02*
X9901D01*
X709Y7323D02*
X9892D01*
X709Y5905D02*
X25354D01*
X709Y5827D02*
X25354D01*
X709Y5984D02*
X25354D01*
X709Y5669D02*
X25354D01*
X709Y5748D02*
X25354D01*
X709Y5512D02*
X25354D01*
X709Y5433D02*
X25354D01*
X709Y5590D02*
X25354D01*
X236Y2520D02*
X25354D01*
X236Y2598D02*
X25354D01*
X236Y1968D02*
X25354D01*
X236Y1890D02*
X25354D01*
X236Y2047D02*
X25354D01*
X236Y1732D02*
X25354D01*
X236Y1811D02*
X25354D01*
X236Y2362D02*
X25354D01*
X236Y2283D02*
X25354D01*
X236Y2441D02*
X25354D01*
X236Y2126D02*
X25354D01*
X236Y2205D02*
X25354D01*
X236Y1653D02*
X25354D01*
X236Y1575D02*
X25354D01*
X709Y5354D02*
X9861D01*
X236Y1417D02*
X25354D01*
X236Y1496D02*
X25354D01*
X236Y1260D02*
X25354D01*
X236Y1181D02*
X25354D01*
X236Y1338D02*
X25354D01*
X236Y1023D02*
X25354D01*
X236Y1102D02*
X25354D01*
X236Y472D02*
X25354D01*
X236Y394D02*
X25354D01*
X236Y551D02*
X25354D01*
X236Y236D02*
X25354D01*
X236Y315D02*
X25354D01*
X236Y866D02*
X25354D01*
X236Y787D02*
X25354D01*
X236Y945D02*
X25354D01*
X236Y630D02*
X25354D01*
X236Y709D02*
X25354D01*
X2940Y20157D02*
X9527D01*
X6919Y20148D02*
X9497D01*
X2919Y20079D02*
X6729D01*
X5992Y19343D02*
X6711Y20061D01*
X2882Y20000D02*
X6649D01*
X2827Y19921D02*
X6570D01*
X2740Y19842D02*
X6492D01*
X6496Y19012D02*
X7042Y19557D01*
X9497D01*
X6496Y18741D02*
Y19012D01*
X2569Y19764D02*
X6413D01*
X5906Y18741D02*
Y19134D01*
X1919Y20079D02*
X1983D01*
X1827Y19921D02*
X2075D01*
X1882Y20000D02*
X2019D01*
X1654Y20748D02*
Y20792D01*
X1569Y19764D02*
X2332D01*
X1740Y19842D02*
X2161D01*
X2364Y17165D02*
X2892D01*
X2489Y17086D02*
X2767D01*
X2566Y17008D02*
X2690D01*
X2549Y16299D02*
X2706D01*
X2607Y16378D02*
X2649D01*
X1663Y17165D02*
X1908D01*
X1663Y17086D02*
X1783D01*
X1663Y17008D02*
X1705D01*
X1663Y16947D02*
Y17175D01*
X9815Y15669D02*
Y16063D01*
X5758Y15433D02*
X9452D01*
X5753Y15512D02*
X9412D01*
X5758Y15275D02*
X9635D01*
X5758Y15354D02*
X9518D01*
X5488Y15827D02*
X9411D01*
X5625Y15748D02*
X9389D01*
X5693Y15669D02*
X9382D01*
X5733Y15590D02*
X9389D01*
X5671Y13937D02*
X9670D01*
X5586Y13858D02*
X9670D01*
Y13017D02*
Y14011D01*
X2759Y13779D02*
X9670D01*
X2743Y13622D02*
X9670D01*
X2710Y13543D02*
X9670D01*
X2759Y13701D02*
X9670D01*
X2561Y13386D02*
X9670D01*
X2655Y13464D02*
X9670D01*
X2464Y16220D02*
X2792D01*
X5758Y14184D02*
Y15452D01*
X4970Y14184D02*
Y15452D01*
X1663Y16299D02*
X1722D01*
X1663Y16220D02*
X1808D01*
X1663Y16152D02*
Y16379D01*
X2313Y16142D02*
X2943D01*
X2659Y14016D02*
X5008D01*
X2713Y13937D02*
X5057D01*
X2568Y14094D02*
X4981D01*
X2744Y13858D02*
X5142D01*
X2343Y13742D02*
Y14121D01*
Y13742D02*
X2721D01*
X1964D02*
X2343D01*
Y13363D02*
Y13742D01*
X709Y19685D02*
X6334D01*
X709Y19606D02*
X6255D01*
X709Y19527D02*
X6177D01*
X709Y19449D02*
X6098D01*
X709Y19370D02*
X6019D01*
X709Y19291D02*
X5951D01*
X709Y19212D02*
X5916D01*
X709Y19134D02*
X5906D01*
X709Y18976D02*
X5906D01*
X709Y19055D02*
X5906D01*
X709Y18425D02*
X5963D01*
X709Y18346D02*
X6068D01*
X709Y18504D02*
X5913D01*
X709Y16142D02*
X1958D01*
X709Y17175D02*
X1663D01*
X709Y18897D02*
X5906D01*
X709Y18819D02*
X5906D01*
X709Y18740D02*
X5905D01*
X709Y18582D02*
X5890D01*
X709Y18661D02*
X5887D01*
X709Y20394D02*
X976D01*
X709Y17175D02*
Y20818D01*
Y20708D02*
X783D01*
X709Y20630D02*
X809D01*
X709Y20818D02*
X777Y20749D01*
X709Y20472D02*
X983D01*
X709Y20551D02*
X864D01*
X709Y20315D02*
X959D01*
X709Y20157D02*
X962D01*
X709Y20236D02*
X954D01*
X709Y20079D02*
X983D01*
X709Y19921D02*
X1075D01*
X709Y19842D02*
X1161D01*
X709Y20000D02*
X1019D01*
X709Y16152D02*
X1663D01*
X709Y19764D02*
X1332D01*
X709Y15669D02*
X5035D01*
X709Y15590D02*
X4995D01*
X709Y15512D02*
X4975D01*
X709Y15354D02*
X4970D01*
X709Y15433D02*
X4970D01*
X709Y16063D02*
X9634D01*
X709Y15984D02*
X9518D01*
X709Y15905D02*
X9452D01*
X709Y15827D02*
X5241D01*
X709Y15748D02*
X5104D01*
X709Y14173D02*
X4971D01*
X709Y13307D02*
X9670D01*
X709Y14803D02*
X4970D01*
X709Y13149D02*
X9670D01*
X709Y13228D02*
X9670D01*
X709Y15118D02*
X4970D01*
X709Y15039D02*
X4970D01*
X709Y15197D02*
X4970D01*
X709Y14882D02*
X4970D01*
X709Y14960D02*
X4970D01*
X709Y15275D02*
X4970D01*
X709Y14724D02*
X4970D01*
X709Y14645D02*
X4970D01*
X709Y4549D02*
Y16152D01*
Y14488D02*
X4970D01*
X709Y14409D02*
X4970D01*
X709Y14567D02*
X4970D01*
X709Y14252D02*
X4970D01*
X709Y14331D02*
X4970D01*
X709Y13622D02*
X1942D01*
X709Y13543D02*
X1975D01*
X709Y13701D02*
X1926D01*
X709Y13386D02*
X2124D01*
X709Y13464D02*
X2030D01*
X709Y14094D02*
X2117D01*
X709Y14016D02*
X2026D01*
X709Y13937D02*
X1973D01*
X709Y13858D02*
X1941D01*
X709Y13779D02*
X1926D01*
X7489Y8346D02*
X8849D01*
X7621Y8277D02*
X8717D01*
X7608Y7795D02*
X8730D01*
X7621Y7805D02*
X8717D01*
X2839Y12205D02*
X9755D01*
X2839Y12047D02*
X9759D01*
X2839Y12126D02*
X9749D01*
X2839Y11968D02*
X9784D01*
X7716Y3937D02*
X8504D01*
X7749Y3858D02*
X8509D01*
X7672Y4016D02*
X8504D01*
X7788Y3701D02*
X8532D01*
X7773Y3779D02*
X8518D01*
X7282Y4331D02*
X8550D01*
X7438Y4252D02*
X8532D01*
X5827Y4331D02*
X6733D01*
X7540Y4173D02*
X8518D01*
X7615Y4094D02*
X8509D01*
X5827Y4252D02*
X6577D01*
X5827Y4173D02*
X6476D01*
X4252Y4380D02*
X5827D01*
Y4094D02*
X6401D01*
X5827Y4016D02*
X6344D01*
X3193Y4331D02*
X4252D01*
X3424Y4252D02*
X4252D01*
X2839Y11245D02*
Y12239D01*
X3626Y4094D02*
X4252D01*
X3543Y4173D02*
X4252D01*
X5827Y3937D02*
X6300D01*
X5827Y3858D02*
X6267D01*
X5827Y3779D02*
X6243D01*
X5827Y3701D02*
X6228D01*
X3818Y3622D02*
X4252D01*
X3735Y3937D02*
X4252D01*
X3770Y3858D02*
X4252D01*
X3688Y4016D02*
X4252D01*
X3811Y3701D02*
X4252D01*
X3795Y3779D02*
X4252D01*
X7794Y3543D02*
X8574D01*
X7785Y3464D02*
X8603D01*
X7795Y3622D02*
X8550D01*
X7742Y3307D02*
X8677D01*
X7768Y3386D02*
X8637D01*
X5827Y3307D02*
X6274D01*
X7706Y3228D02*
X8725D01*
X5827Y3386D02*
X6248D01*
X5827Y3228D02*
X6310D01*
X7598Y3071D02*
X8843D01*
X7517Y2992D02*
X8918D01*
X7659Y3149D02*
X8780D01*
X7221Y2834D02*
X9111D01*
X7406Y2913D02*
X9005D01*
X5827Y3071D02*
X6418D01*
X5827Y2992D02*
X6499D01*
X5827Y3149D02*
X6357D01*
X5827Y2834D02*
X6795D01*
X5827Y2913D02*
X6610D01*
X5827Y3622D02*
X6221D01*
X5827Y3543D02*
X6222D01*
X3817D02*
X4252D01*
X5827Y2805D02*
Y4380D01*
X4252Y2805D02*
Y4380D01*
X3808Y3464D02*
X4252D01*
X5827D02*
X6231D01*
X3790Y3386D02*
X4252D01*
Y2805D02*
X5827D01*
X3762Y3307D02*
X4252D01*
X3674Y3149D02*
X4252D01*
X3607Y3071D02*
X4252D01*
X3724Y3228D02*
X4252D01*
X3384Y2913D02*
X4252D01*
X3517Y2992D02*
X4252D01*
X709Y7953D02*
X7109D01*
X709Y7874D02*
X7144D01*
X709Y8110D02*
X7104D01*
X709Y5275D02*
X9422D01*
X709Y5197D02*
X9242D01*
X709Y7795D02*
X7214D01*
X709Y13071D02*
X9670D01*
X709Y12283D02*
X9776D01*
X709Y8346D02*
X7333D01*
X709Y8268D02*
X7192D01*
X709Y8189D02*
X7133D01*
X709Y4724D02*
X8725D01*
X709Y4646D02*
X8677D01*
X709Y4567D02*
X8637D01*
X779Y4488D02*
X8602D01*
X870Y4409D02*
X8574D01*
X709Y5118D02*
X9110D01*
X709Y5039D02*
X9005D01*
X709Y4960D02*
X8917D01*
X709Y4882D02*
X8843D01*
X709Y4803D02*
X8779D01*
X1846Y12239D02*
X2839D01*
X709Y12205D02*
X1846D01*
X709Y12126D02*
X1846D01*
Y11245D02*
Y12239D01*
X709Y12047D02*
X1846D01*
X709Y11890D02*
X1846D01*
X709Y11811D02*
X1846D01*
X709Y11968D02*
X1846D01*
X709Y11653D02*
X1846D01*
X709Y11732D02*
X1846D01*
X709Y11417D02*
X1846D01*
Y11245D02*
X2839D01*
X714Y4544D02*
X902Y4382D01*
X1890Y4331D02*
X2949D01*
X916Y4380D02*
X1890D01*
X709Y11496D02*
X1846D01*
X709Y11338D02*
X1846D01*
X709Y11575D02*
X1846D01*
X709Y8031D02*
X7096D01*
X709Y11260D02*
X1846D01*
X1890Y3858D02*
X2372D01*
X1890Y3779D02*
X2347D01*
X1890Y3701D02*
X2331D01*
X1890Y3464D02*
X2334D01*
X1890Y3543D02*
X2324D01*
X1890Y4252D02*
X2717D01*
X1890Y4173D02*
X2599D01*
X1890Y4094D02*
X2516D01*
X1890Y4016D02*
X2454D01*
X1890Y3937D02*
X2407D01*
X1890Y3307D02*
X2379D01*
X1890Y3228D02*
X2418D01*
X1890Y3386D02*
X2352D01*
X1890Y3071D02*
X2535D01*
X1890Y3149D02*
X2468D01*
X1890Y2913D02*
X2758D01*
X1890Y2834D02*
X4252D01*
X1890Y2992D02*
X2625D01*
X236Y2677D02*
X9423D01*
X236Y2756D02*
X9242D01*
X285Y3830D02*
X309Y3799D01*
X1890Y3622D02*
X2323D01*
X236Y3887D02*
X285Y3830D01*
X1890Y2805D02*
Y4380D01*
X315Y2805D02*
Y3778D01*
X236Y3701D02*
X315D01*
X236Y3622D02*
X315D01*
X236Y3779D02*
X315D01*
X236Y3543D02*
X315D01*
X236Y236D02*
Y3887D01*
Y2992D02*
X315D01*
X236Y2913D02*
X315D01*
X236Y3071D02*
X315D01*
Y2805D02*
X1890D01*
X236Y2834D02*
X315D01*
X236Y3386D02*
X315D01*
X236Y3307D02*
X315D01*
X236Y3464D02*
X315D01*
X236Y3149D02*
X315D01*
X236Y3228D02*
X315D01*
X18356Y22116D02*
X18445Y22028D01*
X13474Y21968D02*
X18445D01*
X13395Y21890D02*
X18445D01*
X13317Y21811D02*
X18445D01*
X13622Y22116D02*
X18356D01*
X13356Y21850D02*
X13622Y22116D01*
X13553Y22047D02*
X18425D01*
X18445Y21762D02*
Y22028D01*
X18268Y21585D02*
X18445Y21762D01*
X14272Y21585D02*
X18268D01*
X13632Y20945D02*
X14272Y21585D01*
X13464Y20945D02*
X13632D01*
X13238Y21732D02*
X18415D01*
X13159Y21653D02*
X18336D01*
X13159Y21496D02*
X14183D01*
X13159Y21575D02*
X14262D01*
X13159Y21417D02*
X14104D01*
X13159Y21654D02*
X13356Y21850D01*
X13159Y21338D02*
X14025D01*
X13159Y21181D02*
X13868D01*
X13159Y21260D02*
X13947D01*
X13189Y21102D02*
X13789D01*
X13159Y21132D02*
X13278Y21014D01*
X13159Y21132D02*
Y21654D01*
X13268Y21023D02*
X13710D01*
X21043Y18642D02*
X21073Y18612D01*
X21043Y18642D02*
Y19248D01*
X21313Y19518D01*
X21425D01*
X21506Y19599D01*
Y20719D01*
X21280Y20945D02*
X21506Y20719D01*
X21280Y20945D02*
Y21280D01*
X21585Y20886D02*
X21663Y20807D01*
Y19534D02*
Y20807D01*
X21490Y19360D02*
X21663Y19534D01*
X21379Y19360D02*
X21490D01*
X21240Y19222D02*
X21379Y19360D01*
X21240Y18898D02*
Y19222D01*
Y18898D02*
X21280Y18858D01*
X21476Y19124D02*
X21821Y19468D01*
X21585Y20886D02*
Y21260D01*
X21594Y21270D01*
X21821Y19468D02*
Y21043D01*
X21860Y19242D02*
X22057Y19439D01*
X21860Y19026D02*
Y19242D01*
X21398Y18563D02*
X21860Y19026D01*
X22057Y19439D02*
Y21142D01*
X16388Y26024D02*
X16673Y26309D01*
X17579D01*
X17657Y26230D01*
Y25955D02*
Y26230D01*
Y25955D02*
X17953Y25659D01*
X18661D01*
X18947Y25374D01*
Y25138D02*
Y25374D01*
Y25138D02*
X20020Y24065D01*
Y23563D02*
Y24065D01*
Y23563D02*
X20591Y22992D01*
X20974D01*
X17874Y25246D02*
X18583D01*
X17392Y25728D02*
X17874Y25246D01*
X17392Y25728D02*
Y26014D01*
X17906Y24951D02*
X18327D01*
X16853Y26004D02*
X17906Y24951D01*
X16831Y26004D02*
X16853D01*
X23297Y20453D02*
Y20570D01*
X21209Y22657D02*
X23297Y20570D01*
X19685Y22657D02*
X21209D01*
X21079Y22343D02*
X22215Y21207D01*
X19537Y22343D02*
X21079D01*
X21144Y22500D02*
X22992Y20652D01*
X19603Y22500D02*
X21144D01*
X22992Y19892D02*
Y20652D01*
X22106Y19134D02*
X22215Y19242D01*
Y21207D01*
X20659Y21585D02*
X20965Y21890D01*
X19970Y21585D02*
X20659D01*
X19764Y21378D02*
X19970Y21585D01*
X19764Y20886D02*
Y21378D01*
X18967Y21781D02*
X19390Y21358D01*
Y20846D02*
Y21358D01*
Y20846D02*
X20108Y20128D01*
X21437Y21555D02*
X21644D01*
X22057Y21142D01*
X18681Y21332D02*
Y22136D01*
Y21332D02*
X19941Y20073D01*
Y17726D02*
Y20073D01*
X20108Y17992D02*
Y20128D01*
X21594Y21260D02*
Y21270D01*
X15226Y28219D02*
X15659Y28652D01*
X17549Y27096D02*
X17598Y27047D01*
X18189D01*
X17618Y26722D02*
X17628Y26713D01*
X18179D01*
X16467Y25709D02*
X16925D01*
X16407Y25650D02*
X16467Y25709D01*
X21280Y18858D02*
Y18938D01*
X21073Y18612D02*
Y18681D01*
X21348Y17756D02*
X21762Y17343D01*
X20344Y17756D02*
X21348D01*
X20108Y17992D02*
X20344Y17756D01*
X19941Y17726D02*
X20157Y17510D01*
X21211D01*
X15994Y25679D02*
X16535Y25138D01*
X15994Y25679D02*
Y25709D01*
X11073Y22933D02*
X11191Y22815D01*
X11073Y22933D02*
Y25256D01*
X19685Y23917D02*
X19744Y23976D01*
X17756Y23917D02*
X19685D01*
X16850Y24823D02*
X17756Y23917D01*
X19291Y24104D02*
X19350Y24163D01*
X17874Y24104D02*
X19291D01*
X16841Y25138D02*
X17874Y24104D01*
X13829Y15827D02*
X13848D01*
X13179Y15177D02*
X13829Y15827D01*
X10815Y15669D02*
X11278Y15207D01*
X11890D01*
X12077Y15020D01*
X13465D01*
X13868Y15423D01*
X11815Y15669D02*
X12307Y15177D01*
X13179D01*
X12274Y16250D02*
X13041D01*
X15167Y12766D02*
Y15128D01*
X7411Y8041D02*
X8927D01*
X12224Y16988D02*
X12933D01*
X13110Y17165D01*
X22992Y19892D02*
X23455Y19429D01*
X24256D01*
X24744Y19917D01*
X18799Y23543D02*
X19685Y22657D01*
X17589Y23543D02*
X18799D01*
X17185Y23140D02*
X17589Y23543D01*
X12258Y23140D02*
X17185D01*
X11280Y22162D02*
X12258Y23140D01*
X11280Y20659D02*
Y22162D01*
X10886Y20266D02*
X11280Y20659D01*
X10886Y20020D02*
Y20266D01*
Y20020D02*
X11211Y19695D01*
X12864Y16575D02*
X12992Y16703D01*
X12195Y16575D02*
X12864D01*
X11220Y20118D02*
X11437Y20335D01*
Y22096D01*
X12323Y22982D01*
X17274D01*
X12441Y21811D02*
X12589Y21663D01*
X12766Y20669D02*
Y22037D01*
X12923Y21811D02*
X13465Y22352D01*
X12923Y20935D02*
Y21811D01*
Y20935D02*
X13159Y20699D01*
X17274Y22982D02*
X17657Y23366D01*
X18736D01*
X19603Y22500D01*
X22904Y17343D02*
X23130Y17116D01*
X21762Y17343D02*
X22904D01*
X23711Y16112D02*
X23711Y16112D01*
X20945Y16112D02*
X23711D01*
X18750Y23130D02*
X19537Y22343D01*
X17805Y23130D02*
X18750D01*
X21496Y11142D02*
Y13701D01*
X21486Y11132D02*
X21496Y11142D01*
X21112Y13445D02*
X21152Y13484D01*
X21112Y11152D02*
Y13445D01*
X21211Y13986D02*
X21496Y13701D01*
X18465Y22352D02*
X18681Y22136D01*
X13465Y22352D02*
X18465D01*
X13159Y20699D02*
X13268D01*
X23100Y8848D02*
X24478D01*
X16250Y24823D02*
X16850D01*
X11654Y28563D02*
X12785D01*
X16535Y25138D02*
X16841D01*
X16925Y25709D02*
X17949Y24685D01*
X18553D01*
X18878Y24360D01*
X16703Y25472D02*
X16939D01*
X18002Y24409D01*
X15167Y12766D02*
X15177Y12776D01*
X7392Y25577D02*
Y26063D01*
Y25577D02*
X8514Y24455D01*
X6565Y25689D02*
X6693D01*
X6191Y25315D02*
X6565Y25689D01*
X7087Y25423D02*
Y25807D01*
X6476Y25157D02*
X6654Y25335D01*
X5157Y25000D02*
X6919D01*
X7126Y24715D02*
X7402Y24990D01*
X5010Y25157D02*
X6476D01*
X8514Y23494D02*
Y24455D01*
Y23494D02*
X8907Y23100D01*
X8238Y23228D02*
X8356Y23346D01*
X12589Y20581D02*
Y21663D01*
Y20581D02*
X12756Y20413D01*
Y19291D02*
Y20413D01*
Y19291D02*
X13179Y18868D01*
X7087Y25423D02*
X7224Y25285D01*
X7461D01*
X8356Y24390D01*
Y23346D02*
Y24390D01*
X7224Y23612D02*
X7559D01*
X6900Y23927D02*
X7343D01*
X7559Y23612D02*
X8081Y24134D01*
X7343Y23927D02*
X7648Y24232D01*
X12766Y20669D02*
X13012Y20423D01*
X807Y21053D02*
X1093Y20768D01*
X807Y21053D02*
Y24380D01*
X1201Y24774D01*
X4403D01*
X4945Y25315D01*
X6191D01*
X1014Y23465D02*
X1280Y23730D01*
X1014Y21683D02*
Y23465D01*
Y21683D02*
X1451Y21246D01*
X1280Y23730D02*
X3583D01*
X5010Y25157D01*
X1970Y22766D02*
X2923D01*
X5157Y25000D01*
X2626Y22246D02*
X5095Y24715D01*
X1451Y22246D02*
X1970Y22766D01*
X5095Y24715D02*
X7126D01*
X2451Y22246D02*
X2626D01*
X6752Y24301D02*
X7136D01*
X7303Y24469D01*
D100*
X24173Y33780D02*
Y34488D01*
Y33780D02*
X24882D01*
X23465D02*
X24173D01*
Y33071D02*
Y33780D01*
Y3593D02*
X24882D01*
X24173D02*
Y4301D01*
X23465Y3593D02*
X24173D01*
Y2884D02*
Y3593D01*
X16299D02*
Y4301D01*
Y3593D02*
X17008D01*
X15591D02*
X16299D01*
Y2884D02*
Y3593D01*
X5276Y33780D02*
Y34488D01*
Y33780D02*
X5984D01*
X4567D02*
X5276D01*
Y33071D02*
Y33780D01*
X1152Y16663D02*
Y17136D01*
Y16191D02*
Y16663D01*
X3071Y3593D02*
Y4301D01*
Y3593D02*
X3780D01*
X2362D02*
X3071D01*
Y2884D02*
Y3593D01*
X15413Y27795D02*
X15994Y28376D01*
X15049Y27795D02*
X15413D01*
X14502Y31254D02*
X14764Y31516D01*
X14124Y31254D02*
X14502D01*
X11841Y10817D02*
X12421D01*
X20876Y10433D02*
X21890D01*
X22146Y10689D01*
X17017Y8425D02*
X17106Y8514D01*
Y8898D01*
X17608Y9400D01*
Y9823D01*
X17913Y10128D01*
X22687Y17126D02*
X23110Y16703D01*
X19626Y17126D02*
X22687D01*
X11191Y11467D02*
X11841Y10817D01*
X6201Y18632D02*
Y19134D01*
X6919Y19852D01*
X9606D01*
X6674Y21535D02*
X6703Y21506D01*
X17106Y9587D02*
X17225D01*
X16722Y9970D02*
X17106Y9587D01*
X3612Y21240D02*
X5758D01*
X2805Y21535D02*
X6674D01*
X2515Y21246D02*
X2805Y21535D01*
X6841Y21850D02*
X7156Y21535D01*
X2730Y21850D02*
X6841D01*
X2648Y21769D02*
X2730Y21850D01*
X1949Y20748D02*
X2451Y20246D01*
X1949Y20748D02*
Y21634D01*
X2084Y21769D01*
X2648D01*
X2451Y21246D02*
X2515D01*
D101*
X19439Y25295D02*
Y25581D01*
Y25295D02*
X20187Y24547D01*
X19626Y17126D02*
Y19931D01*
Y16870D02*
Y17126D01*
X17835Y21722D02*
X19626Y19931D01*
X20404Y22028D02*
X20512Y21919D01*
X19282Y22028D02*
X20404D01*
X18642Y22667D02*
X19282Y22028D01*
X18307Y11526D02*
X18799Y11033D01*
X15935Y11526D02*
X18307D01*
X11968D02*
X12530D01*
X11270Y12224D02*
X11968Y11526D01*
X11900Y21644D02*
Y21998D01*
X12569Y22667D01*
X18642D01*
X9281Y21614D02*
X9508Y21841D01*
Y23504D01*
X9104Y23907D02*
X9508Y23504D01*
X9104Y23907D02*
Y24774D01*
X8720Y25157D02*
X9104Y24774D01*
X8720Y25157D02*
Y26427D01*
X315Y4380D02*
Y36319D01*
X5364Y14183D02*
Y15453D01*
X7244Y33780D02*
Y36565D01*
X6722Y37087D02*
X7244Y36565D01*
X1083Y37087D02*
X6722D01*
X315Y36319D02*
X1083Y37087D01*
X315Y4380D02*
X1102Y3593D01*
D104*
X13553Y21132D02*
X13567Y21118D01*
Y20427D02*
Y21118D01*
X13287Y20148D02*
X13567Y20427D01*
X13287Y19478D02*
Y20148D01*
D105*
X2343Y13742D02*
D03*
X10167Y12136D02*
D03*
X1451Y23246D02*
D03*
Y20246D02*
D03*
Y21246D02*
D03*
X2451Y23246D02*
D03*
Y24246D02*
D03*
Y20246D02*
D03*
Y21246D02*
D03*
X1451Y22246D02*
D03*
X2451D02*
D03*
D106*
X2343Y11742D02*
D03*
X10167Y13514D02*
D03*
X1451Y24246D02*
D03*
D107*
X18268Y3593D02*
D03*
X16299D02*
D03*
X24173D02*
D03*
X22205D02*
D03*
X20236Y33780D02*
D03*
X22205D02*
D03*
X5276D02*
D03*
X7008Y3593D02*
D03*
X1339Y33780D02*
D03*
X3071Y3593D02*
D03*
D108*
X14331D02*
D03*
X20236D02*
D03*
X24173Y33780D02*
D03*
X7244D02*
D03*
X5039Y3593D02*
D03*
X3307Y33780D02*
D03*
X1102Y3593D02*
D03*
D109*
X10404Y9341D02*
D03*
Y7341D02*
D03*
X23711Y16112D02*
D03*
Y13514D02*
D03*
Y10984D02*
D03*
X11815Y15669D02*
D03*
X9815D02*
D03*
X10815D02*
D03*
X23744Y20917D02*
D03*
X24744D02*
D03*
X23744Y19917D02*
D03*
Y18917D02*
D03*
X24744Y19917D02*
D03*
D110*
X24711Y16112D02*
D03*
Y13514D02*
D03*
Y10984D02*
D03*
X12815Y15669D02*
D03*
D111*
X2136Y16663D02*
D03*
X3120D02*
D03*
D112*
X1152D02*
D03*
D113*
X24744Y18917D02*
D03*
D114*
X9882Y33504D02*
D03*
Y3976D02*
D03*
D115*
X9301Y7746D02*
D03*
X5155Y22884D02*
D03*
X5157Y23898D02*
D03*
X5155Y25846D02*
D03*
X24774Y23396D02*
D03*
X23386Y22234D02*
D03*
X22037Y23937D02*
D03*
X20579Y18327D02*
D03*
X12579Y26083D02*
D03*
X13150Y18228D02*
D03*
X23789Y8287D02*
D03*
X19203Y16476D02*
D03*
X20591Y16467D02*
D03*
X18612Y9675D02*
D03*
X18218Y9724D02*
D03*
X20187Y35669D02*
D03*
X22175Y35492D02*
D03*
X24350Y35679D02*
D03*
X22382Y31821D02*
D03*
X20325Y25797D02*
D03*
X19620Y27470D02*
D03*
X21083Y19724D02*
D03*
X18150Y33976D02*
D03*
X16900Y35866D02*
D03*
X15197Y34006D02*
D03*
X13868Y36309D02*
D03*
X18756Y32254D02*
D03*
X18228Y31762D02*
D03*
X14577Y29498D02*
D03*
X14331Y30187D02*
D03*
X16506Y27106D02*
D03*
X15000Y27165D02*
D03*
X14075Y27086D02*
D03*
X13443Y29611D02*
D03*
X13390Y30266D02*
D03*
X16585Y30169D02*
D03*
X15846Y29547D02*
D03*
X15728Y30108D02*
D03*
X18868Y28524D02*
D03*
X24852Y24675D02*
D03*
X23888Y24774D02*
D03*
X24380Y24213D02*
D03*
X19439Y25581D02*
D03*
X20187Y24547D02*
D03*
X15994Y28376D02*
D03*
X15049Y27795D02*
D03*
X14764Y31516D02*
D03*
X14124Y31254D02*
D03*
X16388Y26024D02*
D03*
X20974Y22992D02*
D03*
X18583Y25246D02*
D03*
X17392Y26014D02*
D03*
X18327Y24951D02*
D03*
X16831Y26004D02*
D03*
X20965Y21890D02*
D03*
X19764Y20886D02*
D03*
X15659Y28652D02*
D03*
X15226Y28219D02*
D03*
X17549Y27096D02*
D03*
X18189Y27047D02*
D03*
X17618Y26722D02*
D03*
X18179Y26713D02*
D03*
X16407Y25650D02*
D03*
X19547Y19429D02*
D03*
X21073Y18612D02*
D03*
X21398Y18563D02*
D03*
X19587Y16870D02*
D03*
X915Y12726D02*
D03*
X3760Y14331D02*
D03*
X4518Y13760D02*
D03*
X4311Y12742D02*
D03*
X4419Y11860D02*
D03*
X2776Y18878D02*
D03*
X3789Y19282D02*
D03*
X1683Y19213D02*
D03*
X1604Y25630D02*
D03*
X866Y27077D02*
D03*
X7215Y30787D02*
D03*
X5384Y31909D02*
D03*
X2923Y31181D02*
D03*
X15148Y12047D02*
D03*
X14301Y13563D02*
D03*
X12539Y23514D02*
D03*
X15994Y25709D02*
D03*
X11073Y25256D02*
D03*
X12421Y10817D02*
D03*
X14409Y19606D02*
D03*
X15148Y20719D02*
D03*
X17904Y20748D02*
D03*
X18425Y19242D02*
D03*
X18406Y17461D02*
D03*
X16722Y16713D02*
D03*
X11447Y19272D02*
D03*
X11398Y18819D02*
D03*
X11467Y18307D02*
D03*
X12018Y18022D02*
D03*
X11447Y17480D02*
D03*
X20128Y13278D02*
D03*
X20551D02*
D03*
X19754D02*
D03*
X19252D02*
D03*
X18750D02*
D03*
X18189D02*
D03*
X15453Y11083D02*
D03*
X14587Y11073D02*
D03*
X20492Y10827D02*
D03*
X22362Y12323D02*
D03*
X22697Y12667D02*
D03*
X20089Y11142D02*
D03*
X20866Y14272D02*
D03*
X20886Y15256D02*
D03*
X20364Y15630D02*
D03*
X19547Y15748D02*
D03*
X10551Y18799D02*
D03*
X4734Y17323D02*
D03*
X11181Y5846D02*
D03*
X11280Y10177D02*
D03*
X11171Y14449D02*
D03*
X9459Y14715D02*
D03*
X10167Y16634D02*
D03*
X10236Y17146D02*
D03*
X13868Y15827D02*
D03*
Y15423D02*
D03*
X13041Y16250D02*
D03*
X12274D02*
D03*
X22146Y10689D02*
D03*
X13514Y10787D02*
D03*
X11339Y9134D02*
D03*
X14311Y9980D02*
D03*
X13957Y9281D02*
D03*
X13248Y8583D02*
D03*
X12116Y8622D02*
D03*
X13937Y7539D02*
D03*
X13455Y6850D02*
D03*
X13366Y6368D02*
D03*
X13386Y5974D02*
D03*
Y5472D02*
D03*
X13406Y4941D02*
D03*
Y4272D02*
D03*
X13415Y3711D02*
D03*
X13406Y3179D02*
D03*
X13307Y2549D02*
D03*
X13002Y2283D02*
D03*
X12687Y1919D02*
D03*
X11831Y6594D02*
D03*
X12146Y6161D02*
D03*
X12185Y5512D02*
D03*
Y5000D02*
D03*
X12165Y4173D02*
D03*
X12146Y3474D02*
D03*
X12008Y2992D02*
D03*
X11594Y2766D02*
D03*
X11112Y2677D02*
D03*
X17017Y8425D02*
D03*
X16142Y16693D02*
D03*
X14400Y17254D02*
D03*
X16880Y20413D02*
D03*
X16427Y17795D02*
D03*
X12087Y25463D02*
D03*
X11762Y25994D02*
D03*
X5531Y9665D02*
D03*
X4045Y17333D02*
D03*
X4459Y15965D02*
D03*
X3278Y35394D02*
D03*
X5069Y35463D02*
D03*
X10640Y36427D02*
D03*
X8642Y36456D02*
D03*
X9213Y31880D02*
D03*
X10561Y30354D02*
D03*
X10827Y27047D02*
D03*
X9695Y26427D02*
D03*
X9882Y28140D02*
D03*
X9459Y28711D02*
D03*
X8524Y29902D02*
D03*
X9360Y29429D02*
D03*
X1181Y13957D02*
D03*
X1033Y15669D02*
D03*
X1358Y17992D02*
D03*
X9232Y17185D02*
D03*
X8780Y16555D02*
D03*
Y15945D02*
D03*
X24724Y6417D02*
D03*
X22835Y6663D02*
D03*
X6191Y7539D02*
D03*
X5335Y7244D02*
D03*
X4272Y7215D02*
D03*
X2697Y1821D02*
D03*
X2303Y6801D02*
D03*
X2224Y8465D02*
D03*
X5531Y9124D02*
D03*
X5108D02*
D03*
Y9665D02*
D03*
X5315Y9400D02*
D03*
X9124Y11585D02*
D03*
X9754Y10256D02*
D03*
X9055Y10689D02*
D03*
X8307Y10354D02*
D03*
X8287Y9331D02*
D03*
X8691Y9154D02*
D03*
X9085Y8907D02*
D03*
X3917Y20433D02*
D03*
X21358Y29222D02*
D03*
X21368Y30276D02*
D03*
X21722Y27756D02*
D03*
X21978Y27116D02*
D03*
X23031Y27618D02*
D03*
X23740Y27116D02*
D03*
X8140Y26713D02*
D03*
X6831Y26309D02*
D03*
X6063Y27018D02*
D03*
X7520Y27037D02*
D03*
X6821Y27795D02*
D03*
X3720Y26309D02*
D03*
X2884Y27037D02*
D03*
X4429Y27028D02*
D03*
X3720Y27923D02*
D03*
X6240Y16476D02*
D03*
X5413D02*
D03*
Y16949D02*
D03*
X6240D02*
D03*
X5856Y16713D02*
D03*
X3228Y17805D02*
D03*
X9341Y18829D02*
D03*
X9006Y17756D02*
D03*
X8583Y18819D02*
D03*
X7776Y18839D02*
D03*
X7667Y19262D02*
D03*
X4872Y19114D02*
D03*
X5541D02*
D03*
X4341Y19803D02*
D03*
X10738Y22795D02*
D03*
X10148Y22402D02*
D03*
X13071Y23514D02*
D03*
X12825D02*
D03*
X14872Y23543D02*
D03*
X14311Y23730D02*
D03*
X24370Y14656D02*
D03*
X24951Y15177D02*
D03*
X24902Y12589D02*
D03*
X23789Y9656D02*
D03*
X12953Y13642D02*
D03*
X12648Y14065D02*
D03*
X14321Y14075D02*
D03*
X19705Y14173D02*
D03*
X19222Y14222D02*
D03*
X19518Y14439D02*
D03*
X19291Y14833D02*
D03*
X17589Y13041D02*
D03*
X16161Y13465D02*
D03*
X17766Y15275D02*
D03*
X18061Y14183D02*
D03*
X16890Y13937D02*
D03*
X16900Y14439D02*
D03*
X16860Y19213D02*
D03*
X15256Y18612D02*
D03*
X10935Y344D02*
D03*
X8524Y295D02*
D03*
X8829Y2874D02*
D03*
X8376Y2421D02*
D03*
X7894Y2480D02*
D03*
X7480Y2785D02*
D03*
X6447Y2884D02*
D03*
X5935Y2913D02*
D03*
X7963Y591D02*
D03*
X7480Y994D02*
D03*
X6929Y1634D02*
D03*
X6358Y2087D02*
D03*
X5719Y2136D02*
D03*
X5108Y2156D02*
D03*
X4665Y2549D02*
D03*
X11142Y1388D02*
D03*
X12106Y945D02*
D03*
X12677Y1378D02*
D03*
X8927Y8041D02*
D03*
X7411D02*
D03*
X12224Y16988D02*
D03*
X23297Y20453D02*
D03*
X11211Y19695D02*
D03*
X12992Y16703D02*
D03*
X12195Y16575D02*
D03*
X11220Y20118D02*
D03*
X12441Y21811D02*
D03*
X12766Y22037D02*
D03*
X13110Y17165D02*
D03*
X23130Y17116D02*
D03*
X18967Y21781D02*
D03*
X20945Y16112D02*
D03*
X22106Y19134D02*
D03*
X21594Y21270D02*
D03*
X21280Y21280D02*
D03*
X17805Y23130D02*
D03*
X17913Y10128D02*
D03*
X21486Y11132D02*
D03*
X21112Y11152D02*
D03*
X23110Y16703D02*
D03*
X20876Y10433D02*
D03*
X21211Y13986D02*
D03*
X21211Y17510D02*
D03*
X13553Y21132D02*
D03*
X13415Y21398D02*
D03*
X13740Y21358D02*
D03*
X13268Y20699D02*
D03*
X24478Y8848D02*
D03*
X23100D02*
D03*
X21152Y13484D02*
D03*
X11191Y22815D02*
D03*
X16250Y24823D02*
D03*
X19744Y23976D02*
D03*
X21437Y21555D02*
D03*
X11191Y11467D02*
D03*
X6201Y18632D02*
D03*
X9606Y19852D02*
D03*
X11654Y28563D02*
D03*
X12785D02*
D03*
X19350Y24163D02*
D03*
X18878Y24360D02*
D03*
X21280Y18858D02*
D03*
X16703Y25472D02*
D03*
X18002Y24409D02*
D03*
X21821Y21043D02*
D03*
X21476Y19124D02*
D03*
X6703Y21506D02*
D03*
X7490Y21663D02*
D03*
X17225Y9587D02*
D03*
X16722Y9970D02*
D03*
X15177Y12776D02*
D03*
X15167Y15128D02*
D03*
X7392Y26063D02*
D03*
X6693Y25689D02*
D03*
X7087Y25807D02*
D03*
X6654Y25335D02*
D03*
X7402Y24990D02*
D03*
X6919Y25000D02*
D03*
X8907Y23100D02*
D03*
X8238Y23228D02*
D03*
X13179Y18868D02*
D03*
X7224Y23612D02*
D03*
X6900Y23927D02*
D03*
X7648Y24232D02*
D03*
X13012Y20423D02*
D03*
X13602Y21644D02*
D03*
X5758Y21240D02*
D03*
X1093Y20768D02*
D03*
X6752Y24301D02*
D03*
X8081Y24134D02*
D03*
X7303Y24469D02*
D03*
X6486Y22441D02*
D03*
X13209Y17559D02*
D03*
X13287Y19478D02*
D03*
X18100Y21919D02*
D03*
X15276Y21890D02*
D03*
X7156Y21535D02*
D03*
X3612Y21240D02*
D03*
D116*
X18799Y11033D02*
D03*
X15935Y11526D02*
D03*
X12530D02*
D03*
X11270Y12224D02*
D03*
X11900Y21644D02*
D03*
X20512Y21919D02*
D03*
X9281Y21614D02*
D03*
X8720Y26427D02*
D03*
X5364Y14183D02*
D03*
Y15453D02*
D03*
M02*
